<?xml version="1.0" encoding="UTF-8"?>
<svg xmlns="http://www.w3.org/2000/svg" xmlns:xlink="http://www.w3.org/1999/xlink" width="164pt" height="109pt" viewBox="0 0 164 109" version="1.1">
<g id="surface307">
<path style="fill:none;stroke-width:0.566929;stroke-linecap:butt;stroke-linejoin:miter;stroke:rgb(0%,0%,0%);stroke-opacity:1;stroke-miterlimit:10;" d="M 4.960938 -0.0292969 L 4.960938 17.886719 " transform="matrix(2,0,0,2,-7,1)"/>
<path style="fill:none;stroke-width:0.566929;stroke-linecap:butt;stroke-linejoin:miter;stroke:rgb(0%,0%,0%);stroke-opacity:1;stroke-miterlimit:10;" d="M 14.882812 17.886719 C 14.882812 13.408203 17.361328 11.167969 18.601562 10.048828 " transform="matrix(2,0,0,2,-7,1)"/>
<path style="fill:none;stroke-width:0.566929;stroke-linecap:butt;stroke-linejoin:miter;stroke:rgb(0%,0%,0%);stroke-opacity:1;stroke-miterlimit:10;" d="M 21.082031 7.808594 C 22.322266 6.689453 24.802734 4.451172 24.802734 -0.0292969 " transform="matrix(2,0,0,2,-7,1)"/>
<path style="fill:none;stroke-width:0.566929;stroke-linecap:butt;stroke-linejoin:miter;stroke:rgb(0%,0%,0%);stroke-opacity:1;stroke-miterlimit:10;" d="M 24.802734 17.886719 C 24.802734 8.929688 14.882812 8.929688 14.882812 -0.0292969 " transform="matrix(2,0,0,2,-7,1)"/>
<path style="fill:none;stroke-width:0.566929;stroke-linecap:butt;stroke-linejoin:miter;stroke:rgb(0%,0%,0%);stroke-opacity:1;stroke-miterlimit:10;" d="M 34.724609 17.886719 C 34.724609 8.929688 44.646484 8.929688 44.646484 -0.0292969 " transform="matrix(2,0,0,2,-7,1)"/>
<path style="fill:none;stroke-width:0.566929;stroke-linecap:butt;stroke-linejoin:miter;stroke:rgb(0%,0%,0%);stroke-opacity:1;stroke-miterlimit:10;" d="M 44.646484 17.886719 C 44.646484 13.408203 42.166016 11.167969 40.925781 10.048828 " transform="matrix(2,0,0,2,-7,1)"/>
<path style="fill:none;stroke-width:0.566929;stroke-linecap:butt;stroke-linejoin:miter;stroke:rgb(0%,0%,0%);stroke-opacity:1;stroke-miterlimit:10;" d="M 38.445312 7.808594 C 37.205078 6.689453 34.724609 4.451172 34.724609 -0.0292969 " transform="matrix(2,0,0,2,-7,1)"/>
<path style="fill:none;stroke-width:0.566929;stroke-linecap:butt;stroke-linejoin:miter;stroke:rgb(0%,0%,0%);stroke-opacity:1;stroke-miterlimit:10;" d="M 54.566406 -0.0292969 L 54.566406 17.886719 " transform="matrix(2,0,0,2,-7,1)"/>
<path style="fill:none;stroke-width:0.566929;stroke-linecap:butt;stroke-linejoin:miter;stroke:rgb(0%,0%,0%);stroke-opacity:1;stroke-miterlimit:10;" d="M 64.488281 -0.0292969 L 64.488281 17.886719 " transform="matrix(2,0,0,2,-7,1)"/>
<path style="fill:none;stroke-width:0.566929;stroke-linecap:butt;stroke-linejoin:miter;stroke:rgb(0%,0%,0%);stroke-opacity:1;stroke-miterlimit:10;" d="M 74.410156 17.886719 C 74.410156 8.929688 84.330078 8.929688 84.330078 -0.0292969 " transform="matrix(2,0,0,2,-7,1)"/>
<path style="fill:none;stroke-width:0.566929;stroke-linecap:butt;stroke-linejoin:miter;stroke:rgb(0%,0%,0%);stroke-opacity:1;stroke-miterlimit:10;" d="M 84.330078 17.886719 C 84.330078 13.408203 81.849609 11.167969 80.609375 10.048828 " transform="matrix(2,0,0,2,-7,1)"/>
<path style="fill:none;stroke-width:0.566929;stroke-linecap:butt;stroke-linejoin:miter;stroke:rgb(0%,0%,0%);stroke-opacity:1;stroke-miterlimit:10;" d="M 78.130859 7.808594 C 76.890625 6.689453 74.410156 4.451172 74.410156 -0.0292969 " transform="matrix(2,0,0,2,-7,1)"/>
<path style="fill:none;stroke-width:0.566929;stroke-linecap:butt;stroke-linejoin:miter;stroke:rgb(0%,0%,0%);stroke-opacity:1;stroke-miterlimit:10;" d="M 4.960938 35.744141 C 4.960938 26.787109 14.882812 26.787109 14.882812 17.830078 " transform="matrix(2,0,0,2,-7,1)"/>
<path style="fill:none;stroke-width:0.566929;stroke-linecap:butt;stroke-linejoin:miter;stroke:rgb(0%,0%,0%);stroke-opacity:1;stroke-miterlimit:10;" d="M 14.882812 35.744141 C 14.882812 31.265625 12.402344 29.027344 11.162109 27.90625 " transform="matrix(2,0,0,2,-7,1)"/>
<path style="fill:none;stroke-width:0.566929;stroke-linecap:butt;stroke-linejoin:miter;stroke:rgb(0%,0%,0%);stroke-opacity:1;stroke-miterlimit:10;" d="M 8.681641 25.667969 C 7.441406 24.548828 4.960938 22.308594 4.960938 17.830078 " transform="matrix(2,0,0,2,-7,1)"/>
<path style="fill:none;stroke-width:0.566929;stroke-linecap:butt;stroke-linejoin:miter;stroke:rgb(0%,0%,0%);stroke-opacity:1;stroke-miterlimit:10;" d="M 24.802734 17.830078 L 24.802734 35.744141 " transform="matrix(2,0,0,2,-7,1)"/>
<path style="fill:none;stroke-width:0.566929;stroke-linecap:butt;stroke-linejoin:miter;stroke:rgb(0%,0%,0%);stroke-opacity:1;stroke-miterlimit:10;" d="M 34.724609 35.744141 C 34.724609 31.265625 37.205078 29.027344 38.445312 27.90625 " transform="matrix(2,0,0,2,-7,1)"/>
<path style="fill:none;stroke-width:0.566929;stroke-linecap:butt;stroke-linejoin:miter;stroke:rgb(0%,0%,0%);stroke-opacity:1;stroke-miterlimit:10;" d="M 40.925781 25.667969 C 42.166016 24.548828 44.646484 22.308594 44.646484 17.830078 " transform="matrix(2,0,0,2,-7,1)"/>
<path style="fill:none;stroke-width:0.566929;stroke-linecap:butt;stroke-linejoin:miter;stroke:rgb(0%,0%,0%);stroke-opacity:1;stroke-miterlimit:10;" d="M 44.646484 35.744141 C 44.646484 26.787109 34.724609 26.787109 34.724609 17.830078 " transform="matrix(2,0,0,2,-7,1)"/>
<path style="fill:none;stroke-width:0.566929;stroke-linecap:butt;stroke-linejoin:miter;stroke:rgb(0%,0%,0%);stroke-opacity:1;stroke-miterlimit:10;" d="M 54.566406 17.830078 L 54.566406 35.744141 " transform="matrix(2,0,0,2,-7,1)"/>
<path style="fill:none;stroke-width:0.566929;stroke-linecap:butt;stroke-linejoin:miter;stroke:rgb(0%,0%,0%);stroke-opacity:1;stroke-miterlimit:10;" d="M 64.488281 17.830078 L 64.488281 35.744141 " transform="matrix(2,0,0,2,-7,1)"/>
<path style="fill:none;stroke-width:0.566929;stroke-linecap:butt;stroke-linejoin:miter;stroke:rgb(0%,0%,0%);stroke-opacity:1;stroke-miterlimit:10;" d="M 74.410156 35.744141 C 74.410156 26.787109 84.330078 26.787109 84.330078 17.830078 " transform="matrix(2,0,0,2,-7,1)"/>
<path style="fill:none;stroke-width:0.566929;stroke-linecap:butt;stroke-linejoin:miter;stroke:rgb(0%,0%,0%);stroke-opacity:1;stroke-miterlimit:10;" d="M 84.330078 35.744141 C 84.330078 31.265625 81.849609 29.027344 80.609375 27.90625 " transform="matrix(2,0,0,2,-7,1)"/>
<path style="fill:none;stroke-width:0.566929;stroke-linecap:butt;stroke-linejoin:miter;stroke:rgb(0%,0%,0%);stroke-opacity:1;stroke-miterlimit:10;" d="M 78.130859 25.667969 C 76.890625 24.548828 74.410156 22.308594 74.410156 17.830078 " transform="matrix(2,0,0,2,-7,1)"/>
<path style="fill:none;stroke-width:0.566929;stroke-linecap:butt;stroke-linejoin:miter;stroke:rgb(0%,0%,0%);stroke-opacity:1;stroke-miterlimit:10;" d="M 4.960938 53.603516 C 4.960938 49.125 7.441406 46.884766 8.681641 45.765625 " transform="matrix(2,0,0,2,-7,1)"/>
<path style="fill:none;stroke-width:0.566929;stroke-linecap:butt;stroke-linejoin:miter;stroke:rgb(0%,0%,0%);stroke-opacity:1;stroke-miterlimit:10;" d="M 11.162109 43.525391 C 12.402344 42.40625 14.882812 40.166016 14.882812 35.6875 " transform="matrix(2,0,0,2,-7,1)"/>
<path style="fill:none;stroke-width:0.566929;stroke-linecap:butt;stroke-linejoin:miter;stroke:rgb(0%,0%,0%);stroke-opacity:1;stroke-miterlimit:10;" d="M 14.882812 53.603516 C 14.882812 44.646484 4.960938 44.646484 4.960938 35.6875 " transform="matrix(2,0,0,2,-7,1)"/>
<path style="fill:none;stroke-width:0.566929;stroke-linecap:butt;stroke-linejoin:miter;stroke:rgb(0%,0%,0%);stroke-opacity:1;stroke-miterlimit:10;" d="M 24.802734 35.6875 L 24.802734 53.603516 " transform="matrix(2,0,0,2,-7,1)"/>
<path style="fill:none;stroke-width:0.566929;stroke-linecap:butt;stroke-linejoin:miter;stroke:rgb(0%,0%,0%);stroke-opacity:1;stroke-miterlimit:10;" d="M 34.724609 35.6875 L 34.724609 53.603516 " transform="matrix(2,0,0,2,-7,1)"/>
<path style="fill:none;stroke-width:0.566929;stroke-linecap:butt;stroke-linejoin:miter;stroke:rgb(0%,0%,0%);stroke-opacity:1;stroke-miterlimit:10;" d="M 44.646484 53.603516 C 44.646484 44.646484 54.566406 44.646484 54.566406 35.6875 " transform="matrix(2,0,0,2,-7,1)"/>
<path style="fill:none;stroke-width:0.566929;stroke-linecap:butt;stroke-linejoin:miter;stroke:rgb(0%,0%,0%);stroke-opacity:1;stroke-miterlimit:10;" d="M 54.566406 53.603516 C 54.566406 49.125 52.085938 46.884766 50.845703 45.765625 " transform="matrix(2,0,0,2,-7,1)"/>
<path style="fill:none;stroke-width:0.566929;stroke-linecap:butt;stroke-linejoin:miter;stroke:rgb(0%,0%,0%);stroke-opacity:1;stroke-miterlimit:10;" d="M 48.365234 43.525391 C 47.126953 42.40625 44.646484 40.166016 44.646484 35.6875 " transform="matrix(2,0,0,2,-7,1)"/>
<path style="fill:none;stroke-width:0.566929;stroke-linecap:butt;stroke-linejoin:miter;stroke:rgb(0%,0%,0%);stroke-opacity:1;stroke-miterlimit:10;" d="M 64.488281 53.603516 C 64.488281 49.125 66.96875 46.884766 68.208984 45.765625 " transform="matrix(2,0,0,2,-7,1)"/>
<path style="fill:none;stroke-width:0.566929;stroke-linecap:butt;stroke-linejoin:miter;stroke:rgb(0%,0%,0%);stroke-opacity:1;stroke-miterlimit:10;" d="M 70.689453 43.525391 C 71.929688 42.40625 74.410156 40.166016 74.410156 35.6875 " transform="matrix(2,0,0,2,-7,1)"/>
<path style="fill:none;stroke-width:0.566929;stroke-linecap:butt;stroke-linejoin:miter;stroke:rgb(0%,0%,0%);stroke-opacity:1;stroke-miterlimit:10;" d="M 74.410156 53.603516 C 74.410156 44.646484 64.488281 44.646484 64.488281 35.6875 " transform="matrix(2,0,0,2,-7,1)"/>
<path style="fill:none;stroke-width:0.566929;stroke-linecap:butt;stroke-linejoin:miter;stroke:rgb(0%,0%,0%);stroke-opacity:1;stroke-miterlimit:10;" d="M 84.330078 35.6875 L 84.330078 53.603516 " transform="matrix(2,0,0,2,-7,1)"/>
</g>
</svg>
