<?xml version="1.0" encoding="UTF-8"?>
<svg xmlns="http://www.w3.org/2000/svg" xmlns:xlink="http://www.w3.org/1999/xlink" width="100pt" height="172pt" viewBox="0 0 100 172" version="1.1">
<g id="surface465">
<path style=" stroke:none;fill-rule:nonzero;fill:rgb(0%,0%,0%);fill-opacity:1;" d="M 13.1875 79.6875 C 13.21875 79.59375 13.25 79.5 13.25 79.375 C 13.25 79.1875 13.15625 79.1875 12.75 79.1875 L 4.34375 79.1875 C 3.875 79.1875 3.84375 79.21875 3.71875 79.59375 L 2.625 83.1875 C 2.59375 83.28125 2.5625 83.4375 2.5625 83.46875 C 2.5625 83.46875 2.5625 83.6875 2.8125 83.6875 C 3 83.6875 3.03125 83.53125 3.0625 83.46875 C 3.84375 81.125 4.875 79.8125 7.96875 79.8125 L 11.21875 79.8125 L 0.09375 92.28125 C 0.09375 92.28125 0 92.5625 0 92.625 C 0 92.8125 0.125 92.8125 0.5 92.8125 L 9.15625 92.8125 C 9.65625 92.8125 9.65625 92.78125 9.78125 92.40625 L 11.21875 88 C 11.21875 87.9375 11.28125 87.78125 11.28125 87.71875 C 11.28125 87.59375 11.21875 87.5 11.03125 87.5 C 10.84375 87.5 10.8125 87.5625 10.6875 88 C 9.8125 90.6875 8.84375 92.125 5.46875 92.125 L 2.0625 92.125 Z M 13.1875 79.6875 "/>
<path style=" stroke:none;fill-rule:nonzero;fill:rgb(0%,0%,0%);fill-opacity:1;" d="M 33.09375 86.28125 C 33.40625 86.28125 33.78125 86.28125 33.78125 85.90625 C 33.78125 85.5 33.40625 85.5 33.125 85.5 L 21.1875 85.5 C 20.90625 85.5 20.53125 85.5 20.53125 85.90625 C 20.53125 86.28125 20.90625 86.28125 21.1875 86.28125 Z M 33.125 90.15625 C 33.40625 90.15625 33.78125 90.15625 33.78125 89.75 C 33.78125 89.375 33.40625 89.375 33.09375 89.375 L 21.1875 89.375 C 20.90625 89.375 20.53125 89.375 20.53125 89.75 C 20.53125 90.15625 20.90625 90.15625 21.1875 90.15625 Z M 33.125 90.15625 "/>
<path style="fill:none;stroke-width:0.566929;stroke-linecap:butt;stroke-linejoin:miter;stroke:rgb(0%,0%,0%);stroke-opacity:1;stroke-miterlimit:10;" d="M 23.560547 -28.318359 C 23.560547 -35.433594 36.292969 -35.433594 36.292969 -42.548828 " transform="matrix(2,0,0,2,-1,86)"/>
<path style="fill:none;stroke-width:0.566929;stroke-linecap:butt;stroke-linejoin:miter;stroke:rgb(0%,0%,0%);stroke-opacity:1;stroke-miterlimit:10;" d="M 36.292969 -28.318359 C 36.292969 -31.875 33.109375 -33.654297 31.517578 -34.542969 " transform="matrix(2,0,0,2,-1,86)"/>
<path style="fill:none;stroke-width:0.566929;stroke-linecap:butt;stroke-linejoin:miter;stroke:rgb(0%,0%,0%);stroke-opacity:1;stroke-miterlimit:10;" d="M 28.333984 -36.322266 C 26.742188 -37.210938 23.560547 -38.990234 23.560547 -42.548828 " transform="matrix(2,0,0,2,-1,86)"/>
<path style="fill:none;stroke-width:0.566929;stroke-linecap:butt;stroke-linejoin:miter;stroke:rgb(0%,0%,0%);stroke-opacity:1;stroke-miterlimit:10;" d="M 49.072266 -42.548828 L 49.072266 -28.318359 " transform="matrix(2,0,0,2,-1,86)"/>
<path style="fill:none;stroke-width:0.566929;stroke-linecap:butt;stroke-linejoin:miter;stroke:rgb(0%,0%,0%);stroke-opacity:1;stroke-miterlimit:10;" d="M 23.560547 -28.375 L 23.560547 -14.144531 " transform="matrix(2,0,0,2,-1,86)"/>
<path style="fill:none;stroke-width:0.566929;stroke-linecap:butt;stroke-linejoin:miter;stroke:rgb(0%,0%,0%);stroke-opacity:1;stroke-miterlimit:10;" d="M 36.292969 -14.144531 C 36.292969 -21.259766 49.072266 -21.259766 49.072266 -28.375 " transform="matrix(2,0,0,2,-1,86)"/>
<path style="fill:none;stroke-width:0.566929;stroke-linecap:butt;stroke-linejoin:miter;stroke:rgb(0%,0%,0%);stroke-opacity:1;stroke-miterlimit:10;" d="M 49.072266 -14.144531 C 49.072266 -17.703125 45.876953 -19.480469 44.279297 -20.371094 " transform="matrix(2,0,0,2,-1,86)"/>
<path style="fill:none;stroke-width:0.566929;stroke-linecap:butt;stroke-linejoin:miter;stroke:rgb(0%,0%,0%);stroke-opacity:1;stroke-miterlimit:10;" d="M 41.083984 -22.148438 C 39.488281 -23.039062 36.292969 -24.816406 36.292969 -28.375 " transform="matrix(2,0,0,2,-1,86)"/>
<path style="fill:none;stroke-width:0.566929;stroke-linecap:butt;stroke-linejoin:miter;stroke:rgb(0%,0%,0%);stroke-opacity:1;stroke-miterlimit:10;" d="M 23.560547 0.0292969 C 23.560547 -7.085938 36.292969 -7.085938 36.292969 -14.201172 " transform="matrix(2,0,0,2,-1,86)"/>
<path style="fill:none;stroke-width:0.566929;stroke-linecap:butt;stroke-linejoin:miter;stroke:rgb(0%,0%,0%);stroke-opacity:1;stroke-miterlimit:10;" d="M 36.292969 0.0292969 C 36.292969 -3.529297 33.109375 -5.308594 31.517578 -6.197266 " transform="matrix(2,0,0,2,-1,86)"/>
<path style="fill:none;stroke-width:0.566929;stroke-linecap:butt;stroke-linejoin:miter;stroke:rgb(0%,0%,0%);stroke-opacity:1;stroke-miterlimit:10;" d="M 28.333984 -7.976562 C 26.742188 -8.865234 23.560547 -10.644531 23.560547 -14.201172 " transform="matrix(2,0,0,2,-1,86)"/>
<path style="fill:none;stroke-width:0.566929;stroke-linecap:butt;stroke-linejoin:miter;stroke:rgb(0%,0%,0%);stroke-opacity:1;stroke-miterlimit:10;" d="M 49.072266 -14.201172 L 49.072266 0.0292969 " transform="matrix(2,0,0,2,-1,86)"/>
<path style="fill:none;stroke-width:0.566929;stroke-linecap:butt;stroke-linejoin:miter;stroke:rgb(0%,0%,0%);stroke-opacity:1;stroke-miterlimit:10;" d="M 23.560547 -0.0292969 L 23.560547 14.201172 " transform="matrix(2,0,0,2,-1,86)"/>
<path style="fill:none;stroke-width:0.566929;stroke-linecap:butt;stroke-linejoin:miter;stroke:rgb(0%,0%,0%);stroke-opacity:1;stroke-miterlimit:10;" d="M 36.292969 14.201172 C 36.292969 7.085938 49.072266 7.085938 49.072266 -0.0292969 " transform="matrix(2,0,0,2,-1,86)"/>
<path style="fill:none;stroke-width:0.566929;stroke-linecap:butt;stroke-linejoin:miter;stroke:rgb(0%,0%,0%);stroke-opacity:1;stroke-miterlimit:10;" d="M 49.072266 14.201172 C 49.072266 10.644531 45.876953 8.865234 44.279297 7.976562 " transform="matrix(2,0,0,2,-1,86)"/>
<path style="fill:none;stroke-width:0.566929;stroke-linecap:butt;stroke-linejoin:miter;stroke:rgb(0%,0%,0%);stroke-opacity:1;stroke-miterlimit:10;" d="M 41.083984 6.197266 C 39.488281 5.308594 36.292969 3.529297 36.292969 -0.0292969 " transform="matrix(2,0,0,2,-1,86)"/>
<path style="fill:none;stroke-width:0.566929;stroke-linecap:butt;stroke-linejoin:miter;stroke:rgb(0%,0%,0%);stroke-opacity:1;stroke-miterlimit:10;" d="M 23.560547 28.375 C 23.560547 21.259766 36.292969 21.259766 36.292969 14.144531 " transform="matrix(2,0,0,2,-1,86)"/>
<path style="fill:none;stroke-width:0.566929;stroke-linecap:butt;stroke-linejoin:miter;stroke:rgb(0%,0%,0%);stroke-opacity:1;stroke-miterlimit:10;" d="M 36.292969 28.375 C 36.292969 24.816406 33.109375 23.039062 31.517578 22.148438 " transform="matrix(2,0,0,2,-1,86)"/>
<path style="fill:none;stroke-width:0.566929;stroke-linecap:butt;stroke-linejoin:miter;stroke:rgb(0%,0%,0%);stroke-opacity:1;stroke-miterlimit:10;" d="M 28.333984 20.371094 C 26.742188 19.480469 23.560547 17.703125 23.560547 14.144531 " transform="matrix(2,0,0,2,-1,86)"/>
<path style="fill:none;stroke-width:0.566929;stroke-linecap:butt;stroke-linejoin:miter;stroke:rgb(0%,0%,0%);stroke-opacity:1;stroke-miterlimit:10;" d="M 49.072266 14.144531 L 49.072266 28.375 " transform="matrix(2,0,0,2,-1,86)"/>
<path style="fill:none;stroke-width:0.566929;stroke-linecap:butt;stroke-linejoin:miter;stroke:rgb(0%,0%,0%);stroke-opacity:1;stroke-miterlimit:10;" d="M 23.560547 28.318359 L 23.560547 42.548828 " transform="matrix(2,0,0,2,-1,86)"/>
<path style="fill:none;stroke-width:0.566929;stroke-linecap:butt;stroke-linejoin:miter;stroke:rgb(0%,0%,0%);stroke-opacity:1;stroke-miterlimit:10;" d="M 36.292969 42.548828 C 36.292969 35.433594 49.072266 35.433594 49.072266 28.318359 " transform="matrix(2,0,0,2,-1,86)"/>
<path style="fill:none;stroke-width:0.566929;stroke-linecap:butt;stroke-linejoin:miter;stroke:rgb(0%,0%,0%);stroke-opacity:1;stroke-miterlimit:10;" d="M 49.072266 42.548828 C 49.072266 38.990234 45.876953 37.210938 44.279297 36.322266 " transform="matrix(2,0,0,2,-1,86)"/>
<path style="fill:none;stroke-width:0.566929;stroke-linecap:butt;stroke-linejoin:miter;stroke:rgb(0%,0%,0%);stroke-opacity:1;stroke-miterlimit:10;" d="M 41.083984 34.542969 C 39.488281 33.654297 36.292969 31.875 36.292969 28.318359 " transform="matrix(2,0,0,2,-1,86)"/>
</g>
</svg>
