<?xml version="1.0" encoding="UTF-8"?>
<svg xmlns="http://www.w3.org/2000/svg" xmlns:xlink="http://www.w3.org/1999/xlink" width="134pt" height="172pt" viewBox="0 0 134 172" version="1.1">
<g id="surface523">
<path style=" stroke:none;fill-rule:nonzero;fill:rgb(0%,0%,0%);fill-opacity:1;" d="M 13.1875 79.675781 C 13.21875 79.582031 13.25 79.488281 13.25 79.363281 C 13.25 79.175781 13.15625 79.175781 12.75 79.175781 L 4.34375 79.175781 C 3.875 79.175781 3.84375 79.207031 3.71875 79.582031 L 2.625 83.175781 C 2.59375 83.269531 2.5625 83.425781 2.5625 83.457031 C 2.5625 83.457031 2.5625 83.675781 2.8125 83.675781 C 3 83.675781 3.03125 83.519531 3.0625 83.457031 C 3.84375 81.113281 4.875 79.800781 7.96875 79.800781 L 11.21875 79.800781 L 0.09375 92.269531 C 0.09375 92.269531 0 92.550781 0 92.613281 C 0 92.800781 0.125 92.800781 0.5 92.800781 L 9.15625 92.800781 C 9.65625 92.800781 9.65625 92.769531 9.78125 92.394531 L 11.21875 87.988281 C 11.21875 87.925781 11.28125 87.769531 11.28125 87.707031 C 11.28125 87.582031 11.21875 87.488281 11.03125 87.488281 C 10.84375 87.488281 10.8125 87.550781 10.6875 87.988281 C 9.8125 90.675781 8.84375 92.113281 5.46875 92.113281 L 2.0625 92.113281 Z M 13.1875 79.675781 "/>
<path style=" stroke:none;fill-rule:nonzero;fill:rgb(0%,0%,0%);fill-opacity:1;" d="M 33.09375 86.269531 C 33.40625 86.269531 33.78125 86.269531 33.78125 85.894531 C 33.78125 85.488281 33.40625 85.488281 33.125 85.488281 L 21.1875 85.488281 C 20.90625 85.488281 20.53125 85.488281 20.53125 85.894531 C 20.53125 86.269531 20.90625 86.269531 21.1875 86.269531 Z M 33.125 90.144531 C 33.40625 90.144531 33.78125 90.144531 33.78125 89.738281 C 33.78125 89.363281 33.40625 89.363281 33.09375 89.363281 L 21.1875 89.363281 C 20.90625 89.363281 20.53125 89.363281 20.53125 89.738281 C 20.53125 90.144531 20.90625 90.144531 21.1875 90.144531 Z M 33.125 90.144531 "/>
<path style="fill:none;stroke-width:0.566929;stroke-linecap:butt;stroke-linejoin:miter;stroke:rgb(0%,0%,0%);stroke-opacity:1;stroke-miterlimit:10;" d="M 29.228516 -28.318359 C 29.228516 -35.433594 47.541016 -35.433594 47.541016 -42.548828 " transform="matrix(2,0,0,2,-1,86)"/>
<path style="fill:none;stroke-width:0.566929;stroke-linecap:butt;stroke-linejoin:miter;stroke:rgb(0%,0%,0%);stroke-opacity:1;stroke-miterlimit:10;" d="M 47.541016 -28.318359 C 47.541016 -31.875 42.962891 -33.654297 40.673828 -34.542969 " transform="matrix(2,0,0,2,-1,86)"/>
<path style="fill:none;stroke-width:0.566929;stroke-linecap:butt;stroke-linejoin:miter;stroke:rgb(0%,0%,0%);stroke-opacity:1;stroke-miterlimit:10;" d="M 36.095703 -36.322266 C 33.806641 -37.210938 29.228516 -38.990234 29.228516 -42.548828 " transform="matrix(2,0,0,2,-1,86)"/>
<path style="fill:none;stroke-width:0.566929;stroke-linecap:butt;stroke-linejoin:miter;stroke:rgb(0%,0%,0%);stroke-opacity:1;stroke-miterlimit:10;" d="M 66.080078 -42.548828 L 66.080078 -28.318359 " transform="matrix(2,0,0,2,-1,86)"/>
<path style="fill:none;stroke-width:0.566929;stroke-linecap:butt;stroke-linejoin:miter;stroke:rgb(0%,0%,0%);stroke-opacity:1;stroke-miterlimit:10;" d="M 29.228516 -28.375 L 29.228516 -14.144531 " transform="matrix(2,0,0,2,-1,86)"/>
<path style="fill:none;stroke-width:0.566929;stroke-linecap:butt;stroke-linejoin:miter;stroke:rgb(0%,0%,0%);stroke-opacity:1;stroke-miterlimit:10;" d="M 47.541016 -14.144531 C 47.541016 -21.259766 66.080078 -21.259766 66.080078 -28.375 " transform="matrix(2,0,0,2,-1,86)"/>
<path style="fill:none;stroke-width:0.566929;stroke-linecap:butt;stroke-linejoin:miter;stroke:rgb(0%,0%,0%);stroke-opacity:1;stroke-miterlimit:10;" d="M 66.080078 -14.144531 C 66.080078 -17.703125 61.445312 -19.480469 59.126953 -20.371094 " transform="matrix(2,0,0,2,-1,86)"/>
<path style="fill:none;stroke-width:0.566929;stroke-linecap:butt;stroke-linejoin:miter;stroke:rgb(0%,0%,0%);stroke-opacity:1;stroke-miterlimit:10;" d="M 54.492188 -22.148438 C 52.175781 -23.039062 47.541016 -24.816406 47.541016 -28.375 " transform="matrix(2,0,0,2,-1,86)"/>
<path style="fill:none;stroke-width:0.566929;stroke-linecap:butt;stroke-linejoin:miter;stroke:rgb(0%,0%,0%);stroke-opacity:1;stroke-miterlimit:10;" d="M 29.228516 0.0292969 C 29.228516 -7.085938 47.541016 -7.085938 47.541016 -14.201172 " transform="matrix(2,0,0,2,-1,86)"/>
<path style="fill:none;stroke-width:0.566929;stroke-linecap:butt;stroke-linejoin:miter;stroke:rgb(0%,0%,0%);stroke-opacity:1;stroke-miterlimit:10;" d="M 47.541016 0.0292969 C 47.541016 -3.529297 42.962891 -5.308594 40.673828 -6.197266 " transform="matrix(2,0,0,2,-1,86)"/>
<path style="fill:none;stroke-width:0.566929;stroke-linecap:butt;stroke-linejoin:miter;stroke:rgb(0%,0%,0%);stroke-opacity:1;stroke-miterlimit:10;" d="M 36.095703 -7.976562 C 33.806641 -8.865234 29.228516 -10.644531 29.228516 -14.201172 " transform="matrix(2,0,0,2,-1,86)"/>
<path style="fill:none;stroke-width:0.566929;stroke-linecap:butt;stroke-linejoin:miter;stroke:rgb(0%,0%,0%);stroke-opacity:1;stroke-miterlimit:10;" d="M 66.080078 -14.201172 L 66.080078 0.0292969 " transform="matrix(2,0,0,2,-1,86)"/>
<path style="fill:none;stroke-width:0.566929;stroke-linecap:butt;stroke-linejoin:miter;stroke:rgb(0%,0%,0%);stroke-opacity:1;stroke-miterlimit:10;" d="M 29.228516 -0.0292969 L 29.228516 14.201172 " transform="matrix(2,0,0,2,-1,86)"/>
<path style="fill:none;stroke-width:0.566929;stroke-linecap:butt;stroke-linejoin:miter;stroke:rgb(0%,0%,0%);stroke-opacity:1;stroke-miterlimit:10;" d="M 47.541016 14.201172 C 47.541016 7.085938 66.080078 7.085938 66.080078 -0.0292969 " transform="matrix(2,0,0,2,-1,86)"/>
<path style="fill:none;stroke-width:0.566929;stroke-linecap:butt;stroke-linejoin:miter;stroke:rgb(0%,0%,0%);stroke-opacity:1;stroke-miterlimit:10;" d="M 66.080078 14.201172 C 66.080078 10.644531 61.445312 8.865234 59.126953 7.976562 " transform="matrix(2,0,0,2,-1,86)"/>
<path style="fill:none;stroke-width:0.566929;stroke-linecap:butt;stroke-linejoin:miter;stroke:rgb(0%,0%,0%);stroke-opacity:1;stroke-miterlimit:10;" d="M 54.492188 6.197266 C 52.175781 5.308594 47.541016 3.529297 47.541016 -0.0292969 " transform="matrix(2,0,0,2,-1,86)"/>
<path style="fill:none;stroke-width:0.566929;stroke-linecap:butt;stroke-linejoin:miter;stroke:rgb(0%,0%,0%);stroke-opacity:1;stroke-miterlimit:10;" d="M 29.228516 28.375 C 29.228516 21.259766 47.541016 21.259766 47.541016 14.144531 " transform="matrix(2,0,0,2,-1,86)"/>
<path style="fill:none;stroke-width:0.566929;stroke-linecap:butt;stroke-linejoin:miter;stroke:rgb(0%,0%,0%);stroke-opacity:1;stroke-miterlimit:10;" d="M 47.541016 28.375 C 47.541016 24.816406 42.962891 23.039062 40.673828 22.148438 " transform="matrix(2,0,0,2,-1,86)"/>
<path style="fill:none;stroke-width:0.566929;stroke-linecap:butt;stroke-linejoin:miter;stroke:rgb(0%,0%,0%);stroke-opacity:1;stroke-miterlimit:10;" d="M 36.095703 20.371094 C 33.806641 19.480469 29.228516 17.703125 29.228516 14.144531 " transform="matrix(2,0,0,2,-1,86)"/>
<path style="fill:none;stroke-width:0.566929;stroke-linecap:butt;stroke-linejoin:miter;stroke:rgb(0%,0%,0%);stroke-opacity:1;stroke-miterlimit:10;" d="M 66.080078 14.144531 L 66.080078 28.375 " transform="matrix(2,0,0,2,-1,86)"/>
<path style="fill:none;stroke-width:0.566929;stroke-linecap:butt;stroke-linejoin:miter;stroke:rgb(0%,0%,0%);stroke-opacity:1;stroke-miterlimit:10;" d="M 29.228516 28.318359 L 29.228516 42.548828 " transform="matrix(2,0,0,2,-1,86)"/>
<path style="fill:none;stroke-width:0.566929;stroke-linecap:butt;stroke-linejoin:miter;stroke:rgb(0%,0%,0%);stroke-opacity:1;stroke-miterlimit:10;" d="M 47.541016 42.548828 C 47.541016 35.433594 66.080078 35.433594 66.080078 28.318359 " transform="matrix(2,0,0,2,-1,86)"/>
<path style="fill:none;stroke-width:0.566929;stroke-linecap:butt;stroke-linejoin:miter;stroke:rgb(0%,0%,0%);stroke-opacity:1;stroke-miterlimit:10;" d="M 66.080078 42.548828 C 66.080078 38.990234 61.445312 37.210938 59.126953 36.322266 " transform="matrix(2,0,0,2,-1,86)"/>
<path style="fill:none;stroke-width:0.566929;stroke-linecap:butt;stroke-linejoin:miter;stroke:rgb(0%,0%,0%);stroke-opacity:1;stroke-miterlimit:10;" d="M 54.492188 34.542969 C 52.175781 33.654297 47.541016 31.875 47.541016 28.318359 " transform="matrix(2,0,0,2,-1,86)"/>
</g>
</svg>
