<?xml version="1.0" encoding="UTF-8"?>
<svg xmlns="http://www.w3.org/2000/svg" xmlns:xlink="http://www.w3.org/1999/xlink" width="103pt" height="172pt" viewBox="0 0 103 172" version="1.1">
<g id="surface465">
<path style=" stroke:none;fill-rule:nonzero;fill:rgb(0%,0%,0%);fill-opacity:1;" d="M 16.1875 79.6875 C 16.21875 79.59375 16.25 79.5 16.25 79.375 C 16.25 79.1875 16.15625 79.1875 15.75 79.1875 L 7.34375 79.1875 C 6.875 79.1875 6.84375 79.21875 6.71875 79.59375 L 5.625 83.1875 C 5.59375 83.28125 5.5625 83.4375 5.5625 83.46875 C 5.5625 83.46875 5.5625 83.6875 5.8125 83.6875 C 6 83.6875 6.03125 83.53125 6.0625 83.46875 C 6.84375 81.125 7.875 79.8125 10.96875 79.8125 L 14.21875 79.8125 L 3.09375 92.28125 C 3.09375 92.28125 3 92.5625 3 92.625 C 3 92.8125 3.125 92.8125 3.5 92.8125 L 12.15625 92.8125 C 12.65625 92.8125 12.65625 92.78125 12.78125 92.40625 L 14.21875 88 C 14.21875 87.9375 14.28125 87.78125 14.28125 87.71875 C 14.28125 87.59375 14.21875 87.5 14.03125 87.5 C 13.84375 87.5 13.8125 87.5625 13.6875 88 C 12.8125 90.6875 11.84375 92.125 8.46875 92.125 L 5.0625 92.125 Z M 16.1875 79.6875 "/>
<path style=" stroke:none;fill-rule:nonzero;fill:rgb(0%,0%,0%);fill-opacity:1;" d="M 36.09375 86.28125 C 36.40625 86.28125 36.78125 86.28125 36.78125 85.90625 C 36.78125 85.5 36.40625 85.5 36.125 85.5 L 24.1875 85.5 C 23.90625 85.5 23.53125 85.5 23.53125 85.90625 C 23.53125 86.28125 23.90625 86.28125 24.1875 86.28125 Z M 36.125 90.15625 C 36.40625 90.15625 36.78125 90.15625 36.78125 89.75 C 36.78125 89.375 36.40625 89.375 36.09375 89.375 L 24.1875 89.375 C 23.90625 89.375 23.53125 89.375 23.53125 89.75 C 23.53125 90.15625 23.90625 90.15625 24.1875 90.15625 Z M 36.125 90.15625 "/>
<path style="fill:none;stroke-width:0.566929;stroke-linecap:butt;stroke-linejoin:miter;stroke:rgb(0%,0%,0%);stroke-opacity:1;stroke-miterlimit:10;" d="M 0 -0.000000000213674 L 17.890625 -0.000000000213674 L 17.890625 -7.8125 L 0 -7.8125 Z M 0 -0.000000000213674 " transform="matrix(2,0,0,2,2,93.8125)"/>
<path style="fill:none;stroke-width:0.566929;stroke-linecap:butt;stroke-linejoin:miter;stroke:rgb(0%,0%,0%);stroke-opacity:1;stroke-miterlimit:10;" d="M 23.560547 -28.318359 C 23.560547 -35.433594 36.292969 -35.433594 36.292969 -42.548828 " transform="matrix(2,0,0,2,2,86)"/>
<path style="fill:none;stroke-width:0.566929;stroke-linecap:butt;stroke-linejoin:miter;stroke:rgb(0%,0%,0%);stroke-opacity:1;stroke-miterlimit:10;" d="M 36.292969 -28.318359 C 36.292969 -31.875 33.109375 -33.654297 31.517578 -34.542969 " transform="matrix(2,0,0,2,2,86)"/>
<path style="fill:none;stroke-width:0.566929;stroke-linecap:butt;stroke-linejoin:miter;stroke:rgb(0%,0%,0%);stroke-opacity:1;stroke-miterlimit:10;" d="M 28.333984 -36.322266 C 26.742188 -37.210938 23.560547 -38.990234 23.560547 -42.548828 " transform="matrix(2,0,0,2,2,86)"/>
<path style="fill:none;stroke-width:0.566929;stroke-linecap:butt;stroke-linejoin:miter;stroke:rgb(0%,0%,0%);stroke-opacity:1;stroke-miterlimit:10;" d="M 49.072266 -42.548828 L 49.072266 -28.318359 " transform="matrix(2,0,0,2,2,86)"/>
<path style="fill:none;stroke-width:0.566929;stroke-linecap:butt;stroke-linejoin:miter;stroke:rgb(0%,0%,0%);stroke-opacity:1;stroke-miterlimit:10;" d="M 23.560547 -28.375 L 23.560547 -14.144531 " transform="matrix(2,0,0,2,2,86)"/>
<path style="fill:none;stroke-width:0.566929;stroke-linecap:butt;stroke-linejoin:miter;stroke:rgb(0%,0%,0%);stroke-opacity:1;stroke-miterlimit:10;" d="M 36.292969 -14.144531 C 36.292969 -21.259766 49.072266 -21.259766 49.072266 -28.375 " transform="matrix(2,0,0,2,2,86)"/>
<path style="fill:none;stroke-width:0.566929;stroke-linecap:butt;stroke-linejoin:miter;stroke:rgb(0%,0%,0%);stroke-opacity:1;stroke-miterlimit:10;" d="M 49.072266 -14.144531 C 49.072266 -17.703125 45.876953 -19.480469 44.279297 -20.371094 " transform="matrix(2,0,0,2,2,86)"/>
<path style="fill:none;stroke-width:0.566929;stroke-linecap:butt;stroke-linejoin:miter;stroke:rgb(0%,0%,0%);stroke-opacity:1;stroke-miterlimit:10;" d="M 41.083984 -22.148438 C 39.488281 -23.039062 36.292969 -24.816406 36.292969 -28.375 " transform="matrix(2,0,0,2,2,86)"/>
<path style="fill:none;stroke-width:0.566929;stroke-linecap:butt;stroke-linejoin:miter;stroke:rgb(0%,0%,0%);stroke-opacity:1;stroke-miterlimit:10;" d="M 23.560547 0.0292969 C 23.560547 -7.085938 36.292969 -7.085938 36.292969 -14.201172 " transform="matrix(2,0,0,2,2,86)"/>
<path style="fill:none;stroke-width:0.566929;stroke-linecap:butt;stroke-linejoin:miter;stroke:rgb(0%,0%,0%);stroke-opacity:1;stroke-miterlimit:10;" d="M 36.292969 0.0292969 C 36.292969 -3.529297 33.109375 -5.308594 31.517578 -6.197266 " transform="matrix(2,0,0,2,2,86)"/>
<path style="fill:none;stroke-width:0.566929;stroke-linecap:butt;stroke-linejoin:miter;stroke:rgb(0%,0%,0%);stroke-opacity:1;stroke-miterlimit:10;" d="M 28.333984 -7.976562 C 26.742188 -8.865234 23.560547 -10.644531 23.560547 -14.201172 " transform="matrix(2,0,0,2,2,86)"/>
<path style="fill:none;stroke-width:0.566929;stroke-linecap:butt;stroke-linejoin:miter;stroke:rgb(0%,0%,0%);stroke-opacity:1;stroke-miterlimit:10;" d="M 49.072266 -14.201172 L 49.072266 0.0292969 " transform="matrix(2,0,0,2,2,86)"/>
<path style="fill:none;stroke-width:0.566929;stroke-linecap:butt;stroke-linejoin:miter;stroke:rgb(0%,0%,0%);stroke-opacity:1;stroke-miterlimit:10;" d="M 23.560547 -0.0292969 L 23.560547 14.201172 " transform="matrix(2,0,0,2,2,86)"/>
<path style="fill:none;stroke-width:0.566929;stroke-linecap:butt;stroke-linejoin:miter;stroke:rgb(0%,0%,0%);stroke-opacity:1;stroke-miterlimit:10;" d="M 36.292969 14.201172 C 36.292969 7.085938 49.072266 7.085938 49.072266 -0.0292969 " transform="matrix(2,0,0,2,2,86)"/>
<path style="fill:none;stroke-width:0.566929;stroke-linecap:butt;stroke-linejoin:miter;stroke:rgb(0%,0%,0%);stroke-opacity:1;stroke-miterlimit:10;" d="M 49.072266 14.201172 C 49.072266 10.644531 45.876953 8.865234 44.279297 7.976562 " transform="matrix(2,0,0,2,2,86)"/>
<path style="fill:none;stroke-width:0.566929;stroke-linecap:butt;stroke-linejoin:miter;stroke:rgb(0%,0%,0%);stroke-opacity:1;stroke-miterlimit:10;" d="M 41.083984 6.197266 C 39.488281 5.308594 36.292969 3.529297 36.292969 -0.0292969 " transform="matrix(2,0,0,2,2,86)"/>
<path style="fill:none;stroke-width:0.566929;stroke-linecap:butt;stroke-linejoin:miter;stroke:rgb(0%,0%,0%);stroke-opacity:1;stroke-miterlimit:10;" d="M 23.560547 28.375 C 23.560547 21.259766 36.292969 21.259766 36.292969 14.144531 " transform="matrix(2,0,0,2,2,86)"/>
<path style="fill:none;stroke-width:0.566929;stroke-linecap:butt;stroke-linejoin:miter;stroke:rgb(0%,0%,0%);stroke-opacity:1;stroke-miterlimit:10;" d="M 36.292969 28.375 C 36.292969 24.816406 33.109375 23.039062 31.517578 22.148438 " transform="matrix(2,0,0,2,2,86)"/>
<path style="fill:none;stroke-width:0.566929;stroke-linecap:butt;stroke-linejoin:miter;stroke:rgb(0%,0%,0%);stroke-opacity:1;stroke-miterlimit:10;" d="M 28.333984 20.371094 C 26.742188 19.480469 23.560547 17.703125 23.560547 14.144531 " transform="matrix(2,0,0,2,2,86)"/>
<path style="fill:none;stroke-width:0.566929;stroke-linecap:butt;stroke-linejoin:miter;stroke:rgb(0%,0%,0%);stroke-opacity:1;stroke-miterlimit:10;" d="M 49.072266 14.144531 L 49.072266 28.375 " transform="matrix(2,0,0,2,2,86)"/>
<path style="fill:none;stroke-width:0.566929;stroke-linecap:butt;stroke-linejoin:miter;stroke:rgb(0%,0%,0%);stroke-opacity:1;stroke-miterlimit:10;" d="M 23.560547 28.318359 L 23.560547 42.548828 " transform="matrix(2,0,0,2,2,86)"/>
<path style="fill:none;stroke-width:0.566929;stroke-linecap:butt;stroke-linejoin:miter;stroke:rgb(0%,0%,0%);stroke-opacity:1;stroke-miterlimit:10;" d="M 36.292969 42.548828 C 36.292969 35.433594 49.072266 35.433594 49.072266 28.318359 " transform="matrix(2,0,0,2,2,86)"/>
<path style="fill:none;stroke-width:0.566929;stroke-linecap:butt;stroke-linejoin:miter;stroke:rgb(0%,0%,0%);stroke-opacity:1;stroke-miterlimit:10;" d="M 49.072266 42.548828 C 49.072266 38.990234 45.876953 37.210938 44.279297 36.322266 " transform="matrix(2,0,0,2,2,86)"/>
<path style="fill:none;stroke-width:0.566929;stroke-linecap:butt;stroke-linejoin:miter;stroke:rgb(0%,0%,0%);stroke-opacity:1;stroke-miterlimit:10;" d="M 41.083984 34.542969 C 39.488281 33.654297 36.292969 31.875 36.292969 28.318359 " transform="matrix(2,0,0,2,2,86)"/>
</g>
</svg>
