<?xml version="1.0" encoding="UTF-8"?>
<svg xmlns="http://www.w3.org/2000/svg" xmlns:xlink="http://www.w3.org/1999/xlink" width="100pt" height="172pt" viewBox="0 0 100 172" version="1.1">
<g id="surface523">
<path style=" stroke:none;fill-rule:nonzero;fill:rgb(0%,0%,0%);fill-opacity:1;" d="M 13.1875 79.675781 C 13.21875 79.582031 13.25 79.488281 13.25 79.363281 C 13.25 79.175781 13.15625 79.175781 12.75 79.175781 L 4.34375 79.175781 C 3.875 79.175781 3.84375 79.207031 3.71875 79.582031 L 2.625 83.175781 C 2.59375 83.269531 2.5625 83.425781 2.5625 83.457031 C 2.5625 83.457031 2.5625 83.675781 2.8125 83.675781 C 3 83.675781 3.03125 83.519531 3.0625 83.457031 C 3.84375 81.113281 4.875 79.800781 7.96875 79.800781 L 11.21875 79.800781 L 0.09375 92.269531 C 0.09375 92.269531 0 92.550781 0 92.613281 C 0 92.800781 0.125 92.800781 0.5 92.800781 L 9.15625 92.800781 C 9.65625 92.800781 9.65625 92.769531 9.78125 92.394531 L 11.21875 87.988281 C 11.21875 87.925781 11.28125 87.769531 11.28125 87.707031 C 11.28125 87.582031 11.21875 87.488281 11.03125 87.488281 C 10.84375 87.488281 10.8125 87.550781 10.6875 87.988281 C 9.8125 90.675781 8.84375 92.113281 5.46875 92.113281 L 2.0625 92.113281 Z M 13.1875 79.675781 "/>
<path style=" stroke:none;fill-rule:nonzero;fill:rgb(0%,0%,0%);fill-opacity:1;" d="M 33.09375 86.269531 C 33.40625 86.269531 33.78125 86.269531 33.78125 85.894531 C 33.78125 85.488281 33.40625 85.488281 33.125 85.488281 L 21.1875 85.488281 C 20.90625 85.488281 20.53125 85.488281 20.53125 85.894531 C 20.53125 86.269531 20.90625 86.269531 21.1875 86.269531 Z M 33.125 90.144531 C 33.40625 90.144531 33.78125 90.144531 33.78125 89.738281 C 33.78125 89.363281 33.40625 89.363281 33.09375 89.363281 L 21.1875 89.363281 C 20.90625 89.363281 20.53125 89.363281 20.53125 89.738281 C 20.53125 90.144531 20.90625 90.144531 21.1875 90.144531 Z M 33.125 90.144531 "/>
<path style="fill:none;stroke-width:0.566929;stroke-linecap:butt;stroke-linejoin:miter;stroke:rgb(0%,0%,0%);stroke-opacity:1;stroke-miterlimit:10;" d="M 23.560547 -28.318359 C 23.560547 -35.433594 36.300781 -35.433594 36.300781 -42.548828 " transform="matrix(2,0,0,2,-1,86)"/>
<path style="fill:none;stroke-width:0.566929;stroke-linecap:butt;stroke-linejoin:miter;stroke:rgb(0%,0%,0%);stroke-opacity:1;stroke-miterlimit:10;" d="M 36.300781 -28.318359 C 36.300781 -31.875 33.117188 -33.654297 31.523438 -34.542969 " transform="matrix(2,0,0,2,-1,86)"/>
<path style="fill:none;stroke-width:0.566929;stroke-linecap:butt;stroke-linejoin:miter;stroke:rgb(0%,0%,0%);stroke-opacity:1;stroke-miterlimit:10;" d="M 28.337891 -36.322266 C 26.746094 -37.210938 23.560547 -38.990234 23.560547 -42.548828 " transform="matrix(2,0,0,2,-1,86)"/>
<path style="fill:none;stroke-width:0.566929;stroke-linecap:butt;stroke-linejoin:miter;stroke:rgb(0%,0%,0%);stroke-opacity:1;stroke-miterlimit:10;" d="M 49.072266 -42.548828 L 49.072266 -28.318359 " transform="matrix(2,0,0,2,-1,86)"/>
<path style="fill:none;stroke-width:0.566929;stroke-linecap:butt;stroke-linejoin:miter;stroke:rgb(0%,0%,0%);stroke-opacity:1;stroke-miterlimit:10;" d="M 23.560547 -28.375 L 23.560547 -14.144531 " transform="matrix(2,0,0,2,-1,86)"/>
<path style="fill:none;stroke-width:0.566929;stroke-linecap:butt;stroke-linejoin:miter;stroke:rgb(0%,0%,0%);stroke-opacity:1;stroke-miterlimit:10;" d="M 36.300781 -14.144531 C 36.300781 -21.259766 49.072266 -21.259766 49.072266 -28.375 " transform="matrix(2,0,0,2,-1,86)"/>
<path style="fill:none;stroke-width:0.566929;stroke-linecap:butt;stroke-linejoin:miter;stroke:rgb(0%,0%,0%);stroke-opacity:1;stroke-miterlimit:10;" d="M 49.072266 -14.144531 C 49.072266 -17.703125 45.878906 -19.480469 44.283203 -20.371094 " transform="matrix(2,0,0,2,-1,86)"/>
<path style="fill:none;stroke-width:0.566929;stroke-linecap:butt;stroke-linejoin:miter;stroke:rgb(0%,0%,0%);stroke-opacity:1;stroke-miterlimit:10;" d="M 41.089844 -22.148438 C 39.494141 -23.039062 36.300781 -24.816406 36.300781 -28.375 " transform="matrix(2,0,0,2,-1,86)"/>
<path style="fill:none;stroke-width:0.566929;stroke-linecap:butt;stroke-linejoin:miter;stroke:rgb(0%,0%,0%);stroke-opacity:1;stroke-miterlimit:10;" d="M 23.560547 0.0292969 C 23.560547 -7.085938 36.300781 -7.085938 36.300781 -14.201172 " transform="matrix(2,0,0,2,-1,86)"/>
<path style="fill:none;stroke-width:0.566929;stroke-linecap:butt;stroke-linejoin:miter;stroke:rgb(0%,0%,0%);stroke-opacity:1;stroke-miterlimit:10;" d="M 36.300781 0.0292969 C 36.300781 -3.529297 33.117188 -5.308594 31.523438 -6.197266 " transform="matrix(2,0,0,2,-1,86)"/>
<path style="fill:none;stroke-width:0.566929;stroke-linecap:butt;stroke-linejoin:miter;stroke:rgb(0%,0%,0%);stroke-opacity:1;stroke-miterlimit:10;" d="M 28.337891 -7.976562 C 26.746094 -8.865234 23.560547 -10.644531 23.560547 -14.201172 " transform="matrix(2,0,0,2,-1,86)"/>
<path style="fill:none;stroke-width:0.566929;stroke-linecap:butt;stroke-linejoin:miter;stroke:rgb(0%,0%,0%);stroke-opacity:1;stroke-miterlimit:10;" d="M 49.072266 -14.201172 L 49.072266 0.0292969 " transform="matrix(2,0,0,2,-1,86)"/>
<path style="fill:none;stroke-width:0.566929;stroke-linecap:butt;stroke-linejoin:miter;stroke:rgb(0%,0%,0%);stroke-opacity:1;stroke-miterlimit:10;" d="M 23.560547 -0.0292969 L 23.560547 14.201172 " transform="matrix(2,0,0,2,-1,86)"/>
<path style="fill:none;stroke-width:0.566929;stroke-linecap:butt;stroke-linejoin:miter;stroke:rgb(0%,0%,0%);stroke-opacity:1;stroke-miterlimit:10;" d="M 36.300781 14.201172 C 36.300781 7.085938 49.072266 7.085938 49.072266 -0.0292969 " transform="matrix(2,0,0,2,-1,86)"/>
<path style="fill:none;stroke-width:0.566929;stroke-linecap:butt;stroke-linejoin:miter;stroke:rgb(0%,0%,0%);stroke-opacity:1;stroke-miterlimit:10;" d="M 49.072266 14.201172 C 49.072266 10.644531 45.878906 8.865234 44.283203 7.976562 " transform="matrix(2,0,0,2,-1,86)"/>
<path style="fill:none;stroke-width:0.566929;stroke-linecap:butt;stroke-linejoin:miter;stroke:rgb(0%,0%,0%);stroke-opacity:1;stroke-miterlimit:10;" d="M 41.089844 6.197266 C 39.494141 5.308594 36.300781 3.529297 36.300781 -0.0292969 " transform="matrix(2,0,0,2,-1,86)"/>
<path style="fill:none;stroke-width:0.566929;stroke-linecap:butt;stroke-linejoin:miter;stroke:rgb(0%,0%,0%);stroke-opacity:1;stroke-miterlimit:10;" d="M 23.560547 28.375 C 23.560547 21.259766 36.300781 21.259766 36.300781 14.144531 " transform="matrix(2,0,0,2,-1,86)"/>
<path style="fill:none;stroke-width:0.566929;stroke-linecap:butt;stroke-linejoin:miter;stroke:rgb(0%,0%,0%);stroke-opacity:1;stroke-miterlimit:10;" d="M 36.300781 28.375 C 36.300781 24.816406 33.117188 23.039062 31.523438 22.148438 " transform="matrix(2,0,0,2,-1,86)"/>
<path style="fill:none;stroke-width:0.566929;stroke-linecap:butt;stroke-linejoin:miter;stroke:rgb(0%,0%,0%);stroke-opacity:1;stroke-miterlimit:10;" d="M 28.337891 20.371094 C 26.746094 19.480469 23.560547 17.703125 23.560547 14.144531 " transform="matrix(2,0,0,2,-1,86)"/>
<path style="fill:none;stroke-width:0.566929;stroke-linecap:butt;stroke-linejoin:miter;stroke:rgb(0%,0%,0%);stroke-opacity:1;stroke-miterlimit:10;" d="M 49.072266 14.144531 L 49.072266 28.375 " transform="matrix(2,0,0,2,-1,86)"/>
<path style="fill:none;stroke-width:0.566929;stroke-linecap:butt;stroke-linejoin:miter;stroke:rgb(0%,0%,0%);stroke-opacity:1;stroke-miterlimit:10;" d="M 23.560547 28.318359 L 23.560547 42.548828 " transform="matrix(2,0,0,2,-1,86)"/>
<path style="fill:none;stroke-width:0.566929;stroke-linecap:butt;stroke-linejoin:miter;stroke:rgb(0%,0%,0%);stroke-opacity:1;stroke-miterlimit:10;" d="M 36.300781 42.548828 C 36.300781 35.433594 49.072266 35.433594 49.072266 28.318359 " transform="matrix(2,0,0,2,-1,86)"/>
<path style="fill:none;stroke-width:0.566929;stroke-linecap:butt;stroke-linejoin:miter;stroke:rgb(0%,0%,0%);stroke-opacity:1;stroke-miterlimit:10;" d="M 49.072266 42.548828 C 49.072266 38.990234 45.878906 37.210938 44.283203 36.322266 " transform="matrix(2,0,0,2,-1,86)"/>
<path style="fill:none;stroke-width:0.566929;stroke-linecap:butt;stroke-linejoin:miter;stroke:rgb(0%,0%,0%);stroke-opacity:1;stroke-miterlimit:10;" d="M 41.089844 34.542969 C 39.494141 33.654297 36.300781 31.875 36.300781 28.318359 " transform="matrix(2,0,0,2,-1,86)"/>
</g>
</svg>
