<?xml version="1.0" encoding="UTF-8"?>
<svg xmlns="http://www.w3.org/2000/svg" xmlns:xlink="http://www.w3.org/1999/xlink" width="116pt" height="93pt" viewBox="0 0 116 93" version="1.1">
<g id="surface479">
<path style="fill:none;stroke-width:0.566929;stroke-linecap:butt;stroke-linejoin:miter;stroke:rgb(0%,0%,0%);stroke-opacity:1;stroke-miterlimit:10;" d="M 2.976562 -0.0292969 L 2.976562 15.335938 " transform="matrix(2,0,0,2,-3,1)"/>
<path style="fill:none;stroke-width:0.566929;stroke-linecap:butt;stroke-linejoin:miter;stroke:rgb(0%,0%,0%);stroke-opacity:1;stroke-miterlimit:10;" d="M 8.929688 15.335938 C 8.929688 11.494141 10.863281 9.574219 11.830078 8.613281 " transform="matrix(2,0,0,2,-3,1)"/>
<path style="fill:none;stroke-width:0.566929;stroke-linecap:butt;stroke-linejoin:miter;stroke:rgb(0%,0%,0%);stroke-opacity:1;stroke-miterlimit:10;" d="M 13.763672 6.693359 C 14.730469 5.732422 16.666016 3.8125 16.666016 -0.0292969 " transform="matrix(2,0,0,2,-3,1)"/>
<path style="fill:none;stroke-width:0.566929;stroke-linecap:butt;stroke-linejoin:miter;stroke:rgb(0%,0%,0%);stroke-opacity:1;stroke-miterlimit:10;" d="M 16.666016 15.335938 C 16.666016 7.654297 8.929688 7.654297 8.929688 -0.0292969 " transform="matrix(2,0,0,2,-3,1)"/>
<path style="fill:none;stroke-width:0.566929;stroke-linecap:butt;stroke-linejoin:miter;stroke:rgb(0%,0%,0%);stroke-opacity:1;stroke-miterlimit:10;" d="M 23.386719 15.335938 C 23.386719 7.654297 29.337891 7.654297 29.337891 -0.0292969 " transform="matrix(2,0,0,2,-3,1)"/>
<path style="fill:none;stroke-width:0.566929;stroke-linecap:butt;stroke-linejoin:miter;stroke:rgb(0%,0%,0%);stroke-opacity:1;stroke-miterlimit:10;" d="M 29.337891 15.335938 C 29.337891 11.494141 27.849609 9.574219 27.105469 8.613281 " transform="matrix(2,0,0,2,-3,1)"/>
<path style="fill:none;stroke-width:0.566929;stroke-linecap:butt;stroke-linejoin:miter;stroke:rgb(0%,0%,0%);stroke-opacity:1;stroke-miterlimit:10;" d="M 25.617188 6.693359 C 24.873047 5.732422 23.386719 3.8125 23.386719 -0.0292969 " transform="matrix(2,0,0,2,-3,1)"/>
<path style="fill:none;stroke-width:0.566929;stroke-linecap:butt;stroke-linejoin:miter;stroke:rgb(0%,0%,0%);stroke-opacity:1;stroke-miterlimit:10;" d="M 37.046875 -0.0292969 L 37.046875 15.335938 " transform="matrix(2,0,0,2,-3,1)"/>
<path style="fill:none;stroke-width:0.566929;stroke-linecap:butt;stroke-linejoin:miter;stroke:rgb(0%,0%,0%);stroke-opacity:1;stroke-miterlimit:10;" d="M 44.521484 -0.0292969 L 44.521484 15.335938 " transform="matrix(2,0,0,2,-3,1)"/>
<path style="fill:none;stroke-width:0.566929;stroke-linecap:butt;stroke-linejoin:miter;stroke:rgb(0%,0%,0%);stroke-opacity:1;stroke-miterlimit:10;" d="M 52.298828 15.335938 C 52.298828 7.654297 58.251953 7.654297 58.251953 -0.0292969 " transform="matrix(2,0,0,2,-3,1)"/>
<path style="fill:none;stroke-width:0.566929;stroke-linecap:butt;stroke-linejoin:miter;stroke:rgb(0%,0%,0%);stroke-opacity:1;stroke-miterlimit:10;" d="M 58.251953 15.335938 C 58.251953 11.494141 56.763672 9.574219 56.019531 8.613281 " transform="matrix(2,0,0,2,-3,1)"/>
<path style="fill:none;stroke-width:0.566929;stroke-linecap:butt;stroke-linejoin:miter;stroke:rgb(0%,0%,0%);stroke-opacity:1;stroke-miterlimit:10;" d="M 54.53125 6.693359 C 53.787109 5.732422 52.298828 3.8125 52.298828 -0.0292969 " transform="matrix(2,0,0,2,-3,1)"/>
<path style="fill:none;stroke-width:0.566929;stroke-linecap:butt;stroke-linejoin:miter;stroke:rgb(0%,0%,0%);stroke-opacity:1;stroke-miterlimit:10;" d="M 2.976562 30.642578 C 2.976562 22.960938 8.929688 22.960938 8.929688 15.279297 " transform="matrix(2,0,0,2,-3,1)"/>
<path style="fill:none;stroke-width:0.566929;stroke-linecap:butt;stroke-linejoin:miter;stroke:rgb(0%,0%,0%);stroke-opacity:1;stroke-miterlimit:10;" d="M 8.929688 30.642578 C 8.929688 26.800781 7.441406 24.880859 6.697266 23.919922 " transform="matrix(2,0,0,2,-3,1)"/>
<path style="fill:none;stroke-width:0.566929;stroke-linecap:butt;stroke-linejoin:miter;stroke:rgb(0%,0%,0%);stroke-opacity:1;stroke-miterlimit:10;" d="M 5.208984 22 C 4.464844 21.041016 2.976562 19.119141 2.976562 15.279297 " transform="matrix(2,0,0,2,-3,1)"/>
<path style="fill:none;stroke-width:0.566929;stroke-linecap:butt;stroke-linejoin:miter;stroke:rgb(0%,0%,0%);stroke-opacity:1;stroke-miterlimit:10;" d="M 16.666016 15.279297 L 16.666016 30.642578 " transform="matrix(2,0,0,2,-3,1)"/>
<path style="fill:none;stroke-width:0.566929;stroke-linecap:butt;stroke-linejoin:miter;stroke:rgb(0%,0%,0%);stroke-opacity:1;stroke-miterlimit:10;" d="M 23.386719 30.642578 C 23.386719 26.800781 24.873047 24.880859 25.617188 23.919922 " transform="matrix(2,0,0,2,-3,1)"/>
<path style="fill:none;stroke-width:0.566929;stroke-linecap:butt;stroke-linejoin:miter;stroke:rgb(0%,0%,0%);stroke-opacity:1;stroke-miterlimit:10;" d="M 27.105469 22 C 27.849609 21.041016 29.337891 19.119141 29.337891 15.279297 " transform="matrix(2,0,0,2,-3,1)"/>
<path style="fill:none;stroke-width:0.566929;stroke-linecap:butt;stroke-linejoin:miter;stroke:rgb(0%,0%,0%);stroke-opacity:1;stroke-miterlimit:10;" d="M 29.337891 30.642578 C 29.337891 22.960938 23.386719 22.960938 23.386719 15.279297 " transform="matrix(2,0,0,2,-3,1)"/>
<path style="fill:none;stroke-width:0.566929;stroke-linecap:butt;stroke-linejoin:miter;stroke:rgb(0%,0%,0%);stroke-opacity:1;stroke-miterlimit:10;" d="M 37.046875 15.279297 L 37.046875 30.642578 " transform="matrix(2,0,0,2,-3,1)"/>
<path style="fill:none;stroke-width:0.566929;stroke-linecap:butt;stroke-linejoin:miter;stroke:rgb(0%,0%,0%);stroke-opacity:1;stroke-miterlimit:10;" d="M 44.521484 15.279297 L 44.521484 30.642578 " transform="matrix(2,0,0,2,-3,1)"/>
<path style="fill:none;stroke-width:0.566929;stroke-linecap:butt;stroke-linejoin:miter;stroke:rgb(0%,0%,0%);stroke-opacity:1;stroke-miterlimit:10;" d="M 52.298828 30.642578 C 52.298828 22.960938 58.251953 22.960938 58.251953 15.279297 " transform="matrix(2,0,0,2,-3,1)"/>
<path style="fill:none;stroke-width:0.566929;stroke-linecap:butt;stroke-linejoin:miter;stroke:rgb(0%,0%,0%);stroke-opacity:1;stroke-miterlimit:10;" d="M 58.251953 30.642578 C 58.251953 26.800781 56.763672 24.880859 56.019531 23.919922 " transform="matrix(2,0,0,2,-3,1)"/>
<path style="fill:none;stroke-width:0.566929;stroke-linecap:butt;stroke-linejoin:miter;stroke:rgb(0%,0%,0%);stroke-opacity:1;stroke-miterlimit:10;" d="M 54.53125 22 C 53.787109 21.041016 52.298828 19.119141 52.298828 15.279297 " transform="matrix(2,0,0,2,-3,1)"/>
<path style="fill:none;stroke-width:0.566929;stroke-linecap:butt;stroke-linejoin:miter;stroke:rgb(0%,0%,0%);stroke-opacity:1;stroke-miterlimit:10;" d="M 2.976562 45.949219 C 2.976562 42.109375 4.464844 40.1875 5.208984 39.228516 " transform="matrix(2,0,0,2,-3,1)"/>
<path style="fill:none;stroke-width:0.566929;stroke-linecap:butt;stroke-linejoin:miter;stroke:rgb(0%,0%,0%);stroke-opacity:1;stroke-miterlimit:10;" d="M 6.697266 37.306641 C 7.441406 36.347656 8.929688 34.427734 8.929688 30.585938 " transform="matrix(2,0,0,2,-3,1)"/>
<path style="fill:none;stroke-width:0.566929;stroke-linecap:butt;stroke-linejoin:miter;stroke:rgb(0%,0%,0%);stroke-opacity:1;stroke-miterlimit:10;" d="M 8.929688 45.949219 C 8.929688 38.267578 2.976562 38.267578 2.976562 30.585938 " transform="matrix(2,0,0,2,-3,1)"/>
<path style="fill:none;stroke-width:0.566929;stroke-linecap:butt;stroke-linejoin:miter;stroke:rgb(0%,0%,0%);stroke-opacity:1;stroke-miterlimit:10;" d="M 16.666016 30.585938 L 16.666016 45.949219 " transform="matrix(2,0,0,2,-3,1)"/>
<path style="fill:none;stroke-width:0.566929;stroke-linecap:butt;stroke-linejoin:miter;stroke:rgb(0%,0%,0%);stroke-opacity:1;stroke-miterlimit:10;" d="M 23.386719 30.585938 L 23.386719 45.949219 " transform="matrix(2,0,0,2,-3,1)"/>
<path style="fill:none;stroke-width:0.566929;stroke-linecap:butt;stroke-linejoin:miter;stroke:rgb(0%,0%,0%);stroke-opacity:1;stroke-miterlimit:10;" d="M 29.337891 45.949219 C 29.337891 38.267578 37.046875 38.267578 37.046875 30.585938 " transform="matrix(2,0,0,2,-3,1)"/>
<path style="fill:none;stroke-width:0.566929;stroke-linecap:butt;stroke-linejoin:miter;stroke:rgb(0%,0%,0%);stroke-opacity:1;stroke-miterlimit:10;" d="M 37.046875 45.949219 C 37.046875 42.109375 35.119141 40.1875 34.15625 39.228516 " transform="matrix(2,0,0,2,-3,1)"/>
<path style="fill:none;stroke-width:0.566929;stroke-linecap:butt;stroke-linejoin:miter;stroke:rgb(0%,0%,0%);stroke-opacity:1;stroke-miterlimit:10;" d="M 32.228516 37.306641 C 31.265625 36.347656 29.337891 34.427734 29.337891 30.585938 " transform="matrix(2,0,0,2,-3,1)"/>
<path style="fill:none;stroke-width:0.566929;stroke-linecap:butt;stroke-linejoin:miter;stroke:rgb(0%,0%,0%);stroke-opacity:1;stroke-miterlimit:10;" d="M 44.521484 45.949219 C 44.521484 42.109375 46.466797 40.1875 47.4375 39.228516 " transform="matrix(2,0,0,2,-3,1)"/>
<path style="fill:none;stroke-width:0.566929;stroke-linecap:butt;stroke-linejoin:miter;stroke:rgb(0%,0%,0%);stroke-opacity:1;stroke-miterlimit:10;" d="M 49.382812 37.306641 C 50.355469 36.347656 52.298828 34.427734 52.298828 30.585938 " transform="matrix(2,0,0,2,-3,1)"/>
<path style="fill:none;stroke-width:0.566929;stroke-linecap:butt;stroke-linejoin:miter;stroke:rgb(0%,0%,0%);stroke-opacity:1;stroke-miterlimit:10;" d="M 52.298828 45.949219 C 52.298828 38.267578 44.521484 38.267578 44.521484 30.585938 " transform="matrix(2,0,0,2,-3,1)"/>
<path style="fill:none;stroke-width:0.566929;stroke-linecap:butt;stroke-linejoin:miter;stroke:rgb(0%,0%,0%);stroke-opacity:1;stroke-miterlimit:10;" d="M 58.251953 30.585938 L 58.251953 45.949219 " transform="matrix(2,0,0,2,-3,1)"/>
</g>
</svg>
