<?xml version="1.0" encoding="UTF-8"?>
<svg xmlns="http://www.w3.org/2000/svg" xmlns:xlink="http://www.w3.org/1999/xlink" width="438pt" height="123pt" viewBox="0 0 438 123" version="1.1">
<g id="surface368">
<path style="fill:none;stroke-width:0.566929;stroke-linecap:butt;stroke-linejoin:miter;stroke:rgb(100%,0%,0%);stroke-opacity:0.5;stroke-miterlimit:10;" d="M -2.833984 2.833984 L 2.833984 -2.833984 " transform="matrix(2,0,0,2,8,64)"/>
<path style="fill:none;stroke-width:0.566929;stroke-linecap:butt;stroke-linejoin:miter;stroke:rgb(100%,0%,0%);stroke-opacity:0.5;stroke-miterlimit:10;" d="M 2.833984 2.833984 L -2.833984 -2.833984 " transform="matrix(2,0,0,2,8,64)"/>
<path style="fill-rule:nonzero;fill:rgb(50%,50%,0%);fill-opacity:0.1;stroke-width:0.566929;stroke-linecap:butt;stroke-linejoin:miter;stroke:rgb(100%,0%,0%);stroke-opacity:0.5;stroke-miterlimit:10;" d="M 0 28.345703 L 213.675781 28.345703 L 213.675781 -28.345703 L 0 -28.345703 Z M 0 28.345703 " transform="matrix(2,0,0,2,8,64)"/>
<path style="fill:none;stroke-width:0.566929;stroke-linecap:butt;stroke-linejoin:miter;stroke:rgb(100%,0%,0%);stroke-opacity:0.5;stroke-miterlimit:10;" d="M 39.685547 2.833984 L 45.353516 -2.833984 " transform="matrix(2,0,0,2,8,64)"/>
<path style="fill:none;stroke-width:0.566929;stroke-linecap:butt;stroke-linejoin:miter;stroke:rgb(100%,0%,0%);stroke-opacity:0.5;stroke-miterlimit:10;" d="M 45.353516 2.833984 L 39.685547 -2.833984 " transform="matrix(2,0,0,2,8,64)"/>
<path style="fill-rule:nonzero;fill:rgb(50%,50%,0%);fill-opacity:0.1;stroke-width:0.566929;stroke-linecap:butt;stroke-linejoin:miter;stroke:rgb(100%,0%,0%);stroke-opacity:0.5;stroke-miterlimit:10;" d="M 0 28.345703 L 85.039062 28.345703 L 85.039062 -28.345703 L 0 -28.345703 Z M 0 28.345703 " transform="matrix(2,0,0,2,8,64)"/>
<path style="fill:none;stroke-width:0.566929;stroke-linecap:butt;stroke-linejoin:miter;stroke:rgb(100%,0%,0%);stroke-opacity:0.5;stroke-miterlimit:10;" d="M -2.833984 -25.511719 L 2.833984 -31.181641 " transform="matrix(2,0,0,2,8,64)"/>
<path style="fill:none;stroke-width:0.566929;stroke-linecap:butt;stroke-linejoin:miter;stroke:rgb(100%,0%,0%);stroke-opacity:0.5;stroke-miterlimit:10;" d="M 2.833984 -25.511719 L -2.833984 -31.181641 " transform="matrix(2,0,0,2,8,64)"/>
<path style="fill-rule:nonzero;fill:rgb(50%,50%,0%);fill-opacity:0.1;stroke-width:0.566929;stroke-linecap:butt;stroke-linejoin:miter;stroke:rgb(100%,0%,0%);stroke-opacity:0.5;stroke-miterlimit:10;" d="M 0 28.345703 L 85.039062 28.345703 L 85.039062 -28.345703 L 0 -28.345703 Z M 0 28.345703 " transform="matrix(2,0,0,2,8,64)"/>
<path style="fill:none;stroke-width:0.566929;stroke-linecap:butt;stroke-linejoin:miter;stroke:rgb(100%,0%,0%);stroke-opacity:0.5;stroke-miterlimit:10;" d="M -2.833984 -10.863281 L 2.833984 -16.533203 " transform="matrix(2,0,0,2,8,64)"/>
<path style="fill:none;stroke-width:0.566929;stroke-linecap:butt;stroke-linejoin:miter;stroke:rgb(100%,0%,0%);stroke-opacity:0.5;stroke-miterlimit:10;" d="M 2.833984 -10.863281 L -2.833984 -16.533203 " transform="matrix(2,0,0,2,8,64)"/>
<path style="fill-rule:nonzero;fill:rgb(50%,50%,0%);fill-opacity:0.1;stroke-width:0.566929;stroke-linecap:butt;stroke-linejoin:miter;stroke:rgb(100%,0%,0%);stroke-opacity:0.5;stroke-miterlimit:10;" d="M 0 0 L 85.039062 0 L 85.039062 -28.345703 L 0 -28.345703 Z M 0 0 " transform="matrix(2,0,0,2,8,64)"/>
<path style="fill:none;stroke-width:0.566929;stroke-linecap:butt;stroke-linejoin:miter;stroke:rgb(100%,0%,0%);stroke-opacity:0.5;stroke-miterlimit:10;" d="M 11.548828 -10.863281 L 17.21875 -16.533203 " transform="matrix(2,0,0,2,8,64)"/>
<path style="fill:none;stroke-width:0.566929;stroke-linecap:butt;stroke-linejoin:miter;stroke:rgb(100%,0%,0%);stroke-opacity:0.5;stroke-miterlimit:10;" d="M 17.21875 -10.863281 L 11.548828 -16.533203 " transform="matrix(2,0,0,2,8,64)"/>
<path style="fill-rule:nonzero;fill:rgb(50%,50%,0%);fill-opacity:0.1;stroke-width:0.566929;stroke-linecap:butt;stroke-linejoin:miter;stroke:rgb(100%,0%,0%);stroke-opacity:0.5;stroke-miterlimit:10;" d="M 0 0 L 28.345703 0 L 28.345703 -28.345703 L 0 -28.345703 Z M 0 0 " transform="matrix(2,0,0,2,8,64)"/>
<path style="fill:none;stroke-width:0.566929;stroke-linecap:butt;stroke-linejoin:miter;stroke:rgb(0%,0%,0%);stroke-opacity:1;stroke-miterlimit:10;" d="M 14.173828 0.0292969 L 14.173828 -28.375 " transform="matrix(2,0,0,2,8,64)"/>
<path style="fill:none;stroke-width:0.566929;stroke-linecap:butt;stroke-linejoin:miter;stroke:rgb(100%,0%,0%);stroke-opacity:0.5;stroke-miterlimit:10;" d="M 54.587891 -10.863281 L 60.257812 -16.533203 " transform="matrix(2,0,0,2,8,64)"/>
<path style="fill:none;stroke-width:0.566929;stroke-linecap:butt;stroke-linejoin:miter;stroke:rgb(100%,0%,0%);stroke-opacity:0.5;stroke-miterlimit:10;" d="M 60.257812 -10.863281 L 54.587891 -16.533203 " transform="matrix(2,0,0,2,8,64)"/>
<path style="fill-rule:nonzero;fill:rgb(50%,50%,0%);fill-opacity:0.1;stroke-width:0.566929;stroke-linecap:butt;stroke-linejoin:miter;stroke:rgb(100%,0%,0%);stroke-opacity:0.5;stroke-miterlimit:10;" d="M 28.345703 0 L 85.039062 0 L 85.039062 -28.345703 L 28.345703 -28.345703 Z M 28.345703 0 " transform="matrix(2,0,0,2,8,64)"/>
<path style="fill:none;stroke-width:0.566929;stroke-linecap:butt;stroke-linejoin:miter;stroke:rgb(0%,0%,0%);stroke-opacity:1;stroke-miterlimit:10;" d="M 70.865234 0.0292969 C 70.865234 -7.798828 64.521484 -14.144531 56.693359 -14.144531 C 48.865234 -14.144531 42.519531 -7.798828 42.519531 0.0292969 " transform="matrix(2,0,0,2,8,64)"/>
<path style="fill:none;stroke-width:0.566929;stroke-linecap:butt;stroke-linejoin:miter;stroke:rgb(100%,0%,0%);stroke-opacity:0.5;stroke-miterlimit:10;" d="M -2.833984 16.722656 L 2.833984 11.054688 " transform="matrix(2,0,0,2,8,64)"/>
<path style="fill:none;stroke-width:0.566929;stroke-linecap:butt;stroke-linejoin:miter;stroke:rgb(100%,0%,0%);stroke-opacity:0.5;stroke-miterlimit:10;" d="M 2.833984 16.722656 L -2.833984 11.054688 " transform="matrix(2,0,0,2,8,64)"/>
<path style="fill-rule:nonzero;fill:rgb(50%,50%,0%);fill-opacity:0.1;stroke-width:0.566929;stroke-linecap:butt;stroke-linejoin:miter;stroke:rgb(100%,0%,0%);stroke-opacity:0.5;stroke-miterlimit:10;" d="M 0 28.345703 L 85.039062 28.345703 L 85.039062 0 L 0 0 Z M 0 28.345703 " transform="matrix(2,0,0,2,8,64)"/>
<path style="fill:none;stroke-width:0.566929;stroke-linecap:butt;stroke-linejoin:miter;stroke:rgb(100%,0%,0%);stroke-opacity:0.5;stroke-miterlimit:10;" d="M 25.304688 16.722656 L 30.972656 11.054688 " transform="matrix(2,0,0,2,8,64)"/>
<path style="fill:none;stroke-width:0.566929;stroke-linecap:butt;stroke-linejoin:miter;stroke:rgb(100%,0%,0%);stroke-opacity:0.5;stroke-miterlimit:10;" d="M 30.972656 16.722656 L 25.304688 11.054688 " transform="matrix(2,0,0,2,8,64)"/>
<path style="fill-rule:nonzero;fill:rgb(50%,50%,0%);fill-opacity:0.1;stroke-width:0.566929;stroke-linecap:butt;stroke-linejoin:miter;stroke:rgb(100%,0%,0%);stroke-opacity:0.5;stroke-miterlimit:10;" d="M 0 28.345703 L 56.693359 28.345703 L 56.693359 0 L 0 0 Z M 0 28.345703 " transform="matrix(2,0,0,2,8,64)"/>
<path style="fill:none;stroke-width:0.566929;stroke-linecap:butt;stroke-linejoin:miter;stroke:rgb(0%,0%,0%);stroke-opacity:1;stroke-miterlimit:10;" d="M 14.173828 -0.0292969 C 14.173828 7.798828 20.519531 14.144531 28.345703 14.144531 C 36.173828 14.144531 42.519531 7.798828 42.519531 -0.0292969 " transform="matrix(2,0,0,2,8,64)"/>
<path style="fill:none;stroke-width:0.566929;stroke-linecap:butt;stroke-linejoin:miter;stroke:rgb(100%,0%,0%);stroke-opacity:0.5;stroke-miterlimit:10;" d="M 68.291016 16.722656 L 73.958984 11.054688 " transform="matrix(2,0,0,2,8,64)"/>
<path style="fill:none;stroke-width:0.566929;stroke-linecap:butt;stroke-linejoin:miter;stroke:rgb(100%,0%,0%);stroke-opacity:0.5;stroke-miterlimit:10;" d="M 73.958984 16.722656 L 68.291016 11.054688 " transform="matrix(2,0,0,2,8,64)"/>
<path style="fill-rule:nonzero;fill:rgb(50%,50%,0%);fill-opacity:0.1;stroke-width:0.566929;stroke-linecap:butt;stroke-linejoin:miter;stroke:rgb(100%,0%,0%);stroke-opacity:0.5;stroke-miterlimit:10;" d="M 56.693359 28.345703 L 85.039062 28.345703 L 85.039062 0 L 56.693359 0 Z M 56.693359 28.345703 " transform="matrix(2,0,0,2,8,64)"/>
<path style="fill:none;stroke-width:0.566929;stroke-linecap:butt;stroke-linejoin:miter;stroke:rgb(0%,0%,0%);stroke-opacity:1;stroke-miterlimit:10;" d="M 70.865234 28.375 L 70.865234 -0.0292969 " transform="matrix(2,0,0,2,8,64)"/>
<path style="fill:none;stroke-width:0.566929;stroke-linecap:butt;stroke-linejoin:miter;stroke:rgb(100%,0%,0%);stroke-opacity:0.5;stroke-miterlimit:10;" d="M 86.017578 2.833984 L 91.685547 -2.833984 " transform="matrix(2,0,0,2,8,64)"/>
<path style="fill:none;stroke-width:0.566929;stroke-linecap:butt;stroke-linejoin:miter;stroke:rgb(100%,0%,0%);stroke-opacity:0.5;stroke-miterlimit:10;" d="M 91.685547 2.833984 L 86.017578 -2.833984 " transform="matrix(2,0,0,2,8,64)"/>
<path style="fill-rule:nonzero;fill:rgb(50%,50%,0%);fill-opacity:0.1;stroke-width:0.566929;stroke-linecap:butt;stroke-linejoin:miter;stroke:rgb(100%,0%,0%);stroke-opacity:0.5;stroke-miterlimit:10;" d="M 85.039062 28.345703 L 92.664062 28.345703 L 92.664062 -28.345703 L 85.039062 -28.345703 Z M 85.039062 28.345703 " transform="matrix(2,0,0,2,8,64)"/>
<path style="fill:none;stroke-width:0.566929;stroke-linecap:butt;stroke-linejoin:miter;stroke:rgb(100%,0%,0%);stroke-opacity:0.5;stroke-miterlimit:10;" d="M 82.205078 4.015625 L 87.873047 -1.652344 " transform="matrix(2,0,0,2,8,64)"/>
<path style="fill:none;stroke-width:0.566929;stroke-linecap:butt;stroke-linejoin:miter;stroke:rgb(100%,0%,0%);stroke-opacity:0.5;stroke-miterlimit:10;" d="M 87.873047 4.015625 L 82.205078 -1.652344 " transform="matrix(2,0,0,2,8,64)"/>
<path style="fill-rule:nonzero;fill:rgb(50%,50%,0%);fill-opacity:0.1;stroke-width:0.566929;stroke-linecap:butt;stroke-linejoin:miter;stroke:rgb(100%,0%,0%);stroke-opacity:0.5;stroke-miterlimit:10;" d="M 85.039062 28.345703 L 92.664062 28.345703 L 92.664062 -28.345703 L 85.039062 -28.345703 Z M 85.039062 28.345703 " transform="matrix(2,0,0,2,8,64)"/>
<path style="fill:none;stroke-width:0.566929;stroke-linecap:butt;stroke-linejoin:miter;stroke:rgb(100%,0%,0%);stroke-opacity:0.5;stroke-miterlimit:10;" d="M 82.205078 4.015625 L 87.873047 -1.652344 " transform="matrix(2,0,0,2,8,64)"/>
<path style="fill:none;stroke-width:0.566929;stroke-linecap:butt;stroke-linejoin:miter;stroke:rgb(100%,0%,0%);stroke-opacity:0.5;stroke-miterlimit:10;" d="M 87.873047 4.015625 L 82.205078 -1.652344 " transform="matrix(2,0,0,2,8,64)"/>
<path style="fill-rule:nonzero;fill:rgb(50%,50%,0%);fill-opacity:0.1;stroke-width:0.566929;stroke-linecap:butt;stroke-linejoin:miter;stroke:rgb(100%,0%,0%);stroke-opacity:0.5;stroke-miterlimit:10;" d="M 85.039062 1.181641 L 92.664062 1.181641 L 92.664062 -3.474609 L 85.039062 -3.474609 Z M 85.039062 1.181641 " transform="matrix(2,0,0,2,8,64)"/>
<path style=" stroke:none;fill-rule:nonzero;fill:rgb(0%,0%,0%);fill-opacity:1;" d="M 191.640625 58.832031 C 191.953125 58.832031 192.328125 58.832031 192.328125 58.457031 C 192.328125 58.050781 191.953125 58.050781 191.671875 58.050781 L 179.734375 58.050781 C 179.453125 58.050781 179.078125 58.050781 179.078125 58.457031 C 179.078125 58.832031 179.453125 58.832031 179.734375 58.832031 Z M 191.671875 62.707031 C 191.953125 62.707031 192.328125 62.707031 192.328125 62.300781 C 192.328125 61.925781 191.953125 61.925781 191.640625 61.925781 L 179.734375 61.925781 C 179.453125 61.925781 179.078125 61.925781 179.078125 62.300781 C 179.078125 62.707031 179.453125 62.707031 179.734375 62.707031 Z M 191.671875 62.707031 "/>
<path style="fill:none;stroke-width:0.566929;stroke-linecap:butt;stroke-linejoin:miter;stroke:rgb(100%,0%,0%);stroke-opacity:0.5;stroke-miterlimit:10;" d="M 104.003906 2.833984 L 109.671875 -2.833984 " transform="matrix(2,0,0,2,8,64)"/>
<path style="fill:none;stroke-width:0.566929;stroke-linecap:butt;stroke-linejoin:miter;stroke:rgb(100%,0%,0%);stroke-opacity:0.5;stroke-miterlimit:10;" d="M 109.671875 2.833984 L 104.003906 -2.833984 " transform="matrix(2,0,0,2,8,64)"/>
<path style="fill-rule:nonzero;fill:rgb(50%,50%,0%);fill-opacity:0.1;stroke-width:0.566929;stroke-linecap:butt;stroke-linejoin:miter;stroke:rgb(100%,0%,0%);stroke-opacity:0.5;stroke-miterlimit:10;" d="M 92.664062 28.345703 L 121.011719 28.345703 L 121.011719 -28.345703 L 92.664062 -28.345703 Z M 92.664062 28.345703 " transform="matrix(2,0,0,2,8,64)"/>
<path style="fill:none;stroke-width:0.566929;stroke-linecap:butt;stroke-linejoin:miter;stroke:rgb(100%,0%,0%);stroke-opacity:0.5;stroke-miterlimit:10;" d="M 102.21875 2.833984 L 107.888672 -2.833984 " transform="matrix(2,0,0,2,8,64)"/>
<path style="fill:none;stroke-width:0.566929;stroke-linecap:butt;stroke-linejoin:miter;stroke:rgb(100%,0%,0%);stroke-opacity:0.5;stroke-miterlimit:10;" d="M 107.888672 2.833984 L 102.21875 -2.833984 " transform="matrix(2,0,0,2,8,64)"/>
<path style="fill-rule:nonzero;fill:rgb(50%,50%,0%);fill-opacity:0.1;stroke-width:0.566929;stroke-linecap:butt;stroke-linejoin:miter;stroke:rgb(100%,0%,0%);stroke-opacity:0.5;stroke-miterlimit:10;" d="M 92.664062 28.345703 L 121.011719 28.345703 L 121.011719 -28.345703 L 92.664062 -28.345703 Z M 92.664062 28.345703 " transform="matrix(2,0,0,2,8,64)"/>
<path style="fill:none;stroke-width:0.566929;stroke-linecap:butt;stroke-linejoin:miter;stroke:rgb(0%,0%,0%);stroke-opacity:1;stroke-miterlimit:10;" d="M 106.837891 28.375 L 106.837891 -28.375 " transform="matrix(2,0,0,2,8,64)"/>
<path style="fill:none;stroke-width:0.566929;stroke-linecap:butt;stroke-linejoin:miter;stroke:rgb(100%,0%,0%);stroke-opacity:0.5;stroke-miterlimit:10;" d="M 121.988281 2.833984 L 127.658203 -2.833984 " transform="matrix(2,0,0,2,8,64)"/>
<path style="fill:none;stroke-width:0.566929;stroke-linecap:butt;stroke-linejoin:miter;stroke:rgb(100%,0%,0%);stroke-opacity:0.5;stroke-miterlimit:10;" d="M 127.658203 2.833984 L 121.988281 -2.833984 " transform="matrix(2,0,0,2,8,64)"/>
<path style="fill-rule:nonzero;fill:rgb(50%,50%,0%);fill-opacity:0.1;stroke-width:0.566929;stroke-linecap:butt;stroke-linejoin:miter;stroke:rgb(100%,0%,0%);stroke-opacity:0.5;stroke-miterlimit:10;" d="M 121.011719 28.345703 L 128.636719 28.345703 L 128.636719 -28.345703 L 121.011719 -28.345703 Z M 121.011719 28.345703 " transform="matrix(2,0,0,2,8,64)"/>
<path style="fill:none;stroke-width:0.566929;stroke-linecap:butt;stroke-linejoin:miter;stroke:rgb(100%,0%,0%);stroke-opacity:0.5;stroke-miterlimit:10;" d="M 118.175781 4.015625 L 123.845703 -1.652344 " transform="matrix(2,0,0,2,8,64)"/>
<path style="fill:none;stroke-width:0.566929;stroke-linecap:butt;stroke-linejoin:miter;stroke:rgb(100%,0%,0%);stroke-opacity:0.5;stroke-miterlimit:10;" d="M 123.845703 4.015625 L 118.175781 -1.652344 " transform="matrix(2,0,0,2,8,64)"/>
<path style="fill-rule:nonzero;fill:rgb(50%,50%,0%);fill-opacity:0.1;stroke-width:0.566929;stroke-linecap:butt;stroke-linejoin:miter;stroke:rgb(100%,0%,0%);stroke-opacity:0.5;stroke-miterlimit:10;" d="M 121.011719 28.345703 L 128.636719 28.345703 L 128.636719 -28.345703 L 121.011719 -28.345703 Z M 121.011719 28.345703 " transform="matrix(2,0,0,2,8,64)"/>
<path style="fill:none;stroke-width:0.566929;stroke-linecap:butt;stroke-linejoin:miter;stroke:rgb(100%,0%,0%);stroke-opacity:0.5;stroke-miterlimit:10;" d="M 118.175781 4.015625 L 123.845703 -1.652344 " transform="matrix(2,0,0,2,8,64)"/>
<path style="fill:none;stroke-width:0.566929;stroke-linecap:butt;stroke-linejoin:miter;stroke:rgb(100%,0%,0%);stroke-opacity:0.5;stroke-miterlimit:10;" d="M 123.845703 4.015625 L 118.175781 -1.652344 " transform="matrix(2,0,0,2,8,64)"/>
<path style="fill-rule:nonzero;fill:rgb(50%,50%,0%);fill-opacity:0.1;stroke-width:0.566929;stroke-linecap:butt;stroke-linejoin:miter;stroke:rgb(100%,0%,0%);stroke-opacity:0.5;stroke-miterlimit:10;" d="M 121.011719 1.181641 L 128.636719 1.181641 L 128.636719 -3.474609 L 121.011719 -3.474609 Z M 121.011719 1.181641 " transform="matrix(2,0,0,2,8,64)"/>
<path style=" stroke:none;fill-rule:nonzero;fill:rgb(0%,0%,0%);fill-opacity:1;" d="M 263.585938 58.832031 C 263.898438 58.832031 264.273438 58.832031 264.273438 58.457031 C 264.273438 58.050781 263.898438 58.050781 263.617188 58.050781 L 251.679688 58.050781 C 251.398438 58.050781 251.023438 58.050781 251.023438 58.457031 C 251.023438 58.832031 251.398438 58.832031 251.679688 58.832031 Z M 263.617188 62.707031 C 263.898438 62.707031 264.273438 62.707031 264.273438 62.300781 C 264.273438 61.925781 263.898438 61.925781 263.585938 61.925781 L 251.679688 61.925781 C 251.398438 61.925781 251.023438 61.925781 251.023438 62.300781 C 251.023438 62.707031 251.398438 62.707031 251.679688 62.707031 Z M 263.617188 62.707031 "/>
<path style="fill:none;stroke-width:0.566929;stroke-linecap:butt;stroke-linejoin:miter;stroke:rgb(100%,0%,0%);stroke-opacity:0.5;stroke-miterlimit:10;" d="M 168.320312 2.833984 L 173.990234 -2.833984 " transform="matrix(2,0,0,2,8,64)"/>
<path style="fill:none;stroke-width:0.566929;stroke-linecap:butt;stroke-linejoin:miter;stroke:rgb(100%,0%,0%);stroke-opacity:0.5;stroke-miterlimit:10;" d="M 173.990234 2.833984 L 168.320312 -2.833984 " transform="matrix(2,0,0,2,8,64)"/>
<path style="fill-rule:nonzero;fill:rgb(50%,50%,0%);fill-opacity:0.1;stroke-width:0.566929;stroke-linecap:butt;stroke-linejoin:miter;stroke:rgb(100%,0%,0%);stroke-opacity:0.5;stroke-miterlimit:10;" d="M 128.636719 28.345703 L 213.675781 28.345703 L 213.675781 -28.345703 L 128.636719 -28.345703 Z M 128.636719 28.345703 " transform="matrix(2,0,0,2,8,64)"/>
<path style="fill:none;stroke-width:0.566929;stroke-linecap:butt;stroke-linejoin:miter;stroke:rgb(100%,0%,0%);stroke-opacity:0.5;stroke-miterlimit:10;" d="M 125.800781 -25.511719 L 131.470703 -31.181641 " transform="matrix(2,0,0,2,8,64)"/>
<path style="fill:none;stroke-width:0.566929;stroke-linecap:butt;stroke-linejoin:miter;stroke:rgb(100%,0%,0%);stroke-opacity:0.5;stroke-miterlimit:10;" d="M 131.470703 -25.511719 L 125.800781 -31.181641 " transform="matrix(2,0,0,2,8,64)"/>
<path style="fill-rule:nonzero;fill:rgb(50%,50%,0%);fill-opacity:0.1;stroke-width:0.566929;stroke-linecap:butt;stroke-linejoin:miter;stroke:rgb(100%,0%,0%);stroke-opacity:0.5;stroke-miterlimit:10;" d="M 128.636719 28.345703 L 213.675781 28.345703 L 213.675781 -28.345703 L 128.636719 -28.345703 Z M 128.636719 28.345703 " transform="matrix(2,0,0,2,8,64)"/>
<path style="fill:none;stroke-width:0.566929;stroke-linecap:butt;stroke-linejoin:miter;stroke:rgb(100%,0%,0%);stroke-opacity:0.5;stroke-miterlimit:10;" d="M 125.800781 -10.876953 L 131.470703 -16.546875 " transform="matrix(2,0,0,2,8,64)"/>
<path style="fill:none;stroke-width:0.566929;stroke-linecap:butt;stroke-linejoin:miter;stroke:rgb(100%,0%,0%);stroke-opacity:0.5;stroke-miterlimit:10;" d="M 131.470703 -10.876953 L 125.800781 -16.546875 " transform="matrix(2,0,0,2,8,64)"/>
<path style="fill-rule:nonzero;fill:rgb(50%,50%,0%);fill-opacity:0.1;stroke-width:0.566929;stroke-linecap:butt;stroke-linejoin:miter;stroke:rgb(100%,0%,0%);stroke-opacity:0.5;stroke-miterlimit:10;" d="M 128.636719 0 L 213.675781 0 L 213.675781 -28.345703 L 128.636719 -28.345703 Z M 128.636719 0 " transform="matrix(2,0,0,2,8,64)"/>
<path style="fill:none;stroke-width:0.566929;stroke-linecap:butt;stroke-linejoin:miter;stroke:rgb(100%,0%,0%);stroke-opacity:0.5;stroke-miterlimit:10;" d="M 151.617188 -10.876953 L 157.287109 -16.546875 " transform="matrix(2,0,0,2,8,64)"/>
<path style="fill:none;stroke-width:0.566929;stroke-linecap:butt;stroke-linejoin:miter;stroke:rgb(100%,0%,0%);stroke-opacity:0.5;stroke-miterlimit:10;" d="M 157.287109 -10.876953 L 151.617188 -16.546875 " transform="matrix(2,0,0,2,8,64)"/>
<path style="fill-rule:nonzero;fill:rgb(50%,50%,0%);fill-opacity:0.1;stroke-width:0.566929;stroke-linecap:butt;stroke-linejoin:miter;stroke:rgb(100%,0%,0%);stroke-opacity:0.5;stroke-miterlimit:10;" d="M 128.636719 0 L 185.328125 0 L 185.328125 -28.345703 L 128.636719 -28.345703 Z M 128.636719 0 " transform="matrix(2,0,0,2,8,64)"/>
<path style="fill:none;stroke-width:0.566929;stroke-linecap:butt;stroke-linejoin:miter;stroke:rgb(0%,0%,0%);stroke-opacity:1;stroke-miterlimit:10;" d="M 171.15625 0.0292969 C 171.15625 -7.798828 164.810547 -14.144531 156.982422 -14.144531 C 149.154297 -14.144531 142.808594 -7.798828 142.808594 0.0292969 " transform="matrix(2,0,0,2,8,64)"/>
<path style="fill:none;stroke-width:0.566929;stroke-linecap:butt;stroke-linejoin:miter;stroke:rgb(100%,0%,0%);stroke-opacity:0.5;stroke-miterlimit:10;" d="M 195.865234 -10.876953 L 201.533203 -16.546875 " transform="matrix(2,0,0,2,8,64)"/>
<path style="fill:none;stroke-width:0.566929;stroke-linecap:butt;stroke-linejoin:miter;stroke:rgb(100%,0%,0%);stroke-opacity:0.5;stroke-miterlimit:10;" d="M 201.533203 -10.876953 L 195.865234 -16.546875 " transform="matrix(2,0,0,2,8,64)"/>
<path style="fill-rule:nonzero;fill:rgb(50%,50%,0%);fill-opacity:0.1;stroke-width:0.566929;stroke-linecap:butt;stroke-linejoin:miter;stroke:rgb(100%,0%,0%);stroke-opacity:0.5;stroke-miterlimit:10;" d="M 185.328125 0 L 213.675781 0 L 213.675781 -28.345703 L 185.328125 -28.345703 Z M 185.328125 0 " transform="matrix(2,0,0,2,8,64)"/>
<path style="fill:none;stroke-width:0.566929;stroke-linecap:butt;stroke-linejoin:miter;stroke:rgb(0%,0%,0%);stroke-opacity:1;stroke-miterlimit:10;" d="M 199.501953 0.0292969 L 199.501953 -28.375 " transform="matrix(2,0,0,2,8,64)"/>
<path style="fill:none;stroke-width:0.566929;stroke-linecap:butt;stroke-linejoin:miter;stroke:rgb(100%,0%,0%);stroke-opacity:0.5;stroke-miterlimit:10;" d="M 125.800781 16.693359 L 131.470703 11.025391 " transform="matrix(2,0,0,2,8,64)"/>
<path style="fill:none;stroke-width:0.566929;stroke-linecap:butt;stroke-linejoin:miter;stroke:rgb(100%,0%,0%);stroke-opacity:0.5;stroke-miterlimit:10;" d="M 131.470703 16.693359 L 125.800781 11.025391 " transform="matrix(2,0,0,2,8,64)"/>
<path style="fill-rule:nonzero;fill:rgb(50%,50%,0%);fill-opacity:0.1;stroke-width:0.566929;stroke-linecap:butt;stroke-linejoin:miter;stroke:rgb(100%,0%,0%);stroke-opacity:0.5;stroke-miterlimit:10;" d="M 128.636719 28.345703 L 213.675781 28.345703 L 213.675781 0 L 128.636719 0 Z M 128.636719 28.345703 " transform="matrix(2,0,0,2,8,64)"/>
<path style="fill:none;stroke-width:0.566929;stroke-linecap:butt;stroke-linejoin:miter;stroke:rgb(100%,0%,0%);stroke-opacity:0.5;stroke-miterlimit:10;" d="M 139.451172 16.693359 L 145.121094 11.025391 " transform="matrix(2,0,0,2,8,64)"/>
<path style="fill:none;stroke-width:0.566929;stroke-linecap:butt;stroke-linejoin:miter;stroke:rgb(100%,0%,0%);stroke-opacity:0.5;stroke-miterlimit:10;" d="M 145.121094 16.693359 L 139.451172 11.025391 " transform="matrix(2,0,0,2,8,64)"/>
<path style="fill-rule:nonzero;fill:rgb(50%,50%,0%);fill-opacity:0.1;stroke-width:0.566929;stroke-linecap:butt;stroke-linejoin:miter;stroke:rgb(100%,0%,0%);stroke-opacity:0.5;stroke-miterlimit:10;" d="M 128.636719 28.345703 L 156.982422 28.345703 L 156.982422 0 L 128.636719 0 Z M 128.636719 28.345703 " transform="matrix(2,0,0,2,8,64)"/>
<path style="fill:none;stroke-width:0.566929;stroke-linecap:butt;stroke-linejoin:miter;stroke:rgb(0%,0%,0%);stroke-opacity:1;stroke-miterlimit:10;" d="M 142.808594 28.375 L 142.808594 -0.0292969 " transform="matrix(2,0,0,2,8,64)"/>
<path style="fill:none;stroke-width:0.566929;stroke-linecap:butt;stroke-linejoin:miter;stroke:rgb(100%,0%,0%);stroke-opacity:0.5;stroke-miterlimit:10;" d="M 179.902344 16.693359 L 185.572266 11.025391 " transform="matrix(2,0,0,2,8,64)"/>
<path style="fill:none;stroke-width:0.566929;stroke-linecap:butt;stroke-linejoin:miter;stroke:rgb(100%,0%,0%);stroke-opacity:0.5;stroke-miterlimit:10;" d="M 185.572266 16.693359 L 179.902344 11.025391 " transform="matrix(2,0,0,2,8,64)"/>
<path style="fill-rule:nonzero;fill:rgb(50%,50%,0%);fill-opacity:0.1;stroke-width:0.566929;stroke-linecap:butt;stroke-linejoin:miter;stroke:rgb(100%,0%,0%);stroke-opacity:0.5;stroke-miterlimit:10;" d="M 156.982422 28.345703 L 213.675781 28.345703 L 213.675781 0 L 156.982422 0 Z M 156.982422 28.345703 " transform="matrix(2,0,0,2,8,64)"/>
<path style="fill:none;stroke-width:0.566929;stroke-linecap:butt;stroke-linejoin:miter;stroke:rgb(0%,0%,0%);stroke-opacity:1;stroke-miterlimit:10;" d="M 171.15625 -0.0292969 C 171.15625 7.798828 177.501953 14.144531 185.328125 14.144531 C 193.15625 14.144531 199.501953 7.798828 199.501953 -0.0292969 " transform="matrix(2,0,0,2,8,64)"/>
</g>
</svg>
