<?xml version="1.0" encoding="UTF-8"?>
<svg xmlns="http://www.w3.org/2000/svg" xmlns:xlink="http://www.w3.org/1999/xlink" width="438pt" height="123pt" viewBox="0 0 438 123" version="1.1">
<g id="surface251">
<path style="fill:none;stroke-width:0.566929;stroke-linecap:butt;stroke-linejoin:miter;stroke:rgb(100%,0%,0%);stroke-opacity:0.5;stroke-miterlimit:10;" d="M -2.833984 2.833984 L 2.833984 -2.833984 " transform="matrix(2,0,0,2,8,64)"/>
<path style="fill:none;stroke-width:0.566929;stroke-linecap:butt;stroke-linejoin:miter;stroke:rgb(100%,0%,0%);stroke-opacity:0.5;stroke-miterlimit:10;" d="M 2.833984 2.833984 L -2.833984 -2.833984 " transform="matrix(2,0,0,2,8,64)"/>
<path style="fill-rule:evenodd;fill:rgb(50%,50%,0%);fill-opacity:0.1;stroke-width:0.566929;stroke-linecap:butt;stroke-linejoin:miter;stroke:rgb(100%,0%,0%);stroke-opacity:0.5;stroke-miterlimit:10;" d="M 0 28.345703 L 213.675781 28.345703 L 213.675781 -28.345703 L 0 -28.345703 Z M 0 28.345703 " transform="matrix(2,0,0,2,8,64)"/>
<path style="fill:none;stroke-width:0.566929;stroke-linecap:butt;stroke-linejoin:miter;stroke:rgb(100%,0%,0%);stroke-opacity:0.5;stroke-miterlimit:10;" d="M 39.685547 2.833984 L 45.353516 -2.833984 " transform="matrix(2,0,0,2,8,64)"/>
<path style="fill:none;stroke-width:0.566929;stroke-linecap:butt;stroke-linejoin:miter;stroke:rgb(100%,0%,0%);stroke-opacity:0.5;stroke-miterlimit:10;" d="M 45.353516 2.833984 L 39.685547 -2.833984 " transform="matrix(2,0,0,2,8,64)"/>
<path style="fill-rule:evenodd;fill:rgb(50%,50%,0%);fill-opacity:0.1;stroke-width:0.566929;stroke-linecap:butt;stroke-linejoin:miter;stroke:rgb(100%,0%,0%);stroke-opacity:0.5;stroke-miterlimit:10;" d="M 0 28.345703 L 85.039062 28.345703 L 85.039062 -28.345703 L 0 -28.345703 Z M 0 28.345703 " transform="matrix(2,0,0,2,8,64)"/>
<path style="fill:none;stroke-width:0.566929;stroke-linecap:butt;stroke-linejoin:miter;stroke:rgb(100%,0%,0%);stroke-opacity:0.5;stroke-miterlimit:10;" d="M -2.833984 -25.511719 L 2.833984 -31.181641 " transform="matrix(2,0,0,2,8,64)"/>
<path style="fill:none;stroke-width:0.566929;stroke-linecap:butt;stroke-linejoin:miter;stroke:rgb(100%,0%,0%);stroke-opacity:0.5;stroke-miterlimit:10;" d="M 2.833984 -25.511719 L -2.833984 -31.181641 " transform="matrix(2,0,0,2,8,64)"/>
<path style="fill-rule:evenodd;fill:rgb(50%,50%,0%);fill-opacity:0.1;stroke-width:0.566929;stroke-linecap:butt;stroke-linejoin:miter;stroke:rgb(100%,0%,0%);stroke-opacity:0.5;stroke-miterlimit:10;" d="M 0 28.345703 L 85.039062 28.345703 L 85.039062 -28.345703 L 0 -28.345703 Z M 0 28.345703 " transform="matrix(2,0,0,2,8,64)"/>
<path style="fill:none;stroke-width:0.566929;stroke-linecap:butt;stroke-linejoin:miter;stroke:rgb(100%,0%,0%);stroke-opacity:0.5;stroke-miterlimit:10;" d="M -2.833984 -11.447266 L 2.833984 -17.115234 " transform="matrix(2,0,0,2,8,64)"/>
<path style="fill:none;stroke-width:0.566929;stroke-linecap:butt;stroke-linejoin:miter;stroke:rgb(100%,0%,0%);stroke-opacity:0.5;stroke-miterlimit:10;" d="M 2.833984 -11.447266 L -2.833984 -17.115234 " transform="matrix(2,0,0,2,8,64)"/>
<path style="fill-rule:evenodd;fill:rgb(50%,50%,0%);fill-opacity:0.1;stroke-width:0.566929;stroke-linecap:butt;stroke-linejoin:miter;stroke:rgb(100%,0%,0%);stroke-opacity:0.5;stroke-miterlimit:10;" d="M 0 0 L 85.039062 0 L 85.039062 -28.345703 L 0 -28.345703 Z M 0 0 " transform="matrix(2,0,0,2,8,64)"/>
<path style="fill:none;stroke-width:0.566929;stroke-linecap:butt;stroke-linejoin:miter;stroke:rgb(100%,0%,0%);stroke-opacity:0.5;stroke-miterlimit:10;" d="M 11.597656 -11.447266 L 17.267578 -17.115234 " transform="matrix(2,0,0,2,8,64)"/>
<path style="fill:none;stroke-width:0.566929;stroke-linecap:butt;stroke-linejoin:miter;stroke:rgb(100%,0%,0%);stroke-opacity:0.5;stroke-miterlimit:10;" d="M 17.267578 -11.447266 L 11.597656 -17.115234 " transform="matrix(2,0,0,2,8,64)"/>
<path style="fill-rule:evenodd;fill:rgb(50%,50%,0%);fill-opacity:0.1;stroke-width:0.566929;stroke-linecap:butt;stroke-linejoin:miter;stroke:rgb(100%,0%,0%);stroke-opacity:0.5;stroke-miterlimit:10;" d="M 0 0 L 28.345703 0 L 28.345703 -28.345703 L 0 -28.345703 Z M 0 0 " transform="matrix(2,0,0,2,8,64)"/>
<path style="fill:none;stroke-width:0.566929;stroke-linecap:butt;stroke-linejoin:miter;stroke:rgb(0%,0%,0%);stroke-opacity:1;stroke-miterlimit:10;" d="M 14.173828 -28.375 L 14.173828 0.0292969 " transform="matrix(2,0,0,2,8,64)"/>
<path style="fill:none;stroke-width:0.566929;stroke-linecap:butt;stroke-linejoin:miter;stroke:rgb(100%,0%,0%);stroke-opacity:0.5;stroke-miterlimit:10;" d="M 55.132812 -11.447266 L 60.802734 -17.115234 " transform="matrix(2,0,0,2,8,64)"/>
<path style="fill:none;stroke-width:0.566929;stroke-linecap:butt;stroke-linejoin:miter;stroke:rgb(100%,0%,0%);stroke-opacity:0.5;stroke-miterlimit:10;" d="M 60.802734 -11.447266 L 55.132812 -17.115234 " transform="matrix(2,0,0,2,8,64)"/>
<path style="fill-rule:evenodd;fill:rgb(50%,50%,0%);fill-opacity:0.1;stroke-width:0.566929;stroke-linecap:butt;stroke-linejoin:miter;stroke:rgb(100%,0%,0%);stroke-opacity:0.5;stroke-miterlimit:10;" d="M 28.345703 0 L 85.039062 0 L 85.039062 -28.345703 L 28.345703 -28.345703 Z M 28.345703 0 " transform="matrix(2,0,0,2,8,64)"/>
<path style="fill:none;stroke-width:0.566929;stroke-linecap:butt;stroke-linejoin:miter;stroke:rgb(0%,0%,0%);stroke-opacity:1;stroke-miterlimit:10;" d="M 70.865234 0.0292969 C 70.865234 -7.798828 64.521484 -14.144531 56.693359 -14.144531 C 48.865234 -14.144531 42.519531 -7.798828 42.519531 0.0292969 " transform="matrix(2,0,0,2,8,64)"/>
<path style="fill:none;stroke-width:0.566929;stroke-linecap:butt;stroke-linejoin:miter;stroke:rgb(100%,0%,0%);stroke-opacity:0.5;stroke-miterlimit:10;" d="M -2.833984 17.291016 L 2.833984 11.621094 " transform="matrix(2,0,0,2,8,64)"/>
<path style="fill:none;stroke-width:0.566929;stroke-linecap:butt;stroke-linejoin:miter;stroke:rgb(100%,0%,0%);stroke-opacity:0.5;stroke-miterlimit:10;" d="M 2.833984 17.291016 L -2.833984 11.621094 " transform="matrix(2,0,0,2,8,64)"/>
<path style="fill-rule:evenodd;fill:rgb(50%,50%,0%);fill-opacity:0.1;stroke-width:0.566929;stroke-linecap:butt;stroke-linejoin:miter;stroke:rgb(100%,0%,0%);stroke-opacity:0.5;stroke-miterlimit:10;" d="M 0 28.345703 L 85.039062 28.345703 L 85.039062 0 L 0 0 Z M 0 28.345703 " transform="matrix(2,0,0,2,8,64)"/>
<path style="fill:none;stroke-width:0.566929;stroke-linecap:butt;stroke-linejoin:miter;stroke:rgb(100%,0%,0%);stroke-opacity:0.5;stroke-miterlimit:10;" d="M 24.951172 17.291016 L 30.621094 11.621094 " transform="matrix(2,0,0,2,8,64)"/>
<path style="fill:none;stroke-width:0.566929;stroke-linecap:butt;stroke-linejoin:miter;stroke:rgb(100%,0%,0%);stroke-opacity:0.5;stroke-miterlimit:10;" d="M 30.621094 17.291016 L 24.951172 11.621094 " transform="matrix(2,0,0,2,8,64)"/>
<path style="fill-rule:evenodd;fill:rgb(50%,50%,0%);fill-opacity:0.1;stroke-width:0.566929;stroke-linecap:butt;stroke-linejoin:miter;stroke:rgb(100%,0%,0%);stroke-opacity:0.5;stroke-miterlimit:10;" d="M 0 28.345703 L 56.693359 28.345703 L 56.693359 0 L 0 0 Z M 0 28.345703 " transform="matrix(2,0,0,2,8,64)"/>
<path style="fill:none;stroke-width:0.566929;stroke-linecap:butt;stroke-linejoin:miter;stroke:rgb(0%,0%,0%);stroke-opacity:1;stroke-miterlimit:10;" d="M 14.173828 -0.0292969 C 14.173828 7.798828 20.519531 14.144531 28.345703 14.144531 C 36.173828 14.144531 42.519531 7.798828 42.519531 -0.0292969 " transform="matrix(2,0,0,2,8,64)"/>
<path style="fill:none;stroke-width:0.566929;stroke-linecap:butt;stroke-linejoin:miter;stroke:rgb(100%,0%,0%);stroke-opacity:0.5;stroke-miterlimit:10;" d="M 68.349609 17.291016 L 74.017578 11.621094 " transform="matrix(2,0,0,2,8,64)"/>
<path style="fill:none;stroke-width:0.566929;stroke-linecap:butt;stroke-linejoin:miter;stroke:rgb(100%,0%,0%);stroke-opacity:0.5;stroke-miterlimit:10;" d="M 74.017578 17.291016 L 68.349609 11.621094 " transform="matrix(2,0,0,2,8,64)"/>
<path style="fill-rule:evenodd;fill:rgb(50%,50%,0%);fill-opacity:0.1;stroke-width:0.566929;stroke-linecap:butt;stroke-linejoin:miter;stroke:rgb(100%,0%,0%);stroke-opacity:0.5;stroke-miterlimit:10;" d="M 56.693359 28.345703 L 85.039062 28.345703 L 85.039062 0 L 56.693359 0 Z M 56.693359 28.345703 " transform="matrix(2,0,0,2,8,64)"/>
<path style="fill:none;stroke-width:0.566929;stroke-linecap:butt;stroke-linejoin:miter;stroke:rgb(0%,0%,0%);stroke-opacity:1;stroke-miterlimit:10;" d="M 70.865234 -0.0292969 L 70.865234 28.375 " transform="matrix(2,0,0,2,8,64)"/>
<path style="fill:none;stroke-width:0.566929;stroke-linecap:butt;stroke-linejoin:miter;stroke:rgb(100%,0%,0%);stroke-opacity:0.5;stroke-miterlimit:10;" d="M 86.017578 2.833984 L 91.685547 -2.833984 " transform="matrix(2,0,0,2,8,64)"/>
<path style="fill:none;stroke-width:0.566929;stroke-linecap:butt;stroke-linejoin:miter;stroke:rgb(100%,0%,0%);stroke-opacity:0.5;stroke-miterlimit:10;" d="M 91.685547 2.833984 L 86.017578 -2.833984 " transform="matrix(2,0,0,2,8,64)"/>
<path style="fill-rule:evenodd;fill:rgb(50%,50%,0%);fill-opacity:0.1;stroke-width:0.566929;stroke-linecap:butt;stroke-linejoin:miter;stroke:rgb(100%,0%,0%);stroke-opacity:0.5;stroke-miterlimit:10;" d="M 85.039062 2.333984 L 92.664062 2.333984 L 92.664062 -2.333984 L 85.039062 -2.333984 Z M 85.039062 2.333984 " transform="matrix(2,0,0,2,8,64)"/>
<path style="fill:none;stroke-width:0.566929;stroke-linecap:butt;stroke-linejoin:miter;stroke:rgb(100%,0%,0%);stroke-opacity:0.5;stroke-miterlimit:10;" d="M 82.205078 5.169922 L 87.873047 -0.5 " transform="matrix(2,0,0,2,8,64)"/>
<path style="fill:none;stroke-width:0.566929;stroke-linecap:butt;stroke-linejoin:miter;stroke:rgb(100%,0%,0%);stroke-opacity:0.5;stroke-miterlimit:10;" d="M 87.873047 5.169922 L 82.205078 -0.5 " transform="matrix(2,0,0,2,8,64)"/>
<path style="fill-rule:evenodd;fill:rgb(50%,50%,0%);fill-opacity:0.1;stroke-width:0.566929;stroke-linecap:butt;stroke-linejoin:miter;stroke:rgb(100%,0%,0%);stroke-opacity:0.5;stroke-miterlimit:10;" d="M 85.039062 2.333984 L 92.664062 2.333984 L 92.664062 -2.333984 L 85.039062 -2.333984 Z M 85.039062 2.333984 " transform="matrix(2,0,0,2,8,64)"/>
<path style=" stroke:none;fill-rule:nonzero;fill:rgb(0%,0%,0%);fill-opacity:1;" d="M 191.640625 61.113281 C 191.953125 61.113281 192.328125 61.113281 192.328125 60.738281 C 192.328125 60.332031 191.953125 60.332031 191.671875 60.332031 L 179.734375 60.332031 C 179.453125 60.332031 179.078125 60.332031 179.078125 60.738281 C 179.078125 61.113281 179.453125 61.113281 179.734375 61.113281 Z M 191.671875 64.988281 C 191.953125 64.988281 192.328125 64.988281 192.328125 64.582031 C 192.328125 64.207031 191.953125 64.207031 191.640625 64.207031 L 179.734375 64.207031 C 179.453125 64.207031 179.078125 64.207031 179.078125 64.582031 C 179.078125 64.988281 179.453125 64.988281 179.734375 64.988281 Z M 191.671875 64.988281 "/>
<path style="fill:none;stroke-width:0.566929;stroke-linecap:butt;stroke-linejoin:miter;stroke:rgb(100%,0%,0%);stroke-opacity:0.5;stroke-miterlimit:10;" d="M 104.003906 2.833984 L 109.671875 -2.833984 " transform="matrix(2,0,0,2,8,64)"/>
<path style="fill:none;stroke-width:0.566929;stroke-linecap:butt;stroke-linejoin:miter;stroke:rgb(100%,0%,0%);stroke-opacity:0.5;stroke-miterlimit:10;" d="M 109.671875 2.833984 L 104.003906 -2.833984 " transform="matrix(2,0,0,2,8,64)"/>
<path style="fill-rule:evenodd;fill:rgb(50%,50%,0%);fill-opacity:0.1;stroke-width:0.566929;stroke-linecap:butt;stroke-linejoin:miter;stroke:rgb(100%,0%,0%);stroke-opacity:0.5;stroke-miterlimit:10;" d="M 92.664062 14.173828 L 121.011719 14.173828 L 121.011719 -14.173828 L 92.664062 -14.173828 Z M 92.664062 14.173828 " transform="matrix(2,0,0,2,8,64)"/>
<path style="fill:none;stroke-width:0.566929;stroke-linecap:butt;stroke-linejoin:miter;stroke:rgb(100%,0%,0%);stroke-opacity:0.5;stroke-miterlimit:10;" d="M 105.173828 2.833984 L 110.84375 -2.833984 " transform="matrix(2,0,0,2,8,64)"/>
<path style="fill:none;stroke-width:0.566929;stroke-linecap:butt;stroke-linejoin:miter;stroke:rgb(100%,0%,0%);stroke-opacity:0.5;stroke-miterlimit:10;" d="M 110.84375 2.833984 L 105.173828 -2.833984 " transform="matrix(2,0,0,2,8,64)"/>
<path style="fill-rule:evenodd;fill:rgb(50%,50%,0%);fill-opacity:0.1;stroke-width:0.566929;stroke-linecap:butt;stroke-linejoin:miter;stroke:rgb(100%,0%,0%);stroke-opacity:0.5;stroke-miterlimit:10;" d="M 92.664062 14.173828 L 121.011719 14.173828 L 121.011719 -14.173828 L 92.664062 -14.173828 Z M 92.664062 14.173828 " transform="matrix(2,0,0,2,8,64)"/>
<path style="fill:none;stroke-width:0.566929;stroke-linecap:butt;stroke-linejoin:miter;stroke:rgb(0%,0%,0%);stroke-opacity:1;stroke-miterlimit:10;" d="M 106.837891 -14.201172 L 106.837891 14.201172 " transform="matrix(2,0,0,2,8,64)"/>
<path style="fill:none;stroke-width:0.566929;stroke-linecap:butt;stroke-linejoin:miter;stroke:rgb(100%,0%,0%);stroke-opacity:0.5;stroke-miterlimit:10;" d="M 121.988281 2.833984 L 127.658203 -2.833984 " transform="matrix(2,0,0,2,8,64)"/>
<path style="fill:none;stroke-width:0.566929;stroke-linecap:butt;stroke-linejoin:miter;stroke:rgb(100%,0%,0%);stroke-opacity:0.5;stroke-miterlimit:10;" d="M 127.658203 2.833984 L 121.988281 -2.833984 " transform="matrix(2,0,0,2,8,64)"/>
<path style="fill-rule:evenodd;fill:rgb(50%,50%,0%);fill-opacity:0.1;stroke-width:0.566929;stroke-linecap:butt;stroke-linejoin:miter;stroke:rgb(100%,0%,0%);stroke-opacity:0.5;stroke-miterlimit:10;" d="M 121.011719 2.333984 L 128.636719 2.333984 L 128.636719 -2.333984 L 121.011719 -2.333984 Z M 121.011719 2.333984 " transform="matrix(2,0,0,2,8,64)"/>
<path style="fill:none;stroke-width:0.566929;stroke-linecap:butt;stroke-linejoin:miter;stroke:rgb(100%,0%,0%);stroke-opacity:0.5;stroke-miterlimit:10;" d="M 118.175781 5.169922 L 123.845703 -0.5 " transform="matrix(2,0,0,2,8,64)"/>
<path style="fill:none;stroke-width:0.566929;stroke-linecap:butt;stroke-linejoin:miter;stroke:rgb(100%,0%,0%);stroke-opacity:0.5;stroke-miterlimit:10;" d="M 123.845703 5.169922 L 118.175781 -0.5 " transform="matrix(2,0,0,2,8,64)"/>
<path style="fill-rule:evenodd;fill:rgb(50%,50%,0%);fill-opacity:0.1;stroke-width:0.566929;stroke-linecap:butt;stroke-linejoin:miter;stroke:rgb(100%,0%,0%);stroke-opacity:0.5;stroke-miterlimit:10;" d="M 121.011719 2.333984 L 128.636719 2.333984 L 128.636719 -2.333984 L 121.011719 -2.333984 Z M 121.011719 2.333984 " transform="matrix(2,0,0,2,8,64)"/>
<path style=" stroke:none;fill-rule:nonzero;fill:rgb(0%,0%,0%);fill-opacity:1;" d="M 263.585938 61.113281 C 263.898438 61.113281 264.273438 61.113281 264.273438 60.738281 C 264.273438 60.332031 263.898438 60.332031 263.617188 60.332031 L 251.679688 60.332031 C 251.398438 60.332031 251.023438 60.332031 251.023438 60.738281 C 251.023438 61.113281 251.398438 61.113281 251.679688 61.113281 Z M 263.617188 64.988281 C 263.898438 64.988281 264.273438 64.988281 264.273438 64.582031 C 264.273438 64.207031 263.898438 64.207031 263.585938 64.207031 L 251.679688 64.207031 C 251.398438 64.207031 251.023438 64.207031 251.023438 64.582031 C 251.023438 64.988281 251.398438 64.988281 251.679688 64.988281 Z M 263.617188 64.988281 "/>
<path style="fill:none;stroke-width:0.566929;stroke-linecap:butt;stroke-linejoin:miter;stroke:rgb(100%,0%,0%);stroke-opacity:0.5;stroke-miterlimit:10;" d="M 168.320312 2.833984 L 173.990234 -2.833984 " transform="matrix(2,0,0,2,8,64)"/>
<path style="fill:none;stroke-width:0.566929;stroke-linecap:butt;stroke-linejoin:miter;stroke:rgb(100%,0%,0%);stroke-opacity:0.5;stroke-miterlimit:10;" d="M 173.990234 2.833984 L 168.320312 -2.833984 " transform="matrix(2,0,0,2,8,64)"/>
<path style="fill-rule:evenodd;fill:rgb(50%,50%,0%);fill-opacity:0.1;stroke-width:0.566929;stroke-linecap:butt;stroke-linejoin:miter;stroke:rgb(100%,0%,0%);stroke-opacity:0.5;stroke-miterlimit:10;" d="M 128.636719 28.345703 L 213.675781 28.345703 L 213.675781 -28.345703 L 128.636719 -28.345703 Z M 128.636719 28.345703 " transform="matrix(2,0,0,2,8,64)"/>
<path style="fill:none;stroke-width:0.566929;stroke-linecap:butt;stroke-linejoin:miter;stroke:rgb(100%,0%,0%);stroke-opacity:0.5;stroke-miterlimit:10;" d="M 125.800781 -25.511719 L 131.470703 -31.181641 " transform="matrix(2,0,0,2,8,64)"/>
<path style="fill:none;stroke-width:0.566929;stroke-linecap:butt;stroke-linejoin:miter;stroke:rgb(100%,0%,0%);stroke-opacity:0.5;stroke-miterlimit:10;" d="M 131.470703 -25.511719 L 125.800781 -31.181641 " transform="matrix(2,0,0,2,8,64)"/>
<path style="fill-rule:evenodd;fill:rgb(50%,50%,0%);fill-opacity:0.1;stroke-width:0.566929;stroke-linecap:butt;stroke-linejoin:miter;stroke:rgb(100%,0%,0%);stroke-opacity:0.5;stroke-miterlimit:10;" d="M 128.636719 28.345703 L 213.675781 28.345703 L 213.675781 -28.345703 L 128.636719 -28.345703 Z M 128.636719 28.345703 " transform="matrix(2,0,0,2,8,64)"/>
<path style="fill:none;stroke-width:0.566929;stroke-linecap:butt;stroke-linejoin:miter;stroke:rgb(100%,0%,0%);stroke-opacity:0.5;stroke-miterlimit:10;" d="M 125.800781 -11.474609 L 131.470703 -17.144531 " transform="matrix(2,0,0,2,8,64)"/>
<path style="fill:none;stroke-width:0.566929;stroke-linecap:butt;stroke-linejoin:miter;stroke:rgb(100%,0%,0%);stroke-opacity:0.5;stroke-miterlimit:10;" d="M 131.470703 -11.474609 L 125.800781 -17.144531 " transform="matrix(2,0,0,2,8,64)"/>
<path style="fill-rule:evenodd;fill:rgb(50%,50%,0%);fill-opacity:0.1;stroke-width:0.566929;stroke-linecap:butt;stroke-linejoin:miter;stroke:rgb(100%,0%,0%);stroke-opacity:0.5;stroke-miterlimit:10;" d="M 128.636719 0 L 213.675781 0 L 213.675781 -28.345703 L 128.636719 -28.345703 Z M 128.636719 0 " transform="matrix(2,0,0,2,8,64)"/>
<path style="fill:none;stroke-width:0.566929;stroke-linecap:butt;stroke-linejoin:miter;stroke:rgb(100%,0%,0%);stroke-opacity:0.5;stroke-miterlimit:10;" d="M 151.470703 -11.474609 L 157.140625 -17.144531 " transform="matrix(2,0,0,2,8,64)"/>
<path style="fill:none;stroke-width:0.566929;stroke-linecap:butt;stroke-linejoin:miter;stroke:rgb(100%,0%,0%);stroke-opacity:0.5;stroke-miterlimit:10;" d="M 157.140625 -11.474609 L 151.470703 -17.144531 " transform="matrix(2,0,0,2,8,64)"/>
<path style="fill-rule:evenodd;fill:rgb(50%,50%,0%);fill-opacity:0.1;stroke-width:0.566929;stroke-linecap:butt;stroke-linejoin:miter;stroke:rgb(100%,0%,0%);stroke-opacity:0.5;stroke-miterlimit:10;" d="M 128.636719 0 L 185.328125 0 L 185.328125 -28.345703 L 128.636719 -28.345703 Z M 128.636719 0 " transform="matrix(2,0,0,2,8,64)"/>
<path style="fill:none;stroke-width:0.566929;stroke-linecap:butt;stroke-linejoin:miter;stroke:rgb(0%,0%,0%);stroke-opacity:1;stroke-miterlimit:10;" d="M 171.15625 0.0292969 C 171.15625 -7.798828 164.810547 -14.144531 156.982422 -14.144531 C 149.154297 -14.144531 142.808594 -7.798828 142.808594 0.0292969 " transform="matrix(2,0,0,2,8,64)"/>
<path style="fill:none;stroke-width:0.566929;stroke-linecap:butt;stroke-linejoin:miter;stroke:rgb(100%,0%,0%);stroke-opacity:0.5;stroke-miterlimit:10;" d="M 196.464844 -11.474609 L 202.134766 -17.144531 " transform="matrix(2,0,0,2,8,64)"/>
<path style="fill:none;stroke-width:0.566929;stroke-linecap:butt;stroke-linejoin:miter;stroke:rgb(100%,0%,0%);stroke-opacity:0.5;stroke-miterlimit:10;" d="M 202.134766 -11.474609 L 196.464844 -17.144531 " transform="matrix(2,0,0,2,8,64)"/>
<path style="fill-rule:evenodd;fill:rgb(50%,50%,0%);fill-opacity:0.1;stroke-width:0.566929;stroke-linecap:butt;stroke-linejoin:miter;stroke:rgb(100%,0%,0%);stroke-opacity:0.5;stroke-miterlimit:10;" d="M 185.328125 0 L 213.675781 0 L 213.675781 -28.345703 L 185.328125 -28.345703 Z M 185.328125 0 " transform="matrix(2,0,0,2,8,64)"/>
<path style="fill:none;stroke-width:0.566929;stroke-linecap:butt;stroke-linejoin:miter;stroke:rgb(0%,0%,0%);stroke-opacity:1;stroke-miterlimit:10;" d="M 199.501953 -28.375 L 199.501953 0.0292969 " transform="matrix(2,0,0,2,8,64)"/>
<path style="fill:none;stroke-width:0.566929;stroke-linecap:butt;stroke-linejoin:miter;stroke:rgb(100%,0%,0%);stroke-opacity:0.5;stroke-miterlimit:10;" d="M 125.800781 17.257812 L 131.470703 11.587891 " transform="matrix(2,0,0,2,8,64)"/>
<path style="fill:none;stroke-width:0.566929;stroke-linecap:butt;stroke-linejoin:miter;stroke:rgb(100%,0%,0%);stroke-opacity:0.5;stroke-miterlimit:10;" d="M 131.470703 17.257812 L 125.800781 11.587891 " transform="matrix(2,0,0,2,8,64)"/>
<path style="fill-rule:evenodd;fill:rgb(50%,50%,0%);fill-opacity:0.1;stroke-width:0.566929;stroke-linecap:butt;stroke-linejoin:miter;stroke:rgb(100%,0%,0%);stroke-opacity:0.5;stroke-miterlimit:10;" d="M 128.636719 28.345703 L 213.675781 28.345703 L 213.675781 0 L 128.636719 0 Z M 128.636719 28.345703 " transform="matrix(2,0,0,2,8,64)"/>
<path style="fill:none;stroke-width:0.566929;stroke-linecap:butt;stroke-linejoin:miter;stroke:rgb(100%,0%,0%);stroke-opacity:0.5;stroke-miterlimit:10;" d="M 139.242188 17.257812 L 144.912109 11.587891 " transform="matrix(2,0,0,2,8,64)"/>
<path style="fill:none;stroke-width:0.566929;stroke-linecap:butt;stroke-linejoin:miter;stroke:rgb(100%,0%,0%);stroke-opacity:0.5;stroke-miterlimit:10;" d="M 144.912109 17.257812 L 139.242188 11.587891 " transform="matrix(2,0,0,2,8,64)"/>
<path style="fill-rule:evenodd;fill:rgb(50%,50%,0%);fill-opacity:0.1;stroke-width:0.566929;stroke-linecap:butt;stroke-linejoin:miter;stroke:rgb(100%,0%,0%);stroke-opacity:0.5;stroke-miterlimit:10;" d="M 128.636719 28.345703 L 156.982422 28.345703 L 156.982422 0 L 128.636719 0 Z M 128.636719 28.345703 " transform="matrix(2,0,0,2,8,64)"/>
<path style="fill:none;stroke-width:0.566929;stroke-linecap:butt;stroke-linejoin:miter;stroke:rgb(0%,0%,0%);stroke-opacity:1;stroke-miterlimit:10;" d="M 142.808594 -0.0292969 L 142.808594 28.375 " transform="matrix(2,0,0,2,8,64)"/>
<path style="fill:none;stroke-width:0.566929;stroke-linecap:butt;stroke-linejoin:miter;stroke:rgb(100%,0%,0%);stroke-opacity:0.5;stroke-miterlimit:10;" d="M 181.162109 17.257812 L 186.832031 11.587891 " transform="matrix(2,0,0,2,8,64)"/>
<path style="fill:none;stroke-width:0.566929;stroke-linecap:butt;stroke-linejoin:miter;stroke:rgb(100%,0%,0%);stroke-opacity:0.5;stroke-miterlimit:10;" d="M 186.832031 17.257812 L 181.162109 11.587891 " transform="matrix(2,0,0,2,8,64)"/>
<path style="fill-rule:evenodd;fill:rgb(50%,50%,0%);fill-opacity:0.1;stroke-width:0.566929;stroke-linecap:butt;stroke-linejoin:miter;stroke:rgb(100%,0%,0%);stroke-opacity:0.5;stroke-miterlimit:10;" d="M 156.982422 28.345703 L 213.675781 28.345703 L 213.675781 0 L 156.982422 0 Z M 156.982422 28.345703 " transform="matrix(2,0,0,2,8,64)"/>
<path style="fill:none;stroke-width:0.566929;stroke-linecap:butt;stroke-linejoin:miter;stroke:rgb(0%,0%,0%);stroke-opacity:1;stroke-miterlimit:10;" d="M 171.15625 -0.0292969 C 171.15625 7.798828 177.501953 14.144531 185.328125 14.144531 C 193.15625 14.144531 199.501953 7.798828 199.501953 -0.0292969 " transform="matrix(2,0,0,2,8,64)"/>
</g>
</svg>
