<?xml version="1.0" encoding="UTF-8"?>
<svg xmlns="http://www.w3.org/2000/svg" xmlns:xlink="http://www.w3.org/1999/xlink" width="352pt" height="452pt" viewBox="0 0 352 452" version="1.1">
<g id="surface571">
<path style="fill-rule:evenodd;fill:rgb(90%,90%,60%);fill-opacity:1;stroke-width:0.801759;stroke-linecap:butt;stroke-linejoin:miter;stroke:rgb(0%,0%,0%);stroke-opacity:1;stroke-miterlimit:10;" d="M 89.291016 142.865234 L 178.582031 142.865234 L 178.582031 89.291016 L 89.291016 89.291016 Z M 89.291016 142.865234 " transform="matrix(2,0,0,2,-6,-6)"/>
<path style="fill:none;stroke-width:3.207035;stroke-linecap:butt;stroke-linejoin:miter;stroke:rgb(0%,0%,0%);stroke-opacity:1;stroke-miterlimit:10;" d="M 173.621094 89.320312 C 173.621094 42.746094 135.865234 4.988281 89.291016 4.988281 C 42.716797 4.988281 4.960938 42.746094 4.960938 89.320312 " transform="matrix(2,0,0,2,-6,-6)"/>
<path style="fill:none;stroke-width:3.207035;stroke-linecap:butt;stroke-linejoin:miter;stroke:rgb(0%,0%,0%);stroke-opacity:1;stroke-miterlimit:10;" d="M 163.701172 89.320312 C 163.701172 48.224609 130.386719 14.910156 89.291016 14.910156 C 48.195312 14.910156 14.882812 48.224609 14.882812 89.320312 " transform="matrix(2,0,0,2,-6,-6)"/>
<path style="fill:none;stroke-width:3.207035;stroke-linecap:butt;stroke-linejoin:miter;stroke:rgb(0%,0%,0%);stroke-opacity:1;stroke-miterlimit:10;" d="M 153.779297 89.320312 C 153.779297 53.703125 124.90625 24.832031 89.291016 24.832031 C 53.675781 24.832031 24.802734 53.703125 24.802734 89.320312 " transform="matrix(2,0,0,2,-6,-6)"/>
<path style="fill:none;stroke-width:3.207035;stroke-linecap:butt;stroke-linejoin:miter;stroke:rgb(0%,0%,0%);stroke-opacity:1;stroke-miterlimit:10;" d="M 143.857422 89.320312 C 143.857422 59.183594 119.427734 34.751953 89.291016 34.751953 C 59.154297 34.751953 34.724609 59.183594 34.724609 89.320312 " transform="matrix(2,0,0,2,-6,-6)"/>
<path style="fill:none;stroke-width:3.207035;stroke-linecap:butt;stroke-linejoin:miter;stroke:rgb(0%,0%,0%);stroke-opacity:1;stroke-miterlimit:10;" d="M 133.9375 89.320312 C 133.9375 64.662109 113.949219 44.673828 89.291016 44.673828 C 64.634766 44.673828 44.646484 64.662109 44.646484 89.320312 " transform="matrix(2,0,0,2,-6,-6)"/>
<path style="fill:none;stroke-width:3.207035;stroke-linecap:butt;stroke-linejoin:miter;stroke:rgb(0%,0%,0%);stroke-opacity:1;stroke-miterlimit:10;" d="M 124.015625 89.320312 C 124.015625 70.142578 108.46875 54.595703 89.291016 54.595703 C 70.113281 54.595703 54.566406 70.142578 54.566406 89.320312 " transform="matrix(2,0,0,2,-6,-6)"/>
<path style="fill:none;stroke-width:3.207035;stroke-linecap:butt;stroke-linejoin:miter;stroke:rgb(0%,0%,0%);stroke-opacity:1;stroke-miterlimit:10;" d="M 114.09375 89.320312 C 114.09375 75.621094 102.990234 64.515625 89.291016 64.515625 C 75.59375 64.515625 64.488281 75.621094 64.488281 89.320312 " transform="matrix(2,0,0,2,-6,-6)"/>
<path style="fill:none;stroke-width:3.207035;stroke-linecap:butt;stroke-linejoin:miter;stroke:rgb(0%,0%,0%);stroke-opacity:1;stroke-miterlimit:10;" d="M 104.173828 89.320312 C 104.173828 81.101562 97.509766 74.4375 89.291016 74.4375 C 81.072266 74.4375 74.410156 81.101562 74.410156 89.320312 " transform="matrix(2,0,0,2,-6,-6)"/>
<path style="fill:none;stroke-width:3.207035;stroke-linecap:butt;stroke-linejoin:miter;stroke:rgb(0%,0%,0%);stroke-opacity:1;stroke-miterlimit:10;" d="M 94.251953 89.320312 C 94.251953 86.580078 92.03125 84.359375 89.291016 84.359375 C 86.550781 84.359375 84.330078 86.580078 84.330078 89.320312 " transform="matrix(2,0,0,2,-6,-6)"/>
<path style="fill:none;stroke-width:3.207035;stroke-linecap:butt;stroke-linejoin:miter;stroke:rgb(0%,0%,0%);stroke-opacity:1;stroke-miterlimit:10;" d="M 4.960938 89.263672 L 4.960938 142.894531 " transform="matrix(2,0,0,2,-6,-6)"/>
<path style="fill:none;stroke-width:3.207035;stroke-linecap:butt;stroke-linejoin:miter;stroke:rgb(0%,0%,0%);stroke-opacity:1;stroke-miterlimit:10;" d="M 14.882812 89.263672 L 14.882812 142.894531 " transform="matrix(2,0,0,2,-6,-6)"/>
<path style="fill:none;stroke-width:3.207035;stroke-linecap:butt;stroke-linejoin:miter;stroke:rgb(0%,0%,0%);stroke-opacity:1;stroke-miterlimit:10;" d="M 24.802734 89.263672 L 24.802734 142.894531 " transform="matrix(2,0,0,2,-6,-6)"/>
<path style="fill:none;stroke-width:3.207035;stroke-linecap:butt;stroke-linejoin:miter;stroke:rgb(0%,0%,0%);stroke-opacity:1;stroke-miterlimit:10;" d="M 34.724609 89.263672 L 34.724609 142.894531 " transform="matrix(2,0,0,2,-6,-6)"/>
<path style="fill:none;stroke-width:3.207035;stroke-linecap:butt;stroke-linejoin:miter;stroke:rgb(0%,0%,0%);stroke-opacity:1;stroke-miterlimit:10;" d="M 44.646484 89.263672 L 44.646484 142.894531 " transform="matrix(2,0,0,2,-6,-6)"/>
<path style="fill:none;stroke-width:3.207035;stroke-linecap:butt;stroke-linejoin:miter;stroke:rgb(0%,0%,0%);stroke-opacity:1;stroke-miterlimit:10;" d="M 54.566406 89.263672 L 54.566406 142.894531 " transform="matrix(2,0,0,2,-6,-6)"/>
<path style="fill:none;stroke-width:3.207035;stroke-linecap:butt;stroke-linejoin:miter;stroke:rgb(0%,0%,0%);stroke-opacity:1;stroke-miterlimit:10;" d="M 64.488281 89.263672 L 64.488281 142.894531 " transform="matrix(2,0,0,2,-6,-6)"/>
<path style="fill:none;stroke-width:3.207035;stroke-linecap:butt;stroke-linejoin:miter;stroke:rgb(0%,0%,0%);stroke-opacity:1;stroke-miterlimit:10;" d="M 74.410156 89.263672 L 74.410156 142.894531 " transform="matrix(2,0,0,2,-6,-6)"/>
<path style="fill:none;stroke-width:3.207035;stroke-linecap:butt;stroke-linejoin:miter;stroke:rgb(0%,0%,0%);stroke-opacity:1;stroke-miterlimit:10;" d="M 84.330078 89.263672 L 84.330078 142.894531 " transform="matrix(2,0,0,2,-6,-6)"/>
<path style="fill:none;stroke-width:3.207035;stroke-linecap:butt;stroke-linejoin:miter;stroke:rgb(0%,0%,0%);stroke-opacity:1;stroke-miterlimit:10;" d="M 94.251953 89.263672 L 94.251953 107.177734 " transform="matrix(2,0,0,2,-6,-6)"/>
<path style="fill:none;stroke-width:3.207035;stroke-linecap:butt;stroke-linejoin:miter;stroke:rgb(0%,0%,0%);stroke-opacity:1;stroke-miterlimit:10;" d="M 104.173828 107.177734 C 104.173828 102.699219 106.654297 100.458984 107.894531 99.339844 " transform="matrix(2,0,0,2,-6,-6)"/>
<path style="fill:none;stroke-width:3.207035;stroke-linecap:butt;stroke-linejoin:miter;stroke:rgb(0%,0%,0%);stroke-opacity:1;stroke-miterlimit:10;" d="M 110.373047 97.101562 C 111.613281 95.980469 114.09375 93.742188 114.09375 89.263672 " transform="matrix(2,0,0,2,-6,-6)"/>
<path style="fill:none;stroke-width:3.207035;stroke-linecap:butt;stroke-linejoin:miter;stroke:rgb(0%,0%,0%);stroke-opacity:1;stroke-miterlimit:10;" d="M 114.09375 107.177734 C 114.09375 98.220703 104.173828 98.220703 104.173828 89.263672 " transform="matrix(2,0,0,2,-6,-6)"/>
<path style="fill:none;stroke-width:3.207035;stroke-linecap:butt;stroke-linejoin:miter;stroke:rgb(0%,0%,0%);stroke-opacity:1;stroke-miterlimit:10;" d="M 124.015625 107.177734 C 124.015625 98.220703 133.9375 98.220703 133.9375 89.263672 " transform="matrix(2,0,0,2,-6,-6)"/>
<path style="fill:none;stroke-width:3.207035;stroke-linecap:butt;stroke-linejoin:miter;stroke:rgb(0%,0%,0%);stroke-opacity:1;stroke-miterlimit:10;" d="M 133.9375 107.177734 C 133.9375 102.699219 131.457031 100.458984 130.216797 99.339844 " transform="matrix(2,0,0,2,-6,-6)"/>
<path style="fill:none;stroke-width:3.207035;stroke-linecap:butt;stroke-linejoin:miter;stroke:rgb(0%,0%,0%);stroke-opacity:1;stroke-miterlimit:10;" d="M 127.736328 97.101562 C 126.496094 95.980469 124.015625 93.742188 124.015625 89.263672 " transform="matrix(2,0,0,2,-6,-6)"/>
<path style="fill:none;stroke-width:3.207035;stroke-linecap:butt;stroke-linejoin:miter;stroke:rgb(0%,0%,0%);stroke-opacity:1;stroke-miterlimit:10;" d="M 143.857422 89.263672 L 143.857422 107.177734 " transform="matrix(2,0,0,2,-6,-6)"/>
<path style="fill:none;stroke-width:3.207035;stroke-linecap:butt;stroke-linejoin:miter;stroke:rgb(0%,0%,0%);stroke-opacity:1;stroke-miterlimit:10;" d="M 153.779297 89.263672 L 153.779297 107.177734 " transform="matrix(2,0,0,2,-6,-6)"/>
<path style="fill:none;stroke-width:3.207035;stroke-linecap:butt;stroke-linejoin:miter;stroke:rgb(0%,0%,0%);stroke-opacity:1;stroke-miterlimit:10;" d="M 163.701172 107.177734 C 163.701172 98.220703 173.621094 98.220703 173.621094 89.263672 " transform="matrix(2,0,0,2,-6,-6)"/>
<path style="fill:none;stroke-width:3.207035;stroke-linecap:butt;stroke-linejoin:miter;stroke:rgb(0%,0%,0%);stroke-opacity:1;stroke-miterlimit:10;" d="M 173.621094 107.177734 C 173.621094 102.699219 171.142578 100.458984 169.902344 99.339844 " transform="matrix(2,0,0,2,-6,-6)"/>
<path style="fill:none;stroke-width:3.207035;stroke-linecap:butt;stroke-linejoin:miter;stroke:rgb(0%,0%,0%);stroke-opacity:1;stroke-miterlimit:10;" d="M 167.421875 97.101562 C 166.181641 95.980469 163.701172 93.742188 163.701172 89.263672 " transform="matrix(2,0,0,2,-6,-6)"/>
<path style="fill:none;stroke-width:3.207035;stroke-linecap:butt;stroke-linejoin:miter;stroke:rgb(0%,0%,0%);stroke-opacity:1;stroke-miterlimit:10;" d="M 94.251953 125.037109 C 94.251953 116.078125 104.173828 116.078125 104.173828 107.121094 " transform="matrix(2,0,0,2,-6,-6)"/>
<path style="fill:none;stroke-width:3.207035;stroke-linecap:butt;stroke-linejoin:miter;stroke:rgb(0%,0%,0%);stroke-opacity:1;stroke-miterlimit:10;" d="M 104.173828 125.037109 C 104.173828 120.556641 101.693359 118.318359 100.453125 117.199219 " transform="matrix(2,0,0,2,-6,-6)"/>
<path style="fill:none;stroke-width:3.207035;stroke-linecap:butt;stroke-linejoin:miter;stroke:rgb(0%,0%,0%);stroke-opacity:1;stroke-miterlimit:10;" d="M 97.972656 114.958984 C 96.732422 113.839844 94.251953 111.599609 94.251953 107.121094 " transform="matrix(2,0,0,2,-6,-6)"/>
<path style="fill:none;stroke-width:3.207035;stroke-linecap:butt;stroke-linejoin:miter;stroke:rgb(0%,0%,0%);stroke-opacity:1;stroke-miterlimit:10;" d="M 114.09375 107.121094 L 114.09375 125.037109 " transform="matrix(2,0,0,2,-6,-6)"/>
<path style="fill:none;stroke-width:3.207035;stroke-linecap:butt;stroke-linejoin:miter;stroke:rgb(0%,0%,0%);stroke-opacity:1;stroke-miterlimit:10;" d="M 124.015625 125.037109 C 124.015625 120.556641 126.496094 118.318359 127.736328 117.199219 " transform="matrix(2,0,0,2,-6,-6)"/>
<path style="fill:none;stroke-width:3.207035;stroke-linecap:butt;stroke-linejoin:miter;stroke:rgb(0%,0%,0%);stroke-opacity:1;stroke-miterlimit:10;" d="M 130.216797 114.958984 C 131.457031 113.839844 133.9375 111.599609 133.9375 107.121094 " transform="matrix(2,0,0,2,-6,-6)"/>
<path style="fill:none;stroke-width:3.207035;stroke-linecap:butt;stroke-linejoin:miter;stroke:rgb(0%,0%,0%);stroke-opacity:1;stroke-miterlimit:10;" d="M 133.9375 125.037109 C 133.9375 116.078125 124.015625 116.078125 124.015625 107.121094 " transform="matrix(2,0,0,2,-6,-6)"/>
<path style="fill:none;stroke-width:3.207035;stroke-linecap:butt;stroke-linejoin:miter;stroke:rgb(0%,0%,0%);stroke-opacity:1;stroke-miterlimit:10;" d="M 143.857422 107.121094 L 143.857422 125.037109 " transform="matrix(2,0,0,2,-6,-6)"/>
<path style="fill:none;stroke-width:3.207035;stroke-linecap:butt;stroke-linejoin:miter;stroke:rgb(0%,0%,0%);stroke-opacity:1;stroke-miterlimit:10;" d="M 153.779297 107.121094 L 153.779297 125.037109 " transform="matrix(2,0,0,2,-6,-6)"/>
<path style="fill:none;stroke-width:3.207035;stroke-linecap:butt;stroke-linejoin:miter;stroke:rgb(0%,0%,0%);stroke-opacity:1;stroke-miterlimit:10;" d="M 163.701172 125.037109 C 163.701172 116.078125 173.621094 116.078125 173.621094 107.121094 " transform="matrix(2,0,0,2,-6,-6)"/>
<path style="fill:none;stroke-width:3.207035;stroke-linecap:butt;stroke-linejoin:miter;stroke:rgb(0%,0%,0%);stroke-opacity:1;stroke-miterlimit:10;" d="M 173.621094 125.037109 C 173.621094 120.556641 171.142578 118.318359 169.902344 117.199219 " transform="matrix(2,0,0,2,-6,-6)"/>
<path style="fill:none;stroke-width:3.207035;stroke-linecap:butt;stroke-linejoin:miter;stroke:rgb(0%,0%,0%);stroke-opacity:1;stroke-miterlimit:10;" d="M 167.421875 114.958984 C 166.181641 113.839844 163.701172 111.599609 163.701172 107.121094 " transform="matrix(2,0,0,2,-6,-6)"/>
<path style="fill:none;stroke-width:3.207035;stroke-linecap:butt;stroke-linejoin:miter;stroke:rgb(0%,0%,0%);stroke-opacity:1;stroke-miterlimit:10;" d="M 94.251953 142.894531 C 94.251953 138.416016 96.732422 136.175781 97.972656 135.056641 " transform="matrix(2,0,0,2,-6,-6)"/>
<path style="fill:none;stroke-width:3.207035;stroke-linecap:butt;stroke-linejoin:miter;stroke:rgb(0%,0%,0%);stroke-opacity:1;stroke-miterlimit:10;" d="M 100.453125 132.816406 C 101.693359 131.697266 104.173828 129.458984 104.173828 124.980469 " transform="matrix(2,0,0,2,-6,-6)"/>
<path style="fill:none;stroke-width:3.207035;stroke-linecap:butt;stroke-linejoin:miter;stroke:rgb(0%,0%,0%);stroke-opacity:1;stroke-miterlimit:10;" d="M 104.173828 142.894531 C 104.173828 133.9375 94.251953 133.9375 94.251953 124.980469 " transform="matrix(2,0,0,2,-6,-6)"/>
<path style="fill:none;stroke-width:3.207035;stroke-linecap:butt;stroke-linejoin:miter;stroke:rgb(0%,0%,0%);stroke-opacity:1;stroke-miterlimit:10;" d="M 114.09375 124.980469 L 114.09375 142.894531 " transform="matrix(2,0,0,2,-6,-6)"/>
<path style="fill:none;stroke-width:3.207035;stroke-linecap:butt;stroke-linejoin:miter;stroke:rgb(0%,0%,0%);stroke-opacity:1;stroke-miterlimit:10;" d="M 124.015625 124.980469 L 124.015625 142.894531 " transform="matrix(2,0,0,2,-6,-6)"/>
<path style="fill:none;stroke-width:3.207035;stroke-linecap:butt;stroke-linejoin:miter;stroke:rgb(0%,0%,0%);stroke-opacity:1;stroke-miterlimit:10;" d="M 133.9375 142.894531 C 133.9375 133.9375 143.857422 133.9375 143.857422 124.980469 " transform="matrix(2,0,0,2,-6,-6)"/>
<path style="fill:none;stroke-width:3.207035;stroke-linecap:butt;stroke-linejoin:miter;stroke:rgb(0%,0%,0%);stroke-opacity:1;stroke-miterlimit:10;" d="M 143.857422 142.894531 C 143.857422 138.416016 141.378906 136.175781 140.138672 135.056641 " transform="matrix(2,0,0,2,-6,-6)"/>
<path style="fill:none;stroke-width:3.207035;stroke-linecap:butt;stroke-linejoin:miter;stroke:rgb(0%,0%,0%);stroke-opacity:1;stroke-miterlimit:10;" d="M 137.658203 132.816406 C 136.417969 131.697266 133.9375 129.458984 133.9375 124.980469 " transform="matrix(2,0,0,2,-6,-6)"/>
<path style="fill:none;stroke-width:3.207035;stroke-linecap:butt;stroke-linejoin:miter;stroke:rgb(0%,0%,0%);stroke-opacity:1;stroke-miterlimit:10;" d="M 153.779297 142.894531 C 153.779297 138.416016 156.259766 136.175781 157.5 135.056641 " transform="matrix(2,0,0,2,-6,-6)"/>
<path style="fill:none;stroke-width:3.207035;stroke-linecap:butt;stroke-linejoin:miter;stroke:rgb(0%,0%,0%);stroke-opacity:1;stroke-miterlimit:10;" d="M 159.980469 132.816406 C 161.220703 131.697266 163.701172 129.458984 163.701172 124.980469 " transform="matrix(2,0,0,2,-6,-6)"/>
<path style="fill:none;stroke-width:3.207035;stroke-linecap:butt;stroke-linejoin:miter;stroke:rgb(0%,0%,0%);stroke-opacity:1;stroke-miterlimit:10;" d="M 163.701172 142.894531 C 163.701172 133.9375 153.779297 133.9375 153.779297 124.980469 " transform="matrix(2,0,0,2,-6,-6)"/>
<path style="fill:none;stroke-width:3.207035;stroke-linecap:butt;stroke-linejoin:miter;stroke:rgb(0%,0%,0%);stroke-opacity:1;stroke-miterlimit:10;" d="M 173.621094 124.980469 L 173.621094 142.894531 " transform="matrix(2,0,0,2,-6,-6)"/>
<path style="fill:none;stroke-width:3.207035;stroke-linecap:butt;stroke-linejoin:miter;stroke:rgb(0%,0%,0%);stroke-opacity:1;stroke-miterlimit:10;" d="M 4.960938 142.837891 C 4.960938 189.412109 42.716797 227.167969 89.291016 227.167969 C 135.865234 227.167969 173.621094 189.412109 173.621094 142.837891 " transform="matrix(2,0,0,2,-6,-6)"/>
<path style="fill:none;stroke-width:3.207035;stroke-linecap:butt;stroke-linejoin:miter;stroke:rgb(0%,0%,0%);stroke-opacity:1;stroke-miterlimit:10;" d="M 14.882812 142.837891 C 14.882812 183.933594 48.195312 217.248047 89.291016 217.248047 C 130.386719 217.248047 163.701172 183.933594 163.701172 142.837891 " transform="matrix(2,0,0,2,-6,-6)"/>
<path style="fill:none;stroke-width:3.207035;stroke-linecap:butt;stroke-linejoin:miter;stroke:rgb(0%,0%,0%);stroke-opacity:1;stroke-miterlimit:10;" d="M 24.802734 142.837891 C 24.802734 178.453125 53.675781 207.326172 89.291016 207.326172 C 124.90625 207.326172 153.779297 178.453125 153.779297 142.837891 " transform="matrix(2,0,0,2,-6,-6)"/>
<path style="fill:none;stroke-width:3.207035;stroke-linecap:butt;stroke-linejoin:miter;stroke:rgb(0%,0%,0%);stroke-opacity:1;stroke-miterlimit:10;" d="M 34.724609 142.837891 C 34.724609 172.974609 59.154297 197.404297 89.291016 197.404297 C 119.427734 197.404297 143.857422 172.974609 143.857422 142.837891 " transform="matrix(2,0,0,2,-6,-6)"/>
<path style="fill:none;stroke-width:3.207035;stroke-linecap:butt;stroke-linejoin:miter;stroke:rgb(0%,0%,0%);stroke-opacity:1;stroke-miterlimit:10;" d="M 44.646484 142.837891 C 44.646484 167.494141 64.634766 187.484375 89.291016 187.484375 C 113.949219 187.484375 133.9375 167.494141 133.9375 142.837891 " transform="matrix(2,0,0,2,-6,-6)"/>
<path style="fill:none;stroke-width:3.207035;stroke-linecap:butt;stroke-linejoin:miter;stroke:rgb(0%,0%,0%);stroke-opacity:1;stroke-miterlimit:10;" d="M 54.566406 142.837891 C 54.566406 162.015625 70.113281 177.5625 89.291016 177.5625 C 108.46875 177.5625 124.015625 162.015625 124.015625 142.837891 " transform="matrix(2,0,0,2,-6,-6)"/>
<path style="fill:none;stroke-width:3.207035;stroke-linecap:butt;stroke-linejoin:miter;stroke:rgb(0%,0%,0%);stroke-opacity:1;stroke-miterlimit:10;" d="M 64.488281 142.837891 C 64.488281 156.537109 75.59375 167.640625 89.291016 167.640625 C 102.990234 167.640625 114.09375 156.537109 114.09375 142.837891 " transform="matrix(2,0,0,2,-6,-6)"/>
<path style="fill:none;stroke-width:3.207035;stroke-linecap:butt;stroke-linejoin:miter;stroke:rgb(0%,0%,0%);stroke-opacity:1;stroke-miterlimit:10;" d="M 74.410156 142.837891 C 74.410156 151.056641 81.072266 157.71875 89.291016 157.71875 C 97.509766 157.71875 104.173828 151.056641 104.173828 142.837891 " transform="matrix(2,0,0,2,-6,-6)"/>
<path style="fill:none;stroke-width:3.207035;stroke-linecap:butt;stroke-linejoin:miter;stroke:rgb(0%,0%,0%);stroke-opacity:1;stroke-miterlimit:10;" d="M 84.330078 142.837891 C 84.330078 145.578125 86.550781 147.798828 89.291016 147.798828 C 92.03125 147.798828 94.251953 145.578125 94.251953 142.837891 " transform="matrix(2,0,0,2,-6,-6)"/>
<path style="fill:none;stroke-width:0.801759;stroke-linecap:butt;stroke-linejoin:miter;stroke:rgb(90%,0%,0%);stroke-opacity:1;stroke-miterlimit:10;" d="M 173.621094 89.320312 C 173.621094 42.746094 135.865234 4.988281 89.291016 4.988281 C 42.716797 4.988281 4.960938 42.746094 4.960938 89.320312 " transform="matrix(2,0,0,2,-6,-6)"/>
<path style="fill:none;stroke-width:0.801759;stroke-linecap:butt;stroke-linejoin:miter;stroke:rgb(90%,0%,0%);stroke-opacity:1;stroke-miterlimit:10;" d="M 163.701172 89.320312 C 163.701172 48.224609 130.386719 14.910156 89.291016 14.910156 C 48.195312 14.910156 14.882812 48.224609 14.882812 89.320312 " transform="matrix(2,0,0,2,-6,-6)"/>
<path style="fill:none;stroke-width:0.801759;stroke-linecap:butt;stroke-linejoin:miter;stroke:rgb(90%,0%,0%);stroke-opacity:1;stroke-miterlimit:10;" d="M 153.779297 89.320312 C 153.779297 53.703125 124.90625 24.832031 89.291016 24.832031 C 53.675781 24.832031 24.802734 53.703125 24.802734 89.320312 " transform="matrix(2,0,0,2,-6,-6)"/>
<path style="fill:none;stroke-width:0.801759;stroke-linecap:butt;stroke-linejoin:miter;stroke:rgb(90%,0%,0%);stroke-opacity:1;stroke-miterlimit:10;" d="M 143.857422 89.320312 C 143.857422 59.183594 119.427734 34.751953 89.291016 34.751953 C 59.154297 34.751953 34.724609 59.183594 34.724609 89.320312 " transform="matrix(2,0,0,2,-6,-6)"/>
<path style="fill:none;stroke-width:0.801759;stroke-linecap:butt;stroke-linejoin:miter;stroke:rgb(90%,0%,0%);stroke-opacity:1;stroke-miterlimit:10;" d="M 133.9375 89.320312 C 133.9375 64.662109 113.949219 44.673828 89.291016 44.673828 C 64.634766 44.673828 44.646484 64.662109 44.646484 89.320312 " transform="matrix(2,0,0,2,-6,-6)"/>
<path style="fill:none;stroke-width:0.801759;stroke-linecap:butt;stroke-linejoin:miter;stroke:rgb(90%,0%,0%);stroke-opacity:1;stroke-miterlimit:10;" d="M 124.015625 89.320312 C 124.015625 70.142578 108.46875 54.595703 89.291016 54.595703 C 70.113281 54.595703 54.566406 70.142578 54.566406 89.320312 " transform="matrix(2,0,0,2,-6,-6)"/>
<path style="fill:none;stroke-width:0.801759;stroke-linecap:butt;stroke-linejoin:miter;stroke:rgb(90%,0%,0%);stroke-opacity:1;stroke-miterlimit:10;" d="M 114.09375 89.320312 C 114.09375 75.621094 102.990234 64.515625 89.291016 64.515625 C 75.59375 64.515625 64.488281 75.621094 64.488281 89.320312 " transform="matrix(2,0,0,2,-6,-6)"/>
<path style="fill:none;stroke-width:0.801759;stroke-linecap:butt;stroke-linejoin:miter;stroke:rgb(90%,0%,0%);stroke-opacity:1;stroke-miterlimit:10;" d="M 104.173828 89.320312 C 104.173828 81.101562 97.509766 74.4375 89.291016 74.4375 C 81.072266 74.4375 74.410156 81.101562 74.410156 89.320312 " transform="matrix(2,0,0,2,-6,-6)"/>
<path style="fill:none;stroke-width:0.801759;stroke-linecap:butt;stroke-linejoin:miter;stroke:rgb(90%,0%,0%);stroke-opacity:1;stroke-miterlimit:10;" d="M 94.251953 89.320312 C 94.251953 86.580078 92.03125 84.359375 89.291016 84.359375 C 86.550781 84.359375 84.330078 86.580078 84.330078 89.320312 " transform="matrix(2,0,0,2,-6,-6)"/>
<path style="fill:none;stroke-width:0.801759;stroke-linecap:butt;stroke-linejoin:miter;stroke:rgb(90%,0%,0%);stroke-opacity:1;stroke-miterlimit:10;" d="M 4.960938 89.263672 L 4.960938 142.894531 " transform="matrix(2,0,0,2,-6,-6)"/>
<path style="fill:none;stroke-width:0.801759;stroke-linecap:butt;stroke-linejoin:miter;stroke:rgb(90%,0%,0%);stroke-opacity:1;stroke-miterlimit:10;" d="M 14.882812 89.263672 L 14.882812 142.894531 " transform="matrix(2,0,0,2,-6,-6)"/>
<path style="fill:none;stroke-width:0.801759;stroke-linecap:butt;stroke-linejoin:miter;stroke:rgb(90%,0%,0%);stroke-opacity:1;stroke-miterlimit:10;" d="M 24.802734 89.263672 L 24.802734 142.894531 " transform="matrix(2,0,0,2,-6,-6)"/>
<path style="fill:none;stroke-width:0.801759;stroke-linecap:butt;stroke-linejoin:miter;stroke:rgb(90%,0%,0%);stroke-opacity:1;stroke-miterlimit:10;" d="M 34.724609 89.263672 L 34.724609 142.894531 " transform="matrix(2,0,0,2,-6,-6)"/>
<path style="fill:none;stroke-width:0.801759;stroke-linecap:butt;stroke-linejoin:miter;stroke:rgb(90%,0%,0%);stroke-opacity:1;stroke-miterlimit:10;" d="M 44.646484 89.263672 L 44.646484 142.894531 " transform="matrix(2,0,0,2,-6,-6)"/>
<path style="fill:none;stroke-width:0.801759;stroke-linecap:butt;stroke-linejoin:miter;stroke:rgb(90%,0%,0%);stroke-opacity:1;stroke-miterlimit:10;" d="M 54.566406 89.263672 L 54.566406 142.894531 " transform="matrix(2,0,0,2,-6,-6)"/>
<path style="fill:none;stroke-width:0.801759;stroke-linecap:butt;stroke-linejoin:miter;stroke:rgb(90%,0%,0%);stroke-opacity:1;stroke-miterlimit:10;" d="M 64.488281 89.263672 L 64.488281 142.894531 " transform="matrix(2,0,0,2,-6,-6)"/>
<path style="fill:none;stroke-width:0.801759;stroke-linecap:butt;stroke-linejoin:miter;stroke:rgb(90%,0%,0%);stroke-opacity:1;stroke-miterlimit:10;" d="M 74.410156 89.263672 L 74.410156 142.894531 " transform="matrix(2,0,0,2,-6,-6)"/>
<path style="fill:none;stroke-width:0.801759;stroke-linecap:butt;stroke-linejoin:miter;stroke:rgb(90%,0%,0%);stroke-opacity:1;stroke-miterlimit:10;" d="M 84.330078 89.263672 L 84.330078 142.894531 " transform="matrix(2,0,0,2,-6,-6)"/>
<path style="fill:none;stroke-width:0.801759;stroke-linecap:butt;stroke-linejoin:miter;stroke:rgb(90%,0%,0%);stroke-opacity:1;stroke-miterlimit:10;" d="M 94.251953 89.263672 L 94.251953 107.177734 " transform="matrix(2,0,0,2,-6,-6)"/>
<path style="fill:none;stroke-width:0.801759;stroke-linecap:butt;stroke-linejoin:miter;stroke:rgb(90%,0%,0%);stroke-opacity:1;stroke-miterlimit:10;" d="M 104.173828 107.177734 C 104.173828 102.699219 106.654297 100.458984 107.894531 99.339844 " transform="matrix(2,0,0,2,-6,-6)"/>
<path style="fill:none;stroke-width:0.801759;stroke-linecap:butt;stroke-linejoin:miter;stroke:rgb(90%,0%,0%);stroke-opacity:1;stroke-miterlimit:10;" d="M 110.373047 97.101562 C 111.613281 95.980469 114.09375 93.742188 114.09375 89.263672 " transform="matrix(2,0,0,2,-6,-6)"/>
<path style="fill:none;stroke-width:0.801759;stroke-linecap:butt;stroke-linejoin:miter;stroke:rgb(90%,0%,0%);stroke-opacity:1;stroke-miterlimit:10;" d="M 114.09375 107.177734 C 114.09375 98.220703 104.173828 98.220703 104.173828 89.263672 " transform="matrix(2,0,0,2,-6,-6)"/>
<path style="fill:none;stroke-width:0.801759;stroke-linecap:butt;stroke-linejoin:miter;stroke:rgb(90%,0%,0%);stroke-opacity:1;stroke-miterlimit:10;" d="M 124.015625 107.177734 C 124.015625 98.220703 133.9375 98.220703 133.9375 89.263672 " transform="matrix(2,0,0,2,-6,-6)"/>
<path style="fill:none;stroke-width:0.801759;stroke-linecap:butt;stroke-linejoin:miter;stroke:rgb(90%,0%,0%);stroke-opacity:1;stroke-miterlimit:10;" d="M 133.9375 107.177734 C 133.9375 102.699219 131.457031 100.458984 130.216797 99.339844 " transform="matrix(2,0,0,2,-6,-6)"/>
<path style="fill:none;stroke-width:0.801759;stroke-linecap:butt;stroke-linejoin:miter;stroke:rgb(90%,0%,0%);stroke-opacity:1;stroke-miterlimit:10;" d="M 127.736328 97.101562 C 126.496094 95.980469 124.015625 93.742188 124.015625 89.263672 " transform="matrix(2,0,0,2,-6,-6)"/>
<path style="fill:none;stroke-width:0.801759;stroke-linecap:butt;stroke-linejoin:miter;stroke:rgb(90%,0%,0%);stroke-opacity:1;stroke-miterlimit:10;" d="M 143.857422 89.263672 L 143.857422 107.177734 " transform="matrix(2,0,0,2,-6,-6)"/>
<path style="fill:none;stroke-width:0.801759;stroke-linecap:butt;stroke-linejoin:miter;stroke:rgb(90%,0%,0%);stroke-opacity:1;stroke-miterlimit:10;" d="M 153.779297 89.263672 L 153.779297 107.177734 " transform="matrix(2,0,0,2,-6,-6)"/>
<path style="fill:none;stroke-width:0.801759;stroke-linecap:butt;stroke-linejoin:miter;stroke:rgb(90%,0%,0%);stroke-opacity:1;stroke-miterlimit:10;" d="M 163.701172 107.177734 C 163.701172 98.220703 173.621094 98.220703 173.621094 89.263672 " transform="matrix(2,0,0,2,-6,-6)"/>
<path style="fill:none;stroke-width:0.801759;stroke-linecap:butt;stroke-linejoin:miter;stroke:rgb(90%,0%,0%);stroke-opacity:1;stroke-miterlimit:10;" d="M 173.621094 107.177734 C 173.621094 102.699219 171.142578 100.458984 169.902344 99.339844 " transform="matrix(2,0,0,2,-6,-6)"/>
<path style="fill:none;stroke-width:0.801759;stroke-linecap:butt;stroke-linejoin:miter;stroke:rgb(90%,0%,0%);stroke-opacity:1;stroke-miterlimit:10;" d="M 167.421875 97.101562 C 166.181641 95.980469 163.701172 93.742188 163.701172 89.263672 " transform="matrix(2,0,0,2,-6,-6)"/>
<path style="fill:none;stroke-width:0.801759;stroke-linecap:butt;stroke-linejoin:miter;stroke:rgb(90%,0%,0%);stroke-opacity:1;stroke-miterlimit:10;" d="M 94.251953 125.037109 C 94.251953 116.078125 104.173828 116.078125 104.173828 107.121094 " transform="matrix(2,0,0,2,-6,-6)"/>
<path style="fill:none;stroke-width:0.801759;stroke-linecap:butt;stroke-linejoin:miter;stroke:rgb(90%,0%,0%);stroke-opacity:1;stroke-miterlimit:10;" d="M 104.173828 125.037109 C 104.173828 120.556641 101.693359 118.318359 100.453125 117.199219 " transform="matrix(2,0,0,2,-6,-6)"/>
<path style="fill:none;stroke-width:0.801759;stroke-linecap:butt;stroke-linejoin:miter;stroke:rgb(90%,0%,0%);stroke-opacity:1;stroke-miterlimit:10;" d="M 97.972656 114.958984 C 96.732422 113.839844 94.251953 111.599609 94.251953 107.121094 " transform="matrix(2,0,0,2,-6,-6)"/>
<path style="fill:none;stroke-width:0.801759;stroke-linecap:butt;stroke-linejoin:miter;stroke:rgb(90%,0%,0%);stroke-opacity:1;stroke-miterlimit:10;" d="M 114.09375 107.121094 L 114.09375 125.037109 " transform="matrix(2,0,0,2,-6,-6)"/>
<path style="fill:none;stroke-width:0.801759;stroke-linecap:butt;stroke-linejoin:miter;stroke:rgb(90%,0%,0%);stroke-opacity:1;stroke-miterlimit:10;" d="M 124.015625 125.037109 C 124.015625 120.556641 126.496094 118.318359 127.736328 117.199219 " transform="matrix(2,0,0,2,-6,-6)"/>
<path style="fill:none;stroke-width:0.801759;stroke-linecap:butt;stroke-linejoin:miter;stroke:rgb(90%,0%,0%);stroke-opacity:1;stroke-miterlimit:10;" d="M 130.216797 114.958984 C 131.457031 113.839844 133.9375 111.599609 133.9375 107.121094 " transform="matrix(2,0,0,2,-6,-6)"/>
<path style="fill:none;stroke-width:0.801759;stroke-linecap:butt;stroke-linejoin:miter;stroke:rgb(90%,0%,0%);stroke-opacity:1;stroke-miterlimit:10;" d="M 133.9375 125.037109 C 133.9375 116.078125 124.015625 116.078125 124.015625 107.121094 " transform="matrix(2,0,0,2,-6,-6)"/>
<path style="fill:none;stroke-width:0.801759;stroke-linecap:butt;stroke-linejoin:miter;stroke:rgb(90%,0%,0%);stroke-opacity:1;stroke-miterlimit:10;" d="M 143.857422 107.121094 L 143.857422 125.037109 " transform="matrix(2,0,0,2,-6,-6)"/>
<path style="fill:none;stroke-width:0.801759;stroke-linecap:butt;stroke-linejoin:miter;stroke:rgb(90%,0%,0%);stroke-opacity:1;stroke-miterlimit:10;" d="M 153.779297 107.121094 L 153.779297 125.037109 " transform="matrix(2,0,0,2,-6,-6)"/>
<path style="fill:none;stroke-width:0.801759;stroke-linecap:butt;stroke-linejoin:miter;stroke:rgb(90%,0%,0%);stroke-opacity:1;stroke-miterlimit:10;" d="M 163.701172 125.037109 C 163.701172 116.078125 173.621094 116.078125 173.621094 107.121094 " transform="matrix(2,0,0,2,-6,-6)"/>
<path style="fill:none;stroke-width:0.801759;stroke-linecap:butt;stroke-linejoin:miter;stroke:rgb(90%,0%,0%);stroke-opacity:1;stroke-miterlimit:10;" d="M 173.621094 125.037109 C 173.621094 120.556641 171.142578 118.318359 169.902344 117.199219 " transform="matrix(2,0,0,2,-6,-6)"/>
<path style="fill:none;stroke-width:0.801759;stroke-linecap:butt;stroke-linejoin:miter;stroke:rgb(90%,0%,0%);stroke-opacity:1;stroke-miterlimit:10;" d="M 167.421875 114.958984 C 166.181641 113.839844 163.701172 111.599609 163.701172 107.121094 " transform="matrix(2,0,0,2,-6,-6)"/>
<path style="fill:none;stroke-width:0.801759;stroke-linecap:butt;stroke-linejoin:miter;stroke:rgb(90%,0%,0%);stroke-opacity:1;stroke-miterlimit:10;" d="M 94.251953 142.894531 C 94.251953 138.416016 96.732422 136.175781 97.972656 135.056641 " transform="matrix(2,0,0,2,-6,-6)"/>
<path style="fill:none;stroke-width:0.801759;stroke-linecap:butt;stroke-linejoin:miter;stroke:rgb(90%,0%,0%);stroke-opacity:1;stroke-miterlimit:10;" d="M 100.453125 132.816406 C 101.693359 131.697266 104.173828 129.458984 104.173828 124.980469 " transform="matrix(2,0,0,2,-6,-6)"/>
<path style="fill:none;stroke-width:0.801759;stroke-linecap:butt;stroke-linejoin:miter;stroke:rgb(90%,0%,0%);stroke-opacity:1;stroke-miterlimit:10;" d="M 104.173828 142.894531 C 104.173828 133.9375 94.251953 133.9375 94.251953 124.980469 " transform="matrix(2,0,0,2,-6,-6)"/>
<path style="fill:none;stroke-width:0.801759;stroke-linecap:butt;stroke-linejoin:miter;stroke:rgb(90%,0%,0%);stroke-opacity:1;stroke-miterlimit:10;" d="M 114.09375 124.980469 L 114.09375 142.894531 " transform="matrix(2,0,0,2,-6,-6)"/>
<path style="fill:none;stroke-width:0.801759;stroke-linecap:butt;stroke-linejoin:miter;stroke:rgb(90%,0%,0%);stroke-opacity:1;stroke-miterlimit:10;" d="M 124.015625 124.980469 L 124.015625 142.894531 " transform="matrix(2,0,0,2,-6,-6)"/>
<path style="fill:none;stroke-width:0.801759;stroke-linecap:butt;stroke-linejoin:miter;stroke:rgb(90%,0%,0%);stroke-opacity:1;stroke-miterlimit:10;" d="M 133.9375 142.894531 C 133.9375 133.9375 143.857422 133.9375 143.857422 124.980469 " transform="matrix(2,0,0,2,-6,-6)"/>
<path style="fill:none;stroke-width:0.801759;stroke-linecap:butt;stroke-linejoin:miter;stroke:rgb(90%,0%,0%);stroke-opacity:1;stroke-miterlimit:10;" d="M 143.857422 142.894531 C 143.857422 138.416016 141.378906 136.175781 140.138672 135.056641 " transform="matrix(2,0,0,2,-6,-6)"/>
<path style="fill:none;stroke-width:0.801759;stroke-linecap:butt;stroke-linejoin:miter;stroke:rgb(90%,0%,0%);stroke-opacity:1;stroke-miterlimit:10;" d="M 137.658203 132.816406 C 136.417969 131.697266 133.9375 129.458984 133.9375 124.980469 " transform="matrix(2,0,0,2,-6,-6)"/>
<path style="fill:none;stroke-width:0.801759;stroke-linecap:butt;stroke-linejoin:miter;stroke:rgb(90%,0%,0%);stroke-opacity:1;stroke-miterlimit:10;" d="M 153.779297 142.894531 C 153.779297 138.416016 156.259766 136.175781 157.5 135.056641 " transform="matrix(2,0,0,2,-6,-6)"/>
<path style="fill:none;stroke-width:0.801759;stroke-linecap:butt;stroke-linejoin:miter;stroke:rgb(90%,0%,0%);stroke-opacity:1;stroke-miterlimit:10;" d="M 159.980469 132.816406 C 161.220703 131.697266 163.701172 129.458984 163.701172 124.980469 " transform="matrix(2,0,0,2,-6,-6)"/>
<path style="fill:none;stroke-width:0.801759;stroke-linecap:butt;stroke-linejoin:miter;stroke:rgb(90%,0%,0%);stroke-opacity:1;stroke-miterlimit:10;" d="M 163.701172 142.894531 C 163.701172 133.9375 153.779297 133.9375 153.779297 124.980469 " transform="matrix(2,0,0,2,-6,-6)"/>
<path style="fill:none;stroke-width:0.801759;stroke-linecap:butt;stroke-linejoin:miter;stroke:rgb(90%,0%,0%);stroke-opacity:1;stroke-miterlimit:10;" d="M 173.621094 124.980469 L 173.621094 142.894531 " transform="matrix(2,0,0,2,-6,-6)"/>
<path style="fill:none;stroke-width:0.801759;stroke-linecap:butt;stroke-linejoin:miter;stroke:rgb(90%,0%,0%);stroke-opacity:1;stroke-miterlimit:10;" d="M 4.960938 142.837891 C 4.960938 189.412109 42.716797 227.167969 89.291016 227.167969 C 135.865234 227.167969 173.621094 189.412109 173.621094 142.837891 " transform="matrix(2,0,0,2,-6,-6)"/>
<path style="fill:none;stroke-width:0.801759;stroke-linecap:butt;stroke-linejoin:miter;stroke:rgb(90%,0%,0%);stroke-opacity:1;stroke-miterlimit:10;" d="M 14.882812 142.837891 C 14.882812 183.933594 48.195312 217.248047 89.291016 217.248047 C 130.386719 217.248047 163.701172 183.933594 163.701172 142.837891 " transform="matrix(2,0,0,2,-6,-6)"/>
<path style="fill:none;stroke-width:0.801759;stroke-linecap:butt;stroke-linejoin:miter;stroke:rgb(90%,0%,0%);stroke-opacity:1;stroke-miterlimit:10;" d="M 24.802734 142.837891 C 24.802734 178.453125 53.675781 207.326172 89.291016 207.326172 C 124.90625 207.326172 153.779297 178.453125 153.779297 142.837891 " transform="matrix(2,0,0,2,-6,-6)"/>
<path style="fill:none;stroke-width:0.801759;stroke-linecap:butt;stroke-linejoin:miter;stroke:rgb(90%,0%,0%);stroke-opacity:1;stroke-miterlimit:10;" d="M 34.724609 142.837891 C 34.724609 172.974609 59.154297 197.404297 89.291016 197.404297 C 119.427734 197.404297 143.857422 172.974609 143.857422 142.837891 " transform="matrix(2,0,0,2,-6,-6)"/>
<path style="fill:none;stroke-width:0.801759;stroke-linecap:butt;stroke-linejoin:miter;stroke:rgb(90%,0%,0%);stroke-opacity:1;stroke-miterlimit:10;" d="M 44.646484 142.837891 C 44.646484 167.494141 64.634766 187.484375 89.291016 187.484375 C 113.949219 187.484375 133.9375 167.494141 133.9375 142.837891 " transform="matrix(2,0,0,2,-6,-6)"/>
<path style="fill:none;stroke-width:0.801759;stroke-linecap:butt;stroke-linejoin:miter;stroke:rgb(90%,0%,0%);stroke-opacity:1;stroke-miterlimit:10;" d="M 54.566406 142.837891 C 54.566406 162.015625 70.113281 177.5625 89.291016 177.5625 C 108.46875 177.5625 124.015625 162.015625 124.015625 142.837891 " transform="matrix(2,0,0,2,-6,-6)"/>
<path style="fill:none;stroke-width:0.801759;stroke-linecap:butt;stroke-linejoin:miter;stroke:rgb(90%,0%,0%);stroke-opacity:1;stroke-miterlimit:10;" d="M 64.488281 142.837891 C 64.488281 156.537109 75.59375 167.640625 89.291016 167.640625 C 102.990234 167.640625 114.09375 156.537109 114.09375 142.837891 " transform="matrix(2,0,0,2,-6,-6)"/>
<path style="fill:none;stroke-width:0.801759;stroke-linecap:butt;stroke-linejoin:miter;stroke:rgb(90%,0%,0%);stroke-opacity:1;stroke-miterlimit:10;" d="M 74.410156 142.837891 C 74.410156 151.056641 81.072266 157.71875 89.291016 157.71875 C 97.509766 157.71875 104.173828 151.056641 104.173828 142.837891 " transform="matrix(2,0,0,2,-6,-6)"/>
<path style="fill:none;stroke-width:0.801759;stroke-linecap:butt;stroke-linejoin:miter;stroke:rgb(90%,0%,0%);stroke-opacity:1;stroke-miterlimit:10;" d="M 84.330078 142.837891 C 84.330078 145.578125 86.550781 147.798828 89.291016 147.798828 C 92.03125 147.798828 94.251953 145.578125 94.251953 142.837891 " transform="matrix(2,0,0,2,-6,-6)"/>
</g>
</svg>
