<?xml version="1.0" encoding="UTF-8"?>
<svg xmlns="http://www.w3.org/2000/svg" xmlns:xlink="http://www.w3.org/1999/xlink" width="175pt" height="175pt" viewBox="0 0 175 175" version="1.1">
<g id="surface382">
<path style="fill:none;stroke-width:0.566929;stroke-linecap:butt;stroke-linejoin:miter;stroke:rgb(0%,0%,0%);stroke-opacity:1;stroke-miterlimit:10;" d="M 28.345703 14.173828 C 18.425781 18.433594 14.173828 24.115234 14.173828 28.375 " transform="matrix(2,0,0,2,-26,-26)"/>
<path style="fill:none;stroke-width:0.566929;stroke-linecap:butt;stroke-linejoin:miter;stroke:rgb(0%,0%,0%);stroke-opacity:1;stroke-miterlimit:10;" d="M 28.345703 14.173828 C 38.267578 18.433594 42.519531 24.115234 42.519531 28.375 " transform="matrix(2,0,0,2,-26,-26)"/>
<path style=" stroke:none;fill-rule:nonzero;fill:rgb(0%,0%,0%);fill-opacity:1;" d="M 32.960938 2.347656 C 32.960938 -0.675781 28.425781 -0.675781 28.425781 2.347656 C 28.425781 5.371094 32.960938 5.371094 32.960938 2.347656 Z M 32.960938 2.347656 "/>
<path style="fill:none;stroke-width:0.566929;stroke-linecap:butt;stroke-linejoin:miter;stroke:rgb(0%,0%,0%);stroke-opacity:1;stroke-miterlimit:10;" d="M 70.865234 14.173828 C 70.865234 18.433594 70.865234 24.115234 70.865234 28.375 " transform="matrix(2,0,0,2,-26,-26)"/>
<path style=" stroke:none;fill-rule:nonzero;fill:rgb(0%,0%,0%);fill-opacity:1;" d="M 118 2.347656 C 118 -0.675781 113.464844 -0.675781 113.464844 2.347656 C 113.464844 5.371094 118 5.371094 118 2.347656 Z M 118 2.347656 "/>
<path style="fill:none;stroke-width:0.566929;stroke-linecap:butt;stroke-linejoin:miter;stroke:rgb(0%,0%,0%);stroke-opacity:1;stroke-miterlimit:10;" d="M 99.212891 14.173828 C 99.212891 18.433594 99.212891 24.115234 99.212891 28.375 " transform="matrix(2,0,0,2,-26,-26)"/>
<path style=" stroke:none;fill-rule:nonzero;fill:rgb(0%,0%,0%);fill-opacity:1;" d="M 174.691406 2.347656 C 174.691406 -0.675781 170.15625 -0.675781 170.15625 2.347656 C 170.15625 5.371094 174.691406 5.371094 174.691406 2.347656 Z M 174.691406 2.347656 "/>
<path style="fill:none;stroke-width:0.566929;stroke-linecap:butt;stroke-linejoin:miter;stroke:rgb(0%,0%,0%);stroke-opacity:1;stroke-miterlimit:10;" d="M 28.345703 42.519531 C 18.425781 38.259766 14.173828 32.578125 14.173828 28.318359 " transform="matrix(2,0,0,2,-26,-26)"/>
<path style="fill:none;stroke-width:0.566929;stroke-linecap:butt;stroke-linejoin:miter;stroke:rgb(0%,0%,0%);stroke-opacity:1;stroke-miterlimit:10;" d="M 28.345703 42.519531 C 38.267578 38.259766 42.519531 32.578125 42.519531 28.318359 " transform="matrix(2,0,0,2,-26,-26)"/>
<path style="fill:none;stroke-width:0.566929;stroke-linecap:butt;stroke-linejoin:miter;stroke:rgb(0%,0%,0%);stroke-opacity:1;stroke-miterlimit:10;" d="M 28.345703 42.519531 C 18.425781 46.779297 14.173828 52.460938 14.173828 56.720703 " transform="matrix(2,0,0,2,-26,-26)"/>
<path style="fill:none;stroke-width:0.566929;stroke-linecap:butt;stroke-linejoin:miter;stroke:rgb(0%,0%,0%);stroke-opacity:1;stroke-miterlimit:10;" d="M 28.345703 42.519531 C 38.267578 46.779297 42.519531 52.460938 42.519531 56.720703 " transform="matrix(2,0,0,2,-26,-26)"/>
<path style=" stroke:none;fill-rule:nonzero;fill:rgb(0%,0%,0%);fill-opacity:1;" d="M 32.960938 59.039062 C 32.960938 56.015625 28.425781 56.015625 28.425781 59.039062 C 28.425781 62.0625 32.960938 62.0625 32.960938 59.039062 Z M 32.960938 59.039062 "/>
<path style="fill:none;stroke-width:0.566929;stroke-linecap:butt;stroke-linejoin:miter;stroke:rgb(0%,0%,0%);stroke-opacity:1;stroke-miterlimit:10;" d="M 70.865234 42.519531 C 70.865234 38.259766 70.865234 32.578125 70.865234 28.318359 " transform="matrix(2,0,0,2,-26,-26)"/>
<path style="fill:none;stroke-width:0.566929;stroke-linecap:butt;stroke-linejoin:miter;stroke:rgb(0%,0%,0%);stroke-opacity:1;stroke-miterlimit:10;" d="M 70.865234 42.519531 C 70.865234 46.779297 70.865234 52.460938 70.865234 56.720703 " transform="matrix(2,0,0,2,-26,-26)"/>
<path style=" stroke:none;fill-rule:nonzero;fill:rgb(0%,0%,0%);fill-opacity:1;" d="M 118 59.039062 C 118 56.015625 113.464844 56.015625 113.464844 59.039062 C 113.464844 62.0625 118 62.0625 118 59.039062 Z M 118 59.039062 "/>
<path style="fill:none;stroke-width:0.566929;stroke-linecap:butt;stroke-linejoin:miter;stroke:rgb(0%,0%,0%);stroke-opacity:1;stroke-miterlimit:10;" d="M 42.519531 70.865234 C 22.677734 66.605469 14.173828 60.925781 14.173828 56.664062 " transform="matrix(2,0,0,2,-26,-26)"/>
<path style="fill:none;stroke-width:0.566929;stroke-linecap:butt;stroke-linejoin:miter;stroke:rgb(0%,0%,0%);stroke-opacity:1;stroke-miterlimit:10;" d="M 42.519531 70.865234 C 42.519531 66.605469 42.519531 60.925781 42.519531 56.664062 " transform="matrix(2,0,0,2,-26,-26)"/>
<path style="fill:none;stroke-width:0.566929;stroke-linecap:butt;stroke-linejoin:miter;stroke:rgb(0%,0%,0%);stroke-opacity:1;stroke-miterlimit:10;" d="M 42.519531 70.865234 C 62.361328 66.605469 70.865234 60.925781 70.865234 56.664062 " transform="matrix(2,0,0,2,-26,-26)"/>
<path style="fill:none;stroke-width:0.566929;stroke-linecap:butt;stroke-linejoin:miter;stroke:rgb(0%,0%,0%);stroke-opacity:1;stroke-miterlimit:10;" d="M 42.519531 70.865234 C 42.519531 75.126953 42.519531 80.806641 42.519531 85.068359 " transform="matrix(2,0,0,2,-26,-26)"/>
<path style=" stroke:none;fill-rule:nonzero;fill:rgb(0%,0%,0%);fill-opacity:1;" d="M 61.308594 115.730469 C 61.308594 112.707031 56.773438 112.707031 56.773438 115.730469 C 56.773438 118.757812 61.308594 118.757812 61.308594 115.730469 Z M 61.308594 115.730469 "/>
<path style="fill:none;stroke-width:0.566929;stroke-linecap:butt;stroke-linejoin:miter;stroke:rgb(0%,0%,0%);stroke-opacity:1;stroke-miterlimit:10;" d="M 99.212891 56.693359 C 99.212891 48.179688 99.212891 36.830078 99.212891 28.318359 " transform="matrix(2,0,0,2,-26,-26)"/>
<path style="fill:none;stroke-width:0.566929;stroke-linecap:butt;stroke-linejoin:miter;stroke:rgb(0%,0%,0%);stroke-opacity:1;stroke-miterlimit:10;" d="M 99.212891 56.693359 C 99.212891 65.205078 99.212891 76.554688 99.212891 85.068359 " transform="matrix(2,0,0,2,-26,-26)"/>
<path style=" stroke:none;fill-rule:nonzero;fill:rgb(0%,0%,0%);fill-opacity:1;" d="M 174.691406 87.386719 C 174.691406 84.363281 170.15625 84.363281 170.15625 87.386719 C 170.15625 90.410156 174.691406 90.410156 174.691406 87.386719 Z M 174.691406 87.386719 "/>
<path style="fill:none;stroke-width:0.566929;stroke-linecap:butt;stroke-linejoin:miter;stroke:rgb(0%,0%,0%);stroke-opacity:1;stroke-miterlimit:10;" d="M 70.865234 99.212891 C 51.023438 94.951172 42.519531 89.271484 42.519531 85.011719 " transform="matrix(2,0,0,2,-26,-26)"/>
<path style="fill:none;stroke-width:0.566929;stroke-linecap:butt;stroke-linejoin:miter;stroke:rgb(0%,0%,0%);stroke-opacity:1;stroke-miterlimit:10;" d="M 70.865234 99.212891 C 90.708984 94.951172 99.212891 89.271484 99.212891 85.011719 " transform="matrix(2,0,0,2,-26,-26)"/>
<path style=" stroke:none;fill-rule:nonzero;fill:rgb(0%,0%,0%);fill-opacity:1;" d="M 118 172.425781 C 118 169.402344 113.464844 169.402344 113.464844 172.425781 C 113.464844 175.449219 118 175.449219 118 172.425781 Z M 118 172.425781 "/>
</g>
</svg>
