<?xml version="1.0" encoding="UTF-8"?>
<svg xmlns="http://www.w3.org/2000/svg" xmlns:xlink="http://www.w3.org/1999/xlink" width="214pt" height="214pt" viewBox="0 0 214 214" version="1.1">
<g id="surface69">
<path style="fill:none;stroke-width:0.400879;stroke-linecap:round;stroke-linejoin:round;stroke:rgb(0%,0%,0%);stroke-opacity:1;stroke-miterlimit:10;" d="M 0 0 L 0 -85.039062 L 11.005859 -43.96875 L 40.769531 7.583984 " transform="matrix(2,0,0,2,48,198)"/>
<path style="fill:none;stroke-width:0.400879;stroke-linecap:round;stroke-linejoin:round;stroke:rgb(0%,0%,0%);stroke-opacity:1;stroke-miterlimit:10;" d="M 40.769531 7.583984 L -19.363281 -52.548828 L 17.458984 -31.289062 L 74.958984 -15.880859 " transform="matrix(2,0,0,2,48,198)"/>
<path style="fill:none;stroke-width:0.400879;stroke-linecap:round;stroke-linejoin:round;stroke:rgb(0%,0%,0%);stroke-opacity:1;stroke-miterlimit:10;" d="M 74.958984 -15.880859 L -10.080078 -15.880859 L 30.990234 -26.886719 L 82.542969 -56.650391 " transform="matrix(2,0,0,2,48,198)"/>
<path style="fill:none;stroke-width:0.400879;stroke-linecap:round;stroke-linejoin:round;stroke:rgb(0%,0%,0%);stroke-opacity:1;stroke-miterlimit:10;" d="M 82.542969 -56.650391 L 22.410156 3.482422 L 43.671875 -33.341797 L 59.078125 -90.839844 " transform="matrix(2,0,0,2,48,198)"/>
<path style="fill:none;stroke-width:0.400879;stroke-linecap:round;stroke-linejoin:round;stroke:rgb(0%,0%,0%);stroke-opacity:1;stroke-miterlimit:10;" d="M 59.078125 -90.839844 L 59.078125 -5.800781 L 48.072266 -46.871094 L 18.308594 -98.423828 " transform="matrix(2,0,0,2,48,198)"/>
<path style="fill:none;stroke-width:0.400879;stroke-linecap:round;stroke-linejoin:round;stroke:rgb(0%,0%,0%);stroke-opacity:1;stroke-miterlimit:10;" d="M 18.308594 -98.423828 L 78.441406 -38.292969 L 41.617188 -59.552734 L -15.880859 -74.958984 " transform="matrix(2,0,0,2,48,198)"/>
<path style="fill:none;stroke-width:0.400879;stroke-linecap:round;stroke-linejoin:round;stroke:rgb(0%,0%,0%);stroke-opacity:1;stroke-miterlimit:10;" d="M -15.880859 -74.958984 L 69.158203 -74.958984 L 28.087891 -63.955078 L -23.464844 -34.189453 " transform="matrix(2,0,0,2,48,198)"/>
<path style="fill:none;stroke-width:0.400879;stroke-linecap:round;stroke-linejoin:round;stroke:rgb(0%,0%,0%);stroke-opacity:1;stroke-miterlimit:10;" d="M -23.464844 -34.189453 L 36.666016 -94.322266 L 15.40625 -57.5 L 0 0 " transform="matrix(2,0,0,2,48,198)"/>
</g>
</svg>
