<?xml version="1.0" encoding="UTF-8"?>
<svg xmlns="http://www.w3.org/2000/svg" xmlns:xlink="http://www.w3.org/1999/xlink" width="206pt" height="104pt" viewBox="0 0 206 104" version="1.1">
<g id="surface45">
<path style=" stroke:none;fill-rule:nonzero;fill:rgb(100%,0%,0%);fill-opacity:1;" d="M 137 69 L 205.03125 69 C 205.03125 31.425781 174.574219 0.96875 137 0.96875 L 68.96875 0.96875 C 31.394531 0.96875 0.9375 31.425781 0.9375 69 C 0.9375 87.785156 16.167969 103.015625 34.953125 103.015625 C 53.738281 103.015625 68.96875 87.785156 68.96875 69 Z M 137 69 "/>
<path style="fill:none;stroke-width:1.603518;stroke-linecap:butt;stroke-linejoin:miter;stroke:rgb(0%,0%,0%);stroke-opacity:1;stroke-miterlimit:10;" d="M 0 0 L 28.345703 0 C 28.345703 -15.65625 15.65625 -28.345703 0 -28.345703 L -28.345703 -28.345703 C -44.001953 -28.345703 -56.693359 -15.65625 -56.693359 0 C -56.693359 7.828125 -50.347656 14.173828 -42.519531 14.173828 C -34.691406 14.173828 -28.345703 7.828125 -28.345703 0 Z M 0 0 " transform="matrix(2,0,0,2,137,69)"/>
</g>
</svg>
