<?xml version="1.0" encoding="UTF-8"?>
<svg xmlns="http://www.w3.org/2000/svg" xmlns:xlink="http://www.w3.org/1999/xlink" width="351pt" height="62pt" viewBox="0 0 351 62" version="1.1">
<g id="surface379">
<path style="fill:none;stroke-width:0.566929;stroke-linecap:butt;stroke-linejoin:miter;stroke:rgb(100%,0%,0%);stroke-opacity:0.5;stroke-miterlimit:10;" d="M -2.833984 2.833984 L 2.833984 -2.833984 " transform="matrix(2,0,0,2,8,31)"/>
<path style="fill:none;stroke-width:0.566929;stroke-linecap:butt;stroke-linejoin:miter;stroke:rgb(100%,0%,0%);stroke-opacity:0.5;stroke-miterlimit:10;" d="M 2.833984 2.833984 L -2.833984 -2.833984 " transform="matrix(2,0,0,2,8,31)"/>
<path style="fill-rule:nonzero;fill:rgb(50%,50%,0%);fill-opacity:0.1;stroke-width:0.566929;stroke-linecap:butt;stroke-linejoin:miter;stroke:rgb(100%,0%,0%);stroke-opacity:0.5;stroke-miterlimit:10;" d="M 0 14.173828 L 170.078125 14.173828 L 170.078125 -14.173828 L 0 -14.173828 Z M 0 14.173828 " transform="matrix(2,0,0,2,8,31)"/>
<path style="fill:none;stroke-width:0.566929;stroke-linecap:butt;stroke-linejoin:miter;stroke:rgb(100%,0%,0%);stroke-opacity:0.5;stroke-miterlimit:10;" d="M 20.300781 2.833984 L 25.96875 -2.833984 " transform="matrix(2,0,0,2,8,31)"/>
<path style="fill:none;stroke-width:0.566929;stroke-linecap:butt;stroke-linejoin:miter;stroke:rgb(100%,0%,0%);stroke-opacity:0.5;stroke-miterlimit:10;" d="M 25.96875 2.833984 L 20.300781 -2.833984 " transform="matrix(2,0,0,2,8,31)"/>
<path style="fill-rule:nonzero;fill:rgb(50%,50%,0%);fill-opacity:0.1;stroke-width:0.566929;stroke-linecap:butt;stroke-linejoin:miter;stroke:rgb(100%,0%,0%);stroke-opacity:0.5;stroke-miterlimit:10;" d="M 0 14.173828 L 56.693359 14.173828 L 56.693359 -14.173828 L 0 -14.173828 Z M 0 14.173828 " transform="matrix(2,0,0,2,8,31)"/>
<path style="fill:none;stroke-width:0.566929;stroke-linecap:butt;stroke-linejoin:miter;stroke:rgb(0%,0%,0%);stroke-opacity:1;stroke-miterlimit:10;" d="M 42.519531 14.201172 C 42.519531 6.373047 36.173828 0.0292969 28.345703 0.0292969 C 20.519531 0.0292969 14.173828 6.373047 14.173828 14.201172 " transform="matrix(2,0,0,2,8,31)"/>
<path style="fill:none;stroke-width:0.566929;stroke-linecap:butt;stroke-linejoin:miter;stroke:rgb(100%,0%,0%);stroke-opacity:0.5;stroke-miterlimit:10;" d="M 73.880859 2.833984 L 79.550781 -2.833984 " transform="matrix(2,0,0,2,8,31)"/>
<path style="fill:none;stroke-width:0.566929;stroke-linecap:butt;stroke-linejoin:miter;stroke:rgb(100%,0%,0%);stroke-opacity:0.5;stroke-miterlimit:10;" d="M 79.550781 2.833984 L 73.880859 -2.833984 " transform="matrix(2,0,0,2,8,31)"/>
<path style="fill-rule:nonzero;fill:rgb(50%,50%,0%);fill-opacity:0.1;stroke-width:0.566929;stroke-linecap:butt;stroke-linejoin:miter;stroke:rgb(100%,0%,0%);stroke-opacity:0.5;stroke-miterlimit:10;" d="M 56.693359 14.173828 L 113.386719 14.173828 L 113.386719 -14.173828 L 56.693359 -14.173828 Z M 56.693359 14.173828 " transform="matrix(2,0,0,2,8,31)"/>
<path style="fill:none;stroke-width:0.566929;stroke-linecap:butt;stroke-linejoin:miter;stroke:rgb(0%,0%,0%);stroke-opacity:1;stroke-miterlimit:10;" d="M 92.126953 14.201172 C 92.126953 0 70.865234 0 70.865234 -14.201172 " transform="matrix(2,0,0,2,8,31)"/>
<path style="fill:none;stroke-width:0.566929;stroke-linecap:butt;stroke-linejoin:miter;stroke:rgb(0%,0%,0%);stroke-opacity:1;stroke-miterlimit:10;" d="M 106.298828 14.201172 C 106.298828 0 99.212891 0 99.212891 -14.201172 " transform="matrix(2,0,0,2,8,31)"/>
<path style="fill:none;stroke-width:0.566929;stroke-linecap:butt;stroke-linejoin:miter;stroke:rgb(0%,0%,0%);stroke-opacity:1;stroke-miterlimit:10;" d="M 77.953125 14.201172 C 77.953125 10.287109 74.779297 7.115234 70.865234 7.115234 C 66.953125 7.115234 63.779297 10.287109 63.779297 14.201172 " transform="matrix(2,0,0,2,8,31)"/>
<path style="fill:none;stroke-width:0.566929;stroke-linecap:butt;stroke-linejoin:miter;stroke:rgb(100%,0%,0%);stroke-opacity:0.5;stroke-miterlimit:10;" d="M 131.716797 2.833984 L 137.386719 -2.833984 " transform="matrix(2,0,0,2,8,31)"/>
<path style="fill:none;stroke-width:0.566929;stroke-linecap:butt;stroke-linejoin:miter;stroke:rgb(100%,0%,0%);stroke-opacity:0.5;stroke-miterlimit:10;" d="M 137.386719 2.833984 L 131.716797 -2.833984 " transform="matrix(2,0,0,2,8,31)"/>
<path style="fill-rule:nonzero;fill:rgb(50%,50%,0%);fill-opacity:0.1;stroke-width:0.566929;stroke-linecap:butt;stroke-linejoin:miter;stroke:rgb(100%,0%,0%);stroke-opacity:0.5;stroke-miterlimit:10;" d="M 113.386719 14.173828 L 170.078125 14.173828 L 170.078125 -14.173828 L 113.386719 -14.173828 Z M 113.386719 14.173828 " transform="matrix(2,0,0,2,8,31)"/>
<path style="fill:none;stroke-width:0.566929;stroke-linecap:butt;stroke-linejoin:miter;stroke:rgb(0%,0%,0%);stroke-opacity:1;stroke-miterlimit:10;" d="M 120.472656 -14.201172 C 120.472656 -2.460938 129.990234 7.058594 141.732422 7.058594 C 153.474609 7.058594 162.992188 -2.460938 162.992188 -14.201172 " transform="matrix(2,0,0,2,8,31)"/>
<path style="fill:none;stroke-width:0.566929;stroke-linecap:butt;stroke-linejoin:miter;stroke:rgb(0%,0%,0%);stroke-opacity:1;stroke-miterlimit:10;" d="M 134.646484 -14.201172 C 134.646484 -10.287109 137.818359 -7.115234 141.732422 -7.115234 C 145.646484 -7.115234 148.818359 -10.287109 148.818359 -14.201172 " transform="matrix(2,0,0,2,8,31)"/>
</g>
</svg>
