<?xml version="1.0" encoding="UTF-8"?>
<svg xmlns="http://www.w3.org/2000/svg" xmlns:xlink="http://www.w3.org/1999/xlink" width="175pt" height="175pt" viewBox="0 0 175 175" version="1.1">
<g id="surface475">
<path style="fill:none;stroke-width:0.566929;stroke-linecap:butt;stroke-linejoin:miter;stroke:rgb(0%,0%,0%);stroke-opacity:1;stroke-miterlimit:10;" d="M 28.345703 14.173828 C 18.425781 18.433594 14.173828 24.115234 14.173828 28.375 " transform="matrix(2,0,0,2,-26,-26)"/>
<path style="fill:none;stroke-width:0.566929;stroke-linecap:butt;stroke-linejoin:miter;stroke:rgb(0%,0%,0%);stroke-opacity:1;stroke-miterlimit:10;" d="M 28.345703 14.173828 C 38.267578 18.433594 42.519531 24.115234 42.519531 28.375 " transform="matrix(2,0,0,2,-26,-26)"/>
<path style="fill:none;stroke-width:0.566929;stroke-linecap:butt;stroke-linejoin:miter;stroke:rgb(0%,0%,0%);stroke-opacity:1;stroke-miterlimit:10;" d="M 70.865234 14.173828 C 70.865234 18.433594 70.865234 24.115234 70.865234 28.375 " transform="matrix(2,0,0,2,-26,-26)"/>
<path style="fill:none;stroke-width:0.566929;stroke-linecap:butt;stroke-linejoin:miter;stroke:rgb(0%,0%,0%);stroke-opacity:1;stroke-miterlimit:10;" d="M 99.212891 14.173828 C 99.212891 18.433594 99.212891 24.115234 99.212891 28.375 " transform="matrix(2,0,0,2,-26,-26)"/>
<path style="fill:none;stroke-width:0.566929;stroke-linecap:butt;stroke-linejoin:miter;stroke:rgb(0%,0%,0%);stroke-opacity:1;stroke-miterlimit:10;" d="M 14.173828 28.318359 C 14.173828 32.578125 18.425781 38.259766 28.345703 42.519531 " transform="matrix(2,0,0,2,-26,-26)"/>
<path style="fill:none;stroke-width:0.566929;stroke-linecap:butt;stroke-linejoin:miter;stroke:rgb(0%,0%,0%);stroke-opacity:1;stroke-miterlimit:10;" d="M 42.519531 28.318359 C 42.519531 32.578125 38.267578 38.259766 28.345703 42.519531 " transform="matrix(2,0,0,2,-26,-26)"/>
<path style="fill:none;stroke-width:0.566929;stroke-linecap:butt;stroke-linejoin:miter;stroke:rgb(0%,0%,0%);stroke-opacity:1;stroke-miterlimit:10;" d="M 28.345703 42.519531 C 18.425781 46.779297 14.173828 52.460938 14.173828 56.720703 " transform="matrix(2,0,0,2,-26,-26)"/>
<path style="fill:none;stroke-width:0.566929;stroke-linecap:butt;stroke-linejoin:miter;stroke:rgb(0%,0%,0%);stroke-opacity:1;stroke-miterlimit:10;" d="M 28.345703 42.519531 C 38.267578 46.779297 42.519531 52.460938 42.519531 56.720703 " transform="matrix(2,0,0,2,-26,-26)"/>
<path style="fill:none;stroke-width:0.566929;stroke-linecap:butt;stroke-linejoin:miter;stroke:rgb(0%,0%,0%);stroke-opacity:1;stroke-miterlimit:10;" d="M 70.865234 28.318359 C 70.865234 32.578125 70.865234 38.259766 70.865234 42.519531 " transform="matrix(2,0,0,2,-26,-26)"/>
<path style="fill:none;stroke-width:0.566929;stroke-linecap:butt;stroke-linejoin:miter;stroke:rgb(0%,0%,0%);stroke-opacity:1;stroke-miterlimit:10;" d="M 70.865234 42.519531 C 70.865234 46.779297 70.865234 52.460938 70.865234 56.720703 " transform="matrix(2,0,0,2,-26,-26)"/>
<path style="fill:none;stroke-width:0.566929;stroke-linecap:butt;stroke-linejoin:miter;stroke:rgb(0%,0%,0%);stroke-opacity:1;stroke-miterlimit:10;" d="M 14.173828 56.664062 C 14.173828 60.925781 22.140625 66.605469 40.730469 70.865234 " transform="matrix(2,0,0,2,-26,-26)"/>
<path style="fill:none;stroke-width:0.566929;stroke-linecap:butt;stroke-linejoin:miter;stroke:rgb(0%,0%,0%);stroke-opacity:1;stroke-miterlimit:10;" d="M 42.519531 56.664062 C 42.519531 60.925781 41.982422 66.605469 40.730469 70.865234 " transform="matrix(2,0,0,2,-26,-26)"/>
<path style="fill:none;stroke-width:0.566929;stroke-linecap:butt;stroke-linejoin:miter;stroke:rgb(0%,0%,0%);stroke-opacity:1;stroke-miterlimit:10;" d="M 70.865234 56.664062 C 70.865234 60.925781 61.826172 66.605469 40.730469 70.865234 " transform="matrix(2,0,0,2,-26,-26)"/>
<path style="fill:none;stroke-width:0.566929;stroke-linecap:butt;stroke-linejoin:miter;stroke:rgb(0%,0%,0%);stroke-opacity:1;stroke-miterlimit:10;" d="M 40.730469 70.865234 C 36.970703 75.126953 35.361328 80.806641 35.361328 85.068359 " transform="matrix(2,0,0,2,-26,-26)"/>
<path style="fill:none;stroke-width:0.566929;stroke-linecap:butt;stroke-linejoin:miter;stroke:rgb(0%,0%,0%);stroke-opacity:1;stroke-miterlimit:10;" d="M 99.212891 28.318359 C 99.212891 36.830078 98.316406 48.179688 96.224609 56.693359 " transform="matrix(2,0,0,2,-26,-26)"/>
<path style="fill:none;stroke-width:0.566929;stroke-linecap:butt;stroke-linejoin:miter;stroke:rgb(0%,0%,0%);stroke-opacity:1;stroke-miterlimit:10;" d="M 96.224609 56.693359 C 94.132812 65.205078 93.234375 76.554688 93.234375 85.068359 " transform="matrix(2,0,0,2,-26,-26)"/>
<path style="fill:none;stroke-width:0.566929;stroke-linecap:butt;stroke-linejoin:miter;stroke:rgb(0%,0%,0%);stroke-opacity:1;stroke-miterlimit:10;" d="M 35.361328 85.011719 C 35.361328 89.271484 44.041016 94.951172 64.298828 99.212891 " transform="matrix(2,0,0,2,-26,-26)"/>
<path style="fill:none;stroke-width:0.566929;stroke-linecap:butt;stroke-linejoin:miter;stroke:rgb(0%,0%,0%);stroke-opacity:1;stroke-miterlimit:10;" d="M 93.234375 85.011719 C 93.234375 89.271484 84.554688 94.951172 64.298828 99.212891 " transform="matrix(2,0,0,2,-26,-26)"/>
</g>
</svg>
