<?xml version="1.0" encoding="UTF-8"?>
<svg xmlns="http://www.w3.org/2000/svg" xmlns:xlink="http://www.w3.org/1999/xlink" width="118pt" height="181pt" viewBox="0 0 118 181" version="1.1">
<g id="surface353">
<path style="fill:none;stroke-width:0.566929;stroke-linecap:butt;stroke-linejoin:miter;stroke:rgb(100%,0%,0%);stroke-opacity:0.5;stroke-miterlimit:10;" d="M -2.833984 2.833984 L 2.833984 -2.833984 " transform="matrix(2,0,0,2,59,8)"/>
<path style="fill:none;stroke-width:0.566929;stroke-linecap:butt;stroke-linejoin:miter;stroke:rgb(100%,0%,0%);stroke-opacity:0.5;stroke-miterlimit:10;" d="M 2.833984 2.833984 L -2.833984 -2.833984 " transform="matrix(2,0,0,2,59,8)"/>
<path style="fill-rule:nonzero;fill:rgb(50%,50%,0%);fill-opacity:0.1;stroke-width:0.566929;stroke-linecap:butt;stroke-linejoin:miter;stroke:rgb(100%,0%,0%);stroke-opacity:0.5;stroke-miterlimit:10;" d="M -28.345703 85.039062 L 28.345703 85.039062 L 28.345703 0 L -28.345703 0 Z M -28.345703 85.039062 " transform="matrix(2,0,0,2,59,8)"/>
<path style="fill:none;stroke-width:0.566929;stroke-linecap:butt;stroke-linejoin:miter;stroke:rgb(100%,0%,0%);stroke-opacity:0.5;stroke-miterlimit:10;" d="M -2.833984 16.027344 L 2.833984 10.359375 " transform="matrix(2,0,0,2,59,8)"/>
<path style="fill:none;stroke-width:0.566929;stroke-linecap:butt;stroke-linejoin:miter;stroke:rgb(100%,0%,0%);stroke-opacity:0.5;stroke-miterlimit:10;" d="M 2.833984 16.027344 L -2.833984 10.359375 " transform="matrix(2,0,0,2,59,8)"/>
<path style="fill-rule:nonzero;fill:rgb(50%,50%,0%);fill-opacity:0.1;stroke-width:0.566929;stroke-linecap:butt;stroke-linejoin:miter;stroke:rgb(100%,0%,0%);stroke-opacity:0.5;stroke-miterlimit:10;" d="M -28.345703 28.345703 L 28.345703 28.345703 L 28.345703 0 L -28.345703 0 Z M -28.345703 28.345703 " transform="matrix(2,0,0,2,59,8)"/>
<path style="fill:none;stroke-width:0.566929;stroke-linecap:butt;stroke-linejoin:miter;stroke:rgb(0%,0%,0%);stroke-opacity:1;stroke-miterlimit:10;" d="M 14.173828 28.375 C 14.173828 20.546875 7.828125 14.201172 0 14.201172 C -7.828125 14.201172 -14.173828 20.546875 -14.173828 28.375 " transform="matrix(2,0,0,2,59,8)"/>
<path style="fill:none;stroke-width:0.566929;stroke-linecap:butt;stroke-linejoin:miter;stroke:rgb(100%,0%,0%);stroke-opacity:0.5;stroke-miterlimit:10;" d="M -2.833984 43.408203 L 2.833984 37.740234 " transform="matrix(2,0,0,2,59,8)"/>
<path style="fill:none;stroke-width:0.566929;stroke-linecap:butt;stroke-linejoin:miter;stroke:rgb(100%,0%,0%);stroke-opacity:0.5;stroke-miterlimit:10;" d="M 2.833984 43.408203 L -2.833984 37.740234 " transform="matrix(2,0,0,2,59,8)"/>
<path style="fill-rule:nonzero;fill:rgb(50%,50%,0%);fill-opacity:0.1;stroke-width:0.566929;stroke-linecap:butt;stroke-linejoin:miter;stroke:rgb(100%,0%,0%);stroke-opacity:0.5;stroke-miterlimit:10;" d="M -28.345703 56.693359 L 28.345703 56.693359 L 28.345703 28.345703 L -28.345703 28.345703 Z M -28.345703 56.693359 " transform="matrix(2,0,0,2,59,8)"/>
<path style="fill:none;stroke-width:0.566929;stroke-linecap:butt;stroke-linejoin:miter;stroke:rgb(0%,0%,0%);stroke-opacity:1;stroke-miterlimit:10;" d="M 7.085938 56.720703 C 7.085938 42.519531 -14.173828 42.519531 -14.173828 28.318359 " transform="matrix(2,0,0,2,59,8)"/>
<path style="fill:none;stroke-width:0.566929;stroke-linecap:butt;stroke-linejoin:miter;stroke:rgb(0%,0%,0%);stroke-opacity:1;stroke-miterlimit:10;" d="M 21.259766 56.720703 C 21.259766 42.519531 14.173828 42.519531 14.173828 28.318359 " transform="matrix(2,0,0,2,59,8)"/>
<path style="fill:none;stroke-width:0.566929;stroke-linecap:butt;stroke-linejoin:miter;stroke:rgb(0%,0%,0%);stroke-opacity:1;stroke-miterlimit:10;" d="M -7.085938 56.720703 C -7.085938 52.806641 -10.259766 49.634766 -14.173828 49.634766 C -18.087891 49.634766 -21.259766 52.806641 -21.259766 56.720703 " transform="matrix(2,0,0,2,59,8)"/>
<path style="fill:none;stroke-width:0.566929;stroke-linecap:butt;stroke-linejoin:miter;stroke:rgb(100%,0%,0%);stroke-opacity:0.5;stroke-miterlimit:10;" d="M -2.833984 71.326172 L 2.833984 65.658203 " transform="matrix(2,0,0,2,59,8)"/>
<path style="fill:none;stroke-width:0.566929;stroke-linecap:butt;stroke-linejoin:miter;stroke:rgb(100%,0%,0%);stroke-opacity:0.5;stroke-miterlimit:10;" d="M 2.833984 71.326172 L -2.833984 65.658203 " transform="matrix(2,0,0,2,59,8)"/>
<path style="fill-rule:nonzero;fill:rgb(50%,50%,0%);fill-opacity:0.1;stroke-width:0.566929;stroke-linecap:butt;stroke-linejoin:miter;stroke:rgb(100%,0%,0%);stroke-opacity:0.5;stroke-miterlimit:10;" d="M -28.345703 85.039062 L 28.345703 85.039062 L 28.345703 56.693359 L -28.345703 56.693359 Z M -28.345703 85.039062 " transform="matrix(2,0,0,2,59,8)"/>
<path style="fill:none;stroke-width:0.566929;stroke-linecap:butt;stroke-linejoin:miter;stroke:rgb(0%,0%,0%);stroke-opacity:1;stroke-miterlimit:10;" d="M -21.259766 56.664062 C -21.259766 68.40625 -11.742188 77.923828 0 77.923828 C 11.742188 77.923828 21.259766 68.40625 21.259766 56.664062 " transform="matrix(2,0,0,2,59,8)"/>
<path style="fill:none;stroke-width:0.566929;stroke-linecap:butt;stroke-linejoin:miter;stroke:rgb(0%,0%,0%);stroke-opacity:1;stroke-miterlimit:10;" d="M -7.085938 56.664062 C -7.085938 60.578125 -3.914062 63.751953 0 63.751953 C 3.914062 63.751953 7.085938 60.578125 7.085938 56.664062 " transform="matrix(2,0,0,2,59,8)"/>
</g>
</svg>
