<?xml version="1.0" encoding="UTF-8"?>
<svg xmlns="http://www.w3.org/2000/svg" xmlns:xlink="http://www.w3.org/1999/xlink" width="175pt" height="175pt" viewBox="0 0 175 175" version="1.1">
<g id="surface396">
<path style="fill:none;stroke-width:0.566929;stroke-linecap:butt;stroke-linejoin:miter;stroke:rgb(0%,0%,0%);stroke-opacity:1;stroke-miterlimit:10;" d="M 28.345703 14.173828 C 18.425781 18.433594 14.173828 24.115234 14.173828 28.375 " transform="matrix(2,0,0,2,-26,-26)"/>
<path style="fill:none;stroke-width:0.566929;stroke-linecap:butt;stroke-linejoin:miter;stroke:rgb(0%,0%,0%);stroke-opacity:1;stroke-miterlimit:10;" d="M 28.345703 14.173828 C 38.267578 18.433594 42.519531 24.115234 42.519531 28.375 " transform="matrix(2,0,0,2,-26,-26)"/>
<path style=" stroke:none;fill-rule:nonzero;fill:rgb(0%,0%,0%);fill-opacity:1;" d="M 32.960938 2.347656 C 32.960938 -0.675781 28.425781 -0.675781 28.425781 2.347656 C 28.425781 5.371094 32.960938 5.371094 32.960938 2.347656 Z M 32.960938 2.347656 "/>
<path style="fill:none;stroke-width:0.566929;stroke-linecap:butt;stroke-linejoin:miter;stroke:rgb(0%,0%,0%);stroke-opacity:1;stroke-miterlimit:10;" d="M 70.865234 14.173828 C 70.865234 18.433594 70.865234 24.115234 70.865234 28.375 " transform="matrix(2,0,0,2,-26,-26)"/>
<path style=" stroke:none;fill-rule:nonzero;fill:rgb(0%,0%,0%);fill-opacity:1;" d="M 118 2.347656 C 118 -0.675781 113.464844 -0.675781 113.464844 2.347656 C 113.464844 5.371094 118 5.371094 118 2.347656 Z M 118 2.347656 "/>
<path style="fill:none;stroke-width:0.566929;stroke-linecap:butt;stroke-linejoin:miter;stroke:rgb(0%,0%,0%);stroke-opacity:1;stroke-miterlimit:10;" d="M 99.212891 14.173828 C 99.212891 18.433594 99.212891 24.115234 99.212891 28.375 " transform="matrix(2,0,0,2,-26,-26)"/>
<path style=" stroke:none;fill-rule:nonzero;fill:rgb(0%,0%,0%);fill-opacity:1;" d="M 174.691406 2.347656 C 174.691406 -0.675781 170.15625 -0.675781 170.15625 2.347656 C 170.15625 5.371094 174.691406 5.371094 174.691406 2.347656 Z M 174.691406 2.347656 "/>
<path style="fill:none;stroke-width:0.566929;stroke-linecap:butt;stroke-linejoin:miter;stroke:rgb(0%,0%,0%);stroke-opacity:1;stroke-miterlimit:10;" d="M 28.345703 42.519531 C 18.425781 38.259766 14.173828 32.578125 14.173828 28.318359 " transform="matrix(2,0,0,2,-26,-26)"/>
<path style="fill:none;stroke-width:0.566929;stroke-linecap:butt;stroke-linejoin:miter;stroke:rgb(0%,0%,0%);stroke-opacity:1;stroke-miterlimit:10;" d="M 28.345703 42.519531 C 38.267578 38.259766 42.519531 32.578125 42.519531 28.318359 " transform="matrix(2,0,0,2,-26,-26)"/>
<path style="fill:none;stroke-width:0.566929;stroke-linecap:butt;stroke-linejoin:miter;stroke:rgb(0%,0%,0%);stroke-opacity:1;stroke-miterlimit:10;" d="M 28.345703 42.519531 C 18.425781 46.779297 14.173828 52.460938 14.173828 56.720703 " transform="matrix(2,0,0,2,-26,-26)"/>
<path style="fill:none;stroke-width:0.566929;stroke-linecap:butt;stroke-linejoin:miter;stroke:rgb(0%,0%,0%);stroke-opacity:1;stroke-miterlimit:10;" d="M 28.345703 42.519531 C 38.267578 46.779297 42.519531 52.460938 42.519531 56.720703 " transform="matrix(2,0,0,2,-26,-26)"/>
<path style=" stroke:none;fill-rule:nonzero;fill:rgb(0%,0%,0%);fill-opacity:1;" d="M 32.960938 59.039062 C 32.960938 56.015625 28.425781 56.015625 28.425781 59.039062 C 28.425781 62.0625 32.960938 62.0625 32.960938 59.039062 Z M 32.960938 59.039062 "/>
<path style="fill:none;stroke-width:0.566929;stroke-linecap:butt;stroke-linejoin:miter;stroke:rgb(0%,0%,0%);stroke-opacity:1;stroke-miterlimit:10;" d="M 70.865234 42.519531 C 70.865234 38.259766 70.865234 32.578125 70.865234 28.318359 " transform="matrix(2,0,0,2,-26,-26)"/>
<path style="fill:none;stroke-width:0.566929;stroke-linecap:butt;stroke-linejoin:miter;stroke:rgb(0%,0%,0%);stroke-opacity:1;stroke-miterlimit:10;" d="M 70.865234 42.519531 C 70.865234 46.779297 70.865234 52.460938 70.865234 56.720703 " transform="matrix(2,0,0,2,-26,-26)"/>
<path style=" stroke:none;fill-rule:nonzero;fill:rgb(0%,0%,0%);fill-opacity:1;" d="M 118 59.039062 C 118 56.015625 113.464844 56.015625 113.464844 59.039062 C 113.464844 62.0625 118 62.0625 118 59.039062 Z M 118 59.039062 "/>
<path style="fill:none;stroke-width:0.566929;stroke-linecap:butt;stroke-linejoin:miter;stroke:rgb(0%,0%,0%);stroke-opacity:1;stroke-miterlimit:10;" d="M 40.730469 70.865234 C 22.140625 66.605469 14.173828 60.925781 14.173828 56.664062 " transform="matrix(2,0,0,2,-26,-26)"/>
<path style="fill:none;stroke-width:0.566929;stroke-linecap:butt;stroke-linejoin:miter;stroke:rgb(0%,0%,0%);stroke-opacity:1;stroke-miterlimit:10;" d="M 40.730469 70.865234 C 41.982422 66.605469 42.519531 60.925781 42.519531 56.664062 " transform="matrix(2,0,0,2,-26,-26)"/>
<path style="fill:none;stroke-width:0.566929;stroke-linecap:butt;stroke-linejoin:miter;stroke:rgb(0%,0%,0%);stroke-opacity:1;stroke-miterlimit:10;" d="M 40.730469 70.865234 C 61.826172 66.605469 70.865234 60.925781 70.865234 56.664062 " transform="matrix(2,0,0,2,-26,-26)"/>
<path style="fill:none;stroke-width:0.566929;stroke-linecap:butt;stroke-linejoin:miter;stroke:rgb(0%,0%,0%);stroke-opacity:1;stroke-miterlimit:10;" d="M 40.730469 70.865234 C 36.970703 75.126953 35.361328 80.806641 35.361328 85.068359 " transform="matrix(2,0,0,2,-26,-26)"/>
<path style=" stroke:none;fill-rule:nonzero;fill:rgb(0%,0%,0%);fill-opacity:1;" d="M 57.726562 115.730469 C 57.726562 112.707031 53.191406 112.707031 53.191406 115.730469 C 53.191406 118.757812 57.726562 118.757812 57.726562 115.730469 Z M 57.726562 115.730469 "/>
<path style="fill:none;stroke-width:0.566929;stroke-linecap:butt;stroke-linejoin:miter;stroke:rgb(0%,0%,0%);stroke-opacity:1;stroke-miterlimit:10;" d="M 96.224609 56.693359 C 98.316406 48.179688 99.212891 36.830078 99.212891 28.318359 " transform="matrix(2,0,0,2,-26,-26)"/>
<path style="fill:none;stroke-width:0.566929;stroke-linecap:butt;stroke-linejoin:miter;stroke:rgb(0%,0%,0%);stroke-opacity:1;stroke-miterlimit:10;" d="M 96.224609 56.693359 C 94.132812 65.205078 93.234375 76.554688 93.234375 85.068359 " transform="matrix(2,0,0,2,-26,-26)"/>
<path style=" stroke:none;fill-rule:nonzero;fill:rgb(0%,0%,0%);fill-opacity:1;" d="M 168.714844 87.386719 C 168.714844 84.363281 164.179688 84.363281 164.179688 87.386719 C 164.179688 90.410156 168.714844 90.410156 168.714844 87.386719 Z M 168.714844 87.386719 "/>
<path style="fill:none;stroke-width:0.566929;stroke-linecap:butt;stroke-linejoin:miter;stroke:rgb(0%,0%,0%);stroke-opacity:1;stroke-miterlimit:10;" d="M 64.298828 99.212891 C 44.041016 94.951172 35.361328 89.271484 35.361328 85.011719 " transform="matrix(2,0,0,2,-26,-26)"/>
<path style="fill:none;stroke-width:0.566929;stroke-linecap:butt;stroke-linejoin:miter;stroke:rgb(0%,0%,0%);stroke-opacity:1;stroke-miterlimit:10;" d="M 64.298828 99.212891 C 84.554688 94.951172 93.234375 89.271484 93.234375 85.011719 " transform="matrix(2,0,0,2,-26,-26)"/>
<path style=" stroke:none;fill-rule:nonzero;fill:rgb(0%,0%,0%);fill-opacity:1;" d="M 104.863281 172.425781 C 104.863281 169.402344 100.328125 169.402344 100.328125 172.425781 C 100.328125 175.449219 104.863281 175.449219 104.863281 172.425781 Z M 104.863281 172.425781 "/>
</g>
</svg>
