<?xml version="1.0" encoding="UTF-8"?>
<svg xmlns="http://www.w3.org/2000/svg" xmlns:xlink="http://www.w3.org/1999/xlink" width="376pt" height="114pt" viewBox="0 0 376 114" version="1.1">
<g id="surface411">
<path style="fill:none;stroke-width:0.566929;stroke-linecap:butt;stroke-linejoin:miter;stroke:rgb(0%,0%,0%);stroke-opacity:1;stroke-miterlimit:10;" d="M 14.173828 -28.375 L 14.173828 0.0292969 " transform="matrix(2,0,0,2,-26,57)"/>
<path style="fill:none;stroke-width:0.566929;stroke-linecap:butt;stroke-linejoin:miter;stroke:rgb(0%,0%,0%);stroke-opacity:1;stroke-miterlimit:10;" d="M 70.865234 0.0292969 C 70.865234 -7.798828 64.521484 -14.144531 56.693359 -14.144531 C 48.865234 -14.144531 42.519531 -7.798828 42.519531 0.0292969 " transform="matrix(2,0,0,2,-26,57)"/>
<path style="fill:none;stroke-width:0.566929;stroke-linecap:butt;stroke-linejoin:miter;stroke:rgb(0%,0%,0%);stroke-opacity:1;stroke-miterlimit:10;" d="M 14.173828 -0.0292969 C 14.173828 7.798828 20.519531 14.144531 28.345703 14.144531 C 36.173828 14.144531 42.519531 7.798828 42.519531 -0.0292969 " transform="matrix(2,0,0,2,-26,57)"/>
<path style="fill:none;stroke-width:0.566929;stroke-linecap:butt;stroke-linejoin:miter;stroke:rgb(0%,0%,0%);stroke-opacity:1;stroke-miterlimit:10;" d="M 70.865234 -0.0292969 L 70.865234 28.375 " transform="matrix(2,0,0,2,-26,57)"/>
<path style=" stroke:none;fill-rule:nonzero;fill:rgb(0%,0%,0%);fill-opacity:1;" d="M 157.640625 54.113281 C 157.953125 54.113281 158.328125 54.113281 158.328125 53.738281 C 158.328125 53.332031 157.953125 53.332031 157.671875 53.332031 L 145.734375 53.332031 C 145.453125 53.332031 145.078125 53.332031 145.078125 53.738281 C 145.078125 54.113281 145.453125 54.113281 145.734375 54.113281 Z M 157.671875 57.988281 C 157.953125 57.988281 158.328125 57.988281 158.328125 57.582031 C 158.328125 57.207031 157.953125 57.207031 157.640625 57.207031 L 145.734375 57.207031 C 145.453125 57.207031 145.078125 57.207031 145.078125 57.582031 C 145.078125 57.988281 145.453125 57.988281 145.734375 57.988281 Z M 157.671875 57.988281 "/>
<path style="fill:none;stroke-width:0.566929;stroke-linecap:butt;stroke-linejoin:miter;stroke:rgb(0%,0%,0%);stroke-opacity:1;stroke-miterlimit:10;" d="M 106.837891 -28.375 L 106.837891 28.375 " transform="matrix(2,0,0,2,-26,57)"/>
<path style=" stroke:none;fill-rule:nonzero;fill:rgb(0%,0%,0%);fill-opacity:1;" d="M 229.585938 54.113281 C 229.898438 54.113281 230.273438 54.113281 230.273438 53.738281 C 230.273438 53.332031 229.898438 53.332031 229.617188 53.332031 L 217.679688 53.332031 C 217.398438 53.332031 217.023438 53.332031 217.023438 53.738281 C 217.023438 54.113281 217.398438 54.113281 217.679688 54.113281 Z M 229.617188 57.988281 C 229.898438 57.988281 230.273438 57.988281 230.273438 57.582031 C 230.273438 57.207031 229.898438 57.207031 229.585938 57.207031 L 217.679688 57.207031 C 217.398438 57.207031 217.023438 57.207031 217.023438 57.582031 C 217.023438 57.988281 217.398438 57.988281 217.679688 57.988281 Z M 229.617188 57.988281 "/>
<path style="fill:none;stroke-width:0.566929;stroke-linecap:butt;stroke-linejoin:miter;stroke:rgb(0%,0%,0%);stroke-opacity:1;stroke-miterlimit:10;" d="M 171.15625 0.0292969 C 171.15625 -7.798828 164.810547 -14.144531 156.982422 -14.144531 C 149.154297 -14.144531 142.808594 -7.798828 142.808594 0.0292969 " transform="matrix(2,0,0,2,-26,57)"/>
<path style="fill:none;stroke-width:0.566929;stroke-linecap:butt;stroke-linejoin:miter;stroke:rgb(0%,0%,0%);stroke-opacity:1;stroke-miterlimit:10;" d="M 199.501953 -28.375 L 199.501953 0.0292969 " transform="matrix(2,0,0,2,-26,57)"/>
<path style="fill:none;stroke-width:0.566929;stroke-linecap:butt;stroke-linejoin:miter;stroke:rgb(0%,0%,0%);stroke-opacity:1;stroke-miterlimit:10;" d="M 142.808594 -0.0292969 L 142.808594 28.375 " transform="matrix(2,0,0,2,-26,57)"/>
<path style="fill:none;stroke-width:0.566929;stroke-linecap:butt;stroke-linejoin:miter;stroke:rgb(0%,0%,0%);stroke-opacity:1;stroke-miterlimit:10;" d="M 171.15625 -0.0292969 C 171.15625 7.798828 177.501953 14.144531 185.328125 14.144531 C 193.15625 14.144531 199.501953 7.798828 199.501953 -0.0292969 " transform="matrix(2,0,0,2,-26,57)"/>
</g>
</svg>
