<?xml version="1.0" encoding="UTF-8"?>
<svg xmlns="http://www.w3.org/2000/svg" xmlns:xlink="http://www.w3.org/1999/xlink" width="175pt" height="175pt" viewBox="0 0 175 175" version="1.1">
<g id="surface409">
<path style="fill:none;stroke-width:0.566929;stroke-linecap:butt;stroke-linejoin:miter;stroke:rgb(0%,0%,0%);stroke-opacity:1;stroke-miterlimit:10;" d="M 28.345703 14.173828 C 18.425781 18.433594 14.173828 24.115234 14.173828 28.375 " transform="matrix(2,0,0,2,-26,-26)"/>
<path style="fill:none;stroke-width:0.566929;stroke-linecap:butt;stroke-linejoin:miter;stroke:rgb(0%,0%,0%);stroke-opacity:1;stroke-miterlimit:10;" d="M 28.345703 14.173828 C 38.267578 18.433594 42.519531 24.115234 42.519531 28.375 " transform="matrix(2,0,0,2,-26,-26)"/>
<path style="fill:none;stroke-width:0.566929;stroke-linecap:butt;stroke-linejoin:miter;stroke:rgb(0%,0%,0%);stroke-opacity:1;stroke-miterlimit:10;" d="M 70.865234 14.173828 C 70.865234 18.433594 70.865234 24.115234 70.865234 28.375 " transform="matrix(2,0,0,2,-26,-26)"/>
<path style="fill:none;stroke-width:0.566929;stroke-linecap:butt;stroke-linejoin:miter;stroke:rgb(0%,0%,0%);stroke-opacity:1;stroke-miterlimit:10;" d="M 99.212891 14.173828 C 99.212891 18.433594 99.212891 24.115234 99.212891 28.375 " transform="matrix(2,0,0,2,-26,-26)"/>
<path style="fill:none;stroke-width:0.566929;stroke-linecap:butt;stroke-linejoin:miter;stroke:rgb(0%,0%,0%);stroke-opacity:1;stroke-miterlimit:10;" d="M 14.173828 28.318359 C 14.173828 32.578125 18.425781 38.259766 28.345703 42.519531 " transform="matrix(2,0,0,2,-26,-26)"/>
<path style="fill:none;stroke-width:0.566929;stroke-linecap:butt;stroke-linejoin:miter;stroke:rgb(0%,0%,0%);stroke-opacity:1;stroke-miterlimit:10;" d="M 42.519531 28.318359 C 42.519531 32.578125 38.267578 38.259766 28.345703 42.519531 " transform="matrix(2,0,0,2,-26,-26)"/>
<path style="fill:none;stroke-width:0.566929;stroke-linecap:butt;stroke-linejoin:miter;stroke:rgb(0%,0%,0%);stroke-opacity:1;stroke-miterlimit:10;" d="M 28.345703 42.519531 C 18.425781 46.779297 14.173828 52.460938 14.173828 56.720703 " transform="matrix(2,0,0,2,-26,-26)"/>
<path style="fill:none;stroke-width:0.566929;stroke-linecap:butt;stroke-linejoin:miter;stroke:rgb(0%,0%,0%);stroke-opacity:1;stroke-miterlimit:10;" d="M 28.345703 42.519531 C 38.267578 46.779297 42.519531 52.460938 42.519531 56.720703 " transform="matrix(2,0,0,2,-26,-26)"/>
<path style="fill:none;stroke-width:0.566929;stroke-linecap:butt;stroke-linejoin:miter;stroke:rgb(0%,0%,0%);stroke-opacity:1;stroke-miterlimit:10;" d="M 70.865234 28.318359 C 70.865234 32.578125 70.865234 38.259766 70.865234 42.519531 " transform="matrix(2,0,0,2,-26,-26)"/>
<path style="fill:none;stroke-width:0.566929;stroke-linecap:butt;stroke-linejoin:miter;stroke:rgb(0%,0%,0%);stroke-opacity:1;stroke-miterlimit:10;" d="M 70.865234 42.519531 C 70.865234 46.779297 70.865234 52.460938 70.865234 56.720703 " transform="matrix(2,0,0,2,-26,-26)"/>
<path style="fill:none;stroke-width:0.566929;stroke-linecap:butt;stroke-linejoin:miter;stroke:rgb(0%,0%,0%);stroke-opacity:1;stroke-miterlimit:10;" d="M 14.173828 56.664062 C 14.173828 60.925781 22.677734 66.605469 42.519531 70.865234 " transform="matrix(2,0,0,2,-26,-26)"/>
<path style="fill:none;stroke-width:0.566929;stroke-linecap:butt;stroke-linejoin:miter;stroke:rgb(0%,0%,0%);stroke-opacity:1;stroke-miterlimit:10;" d="M 42.519531 56.664062 C 42.519531 60.925781 42.519531 66.605469 42.519531 70.865234 " transform="matrix(2,0,0,2,-26,-26)"/>
<path style="fill:none;stroke-width:0.566929;stroke-linecap:butt;stroke-linejoin:miter;stroke:rgb(0%,0%,0%);stroke-opacity:1;stroke-miterlimit:10;" d="M 70.865234 56.664062 C 70.865234 60.925781 62.361328 66.605469 42.519531 70.865234 " transform="matrix(2,0,0,2,-26,-26)"/>
<path style="fill:none;stroke-width:0.566929;stroke-linecap:butt;stroke-linejoin:miter;stroke:rgb(0%,0%,0%);stroke-opacity:1;stroke-miterlimit:10;" d="M 42.519531 70.865234 C 42.519531 75.126953 42.519531 80.806641 42.519531 85.068359 " transform="matrix(2,0,0,2,-26,-26)"/>
<path style="fill:none;stroke-width:0.566929;stroke-linecap:butt;stroke-linejoin:miter;stroke:rgb(0%,0%,0%);stroke-opacity:1;stroke-miterlimit:10;" d="M 99.212891 28.318359 C 99.212891 36.830078 99.212891 48.179688 99.212891 56.693359 " transform="matrix(2,0,0,2,-26,-26)"/>
<path style="fill:none;stroke-width:0.566929;stroke-linecap:butt;stroke-linejoin:miter;stroke:rgb(0%,0%,0%);stroke-opacity:1;stroke-miterlimit:10;" d="M 99.212891 56.693359 C 99.212891 65.205078 99.212891 76.554688 99.212891 85.068359 " transform="matrix(2,0,0,2,-26,-26)"/>
<path style="fill:none;stroke-width:0.566929;stroke-linecap:butt;stroke-linejoin:miter;stroke:rgb(0%,0%,0%);stroke-opacity:1;stroke-miterlimit:10;" d="M 42.519531 85.011719 C 42.519531 89.271484 51.023438 94.951172 70.865234 99.212891 " transform="matrix(2,0,0,2,-26,-26)"/>
<path style="fill:none;stroke-width:0.566929;stroke-linecap:butt;stroke-linejoin:miter;stroke:rgb(0%,0%,0%);stroke-opacity:1;stroke-miterlimit:10;" d="M 99.212891 85.011719 C 99.212891 89.271484 90.708984 94.951172 70.865234 99.212891 " transform="matrix(2,0,0,2,-26,-26)"/>
</g>
</svg>
