<?xml version="1.0" encoding="UTF-8"?>
<svg xmlns="http://www.w3.org/2000/svg" xmlns:xlink="http://www.w3.org/1999/xlink" width="438pt" height="123pt" viewBox="0 0 438 123" version="1.1">
<g id="surface381">
<path style="fill:none;stroke-width:0.566929;stroke-linecap:butt;stroke-linejoin:miter;stroke:rgb(100%,0%,0%);stroke-opacity:0.5;stroke-miterlimit:10;" d="M -2.833984 2.833984 L 2.833984 -2.833984 " transform="matrix(2,0,0,2,8,64)"/>
<path style="fill:none;stroke-width:0.566929;stroke-linecap:butt;stroke-linejoin:miter;stroke:rgb(100%,0%,0%);stroke-opacity:0.5;stroke-miterlimit:10;" d="M 2.833984 2.833984 L -2.833984 -2.833984 " transform="matrix(2,0,0,2,8,64)"/>
<path style="fill-rule:nonzero;fill:rgb(50%,50%,0%);fill-opacity:0.1;stroke-width:0.566929;stroke-linecap:butt;stroke-linejoin:miter;stroke:rgb(100%,0%,0%);stroke-opacity:0.5;stroke-miterlimit:10;" d="M 0 28.345703 L 213.675781 28.345703 L 213.675781 -28.345703 L 0 -28.345703 Z M 0 28.345703 " transform="matrix(2,0,0,2,8,64)"/>
<path style="fill:none;stroke-width:0.566929;stroke-linecap:butt;stroke-linejoin:miter;stroke:rgb(100%,0%,0%);stroke-opacity:0.5;stroke-miterlimit:10;" d="M 39.685547 2.833984 L 45.353516 -2.833984 " transform="matrix(2,0,0,2,8,64)"/>
<path style="fill:none;stroke-width:0.566929;stroke-linecap:butt;stroke-linejoin:miter;stroke:rgb(100%,0%,0%);stroke-opacity:0.5;stroke-miterlimit:10;" d="M 45.353516 2.833984 L 39.685547 -2.833984 " transform="matrix(2,0,0,2,8,64)"/>
<path style="fill-rule:nonzero;fill:rgb(50%,50%,0%);fill-opacity:0.1;stroke-width:0.566929;stroke-linecap:butt;stroke-linejoin:miter;stroke:rgb(100%,0%,0%);stroke-opacity:0.5;stroke-miterlimit:10;" d="M 0 28.345703 L 85.039062 28.345703 L 85.039062 -28.345703 L 0 -28.345703 Z M 0 28.345703 " transform="matrix(2,0,0,2,8,64)"/>
<path style="fill:none;stroke-width:0.566929;stroke-linecap:butt;stroke-linejoin:miter;stroke:rgb(100%,0%,0%);stroke-opacity:0.5;stroke-miterlimit:10;" d="M -2.833984 -25.511719 L 2.833984 -31.181641 " transform="matrix(2,0,0,2,8,64)"/>
<path style="fill:none;stroke-width:0.566929;stroke-linecap:butt;stroke-linejoin:miter;stroke:rgb(100%,0%,0%);stroke-opacity:0.5;stroke-miterlimit:10;" d="M 2.833984 -25.511719 L -2.833984 -31.181641 " transform="matrix(2,0,0,2,8,64)"/>
<path style="fill-rule:nonzero;fill:rgb(50%,50%,0%);fill-opacity:0.1;stroke-width:0.566929;stroke-linecap:butt;stroke-linejoin:miter;stroke:rgb(100%,0%,0%);stroke-opacity:0.5;stroke-miterlimit:10;" d="M 0 28.345703 L 85.039062 28.345703 L 85.039062 -28.345703 L 0 -28.345703 Z M 0 28.345703 " transform="matrix(2,0,0,2,8,64)"/>
<path style="fill:none;stroke-width:0.566929;stroke-linecap:butt;stroke-linejoin:miter;stroke:rgb(100%,0%,0%);stroke-opacity:0.5;stroke-miterlimit:10;" d="M -2.833984 -11.451172 L 2.833984 -17.119141 " transform="matrix(2,0,0,2,8,64)"/>
<path style="fill:none;stroke-width:0.566929;stroke-linecap:butt;stroke-linejoin:miter;stroke:rgb(100%,0%,0%);stroke-opacity:0.5;stroke-miterlimit:10;" d="M 2.833984 -11.451172 L -2.833984 -17.119141 " transform="matrix(2,0,0,2,8,64)"/>
<path style="fill-rule:nonzero;fill:rgb(50%,50%,0%);fill-opacity:0.1;stroke-width:0.566929;stroke-linecap:butt;stroke-linejoin:miter;stroke:rgb(100%,0%,0%);stroke-opacity:0.5;stroke-miterlimit:10;" d="M 0 0 L 85.039062 0 L 85.039062 -28.345703 L 0 -28.345703 Z M 0 0 " transform="matrix(2,0,0,2,8,64)"/>
<path style="fill:none;stroke-width:0.566929;stroke-linecap:butt;stroke-linejoin:miter;stroke:rgb(100%,0%,0%);stroke-opacity:0.5;stroke-miterlimit:10;" d="M 11.599609 -11.451172 L 17.267578 -17.119141 " transform="matrix(2,0,0,2,8,64)"/>
<path style="fill:none;stroke-width:0.566929;stroke-linecap:butt;stroke-linejoin:miter;stroke:rgb(100%,0%,0%);stroke-opacity:0.5;stroke-miterlimit:10;" d="M 17.267578 -11.451172 L 11.599609 -17.119141 " transform="matrix(2,0,0,2,8,64)"/>
<path style="fill-rule:nonzero;fill:rgb(50%,50%,0%);fill-opacity:0.1;stroke-width:0.566929;stroke-linecap:butt;stroke-linejoin:miter;stroke:rgb(100%,0%,0%);stroke-opacity:0.5;stroke-miterlimit:10;" d="M 0 0 L 28.345703 0 L 28.345703 -28.345703 L 0 -28.345703 Z M 0 0 " transform="matrix(2,0,0,2,8,64)"/>
<path style="fill:none;stroke-width:0.566929;stroke-linecap:butt;stroke-linejoin:miter;stroke:rgb(0%,0%,0%);stroke-opacity:1;stroke-miterlimit:10;" d="M 14.173828 -28.375 L 14.173828 0.0292969 " transform="matrix(2,0,0,2,8,64)"/>
<path style="fill:none;stroke-width:0.566929;stroke-linecap:butt;stroke-linejoin:miter;stroke:rgb(100%,0%,0%);stroke-opacity:0.5;stroke-miterlimit:10;" d="M 55.136719 -11.451172 L 60.806641 -17.119141 " transform="matrix(2,0,0,2,8,64)"/>
<path style="fill:none;stroke-width:0.566929;stroke-linecap:butt;stroke-linejoin:miter;stroke:rgb(100%,0%,0%);stroke-opacity:0.5;stroke-miterlimit:10;" d="M 60.806641 -11.451172 L 55.136719 -17.119141 " transform="matrix(2,0,0,2,8,64)"/>
<path style="fill-rule:nonzero;fill:rgb(50%,50%,0%);fill-opacity:0.1;stroke-width:0.566929;stroke-linecap:butt;stroke-linejoin:miter;stroke:rgb(100%,0%,0%);stroke-opacity:0.5;stroke-miterlimit:10;" d="M 28.345703 0 L 85.039062 0 L 85.039062 -28.345703 L 28.345703 -28.345703 Z M 28.345703 0 " transform="matrix(2,0,0,2,8,64)"/>
<path style="fill:none;stroke-width:0.566929;stroke-linecap:butt;stroke-linejoin:miter;stroke:rgb(0%,0%,0%);stroke-opacity:1;stroke-miterlimit:10;" d="M 70.865234 0.0292969 C 70.865234 -7.798828 64.521484 -14.144531 56.693359 -14.144531 C 48.865234 -14.144531 42.519531 -7.798828 42.519531 0.0292969 " transform="matrix(2,0,0,2,8,64)"/>
<path style="fill:none;stroke-width:0.566929;stroke-linecap:butt;stroke-linejoin:miter;stroke:rgb(100%,0%,0%);stroke-opacity:0.5;stroke-miterlimit:10;" d="M -2.833984 17.294922 L 2.833984 11.625 " transform="matrix(2,0,0,2,8,64)"/>
<path style="fill:none;stroke-width:0.566929;stroke-linecap:butt;stroke-linejoin:miter;stroke:rgb(100%,0%,0%);stroke-opacity:0.5;stroke-miterlimit:10;" d="M 2.833984 17.294922 L -2.833984 11.625 " transform="matrix(2,0,0,2,8,64)"/>
<path style="fill-rule:nonzero;fill:rgb(50%,50%,0%);fill-opacity:0.1;stroke-width:0.566929;stroke-linecap:butt;stroke-linejoin:miter;stroke:rgb(100%,0%,0%);stroke-opacity:0.5;stroke-miterlimit:10;" d="M 0 28.345703 L 85.039062 28.345703 L 85.039062 0 L 0 0 Z M 0 28.345703 " transform="matrix(2,0,0,2,8,64)"/>
<path style="fill:none;stroke-width:0.566929;stroke-linecap:butt;stroke-linejoin:miter;stroke:rgb(100%,0%,0%);stroke-opacity:0.5;stroke-miterlimit:10;" d="M 24.951172 17.294922 L 30.621094 11.625 " transform="matrix(2,0,0,2,8,64)"/>
<path style="fill:none;stroke-width:0.566929;stroke-linecap:butt;stroke-linejoin:miter;stroke:rgb(100%,0%,0%);stroke-opacity:0.5;stroke-miterlimit:10;" d="M 30.621094 17.294922 L 24.951172 11.625 " transform="matrix(2,0,0,2,8,64)"/>
<path style="fill-rule:nonzero;fill:rgb(50%,50%,0%);fill-opacity:0.1;stroke-width:0.566929;stroke-linecap:butt;stroke-linejoin:miter;stroke:rgb(100%,0%,0%);stroke-opacity:0.5;stroke-miterlimit:10;" d="M 0 28.345703 L 56.693359 28.345703 L 56.693359 0 L 0 0 Z M 0 28.345703 " transform="matrix(2,0,0,2,8,64)"/>
<path style="fill:none;stroke-width:0.566929;stroke-linecap:butt;stroke-linejoin:miter;stroke:rgb(0%,0%,0%);stroke-opacity:1;stroke-miterlimit:10;" d="M 14.173828 -0.0292969 C 14.173828 7.798828 20.519531 14.144531 28.345703 14.144531 C 36.173828 14.144531 42.519531 7.798828 42.519531 -0.0292969 " transform="matrix(2,0,0,2,8,64)"/>
<path style="fill:none;stroke-width:0.566929;stroke-linecap:butt;stroke-linejoin:miter;stroke:rgb(100%,0%,0%);stroke-opacity:0.5;stroke-miterlimit:10;" d="M 68.349609 17.294922 L 74.019531 11.625 " transform="matrix(2,0,0,2,8,64)"/>
<path style="fill:none;stroke-width:0.566929;stroke-linecap:butt;stroke-linejoin:miter;stroke:rgb(100%,0%,0%);stroke-opacity:0.5;stroke-miterlimit:10;" d="M 74.019531 17.294922 L 68.349609 11.625 " transform="matrix(2,0,0,2,8,64)"/>
<path style="fill-rule:nonzero;fill:rgb(50%,50%,0%);fill-opacity:0.1;stroke-width:0.566929;stroke-linecap:butt;stroke-linejoin:miter;stroke:rgb(100%,0%,0%);stroke-opacity:0.5;stroke-miterlimit:10;" d="M 56.693359 28.345703 L 85.039062 28.345703 L 85.039062 0 L 56.693359 0 Z M 56.693359 28.345703 " transform="matrix(2,0,0,2,8,64)"/>
<path style="fill:none;stroke-width:0.566929;stroke-linecap:butt;stroke-linejoin:miter;stroke:rgb(0%,0%,0%);stroke-opacity:1;stroke-miterlimit:10;" d="M 70.865234 -0.0292969 L 70.865234 28.375 " transform="matrix(2,0,0,2,8,64)"/>
<path style="fill:none;stroke-width:0.566929;stroke-linecap:butt;stroke-linejoin:miter;stroke:rgb(100%,0%,0%);stroke-opacity:0.5;stroke-miterlimit:10;" d="M 86.017578 2.833984 L 91.685547 -2.833984 " transform="matrix(2,0,0,2,8,64)"/>
<path style="fill:none;stroke-width:0.566929;stroke-linecap:butt;stroke-linejoin:miter;stroke:rgb(100%,0%,0%);stroke-opacity:0.5;stroke-miterlimit:10;" d="M 91.685547 2.833984 L 86.017578 -2.833984 " transform="matrix(2,0,0,2,8,64)"/>
<path style="fill-rule:nonzero;fill:rgb(50%,50%,0%);fill-opacity:0.1;stroke-width:0.566929;stroke-linecap:butt;stroke-linejoin:miter;stroke:rgb(100%,0%,0%);stroke-opacity:0.5;stroke-miterlimit:10;" d="M 85.039062 2.328125 L 92.664062 2.328125 L 92.664062 -2.328125 L 85.039062 -2.328125 Z M 85.039062 2.328125 " transform="matrix(2,0,0,2,8,64)"/>
<path style="fill:none;stroke-width:0.566929;stroke-linecap:butt;stroke-linejoin:miter;stroke:rgb(100%,0%,0%);stroke-opacity:0.5;stroke-miterlimit:10;" d="M 82.205078 5.162109 L 87.873047 -0.505859 " transform="matrix(2,0,0,2,8,64)"/>
<path style="fill:none;stroke-width:0.566929;stroke-linecap:butt;stroke-linejoin:miter;stroke:rgb(100%,0%,0%);stroke-opacity:0.5;stroke-miterlimit:10;" d="M 87.873047 5.162109 L 82.205078 -0.505859 " transform="matrix(2,0,0,2,8,64)"/>
<path style="fill-rule:nonzero;fill:rgb(50%,50%,0%);fill-opacity:0.1;stroke-width:0.566929;stroke-linecap:butt;stroke-linejoin:miter;stroke:rgb(100%,0%,0%);stroke-opacity:0.5;stroke-miterlimit:10;" d="M 85.039062 2.328125 L 92.664062 2.328125 L 92.664062 -2.328125 L 85.039062 -2.328125 Z M 85.039062 2.328125 " transform="matrix(2,0,0,2,8,64)"/>
<path style=" stroke:none;fill-rule:nonzero;fill:rgb(0%,0%,0%);fill-opacity:1;" d="M 191.640625 61.125 C 191.953125 61.125 192.328125 61.125 192.328125 60.75 C 192.328125 60.34375 191.953125 60.34375 191.671875 60.34375 L 179.734375 60.34375 C 179.453125 60.34375 179.078125 60.34375 179.078125 60.75 C 179.078125 61.125 179.453125 61.125 179.734375 61.125 Z M 191.671875 65 C 191.953125 65 192.328125 65 192.328125 64.59375 C 192.328125 64.21875 191.953125 64.21875 191.640625 64.21875 L 179.734375 64.21875 C 179.453125 64.21875 179.078125 64.21875 179.078125 64.59375 C 179.078125 65 179.453125 65 179.734375 65 Z M 191.671875 65 "/>
<path style="fill:none;stroke-width:0.566929;stroke-linecap:butt;stroke-linejoin:miter;stroke:rgb(0%,0%,0%);stroke-opacity:1;stroke-miterlimit:10;" d="M -0.000307276 -1.328125 L 7.624693 -1.328125 L 7.624693 -4.65625 L -0.000307276 -4.65625 Z M -0.000307276 -1.328125 " transform="matrix(2,0,0,2,178.07874,68.65625)"/>
<path style="fill:none;stroke-width:0.566929;stroke-linecap:butt;stroke-linejoin:miter;stroke:rgb(100%,0%,0%);stroke-opacity:0.5;stroke-miterlimit:10;" d="M 104.003906 2.833984 L 109.671875 -2.833984 " transform="matrix(2,0,0,2,8,64)"/>
<path style="fill:none;stroke-width:0.566929;stroke-linecap:butt;stroke-linejoin:miter;stroke:rgb(100%,0%,0%);stroke-opacity:0.5;stroke-miterlimit:10;" d="M 109.671875 2.833984 L 104.003906 -2.833984 " transform="matrix(2,0,0,2,8,64)"/>
<path style="fill-rule:nonzero;fill:rgb(50%,50%,0%);fill-opacity:0.1;stroke-width:0.566929;stroke-linecap:butt;stroke-linejoin:miter;stroke:rgb(100%,0%,0%);stroke-opacity:0.5;stroke-miterlimit:10;" d="M 92.664062 28.345703 L 121.011719 28.345703 L 121.011719 -28.345703 L 92.664062 -28.345703 Z M 92.664062 28.345703 " transform="matrix(2,0,0,2,8,64)"/>
<path style="fill:none;stroke-width:0.566929;stroke-linecap:butt;stroke-linejoin:miter;stroke:rgb(100%,0%,0%);stroke-opacity:0.5;stroke-miterlimit:10;" d="M 105.175781 2.833984 L 110.84375 -2.833984 " transform="matrix(2,0,0,2,8,64)"/>
<path style="fill:none;stroke-width:0.566929;stroke-linecap:butt;stroke-linejoin:miter;stroke:rgb(100%,0%,0%);stroke-opacity:0.5;stroke-miterlimit:10;" d="M 110.84375 2.833984 L 105.175781 -2.833984 " transform="matrix(2,0,0,2,8,64)"/>
<path style="fill-rule:nonzero;fill:rgb(50%,50%,0%);fill-opacity:0.1;stroke-width:0.566929;stroke-linecap:butt;stroke-linejoin:miter;stroke:rgb(100%,0%,0%);stroke-opacity:0.5;stroke-miterlimit:10;" d="M 92.664062 28.345703 L 121.011719 28.345703 L 121.011719 -28.345703 L 92.664062 -28.345703 Z M 92.664062 28.345703 " transform="matrix(2,0,0,2,8,64)"/>
<path style="fill:none;stroke-width:0.566929;stroke-linecap:butt;stroke-linejoin:miter;stroke:rgb(0%,0%,0%);stroke-opacity:1;stroke-miterlimit:10;" d="M 106.837891 -28.375 L 106.837891 28.375 " transform="matrix(2,0,0,2,8,64)"/>
<path style="fill:none;stroke-width:0.566929;stroke-linecap:butt;stroke-linejoin:miter;stroke:rgb(100%,0%,0%);stroke-opacity:0.5;stroke-miterlimit:10;" d="M 121.988281 2.833984 L 127.658203 -2.833984 " transform="matrix(2,0,0,2,8,64)"/>
<path style="fill:none;stroke-width:0.566929;stroke-linecap:butt;stroke-linejoin:miter;stroke:rgb(100%,0%,0%);stroke-opacity:0.5;stroke-miterlimit:10;" d="M 127.658203 2.833984 L 121.988281 -2.833984 " transform="matrix(2,0,0,2,8,64)"/>
<path style="fill-rule:nonzero;fill:rgb(50%,50%,0%);fill-opacity:0.1;stroke-width:0.566929;stroke-linecap:butt;stroke-linejoin:miter;stroke:rgb(100%,0%,0%);stroke-opacity:0.5;stroke-miterlimit:10;" d="M 121.011719 2.328125 L 128.636719 2.328125 L 128.636719 -2.328125 L 121.011719 -2.328125 Z M 121.011719 2.328125 " transform="matrix(2,0,0,2,8,64)"/>
<path style="fill:none;stroke-width:0.566929;stroke-linecap:butt;stroke-linejoin:miter;stroke:rgb(100%,0%,0%);stroke-opacity:0.5;stroke-miterlimit:10;" d="M 118.175781 5.162109 L 123.845703 -0.505859 " transform="matrix(2,0,0,2,8,64)"/>
<path style="fill:none;stroke-width:0.566929;stroke-linecap:butt;stroke-linejoin:miter;stroke:rgb(100%,0%,0%);stroke-opacity:0.5;stroke-miterlimit:10;" d="M 123.845703 5.162109 L 118.175781 -0.505859 " transform="matrix(2,0,0,2,8,64)"/>
<path style="fill-rule:nonzero;fill:rgb(50%,50%,0%);fill-opacity:0.1;stroke-width:0.566929;stroke-linecap:butt;stroke-linejoin:miter;stroke:rgb(100%,0%,0%);stroke-opacity:0.5;stroke-miterlimit:10;" d="M 121.011719 2.328125 L 128.636719 2.328125 L 128.636719 -2.328125 L 121.011719 -2.328125 Z M 121.011719 2.328125 " transform="matrix(2,0,0,2,8,64)"/>
<path style=" stroke:none;fill-rule:nonzero;fill:rgb(0%,0%,0%);fill-opacity:1;" d="M 263.585938 61.125 C 263.898438 61.125 264.273438 61.125 264.273438 60.75 C 264.273438 60.34375 263.898438 60.34375 263.617188 60.34375 L 251.679688 60.34375 C 251.398438 60.34375 251.023438 60.34375 251.023438 60.75 C 251.023438 61.125 251.398438 61.125 251.679688 61.125 Z M 263.617188 65 C 263.898438 65 264.273438 65 264.273438 64.59375 C 264.273438 64.21875 263.898438 64.21875 263.585938 64.21875 L 251.679688 64.21875 C 251.398438 64.21875 251.023438 64.21875 251.023438 64.59375 C 251.023438 65 251.398438 65 251.679688 65 Z M 263.617188 65 "/>
<path style="fill:none;stroke-width:0.566929;stroke-linecap:butt;stroke-linejoin:miter;stroke:rgb(0%,0%,0%);stroke-opacity:1;stroke-miterlimit:10;" d="M 0.000892241 -1.328125 L 7.625892 -1.328125 L 7.625892 -4.65625 L 0.000892241 -4.65625 Z M 0.000892241 -1.328125 " transform="matrix(2,0,0,2,250.021653,68.65625)"/>
<path style="fill:none;stroke-width:0.566929;stroke-linecap:butt;stroke-linejoin:miter;stroke:rgb(100%,0%,0%);stroke-opacity:0.5;stroke-miterlimit:10;" d="M 168.320312 2.833984 L 173.990234 -2.833984 " transform="matrix(2,0,0,2,8,64)"/>
<path style="fill:none;stroke-width:0.566929;stroke-linecap:butt;stroke-linejoin:miter;stroke:rgb(100%,0%,0%);stroke-opacity:0.5;stroke-miterlimit:10;" d="M 173.990234 2.833984 L 168.320312 -2.833984 " transform="matrix(2,0,0,2,8,64)"/>
<path style="fill-rule:nonzero;fill:rgb(50%,50%,0%);fill-opacity:0.1;stroke-width:0.566929;stroke-linecap:butt;stroke-linejoin:miter;stroke:rgb(100%,0%,0%);stroke-opacity:0.5;stroke-miterlimit:10;" d="M 128.636719 28.345703 L 213.675781 28.345703 L 213.675781 -28.345703 L 128.636719 -28.345703 Z M 128.636719 28.345703 " transform="matrix(2,0,0,2,8,64)"/>
<path style="fill:none;stroke-width:0.566929;stroke-linecap:butt;stroke-linejoin:miter;stroke:rgb(100%,0%,0%);stroke-opacity:0.5;stroke-miterlimit:10;" d="M 125.800781 -25.511719 L 131.470703 -31.181641 " transform="matrix(2,0,0,2,8,64)"/>
<path style="fill:none;stroke-width:0.566929;stroke-linecap:butt;stroke-linejoin:miter;stroke:rgb(100%,0%,0%);stroke-opacity:0.5;stroke-miterlimit:10;" d="M 131.470703 -25.511719 L 125.800781 -31.181641 " transform="matrix(2,0,0,2,8,64)"/>
<path style="fill-rule:nonzero;fill:rgb(50%,50%,0%);fill-opacity:0.1;stroke-width:0.566929;stroke-linecap:butt;stroke-linejoin:miter;stroke:rgb(100%,0%,0%);stroke-opacity:0.5;stroke-miterlimit:10;" d="M 128.636719 28.345703 L 213.675781 28.345703 L 213.675781 -28.345703 L 128.636719 -28.345703 Z M 128.636719 28.345703 " transform="matrix(2,0,0,2,8,64)"/>
<path style="fill:none;stroke-width:0.566929;stroke-linecap:butt;stroke-linejoin:miter;stroke:rgb(100%,0%,0%);stroke-opacity:0.5;stroke-miterlimit:10;" d="M 125.800781 -11.480469 L 131.470703 -17.148438 " transform="matrix(2,0,0,2,8,64)"/>
<path style="fill:none;stroke-width:0.566929;stroke-linecap:butt;stroke-linejoin:miter;stroke:rgb(100%,0%,0%);stroke-opacity:0.5;stroke-miterlimit:10;" d="M 131.470703 -11.480469 L 125.800781 -17.148438 " transform="matrix(2,0,0,2,8,64)"/>
<path style="fill-rule:nonzero;fill:rgb(50%,50%,0%);fill-opacity:0.1;stroke-width:0.566929;stroke-linecap:butt;stroke-linejoin:miter;stroke:rgb(100%,0%,0%);stroke-opacity:0.5;stroke-miterlimit:10;" d="M 128.636719 0 L 213.675781 0 L 213.675781 -28.345703 L 128.636719 -28.345703 Z M 128.636719 0 " transform="matrix(2,0,0,2,8,64)"/>
<path style="fill:none;stroke-width:0.566929;stroke-linecap:butt;stroke-linejoin:miter;stroke:rgb(100%,0%,0%);stroke-opacity:0.5;stroke-miterlimit:10;" d="M 151.474609 -11.480469 L 157.144531 -17.148438 " transform="matrix(2,0,0,2,8,64)"/>
<path style="fill:none;stroke-width:0.566929;stroke-linecap:butt;stroke-linejoin:miter;stroke:rgb(100%,0%,0%);stroke-opacity:0.5;stroke-miterlimit:10;" d="M 157.144531 -11.480469 L 151.474609 -17.148438 " transform="matrix(2,0,0,2,8,64)"/>
<path style="fill-rule:nonzero;fill:rgb(50%,50%,0%);fill-opacity:0.1;stroke-width:0.566929;stroke-linecap:butt;stroke-linejoin:miter;stroke:rgb(100%,0%,0%);stroke-opacity:0.5;stroke-miterlimit:10;" d="M 128.636719 0 L 185.328125 0 L 185.328125 -28.345703 L 128.636719 -28.345703 Z M 128.636719 0 " transform="matrix(2,0,0,2,8,64)"/>
<path style="fill:none;stroke-width:0.566929;stroke-linecap:butt;stroke-linejoin:miter;stroke:rgb(0%,0%,0%);stroke-opacity:1;stroke-miterlimit:10;" d="M 171.15625 0.0292969 C 171.15625 -7.798828 164.810547 -14.144531 156.982422 -14.144531 C 149.154297 -14.144531 142.808594 -7.798828 142.808594 0.0292969 " transform="matrix(2,0,0,2,8,64)"/>
<path style="fill:none;stroke-width:0.566929;stroke-linecap:butt;stroke-linejoin:miter;stroke:rgb(100%,0%,0%);stroke-opacity:0.5;stroke-miterlimit:10;" d="M 196.470703 -11.480469 L 202.140625 -17.148438 " transform="matrix(2,0,0,2,8,64)"/>
<path style="fill:none;stroke-width:0.566929;stroke-linecap:butt;stroke-linejoin:miter;stroke:rgb(100%,0%,0%);stroke-opacity:0.5;stroke-miterlimit:10;" d="M 202.140625 -11.480469 L 196.470703 -17.148438 " transform="matrix(2,0,0,2,8,64)"/>
<path style="fill-rule:nonzero;fill:rgb(50%,50%,0%);fill-opacity:0.1;stroke-width:0.566929;stroke-linecap:butt;stroke-linejoin:miter;stroke:rgb(100%,0%,0%);stroke-opacity:0.5;stroke-miterlimit:10;" d="M 185.328125 0 L 213.675781 0 L 213.675781 -28.345703 L 185.328125 -28.345703 Z M 185.328125 0 " transform="matrix(2,0,0,2,8,64)"/>
<path style="fill:none;stroke-width:0.566929;stroke-linecap:butt;stroke-linejoin:miter;stroke:rgb(0%,0%,0%);stroke-opacity:1;stroke-miterlimit:10;" d="M 199.501953 -28.375 L 199.501953 0.0292969 " transform="matrix(2,0,0,2,8,64)"/>
<path style="fill:none;stroke-width:0.566929;stroke-linecap:butt;stroke-linejoin:miter;stroke:rgb(100%,0%,0%);stroke-opacity:0.5;stroke-miterlimit:10;" d="M 125.800781 17.261719 L 131.470703 11.591797 " transform="matrix(2,0,0,2,8,64)"/>
<path style="fill:none;stroke-width:0.566929;stroke-linecap:butt;stroke-linejoin:miter;stroke:rgb(100%,0%,0%);stroke-opacity:0.5;stroke-miterlimit:10;" d="M 131.470703 17.261719 L 125.800781 11.591797 " transform="matrix(2,0,0,2,8,64)"/>
<path style="fill-rule:nonzero;fill:rgb(50%,50%,0%);fill-opacity:0.1;stroke-width:0.566929;stroke-linecap:butt;stroke-linejoin:miter;stroke:rgb(100%,0%,0%);stroke-opacity:0.5;stroke-miterlimit:10;" d="M 128.636719 28.345703 L 213.675781 28.345703 L 213.675781 0 L 128.636719 0 Z M 128.636719 28.345703 " transform="matrix(2,0,0,2,8,64)"/>
<path style="fill:none;stroke-width:0.566929;stroke-linecap:butt;stroke-linejoin:miter;stroke:rgb(100%,0%,0%);stroke-opacity:0.5;stroke-miterlimit:10;" d="M 139.242188 17.261719 L 144.912109 11.591797 " transform="matrix(2,0,0,2,8,64)"/>
<path style="fill:none;stroke-width:0.566929;stroke-linecap:butt;stroke-linejoin:miter;stroke:rgb(100%,0%,0%);stroke-opacity:0.5;stroke-miterlimit:10;" d="M 144.912109 17.261719 L 139.242188 11.591797 " transform="matrix(2,0,0,2,8,64)"/>
<path style="fill-rule:nonzero;fill:rgb(50%,50%,0%);fill-opacity:0.1;stroke-width:0.566929;stroke-linecap:butt;stroke-linejoin:miter;stroke:rgb(100%,0%,0%);stroke-opacity:0.5;stroke-miterlimit:10;" d="M 128.636719 28.345703 L 156.982422 28.345703 L 156.982422 0 L 128.636719 0 Z M 128.636719 28.345703 " transform="matrix(2,0,0,2,8,64)"/>
<path style="fill:none;stroke-width:0.566929;stroke-linecap:butt;stroke-linejoin:miter;stroke:rgb(0%,0%,0%);stroke-opacity:1;stroke-miterlimit:10;" d="M 142.808594 -0.0292969 L 142.808594 28.375 " transform="matrix(2,0,0,2,8,64)"/>
<path style="fill:none;stroke-width:0.566929;stroke-linecap:butt;stroke-linejoin:miter;stroke:rgb(100%,0%,0%);stroke-opacity:0.5;stroke-miterlimit:10;" d="M 181.175781 17.261719 L 186.845703 11.591797 " transform="matrix(2,0,0,2,8,64)"/>
<path style="fill:none;stroke-width:0.566929;stroke-linecap:butt;stroke-linejoin:miter;stroke:rgb(100%,0%,0%);stroke-opacity:0.5;stroke-miterlimit:10;" d="M 186.845703 17.261719 L 181.175781 11.591797 " transform="matrix(2,0,0,2,8,64)"/>
<path style="fill-rule:nonzero;fill:rgb(50%,50%,0%);fill-opacity:0.1;stroke-width:0.566929;stroke-linecap:butt;stroke-linejoin:miter;stroke:rgb(100%,0%,0%);stroke-opacity:0.5;stroke-miterlimit:10;" d="M 156.982422 28.345703 L 213.675781 28.345703 L 213.675781 0 L 156.982422 0 Z M 156.982422 28.345703 " transform="matrix(2,0,0,2,8,64)"/>
<path style="fill:none;stroke-width:0.566929;stroke-linecap:butt;stroke-linejoin:miter;stroke:rgb(0%,0%,0%);stroke-opacity:1;stroke-miterlimit:10;" d="M 171.15625 -0.0292969 C 171.15625 7.798828 177.501953 14.144531 185.328125 14.144531 C 193.15625 14.144531 199.501953 7.798828 199.501953 -0.0292969 " transform="matrix(2,0,0,2,8,64)"/>
</g>
</svg>
