<?xml version="1.0" encoding="UTF-8"?>
<svg xmlns="http://www.w3.org/2000/svg" xmlns:xlink="http://www.w3.org/1999/xlink" width="118pt" height="62pt" viewBox="0 0 118 62" version="1.1">
<g id="surface363">
<path style="fill:none;stroke-width:0.566929;stroke-linecap:butt;stroke-linejoin:miter;stroke:rgb(100%,0%,0%);stroke-opacity:0.5;stroke-miterlimit:10;" d="M -2.833984 2.833984 L 2.833984 -2.833984 " transform="matrix(2,0,0,2,59,31)"/>
<path style="fill:none;stroke-width:0.566929;stroke-linecap:butt;stroke-linejoin:miter;stroke:rgb(100%,0%,0%);stroke-opacity:0.5;stroke-miterlimit:10;" d="M 2.833984 2.833984 L -2.833984 -2.833984 " transform="matrix(2,0,0,2,59,31)"/>
<path style="fill-rule:nonzero;fill:rgb(50%,50%,0%);fill-opacity:0.1;stroke-width:0.566929;stroke-linecap:butt;stroke-linejoin:miter;stroke:rgb(100%,0%,0%);stroke-opacity:0.5;stroke-miterlimit:10;" d="M -28.345703 14.173828 L 28.345703 14.173828 L 28.345703 -14.173828 L -28.345703 -14.173828 Z M -28.345703 14.173828 " transform="matrix(2,0,0,2,59,31)"/>
<path style="fill:none;stroke-width:0.566929;stroke-linecap:butt;stroke-linejoin:miter;stroke:rgb(0%,0%,0%);stroke-opacity:1;stroke-miterlimit:10;" d="M 7.085938 14.201172 C 7.085938 0 -14.173828 0 -14.173828 -14.201172 " transform="matrix(2,0,0,2,59,31)"/>
<path style="fill:none;stroke-width:0.566929;stroke-linecap:butt;stroke-linejoin:miter;stroke:rgb(0%,0%,0%);stroke-opacity:1;stroke-miterlimit:10;" d="M 21.259766 14.201172 C 21.259766 0 14.173828 0 14.173828 -14.201172 " transform="matrix(2,0,0,2,59,31)"/>
<path style="fill:none;stroke-width:0.566929;stroke-linecap:butt;stroke-linejoin:miter;stroke:rgb(0%,0%,0%);stroke-opacity:1;stroke-miterlimit:10;" d="M -7.085938 14.201172 C -7.085938 10.287109 -10.259766 7.115234 -14.173828 7.115234 C -18.087891 7.115234 -21.259766 10.287109 -21.259766 14.201172 " transform="matrix(2,0,0,2,59,31)"/>
</g>
</svg>
