<?xml version="1.0" encoding="UTF-8"?>
<svg xmlns="http://www.w3.org/2000/svg" xmlns:xlink="http://www.w3.org/1999/xlink" width="389pt" height="172pt" viewBox="0 0 389 172" version="1.1">
<g id="surface507">
<path style="fill:none;stroke-width:0.566929;stroke-linecap:butt;stroke-linejoin:miter;stroke:rgb(0%,0%,0%);stroke-opacity:1;stroke-miterlimit:10;" d="M 21.259766 -14.144531 C 21.259766 -28.345703 63.779297 -28.345703 63.779297 -42.548828 " transform="matrix(2,0,0,2,-40,86)"/>
<path style="fill:none;stroke-width:0.566929;stroke-linecap:butt;stroke-linejoin:miter;stroke:rgb(0%,0%,0%);stroke-opacity:1;stroke-miterlimit:10;" d="M 63.779297 -14.144531 C 63.779297 -21.246094 53.150391 -24.796875 47.833984 -26.570312 " transform="matrix(2,0,0,2,-40,86)"/>
<path style="fill:none;stroke-width:0.566929;stroke-linecap:butt;stroke-linejoin:miter;stroke:rgb(0%,0%,0%);stroke-opacity:1;stroke-miterlimit:10;" d="M 37.205078 -30.121094 C 31.890625 -31.896484 21.259766 -35.447266 21.259766 -42.548828 " transform="matrix(2,0,0,2,-40,86)"/>
<path style="fill:none;stroke-width:0.566929;stroke-linecap:butt;stroke-linejoin:miter;stroke:rgb(0%,0%,0%);stroke-opacity:1;stroke-miterlimit:10;" d="M 95.933594 -42.548828 L 95.933594 -14.144531 " transform="matrix(2,0,0,2,-40,86)"/>
<path style="fill:none;stroke-width:0.566929;stroke-linecap:butt;stroke-linejoin:miter;stroke:rgb(0%,0%,0%);stroke-opacity:1;stroke-miterlimit:10;" d="M 21.259766 -14.201172 L 21.259766 14.201172 " transform="matrix(2,0,0,2,-40,86)"/>
<path style="fill:none;stroke-width:0.566929;stroke-linecap:butt;stroke-linejoin:miter;stroke:rgb(0%,0%,0%);stroke-opacity:1;stroke-miterlimit:10;" d="M 63.779297 14.201172 C 63.779297 0 95.933594 0 95.933594 -14.201172 " transform="matrix(2,0,0,2,-40,86)"/>
<path style="fill:none;stroke-width:0.566929;stroke-linecap:butt;stroke-linejoin:miter;stroke:rgb(0%,0%,0%);stroke-opacity:1;stroke-miterlimit:10;" d="M 95.933594 14.201172 C 95.933594 7.101562 87.894531 3.550781 83.875 1.775391 " transform="matrix(2,0,0,2,-40,86)"/>
<path style="fill:none;stroke-width:0.566929;stroke-linecap:butt;stroke-linejoin:miter;stroke:rgb(0%,0%,0%);stroke-opacity:1;stroke-miterlimit:10;" d="M 75.837891 -1.775391 C 71.818359 -3.550781 63.779297 -7.101562 63.779297 -14.201172 " transform="matrix(2,0,0,2,-40,86)"/>
<path style="fill:none;stroke-width:0.566929;stroke-linecap:butt;stroke-linejoin:miter;stroke:rgb(0%,0%,0%);stroke-opacity:1;stroke-miterlimit:10;" d="M 21.259766 42.548828 C 21.259766 28.345703 63.779297 28.345703 63.779297 14.144531 " transform="matrix(2,0,0,2,-40,86)"/>
<path style="fill:none;stroke-width:0.566929;stroke-linecap:butt;stroke-linejoin:miter;stroke:rgb(0%,0%,0%);stroke-opacity:1;stroke-miterlimit:10;" d="M 63.779297 42.548828 C 63.779297 35.447266 53.150391 31.896484 47.833984 30.121094 " transform="matrix(2,0,0,2,-40,86)"/>
<path style="fill:none;stroke-width:0.566929;stroke-linecap:butt;stroke-linejoin:miter;stroke:rgb(0%,0%,0%);stroke-opacity:1;stroke-miterlimit:10;" d="M 37.205078 26.570312 C 31.890625 24.796875 21.259766 21.246094 21.259766 14.144531 " transform="matrix(2,0,0,2,-40,86)"/>
<path style="fill:none;stroke-width:0.566929;stroke-linecap:butt;stroke-linejoin:miter;stroke:rgb(0%,0%,0%);stroke-opacity:1;stroke-miterlimit:10;" d="M 95.933594 14.144531 L 95.933594 42.548828 " transform="matrix(2,0,0,2,-40,86)"/>
<path style=" stroke:none;fill-rule:nonzero;fill:rgb(0%,0%,0%);fill-opacity:1;" d="M 200.335938 83.125 C 200.648438 83.125 201.023438 83.125 201.023438 82.75 C 201.023438 82.34375 200.648438 82.34375 200.367188 82.34375 L 188.429688 82.34375 C 188.148438 82.34375 187.773438 82.34375 187.773438 82.75 C 187.773438 83.125 188.148438 83.125 188.429688 83.125 Z M 200.367188 87 C 200.648438 87 201.023438 87 201.023438 86.59375 C 201.023438 86.21875 200.648438 86.21875 200.335938 86.21875 L 188.429688 86.21875 C 188.148438 86.21875 187.773438 86.21875 187.773438 86.59375 C 187.773438 87 188.148438 87 188.429688 87 Z M 200.367188 87 "/>
<path style="fill:none;stroke-width:0.566929;stroke-linecap:butt;stroke-linejoin:miter;stroke:rgb(0%,0%,0%);stroke-opacity:1;stroke-miterlimit:10;" d="M 138.169922 -42.548828 L 138.169922 -14.144531 " transform="matrix(2,0,0,2,-40,86)"/>
<path style="fill:none;stroke-width:0.566929;stroke-linecap:butt;stroke-linejoin:miter;stroke:rgb(0%,0%,0%);stroke-opacity:1;stroke-miterlimit:10;" d="M 170.617188 -14.144531 C 170.617188 -28.345703 213.136719 -28.345703 213.136719 -42.548828 " transform="matrix(2,0,0,2,-40,86)"/>
<path style="fill:none;stroke-width:0.566929;stroke-linecap:butt;stroke-linejoin:miter;stroke:rgb(0%,0%,0%);stroke-opacity:1;stroke-miterlimit:10;" d="M 213.136719 -14.144531 C 213.136719 -21.246094 202.507812 -24.796875 197.191406 -26.570312 " transform="matrix(2,0,0,2,-40,86)"/>
<path style="fill:none;stroke-width:0.566929;stroke-linecap:butt;stroke-linejoin:miter;stroke:rgb(0%,0%,0%);stroke-opacity:1;stroke-miterlimit:10;" d="M 186.5625 -30.121094 C 181.246094 -31.896484 170.617188 -35.447266 170.617188 -42.548828 " transform="matrix(2,0,0,2,-40,86)"/>
<path style="fill:none;stroke-width:0.566929;stroke-linecap:butt;stroke-linejoin:miter;stroke:rgb(0%,0%,0%);stroke-opacity:1;stroke-miterlimit:10;" d="M 138.169922 14.201172 C 138.169922 0 170.617188 0 170.617188 -14.201172 " transform="matrix(2,0,0,2,-40,86)"/>
<path style="fill:none;stroke-width:0.566929;stroke-linecap:butt;stroke-linejoin:miter;stroke:rgb(0%,0%,0%);stroke-opacity:1;stroke-miterlimit:10;" d="M 170.617188 14.201172 C 170.617188 7.101562 162.505859 3.550781 158.449219 1.775391 " transform="matrix(2,0,0,2,-40,86)"/>
<path style="fill:none;stroke-width:0.566929;stroke-linecap:butt;stroke-linejoin:miter;stroke:rgb(0%,0%,0%);stroke-opacity:1;stroke-miterlimit:10;" d="M 150.337891 -1.775391 C 146.28125 -3.550781 138.169922 -7.101562 138.169922 -14.201172 " transform="matrix(2,0,0,2,-40,86)"/>
<path style="fill:none;stroke-width:0.566929;stroke-linecap:butt;stroke-linejoin:miter;stroke:rgb(0%,0%,0%);stroke-opacity:1;stroke-miterlimit:10;" d="M 213.136719 -14.201172 L 213.136719 14.201172 " transform="matrix(2,0,0,2,-40,86)"/>
<path style="fill:none;stroke-width:0.566929;stroke-linecap:butt;stroke-linejoin:miter;stroke:rgb(0%,0%,0%);stroke-opacity:1;stroke-miterlimit:10;" d="M 138.169922 14.144531 L 138.169922 42.548828 " transform="matrix(2,0,0,2,-40,86)"/>
<path style="fill:none;stroke-width:0.566929;stroke-linecap:butt;stroke-linejoin:miter;stroke:rgb(0%,0%,0%);stroke-opacity:1;stroke-miterlimit:10;" d="M 170.617188 42.548828 C 170.617188 28.345703 213.136719 28.345703 213.136719 14.144531 " transform="matrix(2,0,0,2,-40,86)"/>
<path style="fill:none;stroke-width:0.566929;stroke-linecap:butt;stroke-linejoin:miter;stroke:rgb(0%,0%,0%);stroke-opacity:1;stroke-miterlimit:10;" d="M 213.136719 42.548828 C 213.136719 35.447266 202.507812 31.896484 197.191406 30.121094 " transform="matrix(2,0,0,2,-40,86)"/>
<path style="fill:none;stroke-width:0.566929;stroke-linecap:butt;stroke-linejoin:miter;stroke:rgb(0%,0%,0%);stroke-opacity:1;stroke-miterlimit:10;" d="M 186.5625 26.570312 C 181.246094 24.796875 170.617188 21.246094 170.617188 14.144531 " transform="matrix(2,0,0,2,-40,86)"/>
</g>
</svg>
