<?xml version="1.0" encoding="UTF-8"?>
<svg xmlns="http://www.w3.org/2000/svg" xmlns:xlink="http://www.w3.org/1999/xlink" width="150.591292pt" height="22.013041pt" viewBox="0 0 150.591292 22.013041" version="1.1">
<g id="surface49">
<path style="fill:none;stroke-width:0.566929;stroke-linecap:butt;stroke-linejoin:miter;stroke:rgb(100%,0%,0%);stroke-opacity:0.5;stroke-miterlimit:10;" d="M -2.8338 2.833984 L 2.834169 -2.833984 " transform="matrix(2,0,0,2,5.952756,16.34375)"/>
<path style="fill:none;stroke-width:0.566929;stroke-linecap:butt;stroke-linejoin:miter;stroke:rgb(100%,0%,0%);stroke-opacity:0.5;stroke-miterlimit:10;" d="M 2.834169 2.833984 L -2.8338 -2.833984 " transform="matrix(2,0,0,2,5.952756,16.34375)"/>
<path style="fill-rule:nonzero;fill:rgb(50%,50%,0%);fill-opacity:0.1;stroke-width:0.566929;stroke-linecap:butt;stroke-linejoin:miter;stroke:rgb(100%,0%,0%);stroke-opacity:0.5;stroke-miterlimit:10;" d="M 0.000184547 2.046875 L 72.068544 2.046875 L 72.068544 -7.921875 L 0.000184547 -7.921875 Z M 0.000184547 2.046875 " transform="matrix(2,0,0,2,5.952756,16.34375)"/>
<path style="fill:none;stroke-width:0.566929;stroke-linecap:butt;stroke-linejoin:miter;stroke:rgb(100%,0%,0%);stroke-opacity:0.5;stroke-miterlimit:10;" d="M -2.8338 2.833984 L 2.834169 -2.833984 " transform="matrix(2,0,0,2,5.952756,16.34375)"/>
<path style="fill:none;stroke-width:0.566929;stroke-linecap:butt;stroke-linejoin:miter;stroke:rgb(100%,0%,0%);stroke-opacity:0.5;stroke-miterlimit:10;" d="M 2.834169 2.833984 L -2.8338 -2.833984 " transform="matrix(2,0,0,2,5.952756,16.34375)"/>
<path style="fill-rule:nonzero;fill:rgb(50%,50%,0%);fill-opacity:0.1;stroke-width:0.566929;stroke-linecap:butt;stroke-linejoin:miter;stroke:rgb(100%,0%,0%);stroke-opacity:0.5;stroke-miterlimit:10;" d="M 0.000184547 2.046875 L 25.972841 2.046875 L 25.972841 -7.921875 L 0.000184547 -7.921875 Z M 0.000184547 2.046875 " transform="matrix(2,0,0,2,5.952756,16.34375)"/>
<path style=" stroke:none;fill-rule:nonzero;fill:rgb(0%,0%,0%);fill-opacity:1;" d="M 10.828125 11.90625 C 9.078125 11.90625 9.078125 9.90625 9.078125 9.46875 C 9.078125 8.9375 9.109375 8.28125 9.390625 7.78125 C 9.546875 7.5625 10.015625 7 10.828125 7 C 12.546875 7 12.546875 8.96875 12.546875 9.4375 C 12.546875 9.96875 12.546875 10.625 12.234375 11.125 C 12.078125 11.34375 11.609375 11.90625 10.828125 11.90625 Z M 8.515625 12.6875 C 8.515625 12.625 8.515625 12.15625 8.828125 11.75 C 9.609375 12.3125 10.453125 12.375 10.828125 12.375 C 12.671875 12.375 14.046875 11 14.046875 9.46875 C 14.046875 8.71875 13.734375 8 13.234375 7.53125 C 13.953125 6.84375 14.671875 6.75 15.015625 6.75 C 15.078125 6.75 15.171875 6.75 15.234375 6.78125 C 15.015625 6.84375 14.890625 7.0625 14.890625 7.3125 C 14.890625 7.65625 15.171875 7.875 15.484375 7.875 C 15.671875 7.875 16.046875 7.75 16.046875 7.28125 C 16.046875 6.9375 15.828125 6.3125 15.046875 6.3125 C 14.640625 6.3125 13.765625 6.4375 12.921875 7.25 C 12.078125 6.59375 11.265625 6.53125 10.828125 6.53125 C 8.953125 6.53125 7.578125 7.90625 7.578125 9.4375 C 7.578125 10.3125 8.015625 11.0625 8.515625 11.5 C 8.265625 11.78125 7.890625 12.4375 7.890625 13.15625 C 7.890625 13.78125 8.171875 14.53125 8.796875 14.9375 C 7.578125 15.25 6.953125 16.125 6.953125 16.90625 C 6.953125 18.34375 8.921875 19.4375 11.359375 19.4375 C 13.703125 19.4375 15.765625 18.4375 15.765625 16.875 C 15.765625 16.1875 15.515625 15.15625 14.484375 14.59375 C 13.421875 14.0625 12.265625 14.0625 11.046875 14.0625 C 10.546875 14.0625 9.703125 14.0625 9.546875 14.03125 C 8.921875 13.9375 8.515625 13.34375 8.515625 12.6875 Z M 11.390625 19 C 9.359375 19 7.984375 17.96875 7.984375 16.90625 C 7.984375 16 8.734375 15.25 9.609375 15.21875 L 10.796875 15.21875 C 12.515625 15.21875 14.734375 15.21875 14.734375 16.90625 C 14.734375 18 13.328125 19 11.390625 19 Z M 11.390625 19 "/>
<path style=" stroke:none;fill-rule:nonzero;fill:rgb(0%,0%,0%);fill-opacity:1;" d="M 18.570312 10.3125 C 18.695312 7.34375 20.382812 6.84375 21.070312 6.84375 C 23.101562 6.84375 23.320312 9.53125 23.320312 10.3125 Z M 18.570312 10.75 L 24.132812 10.75 C 24.570312 10.75 24.632812 10.75 24.632812 10.3125 C 24.632812 8.34375 23.539062 6.40625 21.070312 6.40625 C 18.757812 6.40625 16.914062 8.46875 16.914062 10.96875 C 16.914062 13.625 19.007812 15.5625 21.289062 15.5625 C 23.726562 15.5625 24.632812 13.34375 24.632812 12.96875 C 24.632812 12.78125 24.476562 12.71875 24.351562 12.71875 C 24.195312 12.71875 24.132812 12.84375 24.101562 13 C 23.414062 15.0625 21.601562 15.0625 21.414062 15.0625 C 20.414062 15.0625 19.632812 14.46875 19.164062 13.71875 C 18.570312 12.78125 18.570312 11.46875 18.570312 10.75 Z M 18.570312 10.75 "/>
<path style=" stroke:none;fill-rule:nonzero;fill:rgb(0%,0%,0%);fill-opacity:1;" d="M 29.644531 11.90625 C 27.894531 11.90625 27.894531 9.90625 27.894531 9.46875 C 27.894531 8.9375 27.925781 8.28125 28.207031 7.78125 C 28.363281 7.5625 28.832031 7 29.644531 7 C 31.363281 7 31.363281 8.96875 31.363281 9.4375 C 31.363281 9.96875 31.363281 10.625 31.050781 11.125 C 30.894531 11.34375 30.425781 11.90625 29.644531 11.90625 Z M 27.332031 12.6875 C 27.332031 12.625 27.332031 12.15625 27.644531 11.75 C 28.425781 12.3125 29.269531 12.375 29.644531 12.375 C 31.488281 12.375 32.863281 11 32.863281 9.46875 C 32.863281 8.71875 32.550781 8 32.050781 7.53125 C 32.769531 6.84375 33.488281 6.75 33.832031 6.75 C 33.894531 6.75 33.988281 6.75 34.050781 6.78125 C 33.832031 6.84375 33.707031 7.0625 33.707031 7.3125 C 33.707031 7.65625 33.988281 7.875 34.300781 7.875 C 34.488281 7.875 34.863281 7.75 34.863281 7.28125 C 34.863281 6.9375 34.644531 6.3125 33.863281 6.3125 C 33.457031 6.3125 32.582031 6.4375 31.738281 7.25 C 30.894531 6.59375 30.082031 6.53125 29.644531 6.53125 C 27.769531 6.53125 26.394531 7.90625 26.394531 9.4375 C 26.394531 10.3125 26.832031 11.0625 27.332031 11.5 C 27.082031 11.78125 26.707031 12.4375 26.707031 13.15625 C 26.707031 13.78125 26.988281 14.53125 27.613281 14.9375 C 26.394531 15.25 25.769531 16.125 25.769531 16.90625 C 25.769531 18.34375 27.738281 19.4375 30.175781 19.4375 C 32.519531 19.4375 34.582031 18.4375 34.582031 16.875 C 34.582031 16.1875 34.332031 15.15625 33.300781 14.59375 C 32.238281 14.0625 31.082031 14.0625 29.863281 14.0625 C 29.363281 14.0625 28.519531 14.0625 28.363281 14.03125 C 27.738281 13.9375 27.332031 13.34375 27.332031 12.6875 Z M 30.207031 19 C 28.175781 19 26.800781 17.96875 26.800781 16.90625 C 26.800781 16 27.550781 15.25 28.425781 15.21875 L 29.613281 15.21875 C 31.332031 15.21875 33.550781 15.21875 33.550781 16.90625 C 33.550781 18 32.144531 19 30.207031 19 Z M 30.207031 19 "/>
<path style=" stroke:none;fill-rule:nonzero;fill:rgb(0%,0%,0%);fill-opacity:1;" d="M 37.359375 13.84375 C 37.359375 14.71875 37.140625 14.71875 35.796875 14.71875 L 35.796875 15.34375 C 36.515625 15.3125 37.515625 15.28125 38.078125 15.28125 C 38.578125 15.28125 39.609375 15.3125 40.296875 15.34375 L 40.296875 14.71875 C 38.953125 14.71875 38.734375 14.71875 38.734375 13.84375 L 38.734375 10.15625 C 38.734375 8.09375 40.171875 6.96875 41.421875 6.96875 C 42.703125 6.96875 42.921875 8.03125 42.921875 9.1875 L 42.921875 13.84375 C 42.921875 14.71875 42.703125 14.71875 41.359375 14.71875 L 41.359375 15.34375 C 42.046875 15.3125 43.078125 15.28125 43.609375 15.28125 C 44.109375 15.28125 45.171875 15.3125 45.828125 15.34375 L 45.828125 14.71875 C 44.796875 14.71875 44.296875 14.71875 44.296875 14.125 L 44.296875 10.3125 C 44.296875 8.59375 44.296875 8 43.671875 7.28125 C 43.390625 6.9375 42.734375 6.53125 41.578125 6.53125 C 39.890625 6.53125 39.015625 7.71875 38.671875 8.5 L 38.671875 1.5 L 35.796875 1.71875 L 35.796875 2.34375 C 37.203125 2.34375 37.359375 2.46875 37.359375 3.46875 Z M 37.359375 13.84375 "/>
<path style=" stroke:none;fill-rule:nonzero;fill:rgb(0%,0%,0%);fill-opacity:1;" d="M 48.429688 13.84375 C 48.429688 14.71875 48.210938 14.71875 46.867188 14.71875 L 46.867188 15.34375 C 47.585938 15.3125 48.585938 15.28125 49.148438 15.28125 C 49.648438 15.28125 50.679688 15.3125 51.367188 15.34375 L 51.367188 14.71875 C 50.023438 14.71875 49.804688 14.71875 49.804688 13.84375 L 49.804688 10.15625 C 49.804688 8.09375 51.242188 6.96875 52.492188 6.96875 C 53.773438 6.96875 53.992188 8.03125 53.992188 9.1875 L 53.992188 13.84375 C 53.992188 14.71875 53.773438 14.71875 52.429688 14.71875 L 52.429688 15.34375 C 53.117188 15.3125 54.148438 15.28125 54.679688 15.28125 C 55.179688 15.28125 56.242188 15.3125 56.898438 15.34375 L 56.898438 14.71875 C 55.867188 14.71875 55.367188 14.71875 55.367188 14.125 L 55.367188 10.3125 C 55.367188 8.59375 55.367188 8 54.742188 7.28125 C 54.460938 6.9375 53.804688 6.53125 52.648438 6.53125 C 50.960938 6.53125 50.085938 7.71875 49.742188 8.5 L 49.742188 1.5 L 46.867188 1.71875 L 46.867188 2.34375 C 48.273438 2.34375 48.429688 2.46875 48.429688 3.46875 Z M 48.429688 13.84375 "/>
<path style="fill:none;stroke-width:0.566929;stroke-linecap:butt;stroke-linejoin:miter;stroke:rgb(100%,0%,0%);stroke-opacity:0.5;stroke-miterlimit:10;" d="M 23.136903 2.833984 L 28.806825 -2.833984 " transform="matrix(2,0,0,2,5.952756,16.34375)"/>
<path style="fill:none;stroke-width:0.566929;stroke-linecap:butt;stroke-linejoin:miter;stroke:rgb(100%,0%,0%);stroke-opacity:0.5;stroke-miterlimit:10;" d="M 28.806825 2.833984 L 23.136903 -2.833984 " transform="matrix(2,0,0,2,5.952756,16.34375)"/>
<path style="fill-rule:nonzero;fill:rgb(50%,50%,0%);fill-opacity:0.1;stroke-width:0.566929;stroke-linecap:butt;stroke-linejoin:miter;stroke:rgb(100%,0%,0%);stroke-opacity:0.5;stroke-miterlimit:10;" d="M 25.972841 0.109375 L 47.039247 0.109375 L 47.039247 -7.921875 L 25.972841 -7.921875 Z M 25.972841 0.109375 " transform="matrix(2,0,0,2,5.952756,16.34375)"/>
<path style=" stroke:none;fill-rule:nonzero;fill:rgb(0%,0%,0%);fill-opacity:1;" d="M 64.367188 10.65625 C 64.960938 9.90625 65.710938 8.9375 66.210938 8.40625 C 66.835938 7.6875 67.648438 7.375 68.585938 7.375 L 68.585938 6.75 C 68.054688 6.78125 67.460938 6.8125 66.929688 6.8125 C 66.335938 6.8125 65.273438 6.78125 65.023438 6.75 L 65.023438 7.375 C 65.460938 7.40625 65.617188 7.65625 65.617188 8 C 65.617188 8.3125 65.398438 8.5625 65.304688 8.6875 L 64.085938 10.25 L 62.523438 8.21875 C 62.335938 8.03125 62.335938 8 62.335938 7.875 C 62.335938 7.5625 62.648438 7.375 63.023438 7.375 L 63.023438 6.75 C 62.523438 6.78125 61.210938 6.8125 60.867188 6.8125 C 60.460938 6.8125 59.523438 6.78125 58.992188 6.75 L 58.992188 7.375 C 60.398438 7.375 60.398438 7.375 61.335938 8.59375 L 63.304688 11.15625 L 61.429688 13.53125 C 60.492188 14.6875 59.304688 14.71875 58.898438 14.71875 L 58.898438 15.34375 C 59.398438 15.3125 60.023438 15.28125 60.554688 15.28125 C 61.117188 15.28125 61.960938 15.3125 62.429688 15.34375 L 62.429688 14.71875 C 61.992188 14.65625 61.867188 14.40625 61.867188 14.09375 C 61.867188 13.65625 62.429688 13 63.648438 11.5625 L 65.179688 13.5625 C 65.335938 13.78125 65.585938 14.09375 65.585938 14.21875 C 65.585938 14.40625 65.398438 14.71875 64.867188 14.71875 L 64.867188 15.34375 C 65.460938 15.3125 66.585938 15.28125 67.023438 15.28125 C 67.554688 15.28125 68.335938 15.3125 68.929688 15.34375 L 68.929688 14.71875 C 67.867188 14.71875 67.492188 14.6875 67.054688 14.09375 Z M 64.367188 10.65625 "/>
<path style=" stroke:none;fill-rule:nonzero;fill:rgb(0%,0%,0%);fill-opacity:1;" d="M 74.882812 10.65625 C 75.476562 9.90625 76.226562 8.9375 76.726562 8.40625 C 77.351562 7.6875 78.164062 7.375 79.101562 7.375 L 79.101562 6.75 C 78.570312 6.78125 77.976562 6.8125 77.445312 6.8125 C 76.851562 6.8125 75.789062 6.78125 75.539062 6.75 L 75.539062 7.375 C 75.976562 7.40625 76.132812 7.65625 76.132812 8 C 76.132812 8.3125 75.914062 8.5625 75.820312 8.6875 L 74.601562 10.25 L 73.039062 8.21875 C 72.851562 8.03125 72.851562 8 72.851562 7.875 C 72.851562 7.5625 73.164062 7.375 73.539062 7.375 L 73.539062 6.75 C 73.039062 6.78125 71.726562 6.8125 71.382812 6.8125 C 70.976562 6.8125 70.039062 6.78125 69.507812 6.75 L 69.507812 7.375 C 70.914062 7.375 70.914062 7.375 71.851562 8.59375 L 73.820312 11.15625 L 71.945312 13.53125 C 71.007812 14.6875 69.820312 14.71875 69.414062 14.71875 L 69.414062 15.34375 C 69.914062 15.3125 70.539062 15.28125 71.070312 15.28125 C 71.632812 15.28125 72.476562 15.3125 72.945312 15.34375 L 72.945312 14.71875 C 72.507812 14.65625 72.382812 14.40625 72.382812 14.09375 C 72.382812 13.65625 72.945312 13 74.164062 11.5625 L 75.695312 13.5625 C 75.851562 13.78125 76.101562 14.09375 76.101562 14.21875 C 76.101562 14.40625 75.914062 14.71875 75.382812 14.71875 L 75.382812 15.34375 C 75.976562 15.3125 77.101562 15.28125 77.539062 15.28125 C 78.070312 15.28125 78.851562 15.3125 79.445312 15.34375 L 79.445312 14.71875 C 78.382812 14.71875 78.007812 14.6875 77.570312 14.09375 Z M 74.882812 10.65625 "/>
<path style=" stroke:none;fill-rule:nonzero;fill:rgb(0%,0%,0%);fill-opacity:1;" d="M 87.242188 14.25 L 87.242188 15.5625 L 90.179688 15.34375 L 90.179688 14.71875 C 88.804688 14.71875 88.617188 14.59375 88.617188 13.59375 L 88.617188 1.5 L 85.773438 1.71875 L 85.773438 2.34375 C 87.148438 2.34375 87.304688 2.46875 87.304688 3.46875 L 87.304688 7.78125 C 86.742188 7.0625 85.867188 6.53125 84.804688 6.53125 C 82.460938 6.53125 80.367188 8.5 80.367188 11.0625 C 80.367188 13.59375 82.304688 15.5625 84.585938 15.5625 C 85.867188 15.5625 86.742188 14.875 87.242188 14.25 Z M 87.242188 8.90625 L 87.242188 13 C 87.242188 13.34375 87.242188 13.375 87.023438 13.71875 C 86.429688 14.6875 85.554688 15.125 84.679688 15.125 C 83.773438 15.125 83.054688 14.59375 82.585938 13.84375 C 82.085938 13.03125 82.023438 11.90625 82.023438 11.0625 C 82.023438 10.34375 82.054688 9.15625 82.617188 8.25 C 83.054688 7.625 83.804688 6.96875 84.898438 6.96875 C 85.585938 6.96875 86.429688 7.28125 87.023438 8.15625 C 87.242188 8.5 87.242188 8.53125 87.242188 8.90625 Z M 87.242188 8.90625 "/>
<path style=" stroke:none;fill-rule:nonzero;fill:rgb(0%,0%,0%);fill-opacity:1;" d="M 92.96875 10.3125 C 93.09375 7.34375 94.78125 6.84375 95.46875 6.84375 C 97.5 6.84375 97.71875 9.53125 97.71875 10.3125 Z M 92.96875 10.75 L 98.53125 10.75 C 98.96875 10.75 99.03125 10.75 99.03125 10.3125 C 99.03125 8.34375 97.9375 6.40625 95.46875 6.40625 C 93.15625 6.40625 91.3125 8.46875 91.3125 10.96875 C 91.3125 13.625 93.40625 15.5625 95.6875 15.5625 C 98.125 15.5625 99.03125 13.34375 99.03125 12.96875 C 99.03125 12.78125 98.875 12.71875 98.75 12.71875 C 98.59375 12.71875 98.53125 12.84375 98.5 13 C 97.8125 15.0625 96 15.0625 95.8125 15.0625 C 94.8125 15.0625 94.03125 14.46875 93.5625 13.71875 C 92.96875 12.78125 92.96875 11.46875 92.96875 10.75 Z M 92.96875 10.75 "/>
<path style="fill:none;stroke-width:0.566929;stroke-linecap:butt;stroke-linejoin:miter;stroke:rgb(100%,0%,0%);stroke-opacity:0.5;stroke-miterlimit:10;" d="M 44.205263 2.833984 L 49.873231 -2.833984 " transform="matrix(2,0,0,2,5.952756,16.34375)"/>
<path style="fill:none;stroke-width:0.566929;stroke-linecap:butt;stroke-linejoin:miter;stroke:rgb(100%,0%,0%);stroke-opacity:0.5;stroke-miterlimit:10;" d="M 49.873231 2.833984 L 44.205263 -2.833984 " transform="matrix(2,0,0,2,5.952756,16.34375)"/>
<path style="fill-rule:nonzero;fill:rgb(50%,50%,0%);fill-opacity:0.1;stroke-width:0.566929;stroke-linecap:butt;stroke-linejoin:miter;stroke:rgb(100%,0%,0%);stroke-opacity:0.5;stroke-miterlimit:10;" d="M 47.039247 2.046875 L 72.068544 2.046875 L 72.068544 -5.46875 L 47.039247 -5.46875 Z M 47.039247 2.046875 " transform="matrix(2,0,0,2,5.952756,16.34375)"/>
<path style=" stroke:none;fill-rule:nonzero;fill:rgb(0%,0%,0%);fill-opacity:1;" d="M 106.5 10.65625 C 107.09375 9.90625 107.84375 8.9375 108.34375 8.40625 C 108.96875 7.6875 109.78125 7.375 110.71875 7.375 L 110.71875 6.75 C 110.1875 6.78125 109.59375 6.8125 109.0625 6.8125 C 108.46875 6.8125 107.40625 6.78125 107.15625 6.75 L 107.15625 7.375 C 107.59375 7.40625 107.75 7.65625 107.75 8 C 107.75 8.3125 107.53125 8.5625 107.4375 8.6875 L 106.21875 10.25 L 104.65625 8.21875 C 104.46875 8.03125 104.46875 8 104.46875 7.875 C 104.46875 7.5625 104.78125 7.375 105.15625 7.375 L 105.15625 6.75 C 104.65625 6.78125 103.34375 6.8125 103 6.8125 C 102.59375 6.8125 101.65625 6.78125 101.125 6.75 L 101.125 7.375 C 102.53125 7.375 102.53125 7.375 103.46875 8.59375 L 105.4375 11.15625 L 103.5625 13.53125 C 102.625 14.6875 101.4375 14.71875 101.03125 14.71875 L 101.03125 15.34375 C 101.53125 15.3125 102.15625 15.28125 102.6875 15.28125 C 103.25 15.28125 104.09375 15.3125 104.5625 15.34375 L 104.5625 14.71875 C 104.125 14.65625 104 14.40625 104 14.09375 C 104 13.65625 104.5625 13 105.78125 11.5625 L 107.3125 13.5625 C 107.46875 13.78125 107.71875 14.09375 107.71875 14.21875 C 107.71875 14.40625 107.53125 14.71875 107 14.71875 L 107 15.34375 C 107.59375 15.3125 108.71875 15.28125 109.15625 15.28125 C 109.6875 15.28125 110.46875 15.3125 111.0625 15.34375 L 111.0625 14.71875 C 110 14.71875 109.625 14.6875 109.1875 14.09375 Z M 106.5 10.65625 "/>
<path style=" stroke:none;fill-rule:nonzero;fill:rgb(0%,0%,0%);fill-opacity:1;" d="M 119.578125 8.65625 C 120.078125 7.375 121.109375 7.375 121.421875 7.375 L 121.421875 6.75 C 120.953125 6.78125 120.390625 6.8125 119.921875 6.8125 C 119.578125 6.8125 118.640625 6.78125 118.203125 6.75 L 118.203125 7.375 C 118.828125 7.375 119.140625 7.71875 119.140625 8.21875 C 119.140625 8.4375 119.109375 8.46875 119.015625 8.71875 L 116.984375 13.59375 L 114.796875 8.25 C 114.703125 8.03125 114.671875 7.96875 114.671875 7.875 C 114.671875 7.375 115.390625 7.375 115.796875 7.375 L 115.796875 6.75 C 115.265625 6.78125 113.953125 6.8125 113.609375 6.8125 C 113.078125 6.8125 112.265625 6.78125 111.671875 6.75 L 111.671875 7.375 C 112.640625 7.375 113.015625 7.375 113.296875 8.0625 L 116.296875 15.34375 C 116.171875 15.59375 115.890625 16.25 115.796875 16.53125 C 115.359375 17.625 114.796875 19 113.515625 19 C 113.421875 19 112.953125 19 112.578125 18.625 C 113.203125 18.5625 113.359375 18.125 113.359375 17.78125 C 113.359375 17.28125 112.984375 16.96875 112.515625 16.96875 C 112.109375 16.96875 111.671875 17.21875 111.671875 17.8125 C 111.671875 18.71875 112.515625 19.4375 113.515625 19.4375 C 114.765625 19.4375 115.578125 18.28125 116.046875 17.15625 Z M 119.578125 8.65625 "/>
<path style=" stroke:none;fill-rule:nonzero;fill:rgb(0%,0%,0%);fill-opacity:1;" d="M 123.476562 10.3125 C 123.601562 7.34375 125.289062 6.84375 125.976562 6.84375 C 128.007812 6.84375 128.226562 9.53125 128.226562 10.3125 Z M 123.476562 10.75 L 129.039062 10.75 C 129.476562 10.75 129.539062 10.75 129.539062 10.3125 C 129.539062 8.34375 128.445312 6.40625 125.976562 6.40625 C 123.664062 6.40625 121.820312 8.46875 121.820312 10.96875 C 121.820312 13.625 123.914062 15.5625 126.195312 15.5625 C 128.632812 15.5625 129.539062 13.34375 129.539062 12.96875 C 129.539062 12.78125 129.382812 12.71875 129.257812 12.71875 C 129.101562 12.71875 129.039062 12.84375 129.007812 13 C 128.320312 15.0625 126.507812 15.0625 126.320312 15.0625 C 125.320312 15.0625 124.539062 14.46875 124.070312 13.71875 C 123.476562 12.78125 123.476562 11.46875 123.476562 10.75 Z M 123.476562 10.75 "/>
<path style=" stroke:none;fill-rule:nonzero;fill:rgb(0%,0%,0%);fill-opacity:1;" d="M 132.332031 10.3125 C 132.457031 7.34375 134.144531 6.84375 134.832031 6.84375 C 136.863281 6.84375 137.082031 9.53125 137.082031 10.3125 Z M 132.332031 10.75 L 137.894531 10.75 C 138.332031 10.75 138.394531 10.75 138.394531 10.3125 C 138.394531 8.34375 137.300781 6.40625 134.832031 6.40625 C 132.519531 6.40625 130.675781 8.46875 130.675781 10.96875 C 130.675781 13.625 132.769531 15.5625 135.050781 15.5625 C 137.488281 15.5625 138.394531 13.34375 138.394531 12.96875 C 138.394531 12.78125 138.238281 12.71875 138.113281 12.71875 C 137.957031 12.71875 137.894531 12.84375 137.863281 13 C 137.175781 15.0625 135.363281 15.0625 135.175781 15.0625 C 134.175781 15.0625 133.394531 14.46875 132.925781 13.71875 C 132.332031 12.78125 132.332031 11.46875 132.332031 10.75 Z M 132.332031 10.75 "/>
<path style=" stroke:none;fill-rule:nonzero;fill:rgb(0%,0%,0%);fill-opacity:1;" d="M 147.246094 8.65625 C 147.746094 7.375 148.777344 7.375 149.089844 7.375 L 149.089844 6.75 C 148.621094 6.78125 148.058594 6.8125 147.589844 6.8125 C 147.246094 6.8125 146.308594 6.78125 145.871094 6.75 L 145.871094 7.375 C 146.496094 7.375 146.808594 7.71875 146.808594 8.21875 C 146.808594 8.4375 146.777344 8.46875 146.683594 8.71875 L 144.652344 13.59375 L 142.464844 8.25 C 142.371094 8.03125 142.339844 7.96875 142.339844 7.875 C 142.339844 7.375 143.058594 7.375 143.464844 7.375 L 143.464844 6.75 C 142.933594 6.78125 141.621094 6.8125 141.277344 6.8125 C 140.746094 6.8125 139.933594 6.78125 139.339844 6.75 L 139.339844 7.375 C 140.308594 7.375 140.683594 7.375 140.964844 8.0625 L 143.964844 15.34375 C 143.839844 15.59375 143.558594 16.25 143.464844 16.53125 C 143.027344 17.625 142.464844 19 141.183594 19 C 141.089844 19 140.621094 19 140.246094 18.625 C 140.871094 18.5625 141.027344 18.125 141.027344 17.78125 C 141.027344 17.28125 140.652344 16.96875 140.183594 16.96875 C 139.777344 16.96875 139.339844 17.21875 139.339844 17.8125 C 139.339844 18.71875 140.183594 19.4375 141.183594 19.4375 C 142.433594 19.4375 143.246094 18.28125 143.714844 17.15625 Z M 147.246094 8.65625 "/>
</g>
</svg>
