<?xml version="1.0" encoding="UTF-8"?>
<svg xmlns="http://www.w3.org/2000/svg" xmlns:xlink="http://www.w3.org/1999/xlink" width="88pt" height="77pt" viewBox="0 0 88 77" version="1.1">
<g id="surface203">
<path style="fill:none;stroke-width:0.566929;stroke-linecap:butt;stroke-linejoin:miter;stroke:rgb(100%,0%,0%);stroke-opacity:0.5;stroke-miterlimit:10;" d="M -2.833984 2.833984 L 2.833984 -2.833984 " transform="matrix(2,0,0,2,8,8)"/>
<path style="fill:none;stroke-width:0.566929;stroke-linecap:butt;stroke-linejoin:miter;stroke:rgb(100%,0%,0%);stroke-opacity:0.5;stroke-miterlimit:10;" d="M 2.833984 2.833984 L -2.833984 -2.833984 " transform="matrix(2,0,0,2,8,8)"/>
<path style="fill-rule:nonzero;fill:rgb(50%,50%,0%);fill-opacity:0.1;stroke-width:0.566929;stroke-linecap:butt;stroke-linejoin:miter;stroke:rgb(100%,0%,0%);stroke-opacity:0.5;stroke-miterlimit:10;" d="M 0 30.671875 L 38.876953 30.671875 L 38.876953 0 L 0 0 Z M 0 30.671875 " transform="matrix(2,0,0,2,8,8)"/>
<path style="fill:none;stroke-width:0.566929;stroke-linecap:butt;stroke-linejoin:miter;stroke:rgb(100%,0%,0%);stroke-opacity:0.5;stroke-miterlimit:10;" d="M -2.833984 2.833984 L 2.833984 -2.833984 " transform="matrix(2,0,0,2,8,8)"/>
<path style="fill:none;stroke-width:0.566929;stroke-linecap:butt;stroke-linejoin:miter;stroke:rgb(100%,0%,0%);stroke-opacity:0.5;stroke-miterlimit:10;" d="M 2.833984 2.833984 L -2.833984 -2.833984 " transform="matrix(2,0,0,2,8,8)"/>
<path style="fill-rule:nonzero;fill:rgb(50%,50%,0%);fill-opacity:0.1;stroke-width:0.566929;stroke-linecap:butt;stroke-linejoin:miter;stroke:rgb(100%,0%,0%);stroke-opacity:0.5;stroke-miterlimit:10;" d="M 0 30.671875 L 21.212891 30.671875 L 21.212891 0 L 0 0 Z M 0 30.671875 " transform="matrix(2,0,0,2,8,8)"/>
<path style="fill:none;stroke-width:0.566929;stroke-linecap:butt;stroke-linejoin:miter;stroke:rgb(100%,0%,0%);stroke-opacity:0.5;stroke-miterlimit:10;" d="M -2.833984 10.474609 L 2.833984 4.806641 " transform="matrix(2,0,0,2,8,8)"/>
<path style="fill:none;stroke-width:0.566929;stroke-linecap:butt;stroke-linejoin:miter;stroke:rgb(100%,0%,0%);stroke-opacity:0.5;stroke-miterlimit:10;" d="M 2.833984 10.474609 L -2.833984 4.806641 " transform="matrix(2,0,0,2,8,8)"/>
<path style="fill-rule:nonzero;fill:rgb(50%,50%,0%);fill-opacity:0.1;stroke-width:0.566929;stroke-linecap:butt;stroke-linejoin:miter;stroke:rgb(100%,0%,0%);stroke-opacity:0.5;stroke-miterlimit:10;" d="M 0 7.640625 L 20.822266 7.640625 L 20.822266 0 L 0 0 Z M 0 7.640625 " transform="matrix(2,0,0,2,8,8)"/>
<path style=" stroke:none;fill-rule:nonzero;fill:rgb(0%,0%,0%);fill-opacity:1;" d="M 14.46875 17.59375 C 15.0625 16.84375 15.8125 15.875 16.3125 15.34375 C 16.9375 14.625 17.75 14.3125 18.6875 14.3125 L 18.6875 13.6875 C 18.15625 13.71875 17.5625 13.75 17.03125 13.75 C 16.4375 13.75 15.375 13.71875 15.125 13.6875 L 15.125 14.3125 C 15.5625 14.34375 15.71875 14.59375 15.71875 14.9375 C 15.71875 15.25 15.5 15.5 15.40625 15.625 L 14.1875 17.1875 L 12.625 15.15625 C 12.4375 14.96875 12.4375 14.9375 12.4375 14.8125 C 12.4375 14.5 12.75 14.3125 13.125 14.3125 L 13.125 13.6875 C 12.625 13.71875 11.3125 13.75 10.96875 13.75 C 10.5625 13.75 9.625 13.71875 9.09375 13.6875 L 9.09375 14.3125 C 10.5 14.3125 10.5 14.3125 11.4375 15.53125 L 13.40625 18.09375 L 11.53125 20.46875 C 10.59375 21.625 9.40625 21.65625 9 21.65625 L 9 22.28125 C 9.5 22.25 10.125 22.21875 10.65625 22.21875 C 11.21875 22.21875 12.0625 22.25 12.53125 22.28125 L 12.53125 21.65625 C 12.09375 21.59375 11.96875 21.34375 11.96875 21.03125 C 11.96875 20.59375 12.53125 19.9375 13.75 18.5 L 15.28125 20.5 C 15.4375 20.71875 15.6875 21.03125 15.6875 21.15625 C 15.6875 21.34375 15.5 21.65625 14.96875 21.65625 L 14.96875 22.28125 C 15.5625 22.25 16.6875 22.21875 17.125 22.21875 C 17.65625 22.21875 18.4375 22.25 19.03125 22.28125 L 19.03125 21.65625 C 17.96875 21.65625 17.59375 21.625 17.15625 21.03125 Z M 14.46875 17.59375 "/>
<path style=" stroke:none;fill-rule:nonzero;fill:rgb(0%,0%,0%);fill-opacity:1;" d="M 24.984375 17.59375 C 25.578125 16.84375 26.328125 15.875 26.828125 15.34375 C 27.453125 14.625 28.265625 14.3125 29.203125 14.3125 L 29.203125 13.6875 C 28.671875 13.71875 28.078125 13.75 27.546875 13.75 C 26.953125 13.75 25.890625 13.71875 25.640625 13.6875 L 25.640625 14.3125 C 26.078125 14.34375 26.234375 14.59375 26.234375 14.9375 C 26.234375 15.25 26.015625 15.5 25.921875 15.625 L 24.703125 17.1875 L 23.140625 15.15625 C 22.953125 14.96875 22.953125 14.9375 22.953125 14.8125 C 22.953125 14.5 23.265625 14.3125 23.640625 14.3125 L 23.640625 13.6875 C 23.140625 13.71875 21.828125 13.75 21.484375 13.75 C 21.078125 13.75 20.140625 13.71875 19.609375 13.6875 L 19.609375 14.3125 C 21.015625 14.3125 21.015625 14.3125 21.953125 15.53125 L 23.921875 18.09375 L 22.046875 20.46875 C 21.109375 21.625 19.921875 21.65625 19.515625 21.65625 L 19.515625 22.28125 C 20.015625 22.25 20.640625 22.21875 21.171875 22.21875 C 21.734375 22.21875 22.578125 22.25 23.046875 22.28125 L 23.046875 21.65625 C 22.609375 21.59375 22.484375 21.34375 22.484375 21.03125 C 22.484375 20.59375 23.046875 19.9375 24.265625 18.5 L 25.796875 20.5 C 25.953125 20.71875 26.203125 21.03125 26.203125 21.15625 C 26.203125 21.34375 26.015625 21.65625 25.484375 21.65625 L 25.484375 22.28125 C 26.078125 22.25 27.203125 22.21875 27.640625 22.21875 C 28.171875 22.21875 28.953125 22.25 29.546875 22.28125 L 29.546875 21.65625 C 28.484375 21.65625 28.109375 21.625 27.671875 21.03125 Z M 24.984375 17.59375 "/>
<path style=" stroke:none;fill-rule:nonzero;fill:rgb(0%,0%,0%);fill-opacity:1;" d="M 35.5 17.59375 C 36.09375 16.84375 36.84375 15.875 37.34375 15.34375 C 37.96875 14.625 38.78125 14.3125 39.71875 14.3125 L 39.71875 13.6875 C 39.1875 13.71875 38.59375 13.75 38.0625 13.75 C 37.46875 13.75 36.40625 13.71875 36.15625 13.6875 L 36.15625 14.3125 C 36.59375 14.34375 36.75 14.59375 36.75 14.9375 C 36.75 15.25 36.53125 15.5 36.4375 15.625 L 35.21875 17.1875 L 33.65625 15.15625 C 33.46875 14.96875 33.46875 14.9375 33.46875 14.8125 C 33.46875 14.5 33.78125 14.3125 34.15625 14.3125 L 34.15625 13.6875 C 33.65625 13.71875 32.34375 13.75 32 13.75 C 31.59375 13.75 30.65625 13.71875 30.125 13.6875 L 30.125 14.3125 C 31.53125 14.3125 31.53125 14.3125 32.46875 15.53125 L 34.4375 18.09375 L 32.5625 20.46875 C 31.625 21.625 30.4375 21.65625 30.03125 21.65625 L 30.03125 22.28125 C 30.53125 22.25 31.15625 22.21875 31.6875 22.21875 C 32.25 22.21875 33.09375 22.25 33.5625 22.28125 L 33.5625 21.65625 C 33.125 21.59375 33 21.34375 33 21.03125 C 33 20.59375 33.5625 19.9375 34.78125 18.5 L 36.3125 20.5 C 36.46875 20.71875 36.71875 21.03125 36.71875 21.15625 C 36.71875 21.34375 36.53125 21.65625 36 21.65625 L 36 22.28125 C 36.59375 22.25 37.71875 22.21875 38.15625 22.21875 C 38.6875 22.21875 39.46875 22.25 40.0625 22.28125 L 40.0625 21.65625 C 39 21.65625 38.625 21.625 38.1875 21.03125 Z M 35.5 17.59375 "/>
<path style=" stroke:none;fill-rule:nonzero;fill:rgb(0%,0%,0%);fill-opacity:1;" d="M 46.175781 9.53125 C 46.175781 9.03125 46.175781 9 45.707031 9 C 44.457031 10.28125 42.707031 10.28125 42.082031 10.28125 L 42.082031 10.90625 C 42.488281 10.90625 43.644531 10.90625 44.675781 10.375 L 44.675781 20.71875 C 44.675781 21.4375 44.613281 21.65625 42.832031 21.65625 L 42.207031 21.65625 L 42.207031 22.28125 C 42.894531 22.21875 44.613281 22.21875 45.425781 22.21875 C 46.207031 22.21875 47.957031 22.21875 48.644531 22.28125 L 48.644531 21.65625 L 48.019531 21.65625 C 46.207031 21.65625 46.175781 21.4375 46.175781 20.71875 Z M 46.175781 9.53125 "/>
<path style="fill:none;stroke-width:0.566929;stroke-linecap:butt;stroke-linejoin:miter;stroke:rgb(100%,0%,0%);stroke-opacity:0.5;stroke-miterlimit:10;" d="M -2.833984 18.115234 L 2.833984 12.447266 " transform="matrix(2,0,0,2,8,8)"/>
<path style="fill:none;stroke-width:0.566929;stroke-linecap:butt;stroke-linejoin:miter;stroke:rgb(100%,0%,0%);stroke-opacity:0.5;stroke-miterlimit:10;" d="M 2.833984 18.115234 L -2.833984 12.447266 " transform="matrix(2,0,0,2,8,8)"/>
<path style="fill-rule:nonzero;fill:rgb(50%,50%,0%);fill-opacity:0.1;stroke-width:0.566929;stroke-linecap:butt;stroke-linejoin:miter;stroke:rgb(100%,0%,0%);stroke-opacity:0.5;stroke-miterlimit:10;" d="M 0 15.28125 L 20.130859 15.28125 L 20.130859 7.640625 L 0 7.640625 Z M 0 15.28125 " transform="matrix(2,0,0,2,8,8)"/>
<path style=" stroke:none;fill-rule:nonzero;fill:rgb(0%,0%,0%);fill-opacity:1;" d="M 12.875 34.125 C 11.125 34.125 11.125 32.125 11.125 31.6875 C 11.125 31.15625 11.15625 30.5 11.4375 30 C 11.59375 29.78125 12.0625 29.21875 12.875 29.21875 C 14.59375 29.21875 14.59375 31.1875 14.59375 31.65625 C 14.59375 32.1875 14.59375 32.84375 14.28125 33.34375 C 14.125 33.5625 13.65625 34.125 12.875 34.125 Z M 10.5625 34.90625 C 10.5625 34.84375 10.5625 34.375 10.875 33.96875 C 11.65625 34.53125 12.5 34.59375 12.875 34.59375 C 14.71875 34.59375 16.09375 33.21875 16.09375 31.6875 C 16.09375 30.9375 15.78125 30.21875 15.28125 29.75 C 16 29.0625 16.71875 28.96875 17.0625 28.96875 C 17.125 28.96875 17.21875 28.96875 17.28125 29 C 17.0625 29.0625 16.9375 29.28125 16.9375 29.53125 C 16.9375 29.875 17.21875 30.09375 17.53125 30.09375 C 17.71875 30.09375 18.09375 29.96875 18.09375 29.5 C 18.09375 29.15625 17.875 28.53125 17.09375 28.53125 C 16.6875 28.53125 15.8125 28.65625 14.96875 29.46875 C 14.125 28.8125 13.3125 28.75 12.875 28.75 C 11 28.75 9.625 30.125 9.625 31.65625 C 9.625 32.53125 10.0625 33.28125 10.5625 33.71875 C 10.3125 34 9.9375 34.65625 9.9375 35.375 C 9.9375 36 10.21875 36.75 10.84375 37.15625 C 9.625 37.46875 9 38.34375 9 39.125 C 9 40.5625 10.96875 41.65625 13.40625 41.65625 C 15.75 41.65625 17.8125 40.65625 17.8125 39.09375 C 17.8125 38.40625 17.5625 37.375 16.53125 36.8125 C 15.46875 36.28125 14.3125 36.28125 13.09375 36.28125 C 12.59375 36.28125 11.75 36.28125 11.59375 36.25 C 10.96875 36.15625 10.5625 35.5625 10.5625 34.90625 Z M 13.4375 41.21875 C 11.40625 41.21875 10.03125 40.1875 10.03125 39.125 C 10.03125 38.21875 10.78125 37.46875 11.65625 37.4375 L 12.84375 37.4375 C 14.5625 37.4375 16.78125 37.4375 16.78125 39.125 C 16.78125 40.21875 15.375 41.21875 13.4375 41.21875 Z M 13.4375 41.21875 "/>
<path style=" stroke:none;fill-rule:nonzero;fill:rgb(0%,0%,0%);fill-opacity:1;" d="M 22.835938 34.125 C 21.085938 34.125 21.085938 32.125 21.085938 31.6875 C 21.085938 31.15625 21.117188 30.5 21.398438 30 C 21.554688 29.78125 22.023438 29.21875 22.835938 29.21875 C 24.554688 29.21875 24.554688 31.1875 24.554688 31.65625 C 24.554688 32.1875 24.554688 32.84375 24.242188 33.34375 C 24.085938 33.5625 23.617188 34.125 22.835938 34.125 Z M 20.523438 34.90625 C 20.523438 34.84375 20.523438 34.375 20.835938 33.96875 C 21.617188 34.53125 22.460938 34.59375 22.835938 34.59375 C 24.679688 34.59375 26.054688 33.21875 26.054688 31.6875 C 26.054688 30.9375 25.742188 30.21875 25.242188 29.75 C 25.960938 29.0625 26.679688 28.96875 27.023438 28.96875 C 27.085938 28.96875 27.179688 28.96875 27.242188 29 C 27.023438 29.0625 26.898438 29.28125 26.898438 29.53125 C 26.898438 29.875 27.179688 30.09375 27.492188 30.09375 C 27.679688 30.09375 28.054688 29.96875 28.054688 29.5 C 28.054688 29.15625 27.835938 28.53125 27.054688 28.53125 C 26.648438 28.53125 25.773438 28.65625 24.929688 29.46875 C 24.085938 28.8125 23.273438 28.75 22.835938 28.75 C 20.960938 28.75 19.585938 30.125 19.585938 31.65625 C 19.585938 32.53125 20.023438 33.28125 20.523438 33.71875 C 20.273438 34 19.898438 34.65625 19.898438 35.375 C 19.898438 36 20.179688 36.75 20.804688 37.15625 C 19.585938 37.46875 18.960938 38.34375 18.960938 39.125 C 18.960938 40.5625 20.929688 41.65625 23.367188 41.65625 C 25.710938 41.65625 27.773438 40.65625 27.773438 39.09375 C 27.773438 38.40625 27.523438 37.375 26.492188 36.8125 C 25.429688 36.28125 24.273438 36.28125 23.054688 36.28125 C 22.554688 36.28125 21.710938 36.28125 21.554688 36.25 C 20.929688 36.15625 20.523438 35.5625 20.523438 34.90625 Z M 23.398438 41.21875 C 21.367188 41.21875 19.992188 40.1875 19.992188 39.125 C 19.992188 38.21875 20.742188 37.46875 21.617188 37.4375 L 22.804688 37.4375 C 24.523438 37.4375 26.742188 37.4375 26.742188 39.125 C 26.742188 40.21875 25.335938 41.21875 23.398438 41.21875 Z M 23.398438 41.21875 "/>
<path style=" stroke:none;fill-rule:nonzero;fill:rgb(0%,0%,0%);fill-opacity:1;" d="M 32.800781 34.125 C 31.050781 34.125 31.050781 32.125 31.050781 31.6875 C 31.050781 31.15625 31.082031 30.5 31.363281 30 C 31.519531 29.78125 31.988281 29.21875 32.800781 29.21875 C 34.519531 29.21875 34.519531 31.1875 34.519531 31.65625 C 34.519531 32.1875 34.519531 32.84375 34.207031 33.34375 C 34.050781 33.5625 33.582031 34.125 32.800781 34.125 Z M 30.488281 34.90625 C 30.488281 34.84375 30.488281 34.375 30.800781 33.96875 C 31.582031 34.53125 32.425781 34.59375 32.800781 34.59375 C 34.644531 34.59375 36.019531 33.21875 36.019531 31.6875 C 36.019531 30.9375 35.707031 30.21875 35.207031 29.75 C 35.925781 29.0625 36.644531 28.96875 36.988281 28.96875 C 37.050781 28.96875 37.144531 28.96875 37.207031 29 C 36.988281 29.0625 36.863281 29.28125 36.863281 29.53125 C 36.863281 29.875 37.144531 30.09375 37.457031 30.09375 C 37.644531 30.09375 38.019531 29.96875 38.019531 29.5 C 38.019531 29.15625 37.800781 28.53125 37.019531 28.53125 C 36.613281 28.53125 35.738281 28.65625 34.894531 29.46875 C 34.050781 28.8125 33.238281 28.75 32.800781 28.75 C 30.925781 28.75 29.550781 30.125 29.550781 31.65625 C 29.550781 32.53125 29.988281 33.28125 30.488281 33.71875 C 30.238281 34 29.863281 34.65625 29.863281 35.375 C 29.863281 36 30.144531 36.75 30.769531 37.15625 C 29.550781 37.46875 28.925781 38.34375 28.925781 39.125 C 28.925781 40.5625 30.894531 41.65625 33.332031 41.65625 C 35.675781 41.65625 37.738281 40.65625 37.738281 39.09375 C 37.738281 38.40625 37.488281 37.375 36.457031 36.8125 C 35.394531 36.28125 34.238281 36.28125 33.019531 36.28125 C 32.519531 36.28125 31.675781 36.28125 31.519531 36.25 C 30.894531 36.15625 30.488281 35.5625 30.488281 34.90625 Z M 33.363281 41.21875 C 31.332031 41.21875 29.957031 40.1875 29.957031 39.125 C 29.957031 38.21875 30.707031 37.46875 31.582031 37.4375 L 32.769531 37.4375 C 34.488281 37.4375 36.707031 37.4375 36.707031 39.125 C 36.707031 40.21875 35.300781 41.21875 33.363281 41.21875 Z M 33.363281 41.21875 "/>
<path style=" stroke:none;fill-rule:nonzero;fill:rgb(0%,0%,0%);fill-opacity:1;" d="M 40.855469 36.03125 L 42.980469 33.96875 C 46.074219 31.21875 47.261719 30.15625 47.261719 28.15625 C 47.261719 25.875 45.480469 24.28125 43.042969 24.28125 C 40.792969 24.28125 39.324219 26.125 39.324219 27.90625 C 39.324219 29 40.324219 29 40.386719 29 C 40.730469 29 41.417969 28.78125 41.417969 27.9375 C 41.417969 27.4375 41.042969 26.90625 40.355469 26.90625 C 40.199219 26.90625 40.167969 26.90625 40.105469 26.9375 C 40.542969 25.625 41.636719 24.90625 42.792969 24.90625 C 44.605469 24.90625 45.449219 26.53125 45.449219 28.15625 C 45.449219 29.75 44.480469 31.3125 43.355469 32.5625 L 39.542969 36.8125 C 39.324219 37.03125 39.324219 37.09375 39.324219 37.5625 L 46.730469 37.5625 L 47.261719 34.09375 L 46.792969 34.09375 C 46.667969 34.6875 46.542969 35.5625 46.324219 35.875 C 46.199219 36.03125 44.886719 36.03125 44.449219 36.03125 Z M 40.855469 36.03125 "/>
<path style="fill:none;stroke-width:0.566929;stroke-linecap:butt;stroke-linejoin:miter;stroke:rgb(100%,0%,0%);stroke-opacity:0.5;stroke-miterlimit:10;" d="M -2.833984 25.755859 L 2.833984 20.087891 " transform="matrix(2,0,0,2,8,8)"/>
<path style="fill:none;stroke-width:0.566929;stroke-linecap:butt;stroke-linejoin:miter;stroke:rgb(100%,0%,0%);stroke-opacity:0.5;stroke-miterlimit:10;" d="M 2.833984 25.755859 L -2.833984 20.087891 " transform="matrix(2,0,0,2,8,8)"/>
<path style="fill-rule:nonzero;fill:rgb(50%,50%,0%);fill-opacity:0.1;stroke-width:0.566929;stroke-linecap:butt;stroke-linejoin:miter;stroke:rgb(100%,0%,0%);stroke-opacity:0.5;stroke-miterlimit:10;" d="M 0 22.921875 L 21.212891 22.921875 L 21.212891 15.28125 L 0 15.28125 Z M 0 22.921875 " transform="matrix(2,0,0,2,8,8)"/>
<path style=" stroke:none;fill-rule:nonzero;fill:rgb(0%,0%,0%);fill-opacity:1;" d="M 14.46875 48.15625 C 15.0625 47.40625 15.8125 46.4375 16.3125 45.90625 C 16.9375 45.1875 17.75 44.875 18.6875 44.875 L 18.6875 44.25 C 18.15625 44.28125 17.5625 44.3125 17.03125 44.3125 C 16.4375 44.3125 15.375 44.28125 15.125 44.25 L 15.125 44.875 C 15.5625 44.90625 15.71875 45.15625 15.71875 45.5 C 15.71875 45.8125 15.5 46.0625 15.40625 46.1875 L 14.1875 47.75 L 12.625 45.71875 C 12.4375 45.53125 12.4375 45.5 12.4375 45.375 C 12.4375 45.0625 12.75 44.875 13.125 44.875 L 13.125 44.25 C 12.625 44.28125 11.3125 44.3125 10.96875 44.3125 C 10.5625 44.3125 9.625 44.28125 9.09375 44.25 L 9.09375 44.875 C 10.5 44.875 10.5 44.875 11.4375 46.09375 L 13.40625 48.65625 L 11.53125 51.03125 C 10.59375 52.1875 9.40625 52.21875 9 52.21875 L 9 52.84375 C 9.5 52.8125 10.125 52.78125 10.65625 52.78125 C 11.21875 52.78125 12.0625 52.8125 12.53125 52.84375 L 12.53125 52.21875 C 12.09375 52.15625 11.96875 51.90625 11.96875 51.59375 C 11.96875 51.15625 12.53125 50.5 13.75 49.0625 L 15.28125 51.0625 C 15.4375 51.28125 15.6875 51.59375 15.6875 51.71875 C 15.6875 51.90625 15.5 52.21875 14.96875 52.21875 L 14.96875 52.84375 C 15.5625 52.8125 16.6875 52.78125 17.125 52.78125 C 17.65625 52.78125 18.4375 52.8125 19.03125 52.84375 L 19.03125 52.21875 C 17.96875 52.21875 17.59375 52.1875 17.15625 51.59375 Z M 14.46875 48.15625 "/>
<path style=" stroke:none;fill-rule:nonzero;fill:rgb(0%,0%,0%);fill-opacity:1;" d="M 24.984375 48.15625 C 25.578125 47.40625 26.328125 46.4375 26.828125 45.90625 C 27.453125 45.1875 28.265625 44.875 29.203125 44.875 L 29.203125 44.25 C 28.671875 44.28125 28.078125 44.3125 27.546875 44.3125 C 26.953125 44.3125 25.890625 44.28125 25.640625 44.25 L 25.640625 44.875 C 26.078125 44.90625 26.234375 45.15625 26.234375 45.5 C 26.234375 45.8125 26.015625 46.0625 25.921875 46.1875 L 24.703125 47.75 L 23.140625 45.71875 C 22.953125 45.53125 22.953125 45.5 22.953125 45.375 C 22.953125 45.0625 23.265625 44.875 23.640625 44.875 L 23.640625 44.25 C 23.140625 44.28125 21.828125 44.3125 21.484375 44.3125 C 21.078125 44.3125 20.140625 44.28125 19.609375 44.25 L 19.609375 44.875 C 21.015625 44.875 21.015625 44.875 21.953125 46.09375 L 23.921875 48.65625 L 22.046875 51.03125 C 21.109375 52.1875 19.921875 52.21875 19.515625 52.21875 L 19.515625 52.84375 C 20.015625 52.8125 20.640625 52.78125 21.171875 52.78125 C 21.734375 52.78125 22.578125 52.8125 23.046875 52.84375 L 23.046875 52.21875 C 22.609375 52.15625 22.484375 51.90625 22.484375 51.59375 C 22.484375 51.15625 23.046875 50.5 24.265625 49.0625 L 25.796875 51.0625 C 25.953125 51.28125 26.203125 51.59375 26.203125 51.71875 C 26.203125 51.90625 26.015625 52.21875 25.484375 52.21875 L 25.484375 52.84375 C 26.078125 52.8125 27.203125 52.78125 27.640625 52.78125 C 28.171875 52.78125 28.953125 52.8125 29.546875 52.84375 L 29.546875 52.21875 C 28.484375 52.21875 28.109375 52.1875 27.671875 51.59375 Z M 24.984375 48.15625 "/>
<path style=" stroke:none;fill-rule:nonzero;fill:rgb(0%,0%,0%);fill-opacity:1;" d="M 35.5 48.15625 C 36.09375 47.40625 36.84375 46.4375 37.34375 45.90625 C 37.96875 45.1875 38.78125 44.875 39.71875 44.875 L 39.71875 44.25 C 39.1875 44.28125 38.59375 44.3125 38.0625 44.3125 C 37.46875 44.3125 36.40625 44.28125 36.15625 44.25 L 36.15625 44.875 C 36.59375 44.90625 36.75 45.15625 36.75 45.5 C 36.75 45.8125 36.53125 46.0625 36.4375 46.1875 L 35.21875 47.75 L 33.65625 45.71875 C 33.46875 45.53125 33.46875 45.5 33.46875 45.375 C 33.46875 45.0625 33.78125 44.875 34.15625 44.875 L 34.15625 44.25 C 33.65625 44.28125 32.34375 44.3125 32 44.3125 C 31.59375 44.3125 30.65625 44.28125 30.125 44.25 L 30.125 44.875 C 31.53125 44.875 31.53125 44.875 32.46875 46.09375 L 34.4375 48.65625 L 32.5625 51.03125 C 31.625 52.1875 30.4375 52.21875 30.03125 52.21875 L 30.03125 52.84375 C 30.53125 52.8125 31.15625 52.78125 31.6875 52.78125 C 32.25 52.78125 33.09375 52.8125 33.5625 52.84375 L 33.5625 52.21875 C 33.125 52.15625 33 51.90625 33 51.59375 C 33 51.15625 33.5625 50.5 34.78125 49.0625 L 36.3125 51.0625 C 36.46875 51.28125 36.71875 51.59375 36.71875 51.71875 C 36.71875 51.90625 36.53125 52.21875 36 52.21875 L 36 52.84375 C 36.59375 52.8125 37.71875 52.78125 38.15625 52.78125 C 38.6875 52.78125 39.46875 52.8125 40.0625 52.84375 L 40.0625 52.21875 C 39 52.21875 38.625 52.1875 38.1875 51.59375 Z M 35.5 48.15625 "/>
<path style=" stroke:none;fill-rule:nonzero;fill:rgb(0%,0%,0%);fill-opacity:1;" d="M 46.082031 45.8125 C 47.707031 45.28125 48.863281 43.90625 48.863281 42.3125 C 48.863281 40.6875 47.113281 39.5625 45.207031 39.5625 C 43.207031 39.5625 41.675781 40.75 41.675781 42.28125 C 41.675781 42.9375 42.113281 43.3125 42.707031 43.3125 C 43.300781 43.3125 43.707031 42.875 43.707031 42.28125 C 43.707031 41.3125 42.769531 41.3125 42.488281 41.3125 C 43.082031 40.3125 44.394531 40.0625 45.113281 40.0625 C 45.957031 40.0625 47.050781 40.5 47.050781 42.28125 C 47.050781 42.53125 46.988281 43.6875 46.488281 44.5625 C 45.894531 45.53125 45.207031 45.59375 44.707031 45.59375 C 44.550781 45.625 44.082031 45.65625 43.925781 45.65625 C 43.769531 45.6875 43.644531 45.71875 43.644531 45.90625 C 43.644531 46.125 43.769531 46.125 44.113281 46.125 L 44.988281 46.125 C 46.613281 46.125 47.363281 47.46875 47.363281 49.4375 C 47.363281 52.15625 45.988281 52.71875 45.113281 52.71875 C 44.238281 52.71875 42.738281 52.375 42.050781 51.21875 C 42.738281 51.3125 43.363281 50.875 43.363281 50.125 C 43.363281 49.40625 42.832031 49 42.269531 49 C 41.769531 49 41.144531 49.28125 41.144531 50.15625 C 41.144531 51.96875 42.988281 53.28125 45.175781 53.28125 C 47.613281 53.28125 49.425781 51.46875 49.425781 49.4375 C 49.425781 47.8125 48.144531 46.25 46.082031 45.8125 Z M 46.082031 45.8125 "/>
<path style="fill:none;stroke-width:0.566929;stroke-linecap:butt;stroke-linejoin:miter;stroke:rgb(100%,0%,0%);stroke-opacity:0.5;stroke-miterlimit:10;" d="M -2.833984 33.505859 L 2.833984 27.837891 " transform="matrix(2,0,0,2,8,8)"/>
<path style="fill:none;stroke-width:0.566929;stroke-linecap:butt;stroke-linejoin:miter;stroke:rgb(100%,0%,0%);stroke-opacity:0.5;stroke-miterlimit:10;" d="M 2.833984 33.505859 L -2.833984 27.837891 " transform="matrix(2,0,0,2,8,8)"/>
<path style="fill-rule:nonzero;fill:rgb(50%,50%,0%);fill-opacity:0.1;stroke-width:0.566929;stroke-linecap:butt;stroke-linejoin:miter;stroke:rgb(100%,0%,0%);stroke-opacity:0.5;stroke-miterlimit:10;" d="M 0 30.671875 L 16.078125 30.671875 L 16.078125 22.921875 L 0 22.921875 Z M 0 30.671875 " transform="matrix(2,0,0,2,8,8)"/>
<path style=" stroke:none;fill-rule:nonzero;fill:rgb(0%,0%,0%);fill-opacity:1;" d="M 14.46875 63.65625 C 15.0625 62.90625 15.8125 61.9375 16.3125 61.40625 C 16.9375 60.6875 17.75 60.375 18.6875 60.375 L 18.6875 59.75 C 18.15625 59.78125 17.5625 59.8125 17.03125 59.8125 C 16.4375 59.8125 15.375 59.78125 15.125 59.75 L 15.125 60.375 C 15.5625 60.40625 15.71875 60.65625 15.71875 61 C 15.71875 61.3125 15.5 61.5625 15.40625 61.6875 L 14.1875 63.25 L 12.625 61.21875 C 12.4375 61.03125 12.4375 61 12.4375 60.875 C 12.4375 60.5625 12.75 60.375 13.125 60.375 L 13.125 59.75 C 12.625 59.78125 11.3125 59.8125 10.96875 59.8125 C 10.5625 59.8125 9.625 59.78125 9.09375 59.75 L 9.09375 60.375 C 10.5 60.375 10.5 60.375 11.4375 61.59375 L 13.40625 64.15625 L 11.53125 66.53125 C 10.59375 67.6875 9.40625 67.71875 9 67.71875 L 9 68.34375 C 9.5 68.3125 10.125 68.28125 10.65625 68.28125 C 11.21875 68.28125 12.0625 68.3125 12.53125 68.34375 L 12.53125 67.71875 C 12.09375 67.65625 11.96875 67.40625 11.96875 67.09375 C 11.96875 66.65625 12.53125 66 13.75 64.5625 L 15.28125 66.5625 C 15.4375 66.78125 15.6875 67.09375 15.6875 67.21875 C 15.6875 67.40625 15.5 67.71875 14.96875 67.71875 L 14.96875 68.34375 C 15.5625 68.3125 16.6875 68.28125 17.125 68.28125 C 17.65625 68.28125 18.4375 68.3125 19.03125 68.34375 L 19.03125 67.71875 C 17.96875 67.71875 17.59375 67.6875 17.15625 67.09375 Z M 14.46875 63.65625 "/>
<path style=" stroke:none;fill-rule:nonzero;fill:rgb(0%,0%,0%);fill-opacity:1;" d="M 24.984375 63.65625 C 25.578125 62.90625 26.328125 61.9375 26.828125 61.40625 C 27.453125 60.6875 28.265625 60.375 29.203125 60.375 L 29.203125 59.75 C 28.671875 59.78125 28.078125 59.8125 27.546875 59.8125 C 26.953125 59.8125 25.890625 59.78125 25.640625 59.75 L 25.640625 60.375 C 26.078125 60.40625 26.234375 60.65625 26.234375 61 C 26.234375 61.3125 26.015625 61.5625 25.921875 61.6875 L 24.703125 63.25 L 23.140625 61.21875 C 22.953125 61.03125 22.953125 61 22.953125 60.875 C 22.953125 60.5625 23.265625 60.375 23.640625 60.375 L 23.640625 59.75 C 23.140625 59.78125 21.828125 59.8125 21.484375 59.8125 C 21.078125 59.8125 20.140625 59.78125 19.609375 59.75 L 19.609375 60.375 C 21.015625 60.375 21.015625 60.375 21.953125 61.59375 L 23.921875 64.15625 L 22.046875 66.53125 C 21.109375 67.6875 19.921875 67.71875 19.515625 67.71875 L 19.515625 68.34375 C 20.015625 68.3125 20.640625 68.28125 21.171875 68.28125 C 21.734375 68.28125 22.578125 68.3125 23.046875 68.34375 L 23.046875 67.71875 C 22.609375 67.65625 22.484375 67.40625 22.484375 67.09375 C 22.484375 66.65625 23.046875 66 24.265625 64.5625 L 25.796875 66.5625 C 25.953125 66.78125 26.203125 67.09375 26.203125 67.21875 C 26.203125 67.40625 26.015625 67.71875 25.484375 67.71875 L 25.484375 68.34375 C 26.078125 68.3125 27.203125 68.28125 27.640625 68.28125 C 28.171875 68.28125 28.953125 68.3125 29.546875 68.34375 L 29.546875 67.71875 C 28.484375 67.71875 28.109375 67.6875 27.671875 67.09375 Z M 24.984375 63.65625 "/>
<path style=" stroke:none;fill-rule:nonzero;fill:rgb(0%,0%,0%);fill-opacity:1;" d="M 35.65625 65.0625 L 35.65625 66.78125 C 35.65625 67.5 35.59375 67.71875 34.125 67.71875 L 33.71875 67.71875 L 33.71875 68.34375 C 34.53125 68.28125 35.5625 68.28125 36.40625 68.28125 C 37.25 68.28125 38.28125 68.28125 39.125 68.34375 L 39.125 67.71875 L 38.6875 67.71875 C 37.21875 67.71875 37.1875 67.5 37.1875 66.78125 L 37.1875 65.0625 L 39.15625 65.0625 L 39.15625 64.4375 L 37.1875 64.4375 L 37.1875 55.375 C 37.1875 54.96875 37.1875 54.84375 36.84375 54.84375 C 36.6875 54.84375 36.625 54.84375 36.46875 55.09375 L 30.34375 64.4375 L 30.34375 65.0625 Z M 35.75 64.4375 L 30.90625 64.4375 L 35.75 57 Z M 35.75 64.4375 "/>
<path style="fill:none;stroke-width:0.566929;stroke-linecap:butt;stroke-linejoin:miter;stroke:rgb(100%,0%,0%);stroke-opacity:0.5;stroke-miterlimit:10;" d="M 18.376953 2.833984 L 24.046875 -2.833984 " transform="matrix(2,0,0,2,8,8)"/>
<path style="fill:none;stroke-width:0.566929;stroke-linecap:butt;stroke-linejoin:miter;stroke:rgb(100%,0%,0%);stroke-opacity:0.5;stroke-miterlimit:10;" d="M 24.046875 2.833984 L 18.376953 -2.833984 " transform="matrix(2,0,0,2,8,8)"/>
<path style="fill-rule:nonzero;fill:rgb(50%,50%,0%);fill-opacity:0.1;stroke-width:0.566929;stroke-linecap:butt;stroke-linejoin:miter;stroke:rgb(100%,0%,0%);stroke-opacity:0.5;stroke-miterlimit:10;" d="M 21.212891 23.837891 L 38.876953 23.837891 L 38.876953 0 L 21.212891 0 Z M 21.212891 23.837891 " transform="matrix(2,0,0,2,8,8)"/>
<path style="fill:none;stroke-width:0.566929;stroke-linecap:butt;stroke-linejoin:miter;stroke:rgb(100%,0%,0%);stroke-opacity:0.5;stroke-miterlimit:10;" d="M 18.376953 10.474609 L 24.046875 4.806641 " transform="matrix(2,0,0,2,8,8)"/>
<path style="fill:none;stroke-width:0.566929;stroke-linecap:butt;stroke-linejoin:miter;stroke:rgb(100%,0%,0%);stroke-opacity:0.5;stroke-miterlimit:10;" d="M 24.046875 10.474609 L 18.376953 4.806641 " transform="matrix(2,0,0,2,8,8)"/>
<path style="fill-rule:nonzero;fill:rgb(50%,50%,0%);fill-opacity:0.1;stroke-width:0.566929;stroke-linecap:butt;stroke-linejoin:miter;stroke:rgb(100%,0%,0%);stroke-opacity:0.5;stroke-miterlimit:10;" d="M 21.212891 7.769531 L 35.847656 7.769531 L 35.847656 0 L 21.212891 0 Z M 21.212891 7.769531 " transform="matrix(2,0,0,2,8,8)"/>
<path style=" stroke:none;fill-rule:nonzero;fill:rgb(0%,0%,0%);fill-opacity:1;" d="M 55.519531 9.53125 C 55.519531 9.03125 55.519531 9 55.050781 9 C 53.800781 10.28125 52.050781 10.28125 51.425781 10.28125 L 51.425781 10.90625 C 51.832031 10.90625 52.988281 10.90625 54.019531 10.375 L 54.019531 20.71875 C 54.019531 21.4375 53.957031 21.65625 52.175781 21.65625 L 51.550781 21.65625 L 51.550781 22.28125 C 52.238281 22.21875 53.957031 22.21875 54.769531 22.21875 C 55.550781 22.21875 57.300781 22.21875 57.988281 22.28125 L 57.988281 21.65625 L 57.363281 21.65625 C 55.550781 21.65625 55.519531 21.4375 55.519531 20.71875 Z M 55.519531 9.53125 "/>
<path style=" stroke:none;fill-rule:nonzero;fill:rgb(0%,0%,0%);fill-opacity:1;" d="M 62.136719 20.75 L 64.261719 18.6875 C 67.355469 15.9375 68.542969 14.875 68.542969 12.875 C 68.542969 10.59375 66.761719 9 64.324219 9 C 62.074219 9 60.605469 10.84375 60.605469 12.625 C 60.605469 13.71875 61.605469 13.71875 61.667969 13.71875 C 62.011719 13.71875 62.699219 13.5 62.699219 12.65625 C 62.699219 12.15625 62.324219 11.625 61.636719 11.625 C 61.480469 11.625 61.449219 11.625 61.386719 11.65625 C 61.824219 10.34375 62.917969 9.625 64.074219 9.625 C 65.886719 9.625 66.730469 11.25 66.730469 12.875 C 66.730469 14.46875 65.761719 16.03125 64.636719 17.28125 L 60.824219 21.53125 C 60.605469 21.75 60.605469 21.8125 60.605469 22.28125 L 68.011719 22.28125 L 68.542969 18.8125 L 68.074219 18.8125 C 67.949219 19.40625 67.824219 20.28125 67.605469 20.59375 C 67.480469 20.75 66.167969 20.75 65.730469 20.75 Z M 62.136719 20.75 "/>
<path style=" stroke:none;fill-rule:nonzero;fill:rgb(0%,0%,0%);fill-opacity:1;" d="M 75.351562 15.25 C 76.976562 14.71875 78.132812 13.34375 78.132812 11.75 C 78.132812 10.125 76.382812 9 74.476562 9 C 72.476562 9 70.945312 10.1875 70.945312 11.71875 C 70.945312 12.375 71.382812 12.75 71.976562 12.75 C 72.570312 12.75 72.976562 12.3125 72.976562 11.71875 C 72.976562 10.75 72.039062 10.75 71.757812 10.75 C 72.351562 9.75 73.664062 9.5 74.382812 9.5 C 75.226562 9.5 76.320312 9.9375 76.320312 11.71875 C 76.320312 11.96875 76.257812 13.125 75.757812 14 C 75.164062 14.96875 74.476562 15.03125 73.976562 15.03125 C 73.820312 15.0625 73.351562 15.09375 73.195312 15.09375 C 73.039062 15.125 72.914062 15.15625 72.914062 15.34375 C 72.914062 15.5625 73.039062 15.5625 73.382812 15.5625 L 74.257812 15.5625 C 75.882812 15.5625 76.632812 16.90625 76.632812 18.875 C 76.632812 21.59375 75.257812 22.15625 74.382812 22.15625 C 73.507812 22.15625 72.007812 21.8125 71.320312 20.65625 C 72.007812 20.75 72.632812 20.3125 72.632812 19.5625 C 72.632812 18.84375 72.101562 18.4375 71.539062 18.4375 C 71.039062 18.4375 70.414062 18.71875 70.414062 19.59375 C 70.414062 21.40625 72.257812 22.71875 74.445312 22.71875 C 76.882812 22.71875 78.695312 20.90625 78.695312 18.875 C 78.695312 17.25 77.414062 15.6875 75.351562 15.25 Z M 75.351562 15.25 "/>
<path style="fill:none;stroke-width:0.566929;stroke-linecap:butt;stroke-linejoin:miter;stroke:rgb(100%,0%,0%);stroke-opacity:0.5;stroke-miterlimit:10;" d="M 18.376953 18.634766 L 24.046875 12.964844 " transform="matrix(2,0,0,2,8,8)"/>
<path style="fill:none;stroke-width:0.566929;stroke-linecap:butt;stroke-linejoin:miter;stroke:rgb(100%,0%,0%);stroke-opacity:0.5;stroke-miterlimit:10;" d="M 24.046875 18.634766 L 18.376953 12.964844 " transform="matrix(2,0,0,2,8,8)"/>
<path style="fill-rule:nonzero;fill:rgb(50%,50%,0%);fill-opacity:0.1;stroke-width:0.566929;stroke-linecap:butt;stroke-linejoin:miter;stroke:rgb(100%,0%,0%);stroke-opacity:0.5;stroke-miterlimit:10;" d="M 21.212891 15.859375 L 38.472656 15.859375 L 38.472656 7.769531 L 21.212891 7.769531 Z M 21.212891 15.859375 " transform="matrix(2,0,0,2,8,8)"/>
<path style=" stroke:none;fill-rule:nonzero;fill:rgb(0%,0%,0%);fill-opacity:1;" d="M 56.894531 33.914062 C 57.488281 33.164062 58.238281 32.195312 58.738281 31.664062 C 59.363281 30.945312 60.175781 30.632812 61.113281 30.632812 L 61.113281 30.007812 C 60.582031 30.039062 59.988281 30.070312 59.457031 30.070312 C 58.863281 30.070312 57.800781 30.039062 57.550781 30.007812 L 57.550781 30.632812 C 57.988281 30.664062 58.144531 30.914062 58.144531 31.257812 C 58.144531 31.570312 57.925781 31.820312 57.832031 31.945312 L 56.613281 33.507812 L 55.050781 31.476562 C 54.863281 31.289062 54.863281 31.257812 54.863281 31.132812 C 54.863281 30.820312 55.175781 30.632812 55.550781 30.632812 L 55.550781 30.007812 C 55.050781 30.039062 53.738281 30.070312 53.394531 30.070312 C 52.988281 30.070312 52.050781 30.039062 51.519531 30.007812 L 51.519531 30.632812 C 52.925781 30.632812 52.925781 30.632812 53.863281 31.851562 L 55.832031 34.414062 L 53.957031 36.789062 C 53.019531 37.945312 51.832031 37.976562 51.425781 37.976562 L 51.425781 38.601562 C 51.925781 38.570312 52.550781 38.539062 53.082031 38.539062 C 53.644531 38.539062 54.488281 38.570312 54.957031 38.601562 L 54.957031 37.976562 C 54.519531 37.914062 54.394531 37.664062 54.394531 37.351562 C 54.394531 36.914062 54.957031 36.257812 56.175781 34.820312 L 57.707031 36.820312 C 57.863281 37.039062 58.113281 37.351562 58.113281 37.476562 C 58.113281 37.664062 57.925781 37.976562 57.394531 37.976562 L 57.394531 38.601562 C 57.988281 38.570312 59.113281 38.539062 59.550781 38.539062 C 60.082031 38.539062 60.863281 38.570312 61.457031 38.601562 L 61.457031 37.976562 C 60.394531 37.976562 60.019531 37.945312 59.582031 37.351562 Z M 56.894531 33.914062 "/>
<path style=" stroke:none;fill-rule:nonzero;fill:rgb(0%,0%,0%);fill-opacity:1;" d="M 65.191406 30.007812 L 65.191406 27.695312 C 65.191406 25.945312 66.128906 24.976562 67.003906 24.976562 C 67.066406 24.976562 67.378906 24.976562 67.660156 25.132812 C 67.441406 25.195312 67.066406 25.476562 67.066406 25.976562 C 67.066406 26.414062 67.378906 26.820312 67.941406 26.820312 C 68.503906 26.820312 68.816406 26.414062 68.816406 25.945312 C 68.816406 25.195312 68.066406 24.539062 67.003906 24.539062 C 65.628906 24.539062 63.910156 25.601562 63.910156 27.726562 L 63.910156 30.007812 L 62.347656 30.007812 L 62.347656 30.632812 L 63.910156 30.632812 L 63.910156 37.101562 C 63.910156 37.976562 63.691406 37.976562 62.378906 37.976562 L 62.378906 38.601562 C 63.160156 38.570312 64.097656 38.539062 64.628906 38.539062 C 65.441406 38.539062 66.378906 38.539062 67.160156 38.601562 L 67.160156 37.976562 L 66.753906 37.976562 C 65.285156 37.976562 65.253906 37.757812 65.253906 37.039062 L 65.253906 30.632812 L 67.503906 30.632812 L 67.503906 30.007812 Z M 65.191406 30.007812 "/>
<path style=" stroke:none;fill-rule:nonzero;fill:rgb(0%,0%,0%);fill-opacity:1;" d="M 75.34375 37.507812 L 75.34375 38.820312 L 78.28125 38.601562 L 78.28125 37.976562 C 76.90625 37.976562 76.71875 37.851562 76.71875 36.851562 L 76.71875 24.757812 L 73.875 24.976562 L 73.875 25.601562 C 75.25 25.601562 75.40625 25.726562 75.40625 26.726562 L 75.40625 31.039062 C 74.84375 30.320312 73.96875 29.789062 72.90625 29.789062 C 70.5625 29.789062 68.46875 31.757812 68.46875 34.320312 C 68.46875 36.851562 70.40625 38.820312 72.6875 38.820312 C 73.96875 38.820312 74.84375 38.132812 75.34375 37.507812 Z M 75.34375 32.164062 L 75.34375 36.257812 C 75.34375 36.601562 75.34375 36.632812 75.125 36.976562 C 74.53125 37.945312 73.65625 38.382812 72.78125 38.382812 C 71.875 38.382812 71.15625 37.851562 70.6875 37.101562 C 70.1875 36.289062 70.125 35.164062 70.125 34.320312 C 70.125 33.601562 70.15625 32.414062 70.71875 31.507812 C 71.15625 30.882812 71.90625 30.226562 73 30.226562 C 73.6875 30.226562 74.53125 30.539062 75.125 31.414062 C 75.34375 31.757812 75.34375 31.789062 75.34375 32.164062 Z M 75.34375 32.164062 "/>
<path style=" stroke:none;fill-rule:nonzero;fill:rgb(0%,0%,0%);fill-opacity:1;" d="M 82.382812 24.757812 L 79.507812 24.976562 L 79.507812 25.601562 C 80.914062 25.601562 81.070312 25.726562 81.070312 26.726562 L 81.070312 37.101562 C 81.070312 37.976562 80.851562 37.976562 79.507812 37.976562 L 79.507812 38.601562 C 80.164062 38.570312 81.226562 38.539062 81.726562 38.539062 C 82.226562 38.539062 83.195312 38.570312 83.945312 38.601562 L 83.945312 37.976562 C 82.601562 37.976562 82.382812 37.976562 82.382812 37.101562 Z M 82.382812 24.757812 "/>
<path style="fill:none;stroke-width:0.566929;stroke-linecap:butt;stroke-linejoin:miter;stroke:rgb(100%,0%,0%);stroke-opacity:0.5;stroke-miterlimit:10;" d="M 18.376953 26.617188 L 24.046875 20.947266 " transform="matrix(2,0,0,2,8,8)"/>
<path style="fill:none;stroke-width:0.566929;stroke-linecap:butt;stroke-linejoin:miter;stroke:rgb(100%,0%,0%);stroke-opacity:0.5;stroke-miterlimit:10;" d="M 24.046875 26.617188 L 18.376953 20.947266 " transform="matrix(2,0,0,2,8,8)"/>
<path style="fill-rule:nonzero;fill:rgb(50%,50%,0%);fill-opacity:0.1;stroke-width:0.566929;stroke-linecap:butt;stroke-linejoin:miter;stroke:rgb(100%,0%,0%);stroke-opacity:0.5;stroke-miterlimit:10;" d="M 21.212891 23.837891 L 38.876953 23.837891 L 38.876953 15.859375 L 21.212891 15.859375 Z M 21.212891 23.837891 " transform="matrix(2,0,0,2,8,8)"/>
<path style=" stroke:none;fill-rule:nonzero;fill:rgb(0%,0%,0%);fill-opacity:1;" d="M 54.925781 50.6875 C 55.363281 50.78125 56.988281 51.09375 56.988281 52.53125 C 56.988281 53.53125 56.300781 54.34375 54.738281 54.34375 C 53.050781 54.34375 52.332031 53.21875 51.957031 51.5 C 51.894531 51.25 51.894531 51.1875 51.675781 51.1875 C 51.425781 51.1875 51.425781 51.3125 51.425781 51.65625 L 51.425781 54.3125 C 51.425781 54.65625 51.425781 54.78125 51.644531 54.78125 C 51.738281 54.78125 51.769531 54.75 52.144531 54.375 C 52.175781 54.34375 52.175781 54.3125 52.550781 53.9375 C 53.425781 54.75 54.332031 54.78125 54.738281 54.78125 C 57.019531 54.78125 57.957031 53.4375 57.957031 52 C 57.957031 50.96875 57.363281 50.34375 57.113281 50.125 C 56.457031 49.46875 55.675781 49.3125 54.832031 49.15625 C 53.707031 48.9375 52.394531 48.6875 52.394531 47.53125 C 52.394531 46.8125 52.894531 46 54.613281 46 C 56.800781 46 56.925781 47.8125 56.957031 48.40625 C 56.957031 48.59375 57.144531 48.59375 57.175781 48.59375 C 57.457031 48.59375 57.457031 48.5 57.457031 48.125 L 57.457031 46.09375 C 57.457031 45.78125 57.457031 45.625 57.238281 45.625 C 57.144531 45.625 57.082031 45.625 56.832031 45.875 C 56.769531 45.9375 56.582031 46.125 56.488281 46.1875 C 55.738281 45.625 54.925781 45.625 54.613281 45.625 C 52.175781 45.625 51.425781 46.96875 51.425781 48.09375 C 51.425781 48.78125 51.738281 49.34375 52.269531 49.78125 C 52.925781 50.28125 53.488281 50.40625 54.925781 50.6875 Z M 54.925781 50.6875 "/>
<path style=" stroke:none;fill-rule:nonzero;fill:rgb(0%,0%,0%);fill-opacity:1;" d="M 66.1875 53.46875 L 66.1875 54.78125 L 69.125 54.5625 L 69.125 53.9375 C 67.75 53.9375 67.5625 53.8125 67.5625 52.8125 L 67.5625 40.71875 L 64.71875 40.9375 L 64.71875 41.5625 C 66.09375 41.5625 66.25 41.6875 66.25 42.6875 L 66.25 47 C 65.6875 46.28125 64.8125 45.75 63.75 45.75 C 61.40625 45.75 59.3125 47.71875 59.3125 50.28125 C 59.3125 52.8125 61.25 54.78125 63.53125 54.78125 C 64.8125 54.78125 65.6875 54.09375 66.1875 53.46875 Z M 66.1875 48.125 L 66.1875 52.21875 C 66.1875 52.5625 66.1875 52.59375 65.96875 52.9375 C 65.375 53.90625 64.5 54.34375 63.625 54.34375 C 62.71875 54.34375 62 53.8125 61.53125 53.0625 C 61.03125 52.25 60.96875 51.125 60.96875 50.28125 C 60.96875 49.5625 61 48.375 61.5625 47.46875 C 62 46.84375 62.75 46.1875 63.84375 46.1875 C 64.53125 46.1875 65.375 46.5 65.96875 47.375 C 66.1875 47.71875 66.1875 47.75 66.1875 48.125 Z M 66.1875 48.125 "/>
<path style=" stroke:none;fill-rule:nonzero;fill:rgb(0%,0%,0%);fill-opacity:1;" d="M 76.320312 53.0625 C 76.414062 53.84375 76.945312 54.6875 77.882812 54.6875 C 78.320312 54.6875 79.539062 54.40625 79.539062 52.78125 L 79.539062 51.65625 L 79.039062 51.65625 L 79.039062 52.78125 C 79.039062 53.9375 78.539062 54.0625 78.320312 54.0625 C 77.664062 54.0625 77.570312 53.15625 77.570312 53.0625 L 77.570312 49.09375 C 77.570312 48.25 77.570312 47.46875 76.851562 46.71875 C 76.070312 45.9375 75.070312 45.625 74.132812 45.625 C 72.476562 45.625 71.101562 46.5625 71.101562 47.875 C 71.101562 48.46875 71.507812 48.8125 72.039062 48.8125 C 72.601562 48.8125 72.945312 48.40625 72.945312 47.90625 C 72.945312 47.65625 72.851562 47 71.914062 47 C 72.476562 46.28125 73.445312 46.0625 74.070312 46.0625 C 75.070312 46.0625 76.195312 46.84375 76.195312 48.625 L 76.195312 49.34375 C 75.164062 49.40625 73.789062 49.46875 72.539062 50.0625 C 71.039062 50.75 70.539062 51.78125 70.539062 52.65625 C 70.539062 54.28125 72.476562 54.78125 73.726562 54.78125 C 75.039062 54.78125 75.945312 53.96875 76.320312 53.0625 Z M 76.195312 49.78125 L 76.195312 51.78125 C 76.195312 53.65625 74.757812 54.34375 73.851562 54.34375 C 72.882812 54.34375 72.070312 53.65625 72.070312 52.65625 C 72.070312 51.5625 72.914062 49.90625 76.195312 49.78125 Z M 76.195312 49.78125 "/>
<path style=" stroke:none;fill-rule:nonzero;fill:rgb(0%,0%,0%);fill-opacity:1;" d="M 83.191406 40.71875 L 80.316406 40.9375 L 80.316406 41.5625 C 81.722656 41.5625 81.878906 41.6875 81.878906 42.6875 L 81.878906 53.0625 C 81.878906 53.9375 81.660156 53.9375 80.316406 53.9375 L 80.316406 54.5625 C 80.972656 54.53125 82.035156 54.5 82.535156 54.5 C 83.035156 54.5 84.003906 54.53125 84.753906 54.5625 L 84.753906 53.9375 C 83.410156 53.9375 83.191406 53.9375 83.191406 53.0625 Z M 83.191406 40.71875 "/>
</g>
</svg>
