<?xml version="1.0" encoding="UTF-8"?>
<svg xmlns="http://www.w3.org/2000/svg" xmlns:xlink="http://www.w3.org/1999/xlink" width="49pt" height="24pt" viewBox="0 0 49 24" version="1.1">
<g id="surface130">
<path style="fill:none;stroke-width:0.566929;stroke-linecap:butt;stroke-linejoin:miter;stroke:rgb(100%,0%,0%);stroke-opacity:0.5;stroke-miterlimit:10;" d="M -2.833984 2.833984 L 2.833984 -2.833984 " transform="matrix(2,0,0,2,8,16)"/>
<path style="fill:none;stroke-width:0.566929;stroke-linecap:butt;stroke-linejoin:miter;stroke:rgb(100%,0%,0%);stroke-opacity:0.5;stroke-miterlimit:10;" d="M 2.833984 2.833984 L -2.833984 -2.833984 " transform="matrix(2,0,0,2,8,16)"/>
<path style="fill:none;stroke-width:0.566929;stroke-linecap:butt;stroke-linejoin:miter;stroke:rgb(100%,0%,0%);stroke-opacity:0.5;stroke-miterlimit:10;" d="M 0 0 Z M 0 0 " transform="matrix(2,0,0,2,8,16)"/>
<path style="fill:none;stroke-width:0.566929;stroke-linecap:butt;stroke-linejoin:miter;stroke:rgb(100%,0%,0%);stroke-opacity:0.5;stroke-miterlimit:10;" d="M -2.833984 2.833984 L 2.833984 -2.833984 " transform="matrix(2,0,0,2,8,16)"/>
<path style="fill:none;stroke-width:0.566929;stroke-linecap:butt;stroke-linejoin:miter;stroke:rgb(100%,0%,0%);stroke-opacity:0.5;stroke-miterlimit:10;" d="M 2.833984 2.833984 L -2.833984 -2.833984 " transform="matrix(2,0,0,2,8,16)"/>
<path style="fill:none;stroke-width:0.566929;stroke-linecap:butt;stroke-linejoin:miter;stroke:rgb(100%,0%,0%);stroke-opacity:0.5;stroke-miterlimit:10;" d="M 0 0 L 0 -7.921875 Z M 0 0 " transform="matrix(2,0,0,2,8,16)"/>
<path style=" stroke:none;fill-rule:nonzero;fill:rgb(0%,0%,0%);fill-opacity:1;" d="M 10.5625 13.5 C 10.5625 14.375 10.34375 14.375 9 14.375 L 9 15 C 9.71875 14.96875 10.71875 14.9375 11.28125 14.9375 C 11.78125 14.9375 12.8125 14.96875 13.5 15 L 13.5 14.375 C 12.15625 14.375 11.9375 14.375 11.9375 13.5 L 11.9375 9.8125 C 11.9375 7.75 13.375 6.625 14.625 6.625 C 15.90625 6.625 16.125 7.6875 16.125 8.84375 L 16.125 13.5 C 16.125 14.375 15.90625 14.375 14.5625 14.375 L 14.5625 15 C 15.25 14.96875 16.28125 14.9375 16.8125 14.9375 C 17.3125 14.9375 18.375 14.96875 19.03125 15 L 19.03125 14.375 C 18 14.375 17.5 14.375 17.5 13.78125 L 17.5 9.96875 C 17.5 8.25 17.5 7.65625 16.875 6.9375 C 16.59375 6.59375 15.9375 6.1875 14.78125 6.1875 C 13.09375 6.1875 12.21875 7.375 11.875 8.15625 L 11.875 1.15625 L 9 1.375 L 9 2 C 10.40625 2 10.5625 2.125 10.5625 3.125 Z M 10.5625 13.5 "/>
<path style=" stroke:none;fill-rule:nonzero;fill:rgb(0%,0%,0%);fill-opacity:1;" d="M 21.664062 9.96875 C 21.789062 7 23.476562 6.5 24.164062 6.5 C 26.195312 6.5 26.414062 9.1875 26.414062 9.96875 Z M 21.664062 10.40625 L 27.226562 10.40625 C 27.664062 10.40625 27.726562 10.40625 27.726562 9.96875 C 27.726562 8 26.632812 6.0625 24.164062 6.0625 C 21.851562 6.0625 20.007812 8.125 20.007812 10.625 C 20.007812 13.28125 22.101562 15.21875 24.382812 15.21875 C 26.820312 15.21875 27.726562 13 27.726562 12.625 C 27.726562 12.4375 27.570312 12.375 27.445312 12.375 C 27.289062 12.375 27.226562 12.5 27.195312 12.65625 C 26.507812 14.71875 24.695312 14.71875 24.507812 14.71875 C 23.507812 14.71875 22.726562 14.125 22.257812 13.375 C 21.664062 12.4375 21.664062 11.125 21.664062 10.40625 Z M 21.664062 10.40625 "/>
<path style=" stroke:none;fill-rule:nonzero;fill:rgb(0%,0%,0%);fill-opacity:1;" d="M 31.832031 1.15625 L 28.957031 1.375 L 28.957031 2 C 30.363281 2 30.519531 2.125 30.519531 3.125 L 30.519531 13.5 C 30.519531 14.375 30.300781 14.375 28.957031 14.375 L 28.957031 15 C 29.613281 14.96875 30.675781 14.9375 31.175781 14.9375 C 31.675781 14.9375 32.644531 14.96875 33.394531 15 L 33.394531 14.375 C 32.050781 14.375 31.832031 14.375 31.832031 13.5 Z M 31.832031 1.15625 "/>
<path style=" stroke:none;fill-rule:nonzero;fill:rgb(0%,0%,0%);fill-opacity:1;" d="M 37.367188 1.15625 L 34.492188 1.375 L 34.492188 2 C 35.898438 2 36.054688 2.125 36.054688 3.125 L 36.054688 13.5 C 36.054688 14.375 35.835938 14.375 34.492188 14.375 L 34.492188 15 C 35.148438 14.96875 36.210938 14.9375 36.710938 14.9375 C 37.210938 14.9375 38.179688 14.96875 38.929688 15 L 38.929688 14.375 C 37.585938 14.375 37.367188 14.375 37.367188 13.5 Z M 37.367188 1.15625 "/>
<path style=" stroke:none;fill-rule:nonzero;fill:rgb(0%,0%,0%);fill-opacity:1;" d="M 48.746094 10.71875 C 48.746094 8.1875 46.777344 6.0625 44.371094 6.0625 C 41.871094 6.0625 39.933594 8.25 39.933594 10.71875 C 39.933594 13.3125 41.996094 15.21875 44.339844 15.21875 C 46.746094 15.21875 48.746094 13.25 48.746094 10.71875 Z M 44.371094 14.71875 C 43.496094 14.71875 42.621094 14.3125 42.089844 13.375 C 41.589844 12.5 41.589844 11.28125 41.589844 10.5625 C 41.589844 9.78125 41.589844 8.71875 42.058594 7.84375 C 42.589844 6.9375 43.527344 6.5 44.339844 6.5 C 45.214844 6.5 46.058594 6.9375 46.589844 7.8125 C 47.121094 8.65625 47.121094 9.8125 47.121094 10.5625 C 47.121094 11.28125 47.121094 12.375 46.683594 13.25 C 46.214844 14.15625 45.339844 14.71875 44.371094 14.71875 Z M 44.371094 14.71875 "/>
<path style="fill:none;stroke-width:0.566929;stroke-linecap:butt;stroke-linejoin:miter;stroke:rgb(100%,0%,0%);stroke-opacity:0.5;stroke-miterlimit:10;" d="M -2.833984 2.833984 L 2.833984 -2.833984 " transform="matrix(2,0,0,2,8,16)"/>
<path style="fill:none;stroke-width:0.566929;stroke-linecap:butt;stroke-linejoin:miter;stroke:rgb(100%,0%,0%);stroke-opacity:0.5;stroke-miterlimit:10;" d="M 2.833984 2.833984 L -2.833984 -2.833984 " transform="matrix(2,0,0,2,8,16)"/>
<path style="fill:none;stroke-width:0.566929;stroke-linecap:butt;stroke-linejoin:miter;stroke:rgb(100%,0%,0%);stroke-opacity:0.5;stroke-miterlimit:10;" d="M 0 0 L 0 -7.921875 Z M 0 0 " transform="matrix(2,0,0,2,8,16)"/>
<path style=" stroke:none;fill-rule:nonzero;fill:rgb(0%,0%,0%);fill-opacity:1;" d="M 10.5625 13.5 C 10.5625 14.375 10.34375 14.375 9 14.375 L 9 15 C 9.71875 14.96875 10.71875 14.9375 11.28125 14.9375 C 11.78125 14.9375 12.8125 14.96875 13.5 15 L 13.5 14.375 C 12.15625 14.375 11.9375 14.375 11.9375 13.5 L 11.9375 9.8125 C 11.9375 7.75 13.375 6.625 14.625 6.625 C 15.90625 6.625 16.125 7.6875 16.125 8.84375 L 16.125 13.5 C 16.125 14.375 15.90625 14.375 14.5625 14.375 L 14.5625 15 C 15.25 14.96875 16.28125 14.9375 16.8125 14.9375 C 17.3125 14.9375 18.375 14.96875 19.03125 15 L 19.03125 14.375 C 18 14.375 17.5 14.375 17.5 13.78125 L 17.5 9.96875 C 17.5 8.25 17.5 7.65625 16.875 6.9375 C 16.59375 6.59375 15.9375 6.1875 14.78125 6.1875 C 13.09375 6.1875 12.21875 7.375 11.875 8.15625 L 11.875 1.15625 L 9 1.375 L 9 2 C 10.40625 2 10.5625 2.125 10.5625 3.125 Z M 10.5625 13.5 "/>
<path style=" stroke:none;fill-rule:nonzero;fill:rgb(0%,0%,0%);fill-opacity:1;" d="M 21.664062 9.96875 C 21.789062 7 23.476562 6.5 24.164062 6.5 C 26.195312 6.5 26.414062 9.1875 26.414062 9.96875 Z M 21.664062 10.40625 L 27.226562 10.40625 C 27.664062 10.40625 27.726562 10.40625 27.726562 9.96875 C 27.726562 8 26.632812 6.0625 24.164062 6.0625 C 21.851562 6.0625 20.007812 8.125 20.007812 10.625 C 20.007812 13.28125 22.101562 15.21875 24.382812 15.21875 C 26.820312 15.21875 27.726562 13 27.726562 12.625 C 27.726562 12.4375 27.570312 12.375 27.445312 12.375 C 27.289062 12.375 27.226562 12.5 27.195312 12.65625 C 26.507812 14.71875 24.695312 14.71875 24.507812 14.71875 C 23.507812 14.71875 22.726562 14.125 22.257812 13.375 C 21.664062 12.4375 21.664062 11.125 21.664062 10.40625 Z M 21.664062 10.40625 "/>
<path style=" stroke:none;fill-rule:nonzero;fill:rgb(0%,0%,0%);fill-opacity:1;" d="M 31.832031 1.15625 L 28.957031 1.375 L 28.957031 2 C 30.363281 2 30.519531 2.125 30.519531 3.125 L 30.519531 13.5 C 30.519531 14.375 30.300781 14.375 28.957031 14.375 L 28.957031 15 C 29.613281 14.96875 30.675781 14.9375 31.175781 14.9375 C 31.675781 14.9375 32.644531 14.96875 33.394531 15 L 33.394531 14.375 C 32.050781 14.375 31.832031 14.375 31.832031 13.5 Z M 31.832031 1.15625 "/>
<path style=" stroke:none;fill-rule:nonzero;fill:rgb(0%,0%,0%);fill-opacity:1;" d="M 37.367188 1.15625 L 34.492188 1.375 L 34.492188 2 C 35.898438 2 36.054688 2.125 36.054688 3.125 L 36.054688 13.5 C 36.054688 14.375 35.835938 14.375 34.492188 14.375 L 34.492188 15 C 35.148438 14.96875 36.210938 14.9375 36.710938 14.9375 C 37.210938 14.9375 38.179688 14.96875 38.929688 15 L 38.929688 14.375 C 37.585938 14.375 37.367188 14.375 37.367188 13.5 Z M 37.367188 1.15625 "/>
<path style=" stroke:none;fill-rule:nonzero;fill:rgb(0%,0%,0%);fill-opacity:1;" d="M 48.746094 10.71875 C 48.746094 8.1875 46.777344 6.0625 44.371094 6.0625 C 41.871094 6.0625 39.933594 8.25 39.933594 10.71875 C 39.933594 13.3125 41.996094 15.21875 44.339844 15.21875 C 46.746094 15.21875 48.746094 13.25 48.746094 10.71875 Z M 44.371094 14.71875 C 43.496094 14.71875 42.621094 14.3125 42.089844 13.375 C 41.589844 12.5 41.589844 11.28125 41.589844 10.5625 C 41.589844 9.78125 41.589844 8.71875 42.058594 7.84375 C 42.589844 6.9375 43.527344 6.5 44.339844 6.5 C 45.214844 6.5 46.058594 6.9375 46.589844 7.8125 C 47.121094 8.65625 47.121094 9.8125 47.121094 10.5625 C 47.121094 11.28125 47.121094 12.375 46.683594 13.25 C 46.214844 14.15625 45.339844 14.71875 44.371094 14.71875 Z M 44.371094 14.71875 "/>
</g>
</svg>
