<?xml version="1.0" encoding="UTF-8"?>
<svg xmlns="http://www.w3.org/2000/svg" xmlns:xlink="http://www.w3.org/1999/xlink" width="155pt" height="26pt" viewBox="0 0 155 26" version="1.1">
<g id="surface147">
<path style="fill:none;stroke-width:0.566929;stroke-linecap:butt;stroke-linejoin:miter;stroke:rgb(100%,0%,0%);stroke-opacity:0.5;stroke-miterlimit:10;" d="M -2.833984 2.833984 L 2.833984 -2.833984 " transform="matrix(2,0,0,2,8,18)"/>
<path style="fill:none;stroke-width:0.566929;stroke-linecap:butt;stroke-linejoin:miter;stroke:rgb(100%,0%,0%);stroke-opacity:0.5;stroke-miterlimit:10;" d="M 2.833984 2.833984 L -2.833984 -2.833984 " transform="matrix(2,0,0,2,8,18)"/>
<path style="fill-rule:nonzero;fill:rgb(50%,50%,0%);fill-opacity:0.1;stroke-width:0.566929;stroke-linecap:butt;stroke-linejoin:miter;stroke:rgb(100%,0%,0%);stroke-opacity:0.5;stroke-miterlimit:10;" d="M 0 2.046875 L 72.068359 2.046875 L 72.068359 -7.921875 L 0 -7.921875 Z M 0 2.046875 " transform="matrix(2,0,0,2,8,18)"/>
<path style="fill:none;stroke-width:0.566929;stroke-linecap:butt;stroke-linejoin:miter;stroke:rgb(100%,0%,0%);stroke-opacity:0.5;stroke-miterlimit:10;" d="M -2.833984 2.833984 L 2.833984 -2.833984 " transform="matrix(2,0,0,2,8,18)"/>
<path style="fill:none;stroke-width:0.566929;stroke-linecap:butt;stroke-linejoin:miter;stroke:rgb(100%,0%,0%);stroke-opacity:0.5;stroke-miterlimit:10;" d="M 2.833984 2.833984 L -2.833984 -2.833984 " transform="matrix(2,0,0,2,8,18)"/>
<path style="fill-rule:nonzero;fill:rgb(50%,50%,0%);fill-opacity:0.1;stroke-width:0.566929;stroke-linecap:butt;stroke-linejoin:miter;stroke:rgb(100%,0%,0%);stroke-opacity:0.5;stroke-miterlimit:10;" d="M 0 2.046875 L 25.972656 2.046875 L 25.972656 -7.921875 L 0 -7.921875 Z M 0 2.046875 " transform="matrix(2,0,0,2,8,18)"/>
<path style=" stroke:none;fill-rule:nonzero;fill:rgb(0%,0%,0%);fill-opacity:1;" d="M 12.875 13.5625 C 11.125 13.5625 11.125 11.5625 11.125 11.125 C 11.125 10.59375 11.15625 9.9375 11.4375 9.4375 C 11.59375 9.21875 12.0625 8.65625 12.875 8.65625 C 14.59375 8.65625 14.59375 10.625 14.59375 11.09375 C 14.59375 11.625 14.59375 12.28125 14.28125 12.78125 C 14.125 13 13.65625 13.5625 12.875 13.5625 Z M 10.5625 14.34375 C 10.5625 14.28125 10.5625 13.8125 10.875 13.40625 C 11.65625 13.96875 12.5 14.03125 12.875 14.03125 C 14.71875 14.03125 16.09375 12.65625 16.09375 11.125 C 16.09375 10.375 15.78125 9.65625 15.28125 9.1875 C 16 8.5 16.71875 8.40625 17.0625 8.40625 C 17.125 8.40625 17.21875 8.40625 17.28125 8.4375 C 17.0625 8.5 16.9375 8.71875 16.9375 8.96875 C 16.9375 9.3125 17.21875 9.53125 17.53125 9.53125 C 17.71875 9.53125 18.09375 9.40625 18.09375 8.9375 C 18.09375 8.59375 17.875 7.96875 17.09375 7.96875 C 16.6875 7.96875 15.8125 8.09375 14.96875 8.90625 C 14.125 8.25 13.3125 8.1875 12.875 8.1875 C 11 8.1875 9.625 9.5625 9.625 11.09375 C 9.625 11.96875 10.0625 12.71875 10.5625 13.15625 C 10.3125 13.4375 9.9375 14.09375 9.9375 14.8125 C 9.9375 15.4375 10.21875 16.1875 10.84375 16.59375 C 9.625 16.90625 9 17.78125 9 18.5625 C 9 20 10.96875 21.09375 13.40625 21.09375 C 15.75 21.09375 17.8125 20.09375 17.8125 18.53125 C 17.8125 17.84375 17.5625 16.8125 16.53125 16.25 C 15.46875 15.71875 14.3125 15.71875 13.09375 15.71875 C 12.59375 15.71875 11.75 15.71875 11.59375 15.6875 C 10.96875 15.59375 10.5625 15 10.5625 14.34375 Z M 13.4375 20.65625 C 11.40625 20.65625 10.03125 19.625 10.03125 18.5625 C 10.03125 17.65625 10.78125 16.90625 11.65625 16.875 L 12.84375 16.875 C 14.5625 16.875 16.78125 16.875 16.78125 18.5625 C 16.78125 19.65625 15.375 20.65625 13.4375 20.65625 Z M 13.4375 20.65625 "/>
<path style=" stroke:none;fill-rule:nonzero;fill:rgb(0%,0%,0%);fill-opacity:1;" d="M 20.617188 11.96875 C 20.742188 9 22.429688 8.5 23.117188 8.5 C 25.148438 8.5 25.367188 11.1875 25.367188 11.96875 Z M 20.617188 12.40625 L 26.179688 12.40625 C 26.617188 12.40625 26.679688 12.40625 26.679688 11.96875 C 26.679688 10 25.585938 8.0625 23.117188 8.0625 C 20.804688 8.0625 18.960938 10.125 18.960938 12.625 C 18.960938 15.28125 21.054688 17.21875 23.335938 17.21875 C 25.773438 17.21875 26.679688 15 26.679688 14.625 C 26.679688 14.4375 26.523438 14.375 26.398438 14.375 C 26.242188 14.375 26.179688 14.5 26.148438 14.65625 C 25.460938 16.71875 23.648438 16.71875 23.460938 16.71875 C 22.460938 16.71875 21.679688 16.125 21.210938 15.375 C 20.617188 14.4375 20.617188 13.125 20.617188 12.40625 Z M 20.617188 12.40625 "/>
<path style=" stroke:none;fill-rule:nonzero;fill:rgb(0%,0%,0%);fill-opacity:1;" d="M 31.691406 13.5625 C 29.941406 13.5625 29.941406 11.5625 29.941406 11.125 C 29.941406 10.59375 29.972656 9.9375 30.253906 9.4375 C 30.410156 9.21875 30.878906 8.65625 31.691406 8.65625 C 33.410156 8.65625 33.410156 10.625 33.410156 11.09375 C 33.410156 11.625 33.410156 12.28125 33.097656 12.78125 C 32.941406 13 32.472656 13.5625 31.691406 13.5625 Z M 29.378906 14.34375 C 29.378906 14.28125 29.378906 13.8125 29.691406 13.40625 C 30.472656 13.96875 31.316406 14.03125 31.691406 14.03125 C 33.535156 14.03125 34.910156 12.65625 34.910156 11.125 C 34.910156 10.375 34.597656 9.65625 34.097656 9.1875 C 34.816406 8.5 35.535156 8.40625 35.878906 8.40625 C 35.941406 8.40625 36.035156 8.40625 36.097656 8.4375 C 35.878906 8.5 35.753906 8.71875 35.753906 8.96875 C 35.753906 9.3125 36.035156 9.53125 36.347656 9.53125 C 36.535156 9.53125 36.910156 9.40625 36.910156 8.9375 C 36.910156 8.59375 36.691406 7.96875 35.910156 7.96875 C 35.503906 7.96875 34.628906 8.09375 33.785156 8.90625 C 32.941406 8.25 32.128906 8.1875 31.691406 8.1875 C 29.816406 8.1875 28.441406 9.5625 28.441406 11.09375 C 28.441406 11.96875 28.878906 12.71875 29.378906 13.15625 C 29.128906 13.4375 28.753906 14.09375 28.753906 14.8125 C 28.753906 15.4375 29.035156 16.1875 29.660156 16.59375 C 28.441406 16.90625 27.816406 17.78125 27.816406 18.5625 C 27.816406 20 29.785156 21.09375 32.222656 21.09375 C 34.566406 21.09375 36.628906 20.09375 36.628906 18.53125 C 36.628906 17.84375 36.378906 16.8125 35.347656 16.25 C 34.285156 15.71875 33.128906 15.71875 31.910156 15.71875 C 31.410156 15.71875 30.566406 15.71875 30.410156 15.6875 C 29.785156 15.59375 29.378906 15 29.378906 14.34375 Z M 32.253906 20.65625 C 30.222656 20.65625 28.847656 19.625 28.847656 18.5625 C 28.847656 17.65625 29.597656 16.90625 30.472656 16.875 L 31.660156 16.875 C 33.378906 16.875 35.597656 16.875 35.597656 18.5625 C 35.597656 19.65625 34.191406 20.65625 32.253906 20.65625 Z M 32.253906 20.65625 "/>
<path style=" stroke:none;fill-rule:nonzero;fill:rgb(0%,0%,0%);fill-opacity:1;" d="M 39.40625 15.5 C 39.40625 16.375 39.1875 16.375 37.84375 16.375 L 37.84375 17 C 38.5625 16.96875 39.5625 16.9375 40.125 16.9375 C 40.625 16.9375 41.65625 16.96875 42.34375 17 L 42.34375 16.375 C 41 16.375 40.78125 16.375 40.78125 15.5 L 40.78125 11.8125 C 40.78125 9.75 42.21875 8.625 43.46875 8.625 C 44.75 8.625 44.96875 9.6875 44.96875 10.84375 L 44.96875 15.5 C 44.96875 16.375 44.75 16.375 43.40625 16.375 L 43.40625 17 C 44.09375 16.96875 45.125 16.9375 45.65625 16.9375 C 46.15625 16.9375 47.21875 16.96875 47.875 17 L 47.875 16.375 C 46.84375 16.375 46.34375 16.375 46.34375 15.78125 L 46.34375 11.96875 C 46.34375 10.25 46.34375 9.65625 45.71875 8.9375 C 45.4375 8.59375 44.78125 8.1875 43.625 8.1875 C 41.9375 8.1875 41.0625 9.375 40.71875 10.15625 L 40.71875 3.15625 L 37.84375 3.375 L 37.84375 4 C 39.25 4 39.40625 4.125 39.40625 5.125 Z M 39.40625 15.5 "/>
<path style=" stroke:none;fill-rule:nonzero;fill:rgb(0%,0%,0%);fill-opacity:1;" d="M 50.476562 15.5 C 50.476562 16.375 50.257812 16.375 48.914062 16.375 L 48.914062 17 C 49.632812 16.96875 50.632812 16.9375 51.195312 16.9375 C 51.695312 16.9375 52.726562 16.96875 53.414062 17 L 53.414062 16.375 C 52.070312 16.375 51.851562 16.375 51.851562 15.5 L 51.851562 11.8125 C 51.851562 9.75 53.289062 8.625 54.539062 8.625 C 55.820312 8.625 56.039062 9.6875 56.039062 10.84375 L 56.039062 15.5 C 56.039062 16.375 55.820312 16.375 54.476562 16.375 L 54.476562 17 C 55.164062 16.96875 56.195312 16.9375 56.726562 16.9375 C 57.226562 16.9375 58.289062 16.96875 58.945312 17 L 58.945312 16.375 C 57.914062 16.375 57.414062 16.375 57.414062 15.78125 L 57.414062 11.96875 C 57.414062 10.25 57.414062 9.65625 56.789062 8.9375 C 56.507812 8.59375 55.851562 8.1875 54.695312 8.1875 C 53.007812 8.1875 52.132812 9.375 51.789062 10.15625 L 51.789062 3.15625 L 48.914062 3.375 L 48.914062 4 C 50.320312 4 50.476562 4.125 50.476562 5.125 Z M 50.476562 15.5 "/>
<path style="fill:none;stroke-width:0.566929;stroke-linecap:butt;stroke-linejoin:miter;stroke:rgb(100%,0%,0%);stroke-opacity:0.5;stroke-miterlimit:10;" d="M 23.136719 2.833984 L 28.806641 -2.833984 " transform="matrix(2,0,0,2,8,18)"/>
<path style="fill:none;stroke-width:0.566929;stroke-linecap:butt;stroke-linejoin:miter;stroke:rgb(100%,0%,0%);stroke-opacity:0.5;stroke-miterlimit:10;" d="M 28.806641 2.833984 L 23.136719 -2.833984 " transform="matrix(2,0,0,2,8,18)"/>
<path style="fill-rule:nonzero;fill:rgb(50%,50%,0%);fill-opacity:0.1;stroke-width:0.566929;stroke-linecap:butt;stroke-linejoin:miter;stroke:rgb(100%,0%,0%);stroke-opacity:0.5;stroke-miterlimit:10;" d="M 25.972656 0.109375 L 47.039062 0.109375 L 47.039062 -7.921875 L 25.972656 -7.921875 Z M 25.972656 0.109375 " transform="matrix(2,0,0,2,8,18)"/>
<path style=" stroke:none;fill-rule:nonzero;fill:rgb(0%,0%,0%);fill-opacity:1;" d="M 66.414062 12.3125 C 67.007812 11.5625 67.757812 10.59375 68.257812 10.0625 C 68.882812 9.34375 69.695312 9.03125 70.632812 9.03125 L 70.632812 8.40625 C 70.101562 8.4375 69.507812 8.46875 68.976562 8.46875 C 68.382812 8.46875 67.320312 8.4375 67.070312 8.40625 L 67.070312 9.03125 C 67.507812 9.0625 67.664062 9.3125 67.664062 9.65625 C 67.664062 9.96875 67.445312 10.21875 67.351562 10.34375 L 66.132812 11.90625 L 64.570312 9.875 C 64.382812 9.6875 64.382812 9.65625 64.382812 9.53125 C 64.382812 9.21875 64.695312 9.03125 65.070312 9.03125 L 65.070312 8.40625 C 64.570312 8.4375 63.257812 8.46875 62.914062 8.46875 C 62.507812 8.46875 61.570312 8.4375 61.039062 8.40625 L 61.039062 9.03125 C 62.445312 9.03125 62.445312 9.03125 63.382812 10.25 L 65.351562 12.8125 L 63.476562 15.1875 C 62.539062 16.34375 61.351562 16.375 60.945312 16.375 L 60.945312 17 C 61.445312 16.96875 62.070312 16.9375 62.601562 16.9375 C 63.164062 16.9375 64.007812 16.96875 64.476562 17 L 64.476562 16.375 C 64.039062 16.3125 63.914062 16.0625 63.914062 15.75 C 63.914062 15.3125 64.476562 14.65625 65.695312 13.21875 L 67.226562 15.21875 C 67.382812 15.4375 67.632812 15.75 67.632812 15.875 C 67.632812 16.0625 67.445312 16.375 66.914062 16.375 L 66.914062 17 C 67.507812 16.96875 68.632812 16.9375 69.070312 16.9375 C 69.601562 16.9375 70.382812 16.96875 70.976562 17 L 70.976562 16.375 C 69.914062 16.375 69.539062 16.34375 69.101562 15.75 Z M 66.414062 12.3125 "/>
<path style=" stroke:none;fill-rule:nonzero;fill:rgb(0%,0%,0%);fill-opacity:1;" d="M 76.929688 12.3125 C 77.523438 11.5625 78.273438 10.59375 78.773438 10.0625 C 79.398438 9.34375 80.210938 9.03125 81.148438 9.03125 L 81.148438 8.40625 C 80.617188 8.4375 80.023438 8.46875 79.492188 8.46875 C 78.898438 8.46875 77.835938 8.4375 77.585938 8.40625 L 77.585938 9.03125 C 78.023438 9.0625 78.179688 9.3125 78.179688 9.65625 C 78.179688 9.96875 77.960938 10.21875 77.867188 10.34375 L 76.648438 11.90625 L 75.085938 9.875 C 74.898438 9.6875 74.898438 9.65625 74.898438 9.53125 C 74.898438 9.21875 75.210938 9.03125 75.585938 9.03125 L 75.585938 8.40625 C 75.085938 8.4375 73.773438 8.46875 73.429688 8.46875 C 73.023438 8.46875 72.085938 8.4375 71.554688 8.40625 L 71.554688 9.03125 C 72.960938 9.03125 72.960938 9.03125 73.898438 10.25 L 75.867188 12.8125 L 73.992188 15.1875 C 73.054688 16.34375 71.867188 16.375 71.460938 16.375 L 71.460938 17 C 71.960938 16.96875 72.585938 16.9375 73.117188 16.9375 C 73.679688 16.9375 74.523438 16.96875 74.992188 17 L 74.992188 16.375 C 74.554688 16.3125 74.429688 16.0625 74.429688 15.75 C 74.429688 15.3125 74.992188 14.65625 76.210938 13.21875 L 77.742188 15.21875 C 77.898438 15.4375 78.148438 15.75 78.148438 15.875 C 78.148438 16.0625 77.960938 16.375 77.429688 16.375 L 77.429688 17 C 78.023438 16.96875 79.148438 16.9375 79.585938 16.9375 C 80.117188 16.9375 80.898438 16.96875 81.492188 17 L 81.492188 16.375 C 80.429688 16.375 80.054688 16.34375 79.617188 15.75 Z M 76.929688 12.3125 "/>
<path style=" stroke:none;fill-rule:nonzero;fill:rgb(0%,0%,0%);fill-opacity:1;" d="M 89.289062 15.90625 L 89.289062 17.21875 L 92.226562 17 L 92.226562 16.375 C 90.851562 16.375 90.664062 16.25 90.664062 15.25 L 90.664062 3.15625 L 87.820312 3.375 L 87.820312 4 C 89.195312 4 89.351562 4.125 89.351562 5.125 L 89.351562 9.4375 C 88.789062 8.71875 87.914062 8.1875 86.851562 8.1875 C 84.507812 8.1875 82.414062 10.15625 82.414062 12.71875 C 82.414062 15.25 84.351562 17.21875 86.632812 17.21875 C 87.914062 17.21875 88.789062 16.53125 89.289062 15.90625 Z M 89.289062 10.5625 L 89.289062 14.65625 C 89.289062 15 89.289062 15.03125 89.070312 15.375 C 88.476562 16.34375 87.601562 16.78125 86.726562 16.78125 C 85.820312 16.78125 85.101562 16.25 84.632812 15.5 C 84.132812 14.6875 84.070312 13.5625 84.070312 12.71875 C 84.070312 12 84.101562 10.8125 84.664062 9.90625 C 85.101562 9.28125 85.851562 8.625 86.945312 8.625 C 87.632812 8.625 88.476562 8.9375 89.070312 9.8125 C 89.289062 10.15625 89.289062 10.1875 89.289062 10.5625 Z M 89.289062 10.5625 "/>
<path style=" stroke:none;fill-rule:nonzero;fill:rgb(0%,0%,0%);fill-opacity:1;" d="M 95.015625 11.96875 C 95.140625 9 96.828125 8.5 97.515625 8.5 C 99.546875 8.5 99.765625 11.1875 99.765625 11.96875 Z M 95.015625 12.40625 L 100.578125 12.40625 C 101.015625 12.40625 101.078125 12.40625 101.078125 11.96875 C 101.078125 10 99.984375 8.0625 97.515625 8.0625 C 95.203125 8.0625 93.359375 10.125 93.359375 12.625 C 93.359375 15.28125 95.453125 17.21875 97.734375 17.21875 C 100.171875 17.21875 101.078125 15 101.078125 14.625 C 101.078125 14.4375 100.921875 14.375 100.796875 14.375 C 100.640625 14.375 100.578125 14.5 100.546875 14.65625 C 99.859375 16.71875 98.046875 16.71875 97.859375 16.71875 C 96.859375 16.71875 96.078125 16.125 95.609375 15.375 C 95.015625 14.4375 95.015625 13.125 95.015625 12.40625 Z M 95.015625 12.40625 "/>
<path style="fill:none;stroke-width:0.566929;stroke-linecap:butt;stroke-linejoin:miter;stroke:rgb(100%,0%,0%);stroke-opacity:0.5;stroke-miterlimit:10;" d="M 44.205078 2.833984 L 49.875 -2.833984 " transform="matrix(2,0,0,2,8,18)"/>
<path style="fill:none;stroke-width:0.566929;stroke-linecap:butt;stroke-linejoin:miter;stroke:rgb(100%,0%,0%);stroke-opacity:0.5;stroke-miterlimit:10;" d="M 49.875 2.833984 L 44.205078 -2.833984 " transform="matrix(2,0,0,2,8,18)"/>
<path style="fill-rule:nonzero;fill:rgb(50%,50%,0%);fill-opacity:0.1;stroke-width:0.566929;stroke-linecap:butt;stroke-linejoin:miter;stroke:rgb(100%,0%,0%);stroke-opacity:0.5;stroke-miterlimit:10;" d="M 47.039062 2.046875 L 72.068359 2.046875 L 72.068359 -5.46875 L 47.039062 -5.46875 Z M 47.039062 2.046875 " transform="matrix(2,0,0,2,8,18)"/>
<path style=" stroke:none;fill-rule:nonzero;fill:rgb(0%,0%,0%);fill-opacity:1;" d="M 108.546875 12.3125 C 109.140625 11.5625 109.890625 10.59375 110.390625 10.0625 C 111.015625 9.34375 111.828125 9.03125 112.765625 9.03125 L 112.765625 8.40625 C 112.234375 8.4375 111.640625 8.46875 111.109375 8.46875 C 110.515625 8.46875 109.453125 8.4375 109.203125 8.40625 L 109.203125 9.03125 C 109.640625 9.0625 109.796875 9.3125 109.796875 9.65625 C 109.796875 9.96875 109.578125 10.21875 109.484375 10.34375 L 108.265625 11.90625 L 106.703125 9.875 C 106.515625 9.6875 106.515625 9.65625 106.515625 9.53125 C 106.515625 9.21875 106.828125 9.03125 107.203125 9.03125 L 107.203125 8.40625 C 106.703125 8.4375 105.390625 8.46875 105.046875 8.46875 C 104.640625 8.46875 103.703125 8.4375 103.171875 8.40625 L 103.171875 9.03125 C 104.578125 9.03125 104.578125 9.03125 105.515625 10.25 L 107.484375 12.8125 L 105.609375 15.1875 C 104.671875 16.34375 103.484375 16.375 103.078125 16.375 L 103.078125 17 C 103.578125 16.96875 104.203125 16.9375 104.734375 16.9375 C 105.296875 16.9375 106.140625 16.96875 106.609375 17 L 106.609375 16.375 C 106.171875 16.3125 106.046875 16.0625 106.046875 15.75 C 106.046875 15.3125 106.609375 14.65625 107.828125 13.21875 L 109.359375 15.21875 C 109.515625 15.4375 109.765625 15.75 109.765625 15.875 C 109.765625 16.0625 109.578125 16.375 109.046875 16.375 L 109.046875 17 C 109.640625 16.96875 110.765625 16.9375 111.203125 16.9375 C 111.734375 16.9375 112.515625 16.96875 113.109375 17 L 113.109375 16.375 C 112.046875 16.375 111.671875 16.34375 111.234375 15.75 Z M 108.546875 12.3125 "/>
<path style=" stroke:none;fill-rule:nonzero;fill:rgb(0%,0%,0%);fill-opacity:1;" d="M 121.625 10.3125 C 122.125 9.03125 123.15625 9.03125 123.46875 9.03125 L 123.46875 8.40625 C 123 8.4375 122.4375 8.46875 121.96875 8.46875 C 121.625 8.46875 120.6875 8.4375 120.25 8.40625 L 120.25 9.03125 C 120.875 9.03125 121.1875 9.375 121.1875 9.875 C 121.1875 10.09375 121.15625 10.125 121.0625 10.375 L 119.03125 15.25 L 116.84375 9.90625 C 116.75 9.6875 116.71875 9.625 116.71875 9.53125 C 116.71875 9.03125 117.4375 9.03125 117.84375 9.03125 L 117.84375 8.40625 C 117.3125 8.4375 116 8.46875 115.65625 8.46875 C 115.125 8.46875 114.3125 8.4375 113.71875 8.40625 L 113.71875 9.03125 C 114.6875 9.03125 115.0625 9.03125 115.34375 9.71875 L 118.34375 17 C 118.21875 17.25 117.9375 17.90625 117.84375 18.1875 C 117.40625 19.28125 116.84375 20.65625 115.5625 20.65625 C 115.46875 20.65625 115 20.65625 114.625 20.28125 C 115.25 20.21875 115.40625 19.78125 115.40625 19.4375 C 115.40625 18.9375 115.03125 18.625 114.5625 18.625 C 114.15625 18.625 113.71875 18.875 113.71875 19.46875 C 113.71875 20.375 114.5625 21.09375 115.5625 21.09375 C 116.8125 21.09375 117.625 19.9375 118.09375 18.8125 Z M 121.625 10.3125 "/>
<path style=" stroke:none;fill-rule:nonzero;fill:rgb(0%,0%,0%);fill-opacity:1;" d="M 125.523438 11.96875 C 125.648438 9 127.335938 8.5 128.023438 8.5 C 130.054688 8.5 130.273438 11.1875 130.273438 11.96875 Z M 125.523438 12.40625 L 131.085938 12.40625 C 131.523438 12.40625 131.585938 12.40625 131.585938 11.96875 C 131.585938 10 130.492188 8.0625 128.023438 8.0625 C 125.710938 8.0625 123.867188 10.125 123.867188 12.625 C 123.867188 15.28125 125.960938 17.21875 128.242188 17.21875 C 130.679688 17.21875 131.585938 15 131.585938 14.625 C 131.585938 14.4375 131.429688 14.375 131.304688 14.375 C 131.148438 14.375 131.085938 14.5 131.054688 14.65625 C 130.367188 16.71875 128.554688 16.71875 128.367188 16.71875 C 127.367188 16.71875 126.585938 16.125 126.117188 15.375 C 125.523438 14.4375 125.523438 13.125 125.523438 12.40625 Z M 125.523438 12.40625 "/>
<path style=" stroke:none;fill-rule:nonzero;fill:rgb(0%,0%,0%);fill-opacity:1;" d="M 134.378906 11.96875 C 134.503906 9 136.191406 8.5 136.878906 8.5 C 138.910156 8.5 139.128906 11.1875 139.128906 11.96875 Z M 134.378906 12.40625 L 139.941406 12.40625 C 140.378906 12.40625 140.441406 12.40625 140.441406 11.96875 C 140.441406 10 139.347656 8.0625 136.878906 8.0625 C 134.566406 8.0625 132.722656 10.125 132.722656 12.625 C 132.722656 15.28125 134.816406 17.21875 137.097656 17.21875 C 139.535156 17.21875 140.441406 15 140.441406 14.625 C 140.441406 14.4375 140.285156 14.375 140.160156 14.375 C 140.003906 14.375 139.941406 14.5 139.910156 14.65625 C 139.222656 16.71875 137.410156 16.71875 137.222656 16.71875 C 136.222656 16.71875 135.441406 16.125 134.972656 15.375 C 134.378906 14.4375 134.378906 13.125 134.378906 12.40625 Z M 134.378906 12.40625 "/>
<path style=" stroke:none;fill-rule:nonzero;fill:rgb(0%,0%,0%);fill-opacity:1;" d="M 149.292969 10.3125 C 149.792969 9.03125 150.824219 9.03125 151.136719 9.03125 L 151.136719 8.40625 C 150.667969 8.4375 150.105469 8.46875 149.636719 8.46875 C 149.292969 8.46875 148.355469 8.4375 147.917969 8.40625 L 147.917969 9.03125 C 148.542969 9.03125 148.855469 9.375 148.855469 9.875 C 148.855469 10.09375 148.824219 10.125 148.730469 10.375 L 146.699219 15.25 L 144.511719 9.90625 C 144.417969 9.6875 144.386719 9.625 144.386719 9.53125 C 144.386719 9.03125 145.105469 9.03125 145.511719 9.03125 L 145.511719 8.40625 C 144.980469 8.4375 143.667969 8.46875 143.324219 8.46875 C 142.792969 8.46875 141.980469 8.4375 141.386719 8.40625 L 141.386719 9.03125 C 142.355469 9.03125 142.730469 9.03125 143.011719 9.71875 L 146.011719 17 C 145.886719 17.25 145.605469 17.90625 145.511719 18.1875 C 145.074219 19.28125 144.511719 20.65625 143.230469 20.65625 C 143.136719 20.65625 142.667969 20.65625 142.292969 20.28125 C 142.917969 20.21875 143.074219 19.78125 143.074219 19.4375 C 143.074219 18.9375 142.699219 18.625 142.230469 18.625 C 141.824219 18.625 141.386719 18.875 141.386719 19.46875 C 141.386719 20.375 142.230469 21.09375 143.230469 21.09375 C 144.480469 21.09375 145.292969 19.9375 145.761719 18.8125 Z M 149.292969 10.3125 "/>
</g>
</svg>
