<?xml version="1.0" encoding="UTF-8"?>
<svg xmlns="http://www.w3.org/2000/svg" xmlns:xlink="http://www.w3.org/1999/xlink" width="170.64567pt" height="85.606299pt" viewBox="0 0 170.64567 85.606299" version="1.1">
<g id="surface73">
<path style="fill:none;stroke-width:0.566929;stroke-linecap:butt;stroke-linejoin:miter;stroke:rgb(100%,0%,0%);stroke-opacity:0.5;stroke-miterlimit:10;" d="M -2.834492 2.834077 L 2.83543 -2.833892 " transform="matrix(2,0,0,2,28.629921,56.976378)"/>
<path style="fill:none;stroke-width:0.566929;stroke-linecap:butt;stroke-linejoin:miter;stroke:rgb(100%,0%,0%);stroke-opacity:0.5;stroke-miterlimit:10;" d="M 2.83543 2.834077 L -2.834492 -2.833892 " transform="matrix(2,0,0,2,28.629921,56.976378)"/>
<path style="fill-rule:nonzero;fill:rgb(50%,50%,0%);fill-opacity:0.1;stroke-width:0.566929;stroke-linecap:butt;stroke-linejoin:miter;stroke:rgb(100%,0%,0%);stroke-opacity:0.5;stroke-miterlimit:10;" d="M -14.172383 14.17392 L 70.86668 14.17392 L 70.86668 -28.345611 L -14.172383 -28.345611 Z M -14.172383 14.17392 " transform="matrix(2,0,0,2,28.629921,56.976378)"/>
<path style="fill:none;stroke-width:0.566929;stroke-linecap:butt;stroke-linejoin:miter;stroke:rgb(100%,0%,0%);stroke-opacity:0.5;stroke-miterlimit:10;" d="M -2.834492 2.834077 L 2.83543 -2.833892 " transform="matrix(2,0,0,2,28.629921,56.976378)"/>
<path style="fill:none;stroke-width:0.566929;stroke-linecap:butt;stroke-linejoin:miter;stroke:rgb(100%,0%,0%);stroke-opacity:0.5;stroke-miterlimit:10;" d="M 2.83543 2.834077 L -2.834492 -2.833892 " transform="matrix(2,0,0,2,28.629921,56.976378)"/>
<path style="fill-rule:nonzero;fill:rgb(50%,50%,0%);fill-opacity:0.1;stroke-width:0.566929;stroke-linecap:butt;stroke-linejoin:miter;stroke:rgb(100%,0%,0%);stroke-opacity:0.5;stroke-miterlimit:10;" d="M -0.000507576 2.834077 L 62.362774 2.834077 L 62.362774 -11.337798 L -0.000507576 -11.337798 Z M -0.000507576 2.834077 " transform="matrix(2,0,0,2,28.629921,56.976378)"/>
<path style="fill:none;stroke-width:0.566929;stroke-linecap:butt;stroke-linejoin:miter;stroke:rgb(100%,0%,0%);stroke-opacity:0.5;stroke-miterlimit:10;" d="M -2.834492 2.834077 L 2.83543 -2.833892 " transform="matrix(2,0,0,2,28.629921,56.976378)"/>
<path style="fill:none;stroke-width:0.566929;stroke-linecap:butt;stroke-linejoin:miter;stroke:rgb(100%,0%,0%);stroke-opacity:0.5;stroke-miterlimit:10;" d="M 2.83543 2.834077 L -2.834492 -2.833892 " transform="matrix(2,0,0,2,28.629921,56.976378)"/>
<path style="fill-rule:nonzero;fill:rgb(50%,50%,0%);fill-opacity:0.1;stroke-width:0.566929;stroke-linecap:butt;stroke-linejoin:miter;stroke:rgb(100%,0%,0%);stroke-opacity:0.5;stroke-miterlimit:10;" d="M -14.172383 0.0000922028 L 70.86668 0.0000922028 L 70.86668 -8.503814 L -14.172383 -8.503814 Z M -14.172383 0.0000922028 " transform="matrix(2,0,0,2,28.629921,56.976378)"/>
<path style="fill:none;stroke-width:0.566929;stroke-linecap:butt;stroke-linejoin:miter;stroke:rgb(100%,0%,0%);stroke-opacity:0.5;stroke-miterlimit:10;" d="M -2.834492 2.834077 L 2.83543 -2.833892 " transform="matrix(2,0,0,2,28.629921,56.976378)"/>
<path style="fill:none;stroke-width:0.566929;stroke-linecap:butt;stroke-linejoin:miter;stroke:rgb(100%,0%,0%);stroke-opacity:0.5;stroke-miterlimit:10;" d="M 2.83543 2.834077 L -2.834492 -2.833892 " transform="matrix(2,0,0,2,28.629921,56.976378)"/>
<path style="fill-rule:nonzero;fill:rgb(50%,50%,0%);fill-opacity:0.1;stroke-width:0.566929;stroke-linecap:butt;stroke-linejoin:miter;stroke:rgb(100%,0%,0%);stroke-opacity:0.5;stroke-miterlimit:10;" d="M -14.172383 14.17392 L 14.173321 14.17392 L 14.173321 -28.345611 L -14.172383 -28.345611 Z M -14.172383 14.17392 " transform="matrix(2,0,0,2,28.629921,56.976378)"/>
<path style="fill:none;stroke-width:0.566929;stroke-linecap:butt;stroke-linejoin:miter;stroke:rgb(100%,0%,0%);stroke-opacity:0.5;stroke-miterlimit:10;" d="M -2.834492 2.834077 L 2.83543 -2.833892 " transform="matrix(2,0,0,2,28.629921,56.976378)"/>
<path style="fill:none;stroke-width:0.566929;stroke-linecap:butt;stroke-linejoin:miter;stroke:rgb(100%,0%,0%);stroke-opacity:0.5;stroke-miterlimit:10;" d="M 2.83543 2.834077 L -2.834492 -2.833892 " transform="matrix(2,0,0,2,28.629921,56.976378)"/>
<path style="fill-rule:nonzero;fill:rgb(50%,50%,0%);fill-opacity:0.1;stroke-width:0.566929;stroke-linecap:butt;stroke-linejoin:miter;stroke:rgb(100%,0%,0%);stroke-opacity:0.5;stroke-miterlimit:10;" d="M -0.000507576 0.0000922028 L 5.669414 0.0000922028 L 5.669414 -5.66983 L -0.000507576 -5.66983 Z M -0.000507576 0.0000922028 " transform="matrix(2,0,0,2,28.629921,56.976378)"/>
<path style=" stroke:none;fill-rule:nonzero;fill:rgb(0%,0%,0%);fill-opacity:1;" d="M 28.628906 56.976562 L 39.96875 56.976562 L 39.96875 45.636719 L 28.628906 45.636719 Z M 28.628906 56.976562 "/>
</g>
</svg>
