<?xml version="1.0" encoding="UTF-8"?>
<svg xmlns="http://www.w3.org/2000/svg" xmlns:xlink="http://www.w3.org/1999/xlink" width="371.440943pt" height="113.999213pt" viewBox="0 0 371.440943 113.999213" version="1.1">
<g id="surface149">
<path style="fill:none;stroke-width:0.566929;stroke-linecap:butt;stroke-linejoin:miter;stroke:rgb(0%,0%,0%);stroke-opacity:1;stroke-miterlimit:10;" d="M 14.174074 0.0275406 L 14.174074 -28.374803 " transform="matrix(2,0,0,2,-28.062992,57.249606)"/>
<path style="fill:none;stroke-width:0.566929;stroke-linecap:butt;stroke-linejoin:miter;stroke:rgb(0%,0%,0%);stroke-opacity:1;stroke-miterlimit:10;" d="M 70.86548 0.0275406 C 70.86548 -7.798631 64.519777 -14.144334 56.693605 -14.144334 C 48.86548 -14.144334 42.519777 -7.798631 42.519777 0.0275406 " transform="matrix(2,0,0,2,-28.062992,57.249606)"/>
<path style="fill:none;stroke-width:0.566929;stroke-linecap:butt;stroke-linejoin:miter;stroke:rgb(0%,0%,0%);stroke-opacity:1;stroke-miterlimit:10;" d="M 14.174074 -0.0291 C 14.174074 7.799025 20.517824 14.144728 28.345949 14.144728 C 36.174074 14.144728 42.519777 7.799025 42.519777 -0.0291 " transform="matrix(2,0,0,2,-28.062992,57.249606)"/>
<path style="fill:none;stroke-width:0.566929;stroke-linecap:butt;stroke-linejoin:miter;stroke:rgb(0%,0%,0%);stroke-opacity:1;stroke-miterlimit:10;" d="M 70.86548 28.375197 L 70.86548 -0.0291 " transform="matrix(2,0,0,2,-28.062992,57.249606)"/>
<path style=" stroke:none;fill-rule:nonzero;fill:rgb(0%,0%,0%);fill-opacity:1;" d="M 155.578125 54.375 C 155.890625 54.375 156.265625 54.375 156.265625 54 C 156.265625 53.59375 155.890625 53.59375 155.609375 53.59375 L 143.671875 53.59375 C 143.390625 53.59375 143.015625 53.59375 143.015625 54 C 143.015625 54.375 143.390625 54.375 143.671875 54.375 Z M 155.609375 58.25 C 155.890625 58.25 156.265625 58.25 156.265625 57.84375 C 156.265625 57.46875 155.890625 57.46875 155.578125 57.46875 L 143.671875 57.46875 C 143.390625 57.46875 143.015625 57.46875 143.015625 57.84375 C 143.015625 58.25 143.390625 58.25 143.671875 58.25 Z M 155.609375 58.25 "/>
<path style="fill:none;stroke-width:0.566929;stroke-linecap:butt;stroke-linejoin:miter;stroke:rgb(0%,0%,0%);stroke-opacity:1;stroke-miterlimit:10;" d="M 106.838137 28.375197 L 106.838137 -28.374803 " transform="matrix(2,0,0,2,-28.062992,57.249606)"/>
<path style=" stroke:none;fill-rule:nonzero;fill:rgb(0%,0%,0%);fill-opacity:1;" d="M 227.519531 54.375 C 227.832031 54.375 228.207031 54.375 228.207031 54 C 228.207031 53.59375 227.832031 53.59375 227.550781 53.59375 L 215.613281 53.59375 C 215.332031 53.59375 214.957031 53.59375 214.957031 54 C 214.957031 54.375 215.332031 54.375 215.613281 54.375 Z M 227.550781 58.25 C 227.832031 58.25 228.207031 58.25 228.207031 57.84375 C 228.207031 57.46875 227.832031 57.46875 227.519531 57.46875 L 215.613281 57.46875 C 215.332031 57.46875 214.957031 57.46875 214.957031 57.84375 C 214.957031 58.25 215.332031 58.25 215.613281 58.25 Z M 227.550781 58.25 "/>
<path style="fill:none;stroke-width:0.566929;stroke-linecap:butt;stroke-linejoin:miter;stroke:rgb(0%,0%,0%);stroke-opacity:1;stroke-miterlimit:10;" d="M 171.154543 0.0275406 C 171.154543 -7.798631 164.810793 -14.144334 156.982668 -14.144334 C 149.154543 -14.144334 142.80884 -7.798631 142.80884 0.0275406 " transform="matrix(2,0,0,2,-28.062992,57.249606)"/>
<path style="fill:none;stroke-width:0.566929;stroke-linecap:butt;stroke-linejoin:miter;stroke:rgb(0%,0%,0%);stroke-opacity:1;stroke-miterlimit:10;" d="M 199.502199 0.0275406 L 199.502199 -28.374803 " transform="matrix(2,0,0,2,-28.062992,57.249606)"/>
<path style="fill:none;stroke-width:0.566929;stroke-linecap:butt;stroke-linejoin:miter;stroke:rgb(0%,0%,0%);stroke-opacity:1;stroke-miterlimit:10;" d="M 142.80884 28.375197 L 142.80884 -0.0291 " transform="matrix(2,0,0,2,-28.062992,57.249606)"/>
<path style="fill:none;stroke-width:0.566929;stroke-linecap:butt;stroke-linejoin:miter;stroke:rgb(0%,0%,0%);stroke-opacity:1;stroke-miterlimit:10;" d="M 171.154543 -0.0291 C 171.154543 7.799025 177.500246 14.144728 185.328371 14.144728 C 193.156496 14.144728 199.502199 7.799025 199.502199 -0.0291 " transform="matrix(2,0,0,2,-28.062992,57.249606)"/>
</g>
</svg>
