<?xml version="1.0" encoding="UTF-8"?>
<svg xmlns="http://www.w3.org/2000/svg" xmlns:xlink="http://www.w3.org/1999/xlink" width="117.796713pt" height="148.006649pt" viewBox="0 0 117.796713 148.006649" version="1.1">
<g id="surface13">
<path style="fill:none;stroke-width:0.801759;stroke-linecap:butt;stroke-linejoin:miter;stroke:rgb(0%,0%,100%);stroke-opacity:1;stroke-miterlimit:10;" d="M 28.345805 0.000694653 C 28.345805 -15.655555 15.654399 -28.346962 0.000102257 -28.346962 C -15.656148 -28.346962 -28.345601 -15.655555 -28.345601 0.000694653 C -28.345601 15.654992 -15.656148 28.346398 0.000102257 28.346398 C 15.654399 28.346398 28.345805 15.654992 28.345805 0.000694653 Z M 28.345805 0.000694653 " transform="matrix(2,0,0,2,60.70292,61.908767)"/>
<path style=" stroke:none;fill-rule:nonzero;fill:rgb(0%,0%,0%);fill-opacity:1;" d="M 63.203125 64.472656 C 62.328125 64.472656 62.328125 64.253906 62.328125 62.910156 L 61.703125 62.910156 C 61.734375 63.628906 61.765625 64.628906 61.765625 65.191406 C 61.765625 65.691406 61.734375 66.722656 61.703125 67.410156 L 62.328125 67.410156 C 62.328125 66.066406 62.328125 65.847656 63.203125 65.847656 L 66.890625 65.847656 C 68.953125 65.847656 70.078125 67.285156 70.078125 68.535156 C 70.078125 69.816406 69.015625 70.035156 67.859375 70.035156 L 63.203125 70.035156 C 62.328125 70.035156 62.328125 69.816406 62.328125 68.472656 L 61.703125 68.472656 C 61.734375 69.160156 61.765625 70.191406 61.765625 70.722656 C 61.765625 71.222656 61.734375 72.285156 61.703125 72.941406 L 62.328125 72.941406 C 62.328125 71.910156 62.328125 71.410156 62.921875 71.410156 L 66.734375 71.410156 C 68.453125 71.410156 69.046875 71.410156 69.765625 70.785156 C 70.109375 70.503906 70.515625 69.847656 70.515625 68.691406 C 70.515625 67.003906 69.328125 66.128906 68.546875 65.785156 L 75.546875 65.785156 L 75.328125 62.910156 L 74.703125 62.910156 C 74.703125 64.316406 74.578125 64.472656 73.578125 64.472656 Z M 63.203125 64.472656 "/>
<path style=" stroke:none;fill-rule:nonzero;fill:rgb(0%,0%,0%);fill-opacity:1;" d="M 66.734375 75.574219 C 69.703125 75.699219 70.203125 77.386719 70.203125 78.074219 C 70.203125 80.105469 67.515625 80.324219 66.734375 80.324219 Z M 66.296875 75.574219 L 66.296875 81.136719 C 66.296875 81.574219 66.296875 81.636719 66.734375 81.636719 C 68.703125 81.636719 70.640625 80.542969 70.640625 78.074219 C 70.640625 75.761719 68.578125 73.917969 66.078125 73.917969 C 63.421875 73.917969 61.484375 76.011719 61.484375 78.292969 C 61.484375 80.730469 63.703125 81.636719 64.078125 81.636719 C 64.265625 81.636719 64.328125 81.480469 64.328125 81.355469 C 64.328125 81.199219 64.203125 81.136719 64.046875 81.105469 C 61.984375 80.417969 61.984375 78.605469 61.984375 78.417969 C 61.984375 77.417969 62.578125 76.636719 63.328125 76.167969 C 64.265625 75.574219 65.578125 75.574219 66.296875 75.574219 Z M 66.296875 75.574219 "/>
<path style=" stroke:none;fill-rule:nonzero;fill:rgb(0%,0%,0%);fill-opacity:1;" d="M 68.390625 90.488281 C 69.671875 90.988281 69.671875 92.019531 69.671875 92.332031 L 70.296875 92.332031 C 70.265625 91.863281 70.234375 91.300781 70.234375 90.832031 C 70.234375 90.488281 70.265625 89.550781 70.296875 89.113281 L 69.671875 89.113281 C 69.671875 89.738281 69.328125 90.050781 68.828125 90.050781 C 68.609375 90.050781 68.578125 90.019531 68.328125 89.925781 L 63.453125 87.894531 L 68.796875 85.707031 C 69.015625 85.613281 69.078125 85.582031 69.171875 85.582031 C 69.671875 85.582031 69.671875 86.300781 69.671875 86.707031 L 70.296875 86.707031 C 70.265625 86.175781 70.234375 84.863281 70.234375 84.519531 C 70.234375 83.988281 70.265625 83.175781 70.296875 82.582031 L 69.671875 82.582031 C 69.671875 83.550781 69.671875 83.925781 68.984375 84.207031 L 61.703125 87.207031 C 61.453125 87.082031 60.796875 86.800781 60.515625 86.707031 C 59.421875 86.269531 58.046875 85.707031 58.046875 84.425781 C 58.046875 84.332031 58.046875 83.863281 58.421875 83.488281 C 58.484375 84.113281 58.921875 84.269531 59.265625 84.269531 C 59.765625 84.269531 60.078125 83.894531 60.078125 83.425781 C 60.078125 83.019531 59.828125 82.582031 59.234375 82.582031 C 58.328125 82.582031 57.609375 83.425781 57.609375 84.425781 C 57.609375 85.675781 58.765625 86.488281 59.890625 86.957031 Z M 68.390625 90.488281 "/>
<path style=" stroke:none;fill-rule:nonzero;fill:rgb(0%,0%,0%);fill-opacity:1;" d="M 69.671875 102.796875 L 69.671875 105.671875 L 70.296875 105.671875 L 70.296875 102.796875 L 73.953125 102.796875 L 73.953125 102.296875 C 72.328125 102.296875 70.203125 101.703125 70.109375 99.734375 L 69.671875 99.734375 L 69.671875 101.421875 L 64.171875 101.421875 C 61.734375 101.421875 61.484375 103.296875 61.484375 104.015625 C 61.484375 105.421875 62.890625 105.984375 64.171875 105.984375 L 65.296875 105.984375 L 65.296875 105.484375 L 64.203125 105.484375 C 62.734375 105.484375 61.984375 104.890625 61.984375 104.140625 C 61.984375 102.796875 63.796875 102.796875 64.140625 102.796875 Z M 69.671875 102.796875 "/>
<path style=" stroke:none;fill-rule:nonzero;fill:rgb(0%,0%,0%);fill-opacity:1;" d="M 63.203125 109.296875 C 62.328125 109.296875 62.328125 109.078125 62.328125 107.734375 L 61.703125 107.734375 C 61.734375 108.453125 61.765625 109.453125 61.765625 110.015625 C 61.765625 110.515625 61.734375 111.546875 61.703125 112.234375 L 62.328125 112.234375 C 62.328125 110.890625 62.328125 110.671875 63.203125 110.671875 L 66.890625 110.671875 C 68.953125 110.671875 70.078125 112.109375 70.078125 113.359375 C 70.078125 114.640625 69.015625 114.859375 67.859375 114.859375 L 63.203125 114.859375 C 62.328125 114.859375 62.328125 114.640625 62.328125 113.296875 L 61.703125 113.296875 C 61.734375 113.984375 61.765625 115.015625 61.765625 115.546875 C 61.765625 116.046875 61.734375 117.109375 61.703125 117.765625 L 62.328125 117.765625 C 62.328125 116.734375 62.328125 116.234375 62.921875 116.234375 L 66.734375 116.234375 C 68.453125 116.234375 69.046875 116.234375 69.765625 115.609375 C 70.109375 115.328125 70.515625 114.671875 70.515625 113.515625 C 70.515625 111.828125 69.328125 110.953125 68.546875 110.609375 L 75.546875 110.609375 L 75.328125 107.734375 L 74.703125 107.734375 C 74.703125 109.140625 74.578125 109.296875 73.578125 109.296875 Z M 63.203125 109.296875 "/>
<path style=" stroke:none;fill-rule:nonzero;fill:rgb(0%,0%,0%);fill-opacity:1;" d="M 66.734375 120.398438 C 69.703125 120.523438 70.203125 122.210938 70.203125 122.898438 C 70.203125 124.929688 67.515625 125.148438 66.734375 125.148438 Z M 66.296875 120.398438 L 66.296875 125.960938 C 66.296875 126.398438 66.296875 126.460938 66.734375 126.460938 C 68.703125 126.460938 70.640625 125.367188 70.640625 122.898438 C 70.640625 120.585938 68.578125 118.742188 66.078125 118.742188 C 63.421875 118.742188 61.484375 120.835938 61.484375 123.117188 C 61.484375 125.554688 63.703125 126.460938 64.078125 126.460938 C 64.265625 126.460938 64.328125 126.304688 64.328125 126.179688 C 64.328125 126.023438 64.203125 125.960938 64.046875 125.929688 C 61.984375 125.242188 61.984375 123.429688 61.984375 123.242188 C 61.984375 122.242188 62.578125 121.460938 63.328125 120.992188 C 64.265625 120.398438 65.578125 120.398438 66.296875 120.398438 Z M 66.296875 120.398438 "/>
<path style=" stroke:none;fill-rule:nonzero;fill:rgb(0%,0%,0%);fill-opacity:1;" d="M 68.328125 130.378906 L 70.515625 130.378906 L 70.296875 127.597656 L 69.671875 127.597656 C 69.671875 129.003906 69.546875 129.160156 68.546875 129.160156 L 63.203125 129.160156 C 62.328125 129.160156 62.328125 128.941406 62.328125 127.597656 L 61.703125 127.597656 C 61.734375 128.378906 61.765625 129.316406 61.765625 129.878906 C 61.765625 130.660156 61.765625 131.597656 61.703125 132.410156 L 62.328125 132.410156 L 62.328125 131.972656 C 62.328125 130.503906 62.546875 130.472656 63.265625 130.472656 L 66.328125 130.472656 C 68.296875 130.472656 70.078125 131.316406 70.078125 132.816406 C 70.078125 132.941406 70.078125 133.003906 70.046875 133.035156 C 70.046875 132.972656 69.796875 132.566406 69.265625 132.566406 C 68.734375 132.566406 68.421875 133.003906 68.421875 133.441406 C 68.421875 133.785156 68.671875 134.285156 69.296875 134.285156 C 69.921875 134.285156 70.515625 133.660156 70.515625 132.816406 C 70.515625 131.347656 69.171875 130.628906 68.328125 130.378906 Z M 68.328125 130.378906 "/>
<path style=" stroke:none;fill-rule:nonzero;fill:rgb(0%,0%,0%);fill-opacity:1;" d="M 66.734375 137.058594 C 69.703125 137.183594 70.203125 138.871094 70.203125 139.558594 C 70.203125 141.589844 67.515625 141.808594 66.734375 141.808594 Z M 66.296875 137.058594 L 66.296875 142.621094 C 66.296875 143.058594 66.296875 143.121094 66.734375 143.121094 C 68.703125 143.121094 70.640625 142.027344 70.640625 139.558594 C 70.640625 137.246094 68.578125 135.402344 66.078125 135.402344 C 63.421875 135.402344 61.484375 137.496094 61.484375 139.777344 C 61.484375 142.214844 63.703125 143.121094 64.078125 143.121094 C 64.265625 143.121094 64.328125 142.964844 64.328125 142.839844 C 64.328125 142.683594 64.203125 142.621094 64.046875 142.589844 C 61.984375 141.902344 61.984375 140.089844 61.984375 139.902344 C 61.984375 138.902344 62.578125 138.121094 63.328125 137.652344 C 64.265625 137.058594 65.578125 137.058594 66.296875 137.058594 Z M 66.296875 137.058594 "/>
<path style=" stroke:none;fill-rule:nonzero;fill:rgb(0%,0%,0%);fill-opacity:1;" d="M 65.859375 146.757812 L 74.953125 147.507812 C 75.609375 147.507812 75.984375 146.976562 75.984375 146.476562 C 75.984375 145.945312 75.609375 145.414062 74.953125 145.414062 L 65.890625 146.195312 C 65.578125 146.195312 65.421875 146.226562 65.421875 146.476562 C 65.421875 146.664062 65.515625 146.726562 65.859375 146.757812 Z M 62.765625 147.507812 C 63.328125 147.507812 63.828125 147.039062 63.828125 146.476562 C 63.828125 145.882812 63.328125 145.414062 62.765625 145.414062 C 62.171875 145.414062 61.703125 145.882812 61.703125 146.476562 C 61.703125 147.039062 62.171875 147.507812 62.765625 147.507812 Z M 62.765625 147.507812 "/>
</g>
</svg>
