<?xml version="1.0" encoding="UTF-8"?>
<svg xmlns="http://www.w3.org/2000/svg" xmlns:xlink="http://www.w3.org/1999/xlink" width="646.657685pt" height="968.349163pt" viewBox="0 0 646.657685 968.349163" version="1.1">
<g id="surface153">
<path style="fill-rule:nonzero;fill:rgb(90%,90%,60%);fill-opacity:1;stroke-width:0.801759;stroke-linecap:butt;stroke-linejoin:miter;stroke:rgb(0%,0%,0%);stroke-opacity:1;stroke-miterlimit:10;" d="M 164.591411 317.663518 L 329.185161 317.663518 L 329.185161 164.593205 L 164.591411 164.593205 Z M 164.591411 317.663518 " transform="matrix(2,0,0,2,-12.11251,1.919058)"/>
<path style="fill:none;stroke-width:3.207035;stroke-linecap:butt;stroke-linejoin:miter;stroke:rgb(0%,0%,0%);stroke-opacity:1;stroke-miterlimit:10;" d="M 322.325786 164.620549 C 322.325786 77.507268 251.706645 6.886174 164.591411 6.886174 C 77.47813 6.886174 6.858989 77.507268 6.858989 164.620549 " transform="matrix(2,0,0,2,-12.11251,1.919058)"/>
<path style="fill:none;stroke-width:3.207035;stroke-linecap:butt;stroke-linejoin:miter;stroke:rgb(0%,0%,0%);stroke-opacity:1;stroke-miterlimit:10;" d="M 308.610942 164.620549 C 308.610942 85.081487 244.130474 20.602971 164.591411 20.602971 C 85.052349 20.602971 20.573833 85.081487 20.573833 164.620549 " transform="matrix(2,0,0,2,-12.11251,1.919058)"/>
<path style="fill:none;stroke-width:3.207035;stroke-linecap:butt;stroke-linejoin:miter;stroke:rgb(0%,0%,0%);stroke-opacity:1;stroke-miterlimit:10;" d="M 294.894145 164.620549 C 294.894145 92.657659 236.556255 34.317815 164.591411 34.317815 C 92.62852 34.317815 34.29063 92.657659 34.29063 164.620549 " transform="matrix(2,0,0,2,-12.11251,1.919058)"/>
<path style="fill:none;stroke-width:3.207035;stroke-linecap:butt;stroke-linejoin:miter;stroke:rgb(0%,0%,0%);stroke-opacity:1;stroke-miterlimit:10;" d="M 281.179302 164.620549 C 281.179302 100.231877 228.982036 48.034612 164.591411 48.034612 C 100.202739 48.034612 48.005474 100.231877 48.005474 164.620549 " transform="matrix(2,0,0,2,-12.11251,1.919058)"/>
<path style="fill:none;stroke-width:3.207035;stroke-linecap:butt;stroke-linejoin:miter;stroke:rgb(0%,0%,0%);stroke-opacity:1;stroke-miterlimit:10;" d="M 267.462505 164.620549 C 267.462505 107.806096 221.405864 61.751409 164.591411 61.751409 C 107.778911 61.751409 61.72227 107.806096 61.72227 164.620549 " transform="matrix(2,0,0,2,-12.11251,1.919058)"/>
<path style="fill:none;stroke-width:3.207035;stroke-linecap:butt;stroke-linejoin:miter;stroke:rgb(0%,0%,0%);stroke-opacity:1;stroke-miterlimit:10;" d="M 253.745708 164.620549 C 253.745708 115.382268 213.831645 75.466252 164.591411 75.466252 C 115.35313 75.466252 75.439067 115.382268 75.439067 164.620549 " transform="matrix(2,0,0,2,-12.11251,1.919058)"/>
<path style="fill:none;stroke-width:3.207035;stroke-linecap:butt;stroke-linejoin:miter;stroke:rgb(0%,0%,0%);stroke-opacity:1;stroke-miterlimit:10;" d="M 240.030864 164.620549 C 240.030864 122.956487 206.255474 89.183049 164.591411 89.183049 C 122.929302 89.183049 89.153911 122.956487 89.153911 164.620549 " transform="matrix(2,0,0,2,-12.11251,1.919058)"/>
<path style="fill:none;stroke-width:3.207035;stroke-linecap:butt;stroke-linejoin:miter;stroke:rgb(0%,0%,0%);stroke-opacity:1;stroke-miterlimit:10;" d="M 226.314067 164.620549 C 226.314067 130.532659 198.681255 102.897893 164.591411 102.897893 C 130.50352 102.897893 102.870708 130.532659 102.870708 164.620549 " transform="matrix(2,0,0,2,-12.11251,1.919058)"/>
<path style="fill:none;stroke-width:3.207035;stroke-linecap:butt;stroke-linejoin:miter;stroke:rgb(0%,0%,0%);stroke-opacity:1;stroke-miterlimit:10;" d="M 212.599224 164.620549 C 212.599224 138.106877 191.105083 116.61469 164.591411 116.61469 C 138.079692 116.61469 116.585552 138.106877 116.585552 164.620549 " transform="matrix(2,0,0,2,-12.11251,1.919058)"/>
<path style="fill:none;stroke-width:3.207035;stroke-linecap:butt;stroke-linejoin:miter;stroke:rgb(0%,0%,0%);stroke-opacity:1;stroke-miterlimit:10;" d="M 198.882427 164.620549 C 198.882427 145.683049 183.530864 130.331487 164.591411 130.331487 C 145.653911 130.331487 130.302349 145.683049 130.302349 164.620549 " transform="matrix(2,0,0,2,-12.11251,1.919058)"/>
<path style="fill:none;stroke-width:3.207035;stroke-linecap:butt;stroke-linejoin:miter;stroke:rgb(0%,0%,0%);stroke-opacity:1;stroke-miterlimit:10;" d="M 185.16563 164.620549 C 185.16563 153.257268 175.954692 144.04633 164.591411 144.04633 C 153.230083 144.04633 144.019145 153.257268 144.019145 164.620549 " transform="matrix(2,0,0,2,-12.11251,1.919058)"/>
<path style="fill:none;stroke-width:3.207035;stroke-linecap:butt;stroke-linejoin:miter;stroke:rgb(0%,0%,0%);stroke-opacity:1;stroke-miterlimit:10;" d="M 171.450786 164.620549 C 171.450786 160.83344 168.380474 157.763127 164.591411 157.763127 C 160.804302 157.763127 157.733989 160.83344 157.733989 164.620549 " transform="matrix(2,0,0,2,-12.11251,1.919058)"/>
<path style="fill:none;stroke-width:3.207035;stroke-linecap:butt;stroke-linejoin:miter;stroke:rgb(0%,0%,0%);stroke-opacity:1;stroke-miterlimit:10;" d="M 6.858989 317.690862 L 6.858989 164.563909 " transform="matrix(2,0,0,2,-12.11251,1.919058)"/>
<path style="fill:none;stroke-width:3.207035;stroke-linecap:butt;stroke-linejoin:miter;stroke:rgb(0%,0%,0%);stroke-opacity:1;stroke-miterlimit:10;" d="M 20.573833 317.690862 L 20.573833 164.563909 " transform="matrix(2,0,0,2,-12.11251,1.919058)"/>
<path style="fill:none;stroke-width:3.207035;stroke-linecap:butt;stroke-linejoin:miter;stroke:rgb(0%,0%,0%);stroke-opacity:1;stroke-miterlimit:10;" d="M 34.29063 317.690862 L 34.29063 164.563909 " transform="matrix(2,0,0,2,-12.11251,1.919058)"/>
<path style="fill:none;stroke-width:3.207035;stroke-linecap:butt;stroke-linejoin:miter;stroke:rgb(0%,0%,0%);stroke-opacity:1;stroke-miterlimit:10;" d="M 48.005474 317.690862 L 48.005474 164.563909 " transform="matrix(2,0,0,2,-12.11251,1.919058)"/>
<path style="fill:none;stroke-width:3.207035;stroke-linecap:butt;stroke-linejoin:miter;stroke:rgb(0%,0%,0%);stroke-opacity:1;stroke-miterlimit:10;" d="M 61.72227 317.690862 L 61.72227 164.563909 " transform="matrix(2,0,0,2,-12.11251,1.919058)"/>
<path style="fill:none;stroke-width:3.207035;stroke-linecap:butt;stroke-linejoin:miter;stroke:rgb(0%,0%,0%);stroke-opacity:1;stroke-miterlimit:10;" d="M 75.439067 317.690862 L 75.439067 164.563909 " transform="matrix(2,0,0,2,-12.11251,1.919058)"/>
<path style="fill:none;stroke-width:3.207035;stroke-linecap:butt;stroke-linejoin:miter;stroke:rgb(0%,0%,0%);stroke-opacity:1;stroke-miterlimit:10;" d="M 89.153911 317.690862 L 89.153911 164.563909 " transform="matrix(2,0,0,2,-12.11251,1.919058)"/>
<path style="fill:none;stroke-width:3.207035;stroke-linecap:butt;stroke-linejoin:miter;stroke:rgb(0%,0%,0%);stroke-opacity:1;stroke-miterlimit:10;" d="M 102.870708 317.690862 L 102.870708 164.563909 " transform="matrix(2,0,0,2,-12.11251,1.919058)"/>
<path style="fill:none;stroke-width:3.207035;stroke-linecap:butt;stroke-linejoin:miter;stroke:rgb(0%,0%,0%);stroke-opacity:1;stroke-miterlimit:10;" d="M 116.585552 317.690862 L 116.585552 164.563909 " transform="matrix(2,0,0,2,-12.11251,1.919058)"/>
<path style="fill:none;stroke-width:3.207035;stroke-linecap:butt;stroke-linejoin:miter;stroke:rgb(0%,0%,0%);stroke-opacity:1;stroke-miterlimit:10;" d="M 130.302349 317.690862 L 130.302349 164.563909 " transform="matrix(2,0,0,2,-12.11251,1.919058)"/>
<path style="fill:none;stroke-width:3.207035;stroke-linecap:butt;stroke-linejoin:miter;stroke:rgb(0%,0%,0%);stroke-opacity:1;stroke-miterlimit:10;" d="M 144.019145 317.690862 L 144.019145 164.563909 " transform="matrix(2,0,0,2,-12.11251,1.919058)"/>
<path style="fill:none;stroke-width:3.207035;stroke-linecap:butt;stroke-linejoin:miter;stroke:rgb(0%,0%,0%);stroke-opacity:1;stroke-miterlimit:10;" d="M 157.733989 317.690862 L 157.733989 164.563909 " transform="matrix(2,0,0,2,-12.11251,1.919058)"/>
<path style="fill:none;stroke-width:3.207035;stroke-linecap:butt;stroke-linejoin:miter;stroke:rgb(0%,0%,0%);stroke-opacity:1;stroke-miterlimit:10;" d="M 171.450786 190.132268 C 171.450786 177.349065 185.16563 177.349065 185.16563 164.563909 " transform="matrix(2,0,0,2,-12.11251,1.919058)"/>
<path style="fill:none;stroke-width:3.207035;stroke-linecap:butt;stroke-linejoin:miter;stroke:rgb(0%,0%,0%);stroke-opacity:1;stroke-miterlimit:10;" d="M 185.16563 190.132268 C 185.16563 183.73969 181.737895 180.544377 179.337505 178.306096 " transform="matrix(2,0,0,2,-12.11251,1.919058)"/>
<path style="fill:none;stroke-width:3.207035;stroke-linecap:butt;stroke-linejoin:miter;stroke:rgb(0%,0%,0%);stroke-opacity:1;stroke-miterlimit:10;" d="M 177.278911 176.39008 C 174.87852 174.151799 171.450786 170.956487 171.450786 164.563909 " transform="matrix(2,0,0,2,-12.11251,1.919058)"/>
<path style="fill:none;stroke-width:3.207035;stroke-linecap:butt;stroke-linejoin:miter;stroke:rgb(0%,0%,0%);stroke-opacity:1;stroke-miterlimit:10;" d="M 198.882427 190.132268 C 198.882427 183.73969 202.312114 180.544377 204.712505 178.306096 " transform="matrix(2,0,0,2,-12.11251,1.919058)"/>
<path style="fill:none;stroke-width:3.207035;stroke-linecap:butt;stroke-linejoin:miter;stroke:rgb(0%,0%,0%);stroke-opacity:1;stroke-miterlimit:10;" d="M 206.769145 176.39008 C 209.169536 174.151799 212.599224 170.956487 212.599224 164.563909 " transform="matrix(2,0,0,2,-12.11251,1.919058)"/>
<path style="fill:none;stroke-width:3.207035;stroke-linecap:butt;stroke-linejoin:miter;stroke:rgb(0%,0%,0%);stroke-opacity:1;stroke-miterlimit:10;" d="M 212.599224 190.132268 C 212.599224 177.349065 198.882427 177.349065 198.882427 164.563909 " transform="matrix(2,0,0,2,-12.11251,1.919058)"/>
<path style="fill:none;stroke-width:3.207035;stroke-linecap:butt;stroke-linejoin:miter;stroke:rgb(0%,0%,0%);stroke-opacity:1;stroke-miterlimit:10;" d="M 226.314067 190.132268 C 226.314067 177.349065 240.030864 177.349065 240.030864 164.563909 " transform="matrix(2,0,0,2,-12.11251,1.919058)"/>
<path style="fill:none;stroke-width:3.207035;stroke-linecap:butt;stroke-linejoin:miter;stroke:rgb(0%,0%,0%);stroke-opacity:1;stroke-miterlimit:10;" d="M 240.030864 190.132268 C 240.030864 183.73969 236.601177 180.544377 234.200786 178.306096 " transform="matrix(2,0,0,2,-12.11251,1.919058)"/>
<path style="fill:none;stroke-width:3.207035;stroke-linecap:butt;stroke-linejoin:miter;stroke:rgb(0%,0%,0%);stroke-opacity:1;stroke-miterlimit:10;" d="M 232.144145 176.39008 C 229.743755 174.151799 226.314067 170.956487 226.314067 164.563909 " transform="matrix(2,0,0,2,-12.11251,1.919058)"/>
<path style="fill:none;stroke-width:3.207035;stroke-linecap:butt;stroke-linejoin:miter;stroke:rgb(0%,0%,0%);stroke-opacity:1;stroke-miterlimit:10;" d="M 253.745708 190.132268 L 253.745708 164.563909 " transform="matrix(2,0,0,2,-12.11251,1.919058)"/>
<path style="fill:none;stroke-width:3.207035;stroke-linecap:butt;stroke-linejoin:miter;stroke:rgb(0%,0%,0%);stroke-opacity:1;stroke-miterlimit:10;" d="M 267.462505 190.132268 L 267.462505 164.563909 " transform="matrix(2,0,0,2,-12.11251,1.919058)"/>
<path style="fill:none;stroke-width:3.207035;stroke-linecap:butt;stroke-linejoin:miter;stroke:rgb(0%,0%,0%);stroke-opacity:1;stroke-miterlimit:10;" d="M 281.179302 190.132268 C 281.179302 177.349065 294.894145 177.349065 294.894145 164.563909 " transform="matrix(2,0,0,2,-12.11251,1.919058)"/>
<path style="fill:none;stroke-width:3.207035;stroke-linecap:butt;stroke-linejoin:miter;stroke:rgb(0%,0%,0%);stroke-opacity:1;stroke-miterlimit:10;" d="M 294.894145 190.132268 C 294.894145 183.73969 291.466411 180.544377 289.06602 178.306096 " transform="matrix(2,0,0,2,-12.11251,1.919058)"/>
<path style="fill:none;stroke-width:3.207035;stroke-linecap:butt;stroke-linejoin:miter;stroke:rgb(0%,0%,0%);stroke-opacity:1;stroke-miterlimit:10;" d="M 287.007427 176.39008 C 284.607036 174.151799 281.179302 170.956487 281.179302 164.563909 " transform="matrix(2,0,0,2,-12.11251,1.919058)"/>
<path style="fill:none;stroke-width:3.207035;stroke-linecap:butt;stroke-linejoin:miter;stroke:rgb(0%,0%,0%);stroke-opacity:1;stroke-miterlimit:10;" d="M 308.610942 190.132268 L 308.610942 164.563909 " transform="matrix(2,0,0,2,-12.11251,1.919058)"/>
<path style="fill:none;stroke-width:3.207035;stroke-linecap:butt;stroke-linejoin:miter;stroke:rgb(0%,0%,0%);stroke-opacity:1;stroke-miterlimit:10;" d="M 322.325786 190.132268 L 322.325786 164.563909 " transform="matrix(2,0,0,2,-12.11251,1.919058)"/>
<path style="fill:none;stroke-width:3.207035;stroke-linecap:butt;stroke-linejoin:miter;stroke:rgb(0%,0%,0%);stroke-opacity:1;stroke-miterlimit:10;" d="M 171.450786 215.643987 L 171.450786 190.075627 " transform="matrix(2,0,0,2,-12.11251,1.919058)"/>
<path style="fill:none;stroke-width:3.207035;stroke-linecap:butt;stroke-linejoin:miter;stroke:rgb(0%,0%,0%);stroke-opacity:1;stroke-miterlimit:10;" d="M 185.16563 215.643987 L 185.16563 190.075627 " transform="matrix(2,0,0,2,-12.11251,1.919058)"/>
<path style="fill:none;stroke-width:3.207035;stroke-linecap:butt;stroke-linejoin:miter;stroke:rgb(0%,0%,0%);stroke-opacity:1;stroke-miterlimit:10;" d="M 198.882427 215.643987 L 198.882427 190.075627 " transform="matrix(2,0,0,2,-12.11251,1.919058)"/>
<path style="fill:none;stroke-width:3.207035;stroke-linecap:butt;stroke-linejoin:miter;stroke:rgb(0%,0%,0%);stroke-opacity:1;stroke-miterlimit:10;" d="M 212.599224 215.643987 C 212.599224 202.860784 226.314067 202.860784 226.314067 190.075627 " transform="matrix(2,0,0,2,-12.11251,1.919058)"/>
<path style="fill:none;stroke-width:3.207035;stroke-linecap:butt;stroke-linejoin:miter;stroke:rgb(0%,0%,0%);stroke-opacity:1;stroke-miterlimit:10;" d="M 226.314067 215.643987 C 226.314067 209.251409 222.886333 206.056096 220.485942 203.819768 " transform="matrix(2,0,0,2,-12.11251,1.919058)"/>
<path style="fill:none;stroke-width:3.207035;stroke-linecap:butt;stroke-linejoin:miter;stroke:rgb(0%,0%,0%);stroke-opacity:1;stroke-miterlimit:10;" d="M 218.427349 201.901799 C 216.026958 199.663518 212.599224 196.468205 212.599224 190.075627 " transform="matrix(2,0,0,2,-12.11251,1.919058)"/>
<path style="fill:none;stroke-width:3.207035;stroke-linecap:butt;stroke-linejoin:miter;stroke:rgb(0%,0%,0%);stroke-opacity:1;stroke-miterlimit:10;" d="M 240.030864 215.643987 C 240.030864 209.251409 243.458599 206.056096 245.858989 203.819768 " transform="matrix(2,0,0,2,-12.11251,1.919058)"/>
<path style="fill:none;stroke-width:3.207035;stroke-linecap:butt;stroke-linejoin:miter;stroke:rgb(0%,0%,0%);stroke-opacity:1;stroke-miterlimit:10;" d="M 247.917583 201.901799 C 250.317974 199.663518 253.745708 196.468205 253.745708 190.075627 " transform="matrix(2,0,0,2,-12.11251,1.919058)"/>
<path style="fill:none;stroke-width:3.207035;stroke-linecap:butt;stroke-linejoin:miter;stroke:rgb(0%,0%,0%);stroke-opacity:1;stroke-miterlimit:10;" d="M 253.745708 215.643987 C 253.745708 202.860784 240.030864 202.860784 240.030864 190.075627 " transform="matrix(2,0,0,2,-12.11251,1.919058)"/>
<path style="fill:none;stroke-width:3.207035;stroke-linecap:butt;stroke-linejoin:miter;stroke:rgb(0%,0%,0%);stroke-opacity:1;stroke-miterlimit:10;" d="M 267.462505 215.643987 C 267.462505 209.251409 270.892192 206.056096 273.292583 203.819768 " transform="matrix(2,0,0,2,-12.11251,1.919058)"/>
<path style="fill:none;stroke-width:3.207035;stroke-linecap:butt;stroke-linejoin:miter;stroke:rgb(0%,0%,0%);stroke-opacity:1;stroke-miterlimit:10;" d="M 275.349224 201.901799 C 277.749614 199.663518 281.179302 196.468205 281.179302 190.075627 " transform="matrix(2,0,0,2,-12.11251,1.919058)"/>
<path style="fill:none;stroke-width:3.207035;stroke-linecap:butt;stroke-linejoin:miter;stroke:rgb(0%,0%,0%);stroke-opacity:1;stroke-miterlimit:10;" d="M 281.179302 215.643987 C 281.179302 202.860784 267.462505 202.860784 267.462505 190.075627 " transform="matrix(2,0,0,2,-12.11251,1.919058)"/>
<path style="fill:none;stroke-width:3.207035;stroke-linecap:butt;stroke-linejoin:miter;stroke:rgb(0%,0%,0%);stroke-opacity:1;stroke-miterlimit:10;" d="M 294.894145 215.643987 L 294.894145 190.075627 " transform="matrix(2,0,0,2,-12.11251,1.919058)"/>
<path style="fill:none;stroke-width:3.207035;stroke-linecap:butt;stroke-linejoin:miter;stroke:rgb(0%,0%,0%);stroke-opacity:1;stroke-miterlimit:10;" d="M 308.610942 215.643987 C 308.610942 209.251409 312.038677 206.056096 314.439067 203.819768 " transform="matrix(2,0,0,2,-12.11251,1.919058)"/>
<path style="fill:none;stroke-width:3.207035;stroke-linecap:butt;stroke-linejoin:miter;stroke:rgb(0%,0%,0%);stroke-opacity:1;stroke-miterlimit:10;" d="M 316.497661 201.901799 C 318.898052 199.663518 322.325786 196.468205 322.325786 190.075627 " transform="matrix(2,0,0,2,-12.11251,1.919058)"/>
<path style="fill:none;stroke-width:3.207035;stroke-linecap:butt;stroke-linejoin:miter;stroke:rgb(0%,0%,0%);stroke-opacity:1;stroke-miterlimit:10;" d="M 322.325786 215.643987 C 322.325786 202.860784 308.610942 202.860784 308.610942 190.075627 " transform="matrix(2,0,0,2,-12.11251,1.919058)"/>
<path style="fill:none;stroke-width:3.207035;stroke-linecap:butt;stroke-linejoin:miter;stroke:rgb(0%,0%,0%);stroke-opacity:1;stroke-miterlimit:10;" d="M 171.450786 241.155705 L 171.450786 215.587346 " transform="matrix(2,0,0,2,-12.11251,1.919058)"/>
<path style="fill:none;stroke-width:3.207035;stroke-linecap:butt;stroke-linejoin:miter;stroke:rgb(0%,0%,0%);stroke-opacity:1;stroke-miterlimit:10;" d="M 185.16563 241.155705 L 185.16563 215.587346 " transform="matrix(2,0,0,2,-12.11251,1.919058)"/>
<path style="fill:none;stroke-width:3.207035;stroke-linecap:butt;stroke-linejoin:miter;stroke:rgb(0%,0%,0%);stroke-opacity:1;stroke-miterlimit:10;" d="M 198.882427 241.155705 C 198.882427 228.372502 212.599224 228.372502 212.599224 215.587346 " transform="matrix(2,0,0,2,-12.11251,1.919058)"/>
<path style="fill:none;stroke-width:3.207035;stroke-linecap:butt;stroke-linejoin:miter;stroke:rgb(0%,0%,0%);stroke-opacity:1;stroke-miterlimit:10;" d="M 212.599224 241.155705 C 212.599224 234.763127 209.169536 231.567815 206.769145 229.331487 " transform="matrix(2,0,0,2,-12.11251,1.919058)"/>
<path style="fill:none;stroke-width:3.207035;stroke-linecap:butt;stroke-linejoin:miter;stroke:rgb(0%,0%,0%);stroke-opacity:1;stroke-miterlimit:10;" d="M 204.712505 227.413518 C 202.312114 225.175237 198.882427 221.979924 198.882427 215.587346 " transform="matrix(2,0,0,2,-12.11251,1.919058)"/>
<path style="fill:none;stroke-width:3.207035;stroke-linecap:butt;stroke-linejoin:miter;stroke:rgb(0%,0%,0%);stroke-opacity:1;stroke-miterlimit:10;" d="M 226.314067 241.155705 L 226.314067 215.587346 " transform="matrix(2,0,0,2,-12.11251,1.919058)"/>
<path style="fill:none;stroke-width:3.207035;stroke-linecap:butt;stroke-linejoin:miter;stroke:rgb(0%,0%,0%);stroke-opacity:1;stroke-miterlimit:10;" d="M 240.030864 241.155705 C 240.030864 228.372502 253.745708 228.372502 253.745708 215.587346 " transform="matrix(2,0,0,2,-12.11251,1.919058)"/>
<path style="fill:none;stroke-width:3.207035;stroke-linecap:butt;stroke-linejoin:miter;stroke:rgb(0%,0%,0%);stroke-opacity:1;stroke-miterlimit:10;" d="M 253.745708 241.155705 C 253.745708 234.763127 250.317974 231.567815 247.917583 229.331487 " transform="matrix(2,0,0,2,-12.11251,1.919058)"/>
<path style="fill:none;stroke-width:3.207035;stroke-linecap:butt;stroke-linejoin:miter;stroke:rgb(0%,0%,0%);stroke-opacity:1;stroke-miterlimit:10;" d="M 245.858989 227.413518 C 243.458599 225.175237 240.030864 221.979924 240.030864 215.587346 " transform="matrix(2,0,0,2,-12.11251,1.919058)"/>
<path style="fill:none;stroke-width:3.207035;stroke-linecap:butt;stroke-linejoin:miter;stroke:rgb(0%,0%,0%);stroke-opacity:1;stroke-miterlimit:10;" d="M 267.462505 241.155705 L 267.462505 215.587346 " transform="matrix(2,0,0,2,-12.11251,1.919058)"/>
<path style="fill:none;stroke-width:3.207035;stroke-linecap:butt;stroke-linejoin:miter;stroke:rgb(0%,0%,0%);stroke-opacity:1;stroke-miterlimit:10;" d="M 281.179302 241.155705 C 281.179302 228.372502 294.894145 228.372502 294.894145 215.587346 " transform="matrix(2,0,0,2,-12.11251,1.919058)"/>
<path style="fill:none;stroke-width:3.207035;stroke-linecap:butt;stroke-linejoin:miter;stroke:rgb(0%,0%,0%);stroke-opacity:1;stroke-miterlimit:10;" d="M 294.894145 241.155705 C 294.894145 234.763127 291.466411 231.567815 289.06602 229.331487 " transform="matrix(2,0,0,2,-12.11251,1.919058)"/>
<path style="fill:none;stroke-width:3.207035;stroke-linecap:butt;stroke-linejoin:miter;stroke:rgb(0%,0%,0%);stroke-opacity:1;stroke-miterlimit:10;" d="M 287.007427 227.413518 C 284.607036 225.175237 281.179302 221.979924 281.179302 215.587346 " transform="matrix(2,0,0,2,-12.11251,1.919058)"/>
<path style="fill:none;stroke-width:3.207035;stroke-linecap:butt;stroke-linejoin:miter;stroke:rgb(0%,0%,0%);stroke-opacity:1;stroke-miterlimit:10;" d="M 308.610942 241.155705 C 308.610942 234.763127 312.038677 231.567815 314.439067 229.331487 " transform="matrix(2,0,0,2,-12.11251,1.919058)"/>
<path style="fill:none;stroke-width:3.207035;stroke-linecap:butt;stroke-linejoin:miter;stroke:rgb(0%,0%,0%);stroke-opacity:1;stroke-miterlimit:10;" d="M 316.497661 227.413518 C 318.898052 225.175237 322.325786 221.979924 322.325786 215.587346 " transform="matrix(2,0,0,2,-12.11251,1.919058)"/>
<path style="fill:none;stroke-width:3.207035;stroke-linecap:butt;stroke-linejoin:miter;stroke:rgb(0%,0%,0%);stroke-opacity:1;stroke-miterlimit:10;" d="M 322.325786 241.155705 C 322.325786 228.372502 308.610942 228.372502 308.610942 215.587346 " transform="matrix(2,0,0,2,-12.11251,1.919058)"/>
<path style="fill:none;stroke-width:3.207035;stroke-linecap:butt;stroke-linejoin:miter;stroke:rgb(0%,0%,0%);stroke-opacity:1;stroke-miterlimit:10;" d="M 171.450786 266.667424 C 171.450786 260.274846 174.87852 257.079534 177.278911 254.843205 " transform="matrix(2,0,0,2,-12.11251,1.919058)"/>
<path style="fill:none;stroke-width:3.207035;stroke-linecap:butt;stroke-linejoin:miter;stroke:rgb(0%,0%,0%);stroke-opacity:1;stroke-miterlimit:10;" d="M 179.337505 252.925237 C 181.737895 250.686955 185.16563 247.491643 185.16563 241.099065 " transform="matrix(2,0,0,2,-12.11251,1.919058)"/>
<path style="fill:none;stroke-width:3.207035;stroke-linecap:butt;stroke-linejoin:miter;stroke:rgb(0%,0%,0%);stroke-opacity:1;stroke-miterlimit:10;" d="M 185.16563 266.667424 C 185.16563 253.884221 171.450786 253.884221 171.450786 241.099065 " transform="matrix(2,0,0,2,-12.11251,1.919058)"/>
<path style="fill:none;stroke-width:3.207035;stroke-linecap:butt;stroke-linejoin:miter;stroke:rgb(0%,0%,0%);stroke-opacity:1;stroke-miterlimit:10;" d="M 198.882427 266.667424 C 198.882427 253.884221 212.599224 253.884221 212.599224 241.099065 " transform="matrix(2,0,0,2,-12.11251,1.919058)"/>
<path style="fill:none;stroke-width:3.207035;stroke-linecap:butt;stroke-linejoin:miter;stroke:rgb(0%,0%,0%);stroke-opacity:1;stroke-miterlimit:10;" d="M 212.599224 266.667424 C 212.599224 260.274846 209.169536 257.079534 206.769145 254.843205 " transform="matrix(2,0,0,2,-12.11251,1.919058)"/>
<path style="fill:none;stroke-width:3.207035;stroke-linecap:butt;stroke-linejoin:miter;stroke:rgb(0%,0%,0%);stroke-opacity:1;stroke-miterlimit:10;" d="M 204.712505 252.925237 C 202.312114 250.686955 198.882427 247.491643 198.882427 241.099065 " transform="matrix(2,0,0,2,-12.11251,1.919058)"/>
<path style="fill:none;stroke-width:3.207035;stroke-linecap:butt;stroke-linejoin:miter;stroke:rgb(0%,0%,0%);stroke-opacity:1;stroke-miterlimit:10;" d="M 226.314067 266.667424 L 226.314067 241.099065 " transform="matrix(2,0,0,2,-12.11251,1.919058)"/>
<path style="fill:none;stroke-width:3.207035;stroke-linecap:butt;stroke-linejoin:miter;stroke:rgb(0%,0%,0%);stroke-opacity:1;stroke-miterlimit:10;" d="M 240.030864 266.667424 C 240.030864 253.884221 253.745708 253.884221 253.745708 241.099065 " transform="matrix(2,0,0,2,-12.11251,1.919058)"/>
<path style="fill:none;stroke-width:3.207035;stroke-linecap:butt;stroke-linejoin:miter;stroke:rgb(0%,0%,0%);stroke-opacity:1;stroke-miterlimit:10;" d="M 253.745708 266.667424 C 253.745708 260.274846 250.317974 257.079534 247.917583 254.843205 " transform="matrix(2,0,0,2,-12.11251,1.919058)"/>
<path style="fill:none;stroke-width:3.207035;stroke-linecap:butt;stroke-linejoin:miter;stroke:rgb(0%,0%,0%);stroke-opacity:1;stroke-miterlimit:10;" d="M 245.858989 252.925237 C 243.458599 250.686955 240.030864 247.491643 240.030864 241.099065 " transform="matrix(2,0,0,2,-12.11251,1.919058)"/>
<path style="fill:none;stroke-width:3.207035;stroke-linecap:butt;stroke-linejoin:miter;stroke:rgb(0%,0%,0%);stroke-opacity:1;stroke-miterlimit:10;" d="M 267.462505 266.667424 L 267.462505 241.099065 " transform="matrix(2,0,0,2,-12.11251,1.919058)"/>
<path style="fill:none;stroke-width:3.207035;stroke-linecap:butt;stroke-linejoin:miter;stroke:rgb(0%,0%,0%);stroke-opacity:1;stroke-miterlimit:10;" d="M 281.179302 266.667424 L 281.179302 241.099065 " transform="matrix(2,0,0,2,-12.11251,1.919058)"/>
<path style="fill:none;stroke-width:3.207035;stroke-linecap:butt;stroke-linejoin:miter;stroke:rgb(0%,0%,0%);stroke-opacity:1;stroke-miterlimit:10;" d="M 294.894145 266.667424 C 294.894145 260.274846 298.323833 257.079534 300.724224 254.843205 " transform="matrix(2,0,0,2,-12.11251,1.919058)"/>
<path style="fill:none;stroke-width:3.207035;stroke-linecap:butt;stroke-linejoin:miter;stroke:rgb(0%,0%,0%);stroke-opacity:1;stroke-miterlimit:10;" d="M 302.780864 252.925237 C 305.181255 250.686955 308.610942 247.491643 308.610942 241.099065 " transform="matrix(2,0,0,2,-12.11251,1.919058)"/>
<path style="fill:none;stroke-width:3.207035;stroke-linecap:butt;stroke-linejoin:miter;stroke:rgb(0%,0%,0%);stroke-opacity:1;stroke-miterlimit:10;" d="M 308.610942 266.667424 C 308.610942 253.884221 294.894145 253.884221 294.894145 241.099065 " transform="matrix(2,0,0,2,-12.11251,1.919058)"/>
<path style="fill:none;stroke-width:3.207035;stroke-linecap:butt;stroke-linejoin:miter;stroke:rgb(0%,0%,0%);stroke-opacity:1;stroke-miterlimit:10;" d="M 322.325786 266.667424 L 322.325786 241.099065 " transform="matrix(2,0,0,2,-12.11251,1.919058)"/>
<path style="fill:none;stroke-width:3.207035;stroke-linecap:butt;stroke-linejoin:miter;stroke:rgb(0%,0%,0%);stroke-opacity:1;stroke-miterlimit:10;" d="M 171.450786 292.179143 L 171.450786 266.610784 " transform="matrix(2,0,0,2,-12.11251,1.919058)"/>
<path style="fill:none;stroke-width:3.207035;stroke-linecap:butt;stroke-linejoin:miter;stroke:rgb(0%,0%,0%);stroke-opacity:1;stroke-miterlimit:10;" d="M 185.16563 292.179143 C 185.16563 285.788518 188.595317 282.591252 190.995708 280.354924 " transform="matrix(2,0,0,2,-12.11251,1.919058)"/>
<path style="fill:none;stroke-width:3.207035;stroke-linecap:butt;stroke-linejoin:miter;stroke:rgb(0%,0%,0%);stroke-opacity:1;stroke-miterlimit:10;" d="M 193.052349 278.436955 C 195.452739 276.198674 198.882427 273.003362 198.882427 266.610784 " transform="matrix(2,0,0,2,-12.11251,1.919058)"/>
<path style="fill:none;stroke-width:3.207035;stroke-linecap:butt;stroke-linejoin:miter;stroke:rgb(0%,0%,0%);stroke-opacity:1;stroke-miterlimit:10;" d="M 198.882427 292.179143 C 198.882427 279.39594 185.16563 279.39594 185.16563 266.610784 " transform="matrix(2,0,0,2,-12.11251,1.919058)"/>
<path style="fill:none;stroke-width:3.207035;stroke-linecap:butt;stroke-linejoin:miter;stroke:rgb(0%,0%,0%);stroke-opacity:1;stroke-miterlimit:10;" d="M 212.599224 292.179143 L 212.599224 266.610784 " transform="matrix(2,0,0,2,-12.11251,1.919058)"/>
<path style="fill:none;stroke-width:3.207035;stroke-linecap:butt;stroke-linejoin:miter;stroke:rgb(0%,0%,0%);stroke-opacity:1;stroke-miterlimit:10;" d="M 226.314067 292.179143 C 226.314067 285.788518 229.743755 282.591252 232.144145 280.354924 " transform="matrix(2,0,0,2,-12.11251,1.919058)"/>
<path style="fill:none;stroke-width:3.207035;stroke-linecap:butt;stroke-linejoin:miter;stroke:rgb(0%,0%,0%);stroke-opacity:1;stroke-miterlimit:10;" d="M 234.200786 278.436955 C 236.601177 276.198674 240.030864 273.003362 240.030864 266.610784 " transform="matrix(2,0,0,2,-12.11251,1.919058)"/>
<path style="fill:none;stroke-width:3.207035;stroke-linecap:butt;stroke-linejoin:miter;stroke:rgb(0%,0%,0%);stroke-opacity:1;stroke-miterlimit:10;" d="M 240.030864 292.179143 C 240.030864 279.39594 226.314067 279.39594 226.314067 266.610784 " transform="matrix(2,0,0,2,-12.11251,1.919058)"/>
<path style="fill:none;stroke-width:3.207035;stroke-linecap:butt;stroke-linejoin:miter;stroke:rgb(0%,0%,0%);stroke-opacity:1;stroke-miterlimit:10;" d="M 253.745708 292.179143 L 253.745708 266.610784 " transform="matrix(2,0,0,2,-12.11251,1.919058)"/>
<path style="fill:none;stroke-width:3.207035;stroke-linecap:butt;stroke-linejoin:miter;stroke:rgb(0%,0%,0%);stroke-opacity:1;stroke-miterlimit:10;" d="M 267.462505 292.179143 C 267.462505 279.39594 281.179302 279.39594 281.179302 266.610784 " transform="matrix(2,0,0,2,-12.11251,1.919058)"/>
<path style="fill:none;stroke-width:3.207035;stroke-linecap:butt;stroke-linejoin:miter;stroke:rgb(0%,0%,0%);stroke-opacity:1;stroke-miterlimit:10;" d="M 281.179302 292.179143 C 281.179302 285.788518 277.749614 282.591252 275.349224 280.354924 " transform="matrix(2,0,0,2,-12.11251,1.919058)"/>
<path style="fill:none;stroke-width:3.207035;stroke-linecap:butt;stroke-linejoin:miter;stroke:rgb(0%,0%,0%);stroke-opacity:1;stroke-miterlimit:10;" d="M 273.292583 278.436955 C 270.892192 276.198674 267.462505 273.003362 267.462505 266.610784 " transform="matrix(2,0,0,2,-12.11251,1.919058)"/>
<path style="fill:none;stroke-width:3.207035;stroke-linecap:butt;stroke-linejoin:miter;stroke:rgb(0%,0%,0%);stroke-opacity:1;stroke-miterlimit:10;" d="M 294.894145 292.179143 L 294.894145 266.610784 " transform="matrix(2,0,0,2,-12.11251,1.919058)"/>
<path style="fill:none;stroke-width:3.207035;stroke-linecap:butt;stroke-linejoin:miter;stroke:rgb(0%,0%,0%);stroke-opacity:1;stroke-miterlimit:10;" d="M 308.610942 292.179143 C 308.610942 279.39594 322.325786 279.39594 322.325786 266.610784 " transform="matrix(2,0,0,2,-12.11251,1.919058)"/>
<path style="fill:none;stroke-width:3.207035;stroke-linecap:butt;stroke-linejoin:miter;stroke:rgb(0%,0%,0%);stroke-opacity:1;stroke-miterlimit:10;" d="M 322.325786 292.179143 C 322.325786 285.788518 318.898052 282.591252 316.497661 280.354924 " transform="matrix(2,0,0,2,-12.11251,1.919058)"/>
<path style="fill:none;stroke-width:3.207035;stroke-linecap:butt;stroke-linejoin:miter;stroke:rgb(0%,0%,0%);stroke-opacity:1;stroke-miterlimit:10;" d="M 314.439067 278.436955 C 312.038677 276.198674 308.610942 273.003362 308.610942 266.610784 " transform="matrix(2,0,0,2,-12.11251,1.919058)"/>
<path style="fill:none;stroke-width:3.207035;stroke-linecap:butt;stroke-linejoin:miter;stroke:rgb(0%,0%,0%);stroke-opacity:1;stroke-miterlimit:10;" d="M 171.450786 317.690862 L 171.450786 292.122502 " transform="matrix(2,0,0,2,-12.11251,1.919058)"/>
<path style="fill:none;stroke-width:3.207035;stroke-linecap:butt;stroke-linejoin:miter;stroke:rgb(0%,0%,0%);stroke-opacity:1;stroke-miterlimit:10;" d="M 185.16563 317.690862 L 185.16563 292.122502 " transform="matrix(2,0,0,2,-12.11251,1.919058)"/>
<path style="fill:none;stroke-width:3.207035;stroke-linecap:butt;stroke-linejoin:miter;stroke:rgb(0%,0%,0%);stroke-opacity:1;stroke-miterlimit:10;" d="M 198.882427 317.690862 C 198.882427 311.300237 202.312114 308.102971 204.712505 305.866643 " transform="matrix(2,0,0,2,-12.11251,1.919058)"/>
<path style="fill:none;stroke-width:3.207035;stroke-linecap:butt;stroke-linejoin:miter;stroke:rgb(0%,0%,0%);stroke-opacity:1;stroke-miterlimit:10;" d="M 206.769145 303.948674 C 209.169536 301.710393 212.599224 298.51508 212.599224 292.122502 " transform="matrix(2,0,0,2,-12.11251,1.919058)"/>
<path style="fill:none;stroke-width:3.207035;stroke-linecap:butt;stroke-linejoin:miter;stroke:rgb(0%,0%,0%);stroke-opacity:1;stroke-miterlimit:10;" d="M 212.599224 317.690862 C 212.599224 304.907659 198.882427 304.907659 198.882427 292.122502 " transform="matrix(2,0,0,2,-12.11251,1.919058)"/>
<path style="fill:none;stroke-width:3.207035;stroke-linecap:butt;stroke-linejoin:miter;stroke:rgb(0%,0%,0%);stroke-opacity:1;stroke-miterlimit:10;" d="M 226.314067 317.690862 L 226.314067 292.122502 " transform="matrix(2,0,0,2,-12.11251,1.919058)"/>
<path style="fill:none;stroke-width:3.207035;stroke-linecap:butt;stroke-linejoin:miter;stroke:rgb(0%,0%,0%);stroke-opacity:1;stroke-miterlimit:10;" d="M 240.030864 317.690862 L 240.030864 292.122502 " transform="matrix(2,0,0,2,-12.11251,1.919058)"/>
<path style="fill:none;stroke-width:3.207035;stroke-linecap:butt;stroke-linejoin:miter;stroke:rgb(0%,0%,0%);stroke-opacity:1;stroke-miterlimit:10;" d="M 253.745708 317.690862 C 253.745708 311.300237 257.175395 308.102971 259.575786 305.866643 " transform="matrix(2,0,0,2,-12.11251,1.919058)"/>
<path style="fill:none;stroke-width:3.207035;stroke-linecap:butt;stroke-linejoin:miter;stroke:rgb(0%,0%,0%);stroke-opacity:1;stroke-miterlimit:10;" d="M 261.632427 303.948674 C 264.032817 301.710393 267.462505 298.51508 267.462505 292.122502 " transform="matrix(2,0,0,2,-12.11251,1.919058)"/>
<path style="fill:none;stroke-width:3.207035;stroke-linecap:butt;stroke-linejoin:miter;stroke:rgb(0%,0%,0%);stroke-opacity:1;stroke-miterlimit:10;" d="M 267.462505 317.690862 C 267.462505 304.907659 253.745708 304.907659 253.745708 292.122502 " transform="matrix(2,0,0,2,-12.11251,1.919058)"/>
<path style="fill:none;stroke-width:3.207035;stroke-linecap:butt;stroke-linejoin:miter;stroke:rgb(0%,0%,0%);stroke-opacity:1;stroke-miterlimit:10;" d="M 281.179302 317.690862 C 281.179302 311.300237 284.607036 308.102971 287.007427 305.866643 " transform="matrix(2,0,0,2,-12.11251,1.919058)"/>
<path style="fill:none;stroke-width:3.207035;stroke-linecap:butt;stroke-linejoin:miter;stroke:rgb(0%,0%,0%);stroke-opacity:1;stroke-miterlimit:10;" d="M 289.06602 303.948674 C 291.466411 301.710393 294.894145 298.51508 294.894145 292.122502 " transform="matrix(2,0,0,2,-12.11251,1.919058)"/>
<path style="fill:none;stroke-width:3.207035;stroke-linecap:butt;stroke-linejoin:miter;stroke:rgb(0%,0%,0%);stroke-opacity:1;stroke-miterlimit:10;" d="M 294.894145 317.690862 C 294.894145 304.907659 281.179302 304.907659 281.179302 292.122502 " transform="matrix(2,0,0,2,-12.11251,1.919058)"/>
<path style="fill:none;stroke-width:3.207035;stroke-linecap:butt;stroke-linejoin:miter;stroke:rgb(0%,0%,0%);stroke-opacity:1;stroke-miterlimit:10;" d="M 308.610942 317.690862 C 308.610942 311.300237 312.038677 308.102971 314.439067 305.866643 " transform="matrix(2,0,0,2,-12.11251,1.919058)"/>
<path style="fill:none;stroke-width:3.207035;stroke-linecap:butt;stroke-linejoin:miter;stroke:rgb(0%,0%,0%);stroke-opacity:1;stroke-miterlimit:10;" d="M 316.497661 303.948674 C 318.898052 301.710393 322.325786 298.51508 322.325786 292.122502 " transform="matrix(2,0,0,2,-12.11251,1.919058)"/>
<path style="fill:none;stroke-width:3.207035;stroke-linecap:butt;stroke-linejoin:miter;stroke:rgb(0%,0%,0%);stroke-opacity:1;stroke-miterlimit:10;" d="M 322.325786 317.690862 C 322.325786 304.907659 308.610942 304.907659 308.610942 292.122502 " transform="matrix(2,0,0,2,-12.11251,1.919058)"/>
<path style="fill:none;stroke-width:3.207035;stroke-linecap:butt;stroke-linejoin:miter;stroke:rgb(0%,0%,0%);stroke-opacity:1;stroke-miterlimit:10;" d="M 6.858989 317.634221 C 6.858989 404.749455 77.47813 475.368596 164.591411 475.368596 C 251.706645 475.368596 322.325786 404.749455 322.325786 317.634221 " transform="matrix(2,0,0,2,-12.11251,1.919058)"/>
<path style="fill:none;stroke-width:3.207035;stroke-linecap:butt;stroke-linejoin:miter;stroke:rgb(0%,0%,0%);stroke-opacity:1;stroke-miterlimit:10;" d="M 20.573833 317.634221 C 20.573833 397.173284 85.052349 461.653752 164.591411 461.653752 C 244.130474 461.653752 308.610942 397.173284 308.610942 317.634221 " transform="matrix(2,0,0,2,-12.11251,1.919058)"/>
<path style="fill:none;stroke-width:3.207035;stroke-linecap:butt;stroke-linejoin:miter;stroke:rgb(0%,0%,0%);stroke-opacity:1;stroke-miterlimit:10;" d="M 34.29063 317.634221 C 34.29063 389.599065 92.62852 447.936955 164.591411 447.936955 C 236.556255 447.936955 294.894145 389.599065 294.894145 317.634221 " transform="matrix(2,0,0,2,-12.11251,1.919058)"/>
<path style="fill:none;stroke-width:3.207035;stroke-linecap:butt;stroke-linejoin:miter;stroke:rgb(0%,0%,0%);stroke-opacity:1;stroke-miterlimit:10;" d="M 48.005474 317.634221 C 48.005474 382.022893 100.202739 434.220159 164.591411 434.220159 C 228.982036 434.220159 281.179302 382.022893 281.179302 317.634221 " transform="matrix(2,0,0,2,-12.11251,1.919058)"/>
<path style="fill:none;stroke-width:3.207035;stroke-linecap:butt;stroke-linejoin:miter;stroke:rgb(0%,0%,0%);stroke-opacity:1;stroke-miterlimit:10;" d="M 61.72227 317.634221 C 61.72227 374.448674 107.778911 420.505315 164.591411 420.505315 C 221.405864 420.505315 267.462505 374.448674 267.462505 317.634221 " transform="matrix(2,0,0,2,-12.11251,1.919058)"/>
<path style="fill:none;stroke-width:3.207035;stroke-linecap:butt;stroke-linejoin:miter;stroke:rgb(0%,0%,0%);stroke-opacity:1;stroke-miterlimit:10;" d="M 75.439067 317.634221 C 75.439067 366.872502 115.35313 406.788518 164.591411 406.788518 C 213.831645 406.788518 253.745708 366.872502 253.745708 317.634221 " transform="matrix(2,0,0,2,-12.11251,1.919058)"/>
<path style="fill:none;stroke-width:3.207035;stroke-linecap:butt;stroke-linejoin:miter;stroke:rgb(0%,0%,0%);stroke-opacity:1;stroke-miterlimit:10;" d="M 89.153911 317.634221 C 89.153911 359.298284 122.929302 393.073674 164.591411 393.073674 C 206.255474 393.073674 240.030864 359.298284 240.030864 317.634221 " transform="matrix(2,0,0,2,-12.11251,1.919058)"/>
<path style="fill:none;stroke-width:3.207035;stroke-linecap:butt;stroke-linejoin:miter;stroke:rgb(0%,0%,0%);stroke-opacity:1;stroke-miterlimit:10;" d="M 102.870708 317.634221 C 102.870708 351.722112 130.50352 379.356877 164.591411 379.356877 C 198.681255 379.356877 226.314067 351.722112 226.314067 317.634221 " transform="matrix(2,0,0,2,-12.11251,1.919058)"/>
<path style="fill:none;stroke-width:3.207035;stroke-linecap:butt;stroke-linejoin:miter;stroke:rgb(0%,0%,0%);stroke-opacity:1;stroke-miterlimit:10;" d="M 116.585552 317.634221 C 116.585552 344.147893 138.079692 365.64008 164.591411 365.64008 C 191.105083 365.64008 212.599224 344.147893 212.599224 317.634221 " transform="matrix(2,0,0,2,-12.11251,1.919058)"/>
<path style="fill:none;stroke-width:3.207035;stroke-linecap:butt;stroke-linejoin:miter;stroke:rgb(0%,0%,0%);stroke-opacity:1;stroke-miterlimit:10;" d="M 130.302349 317.634221 C 130.302349 336.573674 145.653911 351.925237 164.591411 351.925237 C 183.530864 351.925237 198.882427 336.573674 198.882427 317.634221 " transform="matrix(2,0,0,2,-12.11251,1.919058)"/>
<path style="fill:none;stroke-width:3.207035;stroke-linecap:butt;stroke-linejoin:miter;stroke:rgb(0%,0%,0%);stroke-opacity:1;stroke-miterlimit:10;" d="M 144.019145 317.634221 C 144.019145 328.997502 153.230083 338.20844 164.591411 338.20844 C 175.954692 338.20844 185.16563 328.997502 185.16563 317.634221 " transform="matrix(2,0,0,2,-12.11251,1.919058)"/>
<path style="fill:none;stroke-width:3.207035;stroke-linecap:butt;stroke-linejoin:miter;stroke:rgb(0%,0%,0%);stroke-opacity:1;stroke-miterlimit:10;" d="M 157.733989 317.634221 C 157.733989 321.423284 160.804302 324.493596 164.591411 324.493596 C 168.380474 324.493596 171.450786 321.423284 171.450786 317.634221 " transform="matrix(2,0,0,2,-12.11251,1.919058)"/>
<path style="fill:none;stroke-width:0.801759;stroke-linecap:butt;stroke-linejoin:miter;stroke:rgb(90%,90%,90%);stroke-opacity:1;stroke-miterlimit:10;" d="M 322.325786 164.620549 C 322.325786 77.507268 251.706645 6.886174 164.591411 6.886174 C 77.47813 6.886174 6.858989 77.507268 6.858989 164.620549 " transform="matrix(2,0,0,2,-12.11251,1.919058)"/>
<path style="fill:none;stroke-width:0.801759;stroke-linecap:butt;stroke-linejoin:miter;stroke:rgb(90%,90%,90%);stroke-opacity:1;stroke-miterlimit:10;" d="M 308.610942 164.620549 C 308.610942 85.081487 244.130474 20.602971 164.591411 20.602971 C 85.052349 20.602971 20.573833 85.081487 20.573833 164.620549 " transform="matrix(2,0,0,2,-12.11251,1.919058)"/>
<path style="fill:none;stroke-width:0.801759;stroke-linecap:butt;stroke-linejoin:miter;stroke:rgb(90%,90%,90%);stroke-opacity:1;stroke-miterlimit:10;" d="M 294.894145 164.620549 C 294.894145 92.657659 236.556255 34.317815 164.591411 34.317815 C 92.62852 34.317815 34.29063 92.657659 34.29063 164.620549 " transform="matrix(2,0,0,2,-12.11251,1.919058)"/>
<path style="fill:none;stroke-width:0.801759;stroke-linecap:butt;stroke-linejoin:miter;stroke:rgb(90%,90%,90%);stroke-opacity:1;stroke-miterlimit:10;" d="M 281.179302 164.620549 C 281.179302 100.231877 228.982036 48.034612 164.591411 48.034612 C 100.202739 48.034612 48.005474 100.231877 48.005474 164.620549 " transform="matrix(2,0,0,2,-12.11251,1.919058)"/>
<path style="fill:none;stroke-width:0.801759;stroke-linecap:butt;stroke-linejoin:miter;stroke:rgb(90%,90%,90%);stroke-opacity:1;stroke-miterlimit:10;" d="M 267.462505 164.620549 C 267.462505 107.806096 221.405864 61.751409 164.591411 61.751409 C 107.778911 61.751409 61.72227 107.806096 61.72227 164.620549 " transform="matrix(2,0,0,2,-12.11251,1.919058)"/>
<path style="fill:none;stroke-width:0.801759;stroke-linecap:butt;stroke-linejoin:miter;stroke:rgb(90%,90%,90%);stroke-opacity:1;stroke-miterlimit:10;" d="M 253.745708 164.620549 C 253.745708 115.382268 213.831645 75.466252 164.591411 75.466252 C 115.35313 75.466252 75.439067 115.382268 75.439067 164.620549 " transform="matrix(2,0,0,2,-12.11251,1.919058)"/>
<path style="fill:none;stroke-width:0.801759;stroke-linecap:butt;stroke-linejoin:miter;stroke:rgb(90%,90%,90%);stroke-opacity:1;stroke-miterlimit:10;" d="M 240.030864 164.620549 C 240.030864 122.956487 206.255474 89.183049 164.591411 89.183049 C 122.929302 89.183049 89.153911 122.956487 89.153911 164.620549 " transform="matrix(2,0,0,2,-12.11251,1.919058)"/>
<path style="fill:none;stroke-width:0.801759;stroke-linecap:butt;stroke-linejoin:miter;stroke:rgb(90%,90%,90%);stroke-opacity:1;stroke-miterlimit:10;" d="M 226.314067 164.620549 C 226.314067 130.532659 198.681255 102.897893 164.591411 102.897893 C 130.50352 102.897893 102.870708 130.532659 102.870708 164.620549 " transform="matrix(2,0,0,2,-12.11251,1.919058)"/>
<path style="fill:none;stroke-width:0.801759;stroke-linecap:butt;stroke-linejoin:miter;stroke:rgb(90%,90%,90%);stroke-opacity:1;stroke-miterlimit:10;" d="M 212.599224 164.620549 C 212.599224 138.106877 191.105083 116.61469 164.591411 116.61469 C 138.079692 116.61469 116.585552 138.106877 116.585552 164.620549 " transform="matrix(2,0,0,2,-12.11251,1.919058)"/>
<path style="fill:none;stroke-width:0.801759;stroke-linecap:butt;stroke-linejoin:miter;stroke:rgb(90%,90%,90%);stroke-opacity:1;stroke-miterlimit:10;" d="M 198.882427 164.620549 C 198.882427 145.683049 183.530864 130.331487 164.591411 130.331487 C 145.653911 130.331487 130.302349 145.683049 130.302349 164.620549 " transform="matrix(2,0,0,2,-12.11251,1.919058)"/>
<path style="fill:none;stroke-width:0.801759;stroke-linecap:butt;stroke-linejoin:miter;stroke:rgb(90%,90%,90%);stroke-opacity:1;stroke-miterlimit:10;" d="M 185.16563 164.620549 C 185.16563 153.257268 175.954692 144.04633 164.591411 144.04633 C 153.230083 144.04633 144.019145 153.257268 144.019145 164.620549 " transform="matrix(2,0,0,2,-12.11251,1.919058)"/>
<path style="fill:none;stroke-width:0.801759;stroke-linecap:butt;stroke-linejoin:miter;stroke:rgb(90%,90%,90%);stroke-opacity:1;stroke-miterlimit:10;" d="M 171.450786 164.620549 C 171.450786 160.83344 168.380474 157.763127 164.591411 157.763127 C 160.804302 157.763127 157.733989 160.83344 157.733989 164.620549 " transform="matrix(2,0,0,2,-12.11251,1.919058)"/>
<path style="fill:none;stroke-width:0.801759;stroke-linecap:butt;stroke-linejoin:miter;stroke:rgb(90%,90%,90%);stroke-opacity:1;stroke-miterlimit:10;" d="M 6.858989 317.690862 L 6.858989 164.563909 " transform="matrix(2,0,0,2,-12.11251,1.919058)"/>
<path style="fill:none;stroke-width:0.801759;stroke-linecap:butt;stroke-linejoin:miter;stroke:rgb(90%,90%,90%);stroke-opacity:1;stroke-miterlimit:10;" d="M 20.573833 317.690862 L 20.573833 164.563909 " transform="matrix(2,0,0,2,-12.11251,1.919058)"/>
<path style="fill:none;stroke-width:0.801759;stroke-linecap:butt;stroke-linejoin:miter;stroke:rgb(90%,90%,90%);stroke-opacity:1;stroke-miterlimit:10;" d="M 34.29063 317.690862 L 34.29063 164.563909 " transform="matrix(2,0,0,2,-12.11251,1.919058)"/>
<path style="fill:none;stroke-width:0.801759;stroke-linecap:butt;stroke-linejoin:miter;stroke:rgb(90%,90%,90%);stroke-opacity:1;stroke-miterlimit:10;" d="M 48.005474 317.690862 L 48.005474 164.563909 " transform="matrix(2,0,0,2,-12.11251,1.919058)"/>
<path style="fill:none;stroke-width:0.801759;stroke-linecap:butt;stroke-linejoin:miter;stroke:rgb(90%,90%,90%);stroke-opacity:1;stroke-miterlimit:10;" d="M 61.72227 317.690862 L 61.72227 164.563909 " transform="matrix(2,0,0,2,-12.11251,1.919058)"/>
<path style="fill:none;stroke-width:0.801759;stroke-linecap:butt;stroke-linejoin:miter;stroke:rgb(90%,90%,90%);stroke-opacity:1;stroke-miterlimit:10;" d="M 75.439067 317.690862 L 75.439067 164.563909 " transform="matrix(2,0,0,2,-12.11251,1.919058)"/>
<path style="fill:none;stroke-width:0.801759;stroke-linecap:butt;stroke-linejoin:miter;stroke:rgb(90%,90%,90%);stroke-opacity:1;stroke-miterlimit:10;" d="M 89.153911 317.690862 L 89.153911 164.563909 " transform="matrix(2,0,0,2,-12.11251,1.919058)"/>
<path style="fill:none;stroke-width:0.801759;stroke-linecap:butt;stroke-linejoin:miter;stroke:rgb(90%,90%,90%);stroke-opacity:1;stroke-miterlimit:10;" d="M 102.870708 317.690862 L 102.870708 164.563909 " transform="matrix(2,0,0,2,-12.11251,1.919058)"/>
<path style="fill:none;stroke-width:0.801759;stroke-linecap:butt;stroke-linejoin:miter;stroke:rgb(90%,90%,90%);stroke-opacity:1;stroke-miterlimit:10;" d="M 116.585552 317.690862 L 116.585552 164.563909 " transform="matrix(2,0,0,2,-12.11251,1.919058)"/>
<path style="fill:none;stroke-width:0.801759;stroke-linecap:butt;stroke-linejoin:miter;stroke:rgb(90%,90%,90%);stroke-opacity:1;stroke-miterlimit:10;" d="M 130.302349 317.690862 L 130.302349 164.563909 " transform="matrix(2,0,0,2,-12.11251,1.919058)"/>
<path style="fill:none;stroke-width:0.801759;stroke-linecap:butt;stroke-linejoin:miter;stroke:rgb(90%,90%,90%);stroke-opacity:1;stroke-miterlimit:10;" d="M 144.019145 317.690862 L 144.019145 164.563909 " transform="matrix(2,0,0,2,-12.11251,1.919058)"/>
<path style="fill:none;stroke-width:0.801759;stroke-linecap:butt;stroke-linejoin:miter;stroke:rgb(90%,90%,90%);stroke-opacity:1;stroke-miterlimit:10;" d="M 157.733989 317.690862 L 157.733989 164.563909 " transform="matrix(2,0,0,2,-12.11251,1.919058)"/>
<path style="fill:none;stroke-width:0.801759;stroke-linecap:butt;stroke-linejoin:miter;stroke:rgb(90%,90%,90%);stroke-opacity:1;stroke-miterlimit:10;" d="M 171.450786 190.132268 C 171.450786 177.349065 185.16563 177.349065 185.16563 164.563909 " transform="matrix(2,0,0,2,-12.11251,1.919058)"/>
<path style="fill:none;stroke-width:0.801759;stroke-linecap:butt;stroke-linejoin:miter;stroke:rgb(90%,90%,90%);stroke-opacity:1;stroke-miterlimit:10;" d="M 185.16563 190.132268 C 185.16563 183.73969 181.737895 180.544377 179.337505 178.306096 " transform="matrix(2,0,0,2,-12.11251,1.919058)"/>
<path style="fill:none;stroke-width:0.801759;stroke-linecap:butt;stroke-linejoin:miter;stroke:rgb(90%,90%,90%);stroke-opacity:1;stroke-miterlimit:10;" d="M 177.278911 176.39008 C 174.87852 174.151799 171.450786 170.956487 171.450786 164.563909 " transform="matrix(2,0,0,2,-12.11251,1.919058)"/>
<path style="fill:none;stroke-width:0.801759;stroke-linecap:butt;stroke-linejoin:miter;stroke:rgb(90%,90%,90%);stroke-opacity:1;stroke-miterlimit:10;" d="M 198.882427 190.132268 C 198.882427 183.73969 202.312114 180.544377 204.712505 178.306096 " transform="matrix(2,0,0,2,-12.11251,1.919058)"/>
<path style="fill:none;stroke-width:0.801759;stroke-linecap:butt;stroke-linejoin:miter;stroke:rgb(90%,90%,90%);stroke-opacity:1;stroke-miterlimit:10;" d="M 206.769145 176.39008 C 209.169536 174.151799 212.599224 170.956487 212.599224 164.563909 " transform="matrix(2,0,0,2,-12.11251,1.919058)"/>
<path style="fill:none;stroke-width:0.801759;stroke-linecap:butt;stroke-linejoin:miter;stroke:rgb(90%,90%,90%);stroke-opacity:1;stroke-miterlimit:10;" d="M 212.599224 190.132268 C 212.599224 177.349065 198.882427 177.349065 198.882427 164.563909 " transform="matrix(2,0,0,2,-12.11251,1.919058)"/>
<path style="fill:none;stroke-width:0.801759;stroke-linecap:butt;stroke-linejoin:miter;stroke:rgb(90%,90%,90%);stroke-opacity:1;stroke-miterlimit:10;" d="M 226.314067 190.132268 C 226.314067 177.349065 240.030864 177.349065 240.030864 164.563909 " transform="matrix(2,0,0,2,-12.11251,1.919058)"/>
<path style="fill:none;stroke-width:0.801759;stroke-linecap:butt;stroke-linejoin:miter;stroke:rgb(90%,90%,90%);stroke-opacity:1;stroke-miterlimit:10;" d="M 240.030864 190.132268 C 240.030864 183.73969 236.601177 180.544377 234.200786 178.306096 " transform="matrix(2,0,0,2,-12.11251,1.919058)"/>
<path style="fill:none;stroke-width:0.801759;stroke-linecap:butt;stroke-linejoin:miter;stroke:rgb(90%,90%,90%);stroke-opacity:1;stroke-miterlimit:10;" d="M 232.144145 176.39008 C 229.743755 174.151799 226.314067 170.956487 226.314067 164.563909 " transform="matrix(2,0,0,2,-12.11251,1.919058)"/>
<path style="fill:none;stroke-width:0.801759;stroke-linecap:butt;stroke-linejoin:miter;stroke:rgb(90%,90%,90%);stroke-opacity:1;stroke-miterlimit:10;" d="M 253.745708 190.132268 L 253.745708 164.563909 " transform="matrix(2,0,0,2,-12.11251,1.919058)"/>
<path style="fill:none;stroke-width:0.801759;stroke-linecap:butt;stroke-linejoin:miter;stroke:rgb(90%,90%,90%);stroke-opacity:1;stroke-miterlimit:10;" d="M 267.462505 190.132268 L 267.462505 164.563909 " transform="matrix(2,0,0,2,-12.11251,1.919058)"/>
<path style="fill:none;stroke-width:0.801759;stroke-linecap:butt;stroke-linejoin:miter;stroke:rgb(90%,90%,90%);stroke-opacity:1;stroke-miterlimit:10;" d="M 281.179302 190.132268 C 281.179302 177.349065 294.894145 177.349065 294.894145 164.563909 " transform="matrix(2,0,0,2,-12.11251,1.919058)"/>
<path style="fill:none;stroke-width:0.801759;stroke-linecap:butt;stroke-linejoin:miter;stroke:rgb(90%,90%,90%);stroke-opacity:1;stroke-miterlimit:10;" d="M 294.894145 190.132268 C 294.894145 183.73969 291.466411 180.544377 289.06602 178.306096 " transform="matrix(2,0,0,2,-12.11251,1.919058)"/>
<path style="fill:none;stroke-width:0.801759;stroke-linecap:butt;stroke-linejoin:miter;stroke:rgb(90%,90%,90%);stroke-opacity:1;stroke-miterlimit:10;" d="M 287.007427 176.39008 C 284.607036 174.151799 281.179302 170.956487 281.179302 164.563909 " transform="matrix(2,0,0,2,-12.11251,1.919058)"/>
<path style="fill:none;stroke-width:0.801759;stroke-linecap:butt;stroke-linejoin:miter;stroke:rgb(90%,90%,90%);stroke-opacity:1;stroke-miterlimit:10;" d="M 308.610942 190.132268 L 308.610942 164.563909 " transform="matrix(2,0,0,2,-12.11251,1.919058)"/>
<path style="fill:none;stroke-width:0.801759;stroke-linecap:butt;stroke-linejoin:miter;stroke:rgb(90%,90%,90%);stroke-opacity:1;stroke-miterlimit:10;" d="M 322.325786 190.132268 L 322.325786 164.563909 " transform="matrix(2,0,0,2,-12.11251,1.919058)"/>
<path style="fill:none;stroke-width:0.801759;stroke-linecap:butt;stroke-linejoin:miter;stroke:rgb(90%,90%,90%);stroke-opacity:1;stroke-miterlimit:10;" d="M 171.450786 215.643987 L 171.450786 190.075627 " transform="matrix(2,0,0,2,-12.11251,1.919058)"/>
<path style="fill:none;stroke-width:0.801759;stroke-linecap:butt;stroke-linejoin:miter;stroke:rgb(90%,90%,90%);stroke-opacity:1;stroke-miterlimit:10;" d="M 185.16563 215.643987 L 185.16563 190.075627 " transform="matrix(2,0,0,2,-12.11251,1.919058)"/>
<path style="fill:none;stroke-width:0.801759;stroke-linecap:butt;stroke-linejoin:miter;stroke:rgb(90%,90%,90%);stroke-opacity:1;stroke-miterlimit:10;" d="M 198.882427 215.643987 L 198.882427 190.075627 " transform="matrix(2,0,0,2,-12.11251,1.919058)"/>
<path style="fill:none;stroke-width:0.801759;stroke-linecap:butt;stroke-linejoin:miter;stroke:rgb(90%,90%,90%);stroke-opacity:1;stroke-miterlimit:10;" d="M 212.599224 215.643987 C 212.599224 202.860784 226.314067 202.860784 226.314067 190.075627 " transform="matrix(2,0,0,2,-12.11251,1.919058)"/>
<path style="fill:none;stroke-width:0.801759;stroke-linecap:butt;stroke-linejoin:miter;stroke:rgb(90%,90%,90%);stroke-opacity:1;stroke-miterlimit:10;" d="M 226.314067 215.643987 C 226.314067 209.251409 222.886333 206.056096 220.485942 203.819768 " transform="matrix(2,0,0,2,-12.11251,1.919058)"/>
<path style="fill:none;stroke-width:0.801759;stroke-linecap:butt;stroke-linejoin:miter;stroke:rgb(90%,90%,90%);stroke-opacity:1;stroke-miterlimit:10;" d="M 218.427349 201.901799 C 216.026958 199.663518 212.599224 196.468205 212.599224 190.075627 " transform="matrix(2,0,0,2,-12.11251,1.919058)"/>
<path style="fill:none;stroke-width:0.801759;stroke-linecap:butt;stroke-linejoin:miter;stroke:rgb(90%,90%,90%);stroke-opacity:1;stroke-miterlimit:10;" d="M 240.030864 215.643987 C 240.030864 209.251409 243.458599 206.056096 245.858989 203.819768 " transform="matrix(2,0,0,2,-12.11251,1.919058)"/>
<path style="fill:none;stroke-width:0.801759;stroke-linecap:butt;stroke-linejoin:miter;stroke:rgb(90%,90%,90%);stroke-opacity:1;stroke-miterlimit:10;" d="M 247.917583 201.901799 C 250.317974 199.663518 253.745708 196.468205 253.745708 190.075627 " transform="matrix(2,0,0,2,-12.11251,1.919058)"/>
<path style="fill:none;stroke-width:0.801759;stroke-linecap:butt;stroke-linejoin:miter;stroke:rgb(90%,90%,90%);stroke-opacity:1;stroke-miterlimit:10;" d="M 253.745708 215.643987 C 253.745708 202.860784 240.030864 202.860784 240.030864 190.075627 " transform="matrix(2,0,0,2,-12.11251,1.919058)"/>
<path style="fill:none;stroke-width:0.801759;stroke-linecap:butt;stroke-linejoin:miter;stroke:rgb(90%,90%,90%);stroke-opacity:1;stroke-miterlimit:10;" d="M 267.462505 215.643987 C 267.462505 209.251409 270.892192 206.056096 273.292583 203.819768 " transform="matrix(2,0,0,2,-12.11251,1.919058)"/>
<path style="fill:none;stroke-width:0.801759;stroke-linecap:butt;stroke-linejoin:miter;stroke:rgb(90%,90%,90%);stroke-opacity:1;stroke-miterlimit:10;" d="M 275.349224 201.901799 C 277.749614 199.663518 281.179302 196.468205 281.179302 190.075627 " transform="matrix(2,0,0,2,-12.11251,1.919058)"/>
<path style="fill:none;stroke-width:0.801759;stroke-linecap:butt;stroke-linejoin:miter;stroke:rgb(90%,90%,90%);stroke-opacity:1;stroke-miterlimit:10;" d="M 281.179302 215.643987 C 281.179302 202.860784 267.462505 202.860784 267.462505 190.075627 " transform="matrix(2,0,0,2,-12.11251,1.919058)"/>
<path style="fill:none;stroke-width:0.801759;stroke-linecap:butt;stroke-linejoin:miter;stroke:rgb(90%,90%,90%);stroke-opacity:1;stroke-miterlimit:10;" d="M 294.894145 215.643987 L 294.894145 190.075627 " transform="matrix(2,0,0,2,-12.11251,1.919058)"/>
<path style="fill:none;stroke-width:0.801759;stroke-linecap:butt;stroke-linejoin:miter;stroke:rgb(90%,90%,90%);stroke-opacity:1;stroke-miterlimit:10;" d="M 308.610942 215.643987 C 308.610942 209.251409 312.038677 206.056096 314.439067 203.819768 " transform="matrix(2,0,0,2,-12.11251,1.919058)"/>
<path style="fill:none;stroke-width:0.801759;stroke-linecap:butt;stroke-linejoin:miter;stroke:rgb(90%,90%,90%);stroke-opacity:1;stroke-miterlimit:10;" d="M 316.497661 201.901799 C 318.898052 199.663518 322.325786 196.468205 322.325786 190.075627 " transform="matrix(2,0,0,2,-12.11251,1.919058)"/>
<path style="fill:none;stroke-width:0.801759;stroke-linecap:butt;stroke-linejoin:miter;stroke:rgb(90%,90%,90%);stroke-opacity:1;stroke-miterlimit:10;" d="M 322.325786 215.643987 C 322.325786 202.860784 308.610942 202.860784 308.610942 190.075627 " transform="matrix(2,0,0,2,-12.11251,1.919058)"/>
<path style="fill:none;stroke-width:0.801759;stroke-linecap:butt;stroke-linejoin:miter;stroke:rgb(90%,90%,90%);stroke-opacity:1;stroke-miterlimit:10;" d="M 171.450786 241.155705 L 171.450786 215.587346 " transform="matrix(2,0,0,2,-12.11251,1.919058)"/>
<path style="fill:none;stroke-width:0.801759;stroke-linecap:butt;stroke-linejoin:miter;stroke:rgb(90%,90%,90%);stroke-opacity:1;stroke-miterlimit:10;" d="M 185.16563 241.155705 L 185.16563 215.587346 " transform="matrix(2,0,0,2,-12.11251,1.919058)"/>
<path style="fill:none;stroke-width:0.801759;stroke-linecap:butt;stroke-linejoin:miter;stroke:rgb(90%,90%,90%);stroke-opacity:1;stroke-miterlimit:10;" d="M 198.882427 241.155705 C 198.882427 228.372502 212.599224 228.372502 212.599224 215.587346 " transform="matrix(2,0,0,2,-12.11251,1.919058)"/>
<path style="fill:none;stroke-width:0.801759;stroke-linecap:butt;stroke-linejoin:miter;stroke:rgb(90%,90%,90%);stroke-opacity:1;stroke-miterlimit:10;" d="M 212.599224 241.155705 C 212.599224 234.763127 209.169536 231.567815 206.769145 229.331487 " transform="matrix(2,0,0,2,-12.11251,1.919058)"/>
<path style="fill:none;stroke-width:0.801759;stroke-linecap:butt;stroke-linejoin:miter;stroke:rgb(90%,90%,90%);stroke-opacity:1;stroke-miterlimit:10;" d="M 204.712505 227.413518 C 202.312114 225.175237 198.882427 221.979924 198.882427 215.587346 " transform="matrix(2,0,0,2,-12.11251,1.919058)"/>
<path style="fill:none;stroke-width:0.801759;stroke-linecap:butt;stroke-linejoin:miter;stroke:rgb(90%,90%,90%);stroke-opacity:1;stroke-miterlimit:10;" d="M 226.314067 241.155705 L 226.314067 215.587346 " transform="matrix(2,0,0,2,-12.11251,1.919058)"/>
<path style="fill:none;stroke-width:0.801759;stroke-linecap:butt;stroke-linejoin:miter;stroke:rgb(90%,90%,90%);stroke-opacity:1;stroke-miterlimit:10;" d="M 240.030864 241.155705 C 240.030864 228.372502 253.745708 228.372502 253.745708 215.587346 " transform="matrix(2,0,0,2,-12.11251,1.919058)"/>
<path style="fill:none;stroke-width:0.801759;stroke-linecap:butt;stroke-linejoin:miter;stroke:rgb(90%,90%,90%);stroke-opacity:1;stroke-miterlimit:10;" d="M 253.745708 241.155705 C 253.745708 234.763127 250.317974 231.567815 247.917583 229.331487 " transform="matrix(2,0,0,2,-12.11251,1.919058)"/>
<path style="fill:none;stroke-width:0.801759;stroke-linecap:butt;stroke-linejoin:miter;stroke:rgb(90%,90%,90%);stroke-opacity:1;stroke-miterlimit:10;" d="M 245.858989 227.413518 C 243.458599 225.175237 240.030864 221.979924 240.030864 215.587346 " transform="matrix(2,0,0,2,-12.11251,1.919058)"/>
<path style="fill:none;stroke-width:0.801759;stroke-linecap:butt;stroke-linejoin:miter;stroke:rgb(90%,90%,90%);stroke-opacity:1;stroke-miterlimit:10;" d="M 267.462505 241.155705 L 267.462505 215.587346 " transform="matrix(2,0,0,2,-12.11251,1.919058)"/>
<path style="fill:none;stroke-width:0.801759;stroke-linecap:butt;stroke-linejoin:miter;stroke:rgb(90%,90%,90%);stroke-opacity:1;stroke-miterlimit:10;" d="M 281.179302 241.155705 C 281.179302 228.372502 294.894145 228.372502 294.894145 215.587346 " transform="matrix(2,0,0,2,-12.11251,1.919058)"/>
<path style="fill:none;stroke-width:0.801759;stroke-linecap:butt;stroke-linejoin:miter;stroke:rgb(90%,90%,90%);stroke-opacity:1;stroke-miterlimit:10;" d="M 294.894145 241.155705 C 294.894145 234.763127 291.466411 231.567815 289.06602 229.331487 " transform="matrix(2,0,0,2,-12.11251,1.919058)"/>
<path style="fill:none;stroke-width:0.801759;stroke-linecap:butt;stroke-linejoin:miter;stroke:rgb(90%,90%,90%);stroke-opacity:1;stroke-miterlimit:10;" d="M 287.007427 227.413518 C 284.607036 225.175237 281.179302 221.979924 281.179302 215.587346 " transform="matrix(2,0,0,2,-12.11251,1.919058)"/>
<path style="fill:none;stroke-width:0.801759;stroke-linecap:butt;stroke-linejoin:miter;stroke:rgb(90%,90%,90%);stroke-opacity:1;stroke-miterlimit:10;" d="M 308.610942 241.155705 C 308.610942 234.763127 312.038677 231.567815 314.439067 229.331487 " transform="matrix(2,0,0,2,-12.11251,1.919058)"/>
<path style="fill:none;stroke-width:0.801759;stroke-linecap:butt;stroke-linejoin:miter;stroke:rgb(90%,90%,90%);stroke-opacity:1;stroke-miterlimit:10;" d="M 316.497661 227.413518 C 318.898052 225.175237 322.325786 221.979924 322.325786 215.587346 " transform="matrix(2,0,0,2,-12.11251,1.919058)"/>
<path style="fill:none;stroke-width:0.801759;stroke-linecap:butt;stroke-linejoin:miter;stroke:rgb(90%,90%,90%);stroke-opacity:1;stroke-miterlimit:10;" d="M 322.325786 241.155705 C 322.325786 228.372502 308.610942 228.372502 308.610942 215.587346 " transform="matrix(2,0,0,2,-12.11251,1.919058)"/>
<path style="fill:none;stroke-width:0.801759;stroke-linecap:butt;stroke-linejoin:miter;stroke:rgb(90%,90%,90%);stroke-opacity:1;stroke-miterlimit:10;" d="M 171.450786 266.667424 C 171.450786 260.274846 174.87852 257.079534 177.278911 254.843205 " transform="matrix(2,0,0,2,-12.11251,1.919058)"/>
<path style="fill:none;stroke-width:0.801759;stroke-linecap:butt;stroke-linejoin:miter;stroke:rgb(90%,90%,90%);stroke-opacity:1;stroke-miterlimit:10;" d="M 179.337505 252.925237 C 181.737895 250.686955 185.16563 247.491643 185.16563 241.099065 " transform="matrix(2,0,0,2,-12.11251,1.919058)"/>
<path style="fill:none;stroke-width:0.801759;stroke-linecap:butt;stroke-linejoin:miter;stroke:rgb(90%,90%,90%);stroke-opacity:1;stroke-miterlimit:10;" d="M 185.16563 266.667424 C 185.16563 253.884221 171.450786 253.884221 171.450786 241.099065 " transform="matrix(2,0,0,2,-12.11251,1.919058)"/>
<path style="fill:none;stroke-width:0.801759;stroke-linecap:butt;stroke-linejoin:miter;stroke:rgb(90%,90%,90%);stroke-opacity:1;stroke-miterlimit:10;" d="M 198.882427 266.667424 C 198.882427 253.884221 212.599224 253.884221 212.599224 241.099065 " transform="matrix(2,0,0,2,-12.11251,1.919058)"/>
<path style="fill:none;stroke-width:0.801759;stroke-linecap:butt;stroke-linejoin:miter;stroke:rgb(90%,90%,90%);stroke-opacity:1;stroke-miterlimit:10;" d="M 212.599224 266.667424 C 212.599224 260.274846 209.169536 257.079534 206.769145 254.843205 " transform="matrix(2,0,0,2,-12.11251,1.919058)"/>
<path style="fill:none;stroke-width:0.801759;stroke-linecap:butt;stroke-linejoin:miter;stroke:rgb(90%,90%,90%);stroke-opacity:1;stroke-miterlimit:10;" d="M 204.712505 252.925237 C 202.312114 250.686955 198.882427 247.491643 198.882427 241.099065 " transform="matrix(2,0,0,2,-12.11251,1.919058)"/>
<path style="fill:none;stroke-width:0.801759;stroke-linecap:butt;stroke-linejoin:miter;stroke:rgb(90%,90%,90%);stroke-opacity:1;stroke-miterlimit:10;" d="M 226.314067 266.667424 L 226.314067 241.099065 " transform="matrix(2,0,0,2,-12.11251,1.919058)"/>
<path style="fill:none;stroke-width:0.801759;stroke-linecap:butt;stroke-linejoin:miter;stroke:rgb(90%,90%,90%);stroke-opacity:1;stroke-miterlimit:10;" d="M 240.030864 266.667424 C 240.030864 253.884221 253.745708 253.884221 253.745708 241.099065 " transform="matrix(2,0,0,2,-12.11251,1.919058)"/>
<path style="fill:none;stroke-width:0.801759;stroke-linecap:butt;stroke-linejoin:miter;stroke:rgb(90%,90%,90%);stroke-opacity:1;stroke-miterlimit:10;" d="M 253.745708 266.667424 C 253.745708 260.274846 250.317974 257.079534 247.917583 254.843205 " transform="matrix(2,0,0,2,-12.11251,1.919058)"/>
<path style="fill:none;stroke-width:0.801759;stroke-linecap:butt;stroke-linejoin:miter;stroke:rgb(90%,90%,90%);stroke-opacity:1;stroke-miterlimit:10;" d="M 245.858989 252.925237 C 243.458599 250.686955 240.030864 247.491643 240.030864 241.099065 " transform="matrix(2,0,0,2,-12.11251,1.919058)"/>
<path style="fill:none;stroke-width:0.801759;stroke-linecap:butt;stroke-linejoin:miter;stroke:rgb(90%,90%,90%);stroke-opacity:1;stroke-miterlimit:10;" d="M 267.462505 266.667424 L 267.462505 241.099065 " transform="matrix(2,0,0,2,-12.11251,1.919058)"/>
<path style="fill:none;stroke-width:0.801759;stroke-linecap:butt;stroke-linejoin:miter;stroke:rgb(90%,90%,90%);stroke-opacity:1;stroke-miterlimit:10;" d="M 281.179302 266.667424 L 281.179302 241.099065 " transform="matrix(2,0,0,2,-12.11251,1.919058)"/>
<path style="fill:none;stroke-width:0.801759;stroke-linecap:butt;stroke-linejoin:miter;stroke:rgb(90%,90%,90%);stroke-opacity:1;stroke-miterlimit:10;" d="M 294.894145 266.667424 C 294.894145 260.274846 298.323833 257.079534 300.724224 254.843205 " transform="matrix(2,0,0,2,-12.11251,1.919058)"/>
<path style="fill:none;stroke-width:0.801759;stroke-linecap:butt;stroke-linejoin:miter;stroke:rgb(90%,90%,90%);stroke-opacity:1;stroke-miterlimit:10;" d="M 302.780864 252.925237 C 305.181255 250.686955 308.610942 247.491643 308.610942 241.099065 " transform="matrix(2,0,0,2,-12.11251,1.919058)"/>
<path style="fill:none;stroke-width:0.801759;stroke-linecap:butt;stroke-linejoin:miter;stroke:rgb(90%,90%,90%);stroke-opacity:1;stroke-miterlimit:10;" d="M 308.610942 266.667424 C 308.610942 253.884221 294.894145 253.884221 294.894145 241.099065 " transform="matrix(2,0,0,2,-12.11251,1.919058)"/>
<path style="fill:none;stroke-width:0.801759;stroke-linecap:butt;stroke-linejoin:miter;stroke:rgb(90%,90%,90%);stroke-opacity:1;stroke-miterlimit:10;" d="M 322.325786 266.667424 L 322.325786 241.099065 " transform="matrix(2,0,0,2,-12.11251,1.919058)"/>
<path style="fill:none;stroke-width:0.801759;stroke-linecap:butt;stroke-linejoin:miter;stroke:rgb(90%,90%,90%);stroke-opacity:1;stroke-miterlimit:10;" d="M 171.450786 292.179143 L 171.450786 266.610784 " transform="matrix(2,0,0,2,-12.11251,1.919058)"/>
<path style="fill:none;stroke-width:0.801759;stroke-linecap:butt;stroke-linejoin:miter;stroke:rgb(90%,90%,90%);stroke-opacity:1;stroke-miterlimit:10;" d="M 185.16563 292.179143 C 185.16563 285.788518 188.595317 282.591252 190.995708 280.354924 " transform="matrix(2,0,0,2,-12.11251,1.919058)"/>
<path style="fill:none;stroke-width:0.801759;stroke-linecap:butt;stroke-linejoin:miter;stroke:rgb(90%,90%,90%);stroke-opacity:1;stroke-miterlimit:10;" d="M 193.052349 278.436955 C 195.452739 276.198674 198.882427 273.003362 198.882427 266.610784 " transform="matrix(2,0,0,2,-12.11251,1.919058)"/>
<path style="fill:none;stroke-width:0.801759;stroke-linecap:butt;stroke-linejoin:miter;stroke:rgb(90%,90%,90%);stroke-opacity:1;stroke-miterlimit:10;" d="M 198.882427 292.179143 C 198.882427 279.39594 185.16563 279.39594 185.16563 266.610784 " transform="matrix(2,0,0,2,-12.11251,1.919058)"/>
<path style="fill:none;stroke-width:0.801759;stroke-linecap:butt;stroke-linejoin:miter;stroke:rgb(90%,90%,90%);stroke-opacity:1;stroke-miterlimit:10;" d="M 212.599224 292.179143 L 212.599224 266.610784 " transform="matrix(2,0,0,2,-12.11251,1.919058)"/>
<path style="fill:none;stroke-width:0.801759;stroke-linecap:butt;stroke-linejoin:miter;stroke:rgb(90%,90%,90%);stroke-opacity:1;stroke-miterlimit:10;" d="M 226.314067 292.179143 C 226.314067 285.788518 229.743755 282.591252 232.144145 280.354924 " transform="matrix(2,0,0,2,-12.11251,1.919058)"/>
<path style="fill:none;stroke-width:0.801759;stroke-linecap:butt;stroke-linejoin:miter;stroke:rgb(90%,90%,90%);stroke-opacity:1;stroke-miterlimit:10;" d="M 234.200786 278.436955 C 236.601177 276.198674 240.030864 273.003362 240.030864 266.610784 " transform="matrix(2,0,0,2,-12.11251,1.919058)"/>
<path style="fill:none;stroke-width:0.801759;stroke-linecap:butt;stroke-linejoin:miter;stroke:rgb(90%,90%,90%);stroke-opacity:1;stroke-miterlimit:10;" d="M 240.030864 292.179143 C 240.030864 279.39594 226.314067 279.39594 226.314067 266.610784 " transform="matrix(2,0,0,2,-12.11251,1.919058)"/>
<path style="fill:none;stroke-width:0.801759;stroke-linecap:butt;stroke-linejoin:miter;stroke:rgb(90%,90%,90%);stroke-opacity:1;stroke-miterlimit:10;" d="M 253.745708 292.179143 L 253.745708 266.610784 " transform="matrix(2,0,0,2,-12.11251,1.919058)"/>
<path style="fill:none;stroke-width:0.801759;stroke-linecap:butt;stroke-linejoin:miter;stroke:rgb(90%,90%,90%);stroke-opacity:1;stroke-miterlimit:10;" d="M 267.462505 292.179143 C 267.462505 279.39594 281.179302 279.39594 281.179302 266.610784 " transform="matrix(2,0,0,2,-12.11251,1.919058)"/>
<path style="fill:none;stroke-width:0.801759;stroke-linecap:butt;stroke-linejoin:miter;stroke:rgb(90%,90%,90%);stroke-opacity:1;stroke-miterlimit:10;" d="M 281.179302 292.179143 C 281.179302 285.788518 277.749614 282.591252 275.349224 280.354924 " transform="matrix(2,0,0,2,-12.11251,1.919058)"/>
<path style="fill:none;stroke-width:0.801759;stroke-linecap:butt;stroke-linejoin:miter;stroke:rgb(90%,90%,90%);stroke-opacity:1;stroke-miterlimit:10;" d="M 273.292583 278.436955 C 270.892192 276.198674 267.462505 273.003362 267.462505 266.610784 " transform="matrix(2,0,0,2,-12.11251,1.919058)"/>
<path style="fill:none;stroke-width:0.801759;stroke-linecap:butt;stroke-linejoin:miter;stroke:rgb(90%,90%,90%);stroke-opacity:1;stroke-miterlimit:10;" d="M 294.894145 292.179143 L 294.894145 266.610784 " transform="matrix(2,0,0,2,-12.11251,1.919058)"/>
<path style="fill:none;stroke-width:0.801759;stroke-linecap:butt;stroke-linejoin:miter;stroke:rgb(90%,90%,90%);stroke-opacity:1;stroke-miterlimit:10;" d="M 308.610942 292.179143 C 308.610942 279.39594 322.325786 279.39594 322.325786 266.610784 " transform="matrix(2,0,0,2,-12.11251,1.919058)"/>
<path style="fill:none;stroke-width:0.801759;stroke-linecap:butt;stroke-linejoin:miter;stroke:rgb(90%,90%,90%);stroke-opacity:1;stroke-miterlimit:10;" d="M 322.325786 292.179143 C 322.325786 285.788518 318.898052 282.591252 316.497661 280.354924 " transform="matrix(2,0,0,2,-12.11251,1.919058)"/>
<path style="fill:none;stroke-width:0.801759;stroke-linecap:butt;stroke-linejoin:miter;stroke:rgb(90%,90%,90%);stroke-opacity:1;stroke-miterlimit:10;" d="M 314.439067 278.436955 C 312.038677 276.198674 308.610942 273.003362 308.610942 266.610784 " transform="matrix(2,0,0,2,-12.11251,1.919058)"/>
<path style="fill:none;stroke-width:0.801759;stroke-linecap:butt;stroke-linejoin:miter;stroke:rgb(90%,90%,90%);stroke-opacity:1;stroke-miterlimit:10;" d="M 171.450786 317.690862 L 171.450786 292.122502 " transform="matrix(2,0,0,2,-12.11251,1.919058)"/>
<path style="fill:none;stroke-width:0.801759;stroke-linecap:butt;stroke-linejoin:miter;stroke:rgb(90%,90%,90%);stroke-opacity:1;stroke-miterlimit:10;" d="M 185.16563 317.690862 L 185.16563 292.122502 " transform="matrix(2,0,0,2,-12.11251,1.919058)"/>
<path style="fill:none;stroke-width:0.801759;stroke-linecap:butt;stroke-linejoin:miter;stroke:rgb(90%,90%,90%);stroke-opacity:1;stroke-miterlimit:10;" d="M 198.882427 317.690862 C 198.882427 311.300237 202.312114 308.102971 204.712505 305.866643 " transform="matrix(2,0,0,2,-12.11251,1.919058)"/>
<path style="fill:none;stroke-width:0.801759;stroke-linecap:butt;stroke-linejoin:miter;stroke:rgb(90%,90%,90%);stroke-opacity:1;stroke-miterlimit:10;" d="M 206.769145 303.948674 C 209.169536 301.710393 212.599224 298.51508 212.599224 292.122502 " transform="matrix(2,0,0,2,-12.11251,1.919058)"/>
<path style="fill:none;stroke-width:0.801759;stroke-linecap:butt;stroke-linejoin:miter;stroke:rgb(90%,90%,90%);stroke-opacity:1;stroke-miterlimit:10;" d="M 212.599224 317.690862 C 212.599224 304.907659 198.882427 304.907659 198.882427 292.122502 " transform="matrix(2,0,0,2,-12.11251,1.919058)"/>
<path style="fill:none;stroke-width:0.801759;stroke-linecap:butt;stroke-linejoin:miter;stroke:rgb(90%,90%,90%);stroke-opacity:1;stroke-miterlimit:10;" d="M 226.314067 317.690862 L 226.314067 292.122502 " transform="matrix(2,0,0,2,-12.11251,1.919058)"/>
<path style="fill:none;stroke-width:0.801759;stroke-linecap:butt;stroke-linejoin:miter;stroke:rgb(90%,90%,90%);stroke-opacity:1;stroke-miterlimit:10;" d="M 240.030864 317.690862 L 240.030864 292.122502 " transform="matrix(2,0,0,2,-12.11251,1.919058)"/>
<path style="fill:none;stroke-width:0.801759;stroke-linecap:butt;stroke-linejoin:miter;stroke:rgb(90%,90%,90%);stroke-opacity:1;stroke-miterlimit:10;" d="M 253.745708 317.690862 C 253.745708 311.300237 257.175395 308.102971 259.575786 305.866643 " transform="matrix(2,0,0,2,-12.11251,1.919058)"/>
<path style="fill:none;stroke-width:0.801759;stroke-linecap:butt;stroke-linejoin:miter;stroke:rgb(90%,90%,90%);stroke-opacity:1;stroke-miterlimit:10;" d="M 261.632427 303.948674 C 264.032817 301.710393 267.462505 298.51508 267.462505 292.122502 " transform="matrix(2,0,0,2,-12.11251,1.919058)"/>
<path style="fill:none;stroke-width:0.801759;stroke-linecap:butt;stroke-linejoin:miter;stroke:rgb(90%,90%,90%);stroke-opacity:1;stroke-miterlimit:10;" d="M 267.462505 317.690862 C 267.462505 304.907659 253.745708 304.907659 253.745708 292.122502 " transform="matrix(2,0,0,2,-12.11251,1.919058)"/>
<path style="fill:none;stroke-width:0.801759;stroke-linecap:butt;stroke-linejoin:miter;stroke:rgb(90%,90%,90%);stroke-opacity:1;stroke-miterlimit:10;" d="M 281.179302 317.690862 C 281.179302 311.300237 284.607036 308.102971 287.007427 305.866643 " transform="matrix(2,0,0,2,-12.11251,1.919058)"/>
<path style="fill:none;stroke-width:0.801759;stroke-linecap:butt;stroke-linejoin:miter;stroke:rgb(90%,90%,90%);stroke-opacity:1;stroke-miterlimit:10;" d="M 289.06602 303.948674 C 291.466411 301.710393 294.894145 298.51508 294.894145 292.122502 " transform="matrix(2,0,0,2,-12.11251,1.919058)"/>
<path style="fill:none;stroke-width:0.801759;stroke-linecap:butt;stroke-linejoin:miter;stroke:rgb(90%,90%,90%);stroke-opacity:1;stroke-miterlimit:10;" d="M 294.894145 317.690862 C 294.894145 304.907659 281.179302 304.907659 281.179302 292.122502 " transform="matrix(2,0,0,2,-12.11251,1.919058)"/>
<path style="fill:none;stroke-width:0.801759;stroke-linecap:butt;stroke-linejoin:miter;stroke:rgb(90%,90%,90%);stroke-opacity:1;stroke-miterlimit:10;" d="M 308.610942 317.690862 C 308.610942 311.300237 312.038677 308.102971 314.439067 305.866643 " transform="matrix(2,0,0,2,-12.11251,1.919058)"/>
<path style="fill:none;stroke-width:0.801759;stroke-linecap:butt;stroke-linejoin:miter;stroke:rgb(90%,90%,90%);stroke-opacity:1;stroke-miterlimit:10;" d="M 316.497661 303.948674 C 318.898052 301.710393 322.325786 298.51508 322.325786 292.122502 " transform="matrix(2,0,0,2,-12.11251,1.919058)"/>
<path style="fill:none;stroke-width:0.801759;stroke-linecap:butt;stroke-linejoin:miter;stroke:rgb(90%,90%,90%);stroke-opacity:1;stroke-miterlimit:10;" d="M 322.325786 317.690862 C 322.325786 304.907659 308.610942 304.907659 308.610942 292.122502 " transform="matrix(2,0,0,2,-12.11251,1.919058)"/>
<path style="fill:none;stroke-width:0.801759;stroke-linecap:butt;stroke-linejoin:miter;stroke:rgb(90%,90%,90%);stroke-opacity:1;stroke-miterlimit:10;" d="M 6.858989 317.634221 C 6.858989 404.749455 77.47813 475.368596 164.591411 475.368596 C 251.706645 475.368596 322.325786 404.749455 322.325786 317.634221 " transform="matrix(2,0,0,2,-12.11251,1.919058)"/>
<path style="fill:none;stroke-width:0.801759;stroke-linecap:butt;stroke-linejoin:miter;stroke:rgb(90%,90%,90%);stroke-opacity:1;stroke-miterlimit:10;" d="M 20.573833 317.634221 C 20.573833 397.173284 85.052349 461.653752 164.591411 461.653752 C 244.130474 461.653752 308.610942 397.173284 308.610942 317.634221 " transform="matrix(2,0,0,2,-12.11251,1.919058)"/>
<path style="fill:none;stroke-width:0.801759;stroke-linecap:butt;stroke-linejoin:miter;stroke:rgb(90%,90%,90%);stroke-opacity:1;stroke-miterlimit:10;" d="M 34.29063 317.634221 C 34.29063 389.599065 92.62852 447.936955 164.591411 447.936955 C 236.556255 447.936955 294.894145 389.599065 294.894145 317.634221 " transform="matrix(2,0,0,2,-12.11251,1.919058)"/>
<path style="fill:none;stroke-width:0.801759;stroke-linecap:butt;stroke-linejoin:miter;stroke:rgb(90%,90%,90%);stroke-opacity:1;stroke-miterlimit:10;" d="M 48.005474 317.634221 C 48.005474 382.022893 100.202739 434.220159 164.591411 434.220159 C 228.982036 434.220159 281.179302 382.022893 281.179302 317.634221 " transform="matrix(2,0,0,2,-12.11251,1.919058)"/>
<path style="fill:none;stroke-width:0.801759;stroke-linecap:butt;stroke-linejoin:miter;stroke:rgb(90%,90%,90%);stroke-opacity:1;stroke-miterlimit:10;" d="M 61.72227 317.634221 C 61.72227 374.448674 107.778911 420.505315 164.591411 420.505315 C 221.405864 420.505315 267.462505 374.448674 267.462505 317.634221 " transform="matrix(2,0,0,2,-12.11251,1.919058)"/>
<path style="fill:none;stroke-width:0.801759;stroke-linecap:butt;stroke-linejoin:miter;stroke:rgb(90%,90%,90%);stroke-opacity:1;stroke-miterlimit:10;" d="M 75.439067 317.634221 C 75.439067 366.872502 115.35313 406.788518 164.591411 406.788518 C 213.831645 406.788518 253.745708 366.872502 253.745708 317.634221 " transform="matrix(2,0,0,2,-12.11251,1.919058)"/>
<path style="fill:none;stroke-width:0.801759;stroke-linecap:butt;stroke-linejoin:miter;stroke:rgb(90%,90%,90%);stroke-opacity:1;stroke-miterlimit:10;" d="M 89.153911 317.634221 C 89.153911 359.298284 122.929302 393.073674 164.591411 393.073674 C 206.255474 393.073674 240.030864 359.298284 240.030864 317.634221 " transform="matrix(2,0,0,2,-12.11251,1.919058)"/>
<path style="fill:none;stroke-width:0.801759;stroke-linecap:butt;stroke-linejoin:miter;stroke:rgb(90%,90%,90%);stroke-opacity:1;stroke-miterlimit:10;" d="M 102.870708 317.634221 C 102.870708 351.722112 130.50352 379.356877 164.591411 379.356877 C 198.681255 379.356877 226.314067 351.722112 226.314067 317.634221 " transform="matrix(2,0,0,2,-12.11251,1.919058)"/>
<path style="fill:none;stroke-width:0.801759;stroke-linecap:butt;stroke-linejoin:miter;stroke:rgb(90%,90%,90%);stroke-opacity:1;stroke-miterlimit:10;" d="M 116.585552 317.634221 C 116.585552 344.147893 138.079692 365.64008 164.591411 365.64008 C 191.105083 365.64008 212.599224 344.147893 212.599224 317.634221 " transform="matrix(2,0,0,2,-12.11251,1.919058)"/>
<path style="fill:none;stroke-width:0.801759;stroke-linecap:butt;stroke-linejoin:miter;stroke:rgb(90%,90%,90%);stroke-opacity:1;stroke-miterlimit:10;" d="M 130.302349 317.634221 C 130.302349 336.573674 145.653911 351.925237 164.591411 351.925237 C 183.530864 351.925237 198.882427 336.573674 198.882427 317.634221 " transform="matrix(2,0,0,2,-12.11251,1.919058)"/>
<path style="fill:none;stroke-width:0.801759;stroke-linecap:butt;stroke-linejoin:miter;stroke:rgb(90%,90%,90%);stroke-opacity:1;stroke-miterlimit:10;" d="M 144.019145 317.634221 C 144.019145 328.997502 153.230083 338.20844 164.591411 338.20844 C 175.954692 338.20844 185.16563 328.997502 185.16563 317.634221 " transform="matrix(2,0,0,2,-12.11251,1.919058)"/>
<path style="fill:none;stroke-width:0.801759;stroke-linecap:butt;stroke-linejoin:miter;stroke:rgb(90%,90%,90%);stroke-opacity:1;stroke-miterlimit:10;" d="M 157.733989 317.634221 C 157.733989 321.423284 160.804302 324.493596 164.591411 324.493596 C 168.380474 324.493596 171.450786 321.423284 171.450786 317.634221 " transform="matrix(2,0,0,2,-12.11251,1.919058)"/>
</g>
</svg>
