<?xml version="1.0" encoding="UTF-8"?>
<svg xmlns="http://www.w3.org/2000/svg" xmlns:xlink="http://www.w3.org/1999/xlink" width="384.537401pt" height="170.692126pt" viewBox="0 0 384.537401 170.692126" version="1.1">
<g id="surface153">
<path style="fill:none;stroke-width:0.566929;stroke-linecap:butt;stroke-linejoin:miter;stroke:rgb(0%,0%,0%);stroke-opacity:1;stroke-miterlimit:10;" d="M 21.260688 -14.145688 C 21.260688 -28.34686 63.78022 -28.34686 63.78022 -42.548031 " transform="matrix(2,0,0,2,-42.236221,85.596063)"/>
<path style="fill:none;stroke-width:0.566929;stroke-linecap:butt;stroke-linejoin:miter;stroke:rgb(0%,0%,0%);stroke-opacity:1;stroke-miterlimit:10;" d="M 63.78022 -14.145688 C 63.78022 -21.245297 53.14936 -24.796078 44.645454 -27.635922 " transform="matrix(2,0,0,2,-42.236221,85.596063)"/>
<path style="fill:none;stroke-width:0.566929;stroke-linecap:butt;stroke-linejoin:miter;stroke:rgb(0%,0%,0%);stroke-opacity:1;stroke-miterlimit:10;" d="M 40.393501 -29.055844 C 31.889595 -31.897641 21.260688 -35.446469 21.260688 -42.548031 " transform="matrix(2,0,0,2,-42.236221,85.596063)"/>
<path style="fill:none;stroke-width:0.566929;stroke-linecap:butt;stroke-linejoin:miter;stroke:rgb(0%,0%,0%);stroke-opacity:1;stroke-miterlimit:10;" d="M 95.672798 -14.145688 L 95.672798 -42.548031 " transform="matrix(2,0,0,2,-42.236221,85.596063)"/>
<path style="fill:none;stroke-width:0.566929;stroke-linecap:butt;stroke-linejoin:miter;stroke:rgb(0%,0%,0%);stroke-opacity:1;stroke-miterlimit:10;" d="M 21.260688 14.201969 L 21.260688 -14.202328 " transform="matrix(2,0,0,2,-42.236221,85.596063)"/>
<path style="fill:none;stroke-width:0.566929;stroke-linecap:butt;stroke-linejoin:miter;stroke:rgb(0%,0%,0%);stroke-opacity:1;stroke-miterlimit:10;" d="M 63.78022 14.201969 C 63.78022 0.00079667 95.672798 0.00079667 95.672798 -14.202328 " transform="matrix(2,0,0,2,-42.236221,85.596063)"/>
<path style="fill:none;stroke-width:0.566929;stroke-linecap:butt;stroke-linejoin:miter;stroke:rgb(0%,0%,0%);stroke-opacity:1;stroke-miterlimit:10;" d="M 95.672798 14.201969 C 95.672798 7.100406 87.700142 3.549625 81.321235 0.709781 " transform="matrix(2,0,0,2,-42.236221,85.596063)"/>
<path style="fill:none;stroke-width:0.566929;stroke-linecap:butt;stroke-linejoin:miter;stroke:rgb(0%,0%,0%);stroke-opacity:1;stroke-miterlimit:10;" d="M 78.131782 -0.710141 C 71.752876 -3.549985 63.78022 -7.100766 63.78022 -14.202328 " transform="matrix(2,0,0,2,-42.236221,85.596063)"/>
<path style="fill:none;stroke-width:0.566929;stroke-linecap:butt;stroke-linejoin:miter;stroke:rgb(0%,0%,0%);stroke-opacity:1;stroke-miterlimit:10;" d="M 21.260688 42.547672 C 21.260688 28.3465 63.78022 28.3465 63.78022 14.145328 " transform="matrix(2,0,0,2,-42.236221,85.596063)"/>
<path style="fill:none;stroke-width:0.566929;stroke-linecap:butt;stroke-linejoin:miter;stroke:rgb(0%,0%,0%);stroke-opacity:1;stroke-miterlimit:10;" d="M 63.78022 42.547672 C 63.78022 35.448062 53.14936 31.897281 44.645454 29.057437 " transform="matrix(2,0,0,2,-42.236221,85.596063)"/>
<path style="fill:none;stroke-width:0.566929;stroke-linecap:butt;stroke-linejoin:miter;stroke:rgb(0%,0%,0%);stroke-opacity:1;stroke-miterlimit:10;" d="M 40.393501 27.635562 C 31.889595 24.795719 21.260688 21.244937 21.260688 14.145328 " transform="matrix(2,0,0,2,-42.236221,85.596063)"/>
<path style="fill:none;stroke-width:0.566929;stroke-linecap:butt;stroke-linejoin:miter;stroke:rgb(0%,0%,0%);stroke-opacity:1;stroke-miterlimit:10;" d="M 95.672798 42.547672 L 95.672798 14.145328 " transform="matrix(2,0,0,2,-42.236221,85.596063)"/>
<path style=" stroke:none;fill-rule:nonzero;fill:rgb(0%,0%,0%);fill-opacity:1;" d="M 198.097656 82.722656 C 198.410156 82.722656 198.785156 82.722656 198.785156 82.347656 C 198.785156 81.941406 198.410156 81.941406 198.128906 81.941406 L 186.191406 81.941406 C 185.910156 81.941406 185.535156 81.941406 185.535156 82.347656 C 185.535156 82.722656 185.910156 82.722656 186.191406 82.722656 Z M 198.128906 86.597656 C 198.410156 86.597656 198.785156 86.597656 198.785156 86.191406 C 198.785156 85.816406 198.410156 85.816406 198.097656 85.816406 L 186.191406 85.816406 C 185.910156 85.816406 185.535156 85.816406 185.535156 86.191406 C 185.535156 86.597656 185.910156 86.597656 186.191406 86.597656 Z M 198.128906 86.597656 "/>
<path style="fill:none;stroke-width:0.566929;stroke-linecap:butt;stroke-linejoin:miter;stroke:rgb(0%,0%,0%);stroke-opacity:1;stroke-miterlimit:10;" d="M 137.913032 -14.145688 L 137.913032 -42.548031 " transform="matrix(2,0,0,2,-42.236221,85.596063)"/>
<path style="fill:none;stroke-width:0.566929;stroke-linecap:butt;stroke-linejoin:miter;stroke:rgb(0%,0%,0%);stroke-opacity:1;stroke-miterlimit:10;" d="M 170.616157 -14.145688 C 170.616157 -28.34686 213.137642 -28.34686 213.137642 -42.548031 " transform="matrix(2,0,0,2,-42.236221,85.596063)"/>
<path style="fill:none;stroke-width:0.566929;stroke-linecap:butt;stroke-linejoin:miter;stroke:rgb(0%,0%,0%);stroke-opacity:1;stroke-miterlimit:10;" d="M 213.137642 -14.145688 C 213.137642 -21.245297 202.506782 -24.796078 194.002876 -27.635922 " transform="matrix(2,0,0,2,-42.236221,85.596063)"/>
<path style="fill:none;stroke-width:0.566929;stroke-linecap:butt;stroke-linejoin:miter;stroke:rgb(0%,0%,0%);stroke-opacity:1;stroke-miterlimit:10;" d="M 189.750923 -29.055844 C 181.247017 -31.897641 170.616157 -35.446469 170.616157 -42.548031 " transform="matrix(2,0,0,2,-42.236221,85.596063)"/>
<path style="fill:none;stroke-width:0.566929;stroke-linecap:butt;stroke-linejoin:miter;stroke:rgb(0%,0%,0%);stroke-opacity:1;stroke-miterlimit:10;" d="M 137.913032 14.201969 C 137.913032 0.00079667 170.616157 0.00079667 170.616157 -14.202328 " transform="matrix(2,0,0,2,-42.236221,85.596063)"/>
<path style="fill:none;stroke-width:0.566929;stroke-linecap:butt;stroke-linejoin:miter;stroke:rgb(0%,0%,0%);stroke-opacity:1;stroke-miterlimit:10;" d="M 170.616157 14.201969 C 170.616157 7.100406 162.440376 3.549625 155.901313 0.709781 " transform="matrix(2,0,0,2,-42.236221,85.596063)"/>
<path style="fill:none;stroke-width:0.566929;stroke-linecap:butt;stroke-linejoin:miter;stroke:rgb(0%,0%,0%);stroke-opacity:1;stroke-miterlimit:10;" d="M 152.629829 -0.710141 C 146.088813 -3.549985 137.913032 -7.100766 137.913032 -14.202328 " transform="matrix(2,0,0,2,-42.236221,85.596063)"/>
<path style="fill:none;stroke-width:0.566929;stroke-linecap:butt;stroke-linejoin:miter;stroke:rgb(0%,0%,0%);stroke-opacity:1;stroke-miterlimit:10;" d="M 213.137642 14.201969 L 213.137642 -14.202328 " transform="matrix(2,0,0,2,-42.236221,85.596063)"/>
<path style="fill:none;stroke-width:0.566929;stroke-linecap:butt;stroke-linejoin:miter;stroke:rgb(0%,0%,0%);stroke-opacity:1;stroke-miterlimit:10;" d="M 137.913032 42.547672 L 137.913032 14.145328 " transform="matrix(2,0,0,2,-42.236221,85.596063)"/>
<path style="fill:none;stroke-width:0.566929;stroke-linecap:butt;stroke-linejoin:miter;stroke:rgb(0%,0%,0%);stroke-opacity:1;stroke-miterlimit:10;" d="M 170.616157 42.547672 C 170.616157 28.3465 213.137642 28.3465 213.137642 14.145328 " transform="matrix(2,0,0,2,-42.236221,85.596063)"/>
<path style="fill:none;stroke-width:0.566929;stroke-linecap:butt;stroke-linejoin:miter;stroke:rgb(0%,0%,0%);stroke-opacity:1;stroke-miterlimit:10;" d="M 213.137642 42.547672 C 213.137642 35.448062 202.506782 31.897281 194.002876 29.057437 " transform="matrix(2,0,0,2,-42.236221,85.596063)"/>
<path style="fill:none;stroke-width:0.566929;stroke-linecap:butt;stroke-linejoin:miter;stroke:rgb(0%,0%,0%);stroke-opacity:1;stroke-miterlimit:10;" d="M 189.750923 27.635562 C 181.247017 24.795719 170.616157 21.244937 170.616157 14.145328 " transform="matrix(2,0,0,2,-42.236221,85.596063)"/>
</g>
</svg>
