<?xml version="1.0" encoding="UTF-8"?>
<svg xmlns="http://www.w3.org/2000/svg" xmlns:xlink="http://www.w3.org/1999/xlink" width="280pt" height="372pt" viewBox="0 0 280 372" version="1.1">
<g id="surface452">
<path style="fill:none;stroke-width:0.566929;stroke-linecap:butt;stroke-linejoin:miter;stroke:rgb(0%,0%,0%);stroke-opacity:1;stroke-miterlimit:10;" d="M 141.732422 72.919922 C 141.732422 34.898438 110.910156 4.078125 72.890625 4.078125 C 34.871094 4.078125 4.048828 34.898438 4.048828 72.919922 " transform="matrix(2,0,0,2,-6,-6)"/>
<path style="fill:none;stroke-width:0.566929;stroke-linecap:butt;stroke-linejoin:miter;stroke:rgb(0%,0%,0%);stroke-opacity:1;stroke-miterlimit:10;" d="M 133.632812 72.919922 C 133.632812 39.373047 106.4375 12.177734 72.890625 12.177734 C 39.34375 12.177734 12.148438 39.373047 12.148438 72.919922 " transform="matrix(2,0,0,2,-6,-6)"/>
<path style="fill:none;stroke-width:0.566929;stroke-linecap:butt;stroke-linejoin:miter;stroke:rgb(0%,0%,0%);stroke-opacity:1;stroke-miterlimit:10;" d="M 125.535156 72.919922 C 125.535156 43.845703 101.964844 20.275391 72.890625 20.275391 C 43.816406 20.275391 20.248047 43.845703 20.248047 72.919922 " transform="matrix(2,0,0,2,-6,-6)"/>
<path style="fill:none;stroke-width:0.566929;stroke-linecap:butt;stroke-linejoin:miter;stroke:rgb(0%,0%,0%);stroke-opacity:1;stroke-miterlimit:10;" d="M 117.435547 72.919922 C 117.435547 48.318359 97.492188 28.375 72.890625 28.375 C 48.289062 28.375 28.345703 48.318359 28.345703 72.919922 " transform="matrix(2,0,0,2,-6,-6)"/>
<path style="fill:none;stroke-width:0.566929;stroke-linecap:butt;stroke-linejoin:miter;stroke:rgb(0%,0%,0%);stroke-opacity:1;stroke-miterlimit:10;" d="M 109.335938 72.919922 C 109.335938 52.791016 93.019531 36.474609 72.890625 36.474609 C 52.761719 36.474609 36.445312 52.791016 36.445312 72.919922 " transform="matrix(2,0,0,2,-6,-6)"/>
<path style="fill:none;stroke-width:0.566929;stroke-linecap:butt;stroke-linejoin:miter;stroke:rgb(0%,0%,0%);stroke-opacity:1;stroke-miterlimit:10;" d="M 101.238281 72.919922 C 101.238281 57.263672 88.546875 44.572266 72.890625 44.572266 C 57.236328 44.572266 44.544922 57.263672 44.544922 72.919922 " transform="matrix(2,0,0,2,-6,-6)"/>
<path style="fill:none;stroke-width:0.566929;stroke-linecap:butt;stroke-linejoin:miter;stroke:rgb(0%,0%,0%);stroke-opacity:1;stroke-miterlimit:10;" d="M 93.138672 72.919922 C 93.138672 61.736328 84.074219 52.671875 72.890625 52.671875 C 61.708984 52.671875 52.642578 61.736328 52.642578 72.919922 " transform="matrix(2,0,0,2,-6,-6)"/>
<path style="fill:none;stroke-width:0.566929;stroke-linecap:butt;stroke-linejoin:miter;stroke:rgb(0%,0%,0%);stroke-opacity:1;stroke-miterlimit:10;" d="M 85.039062 72.919922 C 85.039062 66.208984 79.599609 60.771484 72.890625 60.771484 C 66.181641 60.771484 60.742188 66.208984 60.742188 72.919922 " transform="matrix(2,0,0,2,-6,-6)"/>
<path style="fill:none;stroke-width:0.566929;stroke-linecap:butt;stroke-linejoin:miter;stroke:rgb(0%,0%,0%);stroke-opacity:1;stroke-miterlimit:10;" d="M 76.939453 72.919922 C 76.939453 70.683594 75.126953 68.869141 72.890625 68.869141 C 70.654297 68.869141 68.841797 70.683594 68.841797 72.919922 " transform="matrix(2,0,0,2,-6,-6)"/>
<path style="fill:none;stroke-width:0.566929;stroke-linecap:butt;stroke-linejoin:miter;stroke:rgb(0%,0%,0%);stroke-opacity:1;stroke-miterlimit:10;" d="M 4.048828 118.839844 L 4.048828 72.863281 " transform="matrix(2,0,0,2,-6,-6)"/>
<path style="fill:none;stroke-width:0.566929;stroke-linecap:butt;stroke-linejoin:miter;stroke:rgb(0%,0%,0%);stroke-opacity:1;stroke-miterlimit:10;" d="M 12.148438 118.839844 L 12.148438 72.863281 " transform="matrix(2,0,0,2,-6,-6)"/>
<path style="fill:none;stroke-width:0.566929;stroke-linecap:butt;stroke-linejoin:miter;stroke:rgb(0%,0%,0%);stroke-opacity:1;stroke-miterlimit:10;" d="M 20.248047 118.839844 L 20.248047 72.863281 " transform="matrix(2,0,0,2,-6,-6)"/>
<path style="fill:none;stroke-width:0.566929;stroke-linecap:butt;stroke-linejoin:miter;stroke:rgb(0%,0%,0%);stroke-opacity:1;stroke-miterlimit:10;" d="M 28.345703 118.839844 L 28.345703 72.863281 " transform="matrix(2,0,0,2,-6,-6)"/>
<path style="fill:none;stroke-width:0.566929;stroke-linecap:butt;stroke-linejoin:miter;stroke:rgb(0%,0%,0%);stroke-opacity:1;stroke-miterlimit:10;" d="M 36.445312 118.839844 L 36.445312 72.863281 " transform="matrix(2,0,0,2,-6,-6)"/>
<path style="fill:none;stroke-width:0.566929;stroke-linecap:butt;stroke-linejoin:miter;stroke:rgb(0%,0%,0%);stroke-opacity:1;stroke-miterlimit:10;" d="M 44.544922 118.839844 L 44.544922 72.863281 " transform="matrix(2,0,0,2,-6,-6)"/>
<path style="fill:none;stroke-width:0.566929;stroke-linecap:butt;stroke-linejoin:miter;stroke:rgb(0%,0%,0%);stroke-opacity:1;stroke-miterlimit:10;" d="M 52.642578 118.839844 L 52.642578 72.863281 " transform="matrix(2,0,0,2,-6,-6)"/>
<path style="fill:none;stroke-width:0.566929;stroke-linecap:butt;stroke-linejoin:miter;stroke:rgb(0%,0%,0%);stroke-opacity:1;stroke-miterlimit:10;" d="M 60.742188 118.839844 L 60.742188 72.863281 " transform="matrix(2,0,0,2,-6,-6)"/>
<path style="fill:none;stroke-width:0.566929;stroke-linecap:butt;stroke-linejoin:miter;stroke:rgb(0%,0%,0%);stroke-opacity:1;stroke-miterlimit:10;" d="M 68.841797 118.839844 L 68.841797 72.863281 " transform="matrix(2,0,0,2,-6,-6)"/>
<path style="fill:none;stroke-width:0.566929;stroke-linecap:butt;stroke-linejoin:miter;stroke:rgb(0%,0%,0%);stroke-opacity:1;stroke-miterlimit:10;" d="M 76.939453 88.226562 L 76.939453 72.863281 " transform="matrix(2,0,0,2,-6,-6)"/>
<path style="fill:none;stroke-width:0.566929;stroke-linecap:butt;stroke-linejoin:miter;stroke:rgb(0%,0%,0%);stroke-opacity:1;stroke-miterlimit:10;" d="M 85.039062 88.226562 C 85.039062 84.384766 87.064453 82.464844 88.076172 81.503906 " transform="matrix(2,0,0,2,-6,-6)"/>
<path style="fill:none;stroke-width:0.566929;stroke-linecap:butt;stroke-linejoin:miter;stroke:rgb(0%,0%,0%);stroke-opacity:1;stroke-miterlimit:10;" d="M 90.101562 79.583984 C 91.113281 78.623047 93.138672 76.703125 93.138672 72.863281 " transform="matrix(2,0,0,2,-6,-6)"/>
<path style="fill:none;stroke-width:0.566929;stroke-linecap:butt;stroke-linejoin:miter;stroke:rgb(0%,0%,0%);stroke-opacity:1;stroke-miterlimit:10;" d="M 93.138672 88.226562 C 93.138672 80.544922 85.039062 80.544922 85.039062 72.863281 " transform="matrix(2,0,0,2,-6,-6)"/>
<path style="fill:none;stroke-width:0.566929;stroke-linecap:butt;stroke-linejoin:miter;stroke:rgb(0%,0%,0%);stroke-opacity:1;stroke-miterlimit:10;" d="M 101.238281 88.226562 C 101.238281 80.544922 109.335938 80.544922 109.335938 72.863281 " transform="matrix(2,0,0,2,-6,-6)"/>
<path style="fill:none;stroke-width:0.566929;stroke-linecap:butt;stroke-linejoin:miter;stroke:rgb(0%,0%,0%);stroke-opacity:1;stroke-miterlimit:10;" d="M 109.335938 88.226562 C 109.335938 84.384766 107.3125 82.464844 106.298828 81.503906 " transform="matrix(2,0,0,2,-6,-6)"/>
<path style="fill:none;stroke-width:0.566929;stroke-linecap:butt;stroke-linejoin:miter;stroke:rgb(0%,0%,0%);stroke-opacity:1;stroke-miterlimit:10;" d="M 104.275391 79.583984 C 103.261719 78.623047 101.238281 76.703125 101.238281 72.863281 " transform="matrix(2,0,0,2,-6,-6)"/>
<path style="fill:none;stroke-width:0.566929;stroke-linecap:butt;stroke-linejoin:miter;stroke:rgb(0%,0%,0%);stroke-opacity:1;stroke-miterlimit:10;" d="M 117.435547 88.226562 L 117.435547 72.863281 " transform="matrix(2,0,0,2,-6,-6)"/>
<path style="fill:none;stroke-width:0.566929;stroke-linecap:butt;stroke-linejoin:miter;stroke:rgb(0%,0%,0%);stroke-opacity:1;stroke-miterlimit:10;" d="M 125.535156 88.226562 L 125.535156 72.863281 " transform="matrix(2,0,0,2,-6,-6)"/>
<path style="fill:none;stroke-width:0.566929;stroke-linecap:butt;stroke-linejoin:miter;stroke:rgb(0%,0%,0%);stroke-opacity:1;stroke-miterlimit:10;" d="M 133.632812 88.226562 C 133.632812 80.544922 141.732422 80.544922 141.732422 72.863281 " transform="matrix(2,0,0,2,-6,-6)"/>
<path style="fill:none;stroke-width:0.566929;stroke-linecap:butt;stroke-linejoin:miter;stroke:rgb(0%,0%,0%);stroke-opacity:1;stroke-miterlimit:10;" d="M 141.732422 88.226562 C 141.732422 84.384766 139.707031 82.464844 138.695312 81.503906 " transform="matrix(2,0,0,2,-6,-6)"/>
<path style="fill:none;stroke-width:0.566929;stroke-linecap:butt;stroke-linejoin:miter;stroke:rgb(0%,0%,0%);stroke-opacity:1;stroke-miterlimit:10;" d="M 136.669922 79.583984 C 135.658203 78.623047 133.632812 76.703125 133.632812 72.863281 " transform="matrix(2,0,0,2,-6,-6)"/>
<path style="fill:none;stroke-width:0.566929;stroke-linecap:butt;stroke-linejoin:miter;stroke:rgb(0%,0%,0%);stroke-opacity:1;stroke-miterlimit:10;" d="M 76.939453 103.533203 C 76.939453 95.851562 85.039062 95.851562 85.039062 88.169922 " transform="matrix(2,0,0,2,-6,-6)"/>
<path style="fill:none;stroke-width:0.566929;stroke-linecap:butt;stroke-linejoin:miter;stroke:rgb(0%,0%,0%);stroke-opacity:1;stroke-miterlimit:10;" d="M 85.039062 103.533203 C 85.039062 99.693359 83.013672 97.771484 82.001953 96.8125 " transform="matrix(2,0,0,2,-6,-6)"/>
<path style="fill:none;stroke-width:0.566929;stroke-linecap:butt;stroke-linejoin:miter;stroke:rgb(0%,0%,0%);stroke-opacity:1;stroke-miterlimit:10;" d="M 79.976562 94.890625 C 78.964844 93.931641 76.939453 92.009766 76.939453 88.169922 " transform="matrix(2,0,0,2,-6,-6)"/>
<path style="fill:none;stroke-width:0.566929;stroke-linecap:butt;stroke-linejoin:miter;stroke:rgb(0%,0%,0%);stroke-opacity:1;stroke-miterlimit:10;" d="M 93.138672 103.533203 L 93.138672 88.169922 " transform="matrix(2,0,0,2,-6,-6)"/>
<path style="fill:none;stroke-width:0.566929;stroke-linecap:butt;stroke-linejoin:miter;stroke:rgb(0%,0%,0%);stroke-opacity:1;stroke-miterlimit:10;" d="M 101.238281 103.533203 C 101.238281 99.693359 103.261719 97.771484 104.275391 96.8125 " transform="matrix(2,0,0,2,-6,-6)"/>
<path style="fill:none;stroke-width:0.566929;stroke-linecap:butt;stroke-linejoin:miter;stroke:rgb(0%,0%,0%);stroke-opacity:1;stroke-miterlimit:10;" d="M 106.298828 94.890625 C 107.3125 93.931641 109.335938 92.009766 109.335938 88.169922 " transform="matrix(2,0,0,2,-6,-6)"/>
<path style="fill:none;stroke-width:0.566929;stroke-linecap:butt;stroke-linejoin:miter;stroke:rgb(0%,0%,0%);stroke-opacity:1;stroke-miterlimit:10;" d="M 109.335938 103.533203 C 109.335938 95.851562 101.238281 95.851562 101.238281 88.169922 " transform="matrix(2,0,0,2,-6,-6)"/>
<path style="fill:none;stroke-width:0.566929;stroke-linecap:butt;stroke-linejoin:miter;stroke:rgb(0%,0%,0%);stroke-opacity:1;stroke-miterlimit:10;" d="M 117.435547 103.533203 L 117.435547 88.169922 " transform="matrix(2,0,0,2,-6,-6)"/>
<path style="fill:none;stroke-width:0.566929;stroke-linecap:butt;stroke-linejoin:miter;stroke:rgb(0%,0%,0%);stroke-opacity:1;stroke-miterlimit:10;" d="M 125.535156 103.533203 L 125.535156 88.169922 " transform="matrix(2,0,0,2,-6,-6)"/>
<path style="fill:none;stroke-width:0.566929;stroke-linecap:butt;stroke-linejoin:miter;stroke:rgb(0%,0%,0%);stroke-opacity:1;stroke-miterlimit:10;" d="M 133.632812 103.533203 C 133.632812 95.851562 141.732422 95.851562 141.732422 88.169922 " transform="matrix(2,0,0,2,-6,-6)"/>
<path style="fill:none;stroke-width:0.566929;stroke-linecap:butt;stroke-linejoin:miter;stroke:rgb(0%,0%,0%);stroke-opacity:1;stroke-miterlimit:10;" d="M 141.732422 103.533203 C 141.732422 99.693359 139.707031 97.771484 138.695312 96.8125 " transform="matrix(2,0,0,2,-6,-6)"/>
<path style="fill:none;stroke-width:0.566929;stroke-linecap:butt;stroke-linejoin:miter;stroke:rgb(0%,0%,0%);stroke-opacity:1;stroke-miterlimit:10;" d="M 136.669922 94.890625 C 135.658203 93.931641 133.632812 92.009766 133.632812 88.169922 " transform="matrix(2,0,0,2,-6,-6)"/>
<path style="fill:none;stroke-width:0.566929;stroke-linecap:butt;stroke-linejoin:miter;stroke:rgb(0%,0%,0%);stroke-opacity:1;stroke-miterlimit:10;" d="M 76.939453 118.839844 C 76.939453 115 78.964844 113.078125 79.976562 112.119141 " transform="matrix(2,0,0,2,-6,-6)"/>
<path style="fill:none;stroke-width:0.566929;stroke-linecap:butt;stroke-linejoin:miter;stroke:rgb(0%,0%,0%);stroke-opacity:1;stroke-miterlimit:10;" d="M 82.001953 110.199219 C 83.013672 109.238281 85.039062 107.318359 85.039062 103.476562 " transform="matrix(2,0,0,2,-6,-6)"/>
<path style="fill:none;stroke-width:0.566929;stroke-linecap:butt;stroke-linejoin:miter;stroke:rgb(0%,0%,0%);stroke-opacity:1;stroke-miterlimit:10;" d="M 85.039062 118.839844 C 85.039062 111.158203 76.939453 111.158203 76.939453 103.476562 " transform="matrix(2,0,0,2,-6,-6)"/>
<path style="fill:none;stroke-width:0.566929;stroke-linecap:butt;stroke-linejoin:miter;stroke:rgb(0%,0%,0%);stroke-opacity:1;stroke-miterlimit:10;" d="M 93.138672 118.839844 L 93.138672 103.476562 " transform="matrix(2,0,0,2,-6,-6)"/>
<path style="fill:none;stroke-width:0.566929;stroke-linecap:butt;stroke-linejoin:miter;stroke:rgb(0%,0%,0%);stroke-opacity:1;stroke-miterlimit:10;" d="M 101.238281 118.839844 L 101.238281 103.476562 " transform="matrix(2,0,0,2,-6,-6)"/>
<path style="fill:none;stroke-width:0.566929;stroke-linecap:butt;stroke-linejoin:miter;stroke:rgb(0%,0%,0%);stroke-opacity:1;stroke-miterlimit:10;" d="M 109.335938 118.839844 C 109.335938 111.158203 117.435547 111.158203 117.435547 103.476562 " transform="matrix(2,0,0,2,-6,-6)"/>
<path style="fill:none;stroke-width:0.566929;stroke-linecap:butt;stroke-linejoin:miter;stroke:rgb(0%,0%,0%);stroke-opacity:1;stroke-miterlimit:10;" d="M 117.435547 118.839844 C 117.435547 115 115.410156 113.078125 114.398438 112.119141 " transform="matrix(2,0,0,2,-6,-6)"/>
<path style="fill:none;stroke-width:0.566929;stroke-linecap:butt;stroke-linejoin:miter;stroke:rgb(0%,0%,0%);stroke-opacity:1;stroke-miterlimit:10;" d="M 112.373047 110.199219 C 111.361328 109.238281 109.335938 107.318359 109.335938 103.476562 " transform="matrix(2,0,0,2,-6,-6)"/>
<path style="fill:none;stroke-width:0.566929;stroke-linecap:butt;stroke-linejoin:miter;stroke:rgb(0%,0%,0%);stroke-opacity:1;stroke-miterlimit:10;" d="M 125.535156 118.839844 C 125.535156 115 127.558594 113.078125 128.572266 112.119141 " transform="matrix(2,0,0,2,-6,-6)"/>
<path style="fill:none;stroke-width:0.566929;stroke-linecap:butt;stroke-linejoin:miter;stroke:rgb(0%,0%,0%);stroke-opacity:1;stroke-miterlimit:10;" d="M 130.595703 110.199219 C 131.609375 109.238281 133.632812 107.318359 133.632812 103.476562 " transform="matrix(2,0,0,2,-6,-6)"/>
<path style="fill:none;stroke-width:0.566929;stroke-linecap:butt;stroke-linejoin:miter;stroke:rgb(0%,0%,0%);stroke-opacity:1;stroke-miterlimit:10;" d="M 133.632812 118.839844 C 133.632812 111.158203 125.535156 111.158203 125.535156 103.476562 " transform="matrix(2,0,0,2,-6,-6)"/>
<path style="fill:none;stroke-width:0.566929;stroke-linecap:butt;stroke-linejoin:miter;stroke:rgb(0%,0%,0%);stroke-opacity:1;stroke-miterlimit:10;" d="M 141.732422 118.839844 L 141.732422 103.476562 " transform="matrix(2,0,0,2,-6,-6)"/>
<path style="fill:none;stroke-width:0.566929;stroke-linecap:butt;stroke-linejoin:miter;stroke:rgb(0%,0%,0%);stroke-opacity:1;stroke-miterlimit:10;" d="M 4.048828 118.783203 C 4.048828 156.804688 34.871094 187.625 72.890625 187.625 C 110.910156 187.625 141.732422 156.804688 141.732422 118.783203 " transform="matrix(2,0,0,2,-6,-6)"/>
<path style="fill:none;stroke-width:0.566929;stroke-linecap:butt;stroke-linejoin:miter;stroke:rgb(0%,0%,0%);stroke-opacity:1;stroke-miterlimit:10;" d="M 12.148438 118.783203 C 12.148438 152.330078 39.34375 179.525391 72.890625 179.525391 C 106.4375 179.525391 133.632812 152.330078 133.632812 118.783203 " transform="matrix(2,0,0,2,-6,-6)"/>
<path style="fill:none;stroke-width:0.566929;stroke-linecap:butt;stroke-linejoin:miter;stroke:rgb(0%,0%,0%);stroke-opacity:1;stroke-miterlimit:10;" d="M 20.248047 118.783203 C 20.248047 147.857422 43.816406 171.427734 72.890625 171.427734 C 101.964844 171.427734 125.535156 147.857422 125.535156 118.783203 " transform="matrix(2,0,0,2,-6,-6)"/>
<path style="fill:none;stroke-width:0.566929;stroke-linecap:butt;stroke-linejoin:miter;stroke:rgb(0%,0%,0%);stroke-opacity:1;stroke-miterlimit:10;" d="M 28.345703 118.783203 C 28.345703 143.384766 48.289062 163.328125 72.890625 163.328125 C 97.492188 163.328125 117.435547 143.384766 117.435547 118.783203 " transform="matrix(2,0,0,2,-6,-6)"/>
<path style="fill:none;stroke-width:0.566929;stroke-linecap:butt;stroke-linejoin:miter;stroke:rgb(0%,0%,0%);stroke-opacity:1;stroke-miterlimit:10;" d="M 36.445312 118.783203 C 36.445312 138.912109 52.761719 155.228516 72.890625 155.228516 C 93.019531 155.228516 109.335938 138.912109 109.335938 118.783203 " transform="matrix(2,0,0,2,-6,-6)"/>
<path style="fill:none;stroke-width:0.566929;stroke-linecap:butt;stroke-linejoin:miter;stroke:rgb(0%,0%,0%);stroke-opacity:1;stroke-miterlimit:10;" d="M 44.544922 118.783203 C 44.544922 134.439453 57.236328 147.130859 72.890625 147.130859 C 88.546875 147.130859 101.238281 134.439453 101.238281 118.783203 " transform="matrix(2,0,0,2,-6,-6)"/>
<path style="fill:none;stroke-width:0.566929;stroke-linecap:butt;stroke-linejoin:miter;stroke:rgb(0%,0%,0%);stroke-opacity:1;stroke-miterlimit:10;" d="M 52.642578 118.783203 C 52.642578 129.966797 61.708984 139.03125 72.890625 139.03125 C 84.074219 139.03125 93.138672 129.966797 93.138672 118.783203 " transform="matrix(2,0,0,2,-6,-6)"/>
<path style="fill:none;stroke-width:0.566929;stroke-linecap:butt;stroke-linejoin:miter;stroke:rgb(0%,0%,0%);stroke-opacity:1;stroke-miterlimit:10;" d="M 60.742188 118.783203 C 60.742188 125.494141 66.181641 130.931641 72.890625 130.931641 C 79.599609 130.931641 85.039062 125.494141 85.039062 118.783203 " transform="matrix(2,0,0,2,-6,-6)"/>
<path style="fill:none;stroke-width:0.566929;stroke-linecap:butt;stroke-linejoin:miter;stroke:rgb(0%,0%,0%);stroke-opacity:1;stroke-miterlimit:10;" d="M 68.841797 118.783203 C 68.841797 121.019531 70.654297 122.833984 72.890625 122.833984 C 75.126953 122.833984 76.939453 121.019531 76.939453 118.783203 " transform="matrix(2,0,0,2,-6,-6)"/>
</g>
</svg>
