<?xml version="1.0" encoding="UTF-8"?>
<svg xmlns="http://www.w3.org/2000/svg" xmlns:xlink="http://www.w3.org/1999/xlink" width="233.007874pt" height="346.393701pt" viewBox="0 0 233.007874 346.393701" version="1.1">
<g id="surface165">
<path style="fill:none;stroke-width:0.566929;stroke-linecap:butt;stroke-linejoin:miter;stroke:rgb(100%,0%,0%);stroke-opacity:0.5;stroke-miterlimit:10;" d="M -2.8338 2.834169 L 2.834169 -2.8338 " transform="matrix(2,0,0,2,5.952756,5.952756)"/>
<path style="fill:none;stroke-width:0.566929;stroke-linecap:butt;stroke-linejoin:miter;stroke:rgb(100%,0%,0%);stroke-opacity:0.5;stroke-miterlimit:10;" d="M 2.834169 2.834169 L -2.8338 -2.8338 " transform="matrix(2,0,0,2,5.952756,5.952756)"/>
<path style="fill-rule:nonzero;fill:rgb(50%,50%,0%);fill-opacity:0.1;stroke-width:0.566929;stroke-linecap:butt;stroke-linejoin:miter;stroke:rgb(100%,0%,0%);stroke-opacity:0.5;stroke-miterlimit:10;" d="M 0.000184547 170.07831 L 113.38495 170.07831 L 113.38495 0.000184547 L 0.000184547 0.000184547 Z M 0.000184547 170.07831 " transform="matrix(2,0,0,2,5.952756,5.952756)"/>
<path style="fill:none;stroke-width:0.566929;stroke-linecap:butt;stroke-linejoin:miter;stroke:rgb(100%,0%,0%);stroke-opacity:0.5;stroke-miterlimit:10;" d="M -2.8338 28.535341 L 2.834169 22.865419 " transform="matrix(2,0,0,2,5.952756,5.952756)"/>
<path style="fill:none;stroke-width:0.566929;stroke-linecap:butt;stroke-linejoin:miter;stroke:rgb(100%,0%,0%);stroke-opacity:0.5;stroke-miterlimit:10;" d="M 2.834169 28.535341 L -2.8338 22.865419 " transform="matrix(2,0,0,2,5.952756,5.952756)"/>
<path style="fill-rule:nonzero;fill:rgb(50%,50%,0%);fill-opacity:0.1;stroke-width:0.566929;stroke-linecap:butt;stroke-linejoin:miter;stroke:rgb(100%,0%,0%);stroke-opacity:0.5;stroke-miterlimit:10;" d="M 0.000184547 56.693544 L 113.38495 56.693544 L 113.38495 0.000184547 L 0.000184547 0.000184547 Z M 0.000184547 56.693544 " transform="matrix(2,0,0,2,5.952756,5.952756)"/>
<path style="fill:none;stroke-width:0.566929;stroke-linecap:butt;stroke-linejoin:miter;stroke:rgb(0%,0%,0%);stroke-opacity:1;stroke-miterlimit:10;" d="M 85.039247 56.720888 C 85.039247 41.066591 72.347841 28.375185 56.693544 28.375185 C 41.037294 28.375185 28.345888 41.066591 28.345888 56.720888 " transform="matrix(2,0,0,2,5.952756,5.952756)"/>
<path style="fill:none;stroke-width:0.566929;stroke-linecap:butt;stroke-linejoin:miter;stroke:rgb(100%,0%,0%);stroke-opacity:0.5;stroke-miterlimit:10;" d="M -2.8338 59.527528 L 2.834169 53.857606 " transform="matrix(2,0,0,2,5.952756,5.952756)"/>
<path style="fill:none;stroke-width:0.566929;stroke-linecap:butt;stroke-linejoin:miter;stroke:rgb(100%,0%,0%);stroke-opacity:0.5;stroke-miterlimit:10;" d="M 2.834169 59.527528 L -2.8338 53.857606 " transform="matrix(2,0,0,2,5.952756,5.952756)"/>
<path style="fill-rule:nonzero;fill:rgb(50%,50%,0%);fill-opacity:0.1;stroke-width:0.566929;stroke-linecap:butt;stroke-linejoin:miter;stroke:rgb(100%,0%,0%);stroke-opacity:0.5;stroke-miterlimit:10;" d="M 0.000184547 170.07831 L 113.38495 170.07831 L 113.38495 56.693544 L 0.000184547 56.693544 Z M 0.000184547 170.07831 " transform="matrix(2,0,0,2,5.952756,5.952756)"/>
<path style="fill:none;stroke-width:0.566929;stroke-linecap:butt;stroke-linejoin:miter;stroke:rgb(100%,0%,0%);stroke-opacity:0.5;stroke-miterlimit:10;" d="M -2.8338 72.76581 L 2.834169 67.095888 " transform="matrix(2,0,0,2,5.952756,5.952756)"/>
<path style="fill:none;stroke-width:0.566929;stroke-linecap:butt;stroke-linejoin:miter;stroke:rgb(100%,0%,0%);stroke-opacity:0.5;stroke-miterlimit:10;" d="M 2.834169 72.76581 L -2.8338 67.095888 " transform="matrix(2,0,0,2,5.952756,5.952756)"/>
<path style="fill-rule:nonzero;fill:rgb(50%,50%,0%);fill-opacity:0.1;stroke-width:0.566929;stroke-linecap:butt;stroke-linejoin:miter;stroke:rgb(100%,0%,0%);stroke-opacity:0.5;stroke-miterlimit:10;" d="M 0.000184547 85.039247 L 113.38495 85.039247 L 113.38495 56.693544 L 0.000184547 56.693544 Z M 0.000184547 85.039247 " transform="matrix(2,0,0,2,5.952756,5.952756)"/>
<path style="fill:none;stroke-width:0.566929;stroke-linecap:butt;stroke-linejoin:miter;stroke:rgb(100%,0%,0%);stroke-opacity:0.5;stroke-miterlimit:10;" d="M -2.8338 72.76581 L 2.834169 67.095888 " transform="matrix(2,0,0,2,5.952756,5.952756)"/>
<path style="fill:none;stroke-width:0.566929;stroke-linecap:butt;stroke-linejoin:miter;stroke:rgb(100%,0%,0%);stroke-opacity:0.5;stroke-miterlimit:10;" d="M 2.834169 72.76581 L -2.8338 67.095888 " transform="matrix(2,0,0,2,5.952756,5.952756)"/>
<path style="fill-rule:nonzero;fill:rgb(50%,50%,0%);fill-opacity:0.1;stroke-width:0.566929;stroke-linecap:butt;stroke-linejoin:miter;stroke:rgb(100%,0%,0%);stroke-opacity:0.5;stroke-miterlimit:10;" d="M 0.000184547 85.039247 L 65.465028 85.039247 L 65.465028 56.693544 L 0.000184547 56.693544 Z M 0.000184547 85.039247 " transform="matrix(2,0,0,2,5.952756,5.952756)"/>
<path style="fill:none;stroke-width:0.566929;stroke-linecap:butt;stroke-linejoin:miter;stroke:rgb(100%,0%,0%);stroke-opacity:0.5;stroke-miterlimit:10;" d="M 15.677919 72.76581 L 21.345888 67.095888 " transform="matrix(2,0,0,2,5.952756,5.952756)"/>
<path style="fill:none;stroke-width:0.566929;stroke-linecap:butt;stroke-linejoin:miter;stroke:rgb(100%,0%,0%);stroke-opacity:0.5;stroke-miterlimit:10;" d="M 21.345888 72.76581 L 15.677919 67.095888 " transform="matrix(2,0,0,2,5.952756,5.952756)"/>
<path style="fill-rule:nonzero;fill:rgb(50%,50%,0%);fill-opacity:0.1;stroke-width:0.566929;stroke-linecap:butt;stroke-linejoin:miter;stroke:rgb(100%,0%,0%);stroke-opacity:0.5;stroke-miterlimit:10;" d="M 0.000184547 85.039247 L 37.117372 85.039247 L 37.117372 56.693544 L 0.000184547 56.693544 Z M 0.000184547 85.039247 " transform="matrix(2,0,0,2,5.952756,5.952756)"/>
<path style="fill:none;stroke-width:0.566929;stroke-linecap:butt;stroke-linejoin:miter;stroke:rgb(0%,0%,0%);stroke-opacity:1;stroke-miterlimit:10;" d="M 28.345888 85.068544 L 28.345888 56.664247 " transform="matrix(2,0,0,2,5.952756,5.952756)"/>
<path style="fill:none;stroke-width:0.566929;stroke-linecap:butt;stroke-linejoin:miter;stroke:rgb(100%,0%,0%);stroke-opacity:0.5;stroke-miterlimit:10;" d="M 48.549013 72.76581 L 54.218935 67.095888 " transform="matrix(2,0,0,2,5.952756,5.952756)"/>
<path style="fill:none;stroke-width:0.566929;stroke-linecap:butt;stroke-linejoin:miter;stroke:rgb(100%,0%,0%);stroke-opacity:0.5;stroke-miterlimit:10;" d="M 54.218935 72.76581 L 48.549013 67.095888 " transform="matrix(2,0,0,2,5.952756,5.952756)"/>
<path style="fill-rule:nonzero;fill:rgb(50%,50%,0%);fill-opacity:0.1;stroke-width:0.566929;stroke-linecap:butt;stroke-linejoin:miter;stroke:rgb(100%,0%,0%);stroke-opacity:0.5;stroke-miterlimit:10;" d="M 37.117372 85.039247 L 65.465028 85.039247 L 65.465028 56.693544 L 37.117372 56.693544 Z M 37.117372 85.039247 " transform="matrix(2,0,0,2,5.952756,5.952756)"/>
<path style="fill:none;stroke-width:0.566929;stroke-linecap:butt;stroke-linejoin:miter;stroke:rgb(0%,0%,0%);stroke-opacity:1;stroke-miterlimit:10;" d="M 53.781435 70.865419 C 53.781435 75.127138 53.781435 80.806825 53.781435 85.068544 " transform="matrix(2,0,0,2,5.952756,5.952756)"/>
<path style=" stroke:none;fill-rule:nonzero;fill:rgb(0%,0%,0%);fill-opacity:1;" d="M 115.78125 147.683594 C 115.78125 144.660156 111.246094 144.660156 111.246094 147.683594 C 111.246094 150.707031 115.78125 150.707031 115.78125 147.683594 Z M 115.78125 147.683594 "/>
<path style="fill:none;stroke-width:0.566929;stroke-linecap:butt;stroke-linejoin:miter;stroke:rgb(100%,0%,0%);stroke-opacity:0.5;stroke-miterlimit:10;" d="M 83.757997 72.76581 L 89.427919 67.095888 " transform="matrix(2,0,0,2,5.952756,5.952756)"/>
<path style="fill:none;stroke-width:0.566929;stroke-linecap:butt;stroke-linejoin:miter;stroke:rgb(100%,0%,0%);stroke-opacity:0.5;stroke-miterlimit:10;" d="M 89.427919 72.76581 L 83.757997 67.095888 " transform="matrix(2,0,0,2,5.952756,5.952756)"/>
<path style="fill-rule:nonzero;fill:rgb(50%,50%,0%);fill-opacity:0.1;stroke-width:0.566929;stroke-linecap:butt;stroke-linejoin:miter;stroke:rgb(100%,0%,0%);stroke-opacity:0.5;stroke-miterlimit:10;" d="M 65.465028 85.039247 L 113.38495 85.039247 L 113.38495 56.693544 L 65.465028 56.693544 Z M 65.465028 85.039247 " transform="matrix(2,0,0,2,5.952756,5.952756)"/>
<path style="fill:none;stroke-width:0.566929;stroke-linecap:butt;stroke-linejoin:miter;stroke:rgb(0%,0%,0%);stroke-opacity:1;stroke-miterlimit:10;" d="M 85.039247 85.068544 L 85.039247 56.664247 " transform="matrix(2,0,0,2,5.952756,5.952756)"/>
<path style="fill:none;stroke-width:0.566929;stroke-linecap:butt;stroke-linejoin:miter;stroke:rgb(100%,0%,0%);stroke-opacity:0.5;stroke-miterlimit:10;" d="M -2.8338 87.873231 L 2.834169 82.205263 " transform="matrix(2,0,0,2,5.952756,5.952756)"/>
<path style="fill:none;stroke-width:0.566929;stroke-linecap:butt;stroke-linejoin:miter;stroke:rgb(100%,0%,0%);stroke-opacity:0.5;stroke-miterlimit:10;" d="M 2.834169 87.873231 L -2.8338 82.205263 " transform="matrix(2,0,0,2,5.952756,5.952756)"/>
<path style="fill-rule:nonzero;fill:rgb(50%,50%,0%);fill-opacity:0.1;stroke-width:0.566929;stroke-linecap:butt;stroke-linejoin:miter;stroke:rgb(100%,0%,0%);stroke-opacity:0.5;stroke-miterlimit:10;" d="M 0.000184547 170.07831 L 113.38495 170.07831 L 113.38495 85.039247 L 0.000184547 85.039247 Z M 0.000184547 170.07831 " transform="matrix(2,0,0,2,5.952756,5.952756)"/>
<path style="fill:none;stroke-width:0.566929;stroke-linecap:butt;stroke-linejoin:miter;stroke:rgb(100%,0%,0%);stroke-opacity:0.5;stroke-miterlimit:10;" d="M -2.8338 112.763856 L 2.834169 107.095888 " transform="matrix(2,0,0,2,5.952756,5.952756)"/>
<path style="fill:none;stroke-width:0.566929;stroke-linecap:butt;stroke-linejoin:miter;stroke:rgb(100%,0%,0%);stroke-opacity:0.5;stroke-miterlimit:10;" d="M 2.834169 112.763856 L -2.8338 107.095888 " transform="matrix(2,0,0,2,5.952756,5.952756)"/>
<path style="fill-rule:nonzero;fill:rgb(50%,50%,0%);fill-opacity:0.1;stroke-width:0.566929;stroke-linecap:butt;stroke-linejoin:miter;stroke:rgb(100%,0%,0%);stroke-opacity:0.5;stroke-miterlimit:10;" d="M 0.000184547 141.732606 L 113.38495 141.732606 L 113.38495 85.039247 L 0.000184547 85.039247 Z M 0.000184547 141.732606 " transform="matrix(2,0,0,2,5.952756,5.952756)"/>
<path style="fill:none;stroke-width:0.566929;stroke-linecap:butt;stroke-linejoin:miter;stroke:rgb(0%,0%,0%);stroke-opacity:1;stroke-miterlimit:10;" d="M 14.174013 141.75995 C 14.174013 113.38495 28.345888 113.38495 28.345888 85.011903 " transform="matrix(2,0,0,2,5.952756,5.952756)"/>
<path style="fill:none;stroke-width:0.566929;stroke-linecap:butt;stroke-linejoin:miter;stroke:rgb(0%,0%,0%);stroke-opacity:1;stroke-miterlimit:10;" d="M 14.174013 141.75995 C 14.174013 113.38495 53.781435 113.38495 53.781435 85.011903 " transform="matrix(2,0,0,2,5.952756,5.952756)"/>
<path style="fill:none;stroke-width:0.566929;stroke-linecap:butt;stroke-linejoin:miter;stroke:rgb(0%,0%,0%);stroke-opacity:1;stroke-miterlimit:10;" d="M 42.519716 141.75995 C 42.519716 113.38495 85.039247 113.38495 85.039247 85.011903 " transform="matrix(2,0,0,2,5.952756,5.952756)"/>
<path style="fill:none;stroke-width:0.566929;stroke-linecap:butt;stroke-linejoin:miter;stroke:rgb(0%,0%,0%);stroke-opacity:1;stroke-miterlimit:10;" d="M 70.865419 141.75995 C 70.865419 113.38495 53.781435 113.38495 53.781435 85.011903 " transform="matrix(2,0,0,2,5.952756,5.952756)"/>
<path style="fill:none;stroke-width:0.566929;stroke-linecap:butt;stroke-linejoin:miter;stroke:rgb(0%,0%,0%);stroke-opacity:1;stroke-miterlimit:10;" d="M 99.213075 141.75995 C 99.213075 113.38495 85.039247 113.38495 85.039247 85.011903 " transform="matrix(2,0,0,2,5.952756,5.952756)"/>
<path style="fill:none;stroke-width:0.566929;stroke-linecap:butt;stroke-linejoin:miter;stroke:rgb(100%,0%,0%);stroke-opacity:0.5;stroke-miterlimit:10;" d="M -2.8338 157.763856 L 2.834169 152.095888 " transform="matrix(2,0,0,2,5.952756,5.952756)"/>
<path style="fill:none;stroke-width:0.566929;stroke-linecap:butt;stroke-linejoin:miter;stroke:rgb(100%,0%,0%);stroke-opacity:0.5;stroke-miterlimit:10;" d="M 2.834169 157.763856 L -2.8338 152.095888 " transform="matrix(2,0,0,2,5.952756,5.952756)"/>
<path style="fill-rule:nonzero;fill:rgb(50%,50%,0%);fill-opacity:0.1;stroke-width:0.566929;stroke-linecap:butt;stroke-linejoin:miter;stroke:rgb(100%,0%,0%);stroke-opacity:0.5;stroke-miterlimit:10;" d="M 0.000184547 170.07831 L 113.38495 170.07831 L 113.38495 141.732606 L 0.000184547 141.732606 Z M 0.000184547 170.07831 " transform="matrix(2,0,0,2,5.952756,5.952756)"/>
<path style="fill:none;stroke-width:0.566929;stroke-linecap:butt;stroke-linejoin:miter;stroke:rgb(100%,0%,0%);stroke-opacity:0.5;stroke-miterlimit:10;" d="M 23.867372 157.763856 L 29.535341 152.095888 " transform="matrix(2,0,0,2,5.952756,5.952756)"/>
<path style="fill:none;stroke-width:0.566929;stroke-linecap:butt;stroke-linejoin:miter;stroke:rgb(100%,0%,0%);stroke-opacity:0.5;stroke-miterlimit:10;" d="M 29.535341 157.763856 L 23.867372 152.095888 " transform="matrix(2,0,0,2,5.952756,5.952756)"/>
<path style="fill-rule:nonzero;fill:rgb(50%,50%,0%);fill-opacity:0.1;stroke-width:0.566929;stroke-linecap:butt;stroke-linejoin:miter;stroke:rgb(100%,0%,0%);stroke-opacity:0.5;stroke-miterlimit:10;" d="M 0.000184547 170.07831 L 56.693544 170.07831 L 56.693544 141.732606 L 0.000184547 141.732606 Z M 0.000184547 170.07831 " transform="matrix(2,0,0,2,5.952756,5.952756)"/>
<path style="fill:none;stroke-width:0.566929;stroke-linecap:butt;stroke-linejoin:miter;stroke:rgb(0%,0%,0%);stroke-opacity:1;stroke-miterlimit:10;" d="M 14.174013 141.70331 C 14.174013 149.531435 20.519716 155.877138 28.345888 155.877138 C 36.174013 155.877138 42.519716 149.531435 42.519716 141.70331 " transform="matrix(2,0,0,2,5.952756,5.952756)"/>
<path style="fill:none;stroke-width:0.566929;stroke-linecap:butt;stroke-linejoin:miter;stroke:rgb(100%,0%,0%);stroke-opacity:0.5;stroke-miterlimit:10;" d="M 78.517763 157.763856 L 84.185731 152.095888 " transform="matrix(2,0,0,2,5.952756,5.952756)"/>
<path style="fill:none;stroke-width:0.566929;stroke-linecap:butt;stroke-linejoin:miter;stroke:rgb(100%,0%,0%);stroke-opacity:0.5;stroke-miterlimit:10;" d="M 84.185731 157.763856 L 78.517763 152.095888 " transform="matrix(2,0,0,2,5.952756,5.952756)"/>
<path style="fill-rule:nonzero;fill:rgb(50%,50%,0%);fill-opacity:0.1;stroke-width:0.566929;stroke-linecap:butt;stroke-linejoin:miter;stroke:rgb(100%,0%,0%);stroke-opacity:0.5;stroke-miterlimit:10;" d="M 56.693544 170.07831 L 113.38495 170.07831 L 113.38495 141.732606 L 56.693544 141.732606 Z M 56.693544 170.07831 " transform="matrix(2,0,0,2,5.952756,5.952756)"/>
<path style="fill:none;stroke-width:0.566929;stroke-linecap:butt;stroke-linejoin:miter;stroke:rgb(0%,0%,0%);stroke-opacity:1;stroke-miterlimit:10;" d="M 70.865419 141.70331 C 70.865419 149.531435 77.211122 155.877138 85.039247 155.877138 C 92.867372 155.877138 99.213075 149.531435 99.213075 141.70331 " transform="matrix(2,0,0,2,5.952756,5.952756)"/>
</g>
</svg>
