<?xml version="1.0" encoding="UTF-8"?>
<svg xmlns="http://www.w3.org/2000/svg" xmlns:xlink="http://www.w3.org/1999/xlink" width="204.661417pt" height="104.133255pt" viewBox="0 0 204.661417 104.133255" version="1.1">
<g id="surface21">
<path style=" stroke:none;fill-rule:nonzero;fill:rgb(100%,0%,0%);fill-opacity:1;" d="M 136.347656 68.316406 L 204.378906 68.316406 C 204.378906 30.742188 173.917969 0.285156 136.347656 0.285156 L 68.316406 0.285156 C 30.742188 0.285156 0.285156 30.742188 0.285156 68.316406 C 0.285156 87.101562 15.511719 102.332031 34.300781 102.332031 C 53.085938 102.332031 68.316406 87.101562 68.316406 68.316406 Z M 136.347656 68.316406 "/>
<path style="fill:none;stroke-width:1.603518;stroke-linecap:butt;stroke-linejoin:miter;stroke:rgb(0%,0%,0%);stroke-opacity:1;stroke-miterlimit:10;" d="M 0.000599779 0.00072281 L 28.346303 0.00072281 C 28.346303 -15.655527 15.654897 -28.346933 0.000599779 -28.346933 L -28.347056 -28.346933 C -44.001353 -28.346933 -56.69276 -15.655527 -56.69276 0.00072281 C -56.69276 7.826895 -50.347056 14.172598 -42.518931 14.172598 C -34.69276 14.172598 -28.347056 7.826895 -28.347056 0.00072281 Z M 0.000599779 0.00072281 " transform="matrix(2,0,0,2,136.346457,68.314961)"/>
</g>
</svg>
