<?xml version="1.0" encoding="UTF-8"?>
<svg xmlns="http://www.w3.org/2000/svg" xmlns:xlink="http://www.w3.org/1999/xlink" width="91.767173pt" height="22.2523pt" viewBox="0 0 91.767173 22.2523" version="1.1">
<g id="surface1">
<path style="fill:none;stroke-width:1.603518;stroke-linecap:round;stroke-linejoin:miter;stroke:rgb(0%,0%,100%);stroke-opacity:1;stroke-miterlimit:10;" d="M -2.834646 2.833984 L 2.835276 -2.833984 " transform="matrix(2,0,0,2,5.669291,15.78125)"/>
<path style="fill:none;stroke-width:1.603518;stroke-linecap:round;stroke-linejoin:miter;stroke:rgb(0%,0%,100%);stroke-opacity:1;stroke-miterlimit:10;" d="M -2.834646 -2.833984 L 2.835276 2.833984 " transform="matrix(2,0,0,2,5.669291,15.78125)"/>
<path style=" stroke:none;fill-rule:nonzero;fill:rgb(0%,0%,0%);fill-opacity:1;" d="M 8.230469 13.28125 C 8.230469 14.15625 8.011719 14.15625 6.667969 14.15625 L 6.667969 14.78125 C 7.386719 14.75 8.386719 14.71875 8.949219 14.71875 C 9.449219 14.71875 10.480469 14.75 11.167969 14.78125 L 11.167969 14.15625 C 9.824219 14.15625 9.605469 14.15625 9.605469 13.28125 L 9.605469 9.59375 C 9.605469 7.53125 11.042969 6.40625 12.292969 6.40625 C 13.574219 6.40625 13.792969 7.46875 13.792969 8.625 L 13.792969 13.28125 C 13.792969 14.15625 13.574219 14.15625 12.230469 14.15625 L 12.230469 14.78125 C 12.917969 14.75 13.949219 14.71875 14.480469 14.71875 C 14.980469 14.71875 16.042969 14.75 16.699219 14.78125 L 16.699219 14.15625 C 15.667969 14.15625 15.167969 14.15625 15.167969 13.5625 L 15.167969 9.75 C 15.167969 8.03125 15.167969 7.4375 14.542969 6.71875 C 14.261719 6.375 13.605469 5.96875 12.449219 5.96875 C 10.761719 5.96875 9.886719 7.15625 9.542969 7.9375 L 9.542969 0.9375 L 6.667969 1.15625 L 6.667969 1.78125 C 8.074219 1.78125 8.230469 1.90625 8.230469 2.90625 Z M 8.230469 13.28125 "/>
<path style=" stroke:none;fill-rule:nonzero;fill:rgb(0%,0%,0%);fill-opacity:1;" d="M 19.332031 9.75 C 19.457031 6.78125 21.144531 6.28125 21.832031 6.28125 C 23.863281 6.28125 24.082031 8.96875 24.082031 9.75 Z M 19.332031 10.1875 L 24.894531 10.1875 C 25.332031 10.1875 25.394531 10.1875 25.394531 9.75 C 25.394531 7.78125 24.300781 5.84375 21.832031 5.84375 C 19.519531 5.84375 17.675781 7.90625 17.675781 10.40625 C 17.675781 13.0625 19.769531 15 22.050781 15 C 24.488281 15 25.394531 12.78125 25.394531 12.40625 C 25.394531 12.21875 25.238281 12.15625 25.113281 12.15625 C 24.957031 12.15625 24.894531 12.28125 24.863281 12.4375 C 24.175781 14.5 22.363281 14.5 22.175781 14.5 C 21.175781 14.5 20.394531 13.90625 19.925781 13.15625 C 19.332031 12.21875 19.332031 10.90625 19.332031 10.1875 Z M 19.332031 10.1875 "/>
<path style=" stroke:none;fill-rule:nonzero;fill:rgb(0%,0%,0%);fill-opacity:1;" d="M 34.25 8.09375 C 34.75 6.8125 35.78125 6.8125 36.09375 6.8125 L 36.09375 6.1875 C 35.625 6.21875 35.0625 6.25 34.59375 6.25 C 34.25 6.25 33.3125 6.21875 32.875 6.1875 L 32.875 6.8125 C 33.5 6.8125 33.8125 7.15625 33.8125 7.65625 C 33.8125 7.875 33.78125 7.90625 33.6875 8.15625 L 31.65625 13.03125 L 29.46875 7.6875 C 29.375 7.46875 29.34375 7.40625 29.34375 7.3125 C 29.34375 6.8125 30.0625 6.8125 30.46875 6.8125 L 30.46875 6.1875 C 29.9375 6.21875 28.625 6.25 28.28125 6.25 C 27.75 6.25 26.9375 6.21875 26.34375 6.1875 L 26.34375 6.8125 C 27.3125 6.8125 27.6875 6.8125 27.96875 7.5 L 30.96875 14.78125 C 30.84375 15.03125 30.5625 15.6875 30.46875 15.96875 C 30.03125 17.0625 29.46875 18.4375 28.1875 18.4375 C 28.09375 18.4375 27.625 18.4375 27.25 18.0625 C 27.875 18 28.03125 17.5625 28.03125 17.21875 C 28.03125 16.71875 27.65625 16.40625 27.1875 16.40625 C 26.78125 16.40625 26.34375 16.65625 26.34375 17.25 C 26.34375 18.15625 27.1875 18.875 28.1875 18.875 C 29.4375 18.875 30.25 17.71875 30.71875 16.59375 Z M 34.25 8.09375 "/>
<path style=" stroke:none;fill-rule:nonzero;fill:rgb(0%,0%,0%);fill-opacity:1;" d="M 46.558594 6.8125 L 49.433594 6.8125 L 49.433594 6.1875 L 46.558594 6.1875 L 46.558594 2.53125 L 46.058594 2.53125 C 46.058594 4.15625 45.464844 6.28125 43.496094 6.375 L 43.496094 6.8125 L 45.183594 6.8125 L 45.183594 12.3125 C 45.183594 14.75 47.058594 15 47.777344 15 C 49.183594 15 49.746094 13.59375 49.746094 12.3125 L 49.746094 11.1875 L 49.246094 11.1875 L 49.246094 12.28125 C 49.246094 13.75 48.652344 14.5 47.902344 14.5 C 46.558594 14.5 46.558594 12.6875 46.558594 12.34375 Z M 46.558594 6.8125 "/>
<path style=" stroke:none;fill-rule:nonzero;fill:rgb(0%,0%,0%);fill-opacity:1;" d="M 53.058594 13.28125 C 53.058594 14.15625 52.839844 14.15625 51.496094 14.15625 L 51.496094 14.78125 C 52.214844 14.75 53.214844 14.71875 53.777344 14.71875 C 54.277344 14.71875 55.308594 14.75 55.996094 14.78125 L 55.996094 14.15625 C 54.652344 14.15625 54.433594 14.15625 54.433594 13.28125 L 54.433594 9.59375 C 54.433594 7.53125 55.871094 6.40625 57.121094 6.40625 C 58.402344 6.40625 58.621094 7.46875 58.621094 8.625 L 58.621094 13.28125 C 58.621094 14.15625 58.402344 14.15625 57.058594 14.15625 L 57.058594 14.78125 C 57.746094 14.75 58.777344 14.71875 59.308594 14.71875 C 59.808594 14.71875 60.871094 14.75 61.527344 14.78125 L 61.527344 14.15625 C 60.496094 14.15625 59.996094 14.15625 59.996094 13.5625 L 59.996094 9.75 C 59.996094 8.03125 59.996094 7.4375 59.371094 6.71875 C 59.089844 6.375 58.433594 5.96875 57.277344 5.96875 C 55.589844 5.96875 54.714844 7.15625 54.371094 7.9375 L 54.371094 0.9375 L 51.496094 1.15625 L 51.496094 1.78125 C 52.902344 1.78125 53.058594 1.90625 53.058594 2.90625 Z M 53.058594 13.28125 "/>
<path style=" stroke:none;fill-rule:nonzero;fill:rgb(0%,0%,0%);fill-opacity:1;" d="M 64.160156 9.75 C 64.285156 6.78125 65.972656 6.28125 66.660156 6.28125 C 68.691406 6.28125 68.910156 8.96875 68.910156 9.75 Z M 64.160156 10.1875 L 69.722656 10.1875 C 70.160156 10.1875 70.222656 10.1875 70.222656 9.75 C 70.222656 7.78125 69.128906 5.84375 66.660156 5.84375 C 64.347656 5.84375 62.503906 7.90625 62.503906 10.40625 C 62.503906 13.0625 64.597656 15 66.878906 15 C 69.316406 15 70.222656 12.78125 70.222656 12.40625 C 70.222656 12.21875 70.066406 12.15625 69.941406 12.15625 C 69.785156 12.15625 69.722656 12.28125 69.691406 12.4375 C 69.003906 14.5 67.191406 14.5 67.003906 14.5 C 66.003906 14.5 65.222656 13.90625 64.753906 13.15625 C 64.160156 12.21875 64.160156 10.90625 64.160156 10.1875 Z M 64.160156 10.1875 "/>
<path style=" stroke:none;fill-rule:nonzero;fill:rgb(0%,0%,0%);fill-opacity:1;" d="M 74.140625 8.15625 L 74.140625 5.96875 L 71.359375 6.1875 L 71.359375 6.8125 C 72.765625 6.8125 72.921875 6.9375 72.921875 7.9375 L 72.921875 13.28125 C 72.921875 14.15625 72.703125 14.15625 71.359375 14.15625 L 71.359375 14.78125 C 72.140625 14.75 73.078125 14.71875 73.640625 14.71875 C 74.421875 14.71875 75.359375 14.71875 76.171875 14.78125 L 76.171875 14.15625 L 75.734375 14.15625 C 74.265625 14.15625 74.234375 13.9375 74.234375 13.21875 L 74.234375 10.15625 C 74.234375 8.1875 75.078125 6.40625 76.578125 6.40625 C 76.703125 6.40625 76.765625 6.40625 76.796875 6.4375 C 76.734375 6.4375 76.328125 6.6875 76.328125 7.21875 C 76.328125 7.75 76.765625 8.0625 77.203125 8.0625 C 77.546875 8.0625 78.046875 7.8125 78.046875 7.1875 C 78.046875 6.5625 77.421875 5.96875 76.578125 5.96875 C 75.109375 5.96875 74.390625 7.3125 74.140625 8.15625 Z M 74.140625 8.15625 "/>
<path style=" stroke:none;fill-rule:nonzero;fill:rgb(0%,0%,0%);fill-opacity:1;" d="M 80.820312 9.75 C 80.945312 6.78125 82.632812 6.28125 83.320312 6.28125 C 85.351562 6.28125 85.570312 8.96875 85.570312 9.75 Z M 80.820312 10.1875 L 86.382812 10.1875 C 86.820312 10.1875 86.882812 10.1875 86.882812 9.75 C 86.882812 7.78125 85.789062 5.84375 83.320312 5.84375 C 81.007812 5.84375 79.164062 7.90625 79.164062 10.40625 C 79.164062 13.0625 81.257812 15 83.539062 15 C 85.976562 15 86.882812 12.78125 86.882812 12.40625 C 86.882812 12.21875 86.726562 12.15625 86.601562 12.15625 C 86.445312 12.15625 86.382812 12.28125 86.351562 12.4375 C 85.664062 14.5 83.851562 14.5 83.664062 14.5 C 82.664062 14.5 81.882812 13.90625 81.414062 13.15625 C 80.820312 12.21875 80.820312 10.90625 80.820312 10.1875 Z M 80.820312 10.1875 "/>
<path style=" stroke:none;fill-rule:nonzero;fill:rgb(0%,0%,0%);fill-opacity:1;" d="M 90.515625 10.625 L 91.265625 1.53125 C 91.265625 0.875 90.734375 0.5 90.234375 0.5 C 89.703125 0.5 89.171875 0.875 89.171875 1.53125 L 89.953125 10.59375 C 89.953125 10.90625 89.984375 11.0625 90.234375 11.0625 C 90.421875 11.0625 90.484375 10.96875 90.515625 10.625 Z M 91.265625 13.71875 C 91.265625 13.15625 90.796875 12.65625 90.234375 12.65625 C 89.640625 12.65625 89.171875 13.15625 89.171875 13.71875 C 89.171875 14.3125 89.640625 14.78125 90.234375 14.78125 C 90.796875 14.78125 91.265625 14.3125 91.265625 13.71875 Z M 91.265625 13.71875 "/>
</g>
</svg>
