<?xml version="1.0" encoding="UTF-8"?>
<svg xmlns="http://www.w3.org/2000/svg" xmlns:xlink="http://www.w3.org/1999/xlink" width="189.429893pt" height="171.212598pt" viewBox="0 0 189.429893 171.212598" version="1.1">
<g id="surface41">
<path style="fill:none;stroke-width:2.267717;stroke-linecap:butt;stroke-linejoin:miter;stroke:rgb(20%,60%,20%);stroke-opacity:1;stroke-miterlimit:10;" d="M -0.0000259973 -0.000830463 L -0.0000259973 -56.692237 L 0.242162 -60.393409 L 0.966771 -64.030127 L 2.158177 -67.539893 L 3.796849 -70.866065 L 5.857396 -73.950049 L 8.302708 -76.737159 L 11.089818 -79.182471 L 14.173802 -81.241065 L 17.498021 -82.88169 L 21.00974 -84.073096 L 24.646458 -84.797705 L 28.345677 -85.039893 L 32.046849 -84.797705 L 35.683568 -84.073096 L 39.193333 -82.88169 L 42.519505 -81.241065 L 45.60349 -79.182471 L 48.390599 -76.737159 L 50.835912 -73.950049 L 52.894505 -70.866065 L 54.53513 -67.539893 L 55.726537 -64.030127 L 56.451146 -60.393409 L 56.693333 -56.692237 L 56.451146 -52.993018 L 55.726537 -49.356299 L 54.53513 -45.84458 L 52.894505 -42.520362 L 50.835912 -39.436377 L 48.390599 -36.649268 L 45.60349 -34.203955 L 42.519505 -32.143409 L 39.193333 -30.504737 L 35.683568 -29.311377 L 32.046849 -28.588721 L 28.345677 -28.346534 L 24.646458 -28.588721 L 21.00974 -29.311377 L 17.498021 -30.504737 L 14.173802 -32.143409 L -34.923854 -60.491065 " transform="matrix(2,0,0,2,74.910208,171.212598)"/>
<path style="fill:none;stroke-width:2.267717;stroke-linecap:butt;stroke-linejoin:miter;stroke:rgb(20%,60%,20%);stroke-opacity:1;stroke-miterlimit:10;" d="M -31.218776 -51.805518 L -36.888698 -61.623877 L -25.548854 -61.623877 " transform="matrix(2,0,0,2,74.910208,171.212598)"/>
</g>
</svg>
