<?xml version="1.0" encoding="UTF-8"?>
<svg xmlns="http://www.w3.org/2000/svg" xmlns:xlink="http://www.w3.org/1999/xlink" width="115.653543pt" height="171.212598pt" viewBox="0 0 115.653543 171.212598" version="1.1">
<g id="surface25">
<path style="fill:none;stroke-width:2.267717;stroke-linecap:butt;stroke-linejoin:bevel;stroke:rgb(20%,60%,20%);stroke-opacity:0.6;stroke-miterlimit:10;" d="M -0.000522884 -0.000830463 L -0.000522884 -56.692237 L 0.241665 -60.393409 L 0.966274 -64.030127 L 2.15768 -67.539893 L 3.798305 -70.866065 L 5.856899 -73.950049 L 8.302211 -76.737159 L 11.089321 -79.182471 L 14.173305 -81.241065 L 17.499477 -82.88169 L 21.009243 -84.073096 L 24.645961 -84.797705 L 28.347133 -85.039893 L 32.046352 -84.797705 L 35.683071 -84.073096 L 39.19479 -82.88169 L 42.519008 -81.241065 L 45.602993 -79.182471 L 48.390102 -76.737159 L 50.835415 -73.950049 L 52.895961 -70.866065 L 54.534633 -67.539893 L 55.727993 -64.030127 L 56.450649 -60.393409 L 56.692836 -56.692237 L 56.450649 -52.993018 L 55.727993 -49.356299 L 54.534633 -45.84458 L 52.895961 -42.520362 L 50.835415 -39.436377 L 48.390102 -36.649268 L 45.602993 -34.203955 L 42.519008 -32.143409 L 39.19479 -30.504737 L 35.683071 -29.311377 L 32.046352 -28.588721 L 28.347133 -28.346534 L 24.645961 -28.588721 L 21.009243 -29.311377 L 17.499477 -30.504737 L 14.173305 -32.143409 " transform="matrix(2,0,0,2,1.133858,171.212598)"/>
<path style="fill:none;stroke-width:2.267717;stroke-linecap:butt;stroke-linejoin:bevel;stroke:rgb(20%,60%,20%);stroke-opacity:0.6;stroke-miterlimit:10;" d="M 17.878383 -23.457862 L 12.208461 -33.278174 L 23.548305 -33.278174 " transform="matrix(2,0,0,2,1.133858,171.212598)"/>
</g>
</svg>
