<?xml version="1.0" encoding="UTF-8"?>
<svg xmlns="http://www.w3.org/2000/svg" xmlns:xlink="http://www.w3.org/1999/xlink" width="433.803148pt" height="120.055118pt" viewBox="0 0 433.803148 120.055118" version="1.1">
<g id="surface121">
<path style="fill:none;stroke-width:0.566929;stroke-linecap:butt;stroke-linejoin:miter;stroke:rgb(100%,0%,0%);stroke-opacity:0.5;stroke-miterlimit:10;" d="M -2.8338 2.834523 L 2.834169 -2.835399 " transform="matrix(2,0,0,2,5.952756,62.862205)"/>
<path style="fill:none;stroke-width:0.566929;stroke-linecap:butt;stroke-linejoin:miter;stroke:rgb(100%,0%,0%);stroke-opacity:0.5;stroke-miterlimit:10;" d="M 2.834169 2.834523 L -2.8338 -2.835399 " transform="matrix(2,0,0,2,5.952756,62.862205)"/>
<path style="fill-rule:nonzero;fill:rgb(50%,50%,0%);fill-opacity:0.1;stroke-width:0.566929;stroke-linecap:butt;stroke-linejoin:miter;stroke:rgb(100%,0%,0%);stroke-opacity:0.5;stroke-miterlimit:10;" d="M 0.000184547 28.346241 L 213.675966 28.346241 L 213.675966 -28.347118 L 0.000184547 -28.347118 Z M 0.000184547 28.346241 " transform="matrix(2,0,0,2,5.952756,62.862205)"/>
<path style="fill:none;stroke-width:0.566929;stroke-linecap:butt;stroke-linejoin:miter;stroke:rgb(100%,0%,0%);stroke-opacity:0.5;stroke-miterlimit:10;" d="M 39.685731 2.834523 L 45.3537 -2.835399 " transform="matrix(2,0,0,2,5.952756,62.862205)"/>
<path style="fill:none;stroke-width:0.566929;stroke-linecap:butt;stroke-linejoin:miter;stroke:rgb(100%,0%,0%);stroke-opacity:0.5;stroke-miterlimit:10;" d="M 45.3537 2.834523 L 39.685731 -2.835399 " transform="matrix(2,0,0,2,5.952756,62.862205)"/>
<path style="fill-rule:nonzero;fill:rgb(50%,50%,0%);fill-opacity:0.1;stroke-width:0.566929;stroke-linecap:butt;stroke-linejoin:miter;stroke:rgb(100%,0%,0%);stroke-opacity:0.5;stroke-miterlimit:10;" d="M 0.000184547 28.346241 L 85.039247 28.346241 L 85.039247 -28.347118 L 0.000184547 -28.347118 Z M 0.000184547 28.346241 " transform="matrix(2,0,0,2,5.952756,62.862205)"/>
<path style="fill:none;stroke-width:0.566929;stroke-linecap:butt;stroke-linejoin:miter;stroke:rgb(100%,0%,0%);stroke-opacity:0.5;stroke-miterlimit:10;" d="M -2.8338 -25.51118 L 2.834169 -31.181102 " transform="matrix(2,0,0,2,5.952756,62.862205)"/>
<path style="fill:none;stroke-width:0.566929;stroke-linecap:butt;stroke-linejoin:miter;stroke:rgb(100%,0%,0%);stroke-opacity:0.5;stroke-miterlimit:10;" d="M 2.834169 -25.51118 L -2.8338 -31.181102 " transform="matrix(2,0,0,2,5.952756,62.862205)"/>
<path style="fill-rule:nonzero;fill:rgb(50%,50%,0%);fill-opacity:0.1;stroke-width:0.566929;stroke-linecap:butt;stroke-linejoin:miter;stroke:rgb(100%,0%,0%);stroke-opacity:0.5;stroke-miterlimit:10;" d="M 0.000184547 28.346241 L 85.039247 28.346241 L 85.039247 -28.347118 L 0.000184547 -28.347118 Z M 0.000184547 28.346241 " transform="matrix(2,0,0,2,5.952756,62.862205)"/>
<path style="fill:none;stroke-width:0.566929;stroke-linecap:butt;stroke-linejoin:miter;stroke:rgb(100%,0%,0%);stroke-opacity:0.5;stroke-miterlimit:10;" d="M -2.8338 -11.351024 L 2.834169 -17.020946 " transform="matrix(2,0,0,2,5.952756,62.862205)"/>
<path style="fill:none;stroke-width:0.566929;stroke-linecap:butt;stroke-linejoin:miter;stroke:rgb(100%,0%,0%);stroke-opacity:0.5;stroke-miterlimit:10;" d="M 2.834169 -11.351024 L -2.8338 -17.020946 " transform="matrix(2,0,0,2,5.952756,62.862205)"/>
<path style="fill-rule:nonzero;fill:rgb(50%,50%,0%);fill-opacity:0.1;stroke-width:0.566929;stroke-linecap:butt;stroke-linejoin:miter;stroke:rgb(100%,0%,0%);stroke-opacity:0.5;stroke-miterlimit:10;" d="M 0.000184547 0.000538361 L 85.039247 0.000538361 L 85.039247 -28.347118 L 0.000184547 -28.347118 Z M 0.000184547 0.000538361 " transform="matrix(2,0,0,2,5.952756,62.862205)"/>
<path style="fill:none;stroke-width:0.566929;stroke-linecap:butt;stroke-linejoin:miter;stroke:rgb(100%,0%,0%);stroke-opacity:0.5;stroke-miterlimit:10;" d="M 11.431825 -11.351024 L 17.101747 -17.020946 " transform="matrix(2,0,0,2,5.952756,62.862205)"/>
<path style="fill:none;stroke-width:0.566929;stroke-linecap:butt;stroke-linejoin:miter;stroke:rgb(100%,0%,0%);stroke-opacity:0.5;stroke-miterlimit:10;" d="M 17.101747 -11.351024 L 11.431825 -17.020946 " transform="matrix(2,0,0,2,5.952756,62.862205)"/>
<path style="fill-rule:nonzero;fill:rgb(50%,50%,0%);fill-opacity:0.1;stroke-width:0.566929;stroke-linecap:butt;stroke-linejoin:miter;stroke:rgb(100%,0%,0%);stroke-opacity:0.5;stroke-miterlimit:10;" d="M 0.000184547 0.000538361 L 28.345888 0.000538361 L 28.345888 -28.347118 L 0.000184547 -28.347118 Z M 0.000184547 0.000538361 " transform="matrix(2,0,0,2,5.952756,62.862205)"/>
<path style="fill:none;stroke-width:0.566929;stroke-linecap:butt;stroke-linejoin:miter;stroke:rgb(0%,0%,0%);stroke-opacity:1;stroke-miterlimit:10;" d="M 14.174013 0.0278821 L 14.174013 -28.374462 " transform="matrix(2,0,0,2,5.952756,62.862205)"/>
<path style="fill:none;stroke-width:0.566929;stroke-linecap:butt;stroke-linejoin:miter;stroke:rgb(100%,0%,0%);stroke-opacity:0.5;stroke-miterlimit:10;" d="M 51.017763 -11.351024 L 56.687685 -17.020946 " transform="matrix(2,0,0,2,5.952756,62.862205)"/>
<path style="fill:none;stroke-width:0.566929;stroke-linecap:butt;stroke-linejoin:miter;stroke:rgb(100%,0%,0%);stroke-opacity:0.5;stroke-miterlimit:10;" d="M 56.687685 -11.351024 L 51.017763 -17.020946 " transform="matrix(2,0,0,2,5.952756,62.862205)"/>
<path style="fill-rule:nonzero;fill:rgb(50%,50%,0%);fill-opacity:0.1;stroke-width:0.566929;stroke-linecap:butt;stroke-linejoin:miter;stroke:rgb(100%,0%,0%);stroke-opacity:0.5;stroke-miterlimit:10;" d="M 28.345888 0.000538361 L 85.039247 0.000538361 L 85.039247 -28.347118 L 28.345888 -28.347118 Z M 28.345888 0.000538361 " transform="matrix(2,0,0,2,5.952756,62.862205)"/>
<path style="fill:none;stroke-width:0.566929;stroke-linecap:butt;stroke-linejoin:miter;stroke:rgb(0%,0%,0%);stroke-opacity:1;stroke-miterlimit:10;" d="M 70.865419 0.0278821 C 70.865419 -7.800243 64.519716 -14.143993 56.693544 -14.143993 C 48.865419 -14.143993 42.519716 -7.800243 42.519716 0.0278821 " transform="matrix(2,0,0,2,5.952756,62.862205)"/>
<path style="fill:none;stroke-width:0.566929;stroke-linecap:butt;stroke-linejoin:miter;stroke:rgb(100%,0%,0%);stroke-opacity:0.5;stroke-miterlimit:10;" d="M -2.8338 17.211476 L 2.834169 11.541554 " transform="matrix(2,0,0,2,5.952756,62.862205)"/>
<path style="fill:none;stroke-width:0.566929;stroke-linecap:butt;stroke-linejoin:miter;stroke:rgb(100%,0%,0%);stroke-opacity:0.5;stroke-miterlimit:10;" d="M 2.834169 17.211476 L -2.8338 11.541554 " transform="matrix(2,0,0,2,5.952756,62.862205)"/>
<path style="fill-rule:nonzero;fill:rgb(50%,50%,0%);fill-opacity:0.1;stroke-width:0.566929;stroke-linecap:butt;stroke-linejoin:miter;stroke:rgb(100%,0%,0%);stroke-opacity:0.5;stroke-miterlimit:10;" d="M 0.000184547 28.346241 L 85.039247 28.346241 L 85.039247 0.000538361 L 0.000184547 0.000538361 Z M 0.000184547 28.346241 " transform="matrix(2,0,0,2,5.952756,62.862205)"/>
<path style="fill:none;stroke-width:0.566929;stroke-linecap:butt;stroke-linejoin:miter;stroke:rgb(100%,0%,0%);stroke-opacity:0.5;stroke-miterlimit:10;" d="M 22.88495 17.211476 L 28.554872 11.541554 " transform="matrix(2,0,0,2,5.952756,62.862205)"/>
<path style="fill:none;stroke-width:0.566929;stroke-linecap:butt;stroke-linejoin:miter;stroke:rgb(100%,0%,0%);stroke-opacity:0.5;stroke-miterlimit:10;" d="M 28.554872 17.211476 L 22.88495 11.541554 " transform="matrix(2,0,0,2,5.952756,62.862205)"/>
<path style="fill-rule:nonzero;fill:rgb(50%,50%,0%);fill-opacity:0.1;stroke-width:0.566929;stroke-linecap:butt;stroke-linejoin:miter;stroke:rgb(100%,0%,0%);stroke-opacity:0.5;stroke-miterlimit:10;" d="M 0.000184547 28.346241 L 56.693544 28.346241 L 56.693544 0.000538361 L 0.000184547 0.000538361 Z M 0.000184547 28.346241 " transform="matrix(2,0,0,2,5.952756,62.862205)"/>
<path style="fill:none;stroke-width:0.566929;stroke-linecap:butt;stroke-linejoin:miter;stroke:rgb(0%,0%,0%);stroke-opacity:1;stroke-miterlimit:10;" d="M 14.174013 -0.0287585 C 14.174013 7.799366 20.519716 14.14507 28.345888 14.14507 C 36.174013 14.14507 42.519716 7.799366 42.519716 -0.0287585 " transform="matrix(2,0,0,2,5.952756,62.862205)"/>
<path style="fill:none;stroke-width:0.566929;stroke-linecap:butt;stroke-linejoin:miter;stroke:rgb(100%,0%,0%);stroke-opacity:0.5;stroke-miterlimit:10;" d="M 67.019716 17.211476 L 72.689638 11.541554 " transform="matrix(2,0,0,2,5.952756,62.862205)"/>
<path style="fill:none;stroke-width:0.566929;stroke-linecap:butt;stroke-linejoin:miter;stroke:rgb(100%,0%,0%);stroke-opacity:0.5;stroke-miterlimit:10;" d="M 72.689638 17.211476 L 67.019716 11.541554 " transform="matrix(2,0,0,2,5.952756,62.862205)"/>
<path style="fill-rule:nonzero;fill:rgb(50%,50%,0%);fill-opacity:0.1;stroke-width:0.566929;stroke-linecap:butt;stroke-linejoin:miter;stroke:rgb(100%,0%,0%);stroke-opacity:0.5;stroke-miterlimit:10;" d="M 56.693544 28.346241 L 85.039247 28.346241 L 85.039247 0.000538361 L 56.693544 0.000538361 Z M 56.693544 28.346241 " transform="matrix(2,0,0,2,5.952756,62.862205)"/>
<path style="fill:none;stroke-width:0.566929;stroke-linecap:butt;stroke-linejoin:miter;stroke:rgb(0%,0%,0%);stroke-opacity:1;stroke-miterlimit:10;" d="M 70.865419 28.375538 L 70.865419 -0.0287585 " transform="matrix(2,0,0,2,5.952756,62.862205)"/>
<path style="fill:none;stroke-width:0.566929;stroke-linecap:butt;stroke-linejoin:miter;stroke:rgb(100%,0%,0%);stroke-opacity:0.5;stroke-miterlimit:10;" d="M 86.017763 2.834523 L 91.685731 -2.835399 " transform="matrix(2,0,0,2,5.952756,62.862205)"/>
<path style="fill:none;stroke-width:0.566929;stroke-linecap:butt;stroke-linejoin:miter;stroke:rgb(100%,0%,0%);stroke-opacity:0.5;stroke-miterlimit:10;" d="M 91.685731 2.834523 L 86.017763 -2.835399 " transform="matrix(2,0,0,2,5.952756,62.862205)"/>
<path style="fill-rule:nonzero;fill:rgb(50%,50%,0%);fill-opacity:0.1;stroke-width:0.566929;stroke-linecap:butt;stroke-linejoin:miter;stroke:rgb(100%,0%,0%);stroke-opacity:0.5;stroke-miterlimit:10;" d="M 85.039247 2.328663 L 92.664247 2.328663 L 92.664247 -2.327587 L 85.039247 -2.327587 Z M 85.039247 2.328663 " transform="matrix(2,0,0,2,5.952756,62.862205)"/>
<path style="fill:none;stroke-width:0.566929;stroke-linecap:butt;stroke-linejoin:miter;stroke:rgb(100%,0%,0%);stroke-opacity:0.5;stroke-miterlimit:10;" d="M 82.205263 5.162648 L 87.873231 -0.507274 " transform="matrix(2,0,0,2,5.952756,62.862205)"/>
<path style="fill:none;stroke-width:0.566929;stroke-linecap:butt;stroke-linejoin:miter;stroke:rgb(100%,0%,0%);stroke-opacity:0.5;stroke-miterlimit:10;" d="M 87.873231 5.162648 L 82.205263 -0.507274 " transform="matrix(2,0,0,2,5.952756,62.862205)"/>
<path style="fill-rule:nonzero;fill:rgb(50%,50%,0%);fill-opacity:0.1;stroke-width:0.566929;stroke-linecap:butt;stroke-linejoin:miter;stroke:rgb(100%,0%,0%);stroke-opacity:0.5;stroke-miterlimit:10;" d="M 85.039247 2.328663 L 92.664247 2.328663 L 92.664247 -2.327587 L 85.039247 -2.327587 Z M 85.039247 2.328663 " transform="matrix(2,0,0,2,5.952756,62.862205)"/>
<path style=" stroke:none;fill-rule:nonzero;fill:rgb(0%,0%,0%);fill-opacity:1;" d="M 189.59375 59.988281 C 189.90625 59.988281 190.28125 59.988281 190.28125 59.613281 C 190.28125 59.207031 189.90625 59.207031 189.625 59.207031 L 177.6875 59.207031 C 177.40625 59.207031 177.03125 59.207031 177.03125 59.613281 C 177.03125 59.988281 177.40625 59.988281 177.6875 59.988281 Z M 189.625 63.863281 C 189.90625 63.863281 190.28125 63.863281 190.28125 63.457031 C 190.28125 63.082031 189.90625 63.082031 189.59375 63.082031 L 177.6875 63.082031 C 177.40625 63.082031 177.03125 63.082031 177.03125 63.457031 C 177.03125 63.863281 177.40625 63.863281 177.6875 63.863281 Z M 189.625 63.863281 "/>
<path style="fill:none;stroke-width:0.566929;stroke-linecap:butt;stroke-linejoin:miter;stroke:rgb(100%,0%,0%);stroke-opacity:0.5;stroke-miterlimit:10;" d="M 104.002138 2.834523 L 109.67206 -2.835399 " transform="matrix(2,0,0,2,5.952756,62.862205)"/>
<path style="fill:none;stroke-width:0.566929;stroke-linecap:butt;stroke-linejoin:miter;stroke:rgb(100%,0%,0%);stroke-opacity:0.5;stroke-miterlimit:10;" d="M 109.67206 2.834523 L 104.002138 -2.835399 " transform="matrix(2,0,0,2,5.952756,62.862205)"/>
<path style="fill-rule:nonzero;fill:rgb(50%,50%,0%);fill-opacity:0.1;stroke-width:0.566929;stroke-linecap:butt;stroke-linejoin:miter;stroke:rgb(100%,0%,0%);stroke-opacity:0.5;stroke-miterlimit:10;" d="M 92.664247 28.346241 L 121.00995 28.346241 L 121.00995 -28.347118 L 92.664247 -28.347118 Z M 92.664247 28.346241 " transform="matrix(2,0,0,2,5.952756,62.862205)"/>
<path style="fill:none;stroke-width:0.566929;stroke-linecap:butt;stroke-linejoin:miter;stroke:rgb(100%,0%,0%);stroke-opacity:0.5;stroke-miterlimit:10;" d="M 103.73456 2.834523 L 109.402528 -2.835399 " transform="matrix(2,0,0,2,5.952756,62.862205)"/>
<path style="fill:none;stroke-width:0.566929;stroke-linecap:butt;stroke-linejoin:miter;stroke:rgb(100%,0%,0%);stroke-opacity:0.5;stroke-miterlimit:10;" d="M 109.402528 2.834523 L 103.73456 -2.835399 " transform="matrix(2,0,0,2,5.952756,62.862205)"/>
<path style="fill-rule:nonzero;fill:rgb(50%,50%,0%);fill-opacity:0.1;stroke-width:0.566929;stroke-linecap:butt;stroke-linejoin:miter;stroke:rgb(100%,0%,0%);stroke-opacity:0.5;stroke-miterlimit:10;" d="M 92.664247 28.346241 L 121.00995 28.346241 L 121.00995 -28.347118 L 92.664247 -28.347118 Z M 92.664247 28.346241 " transform="matrix(2,0,0,2,5.952756,62.862205)"/>
<path style="fill:none;stroke-width:0.566929;stroke-linecap:butt;stroke-linejoin:miter;stroke:rgb(0%,0%,0%);stroke-opacity:1;stroke-miterlimit:10;" d="M 106.838075 28.375538 L 106.838075 -28.374462 " transform="matrix(2,0,0,2,5.952756,62.862205)"/>
<path style="fill:none;stroke-width:0.566929;stroke-linecap:butt;stroke-linejoin:miter;stroke:rgb(100%,0%,0%);stroke-opacity:0.5;stroke-miterlimit:10;" d="M 121.988466 2.834523 L 127.658388 -2.835399 " transform="matrix(2,0,0,2,5.952756,62.862205)"/>
<path style="fill:none;stroke-width:0.566929;stroke-linecap:butt;stroke-linejoin:miter;stroke:rgb(100%,0%,0%);stroke-opacity:0.5;stroke-miterlimit:10;" d="M 127.658388 2.834523 L 121.988466 -2.835399 " transform="matrix(2,0,0,2,5.952756,62.862205)"/>
<path style="fill-rule:nonzero;fill:rgb(50%,50%,0%);fill-opacity:0.1;stroke-width:0.566929;stroke-linecap:butt;stroke-linejoin:miter;stroke:rgb(100%,0%,0%);stroke-opacity:0.5;stroke-miterlimit:10;" d="M 121.00995 2.328663 L 128.63495 2.328663 L 128.63495 -2.327587 L 121.00995 -2.327587 Z M 121.00995 2.328663 " transform="matrix(2,0,0,2,5.952756,62.862205)"/>
<path style="fill:none;stroke-width:0.566929;stroke-linecap:butt;stroke-linejoin:miter;stroke:rgb(100%,0%,0%);stroke-opacity:0.5;stroke-miterlimit:10;" d="M 118.175966 5.162648 L 123.845888 -0.507274 " transform="matrix(2,0,0,2,5.952756,62.862205)"/>
<path style="fill:none;stroke-width:0.566929;stroke-linecap:butt;stroke-linejoin:miter;stroke:rgb(100%,0%,0%);stroke-opacity:0.5;stroke-miterlimit:10;" d="M 123.845888 5.162648 L 118.175966 -0.507274 " transform="matrix(2,0,0,2,5.952756,62.862205)"/>
<path style="fill-rule:nonzero;fill:rgb(50%,50%,0%);fill-opacity:0.1;stroke-width:0.566929;stroke-linecap:butt;stroke-linejoin:miter;stroke:rgb(100%,0%,0%);stroke-opacity:0.5;stroke-miterlimit:10;" d="M 121.00995 2.328663 L 128.63495 2.328663 L 128.63495 -2.327587 L 121.00995 -2.327587 Z M 121.00995 2.328663 " transform="matrix(2,0,0,2,5.952756,62.862205)"/>
<path style=" stroke:none;fill-rule:nonzero;fill:rgb(0%,0%,0%);fill-opacity:1;" d="M 261.535156 59.988281 C 261.847656 59.988281 262.222656 59.988281 262.222656 59.613281 C 262.222656 59.207031 261.847656 59.207031 261.566406 59.207031 L 249.628906 59.207031 C 249.347656 59.207031 248.972656 59.207031 248.972656 59.613281 C 248.972656 59.988281 249.347656 59.988281 249.628906 59.988281 Z M 261.566406 63.863281 C 261.847656 63.863281 262.222656 63.863281 262.222656 63.457031 C 262.222656 63.082031 261.847656 63.082031 261.535156 63.082031 L 249.628906 63.082031 C 249.347656 63.082031 248.972656 63.082031 248.972656 63.457031 C 248.972656 63.863281 249.347656 63.863281 249.628906 63.863281 Z M 261.566406 63.863281 "/>
<path style="fill:none;stroke-width:0.566929;stroke-linecap:butt;stroke-linejoin:miter;stroke:rgb(100%,0%,0%);stroke-opacity:0.5;stroke-miterlimit:10;" d="M 168.320497 2.834523 L 173.990419 -2.835399 " transform="matrix(2,0,0,2,5.952756,62.862205)"/>
<path style="fill:none;stroke-width:0.566929;stroke-linecap:butt;stroke-linejoin:miter;stroke:rgb(100%,0%,0%);stroke-opacity:0.5;stroke-miterlimit:10;" d="M 173.990419 2.834523 L 168.320497 -2.835399 " transform="matrix(2,0,0,2,5.952756,62.862205)"/>
<path style="fill-rule:nonzero;fill:rgb(50%,50%,0%);fill-opacity:0.1;stroke-width:0.566929;stroke-linecap:butt;stroke-linejoin:miter;stroke:rgb(100%,0%,0%);stroke-opacity:0.5;stroke-miterlimit:10;" d="M 128.63495 28.346241 L 213.675966 28.346241 L 213.675966 -28.347118 L 128.63495 -28.347118 Z M 128.63495 28.346241 " transform="matrix(2,0,0,2,5.952756,62.862205)"/>
<path style="fill:none;stroke-width:0.566929;stroke-linecap:butt;stroke-linejoin:miter;stroke:rgb(100%,0%,0%);stroke-opacity:0.5;stroke-miterlimit:10;" d="M 125.800966 -25.51118 L 131.470888 -31.181102 " transform="matrix(2,0,0,2,5.952756,62.862205)"/>
<path style="fill:none;stroke-width:0.566929;stroke-linecap:butt;stroke-linejoin:miter;stroke:rgb(100%,0%,0%);stroke-opacity:0.5;stroke-miterlimit:10;" d="M 131.470888 -25.51118 L 125.800966 -31.181102 " transform="matrix(2,0,0,2,5.952756,62.862205)"/>
<path style="fill-rule:nonzero;fill:rgb(50%,50%,0%);fill-opacity:0.1;stroke-width:0.566929;stroke-linecap:butt;stroke-linejoin:miter;stroke:rgb(100%,0%,0%);stroke-opacity:0.5;stroke-miterlimit:10;" d="M 128.63495 28.346241 L 213.675966 28.346241 L 213.675966 -28.347118 L 128.63495 -28.347118 Z M 128.63495 28.346241 " transform="matrix(2,0,0,2,5.952756,62.862205)"/>
<path style="fill:none;stroke-width:0.566929;stroke-linecap:butt;stroke-linejoin:miter;stroke:rgb(100%,0%,0%);stroke-opacity:0.5;stroke-miterlimit:10;" d="M 125.800966 -11.39204 L 131.470888 -17.061962 " transform="matrix(2,0,0,2,5.952756,62.862205)"/>
<path style="fill:none;stroke-width:0.566929;stroke-linecap:butt;stroke-linejoin:miter;stroke:rgb(100%,0%,0%);stroke-opacity:0.5;stroke-miterlimit:10;" d="M 131.470888 -11.39204 L 125.800966 -17.061962 " transform="matrix(2,0,0,2,5.952756,62.862205)"/>
<path style="fill-rule:nonzero;fill:rgb(50%,50%,0%);fill-opacity:0.1;stroke-width:0.566929;stroke-linecap:butt;stroke-linejoin:miter;stroke:rgb(100%,0%,0%);stroke-opacity:0.5;stroke-miterlimit:10;" d="M 128.63495 0.000538361 L 213.675966 0.000538361 L 213.675966 -28.347118 L 128.63495 -28.347118 Z M 128.63495 0.000538361 " transform="matrix(2,0,0,2,5.952756,62.862205)"/>
<path style="fill:none;stroke-width:0.566929;stroke-linecap:butt;stroke-linejoin:miter;stroke:rgb(100%,0%,0%);stroke-opacity:0.5;stroke-miterlimit:10;" d="M 148.554872 -11.39204 L 154.224794 -17.061962 " transform="matrix(2,0,0,2,5.952756,62.862205)"/>
<path style="fill:none;stroke-width:0.566929;stroke-linecap:butt;stroke-linejoin:miter;stroke:rgb(100%,0%,0%);stroke-opacity:0.5;stroke-miterlimit:10;" d="M 154.224794 -11.39204 L 148.554872 -17.061962 " transform="matrix(2,0,0,2,5.952756,62.862205)"/>
<path style="fill-rule:nonzero;fill:rgb(50%,50%,0%);fill-opacity:0.1;stroke-width:0.566929;stroke-linecap:butt;stroke-linejoin:miter;stroke:rgb(100%,0%,0%);stroke-opacity:0.5;stroke-miterlimit:10;" d="M 128.63495 0.000538361 L 185.32831 0.000538361 L 185.32831 -28.347118 L 128.63495 -28.347118 Z M 128.63495 0.000538361 " transform="matrix(2,0,0,2,5.952756,62.862205)"/>
<path style="fill:none;stroke-width:0.566929;stroke-linecap:butt;stroke-linejoin:miter;stroke:rgb(0%,0%,0%);stroke-opacity:1;stroke-miterlimit:10;" d="M 171.156435 0.0278821 C 171.156435 -7.800243 164.810731 -14.143993 156.982606 -14.143993 C 149.154481 -14.143993 142.808778 -7.800243 142.808778 0.0278821 " transform="matrix(2,0,0,2,5.952756,62.862205)"/>
<path style="fill:none;stroke-width:0.566929;stroke-linecap:butt;stroke-linejoin:miter;stroke:rgb(100%,0%,0%);stroke-opacity:0.5;stroke-miterlimit:10;" d="M 195.213075 -11.39204 L 200.882997 -17.061962 " transform="matrix(2,0,0,2,5.952756,62.862205)"/>
<path style="fill:none;stroke-width:0.566929;stroke-linecap:butt;stroke-linejoin:miter;stroke:rgb(100%,0%,0%);stroke-opacity:0.5;stroke-miterlimit:10;" d="M 200.882997 -11.39204 L 195.213075 -17.061962 " transform="matrix(2,0,0,2,5.952756,62.862205)"/>
<path style="fill-rule:nonzero;fill:rgb(50%,50%,0%);fill-opacity:0.1;stroke-width:0.566929;stroke-linecap:butt;stroke-linejoin:miter;stroke:rgb(100%,0%,0%);stroke-opacity:0.5;stroke-miterlimit:10;" d="M 185.32831 0.000538361 L 213.675966 0.000538361 L 213.675966 -28.347118 L 185.32831 -28.347118 Z M 185.32831 0.000538361 " transform="matrix(2,0,0,2,5.952756,62.862205)"/>
<path style="fill:none;stroke-width:0.566929;stroke-linecap:butt;stroke-linejoin:miter;stroke:rgb(0%,0%,0%);stroke-opacity:1;stroke-miterlimit:10;" d="M 199.502138 0.0278821 L 199.502138 -28.374462 " transform="matrix(2,0,0,2,5.952756,62.862205)"/>
<path style="fill:none;stroke-width:0.566929;stroke-linecap:butt;stroke-linejoin:miter;stroke:rgb(100%,0%,0%);stroke-opacity:0.5;stroke-miterlimit:10;" d="M 125.800966 17.17046 L 131.470888 11.500538 " transform="matrix(2,0,0,2,5.952756,62.862205)"/>
<path style="fill:none;stroke-width:0.566929;stroke-linecap:butt;stroke-linejoin:miter;stroke:rgb(100%,0%,0%);stroke-opacity:0.5;stroke-miterlimit:10;" d="M 131.470888 17.17046 L 125.800966 11.500538 " transform="matrix(2,0,0,2,5.952756,62.862205)"/>
<path style="fill-rule:nonzero;fill:rgb(50%,50%,0%);fill-opacity:0.1;stroke-width:0.566929;stroke-linecap:butt;stroke-linejoin:miter;stroke:rgb(100%,0%,0%);stroke-opacity:0.5;stroke-miterlimit:10;" d="M 128.63495 28.346241 L 213.675966 28.346241 L 213.675966 0.000538361 L 128.63495 0.000538361 Z M 128.63495 28.346241 " transform="matrix(2,0,0,2,5.952756,62.862205)"/>
<path style="fill:none;stroke-width:0.566929;stroke-linecap:butt;stroke-linejoin:miter;stroke:rgb(100%,0%,0%);stroke-opacity:0.5;stroke-miterlimit:10;" d="M 138.664247 17.17046 L 144.334169 11.500538 " transform="matrix(2,0,0,2,5.952756,62.862205)"/>
<path style="fill:none;stroke-width:0.566929;stroke-linecap:butt;stroke-linejoin:miter;stroke:rgb(100%,0%,0%);stroke-opacity:0.5;stroke-miterlimit:10;" d="M 144.334169 17.17046 L 138.664247 11.500538 " transform="matrix(2,0,0,2,5.952756,62.862205)"/>
<path style="fill-rule:nonzero;fill:rgb(50%,50%,0%);fill-opacity:0.1;stroke-width:0.566929;stroke-linecap:butt;stroke-linejoin:miter;stroke:rgb(100%,0%,0%);stroke-opacity:0.5;stroke-miterlimit:10;" d="M 128.63495 28.346241 L 156.982606 28.346241 L 156.982606 0.000538361 L 128.63495 0.000538361 Z M 128.63495 28.346241 " transform="matrix(2,0,0,2,5.952756,62.862205)"/>
<path style="fill:none;stroke-width:0.566929;stroke-linecap:butt;stroke-linejoin:miter;stroke:rgb(0%,0%,0%);stroke-opacity:1;stroke-miterlimit:10;" d="M 142.808778 28.375538 L 142.808778 -0.0287585 " transform="matrix(2,0,0,2,5.952756,62.862205)"/>
<path style="fill:none;stroke-width:0.566929;stroke-linecap:butt;stroke-linejoin:miter;stroke:rgb(100%,0%,0%);stroke-opacity:0.5;stroke-miterlimit:10;" d="M 176.929872 17.17046 L 182.597841 11.500538 " transform="matrix(2,0,0,2,5.952756,62.862205)"/>
<path style="fill:none;stroke-width:0.566929;stroke-linecap:butt;stroke-linejoin:miter;stroke:rgb(100%,0%,0%);stroke-opacity:0.5;stroke-miterlimit:10;" d="M 182.597841 17.17046 L 176.929872 11.500538 " transform="matrix(2,0,0,2,5.952756,62.862205)"/>
<path style="fill-rule:nonzero;fill:rgb(50%,50%,0%);fill-opacity:0.1;stroke-width:0.566929;stroke-linecap:butt;stroke-linejoin:miter;stroke:rgb(100%,0%,0%);stroke-opacity:0.5;stroke-miterlimit:10;" d="M 156.982606 28.346241 L 213.675966 28.346241 L 213.675966 0.000538361 L 156.982606 0.000538361 Z M 156.982606 28.346241 " transform="matrix(2,0,0,2,5.952756,62.862205)"/>
<path style="fill:none;stroke-width:0.566929;stroke-linecap:butt;stroke-linejoin:miter;stroke:rgb(0%,0%,0%);stroke-opacity:1;stroke-miterlimit:10;" d="M 171.156435 -0.0287585 C 171.156435 7.799366 177.500185 14.14507 185.32831 14.14507 C 193.156435 14.14507 199.502138 7.799366 199.502138 -0.0287585 " transform="matrix(2,0,0,2,5.952756,62.862205)"/>
</g>
</svg>
