<?xml version="1.0" encoding="UTF-8"?>
<svg xmlns="http://www.w3.org/2000/svg" xmlns:xlink="http://www.w3.org/1999/xlink" width="194pt" height="173pt" viewBox="0 0 194 173" version="1.1">
<g id="surface74">
<path style="fill:none;stroke-width:2.267717;stroke-linecap:butt;stroke-linejoin:miter;stroke:rgb(20%,60%,20%);stroke-opacity:1;stroke-miterlimit:10;" d="M 0 0 L 0 -56.693359 L 0.242188 -60.392578 L 0.966797 -64.029297 L 2.158203 -67.541016 L 3.796875 -70.865234 L 5.857422 -73.949219 L 8.302734 -76.736328 L 11.089844 -79.181641 L 14.173828 -81.242188 L 17.498047 -82.880859 L 21.009766 -84.074219 L 24.646484 -84.796875 L 28.345703 -85.039062 L 32.046875 -84.796875 L 35.683594 -84.074219 L 39.193359 -82.880859 L 42.519531 -81.242188 L 45.603516 -79.181641 L 48.390625 -76.736328 L 50.835938 -73.949219 L 52.894531 -70.865234 L 54.535156 -67.541016 L 55.726562 -64.029297 L 56.451172 -60.392578 L 56.693359 -56.693359 L 56.451172 -52.992188 L 55.726562 -49.355469 L 54.535156 -45.845703 L 52.894531 -42.519531 L 50.835938 -39.4375 L 48.390625 -36.648438 L 45.603516 -34.205078 L 42.519531 -32.144531 L 39.193359 -30.503906 L 35.683594 -29.3125 L 32.046875 -28.589844 L 28.345703 -28.345703 L 24.646484 -28.589844 L 21.009766 -29.3125 L 17.498047 -30.503906 L 14.173828 -32.144531 L -34.923828 -60.490234 " transform="matrix(2,0,0,2,78,173)"/>
<path style="fill:none;stroke-width:2.267717;stroke-linecap:butt;stroke-linejoin:miter;stroke:rgb(20%,60%,20%);stroke-opacity:1;stroke-miterlimit:10;" d="M -31.21875 -51.804688 L -36.888672 -61.625 L -25.548828 -61.625 " transform="matrix(2,0,0,2,78,173)"/>
</g>
</svg>
