<?xml version="1.0" encoding="UTF-8"?>
<svg xmlns="http://www.w3.org/2000/svg" xmlns:xlink="http://www.w3.org/1999/xlink" width="214.284076pt" height="214.284076pt" viewBox="0 0 214.284076 214.284076" version="1.1">
<g id="surface17">
<path style="fill:none;stroke-width:2.267717;stroke-linecap:butt;stroke-linejoin:bevel;stroke:rgb(20%,60%,20%);stroke-opacity:0.6;stroke-miterlimit:10;" d="M -0.000885873 0.000948998 L -0.000885873 -85.040067 L 11.004974 -43.967801 L 40.768645 7.58298 " transform="matrix(2,0,0,2,48.064272,197.982477)"/>
<path style="fill:none;stroke-width:2.267717;stroke-linecap:butt;stroke-linejoin:bevel;stroke:rgb(20%,60%,20%);stroke-opacity:0.6;stroke-miterlimit:10;" d="M 40.768645 7.58298 L -19.364167 -52.547879 L 17.460052 -31.288114 L 74.960052 -15.881864 " transform="matrix(2,0,0,2,48.064272,197.982477)"/>
<path style="fill:none;stroke-width:2.267717;stroke-linecap:butt;stroke-linejoin:bevel;stroke:rgb(20%,60%,20%);stroke-opacity:0.6;stroke-miterlimit:10;" d="M 74.960052 -15.881864 L -10.080964 -15.881864 L 30.991302 -26.88577 L 82.542083 -56.649442 " transform="matrix(2,0,0,2,48.064272,197.982477)"/>
<path style="fill:none;stroke-width:2.267717;stroke-linecap:butt;stroke-linejoin:bevel;stroke:rgb(20%,60%,20%);stroke-opacity:0.6;stroke-miterlimit:10;" d="M 82.542083 -56.649442 L 22.411224 3.481418 L 43.670989 -33.340848 L 59.077239 -90.840848 " transform="matrix(2,0,0,2,48.064272,197.982477)"/>
<path style="fill:none;stroke-width:2.267717;stroke-linecap:butt;stroke-linejoin:bevel;stroke:rgb(20%,60%,20%);stroke-opacity:0.6;stroke-miterlimit:10;" d="M 59.077239 -90.840848 L 59.077239 -5.801785 L 48.073333 -46.872098 L 18.309661 -98.424832 " transform="matrix(2,0,0,2,48.064272,197.982477)"/>
<path style="fill:none;stroke-width:2.267717;stroke-linecap:butt;stroke-linejoin:bevel;stroke:rgb(20%,60%,20%);stroke-opacity:0.6;stroke-miterlimit:10;" d="M 18.309661 -98.424832 L 78.44052 -38.29202 L 41.618255 -59.551785 L -15.881745 -74.959989 " transform="matrix(2,0,0,2,48.064272,197.982477)"/>
<path style="fill:none;stroke-width:2.267717;stroke-linecap:butt;stroke-linejoin:bevel;stroke:rgb(20%,60%,20%);stroke-opacity:0.6;stroke-miterlimit:10;" d="M -15.881745 -74.959989 L 69.157317 -74.959989 L 28.087005 -63.954129 L -23.46573 -34.190457 " transform="matrix(2,0,0,2,48.064272,197.982477)"/>
<path style="fill:none;stroke-width:2.267717;stroke-linecap:butt;stroke-linejoin:bevel;stroke:rgb(20%,60%,20%);stroke-opacity:0.6;stroke-miterlimit:10;" d="M -23.46573 -34.190457 L 36.667083 -94.32327 L 15.407317 -57.499051 L -0.000885873 0.000948998 " transform="matrix(2,0,0,2,48.064272,197.982477)"/>
</g>
</svg>
