<?xml version="1.0" encoding="UTF-8"?>
<svg xmlns="http://www.w3.org/2000/svg" xmlns:xlink="http://www.w3.org/1999/xlink" width="212.583288pt" height="212.583288pt" viewBox="0 0 212.583288 212.583288" version="1.1">
<g id="surface33">
<path style="fill:none;stroke-width:0.566929;stroke-linecap:butt;stroke-linejoin:miter;stroke:rgb(0%,0%,0%);stroke-opacity:1;stroke-miterlimit:10;" d="M 0.000482853 0.000364598 L 0.000482853 -85.038698 L 11.004389 -43.968385 L 40.768061 7.584349 " transform="matrix(2,0,0,2,47.213878,197.132083)"/>
<path style="fill:none;stroke-width:0.566929;stroke-linecap:butt;stroke-linejoin:miter;stroke:rgb(0%,0%,0%);stroke-opacity:1;stroke-miterlimit:10;" d="M 40.768061 7.584349 L -19.362798 -52.548464 L 17.459467 -31.288698 L 74.959467 -15.880495 " transform="matrix(2,0,0,2,47.213878,197.132083)"/>
<path style="fill:none;stroke-width:0.566929;stroke-linecap:butt;stroke-linejoin:miter;stroke:rgb(0%,0%,0%);stroke-opacity:1;stroke-miterlimit:10;" d="M 74.959467 -15.880495 L -10.079595 -15.880495 L 30.990717 -26.886354 L 82.543452 -56.650026 " transform="matrix(2,0,0,2,47.213878,197.132083)"/>
<path style="fill:none;stroke-width:0.566929;stroke-linecap:butt;stroke-linejoin:miter;stroke:rgb(0%,0%,0%);stroke-opacity:1;stroke-miterlimit:10;" d="M 82.543452 -56.650026 L 22.410639 3.482786 L 43.670405 -33.341432 L 59.078608 -90.839479 " transform="matrix(2,0,0,2,47.213878,197.132083)"/>
<path style="fill:none;stroke-width:0.566929;stroke-linecap:butt;stroke-linejoin:miter;stroke:rgb(0%,0%,0%);stroke-opacity:1;stroke-miterlimit:10;" d="M 59.078608 -90.839479 L 59.078608 -5.800417 L 48.072748 -46.872682 L 18.309077 -98.423464 " transform="matrix(2,0,0,2,47.213878,197.132083)"/>
<path style="fill:none;stroke-width:0.566929;stroke-linecap:butt;stroke-linejoin:miter;stroke:rgb(0%,0%,0%);stroke-opacity:1;stroke-miterlimit:10;" d="M 18.309077 -98.423464 L 78.441889 -38.292604 L 41.61767 -59.55237 L -15.880377 -74.95862 " transform="matrix(2,0,0,2,47.213878,197.132083)"/>
<path style="fill:none;stroke-width:0.566929;stroke-linecap:butt;stroke-linejoin:miter;stroke:rgb(0%,0%,0%);stroke-opacity:1;stroke-miterlimit:10;" d="M -15.880377 -74.95862 L 69.158686 -74.95862 L 28.08642 -63.954714 L -23.464361 -34.191042 " transform="matrix(2,0,0,2,47.213878,197.132083)"/>
<path style="fill:none;stroke-width:0.566929;stroke-linecap:butt;stroke-linejoin:miter;stroke:rgb(0%,0%,0%);stroke-opacity:1;stroke-miterlimit:10;" d="M -23.464361 -34.191042 L 36.666498 -94.321901 L 15.406733 -57.499635 L 0.000482853 0.000364598 " transform="matrix(2,0,0,2,47.213878,197.132083)"/>
</g>
</svg>
