<?xml version="1.0" encoding="UTF-8"?>
<svg xmlns="http://www.w3.org/2000/svg" xmlns:xlink="http://www.w3.org/1999/xlink" width="116pt" height="144pt" viewBox="0 0 116 144" version="1.1">
<g id="surface25">
<path style="fill:none;stroke-width:0.801759;stroke-linecap:butt;stroke-linejoin:miter;stroke:rgb(0%,0%,100%);stroke-opacity:1;stroke-dasharray:2.828427;stroke-miterlimit:10;" d="M 28.345703 0 C 28.345703 -15.65625 15.65625 -28.345703 0 -28.345703 C -15.65625 -28.345703 -28.345703 -15.65625 -28.345703 0 C -28.345703 15.65625 -15.65625 28.345703 0 28.345703 C 15.65625 28.345703 28.345703 15.65625 28.345703 0 Z M 28.345703 0 " transform="matrix(2,0,0,2,58,58)"/>
<path style=" stroke:none;fill-rule:nonzero;fill:rgb(0%,0%,0%);fill-opacity:1;" d="M 60.5 60.5625 C 59.625 60.5625 59.625 60.34375 59.625 59 L 59 59 C 59.03125 59.71875 59.0625 60.71875 59.0625 61.28125 C 59.0625 61.78125 59.03125 62.8125 59 63.5 L 59.625 63.5 C 59.625 62.15625 59.625 61.9375 60.5 61.9375 L 64.1875 61.9375 C 66.25 61.9375 67.375 63.375 67.375 64.625 C 67.375 65.90625 66.3125 66.125 65.15625 66.125 L 60.5 66.125 C 59.625 66.125 59.625 65.90625 59.625 64.5625 L 59 64.5625 C 59.03125 65.25 59.0625 66.28125 59.0625 66.8125 C 59.0625 67.3125 59.03125 68.375 59 69.03125 L 59.625 69.03125 C 59.625 68 59.625 67.5 60.21875 67.5 L 64.03125 67.5 C 65.75 67.5 66.34375 67.5 67.0625 66.875 C 67.40625 66.59375 67.8125 65.9375 67.8125 64.78125 C 67.8125 63.09375 66.625 62.21875 65.84375 61.875 L 72.84375 61.875 L 72.625 59 L 72 59 C 72 60.40625 71.875 60.5625 70.875 60.5625 Z M 60.5 60.5625 "/>
<path style=" stroke:none;fill-rule:nonzero;fill:rgb(0%,0%,0%);fill-opacity:1;" d="M 64.03125 71.664062 C 67 71.789062 67.5 73.476562 67.5 74.164062 C 67.5 76.195312 64.8125 76.414062 64.03125 76.414062 Z M 63.59375 71.664062 L 63.59375 77.226562 C 63.59375 77.664062 63.59375 77.726562 64.03125 77.726562 C 66 77.726562 67.9375 76.632812 67.9375 74.164062 C 67.9375 71.851562 65.875 70.007812 63.375 70.007812 C 60.71875 70.007812 58.78125 72.101562 58.78125 74.382812 C 58.78125 76.820312 61 77.726562 61.375 77.726562 C 61.5625 77.726562 61.625 77.570312 61.625 77.445312 C 61.625 77.289062 61.5 77.226562 61.34375 77.195312 C 59.28125 76.507812 59.28125 74.695312 59.28125 74.507812 C 59.28125 73.507812 59.875 72.726562 60.625 72.257812 C 61.5625 71.664062 62.875 71.664062 63.59375 71.664062 Z M 63.59375 71.664062 "/>
<path style=" stroke:none;fill-rule:nonzero;fill:rgb(0%,0%,0%);fill-opacity:1;" d="M 65.6875 86.582031 C 66.96875 87.082031 66.96875 88.113281 66.96875 88.425781 L 67.59375 88.425781 C 67.5625 87.957031 67.53125 87.394531 67.53125 86.925781 C 67.53125 86.582031 67.5625 85.644531 67.59375 85.207031 L 66.96875 85.207031 C 66.96875 85.832031 66.625 86.144531 66.125 86.144531 C 65.90625 86.144531 65.875 86.113281 65.625 86.019531 L 60.75 83.988281 L 66.09375 81.800781 C 66.3125 81.707031 66.375 81.675781 66.46875 81.675781 C 66.96875 81.675781 66.96875 82.394531 66.96875 82.800781 L 67.59375 82.800781 C 67.5625 82.269531 67.53125 80.957031 67.53125 80.613281 C 67.53125 80.082031 67.5625 79.269531 67.59375 78.675781 L 66.96875 78.675781 C 66.96875 79.644531 66.96875 80.019531 66.28125 80.300781 L 59 83.300781 C 58.75 83.175781 58.09375 82.894531 57.8125 82.800781 C 56.71875 82.363281 55.34375 81.800781 55.34375 80.519531 C 55.34375 80.425781 55.34375 79.957031 55.71875 79.582031 C 55.78125 80.207031 56.21875 80.363281 56.5625 80.363281 C 57.0625 80.363281 57.375 79.988281 57.375 79.519531 C 57.375 79.113281 57.125 78.675781 56.53125 78.675781 C 55.625 78.675781 54.90625 79.519531 54.90625 80.519531 C 54.90625 81.769531 56.0625 82.582031 57.1875 83.050781 Z M 65.6875 86.582031 "/>
<path style=" stroke:none;fill-rule:nonzero;fill:rgb(0%,0%,0%);fill-opacity:1;" d="M 66.96875 98.890625 L 66.96875 101.765625 L 67.59375 101.765625 L 67.59375 98.890625 L 71.25 98.890625 L 71.25 98.390625 C 69.625 98.390625 67.5 97.796875 67.40625 95.828125 L 66.96875 95.828125 L 66.96875 97.515625 L 61.46875 97.515625 C 59.03125 97.515625 58.78125 99.390625 58.78125 100.109375 C 58.78125 101.515625 60.1875 102.078125 61.46875 102.078125 L 62.59375 102.078125 L 62.59375 101.578125 L 61.5 101.578125 C 60.03125 101.578125 59.28125 100.984375 59.28125 100.234375 C 59.28125 98.890625 61.09375 98.890625 61.4375 98.890625 Z M 66.96875 98.890625 "/>
<path style=" stroke:none;fill-rule:nonzero;fill:rgb(0%,0%,0%);fill-opacity:1;" d="M 60.5 105.386719 C 59.625 105.386719 59.625 105.167969 59.625 103.824219 L 59 103.824219 C 59.03125 104.542969 59.0625 105.542969 59.0625 106.105469 C 59.0625 106.605469 59.03125 107.636719 59 108.324219 L 59.625 108.324219 C 59.625 106.980469 59.625 106.761719 60.5 106.761719 L 64.1875 106.761719 C 66.25 106.761719 67.375 108.199219 67.375 109.449219 C 67.375 110.730469 66.3125 110.949219 65.15625 110.949219 L 60.5 110.949219 C 59.625 110.949219 59.625 110.730469 59.625 109.386719 L 59 109.386719 C 59.03125 110.074219 59.0625 111.105469 59.0625 111.636719 C 59.0625 112.136719 59.03125 113.199219 59 113.855469 L 59.625 113.855469 C 59.625 112.824219 59.625 112.324219 60.21875 112.324219 L 64.03125 112.324219 C 65.75 112.324219 66.34375 112.324219 67.0625 111.699219 C 67.40625 111.417969 67.8125 110.761719 67.8125 109.605469 C 67.8125 107.917969 66.625 107.042969 65.84375 106.699219 L 72.84375 106.699219 L 72.625 103.824219 L 72 103.824219 C 72 105.230469 71.875 105.386719 70.875 105.386719 Z M 60.5 105.386719 "/>
<path style=" stroke:none;fill-rule:nonzero;fill:rgb(0%,0%,0%);fill-opacity:1;" d="M 64.03125 116.488281 C 67 116.613281 67.5 118.300781 67.5 118.988281 C 67.5 121.019531 64.8125 121.238281 64.03125 121.238281 Z M 63.59375 116.488281 L 63.59375 122.050781 C 63.59375 122.488281 63.59375 122.550781 64.03125 122.550781 C 66 122.550781 67.9375 121.457031 67.9375 118.988281 C 67.9375 116.675781 65.875 114.832031 63.375 114.832031 C 60.71875 114.832031 58.78125 116.925781 58.78125 119.207031 C 58.78125 121.644531 61 122.550781 61.375 122.550781 C 61.5625 122.550781 61.625 122.394531 61.625 122.269531 C 61.625 122.113281 61.5 122.050781 61.34375 122.019531 C 59.28125 121.332031 59.28125 119.519531 59.28125 119.332031 C 59.28125 118.332031 59.875 117.550781 60.625 117.082031 C 61.5625 116.488281 62.875 116.488281 63.59375 116.488281 Z M 63.59375 116.488281 "/>
<path style=" stroke:none;fill-rule:nonzero;fill:rgb(0%,0%,0%);fill-opacity:1;" d="M 65.625 126.46875 L 67.8125 126.46875 L 67.59375 123.6875 L 66.96875 123.6875 C 66.96875 125.09375 66.84375 125.25 65.84375 125.25 L 60.5 125.25 C 59.625 125.25 59.625 125.03125 59.625 123.6875 L 59 123.6875 C 59.03125 124.46875 59.0625 125.40625 59.0625 125.96875 C 59.0625 126.75 59.0625 127.6875 59 128.5 L 59.625 128.5 L 59.625 128.0625 C 59.625 126.59375 59.84375 126.5625 60.5625 126.5625 L 63.625 126.5625 C 65.59375 126.5625 67.375 127.40625 67.375 128.90625 C 67.375 129.03125 67.375 129.09375 67.34375 129.125 C 67.34375 129.0625 67.09375 128.65625 66.5625 128.65625 C 66.03125 128.65625 65.71875 129.09375 65.71875 129.53125 C 65.71875 129.875 65.96875 130.375 66.59375 130.375 C 67.21875 130.375 67.8125 129.75 67.8125 128.90625 C 67.8125 127.4375 66.46875 126.71875 65.625 126.46875 Z M 65.625 126.46875 "/>
<path style=" stroke:none;fill-rule:nonzero;fill:rgb(0%,0%,0%);fill-opacity:1;" d="M 64.03125 133.148438 C 67 133.273438 67.5 134.960938 67.5 135.648438 C 67.5 137.679688 64.8125 137.898438 64.03125 137.898438 Z M 63.59375 133.148438 L 63.59375 138.710938 C 63.59375 139.148438 63.59375 139.210938 64.03125 139.210938 C 66 139.210938 67.9375 138.117188 67.9375 135.648438 C 67.9375 133.335938 65.875 131.492188 63.375 131.492188 C 60.71875 131.492188 58.78125 133.585938 58.78125 135.867188 C 58.78125 138.304688 61 139.210938 61.375 139.210938 C 61.5625 139.210938 61.625 139.054688 61.625 138.929688 C 61.625 138.773438 61.5 138.710938 61.34375 138.679688 C 59.28125 137.992188 59.28125 136.179688 59.28125 135.992188 C 59.28125 134.992188 59.875 134.210938 60.625 133.742188 C 61.5625 133.148438 62.875 133.148438 63.59375 133.148438 Z M 63.59375 133.148438 "/>
<path style=" stroke:none;fill-rule:nonzero;fill:rgb(0%,0%,0%);fill-opacity:1;" d="M 63.15625 142.847656 L 72.25 143.597656 C 72.90625 143.597656 73.28125 143.066406 73.28125 142.566406 C 73.28125 142.035156 72.90625 141.503906 72.25 141.503906 L 63.1875 142.285156 C 62.875 142.285156 62.71875 142.316406 62.71875 142.566406 C 62.71875 142.753906 62.8125 142.816406 63.15625 142.847656 Z M 60.0625 143.597656 C 60.625 143.597656 61.125 143.128906 61.125 142.566406 C 61.125 141.972656 60.625 141.503906 60.0625 141.503906 C 59.46875 141.503906 59 141.972656 59 142.566406 C 59 143.128906 59.46875 143.597656 60.0625 143.597656 Z M 60.0625 143.597656 "/>
</g>
</svg>
