<?xml version="1.0" encoding="UTF-8"?>
<svg xmlns="http://www.w3.org/2000/svg" xmlns:xlink="http://www.w3.org/1999/xlink" width="332.678815pt" height="271.24553pt" viewBox="0 0 332.678815 271.24553" version="1.1">
<g id="surface137">
<path style="fill:none;stroke-width:0.566929;stroke-linecap:butt;stroke-linejoin:miter;stroke:rgb(100%,0%,0%);stroke-opacity:0.5;stroke-miterlimit:10;" d="M -2.834646 2.834169 L 2.835276 -2.8338 " transform="matrix(2,0,0,2,6.169291,5.952756)"/>
<path style="fill:none;stroke-width:0.566929;stroke-linecap:butt;stroke-linejoin:miter;stroke:rgb(100%,0%,0%);stroke-opacity:0.5;stroke-miterlimit:10;" d="M 2.835276 2.834169 L -2.834646 -2.8338 " transform="matrix(2,0,0,2,6.169291,5.952756)"/>
<path style="fill-rule:nonzero;fill:rgb(50%,50%,0%);fill-opacity:0.1;stroke-width:0.566929;stroke-linecap:butt;stroke-linejoin:miter;stroke:rgb(100%,0%,0%);stroke-opacity:0.5;stroke-miterlimit:10;" d="M -0.000661294 132.396669 L 163.005198 132.396669 L 163.005198 0.000184547 L -0.000661294 0.000184547 Z M -0.000661294 132.396669 " transform="matrix(2,0,0,2,6.169291,5.952756)"/>
<path style="fill:none;stroke-width:0.566929;stroke-linecap:butt;stroke-linejoin:miter;stroke:rgb(100%,0%,0%);stroke-opacity:0.5;stroke-miterlimit:10;" d="M -2.834646 59.13495 L 2.835276 53.465028 " transform="matrix(2,0,0,2,6.169291,5.952756)"/>
<path style="fill:none;stroke-width:0.566929;stroke-linecap:butt;stroke-linejoin:miter;stroke:rgb(100%,0%,0%);stroke-opacity:0.5;stroke-miterlimit:10;" d="M 2.835276 59.13495 L -2.834646 53.465028 " transform="matrix(2,0,0,2,6.169291,5.952756)"/>
<path style="fill-rule:nonzero;fill:rgb(50%,50%,0%);fill-opacity:0.1;stroke-width:0.566929;stroke-linecap:butt;stroke-linejoin:miter;stroke:rgb(100%,0%,0%);stroke-opacity:0.5;stroke-miterlimit:10;" d="M -0.000661294 75.51581 L 162.501292 75.51581 L 162.501292 0.000184547 L -0.000661294 0.000184547 Z M -0.000661294 75.51581 " transform="matrix(2,0,0,2,6.169291,5.952756)"/>
<path style="fill:none;stroke-width:0.566929;stroke-linecap:butt;stroke-linejoin:miter;stroke:rgb(100%,0%,0%);stroke-opacity:0.5;stroke-miterlimit:10;" d="M 46.442698 59.13495 L 52.11262 53.465028 " transform="matrix(2,0,0,2,6.169291,5.952756)"/>
<path style="fill:none;stroke-width:0.566929;stroke-linecap:butt;stroke-linejoin:miter;stroke:rgb(100%,0%,0%);stroke-opacity:0.5;stroke-miterlimit:10;" d="M 52.11262 59.13495 L 46.442698 53.465028 " transform="matrix(2,0,0,2,6.169291,5.952756)"/>
<path style="fill-rule:nonzero;fill:rgb(50%,50%,0%);fill-opacity:0.1;stroke-width:0.566929;stroke-linecap:butt;stroke-linejoin:miter;stroke:rgb(100%,0%,0%);stroke-opacity:0.5;stroke-miterlimit:10;" d="M -0.000661294 63.250185 L 79.686839 63.250185 L 79.686839 0.000184547 L -0.000661294 0.000184547 Z M -0.000661294 63.250185 " transform="matrix(2,0,0,2,6.169291,5.952756)"/>
<path style="fill:none;stroke-width:0.566929;stroke-linecap:butt;stroke-linejoin:miter;stroke:rgb(100%,0%,0%);stroke-opacity:0.5;stroke-miterlimit:10;" d="M 87.421214 59.13495 L 93.091136 53.465028 " transform="matrix(2,0,0,2,6.169291,5.952756)"/>
<path style="fill:none;stroke-width:0.566929;stroke-linecap:butt;stroke-linejoin:miter;stroke:rgb(100%,0%,0%);stroke-opacity:0.5;stroke-miterlimit:10;" d="M 93.091136 59.13495 L 87.421214 53.465028 " transform="matrix(2,0,0,2,6.169291,5.952756)"/>
<path style="fill-rule:nonzero;fill:rgb(50%,50%,0%);fill-opacity:0.1;stroke-width:0.566929;stroke-linecap:butt;stroke-linejoin:miter;stroke:rgb(100%,0%,0%);stroke-opacity:0.5;stroke-miterlimit:10;" d="M 79.686839 75.51581 L 136.403636 75.51581 L 136.403636 30.363466 L 79.686839 30.363466 Z M 79.686839 75.51581 " transform="matrix(2,0,0,2,6.169291,5.952756)"/>
<path style="fill:none;stroke-width:0.566929;stroke-linecap:butt;stroke-linejoin:miter;stroke:rgb(100%,0%,0%);stroke-opacity:0.5;stroke-miterlimit:10;" d="M 133.569651 59.13495 L 139.23762 53.465028 " transform="matrix(2,0,0,2,6.169291,5.952756)"/>
<path style="fill:none;stroke-width:0.566929;stroke-linecap:butt;stroke-linejoin:miter;stroke:rgb(100%,0%,0%);stroke-opacity:0.5;stroke-miterlimit:10;" d="M 139.23762 59.13495 L 133.569651 53.465028 " transform="matrix(2,0,0,2,6.169291,5.952756)"/>
<path style="fill-rule:nonzero;fill:rgb(50%,50%,0%);fill-opacity:0.1;stroke-width:0.566929;stroke-linecap:butt;stroke-linejoin:miter;stroke:rgb(100%,0%,0%);stroke-opacity:0.5;stroke-miterlimit:10;" d="M 136.403636 58.345888 L 162.501292 58.345888 L 162.501292 48.158388 L 136.403636 48.158388 Z M 136.403636 58.345888 " transform="matrix(2,0,0,2,6.169291,5.952756)"/>
<path style=" stroke:none;fill-rule:nonzero;fill:rgb(0%,0%,0%);fill-opacity:1;" d="M 291.539062 105.488281 C 291.539062 104.769531 291.570312 104.550781 293.101562 104.550781 L 293.601562 104.550781 L 293.601562 103.925781 C 292.882812 103.988281 291.414062 103.988281 290.664062 103.988281 C 289.914062 103.988281 288.414062 103.988281 287.726562 103.925781 L 287.726562 104.550781 L 288.195312 104.550781 C 289.726562 104.550781 289.757812 104.769531 289.757812 105.488281 L 289.757812 110.144531 L 283.820312 110.144531 L 283.820312 105.488281 C 283.820312 104.769531 283.851562 104.550781 285.382812 104.550781 L 285.851562 104.550781 L 285.851562 103.925781 C 285.164062 103.988281 283.695312 103.988281 282.914062 103.988281 C 282.164062 103.988281 280.664062 103.988281 279.976562 103.925781 L 279.976562 104.550781 L 280.445312 104.550781 C 281.976562 104.550781 282.039062 104.769531 282.039062 105.488281 L 282.039062 115.988281 C 282.039062 116.707031 281.976562 116.925781 280.445312 116.925781 L 279.976562 116.925781 L 279.976562 117.550781 C 280.664062 117.488281 282.164062 117.488281 282.914062 117.488281 C 283.664062 117.488281 285.164062 117.488281 285.851562 117.550781 L 285.851562 116.925781 L 285.382812 116.925781 C 283.851562 116.925781 283.820312 116.707031 283.820312 115.988281 L 283.820312 110.769531 L 289.757812 110.769531 L 289.757812 115.988281 C 289.757812 116.707031 289.726562 116.925781 288.195312 116.925781 L 287.726562 116.925781 L 287.726562 117.550781 C 288.414062 117.488281 289.882812 117.488281 290.632812 117.488281 C 291.414062 117.488281 292.882812 117.488281 293.601562 117.550781 L 293.601562 116.925781 L 293.101562 116.925781 C 291.570312 116.925781 291.539062 116.707031 291.539062 115.988281 Z M 291.539062 105.488281 "/>
<path style=" stroke:none;fill-rule:nonzero;fill:rgb(0%,0%,0%);fill-opacity:1;" d="M 297.796875 108.738281 L 295.015625 108.957031 L 295.015625 109.582031 C 296.296875 109.582031 296.484375 109.707031 296.484375 110.675781 L 296.484375 116.050781 C 296.484375 116.925781 296.265625 116.925781 294.921875 116.925781 L 294.921875 117.550781 C 295.546875 117.519531 296.640625 117.488281 297.109375 117.488281 C 297.828125 117.488281 298.515625 117.519531 299.203125 117.550781 L 299.203125 116.925781 C 297.859375 116.925781 297.796875 116.832031 297.796875 116.050781 Z M 297.859375 105.269531 C 297.859375 104.644531 297.390625 104.207031 296.828125 104.207031 C 296.203125 104.207031 295.765625 104.738281 295.765625 105.269531 C 295.765625 105.800781 296.203125 106.332031 296.828125 106.332031 C 297.390625 106.332031 297.859375 105.894531 297.859375 105.269531 Z M 297.859375 105.269531 "/>
<path style=" stroke:none;fill-rule:nonzero;fill:rgb(0%,0%,0%);fill-opacity:1;" d="M 304.238281 114.113281 C 302.488281 114.113281 302.488281 112.113281 302.488281 111.675781 C 302.488281 111.144531 302.519531 110.488281 302.800781 109.988281 C 302.957031 109.769531 303.425781 109.207031 304.238281 109.207031 C 305.957031 109.207031 305.957031 111.175781 305.957031 111.644531 C 305.957031 112.175781 305.957031 112.832031 305.644531 113.332031 C 305.488281 113.550781 305.019531 114.113281 304.238281 114.113281 Z M 301.925781 114.894531 C 301.925781 114.832031 301.925781 114.363281 302.238281 113.957031 C 303.019531 114.519531 303.863281 114.582031 304.238281 114.582031 C 306.082031 114.582031 307.457031 113.207031 307.457031 111.675781 C 307.457031 110.925781 307.144531 110.207031 306.644531 109.738281 C 307.363281 109.050781 308.082031 108.957031 308.425781 108.957031 C 308.488281 108.957031 308.582031 108.957031 308.644531 108.988281 C 308.425781 109.050781 308.300781 109.269531 308.300781 109.519531 C 308.300781 109.863281 308.582031 110.082031 308.894531 110.082031 C 309.082031 110.082031 309.457031 109.957031 309.457031 109.488281 C 309.457031 109.144531 309.238281 108.519531 308.457031 108.519531 C 308.050781 108.519531 307.175781 108.644531 306.332031 109.457031 C 305.488281 108.800781 304.675781 108.738281 304.238281 108.738281 C 302.363281 108.738281 300.988281 110.113281 300.988281 111.644531 C 300.988281 112.519531 301.425781 113.269531 301.925781 113.707031 C 301.675781 113.988281 301.300781 114.644531 301.300781 115.363281 C 301.300781 115.988281 301.582031 116.738281 302.207031 117.144531 C 300.988281 117.457031 300.363281 118.332031 300.363281 119.113281 C 300.363281 120.550781 302.332031 121.644531 304.769531 121.644531 C 307.113281 121.644531 309.175781 120.644531 309.175781 119.082031 C 309.175781 118.394531 308.925781 117.363281 307.894531 116.800781 C 306.832031 116.269531 305.675781 116.269531 304.457031 116.269531 C 303.957031 116.269531 303.113281 116.269531 302.957031 116.238281 C 302.332031 116.144531 301.925781 115.550781 301.925781 114.894531 Z M 304.800781 121.207031 C 302.769531 121.207031 301.394531 120.175781 301.394531 119.113281 C 301.394531 118.207031 302.144531 117.457031 303.019531 117.425781 L 304.207031 117.425781 C 305.925781 117.425781 308.144531 117.425781 308.144531 119.113281 C 308.144531 120.207031 306.738281 121.207031 304.800781 121.207031 Z M 304.800781 121.207031 "/>
<path style=" stroke:none;fill-rule:nonzero;fill:rgb(0%,0%,0%);fill-opacity:1;" d="M 318.917969 111.175781 C 318.917969 109.582031 318.824219 107.988281 318.136719 106.519531 C 317.230469 104.582031 315.574219 104.269531 314.761719 104.269531 C 313.542969 104.269531 312.105469 104.800781 311.261719 106.644531 C 310.636719 108.019531 310.542969 109.582031 310.542969 111.175781 C 310.542969 112.675781 310.605469 114.457031 311.449219 115.988281 C 312.292969 117.582031 313.761719 117.988281 314.730469 117.988281 C 315.792969 117.988281 317.324219 117.582031 318.199219 115.675781 C 318.824219 114.300781 318.917969 112.738281 318.917969 111.175781 Z M 314.730469 117.550781 C 313.949219 117.550781 312.761719 117.050781 312.417969 115.144531 C 312.199219 113.957031 312.199219 112.113281 312.199219 110.925781 C 312.199219 109.644531 312.199219 108.332031 312.355469 107.269531 C 312.730469 104.894531 314.230469 104.707031 314.730469 104.707031 C 315.386719 104.707031 316.699219 105.082031 317.074219 107.050781 C 317.292969 108.175781 317.292969 109.675781 317.292969 110.925781 C 317.292969 112.425781 317.292969 113.769531 317.074219 115.050781 C 316.761719 116.957031 315.636719 117.550781 314.730469 117.550781 Z M 314.730469 117.550781 "/>
<path style=" stroke:none;fill-rule:nonzero;fill:rgb(0%,0%,0%);fill-opacity:1;" d="M 329.421875 113.394531 L 330.171875 104.300781 C 330.171875 103.644531 329.640625 103.269531 329.140625 103.269531 C 328.609375 103.269531 328.078125 103.644531 328.078125 104.300781 L 328.859375 113.363281 C 328.859375 113.675781 328.890625 113.832031 329.140625 113.832031 C 329.328125 113.832031 329.390625 113.738281 329.421875 113.394531 Z M 330.171875 116.488281 C 330.171875 115.925781 329.703125 115.425781 329.140625 115.425781 C 328.546875 115.425781 328.078125 115.925781 328.078125 116.488281 C 328.078125 117.082031 328.546875 117.550781 329.140625 117.550781 C 329.703125 117.550781 330.171875 117.082031 330.171875 116.488281 Z M 330.171875 116.488281 "/>
<path style="fill:none;stroke-width:0.566929;stroke-linecap:butt;stroke-linejoin:miter;stroke:rgb(100%,0%,0%);stroke-opacity:0.5;stroke-miterlimit:10;" d="M -2.834646 97.256044 L 2.835276 91.586122 " transform="matrix(2,0,0,2,6.169291,5.952756)"/>
<path style="fill:none;stroke-width:0.566929;stroke-linecap:butt;stroke-linejoin:miter;stroke:rgb(100%,0%,0%);stroke-opacity:0.5;stroke-miterlimit:10;" d="M 2.835276 97.256044 L -2.834646 91.586122 " transform="matrix(2,0,0,2,6.169291,5.952756)"/>
<path style="fill-rule:nonzero;fill:rgb(50%,50%,0%);fill-opacity:0.1;stroke-width:0.566929;stroke-linecap:butt;stroke-linejoin:miter;stroke:rgb(100%,0%,0%);stroke-opacity:0.5;stroke-miterlimit:10;" d="M -0.000661294 132.396669 L 163.005198 132.396669 L 163.005198 75.51581 L -0.000661294 75.51581 Z M -0.000661294 132.396669 " transform="matrix(2,0,0,2,6.169291,5.952756)"/>
<path style="fill:none;stroke-width:0.566929;stroke-linecap:butt;stroke-linejoin:miter;stroke:rgb(100%,0%,0%);stroke-opacity:0.5;stroke-miterlimit:10;" d="M 6.489573 97.256044 L 12.159495 91.586122 " transform="matrix(2,0,0,2,6.169291,5.952756)"/>
<path style="fill:none;stroke-width:0.566929;stroke-linecap:butt;stroke-linejoin:miter;stroke:rgb(100%,0%,0%);stroke-opacity:0.5;stroke-miterlimit:10;" d="M 12.159495 97.256044 L 6.489573 91.586122 " transform="matrix(2,0,0,2,6.169291,5.952756)"/>
<path style="fill-rule:nonzero;fill:rgb(50%,50%,0%);fill-opacity:0.1;stroke-width:0.566929;stroke-linecap:butt;stroke-linejoin:miter;stroke:rgb(100%,0%,0%);stroke-opacity:0.5;stroke-miterlimit:10;" d="M -0.000661294 120.129091 L 54.120432 120.129091 L 54.120432 82.568544 L -0.000661294 82.568544 Z M -0.000661294 120.129091 " transform="matrix(2,0,0,2,6.169291,5.952756)"/>
<path style="fill:none;stroke-width:0.566929;stroke-linecap:butt;stroke-linejoin:miter;stroke:rgb(100%,0%,0%);stroke-opacity:0.5;stroke-miterlimit:10;" d="M 93.196604 97.256044 L 98.866526 91.586122 " transform="matrix(2,0,0,2,6.169291,5.952756)"/>
<path style="fill:none;stroke-width:0.566929;stroke-linecap:butt;stroke-linejoin:miter;stroke:rgb(100%,0%,0%);stroke-opacity:0.5;stroke-miterlimit:10;" d="M 98.866526 97.256044 L 93.196604 91.586122 " transform="matrix(2,0,0,2,6.169291,5.952756)"/>
<path style="fill-rule:nonzero;fill:rgb(50%,50%,0%);fill-opacity:0.1;stroke-width:0.566929;stroke-linecap:butt;stroke-linejoin:miter;stroke:rgb(100%,0%,0%);stroke-opacity:0.5;stroke-miterlimit:10;" d="M 54.120432 132.396669 L 136.907542 132.396669 L 136.907542 75.51581 L 54.120432 75.51581 Z M 54.120432 132.396669 " transform="matrix(2,0,0,2,6.169291,5.952756)"/>
<path style="fill:none;stroke-width:0.566929;stroke-linecap:butt;stroke-linejoin:miter;stroke:rgb(100%,0%,0%);stroke-opacity:0.5;stroke-miterlimit:10;" d="M 134.071604 97.256044 L 139.741526 91.586122 " transform="matrix(2,0,0,2,6.169291,5.952756)"/>
<path style="fill:none;stroke-width:0.566929;stroke-linecap:butt;stroke-linejoin:miter;stroke:rgb(100%,0%,0%);stroke-opacity:0.5;stroke-miterlimit:10;" d="M 139.741526 97.256044 L 134.071604 91.586122 " transform="matrix(2,0,0,2,6.169291,5.952756)"/>
<path style="fill-rule:nonzero;fill:rgb(50%,50%,0%);fill-opacity:0.1;stroke-width:0.566929;stroke-linecap:butt;stroke-linejoin:miter;stroke:rgb(100%,0%,0%);stroke-opacity:0.5;stroke-miterlimit:10;" d="M 136.907542 96.466981 L 163.005198 96.466981 L 163.005198 86.279481 L 136.907542 86.279481 Z M 136.907542 96.466981 " transform="matrix(2,0,0,2,6.169291,5.952756)"/>
<path style=" stroke:none;fill-rule:nonzero;fill:rgb(0%,0%,0%);fill-opacity:1;" d="M 292.546875 181.730469 C 292.546875 181.011719 292.578125 180.792969 294.109375 180.792969 L 294.609375 180.792969 L 294.609375 180.167969 C 293.890625 180.230469 292.421875 180.230469 291.671875 180.230469 C 290.921875 180.230469 289.421875 180.230469 288.734375 180.167969 L 288.734375 180.792969 L 289.203125 180.792969 C 290.734375 180.792969 290.765625 181.011719 290.765625 181.730469 L 290.765625 186.386719 L 284.828125 186.386719 L 284.828125 181.730469 C 284.828125 181.011719 284.859375 180.792969 286.390625 180.792969 L 286.859375 180.792969 L 286.859375 180.167969 C 286.171875 180.230469 284.703125 180.230469 283.921875 180.230469 C 283.171875 180.230469 281.671875 180.230469 280.984375 180.167969 L 280.984375 180.792969 L 281.453125 180.792969 C 282.984375 180.792969 283.046875 181.011719 283.046875 181.730469 L 283.046875 192.230469 C 283.046875 192.949219 282.984375 193.167969 281.453125 193.167969 L 280.984375 193.167969 L 280.984375 193.792969 C 281.671875 193.730469 283.171875 193.730469 283.921875 193.730469 C 284.671875 193.730469 286.171875 193.730469 286.859375 193.792969 L 286.859375 193.167969 L 286.390625 193.167969 C 284.859375 193.167969 284.828125 192.949219 284.828125 192.230469 L 284.828125 187.011719 L 290.765625 187.011719 L 290.765625 192.230469 C 290.765625 192.949219 290.734375 193.167969 289.203125 193.167969 L 288.734375 193.167969 L 288.734375 193.792969 C 289.421875 193.730469 290.890625 193.730469 291.640625 193.730469 C 292.421875 193.730469 293.890625 193.730469 294.609375 193.792969 L 294.609375 193.167969 L 294.109375 193.167969 C 292.578125 193.167969 292.546875 192.949219 292.546875 192.230469 Z M 292.546875 181.730469 "/>
<path style=" stroke:none;fill-rule:nonzero;fill:rgb(0%,0%,0%);fill-opacity:1;" d="M 298.800781 184.980469 L 296.019531 185.199219 L 296.019531 185.824219 C 297.300781 185.824219 297.488281 185.949219 297.488281 186.917969 L 297.488281 192.292969 C 297.488281 193.167969 297.269531 193.167969 295.925781 193.167969 L 295.925781 193.792969 C 296.550781 193.761719 297.644531 193.730469 298.113281 193.730469 C 298.832031 193.730469 299.519531 193.761719 300.207031 193.792969 L 300.207031 193.167969 C 298.863281 193.167969 298.800781 193.074219 298.800781 192.292969 Z M 298.863281 181.511719 C 298.863281 180.886719 298.394531 180.449219 297.832031 180.449219 C 297.207031 180.449219 296.769531 180.980469 296.769531 181.511719 C 296.769531 182.042969 297.207031 182.574219 297.832031 182.574219 C 298.394531 182.574219 298.863281 182.136719 298.863281 181.511719 Z M 298.863281 181.511719 "/>
<path style=" stroke:none;fill-rule:nonzero;fill:rgb(0%,0%,0%);fill-opacity:1;" d="M 305.242188 190.355469 C 303.492188 190.355469 303.492188 188.355469 303.492188 187.917969 C 303.492188 187.386719 303.523438 186.730469 303.804688 186.230469 C 303.960938 186.011719 304.429688 185.449219 305.242188 185.449219 C 306.960938 185.449219 306.960938 187.417969 306.960938 187.886719 C 306.960938 188.417969 306.960938 189.074219 306.648438 189.574219 C 306.492188 189.792969 306.023438 190.355469 305.242188 190.355469 Z M 302.929688 191.136719 C 302.929688 191.074219 302.929688 190.605469 303.242188 190.199219 C 304.023438 190.761719 304.867188 190.824219 305.242188 190.824219 C 307.085938 190.824219 308.460938 189.449219 308.460938 187.917969 C 308.460938 187.167969 308.148438 186.449219 307.648438 185.980469 C 308.367188 185.292969 309.085938 185.199219 309.429688 185.199219 C 309.492188 185.199219 309.585938 185.199219 309.648438 185.230469 C 309.429688 185.292969 309.304688 185.511719 309.304688 185.761719 C 309.304688 186.105469 309.585938 186.324219 309.898438 186.324219 C 310.085938 186.324219 310.460938 186.199219 310.460938 185.730469 C 310.460938 185.386719 310.242188 184.761719 309.460938 184.761719 C 309.054688 184.761719 308.179688 184.886719 307.335938 185.699219 C 306.492188 185.042969 305.679688 184.980469 305.242188 184.980469 C 303.367188 184.980469 301.992188 186.355469 301.992188 187.886719 C 301.992188 188.761719 302.429688 189.511719 302.929688 189.949219 C 302.679688 190.230469 302.304688 190.886719 302.304688 191.605469 C 302.304688 192.230469 302.585938 192.980469 303.210938 193.386719 C 301.992188 193.699219 301.367188 194.574219 301.367188 195.355469 C 301.367188 196.792969 303.335938 197.886719 305.773438 197.886719 C 308.117188 197.886719 310.179688 196.886719 310.179688 195.324219 C 310.179688 194.636719 309.929688 193.605469 308.898438 193.042969 C 307.835938 192.511719 306.679688 192.511719 305.460938 192.511719 C 304.960938 192.511719 304.117188 192.511719 303.960938 192.480469 C 303.335938 192.386719 302.929688 191.792969 302.929688 191.136719 Z M 305.804688 197.449219 C 303.773438 197.449219 302.398438 196.417969 302.398438 195.355469 C 302.398438 194.449219 303.148438 193.699219 304.023438 193.667969 L 305.210938 193.667969 C 306.929688 193.667969 309.148438 193.667969 309.148438 195.355469 C 309.148438 196.449219 307.742188 197.449219 305.804688 197.449219 Z M 305.804688 197.449219 "/>
<path style=" stroke:none;fill-rule:nonzero;fill:rgb(0%,0%,0%);fill-opacity:1;" d="M 316.644531 181.042969 C 316.644531 180.542969 316.644531 180.511719 316.175781 180.511719 C 314.925781 181.792969 313.175781 181.792969 312.550781 181.792969 L 312.550781 182.417969 C 312.957031 182.417969 314.113281 182.417969 315.144531 181.886719 L 315.144531 192.230469 C 315.144531 192.949219 315.082031 193.167969 313.300781 193.167969 L 312.675781 193.167969 L 312.675781 193.792969 C 313.363281 193.730469 315.082031 193.730469 315.894531 193.730469 C 316.675781 193.730469 318.425781 193.730469 319.113281 193.792969 L 319.113281 193.167969 L 318.488281 193.167969 C 316.675781 193.167969 316.644531 192.949219 316.644531 192.230469 Z M 316.644531 181.042969 "/>
<path style=" stroke:none;fill-rule:nonzero;fill:rgb(0%,0%,0%);fill-opacity:1;" d="M 330.429688 189.636719 L 331.179688 180.542969 C 331.179688 179.886719 330.648438 179.511719 330.148438 179.511719 C 329.617188 179.511719 329.085938 179.886719 329.085938 180.542969 L 329.867188 189.605469 C 329.867188 189.917969 329.898438 190.074219 330.148438 190.074219 C 330.335938 190.074219 330.398438 189.980469 330.429688 189.636719 Z M 331.179688 192.730469 C 331.179688 192.167969 330.710938 191.667969 330.148438 191.667969 C 329.554688 191.667969 329.085938 192.167969 329.085938 192.730469 C 329.085938 193.324219 329.554688 193.792969 330.148438 193.792969 C 330.710938 193.792969 331.179688 193.324219 331.179688 192.730469 Z M 331.179688 192.730469 "/>
</g>
</svg>
