<?xml version="1.0" encoding="UTF-8"?>
<svg xmlns="http://www.w3.org/2000/svg" xmlns:xlink="http://www.w3.org/1999/xlink" width="213.807831pt" height="176.748031pt" viewBox="0 0 213.807831 176.748031" version="1.1">
<g id="surface129">
<path style="fill:none;stroke-width:0.566929;stroke-linecap:butt;stroke-linejoin:miter;stroke:rgb(100%,0%,0%);stroke-opacity:0.5;stroke-miterlimit:10;" d="M -2.8338 2.835276 L 2.834169 -2.834646 " transform="matrix(2,0,0,2,5.952756,6.169291)"/>
<path style="fill:none;stroke-width:0.566929;stroke-linecap:butt;stroke-linejoin:miter;stroke:rgb(100%,0%,0%);stroke-opacity:0.5;stroke-miterlimit:10;" d="M 2.834169 2.835276 L -2.8338 -2.834646 " transform="matrix(2,0,0,2,5.952756,6.169291)"/>
<path style="fill-rule:nonzero;fill:rgb(50%,50%,0%);fill-opacity:0.1;stroke-width:0.566929;stroke-linecap:butt;stroke-linejoin:miter;stroke:rgb(100%,0%,0%);stroke-opacity:0.5;stroke-miterlimit:10;" d="M 0.000184547 85.038401 L 100.841981 85.038401 L 100.841981 -0.000661294 L 0.000184547 -0.000661294 Z M 0.000184547 85.038401 " transform="matrix(2,0,0,2,5.952756,6.169291)"/>
<path style="fill:none;stroke-width:0.566929;stroke-linecap:butt;stroke-linejoin:miter;stroke:rgb(100%,0%,0%);stroke-opacity:0.5;stroke-miterlimit:10;" d="M 5.720888 2.835276 L 11.39081 -2.834646 " transform="matrix(2,0,0,2,5.952756,6.169291)"/>
<path style="fill:none;stroke-width:0.566929;stroke-linecap:butt;stroke-linejoin:miter;stroke:rgb(100%,0%,0%);stroke-opacity:0.5;stroke-miterlimit:10;" d="M 11.39081 2.835276 L 5.720888 -2.834646 " transform="matrix(2,0,0,2,5.952756,6.169291)"/>
<path style="fill-rule:nonzero;fill:rgb(50%,50%,0%);fill-opacity:0.1;stroke-width:0.566929;stroke-linecap:butt;stroke-linejoin:miter;stroke:rgb(100%,0%,0%);stroke-opacity:0.5;stroke-miterlimit:10;" d="M 2.767763 13.700511 L 14.343935 13.700511 L 14.343935 -0.000661294 L 2.767763 -0.000661294 Z M 2.767763 13.700511 " transform="matrix(2,0,0,2,5.952756,6.169291)"/>
<path style="fill:none;stroke-width:0.566929;stroke-linecap:butt;stroke-linejoin:miter;stroke:rgb(100%,0%,0%);stroke-opacity:0.5;stroke-miterlimit:10;" d="M 2.767763 13.591136 L 8.437685 7.921214 " transform="matrix(2,0,0,2,5.952756,6.169291)"/>
<path style="fill:none;stroke-width:0.566929;stroke-linecap:butt;stroke-linejoin:miter;stroke:rgb(100%,0%,0%);stroke-opacity:0.5;stroke-miterlimit:10;" d="M 8.437685 13.591136 L 2.767763 7.921214 " transform="matrix(2,0,0,2,5.952756,6.169291)"/>
<path style="fill-rule:nonzero;fill:rgb(50%,50%,0%);fill-opacity:0.1;stroke-width:0.566929;stroke-linecap:butt;stroke-linejoin:miter;stroke:rgb(100%,0%,0%);stroke-opacity:0.5;stroke-miterlimit:10;" d="M 2.767763 13.700511 L 14.343935 13.700511 L 14.343935 -0.000661294 L 2.767763 -0.000661294 Z M 2.767763 13.700511 " transform="matrix(2,0,0,2,5.952756,6.169291)"/>
<path style="fill:none;stroke-width:0.566929;stroke-linecap:butt;stroke-linejoin:miter;stroke:rgb(100%,0%,0%);stroke-opacity:0.5;stroke-miterlimit:10;" d="M 2.767763 13.591136 L 8.437685 7.921214 " transform="matrix(2,0,0,2,5.952756,6.169291)"/>
<path style="fill:none;stroke-width:0.566929;stroke-linecap:butt;stroke-linejoin:miter;stroke:rgb(100%,0%,0%);stroke-opacity:0.5;stroke-miterlimit:10;" d="M 8.437685 13.591136 L 2.767763 7.921214 " transform="matrix(2,0,0,2,5.952756,6.169291)"/>
<path style="fill-rule:nonzero;fill:rgb(50%,50%,0%);fill-opacity:0.1;stroke-width:0.566929;stroke-linecap:butt;stroke-linejoin:miter;stroke:rgb(100%,0%,0%);stroke-opacity:0.5;stroke-miterlimit:10;" d="M 5.601747 10.866526 L 11.507997 10.866526 L 11.507997 2.835276 L 5.601747 2.835276 Z M 5.601747 10.866526 " transform="matrix(2,0,0,2,5.952756,6.169291)"/>
<path style=" stroke:none;fill-rule:nonzero;fill:rgb(0%,0%,0%);fill-opacity:1;" d="M 21.03125 19.152344 L 21.03125 12.839844 L 18.15625 13.058594 L 18.15625 13.683594 C 19.5625 13.683594 19.71875 13.808594 19.71875 14.808594 L 19.71875 26.683594 L 20.21875 26.683594 C 20.21875 26.652344 20.375 26.371094 20.9375 25.433594 C 21.21875 25.902344 22.0625 26.902344 23.53125 26.902344 C 25.90625 26.902344 27.96875 24.933594 27.96875 22.371094 C 27.96875 19.839844 26.03125 17.871094 23.75 17.871094 C 22.1875 17.871094 21.34375 18.808594 21.03125 19.152344 Z M 21.09375 24.402344 L 21.09375 20.308594 C 21.09375 19.933594 21.09375 19.902344 21.3125 19.589844 C 22.09375 18.464844 23.1875 18.308594 23.65625 18.308594 C 24.5625 18.308594 25.28125 18.839844 25.75 19.589844 C 26.28125 20.402344 26.3125 21.527344 26.3125 22.371094 C 26.3125 23.089844 26.28125 24.277344 25.71875 25.183594 C 25.28125 25.808594 24.53125 26.464844 23.46875 26.464844 C 22.5625 26.464844 21.84375 25.996094 21.375 25.246094 C 21.09375 24.839844 21.09375 24.777344 21.09375 24.402344 Z M 21.09375 24.402344 "/>
<path style="fill:none;stroke-width:0.566929;stroke-linecap:butt;stroke-linejoin:miter;stroke:rgb(100%,0%,0%);stroke-opacity:0.5;stroke-miterlimit:10;" d="M 30.60956 2.835276 L 36.277528 -2.834646 " transform="matrix(2,0,0,2,5.952756,6.169291)"/>
<path style="fill:none;stroke-width:0.566929;stroke-linecap:butt;stroke-linejoin:miter;stroke:rgb(100%,0%,0%);stroke-opacity:0.5;stroke-miterlimit:10;" d="M 36.277528 2.835276 L 30.60956 -2.834646 " transform="matrix(2,0,0,2,5.952756,6.169291)"/>
<path style="fill-rule:nonzero;fill:rgb(50%,50%,0%);fill-opacity:0.1;stroke-width:0.566929;stroke-linecap:butt;stroke-linejoin:miter;stroke:rgb(100%,0%,0%);stroke-opacity:0.5;stroke-miterlimit:10;" d="M 25.996278 11.247386 L 40.89081 11.247386 L 40.89081 -0.000661294 L 25.996278 -0.000661294 Z M 25.996278 11.247386 " transform="matrix(2,0,0,2,5.952756,6.169291)"/>
<path style="fill:none;stroke-width:0.566929;stroke-linecap:butt;stroke-linejoin:miter;stroke:rgb(100%,0%,0%);stroke-opacity:0.5;stroke-miterlimit:10;" d="M 25.996278 11.138011 L 31.6662 5.468089 " transform="matrix(2,0,0,2,5.952756,6.169291)"/>
<path style="fill:none;stroke-width:0.566929;stroke-linecap:butt;stroke-linejoin:miter;stroke:rgb(100%,0%,0%);stroke-opacity:0.5;stroke-miterlimit:10;" d="M 31.6662 11.138011 L 25.996278 5.468089 " transform="matrix(2,0,0,2,5.952756,6.169291)"/>
<path style="fill-rule:nonzero;fill:rgb(50%,50%,0%);fill-opacity:0.1;stroke-width:0.566929;stroke-linecap:butt;stroke-linejoin:miter;stroke:rgb(100%,0%,0%);stroke-opacity:0.5;stroke-miterlimit:10;" d="M 25.996278 11.247386 L 40.89081 11.247386 L 40.89081 -0.000661294 L 25.996278 -0.000661294 Z M 25.996278 11.247386 " transform="matrix(2,0,0,2,5.952756,6.169291)"/>
<path style="fill:none;stroke-width:0.566929;stroke-linecap:butt;stroke-linejoin:miter;stroke:rgb(100%,0%,0%);stroke-opacity:0.5;stroke-miterlimit:10;" d="M 25.996278 11.138011 L 31.6662 5.468089 " transform="matrix(2,0,0,2,5.952756,6.169291)"/>
<path style="fill:none;stroke-width:0.566929;stroke-linecap:butt;stroke-linejoin:miter;stroke:rgb(100%,0%,0%);stroke-opacity:0.5;stroke-miterlimit:10;" d="M 31.6662 11.138011 L 25.996278 5.468089 " transform="matrix(2,0,0,2,5.952756,6.169291)"/>
<path style="fill-rule:nonzero;fill:rgb(50%,50%,0%);fill-opacity:0.1;stroke-width:0.566929;stroke-linecap:butt;stroke-linejoin:miter;stroke:rgb(100%,0%,0%);stroke-opacity:0.5;stroke-miterlimit:10;" d="M 28.832216 8.413401 L 38.054872 8.413401 L 38.054872 2.835276 L 28.832216 2.835276 Z M 28.832216 8.413401 " transform="matrix(2,0,0,2,5.952756,6.169291)"/>
<path style=" stroke:none;fill-rule:nonzero;fill:rgb(0%,0%,0%);fill-opacity:1;" d="M 66.273438 17.433594 C 66.273438 14.183594 67.898438 13.339844 68.960938 13.339844 C 69.148438 13.339844 70.398438 13.371094 71.085938 14.089844 C 70.273438 14.152344 70.148438 14.746094 70.148438 14.996094 C 70.148438 15.527344 70.523438 15.902344 71.054688 15.902344 C 71.585938 15.902344 71.992188 15.589844 71.992188 14.964844 C 71.992188 13.621094 70.460938 12.839844 68.929688 12.839844 C 66.429688 12.839844 64.617188 14.996094 64.617188 17.464844 C 64.617188 20.027344 66.585938 21.996094 68.898438 21.996094 C 71.554688 21.996094 72.210938 19.589844 72.210938 19.402344 C 72.210938 19.214844 71.992188 19.214844 71.929688 19.214844 C 71.773438 19.214844 71.710938 19.277344 71.679688 19.402344 C 71.117188 21.246094 69.804688 21.496094 69.085938 21.496094 C 68.023438 21.496094 66.273438 20.652344 66.273438 17.433594 Z M 66.273438 17.433594 "/>
<path style=" stroke:none;fill-rule:nonzero;fill:rgb(0%,0%,0%);fill-opacity:1;" d="M 75.125 17.433594 C 75.125 14.183594 76.75 13.339844 77.8125 13.339844 C 78 13.339844 79.25 13.371094 79.9375 14.089844 C 79.125 14.152344 79 14.746094 79 14.996094 C 79 15.527344 79.375 15.902344 79.90625 15.902344 C 80.4375 15.902344 80.84375 15.589844 80.84375 14.964844 C 80.84375 13.621094 79.3125 12.839844 77.78125 12.839844 C 75.28125 12.839844 73.46875 14.996094 73.46875 17.464844 C 73.46875 20.027344 75.4375 21.996094 77.75 21.996094 C 80.40625 21.996094 81.0625 19.589844 81.0625 19.402344 C 81.0625 19.214844 80.84375 19.214844 80.78125 19.214844 C 80.625 19.214844 80.5625 19.277344 80.53125 19.402344 C 79.96875 21.246094 78.65625 21.496094 77.9375 21.496094 C 76.875 21.496094 75.125 20.652344 75.125 17.433594 Z M 75.125 17.433594 "/>
<path style="fill:none;stroke-width:0.566929;stroke-linecap:butt;stroke-linejoin:miter;stroke:rgb(100%,0%,0%);stroke-opacity:0.5;stroke-miterlimit:10;" d="M 72.474794 2.835276 L 78.144716 -2.834646 " transform="matrix(2,0,0,2,5.952756,6.169291)"/>
<path style="fill:none;stroke-width:0.566929;stroke-linecap:butt;stroke-linejoin:miter;stroke:rgb(100%,0%,0%);stroke-opacity:0.5;stroke-miterlimit:10;" d="M 78.144716 2.835276 L 72.474794 -2.834646 " transform="matrix(2,0,0,2,5.952756,6.169291)"/>
<path style="fill-rule:nonzero;fill:rgb(50%,50%,0%);fill-opacity:0.1;stroke-width:0.566929;stroke-linecap:butt;stroke-linejoin:miter;stroke:rgb(100%,0%,0%);stroke-opacity:0.5;stroke-miterlimit:10;" d="M 67.420106 13.700511 L 83.19745 13.700511 L 83.19745 -0.000661294 L 67.420106 -0.000661294 Z M 67.420106 13.700511 " transform="matrix(2,0,0,2,5.952756,6.169291)"/>
<path style="fill:none;stroke-width:0.566929;stroke-linecap:butt;stroke-linejoin:miter;stroke:rgb(100%,0%,0%);stroke-opacity:0.5;stroke-miterlimit:10;" d="M 67.420106 13.700511 L 73.090028 8.030589 " transform="matrix(2,0,0,2,5.952756,6.169291)"/>
<path style="fill:none;stroke-width:0.566929;stroke-linecap:butt;stroke-linejoin:miter;stroke:rgb(100%,0%,0%);stroke-opacity:0.5;stroke-miterlimit:10;" d="M 73.090028 13.700511 L 67.420106 8.030589 " transform="matrix(2,0,0,2,5.952756,6.169291)"/>
<path style="fill-rule:nonzero;fill:rgb(50%,50%,0%);fill-opacity:0.1;stroke-width:0.566929;stroke-linecap:butt;stroke-linejoin:miter;stroke:rgb(100%,0%,0%);stroke-opacity:0.5;stroke-miterlimit:10;" d="M 67.420106 13.700511 L 83.19745 13.700511 L 83.19745 -0.000661294 L 67.420106 -0.000661294 Z M 67.420106 13.700511 " transform="matrix(2,0,0,2,5.952756,6.169291)"/>
<path style="fill:none;stroke-width:0.566929;stroke-linecap:butt;stroke-linejoin:miter;stroke:rgb(100%,0%,0%);stroke-opacity:0.5;stroke-miterlimit:10;" d="M 67.420106 13.700511 L 73.090028 8.030589 " transform="matrix(2,0,0,2,5.952756,6.169291)"/>
<path style="fill:none;stroke-width:0.566929;stroke-linecap:butt;stroke-linejoin:miter;stroke:rgb(100%,0%,0%);stroke-opacity:0.5;stroke-miterlimit:10;" d="M 73.090028 13.700511 L 67.420106 8.030589 " transform="matrix(2,0,0,2,5.952756,6.169291)"/>
<path style="fill-rule:nonzero;fill:rgb(50%,50%,0%);fill-opacity:0.1;stroke-width:0.566929;stroke-linecap:butt;stroke-linejoin:miter;stroke:rgb(100%,0%,0%);stroke-opacity:0.5;stroke-miterlimit:10;" d="M 70.256044 10.866526 L 80.363466 10.866526 L 80.363466 2.835276 L 70.256044 2.835276 Z M 70.256044 10.866526 " transform="matrix(2,0,0,2,5.952756,6.169291)"/>
<path style=" stroke:none;fill-rule:nonzero;fill:rgb(0%,0%,0%);fill-opacity:1;" d="M 155.871094 18.933594 L 158.152344 18.933594 L 158.152344 18.308594 L 155.808594 18.308594 L 155.808594 15.996094 C 155.808594 14.214844 156.777344 13.277344 157.652344 13.277344 C 157.714844 13.277344 158.027344 13.277344 158.308594 13.433594 C 158.089844 13.496094 157.714844 13.777344 157.714844 14.277344 C 157.714844 14.714844 158.027344 15.121094 158.589844 15.121094 C 159.152344 15.121094 159.464844 14.714844 159.464844 14.246094 C 159.464844 13.527344 158.746094 12.839844 157.652344 12.839844 C 156.464844 12.839844 155.589844 13.589844 155.496094 13.683594 C 154.902344 12.933594 153.777344 12.839844 153.246094 12.839844 C 151.371094 12.839844 149.058594 13.871094 149.058594 16.027344 L 149.058594 18.308594 L 147.464844 18.308594 L 147.464844 18.933594 L 149.058594 18.933594 L 149.058594 25.402344 C 149.058594 26.277344 148.839844 26.277344 147.496094 26.277344 L 147.496094 26.902344 C 148.152344 26.871094 149.214844 26.839844 149.714844 26.839844 C 150.214844 26.839844 151.183594 26.871094 151.933594 26.902344 L 151.933594 26.277344 C 150.589844 26.277344 150.371094 26.277344 150.371094 25.402344 L 150.371094 18.933594 L 154.558594 18.933594 L 154.558594 25.402344 C 154.558594 26.277344 154.339844 26.277344 152.996094 26.277344 L 152.996094 26.902344 C 153.777344 26.871094 154.714844 26.839844 155.277344 26.839844 C 156.058594 26.839844 156.996094 26.839844 157.808594 26.902344 L 157.808594 26.277344 L 157.371094 26.277344 C 155.902344 26.277344 155.871094 26.058594 155.871094 25.339844 Z M 150.308594 18.308594 L 150.308594 16.058594 C 150.308594 14.121094 151.933594 13.277344 153.246094 13.277344 C 154.214844 13.277344 154.777344 13.652344 154.777344 13.652344 L 154.777344 13.683594 C 154.464844 13.714844 154.058594 13.996094 154.058594 14.527344 C 154.058594 14.652344 154.058594 15.152344 154.621094 15.339844 C 154.558594 15.589844 154.558594 15.777344 154.558594 16.027344 L 154.558594 18.308594 Z M 150.308594 18.308594 "/>
<path style=" stroke:none;fill-rule:nonzero;fill:rgb(0%,0%,0%);fill-opacity:1;" d="M 162.054688 18.308594 L 162.054688 15.996094 C 162.054688 14.246094 162.992188 13.277344 163.867188 13.277344 C 163.929688 13.277344 164.242188 13.277344 164.523438 13.433594 C 164.304688 13.496094 163.929688 13.777344 163.929688 14.277344 C 163.929688 14.714844 164.242188 15.121094 164.804688 15.121094 C 165.367188 15.121094 165.679688 14.714844 165.679688 14.246094 C 165.679688 13.496094 164.929688 12.839844 163.867188 12.839844 C 162.492188 12.839844 160.773438 13.902344 160.773438 16.027344 L 160.773438 18.308594 L 159.210938 18.308594 L 159.210938 18.933594 L 160.773438 18.933594 L 160.773438 25.402344 C 160.773438 26.277344 160.554688 26.277344 159.242188 26.277344 L 159.242188 26.902344 C 160.023438 26.871094 160.960938 26.839844 161.492188 26.839844 C 162.304688 26.839844 163.242188 26.839844 164.023438 26.902344 L 164.023438 26.277344 L 163.617188 26.277344 C 162.148438 26.277344 162.117188 26.058594 162.117188 25.339844 L 162.117188 18.933594 L 164.367188 18.933594 L 164.367188 18.308594 Z M 162.054688 18.308594 "/>
<path style="fill:none;stroke-width:0.566929;stroke-linecap:butt;stroke-linejoin:miter;stroke:rgb(100%,0%,0%);stroke-opacity:0.5;stroke-miterlimit:10;" d="M 98.007997 2.835276 L 103.677919 -2.834646 " transform="matrix(2,0,0,2,5.952756,6.169291)"/>
<path style="fill:none;stroke-width:0.566929;stroke-linecap:butt;stroke-linejoin:miter;stroke:rgb(100%,0%,0%);stroke-opacity:0.5;stroke-miterlimit:10;" d="M 103.677919 2.835276 L 98.007997 -2.834646 " transform="matrix(2,0,0,2,5.952756,6.169291)"/>
<path style="fill:none;stroke-width:0.566929;stroke-linecap:butt;stroke-linejoin:miter;stroke:rgb(100%,0%,0%);stroke-opacity:0.5;stroke-miterlimit:10;" d="M 100.841981 28.346995 L 100.841981 -0.000661294 Z M 100.841981 28.346995 " transform="matrix(2,0,0,2,5.952756,6.169291)"/>
<path style="fill:none;stroke-width:0.566929;stroke-linecap:butt;stroke-linejoin:miter;stroke:rgb(100%,0%,0%);stroke-opacity:0.5;stroke-miterlimit:10;" d="M 5.720888 31.180979 L 11.39081 25.511057 " transform="matrix(2,0,0,2,5.952756,6.169291)"/>
<path style="fill:none;stroke-width:0.566929;stroke-linecap:butt;stroke-linejoin:miter;stroke:rgb(100%,0%,0%);stroke-opacity:0.5;stroke-miterlimit:10;" d="M 11.39081 31.180979 L 5.720888 25.511057 " transform="matrix(2,0,0,2,5.952756,6.169291)"/>
<path style="fill-rule:nonzero;fill:rgb(50%,50%,0%);fill-opacity:0.1;stroke-width:0.566929;stroke-linecap:butt;stroke-linejoin:miter;stroke:rgb(100%,0%,0%);stroke-opacity:0.5;stroke-miterlimit:10;" d="M 0.000184547 42.046214 L 17.111513 42.046214 L 17.111513 28.346995 L 0.000184547 28.346995 Z M 0.000184547 42.046214 " transform="matrix(2,0,0,2,5.952756,6.169291)"/>
<path style="fill:none;stroke-width:0.566929;stroke-linecap:butt;stroke-linejoin:miter;stroke:rgb(100%,0%,0%);stroke-opacity:0.5;stroke-miterlimit:10;" d="M 0.000184547 41.936839 L 5.670106 36.26887 " transform="matrix(2,0,0,2,5.952756,6.169291)"/>
<path style="fill:none;stroke-width:0.566929;stroke-linecap:butt;stroke-linejoin:miter;stroke:rgb(100%,0%,0%);stroke-opacity:0.5;stroke-miterlimit:10;" d="M 5.670106 41.936839 L 0.000184547 36.26887 " transform="matrix(2,0,0,2,5.952756,6.169291)"/>
<path style="fill-rule:nonzero;fill:rgb(50%,50%,0%);fill-opacity:0.1;stroke-width:0.566929;stroke-linecap:butt;stroke-linejoin:miter;stroke:rgb(100%,0%,0%);stroke-opacity:0.5;stroke-miterlimit:10;" d="M 0.000184547 42.046214 L 17.111513 42.046214 L 17.111513 28.346995 L 0.000184547 28.346995 Z M 0.000184547 42.046214 " transform="matrix(2,0,0,2,5.952756,6.169291)"/>
<path style="fill:none;stroke-width:0.566929;stroke-linecap:butt;stroke-linejoin:miter;stroke:rgb(100%,0%,0%);stroke-opacity:0.5;stroke-miterlimit:10;" d="M 0.000184547 41.936839 L 5.670106 36.26887 " transform="matrix(2,0,0,2,5.952756,6.169291)"/>
<path style="fill:none;stroke-width:0.566929;stroke-linecap:butt;stroke-linejoin:miter;stroke:rgb(100%,0%,0%);stroke-opacity:0.5;stroke-miterlimit:10;" d="M 5.670106 41.936839 L 0.000184547 36.26887 " transform="matrix(2,0,0,2,5.952756,6.169291)"/>
<path style="fill-rule:nonzero;fill:rgb(50%,50%,0%);fill-opacity:0.1;stroke-width:0.566929;stroke-linecap:butt;stroke-linejoin:miter;stroke:rgb(100%,0%,0%);stroke-opacity:0.5;stroke-miterlimit:10;" d="M 2.834169 39.212229 L 14.275575 39.212229 L 14.275575 31.180979 L 2.834169 31.180979 Z M 2.834169 39.212229 " transform="matrix(2,0,0,2,5.952756,6.169291)"/>
<path style=" stroke:none;fill-rule:nonzero;fill:rgb(0%,0%,0%);fill-opacity:1;" d="M 15.496094 75.84375 L 15.496094 69.53125 L 12.621094 69.75 L 12.621094 70.375 C 14.027344 70.375 14.183594 70.5 14.183594 71.5 L 14.183594 83.375 L 14.683594 83.375 C 14.683594 83.34375 14.839844 83.0625 15.402344 82.125 C 15.683594 82.59375 16.527344 83.59375 17.996094 83.59375 C 20.371094 83.59375 22.433594 81.625 22.433594 79.0625 C 22.433594 76.53125 20.496094 74.5625 18.214844 74.5625 C 16.652344 74.5625 15.808594 75.5 15.496094 75.84375 Z M 15.558594 81.09375 L 15.558594 77 C 15.558594 76.625 15.558594 76.59375 15.777344 76.28125 C 16.558594 75.15625 17.652344 75 18.121094 75 C 19.027344 75 19.746094 75.53125 20.214844 76.28125 C 20.746094 77.09375 20.777344 78.21875 20.777344 79.0625 C 20.777344 79.78125 20.746094 80.96875 20.183594 81.875 C 19.746094 82.5 18.996094 83.15625 17.933594 83.15625 C 17.027344 83.15625 16.308594 82.6875 15.839844 81.9375 C 15.558594 81.53125 15.558594 81.46875 15.558594 81.09375 Z M 15.558594 81.09375 "/>
<path style=" stroke:none;fill-rule:nonzero;fill:rgb(0%,0%,0%);fill-opacity:1;" d="M 26.566406 75.84375 L 26.566406 69.53125 L 23.691406 69.75 L 23.691406 70.375 C 25.097656 70.375 25.253906 70.5 25.253906 71.5 L 25.253906 83.375 L 25.753906 83.375 C 25.753906 83.34375 25.910156 83.0625 26.472656 82.125 C 26.753906 82.59375 27.597656 83.59375 29.066406 83.59375 C 31.441406 83.59375 33.503906 81.625 33.503906 79.0625 C 33.503906 76.53125 31.566406 74.5625 29.285156 74.5625 C 27.722656 74.5625 26.878906 75.5 26.566406 75.84375 Z M 26.628906 81.09375 L 26.628906 77 C 26.628906 76.625 26.628906 76.59375 26.847656 76.28125 C 27.628906 75.15625 28.722656 75 29.191406 75 C 30.097656 75 30.816406 75.53125 31.285156 76.28125 C 31.816406 77.09375 31.847656 78.21875 31.847656 79.0625 C 31.847656 79.78125 31.816406 80.96875 31.253906 81.875 C 30.816406 82.5 30.066406 83.15625 29.003906 83.15625 C 28.097656 83.15625 27.378906 82.6875 26.910156 81.9375 C 26.628906 81.53125 26.628906 81.46875 26.628906 81.09375 Z M 26.628906 81.09375 "/>
<path style="fill:none;stroke-width:0.566929;stroke-linecap:butt;stroke-linejoin:miter;stroke:rgb(100%,0%,0%);stroke-opacity:0.5;stroke-miterlimit:10;" d="M 30.60956 31.180979 L 36.277528 25.511057 " transform="matrix(2,0,0,2,5.952756,6.169291)"/>
<path style="fill:none;stroke-width:0.566929;stroke-linecap:butt;stroke-linejoin:miter;stroke:rgb(100%,0%,0%);stroke-opacity:0.5;stroke-miterlimit:10;" d="M 36.277528 31.180979 L 30.60956 25.511057 " transform="matrix(2,0,0,2,5.952756,6.169291)"/>
<path style="fill-rule:nonzero;fill:rgb(50%,50%,0%);fill-opacity:0.1;stroke-width:0.566929;stroke-linecap:butt;stroke-linejoin:miter;stroke:rgb(100%,0%,0%);stroke-opacity:0.5;stroke-miterlimit:10;" d="M 21.537294 39.593089 L 45.349794 39.593089 L 45.349794 28.346995 L 21.537294 28.346995 Z M 21.537294 39.593089 " transform="matrix(2,0,0,2,5.952756,6.169291)"/>
<path style="fill:none;stroke-width:0.566929;stroke-linecap:butt;stroke-linejoin:miter;stroke:rgb(100%,0%,0%);stroke-opacity:0.5;stroke-miterlimit:10;" d="M 21.537294 39.483714 L 27.207216 33.815745 " transform="matrix(2,0,0,2,5.952756,6.169291)"/>
<path style="fill:none;stroke-width:0.566929;stroke-linecap:butt;stroke-linejoin:miter;stroke:rgb(100%,0%,0%);stroke-opacity:0.5;stroke-miterlimit:10;" d="M 27.207216 39.483714 L 21.537294 33.815745 " transform="matrix(2,0,0,2,5.952756,6.169291)"/>
<path style="fill-rule:nonzero;fill:rgb(50%,50%,0%);fill-opacity:0.1;stroke-width:0.566929;stroke-linecap:butt;stroke-linejoin:miter;stroke:rgb(100%,0%,0%);stroke-opacity:0.5;stroke-miterlimit:10;" d="M 21.537294 39.593089 L 45.349794 39.593089 L 45.349794 28.346995 L 21.537294 28.346995 Z M 21.537294 39.593089 " transform="matrix(2,0,0,2,5.952756,6.169291)"/>
<path style="fill:none;stroke-width:0.566929;stroke-linecap:butt;stroke-linejoin:miter;stroke:rgb(100%,0%,0%);stroke-opacity:0.5;stroke-miterlimit:10;" d="M 21.537294 39.483714 L 27.207216 33.815745 " transform="matrix(2,0,0,2,5.952756,6.169291)"/>
<path style="fill:none;stroke-width:0.566929;stroke-linecap:butt;stroke-linejoin:miter;stroke:rgb(100%,0%,0%);stroke-opacity:0.5;stroke-miterlimit:10;" d="M 27.207216 39.483714 L 21.537294 33.815745 " transform="matrix(2,0,0,2,5.952756,6.169291)"/>
<path style="fill-rule:nonzero;fill:rgb(50%,50%,0%);fill-opacity:0.1;stroke-width:0.566929;stroke-linecap:butt;stroke-linejoin:miter;stroke:rgb(100%,0%,0%);stroke-opacity:0.5;stroke-miterlimit:10;" d="M 24.373231 36.759104 L 42.513856 36.759104 L 42.513856 31.180979 L 24.373231 31.180979 Z M 24.373231 36.759104 " transform="matrix(2,0,0,2,5.952756,6.169291)"/>
<path style=" stroke:none;fill-rule:nonzero;fill:rgb(0%,0%,0%);fill-opacity:1;" d="M 57.355469 73.4375 C 57.480469 70.46875 59.167969 69.96875 59.855469 69.96875 C 61.886719 69.96875 62.105469 72.65625 62.105469 73.4375 Z M 57.355469 73.875 L 62.917969 73.875 C 63.355469 73.875 63.417969 73.875 63.417969 73.4375 C 63.417969 71.46875 62.324219 69.53125 59.855469 69.53125 C 57.542969 69.53125 55.699219 71.59375 55.699219 74.09375 C 55.699219 76.75 57.792969 78.6875 60.074219 78.6875 C 62.511719 78.6875 63.417969 76.46875 63.417969 76.09375 C 63.417969 75.90625 63.261719 75.84375 63.136719 75.84375 C 62.980469 75.84375 62.917969 75.96875 62.886719 76.125 C 62.199219 78.1875 60.386719 78.1875 60.199219 78.1875 C 59.199219 78.1875 58.417969 77.59375 57.949219 76.84375 C 57.355469 75.90625 57.355469 74.59375 57.355469 73.875 Z M 57.355469 73.875 "/>
<path style=" stroke:none;fill-rule:nonzero;fill:rgb(0%,0%,0%);fill-opacity:1;" d="M 66.210938 73.4375 C 66.335938 70.46875 68.023438 69.96875 68.710938 69.96875 C 70.742188 69.96875 70.960938 72.65625 70.960938 73.4375 Z M 66.210938 73.875 L 71.773438 73.875 C 72.210938 73.875 72.273438 73.875 72.273438 73.4375 C 72.273438 71.46875 71.179688 69.53125 68.710938 69.53125 C 66.398438 69.53125 64.554688 71.59375 64.554688 74.09375 C 64.554688 76.75 66.648438 78.6875 68.929688 78.6875 C 71.367188 78.6875 72.273438 76.46875 72.273438 76.09375 C 72.273438 75.90625 72.117188 75.84375 71.992188 75.84375 C 71.835938 75.84375 71.773438 75.96875 71.742188 76.125 C 71.054688 78.1875 69.242188 78.1875 69.054688 78.1875 C 68.054688 78.1875 67.273438 77.59375 66.804688 76.84375 C 66.210938 75.90625 66.210938 74.59375 66.210938 73.875 Z M 66.210938 73.875 "/>
<path style=" stroke:none;fill-rule:nonzero;fill:rgb(0%,0%,0%);fill-opacity:1;" d="M 75.0625 73.4375 C 75.1875 70.46875 76.875 69.96875 77.5625 69.96875 C 79.59375 69.96875 79.8125 72.65625 79.8125 73.4375 Z M 75.0625 73.875 L 80.625 73.875 C 81.0625 73.875 81.125 73.875 81.125 73.4375 C 81.125 71.46875 80.03125 69.53125 77.5625 69.53125 C 75.25 69.53125 73.40625 71.59375 73.40625 74.09375 C 73.40625 76.75 75.5 78.6875 77.78125 78.6875 C 80.21875 78.6875 81.125 76.46875 81.125 76.09375 C 81.125 75.90625 80.96875 75.84375 80.84375 75.84375 C 80.6875 75.84375 80.625 75.96875 80.59375 76.125 C 79.90625 78.1875 78.09375 78.1875 77.90625 78.1875 C 76.90625 78.1875 76.125 77.59375 75.65625 76.84375 C 75.0625 75.90625 75.0625 74.59375 75.0625 73.875 Z M 75.0625 73.875 "/>
<path style=" stroke:none;fill-rule:nonzero;fill:rgb(0%,0%,0%);fill-opacity:1;" d="M 83.917969 73.4375 C 84.042969 70.46875 85.730469 69.96875 86.417969 69.96875 C 88.449219 69.96875 88.667969 72.65625 88.667969 73.4375 Z M 83.917969 73.875 L 89.480469 73.875 C 89.917969 73.875 89.980469 73.875 89.980469 73.4375 C 89.980469 71.46875 88.886719 69.53125 86.417969 69.53125 C 84.105469 69.53125 82.261719 71.59375 82.261719 74.09375 C 82.261719 76.75 84.355469 78.6875 86.636719 78.6875 C 89.074219 78.6875 89.980469 76.46875 89.980469 76.09375 C 89.980469 75.90625 89.824219 75.84375 89.699219 75.84375 C 89.542969 75.84375 89.480469 75.96875 89.449219 76.125 C 88.761719 78.1875 86.949219 78.1875 86.761719 78.1875 C 85.761719 78.1875 84.980469 77.59375 84.511719 76.84375 C 83.917969 75.90625 83.917969 74.59375 83.917969 73.875 Z M 83.917969 73.875 "/>
<path style="fill:none;stroke-width:0.566929;stroke-linecap:butt;stroke-linejoin:miter;stroke:rgb(100%,0%,0%);stroke-opacity:0.5;stroke-miterlimit:10;" d="M 72.474794 31.180979 L 78.144716 25.511057 " transform="matrix(2,0,0,2,5.952756,6.169291)"/>
<path style="fill:none;stroke-width:0.566929;stroke-linecap:butt;stroke-linejoin:miter;stroke:rgb(100%,0%,0%);stroke-opacity:0.5;stroke-miterlimit:10;" d="M 78.144716 31.180979 L 72.474794 25.511057 " transform="matrix(2,0,0,2,5.952756,6.169291)"/>
<path style="fill-rule:nonzero;fill:rgb(50%,50%,0%);fill-opacity:0.1;stroke-width:0.566929;stroke-linecap:butt;stroke-linejoin:miter;stroke:rgb(100%,0%,0%);stroke-opacity:0.5;stroke-miterlimit:10;" d="M 55.683778 42.046214 L 94.935731 42.046214 L 94.935731 28.346995 L 55.683778 28.346995 Z M 55.683778 42.046214 " transform="matrix(2,0,0,2,5.952756,6.169291)"/>
<path style="fill:none;stroke-width:0.566929;stroke-linecap:butt;stroke-linejoin:miter;stroke:rgb(100%,0%,0%);stroke-opacity:0.5;stroke-miterlimit:10;" d="M 55.683778 41.936839 L 61.3537 36.26887 " transform="matrix(2,0,0,2,5.952756,6.169291)"/>
<path style="fill:none;stroke-width:0.566929;stroke-linecap:butt;stroke-linejoin:miter;stroke:rgb(100%,0%,0%);stroke-opacity:0.5;stroke-miterlimit:10;" d="M 61.3537 41.936839 L 55.683778 36.26887 " transform="matrix(2,0,0,2,5.952756,6.169291)"/>
<path style="fill-rule:nonzero;fill:rgb(50%,50%,0%);fill-opacity:0.1;stroke-width:0.566929;stroke-linecap:butt;stroke-linejoin:miter;stroke:rgb(100%,0%,0%);stroke-opacity:0.5;stroke-miterlimit:10;" d="M 55.683778 42.046214 L 94.935731 42.046214 L 94.935731 28.346995 L 55.683778 28.346995 Z M 55.683778 42.046214 " transform="matrix(2,0,0,2,5.952756,6.169291)"/>
<path style="fill:none;stroke-width:0.566929;stroke-linecap:butt;stroke-linejoin:miter;stroke:rgb(100%,0%,0%);stroke-opacity:0.5;stroke-miterlimit:10;" d="M 55.683778 41.936839 L 61.3537 36.26887 " transform="matrix(2,0,0,2,5.952756,6.169291)"/>
<path style="fill:none;stroke-width:0.566929;stroke-linecap:butt;stroke-linejoin:miter;stroke:rgb(100%,0%,0%);stroke-opacity:0.5;stroke-miterlimit:10;" d="M 61.3537 41.936839 L 55.683778 36.26887 " transform="matrix(2,0,0,2,5.952756,6.169291)"/>
<path style="fill-rule:nonzero;fill:rgb(50%,50%,0%);fill-opacity:0.1;stroke-width:0.566929;stroke-linecap:butt;stroke-linejoin:miter;stroke:rgb(100%,0%,0%);stroke-opacity:0.5;stroke-miterlimit:10;" d="M 58.517763 39.212229 L 92.101747 39.212229 L 92.101747 31.180979 L 58.517763 31.180979 Z M 58.517763 39.212229 " transform="matrix(2,0,0,2,5.952756,6.169291)"/>
<path style=" stroke:none;fill-rule:nonzero;fill:rgb(0%,0%,0%);fill-opacity:1;" d="M 126.863281 75.84375 L 126.863281 69.53125 L 123.988281 69.75 L 123.988281 70.375 C 125.394531 70.375 125.550781 70.5 125.550781 71.5 L 125.550781 83.375 L 126.050781 83.375 C 126.050781 83.34375 126.207031 83.0625 126.769531 82.125 C 127.050781 82.59375 127.894531 83.59375 129.363281 83.59375 C 131.738281 83.59375 133.800781 81.625 133.800781 79.0625 C 133.800781 76.53125 131.863281 74.5625 129.582031 74.5625 C 128.019531 74.5625 127.175781 75.5 126.863281 75.84375 Z M 126.925781 81.09375 L 126.925781 77 C 126.925781 76.625 126.925781 76.59375 127.144531 76.28125 C 127.925781 75.15625 129.019531 75 129.488281 75 C 130.394531 75 131.113281 75.53125 131.582031 76.28125 C 132.113281 77.09375 132.144531 78.21875 132.144531 79.0625 C 132.144531 79.78125 132.113281 80.96875 131.550781 81.875 C 131.113281 82.5 130.363281 83.15625 129.300781 83.15625 C 128.394531 83.15625 127.675781 82.6875 127.207031 81.9375 C 126.925781 81.53125 126.925781 81.46875 126.925781 81.09375 Z M 126.925781 81.09375 "/>
<path style=" stroke:none;fill-rule:nonzero;fill:rgb(0%,0%,0%);fill-opacity:1;" d="M 137.933594 75.84375 L 137.933594 69.53125 L 135.058594 69.75 L 135.058594 70.375 C 136.464844 70.375 136.621094 70.5 136.621094 71.5 L 136.621094 83.375 L 137.121094 83.375 C 137.121094 83.34375 137.277344 83.0625 137.839844 82.125 C 138.121094 82.59375 138.964844 83.59375 140.433594 83.59375 C 142.808594 83.59375 144.871094 81.625 144.871094 79.0625 C 144.871094 76.53125 142.933594 74.5625 140.652344 74.5625 C 139.089844 74.5625 138.246094 75.5 137.933594 75.84375 Z M 137.996094 81.09375 L 137.996094 77 C 137.996094 76.625 137.996094 76.59375 138.214844 76.28125 C 138.996094 75.15625 140.089844 75 140.558594 75 C 141.464844 75 142.183594 75.53125 142.652344 76.28125 C 143.183594 77.09375 143.214844 78.21875 143.214844 79.0625 C 143.214844 79.78125 143.183594 80.96875 142.621094 81.875 C 142.183594 82.5 141.433594 83.15625 140.371094 83.15625 C 139.464844 83.15625 138.746094 82.6875 138.277344 81.9375 C 137.996094 81.53125 137.996094 81.46875 137.996094 81.09375 Z M 137.996094 81.09375 "/>
<path style=" stroke:none;fill-rule:nonzero;fill:rgb(0%,0%,0%);fill-opacity:1;" d="M 149.003906 75.84375 L 149.003906 69.53125 L 146.128906 69.75 L 146.128906 70.375 C 147.535156 70.375 147.691406 70.5 147.691406 71.5 L 147.691406 83.375 L 148.191406 83.375 C 148.191406 83.34375 148.347656 83.0625 148.910156 82.125 C 149.191406 82.59375 150.035156 83.59375 151.503906 83.59375 C 153.878906 83.59375 155.941406 81.625 155.941406 79.0625 C 155.941406 76.53125 154.003906 74.5625 151.722656 74.5625 C 150.160156 74.5625 149.316406 75.5 149.003906 75.84375 Z M 149.066406 81.09375 L 149.066406 77 C 149.066406 76.625 149.066406 76.59375 149.285156 76.28125 C 150.066406 75.15625 151.160156 75 151.628906 75 C 152.535156 75 153.253906 75.53125 153.722656 76.28125 C 154.253906 77.09375 154.285156 78.21875 154.285156 79.0625 C 154.285156 79.78125 154.253906 80.96875 153.691406 81.875 C 153.253906 82.5 152.503906 83.15625 151.441406 83.15625 C 150.535156 83.15625 149.816406 82.6875 149.347656 81.9375 C 149.066406 81.53125 149.066406 81.46875 149.066406 81.09375 Z M 149.066406 81.09375 "/>
<path style=" stroke:none;fill-rule:nonzero;fill:rgb(0%,0%,0%);fill-opacity:1;" d="M 160.074219 75.84375 L 160.074219 69.53125 L 157.199219 69.75 L 157.199219 70.375 C 158.605469 70.375 158.761719 70.5 158.761719 71.5 L 158.761719 83.375 L 159.261719 83.375 C 159.261719 83.34375 159.417969 83.0625 159.980469 82.125 C 160.261719 82.59375 161.105469 83.59375 162.574219 83.59375 C 164.949219 83.59375 167.011719 81.625 167.011719 79.0625 C 167.011719 76.53125 165.074219 74.5625 162.792969 74.5625 C 161.230469 74.5625 160.386719 75.5 160.074219 75.84375 Z M 160.136719 81.09375 L 160.136719 77 C 160.136719 76.625 160.136719 76.59375 160.355469 76.28125 C 161.136719 75.15625 162.230469 75 162.699219 75 C 163.605469 75 164.324219 75.53125 164.792969 76.28125 C 165.324219 77.09375 165.355469 78.21875 165.355469 79.0625 C 165.355469 79.78125 165.324219 80.96875 164.761719 81.875 C 164.324219 82.5 163.574219 83.15625 162.511719 83.15625 C 161.605469 83.15625 160.886719 82.6875 160.417969 81.9375 C 160.136719 81.53125 160.136719 81.46875 160.136719 81.09375 Z M 160.136719 81.09375 "/>
<path style=" stroke:none;fill-rule:nonzero;fill:rgb(0%,0%,0%);fill-opacity:1;" d="M 171.144531 75.84375 L 171.144531 69.53125 L 168.269531 69.75 L 168.269531 70.375 C 169.675781 70.375 169.832031 70.5 169.832031 71.5 L 169.832031 83.375 L 170.332031 83.375 C 170.332031 83.34375 170.488281 83.0625 171.050781 82.125 C 171.332031 82.59375 172.175781 83.59375 173.644531 83.59375 C 176.019531 83.59375 178.082031 81.625 178.082031 79.0625 C 178.082031 76.53125 176.144531 74.5625 173.863281 74.5625 C 172.300781 74.5625 171.457031 75.5 171.144531 75.84375 Z M 171.207031 81.09375 L 171.207031 77 C 171.207031 76.625 171.207031 76.59375 171.425781 76.28125 C 172.207031 75.15625 173.300781 75 173.769531 75 C 174.675781 75 175.394531 75.53125 175.863281 76.28125 C 176.394531 77.09375 176.425781 78.21875 176.425781 79.0625 C 176.425781 79.78125 176.394531 80.96875 175.832031 81.875 C 175.394531 82.5 174.644531 83.15625 173.582031 83.15625 C 172.675781 83.15625 171.957031 82.6875 171.488281 81.9375 C 171.207031 81.53125 171.207031 81.46875 171.207031 81.09375 Z M 171.207031 81.09375 "/>
<path style=" stroke:none;fill-rule:nonzero;fill:rgb(0%,0%,0%);fill-opacity:1;" d="M 182.21875 75.84375 L 182.21875 69.53125 L 179.34375 69.75 L 179.34375 70.375 C 180.75 70.375 180.90625 70.5 180.90625 71.5 L 180.90625 83.375 L 181.40625 83.375 C 181.40625 83.34375 181.5625 83.0625 182.125 82.125 C 182.40625 82.59375 183.25 83.59375 184.71875 83.59375 C 187.09375 83.59375 189.15625 81.625 189.15625 79.0625 C 189.15625 76.53125 187.21875 74.5625 184.9375 74.5625 C 183.375 74.5625 182.53125 75.5 182.21875 75.84375 Z M 182.28125 81.09375 L 182.28125 77 C 182.28125 76.625 182.28125 76.59375 182.5 76.28125 C 183.28125 75.15625 184.375 75 184.84375 75 C 185.75 75 186.46875 75.53125 186.9375 76.28125 C 187.46875 77.09375 187.5 78.21875 187.5 79.0625 C 187.5 79.78125 187.46875 80.96875 186.90625 81.875 C 186.46875 82.5 185.71875 83.15625 184.65625 83.15625 C 183.75 83.15625 183.03125 82.6875 182.5625 81.9375 C 182.28125 81.53125 182.28125 81.46875 182.28125 81.09375 Z M 182.28125 81.09375 "/>
<path style="fill:none;stroke-width:0.566929;stroke-linecap:butt;stroke-linejoin:miter;stroke:rgb(100%,0%,0%);stroke-opacity:0.5;stroke-miterlimit:10;" d="M 98.007997 31.180979 L 103.677919 25.511057 " transform="matrix(2,0,0,2,5.952756,6.169291)"/>
<path style="fill:none;stroke-width:0.566929;stroke-linecap:butt;stroke-linejoin:miter;stroke:rgb(100%,0%,0%);stroke-opacity:0.5;stroke-miterlimit:10;" d="M 103.677919 31.180979 L 98.007997 25.511057 " transform="matrix(2,0,0,2,5.952756,6.169291)"/>
<path style="fill:none;stroke-width:0.566929;stroke-linecap:butt;stroke-linejoin:miter;stroke:rgb(100%,0%,0%);stroke-opacity:0.5;stroke-miterlimit:10;" d="M 100.841981 56.692698 L 100.841981 28.346995 Z M 100.841981 56.692698 " transform="matrix(2,0,0,2,5.952756,6.169291)"/>
<path style="fill:none;stroke-width:0.566929;stroke-linecap:butt;stroke-linejoin:miter;stroke:rgb(100%,0%,0%);stroke-opacity:0.5;stroke-miterlimit:10;" d="M 5.720888 59.526682 L 11.39081 53.858714 " transform="matrix(2,0,0,2,5.952756,6.169291)"/>
<path style="fill:none;stroke-width:0.566929;stroke-linecap:butt;stroke-linejoin:miter;stroke:rgb(100%,0%,0%);stroke-opacity:0.5;stroke-miterlimit:10;" d="M 11.39081 59.526682 L 5.720888 53.858714 " transform="matrix(2,0,0,2,5.952756,6.169291)"/>
<path style="fill-rule:nonzero;fill:rgb(50%,50%,0%);fill-opacity:0.1;stroke-width:0.566929;stroke-linecap:butt;stroke-linejoin:miter;stroke:rgb(100%,0%,0%);stroke-opacity:0.5;stroke-miterlimit:10;" d="M 0.6662 70.39387 L 16.443544 70.39387 L 16.443544 56.692698 L 0.6662 56.692698 Z M 0.6662 70.39387 " transform="matrix(2,0,0,2,5.952756,6.169291)"/>
<path style="fill:none;stroke-width:0.566929;stroke-linecap:butt;stroke-linejoin:miter;stroke:rgb(100%,0%,0%);stroke-opacity:0.5;stroke-miterlimit:10;" d="M 0.6662 70.39387 L 6.336122 64.723948 " transform="matrix(2,0,0,2,5.952756,6.169291)"/>
<path style="fill:none;stroke-width:0.566929;stroke-linecap:butt;stroke-linejoin:miter;stroke:rgb(100%,0%,0%);stroke-opacity:0.5;stroke-miterlimit:10;" d="M 6.336122 70.39387 L 0.6662 64.723948 " transform="matrix(2,0,0,2,5.952756,6.169291)"/>
<path style="fill-rule:nonzero;fill:rgb(50%,50%,0%);fill-opacity:0.1;stroke-width:0.566929;stroke-linecap:butt;stroke-linejoin:miter;stroke:rgb(100%,0%,0%);stroke-opacity:0.5;stroke-miterlimit:10;" d="M 0.6662 70.39387 L 16.443544 70.39387 L 16.443544 56.692698 L 0.6662 56.692698 Z M 0.6662 70.39387 " transform="matrix(2,0,0,2,5.952756,6.169291)"/>
<path style="fill:none;stroke-width:0.566929;stroke-linecap:butt;stroke-linejoin:miter;stroke:rgb(100%,0%,0%);stroke-opacity:0.5;stroke-miterlimit:10;" d="M 0.6662 70.39387 L 6.336122 64.723948 " transform="matrix(2,0,0,2,5.952756,6.169291)"/>
<path style="fill:none;stroke-width:0.566929;stroke-linecap:butt;stroke-linejoin:miter;stroke:rgb(100%,0%,0%);stroke-opacity:0.5;stroke-miterlimit:10;" d="M 6.336122 70.39387 L 0.6662 64.723948 " transform="matrix(2,0,0,2,5.952756,6.169291)"/>
<path style="fill-rule:nonzero;fill:rgb(50%,50%,0%);fill-opacity:0.1;stroke-width:0.566929;stroke-linecap:butt;stroke-linejoin:miter;stroke:rgb(100%,0%,0%);stroke-opacity:0.5;stroke-miterlimit:10;" d="M 3.502138 67.557932 L 13.60956 67.557932 L 13.60956 59.526682 L 3.502138 59.526682 Z M 3.502138 67.557932 " transform="matrix(2,0,0,2,5.952756,6.169291)"/>
<path style=" stroke:none;fill-rule:nonzero;fill:rgb(0%,0%,0%);fill-opacity:1;" d="M 22.363281 132.316406 L 24.644531 132.316406 L 24.644531 131.691406 L 22.300781 131.691406 L 22.300781 129.378906 C 22.300781 127.597656 23.269531 126.660156 24.144531 126.660156 C 24.207031 126.660156 24.519531 126.660156 24.800781 126.816406 C 24.582031 126.878906 24.207031 127.160156 24.207031 127.660156 C 24.207031 128.097656 24.519531 128.503906 25.082031 128.503906 C 25.644531 128.503906 25.957031 128.097656 25.957031 127.628906 C 25.957031 126.910156 25.238281 126.222656 24.144531 126.222656 C 22.957031 126.222656 22.082031 126.972656 21.988281 127.066406 C 21.394531 126.316406 20.269531 126.222656 19.738281 126.222656 C 17.863281 126.222656 15.550781 127.253906 15.550781 129.410156 L 15.550781 131.691406 L 13.957031 131.691406 L 13.957031 132.316406 L 15.550781 132.316406 L 15.550781 138.785156 C 15.550781 139.660156 15.332031 139.660156 13.988281 139.660156 L 13.988281 140.285156 C 14.644531 140.253906 15.707031 140.222656 16.207031 140.222656 C 16.707031 140.222656 17.675781 140.253906 18.425781 140.285156 L 18.425781 139.660156 C 17.082031 139.660156 16.863281 139.660156 16.863281 138.785156 L 16.863281 132.316406 L 21.050781 132.316406 L 21.050781 138.785156 C 21.050781 139.660156 20.832031 139.660156 19.488281 139.660156 L 19.488281 140.285156 C 20.269531 140.253906 21.207031 140.222656 21.769531 140.222656 C 22.550781 140.222656 23.488281 140.222656 24.300781 140.285156 L 24.300781 139.660156 L 23.863281 139.660156 C 22.394531 139.660156 22.363281 139.441406 22.363281 138.722656 Z M 16.800781 131.691406 L 16.800781 129.441406 C 16.800781 127.503906 18.425781 126.660156 19.738281 126.660156 C 20.707031 126.660156 21.269531 127.035156 21.269531 127.035156 L 21.269531 127.066406 C 20.957031 127.097656 20.550781 127.378906 20.550781 127.910156 C 20.550781 128.035156 20.550781 128.535156 21.113281 128.722656 C 21.050781 128.972656 21.050781 129.160156 21.050781 129.410156 L 21.050781 131.691406 Z M 16.800781 131.691406 "/>
<path style=" stroke:none;fill-rule:nonzero;fill:rgb(0%,0%,0%);fill-opacity:1;" d="M 28.546875 131.691406 L 28.546875 129.378906 C 28.546875 127.628906 29.484375 126.660156 30.359375 126.660156 C 30.421875 126.660156 30.734375 126.660156 31.015625 126.816406 C 30.796875 126.878906 30.421875 127.160156 30.421875 127.660156 C 30.421875 128.097656 30.734375 128.503906 31.296875 128.503906 C 31.859375 128.503906 32.171875 128.097656 32.171875 127.628906 C 32.171875 126.878906 31.421875 126.222656 30.359375 126.222656 C 28.984375 126.222656 27.265625 127.285156 27.265625 129.410156 L 27.265625 131.691406 L 25.703125 131.691406 L 25.703125 132.316406 L 27.265625 132.316406 L 27.265625 138.785156 C 27.265625 139.660156 27.046875 139.660156 25.734375 139.660156 L 25.734375 140.285156 C 26.515625 140.253906 27.453125 140.222656 27.984375 140.222656 C 28.796875 140.222656 29.734375 140.222656 30.515625 140.285156 L 30.515625 139.660156 L 30.109375 139.660156 C 28.640625 139.660156 28.609375 139.441406 28.609375 138.722656 L 28.609375 132.316406 L 30.859375 132.316406 L 30.859375 131.691406 Z M 28.546875 131.691406 "/>
<path style="fill:none;stroke-width:0.566929;stroke-linecap:butt;stroke-linejoin:miter;stroke:rgb(100%,0%,0%);stroke-opacity:0.5;stroke-miterlimit:10;" d="M 30.60956 59.526682 L 36.277528 53.858714 " transform="matrix(2,0,0,2,5.952756,6.169291)"/>
<path style="fill:none;stroke-width:0.566929;stroke-linecap:butt;stroke-linejoin:miter;stroke:rgb(100%,0%,0%);stroke-opacity:0.5;stroke-miterlimit:10;" d="M 36.277528 59.526682 L 30.60956 53.858714 " transform="matrix(2,0,0,2,5.952756,6.169291)"/>
<path style="fill-rule:nonzero;fill:rgb(50%,50%,0%);fill-opacity:0.1;stroke-width:0.566929;stroke-linecap:butt;stroke-linejoin:miter;stroke:rgb(100%,0%,0%);stroke-opacity:0.5;stroke-miterlimit:10;" d="M 17.111513 67.940745 L 49.775575 67.940745 L 49.775575 56.692698 L 17.111513 56.692698 Z M 17.111513 67.940745 " transform="matrix(2,0,0,2,5.952756,6.169291)"/>
<path style="fill:none;stroke-width:0.566929;stroke-linecap:butt;stroke-linejoin:miter;stroke:rgb(100%,0%,0%);stroke-opacity:0.5;stroke-miterlimit:10;" d="M 17.111513 67.83137 L 22.779481 62.161448 " transform="matrix(2,0,0,2,5.952756,6.169291)"/>
<path style="fill:none;stroke-width:0.566929;stroke-linecap:butt;stroke-linejoin:miter;stroke:rgb(100%,0%,0%);stroke-opacity:0.5;stroke-miterlimit:10;" d="M 22.779481 67.83137 L 17.111513 62.161448 " transform="matrix(2,0,0,2,5.952756,6.169291)"/>
<path style="fill-rule:nonzero;fill:rgb(50%,50%,0%);fill-opacity:0.1;stroke-width:0.566929;stroke-linecap:butt;stroke-linejoin:miter;stroke:rgb(100%,0%,0%);stroke-opacity:0.5;stroke-miterlimit:10;" d="M 17.111513 67.940745 L 49.775575 67.940745 L 49.775575 56.692698 L 17.111513 56.692698 Z M 17.111513 67.940745 " transform="matrix(2,0,0,2,5.952756,6.169291)"/>
<path style="fill:none;stroke-width:0.566929;stroke-linecap:butt;stroke-linejoin:miter;stroke:rgb(100%,0%,0%);stroke-opacity:0.5;stroke-miterlimit:10;" d="M 17.111513 67.83137 L 22.779481 62.161448 " transform="matrix(2,0,0,2,5.952756,6.169291)"/>
<path style="fill:none;stroke-width:0.566929;stroke-linecap:butt;stroke-linejoin:miter;stroke:rgb(100%,0%,0%);stroke-opacity:0.5;stroke-miterlimit:10;" d="M 22.779481 67.83137 L 17.111513 62.161448 " transform="matrix(2,0,0,2,5.952756,6.169291)"/>
<path style="fill-rule:nonzero;fill:rgb(50%,50%,0%);fill-opacity:0.1;stroke-width:0.566929;stroke-linecap:butt;stroke-linejoin:miter;stroke:rgb(100%,0%,0%);stroke-opacity:0.5;stroke-miterlimit:10;" d="M 19.945497 65.104807 L 46.941591 65.104807 L 46.941591 59.526682 L 19.945497 59.526682 Z M 19.945497 65.104807 " transform="matrix(2,0,0,2,5.952756,6.169291)"/>
<path style=" stroke:none;fill-rule:nonzero;fill:rgb(0%,0%,0%);fill-opacity:1;" d="M 48.5 130.128906 C 48.625 127.160156 50.3125 126.660156 51 126.660156 C 53.03125 126.660156 53.25 129.347656 53.25 130.128906 Z M 48.5 130.566406 L 54.0625 130.566406 C 54.5 130.566406 54.5625 130.566406 54.5625 130.128906 C 54.5625 128.160156 53.46875 126.222656 51 126.222656 C 48.6875 126.222656 46.84375 128.285156 46.84375 130.785156 C 46.84375 133.441406 48.9375 135.378906 51.21875 135.378906 C 53.65625 135.378906 54.5625 133.160156 54.5625 132.785156 C 54.5625 132.597656 54.40625 132.535156 54.28125 132.535156 C 54.125 132.535156 54.0625 132.660156 54.03125 132.816406 C 53.34375 134.878906 51.53125 134.878906 51.34375 134.878906 C 50.34375 134.878906 49.5625 134.285156 49.09375 133.535156 C 48.5 132.597656 48.5 131.285156 48.5 130.566406 Z M 48.5 130.566406 "/>
<path style=" stroke:none;fill-rule:nonzero;fill:rgb(0%,0%,0%);fill-opacity:1;" d="M 57.355469 130.128906 C 57.480469 127.160156 59.167969 126.660156 59.855469 126.660156 C 61.886719 126.660156 62.105469 129.347656 62.105469 130.128906 Z M 57.355469 130.566406 L 62.917969 130.566406 C 63.355469 130.566406 63.417969 130.566406 63.417969 130.128906 C 63.417969 128.160156 62.324219 126.222656 59.855469 126.222656 C 57.542969 126.222656 55.699219 128.285156 55.699219 130.785156 C 55.699219 133.441406 57.792969 135.378906 60.074219 135.378906 C 62.511719 135.378906 63.417969 133.160156 63.417969 132.785156 C 63.417969 132.597656 63.261719 132.535156 63.136719 132.535156 C 62.980469 132.535156 62.917969 132.660156 62.886719 132.816406 C 62.199219 134.878906 60.386719 134.878906 60.199219 134.878906 C 59.199219 134.878906 58.417969 134.285156 57.949219 133.535156 C 57.355469 132.597656 57.355469 131.285156 57.355469 130.566406 Z M 57.355469 130.566406 "/>
<path style=" stroke:none;fill-rule:nonzero;fill:rgb(0%,0%,0%);fill-opacity:1;" d="M 66.210938 130.128906 C 66.335938 127.160156 68.023438 126.660156 68.710938 126.660156 C 70.742188 126.660156 70.960938 129.347656 70.960938 130.128906 Z M 66.210938 130.566406 L 71.773438 130.566406 C 72.210938 130.566406 72.273438 130.566406 72.273438 130.128906 C 72.273438 128.160156 71.179688 126.222656 68.710938 126.222656 C 66.398438 126.222656 64.554688 128.285156 64.554688 130.785156 C 64.554688 133.441406 66.648438 135.378906 68.929688 135.378906 C 71.367188 135.378906 72.273438 133.160156 72.273438 132.785156 C 72.273438 132.597656 72.117188 132.535156 71.992188 132.535156 C 71.835938 132.535156 71.773438 132.660156 71.742188 132.816406 C 71.054688 134.878906 69.242188 134.878906 69.054688 134.878906 C 68.054688 134.878906 67.273438 134.285156 66.804688 133.535156 C 66.210938 132.597656 66.210938 131.285156 66.210938 130.566406 Z M 66.210938 130.566406 "/>
<path style=" stroke:none;fill-rule:nonzero;fill:rgb(0%,0%,0%);fill-opacity:1;" d="M 75.0625 130.128906 C 75.1875 127.160156 76.875 126.660156 77.5625 126.660156 C 79.59375 126.660156 79.8125 129.347656 79.8125 130.128906 Z M 75.0625 130.566406 L 80.625 130.566406 C 81.0625 130.566406 81.125 130.566406 81.125 130.128906 C 81.125 128.160156 80.03125 126.222656 77.5625 126.222656 C 75.25 126.222656 73.40625 128.285156 73.40625 130.785156 C 73.40625 133.441406 75.5 135.378906 77.78125 135.378906 C 80.21875 135.378906 81.125 133.160156 81.125 132.785156 C 81.125 132.597656 80.96875 132.535156 80.84375 132.535156 C 80.6875 132.535156 80.625 132.660156 80.59375 132.816406 C 79.90625 134.878906 78.09375 134.878906 77.90625 134.878906 C 76.90625 134.878906 76.125 134.285156 75.65625 133.535156 C 75.0625 132.597656 75.0625 131.285156 75.0625 130.566406 Z M 75.0625 130.566406 "/>
<path style=" stroke:none;fill-rule:nonzero;fill:rgb(0%,0%,0%);fill-opacity:1;" d="M 83.917969 130.128906 C 84.042969 127.160156 85.730469 126.660156 86.417969 126.660156 C 88.449219 126.660156 88.667969 129.347656 88.667969 130.128906 Z M 83.917969 130.566406 L 89.480469 130.566406 C 89.917969 130.566406 89.980469 130.566406 89.980469 130.128906 C 89.980469 128.160156 88.886719 126.222656 86.417969 126.222656 C 84.105469 126.222656 82.261719 128.285156 82.261719 130.785156 C 82.261719 133.441406 84.355469 135.378906 86.636719 135.378906 C 89.074219 135.378906 89.980469 133.160156 89.980469 132.785156 C 89.980469 132.597656 89.824219 132.535156 89.699219 132.535156 C 89.542969 132.535156 89.480469 132.660156 89.449219 132.816406 C 88.761719 134.878906 86.949219 134.878906 86.761719 134.878906 C 85.761719 134.878906 84.980469 134.285156 84.511719 133.535156 C 83.917969 132.597656 83.917969 131.285156 83.917969 130.566406 Z M 83.917969 130.566406 "/>
<path style=" stroke:none;fill-rule:nonzero;fill:rgb(0%,0%,0%);fill-opacity:1;" d="M 92.773438 130.128906 C 92.898438 127.160156 94.585938 126.660156 95.273438 126.660156 C 97.304688 126.660156 97.523438 129.347656 97.523438 130.128906 Z M 92.773438 130.566406 L 98.335938 130.566406 C 98.773438 130.566406 98.835938 130.566406 98.835938 130.128906 C 98.835938 128.160156 97.742188 126.222656 95.273438 126.222656 C 92.960938 126.222656 91.117188 128.285156 91.117188 130.785156 C 91.117188 133.441406 93.210938 135.378906 95.492188 135.378906 C 97.929688 135.378906 98.835938 133.160156 98.835938 132.785156 C 98.835938 132.597656 98.679688 132.535156 98.554688 132.535156 C 98.398438 132.535156 98.335938 132.660156 98.304688 132.816406 C 97.617188 134.878906 95.804688 134.878906 95.617188 134.878906 C 94.617188 134.878906 93.835938 134.285156 93.367188 133.535156 C 92.773438 132.597656 92.773438 131.285156 92.773438 130.566406 Z M 92.773438 130.566406 "/>
<path style="fill:none;stroke-width:0.566929;stroke-linecap:butt;stroke-linejoin:miter;stroke:rgb(100%,0%,0%);stroke-opacity:0.5;stroke-miterlimit:10;" d="M 72.474794 59.526682 L 78.144716 53.858714 " transform="matrix(2,0,0,2,5.952756,6.169291)"/>
<path style="fill:none;stroke-width:0.566929;stroke-linecap:butt;stroke-linejoin:miter;stroke:rgb(100%,0%,0%);stroke-opacity:0.5;stroke-miterlimit:10;" d="M 78.144716 59.526682 L 72.474794 53.858714 " transform="matrix(2,0,0,2,5.952756,6.169291)"/>
<path style="fill-rule:nonzero;fill:rgb(50%,50%,0%);fill-opacity:0.1;stroke-width:0.566929;stroke-linecap:butt;stroke-linejoin:miter;stroke:rgb(100%,0%,0%);stroke-opacity:0.5;stroke-miterlimit:10;" d="M 49.775575 69.92512 L 100.841981 69.92512 L 100.841981 56.692698 L 49.775575 56.692698 Z M 49.775575 69.92512 " transform="matrix(2,0,0,2,5.952756,6.169291)"/>
<path style="fill:none;stroke-width:0.566929;stroke-linecap:butt;stroke-linejoin:miter;stroke:rgb(100%,0%,0%);stroke-opacity:0.5;stroke-miterlimit:10;" d="M 49.775575 67.878245 L 55.445497 62.208323 " transform="matrix(2,0,0,2,5.952756,6.169291)"/>
<path style="fill:none;stroke-width:0.566929;stroke-linecap:butt;stroke-linejoin:miter;stroke:rgb(100%,0%,0%);stroke-opacity:0.5;stroke-miterlimit:10;" d="M 55.445497 67.878245 L 49.775575 62.208323 " transform="matrix(2,0,0,2,5.952756,6.169291)"/>
<path style="fill-rule:nonzero;fill:rgb(50%,50%,0%);fill-opacity:0.1;stroke-width:0.566929;stroke-linecap:butt;stroke-linejoin:miter;stroke:rgb(100%,0%,0%);stroke-opacity:0.5;stroke-miterlimit:10;" d="M 49.775575 69.92512 L 100.841981 69.92512 L 100.841981 56.692698 L 49.775575 56.692698 Z M 49.775575 69.92512 " transform="matrix(2,0,0,2,5.952756,6.169291)"/>
<path style="fill:none;stroke-width:0.566929;stroke-linecap:butt;stroke-linejoin:miter;stroke:rgb(100%,0%,0%);stroke-opacity:0.5;stroke-miterlimit:10;" d="M 49.775575 67.878245 L 55.445497 62.208323 " transform="matrix(2,0,0,2,5.952756,6.169291)"/>
<path style="fill:none;stroke-width:0.566929;stroke-linecap:butt;stroke-linejoin:miter;stroke:rgb(100%,0%,0%);stroke-opacity:0.5;stroke-miterlimit:10;" d="M 55.445497 67.878245 L 49.775575 62.208323 " transform="matrix(2,0,0,2,5.952756,6.169291)"/>
<path style="fill-rule:nonzero;fill:rgb(50%,50%,0%);fill-opacity:0.1;stroke-width:0.566929;stroke-linecap:butt;stroke-linejoin:miter;stroke:rgb(100%,0%,0%);stroke-opacity:0.5;stroke-miterlimit:10;" d="M 52.611513 67.089182 L 98.007997 67.089182 L 98.007997 59.526682 L 52.611513 59.526682 Z M 52.611513 67.089182 " transform="matrix(2,0,0,2,5.952756,6.169291)"/>
<path style=" stroke:none;fill-rule:nonzero;fill:rgb(0%,0%,0%);fill-opacity:1;" d="M 116.050781 131.816406 C 114.300781 131.816406 114.300781 129.816406 114.300781 129.378906 C 114.300781 128.847656 114.332031 128.191406 114.613281 127.691406 C 114.769531 127.472656 115.238281 126.910156 116.050781 126.910156 C 117.769531 126.910156 117.769531 128.878906 117.769531 129.347656 C 117.769531 129.878906 117.769531 130.535156 117.457031 131.035156 C 117.300781 131.253906 116.832031 131.816406 116.050781 131.816406 Z M 113.738281 132.597656 C 113.738281 132.535156 113.738281 132.066406 114.050781 131.660156 C 114.832031 132.222656 115.675781 132.285156 116.050781 132.285156 C 117.894531 132.285156 119.269531 130.910156 119.269531 129.378906 C 119.269531 128.628906 118.957031 127.910156 118.457031 127.441406 C 119.175781 126.753906 119.894531 126.660156 120.238281 126.660156 C 120.300781 126.660156 120.394531 126.660156 120.457031 126.691406 C 120.238281 126.753906 120.113281 126.972656 120.113281 127.222656 C 120.113281 127.566406 120.394531 127.785156 120.707031 127.785156 C 120.894531 127.785156 121.269531 127.660156 121.269531 127.191406 C 121.269531 126.847656 121.050781 126.222656 120.269531 126.222656 C 119.863281 126.222656 118.988281 126.347656 118.144531 127.160156 C 117.300781 126.503906 116.488281 126.441406 116.050781 126.441406 C 114.175781 126.441406 112.800781 127.816406 112.800781 129.347656 C 112.800781 130.222656 113.238281 130.972656 113.738281 131.410156 C 113.488281 131.691406 113.113281 132.347656 113.113281 133.066406 C 113.113281 133.691406 113.394531 134.441406 114.019531 134.847656 C 112.800781 135.160156 112.175781 136.035156 112.175781 136.816406 C 112.175781 138.253906 114.144531 139.347656 116.582031 139.347656 C 118.925781 139.347656 120.988281 138.347656 120.988281 136.785156 C 120.988281 136.097656 120.738281 135.066406 119.707031 134.503906 C 118.644531 133.972656 117.488281 133.972656 116.269531 133.972656 C 115.769531 133.972656 114.925781 133.972656 114.769531 133.941406 C 114.144531 133.847656 113.738281 133.253906 113.738281 132.597656 Z M 116.613281 138.910156 C 114.582031 138.910156 113.207031 137.878906 113.207031 136.816406 C 113.207031 135.910156 113.957031 135.160156 114.832031 135.128906 L 116.019531 135.128906 C 117.738281 135.128906 119.957031 135.128906 119.957031 136.816406 C 119.957031 137.910156 118.550781 138.910156 116.613281 138.910156 Z M 116.613281 138.910156 "/>
<path style=" stroke:none;fill-rule:nonzero;fill:rgb(0%,0%,0%);fill-opacity:1;" d="M 126.011719 131.816406 C 124.261719 131.816406 124.261719 129.816406 124.261719 129.378906 C 124.261719 128.847656 124.292969 128.191406 124.574219 127.691406 C 124.730469 127.472656 125.199219 126.910156 126.011719 126.910156 C 127.730469 126.910156 127.730469 128.878906 127.730469 129.347656 C 127.730469 129.878906 127.730469 130.535156 127.417969 131.035156 C 127.261719 131.253906 126.792969 131.816406 126.011719 131.816406 Z M 123.699219 132.597656 C 123.699219 132.535156 123.699219 132.066406 124.011719 131.660156 C 124.792969 132.222656 125.636719 132.285156 126.011719 132.285156 C 127.855469 132.285156 129.230469 130.910156 129.230469 129.378906 C 129.230469 128.628906 128.917969 127.910156 128.417969 127.441406 C 129.136719 126.753906 129.855469 126.660156 130.199219 126.660156 C 130.261719 126.660156 130.355469 126.660156 130.417969 126.691406 C 130.199219 126.753906 130.074219 126.972656 130.074219 127.222656 C 130.074219 127.566406 130.355469 127.785156 130.667969 127.785156 C 130.855469 127.785156 131.230469 127.660156 131.230469 127.191406 C 131.230469 126.847656 131.011719 126.222656 130.230469 126.222656 C 129.824219 126.222656 128.949219 126.347656 128.105469 127.160156 C 127.261719 126.503906 126.449219 126.441406 126.011719 126.441406 C 124.136719 126.441406 122.761719 127.816406 122.761719 129.347656 C 122.761719 130.222656 123.199219 130.972656 123.699219 131.410156 C 123.449219 131.691406 123.074219 132.347656 123.074219 133.066406 C 123.074219 133.691406 123.355469 134.441406 123.980469 134.847656 C 122.761719 135.160156 122.136719 136.035156 122.136719 136.816406 C 122.136719 138.253906 124.105469 139.347656 126.542969 139.347656 C 128.886719 139.347656 130.949219 138.347656 130.949219 136.785156 C 130.949219 136.097656 130.699219 135.066406 129.667969 134.503906 C 128.605469 133.972656 127.449219 133.972656 126.230469 133.972656 C 125.730469 133.972656 124.886719 133.972656 124.730469 133.941406 C 124.105469 133.847656 123.699219 133.253906 123.699219 132.597656 Z M 126.574219 138.910156 C 124.542969 138.910156 123.167969 137.878906 123.167969 136.816406 C 123.167969 135.910156 123.917969 135.160156 124.792969 135.128906 L 125.980469 135.128906 C 127.699219 135.128906 129.917969 135.128906 129.917969 136.816406 C 129.917969 137.910156 128.511719 138.910156 126.574219 138.910156 Z M 126.574219 138.910156 "/>
<path style=" stroke:none;fill-rule:nonzero;fill:rgb(0%,0%,0%);fill-opacity:1;" d="M 135.976562 131.816406 C 134.226562 131.816406 134.226562 129.816406 134.226562 129.378906 C 134.226562 128.847656 134.257812 128.191406 134.539062 127.691406 C 134.695312 127.472656 135.164062 126.910156 135.976562 126.910156 C 137.695312 126.910156 137.695312 128.878906 137.695312 129.347656 C 137.695312 129.878906 137.695312 130.535156 137.382812 131.035156 C 137.226562 131.253906 136.757812 131.816406 135.976562 131.816406 Z M 133.664062 132.597656 C 133.664062 132.535156 133.664062 132.066406 133.976562 131.660156 C 134.757812 132.222656 135.601562 132.285156 135.976562 132.285156 C 137.820312 132.285156 139.195312 130.910156 139.195312 129.378906 C 139.195312 128.628906 138.882812 127.910156 138.382812 127.441406 C 139.101562 126.753906 139.820312 126.660156 140.164062 126.660156 C 140.226562 126.660156 140.320312 126.660156 140.382812 126.691406 C 140.164062 126.753906 140.039062 126.972656 140.039062 127.222656 C 140.039062 127.566406 140.320312 127.785156 140.632812 127.785156 C 140.820312 127.785156 141.195312 127.660156 141.195312 127.191406 C 141.195312 126.847656 140.976562 126.222656 140.195312 126.222656 C 139.789062 126.222656 138.914062 126.347656 138.070312 127.160156 C 137.226562 126.503906 136.414062 126.441406 135.976562 126.441406 C 134.101562 126.441406 132.726562 127.816406 132.726562 129.347656 C 132.726562 130.222656 133.164062 130.972656 133.664062 131.410156 C 133.414062 131.691406 133.039062 132.347656 133.039062 133.066406 C 133.039062 133.691406 133.320312 134.441406 133.945312 134.847656 C 132.726562 135.160156 132.101562 136.035156 132.101562 136.816406 C 132.101562 138.253906 134.070312 139.347656 136.507812 139.347656 C 138.851562 139.347656 140.914062 138.347656 140.914062 136.785156 C 140.914062 136.097656 140.664062 135.066406 139.632812 134.503906 C 138.570312 133.972656 137.414062 133.972656 136.195312 133.972656 C 135.695312 133.972656 134.851562 133.972656 134.695312 133.941406 C 134.070312 133.847656 133.664062 133.253906 133.664062 132.597656 Z M 136.539062 138.910156 C 134.507812 138.910156 133.132812 137.878906 133.132812 136.816406 C 133.132812 135.910156 133.882812 135.160156 134.757812 135.128906 L 135.945312 135.128906 C 137.664062 135.128906 139.882812 135.128906 139.882812 136.816406 C 139.882812 137.910156 138.476562 138.910156 136.539062 138.910156 Z M 136.539062 138.910156 "/>
<path style=" stroke:none;fill-rule:nonzero;fill:rgb(0%,0%,0%);fill-opacity:1;" d="M 145.9375 131.816406 C 144.1875 131.816406 144.1875 129.816406 144.1875 129.378906 C 144.1875 128.847656 144.21875 128.191406 144.5 127.691406 C 144.65625 127.472656 145.125 126.910156 145.9375 126.910156 C 147.65625 126.910156 147.65625 128.878906 147.65625 129.347656 C 147.65625 129.878906 147.65625 130.535156 147.34375 131.035156 C 147.1875 131.253906 146.71875 131.816406 145.9375 131.816406 Z M 143.625 132.597656 C 143.625 132.535156 143.625 132.066406 143.9375 131.660156 C 144.71875 132.222656 145.5625 132.285156 145.9375 132.285156 C 147.78125 132.285156 149.15625 130.910156 149.15625 129.378906 C 149.15625 128.628906 148.84375 127.910156 148.34375 127.441406 C 149.0625 126.753906 149.78125 126.660156 150.125 126.660156 C 150.1875 126.660156 150.28125 126.660156 150.34375 126.691406 C 150.125 126.753906 150 126.972656 150 127.222656 C 150 127.566406 150.28125 127.785156 150.59375 127.785156 C 150.78125 127.785156 151.15625 127.660156 151.15625 127.191406 C 151.15625 126.847656 150.9375 126.222656 150.15625 126.222656 C 149.75 126.222656 148.875 126.347656 148.03125 127.160156 C 147.1875 126.503906 146.375 126.441406 145.9375 126.441406 C 144.0625 126.441406 142.6875 127.816406 142.6875 129.347656 C 142.6875 130.222656 143.125 130.972656 143.625 131.410156 C 143.375 131.691406 143 132.347656 143 133.066406 C 143 133.691406 143.28125 134.441406 143.90625 134.847656 C 142.6875 135.160156 142.0625 136.035156 142.0625 136.816406 C 142.0625 138.253906 144.03125 139.347656 146.46875 139.347656 C 148.8125 139.347656 150.875 138.347656 150.875 136.785156 C 150.875 136.097656 150.625 135.066406 149.59375 134.503906 C 148.53125 133.972656 147.375 133.972656 146.15625 133.972656 C 145.65625 133.972656 144.8125 133.972656 144.65625 133.941406 C 144.03125 133.847656 143.625 133.253906 143.625 132.597656 Z M 146.5 138.910156 C 144.46875 138.910156 143.09375 137.878906 143.09375 136.816406 C 143.09375 135.910156 143.84375 135.160156 144.71875 135.128906 L 145.90625 135.128906 C 147.625 135.128906 149.84375 135.128906 149.84375 136.816406 C 149.84375 137.910156 148.4375 138.910156 146.5 138.910156 Z M 146.5 138.910156 "/>
<path style=" stroke:none;fill-rule:nonzero;fill:rgb(0%,0%,0%);fill-opacity:1;" d="M 155.898438 131.816406 C 154.148438 131.816406 154.148438 129.816406 154.148438 129.378906 C 154.148438 128.847656 154.179688 128.191406 154.460938 127.691406 C 154.617188 127.472656 155.085938 126.910156 155.898438 126.910156 C 157.617188 126.910156 157.617188 128.878906 157.617188 129.347656 C 157.617188 129.878906 157.617188 130.535156 157.304688 131.035156 C 157.148438 131.253906 156.679688 131.816406 155.898438 131.816406 Z M 153.585938 132.597656 C 153.585938 132.535156 153.585938 132.066406 153.898438 131.660156 C 154.679688 132.222656 155.523438 132.285156 155.898438 132.285156 C 157.742188 132.285156 159.117188 130.910156 159.117188 129.378906 C 159.117188 128.628906 158.804688 127.910156 158.304688 127.441406 C 159.023438 126.753906 159.742188 126.660156 160.085938 126.660156 C 160.148438 126.660156 160.242188 126.660156 160.304688 126.691406 C 160.085938 126.753906 159.960938 126.972656 159.960938 127.222656 C 159.960938 127.566406 160.242188 127.785156 160.554688 127.785156 C 160.742188 127.785156 161.117188 127.660156 161.117188 127.191406 C 161.117188 126.847656 160.898438 126.222656 160.117188 126.222656 C 159.710938 126.222656 158.835938 126.347656 157.992188 127.160156 C 157.148438 126.503906 156.335938 126.441406 155.898438 126.441406 C 154.023438 126.441406 152.648438 127.816406 152.648438 129.347656 C 152.648438 130.222656 153.085938 130.972656 153.585938 131.410156 C 153.335938 131.691406 152.960938 132.347656 152.960938 133.066406 C 152.960938 133.691406 153.242188 134.441406 153.867188 134.847656 C 152.648438 135.160156 152.023438 136.035156 152.023438 136.816406 C 152.023438 138.253906 153.992188 139.347656 156.429688 139.347656 C 158.773438 139.347656 160.835938 138.347656 160.835938 136.785156 C 160.835938 136.097656 160.585938 135.066406 159.554688 134.503906 C 158.492188 133.972656 157.335938 133.972656 156.117188 133.972656 C 155.617188 133.972656 154.773438 133.972656 154.617188 133.941406 C 153.992188 133.847656 153.585938 133.253906 153.585938 132.597656 Z M 156.460938 138.910156 C 154.429688 138.910156 153.054688 137.878906 153.054688 136.816406 C 153.054688 135.910156 153.804688 135.160156 154.679688 135.128906 L 155.867188 135.128906 C 157.585938 135.128906 159.804688 135.128906 159.804688 136.816406 C 159.804688 137.910156 158.398438 138.910156 156.460938 138.910156 Z M 156.460938 138.910156 "/>
<path style=" stroke:none;fill-rule:nonzero;fill:rgb(0%,0%,0%);fill-opacity:1;" d="M 165.863281 131.816406 C 164.113281 131.816406 164.113281 129.816406 164.113281 129.378906 C 164.113281 128.847656 164.144531 128.191406 164.425781 127.691406 C 164.582031 127.472656 165.050781 126.910156 165.863281 126.910156 C 167.582031 126.910156 167.582031 128.878906 167.582031 129.347656 C 167.582031 129.878906 167.582031 130.535156 167.269531 131.035156 C 167.113281 131.253906 166.644531 131.816406 165.863281 131.816406 Z M 163.550781 132.597656 C 163.550781 132.535156 163.550781 132.066406 163.863281 131.660156 C 164.644531 132.222656 165.488281 132.285156 165.863281 132.285156 C 167.707031 132.285156 169.082031 130.910156 169.082031 129.378906 C 169.082031 128.628906 168.769531 127.910156 168.269531 127.441406 C 168.988281 126.753906 169.707031 126.660156 170.050781 126.660156 C 170.113281 126.660156 170.207031 126.660156 170.269531 126.691406 C 170.050781 126.753906 169.925781 126.972656 169.925781 127.222656 C 169.925781 127.566406 170.207031 127.785156 170.519531 127.785156 C 170.707031 127.785156 171.082031 127.660156 171.082031 127.191406 C 171.082031 126.847656 170.863281 126.222656 170.082031 126.222656 C 169.675781 126.222656 168.800781 126.347656 167.957031 127.160156 C 167.113281 126.503906 166.300781 126.441406 165.863281 126.441406 C 163.988281 126.441406 162.613281 127.816406 162.613281 129.347656 C 162.613281 130.222656 163.050781 130.972656 163.550781 131.410156 C 163.300781 131.691406 162.925781 132.347656 162.925781 133.066406 C 162.925781 133.691406 163.207031 134.441406 163.832031 134.847656 C 162.613281 135.160156 161.988281 136.035156 161.988281 136.816406 C 161.988281 138.253906 163.957031 139.347656 166.394531 139.347656 C 168.738281 139.347656 170.800781 138.347656 170.800781 136.785156 C 170.800781 136.097656 170.550781 135.066406 169.519531 134.503906 C 168.457031 133.972656 167.300781 133.972656 166.082031 133.972656 C 165.582031 133.972656 164.738281 133.972656 164.582031 133.941406 C 163.957031 133.847656 163.550781 133.253906 163.550781 132.597656 Z M 166.425781 138.910156 C 164.394531 138.910156 163.019531 137.878906 163.019531 136.816406 C 163.019531 135.910156 163.769531 135.160156 164.644531 135.128906 L 165.832031 135.128906 C 167.550781 135.128906 169.769531 135.128906 169.769531 136.816406 C 169.769531 137.910156 168.363281 138.910156 166.425781 138.910156 Z M 166.425781 138.910156 "/>
<path style=" stroke:none;fill-rule:nonzero;fill:rgb(0%,0%,0%);fill-opacity:1;" d="M 175.824219 131.816406 C 174.074219 131.816406 174.074219 129.816406 174.074219 129.378906 C 174.074219 128.847656 174.105469 128.191406 174.386719 127.691406 C 174.542969 127.472656 175.011719 126.910156 175.824219 126.910156 C 177.542969 126.910156 177.542969 128.878906 177.542969 129.347656 C 177.542969 129.878906 177.542969 130.535156 177.230469 131.035156 C 177.074219 131.253906 176.605469 131.816406 175.824219 131.816406 Z M 173.511719 132.597656 C 173.511719 132.535156 173.511719 132.066406 173.824219 131.660156 C 174.605469 132.222656 175.449219 132.285156 175.824219 132.285156 C 177.667969 132.285156 179.042969 130.910156 179.042969 129.378906 C 179.042969 128.628906 178.730469 127.910156 178.230469 127.441406 C 178.949219 126.753906 179.667969 126.660156 180.011719 126.660156 C 180.074219 126.660156 180.167969 126.660156 180.230469 126.691406 C 180.011719 126.753906 179.886719 126.972656 179.886719 127.222656 C 179.886719 127.566406 180.167969 127.785156 180.480469 127.785156 C 180.667969 127.785156 181.042969 127.660156 181.042969 127.191406 C 181.042969 126.847656 180.824219 126.222656 180.042969 126.222656 C 179.636719 126.222656 178.761719 126.347656 177.917969 127.160156 C 177.074219 126.503906 176.261719 126.441406 175.824219 126.441406 C 173.949219 126.441406 172.574219 127.816406 172.574219 129.347656 C 172.574219 130.222656 173.011719 130.972656 173.511719 131.410156 C 173.261719 131.691406 172.886719 132.347656 172.886719 133.066406 C 172.886719 133.691406 173.167969 134.441406 173.792969 134.847656 C 172.574219 135.160156 171.949219 136.035156 171.949219 136.816406 C 171.949219 138.253906 173.917969 139.347656 176.355469 139.347656 C 178.699219 139.347656 180.761719 138.347656 180.761719 136.785156 C 180.761719 136.097656 180.511719 135.066406 179.480469 134.503906 C 178.417969 133.972656 177.261719 133.972656 176.042969 133.972656 C 175.542969 133.972656 174.699219 133.972656 174.542969 133.941406 C 173.917969 133.847656 173.511719 133.253906 173.511719 132.597656 Z M 176.386719 138.910156 C 174.355469 138.910156 172.980469 137.878906 172.980469 136.816406 C 172.980469 135.910156 173.730469 135.160156 174.605469 135.128906 L 175.792969 135.128906 C 177.511719 135.128906 179.730469 135.128906 179.730469 136.816406 C 179.730469 137.910156 178.324219 138.910156 176.386719 138.910156 Z M 176.386719 138.910156 "/>
<path style=" stroke:none;fill-rule:nonzero;fill:rgb(0%,0%,0%);fill-opacity:1;" d="M 185.789062 131.816406 C 184.039062 131.816406 184.039062 129.816406 184.039062 129.378906 C 184.039062 128.847656 184.070312 128.191406 184.351562 127.691406 C 184.507812 127.472656 184.976562 126.910156 185.789062 126.910156 C 187.507812 126.910156 187.507812 128.878906 187.507812 129.347656 C 187.507812 129.878906 187.507812 130.535156 187.195312 131.035156 C 187.039062 131.253906 186.570312 131.816406 185.789062 131.816406 Z M 183.476562 132.597656 C 183.476562 132.535156 183.476562 132.066406 183.789062 131.660156 C 184.570312 132.222656 185.414062 132.285156 185.789062 132.285156 C 187.632812 132.285156 189.007812 130.910156 189.007812 129.378906 C 189.007812 128.628906 188.695312 127.910156 188.195312 127.441406 C 188.914062 126.753906 189.632812 126.660156 189.976562 126.660156 C 190.039062 126.660156 190.132812 126.660156 190.195312 126.691406 C 189.976562 126.753906 189.851562 126.972656 189.851562 127.222656 C 189.851562 127.566406 190.132812 127.785156 190.445312 127.785156 C 190.632812 127.785156 191.007812 127.660156 191.007812 127.191406 C 191.007812 126.847656 190.789062 126.222656 190.007812 126.222656 C 189.601562 126.222656 188.726562 126.347656 187.882812 127.160156 C 187.039062 126.503906 186.226562 126.441406 185.789062 126.441406 C 183.914062 126.441406 182.539062 127.816406 182.539062 129.347656 C 182.539062 130.222656 182.976562 130.972656 183.476562 131.410156 C 183.226562 131.691406 182.851562 132.347656 182.851562 133.066406 C 182.851562 133.691406 183.132812 134.441406 183.757812 134.847656 C 182.539062 135.160156 181.914062 136.035156 181.914062 136.816406 C 181.914062 138.253906 183.882812 139.347656 186.320312 139.347656 C 188.664062 139.347656 190.726562 138.347656 190.726562 136.785156 C 190.726562 136.097656 190.476562 135.066406 189.445312 134.503906 C 188.382812 133.972656 187.226562 133.972656 186.007812 133.972656 C 185.507812 133.972656 184.664062 133.972656 184.507812 133.941406 C 183.882812 133.847656 183.476562 133.253906 183.476562 132.597656 Z M 186.351562 138.910156 C 184.320312 138.910156 182.945312 137.878906 182.945312 136.816406 C 182.945312 135.910156 183.695312 135.160156 184.570312 135.128906 L 185.757812 135.128906 C 187.476562 135.128906 189.695312 135.128906 189.695312 136.816406 C 189.695312 137.910156 188.289062 138.910156 186.351562 138.910156 Z M 186.351562 138.910156 "/>
<path style=" stroke:none;fill-rule:nonzero;fill:rgb(0%,0%,0%);fill-opacity:1;" d="M 195.75 131.816406 C 194 131.816406 194 129.816406 194 129.378906 C 194 128.847656 194.03125 128.191406 194.3125 127.691406 C 194.46875 127.472656 194.9375 126.910156 195.75 126.910156 C 197.46875 126.910156 197.46875 128.878906 197.46875 129.347656 C 197.46875 129.878906 197.46875 130.535156 197.15625 131.035156 C 197 131.253906 196.53125 131.816406 195.75 131.816406 Z M 193.4375 132.597656 C 193.4375 132.535156 193.4375 132.066406 193.75 131.660156 C 194.53125 132.222656 195.375 132.285156 195.75 132.285156 C 197.59375 132.285156 198.96875 130.910156 198.96875 129.378906 C 198.96875 128.628906 198.65625 127.910156 198.15625 127.441406 C 198.875 126.753906 199.59375 126.660156 199.9375 126.660156 C 200 126.660156 200.09375 126.660156 200.15625 126.691406 C 199.9375 126.753906 199.8125 126.972656 199.8125 127.222656 C 199.8125 127.566406 200.09375 127.785156 200.40625 127.785156 C 200.59375 127.785156 200.96875 127.660156 200.96875 127.191406 C 200.96875 126.847656 200.75 126.222656 199.96875 126.222656 C 199.5625 126.222656 198.6875 126.347656 197.84375 127.160156 C 197 126.503906 196.1875 126.441406 195.75 126.441406 C 193.875 126.441406 192.5 127.816406 192.5 129.347656 C 192.5 130.222656 192.9375 130.972656 193.4375 131.410156 C 193.1875 131.691406 192.8125 132.347656 192.8125 133.066406 C 192.8125 133.691406 193.09375 134.441406 193.71875 134.847656 C 192.5 135.160156 191.875 136.035156 191.875 136.816406 C 191.875 138.253906 193.84375 139.347656 196.28125 139.347656 C 198.625 139.347656 200.6875 138.347656 200.6875 136.785156 C 200.6875 136.097656 200.4375 135.066406 199.40625 134.503906 C 198.34375 133.972656 197.1875 133.972656 195.96875 133.972656 C 195.46875 133.972656 194.625 133.972656 194.46875 133.941406 C 193.84375 133.847656 193.4375 133.253906 193.4375 132.597656 Z M 196.3125 138.910156 C 194.28125 138.910156 192.90625 137.878906 192.90625 136.816406 C 192.90625 135.910156 193.65625 135.160156 194.53125 135.128906 L 195.71875 135.128906 C 197.4375 135.128906 199.65625 135.128906 199.65625 136.816406 C 199.65625 137.910156 198.25 138.910156 196.3125 138.910156 Z M 196.3125 138.910156 "/>
<path style="fill:none;stroke-width:0.566929;stroke-linecap:butt;stroke-linejoin:miter;stroke:rgb(100%,0%,0%);stroke-opacity:0.5;stroke-miterlimit:10;" d="M 98.007997 59.526682 L 103.677919 53.858714 " transform="matrix(2,0,0,2,5.952756,6.169291)"/>
<path style="fill:none;stroke-width:0.566929;stroke-linecap:butt;stroke-linejoin:miter;stroke:rgb(100%,0%,0%);stroke-opacity:0.5;stroke-miterlimit:10;" d="M 103.677919 59.526682 L 98.007997 53.858714 " transform="matrix(2,0,0,2,5.952756,6.169291)"/>
<path style="fill:none;stroke-width:0.566929;stroke-linecap:butt;stroke-linejoin:miter;stroke:rgb(100%,0%,0%);stroke-opacity:0.5;stroke-miterlimit:10;" d="M 100.841981 85.038401 L 100.841981 56.692698 Z M 100.841981 85.038401 " transform="matrix(2,0,0,2,5.952756,6.169291)"/>
</g>
</svg>
