<?xml version="1.0" encoding="UTF-8"?>
<svg xmlns="http://www.w3.org/2000/svg" xmlns:xlink="http://www.w3.org/1999/xlink" width="283.399604pt" height="279.906692pt" viewBox="0 0 283.399604 279.906692" version="1.1">
<g id="surface65">
<path style="fill:none;stroke-width:0.566929;stroke-linecap:butt;stroke-linejoin:miter;stroke:rgb(100%,0%,0%);stroke-opacity:0.5;stroke-miterlimit:10;" d="M -2.8338 2.834169 L 2.834169 -2.8338 " transform="matrix(2,0,0,2,5.952756,5.952756)"/>
<path style="fill:none;stroke-width:0.566929;stroke-linecap:butt;stroke-linejoin:miter;stroke:rgb(100%,0%,0%);stroke-opacity:0.5;stroke-miterlimit:10;" d="M 2.834169 2.834169 L -2.8338 -2.8338 " transform="matrix(2,0,0,2,5.952756,5.952756)"/>
<path style="fill-rule:nonzero;fill:rgb(50%,50%,0%);fill-opacity:0.1;stroke-width:0.566929;stroke-linecap:butt;stroke-linejoin:miter;stroke:rgb(100%,0%,0%);stroke-opacity:0.5;stroke-miterlimit:10;" d="M 0.000184547 136.836122 L 138.582216 136.836122 L 138.582216 0.000184547 L 0.000184547 0.000184547 Z M 0.000184547 136.836122 " transform="matrix(2,0,0,2,5.952756,5.952756)"/>
<path style="fill:none;stroke-width:0.566929;stroke-linecap:butt;stroke-linejoin:miter;stroke:rgb(100%,0%,0%);stroke-opacity:0.5;stroke-miterlimit:10;" d="M 19.437685 30.306825 L 25.107606 24.636903 " transform="matrix(2,0,0,2,5.952756,5.952756)"/>
<path style="fill:none;stroke-width:0.566929;stroke-linecap:butt;stroke-linejoin:miter;stroke:rgb(100%,0%,0%);stroke-opacity:0.5;stroke-miterlimit:10;" d="M 25.107606 30.306825 L 19.437685 24.636903 " transform="matrix(2,0,0,2,5.952756,5.952756)"/>
<path style="fill-rule:nonzero;fill:rgb(50%,50%,0%);fill-opacity:0.1;stroke-width:0.566929;stroke-linecap:butt;stroke-linejoin:miter;stroke:rgb(100%,0%,0%);stroke-opacity:0.5;stroke-miterlimit:10;" d="M 0.000184547 37.035341 L 45.213075 37.035341 L 45.213075 0.000184547 L 0.000184547 0.000184547 Z M 0.000184547 37.035341 " transform="matrix(2,0,0,2,5.952756,5.952756)"/>
<path style="fill:none;stroke-width:0.566929;stroke-linecap:butt;stroke-linejoin:miter;stroke:rgb(100%,0%,0%);stroke-opacity:0.5;stroke-miterlimit:10;" d="M 63.629091 30.306825 L 69.29706 24.636903 " transform="matrix(2,0,0,2,5.952756,5.952756)"/>
<path style="fill:none;stroke-width:0.566929;stroke-linecap:butt;stroke-linejoin:miter;stroke:rgb(100%,0%,0%);stroke-opacity:0.5;stroke-miterlimit:10;" d="M 69.29706 30.306825 L 63.629091 24.636903 " transform="matrix(2,0,0,2,5.952756,5.952756)"/>
<path style="fill-rule:nonzero;fill:rgb(50%,50%,0%);fill-opacity:0.1;stroke-width:0.566929;stroke-linecap:butt;stroke-linejoin:miter;stroke:rgb(100%,0%,0%);stroke-opacity:0.5;stroke-miterlimit:10;" d="M 45.213075 35.463075 L 72.75995 35.463075 L 72.75995 13.82831 L 45.213075 13.82831 Z M 45.213075 35.463075 " transform="matrix(2,0,0,2,5.952756,5.952756)"/>
<path style="fill:none;stroke-width:0.566929;stroke-linecap:butt;stroke-linejoin:miter;stroke:rgb(100%,0%,0%);stroke-opacity:0.5;stroke-miterlimit:10;" d="M 114.035341 30.306825 L 119.705263 24.636903 " transform="matrix(2,0,0,2,5.952756,5.952756)"/>
<path style="fill:none;stroke-width:0.566929;stroke-linecap:butt;stroke-linejoin:miter;stroke:rgb(100%,0%,0%);stroke-opacity:0.5;stroke-miterlimit:10;" d="M 119.705263 30.306825 L 114.035341 24.636903 " transform="matrix(2,0,0,2,5.952756,5.952756)"/>
<path style="fill-rule:nonzero;fill:rgb(50%,50%,0%);fill-opacity:0.1;stroke-width:0.566929;stroke-linecap:butt;stroke-linejoin:miter;stroke:rgb(100%,0%,0%);stroke-opacity:0.5;stroke-miterlimit:10;" d="M 90.744325 43.340028 L 138.582216 43.340028 L 138.582216 0.615419 L 90.744325 0.615419 Z M 90.744325 43.340028 " transform="matrix(2,0,0,2,5.952756,5.952756)"/>
<path style="fill:none;stroke-width:0.566929;stroke-linecap:butt;stroke-linejoin:miter;stroke:rgb(100%,0%,0%);stroke-opacity:0.5;stroke-miterlimit:10;" d="M 19.437685 71.394716 L 25.107606 65.726747 " transform="matrix(2,0,0,2,5.952756,5.952756)"/>
<path style="fill:none;stroke-width:0.566929;stroke-linecap:butt;stroke-linejoin:miter;stroke:rgb(100%,0%,0%);stroke-opacity:0.5;stroke-miterlimit:10;" d="M 25.107606 71.394716 L 19.437685 65.726747 " transform="matrix(2,0,0,2,5.952756,5.952756)"/>
<path style="fill-rule:nonzero;fill:rgb(50%,50%,0%);fill-opacity:0.1;stroke-width:0.566929;stroke-linecap:butt;stroke-linejoin:miter;stroke:rgb(100%,0%,0%);stroke-opacity:0.5;stroke-miterlimit:10;" d="M 9.685731 76.213075 L 38.000185 76.213075 L 38.000185 54.486513 L 9.685731 54.486513 Z M 9.685731 76.213075 " transform="matrix(2,0,0,2,5.952756,5.952756)"/>
<path style="fill:none;stroke-width:0.566929;stroke-linecap:butt;stroke-linejoin:miter;stroke:rgb(100%,0%,0%);stroke-opacity:0.5;stroke-miterlimit:10;" d="M 63.629091 71.394716 L 69.29706 65.726747 " transform="matrix(2,0,0,2,5.952756,5.952756)"/>
<path style="fill:none;stroke-width:0.566929;stroke-linecap:butt;stroke-linejoin:miter;stroke:rgb(100%,0%,0%);stroke-opacity:0.5;stroke-miterlimit:10;" d="M 69.29706 71.394716 L 63.629091 65.726747 " transform="matrix(2,0,0,2,5.952756,5.952756)"/>
<path style="fill-rule:nonzero;fill:rgb(50%,50%,0%);fill-opacity:0.1;stroke-width:0.566929;stroke-linecap:butt;stroke-linejoin:miter;stroke:rgb(100%,0%,0%);stroke-opacity:0.5;stroke-miterlimit:10;" d="M 48.257997 78.011903 L 83.748231 78.011903 L 83.748231 57.064638 L 48.257997 57.064638 Z M 48.257997 78.011903 " transform="matrix(2,0,0,2,5.952756,5.952756)"/>
<path style="fill:none;stroke-width:0.566929;stroke-linecap:butt;stroke-linejoin:miter;stroke:rgb(100%,0%,0%);stroke-opacity:0.5;stroke-miterlimit:10;" d="M 114.035341 71.394716 L 119.705263 65.726747 " transform="matrix(2,0,0,2,5.952756,5.952756)"/>
<path style="fill:none;stroke-width:0.566929;stroke-linecap:butt;stroke-linejoin:miter;stroke:rgb(100%,0%,0%);stroke-opacity:0.5;stroke-miterlimit:10;" d="M 119.705263 71.394716 L 114.035341 65.726747 " transform="matrix(2,0,0,2,5.952756,5.952756)"/>
<path style="fill-rule:nonzero;fill:rgb(50%,50%,0%);fill-opacity:0.1;stroke-width:0.566929;stroke-linecap:butt;stroke-linejoin:miter;stroke:rgb(100%,0%,0%);stroke-opacity:0.5;stroke-miterlimit:10;" d="M 103.045106 94.04706 L 132.2287 94.04706 L 132.2287 43.340028 L 103.045106 43.340028 Z M 103.045106 94.04706 " transform="matrix(2,0,0,2,5.952756,5.952756)"/>
<path style="fill:none;stroke-width:0.566929;stroke-linecap:butt;stroke-linejoin:miter;stroke:rgb(100%,0%,0%);stroke-opacity:0.5;stroke-miterlimit:10;" d="M 19.437685 114.117372 L 25.107606 108.44745 " transform="matrix(2,0,0,2,5.952756,5.952756)"/>
<path style="fill:none;stroke-width:0.566929;stroke-linecap:butt;stroke-linejoin:miter;stroke:rgb(100%,0%,0%);stroke-opacity:0.5;stroke-miterlimit:10;" d="M 25.107606 114.117372 L 19.437685 108.44745 " transform="matrix(2,0,0,2,5.952756,5.952756)"/>
<path style="fill-rule:nonzero;fill:rgb(50%,50%,0%);fill-opacity:0.1;stroke-width:0.566929;stroke-linecap:butt;stroke-linejoin:miter;stroke:rgb(100%,0%,0%);stroke-opacity:0.5;stroke-miterlimit:10;" d="M 15.945497 136.836122 L 39.439638 136.836122 L 39.439638 96.054872 L 15.945497 96.054872 Z M 15.945497 136.836122 " transform="matrix(2,0,0,2,5.952756,5.952756)"/>
<path style="fill:none;stroke-width:0.566929;stroke-linecap:butt;stroke-linejoin:miter;stroke:rgb(100%,0%,0%);stroke-opacity:0.5;stroke-miterlimit:10;" d="M 63.629091 114.117372 L 69.29706 108.44745 " transform="matrix(2,0,0,2,5.952756,5.952756)"/>
<path style="fill:none;stroke-width:0.566929;stroke-linecap:butt;stroke-linejoin:miter;stroke:rgb(100%,0%,0%);stroke-opacity:0.5;stroke-miterlimit:10;" d="M 69.29706 114.117372 L 63.629091 108.44745 " transform="matrix(2,0,0,2,5.952756,5.952756)"/>
<path style="fill-rule:nonzero;fill:rgb(50%,50%,0%);fill-opacity:0.1;stroke-width:0.566929;stroke-linecap:butt;stroke-linejoin:miter;stroke:rgb(100%,0%,0%);stroke-opacity:0.5;stroke-miterlimit:10;" d="M 45.373231 134.066591 L 90.744325 134.066591 L 90.744325 97.158388 L 45.373231 97.158388 Z M 45.373231 134.066591 " transform="matrix(2,0,0,2,5.952756,5.952756)"/>
<path style="fill:none;stroke-width:0.566929;stroke-linecap:butt;stroke-linejoin:miter;stroke:rgb(100%,0%,0%);stroke-opacity:0.5;stroke-miterlimit:10;" d="M 114.035341 114.117372 L 119.705263 108.44745 " transform="matrix(2,0,0,2,5.952756,5.952756)"/>
<path style="fill:none;stroke-width:0.566929;stroke-linecap:butt;stroke-linejoin:miter;stroke:rgb(100%,0%,0%);stroke-opacity:0.5;stroke-miterlimit:10;" d="M 119.705263 114.117372 L 114.035341 108.44745 " transform="matrix(2,0,0,2,5.952756,5.952756)"/>
<path style="fill-rule:nonzero;fill:rgb(50%,50%,0%);fill-opacity:0.1;stroke-width:0.566929;stroke-linecap:butt;stroke-linejoin:miter;stroke:rgb(100%,0%,0%);stroke-opacity:0.5;stroke-miterlimit:10;" d="M 106.951356 136.691591 L 130.990419 136.691591 L 130.990419 94.04706 L 106.951356 94.04706 Z M 106.951356 136.691591 " transform="matrix(2,0,0,2,5.952756,5.952756)"/>
</g>
</svg>
