<?xml version="1.0" encoding="UTF-8"?>
<svg xmlns="http://www.w3.org/2000/svg" xmlns:xlink="http://www.w3.org/1999/xlink" width="332.492806pt" height="305.712887pt" viewBox="0 0 332.492806 305.712887" version="1.1">
<g id="surface137">
<path style="fill:none;stroke-width:0.566929;stroke-linecap:butt;stroke-linejoin:miter;stroke:rgb(100%,0%,0%);stroke-opacity:0.5;stroke-miterlimit:10;" d="M -2.834646 2.834169 L 2.835276 -2.8338 " transform="matrix(2,0,0,2,6.169291,5.952756)"/>
<path style="fill:none;stroke-width:0.566929;stroke-linecap:butt;stroke-linejoin:miter;stroke:rgb(100%,0%,0%);stroke-opacity:0.5;stroke-miterlimit:10;" d="M 2.835276 2.834169 L -2.834646 -2.8338 " transform="matrix(2,0,0,2,6.169291,5.952756)"/>
<path style="fill-rule:nonzero;fill:rgb(50%,50%,0%);fill-opacity:0.1;stroke-width:0.566929;stroke-linecap:butt;stroke-linejoin:miter;stroke:rgb(100%,0%,0%);stroke-opacity:0.5;stroke-miterlimit:10;" d="M -0.000661294 149.629091 L 163.020823 149.629091 L 163.020823 0.000184547 L -0.000661294 0.000184547 Z M -0.000661294 149.629091 " transform="matrix(2,0,0,2,6.169291,5.952756)"/>
<path style="fill:none;stroke-width:0.566929;stroke-linecap:butt;stroke-linejoin:miter;stroke:rgb(100%,0%,0%);stroke-opacity:0.5;stroke-miterlimit:10;" d="M -2.834646 41.410341 L 2.835276 35.742372 " transform="matrix(2,0,0,2,6.169291,5.952756)"/>
<path style="fill:none;stroke-width:0.566929;stroke-linecap:butt;stroke-linejoin:miter;stroke:rgb(100%,0%,0%);stroke-opacity:0.5;stroke-miterlimit:10;" d="M 2.835276 41.410341 L -2.834646 35.742372 " transform="matrix(2,0,0,2,6.169291,5.952756)"/>
<path style="fill-rule:nonzero;fill:rgb(50%,50%,0%);fill-opacity:0.1;stroke-width:0.566929;stroke-linecap:butt;stroke-linejoin:miter;stroke:rgb(100%,0%,0%);stroke-opacity:0.5;stroke-miterlimit:10;" d="M -0.000661294 85.138856 L 163.020823 85.138856 L 163.020823 0.000184547 L -0.000661294 0.000184547 Z M -0.000661294 85.138856 " transform="matrix(2,0,0,2,6.169291,5.952756)"/>
<path style="fill:none;stroke-width:0.566929;stroke-linecap:butt;stroke-linejoin:miter;stroke:rgb(100%,0%,0%);stroke-opacity:0.5;stroke-miterlimit:10;" d="M 24.33137 41.410341 L 29.999339 35.742372 " transform="matrix(2,0,0,2,6.169291,5.952756)"/>
<path style="fill:none;stroke-width:0.566929;stroke-linecap:butt;stroke-linejoin:miter;stroke:rgb(100%,0%,0%);stroke-opacity:0.5;stroke-miterlimit:10;" d="M 29.999339 41.410341 L 24.33137 35.742372 " transform="matrix(2,0,0,2,6.169291,5.952756)"/>
<path style="fill-rule:nonzero;fill:rgb(50%,50%,0%);fill-opacity:0.1;stroke-width:0.566929;stroke-linecap:butt;stroke-linejoin:miter;stroke:rgb(100%,0%,0%);stroke-opacity:0.5;stroke-miterlimit:10;" d="M -0.000661294 85.138856 L 56.305979 85.138856 L 56.305979 27.117372 L -0.000661294 27.117372 Z M -0.000661294 85.138856 " transform="matrix(2,0,0,2,6.169291,5.952756)"/>
<path style="fill:none;stroke-width:0.566929;stroke-linecap:butt;stroke-linejoin:miter;stroke:rgb(100%,0%,0%);stroke-opacity:0.5;stroke-miterlimit:10;" d="M 102.403636 41.410341 L 108.071604 35.742372 " transform="matrix(2,0,0,2,6.169291,5.952756)"/>
<path style="fill:none;stroke-width:0.566929;stroke-linecap:butt;stroke-linejoin:miter;stroke:rgb(100%,0%,0%);stroke-opacity:0.5;stroke-miterlimit:10;" d="M 108.071604 41.410341 L 102.403636 35.742372 " transform="matrix(2,0,0,2,6.169291,5.952756)"/>
<path style="fill-rule:nonzero;fill:rgb(50%,50%,0%);fill-opacity:0.1;stroke-width:0.566929;stroke-linecap:butt;stroke-linejoin:miter;stroke:rgb(100%,0%,0%);stroke-opacity:0.5;stroke-miterlimit:10;" d="M 56.305979 78.498231 L 136.923167 78.498231 L 136.923167 0.000184547 L 56.305979 0.000184547 Z M 56.305979 78.498231 " transform="matrix(2,0,0,2,6.169291,5.952756)"/>
<path style="fill:none;stroke-width:0.566929;stroke-linecap:butt;stroke-linejoin:miter;stroke:rgb(100%,0%,0%);stroke-opacity:0.5;stroke-miterlimit:10;" d="M 134.087229 41.410341 L 139.757151 35.742372 " transform="matrix(2,0,0,2,6.169291,5.952756)"/>
<path style="fill:none;stroke-width:0.566929;stroke-linecap:butt;stroke-linejoin:miter;stroke:rgb(100%,0%,0%);stroke-opacity:0.5;stroke-miterlimit:10;" d="M 139.757151 41.410341 L 134.087229 35.742372 " transform="matrix(2,0,0,2,6.169291,5.952756)"/>
<path style="fill-rule:nonzero;fill:rgb(50%,50%,0%);fill-opacity:0.1;stroke-width:0.566929;stroke-linecap:butt;stroke-linejoin:miter;stroke:rgb(100%,0%,0%);stroke-opacity:0.5;stroke-miterlimit:10;" d="M 136.923167 40.623231 L 163.020823 40.623231 L 163.020823 30.435731 L 136.923167 30.435731 Z M 136.923167 40.623231 " transform="matrix(2,0,0,2,6.169291,5.952756)"/>
<path style=" stroke:none;fill-rule:nonzero;fill:rgb(0%,0%,0%);fill-opacity:1;" d="M 292.578125 70.042969 C 292.578125 69.324219 292.609375 69.105469 294.140625 69.105469 L 294.640625 69.105469 L 294.640625 68.480469 C 293.921875 68.542969 292.453125 68.542969 291.703125 68.542969 C 290.953125 68.542969 289.453125 68.542969 288.765625 68.480469 L 288.765625 69.105469 L 289.234375 69.105469 C 290.765625 69.105469 290.796875 69.324219 290.796875 70.042969 L 290.796875 74.699219 L 284.859375 74.699219 L 284.859375 70.042969 C 284.859375 69.324219 284.890625 69.105469 286.421875 69.105469 L 286.890625 69.105469 L 286.890625 68.480469 C 286.203125 68.542969 284.734375 68.542969 283.953125 68.542969 C 283.203125 68.542969 281.703125 68.542969 281.015625 68.480469 L 281.015625 69.105469 L 281.484375 69.105469 C 283.015625 69.105469 283.078125 69.324219 283.078125 70.042969 L 283.078125 80.542969 C 283.078125 81.261719 283.015625 81.480469 281.484375 81.480469 L 281.015625 81.480469 L 281.015625 82.105469 C 281.703125 82.042969 283.203125 82.042969 283.953125 82.042969 C 284.703125 82.042969 286.203125 82.042969 286.890625 82.105469 L 286.890625 81.480469 L 286.421875 81.480469 C 284.890625 81.480469 284.859375 81.261719 284.859375 80.542969 L 284.859375 75.324219 L 290.796875 75.324219 L 290.796875 80.542969 C 290.796875 81.261719 290.765625 81.480469 289.234375 81.480469 L 288.765625 81.480469 L 288.765625 82.105469 C 289.453125 82.042969 290.921875 82.042969 291.671875 82.042969 C 292.453125 82.042969 293.921875 82.042969 294.640625 82.105469 L 294.640625 81.480469 L 294.140625 81.480469 C 292.609375 81.480469 292.578125 81.261719 292.578125 80.542969 Z M 292.578125 70.042969 "/>
<path style=" stroke:none;fill-rule:nonzero;fill:rgb(0%,0%,0%);fill-opacity:1;" d="M 298.832031 73.292969 L 296.050781 73.511719 L 296.050781 74.136719 C 297.332031 74.136719 297.519531 74.261719 297.519531 75.230469 L 297.519531 80.605469 C 297.519531 81.480469 297.300781 81.480469 295.957031 81.480469 L 295.957031 82.105469 C 296.582031 82.074219 297.675781 82.042969 298.144531 82.042969 C 298.863281 82.042969 299.550781 82.074219 300.238281 82.105469 L 300.238281 81.480469 C 298.894531 81.480469 298.832031 81.386719 298.832031 80.605469 Z M 298.894531 69.824219 C 298.894531 69.199219 298.425781 68.761719 297.863281 68.761719 C 297.238281 68.761719 296.800781 69.292969 296.800781 69.824219 C 296.800781 70.355469 297.238281 70.886719 297.863281 70.886719 C 298.425781 70.886719 298.894531 70.449219 298.894531 69.824219 Z M 298.894531 69.824219 "/>
<path style=" stroke:none;fill-rule:nonzero;fill:rgb(0%,0%,0%);fill-opacity:1;" d="M 305.273438 78.667969 C 303.523438 78.667969 303.523438 76.667969 303.523438 76.230469 C 303.523438 75.699219 303.554688 75.042969 303.835938 74.542969 C 303.992188 74.324219 304.460938 73.761719 305.273438 73.761719 C 306.992188 73.761719 306.992188 75.730469 306.992188 76.199219 C 306.992188 76.730469 306.992188 77.386719 306.679688 77.886719 C 306.523438 78.105469 306.054688 78.667969 305.273438 78.667969 Z M 302.960938 79.449219 C 302.960938 79.386719 302.960938 78.917969 303.273438 78.511719 C 304.054688 79.074219 304.898438 79.136719 305.273438 79.136719 C 307.117188 79.136719 308.492188 77.761719 308.492188 76.230469 C 308.492188 75.480469 308.179688 74.761719 307.679688 74.292969 C 308.398438 73.605469 309.117188 73.511719 309.460938 73.511719 C 309.523438 73.511719 309.617188 73.511719 309.679688 73.542969 C 309.460938 73.605469 309.335938 73.824219 309.335938 74.074219 C 309.335938 74.417969 309.617188 74.636719 309.929688 74.636719 C 310.117188 74.636719 310.492188 74.511719 310.492188 74.042969 C 310.492188 73.699219 310.273438 73.074219 309.492188 73.074219 C 309.085938 73.074219 308.210938 73.199219 307.367188 74.011719 C 306.523438 73.355469 305.710938 73.292969 305.273438 73.292969 C 303.398438 73.292969 302.023438 74.667969 302.023438 76.199219 C 302.023438 77.074219 302.460938 77.824219 302.960938 78.261719 C 302.710938 78.542969 302.335938 79.199219 302.335938 79.917969 C 302.335938 80.542969 302.617188 81.292969 303.242188 81.699219 C 302.023438 82.011719 301.398438 82.886719 301.398438 83.667969 C 301.398438 85.105469 303.367188 86.199219 305.804688 86.199219 C 308.148438 86.199219 310.210938 85.199219 310.210938 83.636719 C 310.210938 82.949219 309.960938 81.917969 308.929688 81.355469 C 307.867188 80.824219 306.710938 80.824219 305.492188 80.824219 C 304.992188 80.824219 304.148438 80.824219 303.992188 80.792969 C 303.367188 80.699219 302.960938 80.105469 302.960938 79.449219 Z M 305.835938 85.761719 C 303.804688 85.761719 302.429688 84.730469 302.429688 83.667969 C 302.429688 82.761719 303.179688 82.011719 304.054688 81.980469 L 305.242188 81.980469 C 306.960938 81.980469 309.179688 81.980469 309.179688 83.667969 C 309.179688 84.761719 307.773438 85.761719 305.835938 85.761719 Z M 305.835938 85.761719 "/>
<path style=" stroke:none;fill-rule:nonzero;fill:rgb(0%,0%,0%);fill-opacity:1;" d="M 319.957031 75.730469 C 319.957031 74.136719 319.863281 72.542969 319.175781 71.074219 C 318.269531 69.136719 316.613281 68.824219 315.800781 68.824219 C 314.582031 68.824219 313.144531 69.355469 312.300781 71.199219 C 311.675781 72.574219 311.582031 74.136719 311.582031 75.730469 C 311.582031 77.230469 311.644531 79.011719 312.488281 80.542969 C 313.332031 82.136719 314.800781 82.542969 315.769531 82.542969 C 316.832031 82.542969 318.363281 82.136719 319.238281 80.230469 C 319.863281 78.855469 319.957031 77.292969 319.957031 75.730469 Z M 315.769531 82.105469 C 314.988281 82.105469 313.800781 81.605469 313.457031 79.699219 C 313.238281 78.511719 313.238281 76.667969 313.238281 75.480469 C 313.238281 74.199219 313.238281 72.886719 313.394531 71.824219 C 313.769531 69.449219 315.269531 69.261719 315.769531 69.261719 C 316.425781 69.261719 317.738281 69.636719 318.113281 71.605469 C 318.332031 72.730469 318.332031 74.230469 318.332031 75.480469 C 318.332031 76.980469 318.332031 78.324219 318.113281 79.605469 C 317.800781 81.511719 316.675781 82.105469 315.769531 82.105469 Z M 315.769531 82.105469 "/>
<path style=" stroke:none;fill-rule:nonzero;fill:rgb(0%,0%,0%);fill-opacity:1;" d="M 330.460938 77.949219 L 331.210938 68.855469 C 331.210938 68.199219 330.679688 67.824219 330.179688 67.824219 C 329.648438 67.824219 329.117188 68.199219 329.117188 68.855469 L 329.898438 77.917969 C 329.898438 78.230469 329.929688 78.386719 330.179688 78.386719 C 330.367188 78.386719 330.429688 78.292969 330.460938 77.949219 Z M 331.210938 81.042969 C 331.210938 80.480469 330.742188 79.980469 330.179688 79.980469 C 329.585938 79.980469 329.117188 80.480469 329.117188 81.042969 C 329.117188 81.636719 329.585938 82.105469 330.179688 82.105469 C 330.742188 82.105469 331.210938 81.636719 331.210938 81.042969 Z M 331.210938 81.042969 "/>
<path style="fill:none;stroke-width:0.566929;stroke-linecap:butt;stroke-linejoin:miter;stroke:rgb(100%,0%,0%);stroke-opacity:0.5;stroke-miterlimit:10;" d="M -2.834646 118.2912 L 2.835276 112.621278 " transform="matrix(2,0,0,2,6.169291,5.952756)"/>
<path style="fill:none;stroke-width:0.566929;stroke-linecap:butt;stroke-linejoin:miter;stroke:rgb(100%,0%,0%);stroke-opacity:0.5;stroke-miterlimit:10;" d="M 2.835276 118.2912 L -2.834646 112.621278 " transform="matrix(2,0,0,2,6.169291,5.952756)"/>
<path style="fill-rule:nonzero;fill:rgb(50%,50%,0%);fill-opacity:0.1;stroke-width:0.566929;stroke-linecap:butt;stroke-linejoin:miter;stroke:rgb(100%,0%,0%);stroke-opacity:0.5;stroke-miterlimit:10;" d="M -0.000661294 149.629091 L 137.255198 149.629091 L 137.255198 85.138856 L -0.000661294 85.138856 Z M -0.000661294 149.629091 " transform="matrix(2,0,0,2,6.169291,5.952756)"/>
<path style="fill:none;stroke-width:0.566929;stroke-linecap:butt;stroke-linejoin:miter;stroke:rgb(100%,0%,0%);stroke-opacity:0.5;stroke-miterlimit:10;" d="M 18.009104 118.2912 L 23.679026 112.621278 " transform="matrix(2,0,0,2,6.169291,5.952756)"/>
<path style="fill:none;stroke-width:0.566929;stroke-linecap:butt;stroke-linejoin:miter;stroke:rgb(100%,0%,0%);stroke-opacity:0.5;stroke-miterlimit:10;" d="M 23.679026 118.2912 L 18.009104 112.621278 " transform="matrix(2,0,0,2,6.169291,5.952756)"/>
<path style="fill-rule:nonzero;fill:rgb(50%,50%,0%);fill-opacity:0.1;stroke-width:0.566929;stroke-linecap:butt;stroke-linejoin:miter;stroke:rgb(100%,0%,0%);stroke-opacity:0.5;stroke-miterlimit:10;" d="M -0.000661294 149.629091 L 48.179026 149.629091 L 48.179026 90.613466 L -0.000661294 90.613466 Z M -0.000661294 149.629091 " transform="matrix(2,0,0,2,6.169291,5.952756)"/>
<path style="fill:none;stroke-width:0.566929;stroke-linecap:butt;stroke-linejoin:miter;stroke:rgb(100%,0%,0%);stroke-opacity:0.5;stroke-miterlimit:10;" d="M 73.92512 118.2912 L 79.593089 112.621278 " transform="matrix(2,0,0,2,6.169291,5.952756)"/>
<path style="fill:none;stroke-width:0.566929;stroke-linecap:butt;stroke-linejoin:miter;stroke:rgb(100%,0%,0%);stroke-opacity:0.5;stroke-miterlimit:10;" d="M 79.593089 118.2912 L 73.92512 112.621278 " transform="matrix(2,0,0,2,6.169291,5.952756)"/>
<path style="fill-rule:nonzero;fill:rgb(50%,50%,0%);fill-opacity:0.1;stroke-width:0.566929;stroke-linecap:butt;stroke-linejoin:miter;stroke:rgb(100%,0%,0%);stroke-opacity:0.5;stroke-miterlimit:10;" d="M 48.179026 124.730653 L 111.157542 124.730653 L 111.157542 85.138856 L 48.179026 85.138856 Z M 48.179026 124.730653 " transform="matrix(2,0,0,2,6.169291,5.952756)"/>
<path style="fill:none;stroke-width:0.566929;stroke-linecap:butt;stroke-linejoin:miter;stroke:rgb(100%,0%,0%);stroke-opacity:0.5;stroke-miterlimit:10;" d="M 108.321604 118.2912 L 113.991526 112.621278 " transform="matrix(2,0,0,2,6.169291,5.952756)"/>
<path style="fill:none;stroke-width:0.566929;stroke-linecap:butt;stroke-linejoin:miter;stroke:rgb(100%,0%,0%);stroke-opacity:0.5;stroke-miterlimit:10;" d="M 113.991526 118.2912 L 108.321604 112.621278 " transform="matrix(2,0,0,2,6.169291,5.952756)"/>
<path style="fill-rule:nonzero;fill:rgb(50%,50%,0%);fill-opacity:0.1;stroke-width:0.566929;stroke-linecap:butt;stroke-linejoin:miter;stroke:rgb(100%,0%,0%);stroke-opacity:0.5;stroke-miterlimit:10;" d="M 111.157542 117.502138 L 137.255198 117.502138 L 137.255198 107.314638 L 111.157542 107.314638 Z M 111.157542 117.502138 " transform="matrix(2,0,0,2,6.169291,5.952756)"/>
<path style=" stroke:none;fill-rule:nonzero;fill:rgb(0%,0%,0%);fill-opacity:1;" d="M 241.046875 223.800781 C 241.046875 223.082031 241.078125 222.863281 242.609375 222.863281 L 243.109375 222.863281 L 243.109375 222.238281 C 242.390625 222.300781 240.921875 222.300781 240.171875 222.300781 C 239.421875 222.300781 237.921875 222.300781 237.234375 222.238281 L 237.234375 222.863281 L 237.703125 222.863281 C 239.234375 222.863281 239.265625 223.082031 239.265625 223.800781 L 239.265625 228.457031 L 233.328125 228.457031 L 233.328125 223.800781 C 233.328125 223.082031 233.359375 222.863281 234.890625 222.863281 L 235.359375 222.863281 L 235.359375 222.238281 C 234.671875 222.300781 233.203125 222.300781 232.421875 222.300781 C 231.671875 222.300781 230.171875 222.300781 229.484375 222.238281 L 229.484375 222.863281 L 229.953125 222.863281 C 231.484375 222.863281 231.546875 223.082031 231.546875 223.800781 L 231.546875 234.300781 C 231.546875 235.019531 231.484375 235.238281 229.953125 235.238281 L 229.484375 235.238281 L 229.484375 235.863281 C 230.171875 235.800781 231.671875 235.800781 232.421875 235.800781 C 233.171875 235.800781 234.671875 235.800781 235.359375 235.863281 L 235.359375 235.238281 L 234.890625 235.238281 C 233.359375 235.238281 233.328125 235.019531 233.328125 234.300781 L 233.328125 229.082031 L 239.265625 229.082031 L 239.265625 234.300781 C 239.265625 235.019531 239.234375 235.238281 237.703125 235.238281 L 237.234375 235.238281 L 237.234375 235.863281 C 237.921875 235.800781 239.390625 235.800781 240.140625 235.800781 C 240.921875 235.800781 242.390625 235.800781 243.109375 235.863281 L 243.109375 235.238281 L 242.609375 235.238281 C 241.078125 235.238281 241.046875 235.019531 241.046875 234.300781 Z M 241.046875 223.800781 "/>
<path style=" stroke:none;fill-rule:nonzero;fill:rgb(0%,0%,0%);fill-opacity:1;" d="M 247.300781 227.050781 L 244.519531 227.269531 L 244.519531 227.894531 C 245.800781 227.894531 245.988281 228.019531 245.988281 228.988281 L 245.988281 234.363281 C 245.988281 235.238281 245.769531 235.238281 244.425781 235.238281 L 244.425781 235.863281 C 245.050781 235.832031 246.144531 235.800781 246.613281 235.800781 C 247.332031 235.800781 248.019531 235.832031 248.707031 235.863281 L 248.707031 235.238281 C 247.363281 235.238281 247.300781 235.144531 247.300781 234.363281 Z M 247.363281 223.582031 C 247.363281 222.957031 246.894531 222.519531 246.332031 222.519531 C 245.707031 222.519531 245.269531 223.050781 245.269531 223.582031 C 245.269531 224.113281 245.707031 224.644531 246.332031 224.644531 C 246.894531 224.644531 247.363281 224.207031 247.363281 223.582031 Z M 247.363281 223.582031 "/>
<path style=" stroke:none;fill-rule:nonzero;fill:rgb(0%,0%,0%);fill-opacity:1;" d="M 253.742188 232.425781 C 251.992188 232.425781 251.992188 230.425781 251.992188 229.988281 C 251.992188 229.457031 252.023438 228.800781 252.304688 228.300781 C 252.460938 228.082031 252.929688 227.519531 253.742188 227.519531 C 255.460938 227.519531 255.460938 229.488281 255.460938 229.957031 C 255.460938 230.488281 255.460938 231.144531 255.148438 231.644531 C 254.992188 231.863281 254.523438 232.425781 253.742188 232.425781 Z M 251.429688 233.207031 C 251.429688 233.144531 251.429688 232.675781 251.742188 232.269531 C 252.523438 232.832031 253.367188 232.894531 253.742188 232.894531 C 255.585938 232.894531 256.960938 231.519531 256.960938 229.988281 C 256.960938 229.238281 256.648438 228.519531 256.148438 228.050781 C 256.867188 227.363281 257.585938 227.269531 257.929688 227.269531 C 257.992188 227.269531 258.085938 227.269531 258.148438 227.300781 C 257.929688 227.363281 257.804688 227.582031 257.804688 227.832031 C 257.804688 228.175781 258.085938 228.394531 258.398438 228.394531 C 258.585938 228.394531 258.960938 228.269531 258.960938 227.800781 C 258.960938 227.457031 258.742188 226.832031 257.960938 226.832031 C 257.554688 226.832031 256.679688 226.957031 255.835938 227.769531 C 254.992188 227.113281 254.179688 227.050781 253.742188 227.050781 C 251.867188 227.050781 250.492188 228.425781 250.492188 229.957031 C 250.492188 230.832031 250.929688 231.582031 251.429688 232.019531 C 251.179688 232.300781 250.804688 232.957031 250.804688 233.675781 C 250.804688 234.300781 251.085938 235.050781 251.710938 235.457031 C 250.492188 235.769531 249.867188 236.644531 249.867188 237.425781 C 249.867188 238.863281 251.835938 239.957031 254.273438 239.957031 C 256.617188 239.957031 258.679688 238.957031 258.679688 237.394531 C 258.679688 236.707031 258.429688 235.675781 257.398438 235.113281 C 256.335938 234.582031 255.179688 234.582031 253.960938 234.582031 C 253.460938 234.582031 252.617188 234.582031 252.460938 234.550781 C 251.835938 234.457031 251.429688 233.863281 251.429688 233.207031 Z M 254.304688 239.519531 C 252.273438 239.519531 250.898438 238.488281 250.898438 237.425781 C 250.898438 236.519531 251.648438 235.769531 252.523438 235.738281 L 253.710938 235.738281 C 255.429688 235.738281 257.648438 235.738281 257.648438 237.425781 C 257.648438 238.519531 256.242188 239.519531 254.304688 239.519531 Z M 254.304688 239.519531 "/>
<path style=" stroke:none;fill-rule:nonzero;fill:rgb(0%,0%,0%);fill-opacity:1;" d="M 265.144531 223.113281 C 265.144531 222.613281 265.144531 222.582031 264.675781 222.582031 C 263.425781 223.863281 261.675781 223.863281 261.050781 223.863281 L 261.050781 224.488281 C 261.457031 224.488281 262.613281 224.488281 263.644531 223.957031 L 263.644531 234.300781 C 263.644531 235.019531 263.582031 235.238281 261.800781 235.238281 L 261.175781 235.238281 L 261.175781 235.863281 C 261.863281 235.800781 263.582031 235.800781 264.394531 235.800781 C 265.175781 235.800781 266.925781 235.800781 267.613281 235.863281 L 267.613281 235.238281 L 266.988281 235.238281 C 265.175781 235.238281 265.144531 235.019531 265.144531 234.300781 Z M 265.144531 223.113281 "/>
<path style=" stroke:none;fill-rule:nonzero;fill:rgb(0%,0%,0%);fill-opacity:1;" d="M 278.929688 231.707031 L 279.679688 222.613281 C 279.679688 221.957031 279.148438 221.582031 278.648438 221.582031 C 278.117188 221.582031 277.585938 221.957031 277.585938 222.613281 L 278.367188 231.675781 C 278.367188 231.988281 278.398438 232.144531 278.648438 232.144531 C 278.835938 232.144531 278.898438 232.050781 278.929688 231.707031 Z M 279.679688 234.800781 C 279.679688 234.238281 279.210938 233.738281 278.648438 233.738281 C 278.054688 233.738281 277.585938 234.238281 277.585938 234.800781 C 277.585938 235.394531 278.054688 235.863281 278.648438 235.863281 C 279.210938 235.863281 279.679688 235.394531 279.679688 234.800781 Z M 279.679688 234.800781 "/>
</g>
</svg>
