<?xml version="1.0" encoding="UTF-8"?>
<svg xmlns="http://www.w3.org/2000/svg" xmlns:xlink="http://www.w3.org/1999/xlink" width="234.723841pt" height="176.748031pt" viewBox="0 0 234.723841 176.748031" version="1.1">
<g id="surface129">
<path style="fill:none;stroke-width:0.566929;stroke-linecap:butt;stroke-linejoin:miter;stroke:rgb(100%,0%,0%);stroke-opacity:0.5;stroke-miterlimit:10;" d="M -2.8338 2.835276 L 2.834169 -2.834646 " transform="matrix(2,0,0,2,5.952756,6.169291)"/>
<path style="fill:none;stroke-width:0.566929;stroke-linecap:butt;stroke-linejoin:miter;stroke:rgb(100%,0%,0%);stroke-opacity:0.5;stroke-miterlimit:10;" d="M 2.834169 2.835276 L -2.8338 -2.834646 " transform="matrix(2,0,0,2,5.952756,6.169291)"/>
<path style="fill-rule:nonzero;fill:rgb(50%,50%,0%);fill-opacity:0.1;stroke-width:0.566929;stroke-linecap:butt;stroke-linejoin:miter;stroke:rgb(100%,0%,0%);stroke-opacity:0.5;stroke-miterlimit:10;" d="M 0.000184547 85.038401 L 111.300966 85.038401 L 111.300966 -0.000661294 L 0.000184547 -0.000661294 Z M 0.000184547 85.038401 " transform="matrix(2,0,0,2,5.952756,6.169291)"/>
<path style="fill:none;stroke-width:0.566929;stroke-linecap:butt;stroke-linejoin:miter;stroke:rgb(100%,0%,0%);stroke-opacity:0.5;stroke-miterlimit:10;" d="M 6.826356 2.835276 L 12.494325 -2.834646 " transform="matrix(2,0,0,2,5.952756,6.169291)"/>
<path style="fill:none;stroke-width:0.566929;stroke-linecap:butt;stroke-linejoin:miter;stroke:rgb(100%,0%,0%);stroke-opacity:0.5;stroke-miterlimit:10;" d="M 12.494325 2.835276 L 6.826356 -2.834646 " transform="matrix(2,0,0,2,5.952756,6.169291)"/>
<path style="fill-rule:nonzero;fill:rgb(50%,50%,0%);fill-opacity:0.1;stroke-width:0.566929;stroke-linecap:butt;stroke-linejoin:miter;stroke:rgb(100%,0%,0%);stroke-opacity:0.5;stroke-miterlimit:10;" d="M 4.427919 11.247386 L 14.892763 11.247386 L 14.892763 -0.000661294 L 4.427919 -0.000661294 Z M 4.427919 11.247386 " transform="matrix(2,0,0,2,5.952756,6.169291)"/>
<path style="fill:none;stroke-width:0.566929;stroke-linecap:butt;stroke-linejoin:miter;stroke:rgb(100%,0%,0%);stroke-opacity:0.5;stroke-miterlimit:10;" d="M 4.427919 11.138011 L 10.095888 5.468089 " transform="matrix(2,0,0,2,5.952756,6.169291)"/>
<path style="fill:none;stroke-width:0.566929;stroke-linecap:butt;stroke-linejoin:miter;stroke:rgb(100%,0%,0%);stroke-opacity:0.5;stroke-miterlimit:10;" d="M 10.095888 11.138011 L 4.427919 5.468089 " transform="matrix(2,0,0,2,5.952756,6.169291)"/>
<path style="fill-rule:nonzero;fill:rgb(50%,50%,0%);fill-opacity:0.1;stroke-width:0.566929;stroke-linecap:butt;stroke-linejoin:miter;stroke:rgb(100%,0%,0%);stroke-opacity:0.5;stroke-miterlimit:10;" d="M 4.427919 11.247386 L 14.892763 11.247386 L 14.892763 -0.000661294 L 4.427919 -0.000661294 Z M 4.427919 11.247386 " transform="matrix(2,0,0,2,5.952756,6.169291)"/>
<path style="fill:none;stroke-width:0.566929;stroke-linecap:butt;stroke-linejoin:miter;stroke:rgb(100%,0%,0%);stroke-opacity:0.5;stroke-miterlimit:10;" d="M 4.427919 11.138011 L 10.095888 5.468089 " transform="matrix(2,0,0,2,5.952756,6.169291)"/>
<path style="fill:none;stroke-width:0.566929;stroke-linecap:butt;stroke-linejoin:miter;stroke:rgb(100%,0%,0%);stroke-opacity:0.5;stroke-miterlimit:10;" d="M 10.095888 11.138011 L 4.427919 5.468089 " transform="matrix(2,0,0,2,5.952756,6.169291)"/>
<path style="fill-rule:nonzero;fill:rgb(50%,50%,0%);fill-opacity:0.1;stroke-width:0.566929;stroke-linecap:butt;stroke-linejoin:miter;stroke:rgb(100%,0%,0%);stroke-opacity:0.5;stroke-miterlimit:10;" d="M 7.261903 8.413401 L 12.058778 8.413401 L 12.058778 2.835276 L 7.261903 2.835276 Z M 7.261903 8.413401 " transform="matrix(2,0,0,2,5.952756,6.169291)"/>
<path style=" stroke:none;fill-rule:nonzero;fill:rgb(0%,0%,0%);fill-opacity:1;" d="M 23.132812 17.433594 C 23.132812 14.183594 24.757812 13.339844 25.820312 13.339844 C 26.007812 13.339844 27.257812 13.371094 27.945312 14.089844 C 27.132812 14.152344 27.007812 14.746094 27.007812 14.996094 C 27.007812 15.527344 27.382812 15.902344 27.914062 15.902344 C 28.445312 15.902344 28.851562 15.589844 28.851562 14.964844 C 28.851562 13.621094 27.320312 12.839844 25.789062 12.839844 C 23.289062 12.839844 21.476562 14.996094 21.476562 17.464844 C 21.476562 20.027344 23.445312 21.996094 25.757812 21.996094 C 28.414062 21.996094 29.070312 19.589844 29.070312 19.402344 C 29.070312 19.214844 28.851562 19.214844 28.789062 19.214844 C 28.632812 19.214844 28.570312 19.277344 28.539062 19.402344 C 27.976562 21.246094 26.664062 21.496094 25.945312 21.496094 C 24.882812 21.496094 23.132812 20.652344 23.132812 17.433594 Z M 23.132812 17.433594 "/>
<path style="fill:none;stroke-width:0.566929;stroke-linecap:butt;stroke-linejoin:miter;stroke:rgb(100%,0%,0%);stroke-opacity:0.5;stroke-miterlimit:10;" d="M 34.54706 2.835276 L 40.216981 -2.834646 " transform="matrix(2,0,0,2,5.952756,6.169291)"/>
<path style="fill:none;stroke-width:0.566929;stroke-linecap:butt;stroke-linejoin:miter;stroke:rgb(100%,0%,0%);stroke-opacity:0.5;stroke-miterlimit:10;" d="M 40.216981 2.835276 L 34.54706 -2.834646 " transform="matrix(2,0,0,2,5.952756,6.169291)"/>
<path style="fill-rule:nonzero;fill:rgb(50%,50%,0%);fill-opacity:0.1;stroke-width:0.566929;stroke-linecap:butt;stroke-linejoin:miter;stroke:rgb(100%,0%,0%);stroke-opacity:0.5;stroke-miterlimit:10;" d="M 29.904481 11.247386 L 44.85956 11.247386 L 44.85956 -0.000661294 L 29.904481 -0.000661294 Z M 29.904481 11.247386 " transform="matrix(2,0,0,2,5.952756,6.169291)"/>
<path style="fill:none;stroke-width:0.566929;stroke-linecap:butt;stroke-linejoin:miter;stroke:rgb(100%,0%,0%);stroke-opacity:0.5;stroke-miterlimit:10;" d="M 29.904481 11.138011 L 35.574403 5.468089 " transform="matrix(2,0,0,2,5.952756,6.169291)"/>
<path style="fill:none;stroke-width:0.566929;stroke-linecap:butt;stroke-linejoin:miter;stroke:rgb(100%,0%,0%);stroke-opacity:0.5;stroke-miterlimit:10;" d="M 35.574403 11.138011 L 29.904481 5.468089 " transform="matrix(2,0,0,2,5.952756,6.169291)"/>
<path style="fill-rule:nonzero;fill:rgb(50%,50%,0%);fill-opacity:0.1;stroke-width:0.566929;stroke-linecap:butt;stroke-linejoin:miter;stroke:rgb(100%,0%,0%);stroke-opacity:0.5;stroke-miterlimit:10;" d="M 29.904481 11.247386 L 44.85956 11.247386 L 44.85956 -0.000661294 L 29.904481 -0.000661294 Z M 29.904481 11.247386 " transform="matrix(2,0,0,2,5.952756,6.169291)"/>
<path style="fill:none;stroke-width:0.566929;stroke-linecap:butt;stroke-linejoin:miter;stroke:rgb(100%,0%,0%);stroke-opacity:0.5;stroke-miterlimit:10;" d="M 29.904481 11.138011 L 35.574403 5.468089 " transform="matrix(2,0,0,2,5.952756,6.169291)"/>
<path style="fill:none;stroke-width:0.566929;stroke-linecap:butt;stroke-linejoin:miter;stroke:rgb(100%,0%,0%);stroke-opacity:0.5;stroke-miterlimit:10;" d="M 35.574403 11.138011 L 29.904481 5.468089 " transform="matrix(2,0,0,2,5.952756,6.169291)"/>
<path style="fill-rule:nonzero;fill:rgb(50%,50%,0%);fill-opacity:0.1;stroke-width:0.566929;stroke-linecap:butt;stroke-linejoin:miter;stroke:rgb(100%,0%,0%);stroke-opacity:0.5;stroke-miterlimit:10;" d="M 32.738466 8.413401 L 42.025575 8.413401 L 42.025575 2.835276 L 32.738466 2.835276 Z M 32.738466 8.413401 " transform="matrix(2,0,0,2,5.952756,6.169291)"/>
<path style=" stroke:none;fill-rule:nonzero;fill:rgb(0%,0%,0%);fill-opacity:1;" d="M 74.085938 16.746094 C 74.210938 13.777344 75.898438 13.277344 76.585938 13.277344 C 78.617188 13.277344 78.835938 15.964844 78.835938 16.746094 Z M 74.085938 17.183594 L 79.648438 17.183594 C 80.085938 17.183594 80.148438 17.183594 80.148438 16.746094 C 80.148438 14.777344 79.054688 12.839844 76.585938 12.839844 C 74.273438 12.839844 72.429688 14.902344 72.429688 17.402344 C 72.429688 20.058594 74.523438 21.996094 76.804688 21.996094 C 79.242188 21.996094 80.148438 19.777344 80.148438 19.402344 C 80.148438 19.214844 79.992188 19.152344 79.867188 19.152344 C 79.710938 19.152344 79.648438 19.277344 79.617188 19.433594 C 78.929688 21.496094 77.117188 21.496094 76.929688 21.496094 C 75.929688 21.496094 75.148438 20.902344 74.679688 20.152344 C 74.085938 19.214844 74.085938 17.902344 74.085938 17.183594 Z M 74.085938 17.183594 "/>
<path style=" stroke:none;fill-rule:nonzero;fill:rgb(0%,0%,0%);fill-opacity:1;" d="M 82.941406 16.746094 C 83.066406 13.777344 84.753906 13.277344 85.441406 13.277344 C 87.472656 13.277344 87.691406 15.964844 87.691406 16.746094 Z M 82.941406 17.183594 L 88.503906 17.183594 C 88.941406 17.183594 89.003906 17.183594 89.003906 16.746094 C 89.003906 14.777344 87.910156 12.839844 85.441406 12.839844 C 83.128906 12.839844 81.285156 14.902344 81.285156 17.402344 C 81.285156 20.058594 83.378906 21.996094 85.660156 21.996094 C 88.097656 21.996094 89.003906 19.777344 89.003906 19.402344 C 89.003906 19.214844 88.847656 19.152344 88.722656 19.152344 C 88.566406 19.152344 88.503906 19.277344 88.472656 19.433594 C 87.785156 21.496094 85.972656 21.496094 85.785156 21.496094 C 84.785156 21.496094 84.003906 20.902344 83.535156 20.152344 C 82.941406 19.214844 82.941406 17.902344 82.941406 17.183594 Z M 82.941406 17.183594 "/>
<path style="fill:none;stroke-width:0.566929;stroke-linecap:butt;stroke-linejoin:miter;stroke:rgb(100%,0%,0%);stroke-opacity:0.5;stroke-miterlimit:10;" d="M 80.537294 2.835276 L 86.207216 -2.834646 " transform="matrix(2,0,0,2,5.952756,6.169291)"/>
<path style="fill:none;stroke-width:0.566929;stroke-linecap:butt;stroke-linejoin:miter;stroke:rgb(100%,0%,0%);stroke-opacity:0.5;stroke-miterlimit:10;" d="M 86.207216 2.835276 L 80.537294 -2.834646 " transform="matrix(2,0,0,2,5.952756,6.169291)"/>
<path style="fill-rule:nonzero;fill:rgb(50%,50%,0%);fill-opacity:0.1;stroke-width:0.566929;stroke-linecap:butt;stroke-linejoin:miter;stroke:rgb(100%,0%,0%);stroke-opacity:0.5;stroke-miterlimit:10;" d="M 72.049013 13.700511 L 94.695497 13.700511 L 94.695497 -0.000661294 L 72.049013 -0.000661294 Z M 72.049013 13.700511 " transform="matrix(2,0,0,2,5.952756,6.169291)"/>
<path style="fill:none;stroke-width:0.566929;stroke-linecap:butt;stroke-linejoin:miter;stroke:rgb(100%,0%,0%);stroke-opacity:0.5;stroke-miterlimit:10;" d="M 72.049013 13.591136 L 77.718935 7.921214 " transform="matrix(2,0,0,2,5.952756,6.169291)"/>
<path style="fill:none;stroke-width:0.566929;stroke-linecap:butt;stroke-linejoin:miter;stroke:rgb(100%,0%,0%);stroke-opacity:0.5;stroke-miterlimit:10;" d="M 77.718935 13.591136 L 72.049013 7.921214 " transform="matrix(2,0,0,2,5.952756,6.169291)"/>
<path style="fill-rule:nonzero;fill:rgb(50%,50%,0%);fill-opacity:0.1;stroke-width:0.566929;stroke-linecap:butt;stroke-linejoin:miter;stroke:rgb(100%,0%,0%);stroke-opacity:0.5;stroke-miterlimit:10;" d="M 72.049013 13.700511 L 94.695497 13.700511 L 94.695497 -0.000661294 L 72.049013 -0.000661294 Z M 72.049013 13.700511 " transform="matrix(2,0,0,2,5.952756,6.169291)"/>
<path style="fill:none;stroke-width:0.566929;stroke-linecap:butt;stroke-linejoin:miter;stroke:rgb(100%,0%,0%);stroke-opacity:0.5;stroke-miterlimit:10;" d="M 72.049013 13.591136 L 77.718935 7.921214 " transform="matrix(2,0,0,2,5.952756,6.169291)"/>
<path style="fill:none;stroke-width:0.566929;stroke-linecap:butt;stroke-linejoin:miter;stroke:rgb(100%,0%,0%);stroke-opacity:0.5;stroke-miterlimit:10;" d="M 77.718935 13.591136 L 72.049013 7.921214 " transform="matrix(2,0,0,2,5.952756,6.169291)"/>
<path style="fill-rule:nonzero;fill:rgb(50%,50%,0%);fill-opacity:0.1;stroke-width:0.566929;stroke-linecap:butt;stroke-linejoin:miter;stroke:rgb(100%,0%,0%);stroke-opacity:0.5;stroke-miterlimit:10;" d="M 74.882997 10.866526 L 91.861513 10.866526 L 91.861513 2.835276 L 74.882997 2.835276 Z M 74.882997 10.866526 " transform="matrix(2,0,0,2,5.952756,6.169291)"/>
<path style=" stroke:none;fill-rule:nonzero;fill:rgb(0%,0%,0%);fill-opacity:1;" d="M 159.59375 19.152344 L 159.59375 12.839844 L 156.71875 13.058594 L 156.71875 13.683594 C 158.125 13.683594 158.28125 13.808594 158.28125 14.808594 L 158.28125 26.683594 L 158.78125 26.683594 C 158.78125 26.652344 158.9375 26.371094 159.5 25.433594 C 159.78125 25.902344 160.625 26.902344 162.09375 26.902344 C 164.46875 26.902344 166.53125 24.933594 166.53125 22.371094 C 166.53125 19.839844 164.59375 17.871094 162.3125 17.871094 C 160.75 17.871094 159.90625 18.808594 159.59375 19.152344 Z M 159.65625 24.402344 L 159.65625 20.308594 C 159.65625 19.933594 159.65625 19.902344 159.875 19.589844 C 160.65625 18.464844 161.75 18.308594 162.21875 18.308594 C 163.125 18.308594 163.84375 18.839844 164.3125 19.589844 C 164.84375 20.402344 164.875 21.527344 164.875 22.371094 C 164.875 23.089844 164.84375 24.277344 164.28125 25.183594 C 163.84375 25.808594 163.09375 26.464844 162.03125 26.464844 C 161.125 26.464844 160.40625 25.996094 159.9375 25.246094 C 159.65625 24.839844 159.65625 24.777344 159.65625 24.402344 Z M 159.65625 24.402344 "/>
<path style=" stroke:none;fill-rule:nonzero;fill:rgb(0%,0%,0%);fill-opacity:1;" d="M 170.664062 19.152344 L 170.664062 12.839844 L 167.789062 13.058594 L 167.789062 13.683594 C 169.195312 13.683594 169.351562 13.808594 169.351562 14.808594 L 169.351562 26.683594 L 169.851562 26.683594 C 169.851562 26.652344 170.007812 26.371094 170.570312 25.433594 C 170.851562 25.902344 171.695312 26.902344 173.164062 26.902344 C 175.539062 26.902344 177.601562 24.933594 177.601562 22.371094 C 177.601562 19.839844 175.664062 17.871094 173.382812 17.871094 C 171.820312 17.871094 170.976562 18.808594 170.664062 19.152344 Z M 170.726562 24.402344 L 170.726562 20.308594 C 170.726562 19.933594 170.726562 19.902344 170.945312 19.589844 C 171.726562 18.464844 172.820312 18.308594 173.289062 18.308594 C 174.195312 18.308594 174.914062 18.839844 175.382812 19.589844 C 175.914062 20.402344 175.945312 21.527344 175.945312 22.371094 C 175.945312 23.089844 175.914062 24.277344 175.351562 25.183594 C 174.914062 25.808594 174.164062 26.464844 173.101562 26.464844 C 172.195312 26.464844 171.476562 25.996094 171.007812 25.246094 C 170.726562 24.839844 170.726562 24.777344 170.726562 24.402344 Z M 170.726562 24.402344 "/>
<path style=" stroke:none;fill-rule:nonzero;fill:rgb(0%,0%,0%);fill-opacity:1;" d="M 181.738281 19.152344 L 181.738281 12.839844 L 178.863281 13.058594 L 178.863281 13.683594 C 180.269531 13.683594 180.425781 13.808594 180.425781 14.808594 L 180.425781 26.683594 L 180.925781 26.683594 C 180.925781 26.652344 181.082031 26.371094 181.644531 25.433594 C 181.925781 25.902344 182.769531 26.902344 184.238281 26.902344 C 186.613281 26.902344 188.675781 24.933594 188.675781 22.371094 C 188.675781 19.839844 186.738281 17.871094 184.457031 17.871094 C 182.894531 17.871094 182.050781 18.808594 181.738281 19.152344 Z M 181.800781 24.402344 L 181.800781 20.308594 C 181.800781 19.933594 181.800781 19.902344 182.019531 19.589844 C 182.800781 18.464844 183.894531 18.308594 184.363281 18.308594 C 185.269531 18.308594 185.988281 18.839844 186.457031 19.589844 C 186.988281 20.402344 187.019531 21.527344 187.019531 22.371094 C 187.019531 23.089844 186.988281 24.277344 186.425781 25.183594 C 185.988281 25.808594 185.238281 26.464844 184.175781 26.464844 C 183.269531 26.464844 182.550781 25.996094 182.082031 25.246094 C 181.800781 24.839844 181.800781 24.777344 181.800781 24.402344 Z M 181.800781 24.402344 "/>
<path style="fill:none;stroke-width:0.566929;stroke-linecap:butt;stroke-linejoin:miter;stroke:rgb(100%,0%,0%);stroke-opacity:0.5;stroke-miterlimit:10;" d="M 108.466981 2.835276 L 114.13495 -2.834646 " transform="matrix(2,0,0,2,5.952756,6.169291)"/>
<path style="fill:none;stroke-width:0.566929;stroke-linecap:butt;stroke-linejoin:miter;stroke:rgb(100%,0%,0%);stroke-opacity:0.5;stroke-miterlimit:10;" d="M 114.13495 2.835276 L 108.466981 -2.834646 " transform="matrix(2,0,0,2,5.952756,6.169291)"/>
<path style="fill:none;stroke-width:0.566929;stroke-linecap:butt;stroke-linejoin:miter;stroke:rgb(100%,0%,0%);stroke-opacity:0.5;stroke-miterlimit:10;" d="M 111.300966 28.346995 L 111.300966 -0.000661294 Z M 111.300966 28.346995 " transform="matrix(2,0,0,2,5.952756,6.169291)"/>
<path style="fill:none;stroke-width:0.566929;stroke-linecap:butt;stroke-linejoin:miter;stroke:rgb(100%,0%,0%);stroke-opacity:0.5;stroke-miterlimit:10;" d="M 6.826356 31.180979 L 12.494325 25.511057 " transform="matrix(2,0,0,2,5.952756,6.169291)"/>
<path style="fill:none;stroke-width:0.566929;stroke-linecap:butt;stroke-linejoin:miter;stroke:rgb(100%,0%,0%);stroke-opacity:0.5;stroke-miterlimit:10;" d="M 12.494325 31.180979 L 6.826356 25.511057 " transform="matrix(2,0,0,2,5.952756,6.169291)"/>
<path style="fill-rule:nonzero;fill:rgb(50%,50%,0%);fill-opacity:0.1;stroke-width:0.566929;stroke-linecap:butt;stroke-linejoin:miter;stroke:rgb(100%,0%,0%);stroke-opacity:0.5;stroke-miterlimit:10;" d="M 3.326356 42.046214 L 15.994325 42.046214 L 15.994325 28.346995 L 3.326356 28.346995 Z M 3.326356 42.046214 " transform="matrix(2,0,0,2,5.952756,6.169291)"/>
<path style="fill:none;stroke-width:0.566929;stroke-linecap:butt;stroke-linejoin:miter;stroke:rgb(100%,0%,0%);stroke-opacity:0.5;stroke-miterlimit:10;" d="M 3.326356 42.046214 L 8.994325 36.378245 " transform="matrix(2,0,0,2,5.952756,6.169291)"/>
<path style="fill:none;stroke-width:0.566929;stroke-linecap:butt;stroke-linejoin:miter;stroke:rgb(100%,0%,0%);stroke-opacity:0.5;stroke-miterlimit:10;" d="M 8.994325 42.046214 L 3.326356 36.378245 " transform="matrix(2,0,0,2,5.952756,6.169291)"/>
<path style="fill-rule:nonzero;fill:rgb(50%,50%,0%);fill-opacity:0.1;stroke-width:0.566929;stroke-linecap:butt;stroke-linejoin:miter;stroke:rgb(100%,0%,0%);stroke-opacity:0.5;stroke-miterlimit:10;" d="M 3.326356 42.046214 L 15.994325 42.046214 L 15.994325 28.346995 L 3.326356 28.346995 Z M 3.326356 42.046214 " transform="matrix(2,0,0,2,5.952756,6.169291)"/>
<path style="fill:none;stroke-width:0.566929;stroke-linecap:butt;stroke-linejoin:miter;stroke:rgb(100%,0%,0%);stroke-opacity:0.5;stroke-miterlimit:10;" d="M 3.326356 42.046214 L 8.994325 36.378245 " transform="matrix(2,0,0,2,5.952756,6.169291)"/>
<path style="fill:none;stroke-width:0.566929;stroke-linecap:butt;stroke-linejoin:miter;stroke:rgb(100%,0%,0%);stroke-opacity:0.5;stroke-miterlimit:10;" d="M 8.994325 42.046214 L 3.326356 36.378245 " transform="matrix(2,0,0,2,5.952756,6.169291)"/>
<path style="fill-rule:nonzero;fill:rgb(50%,50%,0%);fill-opacity:0.1;stroke-width:0.566929;stroke-linecap:butt;stroke-linejoin:miter;stroke:rgb(100%,0%,0%);stroke-opacity:0.5;stroke-miterlimit:10;" d="M 6.160341 39.212229 L 13.160341 39.212229 L 13.160341 31.180979 L 6.160341 31.180979 Z M 6.160341 39.212229 " transform="matrix(2,0,0,2,5.952756,6.169291)"/>
<path style=" stroke:none;fill-rule:nonzero;fill:rgb(0%,0%,0%);fill-opacity:1;" d="M 27.679688 75.625 L 29.960938 75.625 L 29.960938 75 L 27.617188 75 L 27.617188 72.6875 C 27.617188 70.90625 28.585938 69.96875 29.460938 69.96875 C 29.523438 69.96875 29.835938 69.96875 30.117188 70.125 C 29.898438 70.1875 29.523438 70.46875 29.523438 70.96875 C 29.523438 71.40625 29.835938 71.8125 30.398438 71.8125 C 30.960938 71.8125 31.273438 71.40625 31.273438 70.9375 C 31.273438 70.21875 30.554688 69.53125 29.460938 69.53125 C 28.273438 69.53125 27.398438 70.28125 27.304688 70.375 C 26.710938 69.625 25.585938 69.53125 25.054688 69.53125 C 23.179688 69.53125 20.867188 70.5625 20.867188 72.71875 L 20.867188 75 L 19.273438 75 L 19.273438 75.625 L 20.867188 75.625 L 20.867188 82.09375 C 20.867188 82.96875 20.648438 82.96875 19.304688 82.96875 L 19.304688 83.59375 C 19.960938 83.5625 21.023438 83.53125 21.523438 83.53125 C 22.023438 83.53125 22.992188 83.5625 23.742188 83.59375 L 23.742188 82.96875 C 22.398438 82.96875 22.179688 82.96875 22.179688 82.09375 L 22.179688 75.625 L 26.367188 75.625 L 26.367188 82.09375 C 26.367188 82.96875 26.148438 82.96875 24.804688 82.96875 L 24.804688 83.59375 C 25.585938 83.5625 26.523438 83.53125 27.085938 83.53125 C 27.867188 83.53125 28.804688 83.53125 29.617188 83.59375 L 29.617188 82.96875 L 29.179688 82.96875 C 27.710938 82.96875 27.679688 82.75 27.679688 82.03125 Z M 22.117188 75 L 22.117188 72.75 C 22.117188 70.8125 23.742188 69.96875 25.054688 69.96875 C 26.023438 69.96875 26.585938 70.34375 26.585938 70.34375 L 26.585938 70.375 C 26.273438 70.40625 25.867188 70.6875 25.867188 71.21875 C 25.867188 71.34375 25.867188 71.84375 26.429688 72.03125 C 26.367188 72.28125 26.367188 72.46875 26.367188 72.71875 L 26.367188 75 Z M 22.117188 75 "/>
<path style="fill:none;stroke-width:0.566929;stroke-linecap:butt;stroke-linejoin:miter;stroke:rgb(100%,0%,0%);stroke-opacity:0.5;stroke-miterlimit:10;" d="M 34.54706 31.180979 L 40.216981 25.511057 " transform="matrix(2,0,0,2,5.952756,6.169291)"/>
<path style="fill:none;stroke-width:0.566929;stroke-linecap:butt;stroke-linejoin:miter;stroke:rgb(100%,0%,0%);stroke-opacity:0.5;stroke-miterlimit:10;" d="M 40.216981 31.180979 L 34.54706 25.511057 " transform="matrix(2,0,0,2,5.952756,6.169291)"/>
<path style="fill-rule:nonzero;fill:rgb(50%,50%,0%);fill-opacity:0.1;stroke-width:0.566929;stroke-linecap:butt;stroke-linejoin:miter;stroke:rgb(100%,0%,0%);stroke-opacity:0.5;stroke-miterlimit:10;" d="M 25.476747 39.593089 L 49.287294 39.593089 L 49.287294 28.346995 L 25.476747 28.346995 Z M 25.476747 39.593089 " transform="matrix(2,0,0,2,5.952756,6.169291)"/>
<path style="fill:none;stroke-width:0.566929;stroke-linecap:butt;stroke-linejoin:miter;stroke:rgb(100%,0%,0%);stroke-opacity:0.5;stroke-miterlimit:10;" d="M 25.476747 39.483714 L 31.146669 33.815745 " transform="matrix(2,0,0,2,5.952756,6.169291)"/>
<path style="fill:none;stroke-width:0.566929;stroke-linecap:butt;stroke-linejoin:miter;stroke:rgb(100%,0%,0%);stroke-opacity:0.5;stroke-miterlimit:10;" d="M 31.146669 39.483714 L 25.476747 33.815745 " transform="matrix(2,0,0,2,5.952756,6.169291)"/>
<path style="fill-rule:nonzero;fill:rgb(50%,50%,0%);fill-opacity:0.1;stroke-width:0.566929;stroke-linecap:butt;stroke-linejoin:miter;stroke:rgb(100%,0%,0%);stroke-opacity:0.5;stroke-miterlimit:10;" d="M 25.476747 39.593089 L 49.287294 39.593089 L 49.287294 28.346995 L 25.476747 28.346995 Z M 25.476747 39.593089 " transform="matrix(2,0,0,2,5.952756,6.169291)"/>
<path style="fill:none;stroke-width:0.566929;stroke-linecap:butt;stroke-linejoin:miter;stroke:rgb(100%,0%,0%);stroke-opacity:0.5;stroke-miterlimit:10;" d="M 25.476747 39.483714 L 31.146669 33.815745 " transform="matrix(2,0,0,2,5.952756,6.169291)"/>
<path style="fill:none;stroke-width:0.566929;stroke-linecap:butt;stroke-linejoin:miter;stroke:rgb(100%,0%,0%);stroke-opacity:0.5;stroke-miterlimit:10;" d="M 31.146669 39.483714 L 25.476747 33.815745 " transform="matrix(2,0,0,2,5.952756,6.169291)"/>
<path style="fill-rule:nonzero;fill:rgb(50%,50%,0%);fill-opacity:0.1;stroke-width:0.566929;stroke-linecap:butt;stroke-linejoin:miter;stroke:rgb(100%,0%,0%);stroke-opacity:0.5;stroke-miterlimit:10;" d="M 28.310731 36.759104 L 46.45331 36.759104 L 46.45331 31.180979 L 28.310731 31.180979 Z M 28.310731 36.759104 " transform="matrix(2,0,0,2,5.952756,6.169291)"/>
<path style=" stroke:none;fill-rule:nonzero;fill:rgb(0%,0%,0%);fill-opacity:1;" d="M 65.230469 73.4375 C 65.355469 70.46875 67.042969 69.96875 67.730469 69.96875 C 69.761719 69.96875 69.980469 72.65625 69.980469 73.4375 Z M 65.230469 73.875 L 70.792969 73.875 C 71.230469 73.875 71.292969 73.875 71.292969 73.4375 C 71.292969 71.46875 70.199219 69.53125 67.730469 69.53125 C 65.417969 69.53125 63.574219 71.59375 63.574219 74.09375 C 63.574219 76.75 65.667969 78.6875 67.949219 78.6875 C 70.386719 78.6875 71.292969 76.46875 71.292969 76.09375 C 71.292969 75.90625 71.136719 75.84375 71.011719 75.84375 C 70.855469 75.84375 70.792969 75.96875 70.761719 76.125 C 70.074219 78.1875 68.261719 78.1875 68.074219 78.1875 C 67.074219 78.1875 66.292969 77.59375 65.824219 76.84375 C 65.230469 75.90625 65.230469 74.59375 65.230469 73.875 Z M 65.230469 73.875 "/>
<path style=" stroke:none;fill-rule:nonzero;fill:rgb(0%,0%,0%);fill-opacity:1;" d="M 74.085938 73.4375 C 74.210938 70.46875 75.898438 69.96875 76.585938 69.96875 C 78.617188 69.96875 78.835938 72.65625 78.835938 73.4375 Z M 74.085938 73.875 L 79.648438 73.875 C 80.085938 73.875 80.148438 73.875 80.148438 73.4375 C 80.148438 71.46875 79.054688 69.53125 76.585938 69.53125 C 74.273438 69.53125 72.429688 71.59375 72.429688 74.09375 C 72.429688 76.75 74.523438 78.6875 76.804688 78.6875 C 79.242188 78.6875 80.148438 76.46875 80.148438 76.09375 C 80.148438 75.90625 79.992188 75.84375 79.867188 75.84375 C 79.710938 75.84375 79.648438 75.96875 79.617188 76.125 C 78.929688 78.1875 77.117188 78.1875 76.929688 78.1875 C 75.929688 78.1875 75.148438 77.59375 74.679688 76.84375 C 74.085938 75.90625 74.085938 74.59375 74.085938 73.875 Z M 74.085938 73.875 "/>
<path style=" stroke:none;fill-rule:nonzero;fill:rgb(0%,0%,0%);fill-opacity:1;" d="M 82.941406 73.4375 C 83.066406 70.46875 84.753906 69.96875 85.441406 69.96875 C 87.472656 69.96875 87.691406 72.65625 87.691406 73.4375 Z M 82.941406 73.875 L 88.503906 73.875 C 88.941406 73.875 89.003906 73.875 89.003906 73.4375 C 89.003906 71.46875 87.910156 69.53125 85.441406 69.53125 C 83.128906 69.53125 81.285156 71.59375 81.285156 74.09375 C 81.285156 76.75 83.378906 78.6875 85.660156 78.6875 C 88.097656 78.6875 89.003906 76.46875 89.003906 76.09375 C 89.003906 75.90625 88.847656 75.84375 88.722656 75.84375 C 88.566406 75.84375 88.503906 75.96875 88.472656 76.125 C 87.785156 78.1875 85.972656 78.1875 85.785156 78.1875 C 84.785156 78.1875 84.003906 77.59375 83.535156 76.84375 C 82.941406 75.90625 82.941406 74.59375 82.941406 73.875 Z M 82.941406 73.875 "/>
<path style=" stroke:none;fill-rule:nonzero;fill:rgb(0%,0%,0%);fill-opacity:1;" d="M 91.796875 73.4375 C 91.921875 70.46875 93.609375 69.96875 94.296875 69.96875 C 96.328125 69.96875 96.546875 72.65625 96.546875 73.4375 Z M 91.796875 73.875 L 97.359375 73.875 C 97.796875 73.875 97.859375 73.875 97.859375 73.4375 C 97.859375 71.46875 96.765625 69.53125 94.296875 69.53125 C 91.984375 69.53125 90.140625 71.59375 90.140625 74.09375 C 90.140625 76.75 92.234375 78.6875 94.515625 78.6875 C 96.953125 78.6875 97.859375 76.46875 97.859375 76.09375 C 97.859375 75.90625 97.703125 75.84375 97.578125 75.84375 C 97.421875 75.84375 97.359375 75.96875 97.328125 76.125 C 96.640625 78.1875 94.828125 78.1875 94.640625 78.1875 C 93.640625 78.1875 92.859375 77.59375 92.390625 76.84375 C 91.796875 75.90625 91.796875 74.59375 91.796875 73.875 Z M 91.796875 73.875 "/>
<path style="fill:none;stroke-width:0.566929;stroke-linecap:butt;stroke-linejoin:miter;stroke:rgb(100%,0%,0%);stroke-opacity:0.5;stroke-miterlimit:10;" d="M 80.537294 31.180979 L 86.207216 25.511057 " transform="matrix(2,0,0,2,5.952756,6.169291)"/>
<path style="fill:none;stroke-width:0.566929;stroke-linecap:butt;stroke-linejoin:miter;stroke:rgb(100%,0%,0%);stroke-opacity:0.5;stroke-miterlimit:10;" d="M 86.207216 31.180979 L 80.537294 25.511057 " transform="matrix(2,0,0,2,5.952756,6.169291)"/>
<path style="fill-rule:nonzero;fill:rgb(50%,50%,0%);fill-opacity:0.1;stroke-width:0.566929;stroke-linecap:butt;stroke-linejoin:miter;stroke:rgb(100%,0%,0%);stroke-opacity:0.5;stroke-miterlimit:10;" d="M 64.38495 39.311839 L 102.35956 39.311839 L 102.35956 28.346995 L 64.38495 28.346995 Z M 64.38495 39.311839 " transform="matrix(2,0,0,2,5.952756,6.169291)"/>
<path style="fill:none;stroke-width:0.566929;stroke-linecap:butt;stroke-linejoin:miter;stroke:rgb(100%,0%,0%);stroke-opacity:0.5;stroke-miterlimit:10;" d="M 64.38495 39.311839 L 70.052919 33.64387 " transform="matrix(2,0,0,2,5.952756,6.169291)"/>
<path style="fill:none;stroke-width:0.566929;stroke-linecap:butt;stroke-linejoin:miter;stroke:rgb(100%,0%,0%);stroke-opacity:0.5;stroke-miterlimit:10;" d="M 70.052919 39.311839 L 64.38495 33.64387 " transform="matrix(2,0,0,2,5.952756,6.169291)"/>
<path style="fill-rule:nonzero;fill:rgb(50%,50%,0%);fill-opacity:0.1;stroke-width:0.566929;stroke-linecap:butt;stroke-linejoin:miter;stroke:rgb(100%,0%,0%);stroke-opacity:0.5;stroke-miterlimit:10;" d="M 64.38495 39.311839 L 102.35956 39.311839 L 102.35956 28.346995 L 64.38495 28.346995 Z M 64.38495 39.311839 " transform="matrix(2,0,0,2,5.952756,6.169291)"/>
<path style="fill:none;stroke-width:0.566929;stroke-linecap:butt;stroke-linejoin:miter;stroke:rgb(100%,0%,0%);stroke-opacity:0.5;stroke-miterlimit:10;" d="M 64.38495 39.311839 L 70.052919 33.64387 " transform="matrix(2,0,0,2,5.952756,6.169291)"/>
<path style="fill:none;stroke-width:0.566929;stroke-linecap:butt;stroke-linejoin:miter;stroke:rgb(100%,0%,0%);stroke-opacity:0.5;stroke-miterlimit:10;" d="M 70.052919 39.311839 L 64.38495 33.64387 " transform="matrix(2,0,0,2,5.952756,6.169291)"/>
<path style="fill-rule:nonzero;fill:rgb(50%,50%,0%);fill-opacity:0.1;stroke-width:0.566929;stroke-linecap:butt;stroke-linejoin:miter;stroke:rgb(100%,0%,0%);stroke-opacity:0.5;stroke-miterlimit:10;" d="M 67.218935 36.477854 L 99.525575 36.477854 L 99.525575 31.180979 L 67.218935 31.180979 Z M 67.218935 36.477854 " transform="matrix(2,0,0,2,5.952756,6.169291)"/>
<path style=" stroke:none;fill-rule:nonzero;fill:rgb(0%,0%,0%);fill-opacity:1;" d="M 146.859375 73.4375 C 147.453125 72.6875 148.203125 71.71875 148.703125 71.1875 C 149.328125 70.46875 150.140625 70.15625 151.078125 70.15625 L 151.078125 69.53125 C 150.546875 69.5625 149.953125 69.59375 149.421875 69.59375 C 148.828125 69.59375 147.765625 69.5625 147.515625 69.53125 L 147.515625 70.15625 C 147.953125 70.1875 148.109375 70.4375 148.109375 70.78125 C 148.109375 71.09375 147.890625 71.34375 147.796875 71.46875 L 146.578125 73.03125 L 145.015625 71 C 144.828125 70.8125 144.828125 70.78125 144.828125 70.65625 C 144.828125 70.34375 145.140625 70.15625 145.515625 70.15625 L 145.515625 69.53125 C 145.015625 69.5625 143.703125 69.59375 143.359375 69.59375 C 142.953125 69.59375 142.015625 69.5625 141.484375 69.53125 L 141.484375 70.15625 C 142.890625 70.15625 142.890625 70.15625 143.828125 71.375 L 145.796875 73.9375 L 143.921875 76.3125 C 142.984375 77.46875 141.796875 77.5 141.390625 77.5 L 141.390625 78.125 C 141.890625 78.09375 142.515625 78.0625 143.046875 78.0625 C 143.609375 78.0625 144.453125 78.09375 144.921875 78.125 L 144.921875 77.5 C 144.484375 77.4375 144.359375 77.1875 144.359375 76.875 C 144.359375 76.4375 144.921875 75.78125 146.140625 74.34375 L 147.671875 76.34375 C 147.828125 76.5625 148.078125 76.875 148.078125 77 C 148.078125 77.1875 147.890625 77.5 147.359375 77.5 L 147.359375 78.125 C 147.953125 78.09375 149.078125 78.0625 149.515625 78.0625 C 150.046875 78.0625 150.828125 78.09375 151.421875 78.125 L 151.421875 77.5 C 150.359375 77.5 149.984375 77.46875 149.546875 76.875 Z M 146.859375 73.4375 "/>
<path style=" stroke:none;fill-rule:nonzero;fill:rgb(0%,0%,0%);fill-opacity:1;" d="M 157.375 73.4375 C 157.96875 72.6875 158.71875 71.71875 159.21875 71.1875 C 159.84375 70.46875 160.65625 70.15625 161.59375 70.15625 L 161.59375 69.53125 C 161.0625 69.5625 160.46875 69.59375 159.9375 69.59375 C 159.34375 69.59375 158.28125 69.5625 158.03125 69.53125 L 158.03125 70.15625 C 158.46875 70.1875 158.625 70.4375 158.625 70.78125 C 158.625 71.09375 158.40625 71.34375 158.3125 71.46875 L 157.09375 73.03125 L 155.53125 71 C 155.34375 70.8125 155.34375 70.78125 155.34375 70.65625 C 155.34375 70.34375 155.65625 70.15625 156.03125 70.15625 L 156.03125 69.53125 C 155.53125 69.5625 154.21875 69.59375 153.875 69.59375 C 153.46875 69.59375 152.53125 69.5625 152 69.53125 L 152 70.15625 C 153.40625 70.15625 153.40625 70.15625 154.34375 71.375 L 156.3125 73.9375 L 154.4375 76.3125 C 153.5 77.46875 152.3125 77.5 151.90625 77.5 L 151.90625 78.125 C 152.40625 78.09375 153.03125 78.0625 153.5625 78.0625 C 154.125 78.0625 154.96875 78.09375 155.4375 78.125 L 155.4375 77.5 C 155 77.4375 154.875 77.1875 154.875 76.875 C 154.875 76.4375 155.4375 75.78125 156.65625 74.34375 L 158.1875 76.34375 C 158.34375 76.5625 158.59375 76.875 158.59375 77 C 158.59375 77.1875 158.40625 77.5 157.875 77.5 L 157.875 78.125 C 158.46875 78.09375 159.59375 78.0625 160.03125 78.0625 C 160.5625 78.0625 161.34375 78.09375 161.9375 78.125 L 161.9375 77.5 C 160.875 77.5 160.5 77.46875 160.0625 76.875 Z M 157.375 73.4375 "/>
<path style=" stroke:none;fill-rule:nonzero;fill:rgb(0%,0%,0%);fill-opacity:1;" d="M 167.890625 73.4375 C 168.484375 72.6875 169.234375 71.71875 169.734375 71.1875 C 170.359375 70.46875 171.171875 70.15625 172.109375 70.15625 L 172.109375 69.53125 C 171.578125 69.5625 170.984375 69.59375 170.453125 69.59375 C 169.859375 69.59375 168.796875 69.5625 168.546875 69.53125 L 168.546875 70.15625 C 168.984375 70.1875 169.140625 70.4375 169.140625 70.78125 C 169.140625 71.09375 168.921875 71.34375 168.828125 71.46875 L 167.609375 73.03125 L 166.046875 71 C 165.859375 70.8125 165.859375 70.78125 165.859375 70.65625 C 165.859375 70.34375 166.171875 70.15625 166.546875 70.15625 L 166.546875 69.53125 C 166.046875 69.5625 164.734375 69.59375 164.390625 69.59375 C 163.984375 69.59375 163.046875 69.5625 162.515625 69.53125 L 162.515625 70.15625 C 163.921875 70.15625 163.921875 70.15625 164.859375 71.375 L 166.828125 73.9375 L 164.953125 76.3125 C 164.015625 77.46875 162.828125 77.5 162.421875 77.5 L 162.421875 78.125 C 162.921875 78.09375 163.546875 78.0625 164.078125 78.0625 C 164.640625 78.0625 165.484375 78.09375 165.953125 78.125 L 165.953125 77.5 C 165.515625 77.4375 165.390625 77.1875 165.390625 76.875 C 165.390625 76.4375 165.953125 75.78125 167.171875 74.34375 L 168.703125 76.34375 C 168.859375 76.5625 169.109375 76.875 169.109375 77 C 169.109375 77.1875 168.921875 77.5 168.390625 77.5 L 168.390625 78.125 C 168.984375 78.09375 170.109375 78.0625 170.546875 78.0625 C 171.078125 78.0625 171.859375 78.09375 172.453125 78.125 L 172.453125 77.5 C 171.390625 77.5 171.015625 77.46875 170.578125 76.875 Z M 167.890625 73.4375 "/>
<path style=" stroke:none;fill-rule:nonzero;fill:rgb(0%,0%,0%);fill-opacity:1;" d="M 178.410156 73.4375 C 179.003906 72.6875 179.753906 71.71875 180.253906 71.1875 C 180.878906 70.46875 181.691406 70.15625 182.628906 70.15625 L 182.628906 69.53125 C 182.097656 69.5625 181.503906 69.59375 180.972656 69.59375 C 180.378906 69.59375 179.316406 69.5625 179.066406 69.53125 L 179.066406 70.15625 C 179.503906 70.1875 179.660156 70.4375 179.660156 70.78125 C 179.660156 71.09375 179.441406 71.34375 179.347656 71.46875 L 178.128906 73.03125 L 176.566406 71 C 176.378906 70.8125 176.378906 70.78125 176.378906 70.65625 C 176.378906 70.34375 176.691406 70.15625 177.066406 70.15625 L 177.066406 69.53125 C 176.566406 69.5625 175.253906 69.59375 174.910156 69.59375 C 174.503906 69.59375 173.566406 69.5625 173.035156 69.53125 L 173.035156 70.15625 C 174.441406 70.15625 174.441406 70.15625 175.378906 71.375 L 177.347656 73.9375 L 175.472656 76.3125 C 174.535156 77.46875 173.347656 77.5 172.941406 77.5 L 172.941406 78.125 C 173.441406 78.09375 174.066406 78.0625 174.597656 78.0625 C 175.160156 78.0625 176.003906 78.09375 176.472656 78.125 L 176.472656 77.5 C 176.035156 77.4375 175.910156 77.1875 175.910156 76.875 C 175.910156 76.4375 176.472656 75.78125 177.691406 74.34375 L 179.222656 76.34375 C 179.378906 76.5625 179.628906 76.875 179.628906 77 C 179.628906 77.1875 179.441406 77.5 178.910156 77.5 L 178.910156 78.125 C 179.503906 78.09375 180.628906 78.0625 181.066406 78.0625 C 181.597656 78.0625 182.378906 78.09375 182.972656 78.125 L 182.972656 77.5 C 181.910156 77.5 181.535156 77.46875 181.097656 76.875 Z M 178.410156 73.4375 "/>
<path style=" stroke:none;fill-rule:nonzero;fill:rgb(0%,0%,0%);fill-opacity:1;" d="M 188.925781 73.4375 C 189.519531 72.6875 190.269531 71.71875 190.769531 71.1875 C 191.394531 70.46875 192.207031 70.15625 193.144531 70.15625 L 193.144531 69.53125 C 192.613281 69.5625 192.019531 69.59375 191.488281 69.59375 C 190.894531 69.59375 189.832031 69.5625 189.582031 69.53125 L 189.582031 70.15625 C 190.019531 70.1875 190.175781 70.4375 190.175781 70.78125 C 190.175781 71.09375 189.957031 71.34375 189.863281 71.46875 L 188.644531 73.03125 L 187.082031 71 C 186.894531 70.8125 186.894531 70.78125 186.894531 70.65625 C 186.894531 70.34375 187.207031 70.15625 187.582031 70.15625 L 187.582031 69.53125 C 187.082031 69.5625 185.769531 69.59375 185.425781 69.59375 C 185.019531 69.59375 184.082031 69.5625 183.550781 69.53125 L 183.550781 70.15625 C 184.957031 70.15625 184.957031 70.15625 185.894531 71.375 L 187.863281 73.9375 L 185.988281 76.3125 C 185.050781 77.46875 183.863281 77.5 183.457031 77.5 L 183.457031 78.125 C 183.957031 78.09375 184.582031 78.0625 185.113281 78.0625 C 185.675781 78.0625 186.519531 78.09375 186.988281 78.125 L 186.988281 77.5 C 186.550781 77.4375 186.425781 77.1875 186.425781 76.875 C 186.425781 76.4375 186.988281 75.78125 188.207031 74.34375 L 189.738281 76.34375 C 189.894531 76.5625 190.144531 76.875 190.144531 77 C 190.144531 77.1875 189.957031 77.5 189.425781 77.5 L 189.425781 78.125 C 190.019531 78.09375 191.144531 78.0625 191.582031 78.0625 C 192.113281 78.0625 192.894531 78.09375 193.488281 78.125 L 193.488281 77.5 C 192.425781 77.5 192.050781 77.46875 191.613281 76.875 Z M 188.925781 73.4375 "/>
<path style=" stroke:none;fill-rule:nonzero;fill:rgb(0%,0%,0%);fill-opacity:1;" d="M 199.441406 73.4375 C 200.035156 72.6875 200.785156 71.71875 201.285156 71.1875 C 201.910156 70.46875 202.722656 70.15625 203.660156 70.15625 L 203.660156 69.53125 C 203.128906 69.5625 202.535156 69.59375 202.003906 69.59375 C 201.410156 69.59375 200.347656 69.5625 200.097656 69.53125 L 200.097656 70.15625 C 200.535156 70.1875 200.691406 70.4375 200.691406 70.78125 C 200.691406 71.09375 200.472656 71.34375 200.378906 71.46875 L 199.160156 73.03125 L 197.597656 71 C 197.410156 70.8125 197.410156 70.78125 197.410156 70.65625 C 197.410156 70.34375 197.722656 70.15625 198.097656 70.15625 L 198.097656 69.53125 C 197.597656 69.5625 196.285156 69.59375 195.941406 69.59375 C 195.535156 69.59375 194.597656 69.5625 194.066406 69.53125 L 194.066406 70.15625 C 195.472656 70.15625 195.472656 70.15625 196.410156 71.375 L 198.378906 73.9375 L 196.503906 76.3125 C 195.566406 77.46875 194.378906 77.5 193.972656 77.5 L 193.972656 78.125 C 194.472656 78.09375 195.097656 78.0625 195.628906 78.0625 C 196.191406 78.0625 197.035156 78.09375 197.503906 78.125 L 197.503906 77.5 C 197.066406 77.4375 196.941406 77.1875 196.941406 76.875 C 196.941406 76.4375 197.503906 75.78125 198.722656 74.34375 L 200.253906 76.34375 C 200.410156 76.5625 200.660156 76.875 200.660156 77 C 200.660156 77.1875 200.472656 77.5 199.941406 77.5 L 199.941406 78.125 C 200.535156 78.09375 201.660156 78.0625 202.097656 78.0625 C 202.628906 78.0625 203.410156 78.09375 204.003906 78.125 L 204.003906 77.5 C 202.941406 77.5 202.566406 77.46875 202.128906 76.875 Z M 199.441406 73.4375 "/>
<path style="fill:none;stroke-width:0.566929;stroke-linecap:butt;stroke-linejoin:miter;stroke:rgb(100%,0%,0%);stroke-opacity:0.5;stroke-miterlimit:10;" d="M 108.466981 31.180979 L 114.13495 25.511057 " transform="matrix(2,0,0,2,5.952756,6.169291)"/>
<path style="fill:none;stroke-width:0.566929;stroke-linecap:butt;stroke-linejoin:miter;stroke:rgb(100%,0%,0%);stroke-opacity:0.5;stroke-miterlimit:10;" d="M 114.13495 31.180979 L 108.466981 25.511057 " transform="matrix(2,0,0,2,5.952756,6.169291)"/>
<path style="fill:none;stroke-width:0.566929;stroke-linecap:butt;stroke-linejoin:miter;stroke:rgb(100%,0%,0%);stroke-opacity:0.5;stroke-miterlimit:10;" d="M 111.300966 56.692698 L 111.300966 28.346995 Z M 111.300966 56.692698 " transform="matrix(2,0,0,2,5.952756,6.169291)"/>
<path style="fill:none;stroke-width:0.566929;stroke-linecap:butt;stroke-linejoin:miter;stroke:rgb(100%,0%,0%);stroke-opacity:0.5;stroke-miterlimit:10;" d="M 6.826356 59.526682 L 12.494325 53.858714 " transform="matrix(2,0,0,2,5.952756,6.169291)"/>
<path style="fill:none;stroke-width:0.566929;stroke-linecap:butt;stroke-linejoin:miter;stroke:rgb(100%,0%,0%);stroke-opacity:0.5;stroke-miterlimit:10;" d="M 12.494325 59.526682 L 6.826356 53.858714 " transform="matrix(2,0,0,2,5.952756,6.169291)"/>
<path style="fill-rule:nonzero;fill:rgb(50%,50%,0%);fill-opacity:0.1;stroke-width:0.566929;stroke-linecap:butt;stroke-linejoin:miter;stroke:rgb(100%,0%,0%);stroke-opacity:0.5;stroke-miterlimit:10;" d="M 0.000184547 67.940745 L 19.320497 67.940745 L 19.320497 56.692698 L 0.000184547 56.692698 Z M 0.000184547 67.940745 " transform="matrix(2,0,0,2,5.952756,6.169291)"/>
<path style="fill:none;stroke-width:0.566929;stroke-linecap:butt;stroke-linejoin:miter;stroke:rgb(100%,0%,0%);stroke-opacity:0.5;stroke-miterlimit:10;" d="M 0.000184547 67.83137 L 5.670106 62.161448 " transform="matrix(2,0,0,2,5.952756,6.169291)"/>
<path style="fill:none;stroke-width:0.566929;stroke-linecap:butt;stroke-linejoin:miter;stroke:rgb(100%,0%,0%);stroke-opacity:0.5;stroke-miterlimit:10;" d="M 5.670106 67.83137 L 0.000184547 62.161448 " transform="matrix(2,0,0,2,5.952756,6.169291)"/>
<path style="fill-rule:nonzero;fill:rgb(50%,50%,0%);fill-opacity:0.1;stroke-width:0.566929;stroke-linecap:butt;stroke-linejoin:miter;stroke:rgb(100%,0%,0%);stroke-opacity:0.5;stroke-miterlimit:10;" d="M 0.000184547 67.940745 L 19.320497 67.940745 L 19.320497 56.692698 L 0.000184547 56.692698 Z M 0.000184547 67.940745 " transform="matrix(2,0,0,2,5.952756,6.169291)"/>
<path style="fill:none;stroke-width:0.566929;stroke-linecap:butt;stroke-linejoin:miter;stroke:rgb(100%,0%,0%);stroke-opacity:0.5;stroke-miterlimit:10;" d="M 0.000184547 67.83137 L 5.670106 62.161448 " transform="matrix(2,0,0,2,5.952756,6.169291)"/>
<path style="fill:none;stroke-width:0.566929;stroke-linecap:butt;stroke-linejoin:miter;stroke:rgb(100%,0%,0%);stroke-opacity:0.5;stroke-miterlimit:10;" d="M 5.670106 67.83137 L 0.000184547 62.161448 " transform="matrix(2,0,0,2,5.952756,6.169291)"/>
<path style="fill-rule:nonzero;fill:rgb(50%,50%,0%);fill-opacity:0.1;stroke-width:0.566929;stroke-linecap:butt;stroke-linejoin:miter;stroke:rgb(100%,0%,0%);stroke-opacity:0.5;stroke-miterlimit:10;" d="M 2.834169 65.104807 L 16.486513 65.104807 L 16.486513 59.526682 L 2.834169 59.526682 Z M 2.834169 65.104807 " transform="matrix(2,0,0,2,5.952756,6.169291)"/>
<path style=" stroke:none;fill-rule:nonzero;fill:rgb(0%,0%,0%);fill-opacity:1;" d="M 14.277344 130.816406 C 14.277344 127.566406 15.902344 126.722656 16.964844 126.722656 C 17.152344 126.722656 18.402344 126.753906 19.089844 127.472656 C 18.277344 127.535156 18.152344 128.128906 18.152344 128.378906 C 18.152344 128.910156 18.527344 129.285156 19.058594 129.285156 C 19.589844 129.285156 19.996094 128.972656 19.996094 128.347656 C 19.996094 127.003906 18.464844 126.222656 16.933594 126.222656 C 14.433594 126.222656 12.621094 128.378906 12.621094 130.847656 C 12.621094 133.410156 14.589844 135.378906 16.902344 135.378906 C 19.558594 135.378906 20.214844 132.972656 20.214844 132.785156 C 20.214844 132.597656 19.996094 132.597656 19.933594 132.597656 C 19.777344 132.597656 19.714844 132.660156 19.683594 132.785156 C 19.121094 134.628906 17.808594 134.878906 17.089844 134.878906 C 16.027344 134.878906 14.277344 134.035156 14.277344 130.816406 Z M 14.277344 130.816406 "/>
<path style=" stroke:none;fill-rule:nonzero;fill:rgb(0%,0%,0%);fill-opacity:1;" d="M 23.132812 130.816406 C 23.132812 127.566406 24.757812 126.722656 25.820312 126.722656 C 26.007812 126.722656 27.257812 126.753906 27.945312 127.472656 C 27.132812 127.535156 27.007812 128.128906 27.007812 128.378906 C 27.007812 128.910156 27.382812 129.285156 27.914062 129.285156 C 28.445312 129.285156 28.851562 128.972656 28.851562 128.347656 C 28.851562 127.003906 27.320312 126.222656 25.789062 126.222656 C 23.289062 126.222656 21.476562 128.378906 21.476562 130.847656 C 21.476562 133.410156 23.445312 135.378906 25.757812 135.378906 C 28.414062 135.378906 29.070312 132.972656 29.070312 132.785156 C 29.070312 132.597656 28.851562 132.597656 28.789062 132.597656 C 28.632812 132.597656 28.570312 132.660156 28.539062 132.785156 C 27.976562 134.628906 26.664062 134.878906 25.945312 134.878906 C 24.882812 134.878906 23.132812 134.035156 23.132812 130.816406 Z M 23.132812 130.816406 "/>
<path style=" stroke:none;fill-rule:nonzero;fill:rgb(0%,0%,0%);fill-opacity:1;" d="M 31.988281 130.816406 C 31.988281 127.566406 33.613281 126.722656 34.675781 126.722656 C 34.863281 126.722656 36.113281 126.753906 36.800781 127.472656 C 35.988281 127.535156 35.863281 128.128906 35.863281 128.378906 C 35.863281 128.910156 36.238281 129.285156 36.769531 129.285156 C 37.300781 129.285156 37.707031 128.972656 37.707031 128.347656 C 37.707031 127.003906 36.175781 126.222656 34.644531 126.222656 C 32.144531 126.222656 30.332031 128.378906 30.332031 130.847656 C 30.332031 133.410156 32.300781 135.378906 34.613281 135.378906 C 37.269531 135.378906 37.925781 132.972656 37.925781 132.785156 C 37.925781 132.597656 37.707031 132.597656 37.644531 132.597656 C 37.488281 132.597656 37.425781 132.660156 37.394531 132.785156 C 36.832031 134.628906 35.519531 134.878906 34.800781 134.878906 C 33.738281 134.878906 31.988281 134.035156 31.988281 130.816406 Z M 31.988281 130.816406 "/>
<path style="fill:none;stroke-width:0.566929;stroke-linecap:butt;stroke-linejoin:miter;stroke:rgb(100%,0%,0%);stroke-opacity:0.5;stroke-miterlimit:10;" d="M 34.54706 59.526682 L 40.216981 53.858714 " transform="matrix(2,0,0,2,5.952756,6.169291)"/>
<path style="fill:none;stroke-width:0.566929;stroke-linecap:butt;stroke-linejoin:miter;stroke:rgb(100%,0%,0%);stroke-opacity:0.5;stroke-miterlimit:10;" d="M 40.216981 59.526682 L 34.54706 53.858714 " transform="matrix(2,0,0,2,5.952756,6.169291)"/>
<path style="fill-rule:nonzero;fill:rgb(50%,50%,0%);fill-opacity:0.1;stroke-width:0.566929;stroke-linecap:butt;stroke-linejoin:miter;stroke:rgb(100%,0%,0%);stroke-opacity:0.5;stroke-miterlimit:10;" d="M 19.320497 69.92512 L 55.443544 69.92512 L 55.443544 56.692698 L 19.320497 56.692698 Z M 19.320497 69.92512 " transform="matrix(2,0,0,2,5.952756,6.169291)"/>
<path style="fill:none;stroke-width:0.566929;stroke-linecap:butt;stroke-linejoin:miter;stroke:rgb(100%,0%,0%);stroke-opacity:0.5;stroke-miterlimit:10;" d="M 19.320497 67.878245 L 24.990419 62.208323 " transform="matrix(2,0,0,2,5.952756,6.169291)"/>
<path style="fill:none;stroke-width:0.566929;stroke-linecap:butt;stroke-linejoin:miter;stroke:rgb(100%,0%,0%);stroke-opacity:0.5;stroke-miterlimit:10;" d="M 24.990419 67.878245 L 19.320497 62.208323 " transform="matrix(2,0,0,2,5.952756,6.169291)"/>
<path style="fill-rule:nonzero;fill:rgb(50%,50%,0%);fill-opacity:0.1;stroke-width:0.566929;stroke-linecap:butt;stroke-linejoin:miter;stroke:rgb(100%,0%,0%);stroke-opacity:0.5;stroke-miterlimit:10;" d="M 19.320497 69.92512 L 55.443544 69.92512 L 55.443544 56.692698 L 19.320497 56.692698 Z M 19.320497 69.92512 " transform="matrix(2,0,0,2,5.952756,6.169291)"/>
<path style="fill:none;stroke-width:0.566929;stroke-linecap:butt;stroke-linejoin:miter;stroke:rgb(100%,0%,0%);stroke-opacity:0.5;stroke-miterlimit:10;" d="M 19.320497 67.878245 L 24.990419 62.208323 " transform="matrix(2,0,0,2,5.952756,6.169291)"/>
<path style="fill:none;stroke-width:0.566929;stroke-linecap:butt;stroke-linejoin:miter;stroke:rgb(100%,0%,0%);stroke-opacity:0.5;stroke-miterlimit:10;" d="M 24.990419 67.878245 L 19.320497 62.208323 " transform="matrix(2,0,0,2,5.952756,6.169291)"/>
<path style="fill-rule:nonzero;fill:rgb(50%,50%,0%);fill-opacity:0.1;stroke-width:0.566929;stroke-linecap:butt;stroke-linejoin:miter;stroke:rgb(100%,0%,0%);stroke-opacity:0.5;stroke-miterlimit:10;" d="M 22.156435 67.089182 L 52.60956 67.089182 L 52.60956 59.526682 L 22.156435 59.526682 Z M 22.156435 67.089182 " transform="matrix(2,0,0,2,5.952756,6.169291)"/>
<path style=" stroke:none;fill-rule:nonzero;fill:rgb(0%,0%,0%);fill-opacity:1;" d="M 55.140625 131.816406 C 53.390625 131.816406 53.390625 129.816406 53.390625 129.378906 C 53.390625 128.847656 53.421875 128.191406 53.703125 127.691406 C 53.859375 127.472656 54.328125 126.910156 55.140625 126.910156 C 56.859375 126.910156 56.859375 128.878906 56.859375 129.347656 C 56.859375 129.878906 56.859375 130.535156 56.546875 131.035156 C 56.390625 131.253906 55.921875 131.816406 55.140625 131.816406 Z M 52.828125 132.597656 C 52.828125 132.535156 52.828125 132.066406 53.140625 131.660156 C 53.921875 132.222656 54.765625 132.285156 55.140625 132.285156 C 56.984375 132.285156 58.359375 130.910156 58.359375 129.378906 C 58.359375 128.628906 58.046875 127.910156 57.546875 127.441406 C 58.265625 126.753906 58.984375 126.660156 59.328125 126.660156 C 59.390625 126.660156 59.484375 126.660156 59.546875 126.691406 C 59.328125 126.753906 59.203125 126.972656 59.203125 127.222656 C 59.203125 127.566406 59.484375 127.785156 59.796875 127.785156 C 59.984375 127.785156 60.359375 127.660156 60.359375 127.191406 C 60.359375 126.847656 60.140625 126.222656 59.359375 126.222656 C 58.953125 126.222656 58.078125 126.347656 57.234375 127.160156 C 56.390625 126.503906 55.578125 126.441406 55.140625 126.441406 C 53.265625 126.441406 51.890625 127.816406 51.890625 129.347656 C 51.890625 130.222656 52.328125 130.972656 52.828125 131.410156 C 52.578125 131.691406 52.203125 132.347656 52.203125 133.066406 C 52.203125 133.691406 52.484375 134.441406 53.109375 134.847656 C 51.890625 135.160156 51.265625 136.035156 51.265625 136.816406 C 51.265625 138.253906 53.234375 139.347656 55.671875 139.347656 C 58.015625 139.347656 60.078125 138.347656 60.078125 136.785156 C 60.078125 136.097656 59.828125 135.066406 58.796875 134.503906 C 57.734375 133.972656 56.578125 133.972656 55.359375 133.972656 C 54.859375 133.972656 54.015625 133.972656 53.859375 133.941406 C 53.234375 133.847656 52.828125 133.253906 52.828125 132.597656 Z M 55.703125 138.910156 C 53.671875 138.910156 52.296875 137.878906 52.296875 136.816406 C 52.296875 135.910156 53.046875 135.160156 53.921875 135.128906 L 55.109375 135.128906 C 56.828125 135.128906 59.046875 135.128906 59.046875 136.816406 C 59.046875 137.910156 57.640625 138.910156 55.703125 138.910156 Z M 55.703125 138.910156 "/>
<path style=" stroke:none;fill-rule:nonzero;fill:rgb(0%,0%,0%);fill-opacity:1;" d="M 65.101562 131.816406 C 63.351562 131.816406 63.351562 129.816406 63.351562 129.378906 C 63.351562 128.847656 63.382812 128.191406 63.664062 127.691406 C 63.820312 127.472656 64.289062 126.910156 65.101562 126.910156 C 66.820312 126.910156 66.820312 128.878906 66.820312 129.347656 C 66.820312 129.878906 66.820312 130.535156 66.507812 131.035156 C 66.351562 131.253906 65.882812 131.816406 65.101562 131.816406 Z M 62.789062 132.597656 C 62.789062 132.535156 62.789062 132.066406 63.101562 131.660156 C 63.882812 132.222656 64.726562 132.285156 65.101562 132.285156 C 66.945312 132.285156 68.320312 130.910156 68.320312 129.378906 C 68.320312 128.628906 68.007812 127.910156 67.507812 127.441406 C 68.226562 126.753906 68.945312 126.660156 69.289062 126.660156 C 69.351562 126.660156 69.445312 126.660156 69.507812 126.691406 C 69.289062 126.753906 69.164062 126.972656 69.164062 127.222656 C 69.164062 127.566406 69.445312 127.785156 69.757812 127.785156 C 69.945312 127.785156 70.320312 127.660156 70.320312 127.191406 C 70.320312 126.847656 70.101562 126.222656 69.320312 126.222656 C 68.914062 126.222656 68.039062 126.347656 67.195312 127.160156 C 66.351562 126.503906 65.539062 126.441406 65.101562 126.441406 C 63.226562 126.441406 61.851562 127.816406 61.851562 129.347656 C 61.851562 130.222656 62.289062 130.972656 62.789062 131.410156 C 62.539062 131.691406 62.164062 132.347656 62.164062 133.066406 C 62.164062 133.691406 62.445312 134.441406 63.070312 134.847656 C 61.851562 135.160156 61.226562 136.035156 61.226562 136.816406 C 61.226562 138.253906 63.195312 139.347656 65.632812 139.347656 C 67.976562 139.347656 70.039062 138.347656 70.039062 136.785156 C 70.039062 136.097656 69.789062 135.066406 68.757812 134.503906 C 67.695312 133.972656 66.539062 133.972656 65.320312 133.972656 C 64.820312 133.972656 63.976562 133.972656 63.820312 133.941406 C 63.195312 133.847656 62.789062 133.253906 62.789062 132.597656 Z M 65.664062 138.910156 C 63.632812 138.910156 62.257812 137.878906 62.257812 136.816406 C 62.257812 135.910156 63.007812 135.160156 63.882812 135.128906 L 65.070312 135.128906 C 66.789062 135.128906 69.007812 135.128906 69.007812 136.816406 C 69.007812 137.910156 67.601562 138.910156 65.664062 138.910156 Z M 65.664062 138.910156 "/>
<path style=" stroke:none;fill-rule:nonzero;fill:rgb(0%,0%,0%);fill-opacity:1;" d="M 75.0625 131.816406 C 73.3125 131.816406 73.3125 129.816406 73.3125 129.378906 C 73.3125 128.847656 73.34375 128.191406 73.625 127.691406 C 73.78125 127.472656 74.25 126.910156 75.0625 126.910156 C 76.78125 126.910156 76.78125 128.878906 76.78125 129.347656 C 76.78125 129.878906 76.78125 130.535156 76.46875 131.035156 C 76.3125 131.253906 75.84375 131.816406 75.0625 131.816406 Z M 72.75 132.597656 C 72.75 132.535156 72.75 132.066406 73.0625 131.660156 C 73.84375 132.222656 74.6875 132.285156 75.0625 132.285156 C 76.90625 132.285156 78.28125 130.910156 78.28125 129.378906 C 78.28125 128.628906 77.96875 127.910156 77.46875 127.441406 C 78.1875 126.753906 78.90625 126.660156 79.25 126.660156 C 79.3125 126.660156 79.40625 126.660156 79.46875 126.691406 C 79.25 126.753906 79.125 126.972656 79.125 127.222656 C 79.125 127.566406 79.40625 127.785156 79.71875 127.785156 C 79.90625 127.785156 80.28125 127.660156 80.28125 127.191406 C 80.28125 126.847656 80.0625 126.222656 79.28125 126.222656 C 78.875 126.222656 78 126.347656 77.15625 127.160156 C 76.3125 126.503906 75.5 126.441406 75.0625 126.441406 C 73.1875 126.441406 71.8125 127.816406 71.8125 129.347656 C 71.8125 130.222656 72.25 130.972656 72.75 131.410156 C 72.5 131.691406 72.125 132.347656 72.125 133.066406 C 72.125 133.691406 72.40625 134.441406 73.03125 134.847656 C 71.8125 135.160156 71.1875 136.035156 71.1875 136.816406 C 71.1875 138.253906 73.15625 139.347656 75.59375 139.347656 C 77.9375 139.347656 80 138.347656 80 136.785156 C 80 136.097656 79.75 135.066406 78.71875 134.503906 C 77.65625 133.972656 76.5 133.972656 75.28125 133.972656 C 74.78125 133.972656 73.9375 133.972656 73.78125 133.941406 C 73.15625 133.847656 72.75 133.253906 72.75 132.597656 Z M 75.625 138.910156 C 73.59375 138.910156 72.21875 137.878906 72.21875 136.816406 C 72.21875 135.910156 72.96875 135.160156 73.84375 135.128906 L 75.03125 135.128906 C 76.75 135.128906 78.96875 135.128906 78.96875 136.816406 C 78.96875 137.910156 77.5625 138.910156 75.625 138.910156 Z M 75.625 138.910156 "/>
<path style=" stroke:none;fill-rule:nonzero;fill:rgb(0%,0%,0%);fill-opacity:1;" d="M 85.027344 131.816406 C 83.277344 131.816406 83.277344 129.816406 83.277344 129.378906 C 83.277344 128.847656 83.308594 128.191406 83.589844 127.691406 C 83.746094 127.472656 84.214844 126.910156 85.027344 126.910156 C 86.746094 126.910156 86.746094 128.878906 86.746094 129.347656 C 86.746094 129.878906 86.746094 130.535156 86.433594 131.035156 C 86.277344 131.253906 85.808594 131.816406 85.027344 131.816406 Z M 82.714844 132.597656 C 82.714844 132.535156 82.714844 132.066406 83.027344 131.660156 C 83.808594 132.222656 84.652344 132.285156 85.027344 132.285156 C 86.871094 132.285156 88.246094 130.910156 88.246094 129.378906 C 88.246094 128.628906 87.933594 127.910156 87.433594 127.441406 C 88.152344 126.753906 88.871094 126.660156 89.214844 126.660156 C 89.277344 126.660156 89.371094 126.660156 89.433594 126.691406 C 89.214844 126.753906 89.089844 126.972656 89.089844 127.222656 C 89.089844 127.566406 89.371094 127.785156 89.683594 127.785156 C 89.871094 127.785156 90.246094 127.660156 90.246094 127.191406 C 90.246094 126.847656 90.027344 126.222656 89.246094 126.222656 C 88.839844 126.222656 87.964844 126.347656 87.121094 127.160156 C 86.277344 126.503906 85.464844 126.441406 85.027344 126.441406 C 83.152344 126.441406 81.777344 127.816406 81.777344 129.347656 C 81.777344 130.222656 82.214844 130.972656 82.714844 131.410156 C 82.464844 131.691406 82.089844 132.347656 82.089844 133.066406 C 82.089844 133.691406 82.371094 134.441406 82.996094 134.847656 C 81.777344 135.160156 81.152344 136.035156 81.152344 136.816406 C 81.152344 138.253906 83.121094 139.347656 85.558594 139.347656 C 87.902344 139.347656 89.964844 138.347656 89.964844 136.785156 C 89.964844 136.097656 89.714844 135.066406 88.683594 134.503906 C 87.621094 133.972656 86.464844 133.972656 85.246094 133.972656 C 84.746094 133.972656 83.902344 133.972656 83.746094 133.941406 C 83.121094 133.847656 82.714844 133.253906 82.714844 132.597656 Z M 85.589844 138.910156 C 83.558594 138.910156 82.183594 137.878906 82.183594 136.816406 C 82.183594 135.910156 82.933594 135.160156 83.808594 135.128906 L 84.996094 135.128906 C 86.714844 135.128906 88.933594 135.128906 88.933594 136.816406 C 88.933594 137.910156 87.527344 138.910156 85.589844 138.910156 Z M 85.589844 138.910156 "/>
<path style=" stroke:none;fill-rule:nonzero;fill:rgb(0%,0%,0%);fill-opacity:1;" d="M 94.988281 131.816406 C 93.238281 131.816406 93.238281 129.816406 93.238281 129.378906 C 93.238281 128.847656 93.269531 128.191406 93.550781 127.691406 C 93.707031 127.472656 94.175781 126.910156 94.988281 126.910156 C 96.707031 126.910156 96.707031 128.878906 96.707031 129.347656 C 96.707031 129.878906 96.707031 130.535156 96.394531 131.035156 C 96.238281 131.253906 95.769531 131.816406 94.988281 131.816406 Z M 92.675781 132.597656 C 92.675781 132.535156 92.675781 132.066406 92.988281 131.660156 C 93.769531 132.222656 94.613281 132.285156 94.988281 132.285156 C 96.832031 132.285156 98.207031 130.910156 98.207031 129.378906 C 98.207031 128.628906 97.894531 127.910156 97.394531 127.441406 C 98.113281 126.753906 98.832031 126.660156 99.175781 126.660156 C 99.238281 126.660156 99.332031 126.660156 99.394531 126.691406 C 99.175781 126.753906 99.050781 126.972656 99.050781 127.222656 C 99.050781 127.566406 99.332031 127.785156 99.644531 127.785156 C 99.832031 127.785156 100.207031 127.660156 100.207031 127.191406 C 100.207031 126.847656 99.988281 126.222656 99.207031 126.222656 C 98.800781 126.222656 97.925781 126.347656 97.082031 127.160156 C 96.238281 126.503906 95.425781 126.441406 94.988281 126.441406 C 93.113281 126.441406 91.738281 127.816406 91.738281 129.347656 C 91.738281 130.222656 92.175781 130.972656 92.675781 131.410156 C 92.425781 131.691406 92.050781 132.347656 92.050781 133.066406 C 92.050781 133.691406 92.332031 134.441406 92.957031 134.847656 C 91.738281 135.160156 91.113281 136.035156 91.113281 136.816406 C 91.113281 138.253906 93.082031 139.347656 95.519531 139.347656 C 97.863281 139.347656 99.925781 138.347656 99.925781 136.785156 C 99.925781 136.097656 99.675781 135.066406 98.644531 134.503906 C 97.582031 133.972656 96.425781 133.972656 95.207031 133.972656 C 94.707031 133.972656 93.863281 133.972656 93.707031 133.941406 C 93.082031 133.847656 92.675781 133.253906 92.675781 132.597656 Z M 95.550781 138.910156 C 93.519531 138.910156 92.144531 137.878906 92.144531 136.816406 C 92.144531 135.910156 92.894531 135.160156 93.769531 135.128906 L 94.957031 135.128906 C 96.675781 135.128906 98.894531 135.128906 98.894531 136.816406 C 98.894531 137.910156 97.488281 138.910156 95.550781 138.910156 Z M 95.550781 138.910156 "/>
<path style=" stroke:none;fill-rule:nonzero;fill:rgb(0%,0%,0%);fill-opacity:1;" d="M 104.953125 131.816406 C 103.203125 131.816406 103.203125 129.816406 103.203125 129.378906 C 103.203125 128.847656 103.234375 128.191406 103.515625 127.691406 C 103.671875 127.472656 104.140625 126.910156 104.953125 126.910156 C 106.671875 126.910156 106.671875 128.878906 106.671875 129.347656 C 106.671875 129.878906 106.671875 130.535156 106.359375 131.035156 C 106.203125 131.253906 105.734375 131.816406 104.953125 131.816406 Z M 102.640625 132.597656 C 102.640625 132.535156 102.640625 132.066406 102.953125 131.660156 C 103.734375 132.222656 104.578125 132.285156 104.953125 132.285156 C 106.796875 132.285156 108.171875 130.910156 108.171875 129.378906 C 108.171875 128.628906 107.859375 127.910156 107.359375 127.441406 C 108.078125 126.753906 108.796875 126.660156 109.140625 126.660156 C 109.203125 126.660156 109.296875 126.660156 109.359375 126.691406 C 109.140625 126.753906 109.015625 126.972656 109.015625 127.222656 C 109.015625 127.566406 109.296875 127.785156 109.609375 127.785156 C 109.796875 127.785156 110.171875 127.660156 110.171875 127.191406 C 110.171875 126.847656 109.953125 126.222656 109.171875 126.222656 C 108.765625 126.222656 107.890625 126.347656 107.046875 127.160156 C 106.203125 126.503906 105.390625 126.441406 104.953125 126.441406 C 103.078125 126.441406 101.703125 127.816406 101.703125 129.347656 C 101.703125 130.222656 102.140625 130.972656 102.640625 131.410156 C 102.390625 131.691406 102.015625 132.347656 102.015625 133.066406 C 102.015625 133.691406 102.296875 134.441406 102.921875 134.847656 C 101.703125 135.160156 101.078125 136.035156 101.078125 136.816406 C 101.078125 138.253906 103.046875 139.347656 105.484375 139.347656 C 107.828125 139.347656 109.890625 138.347656 109.890625 136.785156 C 109.890625 136.097656 109.640625 135.066406 108.609375 134.503906 C 107.546875 133.972656 106.390625 133.972656 105.171875 133.972656 C 104.671875 133.972656 103.828125 133.972656 103.671875 133.941406 C 103.046875 133.847656 102.640625 133.253906 102.640625 132.597656 Z M 105.515625 138.910156 C 103.484375 138.910156 102.109375 137.878906 102.109375 136.816406 C 102.109375 135.910156 102.859375 135.160156 103.734375 135.128906 L 104.921875 135.128906 C 106.640625 135.128906 108.859375 135.128906 108.859375 136.816406 C 108.859375 137.910156 107.453125 138.910156 105.515625 138.910156 Z M 105.515625 138.910156 "/>
<path style="fill:none;stroke-width:0.566929;stroke-linecap:butt;stroke-linejoin:miter;stroke:rgb(100%,0%,0%);stroke-opacity:0.5;stroke-miterlimit:10;" d="M 80.537294 59.526682 L 86.207216 53.858714 " transform="matrix(2,0,0,2,5.952756,6.169291)"/>
<path style="fill:none;stroke-width:0.566929;stroke-linecap:butt;stroke-linejoin:miter;stroke:rgb(100%,0%,0%);stroke-opacity:0.5;stroke-miterlimit:10;" d="M 86.207216 59.526682 L 80.537294 53.858714 " transform="matrix(2,0,0,2,5.952756,6.169291)"/>
<path style="fill-rule:nonzero;fill:rgb(50%,50%,0%);fill-opacity:0.1;stroke-width:0.566929;stroke-linecap:butt;stroke-linejoin:miter;stroke:rgb(100%,0%,0%);stroke-opacity:0.5;stroke-miterlimit:10;" d="M 55.443544 70.39387 L 111.300966 70.39387 L 111.300966 56.692698 L 55.443544 56.692698 Z M 55.443544 70.39387 " transform="matrix(2,0,0,2,5.952756,6.169291)"/>
<path style="fill:none;stroke-width:0.566929;stroke-linecap:butt;stroke-linejoin:miter;stroke:rgb(100%,0%,0%);stroke-opacity:0.5;stroke-miterlimit:10;" d="M 55.443544 70.284495 L 61.113466 64.614573 " transform="matrix(2,0,0,2,5.952756,6.169291)"/>
<path style="fill:none;stroke-width:0.566929;stroke-linecap:butt;stroke-linejoin:miter;stroke:rgb(100%,0%,0%);stroke-opacity:0.5;stroke-miterlimit:10;" d="M 61.113466 70.284495 L 55.443544 64.614573 " transform="matrix(2,0,0,2,5.952756,6.169291)"/>
<path style="fill-rule:nonzero;fill:rgb(50%,50%,0%);fill-opacity:0.1;stroke-width:0.566929;stroke-linecap:butt;stroke-linejoin:miter;stroke:rgb(100%,0%,0%);stroke-opacity:0.5;stroke-miterlimit:10;" d="M 55.443544 70.39387 L 111.300966 70.39387 L 111.300966 56.692698 L 55.443544 56.692698 Z M 55.443544 70.39387 " transform="matrix(2,0,0,2,5.952756,6.169291)"/>
<path style="fill:none;stroke-width:0.566929;stroke-linecap:butt;stroke-linejoin:miter;stroke:rgb(100%,0%,0%);stroke-opacity:0.5;stroke-miterlimit:10;" d="M 55.443544 70.284495 L 61.113466 64.614573 " transform="matrix(2,0,0,2,5.952756,6.169291)"/>
<path style="fill:none;stroke-width:0.566929;stroke-linecap:butt;stroke-linejoin:miter;stroke:rgb(100%,0%,0%);stroke-opacity:0.5;stroke-miterlimit:10;" d="M 61.113466 70.284495 L 55.443544 64.614573 " transform="matrix(2,0,0,2,5.952756,6.169291)"/>
<path style="fill-rule:nonzero;fill:rgb(50%,50%,0%);fill-opacity:0.1;stroke-width:0.566929;stroke-linecap:butt;stroke-linejoin:miter;stroke:rgb(100%,0%,0%);stroke-opacity:0.5;stroke-miterlimit:10;" d="M 58.277528 67.557932 L 108.466981 67.557932 L 108.466981 59.526682 L 58.277528 59.526682 Z M 58.277528 67.557932 " transform="matrix(2,0,0,2,5.952756,6.169291)"/>
<path style=" stroke:none;fill-rule:nonzero;fill:rgb(0%,0%,0%);fill-opacity:1;" d="M 126.382812 132.535156 L 126.382812 126.222656 L 123.507812 126.441406 L 123.507812 127.066406 C 124.914062 127.066406 125.070312 127.191406 125.070312 128.191406 L 125.070312 140.066406 L 125.570312 140.066406 C 125.570312 140.035156 125.726562 139.753906 126.289062 138.816406 C 126.570312 139.285156 127.414062 140.285156 128.882812 140.285156 C 131.257812 140.285156 133.320312 138.316406 133.320312 135.753906 C 133.320312 133.222656 131.382812 131.253906 129.101562 131.253906 C 127.539062 131.253906 126.695312 132.191406 126.382812 132.535156 Z M 126.445312 137.785156 L 126.445312 133.691406 C 126.445312 133.316406 126.445312 133.285156 126.664062 132.972656 C 127.445312 131.847656 128.539062 131.691406 129.007812 131.691406 C 129.914062 131.691406 130.632812 132.222656 131.101562 132.972656 C 131.632812 133.785156 131.664062 134.910156 131.664062 135.753906 C 131.664062 136.472656 131.632812 137.660156 131.070312 138.566406 C 130.632812 139.191406 129.882812 139.847656 128.820312 139.847656 C 127.914062 139.847656 127.195312 139.378906 126.726562 138.628906 C 126.445312 138.222656 126.445312 138.160156 126.445312 137.785156 Z M 126.445312 137.785156 "/>
<path style=" stroke:none;fill-rule:nonzero;fill:rgb(0%,0%,0%);fill-opacity:1;" d="M 137.453125 132.535156 L 137.453125 126.222656 L 134.578125 126.441406 L 134.578125 127.066406 C 135.984375 127.066406 136.140625 127.191406 136.140625 128.191406 L 136.140625 140.066406 L 136.640625 140.066406 C 136.640625 140.035156 136.796875 139.753906 137.359375 138.816406 C 137.640625 139.285156 138.484375 140.285156 139.953125 140.285156 C 142.328125 140.285156 144.390625 138.316406 144.390625 135.753906 C 144.390625 133.222656 142.453125 131.253906 140.171875 131.253906 C 138.609375 131.253906 137.765625 132.191406 137.453125 132.535156 Z M 137.515625 137.785156 L 137.515625 133.691406 C 137.515625 133.316406 137.515625 133.285156 137.734375 132.972656 C 138.515625 131.847656 139.609375 131.691406 140.078125 131.691406 C 140.984375 131.691406 141.703125 132.222656 142.171875 132.972656 C 142.703125 133.785156 142.734375 134.910156 142.734375 135.753906 C 142.734375 136.472656 142.703125 137.660156 142.140625 138.566406 C 141.703125 139.191406 140.953125 139.847656 139.890625 139.847656 C 138.984375 139.847656 138.265625 139.378906 137.796875 138.628906 C 137.515625 138.222656 137.515625 138.160156 137.515625 137.785156 Z M 137.515625 137.785156 "/>
<path style=" stroke:none;fill-rule:nonzero;fill:rgb(0%,0%,0%);fill-opacity:1;" d="M 148.523438 132.535156 L 148.523438 126.222656 L 145.648438 126.441406 L 145.648438 127.066406 C 147.054688 127.066406 147.210938 127.191406 147.210938 128.191406 L 147.210938 140.066406 L 147.710938 140.066406 C 147.710938 140.035156 147.867188 139.753906 148.429688 138.816406 C 148.710938 139.285156 149.554688 140.285156 151.023438 140.285156 C 153.398438 140.285156 155.460938 138.316406 155.460938 135.753906 C 155.460938 133.222656 153.523438 131.253906 151.242188 131.253906 C 149.679688 131.253906 148.835938 132.191406 148.523438 132.535156 Z M 148.585938 137.785156 L 148.585938 133.691406 C 148.585938 133.316406 148.585938 133.285156 148.804688 132.972656 C 149.585938 131.847656 150.679688 131.691406 151.148438 131.691406 C 152.054688 131.691406 152.773438 132.222656 153.242188 132.972656 C 153.773438 133.785156 153.804688 134.910156 153.804688 135.753906 C 153.804688 136.472656 153.773438 137.660156 153.210938 138.566406 C 152.773438 139.191406 152.023438 139.847656 150.960938 139.847656 C 150.054688 139.847656 149.335938 139.378906 148.867188 138.628906 C 148.585938 138.222656 148.585938 138.160156 148.585938 137.785156 Z M 148.585938 137.785156 "/>
<path style=" stroke:none;fill-rule:nonzero;fill:rgb(0%,0%,0%);fill-opacity:1;" d="M 159.59375 132.535156 L 159.59375 126.222656 L 156.71875 126.441406 L 156.71875 127.066406 C 158.125 127.066406 158.28125 127.191406 158.28125 128.191406 L 158.28125 140.066406 L 158.78125 140.066406 C 158.78125 140.035156 158.9375 139.753906 159.5 138.816406 C 159.78125 139.285156 160.625 140.285156 162.09375 140.285156 C 164.46875 140.285156 166.53125 138.316406 166.53125 135.753906 C 166.53125 133.222656 164.59375 131.253906 162.3125 131.253906 C 160.75 131.253906 159.90625 132.191406 159.59375 132.535156 Z M 159.65625 137.785156 L 159.65625 133.691406 C 159.65625 133.316406 159.65625 133.285156 159.875 132.972656 C 160.65625 131.847656 161.75 131.691406 162.21875 131.691406 C 163.125 131.691406 163.84375 132.222656 164.3125 132.972656 C 164.84375 133.785156 164.875 134.910156 164.875 135.753906 C 164.875 136.472656 164.84375 137.660156 164.28125 138.566406 C 163.84375 139.191406 163.09375 139.847656 162.03125 139.847656 C 161.125 139.847656 160.40625 139.378906 159.9375 138.628906 C 159.65625 138.222656 159.65625 138.160156 159.65625 137.785156 Z M 159.65625 137.785156 "/>
<path style=" stroke:none;fill-rule:nonzero;fill:rgb(0%,0%,0%);fill-opacity:1;" d="M 170.664062 132.535156 L 170.664062 126.222656 L 167.789062 126.441406 L 167.789062 127.066406 C 169.195312 127.066406 169.351562 127.191406 169.351562 128.191406 L 169.351562 140.066406 L 169.851562 140.066406 C 169.851562 140.035156 170.007812 139.753906 170.570312 138.816406 C 170.851562 139.285156 171.695312 140.285156 173.164062 140.285156 C 175.539062 140.285156 177.601562 138.316406 177.601562 135.753906 C 177.601562 133.222656 175.664062 131.253906 173.382812 131.253906 C 171.820312 131.253906 170.976562 132.191406 170.664062 132.535156 Z M 170.726562 137.785156 L 170.726562 133.691406 C 170.726562 133.316406 170.726562 133.285156 170.945312 132.972656 C 171.726562 131.847656 172.820312 131.691406 173.289062 131.691406 C 174.195312 131.691406 174.914062 132.222656 175.382812 132.972656 C 175.914062 133.785156 175.945312 134.910156 175.945312 135.753906 C 175.945312 136.472656 175.914062 137.660156 175.351562 138.566406 C 174.914062 139.191406 174.164062 139.847656 173.101562 139.847656 C 172.195312 139.847656 171.476562 139.378906 171.007812 138.628906 C 170.726562 138.222656 170.726562 138.160156 170.726562 137.785156 Z M 170.726562 137.785156 "/>
<path style=" stroke:none;fill-rule:nonzero;fill:rgb(0%,0%,0%);fill-opacity:1;" d="M 181.738281 132.535156 L 181.738281 126.222656 L 178.863281 126.441406 L 178.863281 127.066406 C 180.269531 127.066406 180.425781 127.191406 180.425781 128.191406 L 180.425781 140.066406 L 180.925781 140.066406 C 180.925781 140.035156 181.082031 139.753906 181.644531 138.816406 C 181.925781 139.285156 182.769531 140.285156 184.238281 140.285156 C 186.613281 140.285156 188.675781 138.316406 188.675781 135.753906 C 188.675781 133.222656 186.738281 131.253906 184.457031 131.253906 C 182.894531 131.253906 182.050781 132.191406 181.738281 132.535156 Z M 181.800781 137.785156 L 181.800781 133.691406 C 181.800781 133.316406 181.800781 133.285156 182.019531 132.972656 C 182.800781 131.847656 183.894531 131.691406 184.363281 131.691406 C 185.269531 131.691406 185.988281 132.222656 186.457031 132.972656 C 186.988281 133.785156 187.019531 134.910156 187.019531 135.753906 C 187.019531 136.472656 186.988281 137.660156 186.425781 138.566406 C 185.988281 139.191406 185.238281 139.847656 184.175781 139.847656 C 183.269531 139.847656 182.550781 139.378906 182.082031 138.628906 C 181.800781 138.222656 181.800781 138.160156 181.800781 137.785156 Z M 181.800781 137.785156 "/>
<path style=" stroke:none;fill-rule:nonzero;fill:rgb(0%,0%,0%);fill-opacity:1;" d="M 192.808594 132.535156 L 192.808594 126.222656 L 189.933594 126.441406 L 189.933594 127.066406 C 191.339844 127.066406 191.496094 127.191406 191.496094 128.191406 L 191.496094 140.066406 L 191.996094 140.066406 C 191.996094 140.035156 192.152344 139.753906 192.714844 138.816406 C 192.996094 139.285156 193.839844 140.285156 195.308594 140.285156 C 197.683594 140.285156 199.746094 138.316406 199.746094 135.753906 C 199.746094 133.222656 197.808594 131.253906 195.527344 131.253906 C 193.964844 131.253906 193.121094 132.191406 192.808594 132.535156 Z M 192.871094 137.785156 L 192.871094 133.691406 C 192.871094 133.316406 192.871094 133.285156 193.089844 132.972656 C 193.871094 131.847656 194.964844 131.691406 195.433594 131.691406 C 196.339844 131.691406 197.058594 132.222656 197.527344 132.972656 C 198.058594 133.785156 198.089844 134.910156 198.089844 135.753906 C 198.089844 136.472656 198.058594 137.660156 197.496094 138.566406 C 197.058594 139.191406 196.308594 139.847656 195.246094 139.847656 C 194.339844 139.847656 193.621094 139.378906 193.152344 138.628906 C 192.871094 138.222656 192.871094 138.160156 192.871094 137.785156 Z M 192.871094 137.785156 "/>
<path style=" stroke:none;fill-rule:nonzero;fill:rgb(0%,0%,0%);fill-opacity:1;" d="M 203.878906 132.535156 L 203.878906 126.222656 L 201.003906 126.441406 L 201.003906 127.066406 C 202.410156 127.066406 202.566406 127.191406 202.566406 128.191406 L 202.566406 140.066406 L 203.066406 140.066406 C 203.066406 140.035156 203.222656 139.753906 203.785156 138.816406 C 204.066406 139.285156 204.910156 140.285156 206.378906 140.285156 C 208.753906 140.285156 210.816406 138.316406 210.816406 135.753906 C 210.816406 133.222656 208.878906 131.253906 206.597656 131.253906 C 205.035156 131.253906 204.191406 132.191406 203.878906 132.535156 Z M 203.941406 137.785156 L 203.941406 133.691406 C 203.941406 133.316406 203.941406 133.285156 204.160156 132.972656 C 204.941406 131.847656 206.035156 131.691406 206.503906 131.691406 C 207.410156 131.691406 208.128906 132.222656 208.597656 132.972656 C 209.128906 133.785156 209.160156 134.910156 209.160156 135.753906 C 209.160156 136.472656 209.128906 137.660156 208.566406 138.566406 C 208.128906 139.191406 207.378906 139.847656 206.316406 139.847656 C 205.410156 139.847656 204.691406 139.378906 204.222656 138.628906 C 203.941406 138.222656 203.941406 138.160156 203.941406 137.785156 Z M 203.941406 137.785156 "/>
<path style=" stroke:none;fill-rule:nonzero;fill:rgb(0%,0%,0%);fill-opacity:1;" d="M 214.949219 132.535156 L 214.949219 126.222656 L 212.074219 126.441406 L 212.074219 127.066406 C 213.480469 127.066406 213.636719 127.191406 213.636719 128.191406 L 213.636719 140.066406 L 214.136719 140.066406 C 214.136719 140.035156 214.292969 139.753906 214.855469 138.816406 C 215.136719 139.285156 215.980469 140.285156 217.449219 140.285156 C 219.824219 140.285156 221.886719 138.316406 221.886719 135.753906 C 221.886719 133.222656 219.949219 131.253906 217.667969 131.253906 C 216.105469 131.253906 215.261719 132.191406 214.949219 132.535156 Z M 215.011719 137.785156 L 215.011719 133.691406 C 215.011719 133.316406 215.011719 133.285156 215.230469 132.972656 C 216.011719 131.847656 217.105469 131.691406 217.574219 131.691406 C 218.480469 131.691406 219.199219 132.222656 219.667969 132.972656 C 220.199219 133.785156 220.230469 134.910156 220.230469 135.753906 C 220.230469 136.472656 220.199219 137.660156 219.636719 138.566406 C 219.199219 139.191406 218.449219 139.847656 217.386719 139.847656 C 216.480469 139.847656 215.761719 139.378906 215.292969 138.628906 C 215.011719 138.222656 215.011719 138.160156 215.011719 137.785156 Z M 215.011719 137.785156 "/>
<path style="fill:none;stroke-width:0.566929;stroke-linecap:butt;stroke-linejoin:miter;stroke:rgb(100%,0%,0%);stroke-opacity:0.5;stroke-miterlimit:10;" d="M 108.466981 59.526682 L 114.13495 53.858714 " transform="matrix(2,0,0,2,5.952756,6.169291)"/>
<path style="fill:none;stroke-width:0.566929;stroke-linecap:butt;stroke-linejoin:miter;stroke:rgb(100%,0%,0%);stroke-opacity:0.5;stroke-miterlimit:10;" d="M 114.13495 59.526682 L 108.466981 53.858714 " transform="matrix(2,0,0,2,5.952756,6.169291)"/>
<path style="fill:none;stroke-width:0.566929;stroke-linecap:butt;stroke-linejoin:miter;stroke:rgb(100%,0%,0%);stroke-opacity:0.5;stroke-miterlimit:10;" d="M 111.300966 85.038401 L 111.300966 56.692698 Z M 111.300966 85.038401 " transform="matrix(2,0,0,2,5.952756,6.169291)"/>
</g>
</svg>
