<?xml version="1.0" encoding="UTF-8"?>
<svg xmlns="http://www.w3.org/2000/svg" xmlns:xlink="http://www.w3.org/1999/xlink" width="301pt" height="272pt" viewBox="0 0 301 272" version="1.1">
<g id="surface245">
<path style="fill:none;stroke-width:0.566929;stroke-linecap:butt;stroke-linejoin:miter;stroke:rgb(100%,0%,0%);stroke-opacity:0.5;stroke-miterlimit:10;" d="M -2.833984 2.833984 L 2.833984 -2.833984 " transform="matrix(2,0,0,2,8,8)"/>
<path style="fill:none;stroke-width:0.566929;stroke-linecap:butt;stroke-linejoin:miter;stroke:rgb(100%,0%,0%);stroke-opacity:0.5;stroke-miterlimit:10;" d="M 2.833984 2.833984 L -2.833984 -2.833984 " transform="matrix(2,0,0,2,8,8)"/>
<path style="fill-rule:nonzero;fill:rgb(50%,50%,0%);fill-opacity:0.1;stroke-width:0.566929;stroke-linecap:butt;stroke-linejoin:miter;stroke:rgb(100%,0%,0%);stroke-opacity:0.5;stroke-miterlimit:10;" d="M 0 130.699219 L 145.189453 130.699219 L 145.189453 0 L 0 0 Z M 0 130.699219 " transform="matrix(2,0,0,2,8,8)"/>
<path style="fill:none;stroke-width:0.566929;stroke-linecap:butt;stroke-linejoin:miter;stroke:rgb(100%,0%,0%);stroke-opacity:0.5;stroke-miterlimit:10;" d="M 19.228516 20.542969 L 24.896484 14.873047 " transform="matrix(2,0,0,2,8,8)"/>
<path style="fill:none;stroke-width:0.566929;stroke-linecap:butt;stroke-linejoin:miter;stroke:rgb(100%,0%,0%);stroke-opacity:0.5;stroke-miterlimit:10;" d="M 24.896484 20.542969 L 19.228516 14.873047 " transform="matrix(2,0,0,2,8,8)"/>
<path style="fill-rule:nonzero;fill:rgb(50%,50%,0%);fill-opacity:0.1;stroke-width:0.566929;stroke-linecap:butt;stroke-linejoin:miter;stroke:rgb(100%,0%,0%);stroke-opacity:0.5;stroke-miterlimit:10;" d="M 14.363281 25.435547 L 39.203125 25.435547 L 39.203125 6.751953 L 14.363281 6.751953 Z M 14.363281 25.435547 " transform="matrix(2,0,0,2,8,8)"/>
<path style="fill:none;stroke-width:0.566929;stroke-linecap:butt;stroke-linejoin:miter;stroke:rgb(100%,0%,0%);stroke-opacity:0.5;stroke-miterlimit:10;" d="M 63.480469 20.542969 L 69.150391 14.873047 " transform="matrix(2,0,0,2,8,8)"/>
<path style="fill:none;stroke-width:0.566929;stroke-linecap:butt;stroke-linejoin:miter;stroke:rgb(100%,0%,0%);stroke-opacity:0.5;stroke-miterlimit:10;" d="M 69.150391 20.542969 L 63.480469 14.873047 " transform="matrix(2,0,0,2,8,8)"/>
<path style="fill-rule:nonzero;fill:rgb(50%,50%,0%);fill-opacity:0.1;stroke-width:0.566929;stroke-linecap:butt;stroke-linejoin:miter;stroke:rgb(100%,0%,0%);stroke-opacity:0.5;stroke-miterlimit:10;" d="M 44.494141 38.326172 L 91.683594 38.326172 L 91.683594 9.451172 L 44.494141 9.451172 Z M 44.494141 38.326172 " transform="matrix(2,0,0,2,8,8)"/>
<path style="fill:none;stroke-width:0.566929;stroke-linecap:butt;stroke-linejoin:miter;stroke:rgb(100%,0%,0%);stroke-opacity:0.5;stroke-miterlimit:10;" d="M 116.744141 20.542969 L 122.414062 14.873047 " transform="matrix(2,0,0,2,8,8)"/>
<path style="fill:none;stroke-width:0.566929;stroke-linecap:butt;stroke-linejoin:miter;stroke:rgb(100%,0%,0%);stroke-opacity:0.5;stroke-miterlimit:10;" d="M 122.414062 20.542969 L 116.744141 14.873047 " transform="matrix(2,0,0,2,8,8)"/>
<path style="fill-rule:nonzero;fill:rgb(50%,50%,0%);fill-opacity:0.1;stroke-width:0.566929;stroke-linecap:butt;stroke-linejoin:miter;stroke:rgb(100%,0%,0%);stroke-opacity:0.5;stroke-miterlimit:10;" d="M 94.130859 29.578125 L 139.814453 29.578125 L 139.814453 0 L 94.130859 0 Z M 94.130859 29.578125 " transform="matrix(2,0,0,2,8,8)"/>
<path style="fill:none;stroke-width:0.566929;stroke-linecap:butt;stroke-linejoin:miter;stroke:rgb(100%,0%,0%);stroke-opacity:0.5;stroke-miterlimit:10;" d="M 19.228516 67.777344 L 24.896484 62.107422 " transform="matrix(2,0,0,2,8,8)"/>
<path style="fill:none;stroke-width:0.566929;stroke-linecap:butt;stroke-linejoin:miter;stroke:rgb(100%,0%,0%);stroke-opacity:0.5;stroke-miterlimit:10;" d="M 24.896484 67.777344 L 19.228516 62.107422 " transform="matrix(2,0,0,2,8,8)"/>
<path style="fill-rule:nonzero;fill:rgb(50%,50%,0%);fill-opacity:0.1;stroke-width:0.566929;stroke-linecap:butt;stroke-linejoin:miter;stroke:rgb(100%,0%,0%);stroke-opacity:0.5;stroke-miterlimit:10;" d="M 0 79.765625 L 31.246094 79.765625 L 31.246094 38.832031 L 0 38.832031 Z M 0 79.765625 " transform="matrix(2,0,0,2,8,8)"/>
<path style="fill:none;stroke-width:0.566929;stroke-linecap:butt;stroke-linejoin:miter;stroke:rgb(100%,0%,0%);stroke-opacity:0.5;stroke-miterlimit:10;" d="M 63.480469 67.777344 L 69.150391 62.107422 " transform="matrix(2,0,0,2,8,8)"/>
<path style="fill:none;stroke-width:0.566929;stroke-linecap:butt;stroke-linejoin:miter;stroke:rgb(100%,0%,0%);stroke-opacity:0.5;stroke-miterlimit:10;" d="M 69.150391 67.777344 L 63.480469 62.107422 " transform="matrix(2,0,0,2,8,8)"/>
<path style="fill-rule:nonzero;fill:rgb(50%,50%,0%);fill-opacity:0.1;stroke-width:0.566929;stroke-linecap:butt;stroke-linejoin:miter;stroke:rgb(100%,0%,0%);stroke-opacity:0.5;stroke-miterlimit:10;" d="M 39.203125 88.611328 L 94.130859 88.611328 L 94.130859 47.667969 L 39.203125 47.667969 Z M 39.203125 88.611328 " transform="matrix(2,0,0,2,8,8)"/>
<path style="fill:none;stroke-width:0.566929;stroke-linecap:butt;stroke-linejoin:miter;stroke:rgb(100%,0%,0%);stroke-opacity:0.5;stroke-miterlimit:10;" d="M 116.744141 67.777344 L 122.414062 62.107422 " transform="matrix(2,0,0,2,8,8)"/>
<path style="fill:none;stroke-width:0.566929;stroke-linecap:butt;stroke-linejoin:miter;stroke:rgb(100%,0%,0%);stroke-opacity:0.5;stroke-miterlimit:10;" d="M 122.414062 67.777344 L 116.744141 62.107422 " transform="matrix(2,0,0,2,8,8)"/>
<path style="fill-rule:nonzero;fill:rgb(50%,50%,0%);fill-opacity:0.1;stroke-width:0.566929;stroke-linecap:butt;stroke-linejoin:miter;stroke:rgb(100%,0%,0%);stroke-opacity:0.5;stroke-miterlimit:10;" d="M 110.242188 75.191406 L 143.435547 75.191406 L 143.435547 38.326172 L 110.242188 38.326172 Z M 110.242188 75.191406 " transform="matrix(2,0,0,2,8,8)"/>
<path style="fill:none;stroke-width:0.566929;stroke-linecap:butt;stroke-linejoin:miter;stroke:rgb(100%,0%,0%);stroke-opacity:0.5;stroke-miterlimit:10;" d="M 19.228516 112.34375 L 24.896484 106.675781 " transform="matrix(2,0,0,2,8,8)"/>
<path style="fill:none;stroke-width:0.566929;stroke-linecap:butt;stroke-linejoin:miter;stroke:rgb(100%,0%,0%);stroke-opacity:0.5;stroke-miterlimit:10;" d="M 24.896484 112.34375 L 19.228516 106.675781 " transform="matrix(2,0,0,2,8,8)"/>
<path style="fill-rule:nonzero;fill:rgb(50%,50%,0%);fill-opacity:0.1;stroke-width:0.566929;stroke-linecap:butt;stroke-linejoin:miter;stroke:rgb(100%,0%,0%);stroke-opacity:0.5;stroke-miterlimit:10;" d="M 3.078125 130.699219 L 30.369141 130.699219 L 30.369141 92.535156 L 3.078125 92.535156 Z M 3.078125 130.699219 " transform="matrix(2,0,0,2,8,8)"/>
<path style="fill:none;stroke-width:0.566929;stroke-linecap:butt;stroke-linejoin:miter;stroke:rgb(100%,0%,0%);stroke-opacity:0.5;stroke-miterlimit:10;" d="M 63.480469 112.34375 L 69.150391 106.675781 " transform="matrix(2,0,0,2,8,8)"/>
<path style="fill:none;stroke-width:0.566929;stroke-linecap:butt;stroke-linejoin:miter;stroke:rgb(100%,0%,0%);stroke-opacity:0.5;stroke-miterlimit:10;" d="M 69.150391 112.34375 L 63.480469 106.675781 " transform="matrix(2,0,0,2,8,8)"/>
<path style="fill-rule:nonzero;fill:rgb(50%,50%,0%);fill-opacity:0.1;stroke-width:0.566929;stroke-linecap:butt;stroke-linejoin:miter;stroke:rgb(100%,0%,0%);stroke-opacity:0.5;stroke-miterlimit:10;" d="M 57.246094 123.986328 L 90.267578 123.986328 L 90.267578 91.783203 L 57.246094 91.783203 Z M 57.246094 123.986328 " transform="matrix(2,0,0,2,8,8)"/>
<path style="fill:none;stroke-width:0.566929;stroke-linecap:butt;stroke-linejoin:miter;stroke:rgb(100%,0%,0%);stroke-opacity:0.5;stroke-miterlimit:10;" d="M 116.744141 112.34375 L 122.414062 106.675781 " transform="matrix(2,0,0,2,8,8)"/>
<path style="fill:none;stroke-width:0.566929;stroke-linecap:butt;stroke-linejoin:miter;stroke:rgb(100%,0%,0%);stroke-opacity:0.5;stroke-miterlimit:10;" d="M 122.414062 112.34375 L 116.744141 106.675781 " transform="matrix(2,0,0,2,8,8)"/>
<path style="fill-rule:nonzero;fill:rgb(50%,50%,0%);fill-opacity:0.1;stroke-width:0.566929;stroke-linecap:butt;stroke-linejoin:miter;stroke:rgb(100%,0%,0%);stroke-opacity:0.5;stroke-miterlimit:10;" d="M 113.658203 124.572266 L 145.189453 124.572266 L 145.189453 88.611328 L 113.658203 88.611328 Z M 113.658203 124.572266 " transform="matrix(2,0,0,2,8,8)"/>
</g>
</svg>
