<?xml version="1.0" encoding="UTF-8"?>
<svg xmlns="http://www.w3.org/2000/svg" xmlns:xlink="http://www.w3.org/1999/xlink" width="319.033125pt" height="385.839313pt" viewBox="0 0 319.033125 385.839313" version="1.1">
<g id="surface81">
<path style="fill:none;stroke-width:0.566929;stroke-linecap:butt;stroke-linejoin:miter;stroke:rgb(100%,0%,0%);stroke-opacity:0.5;stroke-miterlimit:10;" d="M -2.834646 2.834169 L 2.835276 -2.8338 " transform="matrix(2,0,0,2,6.169291,5.952756)"/>
<path style="fill:none;stroke-width:0.566929;stroke-linecap:butt;stroke-linejoin:miter;stroke:rgb(100%,0%,0%);stroke-opacity:0.5;stroke-miterlimit:10;" d="M 2.835276 2.834169 L -2.834646 -2.8338 " transform="matrix(2,0,0,2,6.169291,5.952756)"/>
<path style="fill-rule:nonzero;fill:rgb(50%,50%,0%);fill-opacity:0.1;stroke-width:0.566929;stroke-linecap:butt;stroke-linejoin:miter;stroke:rgb(100%,0%,0%);stroke-opacity:0.5;stroke-miterlimit:10;" d="M -0.000661294 189.693544 L 156.180979 189.693544 L 156.180979 0.000184547 L -0.000661294 0.000184547 Z M -0.000661294 189.693544 " transform="matrix(2,0,0,2,6.169291,5.952756)"/>
<path style="fill:none;stroke-width:0.566929;stroke-linecap:butt;stroke-linejoin:miter;stroke:rgb(100%,0%,0%);stroke-opacity:0.5;stroke-miterlimit:10;" d="M -2.834646 42.802919 L 2.835276 37.132997 " transform="matrix(2,0,0,2,6.169291,5.952756)"/>
<path style="fill:none;stroke-width:0.566929;stroke-linecap:butt;stroke-linejoin:miter;stroke:rgb(100%,0%,0%);stroke-opacity:0.5;stroke-miterlimit:10;" d="M 2.835276 42.802919 L -2.834646 37.132997 " transform="matrix(2,0,0,2,6.169291,5.952756)"/>
<path style="fill-rule:nonzero;fill:rgb(50%,50%,0%);fill-opacity:0.1;stroke-width:0.566929;stroke-linecap:butt;stroke-linejoin:miter;stroke:rgb(100%,0%,0%);stroke-opacity:0.5;stroke-miterlimit:10;" d="M -0.000661294 85.093935 L 125.764964 85.093935 L 125.764964 0.000184547 L -0.000661294 0.000184547 Z M -0.000661294 85.093935 " transform="matrix(2,0,0,2,6.169291,5.952756)"/>
<path style="fill:none;stroke-width:0.566929;stroke-linecap:butt;stroke-linejoin:miter;stroke:rgb(100%,0%,0%);stroke-opacity:0.5;stroke-miterlimit:10;" d="M 46.577464 42.802919 L 52.247386 37.132997 " transform="matrix(2,0,0,2,6.169291,5.952756)"/>
<path style="fill:none;stroke-width:0.566929;stroke-linecap:butt;stroke-linejoin:miter;stroke:rgb(100%,0%,0%);stroke-opacity:0.5;stroke-miterlimit:10;" d="M 52.247386 42.802919 L 46.577464 37.132997 " transform="matrix(2,0,0,2,6.169291,5.952756)"/>
<path style="fill-rule:nonzero;fill:rgb(50%,50%,0%);fill-opacity:0.1;stroke-width:0.566929;stroke-linecap:butt;stroke-linejoin:miter;stroke:rgb(100%,0%,0%);stroke-opacity:0.5;stroke-miterlimit:10;" d="M -0.000661294 85.093935 L 72.505198 85.093935 L 72.505198 4.486513 L -0.000661294 4.486513 Z M -0.000661294 85.093935 " transform="matrix(2,0,0,2,6.169291,5.952756)"/>
<path style="fill:none;stroke-width:0.566929;stroke-linecap:butt;stroke-linejoin:miter;stroke:rgb(100%,0%,0%);stroke-opacity:0.5;stroke-miterlimit:10;" d="M 82.20637 42.802919 L 87.876292 37.132997 " transform="matrix(2,0,0,2,6.169291,5.952756)"/>
<path style="fill:none;stroke-width:0.566929;stroke-linecap:butt;stroke-linejoin:miter;stroke:rgb(100%,0%,0%);stroke-opacity:0.5;stroke-miterlimit:10;" d="M 87.876292 42.802919 L 82.20637 37.132997 " transform="matrix(2,0,0,2,6.169291,5.952756)"/>
<path style="fill-rule:nonzero;fill:rgb(50%,50%,0%);fill-opacity:0.1;stroke-width:0.566929;stroke-linecap:butt;stroke-linejoin:miter;stroke:rgb(100%,0%,0%);stroke-opacity:0.5;stroke-miterlimit:10;" d="M 72.505198 55.69745 L 99.667307 55.69745 L 99.667307 0.000184547 L 72.505198 0.000184547 Z M 72.505198 55.69745 " transform="matrix(2,0,0,2,6.169291,5.952756)"/>
<path style="fill:none;stroke-width:0.566929;stroke-linecap:butt;stroke-linejoin:miter;stroke:rgb(100%,0%,0%);stroke-opacity:0.5;stroke-miterlimit:10;" d="M 96.833323 42.802919 L 102.503245 37.132997 " transform="matrix(2,0,0,2,6.169291,5.952756)"/>
<path style="fill:none;stroke-width:0.566929;stroke-linecap:butt;stroke-linejoin:miter;stroke:rgb(100%,0%,0%);stroke-opacity:0.5;stroke-miterlimit:10;" d="M 102.503245 42.802919 L 96.833323 37.132997 " transform="matrix(2,0,0,2,6.169291,5.952756)"/>
<path style="fill-rule:nonzero;fill:rgb(50%,50%,0%);fill-opacity:0.1;stroke-width:0.566929;stroke-linecap:butt;stroke-linejoin:miter;stroke:rgb(100%,0%,0%);stroke-opacity:0.5;stroke-miterlimit:10;" d="M 99.667307 42.013856 L 125.764964 42.013856 L 125.764964 31.826356 L 99.667307 31.826356 Z M 99.667307 42.013856 " transform="matrix(2,0,0,2,6.169291,5.952756)"/>
<path style=" stroke:none;fill-rule:nonzero;fill:rgb(0%,0%,0%);fill-opacity:1;" d="M 218.066406 72.824219 C 218.066406 72.105469 218.097656 71.886719 219.628906 71.886719 L 220.128906 71.886719 L 220.128906 71.261719 C 219.410156 71.324219 217.941406 71.324219 217.191406 71.324219 C 216.441406 71.324219 214.941406 71.324219 214.253906 71.261719 L 214.253906 71.886719 L 214.722656 71.886719 C 216.253906 71.886719 216.285156 72.105469 216.285156 72.824219 L 216.285156 77.480469 L 210.347656 77.480469 L 210.347656 72.824219 C 210.347656 72.105469 210.378906 71.886719 211.910156 71.886719 L 212.378906 71.886719 L 212.378906 71.261719 C 211.691406 71.324219 210.222656 71.324219 209.441406 71.324219 C 208.691406 71.324219 207.191406 71.324219 206.503906 71.261719 L 206.503906 71.886719 L 206.972656 71.886719 C 208.503906 71.886719 208.566406 72.105469 208.566406 72.824219 L 208.566406 83.324219 C 208.566406 84.042969 208.503906 84.261719 206.972656 84.261719 L 206.503906 84.261719 L 206.503906 84.886719 C 207.191406 84.824219 208.691406 84.824219 209.441406 84.824219 C 210.191406 84.824219 211.691406 84.824219 212.378906 84.886719 L 212.378906 84.261719 L 211.910156 84.261719 C 210.378906 84.261719 210.347656 84.042969 210.347656 83.324219 L 210.347656 78.105469 L 216.285156 78.105469 L 216.285156 83.324219 C 216.285156 84.042969 216.253906 84.261719 214.722656 84.261719 L 214.253906 84.261719 L 214.253906 84.886719 C 214.941406 84.824219 216.410156 84.824219 217.160156 84.824219 C 217.941406 84.824219 219.410156 84.824219 220.128906 84.886719 L 220.128906 84.261719 L 219.628906 84.261719 C 218.097656 84.261719 218.066406 84.042969 218.066406 83.324219 Z M 218.066406 72.824219 "/>
<path style=" stroke:none;fill-rule:nonzero;fill:rgb(0%,0%,0%);fill-opacity:1;" d="M 224.324219 76.074219 L 221.542969 76.292969 L 221.542969 76.917969 C 222.824219 76.917969 223.011719 77.042969 223.011719 78.011719 L 223.011719 83.386719 C 223.011719 84.261719 222.792969 84.261719 221.449219 84.261719 L 221.449219 84.886719 C 222.074219 84.855469 223.167969 84.824219 223.636719 84.824219 C 224.355469 84.824219 225.042969 84.855469 225.730469 84.886719 L 225.730469 84.261719 C 224.386719 84.261719 224.324219 84.167969 224.324219 83.386719 Z M 224.386719 72.605469 C 224.386719 71.980469 223.917969 71.542969 223.355469 71.542969 C 222.730469 71.542969 222.292969 72.074219 222.292969 72.605469 C 222.292969 73.136719 222.730469 73.667969 223.355469 73.667969 C 223.917969 73.667969 224.386719 73.230469 224.386719 72.605469 Z M 224.386719 72.605469 "/>
<path style=" stroke:none;fill-rule:nonzero;fill:rgb(0%,0%,0%);fill-opacity:1;" d="M 230.765625 81.449219 C 229.015625 81.449219 229.015625 79.449219 229.015625 79.011719 C 229.015625 78.480469 229.046875 77.824219 229.328125 77.324219 C 229.484375 77.105469 229.953125 76.542969 230.765625 76.542969 C 232.484375 76.542969 232.484375 78.511719 232.484375 78.980469 C 232.484375 79.511719 232.484375 80.167969 232.171875 80.667969 C 232.015625 80.886719 231.546875 81.449219 230.765625 81.449219 Z M 228.453125 82.230469 C 228.453125 82.167969 228.453125 81.699219 228.765625 81.292969 C 229.546875 81.855469 230.390625 81.917969 230.765625 81.917969 C 232.609375 81.917969 233.984375 80.542969 233.984375 79.011719 C 233.984375 78.261719 233.671875 77.542969 233.171875 77.074219 C 233.890625 76.386719 234.609375 76.292969 234.953125 76.292969 C 235.015625 76.292969 235.109375 76.292969 235.171875 76.324219 C 234.953125 76.386719 234.828125 76.605469 234.828125 76.855469 C 234.828125 77.199219 235.109375 77.417969 235.421875 77.417969 C 235.609375 77.417969 235.984375 77.292969 235.984375 76.824219 C 235.984375 76.480469 235.765625 75.855469 234.984375 75.855469 C 234.578125 75.855469 233.703125 75.980469 232.859375 76.792969 C 232.015625 76.136719 231.203125 76.074219 230.765625 76.074219 C 228.890625 76.074219 227.515625 77.449219 227.515625 78.980469 C 227.515625 79.855469 227.953125 80.605469 228.453125 81.042969 C 228.203125 81.324219 227.828125 81.980469 227.828125 82.699219 C 227.828125 83.324219 228.109375 84.074219 228.734375 84.480469 C 227.515625 84.792969 226.890625 85.667969 226.890625 86.449219 C 226.890625 87.886719 228.859375 88.980469 231.296875 88.980469 C 233.640625 88.980469 235.703125 87.980469 235.703125 86.417969 C 235.703125 85.730469 235.453125 84.699219 234.421875 84.136719 C 233.359375 83.605469 232.203125 83.605469 230.984375 83.605469 C 230.484375 83.605469 229.640625 83.605469 229.484375 83.574219 C 228.859375 83.480469 228.453125 82.886719 228.453125 82.230469 Z M 231.328125 88.542969 C 229.296875 88.542969 227.921875 87.511719 227.921875 86.449219 C 227.921875 85.542969 228.671875 84.792969 229.546875 84.761719 L 230.734375 84.761719 C 232.453125 84.761719 234.671875 84.761719 234.671875 86.449219 C 234.671875 87.542969 233.265625 88.542969 231.328125 88.542969 Z M 231.328125 88.542969 "/>
<path style=" stroke:none;fill-rule:nonzero;fill:rgb(0%,0%,0%);fill-opacity:1;" d="M 245.445312 78.511719 C 245.445312 76.917969 245.351562 75.324219 244.664062 73.855469 C 243.757812 71.917969 242.101562 71.605469 241.289062 71.605469 C 240.070312 71.605469 238.632812 72.136719 237.789062 73.980469 C 237.164062 75.355469 237.070312 76.917969 237.070312 78.511719 C 237.070312 80.011719 237.132812 81.792969 237.976562 83.324219 C 238.820312 84.917969 240.289062 85.324219 241.257812 85.324219 C 242.320312 85.324219 243.851562 84.917969 244.726562 83.011719 C 245.351562 81.636719 245.445312 80.074219 245.445312 78.511719 Z M 241.257812 84.886719 C 240.476562 84.886719 239.289062 84.386719 238.945312 82.480469 C 238.726562 81.292969 238.726562 79.449219 238.726562 78.261719 C 238.726562 76.980469 238.726562 75.667969 238.882812 74.605469 C 239.257812 72.230469 240.757812 72.042969 241.257812 72.042969 C 241.914062 72.042969 243.226562 72.417969 243.601562 74.386719 C 243.820312 75.511719 243.820312 77.011719 243.820312 78.261719 C 243.820312 79.761719 243.820312 81.105469 243.601562 82.386719 C 243.289062 84.292969 242.164062 84.886719 241.257812 84.886719 Z M 241.257812 84.886719 "/>
<path style=" stroke:none;fill-rule:nonzero;fill:rgb(0%,0%,0%);fill-opacity:1;" d="M 255.949219 80.730469 L 256.699219 71.636719 C 256.699219 70.980469 256.167969 70.605469 255.667969 70.605469 C 255.136719 70.605469 254.605469 70.980469 254.605469 71.636719 L 255.386719 80.699219 C 255.386719 81.011719 255.417969 81.167969 255.667969 81.167969 C 255.855469 81.167969 255.917969 81.074219 255.949219 80.730469 Z M 256.699219 83.824219 C 256.699219 83.261719 256.230469 82.761719 255.667969 82.761719 C 255.074219 82.761719 254.605469 83.261719 254.605469 83.824219 C 254.605469 84.417969 255.074219 84.886719 255.667969 84.886719 C 256.230469 84.886719 256.699219 84.417969 256.699219 83.824219 Z M 256.699219 83.824219 "/>
<path style="fill:none;stroke-width:0.566929;stroke-linecap:butt;stroke-linejoin:miter;stroke:rgb(100%,0%,0%);stroke-opacity:0.5;stroke-miterlimit:10;" d="M -2.834646 144.222841 L 2.835276 138.552919 " transform="matrix(2,0,0,2,6.169291,5.952756)"/>
<path style="fill:none;stroke-width:0.566929;stroke-linecap:butt;stroke-linejoin:miter;stroke:rgb(100%,0%,0%);stroke-opacity:0.5;stroke-miterlimit:10;" d="M 2.835276 144.222841 L -2.834646 138.552919 " transform="matrix(2,0,0,2,6.169291,5.952756)"/>
<path style="fill-rule:nonzero;fill:rgb(50%,50%,0%);fill-opacity:0.1;stroke-width:0.566929;stroke-linecap:butt;stroke-linejoin:miter;stroke:rgb(100%,0%,0%);stroke-opacity:0.5;stroke-miterlimit:10;" d="M -0.000661294 189.693544 L 156.180979 189.693544 L 156.180979 85.093935 L -0.000661294 85.093935 Z M -0.000661294 189.693544 " transform="matrix(2,0,0,2,6.169291,5.952756)"/>
<path style="fill:none;stroke-width:0.566929;stroke-linecap:butt;stroke-linejoin:miter;stroke:rgb(100%,0%,0%);stroke-opacity:0.5;stroke-miterlimit:10;" d="M 38.063792 144.222841 L 43.733714 138.552919 " transform="matrix(2,0,0,2,6.169291,5.952756)"/>
<path style="fill:none;stroke-width:0.566929;stroke-linecap:butt;stroke-linejoin:miter;stroke:rgb(100%,0%,0%);stroke-opacity:0.5;stroke-miterlimit:10;" d="M 43.733714 144.222841 L 38.063792 138.552919 " transform="matrix(2,0,0,2,6.169291,5.952756)"/>
<path style="fill-rule:nonzero;fill:rgb(50%,50%,0%);fill-opacity:0.1;stroke-width:0.566929;stroke-linecap:butt;stroke-linejoin:miter;stroke:rgb(100%,0%,0%);stroke-opacity:0.5;stroke-miterlimit:10;" d="M -0.000661294 169.039247 L 55.774729 169.039247 L 55.774729 85.093935 L -0.000661294 85.093935 Z M -0.000661294 169.039247 " transform="matrix(2,0,0,2,6.169291,5.952756)"/>
<path style="fill:none;stroke-width:0.566929;stroke-linecap:butt;stroke-linejoin:miter;stroke:rgb(100%,0%,0%);stroke-opacity:0.5;stroke-miterlimit:10;" d="M 70.970042 144.222841 L 76.639964 138.552919 " transform="matrix(2,0,0,2,6.169291,5.952756)"/>
<path style="fill:none;stroke-width:0.566929;stroke-linecap:butt;stroke-linejoin:miter;stroke:rgb(100%,0%,0%);stroke-opacity:0.5;stroke-miterlimit:10;" d="M 76.639964 144.222841 L 70.970042 138.552919 " transform="matrix(2,0,0,2,6.169291,5.952756)"/>
<path style="fill-rule:nonzero;fill:rgb(50%,50%,0%);fill-opacity:0.1;stroke-width:0.566929;stroke-linecap:butt;stroke-linejoin:miter;stroke:rgb(100%,0%,0%);stroke-opacity:0.5;stroke-miterlimit:10;" d="M 55.774729 189.693544 L 130.083323 189.693544 L 130.083323 118.300966 L 55.774729 118.300966 Z M 55.774729 189.693544 " transform="matrix(2,0,0,2,6.169291,5.952756)"/>
<path style="fill:none;stroke-width:0.566929;stroke-linecap:butt;stroke-linejoin:miter;stroke:rgb(100%,0%,0%);stroke-opacity:0.5;stroke-miterlimit:10;" d="M 127.249339 144.222841 L 132.919261 138.552919 " transform="matrix(2,0,0,2,6.169291,5.952756)"/>
<path style="fill:none;stroke-width:0.566929;stroke-linecap:butt;stroke-linejoin:miter;stroke:rgb(100%,0%,0%);stroke-opacity:0.5;stroke-miterlimit:10;" d="M 132.919261 144.222841 L 127.249339 138.552919 " transform="matrix(2,0,0,2,6.169291,5.952756)"/>
<path style="fill-rule:nonzero;fill:rgb(50%,50%,0%);fill-opacity:0.1;stroke-width:0.566929;stroke-linecap:butt;stroke-linejoin:miter;stroke:rgb(100%,0%,0%);stroke-opacity:0.5;stroke-miterlimit:10;" d="M 130.083323 143.433778 L 156.180979 143.433778 L 156.180979 133.246278 L 130.083323 133.246278 Z M 130.083323 143.433778 " transform="matrix(2,0,0,2,6.169291,5.952756)"/>
<path style=" stroke:none;fill-rule:nonzero;fill:rgb(0%,0%,0%);fill-opacity:1;" d="M 278.898438 275.664062 C 278.898438 274.945312 278.929688 274.726562 280.460938 274.726562 L 280.960938 274.726562 L 280.960938 274.101562 C 280.242188 274.164062 278.773438 274.164062 278.023438 274.164062 C 277.273438 274.164062 275.773438 274.164062 275.085938 274.101562 L 275.085938 274.726562 L 275.554688 274.726562 C 277.085938 274.726562 277.117188 274.945312 277.117188 275.664062 L 277.117188 280.320312 L 271.179688 280.320312 L 271.179688 275.664062 C 271.179688 274.945312 271.210938 274.726562 272.742188 274.726562 L 273.210938 274.726562 L 273.210938 274.101562 C 272.523438 274.164062 271.054688 274.164062 270.273438 274.164062 C 269.523438 274.164062 268.023438 274.164062 267.335938 274.101562 L 267.335938 274.726562 L 267.804688 274.726562 C 269.335938 274.726562 269.398438 274.945312 269.398438 275.664062 L 269.398438 286.164062 C 269.398438 286.882812 269.335938 287.101562 267.804688 287.101562 L 267.335938 287.101562 L 267.335938 287.726562 C 268.023438 287.664062 269.523438 287.664062 270.273438 287.664062 C 271.023438 287.664062 272.523438 287.664062 273.210938 287.726562 L 273.210938 287.101562 L 272.742188 287.101562 C 271.210938 287.101562 271.179688 286.882812 271.179688 286.164062 L 271.179688 280.945312 L 277.117188 280.945312 L 277.117188 286.164062 C 277.117188 286.882812 277.085938 287.101562 275.554688 287.101562 L 275.085938 287.101562 L 275.085938 287.726562 C 275.773438 287.664062 277.242188 287.664062 277.992188 287.664062 C 278.773438 287.664062 280.242188 287.664062 280.960938 287.726562 L 280.960938 287.101562 L 280.460938 287.101562 C 278.929688 287.101562 278.898438 286.882812 278.898438 286.164062 Z M 278.898438 275.664062 "/>
<path style=" stroke:none;fill-rule:nonzero;fill:rgb(0%,0%,0%);fill-opacity:1;" d="M 285.15625 278.914062 L 282.375 279.132812 L 282.375 279.757812 C 283.65625 279.757812 283.84375 279.882812 283.84375 280.851562 L 283.84375 286.226562 C 283.84375 287.101562 283.625 287.101562 282.28125 287.101562 L 282.28125 287.726562 C 282.90625 287.695312 284 287.664062 284.46875 287.664062 C 285.1875 287.664062 285.875 287.695312 286.5625 287.726562 L 286.5625 287.101562 C 285.21875 287.101562 285.15625 287.007812 285.15625 286.226562 Z M 285.21875 275.445312 C 285.21875 274.820312 284.75 274.382812 284.1875 274.382812 C 283.5625 274.382812 283.125 274.914062 283.125 275.445312 C 283.125 275.976562 283.5625 276.507812 284.1875 276.507812 C 284.75 276.507812 285.21875 276.070312 285.21875 275.445312 Z M 285.21875 275.445312 "/>
<path style=" stroke:none;fill-rule:nonzero;fill:rgb(0%,0%,0%);fill-opacity:1;" d="M 291.597656 284.289062 C 289.847656 284.289062 289.847656 282.289062 289.847656 281.851562 C 289.847656 281.320312 289.878906 280.664062 290.160156 280.164062 C 290.316406 279.945312 290.785156 279.382812 291.597656 279.382812 C 293.316406 279.382812 293.316406 281.351562 293.316406 281.820312 C 293.316406 282.351562 293.316406 283.007812 293.003906 283.507812 C 292.847656 283.726562 292.378906 284.289062 291.597656 284.289062 Z M 289.285156 285.070312 C 289.285156 285.007812 289.285156 284.539062 289.597656 284.132812 C 290.378906 284.695312 291.222656 284.757812 291.597656 284.757812 C 293.441406 284.757812 294.816406 283.382812 294.816406 281.851562 C 294.816406 281.101562 294.503906 280.382812 294.003906 279.914062 C 294.722656 279.226562 295.441406 279.132812 295.785156 279.132812 C 295.847656 279.132812 295.941406 279.132812 296.003906 279.164062 C 295.785156 279.226562 295.660156 279.445312 295.660156 279.695312 C 295.660156 280.039062 295.941406 280.257812 296.253906 280.257812 C 296.441406 280.257812 296.816406 280.132812 296.816406 279.664062 C 296.816406 279.320312 296.597656 278.695312 295.816406 278.695312 C 295.410156 278.695312 294.535156 278.820312 293.691406 279.632812 C 292.847656 278.976562 292.035156 278.914062 291.597656 278.914062 C 289.722656 278.914062 288.347656 280.289062 288.347656 281.820312 C 288.347656 282.695312 288.785156 283.445312 289.285156 283.882812 C 289.035156 284.164062 288.660156 284.820312 288.660156 285.539062 C 288.660156 286.164062 288.941406 286.914062 289.566406 287.320312 C 288.347656 287.632812 287.722656 288.507812 287.722656 289.289062 C 287.722656 290.726562 289.691406 291.820312 292.128906 291.820312 C 294.472656 291.820312 296.535156 290.820312 296.535156 289.257812 C 296.535156 288.570312 296.285156 287.539062 295.253906 286.976562 C 294.191406 286.445312 293.035156 286.445312 291.816406 286.445312 C 291.316406 286.445312 290.472656 286.445312 290.316406 286.414062 C 289.691406 286.320312 289.285156 285.726562 289.285156 285.070312 Z M 292.160156 291.382812 C 290.128906 291.382812 288.753906 290.351562 288.753906 289.289062 C 288.753906 288.382812 289.503906 287.632812 290.378906 287.601562 L 291.566406 287.601562 C 293.285156 287.601562 295.503906 287.601562 295.503906 289.289062 C 295.503906 290.382812 294.097656 291.382812 292.160156 291.382812 Z M 292.160156 291.382812 "/>
<path style=" stroke:none;fill-rule:nonzero;fill:rgb(0%,0%,0%);fill-opacity:1;" d="M 302.996094 274.976562 C 302.996094 274.476562 302.996094 274.445312 302.527344 274.445312 C 301.277344 275.726562 299.527344 275.726562 298.902344 275.726562 L 298.902344 276.351562 C 299.308594 276.351562 300.464844 276.351562 301.496094 275.820312 L 301.496094 286.164062 C 301.496094 286.882812 301.433594 287.101562 299.652344 287.101562 L 299.027344 287.101562 L 299.027344 287.726562 C 299.714844 287.664062 301.433594 287.664062 302.246094 287.664062 C 303.027344 287.664062 304.777344 287.664062 305.464844 287.726562 L 305.464844 287.101562 L 304.839844 287.101562 C 303.027344 287.101562 302.996094 286.882812 302.996094 286.164062 Z M 302.996094 274.976562 "/>
<path style=" stroke:none;fill-rule:nonzero;fill:rgb(0%,0%,0%);fill-opacity:1;" d="M 316.78125 283.570312 L 317.53125 274.476562 C 317.53125 273.820312 317 273.445312 316.5 273.445312 C 315.96875 273.445312 315.4375 273.820312 315.4375 274.476562 L 316.21875 283.539062 C 316.21875 283.851562 316.25 284.007812 316.5 284.007812 C 316.6875 284.007812 316.75 283.914062 316.78125 283.570312 Z M 317.53125 286.664062 C 317.53125 286.101562 317.0625 285.601562 316.5 285.601562 C 315.90625 285.601562 315.4375 286.101562 315.4375 286.664062 C 315.4375 287.257812 315.90625 287.726562 316.5 287.726562 C 317.0625 287.726562 317.53125 287.257812 317.53125 286.664062 Z M 317.53125 286.664062 "/>
</g>
</svg>
