<?xml version="1.0" encoding="UTF-8"?>
<svg xmlns="http://www.w3.org/2000/svg" xmlns:xlink="http://www.w3.org/1999/xlink" width="295.363074pt" height="378.553325pt" viewBox="0 0 295.363074 378.553325" version="1.1">
<g id="surface77">
<path style="fill:none;stroke-width:0.566929;stroke-linecap:butt;stroke-linejoin:miter;stroke:rgb(100%,0%,0%);stroke-opacity:0.5;stroke-miterlimit:10;" d="M -2.834646 2.834169 L 2.835276 -2.8338 " transform="matrix(2,0,0,2,6.169291,5.952756)"/>
<path style="fill:none;stroke-width:0.566929;stroke-linecap:butt;stroke-linejoin:miter;stroke:rgb(100%,0%,0%);stroke-opacity:0.5;stroke-miterlimit:10;" d="M 2.835276 2.834169 L -2.834646 -2.8338 " transform="matrix(2,0,0,2,6.169291,5.952756)"/>
<path style="fill-rule:nonzero;fill:rgb(50%,50%,0%);fill-opacity:0.1;stroke-width:0.566929;stroke-linecap:butt;stroke-linejoin:miter;stroke:rgb(100%,0%,0%);stroke-opacity:0.5;stroke-miterlimit:10;" d="M -0.000661294 186.050966 L 144.346995 186.050966 L 144.346995 0.000184547 L -0.000661294 0.000184547 Z M -0.000661294 186.050966 " transform="matrix(2,0,0,2,6.169291,5.952756)"/>
<path style="fill:none;stroke-width:0.566929;stroke-linecap:butt;stroke-linejoin:miter;stroke:rgb(100%,0%,0%);stroke-opacity:0.5;stroke-miterlimit:10;" d="M -2.834646 49.945497 L 2.835276 44.275575 " transform="matrix(2,0,0,2,6.169291,5.952756)"/>
<path style="fill:none;stroke-width:0.566929;stroke-linecap:butt;stroke-linejoin:miter;stroke:rgb(100%,0%,0%);stroke-opacity:0.5;stroke-miterlimit:10;" d="M 2.835276 49.945497 L -2.834646 44.275575 " transform="matrix(2,0,0,2,6.169291,5.952756)"/>
<path style="fill-rule:nonzero;fill:rgb(50%,50%,0%);fill-opacity:0.1;stroke-width:0.566929;stroke-linecap:butt;stroke-linejoin:miter;stroke:rgb(100%,0%,0%);stroke-opacity:0.5;stroke-miterlimit:10;" d="M -0.000661294 101.080263 L 123.212229 101.080263 L 123.212229 0.000184547 L -0.000661294 0.000184547 Z M -0.000661294 101.080263 " transform="matrix(2,0,0,2,6.169291,5.952756)"/>
<path style="fill:none;stroke-width:0.566929;stroke-linecap:butt;stroke-linejoin:miter;stroke:rgb(100%,0%,0%);stroke-opacity:0.5;stroke-miterlimit:10;" d="M 31.999339 49.945497 L 37.667307 44.275575 " transform="matrix(2,0,0,2,6.169291,5.952756)"/>
<path style="fill:none;stroke-width:0.566929;stroke-linecap:butt;stroke-linejoin:miter;stroke:rgb(100%,0%,0%);stroke-opacity:0.5;stroke-miterlimit:10;" d="M 37.667307 49.945497 L 31.999339 44.275575 " transform="matrix(2,0,0,2,6.169291,5.952756)"/>
<path style="fill-rule:nonzero;fill:rgb(50%,50%,0%);fill-opacity:0.1;stroke-width:0.566929;stroke-linecap:butt;stroke-linejoin:miter;stroke:rgb(100%,0%,0%);stroke-opacity:0.5;stroke-miterlimit:10;" d="M -0.000661294 63.017763 L 50.11262 63.017763 L 50.11262 37.599794 L -0.000661294 37.599794 Z M -0.000661294 63.017763 " transform="matrix(2,0,0,2,6.169291,5.952756)"/>
<path style="fill:none;stroke-width:0.566929;stroke-linecap:butt;stroke-linejoin:miter;stroke:rgb(100%,0%,0%);stroke-opacity:0.5;stroke-miterlimit:10;" d="M 58.044261 49.945497 L 63.714182 44.275575 " transform="matrix(2,0,0,2,6.169291,5.952756)"/>
<path style="fill:none;stroke-width:0.566929;stroke-linecap:butt;stroke-linejoin:miter;stroke:rgb(100%,0%,0%);stroke-opacity:0.5;stroke-miterlimit:10;" d="M 63.714182 49.945497 L 58.044261 44.275575 " transform="matrix(2,0,0,2,6.169291,5.952756)"/>
<path style="fill-rule:nonzero;fill:rgb(50%,50%,0%);fill-opacity:0.1;stroke-width:0.566929;stroke-linecap:butt;stroke-linejoin:miter;stroke:rgb(100%,0%,0%);stroke-opacity:0.5;stroke-miterlimit:10;" d="M 50.11262 101.080263 L 97.114573 101.080263 L 97.114573 0.000184547 L 50.11262 0.000184547 Z M 50.11262 101.080263 " transform="matrix(2,0,0,2,6.169291,5.952756)"/>
<path style="fill:none;stroke-width:0.566929;stroke-linecap:butt;stroke-linejoin:miter;stroke:rgb(100%,0%,0%);stroke-opacity:0.5;stroke-miterlimit:10;" d="M 94.280589 49.945497 L 99.948557 44.275575 " transform="matrix(2,0,0,2,6.169291,5.952756)"/>
<path style="fill:none;stroke-width:0.566929;stroke-linecap:butt;stroke-linejoin:miter;stroke:rgb(100%,0%,0%);stroke-opacity:0.5;stroke-miterlimit:10;" d="M 99.948557 49.945497 L 94.280589 44.275575 " transform="matrix(2,0,0,2,6.169291,5.952756)"/>
<path style="fill-rule:nonzero;fill:rgb(50%,50%,0%);fill-opacity:0.1;stroke-width:0.566929;stroke-linecap:butt;stroke-linejoin:miter;stroke:rgb(100%,0%,0%);stroke-opacity:0.5;stroke-miterlimit:10;" d="M 97.114573 48.207216 L 123.212229 48.207216 L 123.212229 38.968935 L 97.114573 38.968935 Z M 97.114573 48.207216 " transform="matrix(2,0,0,2,6.169291,5.952756)"/>
<path style=" stroke:none;fill-rule:nonzero;fill:rgb(0%,0%,0%);fill-opacity:1;" d="M 212.960938 87.109375 C 212.960938 86.390625 212.992188 86.171875 214.523438 86.171875 L 215.023438 86.171875 L 215.023438 85.546875 C 214.304688 85.609375 212.835938 85.609375 212.085938 85.609375 C 211.335938 85.609375 209.835938 85.609375 209.148438 85.546875 L 209.148438 86.171875 L 209.617188 86.171875 C 211.148438 86.171875 211.179688 86.390625 211.179688 87.109375 L 211.179688 91.765625 L 205.242188 91.765625 L 205.242188 87.109375 C 205.242188 86.390625 205.273438 86.171875 206.804688 86.171875 L 207.273438 86.171875 L 207.273438 85.546875 C 206.585938 85.609375 205.117188 85.609375 204.335938 85.609375 C 203.585938 85.609375 202.085938 85.609375 201.398438 85.546875 L 201.398438 86.171875 L 201.867188 86.171875 C 203.398438 86.171875 203.460938 86.390625 203.460938 87.109375 L 203.460938 97.609375 C 203.460938 98.328125 203.398438 98.546875 201.867188 98.546875 L 201.398438 98.546875 L 201.398438 99.171875 C 202.085938 99.109375 203.585938 99.109375 204.335938 99.109375 C 205.085938 99.109375 206.585938 99.109375 207.273438 99.171875 L 207.273438 98.546875 L 206.804688 98.546875 C 205.273438 98.546875 205.242188 98.328125 205.242188 97.609375 L 205.242188 92.390625 L 211.179688 92.390625 L 211.179688 97.609375 C 211.179688 98.328125 211.148438 98.546875 209.617188 98.546875 L 209.148438 98.546875 L 209.148438 99.171875 C 209.835938 99.109375 211.304688 99.109375 212.054688 99.109375 C 212.835938 99.109375 214.304688 99.109375 215.023438 99.171875 L 215.023438 98.546875 L 214.523438 98.546875 C 212.992188 98.546875 212.960938 98.328125 212.960938 97.609375 Z M 212.960938 87.109375 "/>
<path style=" stroke:none;fill-rule:nonzero;fill:rgb(0%,0%,0%);fill-opacity:1;" d="M 219.21875 90.359375 L 216.4375 90.578125 L 216.4375 91.203125 C 217.71875 91.203125 217.90625 91.328125 217.90625 92.296875 L 217.90625 97.671875 C 217.90625 98.546875 217.6875 98.546875 216.34375 98.546875 L 216.34375 99.171875 C 216.96875 99.140625 218.0625 99.109375 218.53125 99.109375 C 219.25 99.109375 219.9375 99.140625 220.625 99.171875 L 220.625 98.546875 C 219.28125 98.546875 219.21875 98.453125 219.21875 97.671875 Z M 219.28125 86.890625 C 219.28125 86.265625 218.8125 85.828125 218.25 85.828125 C 217.625 85.828125 217.1875 86.359375 217.1875 86.890625 C 217.1875 87.421875 217.625 87.953125 218.25 87.953125 C 218.8125 87.953125 219.28125 87.515625 219.28125 86.890625 Z M 219.28125 86.890625 "/>
<path style=" stroke:none;fill-rule:nonzero;fill:rgb(0%,0%,0%);fill-opacity:1;" d="M 225.660156 95.734375 C 223.910156 95.734375 223.910156 93.734375 223.910156 93.296875 C 223.910156 92.765625 223.941406 92.109375 224.222656 91.609375 C 224.378906 91.390625 224.847656 90.828125 225.660156 90.828125 C 227.378906 90.828125 227.378906 92.796875 227.378906 93.265625 C 227.378906 93.796875 227.378906 94.453125 227.066406 94.953125 C 226.910156 95.171875 226.441406 95.734375 225.660156 95.734375 Z M 223.347656 96.515625 C 223.347656 96.453125 223.347656 95.984375 223.660156 95.578125 C 224.441406 96.140625 225.285156 96.203125 225.660156 96.203125 C 227.503906 96.203125 228.878906 94.828125 228.878906 93.296875 C 228.878906 92.546875 228.566406 91.828125 228.066406 91.359375 C 228.785156 90.671875 229.503906 90.578125 229.847656 90.578125 C 229.910156 90.578125 230.003906 90.578125 230.066406 90.609375 C 229.847656 90.671875 229.722656 90.890625 229.722656 91.140625 C 229.722656 91.484375 230.003906 91.703125 230.316406 91.703125 C 230.503906 91.703125 230.878906 91.578125 230.878906 91.109375 C 230.878906 90.765625 230.660156 90.140625 229.878906 90.140625 C 229.472656 90.140625 228.597656 90.265625 227.753906 91.078125 C 226.910156 90.421875 226.097656 90.359375 225.660156 90.359375 C 223.785156 90.359375 222.410156 91.734375 222.410156 93.265625 C 222.410156 94.140625 222.847656 94.890625 223.347656 95.328125 C 223.097656 95.609375 222.722656 96.265625 222.722656 96.984375 C 222.722656 97.609375 223.003906 98.359375 223.628906 98.765625 C 222.410156 99.078125 221.785156 99.953125 221.785156 100.734375 C 221.785156 102.171875 223.753906 103.265625 226.191406 103.265625 C 228.535156 103.265625 230.597656 102.265625 230.597656 100.703125 C 230.597656 100.015625 230.347656 98.984375 229.316406 98.421875 C 228.253906 97.890625 227.097656 97.890625 225.878906 97.890625 C 225.378906 97.890625 224.535156 97.890625 224.378906 97.859375 C 223.753906 97.765625 223.347656 97.171875 223.347656 96.515625 Z M 226.222656 102.828125 C 224.191406 102.828125 222.816406 101.796875 222.816406 100.734375 C 222.816406 99.828125 223.566406 99.078125 224.441406 99.046875 L 225.628906 99.046875 C 227.347656 99.046875 229.566406 99.046875 229.566406 100.734375 C 229.566406 101.828125 228.160156 102.828125 226.222656 102.828125 Z M 226.222656 102.828125 "/>
<path style=" stroke:none;fill-rule:nonzero;fill:rgb(0%,0%,0%);fill-opacity:1;" d="M 240.339844 92.796875 C 240.339844 91.203125 240.246094 89.609375 239.558594 88.140625 C 238.652344 86.203125 236.996094 85.890625 236.183594 85.890625 C 234.964844 85.890625 233.527344 86.421875 232.683594 88.265625 C 232.058594 89.640625 231.964844 91.203125 231.964844 92.796875 C 231.964844 94.296875 232.027344 96.078125 232.871094 97.609375 C 233.714844 99.203125 235.183594 99.609375 236.152344 99.609375 C 237.214844 99.609375 238.746094 99.203125 239.621094 97.296875 C 240.246094 95.921875 240.339844 94.359375 240.339844 92.796875 Z M 236.152344 99.171875 C 235.371094 99.171875 234.183594 98.671875 233.839844 96.765625 C 233.621094 95.578125 233.621094 93.734375 233.621094 92.546875 C 233.621094 91.265625 233.621094 89.953125 233.777344 88.890625 C 234.152344 86.515625 235.652344 86.328125 236.152344 86.328125 C 236.808594 86.328125 238.121094 86.703125 238.496094 88.671875 C 238.714844 89.796875 238.714844 91.296875 238.714844 92.546875 C 238.714844 94.046875 238.714844 95.390625 238.496094 96.671875 C 238.183594 98.578125 237.058594 99.171875 236.152344 99.171875 Z M 236.152344 99.171875 "/>
<path style=" stroke:none;fill-rule:nonzero;fill:rgb(0%,0%,0%);fill-opacity:1;" d="M 250.84375 95.015625 L 251.59375 85.921875 C 251.59375 85.265625 251.0625 84.890625 250.5625 84.890625 C 250.03125 84.890625 249.5 85.265625 249.5 85.921875 L 250.28125 94.984375 C 250.28125 95.296875 250.3125 95.453125 250.5625 95.453125 C 250.75 95.453125 250.8125 95.359375 250.84375 95.015625 Z M 251.59375 98.109375 C 251.59375 97.546875 251.125 97.046875 250.5625 97.046875 C 249.96875 97.046875 249.5 97.546875 249.5 98.109375 C 249.5 98.703125 249.96875 99.171875 250.5625 99.171875 C 251.125 99.171875 251.59375 98.703125 251.59375 98.109375 Z M 251.59375 98.109375 "/>
<path style="fill:none;stroke-width:0.566929;stroke-linecap:butt;stroke-linejoin:miter;stroke:rgb(100%,0%,0%);stroke-opacity:0.5;stroke-miterlimit:10;" d="M -2.834646 154.818544 L 2.835276 149.148622 " transform="matrix(2,0,0,2,6.169291,5.952756)"/>
<path style="fill:none;stroke-width:0.566929;stroke-linecap:butt;stroke-linejoin:miter;stroke:rgb(100%,0%,0%);stroke-opacity:0.5;stroke-miterlimit:10;" d="M 2.835276 154.818544 L -2.834646 149.148622 " transform="matrix(2,0,0,2,6.169291,5.952756)"/>
<path style="fill-rule:nonzero;fill:rgb(50%,50%,0%);fill-opacity:0.1;stroke-width:0.566929;stroke-linecap:butt;stroke-linejoin:miter;stroke:rgb(100%,0%,0%);stroke-opacity:0.5;stroke-miterlimit:10;" d="M -0.000661294 186.050966 L 144.346995 186.050966 L 144.346995 101.080263 L -0.000661294 101.080263 Z M -0.000661294 186.050966 " transform="matrix(2,0,0,2,6.169291,5.952756)"/>
<path style="fill:none;stroke-width:0.566929;stroke-linecap:butt;stroke-linejoin:miter;stroke:rgb(100%,0%,0%);stroke-opacity:0.5;stroke-miterlimit:10;" d="M 13.829417 154.818544 L 19.499339 149.148622 " transform="matrix(2,0,0,2,6.169291,5.952756)"/>
<path style="fill:none;stroke-width:0.566929;stroke-linecap:butt;stroke-linejoin:miter;stroke:rgb(100%,0%,0%);stroke-opacity:0.5;stroke-miterlimit:10;" d="M 19.499339 154.818544 L 13.829417 149.148622 " transform="matrix(2,0,0,2,6.169291,5.952756)"/>
<path style="fill-rule:nonzero;fill:rgb(50%,50%,0%);fill-opacity:0.1;stroke-width:0.566929;stroke-linecap:butt;stroke-linejoin:miter;stroke:rgb(100%,0%,0%);stroke-opacity:0.5;stroke-miterlimit:10;" d="M -0.000661294 171.543153 L 33.509104 171.543153 L 33.509104 101.080263 L -0.000661294 101.080263 Z M -0.000661294 171.543153 " transform="matrix(2,0,0,2,6.169291,5.952756)"/>
<path style="fill:none;stroke-width:0.566929;stroke-linecap:butt;stroke-linejoin:miter;stroke:rgb(100%,0%,0%);stroke-opacity:0.5;stroke-miterlimit:10;" d="M 69.040354 154.818544 L 74.710276 149.148622 " transform="matrix(2,0,0,2,6.169291,5.952756)"/>
<path style="fill:none;stroke-width:0.566929;stroke-linecap:butt;stroke-linejoin:miter;stroke:rgb(100%,0%,0%);stroke-opacity:0.5;stroke-miterlimit:10;" d="M 74.710276 154.818544 L 69.040354 149.148622 " transform="matrix(2,0,0,2,6.169291,5.952756)"/>
<path style="fill-rule:nonzero;fill:rgb(50%,50%,0%);fill-opacity:0.1;stroke-width:0.566929;stroke-linecap:butt;stroke-linejoin:miter;stroke:rgb(100%,0%,0%);stroke-opacity:0.5;stroke-miterlimit:10;" d="M 33.509104 186.050966 L 118.249339 186.050966 L 118.249339 137.804872 L 33.509104 137.804872 Z M 33.509104 186.050966 " transform="matrix(2,0,0,2,6.169291,5.952756)"/>
<path style="fill:none;stroke-width:0.566929;stroke-linecap:butt;stroke-linejoin:miter;stroke:rgb(100%,0%,0%);stroke-opacity:0.5;stroke-miterlimit:10;" d="M 115.415354 154.818544 L 121.083323 149.148622 " transform="matrix(2,0,0,2,6.169291,5.952756)"/>
<path style="fill:none;stroke-width:0.566929;stroke-linecap:butt;stroke-linejoin:miter;stroke:rgb(100%,0%,0%);stroke-opacity:0.5;stroke-miterlimit:10;" d="M 121.083323 154.818544 L 115.415354 149.148622 " transform="matrix(2,0,0,2,6.169291,5.952756)"/>
<path style="fill-rule:nonzero;fill:rgb(50%,50%,0%);fill-opacity:0.1;stroke-width:0.566929;stroke-linecap:butt;stroke-linejoin:miter;stroke:rgb(100%,0%,0%);stroke-opacity:0.5;stroke-miterlimit:10;" d="M 118.249339 153.084169 L 144.346995 153.084169 L 144.346995 143.843935 L 118.249339 143.843935 Z M 118.249339 153.084169 " transform="matrix(2,0,0,2,6.169291,5.952756)"/>
<path style=" stroke:none;fill-rule:nonzero;fill:rgb(0%,0%,0%);fill-opacity:1;" d="M 255.230469 296.859375 C 255.230469 296.140625 255.261719 295.921875 256.792969 295.921875 L 257.292969 295.921875 L 257.292969 295.296875 C 256.574219 295.359375 255.105469 295.359375 254.355469 295.359375 C 253.605469 295.359375 252.105469 295.359375 251.417969 295.296875 L 251.417969 295.921875 L 251.886719 295.921875 C 253.417969 295.921875 253.449219 296.140625 253.449219 296.859375 L 253.449219 301.515625 L 247.511719 301.515625 L 247.511719 296.859375 C 247.511719 296.140625 247.542969 295.921875 249.074219 295.921875 L 249.542969 295.921875 L 249.542969 295.296875 C 248.855469 295.359375 247.386719 295.359375 246.605469 295.359375 C 245.855469 295.359375 244.355469 295.359375 243.667969 295.296875 L 243.667969 295.921875 L 244.136719 295.921875 C 245.667969 295.921875 245.730469 296.140625 245.730469 296.859375 L 245.730469 307.359375 C 245.730469 308.078125 245.667969 308.296875 244.136719 308.296875 L 243.667969 308.296875 L 243.667969 308.921875 C 244.355469 308.859375 245.855469 308.859375 246.605469 308.859375 C 247.355469 308.859375 248.855469 308.859375 249.542969 308.921875 L 249.542969 308.296875 L 249.074219 308.296875 C 247.542969 308.296875 247.511719 308.078125 247.511719 307.359375 L 247.511719 302.140625 L 253.449219 302.140625 L 253.449219 307.359375 C 253.449219 308.078125 253.417969 308.296875 251.886719 308.296875 L 251.417969 308.296875 L 251.417969 308.921875 C 252.105469 308.859375 253.574219 308.859375 254.324219 308.859375 C 255.105469 308.859375 256.574219 308.859375 257.292969 308.921875 L 257.292969 308.296875 L 256.792969 308.296875 C 255.261719 308.296875 255.230469 308.078125 255.230469 307.359375 Z M 255.230469 296.859375 "/>
<path style=" stroke:none;fill-rule:nonzero;fill:rgb(0%,0%,0%);fill-opacity:1;" d="M 261.484375 300.109375 L 258.703125 300.328125 L 258.703125 300.953125 C 259.984375 300.953125 260.171875 301.078125 260.171875 302.046875 L 260.171875 307.421875 C 260.171875 308.296875 259.953125 308.296875 258.609375 308.296875 L 258.609375 308.921875 C 259.234375 308.890625 260.328125 308.859375 260.796875 308.859375 C 261.515625 308.859375 262.203125 308.890625 262.890625 308.921875 L 262.890625 308.296875 C 261.546875 308.296875 261.484375 308.203125 261.484375 307.421875 Z M 261.546875 296.640625 C 261.546875 296.015625 261.078125 295.578125 260.515625 295.578125 C 259.890625 295.578125 259.453125 296.109375 259.453125 296.640625 C 259.453125 297.171875 259.890625 297.703125 260.515625 297.703125 C 261.078125 297.703125 261.546875 297.265625 261.546875 296.640625 Z M 261.546875 296.640625 "/>
<path style=" stroke:none;fill-rule:nonzero;fill:rgb(0%,0%,0%);fill-opacity:1;" d="M 267.929688 305.484375 C 266.179688 305.484375 266.179688 303.484375 266.179688 303.046875 C 266.179688 302.515625 266.210938 301.859375 266.492188 301.359375 C 266.648438 301.140625 267.117188 300.578125 267.929688 300.578125 C 269.648438 300.578125 269.648438 302.546875 269.648438 303.015625 C 269.648438 303.546875 269.648438 304.203125 269.335938 304.703125 C 269.179688 304.921875 268.710938 305.484375 267.929688 305.484375 Z M 265.617188 306.265625 C 265.617188 306.203125 265.617188 305.734375 265.929688 305.328125 C 266.710938 305.890625 267.554688 305.953125 267.929688 305.953125 C 269.773438 305.953125 271.148438 304.578125 271.148438 303.046875 C 271.148438 302.296875 270.835938 301.578125 270.335938 301.109375 C 271.054688 300.421875 271.773438 300.328125 272.117188 300.328125 C 272.179688 300.328125 272.273438 300.328125 272.335938 300.359375 C 272.117188 300.421875 271.992188 300.640625 271.992188 300.890625 C 271.992188 301.234375 272.273438 301.453125 272.585938 301.453125 C 272.773438 301.453125 273.148438 301.328125 273.148438 300.859375 C 273.148438 300.515625 272.929688 299.890625 272.148438 299.890625 C 271.742188 299.890625 270.867188 300.015625 270.023438 300.828125 C 269.179688 300.171875 268.367188 300.109375 267.929688 300.109375 C 266.054688 300.109375 264.679688 301.484375 264.679688 303.015625 C 264.679688 303.890625 265.117188 304.640625 265.617188 305.078125 C 265.367188 305.359375 264.992188 306.015625 264.992188 306.734375 C 264.992188 307.359375 265.273438 308.109375 265.898438 308.515625 C 264.679688 308.828125 264.054688 309.703125 264.054688 310.484375 C 264.054688 311.921875 266.023438 313.015625 268.460938 313.015625 C 270.804688 313.015625 272.867188 312.015625 272.867188 310.453125 C 272.867188 309.765625 272.617188 308.734375 271.585938 308.171875 C 270.523438 307.640625 269.367188 307.640625 268.148438 307.640625 C 267.648438 307.640625 266.804688 307.640625 266.648438 307.609375 C 266.023438 307.515625 265.617188 306.921875 265.617188 306.265625 Z M 268.492188 312.578125 C 266.460938 312.578125 265.085938 311.546875 265.085938 310.484375 C 265.085938 309.578125 265.835938 308.828125 266.710938 308.796875 L 267.898438 308.796875 C 269.617188 308.796875 271.835938 308.796875 271.835938 310.484375 C 271.835938 311.578125 270.429688 312.578125 268.492188 312.578125 Z M 268.492188 312.578125 "/>
<path style=" stroke:none;fill-rule:nonzero;fill:rgb(0%,0%,0%);fill-opacity:1;" d="M 279.328125 296.171875 C 279.328125 295.671875 279.328125 295.640625 278.859375 295.640625 C 277.609375 296.921875 275.859375 296.921875 275.234375 296.921875 L 275.234375 297.546875 C 275.640625 297.546875 276.796875 297.546875 277.828125 297.015625 L 277.828125 307.359375 C 277.828125 308.078125 277.765625 308.296875 275.984375 308.296875 L 275.359375 308.296875 L 275.359375 308.921875 C 276.046875 308.859375 277.765625 308.859375 278.578125 308.859375 C 279.359375 308.859375 281.109375 308.859375 281.796875 308.921875 L 281.796875 308.296875 L 281.171875 308.296875 C 279.359375 308.296875 279.328125 308.078125 279.328125 307.359375 Z M 279.328125 296.171875 "/>
<path style=" stroke:none;fill-rule:nonzero;fill:rgb(0%,0%,0%);fill-opacity:1;" d="M 293.113281 304.765625 L 293.863281 295.671875 C 293.863281 295.015625 293.332031 294.640625 292.832031 294.640625 C 292.300781 294.640625 291.769531 295.015625 291.769531 295.671875 L 292.550781 304.734375 C 292.550781 305.046875 292.582031 305.203125 292.832031 305.203125 C 293.019531 305.203125 293.082031 305.109375 293.113281 304.765625 Z M 293.863281 307.859375 C 293.863281 307.296875 293.394531 306.796875 292.832031 306.796875 C 292.238281 306.796875 291.769531 307.296875 291.769531 307.859375 C 291.769531 308.453125 292.238281 308.921875 292.832031 308.921875 C 293.394531 308.921875 293.863281 308.453125 293.863281 307.859375 Z M 293.863281 307.859375 "/>
</g>
</svg>
