<?xml version="1.0" encoding="UTF-8"?>
<svg xmlns="http://www.w3.org/2000/svg" xmlns:xlink="http://www.w3.org/1999/xlink" width="281pt" height="279pt" viewBox="0 0 281 279" version="1.1">
<g id="surface245">
<path style="fill:none;stroke-width:0.566929;stroke-linecap:butt;stroke-linejoin:miter;stroke:rgb(100%,0%,0%);stroke-opacity:0.5;stroke-miterlimit:10;" d="M -2.833984 2.833984 L 2.833984 -2.833984 " transform="matrix(2,0,0,2,8,8)"/>
<path style="fill:none;stroke-width:0.566929;stroke-linecap:butt;stroke-linejoin:miter;stroke:rgb(100%,0%,0%);stroke-opacity:0.5;stroke-miterlimit:10;" d="M 2.833984 2.833984 L -2.833984 -2.833984 " transform="matrix(2,0,0,2,8,8)"/>
<path style="fill-rule:nonzero;fill:rgb(50%,50%,0%);fill-opacity:0.1;stroke-width:0.566929;stroke-linecap:butt;stroke-linejoin:miter;stroke:rgb(100%,0%,0%);stroke-opacity:0.5;stroke-miterlimit:10;" d="M 0 134.458984 L 135.349609 134.458984 L 135.349609 0 L 0 0 Z M 0 134.458984 " transform="matrix(2,0,0,2,8,8)"/>
<path style="fill:none;stroke-width:0.566929;stroke-linecap:butt;stroke-linejoin:miter;stroke:rgb(100%,0%,0%);stroke-opacity:0.5;stroke-miterlimit:10;" d="M 12.894531 23.037109 L 18.564453 17.367188 " transform="matrix(2,0,0,2,8,8)"/>
<path style="fill:none;stroke-width:0.566929;stroke-linecap:butt;stroke-linejoin:miter;stroke:rgb(100%,0%,0%);stroke-opacity:0.5;stroke-miterlimit:10;" d="M 18.564453 23.037109 L 12.894531 17.367188 " transform="matrix(2,0,0,2,8,8)"/>
<path style="fill-rule:nonzero;fill:rgb(50%,50%,0%);fill-opacity:0.1;stroke-width:0.566929;stroke-linecap:butt;stroke-linejoin:miter;stroke:rgb(100%,0%,0%);stroke-opacity:0.5;stroke-miterlimit:10;" d="M 4.746094 41.828125 L 33.830078 41.828125 L 33.830078 1.128906 L 4.746094 1.128906 Z M 4.746094 41.828125 " transform="matrix(2,0,0,2,8,8)"/>
<path style="fill:none;stroke-width:0.566929;stroke-linecap:butt;stroke-linejoin:miter;stroke:rgb(100%,0%,0%);stroke-opacity:0.5;stroke-miterlimit:10;" d="M 54.386719 23.037109 L 60.056641 17.367188 " transform="matrix(2,0,0,2,8,8)"/>
<path style="fill:none;stroke-width:0.566929;stroke-linecap:butt;stroke-linejoin:miter;stroke:rgb(100%,0%,0%);stroke-opacity:0.5;stroke-miterlimit:10;" d="M 60.056641 23.037109 L 54.386719 17.367188 " transform="matrix(2,0,0,2,8,8)"/>
<path style="fill-rule:nonzero;fill:rgb(50%,50%,0%);fill-opacity:0.1;stroke-width:0.566929;stroke-linecap:butt;stroke-linejoin:miter;stroke:rgb(100%,0%,0%);stroke-opacity:0.5;stroke-miterlimit:10;" d="M 40.666016 32.501953 L 82.806641 32.501953 L 82.806641 2.662109 L 40.666016 2.662109 Z M 40.666016 32.501953 " transform="matrix(2,0,0,2,8,8)"/>
<path style="fill:none;stroke-width:0.566929;stroke-linecap:butt;stroke-linejoin:miter;stroke:rgb(100%,0%,0%);stroke-opacity:0.5;stroke-miterlimit:10;" d="M 107.089844 23.037109 L 112.757812 17.367188 " transform="matrix(2,0,0,2,8,8)"/>
<path style="fill:none;stroke-width:0.566929;stroke-linecap:butt;stroke-linejoin:miter;stroke:rgb(100%,0%,0%);stroke-opacity:0.5;stroke-miterlimit:10;" d="M 112.757812 23.037109 L 107.089844 17.367188 " transform="matrix(2,0,0,2,8,8)"/>
<path style="fill-rule:nonzero;fill:rgb(50%,50%,0%);fill-opacity:0.1;stroke-width:0.566929;stroke-linecap:butt;stroke-linejoin:miter;stroke:rgb(100%,0%,0%);stroke-opacity:0.5;stroke-miterlimit:10;" d="M 90.820312 47.441406 L 116.214844 47.441406 L 116.214844 0 L 90.820312 0 Z M 90.820312 47.441406 " transform="matrix(2,0,0,2,8,8)"/>
<path style="fill:none;stroke-width:0.566929;stroke-linecap:butt;stroke-linejoin:miter;stroke:rgb(100%,0%,0%);stroke-opacity:0.5;stroke-miterlimit:10;" d="M 12.894531 62.927734 L 18.564453 57.259766 " transform="matrix(2,0,0,2,8,8)"/>
<path style="fill:none;stroke-width:0.566929;stroke-linecap:butt;stroke-linejoin:miter;stroke:rgb(100%,0%,0%);stroke-opacity:0.5;stroke-miterlimit:10;" d="M 18.564453 62.927734 L 12.894531 57.259766 " transform="matrix(2,0,0,2,8,8)"/>
<path style="fill-rule:nonzero;fill:rgb(50%,50%,0%);fill-opacity:0.1;stroke-width:0.566929;stroke-linecap:butt;stroke-linejoin:miter;stroke:rgb(100%,0%,0%);stroke-opacity:0.5;stroke-miterlimit:10;" d="M 0.742188 69.330078 L 28.78125 69.330078 L 28.78125 47.925781 L 0.742188 47.925781 Z M 0.742188 69.330078 " transform="matrix(2,0,0,2,8,8)"/>
<path style="fill:none;stroke-width:0.566929;stroke-linecap:butt;stroke-linejoin:miter;stroke:rgb(100%,0%,0%);stroke-opacity:0.5;stroke-miterlimit:10;" d="M 54.386719 62.927734 L 60.056641 57.259766 " transform="matrix(2,0,0,2,8,8)"/>
<path style="fill:none;stroke-width:0.566929;stroke-linecap:butt;stroke-linejoin:miter;stroke:rgb(100%,0%,0%);stroke-opacity:0.5;stroke-miterlimit:10;" d="M 60.056641 62.927734 L 54.386719 57.259766 " transform="matrix(2,0,0,2,8,8)"/>
<path style="fill-rule:nonzero;fill:rgb(50%,50%,0%);fill-opacity:0.1;stroke-width:0.566929;stroke-linecap:butt;stroke-linejoin:miter;stroke:rgb(100%,0%,0%);stroke-opacity:0.5;stroke-miterlimit:10;" d="M 38.865234 69.830078 L 76.71875 69.830078 L 76.71875 48.796875 L 38.865234 48.796875 Z M 38.865234 69.830078 " transform="matrix(2,0,0,2,8,8)"/>
<path style="fill:none;stroke-width:0.566929;stroke-linecap:butt;stroke-linejoin:miter;stroke:rgb(100%,0%,0%);stroke-opacity:0.5;stroke-miterlimit:10;" d="M 107.089844 62.927734 L 112.757812 57.259766 " transform="matrix(2,0,0,2,8,8)"/>
<path style="fill:none;stroke-width:0.566929;stroke-linecap:butt;stroke-linejoin:miter;stroke:rgb(100%,0%,0%);stroke-opacity:0.5;stroke-miterlimit:10;" d="M 112.757812 62.927734 L 107.089844 57.259766 " transform="matrix(2,0,0,2,8,8)"/>
<path style="fill-rule:nonzero;fill:rgb(50%,50%,0%);fill-opacity:0.1;stroke-width:0.566929;stroke-linecap:butt;stroke-linejoin:miter;stroke:rgb(100%,0%,0%);stroke-opacity:0.5;stroke-miterlimit:10;" d="M 82.806641 86.851562 L 124.382812 86.851562 L 124.382812 47.441406 L 82.806641 47.441406 Z M 82.806641 86.851562 " transform="matrix(2,0,0,2,8,8)"/>
<path style="fill:none;stroke-width:0.566929;stroke-linecap:butt;stroke-linejoin:miter;stroke:rgb(100%,0%,0%);stroke-opacity:0.5;stroke-miterlimit:10;" d="M 12.894531 115.730469 L 18.564453 110.060547 " transform="matrix(2,0,0,2,8,8)"/>
<path style="fill:none;stroke-width:0.566929;stroke-linecap:butt;stroke-linejoin:miter;stroke:rgb(100%,0%,0%);stroke-opacity:0.5;stroke-miterlimit:10;" d="M 18.564453 115.730469 L 12.894531 110.060547 " transform="matrix(2,0,0,2,8,8)"/>
<path style="fill-rule:nonzero;fill:rgb(50%,50%,0%);fill-opacity:0.1;stroke-width:0.566929;stroke-linecap:butt;stroke-linejoin:miter;stroke:rgb(100%,0%,0%);stroke-opacity:0.5;stroke-miterlimit:10;" d="M 0 134.458984 L 38.865234 134.458984 L 38.865234 106.794922 L 0 106.794922 Z M 0 134.458984 " transform="matrix(2,0,0,2,8,8)"/>
<path style="fill:none;stroke-width:0.566929;stroke-linecap:butt;stroke-linejoin:miter;stroke:rgb(100%,0%,0%);stroke-opacity:0.5;stroke-miterlimit:10;" d="M 54.386719 115.730469 L 60.056641 110.060547 " transform="matrix(2,0,0,2,8,8)"/>
<path style="fill:none;stroke-width:0.566929;stroke-linecap:butt;stroke-linejoin:miter;stroke:rgb(100%,0%,0%);stroke-opacity:0.5;stroke-miterlimit:10;" d="M 60.056641 115.730469 L 54.386719 110.060547 " transform="matrix(2,0,0,2,8,8)"/>
<path style="fill-rule:nonzero;fill:rgb(50%,50%,0%);fill-opacity:0.1;stroke-width:0.566929;stroke-linecap:butt;stroke-linejoin:miter;stroke:rgb(100%,0%,0%);stroke-opacity:0.5;stroke-miterlimit:10;" d="M 51.212891 128.681641 L 77.419922 128.681641 L 77.419922 99.306641 L 51.212891 99.306641 Z M 51.212891 128.681641 " transform="matrix(2,0,0,2,8,8)"/>
<path style="fill:none;stroke-width:0.566929;stroke-linecap:butt;stroke-linejoin:miter;stroke:rgb(100%,0%,0%);stroke-opacity:0.5;stroke-miterlimit:10;" d="M 107.089844 115.730469 L 112.757812 110.060547 " transform="matrix(2,0,0,2,8,8)"/>
<path style="fill:none;stroke-width:0.566929;stroke-linecap:butt;stroke-linejoin:miter;stroke:rgb(100%,0%,0%);stroke-opacity:0.5;stroke-miterlimit:10;" d="M 112.757812 115.730469 L 107.089844 110.060547 " transform="matrix(2,0,0,2,8,8)"/>
<path style="fill-rule:nonzero;fill:rgb(50%,50%,0%);fill-opacity:0.1;stroke-width:0.566929;stroke-linecap:butt;stroke-linejoin:miter;stroke:rgb(100%,0%,0%);stroke-opacity:0.5;stroke-miterlimit:10;" d="M 91.205078 119.636719 L 135.349609 119.636719 L 135.349609 86.851562 L 91.205078 86.851562 Z M 91.205078 119.636719 " transform="matrix(2,0,0,2,8,8)"/>
</g>
</svg>
