<?xml version="1.0" encoding="UTF-8"?>
<svg xmlns="http://www.w3.org/2000/svg" xmlns:xlink="http://www.w3.org/1999/xlink" width="210.024136pt" height="176.748031pt" viewBox="0 0 210.024136 176.748031" version="1.1">
<g id="surface65">
<path style="fill:none;stroke-width:0.566929;stroke-linecap:butt;stroke-linejoin:miter;stroke:rgb(100%,0%,0%);stroke-opacity:0.5;stroke-miterlimit:10;" d="M -2.8338 2.835276 L 2.834169 -2.834646 " transform="matrix(2,0,0,2,5.952756,6.169291)"/>
<path style="fill:none;stroke-width:0.566929;stroke-linecap:butt;stroke-linejoin:miter;stroke:rgb(100%,0%,0%);stroke-opacity:0.5;stroke-miterlimit:10;" d="M 2.834169 2.835276 L -2.8338 -2.834646 " transform="matrix(2,0,0,2,5.952756,6.169291)"/>
<path style="fill-rule:nonzero;fill:rgb(50%,50%,0%);fill-opacity:0.1;stroke-width:0.566929;stroke-linecap:butt;stroke-linejoin:miter;stroke:rgb(100%,0%,0%);stroke-opacity:0.5;stroke-miterlimit:10;" d="M 0.000184547 85.038401 L 98.951356 85.038401 L 98.951356 -0.000661289 L 0.000184547 -0.000661289 Z M 0.000184547 85.038401 " transform="matrix(2,0,0,2,5.952756,6.169291)"/>
<path style="fill:none;stroke-width:0.566929;stroke-linecap:butt;stroke-linejoin:miter;stroke:rgb(100%,0%,0%);stroke-opacity:0.5;stroke-miterlimit:10;" d="M 5.636903 2.835276 L 11.306825 -2.834646 " transform="matrix(2,0,0,2,5.952756,6.169291)"/>
<path style="fill:none;stroke-width:0.566929;stroke-linecap:butt;stroke-linejoin:miter;stroke:rgb(100%,0%,0%);stroke-opacity:0.5;stroke-miterlimit:10;" d="M 11.306825 2.835276 L 5.636903 -2.834646 " transform="matrix(2,0,0,2,5.952756,6.169291)"/>
<path style="fill-rule:nonzero;fill:rgb(50%,50%,0%);fill-opacity:0.1;stroke-width:0.566929;stroke-linecap:butt;stroke-linejoin:miter;stroke:rgb(100%,0%,0%);stroke-opacity:0.5;stroke-miterlimit:10;" d="M 3.519716 13.700511 L 13.424013 13.700511 L 13.424013 -0.000661289 L 3.519716 -0.000661289 Z M 3.519716 13.700511 " transform="matrix(2,0,0,2,5.952756,6.169291)"/>
<path style="fill:none;stroke-width:0.566929;stroke-linecap:butt;stroke-linejoin:miter;stroke:rgb(100%,0%,0%);stroke-opacity:0.5;stroke-miterlimit:10;" d="M 3.519716 13.700511 L 9.189638 8.030589 " transform="matrix(2,0,0,2,5.952756,6.169291)"/>
<path style="fill:none;stroke-width:0.566929;stroke-linecap:butt;stroke-linejoin:miter;stroke:rgb(100%,0%,0%);stroke-opacity:0.5;stroke-miterlimit:10;" d="M 9.189638 13.700511 L 3.519716 8.030589 " transform="matrix(2,0,0,2,5.952756,6.169291)"/>
<path style="fill-rule:nonzero;fill:rgb(50%,50%,0%);fill-opacity:0.1;stroke-width:0.566929;stroke-linecap:butt;stroke-linejoin:miter;stroke:rgb(100%,0%,0%);stroke-opacity:0.5;stroke-miterlimit:10;" d="M 3.519716 13.700511 L 13.424013 13.700511 L 13.424013 -0.000661289 L 3.519716 -0.000661289 Z M 3.519716 13.700511 " transform="matrix(2,0,0,2,5.952756,6.169291)"/>
<path style="fill:none;stroke-width:0.566929;stroke-linecap:butt;stroke-linejoin:miter;stroke:rgb(100%,0%,0%);stroke-opacity:0.5;stroke-miterlimit:10;" d="M 3.519716 13.700511 L 9.189638 8.030589 " transform="matrix(2,0,0,2,5.952756,6.169291)"/>
<path style="fill:none;stroke-width:0.566929;stroke-linecap:butt;stroke-linejoin:miter;stroke:rgb(100%,0%,0%);stroke-opacity:0.5;stroke-miterlimit:10;" d="M 9.189638 13.700511 L 3.519716 8.030589 " transform="matrix(2,0,0,2,5.952756,6.169291)"/>
<path style="fill-rule:nonzero;fill:rgb(50%,50%,0%);fill-opacity:0.1;stroke-width:0.566929;stroke-linecap:butt;stroke-linejoin:miter;stroke:rgb(100%,0%,0%);stroke-opacity:0.5;stroke-miterlimit:10;" d="M 6.3537 10.866526 L 10.588075 10.866526 L 10.588075 2.835276 L 6.3537 2.835276 Z M 6.3537 10.866526 " transform="matrix(2,0,0,2,5.952756,6.169291)"/>
<path style=" stroke:none;fill-rule:nonzero;fill:rgb(0%,0%,0%);fill-opacity:1;" d="M 22.503906 18.308594 L 22.503906 15.996094 C 22.503906 14.246094 23.441406 13.277344 24.316406 13.277344 C 24.378906 13.277344 24.691406 13.277344 24.972656 13.433594 C 24.753906 13.496094 24.378906 13.777344 24.378906 14.277344 C 24.378906 14.714844 24.691406 15.121094 25.253906 15.121094 C 25.816406 15.121094 26.128906 14.714844 26.128906 14.246094 C 26.128906 13.496094 25.378906 12.839844 24.316406 12.839844 C 22.941406 12.839844 21.222656 13.902344 21.222656 16.027344 L 21.222656 18.308594 L 19.660156 18.308594 L 19.660156 18.933594 L 21.222656 18.933594 L 21.222656 25.402344 C 21.222656 26.277344 21.003906 26.277344 19.691406 26.277344 L 19.691406 26.902344 C 20.472656 26.871094 21.410156 26.839844 21.941406 26.839844 C 22.753906 26.839844 23.691406 26.839844 24.472656 26.902344 L 24.472656 26.277344 L 24.066406 26.277344 C 22.597656 26.277344 22.566406 26.058594 22.566406 25.339844 L 22.566406 18.933594 L 24.816406 18.933594 L 24.816406 18.308594 Z M 22.503906 18.308594 "/>
<path style="fill:none;stroke-width:0.566929;stroke-linecap:butt;stroke-linejoin:miter;stroke:rgb(100%,0%,0%);stroke-opacity:0.5;stroke-miterlimit:10;" d="M 32.170106 2.835276 L 37.840028 -2.834646 " transform="matrix(2,0,0,2,5.952756,6.169291)"/>
<path style="fill:none;stroke-width:0.566929;stroke-linecap:butt;stroke-linejoin:miter;stroke:rgb(100%,0%,0%);stroke-opacity:0.5;stroke-miterlimit:10;" d="M 37.840028 2.835276 L 32.170106 -2.834646 " transform="matrix(2,0,0,2,5.952756,6.169291)"/>
<path style="fill-rule:nonzero;fill:rgb(50%,50%,0%);fill-opacity:0.1;stroke-width:0.566929;stroke-linecap:butt;stroke-linejoin:miter;stroke:rgb(100%,0%,0%);stroke-opacity:0.5;stroke-miterlimit:10;" d="M 27.525575 11.196604 L 42.482606 11.196604 L 42.482606 -0.000661289 L 27.525575 -0.000661289 Z M 27.525575 11.196604 " transform="matrix(2,0,0,2,5.952756,6.169291)"/>
<path style="fill:none;stroke-width:0.566929;stroke-linecap:butt;stroke-linejoin:miter;stroke:rgb(100%,0%,0%);stroke-opacity:0.5;stroke-miterlimit:10;" d="M 27.525575 11.138011 L 33.195497 5.468089 " transform="matrix(2,0,0,2,5.952756,6.169291)"/>
<path style="fill:none;stroke-width:0.566929;stroke-linecap:butt;stroke-linejoin:miter;stroke:rgb(100%,0%,0%);stroke-opacity:0.5;stroke-miterlimit:10;" d="M 33.195497 11.138011 L 27.525575 5.468089 " transform="matrix(2,0,0,2,5.952756,6.169291)"/>
<path style="fill-rule:nonzero;fill:rgb(50%,50%,0%);fill-opacity:0.1;stroke-width:0.566929;stroke-linecap:butt;stroke-linejoin:miter;stroke:rgb(100%,0%,0%);stroke-opacity:0.5;stroke-miterlimit:10;" d="M 27.525575 11.196604 L 42.482606 11.196604 L 42.482606 -0.000661289 L 27.525575 -0.000661289 Z M 27.525575 11.196604 " transform="matrix(2,0,0,2,5.952756,6.169291)"/>
<path style="fill:none;stroke-width:0.566929;stroke-linecap:butt;stroke-linejoin:miter;stroke:rgb(100%,0%,0%);stroke-opacity:0.5;stroke-miterlimit:10;" d="M 27.525575 11.138011 L 33.195497 5.468089 " transform="matrix(2,0,0,2,5.952756,6.169291)"/>
<path style="fill:none;stroke-width:0.566929;stroke-linecap:butt;stroke-linejoin:miter;stroke:rgb(100%,0%,0%);stroke-opacity:0.5;stroke-miterlimit:10;" d="M 33.195497 11.138011 L 27.525575 5.468089 " transform="matrix(2,0,0,2,5.952756,6.169291)"/>
<path style="fill-rule:nonzero;fill:rgb(50%,50%,0%);fill-opacity:0.1;stroke-width:0.566929;stroke-linecap:butt;stroke-linejoin:miter;stroke:rgb(100%,0%,0%);stroke-opacity:0.5;stroke-miterlimit:10;" d="M 30.361513 8.360667 L 39.648622 8.360667 L 39.648622 2.835276 L 30.361513 2.835276 Z M 30.361513 8.360667 " transform="matrix(2,0,0,2,5.952756,6.169291)"/>
<path style=" stroke:none;fill-rule:nonzero;fill:rgb(0%,0%,0%);fill-opacity:1;" d="M 69.332031 16.746094 C 69.457031 13.777344 71.144531 13.277344 71.832031 13.277344 C 73.863281 13.277344 74.082031 15.964844 74.082031 16.746094 Z M 69.332031 17.183594 L 74.894531 17.183594 C 75.332031 17.183594 75.394531 17.183594 75.394531 16.746094 C 75.394531 14.777344 74.300781 12.839844 71.832031 12.839844 C 69.519531 12.839844 67.675781 14.902344 67.675781 17.402344 C 67.675781 20.058594 69.769531 21.996094 72.050781 21.996094 C 74.488281 21.996094 75.394531 19.777344 75.394531 19.402344 C 75.394531 19.214844 75.238281 19.152344 75.113281 19.152344 C 74.957031 19.152344 74.894531 19.277344 74.863281 19.433594 C 74.175781 21.496094 72.363281 21.496094 72.175781 21.496094 C 71.175781 21.496094 70.394531 20.902344 69.925781 20.152344 C 69.332031 19.214844 69.332031 17.902344 69.332031 17.183594 Z M 69.332031 17.183594 "/>
<path style=" stroke:none;fill-rule:nonzero;fill:rgb(0%,0%,0%);fill-opacity:1;" d="M 78.1875 16.746094 C 78.3125 13.777344 80 13.277344 80.6875 13.277344 C 82.71875 13.277344 82.9375 15.964844 82.9375 16.746094 Z M 78.1875 17.183594 L 83.75 17.183594 C 84.1875 17.183594 84.25 17.183594 84.25 16.746094 C 84.25 14.777344 83.15625 12.839844 80.6875 12.839844 C 78.375 12.839844 76.53125 14.902344 76.53125 17.402344 C 76.53125 20.058594 78.625 21.996094 80.90625 21.996094 C 83.34375 21.996094 84.25 19.777344 84.25 19.402344 C 84.25 19.214844 84.09375 19.152344 83.96875 19.152344 C 83.8125 19.152344 83.75 19.277344 83.71875 19.433594 C 83.03125 21.496094 81.21875 21.496094 81.03125 21.496094 C 80.03125 21.496094 79.25 20.902344 78.78125 20.152344 C 78.1875 19.214844 78.1875 17.902344 78.1875 17.183594 Z M 78.1875 17.183594 "/>
<path style="fill:none;stroke-width:0.566929;stroke-linecap:butt;stroke-linejoin:miter;stroke:rgb(100%,0%,0%);stroke-opacity:0.5;stroke-miterlimit:10;" d="M 73.174013 2.835276 L 78.843935 -2.834646 " transform="matrix(2,0,0,2,5.952756,6.169291)"/>
<path style="fill:none;stroke-width:0.566929;stroke-linecap:butt;stroke-linejoin:miter;stroke:rgb(100%,0%,0%);stroke-opacity:0.5;stroke-miterlimit:10;" d="M 78.843935 2.835276 L 73.174013 -2.834646 " transform="matrix(2,0,0,2,5.952756,6.169291)"/>
<path style="fill-rule:nonzero;fill:rgb(50%,50%,0%);fill-opacity:0.1;stroke-width:0.566929;stroke-linecap:butt;stroke-linejoin:miter;stroke:rgb(100%,0%,0%);stroke-opacity:0.5;stroke-miterlimit:10;" d="M 66.347841 11.196604 L 85.668153 11.196604 L 85.668153 -0.000661289 L 66.347841 -0.000661289 Z M 66.347841 11.196604 " transform="matrix(2,0,0,2,5.952756,6.169291)"/>
<path style="fill:none;stroke-width:0.566929;stroke-linecap:butt;stroke-linejoin:miter;stroke:rgb(100%,0%,0%);stroke-opacity:0.5;stroke-miterlimit:10;" d="M 66.347841 11.138011 L 72.017763 5.468089 " transform="matrix(2,0,0,2,5.952756,6.169291)"/>
<path style="fill:none;stroke-width:0.566929;stroke-linecap:butt;stroke-linejoin:miter;stroke:rgb(100%,0%,0%);stroke-opacity:0.5;stroke-miterlimit:10;" d="M 72.017763 11.138011 L 66.347841 5.468089 " transform="matrix(2,0,0,2,5.952756,6.169291)"/>
<path style="fill-rule:nonzero;fill:rgb(50%,50%,0%);fill-opacity:0.1;stroke-width:0.566929;stroke-linecap:butt;stroke-linejoin:miter;stroke:rgb(100%,0%,0%);stroke-opacity:0.5;stroke-miterlimit:10;" d="M 66.347841 11.196604 L 85.668153 11.196604 L 85.668153 -0.000661289 L 66.347841 -0.000661289 Z M 66.347841 11.196604 " transform="matrix(2,0,0,2,5.952756,6.169291)"/>
<path style="fill:none;stroke-width:0.566929;stroke-linecap:butt;stroke-linejoin:miter;stroke:rgb(100%,0%,0%);stroke-opacity:0.5;stroke-miterlimit:10;" d="M 66.347841 11.138011 L 72.017763 5.468089 " transform="matrix(2,0,0,2,5.952756,6.169291)"/>
<path style="fill:none;stroke-width:0.566929;stroke-linecap:butt;stroke-linejoin:miter;stroke:rgb(100%,0%,0%);stroke-opacity:0.5;stroke-miterlimit:10;" d="M 72.017763 11.138011 L 66.347841 5.468089 " transform="matrix(2,0,0,2,5.952756,6.169291)"/>
<path style="fill-rule:nonzero;fill:rgb(50%,50%,0%);fill-opacity:0.1;stroke-width:0.566929;stroke-linecap:butt;stroke-linejoin:miter;stroke:rgb(100%,0%,0%);stroke-opacity:0.5;stroke-miterlimit:10;" d="M 69.181825 8.360667 L 82.834169 8.360667 L 82.834169 2.835276 L 69.181825 2.835276 Z M 69.181825 8.360667 " transform="matrix(2,0,0,2,5.952756,6.169291)"/>
<path style=" stroke:none;fill-rule:nonzero;fill:rgb(0%,0%,0%);fill-opacity:1;" d="M 146.972656 17.433594 C 146.972656 14.183594 148.597656 13.339844 149.660156 13.339844 C 149.847656 13.339844 151.097656 13.371094 151.785156 14.089844 C 150.972656 14.152344 150.847656 14.746094 150.847656 14.996094 C 150.847656 15.527344 151.222656 15.902344 151.753906 15.902344 C 152.285156 15.902344 152.691406 15.589844 152.691406 14.964844 C 152.691406 13.621094 151.160156 12.839844 149.628906 12.839844 C 147.128906 12.839844 145.316406 14.996094 145.316406 17.464844 C 145.316406 20.027344 147.285156 21.996094 149.597656 21.996094 C 152.253906 21.996094 152.910156 19.589844 152.910156 19.402344 C 152.910156 19.214844 152.691406 19.214844 152.628906 19.214844 C 152.472656 19.214844 152.410156 19.277344 152.378906 19.402344 C 151.816406 21.246094 150.503906 21.496094 149.785156 21.496094 C 148.722656 21.496094 146.972656 20.652344 146.972656 17.433594 Z M 146.972656 17.433594 "/>
<path style=" stroke:none;fill-rule:nonzero;fill:rgb(0%,0%,0%);fill-opacity:1;" d="M 155.828125 17.433594 C 155.828125 14.183594 157.453125 13.339844 158.515625 13.339844 C 158.703125 13.339844 159.953125 13.371094 160.640625 14.089844 C 159.828125 14.152344 159.703125 14.746094 159.703125 14.996094 C 159.703125 15.527344 160.078125 15.902344 160.609375 15.902344 C 161.140625 15.902344 161.546875 15.589844 161.546875 14.964844 C 161.546875 13.621094 160.015625 12.839844 158.484375 12.839844 C 155.984375 12.839844 154.171875 14.996094 154.171875 17.464844 C 154.171875 20.027344 156.140625 21.996094 158.453125 21.996094 C 161.109375 21.996094 161.765625 19.589844 161.765625 19.402344 C 161.765625 19.214844 161.546875 19.214844 161.484375 19.214844 C 161.328125 19.214844 161.265625 19.277344 161.234375 19.402344 C 160.671875 21.246094 159.359375 21.496094 158.640625 21.496094 C 157.578125 21.496094 155.828125 20.652344 155.828125 17.433594 Z M 155.828125 17.433594 "/>
<path style=" stroke:none;fill-rule:nonzero;fill:rgb(0%,0%,0%);fill-opacity:1;" d="M 164.683594 17.433594 C 164.683594 14.183594 166.308594 13.339844 167.371094 13.339844 C 167.558594 13.339844 168.808594 13.371094 169.496094 14.089844 C 168.683594 14.152344 168.558594 14.746094 168.558594 14.996094 C 168.558594 15.527344 168.933594 15.902344 169.464844 15.902344 C 169.996094 15.902344 170.402344 15.589844 170.402344 14.964844 C 170.402344 13.621094 168.871094 12.839844 167.339844 12.839844 C 164.839844 12.839844 163.027344 14.996094 163.027344 17.464844 C 163.027344 20.027344 164.996094 21.996094 167.308594 21.996094 C 169.964844 21.996094 170.621094 19.589844 170.621094 19.402344 C 170.621094 19.214844 170.402344 19.214844 170.339844 19.214844 C 170.183594 19.214844 170.121094 19.277344 170.089844 19.402344 C 169.527344 21.246094 168.214844 21.496094 167.496094 21.496094 C 166.433594 21.496094 164.683594 20.652344 164.683594 17.433594 Z M 164.683594 17.433594 "/>
<path style="fill:none;stroke-width:0.566929;stroke-linecap:butt;stroke-linejoin:miter;stroke:rgb(100%,0%,0%);stroke-opacity:0.5;stroke-miterlimit:10;" d="M 96.117372 2.835276 L 101.785341 -2.834646 " transform="matrix(2,0,0,2,5.952756,6.169291)"/>
<path style="fill:none;stroke-width:0.566929;stroke-linecap:butt;stroke-linejoin:miter;stroke:rgb(100%,0%,0%);stroke-opacity:0.5;stroke-miterlimit:10;" d="M 101.785341 2.835276 L 96.117372 -2.834646 " transform="matrix(2,0,0,2,5.952756,6.169291)"/>
<path style="fill:none;stroke-width:0.566929;stroke-linecap:butt;stroke-linejoin:miter;stroke:rgb(100%,0%,0%);stroke-opacity:0.5;stroke-miterlimit:10;" d="M 98.951356 28.346995 L 98.951356 -0.000661289 Z M 98.951356 28.346995 " transform="matrix(2,0,0,2,5.952756,6.169291)"/>
<path style="fill:none;stroke-width:0.566929;stroke-linecap:butt;stroke-linejoin:miter;stroke:rgb(100%,0%,0%);stroke-opacity:0.5;stroke-miterlimit:10;" d="M 5.636903 31.180979 L 11.306825 25.511057 " transform="matrix(2,0,0,2,5.952756,6.169291)"/>
<path style="fill:none;stroke-width:0.566929;stroke-linecap:butt;stroke-linejoin:miter;stroke:rgb(100%,0%,0%);stroke-opacity:0.5;stroke-miterlimit:10;" d="M 11.306825 31.180979 L 5.636903 25.511057 " transform="matrix(2,0,0,2,5.952756,6.169291)"/>
<path style="fill-rule:nonzero;fill:rgb(50%,50%,0%);fill-opacity:0.1;stroke-width:0.566929;stroke-linecap:butt;stroke-linejoin:miter;stroke:rgb(100%,0%,0%);stroke-opacity:0.5;stroke-miterlimit:10;" d="M 0.000184547 39.311839 L 16.943544 39.311839 L 16.943544 28.346995 L 0.000184547 28.346995 Z M 0.000184547 39.311839 " transform="matrix(2,0,0,2,5.952756,6.169291)"/>
<path style="fill:none;stroke-width:0.566929;stroke-linecap:butt;stroke-linejoin:miter;stroke:rgb(100%,0%,0%);stroke-opacity:0.5;stroke-miterlimit:10;" d="M 0.000184547 39.311839 L 5.670106 33.64387 " transform="matrix(2,0,0,2,5.952756,6.169291)"/>
<path style="fill:none;stroke-width:0.566929;stroke-linecap:butt;stroke-linejoin:miter;stroke:rgb(100%,0%,0%);stroke-opacity:0.5;stroke-miterlimit:10;" d="M 5.670106 39.311839 L 0.000184547 33.64387 " transform="matrix(2,0,0,2,5.952756,6.169291)"/>
<path style="fill-rule:nonzero;fill:rgb(50%,50%,0%);fill-opacity:0.1;stroke-width:0.566929;stroke-linecap:butt;stroke-linejoin:miter;stroke:rgb(100%,0%,0%);stroke-opacity:0.5;stroke-miterlimit:10;" d="M 0.000184547 39.311839 L 16.943544 39.311839 L 16.943544 28.346995 L 0.000184547 28.346995 Z M 0.000184547 39.311839 " transform="matrix(2,0,0,2,5.952756,6.169291)"/>
<path style="fill:none;stroke-width:0.566929;stroke-linecap:butt;stroke-linejoin:miter;stroke:rgb(100%,0%,0%);stroke-opacity:0.5;stroke-miterlimit:10;" d="M 0.000184547 39.311839 L 5.670106 33.64387 " transform="matrix(2,0,0,2,5.952756,6.169291)"/>
<path style="fill:none;stroke-width:0.566929;stroke-linecap:butt;stroke-linejoin:miter;stroke:rgb(100%,0%,0%);stroke-opacity:0.5;stroke-miterlimit:10;" d="M 5.670106 39.311839 L 0.000184547 33.64387 " transform="matrix(2,0,0,2,5.952756,6.169291)"/>
<path style="fill-rule:nonzero;fill:rgb(50%,50%,0%);fill-opacity:0.1;stroke-width:0.566929;stroke-linecap:butt;stroke-linejoin:miter;stroke:rgb(100%,0%,0%);stroke-opacity:0.5;stroke-miterlimit:10;" d="M 2.834169 36.477854 L 14.107606 36.477854 L 14.107606 31.180979 L 2.834169 31.180979 Z M 2.834169 36.477854 " transform="matrix(2,0,0,2,5.952756,6.169291)"/>
<path style=" stroke:none;fill-rule:nonzero;fill:rgb(0%,0%,0%);fill-opacity:1;" d="M 18.089844 73.4375 C 18.683594 72.6875 19.433594 71.71875 19.933594 71.1875 C 20.558594 70.46875 21.371094 70.15625 22.308594 70.15625 L 22.308594 69.53125 C 21.777344 69.5625 21.183594 69.59375 20.652344 69.59375 C 20.058594 69.59375 18.996094 69.5625 18.746094 69.53125 L 18.746094 70.15625 C 19.183594 70.1875 19.339844 70.4375 19.339844 70.78125 C 19.339844 71.09375 19.121094 71.34375 19.027344 71.46875 L 17.808594 73.03125 L 16.246094 71 C 16.058594 70.8125 16.058594 70.78125 16.058594 70.65625 C 16.058594 70.34375 16.371094 70.15625 16.746094 70.15625 L 16.746094 69.53125 C 16.246094 69.5625 14.933594 69.59375 14.589844 69.59375 C 14.183594 69.59375 13.246094 69.5625 12.714844 69.53125 L 12.714844 70.15625 C 14.121094 70.15625 14.121094 70.15625 15.058594 71.375 L 17.027344 73.9375 L 15.152344 76.3125 C 14.214844 77.46875 13.027344 77.5 12.621094 77.5 L 12.621094 78.125 C 13.121094 78.09375 13.746094 78.0625 14.277344 78.0625 C 14.839844 78.0625 15.683594 78.09375 16.152344 78.125 L 16.152344 77.5 C 15.714844 77.4375 15.589844 77.1875 15.589844 76.875 C 15.589844 76.4375 16.152344 75.78125 17.371094 74.34375 L 18.902344 76.34375 C 19.058594 76.5625 19.308594 76.875 19.308594 77 C 19.308594 77.1875 19.121094 77.5 18.589844 77.5 L 18.589844 78.125 C 19.183594 78.09375 20.308594 78.0625 20.746094 78.0625 C 21.277344 78.0625 22.058594 78.09375 22.652344 78.125 L 22.652344 77.5 C 21.589844 77.5 21.214844 77.46875 20.777344 76.875 Z M 18.089844 73.4375 "/>
<path style=" stroke:none;fill-rule:nonzero;fill:rgb(0%,0%,0%);fill-opacity:1;" d="M 28.605469 73.4375 C 29.199219 72.6875 29.949219 71.71875 30.449219 71.1875 C 31.074219 70.46875 31.886719 70.15625 32.824219 70.15625 L 32.824219 69.53125 C 32.292969 69.5625 31.699219 69.59375 31.167969 69.59375 C 30.574219 69.59375 29.511719 69.5625 29.261719 69.53125 L 29.261719 70.15625 C 29.699219 70.1875 29.855469 70.4375 29.855469 70.78125 C 29.855469 71.09375 29.636719 71.34375 29.542969 71.46875 L 28.324219 73.03125 L 26.761719 71 C 26.574219 70.8125 26.574219 70.78125 26.574219 70.65625 C 26.574219 70.34375 26.886719 70.15625 27.261719 70.15625 L 27.261719 69.53125 C 26.761719 69.5625 25.449219 69.59375 25.105469 69.59375 C 24.699219 69.59375 23.761719 69.5625 23.230469 69.53125 L 23.230469 70.15625 C 24.636719 70.15625 24.636719 70.15625 25.574219 71.375 L 27.542969 73.9375 L 25.667969 76.3125 C 24.730469 77.46875 23.542969 77.5 23.136719 77.5 L 23.136719 78.125 C 23.636719 78.09375 24.261719 78.0625 24.792969 78.0625 C 25.355469 78.0625 26.199219 78.09375 26.667969 78.125 L 26.667969 77.5 C 26.230469 77.4375 26.105469 77.1875 26.105469 76.875 C 26.105469 76.4375 26.667969 75.78125 27.886719 74.34375 L 29.417969 76.34375 C 29.574219 76.5625 29.824219 76.875 29.824219 77 C 29.824219 77.1875 29.636719 77.5 29.105469 77.5 L 29.105469 78.125 C 29.699219 78.09375 30.824219 78.0625 31.261719 78.0625 C 31.792969 78.0625 32.574219 78.09375 33.167969 78.125 L 33.167969 77.5 C 32.105469 77.5 31.730469 77.46875 31.292969 76.875 Z M 28.605469 73.4375 "/>
<path style="fill:none;stroke-width:0.566929;stroke-linecap:butt;stroke-linejoin:miter;stroke:rgb(100%,0%,0%);stroke-opacity:0.5;stroke-miterlimit:10;" d="M 32.170106 31.180979 L 37.840028 25.511057 " transform="matrix(2,0,0,2,5.952756,6.169291)"/>
<path style="fill:none;stroke-width:0.566929;stroke-linecap:butt;stroke-linejoin:miter;stroke:rgb(100%,0%,0%);stroke-opacity:0.5;stroke-miterlimit:10;" d="M 37.840028 31.180979 L 32.170106 25.511057 " transform="matrix(2,0,0,2,5.952756,6.169291)"/>
<path style="fill-rule:nonzero;fill:rgb(50%,50%,0%);fill-opacity:0.1;stroke-width:0.566929;stroke-linecap:butt;stroke-linejoin:miter;stroke:rgb(100%,0%,0%);stroke-opacity:0.5;stroke-miterlimit:10;" d="M 21.924013 40.610667 L 48.084169 40.610667 L 48.084169 28.346995 L 21.924013 28.346995 Z M 21.924013 40.610667 " transform="matrix(2,0,0,2,5.952756,6.169291)"/>
<path style="fill:none;stroke-width:0.566929;stroke-linecap:butt;stroke-linejoin:miter;stroke:rgb(100%,0%,0%);stroke-opacity:0.5;stroke-miterlimit:10;" d="M 21.924013 39.530589 L 27.593935 33.86262 " transform="matrix(2,0,0,2,5.952756,6.169291)"/>
<path style="fill:none;stroke-width:0.566929;stroke-linecap:butt;stroke-linejoin:miter;stroke:rgb(100%,0%,0%);stroke-opacity:0.5;stroke-miterlimit:10;" d="M 27.593935 39.530589 L 21.924013 33.86262 " transform="matrix(2,0,0,2,5.952756,6.169291)"/>
<path style="fill-rule:nonzero;fill:rgb(50%,50%,0%);fill-opacity:0.1;stroke-width:0.566929;stroke-linecap:butt;stroke-linejoin:miter;stroke:rgb(100%,0%,0%);stroke-opacity:0.5;stroke-miterlimit:10;" d="M 21.924013 40.610667 L 48.084169 40.610667 L 48.084169 28.346995 L 21.924013 28.346995 Z M 21.924013 40.610667 " transform="matrix(2,0,0,2,5.952756,6.169291)"/>
<path style="fill:none;stroke-width:0.566929;stroke-linecap:butt;stroke-linejoin:miter;stroke:rgb(100%,0%,0%);stroke-opacity:0.5;stroke-miterlimit:10;" d="M 21.924013 39.530589 L 27.593935 33.86262 " transform="matrix(2,0,0,2,5.952756,6.169291)"/>
<path style="fill:none;stroke-width:0.566929;stroke-linecap:butt;stroke-linejoin:miter;stroke:rgb(100%,0%,0%);stroke-opacity:0.5;stroke-miterlimit:10;" d="M 27.593935 39.530589 L 21.924013 33.86262 " transform="matrix(2,0,0,2,5.952756,6.169291)"/>
<path style="fill-rule:nonzero;fill:rgb(50%,50%,0%);fill-opacity:0.1;stroke-width:0.566929;stroke-linecap:butt;stroke-linejoin:miter;stroke:rgb(100%,0%,0%);stroke-opacity:0.5;stroke-miterlimit:10;" d="M 24.75995 37.776682 L 45.250185 37.776682 L 45.250185 31.180979 L 24.75995 31.180979 Z M 24.75995 37.776682 " transform="matrix(2,0,0,2,5.952756,6.169291)"/>
<path style=" stroke:none;fill-rule:nonzero;fill:rgb(0%,0%,0%);fill-opacity:1;" d="M 60.347656 75.125 C 58.597656 75.125 58.597656 73.125 58.597656 72.6875 C 58.597656 72.15625 58.628906 71.5 58.910156 71 C 59.066406 70.78125 59.535156 70.21875 60.347656 70.21875 C 62.066406 70.21875 62.066406 72.1875 62.066406 72.65625 C 62.066406 73.1875 62.066406 73.84375 61.753906 74.34375 C 61.597656 74.5625 61.128906 75.125 60.347656 75.125 Z M 58.035156 75.90625 C 58.035156 75.84375 58.035156 75.375 58.347656 74.96875 C 59.128906 75.53125 59.972656 75.59375 60.347656 75.59375 C 62.191406 75.59375 63.566406 74.21875 63.566406 72.6875 C 63.566406 71.9375 63.253906 71.21875 62.753906 70.75 C 63.472656 70.0625 64.191406 69.96875 64.535156 69.96875 C 64.597656 69.96875 64.691406 69.96875 64.753906 70 C 64.535156 70.0625 64.410156 70.28125 64.410156 70.53125 C 64.410156 70.875 64.691406 71.09375 65.003906 71.09375 C 65.191406 71.09375 65.566406 70.96875 65.566406 70.5 C 65.566406 70.15625 65.347656 69.53125 64.566406 69.53125 C 64.160156 69.53125 63.285156 69.65625 62.441406 70.46875 C 61.597656 69.8125 60.785156 69.75 60.347656 69.75 C 58.472656 69.75 57.097656 71.125 57.097656 72.65625 C 57.097656 73.53125 57.535156 74.28125 58.035156 74.71875 C 57.785156 75 57.410156 75.65625 57.410156 76.375 C 57.410156 77 57.691406 77.75 58.316406 78.15625 C 57.097656 78.46875 56.472656 79.34375 56.472656 80.125 C 56.472656 81.5625 58.441406 82.65625 60.878906 82.65625 C 63.222656 82.65625 65.285156 81.65625 65.285156 80.09375 C 65.285156 79.40625 65.035156 78.375 64.003906 77.8125 C 62.941406 77.28125 61.785156 77.28125 60.566406 77.28125 C 60.066406 77.28125 59.222656 77.28125 59.066406 77.25 C 58.441406 77.15625 58.035156 76.5625 58.035156 75.90625 Z M 60.910156 82.21875 C 58.878906 82.21875 57.503906 81.1875 57.503906 80.125 C 57.503906 79.21875 58.253906 78.46875 59.128906 78.4375 L 60.316406 78.4375 C 62.035156 78.4375 64.253906 78.4375 64.253906 80.125 C 64.253906 81.21875 62.847656 82.21875 60.910156 82.21875 Z M 60.910156 82.21875 "/>
<path style=" stroke:none;fill-rule:nonzero;fill:rgb(0%,0%,0%);fill-opacity:1;" d="M 70.308594 75.125 C 68.558594 75.125 68.558594 73.125 68.558594 72.6875 C 68.558594 72.15625 68.589844 71.5 68.871094 71 C 69.027344 70.78125 69.496094 70.21875 70.308594 70.21875 C 72.027344 70.21875 72.027344 72.1875 72.027344 72.65625 C 72.027344 73.1875 72.027344 73.84375 71.714844 74.34375 C 71.558594 74.5625 71.089844 75.125 70.308594 75.125 Z M 67.996094 75.90625 C 67.996094 75.84375 67.996094 75.375 68.308594 74.96875 C 69.089844 75.53125 69.933594 75.59375 70.308594 75.59375 C 72.152344 75.59375 73.527344 74.21875 73.527344 72.6875 C 73.527344 71.9375 73.214844 71.21875 72.714844 70.75 C 73.433594 70.0625 74.152344 69.96875 74.496094 69.96875 C 74.558594 69.96875 74.652344 69.96875 74.714844 70 C 74.496094 70.0625 74.371094 70.28125 74.371094 70.53125 C 74.371094 70.875 74.652344 71.09375 74.964844 71.09375 C 75.152344 71.09375 75.527344 70.96875 75.527344 70.5 C 75.527344 70.15625 75.308594 69.53125 74.527344 69.53125 C 74.121094 69.53125 73.246094 69.65625 72.402344 70.46875 C 71.558594 69.8125 70.746094 69.75 70.308594 69.75 C 68.433594 69.75 67.058594 71.125 67.058594 72.65625 C 67.058594 73.53125 67.496094 74.28125 67.996094 74.71875 C 67.746094 75 67.371094 75.65625 67.371094 76.375 C 67.371094 77 67.652344 77.75 68.277344 78.15625 C 67.058594 78.46875 66.433594 79.34375 66.433594 80.125 C 66.433594 81.5625 68.402344 82.65625 70.839844 82.65625 C 73.183594 82.65625 75.246094 81.65625 75.246094 80.09375 C 75.246094 79.40625 74.996094 78.375 73.964844 77.8125 C 72.902344 77.28125 71.746094 77.28125 70.527344 77.28125 C 70.027344 77.28125 69.183594 77.28125 69.027344 77.25 C 68.402344 77.15625 67.996094 76.5625 67.996094 75.90625 Z M 70.871094 82.21875 C 68.839844 82.21875 67.464844 81.1875 67.464844 80.125 C 67.464844 79.21875 68.214844 78.46875 69.089844 78.4375 L 70.277344 78.4375 C 71.996094 78.4375 74.214844 78.4375 74.214844 80.125 C 74.214844 81.21875 72.808594 82.21875 70.871094 82.21875 Z M 70.871094 82.21875 "/>
<path style=" stroke:none;fill-rule:nonzero;fill:rgb(0%,0%,0%);fill-opacity:1;" d="M 80.269531 75.125 C 78.519531 75.125 78.519531 73.125 78.519531 72.6875 C 78.519531 72.15625 78.550781 71.5 78.832031 71 C 78.988281 70.78125 79.457031 70.21875 80.269531 70.21875 C 81.988281 70.21875 81.988281 72.1875 81.988281 72.65625 C 81.988281 73.1875 81.988281 73.84375 81.675781 74.34375 C 81.519531 74.5625 81.050781 75.125 80.269531 75.125 Z M 77.957031 75.90625 C 77.957031 75.84375 77.957031 75.375 78.269531 74.96875 C 79.050781 75.53125 79.894531 75.59375 80.269531 75.59375 C 82.113281 75.59375 83.488281 74.21875 83.488281 72.6875 C 83.488281 71.9375 83.175781 71.21875 82.675781 70.75 C 83.394531 70.0625 84.113281 69.96875 84.457031 69.96875 C 84.519531 69.96875 84.613281 69.96875 84.675781 70 C 84.457031 70.0625 84.332031 70.28125 84.332031 70.53125 C 84.332031 70.875 84.613281 71.09375 84.925781 71.09375 C 85.113281 71.09375 85.488281 70.96875 85.488281 70.5 C 85.488281 70.15625 85.269531 69.53125 84.488281 69.53125 C 84.082031 69.53125 83.207031 69.65625 82.363281 70.46875 C 81.519531 69.8125 80.707031 69.75 80.269531 69.75 C 78.394531 69.75 77.019531 71.125 77.019531 72.65625 C 77.019531 73.53125 77.457031 74.28125 77.957031 74.71875 C 77.707031 75 77.332031 75.65625 77.332031 76.375 C 77.332031 77 77.613281 77.75 78.238281 78.15625 C 77.019531 78.46875 76.394531 79.34375 76.394531 80.125 C 76.394531 81.5625 78.363281 82.65625 80.800781 82.65625 C 83.144531 82.65625 85.207031 81.65625 85.207031 80.09375 C 85.207031 79.40625 84.957031 78.375 83.925781 77.8125 C 82.863281 77.28125 81.707031 77.28125 80.488281 77.28125 C 79.988281 77.28125 79.144531 77.28125 78.988281 77.25 C 78.363281 77.15625 77.957031 76.5625 77.957031 75.90625 Z M 80.832031 82.21875 C 78.800781 82.21875 77.425781 81.1875 77.425781 80.125 C 77.425781 79.21875 78.175781 78.46875 79.050781 78.4375 L 80.238281 78.4375 C 81.957031 78.4375 84.175781 78.4375 84.175781 80.125 C 84.175781 81.21875 82.769531 82.21875 80.832031 82.21875 Z M 80.832031 82.21875 "/>
<path style=" stroke:none;fill-rule:nonzero;fill:rgb(0%,0%,0%);fill-opacity:1;" d="M 90.234375 75.125 C 88.484375 75.125 88.484375 73.125 88.484375 72.6875 C 88.484375 72.15625 88.515625 71.5 88.796875 71 C 88.953125 70.78125 89.421875 70.21875 90.234375 70.21875 C 91.953125 70.21875 91.953125 72.1875 91.953125 72.65625 C 91.953125 73.1875 91.953125 73.84375 91.640625 74.34375 C 91.484375 74.5625 91.015625 75.125 90.234375 75.125 Z M 87.921875 75.90625 C 87.921875 75.84375 87.921875 75.375 88.234375 74.96875 C 89.015625 75.53125 89.859375 75.59375 90.234375 75.59375 C 92.078125 75.59375 93.453125 74.21875 93.453125 72.6875 C 93.453125 71.9375 93.140625 71.21875 92.640625 70.75 C 93.359375 70.0625 94.078125 69.96875 94.421875 69.96875 C 94.484375 69.96875 94.578125 69.96875 94.640625 70 C 94.421875 70.0625 94.296875 70.28125 94.296875 70.53125 C 94.296875 70.875 94.578125 71.09375 94.890625 71.09375 C 95.078125 71.09375 95.453125 70.96875 95.453125 70.5 C 95.453125 70.15625 95.234375 69.53125 94.453125 69.53125 C 94.046875 69.53125 93.171875 69.65625 92.328125 70.46875 C 91.484375 69.8125 90.671875 69.75 90.234375 69.75 C 88.359375 69.75 86.984375 71.125 86.984375 72.65625 C 86.984375 73.53125 87.421875 74.28125 87.921875 74.71875 C 87.671875 75 87.296875 75.65625 87.296875 76.375 C 87.296875 77 87.578125 77.75 88.203125 78.15625 C 86.984375 78.46875 86.359375 79.34375 86.359375 80.125 C 86.359375 81.5625 88.328125 82.65625 90.765625 82.65625 C 93.109375 82.65625 95.171875 81.65625 95.171875 80.09375 C 95.171875 79.40625 94.921875 78.375 93.890625 77.8125 C 92.828125 77.28125 91.671875 77.28125 90.453125 77.28125 C 89.953125 77.28125 89.109375 77.28125 88.953125 77.25 C 88.328125 77.15625 87.921875 76.5625 87.921875 75.90625 Z M 90.796875 82.21875 C 88.765625 82.21875 87.390625 81.1875 87.390625 80.125 C 87.390625 79.21875 88.140625 78.46875 89.015625 78.4375 L 90.203125 78.4375 C 91.921875 78.4375 94.140625 78.4375 94.140625 80.125 C 94.140625 81.21875 92.734375 82.21875 90.796875 82.21875 Z M 90.796875 82.21875 "/>
<path style="fill:none;stroke-width:0.566929;stroke-linecap:butt;stroke-linejoin:miter;stroke:rgb(100%,0%,0%);stroke-opacity:0.5;stroke-miterlimit:10;" d="M 73.174013 31.180979 L 78.843935 25.511057 " transform="matrix(2,0,0,2,5.952756,6.169291)"/>
<path style="fill:none;stroke-width:0.566929;stroke-linecap:butt;stroke-linejoin:miter;stroke:rgb(100%,0%,0%);stroke-opacity:0.5;stroke-miterlimit:10;" d="M 78.843935 31.180979 L 73.174013 25.511057 " transform="matrix(2,0,0,2,5.952756,6.169291)"/>
<path style="fill-rule:nonzero;fill:rgb(50%,50%,0%);fill-opacity:0.1;stroke-width:0.566929;stroke-linecap:butt;stroke-linejoin:miter;stroke:rgb(100%,0%,0%);stroke-opacity:0.5;stroke-miterlimit:10;" d="M 57.94745 40.610667 L 94.070497 40.610667 L 94.070497 28.346995 L 57.94745 28.346995 Z M 57.94745 40.610667 " transform="matrix(2,0,0,2,5.952756,6.169291)"/>
<path style="fill:none;stroke-width:0.566929;stroke-linecap:butt;stroke-linejoin:miter;stroke:rgb(100%,0%,0%);stroke-opacity:0.5;stroke-miterlimit:10;" d="M 57.94745 39.530589 L 63.617372 33.86262 " transform="matrix(2,0,0,2,5.952756,6.169291)"/>
<path style="fill:none;stroke-width:0.566929;stroke-linecap:butt;stroke-linejoin:miter;stroke:rgb(100%,0%,0%);stroke-opacity:0.5;stroke-miterlimit:10;" d="M 63.617372 39.530589 L 57.94745 33.86262 " transform="matrix(2,0,0,2,5.952756,6.169291)"/>
<path style="fill-rule:nonzero;fill:rgb(50%,50%,0%);fill-opacity:0.1;stroke-width:0.566929;stroke-linecap:butt;stroke-linejoin:miter;stroke:rgb(100%,0%,0%);stroke-opacity:0.5;stroke-miterlimit:10;" d="M 57.94745 40.610667 L 94.070497 40.610667 L 94.070497 28.346995 L 57.94745 28.346995 Z M 57.94745 40.610667 " transform="matrix(2,0,0,2,5.952756,6.169291)"/>
<path style="fill:none;stroke-width:0.566929;stroke-linecap:butt;stroke-linejoin:miter;stroke:rgb(100%,0%,0%);stroke-opacity:0.5;stroke-miterlimit:10;" d="M 57.94745 39.530589 L 63.617372 33.86262 " transform="matrix(2,0,0,2,5.952756,6.169291)"/>
<path style="fill:none;stroke-width:0.566929;stroke-linecap:butt;stroke-linejoin:miter;stroke:rgb(100%,0%,0%);stroke-opacity:0.5;stroke-miterlimit:10;" d="M 63.617372 39.530589 L 57.94745 33.86262 " transform="matrix(2,0,0,2,5.952756,6.169291)"/>
<path style="fill-rule:nonzero;fill:rgb(50%,50%,0%);fill-opacity:0.1;stroke-width:0.566929;stroke-linecap:butt;stroke-linejoin:miter;stroke:rgb(100%,0%,0%);stroke-opacity:0.5;stroke-miterlimit:10;" d="M 60.781435 37.776682 L 91.23456 37.776682 L 91.23456 31.180979 L 60.781435 31.180979 Z M 60.781435 37.776682 " transform="matrix(2,0,0,2,5.952756,6.169291)"/>
<path style=" stroke:none;fill-rule:nonzero;fill:rgb(0%,0%,0%);fill-opacity:1;" d="M 132.390625 75.125 C 130.640625 75.125 130.640625 73.125 130.640625 72.6875 C 130.640625 72.15625 130.671875 71.5 130.953125 71 C 131.109375 70.78125 131.578125 70.21875 132.390625 70.21875 C 134.109375 70.21875 134.109375 72.1875 134.109375 72.65625 C 134.109375 73.1875 134.109375 73.84375 133.796875 74.34375 C 133.640625 74.5625 133.171875 75.125 132.390625 75.125 Z M 130.078125 75.90625 C 130.078125 75.84375 130.078125 75.375 130.390625 74.96875 C 131.171875 75.53125 132.015625 75.59375 132.390625 75.59375 C 134.234375 75.59375 135.609375 74.21875 135.609375 72.6875 C 135.609375 71.9375 135.296875 71.21875 134.796875 70.75 C 135.515625 70.0625 136.234375 69.96875 136.578125 69.96875 C 136.640625 69.96875 136.734375 69.96875 136.796875 70 C 136.578125 70.0625 136.453125 70.28125 136.453125 70.53125 C 136.453125 70.875 136.734375 71.09375 137.046875 71.09375 C 137.234375 71.09375 137.609375 70.96875 137.609375 70.5 C 137.609375 70.15625 137.390625 69.53125 136.609375 69.53125 C 136.203125 69.53125 135.328125 69.65625 134.484375 70.46875 C 133.640625 69.8125 132.828125 69.75 132.390625 69.75 C 130.515625 69.75 129.140625 71.125 129.140625 72.65625 C 129.140625 73.53125 129.578125 74.28125 130.078125 74.71875 C 129.828125 75 129.453125 75.65625 129.453125 76.375 C 129.453125 77 129.734375 77.75 130.359375 78.15625 C 129.140625 78.46875 128.515625 79.34375 128.515625 80.125 C 128.515625 81.5625 130.484375 82.65625 132.921875 82.65625 C 135.265625 82.65625 137.328125 81.65625 137.328125 80.09375 C 137.328125 79.40625 137.078125 78.375 136.046875 77.8125 C 134.984375 77.28125 133.828125 77.28125 132.609375 77.28125 C 132.109375 77.28125 131.265625 77.28125 131.109375 77.25 C 130.484375 77.15625 130.078125 76.5625 130.078125 75.90625 Z M 132.953125 82.21875 C 130.921875 82.21875 129.546875 81.1875 129.546875 80.125 C 129.546875 79.21875 130.296875 78.46875 131.171875 78.4375 L 132.359375 78.4375 C 134.078125 78.4375 136.296875 78.4375 136.296875 80.125 C 136.296875 81.21875 134.890625 82.21875 132.953125 82.21875 Z M 132.953125 82.21875 "/>
<path style=" stroke:none;fill-rule:nonzero;fill:rgb(0%,0%,0%);fill-opacity:1;" d="M 142.355469 75.125 C 140.605469 75.125 140.605469 73.125 140.605469 72.6875 C 140.605469 72.15625 140.636719 71.5 140.917969 71 C 141.074219 70.78125 141.542969 70.21875 142.355469 70.21875 C 144.074219 70.21875 144.074219 72.1875 144.074219 72.65625 C 144.074219 73.1875 144.074219 73.84375 143.761719 74.34375 C 143.605469 74.5625 143.136719 75.125 142.355469 75.125 Z M 140.042969 75.90625 C 140.042969 75.84375 140.042969 75.375 140.355469 74.96875 C 141.136719 75.53125 141.980469 75.59375 142.355469 75.59375 C 144.199219 75.59375 145.574219 74.21875 145.574219 72.6875 C 145.574219 71.9375 145.261719 71.21875 144.761719 70.75 C 145.480469 70.0625 146.199219 69.96875 146.542969 69.96875 C 146.605469 69.96875 146.699219 69.96875 146.761719 70 C 146.542969 70.0625 146.417969 70.28125 146.417969 70.53125 C 146.417969 70.875 146.699219 71.09375 147.011719 71.09375 C 147.199219 71.09375 147.574219 70.96875 147.574219 70.5 C 147.574219 70.15625 147.355469 69.53125 146.574219 69.53125 C 146.167969 69.53125 145.292969 69.65625 144.449219 70.46875 C 143.605469 69.8125 142.792969 69.75 142.355469 69.75 C 140.480469 69.75 139.105469 71.125 139.105469 72.65625 C 139.105469 73.53125 139.542969 74.28125 140.042969 74.71875 C 139.792969 75 139.417969 75.65625 139.417969 76.375 C 139.417969 77 139.699219 77.75 140.324219 78.15625 C 139.105469 78.46875 138.480469 79.34375 138.480469 80.125 C 138.480469 81.5625 140.449219 82.65625 142.886719 82.65625 C 145.230469 82.65625 147.292969 81.65625 147.292969 80.09375 C 147.292969 79.40625 147.042969 78.375 146.011719 77.8125 C 144.949219 77.28125 143.792969 77.28125 142.574219 77.28125 C 142.074219 77.28125 141.230469 77.28125 141.074219 77.25 C 140.449219 77.15625 140.042969 76.5625 140.042969 75.90625 Z M 142.917969 82.21875 C 140.886719 82.21875 139.511719 81.1875 139.511719 80.125 C 139.511719 79.21875 140.261719 78.46875 141.136719 78.4375 L 142.324219 78.4375 C 144.042969 78.4375 146.261719 78.4375 146.261719 80.125 C 146.261719 81.21875 144.855469 82.21875 142.917969 82.21875 Z M 142.917969 82.21875 "/>
<path style=" stroke:none;fill-rule:nonzero;fill:rgb(0%,0%,0%);fill-opacity:1;" d="M 152.316406 75.125 C 150.566406 75.125 150.566406 73.125 150.566406 72.6875 C 150.566406 72.15625 150.597656 71.5 150.878906 71 C 151.035156 70.78125 151.503906 70.21875 152.316406 70.21875 C 154.035156 70.21875 154.035156 72.1875 154.035156 72.65625 C 154.035156 73.1875 154.035156 73.84375 153.722656 74.34375 C 153.566406 74.5625 153.097656 75.125 152.316406 75.125 Z M 150.003906 75.90625 C 150.003906 75.84375 150.003906 75.375 150.316406 74.96875 C 151.097656 75.53125 151.941406 75.59375 152.316406 75.59375 C 154.160156 75.59375 155.535156 74.21875 155.535156 72.6875 C 155.535156 71.9375 155.222656 71.21875 154.722656 70.75 C 155.441406 70.0625 156.160156 69.96875 156.503906 69.96875 C 156.566406 69.96875 156.660156 69.96875 156.722656 70 C 156.503906 70.0625 156.378906 70.28125 156.378906 70.53125 C 156.378906 70.875 156.660156 71.09375 156.972656 71.09375 C 157.160156 71.09375 157.535156 70.96875 157.535156 70.5 C 157.535156 70.15625 157.316406 69.53125 156.535156 69.53125 C 156.128906 69.53125 155.253906 69.65625 154.410156 70.46875 C 153.566406 69.8125 152.753906 69.75 152.316406 69.75 C 150.441406 69.75 149.066406 71.125 149.066406 72.65625 C 149.066406 73.53125 149.503906 74.28125 150.003906 74.71875 C 149.753906 75 149.378906 75.65625 149.378906 76.375 C 149.378906 77 149.660156 77.75 150.285156 78.15625 C 149.066406 78.46875 148.441406 79.34375 148.441406 80.125 C 148.441406 81.5625 150.410156 82.65625 152.847656 82.65625 C 155.191406 82.65625 157.253906 81.65625 157.253906 80.09375 C 157.253906 79.40625 157.003906 78.375 155.972656 77.8125 C 154.910156 77.28125 153.753906 77.28125 152.535156 77.28125 C 152.035156 77.28125 151.191406 77.28125 151.035156 77.25 C 150.410156 77.15625 150.003906 76.5625 150.003906 75.90625 Z M 152.878906 82.21875 C 150.847656 82.21875 149.472656 81.1875 149.472656 80.125 C 149.472656 79.21875 150.222656 78.46875 151.097656 78.4375 L 152.285156 78.4375 C 154.003906 78.4375 156.222656 78.4375 156.222656 80.125 C 156.222656 81.21875 154.816406 82.21875 152.878906 82.21875 Z M 152.878906 82.21875 "/>
<path style=" stroke:none;fill-rule:nonzero;fill:rgb(0%,0%,0%);fill-opacity:1;" d="M 162.277344 75.125 C 160.527344 75.125 160.527344 73.125 160.527344 72.6875 C 160.527344 72.15625 160.558594 71.5 160.839844 71 C 160.996094 70.78125 161.464844 70.21875 162.277344 70.21875 C 163.996094 70.21875 163.996094 72.1875 163.996094 72.65625 C 163.996094 73.1875 163.996094 73.84375 163.683594 74.34375 C 163.527344 74.5625 163.058594 75.125 162.277344 75.125 Z M 159.964844 75.90625 C 159.964844 75.84375 159.964844 75.375 160.277344 74.96875 C 161.058594 75.53125 161.902344 75.59375 162.277344 75.59375 C 164.121094 75.59375 165.496094 74.21875 165.496094 72.6875 C 165.496094 71.9375 165.183594 71.21875 164.683594 70.75 C 165.402344 70.0625 166.121094 69.96875 166.464844 69.96875 C 166.527344 69.96875 166.621094 69.96875 166.683594 70 C 166.464844 70.0625 166.339844 70.28125 166.339844 70.53125 C 166.339844 70.875 166.621094 71.09375 166.933594 71.09375 C 167.121094 71.09375 167.496094 70.96875 167.496094 70.5 C 167.496094 70.15625 167.277344 69.53125 166.496094 69.53125 C 166.089844 69.53125 165.214844 69.65625 164.371094 70.46875 C 163.527344 69.8125 162.714844 69.75 162.277344 69.75 C 160.402344 69.75 159.027344 71.125 159.027344 72.65625 C 159.027344 73.53125 159.464844 74.28125 159.964844 74.71875 C 159.714844 75 159.339844 75.65625 159.339844 76.375 C 159.339844 77 159.621094 77.75 160.246094 78.15625 C 159.027344 78.46875 158.402344 79.34375 158.402344 80.125 C 158.402344 81.5625 160.371094 82.65625 162.808594 82.65625 C 165.152344 82.65625 167.214844 81.65625 167.214844 80.09375 C 167.214844 79.40625 166.964844 78.375 165.933594 77.8125 C 164.871094 77.28125 163.714844 77.28125 162.496094 77.28125 C 161.996094 77.28125 161.152344 77.28125 160.996094 77.25 C 160.371094 77.15625 159.964844 76.5625 159.964844 75.90625 Z M 162.839844 82.21875 C 160.808594 82.21875 159.433594 81.1875 159.433594 80.125 C 159.433594 79.21875 160.183594 78.46875 161.058594 78.4375 L 162.246094 78.4375 C 163.964844 78.4375 166.183594 78.4375 166.183594 80.125 C 166.183594 81.21875 164.777344 82.21875 162.839844 82.21875 Z M 162.839844 82.21875 "/>
<path style=" stroke:none;fill-rule:nonzero;fill:rgb(0%,0%,0%);fill-opacity:1;" d="M 172.242188 75.125 C 170.492188 75.125 170.492188 73.125 170.492188 72.6875 C 170.492188 72.15625 170.523438 71.5 170.804688 71 C 170.960938 70.78125 171.429688 70.21875 172.242188 70.21875 C 173.960938 70.21875 173.960938 72.1875 173.960938 72.65625 C 173.960938 73.1875 173.960938 73.84375 173.648438 74.34375 C 173.492188 74.5625 173.023438 75.125 172.242188 75.125 Z M 169.929688 75.90625 C 169.929688 75.84375 169.929688 75.375 170.242188 74.96875 C 171.023438 75.53125 171.867188 75.59375 172.242188 75.59375 C 174.085938 75.59375 175.460938 74.21875 175.460938 72.6875 C 175.460938 71.9375 175.148438 71.21875 174.648438 70.75 C 175.367188 70.0625 176.085938 69.96875 176.429688 69.96875 C 176.492188 69.96875 176.585938 69.96875 176.648438 70 C 176.429688 70.0625 176.304688 70.28125 176.304688 70.53125 C 176.304688 70.875 176.585938 71.09375 176.898438 71.09375 C 177.085938 71.09375 177.460938 70.96875 177.460938 70.5 C 177.460938 70.15625 177.242188 69.53125 176.460938 69.53125 C 176.054688 69.53125 175.179688 69.65625 174.335938 70.46875 C 173.492188 69.8125 172.679688 69.75 172.242188 69.75 C 170.367188 69.75 168.992188 71.125 168.992188 72.65625 C 168.992188 73.53125 169.429688 74.28125 169.929688 74.71875 C 169.679688 75 169.304688 75.65625 169.304688 76.375 C 169.304688 77 169.585938 77.75 170.210938 78.15625 C 168.992188 78.46875 168.367188 79.34375 168.367188 80.125 C 168.367188 81.5625 170.335938 82.65625 172.773438 82.65625 C 175.117188 82.65625 177.179688 81.65625 177.179688 80.09375 C 177.179688 79.40625 176.929688 78.375 175.898438 77.8125 C 174.835938 77.28125 173.679688 77.28125 172.460938 77.28125 C 171.960938 77.28125 171.117188 77.28125 170.960938 77.25 C 170.335938 77.15625 169.929688 76.5625 169.929688 75.90625 Z M 172.804688 82.21875 C 170.773438 82.21875 169.398438 81.1875 169.398438 80.125 C 169.398438 79.21875 170.148438 78.46875 171.023438 78.4375 L 172.210938 78.4375 C 173.929688 78.4375 176.148438 78.4375 176.148438 80.125 C 176.148438 81.21875 174.742188 82.21875 172.804688 82.21875 Z M 172.804688 82.21875 "/>
<path style=" stroke:none;fill-rule:nonzero;fill:rgb(0%,0%,0%);fill-opacity:1;" d="M 182.203125 75.125 C 180.453125 75.125 180.453125 73.125 180.453125 72.6875 C 180.453125 72.15625 180.484375 71.5 180.765625 71 C 180.921875 70.78125 181.390625 70.21875 182.203125 70.21875 C 183.921875 70.21875 183.921875 72.1875 183.921875 72.65625 C 183.921875 73.1875 183.921875 73.84375 183.609375 74.34375 C 183.453125 74.5625 182.984375 75.125 182.203125 75.125 Z M 179.890625 75.90625 C 179.890625 75.84375 179.890625 75.375 180.203125 74.96875 C 180.984375 75.53125 181.828125 75.59375 182.203125 75.59375 C 184.046875 75.59375 185.421875 74.21875 185.421875 72.6875 C 185.421875 71.9375 185.109375 71.21875 184.609375 70.75 C 185.328125 70.0625 186.046875 69.96875 186.390625 69.96875 C 186.453125 69.96875 186.546875 69.96875 186.609375 70 C 186.390625 70.0625 186.265625 70.28125 186.265625 70.53125 C 186.265625 70.875 186.546875 71.09375 186.859375 71.09375 C 187.046875 71.09375 187.421875 70.96875 187.421875 70.5 C 187.421875 70.15625 187.203125 69.53125 186.421875 69.53125 C 186.015625 69.53125 185.140625 69.65625 184.296875 70.46875 C 183.453125 69.8125 182.640625 69.75 182.203125 69.75 C 180.328125 69.75 178.953125 71.125 178.953125 72.65625 C 178.953125 73.53125 179.390625 74.28125 179.890625 74.71875 C 179.640625 75 179.265625 75.65625 179.265625 76.375 C 179.265625 77 179.546875 77.75 180.171875 78.15625 C 178.953125 78.46875 178.328125 79.34375 178.328125 80.125 C 178.328125 81.5625 180.296875 82.65625 182.734375 82.65625 C 185.078125 82.65625 187.140625 81.65625 187.140625 80.09375 C 187.140625 79.40625 186.890625 78.375 185.859375 77.8125 C 184.796875 77.28125 183.640625 77.28125 182.421875 77.28125 C 181.921875 77.28125 181.078125 77.28125 180.921875 77.25 C 180.296875 77.15625 179.890625 76.5625 179.890625 75.90625 Z M 182.765625 82.21875 C 180.734375 82.21875 179.359375 81.1875 179.359375 80.125 C 179.359375 79.21875 180.109375 78.46875 180.984375 78.4375 L 182.171875 78.4375 C 183.890625 78.4375 186.109375 78.4375 186.109375 80.125 C 186.109375 81.21875 184.703125 82.21875 182.765625 82.21875 Z M 182.765625 82.21875 "/>
<path style="fill:none;stroke-width:0.566929;stroke-linecap:butt;stroke-linejoin:miter;stroke:rgb(100%,0%,0%);stroke-opacity:0.5;stroke-miterlimit:10;" d="M 96.117372 31.180979 L 101.785341 25.511057 " transform="matrix(2,0,0,2,5.952756,6.169291)"/>
<path style="fill:none;stroke-width:0.566929;stroke-linecap:butt;stroke-linejoin:miter;stroke:rgb(100%,0%,0%);stroke-opacity:0.5;stroke-miterlimit:10;" d="M 101.785341 31.180979 L 96.117372 25.511057 " transform="matrix(2,0,0,2,5.952756,6.169291)"/>
<path style="fill:none;stroke-width:0.566929;stroke-linecap:butt;stroke-linejoin:miter;stroke:rgb(100%,0%,0%);stroke-opacity:0.5;stroke-miterlimit:10;" d="M 98.951356 56.692698 L 98.951356 28.346995 Z M 98.951356 56.692698 " transform="matrix(2,0,0,2,5.952756,6.169291)"/>
<path style="fill:none;stroke-width:0.566929;stroke-linecap:butt;stroke-linejoin:miter;stroke:rgb(100%,0%,0%);stroke-opacity:0.5;stroke-miterlimit:10;" d="M 5.636903 59.526682 L 11.306825 53.858714 " transform="matrix(2,0,0,2,5.952756,6.169291)"/>
<path style="fill:none;stroke-width:0.566929;stroke-linecap:butt;stroke-linejoin:miter;stroke:rgb(100%,0%,0%);stroke-opacity:0.5;stroke-miterlimit:10;" d="M 11.306825 59.526682 L 5.636903 53.858714 " transform="matrix(2,0,0,2,5.952756,6.169291)"/>
<path style="fill-rule:nonzero;fill:rgb(50%,50%,0%);fill-opacity:0.1;stroke-width:0.566929;stroke-linecap:butt;stroke-linejoin:miter;stroke:rgb(100%,0%,0%);stroke-opacity:0.5;stroke-miterlimit:10;" d="M 0.582216 70.39387 L 16.35956 70.39387 L 16.35956 56.692698 L 0.582216 56.692698 Z M 0.582216 70.39387 " transform="matrix(2,0,0,2,5.952756,6.169291)"/>
<path style="fill:none;stroke-width:0.566929;stroke-linecap:butt;stroke-linejoin:miter;stroke:rgb(100%,0%,0%);stroke-opacity:0.5;stroke-miterlimit:10;" d="M 0.582216 70.39387 L 6.252138 64.723948 " transform="matrix(2,0,0,2,5.952756,6.169291)"/>
<path style="fill:none;stroke-width:0.566929;stroke-linecap:butt;stroke-linejoin:miter;stroke:rgb(100%,0%,0%);stroke-opacity:0.5;stroke-miterlimit:10;" d="M 6.252138 70.39387 L 0.582216 64.723948 " transform="matrix(2,0,0,2,5.952756,6.169291)"/>
<path style="fill-rule:nonzero;fill:rgb(50%,50%,0%);fill-opacity:0.1;stroke-width:0.566929;stroke-linecap:butt;stroke-linejoin:miter;stroke:rgb(100%,0%,0%);stroke-opacity:0.5;stroke-miterlimit:10;" d="M 0.582216 70.39387 L 16.35956 70.39387 L 16.35956 56.692698 L 0.582216 56.692698 Z M 0.582216 70.39387 " transform="matrix(2,0,0,2,5.952756,6.169291)"/>
<path style="fill:none;stroke-width:0.566929;stroke-linecap:butt;stroke-linejoin:miter;stroke:rgb(100%,0%,0%);stroke-opacity:0.5;stroke-miterlimit:10;" d="M 0.582216 70.39387 L 6.252138 64.723948 " transform="matrix(2,0,0,2,5.952756,6.169291)"/>
<path style="fill:none;stroke-width:0.566929;stroke-linecap:butt;stroke-linejoin:miter;stroke:rgb(100%,0%,0%);stroke-opacity:0.5;stroke-miterlimit:10;" d="M 6.252138 70.39387 L 0.582216 64.723948 " transform="matrix(2,0,0,2,5.952756,6.169291)"/>
<path style="fill-rule:nonzero;fill:rgb(50%,50%,0%);fill-opacity:0.1;stroke-width:0.566929;stroke-linecap:butt;stroke-linejoin:miter;stroke:rgb(100%,0%,0%);stroke-opacity:0.5;stroke-miterlimit:10;" d="M 3.418153 67.557932 L 13.525575 67.557932 L 13.525575 59.526682 L 3.418153 59.526682 Z M 3.418153 67.557932 " transform="matrix(2,0,0,2,5.952756,6.169291)"/>
<path style=" stroke:none;fill-rule:nonzero;fill:rgb(0%,0%,0%);fill-opacity:1;" d="M 22.195312 132.316406 L 24.476562 132.316406 L 24.476562 131.691406 L 22.132812 131.691406 L 22.132812 129.378906 C 22.132812 127.597656 23.101562 126.660156 23.976562 126.660156 C 24.039062 126.660156 24.351562 126.660156 24.632812 126.816406 C 24.414062 126.878906 24.039062 127.160156 24.039062 127.660156 C 24.039062 128.097656 24.351562 128.503906 24.914062 128.503906 C 25.476562 128.503906 25.789062 128.097656 25.789062 127.628906 C 25.789062 126.910156 25.070312 126.222656 23.976562 126.222656 C 22.789062 126.222656 21.914062 126.972656 21.820312 127.066406 C 21.226562 126.316406 20.101562 126.222656 19.570312 126.222656 C 17.695312 126.222656 15.382812 127.253906 15.382812 129.410156 L 15.382812 131.691406 L 13.789062 131.691406 L 13.789062 132.316406 L 15.382812 132.316406 L 15.382812 138.785156 C 15.382812 139.660156 15.164062 139.660156 13.820312 139.660156 L 13.820312 140.285156 C 14.476562 140.253906 15.539062 140.222656 16.039062 140.222656 C 16.539062 140.222656 17.507812 140.253906 18.257812 140.285156 L 18.257812 139.660156 C 16.914062 139.660156 16.695312 139.660156 16.695312 138.785156 L 16.695312 132.316406 L 20.882812 132.316406 L 20.882812 138.785156 C 20.882812 139.660156 20.664062 139.660156 19.320312 139.660156 L 19.320312 140.285156 C 20.101562 140.253906 21.039062 140.222656 21.601562 140.222656 C 22.382812 140.222656 23.320312 140.222656 24.132812 140.285156 L 24.132812 139.660156 L 23.695312 139.660156 C 22.226562 139.660156 22.195312 139.441406 22.195312 138.722656 Z M 16.632812 131.691406 L 16.632812 129.441406 C 16.632812 127.503906 18.257812 126.660156 19.570312 126.660156 C 20.539062 126.660156 21.101562 127.035156 21.101562 127.035156 L 21.101562 127.066406 C 20.789062 127.097656 20.382812 127.378906 20.382812 127.910156 C 20.382812 128.035156 20.382812 128.535156 20.945312 128.722656 C 20.882812 128.972656 20.882812 129.160156 20.882812 129.410156 L 20.882812 131.691406 Z M 16.632812 131.691406 "/>
<path style=" stroke:none;fill-rule:nonzero;fill:rgb(0%,0%,0%);fill-opacity:1;" d="M 28.378906 131.691406 L 28.378906 129.378906 C 28.378906 127.628906 29.316406 126.660156 30.191406 126.660156 C 30.253906 126.660156 30.566406 126.660156 30.847656 126.816406 C 30.628906 126.878906 30.253906 127.160156 30.253906 127.660156 C 30.253906 128.097656 30.566406 128.503906 31.128906 128.503906 C 31.691406 128.503906 32.003906 128.097656 32.003906 127.628906 C 32.003906 126.878906 31.253906 126.222656 30.191406 126.222656 C 28.816406 126.222656 27.097656 127.285156 27.097656 129.410156 L 27.097656 131.691406 L 25.535156 131.691406 L 25.535156 132.316406 L 27.097656 132.316406 L 27.097656 138.785156 C 27.097656 139.660156 26.878906 139.660156 25.566406 139.660156 L 25.566406 140.285156 C 26.347656 140.253906 27.285156 140.222656 27.816406 140.222656 C 28.628906 140.222656 29.566406 140.222656 30.347656 140.285156 L 30.347656 139.660156 L 29.941406 139.660156 C 28.472656 139.660156 28.441406 139.441406 28.441406 138.722656 L 28.441406 132.316406 L 30.691406 132.316406 L 30.691406 131.691406 Z M 28.378906 131.691406 "/>
<path style="fill:none;stroke-width:0.566929;stroke-linecap:butt;stroke-linejoin:miter;stroke:rgb(100%,0%,0%);stroke-opacity:0.5;stroke-miterlimit:10;" d="M 32.170106 59.526682 L 37.840028 53.858714 " transform="matrix(2,0,0,2,5.952756,6.169291)"/>
<path style="fill:none;stroke-width:0.566929;stroke-linecap:butt;stroke-linejoin:miter;stroke:rgb(100%,0%,0%);stroke-opacity:0.5;stroke-miterlimit:10;" d="M 37.840028 59.526682 L 32.170106 53.858714 " transform="matrix(2,0,0,2,5.952756,6.169291)"/>
<path style="fill-rule:nonzero;fill:rgb(50%,50%,0%);fill-opacity:0.1;stroke-width:0.566929;stroke-linecap:butt;stroke-linejoin:miter;stroke:rgb(100%,0%,0%);stroke-opacity:0.5;stroke-miterlimit:10;" d="M 16.943544 69.009104 L 53.066591 69.009104 L 53.066591 56.692698 L 16.943544 56.692698 Z M 16.943544 69.009104 " transform="matrix(2,0,0,2,5.952756,6.169291)"/>
<path style="fill:none;stroke-width:0.566929;stroke-linecap:butt;stroke-linejoin:miter;stroke:rgb(100%,0%,0%);stroke-opacity:0.5;stroke-miterlimit:10;" d="M 16.943544 67.878245 L 22.611513 62.208323 " transform="matrix(2,0,0,2,5.952756,6.169291)"/>
<path style="fill:none;stroke-width:0.566929;stroke-linecap:butt;stroke-linejoin:miter;stroke:rgb(100%,0%,0%);stroke-opacity:0.5;stroke-miterlimit:10;" d="M 22.611513 67.878245 L 16.943544 62.208323 " transform="matrix(2,0,0,2,5.952756,6.169291)"/>
<path style="fill-rule:nonzero;fill:rgb(50%,50%,0%);fill-opacity:0.1;stroke-width:0.566929;stroke-linecap:butt;stroke-linejoin:miter;stroke:rgb(100%,0%,0%);stroke-opacity:0.5;stroke-miterlimit:10;" d="M 16.943544 69.009104 L 53.066591 69.009104 L 53.066591 56.692698 L 16.943544 56.692698 Z M 16.943544 69.009104 " transform="matrix(2,0,0,2,5.952756,6.169291)"/>
<path style="fill:none;stroke-width:0.566929;stroke-linecap:butt;stroke-linejoin:miter;stroke:rgb(100%,0%,0%);stroke-opacity:0.5;stroke-miterlimit:10;" d="M 16.943544 67.878245 L 22.611513 62.208323 " transform="matrix(2,0,0,2,5.952756,6.169291)"/>
<path style="fill:none;stroke-width:0.566929;stroke-linecap:butt;stroke-linejoin:miter;stroke:rgb(100%,0%,0%);stroke-opacity:0.5;stroke-miterlimit:10;" d="M 22.611513 67.878245 L 16.943544 62.208323 " transform="matrix(2,0,0,2,5.952756,6.169291)"/>
<path style="fill-rule:nonzero;fill:rgb(50%,50%,0%);fill-opacity:0.1;stroke-width:0.566929;stroke-linecap:butt;stroke-linejoin:miter;stroke:rgb(100%,0%,0%);stroke-opacity:0.5;stroke-miterlimit:10;" d="M 19.777528 66.17512 L 50.230653 66.17512 L 50.230653 59.526682 L 19.777528 59.526682 Z M 19.777528 66.17512 " transform="matrix(2,0,0,2,5.952756,6.169291)"/>
<path style=" stroke:none;fill-rule:nonzero;fill:rgb(0%,0%,0%);fill-opacity:1;" d="M 50.382812 131.816406 C 48.632812 131.816406 48.632812 129.816406 48.632812 129.378906 C 48.632812 128.847656 48.664062 128.191406 48.945312 127.691406 C 49.101562 127.472656 49.570312 126.910156 50.382812 126.910156 C 52.101562 126.910156 52.101562 128.878906 52.101562 129.347656 C 52.101562 129.878906 52.101562 130.535156 51.789062 131.035156 C 51.632812 131.253906 51.164062 131.816406 50.382812 131.816406 Z M 48.070312 132.597656 C 48.070312 132.535156 48.070312 132.066406 48.382812 131.660156 C 49.164062 132.222656 50.007812 132.285156 50.382812 132.285156 C 52.226562 132.285156 53.601562 130.910156 53.601562 129.378906 C 53.601562 128.628906 53.289062 127.910156 52.789062 127.441406 C 53.507812 126.753906 54.226562 126.660156 54.570312 126.660156 C 54.632812 126.660156 54.726562 126.660156 54.789062 126.691406 C 54.570312 126.753906 54.445312 126.972656 54.445312 127.222656 C 54.445312 127.566406 54.726562 127.785156 55.039062 127.785156 C 55.226562 127.785156 55.601562 127.660156 55.601562 127.191406 C 55.601562 126.847656 55.382812 126.222656 54.601562 126.222656 C 54.195312 126.222656 53.320312 126.347656 52.476562 127.160156 C 51.632812 126.503906 50.820312 126.441406 50.382812 126.441406 C 48.507812 126.441406 47.132812 127.816406 47.132812 129.347656 C 47.132812 130.222656 47.570312 130.972656 48.070312 131.410156 C 47.820312 131.691406 47.445312 132.347656 47.445312 133.066406 C 47.445312 133.691406 47.726562 134.441406 48.351562 134.847656 C 47.132812 135.160156 46.507812 136.035156 46.507812 136.816406 C 46.507812 138.253906 48.476562 139.347656 50.914062 139.347656 C 53.257812 139.347656 55.320312 138.347656 55.320312 136.785156 C 55.320312 136.097656 55.070312 135.066406 54.039062 134.503906 C 52.976562 133.972656 51.820312 133.972656 50.601562 133.972656 C 50.101562 133.972656 49.257812 133.972656 49.101562 133.941406 C 48.476562 133.847656 48.070312 133.253906 48.070312 132.597656 Z M 50.945312 138.910156 C 48.914062 138.910156 47.539062 137.878906 47.539062 136.816406 C 47.539062 135.910156 48.289062 135.160156 49.164062 135.128906 L 50.351562 135.128906 C 52.070312 135.128906 54.289062 135.128906 54.289062 136.816406 C 54.289062 137.910156 52.882812 138.910156 50.945312 138.910156 Z M 50.945312 138.910156 "/>
<path style=" stroke:none;fill-rule:nonzero;fill:rgb(0%,0%,0%);fill-opacity:1;" d="M 60.347656 131.816406 C 58.597656 131.816406 58.597656 129.816406 58.597656 129.378906 C 58.597656 128.847656 58.628906 128.191406 58.910156 127.691406 C 59.066406 127.472656 59.535156 126.910156 60.347656 126.910156 C 62.066406 126.910156 62.066406 128.878906 62.066406 129.347656 C 62.066406 129.878906 62.066406 130.535156 61.753906 131.035156 C 61.597656 131.253906 61.128906 131.816406 60.347656 131.816406 Z M 58.035156 132.597656 C 58.035156 132.535156 58.035156 132.066406 58.347656 131.660156 C 59.128906 132.222656 59.972656 132.285156 60.347656 132.285156 C 62.191406 132.285156 63.566406 130.910156 63.566406 129.378906 C 63.566406 128.628906 63.253906 127.910156 62.753906 127.441406 C 63.472656 126.753906 64.191406 126.660156 64.535156 126.660156 C 64.597656 126.660156 64.691406 126.660156 64.753906 126.691406 C 64.535156 126.753906 64.410156 126.972656 64.410156 127.222656 C 64.410156 127.566406 64.691406 127.785156 65.003906 127.785156 C 65.191406 127.785156 65.566406 127.660156 65.566406 127.191406 C 65.566406 126.847656 65.347656 126.222656 64.566406 126.222656 C 64.160156 126.222656 63.285156 126.347656 62.441406 127.160156 C 61.597656 126.503906 60.785156 126.441406 60.347656 126.441406 C 58.472656 126.441406 57.097656 127.816406 57.097656 129.347656 C 57.097656 130.222656 57.535156 130.972656 58.035156 131.410156 C 57.785156 131.691406 57.410156 132.347656 57.410156 133.066406 C 57.410156 133.691406 57.691406 134.441406 58.316406 134.847656 C 57.097656 135.160156 56.472656 136.035156 56.472656 136.816406 C 56.472656 138.253906 58.441406 139.347656 60.878906 139.347656 C 63.222656 139.347656 65.285156 138.347656 65.285156 136.785156 C 65.285156 136.097656 65.035156 135.066406 64.003906 134.503906 C 62.941406 133.972656 61.785156 133.972656 60.566406 133.972656 C 60.066406 133.972656 59.222656 133.972656 59.066406 133.941406 C 58.441406 133.847656 58.035156 133.253906 58.035156 132.597656 Z M 60.910156 138.910156 C 58.878906 138.910156 57.503906 137.878906 57.503906 136.816406 C 57.503906 135.910156 58.253906 135.160156 59.128906 135.128906 L 60.316406 135.128906 C 62.035156 135.128906 64.253906 135.128906 64.253906 136.816406 C 64.253906 137.910156 62.847656 138.910156 60.910156 138.910156 Z M 60.910156 138.910156 "/>
<path style=" stroke:none;fill-rule:nonzero;fill:rgb(0%,0%,0%);fill-opacity:1;" d="M 70.308594 131.816406 C 68.558594 131.816406 68.558594 129.816406 68.558594 129.378906 C 68.558594 128.847656 68.589844 128.191406 68.871094 127.691406 C 69.027344 127.472656 69.496094 126.910156 70.308594 126.910156 C 72.027344 126.910156 72.027344 128.878906 72.027344 129.347656 C 72.027344 129.878906 72.027344 130.535156 71.714844 131.035156 C 71.558594 131.253906 71.089844 131.816406 70.308594 131.816406 Z M 67.996094 132.597656 C 67.996094 132.535156 67.996094 132.066406 68.308594 131.660156 C 69.089844 132.222656 69.933594 132.285156 70.308594 132.285156 C 72.152344 132.285156 73.527344 130.910156 73.527344 129.378906 C 73.527344 128.628906 73.214844 127.910156 72.714844 127.441406 C 73.433594 126.753906 74.152344 126.660156 74.496094 126.660156 C 74.558594 126.660156 74.652344 126.660156 74.714844 126.691406 C 74.496094 126.753906 74.371094 126.972656 74.371094 127.222656 C 74.371094 127.566406 74.652344 127.785156 74.964844 127.785156 C 75.152344 127.785156 75.527344 127.660156 75.527344 127.191406 C 75.527344 126.847656 75.308594 126.222656 74.527344 126.222656 C 74.121094 126.222656 73.246094 126.347656 72.402344 127.160156 C 71.558594 126.503906 70.746094 126.441406 70.308594 126.441406 C 68.433594 126.441406 67.058594 127.816406 67.058594 129.347656 C 67.058594 130.222656 67.496094 130.972656 67.996094 131.410156 C 67.746094 131.691406 67.371094 132.347656 67.371094 133.066406 C 67.371094 133.691406 67.652344 134.441406 68.277344 134.847656 C 67.058594 135.160156 66.433594 136.035156 66.433594 136.816406 C 66.433594 138.253906 68.402344 139.347656 70.839844 139.347656 C 73.183594 139.347656 75.246094 138.347656 75.246094 136.785156 C 75.246094 136.097656 74.996094 135.066406 73.964844 134.503906 C 72.902344 133.972656 71.746094 133.972656 70.527344 133.972656 C 70.027344 133.972656 69.183594 133.972656 69.027344 133.941406 C 68.402344 133.847656 67.996094 133.253906 67.996094 132.597656 Z M 70.871094 138.910156 C 68.839844 138.910156 67.464844 137.878906 67.464844 136.816406 C 67.464844 135.910156 68.214844 135.160156 69.089844 135.128906 L 70.277344 135.128906 C 71.996094 135.128906 74.214844 135.128906 74.214844 136.816406 C 74.214844 137.910156 72.808594 138.910156 70.871094 138.910156 Z M 70.871094 138.910156 "/>
<path style=" stroke:none;fill-rule:nonzero;fill:rgb(0%,0%,0%);fill-opacity:1;" d="M 80.269531 131.816406 C 78.519531 131.816406 78.519531 129.816406 78.519531 129.378906 C 78.519531 128.847656 78.550781 128.191406 78.832031 127.691406 C 78.988281 127.472656 79.457031 126.910156 80.269531 126.910156 C 81.988281 126.910156 81.988281 128.878906 81.988281 129.347656 C 81.988281 129.878906 81.988281 130.535156 81.675781 131.035156 C 81.519531 131.253906 81.050781 131.816406 80.269531 131.816406 Z M 77.957031 132.597656 C 77.957031 132.535156 77.957031 132.066406 78.269531 131.660156 C 79.050781 132.222656 79.894531 132.285156 80.269531 132.285156 C 82.113281 132.285156 83.488281 130.910156 83.488281 129.378906 C 83.488281 128.628906 83.175781 127.910156 82.675781 127.441406 C 83.394531 126.753906 84.113281 126.660156 84.457031 126.660156 C 84.519531 126.660156 84.613281 126.660156 84.675781 126.691406 C 84.457031 126.753906 84.332031 126.972656 84.332031 127.222656 C 84.332031 127.566406 84.613281 127.785156 84.925781 127.785156 C 85.113281 127.785156 85.488281 127.660156 85.488281 127.191406 C 85.488281 126.847656 85.269531 126.222656 84.488281 126.222656 C 84.082031 126.222656 83.207031 126.347656 82.363281 127.160156 C 81.519531 126.503906 80.707031 126.441406 80.269531 126.441406 C 78.394531 126.441406 77.019531 127.816406 77.019531 129.347656 C 77.019531 130.222656 77.457031 130.972656 77.957031 131.410156 C 77.707031 131.691406 77.332031 132.347656 77.332031 133.066406 C 77.332031 133.691406 77.613281 134.441406 78.238281 134.847656 C 77.019531 135.160156 76.394531 136.035156 76.394531 136.816406 C 76.394531 138.253906 78.363281 139.347656 80.800781 139.347656 C 83.144531 139.347656 85.207031 138.347656 85.207031 136.785156 C 85.207031 136.097656 84.957031 135.066406 83.925781 134.503906 C 82.863281 133.972656 81.707031 133.972656 80.488281 133.972656 C 79.988281 133.972656 79.144531 133.972656 78.988281 133.941406 C 78.363281 133.847656 77.957031 133.253906 77.957031 132.597656 Z M 80.832031 138.910156 C 78.800781 138.910156 77.425781 137.878906 77.425781 136.816406 C 77.425781 135.910156 78.175781 135.160156 79.050781 135.128906 L 80.238281 135.128906 C 81.957031 135.128906 84.175781 135.128906 84.175781 136.816406 C 84.175781 137.910156 82.769531 138.910156 80.832031 138.910156 Z M 80.832031 138.910156 "/>
<path style=" stroke:none;fill-rule:nonzero;fill:rgb(0%,0%,0%);fill-opacity:1;" d="M 90.234375 131.816406 C 88.484375 131.816406 88.484375 129.816406 88.484375 129.378906 C 88.484375 128.847656 88.515625 128.191406 88.796875 127.691406 C 88.953125 127.472656 89.421875 126.910156 90.234375 126.910156 C 91.953125 126.910156 91.953125 128.878906 91.953125 129.347656 C 91.953125 129.878906 91.953125 130.535156 91.640625 131.035156 C 91.484375 131.253906 91.015625 131.816406 90.234375 131.816406 Z M 87.921875 132.597656 C 87.921875 132.535156 87.921875 132.066406 88.234375 131.660156 C 89.015625 132.222656 89.859375 132.285156 90.234375 132.285156 C 92.078125 132.285156 93.453125 130.910156 93.453125 129.378906 C 93.453125 128.628906 93.140625 127.910156 92.640625 127.441406 C 93.359375 126.753906 94.078125 126.660156 94.421875 126.660156 C 94.484375 126.660156 94.578125 126.660156 94.640625 126.691406 C 94.421875 126.753906 94.296875 126.972656 94.296875 127.222656 C 94.296875 127.566406 94.578125 127.785156 94.890625 127.785156 C 95.078125 127.785156 95.453125 127.660156 95.453125 127.191406 C 95.453125 126.847656 95.234375 126.222656 94.453125 126.222656 C 94.046875 126.222656 93.171875 126.347656 92.328125 127.160156 C 91.484375 126.503906 90.671875 126.441406 90.234375 126.441406 C 88.359375 126.441406 86.984375 127.816406 86.984375 129.347656 C 86.984375 130.222656 87.421875 130.972656 87.921875 131.410156 C 87.671875 131.691406 87.296875 132.347656 87.296875 133.066406 C 87.296875 133.691406 87.578125 134.441406 88.203125 134.847656 C 86.984375 135.160156 86.359375 136.035156 86.359375 136.816406 C 86.359375 138.253906 88.328125 139.347656 90.765625 139.347656 C 93.109375 139.347656 95.171875 138.347656 95.171875 136.785156 C 95.171875 136.097656 94.921875 135.066406 93.890625 134.503906 C 92.828125 133.972656 91.671875 133.972656 90.453125 133.972656 C 89.953125 133.972656 89.109375 133.972656 88.953125 133.941406 C 88.328125 133.847656 87.921875 133.253906 87.921875 132.597656 Z M 90.796875 138.910156 C 88.765625 138.910156 87.390625 137.878906 87.390625 136.816406 C 87.390625 135.910156 88.140625 135.160156 89.015625 135.128906 L 90.203125 135.128906 C 91.921875 135.128906 94.140625 135.128906 94.140625 136.816406 C 94.140625 137.910156 92.734375 138.910156 90.796875 138.910156 Z M 90.796875 138.910156 "/>
<path style=" stroke:none;fill-rule:nonzero;fill:rgb(0%,0%,0%);fill-opacity:1;" d="M 100.195312 131.816406 C 98.445312 131.816406 98.445312 129.816406 98.445312 129.378906 C 98.445312 128.847656 98.476562 128.191406 98.757812 127.691406 C 98.914062 127.472656 99.382812 126.910156 100.195312 126.910156 C 101.914062 126.910156 101.914062 128.878906 101.914062 129.347656 C 101.914062 129.878906 101.914062 130.535156 101.601562 131.035156 C 101.445312 131.253906 100.976562 131.816406 100.195312 131.816406 Z M 97.882812 132.597656 C 97.882812 132.535156 97.882812 132.066406 98.195312 131.660156 C 98.976562 132.222656 99.820312 132.285156 100.195312 132.285156 C 102.039062 132.285156 103.414062 130.910156 103.414062 129.378906 C 103.414062 128.628906 103.101562 127.910156 102.601562 127.441406 C 103.320312 126.753906 104.039062 126.660156 104.382812 126.660156 C 104.445312 126.660156 104.539062 126.660156 104.601562 126.691406 C 104.382812 126.753906 104.257812 126.972656 104.257812 127.222656 C 104.257812 127.566406 104.539062 127.785156 104.851562 127.785156 C 105.039062 127.785156 105.414062 127.660156 105.414062 127.191406 C 105.414062 126.847656 105.195312 126.222656 104.414062 126.222656 C 104.007812 126.222656 103.132812 126.347656 102.289062 127.160156 C 101.445312 126.503906 100.632812 126.441406 100.195312 126.441406 C 98.320312 126.441406 96.945312 127.816406 96.945312 129.347656 C 96.945312 130.222656 97.382812 130.972656 97.882812 131.410156 C 97.632812 131.691406 97.257812 132.347656 97.257812 133.066406 C 97.257812 133.691406 97.539062 134.441406 98.164062 134.847656 C 96.945312 135.160156 96.320312 136.035156 96.320312 136.816406 C 96.320312 138.253906 98.289062 139.347656 100.726562 139.347656 C 103.070312 139.347656 105.132812 138.347656 105.132812 136.785156 C 105.132812 136.097656 104.882812 135.066406 103.851562 134.503906 C 102.789062 133.972656 101.632812 133.972656 100.414062 133.972656 C 99.914062 133.972656 99.070312 133.972656 98.914062 133.941406 C 98.289062 133.847656 97.882812 133.253906 97.882812 132.597656 Z M 100.757812 138.910156 C 98.726562 138.910156 97.351562 137.878906 97.351562 136.816406 C 97.351562 135.910156 98.101562 135.160156 98.976562 135.128906 L 100.164062 135.128906 C 101.882812 135.128906 104.101562 135.128906 104.101562 136.816406 C 104.101562 137.910156 102.695312 138.910156 100.757812 138.910156 Z M 100.757812 138.910156 "/>
<path style="fill:none;stroke-width:0.566929;stroke-linecap:butt;stroke-linejoin:miter;stroke:rgb(100%,0%,0%);stroke-opacity:0.5;stroke-miterlimit:10;" d="M 73.174013 59.526682 L 78.843935 53.858714 " transform="matrix(2,0,0,2,5.952756,6.169291)"/>
<path style="fill:none;stroke-width:0.566929;stroke-linecap:butt;stroke-linejoin:miter;stroke:rgb(100%,0%,0%);stroke-opacity:0.5;stroke-miterlimit:10;" d="M 78.843935 59.526682 L 73.174013 53.858714 " transform="matrix(2,0,0,2,5.952756,6.169291)"/>
<path style="fill-rule:nonzero;fill:rgb(50%,50%,0%);fill-opacity:0.1;stroke-width:0.566929;stroke-linecap:butt;stroke-linejoin:miter;stroke:rgb(100%,0%,0%);stroke-opacity:0.5;stroke-miterlimit:10;" d="M 53.066591 67.888011 L 98.951356 67.888011 L 98.951356 56.692698 L 53.066591 56.692698 Z M 53.066591 67.888011 " transform="matrix(2,0,0,2,5.952756,6.169291)"/>
<path style="fill:none;stroke-width:0.566929;stroke-linecap:butt;stroke-linejoin:miter;stroke:rgb(100%,0%,0%);stroke-opacity:0.5;stroke-miterlimit:10;" d="M 53.066591 67.83137 L 58.73456 62.161448 " transform="matrix(2,0,0,2,5.952756,6.169291)"/>
<path style="fill:none;stroke-width:0.566929;stroke-linecap:butt;stroke-linejoin:miter;stroke:rgb(100%,0%,0%);stroke-opacity:0.5;stroke-miterlimit:10;" d="M 58.73456 67.83137 L 53.066591 62.161448 " transform="matrix(2,0,0,2,5.952756,6.169291)"/>
<path style="fill-rule:nonzero;fill:rgb(50%,50%,0%);fill-opacity:0.1;stroke-width:0.566929;stroke-linecap:butt;stroke-linejoin:miter;stroke:rgb(100%,0%,0%);stroke-opacity:0.5;stroke-miterlimit:10;" d="M 53.066591 67.888011 L 98.951356 67.888011 L 98.951356 56.692698 L 53.066591 56.692698 Z M 53.066591 67.888011 " transform="matrix(2,0,0,2,5.952756,6.169291)"/>
<path style="fill:none;stroke-width:0.566929;stroke-linecap:butt;stroke-linejoin:miter;stroke:rgb(100%,0%,0%);stroke-opacity:0.5;stroke-miterlimit:10;" d="M 53.066591 67.83137 L 58.73456 62.161448 " transform="matrix(2,0,0,2,5.952756,6.169291)"/>
<path style="fill:none;stroke-width:0.566929;stroke-linecap:butt;stroke-linejoin:miter;stroke:rgb(100%,0%,0%);stroke-opacity:0.5;stroke-miterlimit:10;" d="M 58.73456 67.83137 L 53.066591 62.161448 " transform="matrix(2,0,0,2,5.952756,6.169291)"/>
<path style="fill-rule:nonzero;fill:rgb(50%,50%,0%);fill-opacity:0.1;stroke-width:0.566929;stroke-linecap:butt;stroke-linejoin:miter;stroke:rgb(100%,0%,0%);stroke-opacity:0.5;stroke-miterlimit:10;" d="M 55.900575 65.054026 L 96.117372 65.054026 L 96.117372 59.526682 L 55.900575 59.526682 Z M 55.900575 65.054026 " transform="matrix(2,0,0,2,5.952756,6.169291)"/>
<path style=" stroke:none;fill-rule:nonzero;fill:rgb(0%,0%,0%);fill-opacity:1;" d="M 120.410156 130.816406 C 120.410156 127.566406 122.035156 126.722656 123.097656 126.722656 C 123.285156 126.722656 124.535156 126.753906 125.222656 127.472656 C 124.410156 127.535156 124.285156 128.128906 124.285156 128.378906 C 124.285156 128.910156 124.660156 129.285156 125.191406 129.285156 C 125.722656 129.285156 126.128906 128.972656 126.128906 128.347656 C 126.128906 127.003906 124.597656 126.222656 123.066406 126.222656 C 120.566406 126.222656 118.753906 128.378906 118.753906 130.847656 C 118.753906 133.410156 120.722656 135.378906 123.035156 135.378906 C 125.691406 135.378906 126.347656 132.972656 126.347656 132.785156 C 126.347656 132.597656 126.128906 132.597656 126.066406 132.597656 C 125.910156 132.597656 125.847656 132.660156 125.816406 132.785156 C 125.253906 134.628906 123.941406 134.878906 123.222656 134.878906 C 122.160156 134.878906 120.410156 134.035156 120.410156 130.816406 Z M 120.410156 130.816406 "/>
<path style=" stroke:none;fill-rule:nonzero;fill:rgb(0%,0%,0%);fill-opacity:1;" d="M 129.265625 130.816406 C 129.265625 127.566406 130.890625 126.722656 131.953125 126.722656 C 132.140625 126.722656 133.390625 126.753906 134.078125 127.472656 C 133.265625 127.535156 133.140625 128.128906 133.140625 128.378906 C 133.140625 128.910156 133.515625 129.285156 134.046875 129.285156 C 134.578125 129.285156 134.984375 128.972656 134.984375 128.347656 C 134.984375 127.003906 133.453125 126.222656 131.921875 126.222656 C 129.421875 126.222656 127.609375 128.378906 127.609375 130.847656 C 127.609375 133.410156 129.578125 135.378906 131.890625 135.378906 C 134.546875 135.378906 135.203125 132.972656 135.203125 132.785156 C 135.203125 132.597656 134.984375 132.597656 134.921875 132.597656 C 134.765625 132.597656 134.703125 132.660156 134.671875 132.785156 C 134.109375 134.628906 132.796875 134.878906 132.078125 134.878906 C 131.015625 134.878906 129.265625 134.035156 129.265625 130.816406 Z M 129.265625 130.816406 "/>
<path style=" stroke:none;fill-rule:nonzero;fill:rgb(0%,0%,0%);fill-opacity:1;" d="M 138.121094 130.816406 C 138.121094 127.566406 139.746094 126.722656 140.808594 126.722656 C 140.996094 126.722656 142.246094 126.753906 142.933594 127.472656 C 142.121094 127.535156 141.996094 128.128906 141.996094 128.378906 C 141.996094 128.910156 142.371094 129.285156 142.902344 129.285156 C 143.433594 129.285156 143.839844 128.972656 143.839844 128.347656 C 143.839844 127.003906 142.308594 126.222656 140.777344 126.222656 C 138.277344 126.222656 136.464844 128.378906 136.464844 130.847656 C 136.464844 133.410156 138.433594 135.378906 140.746094 135.378906 C 143.402344 135.378906 144.058594 132.972656 144.058594 132.785156 C 144.058594 132.597656 143.839844 132.597656 143.777344 132.597656 C 143.621094 132.597656 143.558594 132.660156 143.527344 132.785156 C 142.964844 134.628906 141.652344 134.878906 140.933594 134.878906 C 139.871094 134.878906 138.121094 134.035156 138.121094 130.816406 Z M 138.121094 130.816406 "/>
<path style=" stroke:none;fill-rule:nonzero;fill:rgb(0%,0%,0%);fill-opacity:1;" d="M 146.972656 130.816406 C 146.972656 127.566406 148.597656 126.722656 149.660156 126.722656 C 149.847656 126.722656 151.097656 126.753906 151.785156 127.472656 C 150.972656 127.535156 150.847656 128.128906 150.847656 128.378906 C 150.847656 128.910156 151.222656 129.285156 151.753906 129.285156 C 152.285156 129.285156 152.691406 128.972656 152.691406 128.347656 C 152.691406 127.003906 151.160156 126.222656 149.628906 126.222656 C 147.128906 126.222656 145.316406 128.378906 145.316406 130.847656 C 145.316406 133.410156 147.285156 135.378906 149.597656 135.378906 C 152.253906 135.378906 152.910156 132.972656 152.910156 132.785156 C 152.910156 132.597656 152.691406 132.597656 152.628906 132.597656 C 152.472656 132.597656 152.410156 132.660156 152.378906 132.785156 C 151.816406 134.628906 150.503906 134.878906 149.785156 134.878906 C 148.722656 134.878906 146.972656 134.035156 146.972656 130.816406 Z M 146.972656 130.816406 "/>
<path style=" stroke:none;fill-rule:nonzero;fill:rgb(0%,0%,0%);fill-opacity:1;" d="M 155.828125 130.816406 C 155.828125 127.566406 157.453125 126.722656 158.515625 126.722656 C 158.703125 126.722656 159.953125 126.753906 160.640625 127.472656 C 159.828125 127.535156 159.703125 128.128906 159.703125 128.378906 C 159.703125 128.910156 160.078125 129.285156 160.609375 129.285156 C 161.140625 129.285156 161.546875 128.972656 161.546875 128.347656 C 161.546875 127.003906 160.015625 126.222656 158.484375 126.222656 C 155.984375 126.222656 154.171875 128.378906 154.171875 130.847656 C 154.171875 133.410156 156.140625 135.378906 158.453125 135.378906 C 161.109375 135.378906 161.765625 132.972656 161.765625 132.785156 C 161.765625 132.597656 161.546875 132.597656 161.484375 132.597656 C 161.328125 132.597656 161.265625 132.660156 161.234375 132.785156 C 160.671875 134.628906 159.359375 134.878906 158.640625 134.878906 C 157.578125 134.878906 155.828125 134.035156 155.828125 130.816406 Z M 155.828125 130.816406 "/>
<path style=" stroke:none;fill-rule:nonzero;fill:rgb(0%,0%,0%);fill-opacity:1;" d="M 164.683594 130.816406 C 164.683594 127.566406 166.308594 126.722656 167.371094 126.722656 C 167.558594 126.722656 168.808594 126.753906 169.496094 127.472656 C 168.683594 127.535156 168.558594 128.128906 168.558594 128.378906 C 168.558594 128.910156 168.933594 129.285156 169.464844 129.285156 C 169.996094 129.285156 170.402344 128.972656 170.402344 128.347656 C 170.402344 127.003906 168.871094 126.222656 167.339844 126.222656 C 164.839844 126.222656 163.027344 128.378906 163.027344 130.847656 C 163.027344 133.410156 164.996094 135.378906 167.308594 135.378906 C 169.964844 135.378906 170.621094 132.972656 170.621094 132.785156 C 170.621094 132.597656 170.402344 132.597656 170.339844 132.597656 C 170.183594 132.597656 170.121094 132.660156 170.089844 132.785156 C 169.527344 134.628906 168.214844 134.878906 167.496094 134.878906 C 166.433594 134.878906 164.683594 134.035156 164.683594 130.816406 Z M 164.683594 130.816406 "/>
<path style=" stroke:none;fill-rule:nonzero;fill:rgb(0%,0%,0%);fill-opacity:1;" d="M 173.539062 130.816406 C 173.539062 127.566406 175.164062 126.722656 176.226562 126.722656 C 176.414062 126.722656 177.664062 126.753906 178.351562 127.472656 C 177.539062 127.535156 177.414062 128.128906 177.414062 128.378906 C 177.414062 128.910156 177.789062 129.285156 178.320312 129.285156 C 178.851562 129.285156 179.257812 128.972656 179.257812 128.347656 C 179.257812 127.003906 177.726562 126.222656 176.195312 126.222656 C 173.695312 126.222656 171.882812 128.378906 171.882812 130.847656 C 171.882812 133.410156 173.851562 135.378906 176.164062 135.378906 C 178.820312 135.378906 179.476562 132.972656 179.476562 132.785156 C 179.476562 132.597656 179.257812 132.597656 179.195312 132.597656 C 179.039062 132.597656 178.976562 132.660156 178.945312 132.785156 C 178.382812 134.628906 177.070312 134.878906 176.351562 134.878906 C 175.289062 134.878906 173.539062 134.035156 173.539062 130.816406 Z M 173.539062 130.816406 "/>
<path style=" stroke:none;fill-rule:nonzero;fill:rgb(0%,0%,0%);fill-opacity:1;" d="M 182.394531 130.816406 C 182.394531 127.566406 184.019531 126.722656 185.082031 126.722656 C 185.269531 126.722656 186.519531 126.753906 187.207031 127.472656 C 186.394531 127.535156 186.269531 128.128906 186.269531 128.378906 C 186.269531 128.910156 186.644531 129.285156 187.175781 129.285156 C 187.707031 129.285156 188.113281 128.972656 188.113281 128.347656 C 188.113281 127.003906 186.582031 126.222656 185.050781 126.222656 C 182.550781 126.222656 180.738281 128.378906 180.738281 130.847656 C 180.738281 133.410156 182.707031 135.378906 185.019531 135.378906 C 187.675781 135.378906 188.332031 132.972656 188.332031 132.785156 C 188.332031 132.597656 188.113281 132.597656 188.050781 132.597656 C 187.894531 132.597656 187.832031 132.660156 187.800781 132.785156 C 187.238281 134.628906 185.925781 134.878906 185.207031 134.878906 C 184.144531 134.878906 182.394531 134.035156 182.394531 130.816406 Z M 182.394531 130.816406 "/>
<path style=" stroke:none;fill-rule:nonzero;fill:rgb(0%,0%,0%);fill-opacity:1;" d="M 191.25 130.816406 C 191.25 127.566406 192.875 126.722656 193.9375 126.722656 C 194.125 126.722656 195.375 126.753906 196.0625 127.472656 C 195.25 127.535156 195.125 128.128906 195.125 128.378906 C 195.125 128.910156 195.5 129.285156 196.03125 129.285156 C 196.5625 129.285156 196.96875 128.972656 196.96875 128.347656 C 196.96875 127.003906 195.4375 126.222656 193.90625 126.222656 C 191.40625 126.222656 189.59375 128.378906 189.59375 130.847656 C 189.59375 133.410156 191.5625 135.378906 193.875 135.378906 C 196.53125 135.378906 197.1875 132.972656 197.1875 132.785156 C 197.1875 132.597656 196.96875 132.597656 196.90625 132.597656 C 196.75 132.597656 196.6875 132.660156 196.65625 132.785156 C 196.09375 134.628906 194.78125 134.878906 194.0625 134.878906 C 193 134.878906 191.25 134.035156 191.25 130.816406 Z M 191.25 130.816406 "/>
<path style="fill:none;stroke-width:0.566929;stroke-linecap:butt;stroke-linejoin:miter;stroke:rgb(100%,0%,0%);stroke-opacity:0.5;stroke-miterlimit:10;" d="M 96.117372 59.526682 L 101.785341 53.858714 " transform="matrix(2,0,0,2,5.952756,6.169291)"/>
<path style="fill:none;stroke-width:0.566929;stroke-linecap:butt;stroke-linejoin:miter;stroke:rgb(100%,0%,0%);stroke-opacity:0.5;stroke-miterlimit:10;" d="M 101.785341 59.526682 L 96.117372 53.858714 " transform="matrix(2,0,0,2,5.952756,6.169291)"/>
<path style="fill:none;stroke-width:0.566929;stroke-linecap:butt;stroke-linejoin:miter;stroke:rgb(100%,0%,0%);stroke-opacity:0.5;stroke-miterlimit:10;" d="M 98.951356 85.038401 L 98.951356 56.692698 Z M 98.951356 85.038401 " transform="matrix(2,0,0,2,5.952756,6.169291)"/>
</g>
</svg>
