<?xml version="1.0" encoding="UTF-8"?>
<svg xmlns="http://www.w3.org/2000/svg" xmlns:xlink="http://www.w3.org/1999/xlink" width="208.935302pt" height="176.748031pt" viewBox="0 0 208.935302 176.748031" version="1.1">
<g id="surface69">
<path style="fill:none;stroke-width:0.566929;stroke-linecap:butt;stroke-linejoin:miter;stroke:rgb(100%,0%,0%);stroke-opacity:0.5;stroke-miterlimit:10;" d="M -2.8338 2.835276 L 2.834169 -2.834646 " transform="matrix(2,0,0,2,5.952756,6.169291)"/>
<path style="fill:none;stroke-width:0.566929;stroke-linecap:butt;stroke-linejoin:miter;stroke:rgb(100%,0%,0%);stroke-opacity:0.5;stroke-miterlimit:10;" d="M 2.834169 2.835276 L -2.8338 -2.834646 " transform="matrix(2,0,0,2,5.952756,6.169291)"/>
<path style="fill-rule:nonzero;fill:rgb(50%,50%,0%);fill-opacity:0.1;stroke-width:0.566929;stroke-linecap:butt;stroke-linejoin:miter;stroke:rgb(100%,0%,0%);stroke-opacity:0.5;stroke-miterlimit:10;" d="M 0.000184547 85.038401 L 98.406435 85.038401 L 98.406435 -0.000661299 L 0.000184547 -0.000661299 Z M 0.000184547 85.038401 " transform="matrix(2,0,0,2,5.952756,6.169291)"/>
<path style="fill:none;stroke-width:0.566929;stroke-linecap:butt;stroke-linejoin:miter;stroke:rgb(100%,0%,0%);stroke-opacity:0.5;stroke-miterlimit:10;" d="M 7.754091 2.835276 L 13.424013 -2.834646 " transform="matrix(2,0,0,2,5.952756,6.169291)"/>
<path style="fill:none;stroke-width:0.566929;stroke-linecap:butt;stroke-linejoin:miter;stroke:rgb(100%,0%,0%);stroke-opacity:0.5;stroke-miterlimit:10;" d="M 13.424013 2.835276 L 7.754091 -2.834646 " transform="matrix(2,0,0,2,5.952756,6.169291)"/>
<path style="fill-rule:nonzero;fill:rgb(50%,50%,0%);fill-opacity:0.1;stroke-width:0.566929;stroke-linecap:butt;stroke-linejoin:miter;stroke:rgb(100%,0%,0%);stroke-opacity:0.5;stroke-miterlimit:10;" d="M 4.746278 10.966136 L 16.431825 10.966136 L 16.431825 -0.000661299 L 4.746278 -0.000661299 Z M 4.746278 10.966136 " transform="matrix(2,0,0,2,5.952756,6.169291)"/>
<path style="fill:none;stroke-width:0.566929;stroke-linecap:butt;stroke-linejoin:miter;stroke:rgb(100%,0%,0%);stroke-opacity:0.5;stroke-miterlimit:10;" d="M 4.746278 10.966136 L 10.4162 5.296214 " transform="matrix(2,0,0,2,5.952756,6.169291)"/>
<path style="fill:none;stroke-width:0.566929;stroke-linecap:butt;stroke-linejoin:miter;stroke:rgb(100%,0%,0%);stroke-opacity:0.5;stroke-miterlimit:10;" d="M 10.4162 10.966136 L 4.746278 5.296214 " transform="matrix(2,0,0,2,5.952756,6.169291)"/>
<path style="fill-rule:nonzero;fill:rgb(50%,50%,0%);fill-opacity:0.1;stroke-width:0.566929;stroke-linecap:butt;stroke-linejoin:miter;stroke:rgb(100%,0%,0%);stroke-opacity:0.5;stroke-miterlimit:10;" d="M 4.746278 10.966136 L 16.431825 10.966136 L 16.431825 -0.000661299 L 4.746278 -0.000661299 Z M 4.746278 10.966136 " transform="matrix(2,0,0,2,5.952756,6.169291)"/>
<path style="fill:none;stroke-width:0.566929;stroke-linecap:butt;stroke-linejoin:miter;stroke:rgb(100%,0%,0%);stroke-opacity:0.5;stroke-miterlimit:10;" d="M 4.746278 10.966136 L 10.4162 5.296214 " transform="matrix(2,0,0,2,5.952756,6.169291)"/>
<path style="fill:none;stroke-width:0.566929;stroke-linecap:butt;stroke-linejoin:miter;stroke:rgb(100%,0%,0%);stroke-opacity:0.5;stroke-miterlimit:10;" d="M 10.4162 10.966136 L 4.746278 5.296214 " transform="matrix(2,0,0,2,5.952756,6.169291)"/>
<path style="fill-rule:nonzero;fill:rgb(50%,50%,0%);fill-opacity:0.1;stroke-width:0.566929;stroke-linecap:butt;stroke-linejoin:miter;stroke:rgb(100%,0%,0%);stroke-opacity:0.5;stroke-miterlimit:10;" d="M 7.582216 8.132151 L 13.597841 8.132151 L 13.597841 2.835276 L 7.582216 2.835276 Z M 7.582216 8.132151 " transform="matrix(2,0,0,2,5.952756,6.169291)"/>
<path style=" stroke:none;fill-rule:nonzero;fill:rgb(0%,0%,0%);fill-opacity:1;" d="M 27.585938 16.746094 C 28.179688 15.996094 28.929688 15.027344 29.429688 14.496094 C 30.054688 13.777344 30.867188 13.464844 31.804688 13.464844 L 31.804688 12.839844 C 31.273438 12.871094 30.679688 12.902344 30.148438 12.902344 C 29.554688 12.902344 28.492188 12.871094 28.242188 12.839844 L 28.242188 13.464844 C 28.679688 13.496094 28.835938 13.746094 28.835938 14.089844 C 28.835938 14.402344 28.617188 14.652344 28.523438 14.777344 L 27.304688 16.339844 L 25.742188 14.308594 C 25.554688 14.121094 25.554688 14.089844 25.554688 13.964844 C 25.554688 13.652344 25.867188 13.464844 26.242188 13.464844 L 26.242188 12.839844 C 25.742188 12.871094 24.429688 12.902344 24.085938 12.902344 C 23.679688 12.902344 22.742188 12.871094 22.210938 12.839844 L 22.210938 13.464844 C 23.617188 13.464844 23.617188 13.464844 24.554688 14.683594 L 26.523438 17.246094 L 24.648438 19.621094 C 23.710938 20.777344 22.523438 20.808594 22.117188 20.808594 L 22.117188 21.433594 C 22.617188 21.402344 23.242188 21.371094 23.773438 21.371094 C 24.335938 21.371094 25.179688 21.402344 25.648438 21.433594 L 25.648438 20.808594 C 25.210938 20.746094 25.085938 20.496094 25.085938 20.183594 C 25.085938 19.746094 25.648438 19.089844 26.867188 17.652344 L 28.398438 19.652344 C 28.554688 19.871094 28.804688 20.183594 28.804688 20.308594 C 28.804688 20.496094 28.617188 20.808594 28.085938 20.808594 L 28.085938 21.433594 C 28.679688 21.402344 29.804688 21.371094 30.242188 21.371094 C 30.773438 21.371094 31.554688 21.402344 32.148438 21.433594 L 32.148438 20.808594 C 31.085938 20.808594 30.710938 20.777344 30.273438 20.183594 Z M 27.585938 16.746094 "/>
<path style="fill:none;stroke-width:0.566929;stroke-linecap:butt;stroke-linejoin:miter;stroke:rgb(100%,0%,0%);stroke-opacity:0.5;stroke-miterlimit:10;" d="M 37.970888 2.835276 L 43.638856 -2.834646 " transform="matrix(2,0,0,2,5.952756,6.169291)"/>
<path style="fill:none;stroke-width:0.566929;stroke-linecap:butt;stroke-linejoin:miter;stroke:rgb(100%,0%,0%);stroke-opacity:0.5;stroke-miterlimit:10;" d="M 43.638856 2.835276 L 37.970888 -2.834646 " transform="matrix(2,0,0,2,5.952756,6.169291)"/>
<path style="fill-rule:nonzero;fill:rgb(50%,50%,0%);fill-opacity:0.1;stroke-width:0.566929;stroke-linecap:butt;stroke-linejoin:miter;stroke:rgb(100%,0%,0%);stroke-opacity:0.5;stroke-miterlimit:10;" d="M 33.357606 11.196604 L 48.252138 11.196604 L 48.252138 -0.000661299 L 33.357606 -0.000661299 Z M 33.357606 11.196604 " transform="matrix(2,0,0,2,5.952756,6.169291)"/>
<path style="fill:none;stroke-width:0.566929;stroke-linecap:butt;stroke-linejoin:miter;stroke:rgb(100%,0%,0%);stroke-opacity:0.5;stroke-miterlimit:10;" d="M 33.357606 11.138011 L 39.027528 5.468089 " transform="matrix(2,0,0,2,5.952756,6.169291)"/>
<path style="fill:none;stroke-width:0.566929;stroke-linecap:butt;stroke-linejoin:miter;stroke:rgb(100%,0%,0%);stroke-opacity:0.5;stroke-miterlimit:10;" d="M 39.027528 11.138011 L 33.357606 5.468089 " transform="matrix(2,0,0,2,5.952756,6.169291)"/>
<path style="fill-rule:nonzero;fill:rgb(50%,50%,0%);fill-opacity:0.1;stroke-width:0.566929;stroke-linecap:butt;stroke-linejoin:miter;stroke:rgb(100%,0%,0%);stroke-opacity:0.5;stroke-miterlimit:10;" d="M 33.357606 11.196604 L 48.252138 11.196604 L 48.252138 -0.000661299 L 33.357606 -0.000661299 Z M 33.357606 11.196604 " transform="matrix(2,0,0,2,5.952756,6.169291)"/>
<path style="fill:none;stroke-width:0.566929;stroke-linecap:butt;stroke-linejoin:miter;stroke:rgb(100%,0%,0%);stroke-opacity:0.5;stroke-miterlimit:10;" d="M 33.357606 11.138011 L 39.027528 5.468089 " transform="matrix(2,0,0,2,5.952756,6.169291)"/>
<path style="fill:none;stroke-width:0.566929;stroke-linecap:butt;stroke-linejoin:miter;stroke:rgb(100%,0%,0%);stroke-opacity:0.5;stroke-miterlimit:10;" d="M 39.027528 11.138011 L 33.357606 5.468089 " transform="matrix(2,0,0,2,5.952756,6.169291)"/>
<path style="fill-rule:nonzero;fill:rgb(50%,50%,0%);fill-opacity:0.1;stroke-width:0.566929;stroke-linecap:butt;stroke-linejoin:miter;stroke:rgb(100%,0%,0%);stroke-opacity:0.5;stroke-miterlimit:10;" d="M 36.191591 8.360667 L 45.4162 8.360667 L 45.4162 2.835276 L 36.191591 2.835276 Z M 36.191591 8.360667 " transform="matrix(2,0,0,2,5.952756,6.169291)"/>
<path style=" stroke:none;fill-rule:nonzero;fill:rgb(0%,0%,0%);fill-opacity:1;" d="M 80.992188 17.433594 C 80.992188 14.183594 82.617188 13.339844 83.679688 13.339844 C 83.867188 13.339844 85.117188 13.371094 85.804688 14.089844 C 84.992188 14.152344 84.867188 14.746094 84.867188 14.996094 C 84.867188 15.527344 85.242188 15.902344 85.773438 15.902344 C 86.304688 15.902344 86.710938 15.589844 86.710938 14.964844 C 86.710938 13.621094 85.179688 12.839844 83.648438 12.839844 C 81.148438 12.839844 79.335938 14.996094 79.335938 17.464844 C 79.335938 20.027344 81.304688 21.996094 83.617188 21.996094 C 86.273438 21.996094 86.929688 19.589844 86.929688 19.402344 C 86.929688 19.214844 86.710938 19.214844 86.648438 19.214844 C 86.492188 19.214844 86.429688 19.277344 86.398438 19.402344 C 85.835938 21.246094 84.523438 21.496094 83.804688 21.496094 C 82.742188 21.496094 80.992188 20.652344 80.992188 17.433594 Z M 80.992188 17.433594 "/>
<path style=" stroke:none;fill-rule:nonzero;fill:rgb(0%,0%,0%);fill-opacity:1;" d="M 89.847656 17.433594 C 89.847656 14.183594 91.472656 13.339844 92.535156 13.339844 C 92.722656 13.339844 93.972656 13.371094 94.660156 14.089844 C 93.847656 14.152344 93.722656 14.746094 93.722656 14.996094 C 93.722656 15.527344 94.097656 15.902344 94.628906 15.902344 C 95.160156 15.902344 95.566406 15.589844 95.566406 14.964844 C 95.566406 13.621094 94.035156 12.839844 92.503906 12.839844 C 90.003906 12.839844 88.191406 14.996094 88.191406 17.464844 C 88.191406 20.027344 90.160156 21.996094 92.472656 21.996094 C 95.128906 21.996094 95.785156 19.589844 95.785156 19.402344 C 95.785156 19.214844 95.566406 19.214844 95.503906 19.214844 C 95.347656 19.214844 95.285156 19.277344 95.253906 19.402344 C 94.691406 21.246094 93.378906 21.496094 92.660156 21.496094 C 91.597656 21.496094 89.847656 20.652344 89.847656 17.433594 Z M 89.847656 17.433594 "/>
<path style="fill:none;stroke-width:0.566929;stroke-linecap:butt;stroke-linejoin:miter;stroke:rgb(100%,0%,0%);stroke-opacity:0.5;stroke-miterlimit:10;" d="M 76.584169 2.835276 L 82.254091 -2.834646 " transform="matrix(2,0,0,2,5.952756,6.169291)"/>
<path style="fill:none;stroke-width:0.566929;stroke-linecap:butt;stroke-linejoin:miter;stroke:rgb(100%,0%,0%);stroke-opacity:0.5;stroke-miterlimit:10;" d="M 82.254091 2.835276 L 76.584169 -2.834646 " transform="matrix(2,0,0,2,5.952756,6.169291)"/>
<path style="fill-rule:nonzero;fill:rgb(50%,50%,0%);fill-opacity:0.1;stroke-width:0.566929;stroke-linecap:butt;stroke-linejoin:miter;stroke:rgb(100%,0%,0%);stroke-opacity:0.5;stroke-miterlimit:10;" d="M 71.529481 13.700511 L 87.306825 13.700511 L 87.306825 -0.000661299 L 71.529481 -0.000661299 Z M 71.529481 13.700511 " transform="matrix(2,0,0,2,5.952756,6.169291)"/>
<path style="fill:none;stroke-width:0.566929;stroke-linecap:butt;stroke-linejoin:miter;stroke:rgb(100%,0%,0%);stroke-opacity:0.5;stroke-miterlimit:10;" d="M 71.529481 13.700511 L 77.199403 8.030589 " transform="matrix(2,0,0,2,5.952756,6.169291)"/>
<path style="fill:none;stroke-width:0.566929;stroke-linecap:butt;stroke-linejoin:miter;stroke:rgb(100%,0%,0%);stroke-opacity:0.5;stroke-miterlimit:10;" d="M 77.199403 13.700511 L 71.529481 8.030589 " transform="matrix(2,0,0,2,5.952756,6.169291)"/>
<path style="fill-rule:nonzero;fill:rgb(50%,50%,0%);fill-opacity:0.1;stroke-width:0.566929;stroke-linecap:butt;stroke-linejoin:miter;stroke:rgb(100%,0%,0%);stroke-opacity:0.5;stroke-miterlimit:10;" d="M 71.529481 13.700511 L 87.306825 13.700511 L 87.306825 -0.000661299 L 71.529481 -0.000661299 Z M 71.529481 13.700511 " transform="matrix(2,0,0,2,5.952756,6.169291)"/>
<path style="fill:none;stroke-width:0.566929;stroke-linecap:butt;stroke-linejoin:miter;stroke:rgb(100%,0%,0%);stroke-opacity:0.5;stroke-miterlimit:10;" d="M 71.529481 13.700511 L 77.199403 8.030589 " transform="matrix(2,0,0,2,5.952756,6.169291)"/>
<path style="fill:none;stroke-width:0.566929;stroke-linecap:butt;stroke-linejoin:miter;stroke:rgb(100%,0%,0%);stroke-opacity:0.5;stroke-miterlimit:10;" d="M 77.199403 13.700511 L 71.529481 8.030589 " transform="matrix(2,0,0,2,5.952756,6.169291)"/>
<path style="fill-rule:nonzero;fill:rgb(50%,50%,0%);fill-opacity:0.1;stroke-width:0.566929;stroke-linecap:butt;stroke-linejoin:miter;stroke:rgb(100%,0%,0%);stroke-opacity:0.5;stroke-miterlimit:10;" d="M 74.365419 10.866526 L 84.472841 10.866526 L 84.472841 2.835276 L 74.365419 2.835276 Z M 74.365419 10.866526 " transform="matrix(2,0,0,2,5.952756,6.169291)"/>
<path style=" stroke:none;fill-rule:nonzero;fill:rgb(0%,0%,0%);fill-opacity:1;" d="M 164.089844 18.933594 L 166.371094 18.933594 L 166.371094 18.308594 L 164.027344 18.308594 L 164.027344 15.996094 C 164.027344 14.214844 164.996094 13.277344 165.871094 13.277344 C 165.933594 13.277344 166.246094 13.277344 166.527344 13.433594 C 166.308594 13.496094 165.933594 13.777344 165.933594 14.277344 C 165.933594 14.714844 166.246094 15.121094 166.808594 15.121094 C 167.371094 15.121094 167.683594 14.714844 167.683594 14.246094 C 167.683594 13.527344 166.964844 12.839844 165.871094 12.839844 C 164.683594 12.839844 163.808594 13.589844 163.714844 13.683594 C 163.121094 12.933594 161.996094 12.839844 161.464844 12.839844 C 159.589844 12.839844 157.277344 13.871094 157.277344 16.027344 L 157.277344 18.308594 L 155.683594 18.308594 L 155.683594 18.933594 L 157.277344 18.933594 L 157.277344 25.402344 C 157.277344 26.277344 157.058594 26.277344 155.714844 26.277344 L 155.714844 26.902344 C 156.371094 26.871094 157.433594 26.839844 157.933594 26.839844 C 158.433594 26.839844 159.402344 26.871094 160.152344 26.902344 L 160.152344 26.277344 C 158.808594 26.277344 158.589844 26.277344 158.589844 25.402344 L 158.589844 18.933594 L 162.777344 18.933594 L 162.777344 25.402344 C 162.777344 26.277344 162.558594 26.277344 161.214844 26.277344 L 161.214844 26.902344 C 161.996094 26.871094 162.933594 26.839844 163.496094 26.839844 C 164.277344 26.839844 165.214844 26.839844 166.027344 26.902344 L 166.027344 26.277344 L 165.589844 26.277344 C 164.121094 26.277344 164.089844 26.058594 164.089844 25.339844 Z M 158.527344 18.308594 L 158.527344 16.058594 C 158.527344 14.121094 160.152344 13.277344 161.464844 13.277344 C 162.433594 13.277344 162.996094 13.652344 162.996094 13.652344 L 162.996094 13.683594 C 162.683594 13.714844 162.277344 13.996094 162.277344 14.527344 C 162.277344 14.652344 162.277344 15.152344 162.839844 15.339844 C 162.777344 15.589844 162.777344 15.777344 162.777344 16.027344 L 162.777344 18.308594 Z M 158.527344 18.308594 "/>
<path style=" stroke:none;fill-rule:nonzero;fill:rgb(0%,0%,0%);fill-opacity:1;" d="M 170.273438 18.308594 L 170.273438 15.996094 C 170.273438 14.246094 171.210938 13.277344 172.085938 13.277344 C 172.148438 13.277344 172.460938 13.277344 172.742188 13.433594 C 172.523438 13.496094 172.148438 13.777344 172.148438 14.277344 C 172.148438 14.714844 172.460938 15.121094 173.023438 15.121094 C 173.585938 15.121094 173.898438 14.714844 173.898438 14.246094 C 173.898438 13.496094 173.148438 12.839844 172.085938 12.839844 C 170.710938 12.839844 168.992188 13.902344 168.992188 16.027344 L 168.992188 18.308594 L 167.429688 18.308594 L 167.429688 18.933594 L 168.992188 18.933594 L 168.992188 25.402344 C 168.992188 26.277344 168.773438 26.277344 167.460938 26.277344 L 167.460938 26.902344 C 168.242188 26.871094 169.179688 26.839844 169.710938 26.839844 C 170.523438 26.839844 171.460938 26.839844 172.242188 26.902344 L 172.242188 26.277344 L 171.835938 26.277344 C 170.367188 26.277344 170.335938 26.058594 170.335938 25.339844 L 170.335938 18.933594 L 172.585938 18.933594 L 172.585938 18.308594 Z M 170.273438 18.308594 "/>
<path style="fill:none;stroke-width:0.566929;stroke-linecap:butt;stroke-linejoin:miter;stroke:rgb(100%,0%,0%);stroke-opacity:0.5;stroke-miterlimit:10;" d="M 95.57245 2.835276 L 101.240419 -2.834646 " transform="matrix(2,0,0,2,5.952756,6.169291)"/>
<path style="fill:none;stroke-width:0.566929;stroke-linecap:butt;stroke-linejoin:miter;stroke:rgb(100%,0%,0%);stroke-opacity:0.5;stroke-miterlimit:10;" d="M 101.240419 2.835276 L 95.57245 -2.834646 " transform="matrix(2,0,0,2,5.952756,6.169291)"/>
<path style="fill:none;stroke-width:0.566929;stroke-linecap:butt;stroke-linejoin:miter;stroke:rgb(100%,0%,0%);stroke-opacity:0.5;stroke-miterlimit:10;" d="M 98.406435 28.346995 L 98.406435 -0.000661299 Z M 98.406435 28.346995 " transform="matrix(2,0,0,2,5.952756,6.169291)"/>
<path style="fill:none;stroke-width:0.566929;stroke-linecap:butt;stroke-linejoin:miter;stroke:rgb(100%,0%,0%);stroke-opacity:0.5;stroke-miterlimit:10;" d="M 7.754091 31.180979 L 13.424013 25.511057 " transform="matrix(2,0,0,2,5.952756,6.169291)"/>
<path style="fill:none;stroke-width:0.566929;stroke-linecap:butt;stroke-linejoin:miter;stroke:rgb(100%,0%,0%);stroke-opacity:0.5;stroke-miterlimit:10;" d="M 13.424013 31.180979 L 7.754091 25.511057 " transform="matrix(2,0,0,2,5.952756,6.169291)"/>
<path style="fill-rule:nonzero;fill:rgb(50%,50%,0%);fill-opacity:0.1;stroke-width:0.566929;stroke-linecap:butt;stroke-linejoin:miter;stroke:rgb(100%,0%,0%);stroke-opacity:0.5;stroke-miterlimit:10;" d="M 3.142763 39.540354 L 18.035341 39.540354 L 18.035341 28.346995 L 3.142763 28.346995 Z M 3.142763 39.540354 " transform="matrix(2,0,0,2,5.952756,6.169291)"/>
<path style="fill:none;stroke-width:0.566929;stroke-linecap:butt;stroke-linejoin:miter;stroke:rgb(100%,0%,0%);stroke-opacity:0.5;stroke-miterlimit:10;" d="M 3.142763 39.483714 L 8.812685 33.815745 " transform="matrix(2,0,0,2,5.952756,6.169291)"/>
<path style="fill:none;stroke-width:0.566929;stroke-linecap:butt;stroke-linejoin:miter;stroke:rgb(100%,0%,0%);stroke-opacity:0.5;stroke-miterlimit:10;" d="M 8.812685 39.483714 L 3.142763 33.815745 " transform="matrix(2,0,0,2,5.952756,6.169291)"/>
<path style="fill-rule:nonzero;fill:rgb(50%,50%,0%);fill-opacity:0.1;stroke-width:0.566929;stroke-linecap:butt;stroke-linejoin:miter;stroke:rgb(100%,0%,0%);stroke-opacity:0.5;stroke-miterlimit:10;" d="M 3.142763 39.540354 L 18.035341 39.540354 L 18.035341 28.346995 L 3.142763 28.346995 Z M 3.142763 39.540354 " transform="matrix(2,0,0,2,5.952756,6.169291)"/>
<path style="fill:none;stroke-width:0.566929;stroke-linecap:butt;stroke-linejoin:miter;stroke:rgb(100%,0%,0%);stroke-opacity:0.5;stroke-miterlimit:10;" d="M 3.142763 39.483714 L 8.812685 33.815745 " transform="matrix(2,0,0,2,5.952756,6.169291)"/>
<path style="fill:none;stroke-width:0.566929;stroke-linecap:butt;stroke-linejoin:miter;stroke:rgb(100%,0%,0%);stroke-opacity:0.5;stroke-miterlimit:10;" d="M 8.812685 39.483714 L 3.142763 33.815745 " transform="matrix(2,0,0,2,5.952756,6.169291)"/>
<path style="fill-rule:nonzero;fill:rgb(50%,50%,0%);fill-opacity:0.1;stroke-width:0.566929;stroke-linecap:butt;stroke-linejoin:miter;stroke:rgb(100%,0%,0%);stroke-opacity:0.5;stroke-miterlimit:10;" d="M 5.976747 36.70637 L 15.201356 36.70637 L 15.201356 31.180979 L 5.976747 31.180979 Z M 5.976747 36.70637 " transform="matrix(2,0,0,2,5.952756,6.169291)"/>
<path style=" stroke:none;fill-rule:nonzero;fill:rgb(0%,0%,0%);fill-opacity:1;" d="M 20.5625 74.125 C 20.5625 70.875 22.1875 70.03125 23.25 70.03125 C 23.4375 70.03125 24.6875 70.0625 25.375 70.78125 C 24.5625 70.84375 24.4375 71.4375 24.4375 71.6875 C 24.4375 72.21875 24.8125 72.59375 25.34375 72.59375 C 25.875 72.59375 26.28125 72.28125 26.28125 71.65625 C 26.28125 70.3125 24.75 69.53125 23.21875 69.53125 C 20.71875 69.53125 18.90625 71.6875 18.90625 74.15625 C 18.90625 76.71875 20.875 78.6875 23.1875 78.6875 C 25.84375 78.6875 26.5 76.28125 26.5 76.09375 C 26.5 75.90625 26.28125 75.90625 26.21875 75.90625 C 26.0625 75.90625 26 75.96875 25.96875 76.09375 C 25.40625 77.9375 24.09375 78.1875 23.375 78.1875 C 22.3125 78.1875 20.5625 77.34375 20.5625 74.125 Z M 20.5625 74.125 "/>
<path style=" stroke:none;fill-rule:nonzero;fill:rgb(0%,0%,0%);fill-opacity:1;" d="M 29.417969 74.125 C 29.417969 70.875 31.042969 70.03125 32.105469 70.03125 C 32.292969 70.03125 33.542969 70.0625 34.230469 70.78125 C 33.417969 70.84375 33.292969 71.4375 33.292969 71.6875 C 33.292969 72.21875 33.667969 72.59375 34.199219 72.59375 C 34.730469 72.59375 35.136719 72.28125 35.136719 71.65625 C 35.136719 70.3125 33.605469 69.53125 32.074219 69.53125 C 29.574219 69.53125 27.761719 71.6875 27.761719 74.15625 C 27.761719 76.71875 29.730469 78.6875 32.042969 78.6875 C 34.699219 78.6875 35.355469 76.28125 35.355469 76.09375 C 35.355469 75.90625 35.136719 75.90625 35.074219 75.90625 C 34.917969 75.90625 34.855469 75.96875 34.824219 76.09375 C 34.261719 77.9375 32.949219 78.1875 32.230469 78.1875 C 31.167969 78.1875 29.417969 77.34375 29.417969 74.125 Z M 29.417969 74.125 "/>
<path style="fill:none;stroke-width:0.566929;stroke-linecap:butt;stroke-linejoin:miter;stroke:rgb(100%,0%,0%);stroke-opacity:0.5;stroke-miterlimit:10;" d="M 37.970888 31.180979 L 43.638856 25.511057 " transform="matrix(2,0,0,2,5.952756,6.169291)"/>
<path style="fill:none;stroke-width:0.566929;stroke-linecap:butt;stroke-linejoin:miter;stroke:rgb(100%,0%,0%);stroke-opacity:0.5;stroke-miterlimit:10;" d="M 43.638856 31.180979 L 37.970888 25.511057 " transform="matrix(2,0,0,2,5.952756,6.169291)"/>
<path style="fill-rule:nonzero;fill:rgb(50%,50%,0%);fill-opacity:0.1;stroke-width:0.566929;stroke-linecap:butt;stroke-linejoin:miter;stroke:rgb(100%,0%,0%);stroke-opacity:0.5;stroke-miterlimit:10;" d="M 26.713075 41.993479 L 54.894716 41.993479 L 54.894716 28.346995 L 26.713075 28.346995 Z M 26.713075 41.993479 " transform="matrix(2,0,0,2,5.952756,6.169291)"/>
<path style="fill:none;stroke-width:0.566929;stroke-linecap:butt;stroke-linejoin:miter;stroke:rgb(100%,0%,0%);stroke-opacity:0.5;stroke-miterlimit:10;" d="M 26.713075 41.936839 L 32.382997 36.26887 " transform="matrix(2,0,0,2,5.952756,6.169291)"/>
<path style="fill:none;stroke-width:0.566929;stroke-linecap:butt;stroke-linejoin:miter;stroke:rgb(100%,0%,0%);stroke-opacity:0.5;stroke-miterlimit:10;" d="M 32.382997 41.936839 L 26.713075 36.26887 " transform="matrix(2,0,0,2,5.952756,6.169291)"/>
<path style="fill-rule:nonzero;fill:rgb(50%,50%,0%);fill-opacity:0.1;stroke-width:0.566929;stroke-linecap:butt;stroke-linejoin:miter;stroke:rgb(100%,0%,0%);stroke-opacity:0.5;stroke-miterlimit:10;" d="M 26.713075 41.993479 L 54.894716 41.993479 L 54.894716 28.346995 L 26.713075 28.346995 Z M 26.713075 41.993479 " transform="matrix(2,0,0,2,5.952756,6.169291)"/>
<path style="fill:none;stroke-width:0.566929;stroke-linecap:butt;stroke-linejoin:miter;stroke:rgb(100%,0%,0%);stroke-opacity:0.5;stroke-miterlimit:10;" d="M 26.713075 41.936839 L 32.382997 36.26887 " transform="matrix(2,0,0,2,5.952756,6.169291)"/>
<path style="fill:none;stroke-width:0.566929;stroke-linecap:butt;stroke-linejoin:miter;stroke:rgb(100%,0%,0%);stroke-opacity:0.5;stroke-miterlimit:10;" d="M 32.382997 41.936839 L 26.713075 36.26887 " transform="matrix(2,0,0,2,5.952756,6.169291)"/>
<path style="fill-rule:nonzero;fill:rgb(50%,50%,0%);fill-opacity:0.1;stroke-width:0.566929;stroke-linecap:butt;stroke-linejoin:miter;stroke:rgb(100%,0%,0%);stroke-opacity:0.5;stroke-miterlimit:10;" d="M 29.549013 39.159495 L 52.060731 39.159495 L 52.060731 31.180979 L 29.549013 31.180979 Z M 29.549013 39.159495 " transform="matrix(2,0,0,2,5.952756,6.169291)"/>
<path style=" stroke:none;fill-rule:nonzero;fill:rgb(0%,0%,0%);fill-opacity:1;" d="M 68.925781 75.84375 L 68.925781 69.53125 L 66.050781 69.75 L 66.050781 70.375 C 67.457031 70.375 67.613281 70.5 67.613281 71.5 L 67.613281 83.375 L 68.113281 83.375 C 68.113281 83.34375 68.269531 83.0625 68.832031 82.125 C 69.113281 82.59375 69.957031 83.59375 71.425781 83.59375 C 73.800781 83.59375 75.863281 81.625 75.863281 79.0625 C 75.863281 76.53125 73.925781 74.5625 71.644531 74.5625 C 70.082031 74.5625 69.238281 75.5 68.925781 75.84375 Z M 68.988281 81.09375 L 68.988281 77 C 68.988281 76.625 68.988281 76.59375 69.207031 76.28125 C 69.988281 75.15625 71.082031 75 71.550781 75 C 72.457031 75 73.175781 75.53125 73.644531 76.28125 C 74.175781 77.09375 74.207031 78.21875 74.207031 79.0625 C 74.207031 79.78125 74.175781 80.96875 73.613281 81.875 C 73.175781 82.5 72.425781 83.15625 71.363281 83.15625 C 70.457031 83.15625 69.738281 82.6875 69.269531 81.9375 C 68.988281 81.53125 68.988281 81.46875 68.988281 81.09375 Z M 68.988281 81.09375 "/>
<path style=" stroke:none;fill-rule:nonzero;fill:rgb(0%,0%,0%);fill-opacity:1;" d="M 79.996094 75.84375 L 79.996094 69.53125 L 77.121094 69.75 L 77.121094 70.375 C 78.527344 70.375 78.683594 70.5 78.683594 71.5 L 78.683594 83.375 L 79.183594 83.375 C 79.183594 83.34375 79.339844 83.0625 79.902344 82.125 C 80.183594 82.59375 81.027344 83.59375 82.496094 83.59375 C 84.871094 83.59375 86.933594 81.625 86.933594 79.0625 C 86.933594 76.53125 84.996094 74.5625 82.714844 74.5625 C 81.152344 74.5625 80.308594 75.5 79.996094 75.84375 Z M 80.058594 81.09375 L 80.058594 77 C 80.058594 76.625 80.058594 76.59375 80.277344 76.28125 C 81.058594 75.15625 82.152344 75 82.621094 75 C 83.527344 75 84.246094 75.53125 84.714844 76.28125 C 85.246094 77.09375 85.277344 78.21875 85.277344 79.0625 C 85.277344 79.78125 85.246094 80.96875 84.683594 81.875 C 84.246094 82.5 83.496094 83.15625 82.433594 83.15625 C 81.527344 83.15625 80.808594 82.6875 80.339844 81.9375 C 80.058594 81.53125 80.058594 81.46875 80.058594 81.09375 Z M 80.058594 81.09375 "/>
<path style=" stroke:none;fill-rule:nonzero;fill:rgb(0%,0%,0%);fill-opacity:1;" d="M 91.066406 75.84375 L 91.066406 69.53125 L 88.191406 69.75 L 88.191406 70.375 C 89.597656 70.375 89.753906 70.5 89.753906 71.5 L 89.753906 83.375 L 90.253906 83.375 C 90.253906 83.34375 90.410156 83.0625 90.972656 82.125 C 91.253906 82.59375 92.097656 83.59375 93.566406 83.59375 C 95.941406 83.59375 98.003906 81.625 98.003906 79.0625 C 98.003906 76.53125 96.066406 74.5625 93.785156 74.5625 C 92.222656 74.5625 91.378906 75.5 91.066406 75.84375 Z M 91.128906 81.09375 L 91.128906 77 C 91.128906 76.625 91.128906 76.59375 91.347656 76.28125 C 92.128906 75.15625 93.222656 75 93.691406 75 C 94.597656 75 95.316406 75.53125 95.785156 76.28125 C 96.316406 77.09375 96.347656 78.21875 96.347656 79.0625 C 96.347656 79.78125 96.316406 80.96875 95.753906 81.875 C 95.316406 82.5 94.566406 83.15625 93.503906 83.15625 C 92.597656 83.15625 91.878906 82.6875 91.410156 81.9375 C 91.128906 81.53125 91.128906 81.46875 91.128906 81.09375 Z M 91.128906 81.09375 "/>
<path style=" stroke:none;fill-rule:nonzero;fill:rgb(0%,0%,0%);fill-opacity:1;" d="M 102.136719 75.84375 L 102.136719 69.53125 L 99.261719 69.75 L 99.261719 70.375 C 100.667969 70.375 100.824219 70.5 100.824219 71.5 L 100.824219 83.375 L 101.324219 83.375 C 101.324219 83.34375 101.480469 83.0625 102.042969 82.125 C 102.324219 82.59375 103.167969 83.59375 104.636719 83.59375 C 107.011719 83.59375 109.074219 81.625 109.074219 79.0625 C 109.074219 76.53125 107.136719 74.5625 104.855469 74.5625 C 103.292969 74.5625 102.449219 75.5 102.136719 75.84375 Z M 102.199219 81.09375 L 102.199219 77 C 102.199219 76.625 102.199219 76.59375 102.417969 76.28125 C 103.199219 75.15625 104.292969 75 104.761719 75 C 105.667969 75 106.386719 75.53125 106.855469 76.28125 C 107.386719 77.09375 107.417969 78.21875 107.417969 79.0625 C 107.417969 79.78125 107.386719 80.96875 106.824219 81.875 C 106.386719 82.5 105.636719 83.15625 104.574219 83.15625 C 103.667969 83.15625 102.949219 82.6875 102.480469 81.9375 C 102.199219 81.53125 102.199219 81.46875 102.199219 81.09375 Z M 102.199219 81.09375 "/>
<path style="fill:none;stroke-width:0.566929;stroke-linecap:butt;stroke-linejoin:miter;stroke:rgb(100%,0%,0%);stroke-opacity:0.5;stroke-miterlimit:10;" d="M 76.584169 31.180979 L 82.254091 25.511057 " transform="matrix(2,0,0,2,5.952756,6.169291)"/>
<path style="fill:none;stroke-width:0.566929;stroke-linecap:butt;stroke-linejoin:miter;stroke:rgb(100%,0%,0%);stroke-opacity:0.5;stroke-miterlimit:10;" d="M 82.254091 31.180979 L 76.584169 25.511057 " transform="matrix(2,0,0,2,5.952756,6.169291)"/>
<path style="fill-rule:nonzero;fill:rgb(50%,50%,0%);fill-opacity:0.1;stroke-width:0.566929;stroke-linecap:butt;stroke-linejoin:miter;stroke:rgb(100%,0%,0%);stroke-opacity:0.5;stroke-miterlimit:10;" d="M 60.429872 39.311839 L 98.406435 39.311839 L 98.406435 28.346995 L 60.429872 28.346995 Z M 60.429872 39.311839 " transform="matrix(2,0,0,2,5.952756,6.169291)"/>
<path style="fill:none;stroke-width:0.566929;stroke-linecap:butt;stroke-linejoin:miter;stroke:rgb(100%,0%,0%);stroke-opacity:0.5;stroke-miterlimit:10;" d="M 60.429872 39.311839 L 66.099794 33.64387 " transform="matrix(2,0,0,2,5.952756,6.169291)"/>
<path style="fill:none;stroke-width:0.566929;stroke-linecap:butt;stroke-linejoin:miter;stroke:rgb(100%,0%,0%);stroke-opacity:0.5;stroke-miterlimit:10;" d="M 66.099794 39.311839 L 60.429872 33.64387 " transform="matrix(2,0,0,2,5.952756,6.169291)"/>
<path style="fill-rule:nonzero;fill:rgb(50%,50%,0%);fill-opacity:0.1;stroke-width:0.566929;stroke-linecap:butt;stroke-linejoin:miter;stroke:rgb(100%,0%,0%);stroke-opacity:0.5;stroke-miterlimit:10;" d="M 60.429872 39.311839 L 98.406435 39.311839 L 98.406435 28.346995 L 60.429872 28.346995 Z M 60.429872 39.311839 " transform="matrix(2,0,0,2,5.952756,6.169291)"/>
<path style="fill:none;stroke-width:0.566929;stroke-linecap:butt;stroke-linejoin:miter;stroke:rgb(100%,0%,0%);stroke-opacity:0.5;stroke-miterlimit:10;" d="M 60.429872 39.311839 L 66.099794 33.64387 " transform="matrix(2,0,0,2,5.952756,6.169291)"/>
<path style="fill:none;stroke-width:0.566929;stroke-linecap:butt;stroke-linejoin:miter;stroke:rgb(100%,0%,0%);stroke-opacity:0.5;stroke-miterlimit:10;" d="M 66.099794 39.311839 L 60.429872 33.64387 " transform="matrix(2,0,0,2,5.952756,6.169291)"/>
<path style="fill-rule:nonzero;fill:rgb(50%,50%,0%);fill-opacity:0.1;stroke-width:0.566929;stroke-linecap:butt;stroke-linejoin:miter;stroke:rgb(100%,0%,0%);stroke-opacity:0.5;stroke-miterlimit:10;" d="M 63.26581 36.477854 L 95.57245 36.477854 L 95.57245 31.180979 L 63.26581 31.180979 Z M 63.26581 36.477854 " transform="matrix(2,0,0,2,5.952756,6.169291)"/>
<path style=" stroke:none;fill-rule:nonzero;fill:rgb(0%,0%,0%);fill-opacity:1;" d="M 138.953125 73.4375 C 139.546875 72.6875 140.296875 71.71875 140.796875 71.1875 C 141.421875 70.46875 142.234375 70.15625 143.171875 70.15625 L 143.171875 69.53125 C 142.640625 69.5625 142.046875 69.59375 141.515625 69.59375 C 140.921875 69.59375 139.859375 69.5625 139.609375 69.53125 L 139.609375 70.15625 C 140.046875 70.1875 140.203125 70.4375 140.203125 70.78125 C 140.203125 71.09375 139.984375 71.34375 139.890625 71.46875 L 138.671875 73.03125 L 137.109375 71 C 136.921875 70.8125 136.921875 70.78125 136.921875 70.65625 C 136.921875 70.34375 137.234375 70.15625 137.609375 70.15625 L 137.609375 69.53125 C 137.109375 69.5625 135.796875 69.59375 135.453125 69.59375 C 135.046875 69.59375 134.109375 69.5625 133.578125 69.53125 L 133.578125 70.15625 C 134.984375 70.15625 134.984375 70.15625 135.921875 71.375 L 137.890625 73.9375 L 136.015625 76.3125 C 135.078125 77.46875 133.890625 77.5 133.484375 77.5 L 133.484375 78.125 C 133.984375 78.09375 134.609375 78.0625 135.140625 78.0625 C 135.703125 78.0625 136.546875 78.09375 137.015625 78.125 L 137.015625 77.5 C 136.578125 77.4375 136.453125 77.1875 136.453125 76.875 C 136.453125 76.4375 137.015625 75.78125 138.234375 74.34375 L 139.765625 76.34375 C 139.921875 76.5625 140.171875 76.875 140.171875 77 C 140.171875 77.1875 139.984375 77.5 139.453125 77.5 L 139.453125 78.125 C 140.046875 78.09375 141.171875 78.0625 141.609375 78.0625 C 142.140625 78.0625 142.921875 78.09375 143.515625 78.125 L 143.515625 77.5 C 142.453125 77.5 142.078125 77.46875 141.640625 76.875 Z M 138.953125 73.4375 "/>
<path style=" stroke:none;fill-rule:nonzero;fill:rgb(0%,0%,0%);fill-opacity:1;" d="M 149.46875 73.4375 C 150.0625 72.6875 150.8125 71.71875 151.3125 71.1875 C 151.9375 70.46875 152.75 70.15625 153.6875 70.15625 L 153.6875 69.53125 C 153.15625 69.5625 152.5625 69.59375 152.03125 69.59375 C 151.4375 69.59375 150.375 69.5625 150.125 69.53125 L 150.125 70.15625 C 150.5625 70.1875 150.71875 70.4375 150.71875 70.78125 C 150.71875 71.09375 150.5 71.34375 150.40625 71.46875 L 149.1875 73.03125 L 147.625 71 C 147.4375 70.8125 147.4375 70.78125 147.4375 70.65625 C 147.4375 70.34375 147.75 70.15625 148.125 70.15625 L 148.125 69.53125 C 147.625 69.5625 146.3125 69.59375 145.96875 69.59375 C 145.5625 69.59375 144.625 69.5625 144.09375 69.53125 L 144.09375 70.15625 C 145.5 70.15625 145.5 70.15625 146.4375 71.375 L 148.40625 73.9375 L 146.53125 76.3125 C 145.59375 77.46875 144.40625 77.5 144 77.5 L 144 78.125 C 144.5 78.09375 145.125 78.0625 145.65625 78.0625 C 146.21875 78.0625 147.0625 78.09375 147.53125 78.125 L 147.53125 77.5 C 147.09375 77.4375 146.96875 77.1875 146.96875 76.875 C 146.96875 76.4375 147.53125 75.78125 148.75 74.34375 L 150.28125 76.34375 C 150.4375 76.5625 150.6875 76.875 150.6875 77 C 150.6875 77.1875 150.5 77.5 149.96875 77.5 L 149.96875 78.125 C 150.5625 78.09375 151.6875 78.0625 152.125 78.0625 C 152.65625 78.0625 153.4375 78.09375 154.03125 78.125 L 154.03125 77.5 C 152.96875 77.5 152.59375 77.46875 152.15625 76.875 Z M 149.46875 73.4375 "/>
<path style=" stroke:none;fill-rule:nonzero;fill:rgb(0%,0%,0%);fill-opacity:1;" d="M 159.984375 73.4375 C 160.578125 72.6875 161.328125 71.71875 161.828125 71.1875 C 162.453125 70.46875 163.265625 70.15625 164.203125 70.15625 L 164.203125 69.53125 C 163.671875 69.5625 163.078125 69.59375 162.546875 69.59375 C 161.953125 69.59375 160.890625 69.5625 160.640625 69.53125 L 160.640625 70.15625 C 161.078125 70.1875 161.234375 70.4375 161.234375 70.78125 C 161.234375 71.09375 161.015625 71.34375 160.921875 71.46875 L 159.703125 73.03125 L 158.140625 71 C 157.953125 70.8125 157.953125 70.78125 157.953125 70.65625 C 157.953125 70.34375 158.265625 70.15625 158.640625 70.15625 L 158.640625 69.53125 C 158.140625 69.5625 156.828125 69.59375 156.484375 69.59375 C 156.078125 69.59375 155.140625 69.5625 154.609375 69.53125 L 154.609375 70.15625 C 156.015625 70.15625 156.015625 70.15625 156.953125 71.375 L 158.921875 73.9375 L 157.046875 76.3125 C 156.109375 77.46875 154.921875 77.5 154.515625 77.5 L 154.515625 78.125 C 155.015625 78.09375 155.640625 78.0625 156.171875 78.0625 C 156.734375 78.0625 157.578125 78.09375 158.046875 78.125 L 158.046875 77.5 C 157.609375 77.4375 157.484375 77.1875 157.484375 76.875 C 157.484375 76.4375 158.046875 75.78125 159.265625 74.34375 L 160.796875 76.34375 C 160.953125 76.5625 161.203125 76.875 161.203125 77 C 161.203125 77.1875 161.015625 77.5 160.484375 77.5 L 160.484375 78.125 C 161.078125 78.09375 162.203125 78.0625 162.640625 78.0625 C 163.171875 78.0625 163.953125 78.09375 164.546875 78.125 L 164.546875 77.5 C 163.484375 77.5 163.109375 77.46875 162.671875 76.875 Z M 159.984375 73.4375 "/>
<path style=" stroke:none;fill-rule:nonzero;fill:rgb(0%,0%,0%);fill-opacity:1;" d="M 170.5 73.4375 C 171.09375 72.6875 171.84375 71.71875 172.34375 71.1875 C 172.96875 70.46875 173.78125 70.15625 174.71875 70.15625 L 174.71875 69.53125 C 174.1875 69.5625 173.59375 69.59375 173.0625 69.59375 C 172.46875 69.59375 171.40625 69.5625 171.15625 69.53125 L 171.15625 70.15625 C 171.59375 70.1875 171.75 70.4375 171.75 70.78125 C 171.75 71.09375 171.53125 71.34375 171.4375 71.46875 L 170.21875 73.03125 L 168.65625 71 C 168.46875 70.8125 168.46875 70.78125 168.46875 70.65625 C 168.46875 70.34375 168.78125 70.15625 169.15625 70.15625 L 169.15625 69.53125 C 168.65625 69.5625 167.34375 69.59375 167 69.59375 C 166.59375 69.59375 165.65625 69.5625 165.125 69.53125 L 165.125 70.15625 C 166.53125 70.15625 166.53125 70.15625 167.46875 71.375 L 169.4375 73.9375 L 167.5625 76.3125 C 166.625 77.46875 165.4375 77.5 165.03125 77.5 L 165.03125 78.125 C 165.53125 78.09375 166.15625 78.0625 166.6875 78.0625 C 167.25 78.0625 168.09375 78.09375 168.5625 78.125 L 168.5625 77.5 C 168.125 77.4375 168 77.1875 168 76.875 C 168 76.4375 168.5625 75.78125 169.78125 74.34375 L 171.3125 76.34375 C 171.46875 76.5625 171.71875 76.875 171.71875 77 C 171.71875 77.1875 171.53125 77.5 171 77.5 L 171 78.125 C 171.59375 78.09375 172.71875 78.0625 173.15625 78.0625 C 173.6875 78.0625 174.46875 78.09375 175.0625 78.125 L 175.0625 77.5 C 174 77.5 173.625 77.46875 173.1875 76.875 Z M 170.5 73.4375 "/>
<path style=" stroke:none;fill-rule:nonzero;fill:rgb(0%,0%,0%);fill-opacity:1;" d="M 181.019531 73.4375 C 181.613281 72.6875 182.363281 71.71875 182.863281 71.1875 C 183.488281 70.46875 184.300781 70.15625 185.238281 70.15625 L 185.238281 69.53125 C 184.707031 69.5625 184.113281 69.59375 183.582031 69.59375 C 182.988281 69.59375 181.925781 69.5625 181.675781 69.53125 L 181.675781 70.15625 C 182.113281 70.1875 182.269531 70.4375 182.269531 70.78125 C 182.269531 71.09375 182.050781 71.34375 181.957031 71.46875 L 180.738281 73.03125 L 179.175781 71 C 178.988281 70.8125 178.988281 70.78125 178.988281 70.65625 C 178.988281 70.34375 179.300781 70.15625 179.675781 70.15625 L 179.675781 69.53125 C 179.175781 69.5625 177.863281 69.59375 177.519531 69.59375 C 177.113281 69.59375 176.175781 69.5625 175.644531 69.53125 L 175.644531 70.15625 C 177.050781 70.15625 177.050781 70.15625 177.988281 71.375 L 179.957031 73.9375 L 178.082031 76.3125 C 177.144531 77.46875 175.957031 77.5 175.550781 77.5 L 175.550781 78.125 C 176.050781 78.09375 176.675781 78.0625 177.207031 78.0625 C 177.769531 78.0625 178.613281 78.09375 179.082031 78.125 L 179.082031 77.5 C 178.644531 77.4375 178.519531 77.1875 178.519531 76.875 C 178.519531 76.4375 179.082031 75.78125 180.300781 74.34375 L 181.832031 76.34375 C 181.988281 76.5625 182.238281 76.875 182.238281 77 C 182.238281 77.1875 182.050781 77.5 181.519531 77.5 L 181.519531 78.125 C 182.113281 78.09375 183.238281 78.0625 183.675781 78.0625 C 184.207031 78.0625 184.988281 78.09375 185.582031 78.125 L 185.582031 77.5 C 184.519531 77.5 184.144531 77.46875 183.707031 76.875 Z M 181.019531 73.4375 "/>
<path style=" stroke:none;fill-rule:nonzero;fill:rgb(0%,0%,0%);fill-opacity:1;" d="M 191.535156 73.4375 C 192.128906 72.6875 192.878906 71.71875 193.378906 71.1875 C 194.003906 70.46875 194.816406 70.15625 195.753906 70.15625 L 195.753906 69.53125 C 195.222656 69.5625 194.628906 69.59375 194.097656 69.59375 C 193.503906 69.59375 192.441406 69.5625 192.191406 69.53125 L 192.191406 70.15625 C 192.628906 70.1875 192.785156 70.4375 192.785156 70.78125 C 192.785156 71.09375 192.566406 71.34375 192.472656 71.46875 L 191.253906 73.03125 L 189.691406 71 C 189.503906 70.8125 189.503906 70.78125 189.503906 70.65625 C 189.503906 70.34375 189.816406 70.15625 190.191406 70.15625 L 190.191406 69.53125 C 189.691406 69.5625 188.378906 69.59375 188.035156 69.59375 C 187.628906 69.59375 186.691406 69.5625 186.160156 69.53125 L 186.160156 70.15625 C 187.566406 70.15625 187.566406 70.15625 188.503906 71.375 L 190.472656 73.9375 L 188.597656 76.3125 C 187.660156 77.46875 186.472656 77.5 186.066406 77.5 L 186.066406 78.125 C 186.566406 78.09375 187.191406 78.0625 187.722656 78.0625 C 188.285156 78.0625 189.128906 78.09375 189.597656 78.125 L 189.597656 77.5 C 189.160156 77.4375 189.035156 77.1875 189.035156 76.875 C 189.035156 76.4375 189.597656 75.78125 190.816406 74.34375 L 192.347656 76.34375 C 192.503906 76.5625 192.753906 76.875 192.753906 77 C 192.753906 77.1875 192.566406 77.5 192.035156 77.5 L 192.035156 78.125 C 192.628906 78.09375 193.753906 78.0625 194.191406 78.0625 C 194.722656 78.0625 195.503906 78.09375 196.097656 78.125 L 196.097656 77.5 C 195.035156 77.5 194.660156 77.46875 194.222656 76.875 Z M 191.535156 73.4375 "/>
<path style="fill:none;stroke-width:0.566929;stroke-linecap:butt;stroke-linejoin:miter;stroke:rgb(100%,0%,0%);stroke-opacity:0.5;stroke-miterlimit:10;" d="M 95.57245 31.180979 L 101.240419 25.511057 " transform="matrix(2,0,0,2,5.952756,6.169291)"/>
<path style="fill:none;stroke-width:0.566929;stroke-linecap:butt;stroke-linejoin:miter;stroke:rgb(100%,0%,0%);stroke-opacity:0.5;stroke-miterlimit:10;" d="M 101.240419 31.180979 L 95.57245 25.511057 " transform="matrix(2,0,0,2,5.952756,6.169291)"/>
<path style="fill:none;stroke-width:0.566929;stroke-linecap:butt;stroke-linejoin:miter;stroke:rgb(100%,0%,0%);stroke-opacity:0.5;stroke-miterlimit:10;" d="M 98.406435 56.692698 L 98.406435 28.346995 Z M 98.406435 56.692698 " transform="matrix(2,0,0,2,5.952756,6.169291)"/>
<path style="fill:none;stroke-width:0.566929;stroke-linecap:butt;stroke-linejoin:miter;stroke:rgb(100%,0%,0%);stroke-opacity:0.5;stroke-miterlimit:10;" d="M 7.754091 59.526682 L 13.424013 53.858714 " transform="matrix(2,0,0,2,5.952756,6.169291)"/>
<path style="fill:none;stroke-width:0.566929;stroke-linecap:butt;stroke-linejoin:miter;stroke:rgb(100%,0%,0%);stroke-opacity:0.5;stroke-miterlimit:10;" d="M 13.424013 59.526682 L 7.754091 53.858714 " transform="matrix(2,0,0,2,5.952756,6.169291)"/>
<path style="fill-rule:nonzero;fill:rgb(50%,50%,0%);fill-opacity:0.1;stroke-width:0.566929;stroke-linecap:butt;stroke-linejoin:miter;stroke:rgb(100%,0%,0%);stroke-opacity:0.5;stroke-miterlimit:10;" d="M 0.000184547 69.005198 L 21.177919 69.005198 L 21.177919 56.692698 L 0.000184547 56.692698 Z M 0.000184547 69.005198 " transform="matrix(2,0,0,2,5.952756,6.169291)"/>
<path style="fill:none;stroke-width:0.566929;stroke-linecap:butt;stroke-linejoin:miter;stroke:rgb(100%,0%,0%);stroke-opacity:0.5;stroke-miterlimit:10;" d="M 0.000184547 67.878245 L 5.670106 62.208323 " transform="matrix(2,0,0,2,5.952756,6.169291)"/>
<path style="fill:none;stroke-width:0.566929;stroke-linecap:butt;stroke-linejoin:miter;stroke:rgb(100%,0%,0%);stroke-opacity:0.5;stroke-miterlimit:10;" d="M 5.670106 67.878245 L 0.000184547 62.208323 " transform="matrix(2,0,0,2,5.952756,6.169291)"/>
<path style="fill-rule:nonzero;fill:rgb(50%,50%,0%);fill-opacity:0.1;stroke-width:0.566929;stroke-linecap:butt;stroke-linejoin:miter;stroke:rgb(100%,0%,0%);stroke-opacity:0.5;stroke-miterlimit:10;" d="M 0.000184547 69.005198 L 21.177919 69.005198 L 21.177919 56.692698 L 0.000184547 56.692698 Z M 0.000184547 69.005198 " transform="matrix(2,0,0,2,5.952756,6.169291)"/>
<path style="fill:none;stroke-width:0.566929;stroke-linecap:butt;stroke-linejoin:miter;stroke:rgb(100%,0%,0%);stroke-opacity:0.5;stroke-miterlimit:10;" d="M 0.000184547 67.878245 L 5.670106 62.208323 " transform="matrix(2,0,0,2,5.952756,6.169291)"/>
<path style="fill:none;stroke-width:0.566929;stroke-linecap:butt;stroke-linejoin:miter;stroke:rgb(100%,0%,0%);stroke-opacity:0.5;stroke-miterlimit:10;" d="M 5.670106 67.878245 L 0.000184547 62.208323 " transform="matrix(2,0,0,2,5.952756,6.169291)"/>
<path style="fill-rule:nonzero;fill:rgb(50%,50%,0%);fill-opacity:0.1;stroke-width:0.566929;stroke-linecap:butt;stroke-linejoin:miter;stroke:rgb(100%,0%,0%);stroke-opacity:0.5;stroke-miterlimit:10;" d="M 2.834169 66.171214 L 18.343935 66.171214 L 18.343935 59.526682 L 2.834169 59.526682 Z M 2.834169 66.171214 " transform="matrix(2,0,0,2,5.952756,6.169291)"/>
<path style=" stroke:none;fill-rule:nonzero;fill:rgb(0%,0%,0%);fill-opacity:1;" d="M 16.496094 131.816406 C 14.746094 131.816406 14.746094 129.816406 14.746094 129.378906 C 14.746094 128.847656 14.777344 128.191406 15.058594 127.691406 C 15.214844 127.472656 15.683594 126.910156 16.496094 126.910156 C 18.214844 126.910156 18.214844 128.878906 18.214844 129.347656 C 18.214844 129.878906 18.214844 130.535156 17.902344 131.035156 C 17.746094 131.253906 17.277344 131.816406 16.496094 131.816406 Z M 14.183594 132.597656 C 14.183594 132.535156 14.183594 132.066406 14.496094 131.660156 C 15.277344 132.222656 16.121094 132.285156 16.496094 132.285156 C 18.339844 132.285156 19.714844 130.910156 19.714844 129.378906 C 19.714844 128.628906 19.402344 127.910156 18.902344 127.441406 C 19.621094 126.753906 20.339844 126.660156 20.683594 126.660156 C 20.746094 126.660156 20.839844 126.660156 20.902344 126.691406 C 20.683594 126.753906 20.558594 126.972656 20.558594 127.222656 C 20.558594 127.566406 20.839844 127.785156 21.152344 127.785156 C 21.339844 127.785156 21.714844 127.660156 21.714844 127.191406 C 21.714844 126.847656 21.496094 126.222656 20.714844 126.222656 C 20.308594 126.222656 19.433594 126.347656 18.589844 127.160156 C 17.746094 126.503906 16.933594 126.441406 16.496094 126.441406 C 14.621094 126.441406 13.246094 127.816406 13.246094 129.347656 C 13.246094 130.222656 13.683594 130.972656 14.183594 131.410156 C 13.933594 131.691406 13.558594 132.347656 13.558594 133.066406 C 13.558594 133.691406 13.839844 134.441406 14.464844 134.847656 C 13.246094 135.160156 12.621094 136.035156 12.621094 136.816406 C 12.621094 138.253906 14.589844 139.347656 17.027344 139.347656 C 19.371094 139.347656 21.433594 138.347656 21.433594 136.785156 C 21.433594 136.097656 21.183594 135.066406 20.152344 134.503906 C 19.089844 133.972656 17.933594 133.972656 16.714844 133.972656 C 16.214844 133.972656 15.371094 133.972656 15.214844 133.941406 C 14.589844 133.847656 14.183594 133.253906 14.183594 132.597656 Z M 17.058594 138.910156 C 15.027344 138.910156 13.652344 137.878906 13.652344 136.816406 C 13.652344 135.910156 14.402344 135.160156 15.277344 135.128906 L 16.464844 135.128906 C 18.183594 135.128906 20.402344 135.128906 20.402344 136.816406 C 20.402344 137.910156 18.996094 138.910156 17.058594 138.910156 Z M 17.058594 138.910156 "/>
<path style=" stroke:none;fill-rule:nonzero;fill:rgb(0%,0%,0%);fill-opacity:1;" d="M 26.460938 131.816406 C 24.710938 131.816406 24.710938 129.816406 24.710938 129.378906 C 24.710938 128.847656 24.742188 128.191406 25.023438 127.691406 C 25.179688 127.472656 25.648438 126.910156 26.460938 126.910156 C 28.179688 126.910156 28.179688 128.878906 28.179688 129.347656 C 28.179688 129.878906 28.179688 130.535156 27.867188 131.035156 C 27.710938 131.253906 27.242188 131.816406 26.460938 131.816406 Z M 24.148438 132.597656 C 24.148438 132.535156 24.148438 132.066406 24.460938 131.660156 C 25.242188 132.222656 26.085938 132.285156 26.460938 132.285156 C 28.304688 132.285156 29.679688 130.910156 29.679688 129.378906 C 29.679688 128.628906 29.367188 127.910156 28.867188 127.441406 C 29.585938 126.753906 30.304688 126.660156 30.648438 126.660156 C 30.710938 126.660156 30.804688 126.660156 30.867188 126.691406 C 30.648438 126.753906 30.523438 126.972656 30.523438 127.222656 C 30.523438 127.566406 30.804688 127.785156 31.117188 127.785156 C 31.304688 127.785156 31.679688 127.660156 31.679688 127.191406 C 31.679688 126.847656 31.460938 126.222656 30.679688 126.222656 C 30.273438 126.222656 29.398438 126.347656 28.554688 127.160156 C 27.710938 126.503906 26.898438 126.441406 26.460938 126.441406 C 24.585938 126.441406 23.210938 127.816406 23.210938 129.347656 C 23.210938 130.222656 23.648438 130.972656 24.148438 131.410156 C 23.898438 131.691406 23.523438 132.347656 23.523438 133.066406 C 23.523438 133.691406 23.804688 134.441406 24.429688 134.847656 C 23.210938 135.160156 22.585938 136.035156 22.585938 136.816406 C 22.585938 138.253906 24.554688 139.347656 26.992188 139.347656 C 29.335938 139.347656 31.398438 138.347656 31.398438 136.785156 C 31.398438 136.097656 31.148438 135.066406 30.117188 134.503906 C 29.054688 133.972656 27.898438 133.972656 26.679688 133.972656 C 26.179688 133.972656 25.335938 133.972656 25.179688 133.941406 C 24.554688 133.847656 24.148438 133.253906 24.148438 132.597656 Z M 27.023438 138.910156 C 24.992188 138.910156 23.617188 137.878906 23.617188 136.816406 C 23.617188 135.910156 24.367188 135.160156 25.242188 135.128906 L 26.429688 135.128906 C 28.148438 135.128906 30.367188 135.128906 30.367188 136.816406 C 30.367188 137.910156 28.960938 138.910156 27.023438 138.910156 Z M 27.023438 138.910156 "/>
<path style=" stroke:none;fill-rule:nonzero;fill:rgb(0%,0%,0%);fill-opacity:1;" d="M 36.421875 131.816406 C 34.671875 131.816406 34.671875 129.816406 34.671875 129.378906 C 34.671875 128.847656 34.703125 128.191406 34.984375 127.691406 C 35.140625 127.472656 35.609375 126.910156 36.421875 126.910156 C 38.140625 126.910156 38.140625 128.878906 38.140625 129.347656 C 38.140625 129.878906 38.140625 130.535156 37.828125 131.035156 C 37.671875 131.253906 37.203125 131.816406 36.421875 131.816406 Z M 34.109375 132.597656 C 34.109375 132.535156 34.109375 132.066406 34.421875 131.660156 C 35.203125 132.222656 36.046875 132.285156 36.421875 132.285156 C 38.265625 132.285156 39.640625 130.910156 39.640625 129.378906 C 39.640625 128.628906 39.328125 127.910156 38.828125 127.441406 C 39.546875 126.753906 40.265625 126.660156 40.609375 126.660156 C 40.671875 126.660156 40.765625 126.660156 40.828125 126.691406 C 40.609375 126.753906 40.484375 126.972656 40.484375 127.222656 C 40.484375 127.566406 40.765625 127.785156 41.078125 127.785156 C 41.265625 127.785156 41.640625 127.660156 41.640625 127.191406 C 41.640625 126.847656 41.421875 126.222656 40.640625 126.222656 C 40.234375 126.222656 39.359375 126.347656 38.515625 127.160156 C 37.671875 126.503906 36.859375 126.441406 36.421875 126.441406 C 34.546875 126.441406 33.171875 127.816406 33.171875 129.347656 C 33.171875 130.222656 33.609375 130.972656 34.109375 131.410156 C 33.859375 131.691406 33.484375 132.347656 33.484375 133.066406 C 33.484375 133.691406 33.765625 134.441406 34.390625 134.847656 C 33.171875 135.160156 32.546875 136.035156 32.546875 136.816406 C 32.546875 138.253906 34.515625 139.347656 36.953125 139.347656 C 39.296875 139.347656 41.359375 138.347656 41.359375 136.785156 C 41.359375 136.097656 41.109375 135.066406 40.078125 134.503906 C 39.015625 133.972656 37.859375 133.972656 36.640625 133.972656 C 36.140625 133.972656 35.296875 133.972656 35.140625 133.941406 C 34.515625 133.847656 34.109375 133.253906 34.109375 132.597656 Z M 36.984375 138.910156 C 34.953125 138.910156 33.578125 137.878906 33.578125 136.816406 C 33.578125 135.910156 34.328125 135.160156 35.203125 135.128906 L 36.390625 135.128906 C 38.109375 135.128906 40.328125 135.128906 40.328125 136.816406 C 40.328125 137.910156 38.921875 138.910156 36.984375 138.910156 Z M 36.984375 138.910156 "/>
<path style="fill:none;stroke-width:0.566929;stroke-linecap:butt;stroke-linejoin:miter;stroke:rgb(100%,0%,0%);stroke-opacity:0.5;stroke-miterlimit:10;" d="M 37.970888 59.526682 L 43.638856 53.858714 " transform="matrix(2,0,0,2,5.952756,6.169291)"/>
<path style="fill:none;stroke-width:0.566929;stroke-linecap:butt;stroke-linejoin:miter;stroke:rgb(100%,0%,0%);stroke-opacity:0.5;stroke-miterlimit:10;" d="M 43.638856 59.526682 L 37.970888 53.858714 " transform="matrix(2,0,0,2,5.952756,6.169291)"/>
<path style="fill-rule:nonzero;fill:rgb(50%,50%,0%);fill-opacity:0.1;stroke-width:0.566929;stroke-linecap:butt;stroke-linejoin:miter;stroke:rgb(100%,0%,0%);stroke-opacity:0.5;stroke-miterlimit:10;" d="M 21.177919 70.341136 L 60.429872 70.341136 L 60.429872 56.692698 L 21.177919 56.692698 Z M 21.177919 70.341136 " transform="matrix(2,0,0,2,5.952756,6.169291)"/>
<path style="fill:none;stroke-width:0.566929;stroke-linecap:butt;stroke-linejoin:miter;stroke:rgb(100%,0%,0%);stroke-opacity:0.5;stroke-miterlimit:10;" d="M 21.177919 70.284495 L 26.847841 64.614573 " transform="matrix(2,0,0,2,5.952756,6.169291)"/>
<path style="fill:none;stroke-width:0.566929;stroke-linecap:butt;stroke-linejoin:miter;stroke:rgb(100%,0%,0%);stroke-opacity:0.5;stroke-miterlimit:10;" d="M 26.847841 70.284495 L 21.177919 64.614573 " transform="matrix(2,0,0,2,5.952756,6.169291)"/>
<path style="fill-rule:nonzero;fill:rgb(50%,50%,0%);fill-opacity:0.1;stroke-width:0.566929;stroke-linecap:butt;stroke-linejoin:miter;stroke:rgb(100%,0%,0%);stroke-opacity:0.5;stroke-miterlimit:10;" d="M 21.177919 70.341136 L 60.429872 70.341136 L 60.429872 56.692698 L 21.177919 56.692698 Z M 21.177919 70.341136 " transform="matrix(2,0,0,2,5.952756,6.169291)"/>
<path style="fill:none;stroke-width:0.566929;stroke-linecap:butt;stroke-linejoin:miter;stroke:rgb(100%,0%,0%);stroke-opacity:0.5;stroke-miterlimit:10;" d="M 21.177919 70.284495 L 26.847841 64.614573 " transform="matrix(2,0,0,2,5.952756,6.169291)"/>
<path style="fill:none;stroke-width:0.566929;stroke-linecap:butt;stroke-linejoin:miter;stroke:rgb(100%,0%,0%);stroke-opacity:0.5;stroke-miterlimit:10;" d="M 26.847841 70.284495 L 21.177919 64.614573 " transform="matrix(2,0,0,2,5.952756,6.169291)"/>
<path style="fill-rule:nonzero;fill:rgb(50%,50%,0%);fill-opacity:0.1;stroke-width:0.566929;stroke-linecap:butt;stroke-linejoin:miter;stroke:rgb(100%,0%,0%);stroke-opacity:0.5;stroke-miterlimit:10;" d="M 24.013856 67.507151 L 57.595888 67.507151 L 57.595888 59.526682 L 24.013856 59.526682 Z M 24.013856 67.507151 " transform="matrix(2,0,0,2,5.952756,6.169291)"/>
<path style=" stroke:none;fill-rule:nonzero;fill:rgb(0%,0%,0%);fill-opacity:1;" d="M 57.855469 132.535156 L 57.855469 126.222656 L 54.980469 126.441406 L 54.980469 127.066406 C 56.386719 127.066406 56.542969 127.191406 56.542969 128.191406 L 56.542969 140.066406 L 57.042969 140.066406 C 57.042969 140.035156 57.199219 139.753906 57.761719 138.816406 C 58.042969 139.285156 58.886719 140.285156 60.355469 140.285156 C 62.730469 140.285156 64.792969 138.316406 64.792969 135.753906 C 64.792969 133.222656 62.855469 131.253906 60.574219 131.253906 C 59.011719 131.253906 58.167969 132.191406 57.855469 132.535156 Z M 57.917969 137.785156 L 57.917969 133.691406 C 57.917969 133.316406 57.917969 133.285156 58.136719 132.972656 C 58.917969 131.847656 60.011719 131.691406 60.480469 131.691406 C 61.386719 131.691406 62.105469 132.222656 62.574219 132.972656 C 63.105469 133.785156 63.136719 134.910156 63.136719 135.753906 C 63.136719 136.472656 63.105469 137.660156 62.542969 138.566406 C 62.105469 139.191406 61.355469 139.847656 60.292969 139.847656 C 59.386719 139.847656 58.667969 139.378906 58.199219 138.628906 C 57.917969 138.222656 57.917969 138.160156 57.917969 137.785156 Z M 57.917969 137.785156 "/>
<path style=" stroke:none;fill-rule:nonzero;fill:rgb(0%,0%,0%);fill-opacity:1;" d="M 68.925781 132.535156 L 68.925781 126.222656 L 66.050781 126.441406 L 66.050781 127.066406 C 67.457031 127.066406 67.613281 127.191406 67.613281 128.191406 L 67.613281 140.066406 L 68.113281 140.066406 C 68.113281 140.035156 68.269531 139.753906 68.832031 138.816406 C 69.113281 139.285156 69.957031 140.285156 71.425781 140.285156 C 73.800781 140.285156 75.863281 138.316406 75.863281 135.753906 C 75.863281 133.222656 73.925781 131.253906 71.644531 131.253906 C 70.082031 131.253906 69.238281 132.191406 68.925781 132.535156 Z M 68.988281 137.785156 L 68.988281 133.691406 C 68.988281 133.316406 68.988281 133.285156 69.207031 132.972656 C 69.988281 131.847656 71.082031 131.691406 71.550781 131.691406 C 72.457031 131.691406 73.175781 132.222656 73.644531 132.972656 C 74.175781 133.785156 74.207031 134.910156 74.207031 135.753906 C 74.207031 136.472656 74.175781 137.660156 73.613281 138.566406 C 73.175781 139.191406 72.425781 139.847656 71.363281 139.847656 C 70.457031 139.847656 69.738281 139.378906 69.269531 138.628906 C 68.988281 138.222656 68.988281 138.160156 68.988281 137.785156 Z M 68.988281 137.785156 "/>
<path style=" stroke:none;fill-rule:nonzero;fill:rgb(0%,0%,0%);fill-opacity:1;" d="M 79.996094 132.535156 L 79.996094 126.222656 L 77.121094 126.441406 L 77.121094 127.066406 C 78.527344 127.066406 78.683594 127.191406 78.683594 128.191406 L 78.683594 140.066406 L 79.183594 140.066406 C 79.183594 140.035156 79.339844 139.753906 79.902344 138.816406 C 80.183594 139.285156 81.027344 140.285156 82.496094 140.285156 C 84.871094 140.285156 86.933594 138.316406 86.933594 135.753906 C 86.933594 133.222656 84.996094 131.253906 82.714844 131.253906 C 81.152344 131.253906 80.308594 132.191406 79.996094 132.535156 Z M 80.058594 137.785156 L 80.058594 133.691406 C 80.058594 133.316406 80.058594 133.285156 80.277344 132.972656 C 81.058594 131.847656 82.152344 131.691406 82.621094 131.691406 C 83.527344 131.691406 84.246094 132.222656 84.714844 132.972656 C 85.246094 133.785156 85.277344 134.910156 85.277344 135.753906 C 85.277344 136.472656 85.246094 137.660156 84.683594 138.566406 C 84.246094 139.191406 83.496094 139.847656 82.433594 139.847656 C 81.527344 139.847656 80.808594 139.378906 80.339844 138.628906 C 80.058594 138.222656 80.058594 138.160156 80.058594 137.785156 Z M 80.058594 137.785156 "/>
<path style=" stroke:none;fill-rule:nonzero;fill:rgb(0%,0%,0%);fill-opacity:1;" d="M 91.066406 132.535156 L 91.066406 126.222656 L 88.191406 126.441406 L 88.191406 127.066406 C 89.597656 127.066406 89.753906 127.191406 89.753906 128.191406 L 89.753906 140.066406 L 90.253906 140.066406 C 90.253906 140.035156 90.410156 139.753906 90.972656 138.816406 C 91.253906 139.285156 92.097656 140.285156 93.566406 140.285156 C 95.941406 140.285156 98.003906 138.316406 98.003906 135.753906 C 98.003906 133.222656 96.066406 131.253906 93.785156 131.253906 C 92.222656 131.253906 91.378906 132.191406 91.066406 132.535156 Z M 91.128906 137.785156 L 91.128906 133.691406 C 91.128906 133.316406 91.128906 133.285156 91.347656 132.972656 C 92.128906 131.847656 93.222656 131.691406 93.691406 131.691406 C 94.597656 131.691406 95.316406 132.222656 95.785156 132.972656 C 96.316406 133.785156 96.347656 134.910156 96.347656 135.753906 C 96.347656 136.472656 96.316406 137.660156 95.753906 138.566406 C 95.316406 139.191406 94.566406 139.847656 93.503906 139.847656 C 92.597656 139.847656 91.878906 139.378906 91.410156 138.628906 C 91.128906 138.222656 91.128906 138.160156 91.128906 137.785156 Z M 91.128906 137.785156 "/>
<path style=" stroke:none;fill-rule:nonzero;fill:rgb(0%,0%,0%);fill-opacity:1;" d="M 102.136719 132.535156 L 102.136719 126.222656 L 99.261719 126.441406 L 99.261719 127.066406 C 100.667969 127.066406 100.824219 127.191406 100.824219 128.191406 L 100.824219 140.066406 L 101.324219 140.066406 C 101.324219 140.035156 101.480469 139.753906 102.042969 138.816406 C 102.324219 139.285156 103.167969 140.285156 104.636719 140.285156 C 107.011719 140.285156 109.074219 138.316406 109.074219 135.753906 C 109.074219 133.222656 107.136719 131.253906 104.855469 131.253906 C 103.292969 131.253906 102.449219 132.191406 102.136719 132.535156 Z M 102.199219 137.785156 L 102.199219 133.691406 C 102.199219 133.316406 102.199219 133.285156 102.417969 132.972656 C 103.199219 131.847656 104.292969 131.691406 104.761719 131.691406 C 105.667969 131.691406 106.386719 132.222656 106.855469 132.972656 C 107.386719 133.785156 107.417969 134.910156 107.417969 135.753906 C 107.417969 136.472656 107.386719 137.660156 106.824219 138.566406 C 106.386719 139.191406 105.636719 139.847656 104.574219 139.847656 C 103.667969 139.847656 102.949219 139.378906 102.480469 138.628906 C 102.199219 138.222656 102.199219 138.160156 102.199219 137.785156 Z M 102.199219 137.785156 "/>
<path style=" stroke:none;fill-rule:nonzero;fill:rgb(0%,0%,0%);fill-opacity:1;" d="M 113.207031 132.535156 L 113.207031 126.222656 L 110.332031 126.441406 L 110.332031 127.066406 C 111.738281 127.066406 111.894531 127.191406 111.894531 128.191406 L 111.894531 140.066406 L 112.394531 140.066406 C 112.394531 140.035156 112.550781 139.753906 113.113281 138.816406 C 113.394531 139.285156 114.238281 140.285156 115.707031 140.285156 C 118.082031 140.285156 120.144531 138.316406 120.144531 135.753906 C 120.144531 133.222656 118.207031 131.253906 115.925781 131.253906 C 114.363281 131.253906 113.519531 132.191406 113.207031 132.535156 Z M 113.269531 137.785156 L 113.269531 133.691406 C 113.269531 133.316406 113.269531 133.285156 113.488281 132.972656 C 114.269531 131.847656 115.363281 131.691406 115.832031 131.691406 C 116.738281 131.691406 117.457031 132.222656 117.925781 132.972656 C 118.457031 133.785156 118.488281 134.910156 118.488281 135.753906 C 118.488281 136.472656 118.457031 137.660156 117.894531 138.566406 C 117.457031 139.191406 116.707031 139.847656 115.644531 139.847656 C 114.738281 139.847656 114.019531 139.378906 113.550781 138.628906 C 113.269531 138.222656 113.269531 138.160156 113.269531 137.785156 Z M 113.269531 137.785156 "/>
<path style="fill:none;stroke-width:0.566929;stroke-linecap:butt;stroke-linejoin:miter;stroke:rgb(100%,0%,0%);stroke-opacity:0.5;stroke-miterlimit:10;" d="M 76.584169 59.526682 L 82.254091 53.858714 " transform="matrix(2,0,0,2,5.952756,6.169291)"/>
<path style="fill:none;stroke-width:0.566929;stroke-linecap:butt;stroke-linejoin:miter;stroke:rgb(100%,0%,0%);stroke-opacity:0.5;stroke-miterlimit:10;" d="M 82.254091 59.526682 L 76.584169 53.858714 " transform="matrix(2,0,0,2,5.952756,6.169291)"/>
<path style="fill-rule:nonzero;fill:rgb(50%,50%,0%);fill-opacity:0.1;stroke-width:0.566929;stroke-linecap:butt;stroke-linejoin:miter;stroke:rgb(100%,0%,0%);stroke-opacity:0.5;stroke-miterlimit:10;" d="M 62.812685 70.39387 L 96.023622 70.39387 L 96.023622 56.692698 L 62.812685 56.692698 Z M 62.812685 70.39387 " transform="matrix(2,0,0,2,5.952756,6.169291)"/>
<path style="fill:none;stroke-width:0.566929;stroke-linecap:butt;stroke-linejoin:miter;stroke:rgb(100%,0%,0%);stroke-opacity:0.5;stroke-miterlimit:10;" d="M 62.812685 70.39387 L 68.482606 64.723948 " transform="matrix(2,0,0,2,5.952756,6.169291)"/>
<path style="fill:none;stroke-width:0.566929;stroke-linecap:butt;stroke-linejoin:miter;stroke:rgb(100%,0%,0%);stroke-opacity:0.5;stroke-miterlimit:10;" d="M 68.482606 70.39387 L 62.812685 64.723948 " transform="matrix(2,0,0,2,5.952756,6.169291)"/>
<path style="fill-rule:nonzero;fill:rgb(50%,50%,0%);fill-opacity:0.1;stroke-width:0.566929;stroke-linecap:butt;stroke-linejoin:miter;stroke:rgb(100%,0%,0%);stroke-opacity:0.5;stroke-miterlimit:10;" d="M 62.812685 70.39387 L 96.023622 70.39387 L 96.023622 56.692698 L 62.812685 56.692698 Z M 62.812685 70.39387 " transform="matrix(2,0,0,2,5.952756,6.169291)"/>
<path style="fill:none;stroke-width:0.566929;stroke-linecap:butt;stroke-linejoin:miter;stroke:rgb(100%,0%,0%);stroke-opacity:0.5;stroke-miterlimit:10;" d="M 62.812685 70.39387 L 68.482606 64.723948 " transform="matrix(2,0,0,2,5.952756,6.169291)"/>
<path style="fill:none;stroke-width:0.566929;stroke-linecap:butt;stroke-linejoin:miter;stroke:rgb(100%,0%,0%);stroke-opacity:0.5;stroke-miterlimit:10;" d="M 68.482606 70.39387 L 62.812685 64.723948 " transform="matrix(2,0,0,2,5.952756,6.169291)"/>
<path style="fill-rule:nonzero;fill:rgb(50%,50%,0%);fill-opacity:0.1;stroke-width:0.566929;stroke-linecap:butt;stroke-linejoin:miter;stroke:rgb(100%,0%,0%);stroke-opacity:0.5;stroke-miterlimit:10;" d="M 65.648622 67.557932 L 93.189638 67.557932 L 93.189638 59.526682 L 65.648622 59.526682 Z M 65.648622 67.557932 " transform="matrix(2,0,0,2,5.952756,6.169291)"/>
<path style=" stroke:none;fill-rule:nonzero;fill:rgb(0%,0%,0%);fill-opacity:1;" d="M 146.65625 132.316406 L 148.9375 132.316406 L 148.9375 131.691406 L 146.59375 131.691406 L 146.59375 129.378906 C 146.59375 127.597656 147.5625 126.660156 148.4375 126.660156 C 148.5 126.660156 148.8125 126.660156 149.09375 126.816406 C 148.875 126.878906 148.5 127.160156 148.5 127.660156 C 148.5 128.097656 148.8125 128.503906 149.375 128.503906 C 149.9375 128.503906 150.25 128.097656 150.25 127.628906 C 150.25 126.910156 149.53125 126.222656 148.4375 126.222656 C 147.25 126.222656 146.375 126.972656 146.28125 127.066406 C 145.6875 126.316406 144.5625 126.222656 144.03125 126.222656 C 142.15625 126.222656 139.84375 127.253906 139.84375 129.410156 L 139.84375 131.691406 L 138.25 131.691406 L 138.25 132.316406 L 139.84375 132.316406 L 139.84375 138.785156 C 139.84375 139.660156 139.625 139.660156 138.28125 139.660156 L 138.28125 140.285156 C 138.9375 140.253906 140 140.222656 140.5 140.222656 C 141 140.222656 141.96875 140.253906 142.71875 140.285156 L 142.71875 139.660156 C 141.375 139.660156 141.15625 139.660156 141.15625 138.785156 L 141.15625 132.316406 L 145.34375 132.316406 L 145.34375 138.785156 C 145.34375 139.660156 145.125 139.660156 143.78125 139.660156 L 143.78125 140.285156 C 144.5625 140.253906 145.5 140.222656 146.0625 140.222656 C 146.84375 140.222656 147.78125 140.222656 148.59375 140.285156 L 148.59375 139.660156 L 148.15625 139.660156 C 146.6875 139.660156 146.65625 139.441406 146.65625 138.722656 Z M 141.09375 131.691406 L 141.09375 129.441406 C 141.09375 127.503906 142.71875 126.660156 144.03125 126.660156 C 145 126.660156 145.5625 127.035156 145.5625 127.035156 L 145.5625 127.066406 C 145.25 127.097656 144.84375 127.378906 144.84375 127.910156 C 144.84375 128.035156 144.84375 128.535156 145.40625 128.722656 C 145.34375 128.972656 145.34375 129.160156 145.34375 129.410156 L 145.34375 131.691406 Z M 141.09375 131.691406 "/>
<path style=" stroke:none;fill-rule:nonzero;fill:rgb(0%,0%,0%);fill-opacity:1;" d="M 158.277344 132.316406 L 160.558594 132.316406 L 160.558594 131.691406 L 158.214844 131.691406 L 158.214844 129.378906 C 158.214844 127.597656 159.183594 126.660156 160.058594 126.660156 C 160.121094 126.660156 160.433594 126.660156 160.714844 126.816406 C 160.496094 126.878906 160.121094 127.160156 160.121094 127.660156 C 160.121094 128.097656 160.433594 128.503906 160.996094 128.503906 C 161.558594 128.503906 161.871094 128.097656 161.871094 127.628906 C 161.871094 126.910156 161.152344 126.222656 160.058594 126.222656 C 158.871094 126.222656 157.996094 126.972656 157.902344 127.066406 C 157.308594 126.316406 156.183594 126.222656 155.652344 126.222656 C 153.777344 126.222656 151.464844 127.253906 151.464844 129.410156 L 151.464844 131.691406 L 149.871094 131.691406 L 149.871094 132.316406 L 151.464844 132.316406 L 151.464844 138.785156 C 151.464844 139.660156 151.246094 139.660156 149.902344 139.660156 L 149.902344 140.285156 C 150.558594 140.253906 151.621094 140.222656 152.121094 140.222656 C 152.621094 140.222656 153.589844 140.253906 154.339844 140.285156 L 154.339844 139.660156 C 152.996094 139.660156 152.777344 139.660156 152.777344 138.785156 L 152.777344 132.316406 L 156.964844 132.316406 L 156.964844 138.785156 C 156.964844 139.660156 156.746094 139.660156 155.402344 139.660156 L 155.402344 140.285156 C 156.183594 140.253906 157.121094 140.222656 157.683594 140.222656 C 158.464844 140.222656 159.402344 140.222656 160.214844 140.285156 L 160.214844 139.660156 L 159.777344 139.660156 C 158.308594 139.660156 158.277344 139.441406 158.277344 138.722656 Z M 152.714844 131.691406 L 152.714844 129.441406 C 152.714844 127.503906 154.339844 126.660156 155.652344 126.660156 C 156.621094 126.660156 157.183594 127.035156 157.183594 127.035156 L 157.183594 127.066406 C 156.871094 127.097656 156.464844 127.378906 156.464844 127.910156 C 156.464844 128.035156 156.464844 128.535156 157.027344 128.722656 C 156.964844 128.972656 156.964844 129.160156 156.964844 129.410156 L 156.964844 131.691406 Z M 152.714844 131.691406 "/>
<path style=" stroke:none;fill-rule:nonzero;fill:rgb(0%,0%,0%);fill-opacity:1;" d="M 169.898438 132.316406 L 172.179688 132.316406 L 172.179688 131.691406 L 169.835938 131.691406 L 169.835938 129.378906 C 169.835938 127.597656 170.804688 126.660156 171.679688 126.660156 C 171.742188 126.660156 172.054688 126.660156 172.335938 126.816406 C 172.117188 126.878906 171.742188 127.160156 171.742188 127.660156 C 171.742188 128.097656 172.054688 128.503906 172.617188 128.503906 C 173.179688 128.503906 173.492188 128.097656 173.492188 127.628906 C 173.492188 126.910156 172.773438 126.222656 171.679688 126.222656 C 170.492188 126.222656 169.617188 126.972656 169.523438 127.066406 C 168.929688 126.316406 167.804688 126.222656 167.273438 126.222656 C 165.398438 126.222656 163.085938 127.253906 163.085938 129.410156 L 163.085938 131.691406 L 161.492188 131.691406 L 161.492188 132.316406 L 163.085938 132.316406 L 163.085938 138.785156 C 163.085938 139.660156 162.867188 139.660156 161.523438 139.660156 L 161.523438 140.285156 C 162.179688 140.253906 163.242188 140.222656 163.742188 140.222656 C 164.242188 140.222656 165.210938 140.253906 165.960938 140.285156 L 165.960938 139.660156 C 164.617188 139.660156 164.398438 139.660156 164.398438 138.785156 L 164.398438 132.316406 L 168.585938 132.316406 L 168.585938 138.785156 C 168.585938 139.660156 168.367188 139.660156 167.023438 139.660156 L 167.023438 140.285156 C 167.804688 140.253906 168.742188 140.222656 169.304688 140.222656 C 170.085938 140.222656 171.023438 140.222656 171.835938 140.285156 L 171.835938 139.660156 L 171.398438 139.660156 C 169.929688 139.660156 169.898438 139.441406 169.898438 138.722656 Z M 164.335938 131.691406 L 164.335938 129.441406 C 164.335938 127.503906 165.960938 126.660156 167.273438 126.660156 C 168.242188 126.660156 168.804688 127.035156 168.804688 127.035156 L 168.804688 127.066406 C 168.492188 127.097656 168.085938 127.378906 168.085938 127.910156 C 168.085938 128.035156 168.085938 128.535156 168.648438 128.722656 C 168.585938 128.972656 168.585938 129.160156 168.585938 129.410156 L 168.585938 131.691406 Z M 164.335938 131.691406 "/>
<path style=" stroke:none;fill-rule:nonzero;fill:rgb(0%,0%,0%);fill-opacity:1;" d="M 181.523438 132.316406 L 183.804688 132.316406 L 183.804688 131.691406 L 181.460938 131.691406 L 181.460938 129.378906 C 181.460938 127.597656 182.429688 126.660156 183.304688 126.660156 C 183.367188 126.660156 183.679688 126.660156 183.960938 126.816406 C 183.742188 126.878906 183.367188 127.160156 183.367188 127.660156 C 183.367188 128.097656 183.679688 128.503906 184.242188 128.503906 C 184.804688 128.503906 185.117188 128.097656 185.117188 127.628906 C 185.117188 126.910156 184.398438 126.222656 183.304688 126.222656 C 182.117188 126.222656 181.242188 126.972656 181.148438 127.066406 C 180.554688 126.316406 179.429688 126.222656 178.898438 126.222656 C 177.023438 126.222656 174.710938 127.253906 174.710938 129.410156 L 174.710938 131.691406 L 173.117188 131.691406 L 173.117188 132.316406 L 174.710938 132.316406 L 174.710938 138.785156 C 174.710938 139.660156 174.492188 139.660156 173.148438 139.660156 L 173.148438 140.285156 C 173.804688 140.253906 174.867188 140.222656 175.367188 140.222656 C 175.867188 140.222656 176.835938 140.253906 177.585938 140.285156 L 177.585938 139.660156 C 176.242188 139.660156 176.023438 139.660156 176.023438 138.785156 L 176.023438 132.316406 L 180.210938 132.316406 L 180.210938 138.785156 C 180.210938 139.660156 179.992188 139.660156 178.648438 139.660156 L 178.648438 140.285156 C 179.429688 140.253906 180.367188 140.222656 180.929688 140.222656 C 181.710938 140.222656 182.648438 140.222656 183.460938 140.285156 L 183.460938 139.660156 L 183.023438 139.660156 C 181.554688 139.660156 181.523438 139.441406 181.523438 138.722656 Z M 175.960938 131.691406 L 175.960938 129.441406 C 175.960938 127.503906 177.585938 126.660156 178.898438 126.660156 C 179.867188 126.660156 180.429688 127.035156 180.429688 127.035156 L 180.429688 127.066406 C 180.117188 127.097656 179.710938 127.378906 179.710938 127.910156 C 179.710938 128.035156 179.710938 128.535156 180.273438 128.722656 C 180.210938 128.972656 180.210938 129.160156 180.210938 129.410156 L 180.210938 131.691406 Z M 175.960938 131.691406 "/>
<path style=" stroke:none;fill-rule:nonzero;fill:rgb(0%,0%,0%);fill-opacity:1;" d="M 187.707031 131.691406 L 187.707031 129.378906 C 187.707031 127.628906 188.644531 126.660156 189.519531 126.660156 C 189.582031 126.660156 189.894531 126.660156 190.175781 126.816406 C 189.957031 126.878906 189.582031 127.160156 189.582031 127.660156 C 189.582031 128.097656 189.894531 128.503906 190.457031 128.503906 C 191.019531 128.503906 191.332031 128.097656 191.332031 127.628906 C 191.332031 126.878906 190.582031 126.222656 189.519531 126.222656 C 188.144531 126.222656 186.425781 127.285156 186.425781 129.410156 L 186.425781 131.691406 L 184.863281 131.691406 L 184.863281 132.316406 L 186.425781 132.316406 L 186.425781 138.785156 C 186.425781 139.660156 186.207031 139.660156 184.894531 139.660156 L 184.894531 140.285156 C 185.675781 140.253906 186.613281 140.222656 187.144531 140.222656 C 187.957031 140.222656 188.894531 140.222656 189.675781 140.285156 L 189.675781 139.660156 L 189.269531 139.660156 C 187.800781 139.660156 187.769531 139.441406 187.769531 138.722656 L 187.769531 132.316406 L 190.019531 132.316406 L 190.019531 131.691406 Z M 187.707031 131.691406 "/>
<path style="fill:none;stroke-width:0.566929;stroke-linecap:butt;stroke-linejoin:miter;stroke:rgb(100%,0%,0%);stroke-opacity:0.5;stroke-miterlimit:10;" d="M 95.57245 59.526682 L 101.240419 53.858714 " transform="matrix(2,0,0,2,5.952756,6.169291)"/>
<path style="fill:none;stroke-width:0.566929;stroke-linecap:butt;stroke-linejoin:miter;stroke:rgb(100%,0%,0%);stroke-opacity:0.5;stroke-miterlimit:10;" d="M 101.240419 59.526682 L 95.57245 53.858714 " transform="matrix(2,0,0,2,5.952756,6.169291)"/>
<path style="fill:none;stroke-width:0.566929;stroke-linecap:butt;stroke-linejoin:miter;stroke:rgb(100%,0%,0%);stroke-opacity:0.5;stroke-miterlimit:10;" d="M 98.406435 85.038401 L 98.406435 56.692698 Z M 98.406435 85.038401 " transform="matrix(2,0,0,2,5.952756,6.169291)"/>
</g>
</svg>
