<?xml version="1.0" encoding="UTF-8"?>
<svg xmlns="http://www.w3.org/2000/svg" xmlns:xlink="http://www.w3.org/1999/xlink" width="193.146721pt" height="176.748031pt" viewBox="0 0 193.146721 176.748031" version="1.1">
<g id="surface73">
<path style="fill:none;stroke-width:0.566929;stroke-linecap:butt;stroke-linejoin:miter;stroke:rgb(100%,0%,0%);stroke-opacity:0.5;stroke-miterlimit:10;" d="M -2.8338 2.835276 L 2.834169 -2.834646 " transform="matrix(2,0,0,2,5.952756,6.169291)"/>
<path style="fill:none;stroke-width:0.566929;stroke-linecap:butt;stroke-linejoin:miter;stroke:rgb(100%,0%,0%);stroke-opacity:0.5;stroke-miterlimit:10;" d="M 2.834169 2.835276 L -2.8338 -2.834646 " transform="matrix(2,0,0,2,5.952756,6.169291)"/>
<path style="fill-rule:nonzero;fill:rgb(50%,50%,0%);fill-opacity:0.1;stroke-width:0.566929;stroke-linecap:butt;stroke-linejoin:miter;stroke:rgb(100%,0%,0%);stroke-opacity:0.5;stroke-miterlimit:10;" d="M 0.000184547 85.038401 L 90.511903 85.038401 L 90.511903 -0.00066129 L 0.000184547 -0.00066129 Z M 0.000184547 85.038401 " transform="matrix(2,0,0,2,5.952756,6.169291)"/>
<path style="fill:none;stroke-width:0.566929;stroke-linecap:butt;stroke-linejoin:miter;stroke:rgb(100%,0%,0%);stroke-opacity:0.5;stroke-miterlimit:10;" d="M 7.754091 2.835276 L 13.424013 -2.834646 " transform="matrix(2,0,0,2,5.952756,6.169291)"/>
<path style="fill:none;stroke-width:0.566929;stroke-linecap:butt;stroke-linejoin:miter;stroke:rgb(100%,0%,0%);stroke-opacity:0.5;stroke-miterlimit:10;" d="M 13.424013 2.835276 L 7.754091 -2.834646 " transform="matrix(2,0,0,2,5.952756,6.169291)"/>
<path style="fill-rule:nonzero;fill:rgb(50%,50%,0%);fill-opacity:0.1;stroke-width:0.566929;stroke-linecap:butt;stroke-linejoin:miter;stroke:rgb(100%,0%,0%);stroke-opacity:0.5;stroke-miterlimit:10;" d="M 5.355653 11.247386 L 15.82245 11.247386 L 15.82245 -0.00066129 L 5.355653 -0.00066129 Z M 5.355653 11.247386 " transform="matrix(2,0,0,2,5.952756,6.169291)"/>
<path style="fill:none;stroke-width:0.566929;stroke-linecap:butt;stroke-linejoin:miter;stroke:rgb(100%,0%,0%);stroke-opacity:0.5;stroke-miterlimit:10;" d="M 5.355653 11.138011 L 11.025575 5.468089 " transform="matrix(2,0,0,2,5.952756,6.169291)"/>
<path style="fill:none;stroke-width:0.566929;stroke-linecap:butt;stroke-linejoin:miter;stroke:rgb(100%,0%,0%);stroke-opacity:0.5;stroke-miterlimit:10;" d="M 11.025575 11.138011 L 5.355653 5.468089 " transform="matrix(2,0,0,2,5.952756,6.169291)"/>
<path style="fill-rule:nonzero;fill:rgb(50%,50%,0%);fill-opacity:0.1;stroke-width:0.566929;stroke-linecap:butt;stroke-linejoin:miter;stroke:rgb(100%,0%,0%);stroke-opacity:0.5;stroke-miterlimit:10;" d="M 5.355653 11.247386 L 15.82245 11.247386 L 15.82245 -0.00066129 L 5.355653 -0.00066129 Z M 5.355653 11.247386 " transform="matrix(2,0,0,2,5.952756,6.169291)"/>
<path style="fill:none;stroke-width:0.566929;stroke-linecap:butt;stroke-linejoin:miter;stroke:rgb(100%,0%,0%);stroke-opacity:0.5;stroke-miterlimit:10;" d="M 5.355653 11.138011 L 11.025575 5.468089 " transform="matrix(2,0,0,2,5.952756,6.169291)"/>
<path style="fill:none;stroke-width:0.566929;stroke-linecap:butt;stroke-linejoin:miter;stroke:rgb(100%,0%,0%);stroke-opacity:0.5;stroke-miterlimit:10;" d="M 11.025575 11.138011 L 5.355653 5.468089 " transform="matrix(2,0,0,2,5.952756,6.169291)"/>
<path style="fill-rule:nonzero;fill:rgb(50%,50%,0%);fill-opacity:0.1;stroke-width:0.566929;stroke-linecap:butt;stroke-linejoin:miter;stroke:rgb(100%,0%,0%);stroke-opacity:0.5;stroke-miterlimit:10;" d="M 8.191591 8.413401 L 12.988466 8.413401 L 12.988466 2.835276 L 8.191591 2.835276 Z M 8.191591 8.413401 " transform="matrix(2,0,0,2,5.952756,6.169291)"/>
<path style=" stroke:none;fill-rule:nonzero;fill:rgb(0%,0%,0%);fill-opacity:1;" d="M 24.992188 17.433594 C 24.992188 14.183594 26.617188 13.339844 27.679688 13.339844 C 27.867188 13.339844 29.117188 13.371094 29.804688 14.089844 C 28.992188 14.152344 28.867188 14.746094 28.867188 14.996094 C 28.867188 15.527344 29.242188 15.902344 29.773438 15.902344 C 30.304688 15.902344 30.710938 15.589844 30.710938 14.964844 C 30.710938 13.621094 29.179688 12.839844 27.648438 12.839844 C 25.148438 12.839844 23.335938 14.996094 23.335938 17.464844 C 23.335938 20.027344 25.304688 21.996094 27.617188 21.996094 C 30.273438 21.996094 30.929688 19.589844 30.929688 19.402344 C 30.929688 19.214844 30.710938 19.214844 30.648438 19.214844 C 30.492188 19.214844 30.429688 19.277344 30.398438 19.402344 C 29.835938 21.246094 28.523438 21.496094 27.804688 21.496094 C 26.742188 21.496094 24.992188 20.652344 24.992188 17.433594 Z M 24.992188 17.433594 "/>
<path style="fill:none;stroke-width:0.566929;stroke-linecap:butt;stroke-linejoin:miter;stroke:rgb(100%,0%,0%);stroke-opacity:0.5;stroke-miterlimit:10;" d="M 36.404481 2.835276 L 42.074403 -2.834646 " transform="matrix(2,0,0,2,5.952756,6.169291)"/>
<path style="fill:none;stroke-width:0.566929;stroke-linecap:butt;stroke-linejoin:miter;stroke:rgb(100%,0%,0%);stroke-opacity:0.5;stroke-miterlimit:10;" d="M 42.074403 2.835276 L 36.404481 -2.834646 " transform="matrix(2,0,0,2,5.952756,6.169291)"/>
<path style="fill-rule:nonzero;fill:rgb(50%,50%,0%);fill-opacity:0.1;stroke-width:0.566929;stroke-linecap:butt;stroke-linejoin:miter;stroke:rgb(100%,0%,0%);stroke-opacity:0.5;stroke-miterlimit:10;" d="M 31.761903 11.247386 L 46.718935 11.247386 L 46.718935 -0.00066129 L 31.761903 -0.00066129 Z M 31.761903 11.247386 " transform="matrix(2,0,0,2,5.952756,6.169291)"/>
<path style="fill:none;stroke-width:0.566929;stroke-linecap:butt;stroke-linejoin:miter;stroke:rgb(100%,0%,0%);stroke-opacity:0.5;stroke-miterlimit:10;" d="M 31.761903 11.138011 L 37.431825 5.468089 " transform="matrix(2,0,0,2,5.952756,6.169291)"/>
<path style="fill:none;stroke-width:0.566929;stroke-linecap:butt;stroke-linejoin:miter;stroke:rgb(100%,0%,0%);stroke-opacity:0.5;stroke-miterlimit:10;" d="M 37.431825 11.138011 L 31.761903 5.468089 " transform="matrix(2,0,0,2,5.952756,6.169291)"/>
<path style="fill-rule:nonzero;fill:rgb(50%,50%,0%);fill-opacity:0.1;stroke-width:0.566929;stroke-linecap:butt;stroke-linejoin:miter;stroke:rgb(100%,0%,0%);stroke-opacity:0.5;stroke-miterlimit:10;" d="M 31.761903 11.247386 L 46.718935 11.247386 L 46.718935 -0.00066129 L 31.761903 -0.00066129 Z M 31.761903 11.247386 " transform="matrix(2,0,0,2,5.952756,6.169291)"/>
<path style="fill:none;stroke-width:0.566929;stroke-linecap:butt;stroke-linejoin:miter;stroke:rgb(100%,0%,0%);stroke-opacity:0.5;stroke-miterlimit:10;" d="M 31.761903 11.138011 L 37.431825 5.468089 " transform="matrix(2,0,0,2,5.952756,6.169291)"/>
<path style="fill:none;stroke-width:0.566929;stroke-linecap:butt;stroke-linejoin:miter;stroke:rgb(100%,0%,0%);stroke-opacity:0.5;stroke-miterlimit:10;" d="M 37.431825 11.138011 L 31.761903 5.468089 " transform="matrix(2,0,0,2,5.952756,6.169291)"/>
<path style="fill-rule:nonzero;fill:rgb(50%,50%,0%);fill-opacity:0.1;stroke-width:0.566929;stroke-linecap:butt;stroke-linejoin:miter;stroke:rgb(100%,0%,0%);stroke-opacity:0.5;stroke-miterlimit:10;" d="M 34.595888 8.413401 L 43.882997 8.413401 L 43.882997 2.835276 L 34.595888 2.835276 Z M 34.595888 8.413401 " transform="matrix(2,0,0,2,5.952756,6.169291)"/>
<path style=" stroke:none;fill-rule:nonzero;fill:rgb(0%,0%,0%);fill-opacity:1;" d="M 77.800781 16.746094 C 77.925781 13.777344 79.613281 13.277344 80.300781 13.277344 C 82.332031 13.277344 82.550781 15.964844 82.550781 16.746094 Z M 77.800781 17.183594 L 83.363281 17.183594 C 83.800781 17.183594 83.863281 17.183594 83.863281 16.746094 C 83.863281 14.777344 82.769531 12.839844 80.300781 12.839844 C 77.988281 12.839844 76.144531 14.902344 76.144531 17.402344 C 76.144531 20.058594 78.238281 21.996094 80.519531 21.996094 C 82.957031 21.996094 83.863281 19.777344 83.863281 19.402344 C 83.863281 19.214844 83.707031 19.152344 83.582031 19.152344 C 83.425781 19.152344 83.363281 19.277344 83.332031 19.433594 C 82.644531 21.496094 80.832031 21.496094 80.644531 21.496094 C 79.644531 21.496094 78.863281 20.902344 78.394531 20.152344 C 77.800781 19.214844 77.800781 17.902344 77.800781 17.183594 Z M 77.800781 17.183594 "/>
<path style=" stroke:none;fill-rule:nonzero;fill:rgb(0%,0%,0%);fill-opacity:1;" d="M 86.65625 16.746094 C 86.78125 13.777344 88.46875 13.277344 89.15625 13.277344 C 91.1875 13.277344 91.40625 15.964844 91.40625 16.746094 Z M 86.65625 17.183594 L 92.21875 17.183594 C 92.65625 17.183594 92.71875 17.183594 92.71875 16.746094 C 92.71875 14.777344 91.625 12.839844 89.15625 12.839844 C 86.84375 12.839844 85 14.902344 85 17.402344 C 85 20.058594 87.09375 21.996094 89.375 21.996094 C 91.8125 21.996094 92.71875 19.777344 92.71875 19.402344 C 92.71875 19.214844 92.5625 19.152344 92.4375 19.152344 C 92.28125 19.152344 92.21875 19.277344 92.1875 19.433594 C 91.5 21.496094 89.6875 21.496094 89.5 21.496094 C 88.5 21.496094 87.71875 20.902344 87.25 20.152344 C 86.65625 19.214844 86.65625 17.902344 86.65625 17.183594 Z M 86.65625 17.183594 "/>
<path style="fill:none;stroke-width:0.566929;stroke-linecap:butt;stroke-linejoin:miter;stroke:rgb(100%,0%,0%);stroke-opacity:0.5;stroke-miterlimit:10;" d="M 71.07245 2.835276 L 76.742372 -2.834646 " transform="matrix(2,0,0,2,5.952756,6.169291)"/>
<path style="fill:none;stroke-width:0.566929;stroke-linecap:butt;stroke-linejoin:miter;stroke:rgb(100%,0%,0%);stroke-opacity:0.5;stroke-miterlimit:10;" d="M 76.742372 2.835276 L 71.07245 -2.834646 " transform="matrix(2,0,0,2,5.952756,6.169291)"/>
<path style="fill-rule:nonzero;fill:rgb(50%,50%,0%);fill-opacity:0.1;stroke-width:0.566929;stroke-linecap:butt;stroke-linejoin:miter;stroke:rgb(100%,0%,0%);stroke-opacity:0.5;stroke-miterlimit:10;" d="M 62.806825 10.966136 L 85.007997 10.966136 L 85.007997 -0.00066129 L 62.806825 -0.00066129 Z M 62.806825 10.966136 " transform="matrix(2,0,0,2,5.952756,6.169291)"/>
<path style="fill:none;stroke-width:0.566929;stroke-linecap:butt;stroke-linejoin:miter;stroke:rgb(100%,0%,0%);stroke-opacity:0.5;stroke-miterlimit:10;" d="M 62.806825 10.966136 L 68.474794 5.296214 " transform="matrix(2,0,0,2,5.952756,6.169291)"/>
<path style="fill:none;stroke-width:0.566929;stroke-linecap:butt;stroke-linejoin:miter;stroke:rgb(100%,0%,0%);stroke-opacity:0.5;stroke-miterlimit:10;" d="M 68.474794 10.966136 L 62.806825 5.296214 " transform="matrix(2,0,0,2,5.952756,6.169291)"/>
<path style="fill-rule:nonzero;fill:rgb(50%,50%,0%);fill-opacity:0.1;stroke-width:0.566929;stroke-linecap:butt;stroke-linejoin:miter;stroke:rgb(100%,0%,0%);stroke-opacity:0.5;stroke-miterlimit:10;" d="M 62.806825 10.966136 L 85.007997 10.966136 L 85.007997 -0.00066129 L 62.806825 -0.00066129 Z M 62.806825 10.966136 " transform="matrix(2,0,0,2,5.952756,6.169291)"/>
<path style="fill:none;stroke-width:0.566929;stroke-linecap:butt;stroke-linejoin:miter;stroke:rgb(100%,0%,0%);stroke-opacity:0.5;stroke-miterlimit:10;" d="M 62.806825 10.966136 L 68.474794 5.296214 " transform="matrix(2,0,0,2,5.952756,6.169291)"/>
<path style="fill:none;stroke-width:0.566929;stroke-linecap:butt;stroke-linejoin:miter;stroke:rgb(100%,0%,0%);stroke-opacity:0.5;stroke-miterlimit:10;" d="M 68.474794 10.966136 L 62.806825 5.296214 " transform="matrix(2,0,0,2,5.952756,6.169291)"/>
<path style="fill-rule:nonzero;fill:rgb(50%,50%,0%);fill-opacity:0.1;stroke-width:0.566929;stroke-linecap:butt;stroke-linejoin:miter;stroke:rgb(100%,0%,0%);stroke-opacity:0.5;stroke-miterlimit:10;" d="M 65.64081 8.132151 L 82.17206 8.132151 L 82.17206 2.835276 L 65.64081 2.835276 Z M 65.64081 8.132151 " transform="matrix(2,0,0,2,5.952756,6.169291)"/>
<path style=" stroke:none;fill-rule:nonzero;fill:rgb(0%,0%,0%);fill-opacity:1;" d="M 143.703125 16.746094 C 144.296875 15.996094 145.046875 15.027344 145.546875 14.496094 C 146.171875 13.777344 146.984375 13.464844 147.921875 13.464844 L 147.921875 12.839844 C 147.390625 12.871094 146.796875 12.902344 146.265625 12.902344 C 145.671875 12.902344 144.609375 12.871094 144.359375 12.839844 L 144.359375 13.464844 C 144.796875 13.496094 144.953125 13.746094 144.953125 14.089844 C 144.953125 14.402344 144.734375 14.652344 144.640625 14.777344 L 143.421875 16.339844 L 141.859375 14.308594 C 141.671875 14.121094 141.671875 14.089844 141.671875 13.964844 C 141.671875 13.652344 141.984375 13.464844 142.359375 13.464844 L 142.359375 12.839844 C 141.859375 12.871094 140.546875 12.902344 140.203125 12.902344 C 139.796875 12.902344 138.859375 12.871094 138.328125 12.839844 L 138.328125 13.464844 C 139.734375 13.464844 139.734375 13.464844 140.671875 14.683594 L 142.640625 17.246094 L 140.765625 19.621094 C 139.828125 20.777344 138.640625 20.808594 138.234375 20.808594 L 138.234375 21.433594 C 138.734375 21.402344 139.359375 21.371094 139.890625 21.371094 C 140.453125 21.371094 141.296875 21.402344 141.765625 21.433594 L 141.765625 20.808594 C 141.328125 20.746094 141.203125 20.496094 141.203125 20.183594 C 141.203125 19.746094 141.765625 19.089844 142.984375 17.652344 L 144.515625 19.652344 C 144.671875 19.871094 144.921875 20.183594 144.921875 20.308594 C 144.921875 20.496094 144.734375 20.808594 144.203125 20.808594 L 144.203125 21.433594 C 144.796875 21.402344 145.921875 21.371094 146.359375 21.371094 C 146.890625 21.371094 147.671875 21.402344 148.265625 21.433594 L 148.265625 20.808594 C 147.203125 20.808594 146.828125 20.777344 146.390625 20.183594 Z M 143.703125 16.746094 "/>
<path style=" stroke:none;fill-rule:nonzero;fill:rgb(0%,0%,0%);fill-opacity:1;" d="M 154.21875 16.746094 C 154.8125 15.996094 155.5625 15.027344 156.0625 14.496094 C 156.6875 13.777344 157.5 13.464844 158.4375 13.464844 L 158.4375 12.839844 C 157.90625 12.871094 157.3125 12.902344 156.78125 12.902344 C 156.1875 12.902344 155.125 12.871094 154.875 12.839844 L 154.875 13.464844 C 155.3125 13.496094 155.46875 13.746094 155.46875 14.089844 C 155.46875 14.402344 155.25 14.652344 155.15625 14.777344 L 153.9375 16.339844 L 152.375 14.308594 C 152.1875 14.121094 152.1875 14.089844 152.1875 13.964844 C 152.1875 13.652344 152.5 13.464844 152.875 13.464844 L 152.875 12.839844 C 152.375 12.871094 151.0625 12.902344 150.71875 12.902344 C 150.3125 12.902344 149.375 12.871094 148.84375 12.839844 L 148.84375 13.464844 C 150.25 13.464844 150.25 13.464844 151.1875 14.683594 L 153.15625 17.246094 L 151.28125 19.621094 C 150.34375 20.777344 149.15625 20.808594 148.75 20.808594 L 148.75 21.433594 C 149.25 21.402344 149.875 21.371094 150.40625 21.371094 C 150.96875 21.371094 151.8125 21.402344 152.28125 21.433594 L 152.28125 20.808594 C 151.84375 20.746094 151.71875 20.496094 151.71875 20.183594 C 151.71875 19.746094 152.28125 19.089844 153.5 17.652344 L 155.03125 19.652344 C 155.1875 19.871094 155.4375 20.183594 155.4375 20.308594 C 155.4375 20.496094 155.25 20.808594 154.71875 20.808594 L 154.71875 21.433594 C 155.3125 21.402344 156.4375 21.371094 156.875 21.371094 C 157.40625 21.371094 158.1875 21.402344 158.78125 21.433594 L 158.78125 20.808594 C 157.71875 20.808594 157.34375 20.777344 156.90625 20.183594 Z M 154.21875 16.746094 "/>
<path style=" stroke:none;fill-rule:nonzero;fill:rgb(0%,0%,0%);fill-opacity:1;" d="M 164.734375 16.746094 C 165.328125 15.996094 166.078125 15.027344 166.578125 14.496094 C 167.203125 13.777344 168.015625 13.464844 168.953125 13.464844 L 168.953125 12.839844 C 168.421875 12.871094 167.828125 12.902344 167.296875 12.902344 C 166.703125 12.902344 165.640625 12.871094 165.390625 12.839844 L 165.390625 13.464844 C 165.828125 13.496094 165.984375 13.746094 165.984375 14.089844 C 165.984375 14.402344 165.765625 14.652344 165.671875 14.777344 L 164.453125 16.339844 L 162.890625 14.308594 C 162.703125 14.121094 162.703125 14.089844 162.703125 13.964844 C 162.703125 13.652344 163.015625 13.464844 163.390625 13.464844 L 163.390625 12.839844 C 162.890625 12.871094 161.578125 12.902344 161.234375 12.902344 C 160.828125 12.902344 159.890625 12.871094 159.359375 12.839844 L 159.359375 13.464844 C 160.765625 13.464844 160.765625 13.464844 161.703125 14.683594 L 163.671875 17.246094 L 161.796875 19.621094 C 160.859375 20.777344 159.671875 20.808594 159.265625 20.808594 L 159.265625 21.433594 C 159.765625 21.402344 160.390625 21.371094 160.921875 21.371094 C 161.484375 21.371094 162.328125 21.402344 162.796875 21.433594 L 162.796875 20.808594 C 162.359375 20.746094 162.234375 20.496094 162.234375 20.183594 C 162.234375 19.746094 162.796875 19.089844 164.015625 17.652344 L 165.546875 19.652344 C 165.703125 19.871094 165.953125 20.183594 165.953125 20.308594 C 165.953125 20.496094 165.765625 20.808594 165.234375 20.808594 L 165.234375 21.433594 C 165.828125 21.402344 166.953125 21.371094 167.390625 21.371094 C 167.921875 21.371094 168.703125 21.402344 169.296875 21.433594 L 169.296875 20.808594 C 168.234375 20.808594 167.859375 20.777344 167.421875 20.183594 Z M 164.734375 16.746094 "/>
<path style="fill:none;stroke-width:0.566929;stroke-linecap:butt;stroke-linejoin:miter;stroke:rgb(100%,0%,0%);stroke-opacity:0.5;stroke-miterlimit:10;" d="M 87.677919 2.835276 L 93.347841 -2.834646 " transform="matrix(2,0,0,2,5.952756,6.169291)"/>
<path style="fill:none;stroke-width:0.566929;stroke-linecap:butt;stroke-linejoin:miter;stroke:rgb(100%,0%,0%);stroke-opacity:0.5;stroke-miterlimit:10;" d="M 93.347841 2.835276 L 87.677919 -2.834646 " transform="matrix(2,0,0,2,5.952756,6.169291)"/>
<path style="fill:none;stroke-width:0.566929;stroke-linecap:butt;stroke-linejoin:miter;stroke:rgb(100%,0%,0%);stroke-opacity:0.5;stroke-miterlimit:10;" d="M 90.511903 28.346995 L 90.511903 -0.00066129 Z M 90.511903 28.346995 " transform="matrix(2,0,0,2,5.952756,6.169291)"/>
<path style="fill:none;stroke-width:0.566929;stroke-linecap:butt;stroke-linejoin:miter;stroke:rgb(100%,0%,0%);stroke-opacity:0.5;stroke-miterlimit:10;" d="M 7.754091 31.180979 L 13.424013 25.511057 " transform="matrix(2,0,0,2,5.952756,6.169291)"/>
<path style="fill:none;stroke-width:0.566929;stroke-linecap:butt;stroke-linejoin:miter;stroke:rgb(100%,0%,0%);stroke-opacity:0.5;stroke-miterlimit:10;" d="M 13.424013 31.180979 L 7.754091 25.511057 " transform="matrix(2,0,0,2,5.952756,6.169291)"/>
<path style="fill-rule:nonzero;fill:rgb(50%,50%,0%);fill-opacity:0.1;stroke-width:0.566929;stroke-linecap:butt;stroke-linejoin:miter;stroke:rgb(100%,0%,0%);stroke-opacity:0.5;stroke-miterlimit:10;" d="M 2.117372 39.311839 L 19.060731 39.311839 L 19.060731 28.346995 L 2.117372 28.346995 Z M 2.117372 39.311839 " transform="matrix(2,0,0,2,5.952756,6.169291)"/>
<path style="fill:none;stroke-width:0.566929;stroke-linecap:butt;stroke-linejoin:miter;stroke:rgb(100%,0%,0%);stroke-opacity:0.5;stroke-miterlimit:10;" d="M 2.117372 39.311839 L 7.787294 33.64387 " transform="matrix(2,0,0,2,5.952756,6.169291)"/>
<path style="fill:none;stroke-width:0.566929;stroke-linecap:butt;stroke-linejoin:miter;stroke:rgb(100%,0%,0%);stroke-opacity:0.5;stroke-miterlimit:10;" d="M 7.787294 39.311839 L 2.117372 33.64387 " transform="matrix(2,0,0,2,5.952756,6.169291)"/>
<path style="fill-rule:nonzero;fill:rgb(50%,50%,0%);fill-opacity:0.1;stroke-width:0.566929;stroke-linecap:butt;stroke-linejoin:miter;stroke:rgb(100%,0%,0%);stroke-opacity:0.5;stroke-miterlimit:10;" d="M 2.117372 39.311839 L 19.060731 39.311839 L 19.060731 28.346995 L 2.117372 28.346995 Z M 2.117372 39.311839 " transform="matrix(2,0,0,2,5.952756,6.169291)"/>
<path style="fill:none;stroke-width:0.566929;stroke-linecap:butt;stroke-linejoin:miter;stroke:rgb(100%,0%,0%);stroke-opacity:0.5;stroke-miterlimit:10;" d="M 2.117372 39.311839 L 7.787294 33.64387 " transform="matrix(2,0,0,2,5.952756,6.169291)"/>
<path style="fill:none;stroke-width:0.566929;stroke-linecap:butt;stroke-linejoin:miter;stroke:rgb(100%,0%,0%);stroke-opacity:0.5;stroke-miterlimit:10;" d="M 7.787294 39.311839 L 2.117372 33.64387 " transform="matrix(2,0,0,2,5.952756,6.169291)"/>
<path style="fill-rule:nonzero;fill:rgb(50%,50%,0%);fill-opacity:0.1;stroke-width:0.566929;stroke-linecap:butt;stroke-linejoin:miter;stroke:rgb(100%,0%,0%);stroke-opacity:0.5;stroke-miterlimit:10;" d="M 4.95331 36.477854 L 16.226747 36.477854 L 16.226747 31.180979 L 4.95331 31.180979 Z M 4.95331 36.477854 " transform="matrix(2,0,0,2,5.952756,6.169291)"/>
<path style=" stroke:none;fill-rule:nonzero;fill:rgb(0%,0%,0%);fill-opacity:1;" d="M 22.328125 73.4375 C 22.921875 72.6875 23.671875 71.71875 24.171875 71.1875 C 24.796875 70.46875 25.609375 70.15625 26.546875 70.15625 L 26.546875 69.53125 C 26.015625 69.5625 25.421875 69.59375 24.890625 69.59375 C 24.296875 69.59375 23.234375 69.5625 22.984375 69.53125 L 22.984375 70.15625 C 23.421875 70.1875 23.578125 70.4375 23.578125 70.78125 C 23.578125 71.09375 23.359375 71.34375 23.265625 71.46875 L 22.046875 73.03125 L 20.484375 71 C 20.296875 70.8125 20.296875 70.78125 20.296875 70.65625 C 20.296875 70.34375 20.609375 70.15625 20.984375 70.15625 L 20.984375 69.53125 C 20.484375 69.5625 19.171875 69.59375 18.828125 69.59375 C 18.421875 69.59375 17.484375 69.5625 16.953125 69.53125 L 16.953125 70.15625 C 18.359375 70.15625 18.359375 70.15625 19.296875 71.375 L 21.265625 73.9375 L 19.390625 76.3125 C 18.453125 77.46875 17.265625 77.5 16.859375 77.5 L 16.859375 78.125 C 17.359375 78.09375 17.984375 78.0625 18.515625 78.0625 C 19.078125 78.0625 19.921875 78.09375 20.390625 78.125 L 20.390625 77.5 C 19.953125 77.4375 19.828125 77.1875 19.828125 76.875 C 19.828125 76.4375 20.390625 75.78125 21.609375 74.34375 L 23.140625 76.34375 C 23.296875 76.5625 23.546875 76.875 23.546875 77 C 23.546875 77.1875 23.359375 77.5 22.828125 77.5 L 22.828125 78.125 C 23.421875 78.09375 24.546875 78.0625 24.984375 78.0625 C 25.515625 78.0625 26.296875 78.09375 26.890625 78.125 L 26.890625 77.5 C 25.828125 77.5 25.453125 77.46875 25.015625 76.875 Z M 22.328125 73.4375 "/>
<path style=" stroke:none;fill-rule:nonzero;fill:rgb(0%,0%,0%);fill-opacity:1;" d="M 32.84375 73.4375 C 33.4375 72.6875 34.1875 71.71875 34.6875 71.1875 C 35.3125 70.46875 36.125 70.15625 37.0625 70.15625 L 37.0625 69.53125 C 36.53125 69.5625 35.9375 69.59375 35.40625 69.59375 C 34.8125 69.59375 33.75 69.5625 33.5 69.53125 L 33.5 70.15625 C 33.9375 70.1875 34.09375 70.4375 34.09375 70.78125 C 34.09375 71.09375 33.875 71.34375 33.78125 71.46875 L 32.5625 73.03125 L 31 71 C 30.8125 70.8125 30.8125 70.78125 30.8125 70.65625 C 30.8125 70.34375 31.125 70.15625 31.5 70.15625 L 31.5 69.53125 C 31 69.5625 29.6875 69.59375 29.34375 69.59375 C 28.9375 69.59375 28 69.5625 27.46875 69.53125 L 27.46875 70.15625 C 28.875 70.15625 28.875 70.15625 29.8125 71.375 L 31.78125 73.9375 L 29.90625 76.3125 C 28.96875 77.46875 27.78125 77.5 27.375 77.5 L 27.375 78.125 C 27.875 78.09375 28.5 78.0625 29.03125 78.0625 C 29.59375 78.0625 30.4375 78.09375 30.90625 78.125 L 30.90625 77.5 C 30.46875 77.4375 30.34375 77.1875 30.34375 76.875 C 30.34375 76.4375 30.90625 75.78125 32.125 74.34375 L 33.65625 76.34375 C 33.8125 76.5625 34.0625 76.875 34.0625 77 C 34.0625 77.1875 33.875 77.5 33.34375 77.5 L 33.34375 78.125 C 33.9375 78.09375 35.0625 78.0625 35.5 78.0625 C 36.03125 78.0625 36.8125 78.09375 37.40625 78.125 L 37.40625 77.5 C 36.34375 77.5 35.96875 77.46875 35.53125 76.875 Z M 32.84375 73.4375 "/>
<path style="fill:none;stroke-width:0.566929;stroke-linecap:butt;stroke-linejoin:miter;stroke:rgb(100%,0%,0%);stroke-opacity:0.5;stroke-miterlimit:10;" d="M 36.404481 31.180979 L 42.074403 25.511057 " transform="matrix(2,0,0,2,5.952756,6.169291)"/>
<path style="fill:none;stroke-width:0.566929;stroke-linecap:butt;stroke-linejoin:miter;stroke:rgb(100%,0%,0%);stroke-opacity:0.5;stroke-miterlimit:10;" d="M 42.074403 31.180979 L 36.404481 25.511057 " transform="matrix(2,0,0,2,5.952756,6.169291)"/>
<path style="fill-rule:nonzero;fill:rgb(50%,50%,0%);fill-opacity:0.1;stroke-width:0.566929;stroke-linecap:butt;stroke-linejoin:miter;stroke:rgb(100%,0%,0%);stroke-opacity:0.5;stroke-miterlimit:10;" d="M 25.50995 39.311839 L 52.970888 39.311839 L 52.970888 28.346995 L 25.50995 28.346995 Z M 25.50995 39.311839 " transform="matrix(2,0,0,2,5.952756,6.169291)"/>
<path style="fill:none;stroke-width:0.566929;stroke-linecap:butt;stroke-linejoin:miter;stroke:rgb(100%,0%,0%);stroke-opacity:0.5;stroke-miterlimit:10;" d="M 25.50995 39.311839 L 31.179872 33.64387 " transform="matrix(2,0,0,2,5.952756,6.169291)"/>
<path style="fill:none;stroke-width:0.566929;stroke-linecap:butt;stroke-linejoin:miter;stroke:rgb(100%,0%,0%);stroke-opacity:0.5;stroke-miterlimit:10;" d="M 31.179872 39.311839 L 25.50995 33.64387 " transform="matrix(2,0,0,2,5.952756,6.169291)"/>
<path style="fill-rule:nonzero;fill:rgb(50%,50%,0%);fill-opacity:0.1;stroke-width:0.566929;stroke-linecap:butt;stroke-linejoin:miter;stroke:rgb(100%,0%,0%);stroke-opacity:0.5;stroke-miterlimit:10;" d="M 25.50995 39.311839 L 52.970888 39.311839 L 52.970888 28.346995 L 25.50995 28.346995 Z M 25.50995 39.311839 " transform="matrix(2,0,0,2,5.952756,6.169291)"/>
<path style="fill:none;stroke-width:0.566929;stroke-linecap:butt;stroke-linejoin:miter;stroke:rgb(100%,0%,0%);stroke-opacity:0.5;stroke-miterlimit:10;" d="M 25.50995 39.311839 L 31.179872 33.64387 " transform="matrix(2,0,0,2,5.952756,6.169291)"/>
<path style="fill:none;stroke-width:0.566929;stroke-linecap:butt;stroke-linejoin:miter;stroke:rgb(100%,0%,0%);stroke-opacity:0.5;stroke-miterlimit:10;" d="M 31.179872 39.311839 L 25.50995 33.64387 " transform="matrix(2,0,0,2,5.952756,6.169291)"/>
<path style="fill-rule:nonzero;fill:rgb(50%,50%,0%);fill-opacity:0.1;stroke-width:0.566929;stroke-linecap:butt;stroke-linejoin:miter;stroke:rgb(100%,0%,0%);stroke-opacity:0.5;stroke-miterlimit:10;" d="M 28.343935 36.477854 L 50.13495 36.477854 L 50.13495 31.180979 L 28.343935 31.180979 Z M 28.343935 36.477854 " transform="matrix(2,0,0,2,5.952756,6.169291)"/>
<path style=" stroke:none;fill-rule:nonzero;fill:rgb(0%,0%,0%);fill-opacity:1;" d="M 69.109375 73.4375 C 69.703125 72.6875 70.453125 71.71875 70.953125 71.1875 C 71.578125 70.46875 72.390625 70.15625 73.328125 70.15625 L 73.328125 69.53125 C 72.796875 69.5625 72.203125 69.59375 71.671875 69.59375 C 71.078125 69.59375 70.015625 69.5625 69.765625 69.53125 L 69.765625 70.15625 C 70.203125 70.1875 70.359375 70.4375 70.359375 70.78125 C 70.359375 71.09375 70.140625 71.34375 70.046875 71.46875 L 68.828125 73.03125 L 67.265625 71 C 67.078125 70.8125 67.078125 70.78125 67.078125 70.65625 C 67.078125 70.34375 67.390625 70.15625 67.765625 70.15625 L 67.765625 69.53125 C 67.265625 69.5625 65.953125 69.59375 65.609375 69.59375 C 65.203125 69.59375 64.265625 69.5625 63.734375 69.53125 L 63.734375 70.15625 C 65.140625 70.15625 65.140625 70.15625 66.078125 71.375 L 68.046875 73.9375 L 66.171875 76.3125 C 65.234375 77.46875 64.046875 77.5 63.640625 77.5 L 63.640625 78.125 C 64.140625 78.09375 64.765625 78.0625 65.296875 78.0625 C 65.859375 78.0625 66.703125 78.09375 67.171875 78.125 L 67.171875 77.5 C 66.734375 77.4375 66.609375 77.1875 66.609375 76.875 C 66.609375 76.4375 67.171875 75.78125 68.390625 74.34375 L 69.921875 76.34375 C 70.078125 76.5625 70.328125 76.875 70.328125 77 C 70.328125 77.1875 70.140625 77.5 69.609375 77.5 L 69.609375 78.125 C 70.203125 78.09375 71.328125 78.0625 71.765625 78.0625 C 72.296875 78.0625 73.078125 78.09375 73.671875 78.125 L 73.671875 77.5 C 72.609375 77.5 72.234375 77.46875 71.796875 76.875 Z M 69.109375 73.4375 "/>
<path style=" stroke:none;fill-rule:nonzero;fill:rgb(0%,0%,0%);fill-opacity:1;" d="M 79.628906 73.4375 C 80.222656 72.6875 80.972656 71.71875 81.472656 71.1875 C 82.097656 70.46875 82.910156 70.15625 83.847656 70.15625 L 83.847656 69.53125 C 83.316406 69.5625 82.722656 69.59375 82.191406 69.59375 C 81.597656 69.59375 80.535156 69.5625 80.285156 69.53125 L 80.285156 70.15625 C 80.722656 70.1875 80.878906 70.4375 80.878906 70.78125 C 80.878906 71.09375 80.660156 71.34375 80.566406 71.46875 L 79.347656 73.03125 L 77.785156 71 C 77.597656 70.8125 77.597656 70.78125 77.597656 70.65625 C 77.597656 70.34375 77.910156 70.15625 78.285156 70.15625 L 78.285156 69.53125 C 77.785156 69.5625 76.472656 69.59375 76.128906 69.59375 C 75.722656 69.59375 74.785156 69.5625 74.253906 69.53125 L 74.253906 70.15625 C 75.660156 70.15625 75.660156 70.15625 76.597656 71.375 L 78.566406 73.9375 L 76.691406 76.3125 C 75.753906 77.46875 74.566406 77.5 74.160156 77.5 L 74.160156 78.125 C 74.660156 78.09375 75.285156 78.0625 75.816406 78.0625 C 76.378906 78.0625 77.222656 78.09375 77.691406 78.125 L 77.691406 77.5 C 77.253906 77.4375 77.128906 77.1875 77.128906 76.875 C 77.128906 76.4375 77.691406 75.78125 78.910156 74.34375 L 80.441406 76.34375 C 80.597656 76.5625 80.847656 76.875 80.847656 77 C 80.847656 77.1875 80.660156 77.5 80.128906 77.5 L 80.128906 78.125 C 80.722656 78.09375 81.847656 78.0625 82.285156 78.0625 C 82.816406 78.0625 83.597656 78.09375 84.191406 78.125 L 84.191406 77.5 C 83.128906 77.5 82.753906 77.46875 82.316406 76.875 Z M 79.628906 73.4375 "/>
<path style=" stroke:none;fill-rule:nonzero;fill:rgb(0%,0%,0%);fill-opacity:1;" d="M 90.144531 73.4375 C 90.738281 72.6875 91.488281 71.71875 91.988281 71.1875 C 92.613281 70.46875 93.425781 70.15625 94.363281 70.15625 L 94.363281 69.53125 C 93.832031 69.5625 93.238281 69.59375 92.707031 69.59375 C 92.113281 69.59375 91.050781 69.5625 90.800781 69.53125 L 90.800781 70.15625 C 91.238281 70.1875 91.394531 70.4375 91.394531 70.78125 C 91.394531 71.09375 91.175781 71.34375 91.082031 71.46875 L 89.863281 73.03125 L 88.300781 71 C 88.113281 70.8125 88.113281 70.78125 88.113281 70.65625 C 88.113281 70.34375 88.425781 70.15625 88.800781 70.15625 L 88.800781 69.53125 C 88.300781 69.5625 86.988281 69.59375 86.644531 69.59375 C 86.238281 69.59375 85.300781 69.5625 84.769531 69.53125 L 84.769531 70.15625 C 86.175781 70.15625 86.175781 70.15625 87.113281 71.375 L 89.082031 73.9375 L 87.207031 76.3125 C 86.269531 77.46875 85.082031 77.5 84.675781 77.5 L 84.675781 78.125 C 85.175781 78.09375 85.800781 78.0625 86.332031 78.0625 C 86.894531 78.0625 87.738281 78.09375 88.207031 78.125 L 88.207031 77.5 C 87.769531 77.4375 87.644531 77.1875 87.644531 76.875 C 87.644531 76.4375 88.207031 75.78125 89.425781 74.34375 L 90.957031 76.34375 C 91.113281 76.5625 91.363281 76.875 91.363281 77 C 91.363281 77.1875 91.175781 77.5 90.644531 77.5 L 90.644531 78.125 C 91.238281 78.09375 92.363281 78.0625 92.800781 78.0625 C 93.332031 78.0625 94.113281 78.09375 94.707031 78.125 L 94.707031 77.5 C 93.644531 77.5 93.269531 77.46875 92.832031 76.875 Z M 90.144531 73.4375 "/>
<path style=" stroke:none;fill-rule:nonzero;fill:rgb(0%,0%,0%);fill-opacity:1;" d="M 100.660156 73.4375 C 101.253906 72.6875 102.003906 71.71875 102.503906 71.1875 C 103.128906 70.46875 103.941406 70.15625 104.878906 70.15625 L 104.878906 69.53125 C 104.347656 69.5625 103.753906 69.59375 103.222656 69.59375 C 102.628906 69.59375 101.566406 69.5625 101.316406 69.53125 L 101.316406 70.15625 C 101.753906 70.1875 101.910156 70.4375 101.910156 70.78125 C 101.910156 71.09375 101.691406 71.34375 101.597656 71.46875 L 100.378906 73.03125 L 98.816406 71 C 98.628906 70.8125 98.628906 70.78125 98.628906 70.65625 C 98.628906 70.34375 98.941406 70.15625 99.316406 70.15625 L 99.316406 69.53125 C 98.816406 69.5625 97.503906 69.59375 97.160156 69.59375 C 96.753906 69.59375 95.816406 69.5625 95.285156 69.53125 L 95.285156 70.15625 C 96.691406 70.15625 96.691406 70.15625 97.628906 71.375 L 99.597656 73.9375 L 97.722656 76.3125 C 96.785156 77.46875 95.597656 77.5 95.191406 77.5 L 95.191406 78.125 C 95.691406 78.09375 96.316406 78.0625 96.847656 78.0625 C 97.410156 78.0625 98.253906 78.09375 98.722656 78.125 L 98.722656 77.5 C 98.285156 77.4375 98.160156 77.1875 98.160156 76.875 C 98.160156 76.4375 98.722656 75.78125 99.941406 74.34375 L 101.472656 76.34375 C 101.628906 76.5625 101.878906 76.875 101.878906 77 C 101.878906 77.1875 101.691406 77.5 101.160156 77.5 L 101.160156 78.125 C 101.753906 78.09375 102.878906 78.0625 103.316406 78.0625 C 103.847656 78.0625 104.628906 78.09375 105.222656 78.125 L 105.222656 77.5 C 104.160156 77.5 103.785156 77.46875 103.347656 76.875 Z M 100.660156 73.4375 "/>
<path style="fill:none;stroke-width:0.566929;stroke-linecap:butt;stroke-linejoin:miter;stroke:rgb(100%,0%,0%);stroke-opacity:0.5;stroke-miterlimit:10;" d="M 71.07245 31.180979 L 76.742372 25.511057 " transform="matrix(2,0,0,2,5.952756,6.169291)"/>
<path style="fill:none;stroke-width:0.566929;stroke-linecap:butt;stroke-linejoin:miter;stroke:rgb(100%,0%,0%);stroke-opacity:0.5;stroke-miterlimit:10;" d="M 76.742372 31.180979 L 71.07245 25.511057 " transform="matrix(2,0,0,2,5.952756,6.169291)"/>
<path style="fill-rule:nonzero;fill:rgb(50%,50%,0%);fill-opacity:0.1;stroke-width:0.566929;stroke-linecap:butt;stroke-linejoin:miter;stroke:rgb(100%,0%,0%);stroke-opacity:0.5;stroke-miterlimit:10;" d="M 57.605653 39.593089 L 90.209169 39.593089 L 90.209169 28.346995 L 57.605653 28.346995 Z M 57.605653 39.593089 " transform="matrix(2,0,0,2,5.952756,6.169291)"/>
<path style="fill:none;stroke-width:0.566929;stroke-linecap:butt;stroke-linejoin:miter;stroke:rgb(100%,0%,0%);stroke-opacity:0.5;stroke-miterlimit:10;" d="M 57.605653 39.483714 L 63.275575 33.815745 " transform="matrix(2,0,0,2,5.952756,6.169291)"/>
<path style="fill:none;stroke-width:0.566929;stroke-linecap:butt;stroke-linejoin:miter;stroke:rgb(100%,0%,0%);stroke-opacity:0.5;stroke-miterlimit:10;" d="M 63.275575 39.483714 L 57.605653 33.815745 " transform="matrix(2,0,0,2,5.952756,6.169291)"/>
<path style="fill-rule:nonzero;fill:rgb(50%,50%,0%);fill-opacity:0.1;stroke-width:0.566929;stroke-linecap:butt;stroke-linejoin:miter;stroke:rgb(100%,0%,0%);stroke-opacity:0.5;stroke-miterlimit:10;" d="M 57.605653 39.593089 L 90.209169 39.593089 L 90.209169 28.346995 L 57.605653 28.346995 Z M 57.605653 39.593089 " transform="matrix(2,0,0,2,5.952756,6.169291)"/>
<path style="fill:none;stroke-width:0.566929;stroke-linecap:butt;stroke-linejoin:miter;stroke:rgb(100%,0%,0%);stroke-opacity:0.5;stroke-miterlimit:10;" d="M 57.605653 39.483714 L 63.275575 33.815745 " transform="matrix(2,0,0,2,5.952756,6.169291)"/>
<path style="fill:none;stroke-width:0.566929;stroke-linecap:butt;stroke-linejoin:miter;stroke:rgb(100%,0%,0%);stroke-opacity:0.5;stroke-miterlimit:10;" d="M 63.275575 39.483714 L 57.605653 33.815745 " transform="matrix(2,0,0,2,5.952756,6.169291)"/>
<path style="fill-rule:nonzero;fill:rgb(50%,50%,0%);fill-opacity:0.1;stroke-width:0.566929;stroke-linecap:butt;stroke-linejoin:miter;stroke:rgb(100%,0%,0%);stroke-opacity:0.5;stroke-miterlimit:10;" d="M 60.439638 36.759104 L 87.373231 36.759104 L 87.373231 31.180979 L 60.439638 31.180979 Z M 60.439638 36.759104 " transform="matrix(2,0,0,2,5.952756,6.169291)"/>
<path style=" stroke:none;fill-rule:nonzero;fill:rgb(0%,0%,0%);fill-opacity:1;" d="M 129.488281 74.125 C 129.488281 70.875 131.113281 70.03125 132.175781 70.03125 C 132.363281 70.03125 133.613281 70.0625 134.300781 70.78125 C 133.488281 70.84375 133.363281 71.4375 133.363281 71.6875 C 133.363281 72.21875 133.738281 72.59375 134.269531 72.59375 C 134.800781 72.59375 135.207031 72.28125 135.207031 71.65625 C 135.207031 70.3125 133.675781 69.53125 132.144531 69.53125 C 129.644531 69.53125 127.832031 71.6875 127.832031 74.15625 C 127.832031 76.71875 129.800781 78.6875 132.113281 78.6875 C 134.769531 78.6875 135.425781 76.28125 135.425781 76.09375 C 135.425781 75.90625 135.207031 75.90625 135.144531 75.90625 C 134.988281 75.90625 134.925781 75.96875 134.894531 76.09375 C 134.332031 77.9375 133.019531 78.1875 132.300781 78.1875 C 131.238281 78.1875 129.488281 77.34375 129.488281 74.125 Z M 129.488281 74.125 "/>
<path style=" stroke:none;fill-rule:nonzero;fill:rgb(0%,0%,0%);fill-opacity:1;" d="M 138.34375 74.125 C 138.34375 70.875 139.96875 70.03125 141.03125 70.03125 C 141.21875 70.03125 142.46875 70.0625 143.15625 70.78125 C 142.34375 70.84375 142.21875 71.4375 142.21875 71.6875 C 142.21875 72.21875 142.59375 72.59375 143.125 72.59375 C 143.65625 72.59375 144.0625 72.28125 144.0625 71.65625 C 144.0625 70.3125 142.53125 69.53125 141 69.53125 C 138.5 69.53125 136.6875 71.6875 136.6875 74.15625 C 136.6875 76.71875 138.65625 78.6875 140.96875 78.6875 C 143.625 78.6875 144.28125 76.28125 144.28125 76.09375 C 144.28125 75.90625 144.0625 75.90625 144 75.90625 C 143.84375 75.90625 143.78125 75.96875 143.75 76.09375 C 143.1875 77.9375 141.875 78.1875 141.15625 78.1875 C 140.09375 78.1875 138.34375 77.34375 138.34375 74.125 Z M 138.34375 74.125 "/>
<path style=" stroke:none;fill-rule:nonzero;fill:rgb(0%,0%,0%);fill-opacity:1;" d="M 147.199219 74.125 C 147.199219 70.875 148.824219 70.03125 149.886719 70.03125 C 150.074219 70.03125 151.324219 70.0625 152.011719 70.78125 C 151.199219 70.84375 151.074219 71.4375 151.074219 71.6875 C 151.074219 72.21875 151.449219 72.59375 151.980469 72.59375 C 152.511719 72.59375 152.917969 72.28125 152.917969 71.65625 C 152.917969 70.3125 151.386719 69.53125 149.855469 69.53125 C 147.355469 69.53125 145.542969 71.6875 145.542969 74.15625 C 145.542969 76.71875 147.511719 78.6875 149.824219 78.6875 C 152.480469 78.6875 153.136719 76.28125 153.136719 76.09375 C 153.136719 75.90625 152.917969 75.90625 152.855469 75.90625 C 152.699219 75.90625 152.636719 75.96875 152.605469 76.09375 C 152.042969 77.9375 150.730469 78.1875 150.011719 78.1875 C 148.949219 78.1875 147.199219 77.34375 147.199219 74.125 Z M 147.199219 74.125 "/>
<path style=" stroke:none;fill-rule:nonzero;fill:rgb(0%,0%,0%);fill-opacity:1;" d="M 156.054688 74.125 C 156.054688 70.875 157.679688 70.03125 158.742188 70.03125 C 158.929688 70.03125 160.179688 70.0625 160.867188 70.78125 C 160.054688 70.84375 159.929688 71.4375 159.929688 71.6875 C 159.929688 72.21875 160.304688 72.59375 160.835938 72.59375 C 161.367188 72.59375 161.773438 72.28125 161.773438 71.65625 C 161.773438 70.3125 160.242188 69.53125 158.710938 69.53125 C 156.210938 69.53125 154.398438 71.6875 154.398438 74.15625 C 154.398438 76.71875 156.367188 78.6875 158.679688 78.6875 C 161.335938 78.6875 161.992188 76.28125 161.992188 76.09375 C 161.992188 75.90625 161.773438 75.90625 161.710938 75.90625 C 161.554688 75.90625 161.492188 75.96875 161.460938 76.09375 C 160.898438 77.9375 159.585938 78.1875 158.867188 78.1875 C 157.804688 78.1875 156.054688 77.34375 156.054688 74.125 Z M 156.054688 74.125 "/>
<path style=" stroke:none;fill-rule:nonzero;fill:rgb(0%,0%,0%);fill-opacity:1;" d="M 164.90625 74.125 C 164.90625 70.875 166.53125 70.03125 167.59375 70.03125 C 167.78125 70.03125 169.03125 70.0625 169.71875 70.78125 C 168.90625 70.84375 168.78125 71.4375 168.78125 71.6875 C 168.78125 72.21875 169.15625 72.59375 169.6875 72.59375 C 170.21875 72.59375 170.625 72.28125 170.625 71.65625 C 170.625 70.3125 169.09375 69.53125 167.5625 69.53125 C 165.0625 69.53125 163.25 71.6875 163.25 74.15625 C 163.25 76.71875 165.21875 78.6875 167.53125 78.6875 C 170.1875 78.6875 170.84375 76.28125 170.84375 76.09375 C 170.84375 75.90625 170.625 75.90625 170.5625 75.90625 C 170.40625 75.90625 170.34375 75.96875 170.3125 76.09375 C 169.75 77.9375 168.4375 78.1875 167.71875 78.1875 C 166.65625 78.1875 164.90625 77.34375 164.90625 74.125 Z M 164.90625 74.125 "/>
<path style=" stroke:none;fill-rule:nonzero;fill:rgb(0%,0%,0%);fill-opacity:1;" d="M 173.761719 74.125 C 173.761719 70.875 175.386719 70.03125 176.449219 70.03125 C 176.636719 70.03125 177.886719 70.0625 178.574219 70.78125 C 177.761719 70.84375 177.636719 71.4375 177.636719 71.6875 C 177.636719 72.21875 178.011719 72.59375 178.542969 72.59375 C 179.074219 72.59375 179.480469 72.28125 179.480469 71.65625 C 179.480469 70.3125 177.949219 69.53125 176.417969 69.53125 C 173.917969 69.53125 172.105469 71.6875 172.105469 74.15625 C 172.105469 76.71875 174.074219 78.6875 176.386719 78.6875 C 179.042969 78.6875 179.699219 76.28125 179.699219 76.09375 C 179.699219 75.90625 179.480469 75.90625 179.417969 75.90625 C 179.261719 75.90625 179.199219 75.96875 179.167969 76.09375 C 178.605469 77.9375 177.292969 78.1875 176.574219 78.1875 C 175.511719 78.1875 173.761719 77.34375 173.761719 74.125 Z M 173.761719 74.125 "/>
<path style="fill:none;stroke-width:0.566929;stroke-linecap:butt;stroke-linejoin:miter;stroke:rgb(100%,0%,0%);stroke-opacity:0.5;stroke-miterlimit:10;" d="M 87.677919 31.180979 L 93.347841 25.511057 " transform="matrix(2,0,0,2,5.952756,6.169291)"/>
<path style="fill:none;stroke-width:0.566929;stroke-linecap:butt;stroke-linejoin:miter;stroke:rgb(100%,0%,0%);stroke-opacity:0.5;stroke-miterlimit:10;" d="M 93.347841 31.180979 L 87.677919 25.511057 " transform="matrix(2,0,0,2,5.952756,6.169291)"/>
<path style="fill:none;stroke-width:0.566929;stroke-linecap:butt;stroke-linejoin:miter;stroke:rgb(100%,0%,0%);stroke-opacity:0.5;stroke-miterlimit:10;" d="M 90.511903 56.692698 L 90.511903 28.346995 Z M 90.511903 56.692698 " transform="matrix(2,0,0,2,5.952756,6.169291)"/>
<path style="fill:none;stroke-width:0.566929;stroke-linecap:butt;stroke-linejoin:miter;stroke:rgb(100%,0%,0%);stroke-opacity:0.5;stroke-miterlimit:10;" d="M 7.754091 59.526682 L 13.424013 53.858714 " transform="matrix(2,0,0,2,5.952756,6.169291)"/>
<path style="fill:none;stroke-width:0.566929;stroke-linecap:butt;stroke-linejoin:miter;stroke:rgb(100%,0%,0%);stroke-opacity:0.5;stroke-miterlimit:10;" d="M 13.424013 59.526682 L 7.754091 53.858714 " transform="matrix(2,0,0,2,5.952756,6.169291)"/>
<path style="fill-rule:nonzero;fill:rgb(50%,50%,0%);fill-opacity:0.1;stroke-width:0.566929;stroke-linecap:butt;stroke-linejoin:miter;stroke:rgb(100%,0%,0%);stroke-opacity:0.5;stroke-miterlimit:10;" d="M 0.000184547 69.92512 L 21.177919 69.92512 L 21.177919 56.692698 L 0.000184547 56.692698 Z M 0.000184547 69.92512 " transform="matrix(2,0,0,2,5.952756,6.169291)"/>
<path style="fill:none;stroke-width:0.566929;stroke-linecap:butt;stroke-linejoin:miter;stroke:rgb(100%,0%,0%);stroke-opacity:0.5;stroke-miterlimit:10;" d="M 0.000184547 67.878245 L 5.670106 62.208323 " transform="matrix(2,0,0,2,5.952756,6.169291)"/>
<path style="fill:none;stroke-width:0.566929;stroke-linecap:butt;stroke-linejoin:miter;stroke:rgb(100%,0%,0%);stroke-opacity:0.5;stroke-miterlimit:10;" d="M 5.670106 67.878245 L 0.000184547 62.208323 " transform="matrix(2,0,0,2,5.952756,6.169291)"/>
<path style="fill-rule:nonzero;fill:rgb(50%,50%,0%);fill-opacity:0.1;stroke-width:0.566929;stroke-linecap:butt;stroke-linejoin:miter;stroke:rgb(100%,0%,0%);stroke-opacity:0.5;stroke-miterlimit:10;" d="M 0.000184547 69.92512 L 21.177919 69.92512 L 21.177919 56.692698 L 0.000184547 56.692698 Z M 0.000184547 69.92512 " transform="matrix(2,0,0,2,5.952756,6.169291)"/>
<path style="fill:none;stroke-width:0.566929;stroke-linecap:butt;stroke-linejoin:miter;stroke:rgb(100%,0%,0%);stroke-opacity:0.5;stroke-miterlimit:10;" d="M 0.000184547 67.878245 L 5.670106 62.208323 " transform="matrix(2,0,0,2,5.952756,6.169291)"/>
<path style="fill:none;stroke-width:0.566929;stroke-linecap:butt;stroke-linejoin:miter;stroke:rgb(100%,0%,0%);stroke-opacity:0.5;stroke-miterlimit:10;" d="M 5.670106 67.878245 L 0.000184547 62.208323 " transform="matrix(2,0,0,2,5.952756,6.169291)"/>
<path style="fill-rule:nonzero;fill:rgb(50%,50%,0%);fill-opacity:0.1;stroke-width:0.566929;stroke-linecap:butt;stroke-linejoin:miter;stroke:rgb(100%,0%,0%);stroke-opacity:0.5;stroke-miterlimit:10;" d="M 2.834169 67.089182 L 18.343935 67.089182 L 18.343935 59.526682 L 2.834169 59.526682 Z M 2.834169 67.089182 " transform="matrix(2,0,0,2,5.952756,6.169291)"/>
<path style=" stroke:none;fill-rule:nonzero;fill:rgb(0%,0%,0%);fill-opacity:1;" d="M 16.496094 131.816406 C 14.746094 131.816406 14.746094 129.816406 14.746094 129.378906 C 14.746094 128.847656 14.777344 128.191406 15.058594 127.691406 C 15.214844 127.472656 15.683594 126.910156 16.496094 126.910156 C 18.214844 126.910156 18.214844 128.878906 18.214844 129.347656 C 18.214844 129.878906 18.214844 130.535156 17.902344 131.035156 C 17.746094 131.253906 17.277344 131.816406 16.496094 131.816406 Z M 14.183594 132.597656 C 14.183594 132.535156 14.183594 132.066406 14.496094 131.660156 C 15.277344 132.222656 16.121094 132.285156 16.496094 132.285156 C 18.339844 132.285156 19.714844 130.910156 19.714844 129.378906 C 19.714844 128.628906 19.402344 127.910156 18.902344 127.441406 C 19.621094 126.753906 20.339844 126.660156 20.683594 126.660156 C 20.746094 126.660156 20.839844 126.660156 20.902344 126.691406 C 20.683594 126.753906 20.558594 126.972656 20.558594 127.222656 C 20.558594 127.566406 20.839844 127.785156 21.152344 127.785156 C 21.339844 127.785156 21.714844 127.660156 21.714844 127.191406 C 21.714844 126.847656 21.496094 126.222656 20.714844 126.222656 C 20.308594 126.222656 19.433594 126.347656 18.589844 127.160156 C 17.746094 126.503906 16.933594 126.441406 16.496094 126.441406 C 14.621094 126.441406 13.246094 127.816406 13.246094 129.347656 C 13.246094 130.222656 13.683594 130.972656 14.183594 131.410156 C 13.933594 131.691406 13.558594 132.347656 13.558594 133.066406 C 13.558594 133.691406 13.839844 134.441406 14.464844 134.847656 C 13.246094 135.160156 12.621094 136.035156 12.621094 136.816406 C 12.621094 138.253906 14.589844 139.347656 17.027344 139.347656 C 19.371094 139.347656 21.433594 138.347656 21.433594 136.785156 C 21.433594 136.097656 21.183594 135.066406 20.152344 134.503906 C 19.089844 133.972656 17.933594 133.972656 16.714844 133.972656 C 16.214844 133.972656 15.371094 133.972656 15.214844 133.941406 C 14.589844 133.847656 14.183594 133.253906 14.183594 132.597656 Z M 17.058594 138.910156 C 15.027344 138.910156 13.652344 137.878906 13.652344 136.816406 C 13.652344 135.910156 14.402344 135.160156 15.277344 135.128906 L 16.464844 135.128906 C 18.183594 135.128906 20.402344 135.128906 20.402344 136.816406 C 20.402344 137.910156 18.996094 138.910156 17.058594 138.910156 Z M 17.058594 138.910156 "/>
<path style=" stroke:none;fill-rule:nonzero;fill:rgb(0%,0%,0%);fill-opacity:1;" d="M 26.460938 131.816406 C 24.710938 131.816406 24.710938 129.816406 24.710938 129.378906 C 24.710938 128.847656 24.742188 128.191406 25.023438 127.691406 C 25.179688 127.472656 25.648438 126.910156 26.460938 126.910156 C 28.179688 126.910156 28.179688 128.878906 28.179688 129.347656 C 28.179688 129.878906 28.179688 130.535156 27.867188 131.035156 C 27.710938 131.253906 27.242188 131.816406 26.460938 131.816406 Z M 24.148438 132.597656 C 24.148438 132.535156 24.148438 132.066406 24.460938 131.660156 C 25.242188 132.222656 26.085938 132.285156 26.460938 132.285156 C 28.304688 132.285156 29.679688 130.910156 29.679688 129.378906 C 29.679688 128.628906 29.367188 127.910156 28.867188 127.441406 C 29.585938 126.753906 30.304688 126.660156 30.648438 126.660156 C 30.710938 126.660156 30.804688 126.660156 30.867188 126.691406 C 30.648438 126.753906 30.523438 126.972656 30.523438 127.222656 C 30.523438 127.566406 30.804688 127.785156 31.117188 127.785156 C 31.304688 127.785156 31.679688 127.660156 31.679688 127.191406 C 31.679688 126.847656 31.460938 126.222656 30.679688 126.222656 C 30.273438 126.222656 29.398438 126.347656 28.554688 127.160156 C 27.710938 126.503906 26.898438 126.441406 26.460938 126.441406 C 24.585938 126.441406 23.210938 127.816406 23.210938 129.347656 C 23.210938 130.222656 23.648438 130.972656 24.148438 131.410156 C 23.898438 131.691406 23.523438 132.347656 23.523438 133.066406 C 23.523438 133.691406 23.804688 134.441406 24.429688 134.847656 C 23.210938 135.160156 22.585938 136.035156 22.585938 136.816406 C 22.585938 138.253906 24.554688 139.347656 26.992188 139.347656 C 29.335938 139.347656 31.398438 138.347656 31.398438 136.785156 C 31.398438 136.097656 31.148438 135.066406 30.117188 134.503906 C 29.054688 133.972656 27.898438 133.972656 26.679688 133.972656 C 26.179688 133.972656 25.335938 133.972656 25.179688 133.941406 C 24.554688 133.847656 24.148438 133.253906 24.148438 132.597656 Z M 27.023438 138.910156 C 24.992188 138.910156 23.617188 137.878906 23.617188 136.816406 C 23.617188 135.910156 24.367188 135.160156 25.242188 135.128906 L 26.429688 135.128906 C 28.148438 135.128906 30.367188 135.128906 30.367188 136.816406 C 30.367188 137.910156 28.960938 138.910156 27.023438 138.910156 Z M 27.023438 138.910156 "/>
<path style=" stroke:none;fill-rule:nonzero;fill:rgb(0%,0%,0%);fill-opacity:1;" d="M 36.421875 131.816406 C 34.671875 131.816406 34.671875 129.816406 34.671875 129.378906 C 34.671875 128.847656 34.703125 128.191406 34.984375 127.691406 C 35.140625 127.472656 35.609375 126.910156 36.421875 126.910156 C 38.140625 126.910156 38.140625 128.878906 38.140625 129.347656 C 38.140625 129.878906 38.140625 130.535156 37.828125 131.035156 C 37.671875 131.253906 37.203125 131.816406 36.421875 131.816406 Z M 34.109375 132.597656 C 34.109375 132.535156 34.109375 132.066406 34.421875 131.660156 C 35.203125 132.222656 36.046875 132.285156 36.421875 132.285156 C 38.265625 132.285156 39.640625 130.910156 39.640625 129.378906 C 39.640625 128.628906 39.328125 127.910156 38.828125 127.441406 C 39.546875 126.753906 40.265625 126.660156 40.609375 126.660156 C 40.671875 126.660156 40.765625 126.660156 40.828125 126.691406 C 40.609375 126.753906 40.484375 126.972656 40.484375 127.222656 C 40.484375 127.566406 40.765625 127.785156 41.078125 127.785156 C 41.265625 127.785156 41.640625 127.660156 41.640625 127.191406 C 41.640625 126.847656 41.421875 126.222656 40.640625 126.222656 C 40.234375 126.222656 39.359375 126.347656 38.515625 127.160156 C 37.671875 126.503906 36.859375 126.441406 36.421875 126.441406 C 34.546875 126.441406 33.171875 127.816406 33.171875 129.347656 C 33.171875 130.222656 33.609375 130.972656 34.109375 131.410156 C 33.859375 131.691406 33.484375 132.347656 33.484375 133.066406 C 33.484375 133.691406 33.765625 134.441406 34.390625 134.847656 C 33.171875 135.160156 32.546875 136.035156 32.546875 136.816406 C 32.546875 138.253906 34.515625 139.347656 36.953125 139.347656 C 39.296875 139.347656 41.359375 138.347656 41.359375 136.785156 C 41.359375 136.097656 41.109375 135.066406 40.078125 134.503906 C 39.015625 133.972656 37.859375 133.972656 36.640625 133.972656 C 36.140625 133.972656 35.296875 133.972656 35.140625 133.941406 C 34.515625 133.847656 34.109375 133.253906 34.109375 132.597656 Z M 36.984375 138.910156 C 34.953125 138.910156 33.578125 137.878906 33.578125 136.816406 C 33.578125 135.910156 34.328125 135.160156 35.203125 135.128906 L 36.390625 135.128906 C 38.109375 135.128906 40.328125 135.128906 40.328125 136.816406 C 40.328125 137.910156 38.921875 138.910156 36.984375 138.910156 Z M 36.984375 138.910156 "/>
<path style="fill:none;stroke-width:0.566929;stroke-linecap:butt;stroke-linejoin:miter;stroke:rgb(100%,0%,0%);stroke-opacity:0.5;stroke-miterlimit:10;" d="M 36.404481 59.526682 L 42.074403 53.858714 " transform="matrix(2,0,0,2,5.952756,6.169291)"/>
<path style="fill:none;stroke-width:0.566929;stroke-linecap:butt;stroke-linejoin:miter;stroke:rgb(100%,0%,0%);stroke-opacity:0.5;stroke-miterlimit:10;" d="M 42.074403 59.526682 L 36.404481 53.858714 " transform="matrix(2,0,0,2,5.952756,6.169291)"/>
<path style="fill-rule:nonzero;fill:rgb(50%,50%,0%);fill-opacity:0.1;stroke-width:0.566929;stroke-linecap:butt;stroke-linejoin:miter;stroke:rgb(100%,0%,0%);stroke-opacity:0.5;stroke-miterlimit:10;" d="M 21.177919 69.92512 L 57.300966 69.92512 L 57.300966 56.692698 L 21.177919 56.692698 Z M 21.177919 69.92512 " transform="matrix(2,0,0,2,5.952756,6.169291)"/>
<path style="fill:none;stroke-width:0.566929;stroke-linecap:butt;stroke-linejoin:miter;stroke:rgb(100%,0%,0%);stroke-opacity:0.5;stroke-miterlimit:10;" d="M 21.177919 67.878245 L 26.847841 62.208323 " transform="matrix(2,0,0,2,5.952756,6.169291)"/>
<path style="fill:none;stroke-width:0.566929;stroke-linecap:butt;stroke-linejoin:miter;stroke:rgb(100%,0%,0%);stroke-opacity:0.5;stroke-miterlimit:10;" d="M 26.847841 67.878245 L 21.177919 62.208323 " transform="matrix(2,0,0,2,5.952756,6.169291)"/>
<path style="fill-rule:nonzero;fill:rgb(50%,50%,0%);fill-opacity:0.1;stroke-width:0.566929;stroke-linecap:butt;stroke-linejoin:miter;stroke:rgb(100%,0%,0%);stroke-opacity:0.5;stroke-miterlimit:10;" d="M 21.177919 69.92512 L 57.300966 69.92512 L 57.300966 56.692698 L 21.177919 56.692698 Z M 21.177919 69.92512 " transform="matrix(2,0,0,2,5.952756,6.169291)"/>
<path style="fill:none;stroke-width:0.566929;stroke-linecap:butt;stroke-linejoin:miter;stroke:rgb(100%,0%,0%);stroke-opacity:0.5;stroke-miterlimit:10;" d="M 21.177919 67.878245 L 26.847841 62.208323 " transform="matrix(2,0,0,2,5.952756,6.169291)"/>
<path style="fill:none;stroke-width:0.566929;stroke-linecap:butt;stroke-linejoin:miter;stroke:rgb(100%,0%,0%);stroke-opacity:0.5;stroke-miterlimit:10;" d="M 26.847841 67.878245 L 21.177919 62.208323 " transform="matrix(2,0,0,2,5.952756,6.169291)"/>
<path style="fill-rule:nonzero;fill:rgb(50%,50%,0%);fill-opacity:0.1;stroke-width:0.566929;stroke-linecap:butt;stroke-linejoin:miter;stroke:rgb(100%,0%,0%);stroke-opacity:0.5;stroke-miterlimit:10;" d="M 24.013856 67.089182 L 54.466981 67.089182 L 54.466981 59.526682 L 24.013856 59.526682 Z M 24.013856 67.089182 " transform="matrix(2,0,0,2,5.952756,6.169291)"/>
<path style=" stroke:none;fill-rule:nonzero;fill:rgb(0%,0%,0%);fill-opacity:1;" d="M 58.855469 131.816406 C 57.105469 131.816406 57.105469 129.816406 57.105469 129.378906 C 57.105469 128.847656 57.136719 128.191406 57.417969 127.691406 C 57.574219 127.472656 58.042969 126.910156 58.855469 126.910156 C 60.574219 126.910156 60.574219 128.878906 60.574219 129.347656 C 60.574219 129.878906 60.574219 130.535156 60.261719 131.035156 C 60.105469 131.253906 59.636719 131.816406 58.855469 131.816406 Z M 56.542969 132.597656 C 56.542969 132.535156 56.542969 132.066406 56.855469 131.660156 C 57.636719 132.222656 58.480469 132.285156 58.855469 132.285156 C 60.699219 132.285156 62.074219 130.910156 62.074219 129.378906 C 62.074219 128.628906 61.761719 127.910156 61.261719 127.441406 C 61.980469 126.753906 62.699219 126.660156 63.042969 126.660156 C 63.105469 126.660156 63.199219 126.660156 63.261719 126.691406 C 63.042969 126.753906 62.917969 126.972656 62.917969 127.222656 C 62.917969 127.566406 63.199219 127.785156 63.511719 127.785156 C 63.699219 127.785156 64.074219 127.660156 64.074219 127.191406 C 64.074219 126.847656 63.855469 126.222656 63.074219 126.222656 C 62.667969 126.222656 61.792969 126.347656 60.949219 127.160156 C 60.105469 126.503906 59.292969 126.441406 58.855469 126.441406 C 56.980469 126.441406 55.605469 127.816406 55.605469 129.347656 C 55.605469 130.222656 56.042969 130.972656 56.542969 131.410156 C 56.292969 131.691406 55.917969 132.347656 55.917969 133.066406 C 55.917969 133.691406 56.199219 134.441406 56.824219 134.847656 C 55.605469 135.160156 54.980469 136.035156 54.980469 136.816406 C 54.980469 138.253906 56.949219 139.347656 59.386719 139.347656 C 61.730469 139.347656 63.792969 138.347656 63.792969 136.785156 C 63.792969 136.097656 63.542969 135.066406 62.511719 134.503906 C 61.449219 133.972656 60.292969 133.972656 59.074219 133.972656 C 58.574219 133.972656 57.730469 133.972656 57.574219 133.941406 C 56.949219 133.847656 56.542969 133.253906 56.542969 132.597656 Z M 59.417969 138.910156 C 57.386719 138.910156 56.011719 137.878906 56.011719 136.816406 C 56.011719 135.910156 56.761719 135.160156 57.636719 135.128906 L 58.824219 135.128906 C 60.542969 135.128906 62.761719 135.128906 62.761719 136.816406 C 62.761719 137.910156 61.355469 138.910156 59.417969 138.910156 Z M 59.417969 138.910156 "/>
<path style=" stroke:none;fill-rule:nonzero;fill:rgb(0%,0%,0%);fill-opacity:1;" d="M 68.816406 131.816406 C 67.066406 131.816406 67.066406 129.816406 67.066406 129.378906 C 67.066406 128.847656 67.097656 128.191406 67.378906 127.691406 C 67.535156 127.472656 68.003906 126.910156 68.816406 126.910156 C 70.535156 126.910156 70.535156 128.878906 70.535156 129.347656 C 70.535156 129.878906 70.535156 130.535156 70.222656 131.035156 C 70.066406 131.253906 69.597656 131.816406 68.816406 131.816406 Z M 66.503906 132.597656 C 66.503906 132.535156 66.503906 132.066406 66.816406 131.660156 C 67.597656 132.222656 68.441406 132.285156 68.816406 132.285156 C 70.660156 132.285156 72.035156 130.910156 72.035156 129.378906 C 72.035156 128.628906 71.722656 127.910156 71.222656 127.441406 C 71.941406 126.753906 72.660156 126.660156 73.003906 126.660156 C 73.066406 126.660156 73.160156 126.660156 73.222656 126.691406 C 73.003906 126.753906 72.878906 126.972656 72.878906 127.222656 C 72.878906 127.566406 73.160156 127.785156 73.472656 127.785156 C 73.660156 127.785156 74.035156 127.660156 74.035156 127.191406 C 74.035156 126.847656 73.816406 126.222656 73.035156 126.222656 C 72.628906 126.222656 71.753906 126.347656 70.910156 127.160156 C 70.066406 126.503906 69.253906 126.441406 68.816406 126.441406 C 66.941406 126.441406 65.566406 127.816406 65.566406 129.347656 C 65.566406 130.222656 66.003906 130.972656 66.503906 131.410156 C 66.253906 131.691406 65.878906 132.347656 65.878906 133.066406 C 65.878906 133.691406 66.160156 134.441406 66.785156 134.847656 C 65.566406 135.160156 64.941406 136.035156 64.941406 136.816406 C 64.941406 138.253906 66.910156 139.347656 69.347656 139.347656 C 71.691406 139.347656 73.753906 138.347656 73.753906 136.785156 C 73.753906 136.097656 73.503906 135.066406 72.472656 134.503906 C 71.410156 133.972656 70.253906 133.972656 69.035156 133.972656 C 68.535156 133.972656 67.691406 133.972656 67.535156 133.941406 C 66.910156 133.847656 66.503906 133.253906 66.503906 132.597656 Z M 69.378906 138.910156 C 67.347656 138.910156 65.972656 137.878906 65.972656 136.816406 C 65.972656 135.910156 66.722656 135.160156 67.597656 135.128906 L 68.785156 135.128906 C 70.503906 135.128906 72.722656 135.128906 72.722656 136.816406 C 72.722656 137.910156 71.316406 138.910156 69.378906 138.910156 Z M 69.378906 138.910156 "/>
<path style=" stroke:none;fill-rule:nonzero;fill:rgb(0%,0%,0%);fill-opacity:1;" d="M 78.78125 131.816406 C 77.03125 131.816406 77.03125 129.816406 77.03125 129.378906 C 77.03125 128.847656 77.0625 128.191406 77.34375 127.691406 C 77.5 127.472656 77.96875 126.910156 78.78125 126.910156 C 80.5 126.910156 80.5 128.878906 80.5 129.347656 C 80.5 129.878906 80.5 130.535156 80.1875 131.035156 C 80.03125 131.253906 79.5625 131.816406 78.78125 131.816406 Z M 76.46875 132.597656 C 76.46875 132.535156 76.46875 132.066406 76.78125 131.660156 C 77.5625 132.222656 78.40625 132.285156 78.78125 132.285156 C 80.625 132.285156 82 130.910156 82 129.378906 C 82 128.628906 81.6875 127.910156 81.1875 127.441406 C 81.90625 126.753906 82.625 126.660156 82.96875 126.660156 C 83.03125 126.660156 83.125 126.660156 83.1875 126.691406 C 82.96875 126.753906 82.84375 126.972656 82.84375 127.222656 C 82.84375 127.566406 83.125 127.785156 83.4375 127.785156 C 83.625 127.785156 84 127.660156 84 127.191406 C 84 126.847656 83.78125 126.222656 83 126.222656 C 82.59375 126.222656 81.71875 126.347656 80.875 127.160156 C 80.03125 126.503906 79.21875 126.441406 78.78125 126.441406 C 76.90625 126.441406 75.53125 127.816406 75.53125 129.347656 C 75.53125 130.222656 75.96875 130.972656 76.46875 131.410156 C 76.21875 131.691406 75.84375 132.347656 75.84375 133.066406 C 75.84375 133.691406 76.125 134.441406 76.75 134.847656 C 75.53125 135.160156 74.90625 136.035156 74.90625 136.816406 C 74.90625 138.253906 76.875 139.347656 79.3125 139.347656 C 81.65625 139.347656 83.71875 138.347656 83.71875 136.785156 C 83.71875 136.097656 83.46875 135.066406 82.4375 134.503906 C 81.375 133.972656 80.21875 133.972656 79 133.972656 C 78.5 133.972656 77.65625 133.972656 77.5 133.941406 C 76.875 133.847656 76.46875 133.253906 76.46875 132.597656 Z M 79.34375 138.910156 C 77.3125 138.910156 75.9375 137.878906 75.9375 136.816406 C 75.9375 135.910156 76.6875 135.160156 77.5625 135.128906 L 78.75 135.128906 C 80.46875 135.128906 82.6875 135.128906 82.6875 136.816406 C 82.6875 137.910156 81.28125 138.910156 79.34375 138.910156 Z M 79.34375 138.910156 "/>
<path style=" stroke:none;fill-rule:nonzero;fill:rgb(0%,0%,0%);fill-opacity:1;" d="M 88.742188 131.816406 C 86.992188 131.816406 86.992188 129.816406 86.992188 129.378906 C 86.992188 128.847656 87.023438 128.191406 87.304688 127.691406 C 87.460938 127.472656 87.929688 126.910156 88.742188 126.910156 C 90.460938 126.910156 90.460938 128.878906 90.460938 129.347656 C 90.460938 129.878906 90.460938 130.535156 90.148438 131.035156 C 89.992188 131.253906 89.523438 131.816406 88.742188 131.816406 Z M 86.429688 132.597656 C 86.429688 132.535156 86.429688 132.066406 86.742188 131.660156 C 87.523438 132.222656 88.367188 132.285156 88.742188 132.285156 C 90.585938 132.285156 91.960938 130.910156 91.960938 129.378906 C 91.960938 128.628906 91.648438 127.910156 91.148438 127.441406 C 91.867188 126.753906 92.585938 126.660156 92.929688 126.660156 C 92.992188 126.660156 93.085938 126.660156 93.148438 126.691406 C 92.929688 126.753906 92.804688 126.972656 92.804688 127.222656 C 92.804688 127.566406 93.085938 127.785156 93.398438 127.785156 C 93.585938 127.785156 93.960938 127.660156 93.960938 127.191406 C 93.960938 126.847656 93.742188 126.222656 92.960938 126.222656 C 92.554688 126.222656 91.679688 126.347656 90.835938 127.160156 C 89.992188 126.503906 89.179688 126.441406 88.742188 126.441406 C 86.867188 126.441406 85.492188 127.816406 85.492188 129.347656 C 85.492188 130.222656 85.929688 130.972656 86.429688 131.410156 C 86.179688 131.691406 85.804688 132.347656 85.804688 133.066406 C 85.804688 133.691406 86.085938 134.441406 86.710938 134.847656 C 85.492188 135.160156 84.867188 136.035156 84.867188 136.816406 C 84.867188 138.253906 86.835938 139.347656 89.273438 139.347656 C 91.617188 139.347656 93.679688 138.347656 93.679688 136.785156 C 93.679688 136.097656 93.429688 135.066406 92.398438 134.503906 C 91.335938 133.972656 90.179688 133.972656 88.960938 133.972656 C 88.460938 133.972656 87.617188 133.972656 87.460938 133.941406 C 86.835938 133.847656 86.429688 133.253906 86.429688 132.597656 Z M 89.304688 138.910156 C 87.273438 138.910156 85.898438 137.878906 85.898438 136.816406 C 85.898438 135.910156 86.648438 135.160156 87.523438 135.128906 L 88.710938 135.128906 C 90.429688 135.128906 92.648438 135.128906 92.648438 136.816406 C 92.648438 137.910156 91.242188 138.910156 89.304688 138.910156 Z M 89.304688 138.910156 "/>
<path style=" stroke:none;fill-rule:nonzero;fill:rgb(0%,0%,0%);fill-opacity:1;" d="M 98.703125 131.816406 C 96.953125 131.816406 96.953125 129.816406 96.953125 129.378906 C 96.953125 128.847656 96.984375 128.191406 97.265625 127.691406 C 97.421875 127.472656 97.890625 126.910156 98.703125 126.910156 C 100.421875 126.910156 100.421875 128.878906 100.421875 129.347656 C 100.421875 129.878906 100.421875 130.535156 100.109375 131.035156 C 99.953125 131.253906 99.484375 131.816406 98.703125 131.816406 Z M 96.390625 132.597656 C 96.390625 132.535156 96.390625 132.066406 96.703125 131.660156 C 97.484375 132.222656 98.328125 132.285156 98.703125 132.285156 C 100.546875 132.285156 101.921875 130.910156 101.921875 129.378906 C 101.921875 128.628906 101.609375 127.910156 101.109375 127.441406 C 101.828125 126.753906 102.546875 126.660156 102.890625 126.660156 C 102.953125 126.660156 103.046875 126.660156 103.109375 126.691406 C 102.890625 126.753906 102.765625 126.972656 102.765625 127.222656 C 102.765625 127.566406 103.046875 127.785156 103.359375 127.785156 C 103.546875 127.785156 103.921875 127.660156 103.921875 127.191406 C 103.921875 126.847656 103.703125 126.222656 102.921875 126.222656 C 102.515625 126.222656 101.640625 126.347656 100.796875 127.160156 C 99.953125 126.503906 99.140625 126.441406 98.703125 126.441406 C 96.828125 126.441406 95.453125 127.816406 95.453125 129.347656 C 95.453125 130.222656 95.890625 130.972656 96.390625 131.410156 C 96.140625 131.691406 95.765625 132.347656 95.765625 133.066406 C 95.765625 133.691406 96.046875 134.441406 96.671875 134.847656 C 95.453125 135.160156 94.828125 136.035156 94.828125 136.816406 C 94.828125 138.253906 96.796875 139.347656 99.234375 139.347656 C 101.578125 139.347656 103.640625 138.347656 103.640625 136.785156 C 103.640625 136.097656 103.390625 135.066406 102.359375 134.503906 C 101.296875 133.972656 100.140625 133.972656 98.921875 133.972656 C 98.421875 133.972656 97.578125 133.972656 97.421875 133.941406 C 96.796875 133.847656 96.390625 133.253906 96.390625 132.597656 Z M 99.265625 138.910156 C 97.234375 138.910156 95.859375 137.878906 95.859375 136.816406 C 95.859375 135.910156 96.609375 135.160156 97.484375 135.128906 L 98.671875 135.128906 C 100.390625 135.128906 102.609375 135.128906 102.609375 136.816406 C 102.609375 137.910156 101.203125 138.910156 99.265625 138.910156 Z M 99.265625 138.910156 "/>
<path style=" stroke:none;fill-rule:nonzero;fill:rgb(0%,0%,0%);fill-opacity:1;" d="M 108.667969 131.816406 C 106.917969 131.816406 106.917969 129.816406 106.917969 129.378906 C 106.917969 128.847656 106.949219 128.191406 107.230469 127.691406 C 107.386719 127.472656 107.855469 126.910156 108.667969 126.910156 C 110.386719 126.910156 110.386719 128.878906 110.386719 129.347656 C 110.386719 129.878906 110.386719 130.535156 110.074219 131.035156 C 109.917969 131.253906 109.449219 131.816406 108.667969 131.816406 Z M 106.355469 132.597656 C 106.355469 132.535156 106.355469 132.066406 106.667969 131.660156 C 107.449219 132.222656 108.292969 132.285156 108.667969 132.285156 C 110.511719 132.285156 111.886719 130.910156 111.886719 129.378906 C 111.886719 128.628906 111.574219 127.910156 111.074219 127.441406 C 111.792969 126.753906 112.511719 126.660156 112.855469 126.660156 C 112.917969 126.660156 113.011719 126.660156 113.074219 126.691406 C 112.855469 126.753906 112.730469 126.972656 112.730469 127.222656 C 112.730469 127.566406 113.011719 127.785156 113.324219 127.785156 C 113.511719 127.785156 113.886719 127.660156 113.886719 127.191406 C 113.886719 126.847656 113.667969 126.222656 112.886719 126.222656 C 112.480469 126.222656 111.605469 126.347656 110.761719 127.160156 C 109.917969 126.503906 109.105469 126.441406 108.667969 126.441406 C 106.792969 126.441406 105.417969 127.816406 105.417969 129.347656 C 105.417969 130.222656 105.855469 130.972656 106.355469 131.410156 C 106.105469 131.691406 105.730469 132.347656 105.730469 133.066406 C 105.730469 133.691406 106.011719 134.441406 106.636719 134.847656 C 105.417969 135.160156 104.792969 136.035156 104.792969 136.816406 C 104.792969 138.253906 106.761719 139.347656 109.199219 139.347656 C 111.542969 139.347656 113.605469 138.347656 113.605469 136.785156 C 113.605469 136.097656 113.355469 135.066406 112.324219 134.503906 C 111.261719 133.972656 110.105469 133.972656 108.886719 133.972656 C 108.386719 133.972656 107.542969 133.972656 107.386719 133.941406 C 106.761719 133.847656 106.355469 133.253906 106.355469 132.597656 Z M 109.230469 138.910156 C 107.199219 138.910156 105.824219 137.878906 105.824219 136.816406 C 105.824219 135.910156 106.574219 135.160156 107.449219 135.128906 L 108.636719 135.128906 C 110.355469 135.128906 112.574219 135.128906 112.574219 136.816406 C 112.574219 137.910156 111.167969 138.910156 109.230469 138.910156 Z M 109.230469 138.910156 "/>
<path style="fill:none;stroke-width:0.566929;stroke-linecap:butt;stroke-linejoin:miter;stroke:rgb(100%,0%,0%);stroke-opacity:0.5;stroke-miterlimit:10;" d="M 71.07245 59.526682 L 76.742372 53.858714 " transform="matrix(2,0,0,2,5.952756,6.169291)"/>
<path style="fill:none;stroke-width:0.566929;stroke-linecap:butt;stroke-linejoin:miter;stroke:rgb(100%,0%,0%);stroke-opacity:0.5;stroke-miterlimit:10;" d="M 76.742372 59.526682 L 71.07245 53.858714 " transform="matrix(2,0,0,2,5.952756,6.169291)"/>
<path style="fill-rule:nonzero;fill:rgb(50%,50%,0%);fill-opacity:0.1;stroke-width:0.566929;stroke-linecap:butt;stroke-linejoin:miter;stroke:rgb(100%,0%,0%);stroke-opacity:0.5;stroke-miterlimit:10;" d="M 57.300966 70.39387 L 90.511903 70.39387 L 90.511903 56.692698 L 57.300966 56.692698 Z M 57.300966 70.39387 " transform="matrix(2,0,0,2,5.952756,6.169291)"/>
<path style="fill:none;stroke-width:0.566929;stroke-linecap:butt;stroke-linejoin:miter;stroke:rgb(100%,0%,0%);stroke-opacity:0.5;stroke-miterlimit:10;" d="M 57.300966 70.39387 L 62.970888 64.723948 " transform="matrix(2,0,0,2,5.952756,6.169291)"/>
<path style="fill:none;stroke-width:0.566929;stroke-linecap:butt;stroke-linejoin:miter;stroke:rgb(100%,0%,0%);stroke-opacity:0.5;stroke-miterlimit:10;" d="M 62.970888 70.39387 L 57.300966 64.723948 " transform="matrix(2,0,0,2,5.952756,6.169291)"/>
<path style="fill-rule:nonzero;fill:rgb(50%,50%,0%);fill-opacity:0.1;stroke-width:0.566929;stroke-linecap:butt;stroke-linejoin:miter;stroke:rgb(100%,0%,0%);stroke-opacity:0.5;stroke-miterlimit:10;" d="M 57.300966 70.39387 L 90.511903 70.39387 L 90.511903 56.692698 L 57.300966 56.692698 Z M 57.300966 70.39387 " transform="matrix(2,0,0,2,5.952756,6.169291)"/>
<path style="fill:none;stroke-width:0.566929;stroke-linecap:butt;stroke-linejoin:miter;stroke:rgb(100%,0%,0%);stroke-opacity:0.5;stroke-miterlimit:10;" d="M 57.300966 70.39387 L 62.970888 64.723948 " transform="matrix(2,0,0,2,5.952756,6.169291)"/>
<path style="fill:none;stroke-width:0.566929;stroke-linecap:butt;stroke-linejoin:miter;stroke:rgb(100%,0%,0%);stroke-opacity:0.5;stroke-miterlimit:10;" d="M 62.970888 70.39387 L 57.300966 64.723948 " transform="matrix(2,0,0,2,5.952756,6.169291)"/>
<path style="fill-rule:nonzero;fill:rgb(50%,50%,0%);fill-opacity:0.1;stroke-width:0.566929;stroke-linecap:butt;stroke-linejoin:miter;stroke:rgb(100%,0%,0%);stroke-opacity:0.5;stroke-miterlimit:10;" d="M 60.136903 67.557932 L 87.677919 67.557932 L 87.677919 59.526682 L 60.136903 59.526682 Z M 60.136903 67.557932 " transform="matrix(2,0,0,2,5.952756,6.169291)"/>
<path style=" stroke:none;fill-rule:nonzero;fill:rgb(0%,0%,0%);fill-opacity:1;" d="M 135.632812 132.316406 L 137.914062 132.316406 L 137.914062 131.691406 L 135.570312 131.691406 L 135.570312 129.378906 C 135.570312 127.597656 136.539062 126.660156 137.414062 126.660156 C 137.476562 126.660156 137.789062 126.660156 138.070312 126.816406 C 137.851562 126.878906 137.476562 127.160156 137.476562 127.660156 C 137.476562 128.097656 137.789062 128.503906 138.351562 128.503906 C 138.914062 128.503906 139.226562 128.097656 139.226562 127.628906 C 139.226562 126.910156 138.507812 126.222656 137.414062 126.222656 C 136.226562 126.222656 135.351562 126.972656 135.257812 127.066406 C 134.664062 126.316406 133.539062 126.222656 133.007812 126.222656 C 131.132812 126.222656 128.820312 127.253906 128.820312 129.410156 L 128.820312 131.691406 L 127.226562 131.691406 L 127.226562 132.316406 L 128.820312 132.316406 L 128.820312 138.785156 C 128.820312 139.660156 128.601562 139.660156 127.257812 139.660156 L 127.257812 140.285156 C 127.914062 140.253906 128.976562 140.222656 129.476562 140.222656 C 129.976562 140.222656 130.945312 140.253906 131.695312 140.285156 L 131.695312 139.660156 C 130.351562 139.660156 130.132812 139.660156 130.132812 138.785156 L 130.132812 132.316406 L 134.320312 132.316406 L 134.320312 138.785156 C 134.320312 139.660156 134.101562 139.660156 132.757812 139.660156 L 132.757812 140.285156 C 133.539062 140.253906 134.476562 140.222656 135.039062 140.222656 C 135.820312 140.222656 136.757812 140.222656 137.570312 140.285156 L 137.570312 139.660156 L 137.132812 139.660156 C 135.664062 139.660156 135.632812 139.441406 135.632812 138.722656 Z M 130.070312 131.691406 L 130.070312 129.441406 C 130.070312 127.503906 131.695312 126.660156 133.007812 126.660156 C 133.976562 126.660156 134.539062 127.035156 134.539062 127.035156 L 134.539062 127.066406 C 134.226562 127.097656 133.820312 127.378906 133.820312 127.910156 C 133.820312 128.035156 133.820312 128.535156 134.382812 128.722656 C 134.320312 128.972656 134.320312 129.160156 134.320312 129.410156 L 134.320312 131.691406 Z M 130.070312 131.691406 "/>
<path style=" stroke:none;fill-rule:nonzero;fill:rgb(0%,0%,0%);fill-opacity:1;" d="M 147.253906 132.316406 L 149.535156 132.316406 L 149.535156 131.691406 L 147.191406 131.691406 L 147.191406 129.378906 C 147.191406 127.597656 148.160156 126.660156 149.035156 126.660156 C 149.097656 126.660156 149.410156 126.660156 149.691406 126.816406 C 149.472656 126.878906 149.097656 127.160156 149.097656 127.660156 C 149.097656 128.097656 149.410156 128.503906 149.972656 128.503906 C 150.535156 128.503906 150.847656 128.097656 150.847656 127.628906 C 150.847656 126.910156 150.128906 126.222656 149.035156 126.222656 C 147.847656 126.222656 146.972656 126.972656 146.878906 127.066406 C 146.285156 126.316406 145.160156 126.222656 144.628906 126.222656 C 142.753906 126.222656 140.441406 127.253906 140.441406 129.410156 L 140.441406 131.691406 L 138.847656 131.691406 L 138.847656 132.316406 L 140.441406 132.316406 L 140.441406 138.785156 C 140.441406 139.660156 140.222656 139.660156 138.878906 139.660156 L 138.878906 140.285156 C 139.535156 140.253906 140.597656 140.222656 141.097656 140.222656 C 141.597656 140.222656 142.566406 140.253906 143.316406 140.285156 L 143.316406 139.660156 C 141.972656 139.660156 141.753906 139.660156 141.753906 138.785156 L 141.753906 132.316406 L 145.941406 132.316406 L 145.941406 138.785156 C 145.941406 139.660156 145.722656 139.660156 144.378906 139.660156 L 144.378906 140.285156 C 145.160156 140.253906 146.097656 140.222656 146.660156 140.222656 C 147.441406 140.222656 148.378906 140.222656 149.191406 140.285156 L 149.191406 139.660156 L 148.753906 139.660156 C 147.285156 139.660156 147.253906 139.441406 147.253906 138.722656 Z M 141.691406 131.691406 L 141.691406 129.441406 C 141.691406 127.503906 143.316406 126.660156 144.628906 126.660156 C 145.597656 126.660156 146.160156 127.035156 146.160156 127.035156 L 146.160156 127.066406 C 145.847656 127.097656 145.441406 127.378906 145.441406 127.910156 C 145.441406 128.035156 145.441406 128.535156 146.003906 128.722656 C 145.941406 128.972656 145.941406 129.160156 145.941406 129.410156 L 145.941406 131.691406 Z M 141.691406 131.691406 "/>
<path style=" stroke:none;fill-rule:nonzero;fill:rgb(0%,0%,0%);fill-opacity:1;" d="M 158.875 132.316406 L 161.15625 132.316406 L 161.15625 131.691406 L 158.8125 131.691406 L 158.8125 129.378906 C 158.8125 127.597656 159.78125 126.660156 160.65625 126.660156 C 160.71875 126.660156 161.03125 126.660156 161.3125 126.816406 C 161.09375 126.878906 160.71875 127.160156 160.71875 127.660156 C 160.71875 128.097656 161.03125 128.503906 161.59375 128.503906 C 162.15625 128.503906 162.46875 128.097656 162.46875 127.628906 C 162.46875 126.910156 161.75 126.222656 160.65625 126.222656 C 159.46875 126.222656 158.59375 126.972656 158.5 127.066406 C 157.90625 126.316406 156.78125 126.222656 156.25 126.222656 C 154.375 126.222656 152.0625 127.253906 152.0625 129.410156 L 152.0625 131.691406 L 150.46875 131.691406 L 150.46875 132.316406 L 152.0625 132.316406 L 152.0625 138.785156 C 152.0625 139.660156 151.84375 139.660156 150.5 139.660156 L 150.5 140.285156 C 151.15625 140.253906 152.21875 140.222656 152.71875 140.222656 C 153.21875 140.222656 154.1875 140.253906 154.9375 140.285156 L 154.9375 139.660156 C 153.59375 139.660156 153.375 139.660156 153.375 138.785156 L 153.375 132.316406 L 157.5625 132.316406 L 157.5625 138.785156 C 157.5625 139.660156 157.34375 139.660156 156 139.660156 L 156 140.285156 C 156.78125 140.253906 157.71875 140.222656 158.28125 140.222656 C 159.0625 140.222656 160 140.222656 160.8125 140.285156 L 160.8125 139.660156 L 160.375 139.660156 C 158.90625 139.660156 158.875 139.441406 158.875 138.722656 Z M 153.3125 131.691406 L 153.3125 129.441406 C 153.3125 127.503906 154.9375 126.660156 156.25 126.660156 C 157.21875 126.660156 157.78125 127.035156 157.78125 127.035156 L 157.78125 127.066406 C 157.46875 127.097656 157.0625 127.378906 157.0625 127.910156 C 157.0625 128.035156 157.0625 128.535156 157.625 128.722656 C 157.5625 128.972656 157.5625 129.160156 157.5625 129.410156 L 157.5625 131.691406 Z M 153.3125 131.691406 "/>
<path style=" stroke:none;fill-rule:nonzero;fill:rgb(0%,0%,0%);fill-opacity:1;" d="M 170.5 132.316406 L 172.78125 132.316406 L 172.78125 131.691406 L 170.4375 131.691406 L 170.4375 129.378906 C 170.4375 127.597656 171.40625 126.660156 172.28125 126.660156 C 172.34375 126.660156 172.65625 126.660156 172.9375 126.816406 C 172.71875 126.878906 172.34375 127.160156 172.34375 127.660156 C 172.34375 128.097656 172.65625 128.503906 173.21875 128.503906 C 173.78125 128.503906 174.09375 128.097656 174.09375 127.628906 C 174.09375 126.910156 173.375 126.222656 172.28125 126.222656 C 171.09375 126.222656 170.21875 126.972656 170.125 127.066406 C 169.53125 126.316406 168.40625 126.222656 167.875 126.222656 C 166 126.222656 163.6875 127.253906 163.6875 129.410156 L 163.6875 131.691406 L 162.09375 131.691406 L 162.09375 132.316406 L 163.6875 132.316406 L 163.6875 138.785156 C 163.6875 139.660156 163.46875 139.660156 162.125 139.660156 L 162.125 140.285156 C 162.78125 140.253906 163.84375 140.222656 164.34375 140.222656 C 164.84375 140.222656 165.8125 140.253906 166.5625 140.285156 L 166.5625 139.660156 C 165.21875 139.660156 165 139.660156 165 138.785156 L 165 132.316406 L 169.1875 132.316406 L 169.1875 138.785156 C 169.1875 139.660156 168.96875 139.660156 167.625 139.660156 L 167.625 140.285156 C 168.40625 140.253906 169.34375 140.222656 169.90625 140.222656 C 170.6875 140.222656 171.625 140.222656 172.4375 140.285156 L 172.4375 139.660156 L 172 139.660156 C 170.53125 139.660156 170.5 139.441406 170.5 138.722656 Z M 164.9375 131.691406 L 164.9375 129.441406 C 164.9375 127.503906 166.5625 126.660156 167.875 126.660156 C 168.84375 126.660156 169.40625 127.035156 169.40625 127.035156 L 169.40625 127.066406 C 169.09375 127.097656 168.6875 127.378906 168.6875 127.910156 C 168.6875 128.035156 168.6875 128.535156 169.25 128.722656 C 169.1875 128.972656 169.1875 129.160156 169.1875 129.410156 L 169.1875 131.691406 Z M 164.9375 131.691406 "/>
<path style=" stroke:none;fill-rule:nonzero;fill:rgb(0%,0%,0%);fill-opacity:1;" d="M 176.683594 131.691406 L 176.683594 129.378906 C 176.683594 127.628906 177.621094 126.660156 178.496094 126.660156 C 178.558594 126.660156 178.871094 126.660156 179.152344 126.816406 C 178.933594 126.878906 178.558594 127.160156 178.558594 127.660156 C 178.558594 128.097656 178.871094 128.503906 179.433594 128.503906 C 179.996094 128.503906 180.308594 128.097656 180.308594 127.628906 C 180.308594 126.878906 179.558594 126.222656 178.496094 126.222656 C 177.121094 126.222656 175.402344 127.285156 175.402344 129.410156 L 175.402344 131.691406 L 173.839844 131.691406 L 173.839844 132.316406 L 175.402344 132.316406 L 175.402344 138.785156 C 175.402344 139.660156 175.183594 139.660156 173.871094 139.660156 L 173.871094 140.285156 C 174.652344 140.253906 175.589844 140.222656 176.121094 140.222656 C 176.933594 140.222656 177.871094 140.222656 178.652344 140.285156 L 178.652344 139.660156 L 178.246094 139.660156 C 176.777344 139.660156 176.746094 139.441406 176.746094 138.722656 L 176.746094 132.316406 L 178.996094 132.316406 L 178.996094 131.691406 Z M 176.683594 131.691406 "/>
<path style="fill:none;stroke-width:0.566929;stroke-linecap:butt;stroke-linejoin:miter;stroke:rgb(100%,0%,0%);stroke-opacity:0.5;stroke-miterlimit:10;" d="M 87.677919 59.526682 L 93.347841 53.858714 " transform="matrix(2,0,0,2,5.952756,6.169291)"/>
<path style="fill:none;stroke-width:0.566929;stroke-linecap:butt;stroke-linejoin:miter;stroke:rgb(100%,0%,0%);stroke-opacity:0.5;stroke-miterlimit:10;" d="M 93.347841 59.526682 L 87.677919 53.858714 " transform="matrix(2,0,0,2,5.952756,6.169291)"/>
<path style="fill:none;stroke-width:0.566929;stroke-linecap:butt;stroke-linejoin:miter;stroke:rgb(100%,0%,0%);stroke-opacity:0.5;stroke-miterlimit:10;" d="M 90.511903 85.038401 L 90.511903 56.692698 Z M 90.511903 85.038401 " transform="matrix(2,0,0,2,5.952756,6.169291)"/>
</g>
</svg>
