<?xml version="1.0" encoding="UTF-8"?>
<svg xmlns="http://www.w3.org/2000/svg" xmlns:xlink="http://www.w3.org/1999/xlink" width="220.540659pt" height="176.748031pt" viewBox="0 0 220.540659 176.748031" version="1.1">
<g id="surface73">
<path style="fill:none;stroke-width:0.566929;stroke-linecap:butt;stroke-linejoin:miter;stroke:rgb(100%,0%,0%);stroke-opacity:0.5;stroke-miterlimit:10;" d="M -2.8338 2.835276 L 2.834169 -2.834646 " transform="matrix(2,0,0,2,5.952756,6.169291)"/>
<path style="fill:none;stroke-width:0.566929;stroke-linecap:butt;stroke-linejoin:miter;stroke:rgb(100%,0%,0%);stroke-opacity:0.5;stroke-miterlimit:10;" d="M 2.834169 2.835276 L -2.8338 -2.834646 " transform="matrix(2,0,0,2,5.952756,6.169291)"/>
<path style="fill-rule:nonzero;fill:rgb(50%,50%,0%);fill-opacity:0.1;stroke-width:0.566929;stroke-linecap:butt;stroke-linejoin:miter;stroke:rgb(100%,0%,0%);stroke-opacity:0.5;stroke-miterlimit:10;" d="M 0.000184547 85.038401 L 104.209169 85.038401 L 104.209169 -0.000661294 L 0.000184547 -0.000661294 Z M 0.000184547 85.038401 " transform="matrix(2,0,0,2,5.952756,6.169291)"/>
<path style="fill:none;stroke-width:0.566929;stroke-linecap:butt;stroke-linejoin:miter;stroke:rgb(100%,0%,0%);stroke-opacity:0.5;stroke-miterlimit:10;" d="M 8.26581 2.835276 L 13.935731 -2.834646 " transform="matrix(2,0,0,2,5.952756,6.169291)"/>
<path style="fill:none;stroke-width:0.566929;stroke-linecap:butt;stroke-linejoin:miter;stroke:rgb(100%,0%,0%);stroke-opacity:0.5;stroke-miterlimit:10;" d="M 13.935731 2.835276 L 8.26581 -2.834646 " transform="matrix(2,0,0,2,5.952756,6.169291)"/>
<path style="fill-rule:nonzero;fill:rgb(50%,50%,0%);fill-opacity:0.1;stroke-width:0.566929;stroke-linecap:butt;stroke-linejoin:miter;stroke:rgb(100%,0%,0%);stroke-opacity:0.5;stroke-miterlimit:10;" d="M 6.148622 13.700511 L 16.052919 13.700511 L 16.052919 -0.000661294 L 6.148622 -0.000661294 Z M 6.148622 13.700511 " transform="matrix(2,0,0,2,5.952756,6.169291)"/>
<path style="fill:none;stroke-width:0.566929;stroke-linecap:butt;stroke-linejoin:miter;stroke:rgb(100%,0%,0%);stroke-opacity:0.5;stroke-miterlimit:10;" d="M 6.148622 13.700511 L 11.818544 8.030589 " transform="matrix(2,0,0,2,5.952756,6.169291)"/>
<path style="fill:none;stroke-width:0.566929;stroke-linecap:butt;stroke-linejoin:miter;stroke:rgb(100%,0%,0%);stroke-opacity:0.5;stroke-miterlimit:10;" d="M 11.818544 13.700511 L 6.148622 8.030589 " transform="matrix(2,0,0,2,5.952756,6.169291)"/>
<path style="fill-rule:nonzero;fill:rgb(50%,50%,0%);fill-opacity:0.1;stroke-width:0.566929;stroke-linecap:butt;stroke-linejoin:miter;stroke:rgb(100%,0%,0%);stroke-opacity:0.5;stroke-miterlimit:10;" d="M 6.148622 13.700511 L 16.052919 13.700511 L 16.052919 -0.000661294 L 6.148622 -0.000661294 Z M 6.148622 13.700511 " transform="matrix(2,0,0,2,5.952756,6.169291)"/>
<path style="fill:none;stroke-width:0.566929;stroke-linecap:butt;stroke-linejoin:miter;stroke:rgb(100%,0%,0%);stroke-opacity:0.5;stroke-miterlimit:10;" d="M 6.148622 13.700511 L 11.818544 8.030589 " transform="matrix(2,0,0,2,5.952756,6.169291)"/>
<path style="fill:none;stroke-width:0.566929;stroke-linecap:butt;stroke-linejoin:miter;stroke:rgb(100%,0%,0%);stroke-opacity:0.5;stroke-miterlimit:10;" d="M 11.818544 13.700511 L 6.148622 8.030589 " transform="matrix(2,0,0,2,5.952756,6.169291)"/>
<path style="fill-rule:nonzero;fill:rgb(50%,50%,0%);fill-opacity:0.1;stroke-width:0.566929;stroke-linecap:butt;stroke-linejoin:miter;stroke:rgb(100%,0%,0%);stroke-opacity:0.5;stroke-miterlimit:10;" d="M 8.982606 10.866526 L 13.216981 10.866526 L 13.216981 2.835276 L 8.982606 2.835276 Z M 8.982606 10.866526 " transform="matrix(2,0,0,2,5.952756,6.169291)"/>
<path style=" stroke:none;fill-rule:nonzero;fill:rgb(0%,0%,0%);fill-opacity:1;" d="M 27.761719 18.308594 L 27.761719 15.996094 C 27.761719 14.246094 28.699219 13.277344 29.574219 13.277344 C 29.636719 13.277344 29.949219 13.277344 30.230469 13.433594 C 30.011719 13.496094 29.636719 13.777344 29.636719 14.277344 C 29.636719 14.714844 29.949219 15.121094 30.511719 15.121094 C 31.074219 15.121094 31.386719 14.714844 31.386719 14.246094 C 31.386719 13.496094 30.636719 12.839844 29.574219 12.839844 C 28.199219 12.839844 26.480469 13.902344 26.480469 16.027344 L 26.480469 18.308594 L 24.917969 18.308594 L 24.917969 18.933594 L 26.480469 18.933594 L 26.480469 25.402344 C 26.480469 26.277344 26.261719 26.277344 24.949219 26.277344 L 24.949219 26.902344 C 25.730469 26.871094 26.667969 26.839844 27.199219 26.839844 C 28.011719 26.839844 28.949219 26.839844 29.730469 26.902344 L 29.730469 26.277344 L 29.324219 26.277344 C 27.855469 26.277344 27.824219 26.058594 27.824219 25.339844 L 27.824219 18.933594 L 30.074219 18.933594 L 30.074219 18.308594 Z M 27.761719 18.308594 "/>
<path style="fill:none;stroke-width:0.566929;stroke-linecap:butt;stroke-linejoin:miter;stroke:rgb(100%,0%,0%);stroke-opacity:0.5;stroke-miterlimit:10;" d="M 37.427919 2.835276 L 43.097841 -2.834646 " transform="matrix(2,0,0,2,5.952756,6.169291)"/>
<path style="fill:none;stroke-width:0.566929;stroke-linecap:butt;stroke-linejoin:miter;stroke:rgb(100%,0%,0%);stroke-opacity:0.5;stroke-miterlimit:10;" d="M 43.097841 2.835276 L 37.427919 -2.834646 " transform="matrix(2,0,0,2,5.952756,6.169291)"/>
<path style="fill-rule:nonzero;fill:rgb(50%,50%,0%);fill-opacity:0.1;stroke-width:0.566929;stroke-linecap:butt;stroke-linejoin:miter;stroke:rgb(100%,0%,0%);stroke-opacity:0.5;stroke-miterlimit:10;" d="M 31.707216 13.700511 L 48.818544 13.700511 L 48.818544 -0.000661294 L 31.707216 -0.000661294 Z M 31.707216 13.700511 " transform="matrix(2,0,0,2,5.952756,6.169291)"/>
<path style="fill:none;stroke-width:0.566929;stroke-linecap:butt;stroke-linejoin:miter;stroke:rgb(100%,0%,0%);stroke-opacity:0.5;stroke-miterlimit:10;" d="M 31.707216 13.591136 L 37.377138 7.921214 " transform="matrix(2,0,0,2,5.952756,6.169291)"/>
<path style="fill:none;stroke-width:0.566929;stroke-linecap:butt;stroke-linejoin:miter;stroke:rgb(100%,0%,0%);stroke-opacity:0.5;stroke-miterlimit:10;" d="M 37.377138 13.591136 L 31.707216 7.921214 " transform="matrix(2,0,0,2,5.952756,6.169291)"/>
<path style="fill-rule:nonzero;fill:rgb(50%,50%,0%);fill-opacity:0.1;stroke-width:0.566929;stroke-linecap:butt;stroke-linejoin:miter;stroke:rgb(100%,0%,0%);stroke-opacity:0.5;stroke-miterlimit:10;" d="M 31.707216 13.700511 L 48.818544 13.700511 L 48.818544 -0.000661294 L 31.707216 -0.000661294 Z M 31.707216 13.700511 " transform="matrix(2,0,0,2,5.952756,6.169291)"/>
<path style="fill:none;stroke-width:0.566929;stroke-linecap:butt;stroke-linejoin:miter;stroke:rgb(100%,0%,0%);stroke-opacity:0.5;stroke-miterlimit:10;" d="M 31.707216 13.591136 L 37.377138 7.921214 " transform="matrix(2,0,0,2,5.952756,6.169291)"/>
<path style="fill:none;stroke-width:0.566929;stroke-linecap:butt;stroke-linejoin:miter;stroke:rgb(100%,0%,0%);stroke-opacity:0.5;stroke-miterlimit:10;" d="M 37.377138 13.591136 L 31.707216 7.921214 " transform="matrix(2,0,0,2,5.952756,6.169291)"/>
<path style="fill-rule:nonzero;fill:rgb(50%,50%,0%);fill-opacity:0.1;stroke-width:0.566929;stroke-linecap:butt;stroke-linejoin:miter;stroke:rgb(100%,0%,0%);stroke-opacity:0.5;stroke-miterlimit:10;" d="M 34.5412 10.866526 L 45.982606 10.866526 L 45.982606 2.835276 L 34.5412 2.835276 Z M 34.5412 10.866526 " transform="matrix(2,0,0,2,5.952756,6.169291)"/>
<path style=" stroke:none;fill-rule:nonzero;fill:rgb(0%,0%,0%);fill-opacity:1;" d="M 78.910156 19.152344 L 78.910156 12.839844 L 76.035156 13.058594 L 76.035156 13.683594 C 77.441406 13.683594 77.597656 13.808594 77.597656 14.808594 L 77.597656 26.683594 L 78.097656 26.683594 C 78.097656 26.652344 78.253906 26.371094 78.816406 25.433594 C 79.097656 25.902344 79.941406 26.902344 81.410156 26.902344 C 83.785156 26.902344 85.847656 24.933594 85.847656 22.371094 C 85.847656 19.839844 83.910156 17.871094 81.628906 17.871094 C 80.066406 17.871094 79.222656 18.808594 78.910156 19.152344 Z M 78.972656 24.402344 L 78.972656 20.308594 C 78.972656 19.933594 78.972656 19.902344 79.191406 19.589844 C 79.972656 18.464844 81.066406 18.308594 81.535156 18.308594 C 82.441406 18.308594 83.160156 18.839844 83.628906 19.589844 C 84.160156 20.402344 84.191406 21.527344 84.191406 22.371094 C 84.191406 23.089844 84.160156 24.277344 83.597656 25.183594 C 83.160156 25.808594 82.410156 26.464844 81.347656 26.464844 C 80.441406 26.464844 79.722656 25.996094 79.253906 25.246094 C 78.972656 24.839844 78.972656 24.777344 78.972656 24.402344 Z M 78.972656 24.402344 "/>
<path style=" stroke:none;fill-rule:nonzero;fill:rgb(0%,0%,0%);fill-opacity:1;" d="M 89.980469 19.152344 L 89.980469 12.839844 L 87.105469 13.058594 L 87.105469 13.683594 C 88.511719 13.683594 88.667969 13.808594 88.667969 14.808594 L 88.667969 26.683594 L 89.167969 26.683594 C 89.167969 26.652344 89.324219 26.371094 89.886719 25.433594 C 90.167969 25.902344 91.011719 26.902344 92.480469 26.902344 C 94.855469 26.902344 96.917969 24.933594 96.917969 22.371094 C 96.917969 19.839844 94.980469 17.871094 92.699219 17.871094 C 91.136719 17.871094 90.292969 18.808594 89.980469 19.152344 Z M 90.042969 24.402344 L 90.042969 20.308594 C 90.042969 19.933594 90.042969 19.902344 90.261719 19.589844 C 91.042969 18.464844 92.136719 18.308594 92.605469 18.308594 C 93.511719 18.308594 94.230469 18.839844 94.699219 19.589844 C 95.230469 20.402344 95.261719 21.527344 95.261719 22.371094 C 95.261719 23.089844 95.230469 24.277344 94.667969 25.183594 C 94.230469 25.808594 93.480469 26.464844 92.417969 26.464844 C 91.511719 26.464844 90.792969 25.996094 90.324219 25.246094 C 90.042969 24.839844 90.042969 24.777344 90.042969 24.402344 Z M 90.042969 24.402344 "/>
<path style="fill:none;stroke-width:0.566929;stroke-linecap:butt;stroke-linejoin:miter;stroke:rgb(100%,0%,0%);stroke-opacity:0.5;stroke-miterlimit:10;" d="M 78.431825 2.835276 L 84.101747 -2.834646 " transform="matrix(2,0,0,2,5.952756,6.169291)"/>
<path style="fill:none;stroke-width:0.566929;stroke-linecap:butt;stroke-linejoin:miter;stroke:rgb(100%,0%,0%);stroke-opacity:0.5;stroke-miterlimit:10;" d="M 84.101747 2.835276 L 78.431825 -2.834646 " transform="matrix(2,0,0,2,5.952756,6.169291)"/>
<path style="fill-rule:nonzero;fill:rgb(50%,50%,0%);fill-opacity:0.1;stroke-width:0.566929;stroke-linecap:butt;stroke-linejoin:miter;stroke:rgb(100%,0%,0%);stroke-opacity:0.5;stroke-miterlimit:10;" d="M 73.377138 13.700511 L 89.154481 13.700511 L 89.154481 -0.000661294 L 73.377138 -0.000661294 Z M 73.377138 13.700511 " transform="matrix(2,0,0,2,5.952756,6.169291)"/>
<path style="fill:none;stroke-width:0.566929;stroke-linecap:butt;stroke-linejoin:miter;stroke:rgb(100%,0%,0%);stroke-opacity:0.5;stroke-miterlimit:10;" d="M 73.377138 13.700511 L 79.04706 8.030589 " transform="matrix(2,0,0,2,5.952756,6.169291)"/>
<path style="fill:none;stroke-width:0.566929;stroke-linecap:butt;stroke-linejoin:miter;stroke:rgb(100%,0%,0%);stroke-opacity:0.5;stroke-miterlimit:10;" d="M 79.04706 13.700511 L 73.377138 8.030589 " transform="matrix(2,0,0,2,5.952756,6.169291)"/>
<path style="fill-rule:nonzero;fill:rgb(50%,50%,0%);fill-opacity:0.1;stroke-width:0.566929;stroke-linecap:butt;stroke-linejoin:miter;stroke:rgb(100%,0%,0%);stroke-opacity:0.5;stroke-miterlimit:10;" d="M 73.377138 13.700511 L 89.154481 13.700511 L 89.154481 -0.000661294 L 73.377138 -0.000661294 Z M 73.377138 13.700511 " transform="matrix(2,0,0,2,5.952756,6.169291)"/>
<path style="fill:none;stroke-width:0.566929;stroke-linecap:butt;stroke-linejoin:miter;stroke:rgb(100%,0%,0%);stroke-opacity:0.5;stroke-miterlimit:10;" d="M 73.377138 13.700511 L 79.04706 8.030589 " transform="matrix(2,0,0,2,5.952756,6.169291)"/>
<path style="fill:none;stroke-width:0.566929;stroke-linecap:butt;stroke-linejoin:miter;stroke:rgb(100%,0%,0%);stroke-opacity:0.5;stroke-miterlimit:10;" d="M 79.04706 13.700511 L 73.377138 8.030589 " transform="matrix(2,0,0,2,5.952756,6.169291)"/>
<path style="fill-rule:nonzero;fill:rgb(50%,50%,0%);fill-opacity:0.1;stroke-width:0.566929;stroke-linecap:butt;stroke-linejoin:miter;stroke:rgb(100%,0%,0%);stroke-opacity:0.5;stroke-miterlimit:10;" d="M 76.213075 10.866526 L 86.320497 10.866526 L 86.320497 2.835276 L 76.213075 2.835276 Z M 76.213075 10.866526 " transform="matrix(2,0,0,2,5.952756,6.169291)"/>
<path style=" stroke:none;fill-rule:nonzero;fill:rgb(0%,0%,0%);fill-opacity:1;" d="M 167.785156 18.933594 L 170.066406 18.933594 L 170.066406 18.308594 L 167.722656 18.308594 L 167.722656 15.996094 C 167.722656 14.214844 168.691406 13.277344 169.566406 13.277344 C 169.628906 13.277344 169.941406 13.277344 170.222656 13.433594 C 170.003906 13.496094 169.628906 13.777344 169.628906 14.277344 C 169.628906 14.714844 169.941406 15.121094 170.503906 15.121094 C 171.066406 15.121094 171.378906 14.714844 171.378906 14.246094 C 171.378906 13.527344 170.660156 12.839844 169.566406 12.839844 C 168.378906 12.839844 167.503906 13.589844 167.410156 13.683594 C 166.816406 12.933594 165.691406 12.839844 165.160156 12.839844 C 163.285156 12.839844 160.972656 13.871094 160.972656 16.027344 L 160.972656 18.308594 L 159.378906 18.308594 L 159.378906 18.933594 L 160.972656 18.933594 L 160.972656 25.402344 C 160.972656 26.277344 160.753906 26.277344 159.410156 26.277344 L 159.410156 26.902344 C 160.066406 26.871094 161.128906 26.839844 161.628906 26.839844 C 162.128906 26.839844 163.097656 26.871094 163.847656 26.902344 L 163.847656 26.277344 C 162.503906 26.277344 162.285156 26.277344 162.285156 25.402344 L 162.285156 18.933594 L 166.472656 18.933594 L 166.472656 25.402344 C 166.472656 26.277344 166.253906 26.277344 164.910156 26.277344 L 164.910156 26.902344 C 165.691406 26.871094 166.628906 26.839844 167.191406 26.839844 C 167.972656 26.839844 168.910156 26.839844 169.722656 26.902344 L 169.722656 26.277344 L 169.285156 26.277344 C 167.816406 26.277344 167.785156 26.058594 167.785156 25.339844 Z M 162.222656 18.308594 L 162.222656 16.058594 C 162.222656 14.121094 163.847656 13.277344 165.160156 13.277344 C 166.128906 13.277344 166.691406 13.652344 166.691406 13.652344 L 166.691406 13.683594 C 166.378906 13.714844 165.972656 13.996094 165.972656 14.527344 C 165.972656 14.652344 165.972656 15.152344 166.535156 15.339844 C 166.472656 15.589844 166.472656 15.777344 166.472656 16.027344 L 166.472656 18.308594 Z M 162.222656 18.308594 "/>
<path style=" stroke:none;fill-rule:nonzero;fill:rgb(0%,0%,0%);fill-opacity:1;" d="M 173.96875 18.308594 L 173.96875 15.996094 C 173.96875 14.246094 174.90625 13.277344 175.78125 13.277344 C 175.84375 13.277344 176.15625 13.277344 176.4375 13.433594 C 176.21875 13.496094 175.84375 13.777344 175.84375 14.277344 C 175.84375 14.714844 176.15625 15.121094 176.71875 15.121094 C 177.28125 15.121094 177.59375 14.714844 177.59375 14.246094 C 177.59375 13.496094 176.84375 12.839844 175.78125 12.839844 C 174.40625 12.839844 172.6875 13.902344 172.6875 16.027344 L 172.6875 18.308594 L 171.125 18.308594 L 171.125 18.933594 L 172.6875 18.933594 L 172.6875 25.402344 C 172.6875 26.277344 172.46875 26.277344 171.15625 26.277344 L 171.15625 26.902344 C 171.9375 26.871094 172.875 26.839844 173.40625 26.839844 C 174.21875 26.839844 175.15625 26.839844 175.9375 26.902344 L 175.9375 26.277344 L 175.53125 26.277344 C 174.0625 26.277344 174.03125 26.058594 174.03125 25.339844 L 174.03125 18.933594 L 176.28125 18.933594 L 176.28125 18.308594 Z M 173.96875 18.308594 "/>
<path style="fill:none;stroke-width:0.566929;stroke-linecap:butt;stroke-linejoin:miter;stroke:rgb(100%,0%,0%);stroke-opacity:0.5;stroke-miterlimit:10;" d="M 101.375185 2.835276 L 107.043153 -2.834646 " transform="matrix(2,0,0,2,5.952756,6.169291)"/>
<path style="fill:none;stroke-width:0.566929;stroke-linecap:butt;stroke-linejoin:miter;stroke:rgb(100%,0%,0%);stroke-opacity:0.5;stroke-miterlimit:10;" d="M 107.043153 2.835276 L 101.375185 -2.834646 " transform="matrix(2,0,0,2,5.952756,6.169291)"/>
<path style="fill:none;stroke-width:0.566929;stroke-linecap:butt;stroke-linejoin:miter;stroke:rgb(100%,0%,0%);stroke-opacity:0.5;stroke-miterlimit:10;" d="M 104.209169 28.346995 L 104.209169 -0.000661294 Z M 104.209169 28.346995 " transform="matrix(2,0,0,2,5.952756,6.169291)"/>
<path style="fill:none;stroke-width:0.566929;stroke-linecap:butt;stroke-linejoin:miter;stroke:rgb(100%,0%,0%);stroke-opacity:0.5;stroke-miterlimit:10;" d="M 8.26581 31.180979 L 13.935731 25.511057 " transform="matrix(2,0,0,2,5.952756,6.169291)"/>
<path style="fill:none;stroke-width:0.566929;stroke-linecap:butt;stroke-linejoin:miter;stroke:rgb(100%,0%,0%);stroke-opacity:0.5;stroke-miterlimit:10;" d="M 13.935731 31.180979 L 8.26581 25.511057 " transform="matrix(2,0,0,2,5.952756,6.169291)"/>
<path style="fill-rule:nonzero;fill:rgb(50%,50%,0%);fill-opacity:0.1;stroke-width:0.566929;stroke-linecap:butt;stroke-linejoin:miter;stroke:rgb(100%,0%,0%);stroke-opacity:0.5;stroke-miterlimit:10;" d="M 3.654481 39.593089 L 18.54706 39.593089 L 18.54706 28.346995 L 3.654481 28.346995 Z M 3.654481 39.593089 " transform="matrix(2,0,0,2,5.952756,6.169291)"/>
<path style="fill:none;stroke-width:0.566929;stroke-linecap:butt;stroke-linejoin:miter;stroke:rgb(100%,0%,0%);stroke-opacity:0.5;stroke-miterlimit:10;" d="M 3.654481 39.483714 L 9.32245 33.815745 " transform="matrix(2,0,0,2,5.952756,6.169291)"/>
<path style="fill:none;stroke-width:0.566929;stroke-linecap:butt;stroke-linejoin:miter;stroke:rgb(100%,0%,0%);stroke-opacity:0.5;stroke-miterlimit:10;" d="M 9.32245 39.483714 L 3.654481 33.815745 " transform="matrix(2,0,0,2,5.952756,6.169291)"/>
<path style="fill-rule:nonzero;fill:rgb(50%,50%,0%);fill-opacity:0.1;stroke-width:0.566929;stroke-linecap:butt;stroke-linejoin:miter;stroke:rgb(100%,0%,0%);stroke-opacity:0.5;stroke-miterlimit:10;" d="M 3.654481 39.593089 L 18.54706 39.593089 L 18.54706 28.346995 L 3.654481 28.346995 Z M 3.654481 39.593089 " transform="matrix(2,0,0,2,5.952756,6.169291)"/>
<path style="fill:none;stroke-width:0.566929;stroke-linecap:butt;stroke-linejoin:miter;stroke:rgb(100%,0%,0%);stroke-opacity:0.5;stroke-miterlimit:10;" d="M 3.654481 39.483714 L 9.32245 33.815745 " transform="matrix(2,0,0,2,5.952756,6.169291)"/>
<path style="fill:none;stroke-width:0.566929;stroke-linecap:butt;stroke-linejoin:miter;stroke:rgb(100%,0%,0%);stroke-opacity:0.5;stroke-miterlimit:10;" d="M 9.32245 39.483714 L 3.654481 33.815745 " transform="matrix(2,0,0,2,5.952756,6.169291)"/>
<path style="fill-rule:nonzero;fill:rgb(50%,50%,0%);fill-opacity:0.1;stroke-width:0.566929;stroke-linecap:butt;stroke-linejoin:miter;stroke:rgb(100%,0%,0%);stroke-opacity:0.5;stroke-miterlimit:10;" d="M 6.488466 36.759104 L 15.713075 36.759104 L 15.713075 31.180979 L 6.488466 31.180979 Z M 6.488466 36.759104 " transform="matrix(2,0,0,2,5.952756,6.169291)"/>
<path style=" stroke:none;fill-rule:nonzero;fill:rgb(0%,0%,0%);fill-opacity:1;" d="M 21.585938 74.125 C 21.585938 70.875 23.210938 70.03125 24.273438 70.03125 C 24.460938 70.03125 25.710938 70.0625 26.398438 70.78125 C 25.585938 70.84375 25.460938 71.4375 25.460938 71.6875 C 25.460938 72.21875 25.835938 72.59375 26.367188 72.59375 C 26.898438 72.59375 27.304688 72.28125 27.304688 71.65625 C 27.304688 70.3125 25.773438 69.53125 24.242188 69.53125 C 21.742188 69.53125 19.929688 71.6875 19.929688 74.15625 C 19.929688 76.71875 21.898438 78.6875 24.210938 78.6875 C 26.867188 78.6875 27.523438 76.28125 27.523438 76.09375 C 27.523438 75.90625 27.304688 75.90625 27.242188 75.90625 C 27.085938 75.90625 27.023438 75.96875 26.992188 76.09375 C 26.429688 77.9375 25.117188 78.1875 24.398438 78.1875 C 23.335938 78.1875 21.585938 77.34375 21.585938 74.125 Z M 21.585938 74.125 "/>
<path style=" stroke:none;fill-rule:nonzero;fill:rgb(0%,0%,0%);fill-opacity:1;" d="M 30.441406 74.125 C 30.441406 70.875 32.066406 70.03125 33.128906 70.03125 C 33.316406 70.03125 34.566406 70.0625 35.253906 70.78125 C 34.441406 70.84375 34.316406 71.4375 34.316406 71.6875 C 34.316406 72.21875 34.691406 72.59375 35.222656 72.59375 C 35.753906 72.59375 36.160156 72.28125 36.160156 71.65625 C 36.160156 70.3125 34.628906 69.53125 33.097656 69.53125 C 30.597656 69.53125 28.785156 71.6875 28.785156 74.15625 C 28.785156 76.71875 30.753906 78.6875 33.066406 78.6875 C 35.722656 78.6875 36.378906 76.28125 36.378906 76.09375 C 36.378906 75.90625 36.160156 75.90625 36.097656 75.90625 C 35.941406 75.90625 35.878906 75.96875 35.847656 76.09375 C 35.285156 77.9375 33.972656 78.1875 33.253906 78.1875 C 32.191406 78.1875 30.441406 77.34375 30.441406 74.125 Z M 30.441406 74.125 "/>
<path style="fill:none;stroke-width:0.566929;stroke-linecap:butt;stroke-linejoin:miter;stroke:rgb(100%,0%,0%);stroke-opacity:0.5;stroke-miterlimit:10;" d="M 37.427919 31.180979 L 43.097841 25.511057 " transform="matrix(2,0,0,2,5.952756,6.169291)"/>
<path style="fill:none;stroke-width:0.566929;stroke-linecap:butt;stroke-linejoin:miter;stroke:rgb(100%,0%,0%);stroke-opacity:0.5;stroke-miterlimit:10;" d="M 43.097841 31.180979 L 37.427919 25.511057 " transform="matrix(2,0,0,2,5.952756,6.169291)"/>
<path style="fill-rule:nonzero;fill:rgb(50%,50%,0%);fill-opacity:0.1;stroke-width:0.566929;stroke-linecap:butt;stroke-linejoin:miter;stroke:rgb(100%,0%,0%);stroke-opacity:0.5;stroke-miterlimit:10;" d="M 31.021669 42.046214 L 49.502138 42.046214 L 49.502138 28.346995 L 31.021669 28.346995 Z M 31.021669 42.046214 " transform="matrix(2,0,0,2,5.952756,6.169291)"/>
<path style="fill:none;stroke-width:0.566929;stroke-linecap:butt;stroke-linejoin:miter;stroke:rgb(100%,0%,0%);stroke-opacity:0.5;stroke-miterlimit:10;" d="M 31.021669 42.046214 L 36.691591 36.378245 " transform="matrix(2,0,0,2,5.952756,6.169291)"/>
<path style="fill:none;stroke-width:0.566929;stroke-linecap:butt;stroke-linejoin:miter;stroke:rgb(100%,0%,0%);stroke-opacity:0.5;stroke-miterlimit:10;" d="M 36.691591 42.046214 L 31.021669 36.378245 " transform="matrix(2,0,0,2,5.952756,6.169291)"/>
<path style="fill-rule:nonzero;fill:rgb(50%,50%,0%);fill-opacity:0.1;stroke-width:0.566929;stroke-linecap:butt;stroke-linejoin:miter;stroke:rgb(100%,0%,0%);stroke-opacity:0.5;stroke-miterlimit:10;" d="M 31.021669 42.046214 L 49.502138 42.046214 L 49.502138 28.346995 L 31.021669 28.346995 Z M 31.021669 42.046214 " transform="matrix(2,0,0,2,5.952756,6.169291)"/>
<path style="fill:none;stroke-width:0.566929;stroke-linecap:butt;stroke-linejoin:miter;stroke:rgb(100%,0%,0%);stroke-opacity:0.5;stroke-miterlimit:10;" d="M 31.021669 42.046214 L 36.691591 36.378245 " transform="matrix(2,0,0,2,5.952756,6.169291)"/>
<path style="fill:none;stroke-width:0.566929;stroke-linecap:butt;stroke-linejoin:miter;stroke:rgb(100%,0%,0%);stroke-opacity:0.5;stroke-miterlimit:10;" d="M 36.691591 42.046214 L 31.021669 36.378245 " transform="matrix(2,0,0,2,5.952756,6.169291)"/>
<path style="fill-rule:nonzero;fill:rgb(50%,50%,0%);fill-opacity:0.1;stroke-width:0.566929;stroke-linecap:butt;stroke-linejoin:miter;stroke:rgb(100%,0%,0%);stroke-opacity:0.5;stroke-miterlimit:10;" d="M 33.857606 39.212229 L 46.668153 39.212229 L 46.668153 31.180979 L 33.857606 31.180979 Z M 33.857606 39.212229 " transform="matrix(2,0,0,2,5.952756,6.169291)"/>
<path style=" stroke:none;fill-rule:nonzero;fill:rgb(0%,0%,0%);fill-opacity:1;" d="M 83.074219 75.625 L 85.355469 75.625 L 85.355469 75 L 83.011719 75 L 83.011719 72.6875 C 83.011719 70.90625 83.980469 69.96875 84.855469 69.96875 C 84.917969 69.96875 85.230469 69.96875 85.511719 70.125 C 85.292969 70.1875 84.917969 70.46875 84.917969 70.96875 C 84.917969 71.40625 85.230469 71.8125 85.792969 71.8125 C 86.355469 71.8125 86.667969 71.40625 86.667969 70.9375 C 86.667969 70.21875 85.949219 69.53125 84.855469 69.53125 C 83.667969 69.53125 82.792969 70.28125 82.699219 70.375 C 82.105469 69.625 80.980469 69.53125 80.449219 69.53125 C 78.574219 69.53125 76.261719 70.5625 76.261719 72.71875 L 76.261719 75 L 74.667969 75 L 74.667969 75.625 L 76.261719 75.625 L 76.261719 82.09375 C 76.261719 82.96875 76.042969 82.96875 74.699219 82.96875 L 74.699219 83.59375 C 75.355469 83.5625 76.417969 83.53125 76.917969 83.53125 C 77.417969 83.53125 78.386719 83.5625 79.136719 83.59375 L 79.136719 82.96875 C 77.792969 82.96875 77.574219 82.96875 77.574219 82.09375 L 77.574219 75.625 L 81.761719 75.625 L 81.761719 82.09375 C 81.761719 82.96875 81.542969 82.96875 80.199219 82.96875 L 80.199219 83.59375 C 80.980469 83.5625 81.917969 83.53125 82.480469 83.53125 C 83.261719 83.53125 84.199219 83.53125 85.011719 83.59375 L 85.011719 82.96875 L 84.574219 82.96875 C 83.105469 82.96875 83.074219 82.75 83.074219 82.03125 Z M 77.511719 75 L 77.511719 72.75 C 77.511719 70.8125 79.136719 69.96875 80.449219 69.96875 C 81.417969 69.96875 81.980469 70.34375 81.980469 70.34375 L 81.980469 70.375 C 81.667969 70.40625 81.261719 70.6875 81.261719 71.21875 C 81.261719 71.34375 81.261719 71.84375 81.824219 72.03125 C 81.761719 72.28125 81.761719 72.46875 81.761719 72.71875 L 81.761719 75 Z M 77.511719 75 "/>
<path style=" stroke:none;fill-rule:nonzero;fill:rgb(0%,0%,0%);fill-opacity:1;" d="M 94.695312 75.625 L 96.976562 75.625 L 96.976562 75 L 94.632812 75 L 94.632812 72.6875 C 94.632812 70.90625 95.601562 69.96875 96.476562 69.96875 C 96.539062 69.96875 96.851562 69.96875 97.132812 70.125 C 96.914062 70.1875 96.539062 70.46875 96.539062 70.96875 C 96.539062 71.40625 96.851562 71.8125 97.414062 71.8125 C 97.976562 71.8125 98.289062 71.40625 98.289062 70.9375 C 98.289062 70.21875 97.570312 69.53125 96.476562 69.53125 C 95.289062 69.53125 94.414062 70.28125 94.320312 70.375 C 93.726562 69.625 92.601562 69.53125 92.070312 69.53125 C 90.195312 69.53125 87.882812 70.5625 87.882812 72.71875 L 87.882812 75 L 86.289062 75 L 86.289062 75.625 L 87.882812 75.625 L 87.882812 82.09375 C 87.882812 82.96875 87.664062 82.96875 86.320312 82.96875 L 86.320312 83.59375 C 86.976562 83.5625 88.039062 83.53125 88.539062 83.53125 C 89.039062 83.53125 90.007812 83.5625 90.757812 83.59375 L 90.757812 82.96875 C 89.414062 82.96875 89.195312 82.96875 89.195312 82.09375 L 89.195312 75.625 L 93.382812 75.625 L 93.382812 82.09375 C 93.382812 82.96875 93.164062 82.96875 91.820312 82.96875 L 91.820312 83.59375 C 92.601562 83.5625 93.539062 83.53125 94.101562 83.53125 C 94.882812 83.53125 95.820312 83.53125 96.632812 83.59375 L 96.632812 82.96875 L 96.195312 82.96875 C 94.726562 82.96875 94.695312 82.75 94.695312 82.03125 Z M 89.132812 75 L 89.132812 72.75 C 89.132812 70.8125 90.757812 69.96875 92.070312 69.96875 C 93.039062 69.96875 93.601562 70.34375 93.601562 70.34375 L 93.601562 70.375 C 93.289062 70.40625 92.882812 70.6875 92.882812 71.21875 C 92.882812 71.34375 92.882812 71.84375 93.445312 72.03125 C 93.382812 72.28125 93.382812 72.46875 93.382812 72.71875 L 93.382812 75 Z M 89.132812 75 "/>
<path style="fill:none;stroke-width:0.566929;stroke-linecap:butt;stroke-linejoin:miter;stroke:rgb(100%,0%,0%);stroke-opacity:0.5;stroke-miterlimit:10;" d="M 78.431825 31.180979 L 84.101747 25.511057 " transform="matrix(2,0,0,2,5.952756,6.169291)"/>
<path style="fill:none;stroke-width:0.566929;stroke-linecap:butt;stroke-linejoin:miter;stroke:rgb(100%,0%,0%);stroke-opacity:0.5;stroke-miterlimit:10;" d="M 84.101747 31.180979 L 78.431825 25.511057 " transform="matrix(2,0,0,2,5.952756,6.169291)"/>
<path style="fill-rule:nonzero;fill:rgb(50%,50%,0%);fill-opacity:0.1;stroke-width:0.566929;stroke-linecap:butt;stroke-linejoin:miter;stroke:rgb(100%,0%,0%);stroke-opacity:0.5;stroke-miterlimit:10;" d="M 64.965028 39.593089 L 97.568544 39.593089 L 97.568544 28.346995 L 64.965028 28.346995 Z M 64.965028 39.593089 " transform="matrix(2,0,0,2,5.952756,6.169291)"/>
<path style="fill:none;stroke-width:0.566929;stroke-linecap:butt;stroke-linejoin:miter;stroke:rgb(100%,0%,0%);stroke-opacity:0.5;stroke-miterlimit:10;" d="M 64.965028 39.483714 L 70.63495 33.815745 " transform="matrix(2,0,0,2,5.952756,6.169291)"/>
<path style="fill:none;stroke-width:0.566929;stroke-linecap:butt;stroke-linejoin:miter;stroke:rgb(100%,0%,0%);stroke-opacity:0.5;stroke-miterlimit:10;" d="M 70.63495 39.483714 L 64.965028 33.815745 " transform="matrix(2,0,0,2,5.952756,6.169291)"/>
<path style="fill-rule:nonzero;fill:rgb(50%,50%,0%);fill-opacity:0.1;stroke-width:0.566929;stroke-linecap:butt;stroke-linejoin:miter;stroke:rgb(100%,0%,0%);stroke-opacity:0.5;stroke-miterlimit:10;" d="M 64.965028 39.593089 L 97.568544 39.593089 L 97.568544 28.346995 L 64.965028 28.346995 Z M 64.965028 39.593089 " transform="matrix(2,0,0,2,5.952756,6.169291)"/>
<path style="fill:none;stroke-width:0.566929;stroke-linecap:butt;stroke-linejoin:miter;stroke:rgb(100%,0%,0%);stroke-opacity:0.5;stroke-miterlimit:10;" d="M 64.965028 39.483714 L 70.63495 33.815745 " transform="matrix(2,0,0,2,5.952756,6.169291)"/>
<path style="fill:none;stroke-width:0.566929;stroke-linecap:butt;stroke-linejoin:miter;stroke:rgb(100%,0%,0%);stroke-opacity:0.5;stroke-miterlimit:10;" d="M 70.63495 39.483714 L 64.965028 33.815745 " transform="matrix(2,0,0,2,5.952756,6.169291)"/>
<path style="fill-rule:nonzero;fill:rgb(50%,50%,0%);fill-opacity:0.1;stroke-width:0.566929;stroke-linecap:butt;stroke-linejoin:miter;stroke:rgb(100%,0%,0%);stroke-opacity:0.5;stroke-miterlimit:10;" d="M 67.799013 36.759104 L 94.73456 36.759104 L 94.73456 31.180979 L 67.799013 31.180979 Z M 67.799013 36.759104 " transform="matrix(2,0,0,2,5.952756,6.169291)"/>
<path style=" stroke:none;fill-rule:nonzero;fill:rgb(0%,0%,0%);fill-opacity:1;" d="M 144.207031 74.125 C 144.207031 70.875 145.832031 70.03125 146.894531 70.03125 C 147.082031 70.03125 148.332031 70.0625 149.019531 70.78125 C 148.207031 70.84375 148.082031 71.4375 148.082031 71.6875 C 148.082031 72.21875 148.457031 72.59375 148.988281 72.59375 C 149.519531 72.59375 149.925781 72.28125 149.925781 71.65625 C 149.925781 70.3125 148.394531 69.53125 146.863281 69.53125 C 144.363281 69.53125 142.550781 71.6875 142.550781 74.15625 C 142.550781 76.71875 144.519531 78.6875 146.832031 78.6875 C 149.488281 78.6875 150.144531 76.28125 150.144531 76.09375 C 150.144531 75.90625 149.925781 75.90625 149.863281 75.90625 C 149.707031 75.90625 149.644531 75.96875 149.613281 76.09375 C 149.050781 77.9375 147.738281 78.1875 147.019531 78.1875 C 145.957031 78.1875 144.207031 77.34375 144.207031 74.125 Z M 144.207031 74.125 "/>
<path style=" stroke:none;fill-rule:nonzero;fill:rgb(0%,0%,0%);fill-opacity:1;" d="M 153.0625 74.125 C 153.0625 70.875 154.6875 70.03125 155.75 70.03125 C 155.9375 70.03125 157.1875 70.0625 157.875 70.78125 C 157.0625 70.84375 156.9375 71.4375 156.9375 71.6875 C 156.9375 72.21875 157.3125 72.59375 157.84375 72.59375 C 158.375 72.59375 158.78125 72.28125 158.78125 71.65625 C 158.78125 70.3125 157.25 69.53125 155.71875 69.53125 C 153.21875 69.53125 151.40625 71.6875 151.40625 74.15625 C 151.40625 76.71875 153.375 78.6875 155.6875 78.6875 C 158.34375 78.6875 159 76.28125 159 76.09375 C 159 75.90625 158.78125 75.90625 158.71875 75.90625 C 158.5625 75.90625 158.5 75.96875 158.46875 76.09375 C 157.90625 77.9375 156.59375 78.1875 155.875 78.1875 C 154.8125 78.1875 153.0625 77.34375 153.0625 74.125 Z M 153.0625 74.125 "/>
<path style=" stroke:none;fill-rule:nonzero;fill:rgb(0%,0%,0%);fill-opacity:1;" d="M 161.917969 74.125 C 161.917969 70.875 163.542969 70.03125 164.605469 70.03125 C 164.792969 70.03125 166.042969 70.0625 166.730469 70.78125 C 165.917969 70.84375 165.792969 71.4375 165.792969 71.6875 C 165.792969 72.21875 166.167969 72.59375 166.699219 72.59375 C 167.230469 72.59375 167.636719 72.28125 167.636719 71.65625 C 167.636719 70.3125 166.105469 69.53125 164.574219 69.53125 C 162.074219 69.53125 160.261719 71.6875 160.261719 74.15625 C 160.261719 76.71875 162.230469 78.6875 164.542969 78.6875 C 167.199219 78.6875 167.855469 76.28125 167.855469 76.09375 C 167.855469 75.90625 167.636719 75.90625 167.574219 75.90625 C 167.417969 75.90625 167.355469 75.96875 167.324219 76.09375 C 166.761719 77.9375 165.449219 78.1875 164.730469 78.1875 C 163.667969 78.1875 161.917969 77.34375 161.917969 74.125 Z M 161.917969 74.125 "/>
<path style=" stroke:none;fill-rule:nonzero;fill:rgb(0%,0%,0%);fill-opacity:1;" d="M 170.773438 74.125 C 170.773438 70.875 172.398438 70.03125 173.460938 70.03125 C 173.648438 70.03125 174.898438 70.0625 175.585938 70.78125 C 174.773438 70.84375 174.648438 71.4375 174.648438 71.6875 C 174.648438 72.21875 175.023438 72.59375 175.554688 72.59375 C 176.085938 72.59375 176.492188 72.28125 176.492188 71.65625 C 176.492188 70.3125 174.960938 69.53125 173.429688 69.53125 C 170.929688 69.53125 169.117188 71.6875 169.117188 74.15625 C 169.117188 76.71875 171.085938 78.6875 173.398438 78.6875 C 176.054688 78.6875 176.710938 76.28125 176.710938 76.09375 C 176.710938 75.90625 176.492188 75.90625 176.429688 75.90625 C 176.273438 75.90625 176.210938 75.96875 176.179688 76.09375 C 175.617188 77.9375 174.304688 78.1875 173.585938 78.1875 C 172.523438 78.1875 170.773438 77.34375 170.773438 74.125 Z M 170.773438 74.125 "/>
<path style=" stroke:none;fill-rule:nonzero;fill:rgb(0%,0%,0%);fill-opacity:1;" d="M 179.628906 74.125 C 179.628906 70.875 181.253906 70.03125 182.316406 70.03125 C 182.503906 70.03125 183.753906 70.0625 184.441406 70.78125 C 183.628906 70.84375 183.503906 71.4375 183.503906 71.6875 C 183.503906 72.21875 183.878906 72.59375 184.410156 72.59375 C 184.941406 72.59375 185.347656 72.28125 185.347656 71.65625 C 185.347656 70.3125 183.816406 69.53125 182.285156 69.53125 C 179.785156 69.53125 177.972656 71.6875 177.972656 74.15625 C 177.972656 76.71875 179.941406 78.6875 182.253906 78.6875 C 184.910156 78.6875 185.566406 76.28125 185.566406 76.09375 C 185.566406 75.90625 185.347656 75.90625 185.285156 75.90625 C 185.128906 75.90625 185.066406 75.96875 185.035156 76.09375 C 184.472656 77.9375 183.160156 78.1875 182.441406 78.1875 C 181.378906 78.1875 179.628906 77.34375 179.628906 74.125 Z M 179.628906 74.125 "/>
<path style=" stroke:none;fill-rule:nonzero;fill:rgb(0%,0%,0%);fill-opacity:1;" d="M 188.484375 74.125 C 188.484375 70.875 190.109375 70.03125 191.171875 70.03125 C 191.359375 70.03125 192.609375 70.0625 193.296875 70.78125 C 192.484375 70.84375 192.359375 71.4375 192.359375 71.6875 C 192.359375 72.21875 192.734375 72.59375 193.265625 72.59375 C 193.796875 72.59375 194.203125 72.28125 194.203125 71.65625 C 194.203125 70.3125 192.671875 69.53125 191.140625 69.53125 C 188.640625 69.53125 186.828125 71.6875 186.828125 74.15625 C 186.828125 76.71875 188.796875 78.6875 191.109375 78.6875 C 193.765625 78.6875 194.421875 76.28125 194.421875 76.09375 C 194.421875 75.90625 194.203125 75.90625 194.140625 75.90625 C 193.984375 75.90625 193.921875 75.96875 193.890625 76.09375 C 193.328125 77.9375 192.015625 78.1875 191.296875 78.1875 C 190.234375 78.1875 188.484375 77.34375 188.484375 74.125 Z M 188.484375 74.125 "/>
<path style="fill:none;stroke-width:0.566929;stroke-linecap:butt;stroke-linejoin:miter;stroke:rgb(100%,0%,0%);stroke-opacity:0.5;stroke-miterlimit:10;" d="M 101.375185 31.180979 L 107.043153 25.511057 " transform="matrix(2,0,0,2,5.952756,6.169291)"/>
<path style="fill:none;stroke-width:0.566929;stroke-linecap:butt;stroke-linejoin:miter;stroke:rgb(100%,0%,0%);stroke-opacity:0.5;stroke-miterlimit:10;" d="M 107.043153 31.180979 L 101.375185 25.511057 " transform="matrix(2,0,0,2,5.952756,6.169291)"/>
<path style="fill:none;stroke-width:0.566929;stroke-linecap:butt;stroke-linejoin:miter;stroke:rgb(100%,0%,0%);stroke-opacity:0.5;stroke-miterlimit:10;" d="M 104.209169 56.692698 L 104.209169 28.346995 Z M 104.209169 56.692698 " transform="matrix(2,0,0,2,5.952756,6.169291)"/>
<path style="fill:none;stroke-width:0.566929;stroke-linecap:butt;stroke-linejoin:miter;stroke:rgb(100%,0%,0%);stroke-opacity:0.5;stroke-miterlimit:10;" d="M 8.26581 59.526682 L 13.935731 53.858714 " transform="matrix(2,0,0,2,5.952756,6.169291)"/>
<path style="fill:none;stroke-width:0.566929;stroke-linecap:butt;stroke-linejoin:miter;stroke:rgb(100%,0%,0%);stroke-opacity:0.5;stroke-miterlimit:10;" d="M 13.935731 59.526682 L 8.26581 53.858714 " transform="matrix(2,0,0,2,5.952756,6.169291)"/>
<path style="fill-rule:nonzero;fill:rgb(50%,50%,0%);fill-opacity:0.1;stroke-width:0.566929;stroke-linecap:butt;stroke-linejoin:miter;stroke:rgb(100%,0%,0%);stroke-opacity:0.5;stroke-miterlimit:10;" d="M 0.000184547 67.659495 L 22.201356 67.659495 L 22.201356 56.692698 L 0.000184547 56.692698 Z M 0.000184547 67.659495 " transform="matrix(2,0,0,2,5.952756,6.169291)"/>
<path style="fill:none;stroke-width:0.566929;stroke-linecap:butt;stroke-linejoin:miter;stroke:rgb(100%,0%,0%);stroke-opacity:0.5;stroke-miterlimit:10;" d="M 0.000184547 67.659495 L 5.670106 61.989573 " transform="matrix(2,0,0,2,5.952756,6.169291)"/>
<path style="fill:none;stroke-width:0.566929;stroke-linecap:butt;stroke-linejoin:miter;stroke:rgb(100%,0%,0%);stroke-opacity:0.5;stroke-miterlimit:10;" d="M 5.670106 67.659495 L 0.000184547 61.989573 " transform="matrix(2,0,0,2,5.952756,6.169291)"/>
<path style="fill-rule:nonzero;fill:rgb(50%,50%,0%);fill-opacity:0.1;stroke-width:0.566929;stroke-linecap:butt;stroke-linejoin:miter;stroke:rgb(100%,0%,0%);stroke-opacity:0.5;stroke-miterlimit:10;" d="M 0.000184547 67.659495 L 22.201356 67.659495 L 22.201356 56.692698 L 0.000184547 56.692698 Z M 0.000184547 67.659495 " transform="matrix(2,0,0,2,5.952756,6.169291)"/>
<path style="fill:none;stroke-width:0.566929;stroke-linecap:butt;stroke-linejoin:miter;stroke:rgb(100%,0%,0%);stroke-opacity:0.5;stroke-miterlimit:10;" d="M 0.000184547 67.659495 L 5.670106 61.989573 " transform="matrix(2,0,0,2,5.952756,6.169291)"/>
<path style="fill:none;stroke-width:0.566929;stroke-linecap:butt;stroke-linejoin:miter;stroke:rgb(100%,0%,0%);stroke-opacity:0.5;stroke-miterlimit:10;" d="M 5.670106 67.659495 L 0.000184547 61.989573 " transform="matrix(2,0,0,2,5.952756,6.169291)"/>
<path style="fill-rule:nonzero;fill:rgb(50%,50%,0%);fill-opacity:0.1;stroke-width:0.566929;stroke-linecap:butt;stroke-linejoin:miter;stroke:rgb(100%,0%,0%);stroke-opacity:0.5;stroke-miterlimit:10;" d="M 2.834169 64.823557 L 19.367372 64.823557 L 19.367372 59.526682 L 2.834169 59.526682 Z M 2.834169 64.823557 " transform="matrix(2,0,0,2,5.952756,6.169291)"/>
<path style=" stroke:none;fill-rule:nonzero;fill:rgb(0%,0%,0%);fill-opacity:1;" d="M 18.089844 130.128906 C 18.683594 129.378906 19.433594 128.410156 19.933594 127.878906 C 20.558594 127.160156 21.371094 126.847656 22.308594 126.847656 L 22.308594 126.222656 C 21.777344 126.253906 21.183594 126.285156 20.652344 126.285156 C 20.058594 126.285156 18.996094 126.253906 18.746094 126.222656 L 18.746094 126.847656 C 19.183594 126.878906 19.339844 127.128906 19.339844 127.472656 C 19.339844 127.785156 19.121094 128.035156 19.027344 128.160156 L 17.808594 129.722656 L 16.246094 127.691406 C 16.058594 127.503906 16.058594 127.472656 16.058594 127.347656 C 16.058594 127.035156 16.371094 126.847656 16.746094 126.847656 L 16.746094 126.222656 C 16.246094 126.253906 14.933594 126.285156 14.589844 126.285156 C 14.183594 126.285156 13.246094 126.253906 12.714844 126.222656 L 12.714844 126.847656 C 14.121094 126.847656 14.121094 126.847656 15.058594 128.066406 L 17.027344 130.628906 L 15.152344 133.003906 C 14.214844 134.160156 13.027344 134.191406 12.621094 134.191406 L 12.621094 134.816406 C 13.121094 134.785156 13.746094 134.753906 14.277344 134.753906 C 14.839844 134.753906 15.683594 134.785156 16.152344 134.816406 L 16.152344 134.191406 C 15.714844 134.128906 15.589844 133.878906 15.589844 133.566406 C 15.589844 133.128906 16.152344 132.472656 17.371094 131.035156 L 18.902344 133.035156 C 19.058594 133.253906 19.308594 133.566406 19.308594 133.691406 C 19.308594 133.878906 19.121094 134.191406 18.589844 134.191406 L 18.589844 134.816406 C 19.183594 134.785156 20.308594 134.753906 20.746094 134.753906 C 21.277344 134.753906 22.058594 134.785156 22.652344 134.816406 L 22.652344 134.191406 C 21.589844 134.191406 21.214844 134.160156 20.777344 133.566406 Z M 18.089844 130.128906 "/>
<path style=" stroke:none;fill-rule:nonzero;fill:rgb(0%,0%,0%);fill-opacity:1;" d="M 28.605469 130.128906 C 29.199219 129.378906 29.949219 128.410156 30.449219 127.878906 C 31.074219 127.160156 31.886719 126.847656 32.824219 126.847656 L 32.824219 126.222656 C 32.292969 126.253906 31.699219 126.285156 31.167969 126.285156 C 30.574219 126.285156 29.511719 126.253906 29.261719 126.222656 L 29.261719 126.847656 C 29.699219 126.878906 29.855469 127.128906 29.855469 127.472656 C 29.855469 127.785156 29.636719 128.035156 29.542969 128.160156 L 28.324219 129.722656 L 26.761719 127.691406 C 26.574219 127.503906 26.574219 127.472656 26.574219 127.347656 C 26.574219 127.035156 26.886719 126.847656 27.261719 126.847656 L 27.261719 126.222656 C 26.761719 126.253906 25.449219 126.285156 25.105469 126.285156 C 24.699219 126.285156 23.761719 126.253906 23.230469 126.222656 L 23.230469 126.847656 C 24.636719 126.847656 24.636719 126.847656 25.574219 128.066406 L 27.542969 130.628906 L 25.667969 133.003906 C 24.730469 134.160156 23.542969 134.191406 23.136719 134.191406 L 23.136719 134.816406 C 23.636719 134.785156 24.261719 134.753906 24.792969 134.753906 C 25.355469 134.753906 26.199219 134.785156 26.667969 134.816406 L 26.667969 134.191406 C 26.230469 134.128906 26.105469 133.878906 26.105469 133.566406 C 26.105469 133.128906 26.667969 132.472656 27.886719 131.035156 L 29.417969 133.035156 C 29.574219 133.253906 29.824219 133.566406 29.824219 133.691406 C 29.824219 133.878906 29.636719 134.191406 29.105469 134.191406 L 29.105469 134.816406 C 29.699219 134.785156 30.824219 134.753906 31.261719 134.753906 C 31.792969 134.753906 32.574219 134.785156 33.167969 134.816406 L 33.167969 134.191406 C 32.105469 134.191406 31.730469 134.160156 31.292969 133.566406 Z M 28.605469 130.128906 "/>
<path style=" stroke:none;fill-rule:nonzero;fill:rgb(0%,0%,0%);fill-opacity:1;" d="M 39.125 130.128906 C 39.71875 129.378906 40.46875 128.410156 40.96875 127.878906 C 41.59375 127.160156 42.40625 126.847656 43.34375 126.847656 L 43.34375 126.222656 C 42.8125 126.253906 42.21875 126.285156 41.6875 126.285156 C 41.09375 126.285156 40.03125 126.253906 39.78125 126.222656 L 39.78125 126.847656 C 40.21875 126.878906 40.375 127.128906 40.375 127.472656 C 40.375 127.785156 40.15625 128.035156 40.0625 128.160156 L 38.84375 129.722656 L 37.28125 127.691406 C 37.09375 127.503906 37.09375 127.472656 37.09375 127.347656 C 37.09375 127.035156 37.40625 126.847656 37.78125 126.847656 L 37.78125 126.222656 C 37.28125 126.253906 35.96875 126.285156 35.625 126.285156 C 35.21875 126.285156 34.28125 126.253906 33.75 126.222656 L 33.75 126.847656 C 35.15625 126.847656 35.15625 126.847656 36.09375 128.066406 L 38.0625 130.628906 L 36.1875 133.003906 C 35.25 134.160156 34.0625 134.191406 33.65625 134.191406 L 33.65625 134.816406 C 34.15625 134.785156 34.78125 134.753906 35.3125 134.753906 C 35.875 134.753906 36.71875 134.785156 37.1875 134.816406 L 37.1875 134.191406 C 36.75 134.128906 36.625 133.878906 36.625 133.566406 C 36.625 133.128906 37.1875 132.472656 38.40625 131.035156 L 39.9375 133.035156 C 40.09375 133.253906 40.34375 133.566406 40.34375 133.691406 C 40.34375 133.878906 40.15625 134.191406 39.625 134.191406 L 39.625 134.816406 C 40.21875 134.785156 41.34375 134.753906 41.78125 134.753906 C 42.3125 134.753906 43.09375 134.785156 43.6875 134.816406 L 43.6875 134.191406 C 42.625 134.191406 42.25 134.160156 41.8125 133.566406 Z M 39.125 130.128906 "/>
<path style="fill:none;stroke-width:0.566929;stroke-linecap:butt;stroke-linejoin:miter;stroke:rgb(100%,0%,0%);stroke-opacity:0.5;stroke-miterlimit:10;" d="M 37.427919 59.526682 L 43.097841 53.858714 " transform="matrix(2,0,0,2,5.952756,6.169291)"/>
<path style="fill:none;stroke-width:0.566929;stroke-linecap:butt;stroke-linejoin:miter;stroke:rgb(100%,0%,0%);stroke-opacity:0.5;stroke-miterlimit:10;" d="M 43.097841 59.526682 L 37.427919 53.858714 " transform="matrix(2,0,0,2,5.952756,6.169291)"/>
<path style="fill-rule:nonzero;fill:rgb(50%,50%,0%);fill-opacity:0.1;stroke-width:0.566929;stroke-linecap:butt;stroke-linejoin:miter;stroke:rgb(100%,0%,0%);stroke-opacity:0.5;stroke-miterlimit:10;" d="M 22.201356 69.92512 L 58.324403 69.92512 L 58.324403 56.692698 L 22.201356 56.692698 Z M 22.201356 69.92512 " transform="matrix(2,0,0,2,5.952756,6.169291)"/>
<path style="fill:none;stroke-width:0.566929;stroke-linecap:butt;stroke-linejoin:miter;stroke:rgb(100%,0%,0%);stroke-opacity:0.5;stroke-miterlimit:10;" d="M 22.201356 67.878245 L 27.871278 62.208323 " transform="matrix(2,0,0,2,5.952756,6.169291)"/>
<path style="fill:none;stroke-width:0.566929;stroke-linecap:butt;stroke-linejoin:miter;stroke:rgb(100%,0%,0%);stroke-opacity:0.5;stroke-miterlimit:10;" d="M 27.871278 67.878245 L 22.201356 62.208323 " transform="matrix(2,0,0,2,5.952756,6.169291)"/>
<path style="fill-rule:nonzero;fill:rgb(50%,50%,0%);fill-opacity:0.1;stroke-width:0.566929;stroke-linecap:butt;stroke-linejoin:miter;stroke:rgb(100%,0%,0%);stroke-opacity:0.5;stroke-miterlimit:10;" d="M 22.201356 69.92512 L 58.324403 69.92512 L 58.324403 56.692698 L 22.201356 56.692698 Z M 22.201356 69.92512 " transform="matrix(2,0,0,2,5.952756,6.169291)"/>
<path style="fill:none;stroke-width:0.566929;stroke-linecap:butt;stroke-linejoin:miter;stroke:rgb(100%,0%,0%);stroke-opacity:0.5;stroke-miterlimit:10;" d="M 22.201356 67.878245 L 27.871278 62.208323 " transform="matrix(2,0,0,2,5.952756,6.169291)"/>
<path style="fill:none;stroke-width:0.566929;stroke-linecap:butt;stroke-linejoin:miter;stroke:rgb(100%,0%,0%);stroke-opacity:0.5;stroke-miterlimit:10;" d="M 27.871278 67.878245 L 22.201356 62.208323 " transform="matrix(2,0,0,2,5.952756,6.169291)"/>
<path style="fill-rule:nonzero;fill:rgb(50%,50%,0%);fill-opacity:0.1;stroke-width:0.566929;stroke-linecap:butt;stroke-linejoin:miter;stroke:rgb(100%,0%,0%);stroke-opacity:0.5;stroke-miterlimit:10;" d="M 25.035341 67.089182 L 55.490419 67.089182 L 55.490419 59.526682 L 25.035341 59.526682 Z M 25.035341 67.089182 " transform="matrix(2,0,0,2,5.952756,6.169291)"/>
<path style=" stroke:none;fill-rule:nonzero;fill:rgb(0%,0%,0%);fill-opacity:1;" d="M 60.898438 131.816406 C 59.148438 131.816406 59.148438 129.816406 59.148438 129.378906 C 59.148438 128.847656 59.179688 128.191406 59.460938 127.691406 C 59.617188 127.472656 60.085938 126.910156 60.898438 126.910156 C 62.617188 126.910156 62.617188 128.878906 62.617188 129.347656 C 62.617188 129.878906 62.617188 130.535156 62.304688 131.035156 C 62.148438 131.253906 61.679688 131.816406 60.898438 131.816406 Z M 58.585938 132.597656 C 58.585938 132.535156 58.585938 132.066406 58.898438 131.660156 C 59.679688 132.222656 60.523438 132.285156 60.898438 132.285156 C 62.742188 132.285156 64.117188 130.910156 64.117188 129.378906 C 64.117188 128.628906 63.804688 127.910156 63.304688 127.441406 C 64.023438 126.753906 64.742188 126.660156 65.085938 126.660156 C 65.148438 126.660156 65.242188 126.660156 65.304688 126.691406 C 65.085938 126.753906 64.960938 126.972656 64.960938 127.222656 C 64.960938 127.566406 65.242188 127.785156 65.554688 127.785156 C 65.742188 127.785156 66.117188 127.660156 66.117188 127.191406 C 66.117188 126.847656 65.898438 126.222656 65.117188 126.222656 C 64.710938 126.222656 63.835938 126.347656 62.992188 127.160156 C 62.148438 126.503906 61.335938 126.441406 60.898438 126.441406 C 59.023438 126.441406 57.648438 127.816406 57.648438 129.347656 C 57.648438 130.222656 58.085938 130.972656 58.585938 131.410156 C 58.335938 131.691406 57.960938 132.347656 57.960938 133.066406 C 57.960938 133.691406 58.242188 134.441406 58.867188 134.847656 C 57.648438 135.160156 57.023438 136.035156 57.023438 136.816406 C 57.023438 138.253906 58.992188 139.347656 61.429688 139.347656 C 63.773438 139.347656 65.835938 138.347656 65.835938 136.785156 C 65.835938 136.097656 65.585938 135.066406 64.554688 134.503906 C 63.492188 133.972656 62.335938 133.972656 61.117188 133.972656 C 60.617188 133.972656 59.773438 133.972656 59.617188 133.941406 C 58.992188 133.847656 58.585938 133.253906 58.585938 132.597656 Z M 61.460938 138.910156 C 59.429688 138.910156 58.054688 137.878906 58.054688 136.816406 C 58.054688 135.910156 58.804688 135.160156 59.679688 135.128906 L 60.867188 135.128906 C 62.585938 135.128906 64.804688 135.128906 64.804688 136.816406 C 64.804688 137.910156 63.398438 138.910156 61.460938 138.910156 Z M 61.460938 138.910156 "/>
<path style=" stroke:none;fill-rule:nonzero;fill:rgb(0%,0%,0%);fill-opacity:1;" d="M 70.863281 131.816406 C 69.113281 131.816406 69.113281 129.816406 69.113281 129.378906 C 69.113281 128.847656 69.144531 128.191406 69.425781 127.691406 C 69.582031 127.472656 70.050781 126.910156 70.863281 126.910156 C 72.582031 126.910156 72.582031 128.878906 72.582031 129.347656 C 72.582031 129.878906 72.582031 130.535156 72.269531 131.035156 C 72.113281 131.253906 71.644531 131.816406 70.863281 131.816406 Z M 68.550781 132.597656 C 68.550781 132.535156 68.550781 132.066406 68.863281 131.660156 C 69.644531 132.222656 70.488281 132.285156 70.863281 132.285156 C 72.707031 132.285156 74.082031 130.910156 74.082031 129.378906 C 74.082031 128.628906 73.769531 127.910156 73.269531 127.441406 C 73.988281 126.753906 74.707031 126.660156 75.050781 126.660156 C 75.113281 126.660156 75.207031 126.660156 75.269531 126.691406 C 75.050781 126.753906 74.925781 126.972656 74.925781 127.222656 C 74.925781 127.566406 75.207031 127.785156 75.519531 127.785156 C 75.707031 127.785156 76.082031 127.660156 76.082031 127.191406 C 76.082031 126.847656 75.863281 126.222656 75.082031 126.222656 C 74.675781 126.222656 73.800781 126.347656 72.957031 127.160156 C 72.113281 126.503906 71.300781 126.441406 70.863281 126.441406 C 68.988281 126.441406 67.613281 127.816406 67.613281 129.347656 C 67.613281 130.222656 68.050781 130.972656 68.550781 131.410156 C 68.300781 131.691406 67.925781 132.347656 67.925781 133.066406 C 67.925781 133.691406 68.207031 134.441406 68.832031 134.847656 C 67.613281 135.160156 66.988281 136.035156 66.988281 136.816406 C 66.988281 138.253906 68.957031 139.347656 71.394531 139.347656 C 73.738281 139.347656 75.800781 138.347656 75.800781 136.785156 C 75.800781 136.097656 75.550781 135.066406 74.519531 134.503906 C 73.457031 133.972656 72.300781 133.972656 71.082031 133.972656 C 70.582031 133.972656 69.738281 133.972656 69.582031 133.941406 C 68.957031 133.847656 68.550781 133.253906 68.550781 132.597656 Z M 71.425781 138.910156 C 69.394531 138.910156 68.019531 137.878906 68.019531 136.816406 C 68.019531 135.910156 68.769531 135.160156 69.644531 135.128906 L 70.832031 135.128906 C 72.550781 135.128906 74.769531 135.128906 74.769531 136.816406 C 74.769531 137.910156 73.363281 138.910156 71.425781 138.910156 Z M 71.425781 138.910156 "/>
<path style=" stroke:none;fill-rule:nonzero;fill:rgb(0%,0%,0%);fill-opacity:1;" d="M 80.824219 131.816406 C 79.074219 131.816406 79.074219 129.816406 79.074219 129.378906 C 79.074219 128.847656 79.105469 128.191406 79.386719 127.691406 C 79.542969 127.472656 80.011719 126.910156 80.824219 126.910156 C 82.542969 126.910156 82.542969 128.878906 82.542969 129.347656 C 82.542969 129.878906 82.542969 130.535156 82.230469 131.035156 C 82.074219 131.253906 81.605469 131.816406 80.824219 131.816406 Z M 78.511719 132.597656 C 78.511719 132.535156 78.511719 132.066406 78.824219 131.660156 C 79.605469 132.222656 80.449219 132.285156 80.824219 132.285156 C 82.667969 132.285156 84.042969 130.910156 84.042969 129.378906 C 84.042969 128.628906 83.730469 127.910156 83.230469 127.441406 C 83.949219 126.753906 84.667969 126.660156 85.011719 126.660156 C 85.074219 126.660156 85.167969 126.660156 85.230469 126.691406 C 85.011719 126.753906 84.886719 126.972656 84.886719 127.222656 C 84.886719 127.566406 85.167969 127.785156 85.480469 127.785156 C 85.667969 127.785156 86.042969 127.660156 86.042969 127.191406 C 86.042969 126.847656 85.824219 126.222656 85.042969 126.222656 C 84.636719 126.222656 83.761719 126.347656 82.917969 127.160156 C 82.074219 126.503906 81.261719 126.441406 80.824219 126.441406 C 78.949219 126.441406 77.574219 127.816406 77.574219 129.347656 C 77.574219 130.222656 78.011719 130.972656 78.511719 131.410156 C 78.261719 131.691406 77.886719 132.347656 77.886719 133.066406 C 77.886719 133.691406 78.167969 134.441406 78.792969 134.847656 C 77.574219 135.160156 76.949219 136.035156 76.949219 136.816406 C 76.949219 138.253906 78.917969 139.347656 81.355469 139.347656 C 83.699219 139.347656 85.761719 138.347656 85.761719 136.785156 C 85.761719 136.097656 85.511719 135.066406 84.480469 134.503906 C 83.417969 133.972656 82.261719 133.972656 81.042969 133.972656 C 80.542969 133.972656 79.699219 133.972656 79.542969 133.941406 C 78.917969 133.847656 78.511719 133.253906 78.511719 132.597656 Z M 81.386719 138.910156 C 79.355469 138.910156 77.980469 137.878906 77.980469 136.816406 C 77.980469 135.910156 78.730469 135.160156 79.605469 135.128906 L 80.792969 135.128906 C 82.511719 135.128906 84.730469 135.128906 84.730469 136.816406 C 84.730469 137.910156 83.324219 138.910156 81.386719 138.910156 Z M 81.386719 138.910156 "/>
<path style=" stroke:none;fill-rule:nonzero;fill:rgb(0%,0%,0%);fill-opacity:1;" d="M 90.789062 131.816406 C 89.039062 131.816406 89.039062 129.816406 89.039062 129.378906 C 89.039062 128.847656 89.070312 128.191406 89.351562 127.691406 C 89.507812 127.472656 89.976562 126.910156 90.789062 126.910156 C 92.507812 126.910156 92.507812 128.878906 92.507812 129.347656 C 92.507812 129.878906 92.507812 130.535156 92.195312 131.035156 C 92.039062 131.253906 91.570312 131.816406 90.789062 131.816406 Z M 88.476562 132.597656 C 88.476562 132.535156 88.476562 132.066406 88.789062 131.660156 C 89.570312 132.222656 90.414062 132.285156 90.789062 132.285156 C 92.632812 132.285156 94.007812 130.910156 94.007812 129.378906 C 94.007812 128.628906 93.695312 127.910156 93.195312 127.441406 C 93.914062 126.753906 94.632812 126.660156 94.976562 126.660156 C 95.039062 126.660156 95.132812 126.660156 95.195312 126.691406 C 94.976562 126.753906 94.851562 126.972656 94.851562 127.222656 C 94.851562 127.566406 95.132812 127.785156 95.445312 127.785156 C 95.632812 127.785156 96.007812 127.660156 96.007812 127.191406 C 96.007812 126.847656 95.789062 126.222656 95.007812 126.222656 C 94.601562 126.222656 93.726562 126.347656 92.882812 127.160156 C 92.039062 126.503906 91.226562 126.441406 90.789062 126.441406 C 88.914062 126.441406 87.539062 127.816406 87.539062 129.347656 C 87.539062 130.222656 87.976562 130.972656 88.476562 131.410156 C 88.226562 131.691406 87.851562 132.347656 87.851562 133.066406 C 87.851562 133.691406 88.132812 134.441406 88.757812 134.847656 C 87.539062 135.160156 86.914062 136.035156 86.914062 136.816406 C 86.914062 138.253906 88.882812 139.347656 91.320312 139.347656 C 93.664062 139.347656 95.726562 138.347656 95.726562 136.785156 C 95.726562 136.097656 95.476562 135.066406 94.445312 134.503906 C 93.382812 133.972656 92.226562 133.972656 91.007812 133.972656 C 90.507812 133.972656 89.664062 133.972656 89.507812 133.941406 C 88.882812 133.847656 88.476562 133.253906 88.476562 132.597656 Z M 91.351562 138.910156 C 89.320312 138.910156 87.945312 137.878906 87.945312 136.816406 C 87.945312 135.910156 88.695312 135.160156 89.570312 135.128906 L 90.757812 135.128906 C 92.476562 135.128906 94.695312 135.128906 94.695312 136.816406 C 94.695312 137.910156 93.289062 138.910156 91.351562 138.910156 Z M 91.351562 138.910156 "/>
<path style=" stroke:none;fill-rule:nonzero;fill:rgb(0%,0%,0%);fill-opacity:1;" d="M 100.75 131.816406 C 99 131.816406 99 129.816406 99 129.378906 C 99 128.847656 99.03125 128.191406 99.3125 127.691406 C 99.46875 127.472656 99.9375 126.910156 100.75 126.910156 C 102.46875 126.910156 102.46875 128.878906 102.46875 129.347656 C 102.46875 129.878906 102.46875 130.535156 102.15625 131.035156 C 102 131.253906 101.53125 131.816406 100.75 131.816406 Z M 98.4375 132.597656 C 98.4375 132.535156 98.4375 132.066406 98.75 131.660156 C 99.53125 132.222656 100.375 132.285156 100.75 132.285156 C 102.59375 132.285156 103.96875 130.910156 103.96875 129.378906 C 103.96875 128.628906 103.65625 127.910156 103.15625 127.441406 C 103.875 126.753906 104.59375 126.660156 104.9375 126.660156 C 105 126.660156 105.09375 126.660156 105.15625 126.691406 C 104.9375 126.753906 104.8125 126.972656 104.8125 127.222656 C 104.8125 127.566406 105.09375 127.785156 105.40625 127.785156 C 105.59375 127.785156 105.96875 127.660156 105.96875 127.191406 C 105.96875 126.847656 105.75 126.222656 104.96875 126.222656 C 104.5625 126.222656 103.6875 126.347656 102.84375 127.160156 C 102 126.503906 101.1875 126.441406 100.75 126.441406 C 98.875 126.441406 97.5 127.816406 97.5 129.347656 C 97.5 130.222656 97.9375 130.972656 98.4375 131.410156 C 98.1875 131.691406 97.8125 132.347656 97.8125 133.066406 C 97.8125 133.691406 98.09375 134.441406 98.71875 134.847656 C 97.5 135.160156 96.875 136.035156 96.875 136.816406 C 96.875 138.253906 98.84375 139.347656 101.28125 139.347656 C 103.625 139.347656 105.6875 138.347656 105.6875 136.785156 C 105.6875 136.097656 105.4375 135.066406 104.40625 134.503906 C 103.34375 133.972656 102.1875 133.972656 100.96875 133.972656 C 100.46875 133.972656 99.625 133.972656 99.46875 133.941406 C 98.84375 133.847656 98.4375 133.253906 98.4375 132.597656 Z M 101.3125 138.910156 C 99.28125 138.910156 97.90625 137.878906 97.90625 136.816406 C 97.90625 135.910156 98.65625 135.160156 99.53125 135.128906 L 100.71875 135.128906 C 102.4375 135.128906 104.65625 135.128906 104.65625 136.816406 C 104.65625 137.910156 103.25 138.910156 101.3125 138.910156 Z M 101.3125 138.910156 "/>
<path style=" stroke:none;fill-rule:nonzero;fill:rgb(0%,0%,0%);fill-opacity:1;" d="M 110.714844 131.816406 C 108.964844 131.816406 108.964844 129.816406 108.964844 129.378906 C 108.964844 128.847656 108.996094 128.191406 109.277344 127.691406 C 109.433594 127.472656 109.902344 126.910156 110.714844 126.910156 C 112.433594 126.910156 112.433594 128.878906 112.433594 129.347656 C 112.433594 129.878906 112.433594 130.535156 112.121094 131.035156 C 111.964844 131.253906 111.496094 131.816406 110.714844 131.816406 Z M 108.402344 132.597656 C 108.402344 132.535156 108.402344 132.066406 108.714844 131.660156 C 109.496094 132.222656 110.339844 132.285156 110.714844 132.285156 C 112.558594 132.285156 113.933594 130.910156 113.933594 129.378906 C 113.933594 128.628906 113.621094 127.910156 113.121094 127.441406 C 113.839844 126.753906 114.558594 126.660156 114.902344 126.660156 C 114.964844 126.660156 115.058594 126.660156 115.121094 126.691406 C 114.902344 126.753906 114.777344 126.972656 114.777344 127.222656 C 114.777344 127.566406 115.058594 127.785156 115.371094 127.785156 C 115.558594 127.785156 115.933594 127.660156 115.933594 127.191406 C 115.933594 126.847656 115.714844 126.222656 114.933594 126.222656 C 114.527344 126.222656 113.652344 126.347656 112.808594 127.160156 C 111.964844 126.503906 111.152344 126.441406 110.714844 126.441406 C 108.839844 126.441406 107.464844 127.816406 107.464844 129.347656 C 107.464844 130.222656 107.902344 130.972656 108.402344 131.410156 C 108.152344 131.691406 107.777344 132.347656 107.777344 133.066406 C 107.777344 133.691406 108.058594 134.441406 108.683594 134.847656 C 107.464844 135.160156 106.839844 136.035156 106.839844 136.816406 C 106.839844 138.253906 108.808594 139.347656 111.246094 139.347656 C 113.589844 139.347656 115.652344 138.347656 115.652344 136.785156 C 115.652344 136.097656 115.402344 135.066406 114.371094 134.503906 C 113.308594 133.972656 112.152344 133.972656 110.933594 133.972656 C 110.433594 133.972656 109.589844 133.972656 109.433594 133.941406 C 108.808594 133.847656 108.402344 133.253906 108.402344 132.597656 Z M 111.277344 138.910156 C 109.246094 138.910156 107.871094 137.878906 107.871094 136.816406 C 107.871094 135.910156 108.621094 135.160156 109.496094 135.128906 L 110.683594 135.128906 C 112.402344 135.128906 114.621094 135.128906 114.621094 136.816406 C 114.621094 137.910156 113.214844 138.910156 111.277344 138.910156 Z M 111.277344 138.910156 "/>
<path style="fill:none;stroke-width:0.566929;stroke-linecap:butt;stroke-linejoin:miter;stroke:rgb(100%,0%,0%);stroke-opacity:0.5;stroke-miterlimit:10;" d="M 78.431825 59.526682 L 84.101747 53.858714 " transform="matrix(2,0,0,2,5.952756,6.169291)"/>
<path style="fill:none;stroke-width:0.566929;stroke-linecap:butt;stroke-linejoin:miter;stroke:rgb(100%,0%,0%);stroke-opacity:0.5;stroke-miterlimit:10;" d="M 84.101747 59.526682 L 78.431825 53.858714 " transform="matrix(2,0,0,2,5.952756,6.169291)"/>
<path style="fill-rule:nonzero;fill:rgb(50%,50%,0%);fill-opacity:0.1;stroke-width:0.566929;stroke-linecap:butt;stroke-linejoin:miter;stroke:rgb(100%,0%,0%);stroke-opacity:0.5;stroke-miterlimit:10;" d="M 58.324403 67.940745 L 104.209169 67.940745 L 104.209169 56.692698 L 58.324403 56.692698 Z M 58.324403 67.940745 " transform="matrix(2,0,0,2,5.952756,6.169291)"/>
<path style="fill:none;stroke-width:0.566929;stroke-linecap:butt;stroke-linejoin:miter;stroke:rgb(100%,0%,0%);stroke-opacity:0.5;stroke-miterlimit:10;" d="M 58.324403 67.83137 L 63.994325 62.161448 " transform="matrix(2,0,0,2,5.952756,6.169291)"/>
<path style="fill:none;stroke-width:0.566929;stroke-linecap:butt;stroke-linejoin:miter;stroke:rgb(100%,0%,0%);stroke-opacity:0.5;stroke-miterlimit:10;" d="M 63.994325 67.83137 L 58.324403 62.161448 " transform="matrix(2,0,0,2,5.952756,6.169291)"/>
<path style="fill-rule:nonzero;fill:rgb(50%,50%,0%);fill-opacity:0.1;stroke-width:0.566929;stroke-linecap:butt;stroke-linejoin:miter;stroke:rgb(100%,0%,0%);stroke-opacity:0.5;stroke-miterlimit:10;" d="M 58.324403 67.940745 L 104.209169 67.940745 L 104.209169 56.692698 L 58.324403 56.692698 Z M 58.324403 67.940745 " transform="matrix(2,0,0,2,5.952756,6.169291)"/>
<path style="fill:none;stroke-width:0.566929;stroke-linecap:butt;stroke-linejoin:miter;stroke:rgb(100%,0%,0%);stroke-opacity:0.5;stroke-miterlimit:10;" d="M 58.324403 67.83137 L 63.994325 62.161448 " transform="matrix(2,0,0,2,5.952756,6.169291)"/>
<path style="fill:none;stroke-width:0.566929;stroke-linecap:butt;stroke-linejoin:miter;stroke:rgb(100%,0%,0%);stroke-opacity:0.5;stroke-miterlimit:10;" d="M 63.994325 67.83137 L 58.324403 62.161448 " transform="matrix(2,0,0,2,5.952756,6.169291)"/>
<path style="fill-rule:nonzero;fill:rgb(50%,50%,0%);fill-opacity:0.1;stroke-width:0.566929;stroke-linecap:butt;stroke-linejoin:miter;stroke:rgb(100%,0%,0%);stroke-opacity:0.5;stroke-miterlimit:10;" d="M 61.158388 65.104807 L 101.375185 65.104807 L 101.375185 59.526682 L 61.158388 59.526682 Z M 61.158388 65.104807 " transform="matrix(2,0,0,2,5.952756,6.169291)"/>
<path style=" stroke:none;fill-rule:nonzero;fill:rgb(0%,0%,0%);fill-opacity:1;" d="M 130.925781 130.816406 C 130.925781 127.566406 132.550781 126.722656 133.613281 126.722656 C 133.800781 126.722656 135.050781 126.753906 135.738281 127.472656 C 134.925781 127.535156 134.800781 128.128906 134.800781 128.378906 C 134.800781 128.910156 135.175781 129.285156 135.707031 129.285156 C 136.238281 129.285156 136.644531 128.972656 136.644531 128.347656 C 136.644531 127.003906 135.113281 126.222656 133.582031 126.222656 C 131.082031 126.222656 129.269531 128.378906 129.269531 130.847656 C 129.269531 133.410156 131.238281 135.378906 133.550781 135.378906 C 136.207031 135.378906 136.863281 132.972656 136.863281 132.785156 C 136.863281 132.597656 136.644531 132.597656 136.582031 132.597656 C 136.425781 132.597656 136.363281 132.660156 136.332031 132.785156 C 135.769531 134.628906 134.457031 134.878906 133.738281 134.878906 C 132.675781 134.878906 130.925781 134.035156 130.925781 130.816406 Z M 130.925781 130.816406 "/>
<path style=" stroke:none;fill-rule:nonzero;fill:rgb(0%,0%,0%);fill-opacity:1;" d="M 139.78125 130.816406 C 139.78125 127.566406 141.40625 126.722656 142.46875 126.722656 C 142.65625 126.722656 143.90625 126.753906 144.59375 127.472656 C 143.78125 127.535156 143.65625 128.128906 143.65625 128.378906 C 143.65625 128.910156 144.03125 129.285156 144.5625 129.285156 C 145.09375 129.285156 145.5 128.972656 145.5 128.347656 C 145.5 127.003906 143.96875 126.222656 142.4375 126.222656 C 139.9375 126.222656 138.125 128.378906 138.125 130.847656 C 138.125 133.410156 140.09375 135.378906 142.40625 135.378906 C 145.0625 135.378906 145.71875 132.972656 145.71875 132.785156 C 145.71875 132.597656 145.5 132.597656 145.4375 132.597656 C 145.28125 132.597656 145.21875 132.660156 145.1875 132.785156 C 144.625 134.628906 143.3125 134.878906 142.59375 134.878906 C 141.53125 134.878906 139.78125 134.035156 139.78125 130.816406 Z M 139.78125 130.816406 "/>
<path style=" stroke:none;fill-rule:nonzero;fill:rgb(0%,0%,0%);fill-opacity:1;" d="M 148.636719 130.816406 C 148.636719 127.566406 150.261719 126.722656 151.324219 126.722656 C 151.511719 126.722656 152.761719 126.753906 153.449219 127.472656 C 152.636719 127.535156 152.511719 128.128906 152.511719 128.378906 C 152.511719 128.910156 152.886719 129.285156 153.417969 129.285156 C 153.949219 129.285156 154.355469 128.972656 154.355469 128.347656 C 154.355469 127.003906 152.824219 126.222656 151.292969 126.222656 C 148.792969 126.222656 146.980469 128.378906 146.980469 130.847656 C 146.980469 133.410156 148.949219 135.378906 151.261719 135.378906 C 153.917969 135.378906 154.574219 132.972656 154.574219 132.785156 C 154.574219 132.597656 154.355469 132.597656 154.292969 132.597656 C 154.136719 132.597656 154.074219 132.660156 154.042969 132.785156 C 153.480469 134.628906 152.167969 134.878906 151.449219 134.878906 C 150.386719 134.878906 148.636719 134.035156 148.636719 130.816406 Z M 148.636719 130.816406 "/>
<path style=" stroke:none;fill-rule:nonzero;fill:rgb(0%,0%,0%);fill-opacity:1;" d="M 157.492188 130.816406 C 157.492188 127.566406 159.117188 126.722656 160.179688 126.722656 C 160.367188 126.722656 161.617188 126.753906 162.304688 127.472656 C 161.492188 127.535156 161.367188 128.128906 161.367188 128.378906 C 161.367188 128.910156 161.742188 129.285156 162.273438 129.285156 C 162.804688 129.285156 163.210938 128.972656 163.210938 128.347656 C 163.210938 127.003906 161.679688 126.222656 160.148438 126.222656 C 157.648438 126.222656 155.835938 128.378906 155.835938 130.847656 C 155.835938 133.410156 157.804688 135.378906 160.117188 135.378906 C 162.773438 135.378906 163.429688 132.972656 163.429688 132.785156 C 163.429688 132.597656 163.210938 132.597656 163.148438 132.597656 C 162.992188 132.597656 162.929688 132.660156 162.898438 132.785156 C 162.335938 134.628906 161.023438 134.878906 160.304688 134.878906 C 159.242188 134.878906 157.492188 134.035156 157.492188 130.816406 Z M 157.492188 130.816406 "/>
<path style=" stroke:none;fill-rule:nonzero;fill:rgb(0%,0%,0%);fill-opacity:1;" d="M 166.34375 130.816406 C 166.34375 127.566406 167.96875 126.722656 169.03125 126.722656 C 169.21875 126.722656 170.46875 126.753906 171.15625 127.472656 C 170.34375 127.535156 170.21875 128.128906 170.21875 128.378906 C 170.21875 128.910156 170.59375 129.285156 171.125 129.285156 C 171.65625 129.285156 172.0625 128.972656 172.0625 128.347656 C 172.0625 127.003906 170.53125 126.222656 169 126.222656 C 166.5 126.222656 164.6875 128.378906 164.6875 130.847656 C 164.6875 133.410156 166.65625 135.378906 168.96875 135.378906 C 171.625 135.378906 172.28125 132.972656 172.28125 132.785156 C 172.28125 132.597656 172.0625 132.597656 172 132.597656 C 171.84375 132.597656 171.78125 132.660156 171.75 132.785156 C 171.1875 134.628906 169.875 134.878906 169.15625 134.878906 C 168.09375 134.878906 166.34375 134.035156 166.34375 130.816406 Z M 166.34375 130.816406 "/>
<path style=" stroke:none;fill-rule:nonzero;fill:rgb(0%,0%,0%);fill-opacity:1;" d="M 175.199219 130.816406 C 175.199219 127.566406 176.824219 126.722656 177.886719 126.722656 C 178.074219 126.722656 179.324219 126.753906 180.011719 127.472656 C 179.199219 127.535156 179.074219 128.128906 179.074219 128.378906 C 179.074219 128.910156 179.449219 129.285156 179.980469 129.285156 C 180.511719 129.285156 180.917969 128.972656 180.917969 128.347656 C 180.917969 127.003906 179.386719 126.222656 177.855469 126.222656 C 175.355469 126.222656 173.542969 128.378906 173.542969 130.847656 C 173.542969 133.410156 175.511719 135.378906 177.824219 135.378906 C 180.480469 135.378906 181.136719 132.972656 181.136719 132.785156 C 181.136719 132.597656 180.917969 132.597656 180.855469 132.597656 C 180.699219 132.597656 180.636719 132.660156 180.605469 132.785156 C 180.042969 134.628906 178.730469 134.878906 178.011719 134.878906 C 176.949219 134.878906 175.199219 134.035156 175.199219 130.816406 Z M 175.199219 130.816406 "/>
<path style=" stroke:none;fill-rule:nonzero;fill:rgb(0%,0%,0%);fill-opacity:1;" d="M 184.054688 130.816406 C 184.054688 127.566406 185.679688 126.722656 186.742188 126.722656 C 186.929688 126.722656 188.179688 126.753906 188.867188 127.472656 C 188.054688 127.535156 187.929688 128.128906 187.929688 128.378906 C 187.929688 128.910156 188.304688 129.285156 188.835938 129.285156 C 189.367188 129.285156 189.773438 128.972656 189.773438 128.347656 C 189.773438 127.003906 188.242188 126.222656 186.710938 126.222656 C 184.210938 126.222656 182.398438 128.378906 182.398438 130.847656 C 182.398438 133.410156 184.367188 135.378906 186.679688 135.378906 C 189.335938 135.378906 189.992188 132.972656 189.992188 132.785156 C 189.992188 132.597656 189.773438 132.597656 189.710938 132.597656 C 189.554688 132.597656 189.492188 132.660156 189.460938 132.785156 C 188.898438 134.628906 187.585938 134.878906 186.867188 134.878906 C 185.804688 134.878906 184.054688 134.035156 184.054688 130.816406 Z M 184.054688 130.816406 "/>
<path style=" stroke:none;fill-rule:nonzero;fill:rgb(0%,0%,0%);fill-opacity:1;" d="M 192.910156 130.816406 C 192.910156 127.566406 194.535156 126.722656 195.597656 126.722656 C 195.785156 126.722656 197.035156 126.753906 197.722656 127.472656 C 196.910156 127.535156 196.785156 128.128906 196.785156 128.378906 C 196.785156 128.910156 197.160156 129.285156 197.691406 129.285156 C 198.222656 129.285156 198.628906 128.972656 198.628906 128.347656 C 198.628906 127.003906 197.097656 126.222656 195.566406 126.222656 C 193.066406 126.222656 191.253906 128.378906 191.253906 130.847656 C 191.253906 133.410156 193.222656 135.378906 195.535156 135.378906 C 198.191406 135.378906 198.847656 132.972656 198.847656 132.785156 C 198.847656 132.597656 198.628906 132.597656 198.566406 132.597656 C 198.410156 132.597656 198.347656 132.660156 198.316406 132.785156 C 197.753906 134.628906 196.441406 134.878906 195.722656 134.878906 C 194.660156 134.878906 192.910156 134.035156 192.910156 130.816406 Z M 192.910156 130.816406 "/>
<path style=" stroke:none;fill-rule:nonzero;fill:rgb(0%,0%,0%);fill-opacity:1;" d="M 201.765625 130.816406 C 201.765625 127.566406 203.390625 126.722656 204.453125 126.722656 C 204.640625 126.722656 205.890625 126.753906 206.578125 127.472656 C 205.765625 127.535156 205.640625 128.128906 205.640625 128.378906 C 205.640625 128.910156 206.015625 129.285156 206.546875 129.285156 C 207.078125 129.285156 207.484375 128.972656 207.484375 128.347656 C 207.484375 127.003906 205.953125 126.222656 204.421875 126.222656 C 201.921875 126.222656 200.109375 128.378906 200.109375 130.847656 C 200.109375 133.410156 202.078125 135.378906 204.390625 135.378906 C 207.046875 135.378906 207.703125 132.972656 207.703125 132.785156 C 207.703125 132.597656 207.484375 132.597656 207.421875 132.597656 C 207.265625 132.597656 207.203125 132.660156 207.171875 132.785156 C 206.609375 134.628906 205.296875 134.878906 204.578125 134.878906 C 203.515625 134.878906 201.765625 134.035156 201.765625 130.816406 Z M 201.765625 130.816406 "/>
<path style="fill:none;stroke-width:0.566929;stroke-linecap:butt;stroke-linejoin:miter;stroke:rgb(100%,0%,0%);stroke-opacity:0.5;stroke-miterlimit:10;" d="M 101.375185 59.526682 L 107.043153 53.858714 " transform="matrix(2,0,0,2,5.952756,6.169291)"/>
<path style="fill:none;stroke-width:0.566929;stroke-linecap:butt;stroke-linejoin:miter;stroke:rgb(100%,0%,0%);stroke-opacity:0.5;stroke-miterlimit:10;" d="M 107.043153 59.526682 L 101.375185 53.858714 " transform="matrix(2,0,0,2,5.952756,6.169291)"/>
<path style="fill:none;stroke-width:0.566929;stroke-linecap:butt;stroke-linejoin:miter;stroke:rgb(100%,0%,0%);stroke-opacity:0.5;stroke-miterlimit:10;" d="M 104.209169 85.038401 L 104.209169 56.692698 Z M 104.209169 85.038401 " transform="matrix(2,0,0,2,5.952756,6.169291)"/>
</g>
</svg>
