<?xml version="1.0" encoding="UTF-8"?>
<svg xmlns="http://www.w3.org/2000/svg" xmlns:xlink="http://www.w3.org/1999/xlink" width="223.077984pt" height="256.397129pt" viewBox="0 0 223.077984 256.397129" version="1.1">
<g id="surface65">
<path style="fill:none;stroke-width:0.566929;stroke-linecap:butt;stroke-linejoin:miter;stroke:rgb(100%,0%,0%);stroke-opacity:0.5;stroke-miterlimit:10;" d="M -2.8338 2.834169 L 2.834169 -2.8338 " transform="matrix(2,0,0,2,5.952756,5.952756)"/>
<path style="fill:none;stroke-width:0.566929;stroke-linecap:butt;stroke-linejoin:miter;stroke:rgb(100%,0%,0%);stroke-opacity:0.5;stroke-miterlimit:10;" d="M 2.834169 2.834169 L -2.8338 -2.8338 " transform="matrix(2,0,0,2,5.952756,5.952756)"/>
<path style="fill-rule:nonzero;fill:rgb(50%,50%,0%);fill-opacity:0.1;stroke-width:0.566929;stroke-linecap:butt;stroke-linejoin:miter;stroke:rgb(100%,0%,0%);stroke-opacity:0.5;stroke-miterlimit:10;" d="M 0.000184547 125.080263 L 108.420106 125.080263 L 108.420106 0.000184547 L 0.000184547 0.000184547 Z M 0.000184547 125.080263 " transform="matrix(2,0,0,2,5.952756,5.952756)"/>
<path style="fill:none;stroke-width:0.566929;stroke-linecap:butt;stroke-linejoin:miter;stroke:rgb(100%,0%,0%);stroke-opacity:0.5;stroke-miterlimit:10;" d="M 12.289247 29.45331 L 17.957216 23.785341 " transform="matrix(2,0,0,2,5.952756,5.952756)"/>
<path style="fill:none;stroke-width:0.566929;stroke-linecap:butt;stroke-linejoin:miter;stroke:rgb(100%,0%,0%);stroke-opacity:0.5;stroke-miterlimit:10;" d="M 17.957216 29.45331 L 12.289247 23.785341 " transform="matrix(2,0,0,2,5.952756,5.952756)"/>
<path style="fill-rule:nonzero;fill:rgb(50%,50%,0%);fill-opacity:0.1;stroke-width:0.566929;stroke-linecap:butt;stroke-linejoin:miter;stroke:rgb(100%,0%,0%);stroke-opacity:0.5;stroke-miterlimit:10;" d="M 0.000184547 35.804872 L 37.045106 35.804872 L 37.045106 16.406435 L 0.000184547 16.406435 Z M 0.000184547 35.804872 " transform="matrix(2,0,0,2,5.952756,5.952756)"/>
<path style="fill:none;stroke-width:0.566929;stroke-linecap:butt;stroke-linejoin:miter;stroke:rgb(100%,0%,0%);stroke-opacity:0.5;stroke-miterlimit:10;" d="M 57.757997 29.45331 L 63.425966 23.785341 " transform="matrix(2,0,0,2,5.952756,5.952756)"/>
<path style="fill:none;stroke-width:0.566929;stroke-linecap:butt;stroke-linejoin:miter;stroke:rgb(100%,0%,0%);stroke-opacity:0.5;stroke-miterlimit:10;" d="M 63.425966 29.45331 L 57.757997 23.785341 " transform="matrix(2,0,0,2,5.952756,5.952756)"/>
<path style="fill-rule:nonzero;fill:rgb(50%,50%,0%);fill-opacity:0.1;stroke-width:0.566929;stroke-linecap:butt;stroke-linejoin:miter;stroke:rgb(100%,0%,0%);stroke-opacity:0.5;stroke-miterlimit:10;" d="M 52.816591 43.148622 L 70.252138 43.148622 L 70.252138 0.131044 L 52.816591 0.131044 Z M 52.816591 43.148622 " transform="matrix(2,0,0,2,5.952756,5.952756)"/>
<path style="fill:none;stroke-width:0.566929;stroke-linecap:butt;stroke-linejoin:miter;stroke:rgb(100%,0%,0%);stroke-opacity:0.5;stroke-miterlimit:10;" d="M 92.552919 29.45331 L 98.220888 23.785341 " transform="matrix(2,0,0,2,5.952756,5.952756)"/>
<path style="fill:none;stroke-width:0.566929;stroke-linecap:butt;stroke-linejoin:miter;stroke:rgb(100%,0%,0%);stroke-opacity:0.5;stroke-miterlimit:10;" d="M 98.220888 29.45331 L 92.552919 23.785341 " transform="matrix(2,0,0,2,5.952756,5.952756)"/>
<path style="fill-rule:nonzero;fill:rgb(50%,50%,0%);fill-opacity:0.1;stroke-width:0.566929;stroke-linecap:butt;stroke-linejoin:miter;stroke:rgb(100%,0%,0%);stroke-opacity:0.5;stroke-miterlimit:10;" d="M 78.674013 40.216981 L 108.420106 40.216981 L 108.420106 0.000184547 L 78.674013 0.000184547 Z M 78.674013 40.216981 " transform="matrix(2,0,0,2,5.952756,5.952756)"/>
<path style="fill:none;stroke-width:0.566929;stroke-linecap:butt;stroke-linejoin:miter;stroke:rgb(100%,0%,0%);stroke-opacity:0.5;stroke-miterlimit:10;" d="M 12.289247 71.886903 L 17.957216 66.216981 " transform="matrix(2,0,0,2,5.952756,5.952756)"/>
<path style="fill:none;stroke-width:0.566929;stroke-linecap:butt;stroke-linejoin:miter;stroke:rgb(100%,0%,0%);stroke-opacity:0.5;stroke-miterlimit:10;" d="M 17.957216 71.886903 L 12.289247 66.216981 " transform="matrix(2,0,0,2,5.952756,5.952756)"/>
<path style="fill-rule:nonzero;fill:rgb(50%,50%,0%);fill-opacity:0.1;stroke-width:0.566929;stroke-linecap:butt;stroke-linejoin:miter;stroke:rgb(100%,0%,0%);stroke-opacity:0.5;stroke-miterlimit:10;" d="M 7.632997 82.627138 L 24.9787 82.627138 L 24.9787 58.718935 L 7.632997 58.718935 Z M 7.632997 82.627138 " transform="matrix(2,0,0,2,5.952756,5.952756)"/>
<path style="fill:none;stroke-width:0.566929;stroke-linecap:butt;stroke-linejoin:miter;stroke:rgb(100%,0%,0%);stroke-opacity:0.5;stroke-miterlimit:10;" d="M 57.757997 71.886903 L 63.425966 66.216981 " transform="matrix(2,0,0,2,5.952756,5.952756)"/>
<path style="fill:none;stroke-width:0.566929;stroke-linecap:butt;stroke-linejoin:miter;stroke:rgb(100%,0%,0%);stroke-opacity:0.5;stroke-miterlimit:10;" d="M 63.425966 71.886903 L 57.757997 66.216981 " transform="matrix(2,0,0,2,5.952756,5.952756)"/>
<path style="fill-rule:nonzero;fill:rgb(50%,50%,0%);fill-opacity:0.1;stroke-width:0.566929;stroke-linecap:butt;stroke-linejoin:miter;stroke:rgb(100%,0%,0%);stroke-opacity:0.5;stroke-miterlimit:10;" d="M 37.045106 76.179872 L 78.674013 76.179872 L 78.674013 60.711122 L 37.045106 60.711122 Z M 37.045106 76.179872 " transform="matrix(2,0,0,2,5.952756,5.952756)"/>
<path style="fill:none;stroke-width:0.566929;stroke-linecap:butt;stroke-linejoin:miter;stroke:rgb(100%,0%,0%);stroke-opacity:0.5;stroke-miterlimit:10;" d="M 92.552919 71.886903 L 98.220888 66.216981 " transform="matrix(2,0,0,2,5.952756,5.952756)"/>
<path style="fill:none;stroke-width:0.566929;stroke-linecap:butt;stroke-linejoin:miter;stroke:rgb(100%,0%,0%);stroke-opacity:0.5;stroke-miterlimit:10;" d="M 98.220888 71.886903 L 92.552919 66.216981 " transform="matrix(2,0,0,2,5.952756,5.952756)"/>
<path style="fill-rule:nonzero;fill:rgb(50%,50%,0%);fill-opacity:0.1;stroke-width:0.566929;stroke-linecap:butt;stroke-linejoin:miter;stroke:rgb(100%,0%,0%);stroke-opacity:0.5;stroke-miterlimit:10;" d="M 80.920106 77.480653 L 107.550966 77.480653 L 107.550966 43.148622 L 80.920106 43.148622 Z M 80.920106 77.480653 " transform="matrix(2,0,0,2,5.952756,5.952756)"/>
<path style="fill:none;stroke-width:0.566929;stroke-linecap:butt;stroke-linejoin:miter;stroke:rgb(100%,0%,0%);stroke-opacity:0.5;stroke-miterlimit:10;" d="M 12.289247 102.888856 L 17.957216 97.218935 " transform="matrix(2,0,0,2,5.952756,5.952756)"/>
<path style="fill:none;stroke-width:0.566929;stroke-linecap:butt;stroke-linejoin:miter;stroke:rgb(100%,0%,0%);stroke-opacity:0.5;stroke-miterlimit:10;" d="M 17.957216 102.888856 L 12.289247 97.218935 " transform="matrix(2,0,0,2,5.952756,5.952756)"/>
<path style="fill-rule:nonzero;fill:rgb(50%,50%,0%);fill-opacity:0.1;stroke-width:0.566929;stroke-linecap:butt;stroke-linejoin:miter;stroke:rgb(100%,0%,0%);stroke-opacity:0.5;stroke-miterlimit:10;" d="M 0.349794 115.951356 L 22.486513 115.951356 L 22.486513 92.580263 L 0.349794 92.580263 Z M 0.349794 115.951356 " transform="matrix(2,0,0,2,5.952756,5.952756)"/>
<path style="fill:none;stroke-width:0.566929;stroke-linecap:butt;stroke-linejoin:miter;stroke:rgb(100%,0%,0%);stroke-opacity:0.5;stroke-miterlimit:10;" d="M 57.757997 102.888856 L 63.425966 97.218935 " transform="matrix(2,0,0,2,5.952756,5.952756)"/>
<path style="fill:none;stroke-width:0.566929;stroke-linecap:butt;stroke-linejoin:miter;stroke:rgb(100%,0%,0%);stroke-opacity:0.5;stroke-miterlimit:10;" d="M 63.425966 102.888856 L 57.757997 97.218935 " transform="matrix(2,0,0,2,5.952756,5.952756)"/>
<path style="fill-rule:nonzero;fill:rgb(50%,50%,0%);fill-opacity:0.1;stroke-width:0.566929;stroke-linecap:butt;stroke-linejoin:miter;stroke:rgb(100%,0%,0%);stroke-opacity:0.5;stroke-miterlimit:10;" d="M 47.761903 125.080263 L 73.57245 125.080263 L 73.57245 82.63495 L 47.761903 82.63495 Z M 47.761903 125.080263 " transform="matrix(2,0,0,2,5.952756,5.952756)"/>
<path style="fill:none;stroke-width:0.566929;stroke-linecap:butt;stroke-linejoin:miter;stroke:rgb(100%,0%,0%);stroke-opacity:0.5;stroke-miterlimit:10;" d="M 92.552919 102.888856 L 98.220888 97.218935 " transform="matrix(2,0,0,2,5.952756,5.952756)"/>
<path style="fill:none;stroke-width:0.566929;stroke-linecap:butt;stroke-linejoin:miter;stroke:rgb(100%,0%,0%);stroke-opacity:0.5;stroke-miterlimit:10;" d="M 98.220888 102.888856 L 92.552919 97.218935 " transform="matrix(2,0,0,2,5.952756,5.952756)"/>
<path style="fill-rule:nonzero;fill:rgb(50%,50%,0%);fill-opacity:0.1;stroke-width:0.566929;stroke-linecap:butt;stroke-linejoin:miter;stroke:rgb(100%,0%,0%);stroke-opacity:0.5;stroke-miterlimit:10;" d="M 85.019716 108.670106 L 101.7287 108.670106 L 101.7287 82.627138 L 85.019716 82.627138 Z M 85.019716 108.670106 " transform="matrix(2,0,0,2,5.952756,5.952756)"/>
</g>
</svg>
