<?xml version="1.0" encoding="UTF-8"?>
<svg xmlns="http://www.w3.org/2000/svg" xmlns:xlink="http://www.w3.org/1999/xlink" width="248.611666pt" height="274.026773pt" viewBox="0 0 248.611666 274.026773" version="1.1">
<g id="surface57">
<path style="fill:none;stroke-width:0.566929;stroke-linecap:butt;stroke-linejoin:miter;stroke:rgb(100%,0%,0%);stroke-opacity:0.5;stroke-miterlimit:10;" d="M -2.8338 2.834169 L 2.834169 -2.8338 " transform="matrix(2,0,0,2,5.952756,5.952756)"/>
<path style="fill:none;stroke-width:0.566929;stroke-linecap:butt;stroke-linejoin:miter;stroke:rgb(100%,0%,0%);stroke-opacity:0.5;stroke-miterlimit:10;" d="M 2.834169 2.834169 L -2.8338 -2.8338 " transform="matrix(2,0,0,2,5.952756,5.952756)"/>
<path style="fill-rule:nonzero;fill:rgb(50%,50%,0%);fill-opacity:0.1;stroke-width:0.566929;stroke-linecap:butt;stroke-linejoin:miter;stroke:rgb(100%,0%,0%);stroke-opacity:0.5;stroke-miterlimit:10;" d="M 0.000184547 133.894716 L 121.187685 133.894716 L 121.187685 0.000184547 L 0.000184547 0.000184547 Z M 0.000184547 133.894716 " transform="matrix(2,0,0,2,5.952756,5.952756)"/>
<path style="fill:none;stroke-width:0.566929;stroke-linecap:butt;stroke-linejoin:miter;stroke:rgb(100%,0%,0%);stroke-opacity:0.5;stroke-miterlimit:10;" d="M 22.13495 26.783388 L 27.804872 21.113466 " transform="matrix(2,0,0,2,5.952756,5.952756)"/>
<path style="fill:none;stroke-width:0.566929;stroke-linecap:butt;stroke-linejoin:miter;stroke:rgb(100%,0%,0%);stroke-opacity:0.5;stroke-miterlimit:10;" d="M 27.804872 26.783388 L 22.13495 21.113466 " transform="matrix(2,0,0,2,5.952756,5.952756)"/>
<path style="fill-rule:nonzero;fill:rgb(50%,50%,0%);fill-opacity:0.1;stroke-width:0.566929;stroke-linecap:butt;stroke-linejoin:miter;stroke:rgb(100%,0%,0%);stroke-opacity:0.5;stroke-miterlimit:10;" d="M 0.0822158 44.826356 L 52.443544 44.826356 L 52.443544 0.000184547 L 0.0822158 0.000184547 Z M 0.0822158 44.826356 " transform="matrix(2,0,0,2,5.952756,5.952756)"/>
<path style="fill:none;stroke-width:0.566929;stroke-linecap:butt;stroke-linejoin:miter;stroke:rgb(100%,0%,0%);stroke-opacity:0.5;stroke-miterlimit:10;" d="M 73.988466 26.783388 L 79.656435 21.113466 " transform="matrix(2,0,0,2,5.952756,5.952756)"/>
<path style="fill:none;stroke-width:0.566929;stroke-linecap:butt;stroke-linejoin:miter;stroke:rgb(100%,0%,0%);stroke-opacity:0.5;stroke-miterlimit:10;" d="M 79.656435 26.783388 L 73.988466 21.113466 " transform="matrix(2,0,0,2,5.952756,5.952756)"/>
<path style="fill-rule:nonzero;fill:rgb(50%,50%,0%);fill-opacity:0.1;stroke-width:0.566929;stroke-linecap:butt;stroke-linejoin:miter;stroke:rgb(100%,0%,0%);stroke-opacity:0.5;stroke-miterlimit:10;" d="M 52.443544 30.463075 L 86.910341 30.463075 L 86.910341 1.873231 L 52.443544 1.873231 Z M 52.443544 30.463075 " transform="matrix(2,0,0,2,5.952756,5.952756)"/>
<path style="fill:none;stroke-width:0.566929;stroke-linecap:butt;stroke-linejoin:miter;stroke:rgb(100%,0%,0%);stroke-opacity:0.5;stroke-miterlimit:10;" d="M 109.1037 26.783388 L 114.771669 21.113466 " transform="matrix(2,0,0,2,5.952756,5.952756)"/>
<path style="fill:none;stroke-width:0.566929;stroke-linecap:butt;stroke-linejoin:miter;stroke:rgb(100%,0%,0%);stroke-opacity:0.5;stroke-miterlimit:10;" d="M 114.771669 26.783388 L 109.1037 21.113466 " transform="matrix(2,0,0,2,5.952756,5.952756)"/>
<path style="fill-rule:nonzero;fill:rgb(50%,50%,0%);fill-opacity:0.1;stroke-width:0.566929;stroke-linecap:butt;stroke-linejoin:miter;stroke:rgb(100%,0%,0%);stroke-opacity:0.5;stroke-miterlimit:10;" d="M 106.193544 37.355653 L 118.248231 37.355653 L 118.248231 9.220888 L 106.193544 9.220888 Z M 106.193544 37.355653 " transform="matrix(2,0,0,2,5.952756,5.952756)"/>
<path style="fill:none;stroke-width:0.566929;stroke-linecap:butt;stroke-linejoin:miter;stroke:rgb(100%,0%,0%);stroke-opacity:0.5;stroke-miterlimit:10;" d="M 22.13495 72.654481 L 27.804872 66.98456 " transform="matrix(2,0,0,2,5.952756,5.952756)"/>
<path style="fill:none;stroke-width:0.566929;stroke-linecap:butt;stroke-linejoin:miter;stroke:rgb(100%,0%,0%);stroke-opacity:0.5;stroke-miterlimit:10;" d="M 27.804872 72.654481 L 22.13495 66.98456 " transform="matrix(2,0,0,2,5.952756,5.952756)"/>
<path style="fill-rule:nonzero;fill:rgb(50%,50%,0%);fill-opacity:0.1;stroke-width:0.566929;stroke-linecap:butt;stroke-linejoin:miter;stroke:rgb(100%,0%,0%);stroke-opacity:0.5;stroke-miterlimit:10;" d="M 1.240419 89.254091 L 43.281435 89.254091 L 43.281435 49.996278 L 1.240419 49.996278 Z M 1.240419 89.254091 " transform="matrix(2,0,0,2,5.952756,5.952756)"/>
<path style="fill:none;stroke-width:0.566929;stroke-linecap:butt;stroke-linejoin:miter;stroke:rgb(100%,0%,0%);stroke-opacity:0.5;stroke-miterlimit:10;" d="M 73.988466 72.654481 L 79.656435 66.98456 " transform="matrix(2,0,0,2,5.952756,5.952756)"/>
<path style="fill:none;stroke-width:0.566929;stroke-linecap:butt;stroke-linejoin:miter;stroke:rgb(100%,0%,0%);stroke-opacity:0.5;stroke-miterlimit:10;" d="M 79.656435 72.654481 L 73.988466 66.98456 " transform="matrix(2,0,0,2,5.952756,5.952756)"/>
<path style="fill-rule:nonzero;fill:rgb(50%,50%,0%);fill-opacity:0.1;stroke-width:0.566929;stroke-linecap:butt;stroke-linejoin:miter;stroke:rgb(100%,0%,0%);stroke-opacity:0.5;stroke-miterlimit:10;" d="M 59.869325 76.894716 L 88.060731 76.894716 L 88.060731 59.711122 L 59.869325 59.711122 Z M 59.869325 76.894716 " transform="matrix(2,0,0,2,5.952756,5.952756)"/>
<path style="fill:none;stroke-width:0.566929;stroke-linecap:butt;stroke-linejoin:miter;stroke:rgb(100%,0%,0%);stroke-opacity:0.5;stroke-miterlimit:10;" d="M 109.1037 72.654481 L 114.771669 66.98456 " transform="matrix(2,0,0,2,5.952756,5.952756)"/>
<path style="fill:none;stroke-width:0.566929;stroke-linecap:butt;stroke-linejoin:miter;stroke:rgb(100%,0%,0%);stroke-opacity:0.5;stroke-miterlimit:10;" d="M 114.771669 72.654481 L 109.1037 66.98456 " transform="matrix(2,0,0,2,5.952756,5.952756)"/>
<path style="fill-rule:nonzero;fill:rgb(50%,50%,0%);fill-opacity:0.1;stroke-width:0.566929;stroke-linecap:butt;stroke-linejoin:miter;stroke:rgb(100%,0%,0%);stroke-opacity:0.5;stroke-miterlimit:10;" d="M 97.193544 85.816591 L 121.187685 85.816591 L 121.187685 44.826356 L 97.193544 44.826356 Z M 97.193544 85.816591 " transform="matrix(2,0,0,2,5.952756,5.952756)"/>
<path style="fill:none;stroke-width:0.566929;stroke-linecap:butt;stroke-linejoin:miter;stroke:rgb(100%,0%,0%);stroke-opacity:0.5;stroke-miterlimit:10;" d="M 22.13495 115.849794 L 27.804872 110.179872 " transform="matrix(2,0,0,2,5.952756,5.952756)"/>
<path style="fill:none;stroke-width:0.566929;stroke-linecap:butt;stroke-linejoin:miter;stroke:rgb(100%,0%,0%);stroke-opacity:0.5;stroke-miterlimit:10;" d="M 27.804872 115.849794 L 22.13495 110.179872 " transform="matrix(2,0,0,2,5.952756,5.952756)"/>
<path style="fill-rule:nonzero;fill:rgb(50%,50%,0%);fill-opacity:0.1;stroke-width:0.566929;stroke-linecap:butt;stroke-linejoin:miter;stroke:rgb(100%,0%,0%);stroke-opacity:0.5;stroke-miterlimit:10;" d="M 0.000184547 126.771669 L 46.752138 126.771669 L 46.752138 101.550966 L 0.000184547 101.550966 Z M 0.000184547 126.771669 " transform="matrix(2,0,0,2,5.952756,5.952756)"/>
<path style="fill:none;stroke-width:0.566929;stroke-linecap:butt;stroke-linejoin:miter;stroke:rgb(100%,0%,0%);stroke-opacity:0.5;stroke-miterlimit:10;" d="M 73.988466 115.849794 L 79.656435 110.179872 " transform="matrix(2,0,0,2,5.952756,5.952756)"/>
<path style="fill:none;stroke-width:0.566929;stroke-linecap:butt;stroke-linejoin:miter;stroke:rgb(100%,0%,0%);stroke-opacity:0.5;stroke-miterlimit:10;" d="M 79.656435 115.849794 L 73.988466 110.179872 " transform="matrix(2,0,0,2,5.952756,5.952756)"/>
<path style="fill-rule:nonzero;fill:rgb(50%,50%,0%);fill-opacity:0.1;stroke-width:0.566929;stroke-linecap:butt;stroke-linejoin:miter;stroke:rgb(100%,0%,0%);stroke-opacity:0.5;stroke-miterlimit:10;" d="M 64.215028 131.507997 L 82.810731 131.507997 L 82.810731 89.254091 L 64.215028 89.254091 Z M 64.215028 131.507997 " transform="matrix(2,0,0,2,5.952756,5.952756)"/>
<path style="fill:none;stroke-width:0.566929;stroke-linecap:butt;stroke-linejoin:miter;stroke:rgb(100%,0%,0%);stroke-opacity:0.5;stroke-miterlimit:10;" d="M 109.1037 115.849794 L 114.771669 110.179872 " transform="matrix(2,0,0,2,5.952756,5.952756)"/>
<path style="fill:none;stroke-width:0.566929;stroke-linecap:butt;stroke-linejoin:miter;stroke:rgb(100%,0%,0%);stroke-opacity:0.5;stroke-miterlimit:10;" d="M 114.771669 115.849794 L 109.1037 110.179872 " transform="matrix(2,0,0,2,5.952756,5.952756)"/>
<path style="fill-rule:nonzero;fill:rgb(50%,50%,0%);fill-opacity:0.1;stroke-width:0.566929;stroke-linecap:butt;stroke-linejoin:miter;stroke:rgb(100%,0%,0%);stroke-opacity:0.5;stroke-miterlimit:10;" d="M 88.060731 133.894716 L 118.830263 133.894716 L 118.830263 102.580263 L 88.060731 102.580263 Z M 88.060731 133.894716 " transform="matrix(2,0,0,2,5.952756,5.952756)"/>
</g>
</svg>
