<?xml version="1.0" encoding="UTF-8"?>
<svg xmlns="http://www.w3.org/2000/svg" xmlns:xlink="http://www.w3.org/1999/xlink" width="310.82079pt" height="288.155913pt" viewBox="0 0 310.82079 288.155913" version="1.1">
<g id="surface81">
<path style="fill:none;stroke-width:0.566929;stroke-linecap:butt;stroke-linejoin:miter;stroke:rgb(100%,0%,0%);stroke-opacity:0.5;stroke-miterlimit:10;" d="M -2.834646 2.834169 L 2.835276 -2.8338 " transform="matrix(2,0,0,2,6.169291,5.952756)"/>
<path style="fill:none;stroke-width:0.566929;stroke-linecap:butt;stroke-linejoin:miter;stroke:rgb(100%,0%,0%);stroke-opacity:0.5;stroke-miterlimit:10;" d="M 2.835276 2.834169 L -2.834646 -2.8338 " transform="matrix(2,0,0,2,6.169291,5.952756)"/>
<path style="fill-rule:nonzero;fill:rgb(50%,50%,0%);fill-opacity:0.1;stroke-width:0.566929;stroke-linecap:butt;stroke-linejoin:miter;stroke:rgb(100%,0%,0%);stroke-opacity:0.5;stroke-miterlimit:10;" d="M -0.000661294 140.851747 L 152.075511 140.851747 L 152.075511 0.000184547 L -0.000661294 0.000184547 Z M -0.000661294 140.851747 " transform="matrix(2,0,0,2,6.169291,5.952756)"/>
<path style="fill:none;stroke-width:0.566929;stroke-linecap:butt;stroke-linejoin:miter;stroke:rgb(100%,0%,0%);stroke-opacity:0.5;stroke-miterlimit:10;" d="M -2.834646 54.338075 L 2.835276 48.668153 " transform="matrix(2,0,0,2,6.169291,5.952756)"/>
<path style="fill:none;stroke-width:0.566929;stroke-linecap:butt;stroke-linejoin:miter;stroke:rgb(100%,0%,0%);stroke-opacity:0.5;stroke-miterlimit:10;" d="M 2.835276 54.338075 L -2.834646 48.668153 " transform="matrix(2,0,0,2,6.169291,5.952756)"/>
<path style="fill-rule:nonzero;fill:rgb(50%,50%,0%);fill-opacity:0.1;stroke-width:0.566929;stroke-linecap:butt;stroke-linejoin:miter;stroke:rgb(100%,0%,0%);stroke-opacity:0.5;stroke-miterlimit:10;" d="M -0.000661294 77.88495 L 102.212229 77.88495 L 102.212229 0.000184547 L -0.000661294 0.000184547 Z M -0.000661294 77.88495 " transform="matrix(2,0,0,2,6.169291,5.952756)"/>
<path style="fill:none;stroke-width:0.566929;stroke-linecap:butt;stroke-linejoin:miter;stroke:rgb(100%,0%,0%);stroke-opacity:0.5;stroke-miterlimit:10;" d="M 19.595042 54.338075 L 25.264964 48.668153 " transform="matrix(2,0,0,2,6.169291,5.952756)"/>
<path style="fill:none;stroke-width:0.566929;stroke-linecap:butt;stroke-linejoin:miter;stroke:rgb(100%,0%,0%);stroke-opacity:0.5;stroke-miterlimit:10;" d="M 25.264964 54.338075 L 19.595042 48.668153 " transform="matrix(2,0,0,2,6.169291,5.952756)"/>
<path style="fill-rule:nonzero;fill:rgb(50%,50%,0%);fill-opacity:0.1;stroke-width:0.566929;stroke-linecap:butt;stroke-linejoin:miter;stroke:rgb(100%,0%,0%);stroke-opacity:0.5;stroke-miterlimit:10;" d="M -0.000661294 72.179872 L 36.712229 72.179872 L 36.712229 14.347841 L -0.000661294 14.347841 Z M -0.000661294 72.179872 " transform="matrix(2,0,0,2,6.169291,5.952756)"/>
<path style="fill:none;stroke-width:0.566929;stroke-linecap:butt;stroke-linejoin:miter;stroke:rgb(100%,0%,0%);stroke-opacity:0.5;stroke-miterlimit:10;" d="M 48.454417 54.338075 L 54.122386 48.668153 " transform="matrix(2,0,0,2,6.169291,5.952756)"/>
<path style="fill:none;stroke-width:0.566929;stroke-linecap:butt;stroke-linejoin:miter;stroke:rgb(100%,0%,0%);stroke-opacity:0.5;stroke-miterlimit:10;" d="M 54.122386 54.338075 L 48.454417 48.668153 " transform="matrix(2,0,0,2,6.169291,5.952756)"/>
<path style="fill-rule:nonzero;fill:rgb(50%,50%,0%);fill-opacity:0.1;stroke-width:0.566929;stroke-linecap:butt;stroke-linejoin:miter;stroke:rgb(100%,0%,0%);stroke-opacity:0.5;stroke-miterlimit:10;" d="M 36.712229 77.88495 L 76.114573 77.88495 L 76.114573 0.000184547 L 36.712229 0.000184547 Z M 36.712229 77.88495 " transform="matrix(2,0,0,2,6.169291,5.952756)"/>
<path style="fill:none;stroke-width:0.566929;stroke-linecap:butt;stroke-linejoin:miter;stroke:rgb(100%,0%,0%);stroke-opacity:0.5;stroke-miterlimit:10;" d="M 73.280589 54.338075 L 78.948557 48.668153 " transform="matrix(2,0,0,2,6.169291,5.952756)"/>
<path style="fill:none;stroke-width:0.566929;stroke-linecap:butt;stroke-linejoin:miter;stroke:rgb(100%,0%,0%);stroke-opacity:0.5;stroke-miterlimit:10;" d="M 78.948557 54.338075 L 73.280589 48.668153 " transform="matrix(2,0,0,2,6.169291,5.952756)"/>
<path style="fill-rule:nonzero;fill:rgb(50%,50%,0%);fill-opacity:0.1;stroke-width:0.566929;stroke-linecap:butt;stroke-linejoin:miter;stroke:rgb(100%,0%,0%);stroke-opacity:0.5;stroke-miterlimit:10;" d="M 76.114573 53.550966 L 102.212229 53.550966 L 102.212229 43.363466 L 76.114573 43.363466 Z M 76.114573 53.550966 " transform="matrix(2,0,0,2,6.169291,5.952756)"/>
<path style=" stroke:none;fill-rule:nonzero;fill:rgb(0%,0%,0%);fill-opacity:1;" d="M 170.960938 95.898438 C 170.960938 95.179688 170.992188 94.960938 172.523438 94.960938 L 173.023438 94.960938 L 173.023438 94.335938 C 172.304688 94.398438 170.835938 94.398438 170.085938 94.398438 C 169.335938 94.398438 167.835938 94.398438 167.148438 94.335938 L 167.148438 94.960938 L 167.617188 94.960938 C 169.148438 94.960938 169.179688 95.179688 169.179688 95.898438 L 169.179688 100.554688 L 163.242188 100.554688 L 163.242188 95.898438 C 163.242188 95.179688 163.273438 94.960938 164.804688 94.960938 L 165.273438 94.960938 L 165.273438 94.335938 C 164.585938 94.398438 163.117188 94.398438 162.335938 94.398438 C 161.585938 94.398438 160.085938 94.398438 159.398438 94.335938 L 159.398438 94.960938 L 159.867188 94.960938 C 161.398438 94.960938 161.460938 95.179688 161.460938 95.898438 L 161.460938 106.398438 C 161.460938 107.117188 161.398438 107.335938 159.867188 107.335938 L 159.398438 107.335938 L 159.398438 107.960938 C 160.085938 107.898438 161.585938 107.898438 162.335938 107.898438 C 163.085938 107.898438 164.585938 107.898438 165.273438 107.960938 L 165.273438 107.335938 L 164.804688 107.335938 C 163.273438 107.335938 163.242188 107.117188 163.242188 106.398438 L 163.242188 101.179688 L 169.179688 101.179688 L 169.179688 106.398438 C 169.179688 107.117188 169.148438 107.335938 167.617188 107.335938 L 167.148438 107.335938 L 167.148438 107.960938 C 167.835938 107.898438 169.304688 107.898438 170.054688 107.898438 C 170.835938 107.898438 172.304688 107.898438 173.023438 107.960938 L 173.023438 107.335938 L 172.523438 107.335938 C 170.992188 107.335938 170.960938 107.117188 170.960938 106.398438 Z M 170.960938 95.898438 "/>
<path style=" stroke:none;fill-rule:nonzero;fill:rgb(0%,0%,0%);fill-opacity:1;" d="M 177.21875 99.148438 L 174.4375 99.367188 L 174.4375 99.992188 C 175.71875 99.992188 175.90625 100.117188 175.90625 101.085938 L 175.90625 106.460938 C 175.90625 107.335938 175.6875 107.335938 174.34375 107.335938 L 174.34375 107.960938 C 174.96875 107.929688 176.0625 107.898438 176.53125 107.898438 C 177.25 107.898438 177.9375 107.929688 178.625 107.960938 L 178.625 107.335938 C 177.28125 107.335938 177.21875 107.242188 177.21875 106.460938 Z M 177.28125 95.679688 C 177.28125 95.054688 176.8125 94.617188 176.25 94.617188 C 175.625 94.617188 175.1875 95.148438 175.1875 95.679688 C 175.1875 96.210938 175.625 96.742188 176.25 96.742188 C 176.8125 96.742188 177.28125 96.304688 177.28125 95.679688 Z M 177.28125 95.679688 "/>
<path style=" stroke:none;fill-rule:nonzero;fill:rgb(0%,0%,0%);fill-opacity:1;" d="M 183.660156 104.523438 C 181.910156 104.523438 181.910156 102.523438 181.910156 102.085938 C 181.910156 101.554688 181.941406 100.898438 182.222656 100.398438 C 182.378906 100.179688 182.847656 99.617188 183.660156 99.617188 C 185.378906 99.617188 185.378906 101.585938 185.378906 102.054688 C 185.378906 102.585938 185.378906 103.242188 185.066406 103.742188 C 184.910156 103.960938 184.441406 104.523438 183.660156 104.523438 Z M 181.347656 105.304688 C 181.347656 105.242188 181.347656 104.773438 181.660156 104.367188 C 182.441406 104.929688 183.285156 104.992188 183.660156 104.992188 C 185.503906 104.992188 186.878906 103.617188 186.878906 102.085938 C 186.878906 101.335938 186.566406 100.617188 186.066406 100.148438 C 186.785156 99.460938 187.503906 99.367188 187.847656 99.367188 C 187.910156 99.367188 188.003906 99.367188 188.066406 99.398438 C 187.847656 99.460938 187.722656 99.679688 187.722656 99.929688 C 187.722656 100.273438 188.003906 100.492188 188.316406 100.492188 C 188.503906 100.492188 188.878906 100.367188 188.878906 99.898438 C 188.878906 99.554688 188.660156 98.929688 187.878906 98.929688 C 187.472656 98.929688 186.597656 99.054688 185.753906 99.867188 C 184.910156 99.210938 184.097656 99.148438 183.660156 99.148438 C 181.785156 99.148438 180.410156 100.523438 180.410156 102.054688 C 180.410156 102.929688 180.847656 103.679688 181.347656 104.117188 C 181.097656 104.398438 180.722656 105.054688 180.722656 105.773438 C 180.722656 106.398438 181.003906 107.148438 181.628906 107.554688 C 180.410156 107.867188 179.785156 108.742188 179.785156 109.523438 C 179.785156 110.960938 181.753906 112.054688 184.191406 112.054688 C 186.535156 112.054688 188.597656 111.054688 188.597656 109.492188 C 188.597656 108.804688 188.347656 107.773438 187.316406 107.210938 C 186.253906 106.679688 185.097656 106.679688 183.878906 106.679688 C 183.378906 106.679688 182.535156 106.679688 182.378906 106.648438 C 181.753906 106.554688 181.347656 105.960938 181.347656 105.304688 Z M 184.222656 111.617188 C 182.191406 111.617188 180.816406 110.585938 180.816406 109.523438 C 180.816406 108.617188 181.566406 107.867188 182.441406 107.835938 L 183.628906 107.835938 C 185.347656 107.835938 187.566406 107.835938 187.566406 109.523438 C 187.566406 110.617188 186.160156 111.617188 184.222656 111.617188 Z M 184.222656 111.617188 "/>
<path style=" stroke:none;fill-rule:nonzero;fill:rgb(0%,0%,0%);fill-opacity:1;" d="M 198.339844 101.585938 C 198.339844 99.992188 198.246094 98.398438 197.558594 96.929688 C 196.652344 94.992188 194.996094 94.679688 194.183594 94.679688 C 192.964844 94.679688 191.527344 95.210938 190.683594 97.054688 C 190.058594 98.429688 189.964844 99.992188 189.964844 101.585938 C 189.964844 103.085938 190.027344 104.867188 190.871094 106.398438 C 191.714844 107.992188 193.183594 108.398438 194.152344 108.398438 C 195.214844 108.398438 196.746094 107.992188 197.621094 106.085938 C 198.246094 104.710938 198.339844 103.148438 198.339844 101.585938 Z M 194.152344 107.960938 C 193.371094 107.960938 192.183594 107.460938 191.839844 105.554688 C 191.621094 104.367188 191.621094 102.523438 191.621094 101.335938 C 191.621094 100.054688 191.621094 98.742188 191.777344 97.679688 C 192.152344 95.304688 193.652344 95.117188 194.152344 95.117188 C 194.808594 95.117188 196.121094 95.492188 196.496094 97.460938 C 196.714844 98.585938 196.714844 100.085938 196.714844 101.335938 C 196.714844 102.835938 196.714844 104.179688 196.496094 105.460938 C 196.183594 107.367188 195.058594 107.960938 194.152344 107.960938 Z M 194.152344 107.960938 "/>
<path style=" stroke:none;fill-rule:nonzero;fill:rgb(0%,0%,0%);fill-opacity:1;" d="M 208.84375 103.804688 L 209.59375 94.710938 C 209.59375 94.054688 209.0625 93.679688 208.5625 93.679688 C 208.03125 93.679688 207.5 94.054688 207.5 94.710938 L 208.28125 103.773438 C 208.28125 104.085938 208.3125 104.242188 208.5625 104.242188 C 208.75 104.242188 208.8125 104.148438 208.84375 103.804688 Z M 209.59375 106.898438 C 209.59375 106.335938 209.125 105.835938 208.5625 105.835938 C 207.96875 105.835938 207.5 106.335938 207.5 106.898438 C 207.5 107.492188 207.96875 107.960938 208.5625 107.960938 C 209.125 107.960938 209.59375 107.492188 209.59375 106.898438 Z M 209.59375 106.898438 "/>
<path style="fill:none;stroke-width:0.566929;stroke-linecap:butt;stroke-linejoin:miter;stroke:rgb(100%,0%,0%);stroke-opacity:0.5;stroke-miterlimit:10;" d="M -2.834646 110.427919 L 2.835276 104.757997 " transform="matrix(2,0,0,2,6.169291,5.952756)"/>
<path style="fill:none;stroke-width:0.566929;stroke-linecap:butt;stroke-linejoin:miter;stroke:rgb(100%,0%,0%);stroke-opacity:0.5;stroke-miterlimit:10;" d="M 2.835276 110.427919 L -2.834646 104.757997 " transform="matrix(2,0,0,2,6.169291,5.952756)"/>
<path style="fill-rule:nonzero;fill:rgb(50%,50%,0%);fill-opacity:0.1;stroke-width:0.566929;stroke-linecap:butt;stroke-linejoin:miter;stroke:rgb(100%,0%,0%);stroke-opacity:0.5;stroke-miterlimit:10;" d="M -0.000661294 140.851747 L 152.075511 140.851747 L 152.075511 77.88495 L -0.000661294 77.88495 Z M -0.000661294 140.851747 " transform="matrix(2,0,0,2,6.169291,5.952756)"/>
<path style="fill:none;stroke-width:0.566929;stroke-linecap:butt;stroke-linejoin:miter;stroke:rgb(100%,0%,0%);stroke-opacity:0.5;stroke-miterlimit:10;" d="M 44.971995 110.427919 L 50.641917 104.757997 " transform="matrix(2,0,0,2,6.169291,5.952756)"/>
<path style="fill:none;stroke-width:0.566929;stroke-linecap:butt;stroke-linejoin:miter;stroke:rgb(100%,0%,0%);stroke-opacity:0.5;stroke-miterlimit:10;" d="M 50.641917 110.427919 L 44.971995 104.757997 " transform="matrix(2,0,0,2,6.169291,5.952756)"/>
<path style="fill-rule:nonzero;fill:rgb(50%,50%,0%);fill-opacity:0.1;stroke-width:0.566929;stroke-linecap:butt;stroke-linejoin:miter;stroke:rgb(100%,0%,0%);stroke-opacity:0.5;stroke-miterlimit:10;" d="M -0.000661294 114.937685 L 64.829417 114.937685 L 64.829417 87.595888 L -0.000661294 87.595888 Z M -0.000661294 114.937685 " transform="matrix(2,0,0,2,6.169291,5.952756)"/>
<path style="fill:none;stroke-width:0.566929;stroke-linecap:butt;stroke-linejoin:miter;stroke:rgb(100%,0%,0%);stroke-opacity:0.5;stroke-miterlimit:10;" d="M 82.165354 110.427919 L 87.835276 104.757997 " transform="matrix(2,0,0,2,6.169291,5.952756)"/>
<path style="fill:none;stroke-width:0.566929;stroke-linecap:butt;stroke-linejoin:miter;stroke:rgb(100%,0%,0%);stroke-opacity:0.5;stroke-miterlimit:10;" d="M 87.835276 110.427919 L 82.165354 104.757997 " transform="matrix(2,0,0,2,6.169291,5.952756)"/>
<path style="fill-rule:nonzero;fill:rgb(50%,50%,0%);fill-opacity:0.1;stroke-width:0.566929;stroke-linecap:butt;stroke-linejoin:miter;stroke:rgb(100%,0%,0%);stroke-opacity:0.5;stroke-miterlimit:10;" d="M 64.829417 140.851747 L 125.977854 140.851747 L 125.977854 77.88495 L 64.829417 77.88495 Z M 64.829417 140.851747 " transform="matrix(2,0,0,2,6.169291,5.952756)"/>
<path style="fill:none;stroke-width:0.566929;stroke-linecap:butt;stroke-linejoin:miter;stroke:rgb(100%,0%,0%);stroke-opacity:0.5;stroke-miterlimit:10;" d="M 123.14387 110.427919 L 128.811839 104.757997 " transform="matrix(2,0,0,2,6.169291,5.952756)"/>
<path style="fill:none;stroke-width:0.566929;stroke-linecap:butt;stroke-linejoin:miter;stroke:rgb(100%,0%,0%);stroke-opacity:0.5;stroke-miterlimit:10;" d="M 128.811839 110.427919 L 123.14387 104.757997 " transform="matrix(2,0,0,2,6.169291,5.952756)"/>
<path style="fill-rule:nonzero;fill:rgb(50%,50%,0%);fill-opacity:0.1;stroke-width:0.566929;stroke-linecap:butt;stroke-linejoin:miter;stroke:rgb(100%,0%,0%);stroke-opacity:0.5;stroke-miterlimit:10;" d="M 125.977854 109.638856 L 152.075511 109.638856 L 152.075511 99.451356 L 125.977854 99.451356 Z M 125.977854 109.638856 " transform="matrix(2,0,0,2,6.169291,5.952756)"/>
<path style=" stroke:none;fill-rule:nonzero;fill:rgb(0%,0%,0%);fill-opacity:1;" d="M 270.6875 208.074219 C 270.6875 207.355469 270.71875 207.136719 272.25 207.136719 L 272.75 207.136719 L 272.75 206.511719 C 272.03125 206.574219 270.5625 206.574219 269.8125 206.574219 C 269.0625 206.574219 267.5625 206.574219 266.875 206.511719 L 266.875 207.136719 L 267.34375 207.136719 C 268.875 207.136719 268.90625 207.355469 268.90625 208.074219 L 268.90625 212.730469 L 262.96875 212.730469 L 262.96875 208.074219 C 262.96875 207.355469 263 207.136719 264.53125 207.136719 L 265 207.136719 L 265 206.511719 C 264.3125 206.574219 262.84375 206.574219 262.0625 206.574219 C 261.3125 206.574219 259.8125 206.574219 259.125 206.511719 L 259.125 207.136719 L 259.59375 207.136719 C 261.125 207.136719 261.1875 207.355469 261.1875 208.074219 L 261.1875 218.574219 C 261.1875 219.292969 261.125 219.511719 259.59375 219.511719 L 259.125 219.511719 L 259.125 220.136719 C 259.8125 220.074219 261.3125 220.074219 262.0625 220.074219 C 262.8125 220.074219 264.3125 220.074219 265 220.136719 L 265 219.511719 L 264.53125 219.511719 C 263 219.511719 262.96875 219.292969 262.96875 218.574219 L 262.96875 213.355469 L 268.90625 213.355469 L 268.90625 218.574219 C 268.90625 219.292969 268.875 219.511719 267.34375 219.511719 L 266.875 219.511719 L 266.875 220.136719 C 267.5625 220.074219 269.03125 220.074219 269.78125 220.074219 C 270.5625 220.074219 272.03125 220.074219 272.75 220.136719 L 272.75 219.511719 L 272.25 219.511719 C 270.71875 219.511719 270.6875 219.292969 270.6875 218.574219 Z M 270.6875 208.074219 "/>
<path style=" stroke:none;fill-rule:nonzero;fill:rgb(0%,0%,0%);fill-opacity:1;" d="M 276.945312 211.324219 L 274.164062 211.542969 L 274.164062 212.167969 C 275.445312 212.167969 275.632812 212.292969 275.632812 213.261719 L 275.632812 218.636719 C 275.632812 219.511719 275.414062 219.511719 274.070312 219.511719 L 274.070312 220.136719 C 274.695312 220.105469 275.789062 220.074219 276.257812 220.074219 C 276.976562 220.074219 277.664062 220.105469 278.351562 220.136719 L 278.351562 219.511719 C 277.007812 219.511719 276.945312 219.417969 276.945312 218.636719 Z M 277.007812 207.855469 C 277.007812 207.230469 276.539062 206.792969 275.976562 206.792969 C 275.351562 206.792969 274.914062 207.324219 274.914062 207.855469 C 274.914062 208.386719 275.351562 208.917969 275.976562 208.917969 C 276.539062 208.917969 277.007812 208.480469 277.007812 207.855469 Z M 277.007812 207.855469 "/>
<path style=" stroke:none;fill-rule:nonzero;fill:rgb(0%,0%,0%);fill-opacity:1;" d="M 283.386719 216.699219 C 281.636719 216.699219 281.636719 214.699219 281.636719 214.261719 C 281.636719 213.730469 281.667969 213.074219 281.949219 212.574219 C 282.105469 212.355469 282.574219 211.792969 283.386719 211.792969 C 285.105469 211.792969 285.105469 213.761719 285.105469 214.230469 C 285.105469 214.761719 285.105469 215.417969 284.792969 215.917969 C 284.636719 216.136719 284.167969 216.699219 283.386719 216.699219 Z M 281.074219 217.480469 C 281.074219 217.417969 281.074219 216.949219 281.386719 216.542969 C 282.167969 217.105469 283.011719 217.167969 283.386719 217.167969 C 285.230469 217.167969 286.605469 215.792969 286.605469 214.261719 C 286.605469 213.511719 286.292969 212.792969 285.792969 212.324219 C 286.511719 211.636719 287.230469 211.542969 287.574219 211.542969 C 287.636719 211.542969 287.730469 211.542969 287.792969 211.574219 C 287.574219 211.636719 287.449219 211.855469 287.449219 212.105469 C 287.449219 212.449219 287.730469 212.667969 288.042969 212.667969 C 288.230469 212.667969 288.605469 212.542969 288.605469 212.074219 C 288.605469 211.730469 288.386719 211.105469 287.605469 211.105469 C 287.199219 211.105469 286.324219 211.230469 285.480469 212.042969 C 284.636719 211.386719 283.824219 211.324219 283.386719 211.324219 C 281.511719 211.324219 280.136719 212.699219 280.136719 214.230469 C 280.136719 215.105469 280.574219 215.855469 281.074219 216.292969 C 280.824219 216.574219 280.449219 217.230469 280.449219 217.949219 C 280.449219 218.574219 280.730469 219.324219 281.355469 219.730469 C 280.136719 220.042969 279.511719 220.917969 279.511719 221.699219 C 279.511719 223.136719 281.480469 224.230469 283.917969 224.230469 C 286.261719 224.230469 288.324219 223.230469 288.324219 221.667969 C 288.324219 220.980469 288.074219 219.949219 287.042969 219.386719 C 285.980469 218.855469 284.824219 218.855469 283.605469 218.855469 C 283.105469 218.855469 282.261719 218.855469 282.105469 218.824219 C 281.480469 218.730469 281.074219 218.136719 281.074219 217.480469 Z M 283.949219 223.792969 C 281.917969 223.792969 280.542969 222.761719 280.542969 221.699219 C 280.542969 220.792969 281.292969 220.042969 282.167969 220.011719 L 283.355469 220.011719 C 285.074219 220.011719 287.292969 220.011719 287.292969 221.699219 C 287.292969 222.792969 285.886719 223.792969 283.949219 223.792969 Z M 283.949219 223.792969 "/>
<path style=" stroke:none;fill-rule:nonzero;fill:rgb(0%,0%,0%);fill-opacity:1;" d="M 294.785156 207.386719 C 294.785156 206.886719 294.785156 206.855469 294.316406 206.855469 C 293.066406 208.136719 291.316406 208.136719 290.691406 208.136719 L 290.691406 208.761719 C 291.097656 208.761719 292.253906 208.761719 293.285156 208.230469 L 293.285156 218.574219 C 293.285156 219.292969 293.222656 219.511719 291.441406 219.511719 L 290.816406 219.511719 L 290.816406 220.136719 C 291.503906 220.074219 293.222656 220.074219 294.035156 220.074219 C 294.816406 220.074219 296.566406 220.074219 297.253906 220.136719 L 297.253906 219.511719 L 296.628906 219.511719 C 294.816406 219.511719 294.785156 219.292969 294.785156 218.574219 Z M 294.785156 207.386719 "/>
<path style=" stroke:none;fill-rule:nonzero;fill:rgb(0%,0%,0%);fill-opacity:1;" d="M 308.570312 215.980469 L 309.320312 206.886719 C 309.320312 206.230469 308.789062 205.855469 308.289062 205.855469 C 307.757812 205.855469 307.226562 206.230469 307.226562 206.886719 L 308.007812 215.949219 C 308.007812 216.261719 308.039062 216.417969 308.289062 216.417969 C 308.476562 216.417969 308.539062 216.324219 308.570312 215.980469 Z M 309.320312 219.074219 C 309.320312 218.511719 308.851562 218.011719 308.289062 218.011719 C 307.695312 218.011719 307.226562 218.511719 307.226562 219.074219 C 307.226562 219.667969 307.695312 220.136719 308.289062 220.136719 C 308.851562 220.136719 309.320312 219.667969 309.320312 219.074219 Z M 309.320312 219.074219 "/>
</g>
</svg>
