<?xml version="1.0" encoding="UTF-8"?>
<svg xmlns="http://www.w3.org/2000/svg" xmlns:xlink="http://www.w3.org/1999/xlink" width="233.445659pt" height="176.748031pt" viewBox="0 0 233.445659 176.748031" version="1.1">
<g id="surface129">
<path style="fill:none;stroke-width:0.566929;stroke-linecap:butt;stroke-linejoin:miter;stroke:rgb(100%,0%,0%);stroke-opacity:0.5;stroke-miterlimit:10;" d="M -2.8338 2.835276 L 2.834169 -2.834646 " transform="matrix(2,0,0,2,5.952756,6.169291)"/>
<path style="fill:none;stroke-width:0.566929;stroke-linecap:butt;stroke-linejoin:miter;stroke:rgb(100%,0%,0%);stroke-opacity:0.5;stroke-miterlimit:10;" d="M 2.834169 2.835276 L -2.8338 -2.834646 " transform="matrix(2,0,0,2,5.952756,6.169291)"/>
<path style="fill-rule:nonzero;fill:rgb(50%,50%,0%);fill-opacity:0.1;stroke-width:0.566929;stroke-linecap:butt;stroke-linejoin:miter;stroke:rgb(100%,0%,0%);stroke-opacity:0.5;stroke-miterlimit:10;" d="M 0.000184547 85.038401 L 110.662294 85.038401 L 110.662294 -0.000661294 L 0.000184547 -0.000661294 Z M 0.000184547 85.038401 " transform="matrix(2,0,0,2,5.952756,6.169291)"/>
<path style="fill:none;stroke-width:0.566929;stroke-linecap:butt;stroke-linejoin:miter;stroke:rgb(100%,0%,0%);stroke-opacity:0.5;stroke-miterlimit:10;" d="M 8.26581 2.835276 L 13.935731 -2.834646 " transform="matrix(2,0,0,2,5.952756,6.169291)"/>
<path style="fill:none;stroke-width:0.566929;stroke-linecap:butt;stroke-linejoin:miter;stroke:rgb(100%,0%,0%);stroke-opacity:0.5;stroke-miterlimit:10;" d="M 13.935731 2.835276 L 8.26581 -2.834646 " transform="matrix(2,0,0,2,5.952756,6.169291)"/>
<path style="fill-rule:nonzero;fill:rgb(50%,50%,0%);fill-opacity:0.1;stroke-width:0.566929;stroke-linecap:butt;stroke-linejoin:miter;stroke:rgb(100%,0%,0%);stroke-opacity:0.5;stroke-miterlimit:10;" d="M 5.836122 11.247386 L 16.365419 11.247386 L 16.365419 -0.000661294 L 5.836122 -0.000661294 Z M 5.836122 11.247386 " transform="matrix(2,0,0,2,5.952756,6.169291)"/>
<path style="fill:none;stroke-width:0.566929;stroke-linecap:butt;stroke-linejoin:miter;stroke:rgb(100%,0%,0%);stroke-opacity:0.5;stroke-miterlimit:10;" d="M 5.836122 11.138011 L 11.506044 5.468089 " transform="matrix(2,0,0,2,5.952756,6.169291)"/>
<path style="fill:none;stroke-width:0.566929;stroke-linecap:butt;stroke-linejoin:miter;stroke:rgb(100%,0%,0%);stroke-opacity:0.5;stroke-miterlimit:10;" d="M 11.506044 11.138011 L 5.836122 5.468089 " transform="matrix(2,0,0,2,5.952756,6.169291)"/>
<path style="fill-rule:nonzero;fill:rgb(50%,50%,0%);fill-opacity:0.1;stroke-width:0.566929;stroke-linecap:butt;stroke-linejoin:miter;stroke:rgb(100%,0%,0%);stroke-opacity:0.5;stroke-miterlimit:10;" d="M 5.836122 11.247386 L 16.365419 11.247386 L 16.365419 -0.000661294 L 5.836122 -0.000661294 Z M 5.836122 11.247386 " transform="matrix(2,0,0,2,5.952756,6.169291)"/>
<path style="fill:none;stroke-width:0.566929;stroke-linecap:butt;stroke-linejoin:miter;stroke:rgb(100%,0%,0%);stroke-opacity:0.5;stroke-miterlimit:10;" d="M 5.836122 11.138011 L 11.506044 5.468089 " transform="matrix(2,0,0,2,5.952756,6.169291)"/>
<path style="fill:none;stroke-width:0.566929;stroke-linecap:butt;stroke-linejoin:miter;stroke:rgb(100%,0%,0%);stroke-opacity:0.5;stroke-miterlimit:10;" d="M 11.506044 11.138011 L 5.836122 5.468089 " transform="matrix(2,0,0,2,5.952756,6.169291)"/>
<path style="fill-rule:nonzero;fill:rgb(50%,50%,0%);fill-opacity:0.1;stroke-width:0.566929;stroke-linecap:butt;stroke-linejoin:miter;stroke:rgb(100%,0%,0%);stroke-opacity:0.5;stroke-miterlimit:10;" d="M 8.670106 8.413401 L 13.529481 8.413401 L 13.529481 2.835276 L 8.670106 2.835276 Z M 8.670106 8.413401 " transform="matrix(2,0,0,2,5.952756,6.169291)"/>
<path style=" stroke:none;fill-rule:nonzero;fill:rgb(0%,0%,0%);fill-opacity:1;" d="M 25.949219 16.746094 C 26.074219 13.777344 27.761719 13.277344 28.449219 13.277344 C 30.480469 13.277344 30.699219 15.964844 30.699219 16.746094 Z M 25.949219 17.183594 L 31.511719 17.183594 C 31.949219 17.183594 32.011719 17.183594 32.011719 16.746094 C 32.011719 14.777344 30.917969 12.839844 28.449219 12.839844 C 26.136719 12.839844 24.292969 14.902344 24.292969 17.402344 C 24.292969 20.058594 26.386719 21.996094 28.667969 21.996094 C 31.105469 21.996094 32.011719 19.777344 32.011719 19.402344 C 32.011719 19.214844 31.855469 19.152344 31.730469 19.152344 C 31.574219 19.152344 31.511719 19.277344 31.480469 19.433594 C 30.792969 21.496094 28.980469 21.496094 28.792969 21.496094 C 27.792969 21.496094 27.011719 20.902344 26.542969 20.152344 C 25.949219 19.214844 25.949219 17.902344 25.949219 17.183594 Z M 25.949219 17.183594 "/>
<path style="fill:none;stroke-width:0.566929;stroke-linecap:butt;stroke-linejoin:miter;stroke:rgb(100%,0%,0%);stroke-opacity:0.5;stroke-miterlimit:10;" d="M 35.668153 2.835276 L 41.338075 -2.834646 " transform="matrix(2,0,0,2,5.952756,6.169291)"/>
<path style="fill:none;stroke-width:0.566929;stroke-linecap:butt;stroke-linejoin:miter;stroke:rgb(100%,0%,0%);stroke-opacity:0.5;stroke-miterlimit:10;" d="M 41.338075 2.835276 L 35.668153 -2.834646 " transform="matrix(2,0,0,2,5.952756,6.169291)"/>
<path style="fill-rule:nonzero;fill:rgb(50%,50%,0%);fill-opacity:0.1;stroke-width:0.566929;stroke-linecap:butt;stroke-linejoin:miter;stroke:rgb(100%,0%,0%);stroke-opacity:0.5;stroke-miterlimit:10;" d="M 31.025575 11.247386 L 45.980653 11.247386 L 45.980653 -0.000661294 L 31.025575 -0.000661294 Z M 31.025575 11.247386 " transform="matrix(2,0,0,2,5.952756,6.169291)"/>
<path style="fill:none;stroke-width:0.566929;stroke-linecap:butt;stroke-linejoin:miter;stroke:rgb(100%,0%,0%);stroke-opacity:0.5;stroke-miterlimit:10;" d="M 31.025575 11.138011 L 36.693544 5.468089 " transform="matrix(2,0,0,2,5.952756,6.169291)"/>
<path style="fill:none;stroke-width:0.566929;stroke-linecap:butt;stroke-linejoin:miter;stroke:rgb(100%,0%,0%);stroke-opacity:0.5;stroke-miterlimit:10;" d="M 36.693544 11.138011 L 31.025575 5.468089 " transform="matrix(2,0,0,2,5.952756,6.169291)"/>
<path style="fill-rule:nonzero;fill:rgb(50%,50%,0%);fill-opacity:0.1;stroke-width:0.566929;stroke-linecap:butt;stroke-linejoin:miter;stroke:rgb(100%,0%,0%);stroke-opacity:0.5;stroke-miterlimit:10;" d="M 31.025575 11.247386 L 45.980653 11.247386 L 45.980653 -0.000661294 L 31.025575 -0.000661294 Z M 31.025575 11.247386 " transform="matrix(2,0,0,2,5.952756,6.169291)"/>
<path style="fill:none;stroke-width:0.566929;stroke-linecap:butt;stroke-linejoin:miter;stroke:rgb(100%,0%,0%);stroke-opacity:0.5;stroke-miterlimit:10;" d="M 31.025575 11.138011 L 36.693544 5.468089 " transform="matrix(2,0,0,2,5.952756,6.169291)"/>
<path style="fill:none;stroke-width:0.566929;stroke-linecap:butt;stroke-linejoin:miter;stroke:rgb(100%,0%,0%);stroke-opacity:0.5;stroke-miterlimit:10;" d="M 36.693544 11.138011 L 31.025575 5.468089 " transform="matrix(2,0,0,2,5.952756,6.169291)"/>
<path style="fill-rule:nonzero;fill:rgb(50%,50%,0%);fill-opacity:0.1;stroke-width:0.566929;stroke-linecap:butt;stroke-linejoin:miter;stroke:rgb(100%,0%,0%);stroke-opacity:0.5;stroke-miterlimit:10;" d="M 33.85956 8.413401 L 43.146669 8.413401 L 43.146669 2.835276 L 33.85956 2.835276 Z M 33.85956 8.413401 " transform="matrix(2,0,0,2,5.952756,6.169291)"/>
<path style=" stroke:none;fill-rule:nonzero;fill:rgb(0%,0%,0%);fill-opacity:1;" d="M 76.328125 16.746094 C 76.453125 13.777344 78.140625 13.277344 78.828125 13.277344 C 80.859375 13.277344 81.078125 15.964844 81.078125 16.746094 Z M 76.328125 17.183594 L 81.890625 17.183594 C 82.328125 17.183594 82.390625 17.183594 82.390625 16.746094 C 82.390625 14.777344 81.296875 12.839844 78.828125 12.839844 C 76.515625 12.839844 74.671875 14.902344 74.671875 17.402344 C 74.671875 20.058594 76.765625 21.996094 79.046875 21.996094 C 81.484375 21.996094 82.390625 19.777344 82.390625 19.402344 C 82.390625 19.214844 82.234375 19.152344 82.109375 19.152344 C 81.953125 19.152344 81.890625 19.277344 81.859375 19.433594 C 81.171875 21.496094 79.359375 21.496094 79.171875 21.496094 C 78.171875 21.496094 77.390625 20.902344 76.921875 20.152344 C 76.328125 19.214844 76.328125 17.902344 76.328125 17.183594 Z M 76.328125 17.183594 "/>
<path style=" stroke:none;fill-rule:nonzero;fill:rgb(0%,0%,0%);fill-opacity:1;" d="M 85.183594 16.746094 C 85.308594 13.777344 86.996094 13.277344 87.683594 13.277344 C 89.714844 13.277344 89.933594 15.964844 89.933594 16.746094 Z M 85.183594 17.183594 L 90.746094 17.183594 C 91.183594 17.183594 91.246094 17.183594 91.246094 16.746094 C 91.246094 14.777344 90.152344 12.839844 87.683594 12.839844 C 85.371094 12.839844 83.527344 14.902344 83.527344 17.402344 C 83.527344 20.058594 85.621094 21.996094 87.902344 21.996094 C 90.339844 21.996094 91.246094 19.777344 91.246094 19.402344 C 91.246094 19.214844 91.089844 19.152344 90.964844 19.152344 C 90.808594 19.152344 90.746094 19.277344 90.714844 19.433594 C 90.027344 21.496094 88.214844 21.496094 88.027344 21.496094 C 87.027344 21.496094 86.246094 20.902344 85.777344 20.152344 C 85.183594 19.214844 85.183594 17.902344 85.183594 17.183594 Z M 85.183594 17.183594 "/>
<path style="fill:none;stroke-width:0.566929;stroke-linecap:butt;stroke-linejoin:miter;stroke:rgb(100%,0%,0%);stroke-opacity:0.5;stroke-miterlimit:10;" d="M 79.898622 2.835276 L 85.568544 -2.834646 " transform="matrix(2,0,0,2,5.952756,6.169291)"/>
<path style="fill:none;stroke-width:0.566929;stroke-linecap:butt;stroke-linejoin:miter;stroke:rgb(100%,0%,0%);stroke-opacity:0.5;stroke-miterlimit:10;" d="M 85.568544 2.835276 L 79.898622 -2.834646 " transform="matrix(2,0,0,2,5.952756,6.169291)"/>
<path style="fill-rule:nonzero;fill:rgb(50%,50%,0%);fill-opacity:0.1;stroke-width:0.566929;stroke-linecap:butt;stroke-linejoin:miter;stroke:rgb(100%,0%,0%);stroke-opacity:0.5;stroke-miterlimit:10;" d="M 73.0412 11.247386 L 92.424013 11.247386 L 92.424013 -0.000661294 L 73.0412 -0.000661294 Z M 73.0412 11.247386 " transform="matrix(2,0,0,2,5.952756,6.169291)"/>
<path style="fill:none;stroke-width:0.566929;stroke-linecap:butt;stroke-linejoin:miter;stroke:rgb(100%,0%,0%);stroke-opacity:0.5;stroke-miterlimit:10;" d="M 73.0412 11.138011 L 78.711122 5.468089 " transform="matrix(2,0,0,2,5.952756,6.169291)"/>
<path style="fill:none;stroke-width:0.566929;stroke-linecap:butt;stroke-linejoin:miter;stroke:rgb(100%,0%,0%);stroke-opacity:0.5;stroke-miterlimit:10;" d="M 78.711122 11.138011 L 73.0412 5.468089 " transform="matrix(2,0,0,2,5.952756,6.169291)"/>
<path style="fill-rule:nonzero;fill:rgb(50%,50%,0%);fill-opacity:0.1;stroke-width:0.566929;stroke-linecap:butt;stroke-linejoin:miter;stroke:rgb(100%,0%,0%);stroke-opacity:0.5;stroke-miterlimit:10;" d="M 73.0412 11.247386 L 92.424013 11.247386 L 92.424013 -0.000661294 L 73.0412 -0.000661294 Z M 73.0412 11.247386 " transform="matrix(2,0,0,2,5.952756,6.169291)"/>
<path style="fill:none;stroke-width:0.566929;stroke-linecap:butt;stroke-linejoin:miter;stroke:rgb(100%,0%,0%);stroke-opacity:0.5;stroke-miterlimit:10;" d="M 73.0412 11.138011 L 78.711122 5.468089 " transform="matrix(2,0,0,2,5.952756,6.169291)"/>
<path style="fill:none;stroke-width:0.566929;stroke-linecap:butt;stroke-linejoin:miter;stroke:rgb(100%,0%,0%);stroke-opacity:0.5;stroke-miterlimit:10;" d="M 78.711122 11.138011 L 73.0412 5.468089 " transform="matrix(2,0,0,2,5.952756,6.169291)"/>
<path style="fill-rule:nonzero;fill:rgb(50%,50%,0%);fill-opacity:0.1;stroke-width:0.566929;stroke-linecap:butt;stroke-linejoin:miter;stroke:rgb(100%,0%,0%);stroke-opacity:0.5;stroke-miterlimit:10;" d="M 75.875185 8.413401 L 89.590028 8.413401 L 89.590028 2.835276 L 75.875185 2.835276 Z M 75.875185 8.413401 " transform="matrix(2,0,0,2,5.952756,6.169291)"/>
<path style=" stroke:none;fill-rule:nonzero;fill:rgb(0%,0%,0%);fill-opacity:1;" d="M 160.359375 16.746094 C 160.484375 13.777344 162.171875 13.277344 162.859375 13.277344 C 164.890625 13.277344 165.109375 15.964844 165.109375 16.746094 Z M 160.359375 17.183594 L 165.921875 17.183594 C 166.359375 17.183594 166.421875 17.183594 166.421875 16.746094 C 166.421875 14.777344 165.328125 12.839844 162.859375 12.839844 C 160.546875 12.839844 158.703125 14.902344 158.703125 17.402344 C 158.703125 20.058594 160.796875 21.996094 163.078125 21.996094 C 165.515625 21.996094 166.421875 19.777344 166.421875 19.402344 C 166.421875 19.214844 166.265625 19.152344 166.140625 19.152344 C 165.984375 19.152344 165.921875 19.277344 165.890625 19.433594 C 165.203125 21.496094 163.390625 21.496094 163.203125 21.496094 C 162.203125 21.496094 161.421875 20.902344 160.953125 20.152344 C 160.359375 19.214844 160.359375 17.902344 160.359375 17.183594 Z M 160.359375 17.183594 "/>
<path style=" stroke:none;fill-rule:nonzero;fill:rgb(0%,0%,0%);fill-opacity:1;" d="M 169.214844 16.746094 C 169.339844 13.777344 171.027344 13.277344 171.714844 13.277344 C 173.746094 13.277344 173.964844 15.964844 173.964844 16.746094 Z M 169.214844 17.183594 L 174.777344 17.183594 C 175.214844 17.183594 175.277344 17.183594 175.277344 16.746094 C 175.277344 14.777344 174.183594 12.839844 171.714844 12.839844 C 169.402344 12.839844 167.558594 14.902344 167.558594 17.402344 C 167.558594 20.058594 169.652344 21.996094 171.933594 21.996094 C 174.371094 21.996094 175.277344 19.777344 175.277344 19.402344 C 175.277344 19.214844 175.121094 19.152344 174.996094 19.152344 C 174.839844 19.152344 174.777344 19.277344 174.746094 19.433594 C 174.058594 21.496094 172.246094 21.496094 172.058594 21.496094 C 171.058594 21.496094 170.277344 20.902344 169.808594 20.152344 C 169.214844 19.214844 169.214844 17.902344 169.214844 17.183594 Z M 169.214844 17.183594 "/>
<path style=" stroke:none;fill-rule:nonzero;fill:rgb(0%,0%,0%);fill-opacity:1;" d="M 178.070312 16.746094 C 178.195312 13.777344 179.882812 13.277344 180.570312 13.277344 C 182.601562 13.277344 182.820312 15.964844 182.820312 16.746094 Z M 178.070312 17.183594 L 183.632812 17.183594 C 184.070312 17.183594 184.132812 17.183594 184.132812 16.746094 C 184.132812 14.777344 183.039062 12.839844 180.570312 12.839844 C 178.257812 12.839844 176.414062 14.902344 176.414062 17.402344 C 176.414062 20.058594 178.507812 21.996094 180.789062 21.996094 C 183.226562 21.996094 184.132812 19.777344 184.132812 19.402344 C 184.132812 19.214844 183.976562 19.152344 183.851562 19.152344 C 183.695312 19.152344 183.632812 19.277344 183.601562 19.433594 C 182.914062 21.496094 181.101562 21.496094 180.914062 21.496094 C 179.914062 21.496094 179.132812 20.902344 178.664062 20.152344 C 178.070312 19.214844 178.070312 17.902344 178.070312 17.183594 Z M 178.070312 17.183594 "/>
<path style="fill:none;stroke-width:0.566929;stroke-linecap:butt;stroke-linejoin:miter;stroke:rgb(100%,0%,0%);stroke-opacity:0.5;stroke-miterlimit:10;" d="M 107.826356 2.835276 L 113.496278 -2.834646 " transform="matrix(2,0,0,2,5.952756,6.169291)"/>
<path style="fill:none;stroke-width:0.566929;stroke-linecap:butt;stroke-linejoin:miter;stroke:rgb(100%,0%,0%);stroke-opacity:0.5;stroke-miterlimit:10;" d="M 113.496278 2.835276 L 107.826356 -2.834646 " transform="matrix(2,0,0,2,5.952756,6.169291)"/>
<path style="fill:none;stroke-width:0.566929;stroke-linecap:butt;stroke-linejoin:miter;stroke:rgb(100%,0%,0%);stroke-opacity:0.5;stroke-miterlimit:10;" d="M 110.662294 28.346995 L 110.662294 -0.000661294 Z M 110.662294 28.346995 " transform="matrix(2,0,0,2,5.952756,6.169291)"/>
<path style="fill:none;stroke-width:0.566929;stroke-linecap:butt;stroke-linejoin:miter;stroke:rgb(100%,0%,0%);stroke-opacity:0.5;stroke-miterlimit:10;" d="M 8.26581 31.180979 L 13.935731 25.511057 " transform="matrix(2,0,0,2,5.952756,6.169291)"/>
<path style="fill:none;stroke-width:0.566929;stroke-linecap:butt;stroke-linejoin:miter;stroke:rgb(100%,0%,0%);stroke-opacity:0.5;stroke-miterlimit:10;" d="M 13.935731 31.180979 L 8.26581 25.511057 " transform="matrix(2,0,0,2,5.952756,6.169291)"/>
<path style="fill-rule:nonzero;fill:rgb(50%,50%,0%);fill-opacity:0.1;stroke-width:0.566929;stroke-linecap:butt;stroke-linejoin:miter;stroke:rgb(100%,0%,0%);stroke-opacity:0.5;stroke-miterlimit:10;" d="M 3.654481 39.593089 L 18.54706 39.593089 L 18.54706 28.346995 L 3.654481 28.346995 Z M 3.654481 39.593089 " transform="matrix(2,0,0,2,5.952756,6.169291)"/>
<path style="fill:none;stroke-width:0.566929;stroke-linecap:butt;stroke-linejoin:miter;stroke:rgb(100%,0%,0%);stroke-opacity:0.5;stroke-miterlimit:10;" d="M 3.654481 39.483714 L 9.32245 33.815745 " transform="matrix(2,0,0,2,5.952756,6.169291)"/>
<path style="fill:none;stroke-width:0.566929;stroke-linecap:butt;stroke-linejoin:miter;stroke:rgb(100%,0%,0%);stroke-opacity:0.5;stroke-miterlimit:10;" d="M 9.32245 39.483714 L 3.654481 33.815745 " transform="matrix(2,0,0,2,5.952756,6.169291)"/>
<path style="fill-rule:nonzero;fill:rgb(50%,50%,0%);fill-opacity:0.1;stroke-width:0.566929;stroke-linecap:butt;stroke-linejoin:miter;stroke:rgb(100%,0%,0%);stroke-opacity:0.5;stroke-miterlimit:10;" d="M 3.654481 39.593089 L 18.54706 39.593089 L 18.54706 28.346995 L 3.654481 28.346995 Z M 3.654481 39.593089 " transform="matrix(2,0,0,2,5.952756,6.169291)"/>
<path style="fill:none;stroke-width:0.566929;stroke-linecap:butt;stroke-linejoin:miter;stroke:rgb(100%,0%,0%);stroke-opacity:0.5;stroke-miterlimit:10;" d="M 3.654481 39.483714 L 9.32245 33.815745 " transform="matrix(2,0,0,2,5.952756,6.169291)"/>
<path style="fill:none;stroke-width:0.566929;stroke-linecap:butt;stroke-linejoin:miter;stroke:rgb(100%,0%,0%);stroke-opacity:0.5;stroke-miterlimit:10;" d="M 9.32245 39.483714 L 3.654481 33.815745 " transform="matrix(2,0,0,2,5.952756,6.169291)"/>
<path style="fill-rule:nonzero;fill:rgb(50%,50%,0%);fill-opacity:0.1;stroke-width:0.566929;stroke-linecap:butt;stroke-linejoin:miter;stroke:rgb(100%,0%,0%);stroke-opacity:0.5;stroke-miterlimit:10;" d="M 6.488466 36.759104 L 15.713075 36.759104 L 15.713075 31.180979 L 6.488466 31.180979 Z M 6.488466 36.759104 " transform="matrix(2,0,0,2,5.952756,6.169291)"/>
<path style=" stroke:none;fill-rule:nonzero;fill:rgb(0%,0%,0%);fill-opacity:1;" d="M 21.585938 74.125 C 21.585938 70.875 23.210938 70.03125 24.273438 70.03125 C 24.460938 70.03125 25.710938 70.0625 26.398438 70.78125 C 25.585938 70.84375 25.460938 71.4375 25.460938 71.6875 C 25.460938 72.21875 25.835938 72.59375 26.367188 72.59375 C 26.898438 72.59375 27.304688 72.28125 27.304688 71.65625 C 27.304688 70.3125 25.773438 69.53125 24.242188 69.53125 C 21.742188 69.53125 19.929688 71.6875 19.929688 74.15625 C 19.929688 76.71875 21.898438 78.6875 24.210938 78.6875 C 26.867188 78.6875 27.523438 76.28125 27.523438 76.09375 C 27.523438 75.90625 27.304688 75.90625 27.242188 75.90625 C 27.085938 75.90625 27.023438 75.96875 26.992188 76.09375 C 26.429688 77.9375 25.117188 78.1875 24.398438 78.1875 C 23.335938 78.1875 21.585938 77.34375 21.585938 74.125 Z M 21.585938 74.125 "/>
<path style=" stroke:none;fill-rule:nonzero;fill:rgb(0%,0%,0%);fill-opacity:1;" d="M 30.441406 74.125 C 30.441406 70.875 32.066406 70.03125 33.128906 70.03125 C 33.316406 70.03125 34.566406 70.0625 35.253906 70.78125 C 34.441406 70.84375 34.316406 71.4375 34.316406 71.6875 C 34.316406 72.21875 34.691406 72.59375 35.222656 72.59375 C 35.753906 72.59375 36.160156 72.28125 36.160156 71.65625 C 36.160156 70.3125 34.628906 69.53125 33.097656 69.53125 C 30.597656 69.53125 28.785156 71.6875 28.785156 74.15625 C 28.785156 76.71875 30.753906 78.6875 33.066406 78.6875 C 35.722656 78.6875 36.378906 76.28125 36.378906 76.09375 C 36.378906 75.90625 36.160156 75.90625 36.097656 75.90625 C 35.941406 75.90625 35.878906 75.96875 35.847656 76.09375 C 35.285156 77.9375 33.972656 78.1875 33.253906 78.1875 C 32.191406 78.1875 30.441406 77.34375 30.441406 74.125 Z M 30.441406 74.125 "/>
<path style="fill:none;stroke-width:0.566929;stroke-linecap:butt;stroke-linejoin:miter;stroke:rgb(100%,0%,0%);stroke-opacity:0.5;stroke-miterlimit:10;" d="M 35.668153 31.180979 L 41.338075 25.511057 " transform="matrix(2,0,0,2,5.952756,6.169291)"/>
<path style="fill:none;stroke-width:0.566929;stroke-linecap:butt;stroke-linejoin:miter;stroke:rgb(100%,0%,0%);stroke-opacity:0.5;stroke-miterlimit:10;" d="M 41.338075 31.180979 L 35.668153 25.511057 " transform="matrix(2,0,0,2,5.952756,6.169291)"/>
<path style="fill-rule:nonzero;fill:rgb(50%,50%,0%);fill-opacity:0.1;stroke-width:0.566929;stroke-linecap:butt;stroke-linejoin:miter;stroke:rgb(100%,0%,0%);stroke-opacity:0.5;stroke-miterlimit:10;" d="M 26.597841 39.593089 L 50.408388 39.593089 L 50.408388 28.346995 L 26.597841 28.346995 Z M 26.597841 39.593089 " transform="matrix(2,0,0,2,5.952756,6.169291)"/>
<path style="fill:none;stroke-width:0.566929;stroke-linecap:butt;stroke-linejoin:miter;stroke:rgb(100%,0%,0%);stroke-opacity:0.5;stroke-miterlimit:10;" d="M 26.597841 39.483714 L 32.267763 33.815745 " transform="matrix(2,0,0,2,5.952756,6.169291)"/>
<path style="fill:none;stroke-width:0.566929;stroke-linecap:butt;stroke-linejoin:miter;stroke:rgb(100%,0%,0%);stroke-opacity:0.5;stroke-miterlimit:10;" d="M 32.267763 39.483714 L 26.597841 33.815745 " transform="matrix(2,0,0,2,5.952756,6.169291)"/>
<path style="fill-rule:nonzero;fill:rgb(50%,50%,0%);fill-opacity:0.1;stroke-width:0.566929;stroke-linecap:butt;stroke-linejoin:miter;stroke:rgb(100%,0%,0%);stroke-opacity:0.5;stroke-miterlimit:10;" d="M 26.597841 39.593089 L 50.408388 39.593089 L 50.408388 28.346995 L 26.597841 28.346995 Z M 26.597841 39.593089 " transform="matrix(2,0,0,2,5.952756,6.169291)"/>
<path style="fill:none;stroke-width:0.566929;stroke-linecap:butt;stroke-linejoin:miter;stroke:rgb(100%,0%,0%);stroke-opacity:0.5;stroke-miterlimit:10;" d="M 26.597841 39.483714 L 32.267763 33.815745 " transform="matrix(2,0,0,2,5.952756,6.169291)"/>
<path style="fill:none;stroke-width:0.566929;stroke-linecap:butt;stroke-linejoin:miter;stroke:rgb(100%,0%,0%);stroke-opacity:0.5;stroke-miterlimit:10;" d="M 32.267763 39.483714 L 26.597841 33.815745 " transform="matrix(2,0,0,2,5.952756,6.169291)"/>
<path style="fill-rule:nonzero;fill:rgb(50%,50%,0%);fill-opacity:0.1;stroke-width:0.566929;stroke-linecap:butt;stroke-linejoin:miter;stroke:rgb(100%,0%,0%);stroke-opacity:0.5;stroke-miterlimit:10;" d="M 29.431825 36.759104 L 47.574403 36.759104 L 47.574403 31.180979 L 29.431825 31.180979 Z M 29.431825 36.759104 " transform="matrix(2,0,0,2,5.952756,6.169291)"/>
<path style=" stroke:none;fill-rule:nonzero;fill:rgb(0%,0%,0%);fill-opacity:1;" d="M 67.472656 73.4375 C 67.597656 70.46875 69.285156 69.96875 69.972656 69.96875 C 72.003906 69.96875 72.222656 72.65625 72.222656 73.4375 Z M 67.472656 73.875 L 73.035156 73.875 C 73.472656 73.875 73.535156 73.875 73.535156 73.4375 C 73.535156 71.46875 72.441406 69.53125 69.972656 69.53125 C 67.660156 69.53125 65.816406 71.59375 65.816406 74.09375 C 65.816406 76.75 67.910156 78.6875 70.191406 78.6875 C 72.628906 78.6875 73.535156 76.46875 73.535156 76.09375 C 73.535156 75.90625 73.378906 75.84375 73.253906 75.84375 C 73.097656 75.84375 73.035156 75.96875 73.003906 76.125 C 72.316406 78.1875 70.503906 78.1875 70.316406 78.1875 C 69.316406 78.1875 68.535156 77.59375 68.066406 76.84375 C 67.472656 75.90625 67.472656 74.59375 67.472656 73.875 Z M 67.472656 73.875 "/>
<path style=" stroke:none;fill-rule:nonzero;fill:rgb(0%,0%,0%);fill-opacity:1;" d="M 76.328125 73.4375 C 76.453125 70.46875 78.140625 69.96875 78.828125 69.96875 C 80.859375 69.96875 81.078125 72.65625 81.078125 73.4375 Z M 76.328125 73.875 L 81.890625 73.875 C 82.328125 73.875 82.390625 73.875 82.390625 73.4375 C 82.390625 71.46875 81.296875 69.53125 78.828125 69.53125 C 76.515625 69.53125 74.671875 71.59375 74.671875 74.09375 C 74.671875 76.75 76.765625 78.6875 79.046875 78.6875 C 81.484375 78.6875 82.390625 76.46875 82.390625 76.09375 C 82.390625 75.90625 82.234375 75.84375 82.109375 75.84375 C 81.953125 75.84375 81.890625 75.96875 81.859375 76.125 C 81.171875 78.1875 79.359375 78.1875 79.171875 78.1875 C 78.171875 78.1875 77.390625 77.59375 76.921875 76.84375 C 76.328125 75.90625 76.328125 74.59375 76.328125 73.875 Z M 76.328125 73.875 "/>
<path style=" stroke:none;fill-rule:nonzero;fill:rgb(0%,0%,0%);fill-opacity:1;" d="M 85.183594 73.4375 C 85.308594 70.46875 86.996094 69.96875 87.683594 69.96875 C 89.714844 69.96875 89.933594 72.65625 89.933594 73.4375 Z M 85.183594 73.875 L 90.746094 73.875 C 91.183594 73.875 91.246094 73.875 91.246094 73.4375 C 91.246094 71.46875 90.152344 69.53125 87.683594 69.53125 C 85.371094 69.53125 83.527344 71.59375 83.527344 74.09375 C 83.527344 76.75 85.621094 78.6875 87.902344 78.6875 C 90.339844 78.6875 91.246094 76.46875 91.246094 76.09375 C 91.246094 75.90625 91.089844 75.84375 90.964844 75.84375 C 90.808594 75.84375 90.746094 75.96875 90.714844 76.125 C 90.027344 78.1875 88.214844 78.1875 88.027344 78.1875 C 87.027344 78.1875 86.246094 77.59375 85.777344 76.84375 C 85.183594 75.90625 85.183594 74.59375 85.183594 73.875 Z M 85.183594 73.875 "/>
<path style=" stroke:none;fill-rule:nonzero;fill:rgb(0%,0%,0%);fill-opacity:1;" d="M 94.039062 73.4375 C 94.164062 70.46875 95.851562 69.96875 96.539062 69.96875 C 98.570312 69.96875 98.789062 72.65625 98.789062 73.4375 Z M 94.039062 73.875 L 99.601562 73.875 C 100.039062 73.875 100.101562 73.875 100.101562 73.4375 C 100.101562 71.46875 99.007812 69.53125 96.539062 69.53125 C 94.226562 69.53125 92.382812 71.59375 92.382812 74.09375 C 92.382812 76.75 94.476562 78.6875 96.757812 78.6875 C 99.195312 78.6875 100.101562 76.46875 100.101562 76.09375 C 100.101562 75.90625 99.945312 75.84375 99.820312 75.84375 C 99.664062 75.84375 99.601562 75.96875 99.570312 76.125 C 98.882812 78.1875 97.070312 78.1875 96.882812 78.1875 C 95.882812 78.1875 95.101562 77.59375 94.632812 76.84375 C 94.039062 75.90625 94.039062 74.59375 94.039062 73.875 Z M 94.039062 73.875 "/>
<path style="fill:none;stroke-width:0.566929;stroke-linecap:butt;stroke-linejoin:miter;stroke:rgb(100%,0%,0%);stroke-opacity:0.5;stroke-miterlimit:10;" d="M 79.898622 31.180979 L 85.568544 25.511057 " transform="matrix(2,0,0,2,5.952756,6.169291)"/>
<path style="fill:none;stroke-width:0.566929;stroke-linecap:butt;stroke-linejoin:miter;stroke:rgb(100%,0%,0%);stroke-opacity:0.5;stroke-miterlimit:10;" d="M 85.568544 31.180979 L 79.898622 25.511057 " transform="matrix(2,0,0,2,5.952756,6.169291)"/>
<path style="fill-rule:nonzero;fill:rgb(50%,50%,0%);fill-opacity:0.1;stroke-width:0.566929;stroke-linecap:butt;stroke-linejoin:miter;stroke:rgb(100%,0%,0%);stroke-opacity:0.5;stroke-miterlimit:10;" d="M 63.107606 42.046214 L 102.35956 42.046214 L 102.35956 28.346995 L 63.107606 28.346995 Z M 63.107606 42.046214 " transform="matrix(2,0,0,2,5.952756,6.169291)"/>
<path style="fill:none;stroke-width:0.566929;stroke-linecap:butt;stroke-linejoin:miter;stroke:rgb(100%,0%,0%);stroke-opacity:0.5;stroke-miterlimit:10;" d="M 63.107606 41.936839 L 68.777528 36.26887 " transform="matrix(2,0,0,2,5.952756,6.169291)"/>
<path style="fill:none;stroke-width:0.566929;stroke-linecap:butt;stroke-linejoin:miter;stroke:rgb(100%,0%,0%);stroke-opacity:0.5;stroke-miterlimit:10;" d="M 68.777528 41.936839 L 63.107606 36.26887 " transform="matrix(2,0,0,2,5.952756,6.169291)"/>
<path style="fill-rule:nonzero;fill:rgb(50%,50%,0%);fill-opacity:0.1;stroke-width:0.566929;stroke-linecap:butt;stroke-linejoin:miter;stroke:rgb(100%,0%,0%);stroke-opacity:0.5;stroke-miterlimit:10;" d="M 63.107606 42.046214 L 102.35956 42.046214 L 102.35956 28.346995 L 63.107606 28.346995 Z M 63.107606 42.046214 " transform="matrix(2,0,0,2,5.952756,6.169291)"/>
<path style="fill:none;stroke-width:0.566929;stroke-linecap:butt;stroke-linejoin:miter;stroke:rgb(100%,0%,0%);stroke-opacity:0.5;stroke-miterlimit:10;" d="M 63.107606 41.936839 L 68.777528 36.26887 " transform="matrix(2,0,0,2,5.952756,6.169291)"/>
<path style="fill:none;stroke-width:0.566929;stroke-linecap:butt;stroke-linejoin:miter;stroke:rgb(100%,0%,0%);stroke-opacity:0.5;stroke-miterlimit:10;" d="M 68.777528 41.936839 L 63.107606 36.26887 " transform="matrix(2,0,0,2,5.952756,6.169291)"/>
<path style="fill-rule:nonzero;fill:rgb(50%,50%,0%);fill-opacity:0.1;stroke-width:0.566929;stroke-linecap:butt;stroke-linejoin:miter;stroke:rgb(100%,0%,0%);stroke-opacity:0.5;stroke-miterlimit:10;" d="M 65.941591 39.212229 L 99.523622 39.212229 L 99.523622 31.180979 L 65.941591 31.180979 Z M 65.941591 39.212229 " transform="matrix(2,0,0,2,5.952756,6.169291)"/>
<path style=" stroke:none;fill-rule:nonzero;fill:rgb(0%,0%,0%);fill-opacity:1;" d="M 141.710938 75.84375 L 141.710938 69.53125 L 138.835938 69.75 L 138.835938 70.375 C 140.242188 70.375 140.398438 70.5 140.398438 71.5 L 140.398438 83.375 L 140.898438 83.375 C 140.898438 83.34375 141.054688 83.0625 141.617188 82.125 C 141.898438 82.59375 142.742188 83.59375 144.210938 83.59375 C 146.585938 83.59375 148.648438 81.625 148.648438 79.0625 C 148.648438 76.53125 146.710938 74.5625 144.429688 74.5625 C 142.867188 74.5625 142.023438 75.5 141.710938 75.84375 Z M 141.773438 81.09375 L 141.773438 77 C 141.773438 76.625 141.773438 76.59375 141.992188 76.28125 C 142.773438 75.15625 143.867188 75 144.335938 75 C 145.242188 75 145.960938 75.53125 146.429688 76.28125 C 146.960938 77.09375 146.992188 78.21875 146.992188 79.0625 C 146.992188 79.78125 146.960938 80.96875 146.398438 81.875 C 145.960938 82.5 145.210938 83.15625 144.148438 83.15625 C 143.242188 83.15625 142.523438 82.6875 142.054688 81.9375 C 141.773438 81.53125 141.773438 81.46875 141.773438 81.09375 Z M 141.773438 81.09375 "/>
<path style=" stroke:none;fill-rule:nonzero;fill:rgb(0%,0%,0%);fill-opacity:1;" d="M 152.78125 75.84375 L 152.78125 69.53125 L 149.90625 69.75 L 149.90625 70.375 C 151.3125 70.375 151.46875 70.5 151.46875 71.5 L 151.46875 83.375 L 151.96875 83.375 C 151.96875 83.34375 152.125 83.0625 152.6875 82.125 C 152.96875 82.59375 153.8125 83.59375 155.28125 83.59375 C 157.65625 83.59375 159.71875 81.625 159.71875 79.0625 C 159.71875 76.53125 157.78125 74.5625 155.5 74.5625 C 153.9375 74.5625 153.09375 75.5 152.78125 75.84375 Z M 152.84375 81.09375 L 152.84375 77 C 152.84375 76.625 152.84375 76.59375 153.0625 76.28125 C 153.84375 75.15625 154.9375 75 155.40625 75 C 156.3125 75 157.03125 75.53125 157.5 76.28125 C 158.03125 77.09375 158.0625 78.21875 158.0625 79.0625 C 158.0625 79.78125 158.03125 80.96875 157.46875 81.875 C 157.03125 82.5 156.28125 83.15625 155.21875 83.15625 C 154.3125 83.15625 153.59375 82.6875 153.125 81.9375 C 152.84375 81.53125 152.84375 81.46875 152.84375 81.09375 Z M 152.84375 81.09375 "/>
<path style=" stroke:none;fill-rule:nonzero;fill:rgb(0%,0%,0%);fill-opacity:1;" d="M 163.851562 75.84375 L 163.851562 69.53125 L 160.976562 69.75 L 160.976562 70.375 C 162.382812 70.375 162.539062 70.5 162.539062 71.5 L 162.539062 83.375 L 163.039062 83.375 C 163.039062 83.34375 163.195312 83.0625 163.757812 82.125 C 164.039062 82.59375 164.882812 83.59375 166.351562 83.59375 C 168.726562 83.59375 170.789062 81.625 170.789062 79.0625 C 170.789062 76.53125 168.851562 74.5625 166.570312 74.5625 C 165.007812 74.5625 164.164062 75.5 163.851562 75.84375 Z M 163.914062 81.09375 L 163.914062 77 C 163.914062 76.625 163.914062 76.59375 164.132812 76.28125 C 164.914062 75.15625 166.007812 75 166.476562 75 C 167.382812 75 168.101562 75.53125 168.570312 76.28125 C 169.101562 77.09375 169.132812 78.21875 169.132812 79.0625 C 169.132812 79.78125 169.101562 80.96875 168.539062 81.875 C 168.101562 82.5 167.351562 83.15625 166.289062 83.15625 C 165.382812 83.15625 164.664062 82.6875 164.195312 81.9375 C 163.914062 81.53125 163.914062 81.46875 163.914062 81.09375 Z M 163.914062 81.09375 "/>
<path style=" stroke:none;fill-rule:nonzero;fill:rgb(0%,0%,0%);fill-opacity:1;" d="M 174.921875 75.84375 L 174.921875 69.53125 L 172.046875 69.75 L 172.046875 70.375 C 173.453125 70.375 173.609375 70.5 173.609375 71.5 L 173.609375 83.375 L 174.109375 83.375 C 174.109375 83.34375 174.265625 83.0625 174.828125 82.125 C 175.109375 82.59375 175.953125 83.59375 177.421875 83.59375 C 179.796875 83.59375 181.859375 81.625 181.859375 79.0625 C 181.859375 76.53125 179.921875 74.5625 177.640625 74.5625 C 176.078125 74.5625 175.234375 75.5 174.921875 75.84375 Z M 174.984375 81.09375 L 174.984375 77 C 174.984375 76.625 174.984375 76.59375 175.203125 76.28125 C 175.984375 75.15625 177.078125 75 177.546875 75 C 178.453125 75 179.171875 75.53125 179.640625 76.28125 C 180.171875 77.09375 180.203125 78.21875 180.203125 79.0625 C 180.203125 79.78125 180.171875 80.96875 179.609375 81.875 C 179.171875 82.5 178.421875 83.15625 177.359375 83.15625 C 176.453125 83.15625 175.734375 82.6875 175.265625 81.9375 C 174.984375 81.53125 174.984375 81.46875 174.984375 81.09375 Z M 174.984375 81.09375 "/>
<path style=" stroke:none;fill-rule:nonzero;fill:rgb(0%,0%,0%);fill-opacity:1;" d="M 185.992188 75.84375 L 185.992188 69.53125 L 183.117188 69.75 L 183.117188 70.375 C 184.523438 70.375 184.679688 70.5 184.679688 71.5 L 184.679688 83.375 L 185.179688 83.375 C 185.179688 83.34375 185.335938 83.0625 185.898438 82.125 C 186.179688 82.59375 187.023438 83.59375 188.492188 83.59375 C 190.867188 83.59375 192.929688 81.625 192.929688 79.0625 C 192.929688 76.53125 190.992188 74.5625 188.710938 74.5625 C 187.148438 74.5625 186.304688 75.5 185.992188 75.84375 Z M 186.054688 81.09375 L 186.054688 77 C 186.054688 76.625 186.054688 76.59375 186.273438 76.28125 C 187.054688 75.15625 188.148438 75 188.617188 75 C 189.523438 75 190.242188 75.53125 190.710938 76.28125 C 191.242188 77.09375 191.273438 78.21875 191.273438 79.0625 C 191.273438 79.78125 191.242188 80.96875 190.679688 81.875 C 190.242188 82.5 189.492188 83.15625 188.429688 83.15625 C 187.523438 83.15625 186.804688 82.6875 186.335938 81.9375 C 186.054688 81.53125 186.054688 81.46875 186.054688 81.09375 Z M 186.054688 81.09375 "/>
<path style=" stroke:none;fill-rule:nonzero;fill:rgb(0%,0%,0%);fill-opacity:1;" d="M 197.0625 75.84375 L 197.0625 69.53125 L 194.1875 69.75 L 194.1875 70.375 C 195.59375 70.375 195.75 70.5 195.75 71.5 L 195.75 83.375 L 196.25 83.375 C 196.25 83.34375 196.40625 83.0625 196.96875 82.125 C 197.25 82.59375 198.09375 83.59375 199.5625 83.59375 C 201.9375 83.59375 204 81.625 204 79.0625 C 204 76.53125 202.0625 74.5625 199.78125 74.5625 C 198.21875 74.5625 197.375 75.5 197.0625 75.84375 Z M 197.125 81.09375 L 197.125 77 C 197.125 76.625 197.125 76.59375 197.34375 76.28125 C 198.125 75.15625 199.21875 75 199.6875 75 C 200.59375 75 201.3125 75.53125 201.78125 76.28125 C 202.3125 77.09375 202.34375 78.21875 202.34375 79.0625 C 202.34375 79.78125 202.3125 80.96875 201.75 81.875 C 201.3125 82.5 200.5625 83.15625 199.5 83.15625 C 198.59375 83.15625 197.875 82.6875 197.40625 81.9375 C 197.125 81.53125 197.125 81.46875 197.125 81.09375 Z M 197.125 81.09375 "/>
<path style="fill:none;stroke-width:0.566929;stroke-linecap:butt;stroke-linejoin:miter;stroke:rgb(100%,0%,0%);stroke-opacity:0.5;stroke-miterlimit:10;" d="M 107.826356 31.180979 L 113.496278 25.511057 " transform="matrix(2,0,0,2,5.952756,6.169291)"/>
<path style="fill:none;stroke-width:0.566929;stroke-linecap:butt;stroke-linejoin:miter;stroke:rgb(100%,0%,0%);stroke-opacity:0.5;stroke-miterlimit:10;" d="M 113.496278 31.180979 L 107.826356 25.511057 " transform="matrix(2,0,0,2,5.952756,6.169291)"/>
<path style="fill:none;stroke-width:0.566929;stroke-linecap:butt;stroke-linejoin:miter;stroke:rgb(100%,0%,0%);stroke-opacity:0.5;stroke-miterlimit:10;" d="M 110.662294 56.692698 L 110.662294 28.346995 Z M 110.662294 56.692698 " transform="matrix(2,0,0,2,5.952756,6.169291)"/>
<path style="fill:none;stroke-width:0.566929;stroke-linecap:butt;stroke-linejoin:miter;stroke:rgb(100%,0%,0%);stroke-opacity:0.5;stroke-miterlimit:10;" d="M 8.26581 59.526682 L 13.935731 53.858714 " transform="matrix(2,0,0,2,5.952756,6.169291)"/>
<path style="fill:none;stroke-width:0.566929;stroke-linecap:butt;stroke-linejoin:miter;stroke:rgb(100%,0%,0%);stroke-opacity:0.5;stroke-miterlimit:10;" d="M 13.935731 59.526682 L 8.26581 53.858714 " transform="matrix(2,0,0,2,5.952756,6.169291)"/>
<path style="fill-rule:nonzero;fill:rgb(50%,50%,0%);fill-opacity:0.1;stroke-width:0.566929;stroke-linecap:butt;stroke-linejoin:miter;stroke:rgb(100%,0%,0%);stroke-opacity:0.5;stroke-miterlimit:10;" d="M 0.000184547 67.659495 L 22.201356 67.659495 L 22.201356 56.692698 L 0.000184547 56.692698 Z M 0.000184547 67.659495 " transform="matrix(2,0,0,2,5.952756,6.169291)"/>
<path style="fill:none;stroke-width:0.566929;stroke-linecap:butt;stroke-linejoin:miter;stroke:rgb(100%,0%,0%);stroke-opacity:0.5;stroke-miterlimit:10;" d="M 0.000184547 67.659495 L 5.670106 61.989573 " transform="matrix(2,0,0,2,5.952756,6.169291)"/>
<path style="fill:none;stroke-width:0.566929;stroke-linecap:butt;stroke-linejoin:miter;stroke:rgb(100%,0%,0%);stroke-opacity:0.5;stroke-miterlimit:10;" d="M 5.670106 67.659495 L 0.000184547 61.989573 " transform="matrix(2,0,0,2,5.952756,6.169291)"/>
<path style="fill-rule:nonzero;fill:rgb(50%,50%,0%);fill-opacity:0.1;stroke-width:0.566929;stroke-linecap:butt;stroke-linejoin:miter;stroke:rgb(100%,0%,0%);stroke-opacity:0.5;stroke-miterlimit:10;" d="M 0.000184547 67.659495 L 22.201356 67.659495 L 22.201356 56.692698 L 0.000184547 56.692698 Z M 0.000184547 67.659495 " transform="matrix(2,0,0,2,5.952756,6.169291)"/>
<path style="fill:none;stroke-width:0.566929;stroke-linecap:butt;stroke-linejoin:miter;stroke:rgb(100%,0%,0%);stroke-opacity:0.5;stroke-miterlimit:10;" d="M 0.000184547 67.659495 L 5.670106 61.989573 " transform="matrix(2,0,0,2,5.952756,6.169291)"/>
<path style="fill:none;stroke-width:0.566929;stroke-linecap:butt;stroke-linejoin:miter;stroke:rgb(100%,0%,0%);stroke-opacity:0.5;stroke-miterlimit:10;" d="M 5.670106 67.659495 L 0.000184547 61.989573 " transform="matrix(2,0,0,2,5.952756,6.169291)"/>
<path style="fill-rule:nonzero;fill:rgb(50%,50%,0%);fill-opacity:0.1;stroke-width:0.566929;stroke-linecap:butt;stroke-linejoin:miter;stroke:rgb(100%,0%,0%);stroke-opacity:0.5;stroke-miterlimit:10;" d="M 2.834169 64.823557 L 19.367372 64.823557 L 19.367372 59.526682 L 2.834169 59.526682 Z M 2.834169 64.823557 " transform="matrix(2,0,0,2,5.952756,6.169291)"/>
<path style=" stroke:none;fill-rule:nonzero;fill:rgb(0%,0%,0%);fill-opacity:1;" d="M 18.089844 130.128906 C 18.683594 129.378906 19.433594 128.410156 19.933594 127.878906 C 20.558594 127.160156 21.371094 126.847656 22.308594 126.847656 L 22.308594 126.222656 C 21.777344 126.253906 21.183594 126.285156 20.652344 126.285156 C 20.058594 126.285156 18.996094 126.253906 18.746094 126.222656 L 18.746094 126.847656 C 19.183594 126.878906 19.339844 127.128906 19.339844 127.472656 C 19.339844 127.785156 19.121094 128.035156 19.027344 128.160156 L 17.808594 129.722656 L 16.246094 127.691406 C 16.058594 127.503906 16.058594 127.472656 16.058594 127.347656 C 16.058594 127.035156 16.371094 126.847656 16.746094 126.847656 L 16.746094 126.222656 C 16.246094 126.253906 14.933594 126.285156 14.589844 126.285156 C 14.183594 126.285156 13.246094 126.253906 12.714844 126.222656 L 12.714844 126.847656 C 14.121094 126.847656 14.121094 126.847656 15.058594 128.066406 L 17.027344 130.628906 L 15.152344 133.003906 C 14.214844 134.160156 13.027344 134.191406 12.621094 134.191406 L 12.621094 134.816406 C 13.121094 134.785156 13.746094 134.753906 14.277344 134.753906 C 14.839844 134.753906 15.683594 134.785156 16.152344 134.816406 L 16.152344 134.191406 C 15.714844 134.128906 15.589844 133.878906 15.589844 133.566406 C 15.589844 133.128906 16.152344 132.472656 17.371094 131.035156 L 18.902344 133.035156 C 19.058594 133.253906 19.308594 133.566406 19.308594 133.691406 C 19.308594 133.878906 19.121094 134.191406 18.589844 134.191406 L 18.589844 134.816406 C 19.183594 134.785156 20.308594 134.753906 20.746094 134.753906 C 21.277344 134.753906 22.058594 134.785156 22.652344 134.816406 L 22.652344 134.191406 C 21.589844 134.191406 21.214844 134.160156 20.777344 133.566406 Z M 18.089844 130.128906 "/>
<path style=" stroke:none;fill-rule:nonzero;fill:rgb(0%,0%,0%);fill-opacity:1;" d="M 28.605469 130.128906 C 29.199219 129.378906 29.949219 128.410156 30.449219 127.878906 C 31.074219 127.160156 31.886719 126.847656 32.824219 126.847656 L 32.824219 126.222656 C 32.292969 126.253906 31.699219 126.285156 31.167969 126.285156 C 30.574219 126.285156 29.511719 126.253906 29.261719 126.222656 L 29.261719 126.847656 C 29.699219 126.878906 29.855469 127.128906 29.855469 127.472656 C 29.855469 127.785156 29.636719 128.035156 29.542969 128.160156 L 28.324219 129.722656 L 26.761719 127.691406 C 26.574219 127.503906 26.574219 127.472656 26.574219 127.347656 C 26.574219 127.035156 26.886719 126.847656 27.261719 126.847656 L 27.261719 126.222656 C 26.761719 126.253906 25.449219 126.285156 25.105469 126.285156 C 24.699219 126.285156 23.761719 126.253906 23.230469 126.222656 L 23.230469 126.847656 C 24.636719 126.847656 24.636719 126.847656 25.574219 128.066406 L 27.542969 130.628906 L 25.667969 133.003906 C 24.730469 134.160156 23.542969 134.191406 23.136719 134.191406 L 23.136719 134.816406 C 23.636719 134.785156 24.261719 134.753906 24.792969 134.753906 C 25.355469 134.753906 26.199219 134.785156 26.667969 134.816406 L 26.667969 134.191406 C 26.230469 134.128906 26.105469 133.878906 26.105469 133.566406 C 26.105469 133.128906 26.667969 132.472656 27.886719 131.035156 L 29.417969 133.035156 C 29.574219 133.253906 29.824219 133.566406 29.824219 133.691406 C 29.824219 133.878906 29.636719 134.191406 29.105469 134.191406 L 29.105469 134.816406 C 29.699219 134.785156 30.824219 134.753906 31.261719 134.753906 C 31.792969 134.753906 32.574219 134.785156 33.167969 134.816406 L 33.167969 134.191406 C 32.105469 134.191406 31.730469 134.160156 31.292969 133.566406 Z M 28.605469 130.128906 "/>
<path style=" stroke:none;fill-rule:nonzero;fill:rgb(0%,0%,0%);fill-opacity:1;" d="M 39.125 130.128906 C 39.71875 129.378906 40.46875 128.410156 40.96875 127.878906 C 41.59375 127.160156 42.40625 126.847656 43.34375 126.847656 L 43.34375 126.222656 C 42.8125 126.253906 42.21875 126.285156 41.6875 126.285156 C 41.09375 126.285156 40.03125 126.253906 39.78125 126.222656 L 39.78125 126.847656 C 40.21875 126.878906 40.375 127.128906 40.375 127.472656 C 40.375 127.785156 40.15625 128.035156 40.0625 128.160156 L 38.84375 129.722656 L 37.28125 127.691406 C 37.09375 127.503906 37.09375 127.472656 37.09375 127.347656 C 37.09375 127.035156 37.40625 126.847656 37.78125 126.847656 L 37.78125 126.222656 C 37.28125 126.253906 35.96875 126.285156 35.625 126.285156 C 35.21875 126.285156 34.28125 126.253906 33.75 126.222656 L 33.75 126.847656 C 35.15625 126.847656 35.15625 126.847656 36.09375 128.066406 L 38.0625 130.628906 L 36.1875 133.003906 C 35.25 134.160156 34.0625 134.191406 33.65625 134.191406 L 33.65625 134.816406 C 34.15625 134.785156 34.78125 134.753906 35.3125 134.753906 C 35.875 134.753906 36.71875 134.785156 37.1875 134.816406 L 37.1875 134.191406 C 36.75 134.128906 36.625 133.878906 36.625 133.566406 C 36.625 133.128906 37.1875 132.472656 38.40625 131.035156 L 39.9375 133.035156 C 40.09375 133.253906 40.34375 133.566406 40.34375 133.691406 C 40.34375 133.878906 40.15625 134.191406 39.625 134.191406 L 39.625 134.816406 C 40.21875 134.785156 41.34375 134.753906 41.78125 134.753906 C 42.3125 134.753906 43.09375 134.785156 43.6875 134.816406 L 43.6875 134.191406 C 42.625 134.191406 42.25 134.160156 41.8125 133.566406 Z M 39.125 130.128906 "/>
<path style="fill:none;stroke-width:0.566929;stroke-linecap:butt;stroke-linejoin:miter;stroke:rgb(100%,0%,0%);stroke-opacity:0.5;stroke-miterlimit:10;" d="M 35.668153 59.526682 L 41.338075 53.858714 " transform="matrix(2,0,0,2,5.952756,6.169291)"/>
<path style="fill:none;stroke-width:0.566929;stroke-linecap:butt;stroke-linejoin:miter;stroke:rgb(100%,0%,0%);stroke-opacity:0.5;stroke-miterlimit:10;" d="M 41.338075 59.526682 L 35.668153 53.858714 " transform="matrix(2,0,0,2,5.952756,6.169291)"/>
<path style="fill-rule:nonzero;fill:rgb(50%,50%,0%);fill-opacity:0.1;stroke-width:0.566929;stroke-linecap:butt;stroke-linejoin:miter;stroke:rgb(100%,0%,0%);stroke-opacity:0.5;stroke-miterlimit:10;" d="M 22.201356 67.940745 L 54.804872 67.940745 L 54.804872 56.692698 L 22.201356 56.692698 Z M 22.201356 67.940745 " transform="matrix(2,0,0,2,5.952756,6.169291)"/>
<path style="fill:none;stroke-width:0.566929;stroke-linecap:butt;stroke-linejoin:miter;stroke:rgb(100%,0%,0%);stroke-opacity:0.5;stroke-miterlimit:10;" d="M 22.201356 67.83137 L 27.871278 62.161448 " transform="matrix(2,0,0,2,5.952756,6.169291)"/>
<path style="fill:none;stroke-width:0.566929;stroke-linecap:butt;stroke-linejoin:miter;stroke:rgb(100%,0%,0%);stroke-opacity:0.5;stroke-miterlimit:10;" d="M 27.871278 67.83137 L 22.201356 62.161448 " transform="matrix(2,0,0,2,5.952756,6.169291)"/>
<path style="fill-rule:nonzero;fill:rgb(50%,50%,0%);fill-opacity:0.1;stroke-width:0.566929;stroke-linecap:butt;stroke-linejoin:miter;stroke:rgb(100%,0%,0%);stroke-opacity:0.5;stroke-miterlimit:10;" d="M 22.201356 67.940745 L 54.804872 67.940745 L 54.804872 56.692698 L 22.201356 56.692698 Z M 22.201356 67.940745 " transform="matrix(2,0,0,2,5.952756,6.169291)"/>
<path style="fill:none;stroke-width:0.566929;stroke-linecap:butt;stroke-linejoin:miter;stroke:rgb(100%,0%,0%);stroke-opacity:0.5;stroke-miterlimit:10;" d="M 22.201356 67.83137 L 27.871278 62.161448 " transform="matrix(2,0,0,2,5.952756,6.169291)"/>
<path style="fill:none;stroke-width:0.566929;stroke-linecap:butt;stroke-linejoin:miter;stroke:rgb(100%,0%,0%);stroke-opacity:0.5;stroke-miterlimit:10;" d="M 27.871278 67.83137 L 22.201356 62.161448 " transform="matrix(2,0,0,2,5.952756,6.169291)"/>
<path style="fill-rule:nonzero;fill:rgb(50%,50%,0%);fill-opacity:0.1;stroke-width:0.566929;stroke-linecap:butt;stroke-linejoin:miter;stroke:rgb(100%,0%,0%);stroke-opacity:0.5;stroke-miterlimit:10;" d="M 25.035341 65.104807 L 51.968935 65.104807 L 51.968935 59.526682 L 25.035341 59.526682 Z M 25.035341 65.104807 " transform="matrix(2,0,0,2,5.952756,6.169291)"/>
<path style=" stroke:none;fill-rule:nonzero;fill:rgb(0%,0%,0%);fill-opacity:1;" d="M 58.679688 130.816406 C 58.679688 127.566406 60.304688 126.722656 61.367188 126.722656 C 61.554688 126.722656 62.804688 126.753906 63.492188 127.472656 C 62.679688 127.535156 62.554688 128.128906 62.554688 128.378906 C 62.554688 128.910156 62.929688 129.285156 63.460938 129.285156 C 63.992188 129.285156 64.398438 128.972656 64.398438 128.347656 C 64.398438 127.003906 62.867188 126.222656 61.335938 126.222656 C 58.835938 126.222656 57.023438 128.378906 57.023438 130.847656 C 57.023438 133.410156 58.992188 135.378906 61.304688 135.378906 C 63.960938 135.378906 64.617188 132.972656 64.617188 132.785156 C 64.617188 132.597656 64.398438 132.597656 64.335938 132.597656 C 64.179688 132.597656 64.117188 132.660156 64.085938 132.785156 C 63.523438 134.628906 62.210938 134.878906 61.492188 134.878906 C 60.429688 134.878906 58.679688 134.035156 58.679688 130.816406 Z M 58.679688 130.816406 "/>
<path style=" stroke:none;fill-rule:nonzero;fill:rgb(0%,0%,0%);fill-opacity:1;" d="M 67.535156 130.816406 C 67.535156 127.566406 69.160156 126.722656 70.222656 126.722656 C 70.410156 126.722656 71.660156 126.753906 72.347656 127.472656 C 71.535156 127.535156 71.410156 128.128906 71.410156 128.378906 C 71.410156 128.910156 71.785156 129.285156 72.316406 129.285156 C 72.847656 129.285156 73.253906 128.972656 73.253906 128.347656 C 73.253906 127.003906 71.722656 126.222656 70.191406 126.222656 C 67.691406 126.222656 65.878906 128.378906 65.878906 130.847656 C 65.878906 133.410156 67.847656 135.378906 70.160156 135.378906 C 72.816406 135.378906 73.472656 132.972656 73.472656 132.785156 C 73.472656 132.597656 73.253906 132.597656 73.191406 132.597656 C 73.035156 132.597656 72.972656 132.660156 72.941406 132.785156 C 72.378906 134.628906 71.066406 134.878906 70.347656 134.878906 C 69.285156 134.878906 67.535156 134.035156 67.535156 130.816406 Z M 67.535156 130.816406 "/>
<path style=" stroke:none;fill-rule:nonzero;fill:rgb(0%,0%,0%);fill-opacity:1;" d="M 76.390625 130.816406 C 76.390625 127.566406 78.015625 126.722656 79.078125 126.722656 C 79.265625 126.722656 80.515625 126.753906 81.203125 127.472656 C 80.390625 127.535156 80.265625 128.128906 80.265625 128.378906 C 80.265625 128.910156 80.640625 129.285156 81.171875 129.285156 C 81.703125 129.285156 82.109375 128.972656 82.109375 128.347656 C 82.109375 127.003906 80.578125 126.222656 79.046875 126.222656 C 76.546875 126.222656 74.734375 128.378906 74.734375 130.847656 C 74.734375 133.410156 76.703125 135.378906 79.015625 135.378906 C 81.671875 135.378906 82.328125 132.972656 82.328125 132.785156 C 82.328125 132.597656 82.109375 132.597656 82.046875 132.597656 C 81.890625 132.597656 81.828125 132.660156 81.796875 132.785156 C 81.234375 134.628906 79.921875 134.878906 79.203125 134.878906 C 78.140625 134.878906 76.390625 134.035156 76.390625 130.816406 Z M 76.390625 130.816406 "/>
<path style=" stroke:none;fill-rule:nonzero;fill:rgb(0%,0%,0%);fill-opacity:1;" d="M 85.246094 130.816406 C 85.246094 127.566406 86.871094 126.722656 87.933594 126.722656 C 88.121094 126.722656 89.371094 126.753906 90.058594 127.472656 C 89.246094 127.535156 89.121094 128.128906 89.121094 128.378906 C 89.121094 128.910156 89.496094 129.285156 90.027344 129.285156 C 90.558594 129.285156 90.964844 128.972656 90.964844 128.347656 C 90.964844 127.003906 89.433594 126.222656 87.902344 126.222656 C 85.402344 126.222656 83.589844 128.378906 83.589844 130.847656 C 83.589844 133.410156 85.558594 135.378906 87.871094 135.378906 C 90.527344 135.378906 91.183594 132.972656 91.183594 132.785156 C 91.183594 132.597656 90.964844 132.597656 90.902344 132.597656 C 90.746094 132.597656 90.683594 132.660156 90.652344 132.785156 C 90.089844 134.628906 88.777344 134.878906 88.058594 134.878906 C 86.996094 134.878906 85.246094 134.035156 85.246094 130.816406 Z M 85.246094 130.816406 "/>
<path style=" stroke:none;fill-rule:nonzero;fill:rgb(0%,0%,0%);fill-opacity:1;" d="M 94.101562 130.816406 C 94.101562 127.566406 95.726562 126.722656 96.789062 126.722656 C 96.976562 126.722656 98.226562 126.753906 98.914062 127.472656 C 98.101562 127.535156 97.976562 128.128906 97.976562 128.378906 C 97.976562 128.910156 98.351562 129.285156 98.882812 129.285156 C 99.414062 129.285156 99.820312 128.972656 99.820312 128.347656 C 99.820312 127.003906 98.289062 126.222656 96.757812 126.222656 C 94.257812 126.222656 92.445312 128.378906 92.445312 130.847656 C 92.445312 133.410156 94.414062 135.378906 96.726562 135.378906 C 99.382812 135.378906 100.039062 132.972656 100.039062 132.785156 C 100.039062 132.597656 99.820312 132.597656 99.757812 132.597656 C 99.601562 132.597656 99.539062 132.660156 99.507812 132.785156 C 98.945312 134.628906 97.632812 134.878906 96.914062 134.878906 C 95.851562 134.878906 94.101562 134.035156 94.101562 130.816406 Z M 94.101562 130.816406 "/>
<path style=" stroke:none;fill-rule:nonzero;fill:rgb(0%,0%,0%);fill-opacity:1;" d="M 102.953125 130.816406 C 102.953125 127.566406 104.578125 126.722656 105.640625 126.722656 C 105.828125 126.722656 107.078125 126.753906 107.765625 127.472656 C 106.953125 127.535156 106.828125 128.128906 106.828125 128.378906 C 106.828125 128.910156 107.203125 129.285156 107.734375 129.285156 C 108.265625 129.285156 108.671875 128.972656 108.671875 128.347656 C 108.671875 127.003906 107.140625 126.222656 105.609375 126.222656 C 103.109375 126.222656 101.296875 128.378906 101.296875 130.847656 C 101.296875 133.410156 103.265625 135.378906 105.578125 135.378906 C 108.234375 135.378906 108.890625 132.972656 108.890625 132.785156 C 108.890625 132.597656 108.671875 132.597656 108.609375 132.597656 C 108.453125 132.597656 108.390625 132.660156 108.359375 132.785156 C 107.796875 134.628906 106.484375 134.878906 105.765625 134.878906 C 104.703125 134.878906 102.953125 134.035156 102.953125 130.816406 Z M 102.953125 130.816406 "/>
<path style="fill:none;stroke-width:0.566929;stroke-linecap:butt;stroke-linejoin:miter;stroke:rgb(100%,0%,0%);stroke-opacity:0.5;stroke-miterlimit:10;" d="M 79.898622 59.526682 L 85.568544 53.858714 " transform="matrix(2,0,0,2,5.952756,6.169291)"/>
<path style="fill:none;stroke-width:0.566929;stroke-linecap:butt;stroke-linejoin:miter;stroke:rgb(100%,0%,0%);stroke-opacity:0.5;stroke-miterlimit:10;" d="M 85.568544 59.526682 L 79.898622 53.858714 " transform="matrix(2,0,0,2,5.952756,6.169291)"/>
<path style="fill-rule:nonzero;fill:rgb(50%,50%,0%);fill-opacity:0.1;stroke-width:0.566929;stroke-linecap:butt;stroke-linejoin:miter;stroke:rgb(100%,0%,0%);stroke-opacity:0.5;stroke-miterlimit:10;" d="M 54.804872 70.39387 L 110.662294 70.39387 L 110.662294 56.692698 L 54.804872 56.692698 Z M 54.804872 70.39387 " transform="matrix(2,0,0,2,5.952756,6.169291)"/>
<path style="fill:none;stroke-width:0.566929;stroke-linecap:butt;stroke-linejoin:miter;stroke:rgb(100%,0%,0%);stroke-opacity:0.5;stroke-miterlimit:10;" d="M 54.804872 70.284495 L 60.472841 64.614573 " transform="matrix(2,0,0,2,5.952756,6.169291)"/>
<path style="fill:none;stroke-width:0.566929;stroke-linecap:butt;stroke-linejoin:miter;stroke:rgb(100%,0%,0%);stroke-opacity:0.5;stroke-miterlimit:10;" d="M 60.472841 70.284495 L 54.804872 64.614573 " transform="matrix(2,0,0,2,5.952756,6.169291)"/>
<path style="fill-rule:nonzero;fill:rgb(50%,50%,0%);fill-opacity:0.1;stroke-width:0.566929;stroke-linecap:butt;stroke-linejoin:miter;stroke:rgb(100%,0%,0%);stroke-opacity:0.5;stroke-miterlimit:10;" d="M 54.804872 70.39387 L 110.662294 70.39387 L 110.662294 56.692698 L 54.804872 56.692698 Z M 54.804872 70.39387 " transform="matrix(2,0,0,2,5.952756,6.169291)"/>
<path style="fill:none;stroke-width:0.566929;stroke-linecap:butt;stroke-linejoin:miter;stroke:rgb(100%,0%,0%);stroke-opacity:0.5;stroke-miterlimit:10;" d="M 54.804872 70.284495 L 60.472841 64.614573 " transform="matrix(2,0,0,2,5.952756,6.169291)"/>
<path style="fill:none;stroke-width:0.566929;stroke-linecap:butt;stroke-linejoin:miter;stroke:rgb(100%,0%,0%);stroke-opacity:0.5;stroke-miterlimit:10;" d="M 60.472841 70.284495 L 54.804872 64.614573 " transform="matrix(2,0,0,2,5.952756,6.169291)"/>
<path style="fill-rule:nonzero;fill:rgb(50%,50%,0%);fill-opacity:0.1;stroke-width:0.566929;stroke-linecap:butt;stroke-linejoin:miter;stroke:rgb(100%,0%,0%);stroke-opacity:0.5;stroke-miterlimit:10;" d="M 57.638856 67.557932 L 107.826356 67.557932 L 107.826356 59.526682 L 57.638856 59.526682 Z M 57.638856 67.557932 " transform="matrix(2,0,0,2,5.952756,6.169291)"/>
<path style=" stroke:none;fill-rule:nonzero;fill:rgb(0%,0%,0%);fill-opacity:1;" d="M 125.105469 132.535156 L 125.105469 126.222656 L 122.230469 126.441406 L 122.230469 127.066406 C 123.636719 127.066406 123.792969 127.191406 123.792969 128.191406 L 123.792969 140.066406 L 124.292969 140.066406 C 124.292969 140.035156 124.449219 139.753906 125.011719 138.816406 C 125.292969 139.285156 126.136719 140.285156 127.605469 140.285156 C 129.980469 140.285156 132.042969 138.316406 132.042969 135.753906 C 132.042969 133.222656 130.105469 131.253906 127.824219 131.253906 C 126.261719 131.253906 125.417969 132.191406 125.105469 132.535156 Z M 125.167969 137.785156 L 125.167969 133.691406 C 125.167969 133.316406 125.167969 133.285156 125.386719 132.972656 C 126.167969 131.847656 127.261719 131.691406 127.730469 131.691406 C 128.636719 131.691406 129.355469 132.222656 129.824219 132.972656 C 130.355469 133.785156 130.386719 134.910156 130.386719 135.753906 C 130.386719 136.472656 130.355469 137.660156 129.792969 138.566406 C 129.355469 139.191406 128.605469 139.847656 127.542969 139.847656 C 126.636719 139.847656 125.917969 139.378906 125.449219 138.628906 C 125.167969 138.222656 125.167969 138.160156 125.167969 137.785156 Z M 125.167969 137.785156 "/>
<path style=" stroke:none;fill-rule:nonzero;fill:rgb(0%,0%,0%);fill-opacity:1;" d="M 136.175781 132.535156 L 136.175781 126.222656 L 133.300781 126.441406 L 133.300781 127.066406 C 134.707031 127.066406 134.863281 127.191406 134.863281 128.191406 L 134.863281 140.066406 L 135.363281 140.066406 C 135.363281 140.035156 135.519531 139.753906 136.082031 138.816406 C 136.363281 139.285156 137.207031 140.285156 138.675781 140.285156 C 141.050781 140.285156 143.113281 138.316406 143.113281 135.753906 C 143.113281 133.222656 141.175781 131.253906 138.894531 131.253906 C 137.332031 131.253906 136.488281 132.191406 136.175781 132.535156 Z M 136.238281 137.785156 L 136.238281 133.691406 C 136.238281 133.316406 136.238281 133.285156 136.457031 132.972656 C 137.238281 131.847656 138.332031 131.691406 138.800781 131.691406 C 139.707031 131.691406 140.425781 132.222656 140.894531 132.972656 C 141.425781 133.785156 141.457031 134.910156 141.457031 135.753906 C 141.457031 136.472656 141.425781 137.660156 140.863281 138.566406 C 140.425781 139.191406 139.675781 139.847656 138.613281 139.847656 C 137.707031 139.847656 136.988281 139.378906 136.519531 138.628906 C 136.238281 138.222656 136.238281 138.160156 136.238281 137.785156 Z M 136.238281 137.785156 "/>
<path style=" stroke:none;fill-rule:nonzero;fill:rgb(0%,0%,0%);fill-opacity:1;" d="M 147.246094 132.535156 L 147.246094 126.222656 L 144.371094 126.441406 L 144.371094 127.066406 C 145.777344 127.066406 145.933594 127.191406 145.933594 128.191406 L 145.933594 140.066406 L 146.433594 140.066406 C 146.433594 140.035156 146.589844 139.753906 147.152344 138.816406 C 147.433594 139.285156 148.277344 140.285156 149.746094 140.285156 C 152.121094 140.285156 154.183594 138.316406 154.183594 135.753906 C 154.183594 133.222656 152.246094 131.253906 149.964844 131.253906 C 148.402344 131.253906 147.558594 132.191406 147.246094 132.535156 Z M 147.308594 137.785156 L 147.308594 133.691406 C 147.308594 133.316406 147.308594 133.285156 147.527344 132.972656 C 148.308594 131.847656 149.402344 131.691406 149.871094 131.691406 C 150.777344 131.691406 151.496094 132.222656 151.964844 132.972656 C 152.496094 133.785156 152.527344 134.910156 152.527344 135.753906 C 152.527344 136.472656 152.496094 137.660156 151.933594 138.566406 C 151.496094 139.191406 150.746094 139.847656 149.683594 139.847656 C 148.777344 139.847656 148.058594 139.378906 147.589844 138.628906 C 147.308594 138.222656 147.308594 138.160156 147.308594 137.785156 Z M 147.308594 137.785156 "/>
<path style=" stroke:none;fill-rule:nonzero;fill:rgb(0%,0%,0%);fill-opacity:1;" d="M 158.316406 132.535156 L 158.316406 126.222656 L 155.441406 126.441406 L 155.441406 127.066406 C 156.847656 127.066406 157.003906 127.191406 157.003906 128.191406 L 157.003906 140.066406 L 157.503906 140.066406 C 157.503906 140.035156 157.660156 139.753906 158.222656 138.816406 C 158.503906 139.285156 159.347656 140.285156 160.816406 140.285156 C 163.191406 140.285156 165.253906 138.316406 165.253906 135.753906 C 165.253906 133.222656 163.316406 131.253906 161.035156 131.253906 C 159.472656 131.253906 158.628906 132.191406 158.316406 132.535156 Z M 158.378906 137.785156 L 158.378906 133.691406 C 158.378906 133.316406 158.378906 133.285156 158.597656 132.972656 C 159.378906 131.847656 160.472656 131.691406 160.941406 131.691406 C 161.847656 131.691406 162.566406 132.222656 163.035156 132.972656 C 163.566406 133.785156 163.597656 134.910156 163.597656 135.753906 C 163.597656 136.472656 163.566406 137.660156 163.003906 138.566406 C 162.566406 139.191406 161.816406 139.847656 160.753906 139.847656 C 159.847656 139.847656 159.128906 139.378906 158.660156 138.628906 C 158.378906 138.222656 158.378906 138.160156 158.378906 137.785156 Z M 158.378906 137.785156 "/>
<path style=" stroke:none;fill-rule:nonzero;fill:rgb(0%,0%,0%);fill-opacity:1;" d="M 169.386719 132.535156 L 169.386719 126.222656 L 166.511719 126.441406 L 166.511719 127.066406 C 167.917969 127.066406 168.074219 127.191406 168.074219 128.191406 L 168.074219 140.066406 L 168.574219 140.066406 C 168.574219 140.035156 168.730469 139.753906 169.292969 138.816406 C 169.574219 139.285156 170.417969 140.285156 171.886719 140.285156 C 174.261719 140.285156 176.324219 138.316406 176.324219 135.753906 C 176.324219 133.222656 174.386719 131.253906 172.105469 131.253906 C 170.542969 131.253906 169.699219 132.191406 169.386719 132.535156 Z M 169.449219 137.785156 L 169.449219 133.691406 C 169.449219 133.316406 169.449219 133.285156 169.667969 132.972656 C 170.449219 131.847656 171.542969 131.691406 172.011719 131.691406 C 172.917969 131.691406 173.636719 132.222656 174.105469 132.972656 C 174.636719 133.785156 174.667969 134.910156 174.667969 135.753906 C 174.667969 136.472656 174.636719 137.660156 174.074219 138.566406 C 173.636719 139.191406 172.886719 139.847656 171.824219 139.847656 C 170.917969 139.847656 170.199219 139.378906 169.730469 138.628906 C 169.449219 138.222656 169.449219 138.160156 169.449219 137.785156 Z M 169.449219 137.785156 "/>
<path style=" stroke:none;fill-rule:nonzero;fill:rgb(0%,0%,0%);fill-opacity:1;" d="M 180.457031 132.535156 L 180.457031 126.222656 L 177.582031 126.441406 L 177.582031 127.066406 C 178.988281 127.066406 179.144531 127.191406 179.144531 128.191406 L 179.144531 140.066406 L 179.644531 140.066406 C 179.644531 140.035156 179.800781 139.753906 180.363281 138.816406 C 180.644531 139.285156 181.488281 140.285156 182.957031 140.285156 C 185.332031 140.285156 187.394531 138.316406 187.394531 135.753906 C 187.394531 133.222656 185.457031 131.253906 183.175781 131.253906 C 181.613281 131.253906 180.769531 132.191406 180.457031 132.535156 Z M 180.519531 137.785156 L 180.519531 133.691406 C 180.519531 133.316406 180.519531 133.285156 180.738281 132.972656 C 181.519531 131.847656 182.613281 131.691406 183.082031 131.691406 C 183.988281 131.691406 184.707031 132.222656 185.175781 132.972656 C 185.707031 133.785156 185.738281 134.910156 185.738281 135.753906 C 185.738281 136.472656 185.707031 137.660156 185.144531 138.566406 C 184.707031 139.191406 183.957031 139.847656 182.894531 139.847656 C 181.988281 139.847656 181.269531 139.378906 180.800781 138.628906 C 180.519531 138.222656 180.519531 138.160156 180.519531 137.785156 Z M 180.519531 137.785156 "/>
<path style=" stroke:none;fill-rule:nonzero;fill:rgb(0%,0%,0%);fill-opacity:1;" d="M 191.527344 132.535156 L 191.527344 126.222656 L 188.652344 126.441406 L 188.652344 127.066406 C 190.058594 127.066406 190.214844 127.191406 190.214844 128.191406 L 190.214844 140.066406 L 190.714844 140.066406 C 190.714844 140.035156 190.871094 139.753906 191.433594 138.816406 C 191.714844 139.285156 192.558594 140.285156 194.027344 140.285156 C 196.402344 140.285156 198.464844 138.316406 198.464844 135.753906 C 198.464844 133.222656 196.527344 131.253906 194.246094 131.253906 C 192.683594 131.253906 191.839844 132.191406 191.527344 132.535156 Z M 191.589844 137.785156 L 191.589844 133.691406 C 191.589844 133.316406 191.589844 133.285156 191.808594 132.972656 C 192.589844 131.847656 193.683594 131.691406 194.152344 131.691406 C 195.058594 131.691406 195.777344 132.222656 196.246094 132.972656 C 196.777344 133.785156 196.808594 134.910156 196.808594 135.753906 C 196.808594 136.472656 196.777344 137.660156 196.214844 138.566406 C 195.777344 139.191406 195.027344 139.847656 193.964844 139.847656 C 193.058594 139.847656 192.339844 139.378906 191.871094 138.628906 C 191.589844 138.222656 191.589844 138.160156 191.589844 137.785156 Z M 191.589844 137.785156 "/>
<path style=" stroke:none;fill-rule:nonzero;fill:rgb(0%,0%,0%);fill-opacity:1;" d="M 202.597656 132.535156 L 202.597656 126.222656 L 199.722656 126.441406 L 199.722656 127.066406 C 201.128906 127.066406 201.285156 127.191406 201.285156 128.191406 L 201.285156 140.066406 L 201.785156 140.066406 C 201.785156 140.035156 201.941406 139.753906 202.503906 138.816406 C 202.785156 139.285156 203.628906 140.285156 205.097656 140.285156 C 207.472656 140.285156 209.535156 138.316406 209.535156 135.753906 C 209.535156 133.222656 207.597656 131.253906 205.316406 131.253906 C 203.753906 131.253906 202.910156 132.191406 202.597656 132.535156 Z M 202.660156 137.785156 L 202.660156 133.691406 C 202.660156 133.316406 202.660156 133.285156 202.878906 132.972656 C 203.660156 131.847656 204.753906 131.691406 205.222656 131.691406 C 206.128906 131.691406 206.847656 132.222656 207.316406 132.972656 C 207.847656 133.785156 207.878906 134.910156 207.878906 135.753906 C 207.878906 136.472656 207.847656 137.660156 207.285156 138.566406 C 206.847656 139.191406 206.097656 139.847656 205.035156 139.847656 C 204.128906 139.847656 203.410156 139.378906 202.941406 138.628906 C 202.660156 138.222656 202.660156 138.160156 202.660156 137.785156 Z M 202.660156 137.785156 "/>
<path style=" stroke:none;fill-rule:nonzero;fill:rgb(0%,0%,0%);fill-opacity:1;" d="M 213.667969 132.535156 L 213.667969 126.222656 L 210.792969 126.441406 L 210.792969 127.066406 C 212.199219 127.066406 212.355469 127.191406 212.355469 128.191406 L 212.355469 140.066406 L 212.855469 140.066406 C 212.855469 140.035156 213.011719 139.753906 213.574219 138.816406 C 213.855469 139.285156 214.699219 140.285156 216.167969 140.285156 C 218.542969 140.285156 220.605469 138.316406 220.605469 135.753906 C 220.605469 133.222656 218.667969 131.253906 216.386719 131.253906 C 214.824219 131.253906 213.980469 132.191406 213.667969 132.535156 Z M 213.730469 137.785156 L 213.730469 133.691406 C 213.730469 133.316406 213.730469 133.285156 213.949219 132.972656 C 214.730469 131.847656 215.824219 131.691406 216.292969 131.691406 C 217.199219 131.691406 217.917969 132.222656 218.386719 132.972656 C 218.917969 133.785156 218.949219 134.910156 218.949219 135.753906 C 218.949219 136.472656 218.917969 137.660156 218.355469 138.566406 C 217.917969 139.191406 217.167969 139.847656 216.105469 139.847656 C 215.199219 139.847656 214.480469 139.378906 214.011719 138.628906 C 213.730469 138.222656 213.730469 138.160156 213.730469 137.785156 Z M 213.730469 137.785156 "/>
<path style="fill:none;stroke-width:0.566929;stroke-linecap:butt;stroke-linejoin:miter;stroke:rgb(100%,0%,0%);stroke-opacity:0.5;stroke-miterlimit:10;" d="M 107.826356 59.526682 L 113.496278 53.858714 " transform="matrix(2,0,0,2,5.952756,6.169291)"/>
<path style="fill:none;stroke-width:0.566929;stroke-linecap:butt;stroke-linejoin:miter;stroke:rgb(100%,0%,0%);stroke-opacity:0.5;stroke-miterlimit:10;" d="M 113.496278 59.526682 L 107.826356 53.858714 " transform="matrix(2,0,0,2,5.952756,6.169291)"/>
<path style="fill:none;stroke-width:0.566929;stroke-linecap:butt;stroke-linejoin:miter;stroke:rgb(100%,0%,0%);stroke-opacity:0.5;stroke-miterlimit:10;" d="M 110.662294 85.038401 L 110.662294 56.692698 Z M 110.662294 85.038401 " transform="matrix(2,0,0,2,5.952756,6.169291)"/>
</g>
</svg>
