<?xml version="1.0" encoding="UTF-8"?>
<svg xmlns="http://www.w3.org/2000/svg" xmlns:xlink="http://www.w3.org/1999/xlink" width="372.391096pt" height="417.282226pt" viewBox="0 0 372.391096 417.282226" version="1.1">
<g id="surface137">
<path style="fill:none;stroke-width:0.566929;stroke-linecap:butt;stroke-linejoin:miter;stroke:rgb(100%,0%,0%);stroke-opacity:0.5;stroke-miterlimit:10;" d="M -2.834646 2.834169 L 2.835276 -2.8338 " transform="matrix(2,0,0,2,6.169291,5.952756)"/>
<path style="fill:none;stroke-width:0.566929;stroke-linecap:butt;stroke-linejoin:miter;stroke:rgb(100%,0%,0%);stroke-opacity:0.5;stroke-miterlimit:10;" d="M 2.835276 2.834169 L -2.834646 -2.8338 " transform="matrix(2,0,0,2,6.169291,5.952756)"/>
<path style="fill-rule:nonzero;fill:rgb(50%,50%,0%);fill-opacity:0.1;stroke-width:0.566929;stroke-linecap:butt;stroke-linejoin:miter;stroke:rgb(100%,0%,0%);stroke-opacity:0.5;stroke-miterlimit:10;" d="M -0.000661294 205.414247 L 182.970042 205.414247 L 182.970042 0.000184547 L -0.000661294 0.000184547 Z M -0.000661294 205.414247 " transform="matrix(2,0,0,2,6.169291,5.952756)"/>
<path style="fill:none;stroke-width:0.566929;stroke-linecap:butt;stroke-linejoin:miter;stroke:rgb(100%,0%,0%);stroke-opacity:0.5;stroke-miterlimit:10;" d="M -2.834646 43.597841 L 2.835276 37.927919 " transform="matrix(2,0,0,2,6.169291,5.952756)"/>
<path style="fill:none;stroke-width:0.566929;stroke-linecap:butt;stroke-linejoin:miter;stroke:rgb(100%,0%,0%);stroke-opacity:0.5;stroke-miterlimit:10;" d="M 2.835276 43.597841 L -2.834646 37.927919 " transform="matrix(2,0,0,2,6.169291,5.952756)"/>
<path style="fill-rule:nonzero;fill:rgb(50%,50%,0%);fill-opacity:0.1;stroke-width:0.566929;stroke-linecap:butt;stroke-linejoin:miter;stroke:rgb(100%,0%,0%);stroke-opacity:0.5;stroke-miterlimit:10;" d="M -0.000661294 95.474794 L 182.970042 95.474794 L 182.970042 0.000184547 L -0.000661294 0.000184547 Z M -0.000661294 95.474794 " transform="matrix(2,0,0,2,6.169291,5.952756)"/>
<path style="fill:none;stroke-width:0.566929;stroke-linecap:butt;stroke-linejoin:miter;stroke:rgb(100%,0%,0%);stroke-opacity:0.5;stroke-miterlimit:10;" d="M 24.313792 43.597841 L 29.983714 37.927919 " transform="matrix(2,0,0,2,6.169291,5.952756)"/>
<path style="fill:none;stroke-width:0.566929;stroke-linecap:butt;stroke-linejoin:miter;stroke:rgb(100%,0%,0%);stroke-opacity:0.5;stroke-miterlimit:10;" d="M 29.983714 43.597841 L 24.313792 37.927919 " transform="matrix(2,0,0,2,6.169291,5.952756)"/>
<path style="fill-rule:nonzero;fill:rgb(50%,50%,0%);fill-opacity:0.1;stroke-width:0.566929;stroke-linecap:butt;stroke-linejoin:miter;stroke:rgb(100%,0%,0%);stroke-opacity:0.5;stroke-miterlimit:10;" d="M -0.000661294 87.7912 L 77.05012 87.7912 L 77.05012 0.000184547 L -0.000661294 0.000184547 Z M -0.000661294 87.7912 " transform="matrix(2,0,0,2,6.169291,5.952756)"/>
<path style="fill:none;stroke-width:0.566929;stroke-linecap:butt;stroke-linejoin:miter;stroke:rgb(100%,0%,0%);stroke-opacity:0.5;stroke-miterlimit:10;" d="M 129.774729 43.597841 L 135.444651 37.927919 " transform="matrix(2,0,0,2,6.169291,5.952756)"/>
<path style="fill:none;stroke-width:0.566929;stroke-linecap:butt;stroke-linejoin:miter;stroke:rgb(100%,0%,0%);stroke-opacity:0.5;stroke-miterlimit:10;" d="M 135.444651 43.597841 L 129.774729 37.927919 " transform="matrix(2,0,0,2,6.169291,5.952756)"/>
<path style="fill-rule:nonzero;fill:rgb(50%,50%,0%);fill-opacity:0.1;stroke-width:0.566929;stroke-linecap:butt;stroke-linejoin:miter;stroke:rgb(100%,0%,0%);stroke-opacity:0.5;stroke-miterlimit:10;" d="M 77.05012 95.474794 L 156.870432 95.474794 L 156.870432 15.513856 L 77.05012 15.513856 Z M 77.05012 95.474794 " transform="matrix(2,0,0,2,6.169291,5.952756)"/>
<path style="fill:none;stroke-width:0.566929;stroke-linecap:butt;stroke-linejoin:miter;stroke:rgb(100%,0%,0%);stroke-opacity:0.5;stroke-miterlimit:10;" d="M 154.036448 43.597841 L 159.70637 37.927919 " transform="matrix(2,0,0,2,6.169291,5.952756)"/>
<path style="fill:none;stroke-width:0.566929;stroke-linecap:butt;stroke-linejoin:miter;stroke:rgb(100%,0%,0%);stroke-opacity:0.5;stroke-miterlimit:10;" d="M 159.70637 43.597841 L 154.036448 37.927919 " transform="matrix(2,0,0,2,6.169291,5.952756)"/>
<path style="fill-rule:nonzero;fill:rgb(50%,50%,0%);fill-opacity:0.1;stroke-width:0.566929;stroke-linecap:butt;stroke-linejoin:miter;stroke:rgb(100%,0%,0%);stroke-opacity:0.5;stroke-miterlimit:10;" d="M 156.870432 42.808778 L 182.970042 42.808778 L 182.970042 32.621278 L 156.870432 32.621278 Z M 156.870432 42.808778 " transform="matrix(2,0,0,2,6.169291,5.952756)"/>
<path style=" stroke:none;fill-rule:nonzero;fill:rgb(0%,0%,0%);fill-opacity:1;" d="M 332.472656 74.414062 C 332.472656 73.695312 332.503906 73.476562 334.035156 73.476562 L 334.535156 73.476562 L 334.535156 72.851562 C 333.816406 72.914062 332.347656 72.914062 331.597656 72.914062 C 330.847656 72.914062 329.347656 72.914062 328.660156 72.851562 L 328.660156 73.476562 L 329.128906 73.476562 C 330.660156 73.476562 330.691406 73.695312 330.691406 74.414062 L 330.691406 79.070312 L 324.753906 79.070312 L 324.753906 74.414062 C 324.753906 73.695312 324.785156 73.476562 326.316406 73.476562 L 326.785156 73.476562 L 326.785156 72.851562 C 326.097656 72.914062 324.628906 72.914062 323.847656 72.914062 C 323.097656 72.914062 321.597656 72.914062 320.910156 72.851562 L 320.910156 73.476562 L 321.378906 73.476562 C 322.910156 73.476562 322.972656 73.695312 322.972656 74.414062 L 322.972656 84.914062 C 322.972656 85.632812 322.910156 85.851562 321.378906 85.851562 L 320.910156 85.851562 L 320.910156 86.476562 C 321.597656 86.414062 323.097656 86.414062 323.847656 86.414062 C 324.597656 86.414062 326.097656 86.414062 326.785156 86.476562 L 326.785156 85.851562 L 326.316406 85.851562 C 324.785156 85.851562 324.753906 85.632812 324.753906 84.914062 L 324.753906 79.695312 L 330.691406 79.695312 L 330.691406 84.914062 C 330.691406 85.632812 330.660156 85.851562 329.128906 85.851562 L 328.660156 85.851562 L 328.660156 86.476562 C 329.347656 86.414062 330.816406 86.414062 331.566406 86.414062 C 332.347656 86.414062 333.816406 86.414062 334.535156 86.476562 L 334.535156 85.851562 L 334.035156 85.851562 C 332.503906 85.851562 332.472656 85.632812 332.472656 84.914062 Z M 332.472656 74.414062 "/>
<path style=" stroke:none;fill-rule:nonzero;fill:rgb(0%,0%,0%);fill-opacity:1;" d="M 338.730469 77.664062 L 335.949219 77.882812 L 335.949219 78.507812 C 337.230469 78.507812 337.417969 78.632812 337.417969 79.601562 L 337.417969 84.976562 C 337.417969 85.851562 337.199219 85.851562 335.855469 85.851562 L 335.855469 86.476562 C 336.480469 86.445312 337.574219 86.414062 338.042969 86.414062 C 338.761719 86.414062 339.449219 86.445312 340.136719 86.476562 L 340.136719 85.851562 C 338.792969 85.851562 338.730469 85.757812 338.730469 84.976562 Z M 338.792969 74.195312 C 338.792969 73.570312 338.324219 73.132812 337.761719 73.132812 C 337.136719 73.132812 336.699219 73.664062 336.699219 74.195312 C 336.699219 74.726562 337.136719 75.257812 337.761719 75.257812 C 338.324219 75.257812 338.792969 74.820312 338.792969 74.195312 Z M 338.792969 74.195312 "/>
<path style=" stroke:none;fill-rule:nonzero;fill:rgb(0%,0%,0%);fill-opacity:1;" d="M 345.171875 83.039062 C 343.421875 83.039062 343.421875 81.039062 343.421875 80.601562 C 343.421875 80.070312 343.453125 79.414062 343.734375 78.914062 C 343.890625 78.695312 344.359375 78.132812 345.171875 78.132812 C 346.890625 78.132812 346.890625 80.101562 346.890625 80.570312 C 346.890625 81.101562 346.890625 81.757812 346.578125 82.257812 C 346.421875 82.476562 345.953125 83.039062 345.171875 83.039062 Z M 342.859375 83.820312 C 342.859375 83.757812 342.859375 83.289062 343.171875 82.882812 C 343.953125 83.445312 344.796875 83.507812 345.171875 83.507812 C 347.015625 83.507812 348.390625 82.132812 348.390625 80.601562 C 348.390625 79.851562 348.078125 79.132812 347.578125 78.664062 C 348.296875 77.976562 349.015625 77.882812 349.359375 77.882812 C 349.421875 77.882812 349.515625 77.882812 349.578125 77.914062 C 349.359375 77.976562 349.234375 78.195312 349.234375 78.445312 C 349.234375 78.789062 349.515625 79.007812 349.828125 79.007812 C 350.015625 79.007812 350.390625 78.882812 350.390625 78.414062 C 350.390625 78.070312 350.171875 77.445312 349.390625 77.445312 C 348.984375 77.445312 348.109375 77.570312 347.265625 78.382812 C 346.421875 77.726562 345.609375 77.664062 345.171875 77.664062 C 343.296875 77.664062 341.921875 79.039062 341.921875 80.570312 C 341.921875 81.445312 342.359375 82.195312 342.859375 82.632812 C 342.609375 82.914062 342.234375 83.570312 342.234375 84.289062 C 342.234375 84.914062 342.515625 85.664062 343.140625 86.070312 C 341.921875 86.382812 341.296875 87.257812 341.296875 88.039062 C 341.296875 89.476562 343.265625 90.570312 345.703125 90.570312 C 348.046875 90.570312 350.109375 89.570312 350.109375 88.007812 C 350.109375 87.320312 349.859375 86.289062 348.828125 85.726562 C 347.765625 85.195312 346.609375 85.195312 345.390625 85.195312 C 344.890625 85.195312 344.046875 85.195312 343.890625 85.164062 C 343.265625 85.070312 342.859375 84.476562 342.859375 83.820312 Z M 345.734375 90.132812 C 343.703125 90.132812 342.328125 89.101562 342.328125 88.039062 C 342.328125 87.132812 343.078125 86.382812 343.953125 86.351562 L 345.140625 86.351562 C 346.859375 86.351562 349.078125 86.351562 349.078125 88.039062 C 349.078125 89.132812 347.671875 90.132812 345.734375 90.132812 Z M 345.734375 90.132812 "/>
<path style=" stroke:none;fill-rule:nonzero;fill:rgb(0%,0%,0%);fill-opacity:1;" d="M 359.855469 80.101562 C 359.855469 78.507812 359.761719 76.914062 359.074219 75.445312 C 358.167969 73.507812 356.511719 73.195312 355.699219 73.195312 C 354.480469 73.195312 353.042969 73.726562 352.199219 75.570312 C 351.574219 76.945312 351.480469 78.507812 351.480469 80.101562 C 351.480469 81.601562 351.542969 83.382812 352.386719 84.914062 C 353.230469 86.507812 354.699219 86.914062 355.667969 86.914062 C 356.730469 86.914062 358.261719 86.507812 359.136719 84.601562 C 359.761719 83.226562 359.855469 81.664062 359.855469 80.101562 Z M 355.667969 86.476562 C 354.886719 86.476562 353.699219 85.976562 353.355469 84.070312 C 353.136719 82.882812 353.136719 81.039062 353.136719 79.851562 C 353.136719 78.570312 353.136719 77.257812 353.292969 76.195312 C 353.667969 73.820312 355.167969 73.632812 355.667969 73.632812 C 356.324219 73.632812 357.636719 74.007812 358.011719 75.976562 C 358.230469 77.101562 358.230469 78.601562 358.230469 79.851562 C 358.230469 81.351562 358.230469 82.695312 358.011719 83.976562 C 357.699219 85.882812 356.574219 86.476562 355.667969 86.476562 Z M 355.667969 86.476562 "/>
<path style=" stroke:none;fill-rule:nonzero;fill:rgb(0%,0%,0%);fill-opacity:1;" d="M 370.359375 82.320312 L 371.109375 73.226562 C 371.109375 72.570312 370.578125 72.195312 370.078125 72.195312 C 369.546875 72.195312 369.015625 72.570312 369.015625 73.226562 L 369.796875 82.289062 C 369.796875 82.601562 369.828125 82.757812 370.078125 82.757812 C 370.265625 82.757812 370.328125 82.664062 370.359375 82.320312 Z M 371.109375 85.414062 C 371.109375 84.851562 370.640625 84.351562 370.078125 84.351562 C 369.484375 84.351562 369.015625 84.851562 369.015625 85.414062 C 369.015625 86.007812 369.484375 86.476562 370.078125 86.476562 C 370.640625 86.476562 371.109375 86.007812 371.109375 85.414062 Z M 371.109375 85.414062 "/>
<path style="fill:none;stroke-width:0.566929;stroke-linecap:butt;stroke-linejoin:miter;stroke:rgb(100%,0%,0%);stroke-opacity:0.5;stroke-miterlimit:10;" d="M -2.834646 151.845888 L 2.835276 146.175966 " transform="matrix(2,0,0,2,6.169291,5.952756)"/>
<path style="fill:none;stroke-width:0.566929;stroke-linecap:butt;stroke-linejoin:miter;stroke:rgb(100%,0%,0%);stroke-opacity:0.5;stroke-miterlimit:10;" d="M 2.835276 151.845888 L -2.834646 146.175966 " transform="matrix(2,0,0,2,6.169291,5.952756)"/>
<path style="fill-rule:nonzero;fill:rgb(50%,50%,0%);fill-opacity:0.1;stroke-width:0.566929;stroke-linecap:butt;stroke-linejoin:miter;stroke:rgb(100%,0%,0%);stroke-opacity:0.5;stroke-miterlimit:10;" d="M -0.000661294 205.414247 L 122.483714 205.414247 L 122.483714 95.474794 L -0.000661294 95.474794 Z M -0.000661294 205.414247 " transform="matrix(2,0,0,2,6.169291,5.952756)"/>
<path style="fill:none;stroke-width:0.566929;stroke-linecap:butt;stroke-linejoin:miter;stroke:rgb(100%,0%,0%);stroke-opacity:0.5;stroke-miterlimit:10;" d="M 26.370432 151.845888 L 32.040354 146.175966 " transform="matrix(2,0,0,2,6.169291,5.952756)"/>
<path style="fill:none;stroke-width:0.566929;stroke-linecap:butt;stroke-linejoin:miter;stroke:rgb(100%,0%,0%);stroke-opacity:0.5;stroke-miterlimit:10;" d="M 32.040354 151.845888 L 26.370432 146.175966 " transform="matrix(2,0,0,2,6.169291,5.952756)"/>
<path style="fill-rule:nonzero;fill:rgb(50%,50%,0%);fill-opacity:0.1;stroke-width:0.566929;stroke-linecap:butt;stroke-linejoin:miter;stroke:rgb(100%,0%,0%);stroke-opacity:0.5;stroke-miterlimit:10;" d="M -0.000661294 187.674013 L 47.727854 187.674013 L 47.727854 110.814638 L -0.000661294 110.814638 Z M -0.000661294 187.674013 " transform="matrix(2,0,0,2,6.169291,5.952756)"/>
<path style="fill:none;stroke-width:0.566929;stroke-linecap:butt;stroke-linejoin:miter;stroke:rgb(100%,0%,0%);stroke-opacity:0.5;stroke-miterlimit:10;" d="M 86.798167 151.845888 L 92.466136 146.175966 " transform="matrix(2,0,0,2,6.169291,5.952756)"/>
<path style="fill:none;stroke-width:0.566929;stroke-linecap:butt;stroke-linejoin:miter;stroke:rgb(100%,0%,0%);stroke-opacity:0.5;stroke-miterlimit:10;" d="M 92.466136 151.845888 L 86.798167 146.175966 " transform="matrix(2,0,0,2,6.169291,5.952756)"/>
<path style="fill-rule:nonzero;fill:rgb(50%,50%,0%);fill-opacity:0.1;stroke-width:0.566929;stroke-linecap:butt;stroke-linejoin:miter;stroke:rgb(100%,0%,0%);stroke-opacity:0.5;stroke-miterlimit:10;" d="M 47.727854 205.414247 L 96.384104 205.414247 L 96.384104 95.474794 L 47.727854 95.474794 Z M 47.727854 205.414247 " transform="matrix(2,0,0,2,6.169291,5.952756)"/>
<path style="fill:none;stroke-width:0.566929;stroke-linecap:butt;stroke-linejoin:miter;stroke:rgb(100%,0%,0%);stroke-opacity:0.5;stroke-miterlimit:10;" d="M 93.55012 151.845888 L 99.220042 146.175966 " transform="matrix(2,0,0,2,6.169291,5.952756)"/>
<path style="fill:none;stroke-width:0.566929;stroke-linecap:butt;stroke-linejoin:miter;stroke:rgb(100%,0%,0%);stroke-opacity:0.5;stroke-miterlimit:10;" d="M 99.220042 151.845888 L 93.55012 146.175966 " transform="matrix(2,0,0,2,6.169291,5.952756)"/>
<path style="fill-rule:nonzero;fill:rgb(50%,50%,0%);fill-opacity:0.1;stroke-width:0.566929;stroke-linecap:butt;stroke-linejoin:miter;stroke:rgb(100%,0%,0%);stroke-opacity:0.5;stroke-miterlimit:10;" d="M 96.384104 151.056825 L 122.483714 151.056825 L 122.483714 140.869325 L 96.384104 140.869325 Z M 96.384104 151.056825 " transform="matrix(2,0,0,2,6.169291,5.952756)"/>
<path style=" stroke:none;fill-rule:nonzero;fill:rgb(0%,0%,0%);fill-opacity:1;" d="M 211.5 290.910156 C 211.5 290.191406 211.53125 289.972656 213.0625 289.972656 L 213.5625 289.972656 L 213.5625 289.347656 C 212.84375 289.410156 211.375 289.410156 210.625 289.410156 C 209.875 289.410156 208.375 289.410156 207.6875 289.347656 L 207.6875 289.972656 L 208.15625 289.972656 C 209.6875 289.972656 209.71875 290.191406 209.71875 290.910156 L 209.71875 295.566406 L 203.78125 295.566406 L 203.78125 290.910156 C 203.78125 290.191406 203.8125 289.972656 205.34375 289.972656 L 205.8125 289.972656 L 205.8125 289.347656 C 205.125 289.410156 203.65625 289.410156 202.875 289.410156 C 202.125 289.410156 200.625 289.410156 199.9375 289.347656 L 199.9375 289.972656 L 200.40625 289.972656 C 201.9375 289.972656 202 290.191406 202 290.910156 L 202 301.410156 C 202 302.128906 201.9375 302.347656 200.40625 302.347656 L 199.9375 302.347656 L 199.9375 302.972656 C 200.625 302.910156 202.125 302.910156 202.875 302.910156 C 203.625 302.910156 205.125 302.910156 205.8125 302.972656 L 205.8125 302.347656 L 205.34375 302.347656 C 203.8125 302.347656 203.78125 302.128906 203.78125 301.410156 L 203.78125 296.191406 L 209.71875 296.191406 L 209.71875 301.410156 C 209.71875 302.128906 209.6875 302.347656 208.15625 302.347656 L 207.6875 302.347656 L 207.6875 302.972656 C 208.375 302.910156 209.84375 302.910156 210.59375 302.910156 C 211.375 302.910156 212.84375 302.910156 213.5625 302.972656 L 213.5625 302.347656 L 213.0625 302.347656 C 211.53125 302.347656 211.5 302.128906 211.5 301.410156 Z M 211.5 290.910156 "/>
<path style=" stroke:none;fill-rule:nonzero;fill:rgb(0%,0%,0%);fill-opacity:1;" d="M 217.757812 294.160156 L 214.976562 294.378906 L 214.976562 295.003906 C 216.257812 295.003906 216.445312 295.128906 216.445312 296.097656 L 216.445312 301.472656 C 216.445312 302.347656 216.226562 302.347656 214.882812 302.347656 L 214.882812 302.972656 C 215.507812 302.941406 216.601562 302.910156 217.070312 302.910156 C 217.789062 302.910156 218.476562 302.941406 219.164062 302.972656 L 219.164062 302.347656 C 217.820312 302.347656 217.757812 302.253906 217.757812 301.472656 Z M 217.820312 290.691406 C 217.820312 290.066406 217.351562 289.628906 216.789062 289.628906 C 216.164062 289.628906 215.726562 290.160156 215.726562 290.691406 C 215.726562 291.222656 216.164062 291.753906 216.789062 291.753906 C 217.351562 291.753906 217.820312 291.316406 217.820312 290.691406 Z M 217.820312 290.691406 "/>
<path style=" stroke:none;fill-rule:nonzero;fill:rgb(0%,0%,0%);fill-opacity:1;" d="M 224.199219 299.535156 C 222.449219 299.535156 222.449219 297.535156 222.449219 297.097656 C 222.449219 296.566406 222.480469 295.910156 222.761719 295.410156 C 222.917969 295.191406 223.386719 294.628906 224.199219 294.628906 C 225.917969 294.628906 225.917969 296.597656 225.917969 297.066406 C 225.917969 297.597656 225.917969 298.253906 225.605469 298.753906 C 225.449219 298.972656 224.980469 299.535156 224.199219 299.535156 Z M 221.886719 300.316406 C 221.886719 300.253906 221.886719 299.785156 222.199219 299.378906 C 222.980469 299.941406 223.824219 300.003906 224.199219 300.003906 C 226.042969 300.003906 227.417969 298.628906 227.417969 297.097656 C 227.417969 296.347656 227.105469 295.628906 226.605469 295.160156 C 227.324219 294.472656 228.042969 294.378906 228.386719 294.378906 C 228.449219 294.378906 228.542969 294.378906 228.605469 294.410156 C 228.386719 294.472656 228.261719 294.691406 228.261719 294.941406 C 228.261719 295.285156 228.542969 295.503906 228.855469 295.503906 C 229.042969 295.503906 229.417969 295.378906 229.417969 294.910156 C 229.417969 294.566406 229.199219 293.941406 228.417969 293.941406 C 228.011719 293.941406 227.136719 294.066406 226.292969 294.878906 C 225.449219 294.222656 224.636719 294.160156 224.199219 294.160156 C 222.324219 294.160156 220.949219 295.535156 220.949219 297.066406 C 220.949219 297.941406 221.386719 298.691406 221.886719 299.128906 C 221.636719 299.410156 221.261719 300.066406 221.261719 300.785156 C 221.261719 301.410156 221.542969 302.160156 222.167969 302.566406 C 220.949219 302.878906 220.324219 303.753906 220.324219 304.535156 C 220.324219 305.972656 222.292969 307.066406 224.730469 307.066406 C 227.074219 307.066406 229.136719 306.066406 229.136719 304.503906 C 229.136719 303.816406 228.886719 302.785156 227.855469 302.222656 C 226.792969 301.691406 225.636719 301.691406 224.417969 301.691406 C 223.917969 301.691406 223.074219 301.691406 222.917969 301.660156 C 222.292969 301.566406 221.886719 300.972656 221.886719 300.316406 Z M 224.761719 306.628906 C 222.730469 306.628906 221.355469 305.597656 221.355469 304.535156 C 221.355469 303.628906 222.105469 302.878906 222.980469 302.847656 L 224.167969 302.847656 C 225.886719 302.847656 228.105469 302.847656 228.105469 304.535156 C 228.105469 305.628906 226.699219 306.628906 224.761719 306.628906 Z M 224.761719 306.628906 "/>
<path style=" stroke:none;fill-rule:nonzero;fill:rgb(0%,0%,0%);fill-opacity:1;" d="M 235.601562 290.222656 C 235.601562 289.722656 235.601562 289.691406 235.132812 289.691406 C 233.882812 290.972656 232.132812 290.972656 231.507812 290.972656 L 231.507812 291.597656 C 231.914062 291.597656 233.070312 291.597656 234.101562 291.066406 L 234.101562 301.410156 C 234.101562 302.128906 234.039062 302.347656 232.257812 302.347656 L 231.632812 302.347656 L 231.632812 302.972656 C 232.320312 302.910156 234.039062 302.910156 234.851562 302.910156 C 235.632812 302.910156 237.382812 302.910156 238.070312 302.972656 L 238.070312 302.347656 L 237.445312 302.347656 C 235.632812 302.347656 235.601562 302.128906 235.601562 301.410156 Z M 235.601562 290.222656 "/>
<path style=" stroke:none;fill-rule:nonzero;fill:rgb(0%,0%,0%);fill-opacity:1;" d="M 249.386719 298.816406 L 250.136719 289.722656 C 250.136719 289.066406 249.605469 288.691406 249.105469 288.691406 C 248.574219 288.691406 248.042969 289.066406 248.042969 289.722656 L 248.824219 298.785156 C 248.824219 299.097656 248.855469 299.253906 249.105469 299.253906 C 249.292969 299.253906 249.355469 299.160156 249.386719 298.816406 Z M 250.136719 301.910156 C 250.136719 301.347656 249.667969 300.847656 249.105469 300.847656 C 248.511719 300.847656 248.042969 301.347656 248.042969 301.910156 C 248.042969 302.503906 248.511719 302.972656 249.105469 302.972656 C 249.667969 302.972656 250.136719 302.503906 250.136719 301.910156 Z M 250.136719 301.910156 "/>
</g>
</svg>
