<?xml version="1.0" encoding="UTF-8"?>
<svg xmlns="http://www.w3.org/2000/svg" xmlns:xlink="http://www.w3.org/1999/xlink" width="224.048017pt" height="176.748031pt" viewBox="0 0 224.048017 176.748031" version="1.1">
<g id="surface129">
<path style="fill:none;stroke-width:0.566929;stroke-linecap:butt;stroke-linejoin:miter;stroke:rgb(100%,0%,0%);stroke-opacity:0.5;stroke-miterlimit:10;" d="M -2.8338 2.835276 L 2.834169 -2.834646 " transform="matrix(2,0,0,2,5.952756,6.169291)"/>
<path style="fill:none;stroke-width:0.566929;stroke-linecap:butt;stroke-linejoin:miter;stroke:rgb(100%,0%,0%);stroke-opacity:0.5;stroke-miterlimit:10;" d="M 2.834169 2.835276 L -2.8338 -2.834646 " transform="matrix(2,0,0,2,5.952756,6.169291)"/>
<path style="fill-rule:nonzero;fill:rgb(50%,50%,0%);fill-opacity:0.1;stroke-width:0.566929;stroke-linecap:butt;stroke-linejoin:miter;stroke:rgb(100%,0%,0%);stroke-opacity:0.5;stroke-miterlimit:10;" d="M 0.000184547 85.038401 L 105.963075 85.038401 L 105.963075 -0.000661294 L 0.000184547 -0.000661294 Z M 0.000184547 85.038401 " transform="matrix(2,0,0,2,5.952756,6.169291)"/>
<path style="fill:none;stroke-width:0.566929;stroke-linecap:butt;stroke-linejoin:miter;stroke:rgb(100%,0%,0%);stroke-opacity:0.5;stroke-miterlimit:10;" d="M 8.488466 2.835276 L 14.158388 -2.834646 " transform="matrix(2,0,0,2,5.952756,6.169291)"/>
<path style="fill:none;stroke-width:0.566929;stroke-linecap:butt;stroke-linejoin:miter;stroke:rgb(100%,0%,0%);stroke-opacity:0.5;stroke-miterlimit:10;" d="M 14.158388 2.835276 L 8.488466 -2.834646 " transform="matrix(2,0,0,2,5.952756,6.169291)"/>
<path style="fill-rule:nonzero;fill:rgb(50%,50%,0%);fill-opacity:0.1;stroke-width:0.566929;stroke-linecap:butt;stroke-linejoin:miter;stroke:rgb(100%,0%,0%);stroke-opacity:0.5;stroke-miterlimit:10;" d="M 5.535341 13.700511 L 17.111513 13.700511 L 17.111513 -0.000661294 L 5.535341 -0.000661294 Z M 5.535341 13.700511 " transform="matrix(2,0,0,2,5.952756,6.169291)"/>
<path style="fill:none;stroke-width:0.566929;stroke-linecap:butt;stroke-linejoin:miter;stroke:rgb(100%,0%,0%);stroke-opacity:0.5;stroke-miterlimit:10;" d="M 5.535341 13.591136 L 11.205263 7.921214 " transform="matrix(2,0,0,2,5.952756,6.169291)"/>
<path style="fill:none;stroke-width:0.566929;stroke-linecap:butt;stroke-linejoin:miter;stroke:rgb(100%,0%,0%);stroke-opacity:0.5;stroke-miterlimit:10;" d="M 11.205263 13.591136 L 5.535341 7.921214 " transform="matrix(2,0,0,2,5.952756,6.169291)"/>
<path style="fill-rule:nonzero;fill:rgb(50%,50%,0%);fill-opacity:0.1;stroke-width:0.566929;stroke-linecap:butt;stroke-linejoin:miter;stroke:rgb(100%,0%,0%);stroke-opacity:0.5;stroke-miterlimit:10;" d="M 5.535341 13.700511 L 17.111513 13.700511 L 17.111513 -0.000661294 L 5.535341 -0.000661294 Z M 5.535341 13.700511 " transform="matrix(2,0,0,2,5.952756,6.169291)"/>
<path style="fill:none;stroke-width:0.566929;stroke-linecap:butt;stroke-linejoin:miter;stroke:rgb(100%,0%,0%);stroke-opacity:0.5;stroke-miterlimit:10;" d="M 5.535341 13.591136 L 11.205263 7.921214 " transform="matrix(2,0,0,2,5.952756,6.169291)"/>
<path style="fill:none;stroke-width:0.566929;stroke-linecap:butt;stroke-linejoin:miter;stroke:rgb(100%,0%,0%);stroke-opacity:0.5;stroke-miterlimit:10;" d="M 11.205263 13.591136 L 5.535341 7.921214 " transform="matrix(2,0,0,2,5.952756,6.169291)"/>
<path style="fill-rule:nonzero;fill:rgb(50%,50%,0%);fill-opacity:0.1;stroke-width:0.566929;stroke-linecap:butt;stroke-linejoin:miter;stroke:rgb(100%,0%,0%);stroke-opacity:0.5;stroke-miterlimit:10;" d="M 8.369325 10.866526 L 14.275575 10.866526 L 14.275575 2.835276 L 8.369325 2.835276 Z M 8.369325 10.866526 " transform="matrix(2,0,0,2,5.952756,6.169291)"/>
<path style=" stroke:none;fill-rule:nonzero;fill:rgb(0%,0%,0%);fill-opacity:1;" d="M 26.566406 19.152344 L 26.566406 12.839844 L 23.691406 13.058594 L 23.691406 13.683594 C 25.097656 13.683594 25.253906 13.808594 25.253906 14.808594 L 25.253906 26.683594 L 25.753906 26.683594 C 25.753906 26.652344 25.910156 26.371094 26.472656 25.433594 C 26.753906 25.902344 27.597656 26.902344 29.066406 26.902344 C 31.441406 26.902344 33.503906 24.933594 33.503906 22.371094 C 33.503906 19.839844 31.566406 17.871094 29.285156 17.871094 C 27.722656 17.871094 26.878906 18.808594 26.566406 19.152344 Z M 26.628906 24.402344 L 26.628906 20.308594 C 26.628906 19.933594 26.628906 19.902344 26.847656 19.589844 C 27.628906 18.464844 28.722656 18.308594 29.191406 18.308594 C 30.097656 18.308594 30.816406 18.839844 31.285156 19.589844 C 31.816406 20.402344 31.847656 21.527344 31.847656 22.371094 C 31.847656 23.089844 31.816406 24.277344 31.253906 25.183594 C 30.816406 25.808594 30.066406 26.464844 29.003906 26.464844 C 28.097656 26.464844 27.378906 25.996094 26.910156 25.246094 C 26.628906 24.839844 26.628906 24.777344 26.628906 24.402344 Z M 26.628906 24.402344 "/>
<path style="fill:none;stroke-width:0.566929;stroke-linecap:butt;stroke-linejoin:miter;stroke:rgb(100%,0%,0%);stroke-opacity:0.5;stroke-miterlimit:10;" d="M 33.5412 2.835276 L 39.211122 -2.834646 " transform="matrix(2,0,0,2,5.952756,6.169291)"/>
<path style="fill:none;stroke-width:0.566929;stroke-linecap:butt;stroke-linejoin:miter;stroke:rgb(100%,0%,0%);stroke-opacity:0.5;stroke-miterlimit:10;" d="M 39.211122 2.835276 L 33.5412 -2.834646 " transform="matrix(2,0,0,2,5.952756,6.169291)"/>
<path style="fill-rule:nonzero;fill:rgb(50%,50%,0%);fill-opacity:0.1;stroke-width:0.566929;stroke-linecap:butt;stroke-linejoin:miter;stroke:rgb(100%,0%,0%);stroke-opacity:0.5;stroke-miterlimit:10;" d="M 27.820497 13.700511 L 44.931825 13.700511 L 44.931825 -0.000661294 L 27.820497 -0.000661294 Z M 27.820497 13.700511 " transform="matrix(2,0,0,2,5.952756,6.169291)"/>
<path style="fill:none;stroke-width:0.566929;stroke-linecap:butt;stroke-linejoin:miter;stroke:rgb(100%,0%,0%);stroke-opacity:0.5;stroke-miterlimit:10;" d="M 27.820497 13.591136 L 33.490419 7.921214 " transform="matrix(2,0,0,2,5.952756,6.169291)"/>
<path style="fill:none;stroke-width:0.566929;stroke-linecap:butt;stroke-linejoin:miter;stroke:rgb(100%,0%,0%);stroke-opacity:0.5;stroke-miterlimit:10;" d="M 33.490419 13.591136 L 27.820497 7.921214 " transform="matrix(2,0,0,2,5.952756,6.169291)"/>
<path style="fill-rule:nonzero;fill:rgb(50%,50%,0%);fill-opacity:0.1;stroke-width:0.566929;stroke-linecap:butt;stroke-linejoin:miter;stroke:rgb(100%,0%,0%);stroke-opacity:0.5;stroke-miterlimit:10;" d="M 27.820497 13.700511 L 44.931825 13.700511 L 44.931825 -0.000661294 L 27.820497 -0.000661294 Z M 27.820497 13.700511 " transform="matrix(2,0,0,2,5.952756,6.169291)"/>
<path style="fill:none;stroke-width:0.566929;stroke-linecap:butt;stroke-linejoin:miter;stroke:rgb(100%,0%,0%);stroke-opacity:0.5;stroke-miterlimit:10;" d="M 27.820497 13.591136 L 33.490419 7.921214 " transform="matrix(2,0,0,2,5.952756,6.169291)"/>
<path style="fill:none;stroke-width:0.566929;stroke-linecap:butt;stroke-linejoin:miter;stroke:rgb(100%,0%,0%);stroke-opacity:0.5;stroke-miterlimit:10;" d="M 33.490419 13.591136 L 27.820497 7.921214 " transform="matrix(2,0,0,2,5.952756,6.169291)"/>
<path style="fill-rule:nonzero;fill:rgb(50%,50%,0%);fill-opacity:0.1;stroke-width:0.566929;stroke-linecap:butt;stroke-linejoin:miter;stroke:rgb(100%,0%,0%);stroke-opacity:0.5;stroke-miterlimit:10;" d="M 30.654481 10.866526 L 42.095888 10.866526 L 42.095888 2.835276 L 30.654481 2.835276 Z M 30.654481 10.866526 " transform="matrix(2,0,0,2,5.952756,6.169291)"/>
<path style=" stroke:none;fill-rule:nonzero;fill:rgb(0%,0%,0%);fill-opacity:1;" d="M 71.136719 19.152344 L 71.136719 12.839844 L 68.261719 13.058594 L 68.261719 13.683594 C 69.667969 13.683594 69.824219 13.808594 69.824219 14.808594 L 69.824219 26.683594 L 70.324219 26.683594 C 70.324219 26.652344 70.480469 26.371094 71.042969 25.433594 C 71.324219 25.902344 72.167969 26.902344 73.636719 26.902344 C 76.011719 26.902344 78.074219 24.933594 78.074219 22.371094 C 78.074219 19.839844 76.136719 17.871094 73.855469 17.871094 C 72.292969 17.871094 71.449219 18.808594 71.136719 19.152344 Z M 71.199219 24.402344 L 71.199219 20.308594 C 71.199219 19.933594 71.199219 19.902344 71.417969 19.589844 C 72.199219 18.464844 73.292969 18.308594 73.761719 18.308594 C 74.667969 18.308594 75.386719 18.839844 75.855469 19.589844 C 76.386719 20.402344 76.417969 21.527344 76.417969 22.371094 C 76.417969 23.089844 76.386719 24.277344 75.824219 25.183594 C 75.386719 25.808594 74.636719 26.464844 73.574219 26.464844 C 72.667969 26.464844 71.949219 25.996094 71.480469 25.246094 C 71.199219 24.839844 71.199219 24.777344 71.199219 24.402344 Z M 71.199219 24.402344 "/>
<path style=" stroke:none;fill-rule:nonzero;fill:rgb(0%,0%,0%);fill-opacity:1;" d="M 82.207031 19.152344 L 82.207031 12.839844 L 79.332031 13.058594 L 79.332031 13.683594 C 80.738281 13.683594 80.894531 13.808594 80.894531 14.808594 L 80.894531 26.683594 L 81.394531 26.683594 C 81.394531 26.652344 81.550781 26.371094 82.113281 25.433594 C 82.394531 25.902344 83.238281 26.902344 84.707031 26.902344 C 87.082031 26.902344 89.144531 24.933594 89.144531 22.371094 C 89.144531 19.839844 87.207031 17.871094 84.925781 17.871094 C 83.363281 17.871094 82.519531 18.808594 82.207031 19.152344 Z M 82.269531 24.402344 L 82.269531 20.308594 C 82.269531 19.933594 82.269531 19.902344 82.488281 19.589844 C 83.269531 18.464844 84.363281 18.308594 84.832031 18.308594 C 85.738281 18.308594 86.457031 18.839844 86.925781 19.589844 C 87.457031 20.402344 87.488281 21.527344 87.488281 22.371094 C 87.488281 23.089844 87.457031 24.277344 86.894531 25.183594 C 86.457031 25.808594 85.707031 26.464844 84.644531 26.464844 C 83.738281 26.464844 83.019531 25.996094 82.550781 25.246094 C 82.269531 24.839844 82.269531 24.777344 82.269531 24.402344 Z M 82.269531 24.402344 "/>
<path style="fill:none;stroke-width:0.566929;stroke-linecap:butt;stroke-linejoin:miter;stroke:rgb(100%,0%,0%);stroke-opacity:0.5;stroke-miterlimit:10;" d="M 75.199403 2.835276 L 80.869325 -2.834646 " transform="matrix(2,0,0,2,5.952756,6.169291)"/>
<path style="fill:none;stroke-width:0.566929;stroke-linecap:butt;stroke-linejoin:miter;stroke:rgb(100%,0%,0%);stroke-opacity:0.5;stroke-miterlimit:10;" d="M 80.869325 2.835276 L 75.199403 -2.834646 " transform="matrix(2,0,0,2,5.952756,6.169291)"/>
<path style="fill-rule:nonzero;fill:rgb(50%,50%,0%);fill-opacity:0.1;stroke-width:0.566929;stroke-linecap:butt;stroke-linejoin:miter;stroke:rgb(100%,0%,0%);stroke-opacity:0.5;stroke-miterlimit:10;" d="M 66.711122 13.700511 L 89.357606 13.700511 L 89.357606 -0.000661294 L 66.711122 -0.000661294 Z M 66.711122 13.700511 " transform="matrix(2,0,0,2,5.952756,6.169291)"/>
<path style="fill:none;stroke-width:0.566929;stroke-linecap:butt;stroke-linejoin:miter;stroke:rgb(100%,0%,0%);stroke-opacity:0.5;stroke-miterlimit:10;" d="M 66.711122 13.591136 L 72.381044 7.921214 " transform="matrix(2,0,0,2,5.952756,6.169291)"/>
<path style="fill:none;stroke-width:0.566929;stroke-linecap:butt;stroke-linejoin:miter;stroke:rgb(100%,0%,0%);stroke-opacity:0.5;stroke-miterlimit:10;" d="M 72.381044 13.591136 L 66.711122 7.921214 " transform="matrix(2,0,0,2,5.952756,6.169291)"/>
<path style="fill-rule:nonzero;fill:rgb(50%,50%,0%);fill-opacity:0.1;stroke-width:0.566929;stroke-linecap:butt;stroke-linejoin:miter;stroke:rgb(100%,0%,0%);stroke-opacity:0.5;stroke-miterlimit:10;" d="M 66.711122 13.700511 L 89.357606 13.700511 L 89.357606 -0.000661294 L 66.711122 -0.000661294 Z M 66.711122 13.700511 " transform="matrix(2,0,0,2,5.952756,6.169291)"/>
<path style="fill:none;stroke-width:0.566929;stroke-linecap:butt;stroke-linejoin:miter;stroke:rgb(100%,0%,0%);stroke-opacity:0.5;stroke-miterlimit:10;" d="M 66.711122 13.591136 L 72.381044 7.921214 " transform="matrix(2,0,0,2,5.952756,6.169291)"/>
<path style="fill:none;stroke-width:0.566929;stroke-linecap:butt;stroke-linejoin:miter;stroke:rgb(100%,0%,0%);stroke-opacity:0.5;stroke-miterlimit:10;" d="M 72.381044 13.591136 L 66.711122 7.921214 " transform="matrix(2,0,0,2,5.952756,6.169291)"/>
<path style="fill-rule:nonzero;fill:rgb(50%,50%,0%);fill-opacity:0.1;stroke-width:0.566929;stroke-linecap:butt;stroke-linejoin:miter;stroke:rgb(100%,0%,0%);stroke-opacity:0.5;stroke-miterlimit:10;" d="M 69.545106 10.866526 L 86.523622 10.866526 L 86.523622 2.835276 L 69.545106 2.835276 Z M 69.545106 10.866526 " transform="matrix(2,0,0,2,5.952756,6.169291)"/>
<path style=" stroke:none;fill-rule:nonzero;fill:rgb(0%,0%,0%);fill-opacity:1;" d="M 148.917969 19.152344 L 148.917969 12.839844 L 146.042969 13.058594 L 146.042969 13.683594 C 147.449219 13.683594 147.605469 13.808594 147.605469 14.808594 L 147.605469 26.683594 L 148.105469 26.683594 C 148.105469 26.652344 148.261719 26.371094 148.824219 25.433594 C 149.105469 25.902344 149.949219 26.902344 151.417969 26.902344 C 153.792969 26.902344 155.855469 24.933594 155.855469 22.371094 C 155.855469 19.839844 153.917969 17.871094 151.636719 17.871094 C 150.074219 17.871094 149.230469 18.808594 148.917969 19.152344 Z M 148.980469 24.402344 L 148.980469 20.308594 C 148.980469 19.933594 148.980469 19.902344 149.199219 19.589844 C 149.980469 18.464844 151.074219 18.308594 151.542969 18.308594 C 152.449219 18.308594 153.167969 18.839844 153.636719 19.589844 C 154.167969 20.402344 154.199219 21.527344 154.199219 22.371094 C 154.199219 23.089844 154.167969 24.277344 153.605469 25.183594 C 153.167969 25.808594 152.417969 26.464844 151.355469 26.464844 C 150.449219 26.464844 149.730469 25.996094 149.261719 25.246094 C 148.980469 24.839844 148.980469 24.777344 148.980469 24.402344 Z M 148.980469 24.402344 "/>
<path style=" stroke:none;fill-rule:nonzero;fill:rgb(0%,0%,0%);fill-opacity:1;" d="M 159.988281 19.152344 L 159.988281 12.839844 L 157.113281 13.058594 L 157.113281 13.683594 C 158.519531 13.683594 158.675781 13.808594 158.675781 14.808594 L 158.675781 26.683594 L 159.175781 26.683594 C 159.175781 26.652344 159.332031 26.371094 159.894531 25.433594 C 160.175781 25.902344 161.019531 26.902344 162.488281 26.902344 C 164.863281 26.902344 166.925781 24.933594 166.925781 22.371094 C 166.925781 19.839844 164.988281 17.871094 162.707031 17.871094 C 161.144531 17.871094 160.300781 18.808594 159.988281 19.152344 Z M 160.050781 24.402344 L 160.050781 20.308594 C 160.050781 19.933594 160.050781 19.902344 160.269531 19.589844 C 161.050781 18.464844 162.144531 18.308594 162.613281 18.308594 C 163.519531 18.308594 164.238281 18.839844 164.707031 19.589844 C 165.238281 20.402344 165.269531 21.527344 165.269531 22.371094 C 165.269531 23.089844 165.238281 24.277344 164.675781 25.183594 C 164.238281 25.808594 163.488281 26.464844 162.425781 26.464844 C 161.519531 26.464844 160.800781 25.996094 160.332031 25.246094 C 160.050781 24.839844 160.050781 24.777344 160.050781 24.402344 Z M 160.050781 24.402344 "/>
<path style=" stroke:none;fill-rule:nonzero;fill:rgb(0%,0%,0%);fill-opacity:1;" d="M 171.0625 19.152344 L 171.0625 12.839844 L 168.1875 13.058594 L 168.1875 13.683594 C 169.59375 13.683594 169.75 13.808594 169.75 14.808594 L 169.75 26.683594 L 170.25 26.683594 C 170.25 26.652344 170.40625 26.371094 170.96875 25.433594 C 171.25 25.902344 172.09375 26.902344 173.5625 26.902344 C 175.9375 26.902344 178 24.933594 178 22.371094 C 178 19.839844 176.0625 17.871094 173.78125 17.871094 C 172.21875 17.871094 171.375 18.808594 171.0625 19.152344 Z M 171.125 24.402344 L 171.125 20.308594 C 171.125 19.933594 171.125 19.902344 171.34375 19.589844 C 172.125 18.464844 173.21875 18.308594 173.6875 18.308594 C 174.59375 18.308594 175.3125 18.839844 175.78125 19.589844 C 176.3125 20.402344 176.34375 21.527344 176.34375 22.371094 C 176.34375 23.089844 176.3125 24.277344 175.75 25.183594 C 175.3125 25.808594 174.5625 26.464844 173.5 26.464844 C 172.59375 26.464844 171.875 25.996094 171.40625 25.246094 C 171.125 24.839844 171.125 24.777344 171.125 24.402344 Z M 171.125 24.402344 "/>
<path style="fill:none;stroke-width:0.566929;stroke-linecap:butt;stroke-linejoin:miter;stroke:rgb(100%,0%,0%);stroke-opacity:0.5;stroke-miterlimit:10;" d="M 103.129091 2.835276 L 108.79706 -2.834646 " transform="matrix(2,0,0,2,5.952756,6.169291)"/>
<path style="fill:none;stroke-width:0.566929;stroke-linecap:butt;stroke-linejoin:miter;stroke:rgb(100%,0%,0%);stroke-opacity:0.5;stroke-miterlimit:10;" d="M 108.79706 2.835276 L 103.129091 -2.834646 " transform="matrix(2,0,0,2,5.952756,6.169291)"/>
<path style="fill:none;stroke-width:0.566929;stroke-linecap:butt;stroke-linejoin:miter;stroke:rgb(100%,0%,0%);stroke-opacity:0.5;stroke-miterlimit:10;" d="M 105.963075 28.346995 L 105.963075 -0.000661294 Z M 105.963075 28.346995 " transform="matrix(2,0,0,2,5.952756,6.169291)"/>
<path style="fill:none;stroke-width:0.566929;stroke-linecap:butt;stroke-linejoin:miter;stroke:rgb(100%,0%,0%);stroke-opacity:0.5;stroke-miterlimit:10;" d="M 8.488466 31.180979 L 14.158388 25.511057 " transform="matrix(2,0,0,2,5.952756,6.169291)"/>
<path style="fill:none;stroke-width:0.566929;stroke-linecap:butt;stroke-linejoin:miter;stroke:rgb(100%,0%,0%);stroke-opacity:0.5;stroke-miterlimit:10;" d="M 14.158388 31.180979 L 8.488466 25.511057 " transform="matrix(2,0,0,2,5.952756,6.169291)"/>
<path style="fill-rule:nonzero;fill:rgb(50%,50%,0%);fill-opacity:0.1;stroke-width:0.566929;stroke-linecap:butt;stroke-linejoin:miter;stroke:rgb(100%,0%,0%);stroke-opacity:0.5;stroke-miterlimit:10;" d="M 2.851747 39.311839 L 19.795106 39.311839 L 19.795106 28.346995 L 2.851747 28.346995 Z M 2.851747 39.311839 " transform="matrix(2,0,0,2,5.952756,6.169291)"/>
<path style="fill:none;stroke-width:0.566929;stroke-linecap:butt;stroke-linejoin:miter;stroke:rgb(100%,0%,0%);stroke-opacity:0.5;stroke-miterlimit:10;" d="M 2.851747 39.311839 L 8.521669 33.64387 " transform="matrix(2,0,0,2,5.952756,6.169291)"/>
<path style="fill:none;stroke-width:0.566929;stroke-linecap:butt;stroke-linejoin:miter;stroke:rgb(100%,0%,0%);stroke-opacity:0.5;stroke-miterlimit:10;" d="M 8.521669 39.311839 L 2.851747 33.64387 " transform="matrix(2,0,0,2,5.952756,6.169291)"/>
<path style="fill-rule:nonzero;fill:rgb(50%,50%,0%);fill-opacity:0.1;stroke-width:0.566929;stroke-linecap:butt;stroke-linejoin:miter;stroke:rgb(100%,0%,0%);stroke-opacity:0.5;stroke-miterlimit:10;" d="M 2.851747 39.311839 L 19.795106 39.311839 L 19.795106 28.346995 L 2.851747 28.346995 Z M 2.851747 39.311839 " transform="matrix(2,0,0,2,5.952756,6.169291)"/>
<path style="fill:none;stroke-width:0.566929;stroke-linecap:butt;stroke-linejoin:miter;stroke:rgb(100%,0%,0%);stroke-opacity:0.5;stroke-miterlimit:10;" d="M 2.851747 39.311839 L 8.521669 33.64387 " transform="matrix(2,0,0,2,5.952756,6.169291)"/>
<path style="fill:none;stroke-width:0.566929;stroke-linecap:butt;stroke-linejoin:miter;stroke:rgb(100%,0%,0%);stroke-opacity:0.5;stroke-miterlimit:10;" d="M 8.521669 39.311839 L 2.851747 33.64387 " transform="matrix(2,0,0,2,5.952756,6.169291)"/>
<path style="fill-rule:nonzero;fill:rgb(50%,50%,0%);fill-opacity:0.1;stroke-width:0.566929;stroke-linecap:butt;stroke-linejoin:miter;stroke:rgb(100%,0%,0%);stroke-opacity:0.5;stroke-miterlimit:10;" d="M 5.685731 36.477854 L 16.959169 36.477854 L 16.959169 31.180979 L 5.685731 31.180979 Z M 5.685731 36.477854 " transform="matrix(2,0,0,2,5.952756,6.169291)"/>
<path style=" stroke:none;fill-rule:nonzero;fill:rgb(0%,0%,0%);fill-opacity:1;" d="M 23.792969 73.4375 C 24.386719 72.6875 25.136719 71.71875 25.636719 71.1875 C 26.261719 70.46875 27.074219 70.15625 28.011719 70.15625 L 28.011719 69.53125 C 27.480469 69.5625 26.886719 69.59375 26.355469 69.59375 C 25.761719 69.59375 24.699219 69.5625 24.449219 69.53125 L 24.449219 70.15625 C 24.886719 70.1875 25.042969 70.4375 25.042969 70.78125 C 25.042969 71.09375 24.824219 71.34375 24.730469 71.46875 L 23.511719 73.03125 L 21.949219 71 C 21.761719 70.8125 21.761719 70.78125 21.761719 70.65625 C 21.761719 70.34375 22.074219 70.15625 22.449219 70.15625 L 22.449219 69.53125 C 21.949219 69.5625 20.636719 69.59375 20.292969 69.59375 C 19.886719 69.59375 18.949219 69.5625 18.417969 69.53125 L 18.417969 70.15625 C 19.824219 70.15625 19.824219 70.15625 20.761719 71.375 L 22.730469 73.9375 L 20.855469 76.3125 C 19.917969 77.46875 18.730469 77.5 18.324219 77.5 L 18.324219 78.125 C 18.824219 78.09375 19.449219 78.0625 19.980469 78.0625 C 20.542969 78.0625 21.386719 78.09375 21.855469 78.125 L 21.855469 77.5 C 21.417969 77.4375 21.292969 77.1875 21.292969 76.875 C 21.292969 76.4375 21.855469 75.78125 23.074219 74.34375 L 24.605469 76.34375 C 24.761719 76.5625 25.011719 76.875 25.011719 77 C 25.011719 77.1875 24.824219 77.5 24.292969 77.5 L 24.292969 78.125 C 24.886719 78.09375 26.011719 78.0625 26.449219 78.0625 C 26.980469 78.0625 27.761719 78.09375 28.355469 78.125 L 28.355469 77.5 C 27.292969 77.5 26.917969 77.46875 26.480469 76.875 Z M 23.792969 73.4375 "/>
<path style=" stroke:none;fill-rule:nonzero;fill:rgb(0%,0%,0%);fill-opacity:1;" d="M 34.308594 73.4375 C 34.902344 72.6875 35.652344 71.71875 36.152344 71.1875 C 36.777344 70.46875 37.589844 70.15625 38.527344 70.15625 L 38.527344 69.53125 C 37.996094 69.5625 37.402344 69.59375 36.871094 69.59375 C 36.277344 69.59375 35.214844 69.5625 34.964844 69.53125 L 34.964844 70.15625 C 35.402344 70.1875 35.558594 70.4375 35.558594 70.78125 C 35.558594 71.09375 35.339844 71.34375 35.246094 71.46875 L 34.027344 73.03125 L 32.464844 71 C 32.277344 70.8125 32.277344 70.78125 32.277344 70.65625 C 32.277344 70.34375 32.589844 70.15625 32.964844 70.15625 L 32.964844 69.53125 C 32.464844 69.5625 31.152344 69.59375 30.808594 69.59375 C 30.402344 69.59375 29.464844 69.5625 28.933594 69.53125 L 28.933594 70.15625 C 30.339844 70.15625 30.339844 70.15625 31.277344 71.375 L 33.246094 73.9375 L 31.371094 76.3125 C 30.433594 77.46875 29.246094 77.5 28.839844 77.5 L 28.839844 78.125 C 29.339844 78.09375 29.964844 78.0625 30.496094 78.0625 C 31.058594 78.0625 31.902344 78.09375 32.371094 78.125 L 32.371094 77.5 C 31.933594 77.4375 31.808594 77.1875 31.808594 76.875 C 31.808594 76.4375 32.371094 75.78125 33.589844 74.34375 L 35.121094 76.34375 C 35.277344 76.5625 35.527344 76.875 35.527344 77 C 35.527344 77.1875 35.339844 77.5 34.808594 77.5 L 34.808594 78.125 C 35.402344 78.09375 36.527344 78.0625 36.964844 78.0625 C 37.496094 78.0625 38.277344 78.09375 38.871094 78.125 L 38.871094 77.5 C 37.808594 77.5 37.433594 77.46875 36.996094 76.875 Z M 34.308594 73.4375 "/>
<path style="fill:none;stroke-width:0.566929;stroke-linecap:butt;stroke-linejoin:miter;stroke:rgb(100%,0%,0%);stroke-opacity:0.5;stroke-miterlimit:10;" d="M 33.5412 31.180979 L 39.211122 25.511057 " transform="matrix(2,0,0,2,5.952756,6.169291)"/>
<path style="fill:none;stroke-width:0.566929;stroke-linecap:butt;stroke-linejoin:miter;stroke:rgb(100%,0%,0%);stroke-opacity:0.5;stroke-miterlimit:10;" d="M 39.211122 31.180979 L 33.5412 25.511057 " transform="matrix(2,0,0,2,5.952756,6.169291)"/>
<path style="fill-rule:nonzero;fill:rgb(50%,50%,0%);fill-opacity:0.1;stroke-width:0.566929;stroke-linecap:butt;stroke-linejoin:miter;stroke:rgb(100%,0%,0%);stroke-opacity:0.5;stroke-miterlimit:10;" d="M 22.646669 39.311839 L 50.105653 39.311839 L 50.105653 28.346995 L 22.646669 28.346995 Z M 22.646669 39.311839 " transform="matrix(2,0,0,2,5.952756,6.169291)"/>
<path style="fill:none;stroke-width:0.566929;stroke-linecap:butt;stroke-linejoin:miter;stroke:rgb(100%,0%,0%);stroke-opacity:0.5;stroke-miterlimit:10;" d="M 22.646669 39.311839 L 28.314638 33.64387 " transform="matrix(2,0,0,2,5.952756,6.169291)"/>
<path style="fill:none;stroke-width:0.566929;stroke-linecap:butt;stroke-linejoin:miter;stroke:rgb(100%,0%,0%);stroke-opacity:0.5;stroke-miterlimit:10;" d="M 28.314638 39.311839 L 22.646669 33.64387 " transform="matrix(2,0,0,2,5.952756,6.169291)"/>
<path style="fill-rule:nonzero;fill:rgb(50%,50%,0%);fill-opacity:0.1;stroke-width:0.566929;stroke-linecap:butt;stroke-linejoin:miter;stroke:rgb(100%,0%,0%);stroke-opacity:0.5;stroke-miterlimit:10;" d="M 22.646669 39.311839 L 50.105653 39.311839 L 50.105653 28.346995 L 22.646669 28.346995 Z M 22.646669 39.311839 " transform="matrix(2,0,0,2,5.952756,6.169291)"/>
<path style="fill:none;stroke-width:0.566929;stroke-linecap:butt;stroke-linejoin:miter;stroke:rgb(100%,0%,0%);stroke-opacity:0.5;stroke-miterlimit:10;" d="M 22.646669 39.311839 L 28.314638 33.64387 " transform="matrix(2,0,0,2,5.952756,6.169291)"/>
<path style="fill:none;stroke-width:0.566929;stroke-linecap:butt;stroke-linejoin:miter;stroke:rgb(100%,0%,0%);stroke-opacity:0.5;stroke-miterlimit:10;" d="M 28.314638 39.311839 L 22.646669 33.64387 " transform="matrix(2,0,0,2,5.952756,6.169291)"/>
<path style="fill-rule:nonzero;fill:rgb(50%,50%,0%);fill-opacity:0.1;stroke-width:0.566929;stroke-linecap:butt;stroke-linejoin:miter;stroke:rgb(100%,0%,0%);stroke-opacity:0.5;stroke-miterlimit:10;" d="M 25.480653 36.477854 L 47.271669 36.477854 L 47.271669 31.180979 L 25.480653 31.180979 Z M 25.480653 36.477854 " transform="matrix(2,0,0,2,5.952756,6.169291)"/>
<path style=" stroke:none;fill-rule:nonzero;fill:rgb(0%,0%,0%);fill-opacity:1;" d="M 63.382812 73.4375 C 63.976562 72.6875 64.726562 71.71875 65.226562 71.1875 C 65.851562 70.46875 66.664062 70.15625 67.601562 70.15625 L 67.601562 69.53125 C 67.070312 69.5625 66.476562 69.59375 65.945312 69.59375 C 65.351562 69.59375 64.289062 69.5625 64.039062 69.53125 L 64.039062 70.15625 C 64.476562 70.1875 64.632812 70.4375 64.632812 70.78125 C 64.632812 71.09375 64.414062 71.34375 64.320312 71.46875 L 63.101562 73.03125 L 61.539062 71 C 61.351562 70.8125 61.351562 70.78125 61.351562 70.65625 C 61.351562 70.34375 61.664062 70.15625 62.039062 70.15625 L 62.039062 69.53125 C 61.539062 69.5625 60.226562 69.59375 59.882812 69.59375 C 59.476562 69.59375 58.539062 69.5625 58.007812 69.53125 L 58.007812 70.15625 C 59.414062 70.15625 59.414062 70.15625 60.351562 71.375 L 62.320312 73.9375 L 60.445312 76.3125 C 59.507812 77.46875 58.320312 77.5 57.914062 77.5 L 57.914062 78.125 C 58.414062 78.09375 59.039062 78.0625 59.570312 78.0625 C 60.132812 78.0625 60.976562 78.09375 61.445312 78.125 L 61.445312 77.5 C 61.007812 77.4375 60.882812 77.1875 60.882812 76.875 C 60.882812 76.4375 61.445312 75.78125 62.664062 74.34375 L 64.195312 76.34375 C 64.351562 76.5625 64.601562 76.875 64.601562 77 C 64.601562 77.1875 64.414062 77.5 63.882812 77.5 L 63.882812 78.125 C 64.476562 78.09375 65.601562 78.0625 66.039062 78.0625 C 66.570312 78.0625 67.351562 78.09375 67.945312 78.125 L 67.945312 77.5 C 66.882812 77.5 66.507812 77.46875 66.070312 76.875 Z M 63.382812 73.4375 "/>
<path style=" stroke:none;fill-rule:nonzero;fill:rgb(0%,0%,0%);fill-opacity:1;" d="M 73.898438 73.4375 C 74.492188 72.6875 75.242188 71.71875 75.742188 71.1875 C 76.367188 70.46875 77.179688 70.15625 78.117188 70.15625 L 78.117188 69.53125 C 77.585938 69.5625 76.992188 69.59375 76.460938 69.59375 C 75.867188 69.59375 74.804688 69.5625 74.554688 69.53125 L 74.554688 70.15625 C 74.992188 70.1875 75.148438 70.4375 75.148438 70.78125 C 75.148438 71.09375 74.929688 71.34375 74.835938 71.46875 L 73.617188 73.03125 L 72.054688 71 C 71.867188 70.8125 71.867188 70.78125 71.867188 70.65625 C 71.867188 70.34375 72.179688 70.15625 72.554688 70.15625 L 72.554688 69.53125 C 72.054688 69.5625 70.742188 69.59375 70.398438 69.59375 C 69.992188 69.59375 69.054688 69.5625 68.523438 69.53125 L 68.523438 70.15625 C 69.929688 70.15625 69.929688 70.15625 70.867188 71.375 L 72.835938 73.9375 L 70.960938 76.3125 C 70.023438 77.46875 68.835938 77.5 68.429688 77.5 L 68.429688 78.125 C 68.929688 78.09375 69.554688 78.0625 70.085938 78.0625 C 70.648438 78.0625 71.492188 78.09375 71.960938 78.125 L 71.960938 77.5 C 71.523438 77.4375 71.398438 77.1875 71.398438 76.875 C 71.398438 76.4375 71.960938 75.78125 73.179688 74.34375 L 74.710938 76.34375 C 74.867188 76.5625 75.117188 76.875 75.117188 77 C 75.117188 77.1875 74.929688 77.5 74.398438 77.5 L 74.398438 78.125 C 74.992188 78.09375 76.117188 78.0625 76.554688 78.0625 C 77.085938 78.0625 77.867188 78.09375 78.460938 78.125 L 78.460938 77.5 C 77.398438 77.5 77.023438 77.46875 76.585938 76.875 Z M 73.898438 73.4375 "/>
<path style=" stroke:none;fill-rule:nonzero;fill:rgb(0%,0%,0%);fill-opacity:1;" d="M 84.414062 73.4375 C 85.007812 72.6875 85.757812 71.71875 86.257812 71.1875 C 86.882812 70.46875 87.695312 70.15625 88.632812 70.15625 L 88.632812 69.53125 C 88.101562 69.5625 87.507812 69.59375 86.976562 69.59375 C 86.382812 69.59375 85.320312 69.5625 85.070312 69.53125 L 85.070312 70.15625 C 85.507812 70.1875 85.664062 70.4375 85.664062 70.78125 C 85.664062 71.09375 85.445312 71.34375 85.351562 71.46875 L 84.132812 73.03125 L 82.570312 71 C 82.382812 70.8125 82.382812 70.78125 82.382812 70.65625 C 82.382812 70.34375 82.695312 70.15625 83.070312 70.15625 L 83.070312 69.53125 C 82.570312 69.5625 81.257812 69.59375 80.914062 69.59375 C 80.507812 69.59375 79.570312 69.5625 79.039062 69.53125 L 79.039062 70.15625 C 80.445312 70.15625 80.445312 70.15625 81.382812 71.375 L 83.351562 73.9375 L 81.476562 76.3125 C 80.539062 77.46875 79.351562 77.5 78.945312 77.5 L 78.945312 78.125 C 79.445312 78.09375 80.070312 78.0625 80.601562 78.0625 C 81.164062 78.0625 82.007812 78.09375 82.476562 78.125 L 82.476562 77.5 C 82.039062 77.4375 81.914062 77.1875 81.914062 76.875 C 81.914062 76.4375 82.476562 75.78125 83.695312 74.34375 L 85.226562 76.34375 C 85.382812 76.5625 85.632812 76.875 85.632812 77 C 85.632812 77.1875 85.445312 77.5 84.914062 77.5 L 84.914062 78.125 C 85.507812 78.09375 86.632812 78.0625 87.070312 78.0625 C 87.601562 78.0625 88.382812 78.09375 88.976562 78.125 L 88.976562 77.5 C 87.914062 77.5 87.539062 77.46875 87.101562 76.875 Z M 84.414062 73.4375 "/>
<path style=" stroke:none;fill-rule:nonzero;fill:rgb(0%,0%,0%);fill-opacity:1;" d="M 94.933594 73.4375 C 95.527344 72.6875 96.277344 71.71875 96.777344 71.1875 C 97.402344 70.46875 98.214844 70.15625 99.152344 70.15625 L 99.152344 69.53125 C 98.621094 69.5625 98.027344 69.59375 97.496094 69.59375 C 96.902344 69.59375 95.839844 69.5625 95.589844 69.53125 L 95.589844 70.15625 C 96.027344 70.1875 96.183594 70.4375 96.183594 70.78125 C 96.183594 71.09375 95.964844 71.34375 95.871094 71.46875 L 94.652344 73.03125 L 93.089844 71 C 92.902344 70.8125 92.902344 70.78125 92.902344 70.65625 C 92.902344 70.34375 93.214844 70.15625 93.589844 70.15625 L 93.589844 69.53125 C 93.089844 69.5625 91.777344 69.59375 91.433594 69.59375 C 91.027344 69.59375 90.089844 69.5625 89.558594 69.53125 L 89.558594 70.15625 C 90.964844 70.15625 90.964844 70.15625 91.902344 71.375 L 93.871094 73.9375 L 91.996094 76.3125 C 91.058594 77.46875 89.871094 77.5 89.464844 77.5 L 89.464844 78.125 C 89.964844 78.09375 90.589844 78.0625 91.121094 78.0625 C 91.683594 78.0625 92.527344 78.09375 92.996094 78.125 L 92.996094 77.5 C 92.558594 77.4375 92.433594 77.1875 92.433594 76.875 C 92.433594 76.4375 92.996094 75.78125 94.214844 74.34375 L 95.746094 76.34375 C 95.902344 76.5625 96.152344 76.875 96.152344 77 C 96.152344 77.1875 95.964844 77.5 95.433594 77.5 L 95.433594 78.125 C 96.027344 78.09375 97.152344 78.0625 97.589844 78.0625 C 98.121094 78.0625 98.902344 78.09375 99.496094 78.125 L 99.496094 77.5 C 98.433594 77.5 98.058594 77.46875 97.621094 76.875 Z M 94.933594 73.4375 "/>
<path style="fill:none;stroke-width:0.566929;stroke-linecap:butt;stroke-linejoin:miter;stroke:rgb(100%,0%,0%);stroke-opacity:0.5;stroke-miterlimit:10;" d="M 75.199403 31.180979 L 80.869325 25.511057 " transform="matrix(2,0,0,2,5.952756,6.169291)"/>
<path style="fill:none;stroke-width:0.566929;stroke-linecap:butt;stroke-linejoin:miter;stroke:rgb(100%,0%,0%);stroke-opacity:0.5;stroke-miterlimit:10;" d="M 80.869325 31.180979 L 75.199403 25.511057 " transform="matrix(2,0,0,2,5.952756,6.169291)"/>
<path style="fill-rule:nonzero;fill:rgb(50%,50%,0%);fill-opacity:0.1;stroke-width:0.566929;stroke-linecap:butt;stroke-linejoin:miter;stroke:rgb(100%,0%,0%);stroke-opacity:0.5;stroke-miterlimit:10;" d="M 61.701356 39.593089 L 94.367372 39.593089 L 94.367372 28.346995 L 61.701356 28.346995 Z M 61.701356 39.593089 " transform="matrix(2,0,0,2,5.952756,6.169291)"/>
<path style="fill:none;stroke-width:0.566929;stroke-linecap:butt;stroke-linejoin:miter;stroke:rgb(100%,0%,0%);stroke-opacity:0.5;stroke-miterlimit:10;" d="M 61.701356 39.483714 L 67.371278 33.815745 " transform="matrix(2,0,0,2,5.952756,6.169291)"/>
<path style="fill:none;stroke-width:0.566929;stroke-linecap:butt;stroke-linejoin:miter;stroke:rgb(100%,0%,0%);stroke-opacity:0.5;stroke-miterlimit:10;" d="M 67.371278 39.483714 L 61.701356 33.815745 " transform="matrix(2,0,0,2,5.952756,6.169291)"/>
<path style="fill-rule:nonzero;fill:rgb(50%,50%,0%);fill-opacity:0.1;stroke-width:0.566929;stroke-linecap:butt;stroke-linejoin:miter;stroke:rgb(100%,0%,0%);stroke-opacity:0.5;stroke-miterlimit:10;" d="M 61.701356 39.593089 L 94.367372 39.593089 L 94.367372 28.346995 L 61.701356 28.346995 Z M 61.701356 39.593089 " transform="matrix(2,0,0,2,5.952756,6.169291)"/>
<path style="fill:none;stroke-width:0.566929;stroke-linecap:butt;stroke-linejoin:miter;stroke:rgb(100%,0%,0%);stroke-opacity:0.5;stroke-miterlimit:10;" d="M 61.701356 39.483714 L 67.371278 33.815745 " transform="matrix(2,0,0,2,5.952756,6.169291)"/>
<path style="fill:none;stroke-width:0.566929;stroke-linecap:butt;stroke-linejoin:miter;stroke:rgb(100%,0%,0%);stroke-opacity:0.5;stroke-miterlimit:10;" d="M 67.371278 39.483714 L 61.701356 33.815745 " transform="matrix(2,0,0,2,5.952756,6.169291)"/>
<path style="fill-rule:nonzero;fill:rgb(50%,50%,0%);fill-opacity:0.1;stroke-width:0.566929;stroke-linecap:butt;stroke-linejoin:miter;stroke:rgb(100%,0%,0%);stroke-opacity:0.5;stroke-miterlimit:10;" d="M 64.535341 36.759104 L 91.533388 36.759104 L 91.533388 31.180979 L 64.535341 31.180979 Z M 64.535341 36.759104 " transform="matrix(2,0,0,2,5.952756,6.169291)"/>
<path style=" stroke:none;fill-rule:nonzero;fill:rgb(0%,0%,0%);fill-opacity:1;" d="M 137.679688 73.4375 C 137.804688 70.46875 139.492188 69.96875 140.179688 69.96875 C 142.210938 69.96875 142.429688 72.65625 142.429688 73.4375 Z M 137.679688 73.875 L 143.242188 73.875 C 143.679688 73.875 143.742188 73.875 143.742188 73.4375 C 143.742188 71.46875 142.648438 69.53125 140.179688 69.53125 C 137.867188 69.53125 136.023438 71.59375 136.023438 74.09375 C 136.023438 76.75 138.117188 78.6875 140.398438 78.6875 C 142.835938 78.6875 143.742188 76.46875 143.742188 76.09375 C 143.742188 75.90625 143.585938 75.84375 143.460938 75.84375 C 143.304688 75.84375 143.242188 75.96875 143.210938 76.125 C 142.523438 78.1875 140.710938 78.1875 140.523438 78.1875 C 139.523438 78.1875 138.742188 77.59375 138.273438 76.84375 C 137.679688 75.90625 137.679688 74.59375 137.679688 73.875 Z M 137.679688 73.875 "/>
<path style=" stroke:none;fill-rule:nonzero;fill:rgb(0%,0%,0%);fill-opacity:1;" d="M 146.535156 73.4375 C 146.660156 70.46875 148.347656 69.96875 149.035156 69.96875 C 151.066406 69.96875 151.285156 72.65625 151.285156 73.4375 Z M 146.535156 73.875 L 152.097656 73.875 C 152.535156 73.875 152.597656 73.875 152.597656 73.4375 C 152.597656 71.46875 151.503906 69.53125 149.035156 69.53125 C 146.722656 69.53125 144.878906 71.59375 144.878906 74.09375 C 144.878906 76.75 146.972656 78.6875 149.253906 78.6875 C 151.691406 78.6875 152.597656 76.46875 152.597656 76.09375 C 152.597656 75.90625 152.441406 75.84375 152.316406 75.84375 C 152.160156 75.84375 152.097656 75.96875 152.066406 76.125 C 151.378906 78.1875 149.566406 78.1875 149.378906 78.1875 C 148.378906 78.1875 147.597656 77.59375 147.128906 76.84375 C 146.535156 75.90625 146.535156 74.59375 146.535156 73.875 Z M 146.535156 73.875 "/>
<path style=" stroke:none;fill-rule:nonzero;fill:rgb(0%,0%,0%);fill-opacity:1;" d="M 155.390625 73.4375 C 155.515625 70.46875 157.203125 69.96875 157.890625 69.96875 C 159.921875 69.96875 160.140625 72.65625 160.140625 73.4375 Z M 155.390625 73.875 L 160.953125 73.875 C 161.390625 73.875 161.453125 73.875 161.453125 73.4375 C 161.453125 71.46875 160.359375 69.53125 157.890625 69.53125 C 155.578125 69.53125 153.734375 71.59375 153.734375 74.09375 C 153.734375 76.75 155.828125 78.6875 158.109375 78.6875 C 160.546875 78.6875 161.453125 76.46875 161.453125 76.09375 C 161.453125 75.90625 161.296875 75.84375 161.171875 75.84375 C 161.015625 75.84375 160.953125 75.96875 160.921875 76.125 C 160.234375 78.1875 158.421875 78.1875 158.234375 78.1875 C 157.234375 78.1875 156.453125 77.59375 155.984375 76.84375 C 155.390625 75.90625 155.390625 74.59375 155.390625 73.875 Z M 155.390625 73.875 "/>
<path style=" stroke:none;fill-rule:nonzero;fill:rgb(0%,0%,0%);fill-opacity:1;" d="M 164.246094 73.4375 C 164.371094 70.46875 166.058594 69.96875 166.746094 69.96875 C 168.777344 69.96875 168.996094 72.65625 168.996094 73.4375 Z M 164.246094 73.875 L 169.808594 73.875 C 170.246094 73.875 170.308594 73.875 170.308594 73.4375 C 170.308594 71.46875 169.214844 69.53125 166.746094 69.53125 C 164.433594 69.53125 162.589844 71.59375 162.589844 74.09375 C 162.589844 76.75 164.683594 78.6875 166.964844 78.6875 C 169.402344 78.6875 170.308594 76.46875 170.308594 76.09375 C 170.308594 75.90625 170.152344 75.84375 170.027344 75.84375 C 169.871094 75.84375 169.808594 75.96875 169.777344 76.125 C 169.089844 78.1875 167.277344 78.1875 167.089844 78.1875 C 166.089844 78.1875 165.308594 77.59375 164.839844 76.84375 C 164.246094 75.90625 164.246094 74.59375 164.246094 73.875 Z M 164.246094 73.875 "/>
<path style=" stroke:none;fill-rule:nonzero;fill:rgb(0%,0%,0%);fill-opacity:1;" d="M 173.101562 73.4375 C 173.226562 70.46875 174.914062 69.96875 175.601562 69.96875 C 177.632812 69.96875 177.851562 72.65625 177.851562 73.4375 Z M 173.101562 73.875 L 178.664062 73.875 C 179.101562 73.875 179.164062 73.875 179.164062 73.4375 C 179.164062 71.46875 178.070312 69.53125 175.601562 69.53125 C 173.289062 69.53125 171.445312 71.59375 171.445312 74.09375 C 171.445312 76.75 173.539062 78.6875 175.820312 78.6875 C 178.257812 78.6875 179.164062 76.46875 179.164062 76.09375 C 179.164062 75.90625 179.007812 75.84375 178.882812 75.84375 C 178.726562 75.84375 178.664062 75.96875 178.632812 76.125 C 177.945312 78.1875 176.132812 78.1875 175.945312 78.1875 C 174.945312 78.1875 174.164062 77.59375 173.695312 76.84375 C 173.101562 75.90625 173.101562 74.59375 173.101562 73.875 Z M 173.101562 73.875 "/>
<path style=" stroke:none;fill-rule:nonzero;fill:rgb(0%,0%,0%);fill-opacity:1;" d="M 181.957031 73.4375 C 182.082031 70.46875 183.769531 69.96875 184.457031 69.96875 C 186.488281 69.96875 186.707031 72.65625 186.707031 73.4375 Z M 181.957031 73.875 L 187.519531 73.875 C 187.957031 73.875 188.019531 73.875 188.019531 73.4375 C 188.019531 71.46875 186.925781 69.53125 184.457031 69.53125 C 182.144531 69.53125 180.300781 71.59375 180.300781 74.09375 C 180.300781 76.75 182.394531 78.6875 184.675781 78.6875 C 187.113281 78.6875 188.019531 76.46875 188.019531 76.09375 C 188.019531 75.90625 187.863281 75.84375 187.738281 75.84375 C 187.582031 75.84375 187.519531 75.96875 187.488281 76.125 C 186.800781 78.1875 184.988281 78.1875 184.800781 78.1875 C 183.800781 78.1875 183.019531 77.59375 182.550781 76.84375 C 181.957031 75.90625 181.957031 74.59375 181.957031 73.875 Z M 181.957031 73.875 "/>
<path style="fill:none;stroke-width:0.566929;stroke-linecap:butt;stroke-linejoin:miter;stroke:rgb(100%,0%,0%);stroke-opacity:0.5;stroke-miterlimit:10;" d="M 103.129091 31.180979 L 108.79706 25.511057 " transform="matrix(2,0,0,2,5.952756,6.169291)"/>
<path style="fill:none;stroke-width:0.566929;stroke-linecap:butt;stroke-linejoin:miter;stroke:rgb(100%,0%,0%);stroke-opacity:0.5;stroke-miterlimit:10;" d="M 108.79706 31.180979 L 103.129091 25.511057 " transform="matrix(2,0,0,2,5.952756,6.169291)"/>
<path style="fill:none;stroke-width:0.566929;stroke-linecap:butt;stroke-linejoin:miter;stroke:rgb(100%,0%,0%);stroke-opacity:0.5;stroke-miterlimit:10;" d="M 105.963075 56.692698 L 105.963075 28.346995 Z M 105.963075 56.692698 " transform="matrix(2,0,0,2,5.952756,6.169291)"/>
<path style="fill:none;stroke-width:0.566929;stroke-linecap:butt;stroke-linejoin:miter;stroke:rgb(100%,0%,0%);stroke-opacity:0.5;stroke-miterlimit:10;" d="M 8.488466 59.526682 L 14.158388 53.858714 " transform="matrix(2,0,0,2,5.952756,6.169291)"/>
<path style="fill:none;stroke-width:0.566929;stroke-linecap:butt;stroke-linejoin:miter;stroke:rgb(100%,0%,0%);stroke-opacity:0.5;stroke-miterlimit:10;" d="M 14.158388 59.526682 L 8.488466 53.858714 " transform="matrix(2,0,0,2,5.952756,6.169291)"/>
<path style="fill-rule:nonzero;fill:rgb(50%,50%,0%);fill-opacity:0.1;stroke-width:0.566929;stroke-linecap:butt;stroke-linejoin:miter;stroke:rgb(100%,0%,0%);stroke-opacity:0.5;stroke-miterlimit:10;" d="M 0.000184547 70.39387 L 22.646669 70.39387 L 22.646669 56.692698 L 0.000184547 56.692698 Z M 0.000184547 70.39387 " transform="matrix(2,0,0,2,5.952756,6.169291)"/>
<path style="fill:none;stroke-width:0.566929;stroke-linecap:butt;stroke-linejoin:miter;stroke:rgb(100%,0%,0%);stroke-opacity:0.5;stroke-miterlimit:10;" d="M 0.000184547 70.284495 L 5.670106 64.614573 " transform="matrix(2,0,0,2,5.952756,6.169291)"/>
<path style="fill:none;stroke-width:0.566929;stroke-linecap:butt;stroke-linejoin:miter;stroke:rgb(100%,0%,0%);stroke-opacity:0.5;stroke-miterlimit:10;" d="M 5.670106 70.284495 L 0.000184547 64.614573 " transform="matrix(2,0,0,2,5.952756,6.169291)"/>
<path style="fill-rule:nonzero;fill:rgb(50%,50%,0%);fill-opacity:0.1;stroke-width:0.566929;stroke-linecap:butt;stroke-linejoin:miter;stroke:rgb(100%,0%,0%);stroke-opacity:0.5;stroke-miterlimit:10;" d="M 0.000184547 70.39387 L 22.646669 70.39387 L 22.646669 56.692698 L 0.000184547 56.692698 Z M 0.000184547 70.39387 " transform="matrix(2,0,0,2,5.952756,6.169291)"/>
<path style="fill:none;stroke-width:0.566929;stroke-linecap:butt;stroke-linejoin:miter;stroke:rgb(100%,0%,0%);stroke-opacity:0.5;stroke-miterlimit:10;" d="M 0.000184547 70.284495 L 5.670106 64.614573 " transform="matrix(2,0,0,2,5.952756,6.169291)"/>
<path style="fill:none;stroke-width:0.566929;stroke-linecap:butt;stroke-linejoin:miter;stroke:rgb(100%,0%,0%);stroke-opacity:0.5;stroke-miterlimit:10;" d="M 5.670106 70.284495 L 0.000184547 64.614573 " transform="matrix(2,0,0,2,5.952756,6.169291)"/>
<path style="fill-rule:nonzero;fill:rgb(50%,50%,0%);fill-opacity:0.1;stroke-width:0.566929;stroke-linecap:butt;stroke-linejoin:miter;stroke:rgb(100%,0%,0%);stroke-opacity:0.5;stroke-miterlimit:10;" d="M 2.834169 67.557932 L 19.810731 67.557932 L 19.810731 59.526682 L 2.834169 59.526682 Z M 2.834169 67.557932 " transform="matrix(2,0,0,2,5.952756,6.169291)"/>
<path style=" stroke:none;fill-rule:nonzero;fill:rgb(0%,0%,0%);fill-opacity:1;" d="M 15.496094 132.535156 L 15.496094 126.222656 L 12.621094 126.441406 L 12.621094 127.066406 C 14.027344 127.066406 14.183594 127.191406 14.183594 128.191406 L 14.183594 140.066406 L 14.683594 140.066406 C 14.683594 140.035156 14.839844 139.753906 15.402344 138.816406 C 15.683594 139.285156 16.527344 140.285156 17.996094 140.285156 C 20.371094 140.285156 22.433594 138.316406 22.433594 135.753906 C 22.433594 133.222656 20.496094 131.253906 18.214844 131.253906 C 16.652344 131.253906 15.808594 132.191406 15.496094 132.535156 Z M 15.558594 137.785156 L 15.558594 133.691406 C 15.558594 133.316406 15.558594 133.285156 15.777344 132.972656 C 16.558594 131.847656 17.652344 131.691406 18.121094 131.691406 C 19.027344 131.691406 19.746094 132.222656 20.214844 132.972656 C 20.746094 133.785156 20.777344 134.910156 20.777344 135.753906 C 20.777344 136.472656 20.746094 137.660156 20.183594 138.566406 C 19.746094 139.191406 18.996094 139.847656 17.933594 139.847656 C 17.027344 139.847656 16.308594 139.378906 15.839844 138.628906 C 15.558594 138.222656 15.558594 138.160156 15.558594 137.785156 Z M 15.558594 137.785156 "/>
<path style=" stroke:none;fill-rule:nonzero;fill:rgb(0%,0%,0%);fill-opacity:1;" d="M 26.566406 132.535156 L 26.566406 126.222656 L 23.691406 126.441406 L 23.691406 127.066406 C 25.097656 127.066406 25.253906 127.191406 25.253906 128.191406 L 25.253906 140.066406 L 25.753906 140.066406 C 25.753906 140.035156 25.910156 139.753906 26.472656 138.816406 C 26.753906 139.285156 27.597656 140.285156 29.066406 140.285156 C 31.441406 140.285156 33.503906 138.316406 33.503906 135.753906 C 33.503906 133.222656 31.566406 131.253906 29.285156 131.253906 C 27.722656 131.253906 26.878906 132.191406 26.566406 132.535156 Z M 26.628906 137.785156 L 26.628906 133.691406 C 26.628906 133.316406 26.628906 133.285156 26.847656 132.972656 C 27.628906 131.847656 28.722656 131.691406 29.191406 131.691406 C 30.097656 131.691406 30.816406 132.222656 31.285156 132.972656 C 31.816406 133.785156 31.847656 134.910156 31.847656 135.753906 C 31.847656 136.472656 31.816406 137.660156 31.253906 138.566406 C 30.816406 139.191406 30.066406 139.847656 29.003906 139.847656 C 28.097656 139.847656 27.378906 139.378906 26.910156 138.628906 C 26.628906 138.222656 26.628906 138.160156 26.628906 137.785156 Z M 26.628906 137.785156 "/>
<path style=" stroke:none;fill-rule:nonzero;fill:rgb(0%,0%,0%);fill-opacity:1;" d="M 37.636719 132.535156 L 37.636719 126.222656 L 34.761719 126.441406 L 34.761719 127.066406 C 36.167969 127.066406 36.324219 127.191406 36.324219 128.191406 L 36.324219 140.066406 L 36.824219 140.066406 C 36.824219 140.035156 36.980469 139.753906 37.542969 138.816406 C 37.824219 139.285156 38.667969 140.285156 40.136719 140.285156 C 42.511719 140.285156 44.574219 138.316406 44.574219 135.753906 C 44.574219 133.222656 42.636719 131.253906 40.355469 131.253906 C 38.792969 131.253906 37.949219 132.191406 37.636719 132.535156 Z M 37.699219 137.785156 L 37.699219 133.691406 C 37.699219 133.316406 37.699219 133.285156 37.917969 132.972656 C 38.699219 131.847656 39.792969 131.691406 40.261719 131.691406 C 41.167969 131.691406 41.886719 132.222656 42.355469 132.972656 C 42.886719 133.785156 42.917969 134.910156 42.917969 135.753906 C 42.917969 136.472656 42.886719 137.660156 42.324219 138.566406 C 41.886719 139.191406 41.136719 139.847656 40.074219 139.847656 C 39.167969 139.847656 38.449219 139.378906 37.980469 138.628906 C 37.699219 138.222656 37.699219 138.160156 37.699219 137.785156 Z M 37.699219 137.785156 "/>
<path style="fill:none;stroke-width:0.566929;stroke-linecap:butt;stroke-linejoin:miter;stroke:rgb(100%,0%,0%);stroke-opacity:0.5;stroke-miterlimit:10;" d="M 33.5412 59.526682 L 39.211122 53.858714 " transform="matrix(2,0,0,2,5.952756,6.169291)"/>
<path style="fill:none;stroke-width:0.566929;stroke-linecap:butt;stroke-linejoin:miter;stroke:rgb(100%,0%,0%);stroke-opacity:0.5;stroke-miterlimit:10;" d="M 39.211122 59.526682 L 33.5412 53.858714 " transform="matrix(2,0,0,2,5.952756,6.169291)"/>
<path style="fill-rule:nonzero;fill:rgb(50%,50%,0%);fill-opacity:0.1;stroke-width:0.566929;stroke-linecap:butt;stroke-linejoin:miter;stroke:rgb(100%,0%,0%);stroke-opacity:0.5;stroke-miterlimit:10;" d="M 24.230653 70.39387 L 48.521669 70.39387 L 48.521669 56.692698 L 24.230653 56.692698 Z M 24.230653 70.39387 " transform="matrix(2,0,0,2,5.952756,6.169291)"/>
<path style="fill:none;stroke-width:0.566929;stroke-linecap:butt;stroke-linejoin:miter;stroke:rgb(100%,0%,0%);stroke-opacity:0.5;stroke-miterlimit:10;" d="M 24.230653 70.39387 L 29.898622 64.723948 " transform="matrix(2,0,0,2,5.952756,6.169291)"/>
<path style="fill:none;stroke-width:0.566929;stroke-linecap:butt;stroke-linejoin:miter;stroke:rgb(100%,0%,0%);stroke-opacity:0.5;stroke-miterlimit:10;" d="M 29.898622 70.39387 L 24.230653 64.723948 " transform="matrix(2,0,0,2,5.952756,6.169291)"/>
<path style="fill-rule:nonzero;fill:rgb(50%,50%,0%);fill-opacity:0.1;stroke-width:0.566929;stroke-linecap:butt;stroke-linejoin:miter;stroke:rgb(100%,0%,0%);stroke-opacity:0.5;stroke-miterlimit:10;" d="M 24.230653 70.39387 L 48.521669 70.39387 L 48.521669 56.692698 L 24.230653 56.692698 Z M 24.230653 70.39387 " transform="matrix(2,0,0,2,5.952756,6.169291)"/>
<path style="fill:none;stroke-width:0.566929;stroke-linecap:butt;stroke-linejoin:miter;stroke:rgb(100%,0%,0%);stroke-opacity:0.5;stroke-miterlimit:10;" d="M 24.230653 70.39387 L 29.898622 64.723948 " transform="matrix(2,0,0,2,5.952756,6.169291)"/>
<path style="fill:none;stroke-width:0.566929;stroke-linecap:butt;stroke-linejoin:miter;stroke:rgb(100%,0%,0%);stroke-opacity:0.5;stroke-miterlimit:10;" d="M 29.898622 70.39387 L 24.230653 64.723948 " transform="matrix(2,0,0,2,5.952756,6.169291)"/>
<path style="fill-rule:nonzero;fill:rgb(50%,50%,0%);fill-opacity:0.1;stroke-width:0.566929;stroke-linecap:butt;stroke-linejoin:miter;stroke:rgb(100%,0%,0%);stroke-opacity:0.5;stroke-miterlimit:10;" d="M 27.064638 67.557932 L 45.687685 67.557932 L 45.687685 59.526682 L 27.064638 59.526682 Z M 27.064638 67.557932 " transform="matrix(2,0,0,2,5.952756,6.169291)"/>
<path style=" stroke:none;fill-rule:nonzero;fill:rgb(0%,0%,0%);fill-opacity:1;" d="M 69.488281 132.316406 L 71.769531 132.316406 L 71.769531 131.691406 L 69.425781 131.691406 L 69.425781 129.378906 C 69.425781 127.597656 70.394531 126.660156 71.269531 126.660156 C 71.332031 126.660156 71.644531 126.660156 71.925781 126.816406 C 71.707031 126.878906 71.332031 127.160156 71.332031 127.660156 C 71.332031 128.097656 71.644531 128.503906 72.207031 128.503906 C 72.769531 128.503906 73.082031 128.097656 73.082031 127.628906 C 73.082031 126.910156 72.363281 126.222656 71.269531 126.222656 C 70.082031 126.222656 69.207031 126.972656 69.113281 127.066406 C 68.519531 126.316406 67.394531 126.222656 66.863281 126.222656 C 64.988281 126.222656 62.675781 127.253906 62.675781 129.410156 L 62.675781 131.691406 L 61.082031 131.691406 L 61.082031 132.316406 L 62.675781 132.316406 L 62.675781 138.785156 C 62.675781 139.660156 62.457031 139.660156 61.113281 139.660156 L 61.113281 140.285156 C 61.769531 140.253906 62.832031 140.222656 63.332031 140.222656 C 63.832031 140.222656 64.800781 140.253906 65.550781 140.285156 L 65.550781 139.660156 C 64.207031 139.660156 63.988281 139.660156 63.988281 138.785156 L 63.988281 132.316406 L 68.175781 132.316406 L 68.175781 138.785156 C 68.175781 139.660156 67.957031 139.660156 66.613281 139.660156 L 66.613281 140.285156 C 67.394531 140.253906 68.332031 140.222656 68.894531 140.222656 C 69.675781 140.222656 70.613281 140.222656 71.425781 140.285156 L 71.425781 139.660156 L 70.988281 139.660156 C 69.519531 139.660156 69.488281 139.441406 69.488281 138.722656 Z M 63.925781 131.691406 L 63.925781 129.441406 C 63.925781 127.503906 65.550781 126.660156 66.863281 126.660156 C 67.832031 126.660156 68.394531 127.035156 68.394531 127.035156 L 68.394531 127.066406 C 68.082031 127.097656 67.675781 127.378906 67.675781 127.910156 C 67.675781 128.035156 67.675781 128.535156 68.238281 128.722656 C 68.175781 128.972656 68.175781 129.160156 68.175781 129.410156 L 68.175781 131.691406 Z M 63.925781 131.691406 "/>
<path style=" stroke:none;fill-rule:nonzero;fill:rgb(0%,0%,0%);fill-opacity:1;" d="M 81.109375 132.316406 L 83.390625 132.316406 L 83.390625 131.691406 L 81.046875 131.691406 L 81.046875 129.378906 C 81.046875 127.597656 82.015625 126.660156 82.890625 126.660156 C 82.953125 126.660156 83.265625 126.660156 83.546875 126.816406 C 83.328125 126.878906 82.953125 127.160156 82.953125 127.660156 C 82.953125 128.097656 83.265625 128.503906 83.828125 128.503906 C 84.390625 128.503906 84.703125 128.097656 84.703125 127.628906 C 84.703125 126.910156 83.984375 126.222656 82.890625 126.222656 C 81.703125 126.222656 80.828125 126.972656 80.734375 127.066406 C 80.140625 126.316406 79.015625 126.222656 78.484375 126.222656 C 76.609375 126.222656 74.296875 127.253906 74.296875 129.410156 L 74.296875 131.691406 L 72.703125 131.691406 L 72.703125 132.316406 L 74.296875 132.316406 L 74.296875 138.785156 C 74.296875 139.660156 74.078125 139.660156 72.734375 139.660156 L 72.734375 140.285156 C 73.390625 140.253906 74.453125 140.222656 74.953125 140.222656 C 75.453125 140.222656 76.421875 140.253906 77.171875 140.285156 L 77.171875 139.660156 C 75.828125 139.660156 75.609375 139.660156 75.609375 138.785156 L 75.609375 132.316406 L 79.796875 132.316406 L 79.796875 138.785156 C 79.796875 139.660156 79.578125 139.660156 78.234375 139.660156 L 78.234375 140.285156 C 79.015625 140.253906 79.953125 140.222656 80.515625 140.222656 C 81.296875 140.222656 82.234375 140.222656 83.046875 140.285156 L 83.046875 139.660156 L 82.609375 139.660156 C 81.140625 139.660156 81.109375 139.441406 81.109375 138.722656 Z M 75.546875 131.691406 L 75.546875 129.441406 C 75.546875 127.503906 77.171875 126.660156 78.484375 126.660156 C 79.453125 126.660156 80.015625 127.035156 80.015625 127.035156 L 80.015625 127.066406 C 79.703125 127.097656 79.296875 127.378906 79.296875 127.910156 C 79.296875 128.035156 79.296875 128.535156 79.859375 128.722656 C 79.796875 128.972656 79.796875 129.160156 79.796875 129.410156 L 79.796875 131.691406 Z M 75.546875 131.691406 "/>
<path style=" stroke:none;fill-rule:nonzero;fill:rgb(0%,0%,0%);fill-opacity:1;" d="M 92.734375 132.316406 L 95.015625 132.316406 L 95.015625 131.691406 L 92.671875 131.691406 L 92.671875 129.378906 C 92.671875 127.597656 93.640625 126.660156 94.515625 126.660156 C 94.578125 126.660156 94.890625 126.660156 95.171875 126.816406 C 94.953125 126.878906 94.578125 127.160156 94.578125 127.660156 C 94.578125 128.097656 94.890625 128.503906 95.453125 128.503906 C 96.015625 128.503906 96.328125 128.097656 96.328125 127.628906 C 96.328125 126.910156 95.609375 126.222656 94.515625 126.222656 C 93.328125 126.222656 92.453125 126.972656 92.359375 127.066406 C 91.765625 126.316406 90.640625 126.222656 90.109375 126.222656 C 88.234375 126.222656 85.921875 127.253906 85.921875 129.410156 L 85.921875 131.691406 L 84.328125 131.691406 L 84.328125 132.316406 L 85.921875 132.316406 L 85.921875 138.785156 C 85.921875 139.660156 85.703125 139.660156 84.359375 139.660156 L 84.359375 140.285156 C 85.015625 140.253906 86.078125 140.222656 86.578125 140.222656 C 87.078125 140.222656 88.046875 140.253906 88.796875 140.285156 L 88.796875 139.660156 C 87.453125 139.660156 87.234375 139.660156 87.234375 138.785156 L 87.234375 132.316406 L 91.421875 132.316406 L 91.421875 138.785156 C 91.421875 139.660156 91.203125 139.660156 89.859375 139.660156 L 89.859375 140.285156 C 90.640625 140.253906 91.578125 140.222656 92.140625 140.222656 C 92.921875 140.222656 93.859375 140.222656 94.671875 140.285156 L 94.671875 139.660156 L 94.234375 139.660156 C 92.765625 139.660156 92.734375 139.441406 92.734375 138.722656 Z M 87.171875 131.691406 L 87.171875 129.441406 C 87.171875 127.503906 88.796875 126.660156 90.109375 126.660156 C 91.078125 126.660156 91.640625 127.035156 91.640625 127.035156 L 91.640625 127.066406 C 91.328125 127.097656 90.921875 127.378906 90.921875 127.910156 C 90.921875 128.035156 90.921875 128.535156 91.484375 128.722656 C 91.421875 128.972656 91.421875 129.160156 91.421875 129.410156 L 91.421875 131.691406 Z M 87.171875 131.691406 "/>
<path style="fill:none;stroke-width:0.566929;stroke-linecap:butt;stroke-linejoin:miter;stroke:rgb(100%,0%,0%);stroke-opacity:0.5;stroke-miterlimit:10;" d="M 75.199403 59.526682 L 80.869325 53.858714 " transform="matrix(2,0,0,2,5.952756,6.169291)"/>
<path style="fill:none;stroke-width:0.566929;stroke-linecap:butt;stroke-linejoin:miter;stroke:rgb(100%,0%,0%);stroke-opacity:0.5;stroke-miterlimit:10;" d="M 80.869325 59.526682 L 75.199403 53.858714 " transform="matrix(2,0,0,2,5.952756,6.169291)"/>
<path style="fill-rule:nonzero;fill:rgb(50%,50%,0%);fill-opacity:0.1;stroke-width:0.566929;stroke-linecap:butt;stroke-linejoin:miter;stroke:rgb(100%,0%,0%);stroke-opacity:0.5;stroke-miterlimit:10;" d="M 50.105653 70.39387 L 105.963075 70.39387 L 105.963075 56.692698 L 50.105653 56.692698 Z M 50.105653 70.39387 " transform="matrix(2,0,0,2,5.952756,6.169291)"/>
<path style="fill:none;stroke-width:0.566929;stroke-linecap:butt;stroke-linejoin:miter;stroke:rgb(100%,0%,0%);stroke-opacity:0.5;stroke-miterlimit:10;" d="M 50.105653 70.284495 L 55.775575 64.614573 " transform="matrix(2,0,0,2,5.952756,6.169291)"/>
<path style="fill:none;stroke-width:0.566929;stroke-linecap:butt;stroke-linejoin:miter;stroke:rgb(100%,0%,0%);stroke-opacity:0.5;stroke-miterlimit:10;" d="M 55.775575 70.284495 L 50.105653 64.614573 " transform="matrix(2,0,0,2,5.952756,6.169291)"/>
<path style="fill-rule:nonzero;fill:rgb(50%,50%,0%);fill-opacity:0.1;stroke-width:0.566929;stroke-linecap:butt;stroke-linejoin:miter;stroke:rgb(100%,0%,0%);stroke-opacity:0.5;stroke-miterlimit:10;" d="M 50.105653 70.39387 L 105.963075 70.39387 L 105.963075 56.692698 L 50.105653 56.692698 Z M 50.105653 70.39387 " transform="matrix(2,0,0,2,5.952756,6.169291)"/>
<path style="fill:none;stroke-width:0.566929;stroke-linecap:butt;stroke-linejoin:miter;stroke:rgb(100%,0%,0%);stroke-opacity:0.5;stroke-miterlimit:10;" d="M 50.105653 70.284495 L 55.775575 64.614573 " transform="matrix(2,0,0,2,5.952756,6.169291)"/>
<path style="fill:none;stroke-width:0.566929;stroke-linecap:butt;stroke-linejoin:miter;stroke:rgb(100%,0%,0%);stroke-opacity:0.5;stroke-miterlimit:10;" d="M 55.775575 70.284495 L 50.105653 64.614573 " transform="matrix(2,0,0,2,5.952756,6.169291)"/>
<path style="fill-rule:nonzero;fill:rgb(50%,50%,0%);fill-opacity:0.1;stroke-width:0.566929;stroke-linecap:butt;stroke-linejoin:miter;stroke:rgb(100%,0%,0%);stroke-opacity:0.5;stroke-miterlimit:10;" d="M 52.939638 67.557932 L 103.129091 67.557932 L 103.129091 59.526682 L 52.939638 59.526682 Z M 52.939638 67.557932 " transform="matrix(2,0,0,2,5.952756,6.169291)"/>
<path style=" stroke:none;fill-rule:nonzero;fill:rgb(0%,0%,0%);fill-opacity:1;" d="M 115.707031 132.535156 L 115.707031 126.222656 L 112.832031 126.441406 L 112.832031 127.066406 C 114.238281 127.066406 114.394531 127.191406 114.394531 128.191406 L 114.394531 140.066406 L 114.894531 140.066406 C 114.894531 140.035156 115.050781 139.753906 115.613281 138.816406 C 115.894531 139.285156 116.738281 140.285156 118.207031 140.285156 C 120.582031 140.285156 122.644531 138.316406 122.644531 135.753906 C 122.644531 133.222656 120.707031 131.253906 118.425781 131.253906 C 116.863281 131.253906 116.019531 132.191406 115.707031 132.535156 Z M 115.769531 137.785156 L 115.769531 133.691406 C 115.769531 133.316406 115.769531 133.285156 115.988281 132.972656 C 116.769531 131.847656 117.863281 131.691406 118.332031 131.691406 C 119.238281 131.691406 119.957031 132.222656 120.425781 132.972656 C 120.957031 133.785156 120.988281 134.910156 120.988281 135.753906 C 120.988281 136.472656 120.957031 137.660156 120.394531 138.566406 C 119.957031 139.191406 119.207031 139.847656 118.144531 139.847656 C 117.238281 139.847656 116.519531 139.378906 116.050781 138.628906 C 115.769531 138.222656 115.769531 138.160156 115.769531 137.785156 Z M 115.769531 137.785156 "/>
<path style=" stroke:none;fill-rule:nonzero;fill:rgb(0%,0%,0%);fill-opacity:1;" d="M 126.777344 132.535156 L 126.777344 126.222656 L 123.902344 126.441406 L 123.902344 127.066406 C 125.308594 127.066406 125.464844 127.191406 125.464844 128.191406 L 125.464844 140.066406 L 125.964844 140.066406 C 125.964844 140.035156 126.121094 139.753906 126.683594 138.816406 C 126.964844 139.285156 127.808594 140.285156 129.277344 140.285156 C 131.652344 140.285156 133.714844 138.316406 133.714844 135.753906 C 133.714844 133.222656 131.777344 131.253906 129.496094 131.253906 C 127.933594 131.253906 127.089844 132.191406 126.777344 132.535156 Z M 126.839844 137.785156 L 126.839844 133.691406 C 126.839844 133.316406 126.839844 133.285156 127.058594 132.972656 C 127.839844 131.847656 128.933594 131.691406 129.402344 131.691406 C 130.308594 131.691406 131.027344 132.222656 131.496094 132.972656 C 132.027344 133.785156 132.058594 134.910156 132.058594 135.753906 C 132.058594 136.472656 132.027344 137.660156 131.464844 138.566406 C 131.027344 139.191406 130.277344 139.847656 129.214844 139.847656 C 128.308594 139.847656 127.589844 139.378906 127.121094 138.628906 C 126.839844 138.222656 126.839844 138.160156 126.839844 137.785156 Z M 126.839844 137.785156 "/>
<path style=" stroke:none;fill-rule:nonzero;fill:rgb(0%,0%,0%);fill-opacity:1;" d="M 137.847656 132.535156 L 137.847656 126.222656 L 134.972656 126.441406 L 134.972656 127.066406 C 136.378906 127.066406 136.535156 127.191406 136.535156 128.191406 L 136.535156 140.066406 L 137.035156 140.066406 C 137.035156 140.035156 137.191406 139.753906 137.753906 138.816406 C 138.035156 139.285156 138.878906 140.285156 140.347656 140.285156 C 142.722656 140.285156 144.785156 138.316406 144.785156 135.753906 C 144.785156 133.222656 142.847656 131.253906 140.566406 131.253906 C 139.003906 131.253906 138.160156 132.191406 137.847656 132.535156 Z M 137.910156 137.785156 L 137.910156 133.691406 C 137.910156 133.316406 137.910156 133.285156 138.128906 132.972656 C 138.910156 131.847656 140.003906 131.691406 140.472656 131.691406 C 141.378906 131.691406 142.097656 132.222656 142.566406 132.972656 C 143.097656 133.785156 143.128906 134.910156 143.128906 135.753906 C 143.128906 136.472656 143.097656 137.660156 142.535156 138.566406 C 142.097656 139.191406 141.347656 139.847656 140.285156 139.847656 C 139.378906 139.847656 138.660156 139.378906 138.191406 138.628906 C 137.910156 138.222656 137.910156 138.160156 137.910156 137.785156 Z M 137.910156 137.785156 "/>
<path style=" stroke:none;fill-rule:nonzero;fill:rgb(0%,0%,0%);fill-opacity:1;" d="M 148.917969 132.535156 L 148.917969 126.222656 L 146.042969 126.441406 L 146.042969 127.066406 C 147.449219 127.066406 147.605469 127.191406 147.605469 128.191406 L 147.605469 140.066406 L 148.105469 140.066406 C 148.105469 140.035156 148.261719 139.753906 148.824219 138.816406 C 149.105469 139.285156 149.949219 140.285156 151.417969 140.285156 C 153.792969 140.285156 155.855469 138.316406 155.855469 135.753906 C 155.855469 133.222656 153.917969 131.253906 151.636719 131.253906 C 150.074219 131.253906 149.230469 132.191406 148.917969 132.535156 Z M 148.980469 137.785156 L 148.980469 133.691406 C 148.980469 133.316406 148.980469 133.285156 149.199219 132.972656 C 149.980469 131.847656 151.074219 131.691406 151.542969 131.691406 C 152.449219 131.691406 153.167969 132.222656 153.636719 132.972656 C 154.167969 133.785156 154.199219 134.910156 154.199219 135.753906 C 154.199219 136.472656 154.167969 137.660156 153.605469 138.566406 C 153.167969 139.191406 152.417969 139.847656 151.355469 139.847656 C 150.449219 139.847656 149.730469 139.378906 149.261719 138.628906 C 148.980469 138.222656 148.980469 138.160156 148.980469 137.785156 Z M 148.980469 137.785156 "/>
<path style=" stroke:none;fill-rule:nonzero;fill:rgb(0%,0%,0%);fill-opacity:1;" d="M 159.988281 132.535156 L 159.988281 126.222656 L 157.113281 126.441406 L 157.113281 127.066406 C 158.519531 127.066406 158.675781 127.191406 158.675781 128.191406 L 158.675781 140.066406 L 159.175781 140.066406 C 159.175781 140.035156 159.332031 139.753906 159.894531 138.816406 C 160.175781 139.285156 161.019531 140.285156 162.488281 140.285156 C 164.863281 140.285156 166.925781 138.316406 166.925781 135.753906 C 166.925781 133.222656 164.988281 131.253906 162.707031 131.253906 C 161.144531 131.253906 160.300781 132.191406 159.988281 132.535156 Z M 160.050781 137.785156 L 160.050781 133.691406 C 160.050781 133.316406 160.050781 133.285156 160.269531 132.972656 C 161.050781 131.847656 162.144531 131.691406 162.613281 131.691406 C 163.519531 131.691406 164.238281 132.222656 164.707031 132.972656 C 165.238281 133.785156 165.269531 134.910156 165.269531 135.753906 C 165.269531 136.472656 165.238281 137.660156 164.675781 138.566406 C 164.238281 139.191406 163.488281 139.847656 162.425781 139.847656 C 161.519531 139.847656 160.800781 139.378906 160.332031 138.628906 C 160.050781 138.222656 160.050781 138.160156 160.050781 137.785156 Z M 160.050781 137.785156 "/>
<path style=" stroke:none;fill-rule:nonzero;fill:rgb(0%,0%,0%);fill-opacity:1;" d="M 171.0625 132.535156 L 171.0625 126.222656 L 168.1875 126.441406 L 168.1875 127.066406 C 169.59375 127.066406 169.75 127.191406 169.75 128.191406 L 169.75 140.066406 L 170.25 140.066406 C 170.25 140.035156 170.40625 139.753906 170.96875 138.816406 C 171.25 139.285156 172.09375 140.285156 173.5625 140.285156 C 175.9375 140.285156 178 138.316406 178 135.753906 C 178 133.222656 176.0625 131.253906 173.78125 131.253906 C 172.21875 131.253906 171.375 132.191406 171.0625 132.535156 Z M 171.125 137.785156 L 171.125 133.691406 C 171.125 133.316406 171.125 133.285156 171.34375 132.972656 C 172.125 131.847656 173.21875 131.691406 173.6875 131.691406 C 174.59375 131.691406 175.3125 132.222656 175.78125 132.972656 C 176.3125 133.785156 176.34375 134.910156 176.34375 135.753906 C 176.34375 136.472656 176.3125 137.660156 175.75 138.566406 C 175.3125 139.191406 174.5625 139.847656 173.5 139.847656 C 172.59375 139.847656 171.875 139.378906 171.40625 138.628906 C 171.125 138.222656 171.125 138.160156 171.125 137.785156 Z M 171.125 137.785156 "/>
<path style=" stroke:none;fill-rule:nonzero;fill:rgb(0%,0%,0%);fill-opacity:1;" d="M 182.132812 132.535156 L 182.132812 126.222656 L 179.257812 126.441406 L 179.257812 127.066406 C 180.664062 127.066406 180.820312 127.191406 180.820312 128.191406 L 180.820312 140.066406 L 181.320312 140.066406 C 181.320312 140.035156 181.476562 139.753906 182.039062 138.816406 C 182.320312 139.285156 183.164062 140.285156 184.632812 140.285156 C 187.007812 140.285156 189.070312 138.316406 189.070312 135.753906 C 189.070312 133.222656 187.132812 131.253906 184.851562 131.253906 C 183.289062 131.253906 182.445312 132.191406 182.132812 132.535156 Z M 182.195312 137.785156 L 182.195312 133.691406 C 182.195312 133.316406 182.195312 133.285156 182.414062 132.972656 C 183.195312 131.847656 184.289062 131.691406 184.757812 131.691406 C 185.664062 131.691406 186.382812 132.222656 186.851562 132.972656 C 187.382812 133.785156 187.414062 134.910156 187.414062 135.753906 C 187.414062 136.472656 187.382812 137.660156 186.820312 138.566406 C 186.382812 139.191406 185.632812 139.847656 184.570312 139.847656 C 183.664062 139.847656 182.945312 139.378906 182.476562 138.628906 C 182.195312 138.222656 182.195312 138.160156 182.195312 137.785156 Z M 182.195312 137.785156 "/>
<path style=" stroke:none;fill-rule:nonzero;fill:rgb(0%,0%,0%);fill-opacity:1;" d="M 193.203125 132.535156 L 193.203125 126.222656 L 190.328125 126.441406 L 190.328125 127.066406 C 191.734375 127.066406 191.890625 127.191406 191.890625 128.191406 L 191.890625 140.066406 L 192.390625 140.066406 C 192.390625 140.035156 192.546875 139.753906 193.109375 138.816406 C 193.390625 139.285156 194.234375 140.285156 195.703125 140.285156 C 198.078125 140.285156 200.140625 138.316406 200.140625 135.753906 C 200.140625 133.222656 198.203125 131.253906 195.921875 131.253906 C 194.359375 131.253906 193.515625 132.191406 193.203125 132.535156 Z M 193.265625 137.785156 L 193.265625 133.691406 C 193.265625 133.316406 193.265625 133.285156 193.484375 132.972656 C 194.265625 131.847656 195.359375 131.691406 195.828125 131.691406 C 196.734375 131.691406 197.453125 132.222656 197.921875 132.972656 C 198.453125 133.785156 198.484375 134.910156 198.484375 135.753906 C 198.484375 136.472656 198.453125 137.660156 197.890625 138.566406 C 197.453125 139.191406 196.703125 139.847656 195.640625 139.847656 C 194.734375 139.847656 194.015625 139.378906 193.546875 138.628906 C 193.265625 138.222656 193.265625 138.160156 193.265625 137.785156 Z M 193.265625 137.785156 "/>
<path style=" stroke:none;fill-rule:nonzero;fill:rgb(0%,0%,0%);fill-opacity:1;" d="M 204.273438 132.535156 L 204.273438 126.222656 L 201.398438 126.441406 L 201.398438 127.066406 C 202.804688 127.066406 202.960938 127.191406 202.960938 128.191406 L 202.960938 140.066406 L 203.460938 140.066406 C 203.460938 140.035156 203.617188 139.753906 204.179688 138.816406 C 204.460938 139.285156 205.304688 140.285156 206.773438 140.285156 C 209.148438 140.285156 211.210938 138.316406 211.210938 135.753906 C 211.210938 133.222656 209.273438 131.253906 206.992188 131.253906 C 205.429688 131.253906 204.585938 132.191406 204.273438 132.535156 Z M 204.335938 137.785156 L 204.335938 133.691406 C 204.335938 133.316406 204.335938 133.285156 204.554688 132.972656 C 205.335938 131.847656 206.429688 131.691406 206.898438 131.691406 C 207.804688 131.691406 208.523438 132.222656 208.992188 132.972656 C 209.523438 133.785156 209.554688 134.910156 209.554688 135.753906 C 209.554688 136.472656 209.523438 137.660156 208.960938 138.566406 C 208.523438 139.191406 207.773438 139.847656 206.710938 139.847656 C 205.804688 139.847656 205.085938 139.378906 204.617188 138.628906 C 204.335938 138.222656 204.335938 138.160156 204.335938 137.785156 Z M 204.335938 137.785156 "/>
<path style="fill:none;stroke-width:0.566929;stroke-linecap:butt;stroke-linejoin:miter;stroke:rgb(100%,0%,0%);stroke-opacity:0.5;stroke-miterlimit:10;" d="M 103.129091 59.526682 L 108.79706 53.858714 " transform="matrix(2,0,0,2,5.952756,6.169291)"/>
<path style="fill:none;stroke-width:0.566929;stroke-linecap:butt;stroke-linejoin:miter;stroke:rgb(100%,0%,0%);stroke-opacity:0.5;stroke-miterlimit:10;" d="M 108.79706 59.526682 L 103.129091 53.858714 " transform="matrix(2,0,0,2,5.952756,6.169291)"/>
<path style="fill:none;stroke-width:0.566929;stroke-linecap:butt;stroke-linejoin:miter;stroke:rgb(100%,0%,0%);stroke-opacity:0.5;stroke-miterlimit:10;" d="M 105.963075 85.038401 L 105.963075 56.692698 Z M 105.963075 85.038401 " transform="matrix(2,0,0,2,5.952756,6.169291)"/>
</g>
</svg>
