<?xml version="1.0" encoding="UTF-8"?>
<svg xmlns="http://www.w3.org/2000/svg" xmlns:xlink="http://www.w3.org/1999/xlink" width="328pt" height="339pt" viewBox="0 0 328 339" version="1.1">
<g id="surface259">
<path style="fill:none;stroke-width:0.566929;stroke-linecap:butt;stroke-linejoin:miter;stroke:rgb(100%,0%,0%);stroke-opacity:0.5;stroke-miterlimit:10;" d="M -2.833984 2.833984 L 2.833984 -2.833984 " transform="matrix(2,0,0,2,8,8)"/>
<path style="fill:none;stroke-width:0.566929;stroke-linecap:butt;stroke-linejoin:miter;stroke:rgb(100%,0%,0%);stroke-opacity:0.5;stroke-miterlimit:10;" d="M 2.833984 2.833984 L -2.833984 -2.833984 " transform="matrix(2,0,0,2,8,8)"/>
<path style="fill-rule:nonzero;fill:rgb(50%,50%,0%);fill-opacity:0.1;stroke-width:0.566929;stroke-linecap:butt;stroke-linejoin:miter;stroke:rgb(100%,0%,0%);stroke-opacity:0.5;stroke-miterlimit:10;" d="M 0 164.388672 L 158.779297 164.388672 L 158.779297 0 L 0 0 Z M 0 164.388672 " transform="matrix(2,0,0,2,8,8)"/>
<path style="fill:none;stroke-width:0.566929;stroke-linecap:butt;stroke-linejoin:miter;stroke:rgb(100%,0%,0%);stroke-opacity:0.5;stroke-miterlimit:10;" d="M -2.833984 35.707031 L 2.833984 30.039062 " transform="matrix(2,0,0,2,8,8)"/>
<path style="fill:none;stroke-width:0.566929;stroke-linecap:butt;stroke-linejoin:miter;stroke:rgb(100%,0%,0%);stroke-opacity:0.5;stroke-miterlimit:10;" d="M 2.833984 35.707031 L -2.833984 30.039062 " transform="matrix(2,0,0,2,8,8)"/>
<path style="fill-rule:nonzero;fill:rgb(50%,50%,0%);fill-opacity:0.1;stroke-width:0.566929;stroke-linecap:butt;stroke-linejoin:miter;stroke:rgb(100%,0%,0%);stroke-opacity:0.5;stroke-miterlimit:10;" d="M 0 86.21875 L 126.925781 86.21875 L 126.925781 0 L 0 0 Z M 0 86.21875 " transform="matrix(2,0,0,2,8,8)"/>
<path style="fill:none;stroke-width:0.566929;stroke-linecap:butt;stroke-linejoin:miter;stroke:rgb(100%,0%,0%);stroke-opacity:0.5;stroke-miterlimit:10;" d="M 24.417969 35.707031 L 30.085938 30.039062 " transform="matrix(2,0,0,2,8,8)"/>
<path style="fill:none;stroke-width:0.566929;stroke-linecap:butt;stroke-linejoin:miter;stroke:rgb(100%,0%,0%);stroke-opacity:0.5;stroke-miterlimit:10;" d="M 30.085938 35.707031 L 24.417969 30.039062 " transform="matrix(2,0,0,2,8,8)"/>
<path style="fill-rule:nonzero;fill:rgb(50%,50%,0%);fill-opacity:0.1;stroke-width:0.566929;stroke-linecap:butt;stroke-linejoin:miter;stroke:rgb(100%,0%,0%);stroke-opacity:0.5;stroke-miterlimit:10;" d="M 0 86.21875 L 38.230469 86.21875 L 38.230469 0 L 0 0 Z M 0 86.21875 " transform="matrix(2,0,0,2,8,8)"/>
<path style="fill:none;stroke-width:0.566929;stroke-linecap:butt;stroke-linejoin:miter;stroke:rgb(100%,0%,0%);stroke-opacity:0.5;stroke-miterlimit:10;" d="M 81.197266 35.707031 L 86.865234 30.039062 " transform="matrix(2,0,0,2,8,8)"/>
<path style="fill:none;stroke-width:0.566929;stroke-linecap:butt;stroke-linejoin:miter;stroke:rgb(100%,0%,0%);stroke-opacity:0.5;stroke-miterlimit:10;" d="M 86.865234 35.707031 L 81.197266 30.039062 " transform="matrix(2,0,0,2,8,8)"/>
<path style="fill-rule:nonzero;fill:rgb(50%,50%,0%);fill-opacity:0.1;stroke-width:0.566929;stroke-linecap:butt;stroke-linejoin:miter;stroke:rgb(100%,0%,0%);stroke-opacity:0.5;stroke-miterlimit:10;" d="M 38.230469 44.667969 L 100.828125 44.667969 L 100.828125 2.388672 L 38.230469 2.388672 Z M 38.230469 44.667969 " transform="matrix(2,0,0,2,8,8)"/>
<path style="fill:none;stroke-width:0.566929;stroke-linecap:butt;stroke-linejoin:miter;stroke:rgb(100%,0%,0%);stroke-opacity:0.5;stroke-miterlimit:10;" d="M 97.994141 35.707031 L 103.664062 30.039062 " transform="matrix(2,0,0,2,8,8)"/>
<path style="fill:none;stroke-width:0.566929;stroke-linecap:butt;stroke-linejoin:miter;stroke:rgb(100%,0%,0%);stroke-opacity:0.5;stroke-miterlimit:10;" d="M 103.664062 35.707031 L 97.994141 30.039062 " transform="matrix(2,0,0,2,8,8)"/>
<path style="fill-rule:nonzero;fill:rgb(50%,50%,0%);fill-opacity:0.1;stroke-width:0.566929;stroke-linecap:butt;stroke-linejoin:miter;stroke:rgb(100%,0%,0%);stroke-opacity:0.5;stroke-miterlimit:10;" d="M 100.828125 34.919922 L 126.925781 34.919922 L 126.925781 24.732422 L 100.828125 24.732422 Z M 100.828125 34.919922 " transform="matrix(2,0,0,2,8,8)"/>
<path style=" stroke:none;fill-rule:nonzero;fill:rgb(0%,0%,0%);fill-opacity:1;" d="M 222.21875 60.683594 C 222.21875 59.964844 222.25 59.746094 223.78125 59.746094 L 224.28125 59.746094 L 224.28125 59.121094 C 223.5625 59.183594 222.09375 59.183594 221.34375 59.183594 C 220.59375 59.183594 219.09375 59.183594 218.40625 59.121094 L 218.40625 59.746094 L 218.875 59.746094 C 220.40625 59.746094 220.4375 59.964844 220.4375 60.683594 L 220.4375 65.339844 L 214.5 65.339844 L 214.5 60.683594 C 214.5 59.964844 214.53125 59.746094 216.0625 59.746094 L 216.53125 59.746094 L 216.53125 59.121094 C 215.84375 59.183594 214.375 59.183594 213.59375 59.183594 C 212.84375 59.183594 211.34375 59.183594 210.65625 59.121094 L 210.65625 59.746094 L 211.125 59.746094 C 212.65625 59.746094 212.71875 59.964844 212.71875 60.683594 L 212.71875 71.183594 C 212.71875 71.902344 212.65625 72.121094 211.125 72.121094 L 210.65625 72.121094 L 210.65625 72.746094 C 211.34375 72.683594 212.84375 72.683594 213.59375 72.683594 C 214.34375 72.683594 215.84375 72.683594 216.53125 72.746094 L 216.53125 72.121094 L 216.0625 72.121094 C 214.53125 72.121094 214.5 71.902344 214.5 71.183594 L 214.5 65.964844 L 220.4375 65.964844 L 220.4375 71.183594 C 220.4375 71.902344 220.40625 72.121094 218.875 72.121094 L 218.40625 72.121094 L 218.40625 72.746094 C 219.09375 72.683594 220.5625 72.683594 221.3125 72.683594 C 222.09375 72.683594 223.5625 72.683594 224.28125 72.746094 L 224.28125 72.121094 L 223.78125 72.121094 C 222.25 72.121094 222.21875 71.902344 222.21875 71.183594 Z M 222.21875 60.683594 "/>
<path style=" stroke:none;fill-rule:nonzero;fill:rgb(0%,0%,0%);fill-opacity:1;" d="M 228.476562 63.933594 L 225.695312 64.152344 L 225.695312 64.777344 C 226.976562 64.777344 227.164062 64.902344 227.164062 65.871094 L 227.164062 71.246094 C 227.164062 72.121094 226.945312 72.121094 225.601562 72.121094 L 225.601562 72.746094 C 226.226562 72.714844 227.320312 72.683594 227.789062 72.683594 C 228.507812 72.683594 229.195312 72.714844 229.882812 72.746094 L 229.882812 72.121094 C 228.539062 72.121094 228.476562 72.027344 228.476562 71.246094 Z M 228.539062 60.464844 C 228.539062 59.839844 228.070312 59.402344 227.507812 59.402344 C 226.882812 59.402344 226.445312 59.933594 226.445312 60.464844 C 226.445312 60.996094 226.882812 61.527344 227.507812 61.527344 C 228.070312 61.527344 228.539062 61.089844 228.539062 60.464844 Z M 228.539062 60.464844 "/>
<path style=" stroke:none;fill-rule:nonzero;fill:rgb(0%,0%,0%);fill-opacity:1;" d="M 234.917969 69.308594 C 233.167969 69.308594 233.167969 67.308594 233.167969 66.871094 C 233.167969 66.339844 233.199219 65.683594 233.480469 65.183594 C 233.636719 64.964844 234.105469 64.402344 234.917969 64.402344 C 236.636719 64.402344 236.636719 66.371094 236.636719 66.839844 C 236.636719 67.371094 236.636719 68.027344 236.324219 68.527344 C 236.167969 68.746094 235.699219 69.308594 234.917969 69.308594 Z M 232.605469 70.089844 C 232.605469 70.027344 232.605469 69.558594 232.917969 69.152344 C 233.699219 69.714844 234.542969 69.777344 234.917969 69.777344 C 236.761719 69.777344 238.136719 68.402344 238.136719 66.871094 C 238.136719 66.121094 237.824219 65.402344 237.324219 64.933594 C 238.042969 64.246094 238.761719 64.152344 239.105469 64.152344 C 239.167969 64.152344 239.261719 64.152344 239.324219 64.183594 C 239.105469 64.246094 238.980469 64.464844 238.980469 64.714844 C 238.980469 65.058594 239.261719 65.277344 239.574219 65.277344 C 239.761719 65.277344 240.136719 65.152344 240.136719 64.683594 C 240.136719 64.339844 239.917969 63.714844 239.136719 63.714844 C 238.730469 63.714844 237.855469 63.839844 237.011719 64.652344 C 236.167969 63.996094 235.355469 63.933594 234.917969 63.933594 C 233.042969 63.933594 231.667969 65.308594 231.667969 66.839844 C 231.667969 67.714844 232.105469 68.464844 232.605469 68.902344 C 232.355469 69.183594 231.980469 69.839844 231.980469 70.558594 C 231.980469 71.183594 232.261719 71.933594 232.886719 72.339844 C 231.667969 72.652344 231.042969 73.527344 231.042969 74.308594 C 231.042969 75.746094 233.011719 76.839844 235.449219 76.839844 C 237.792969 76.839844 239.855469 75.839844 239.855469 74.277344 C 239.855469 73.589844 239.605469 72.558594 238.574219 71.996094 C 237.511719 71.464844 236.355469 71.464844 235.136719 71.464844 C 234.636719 71.464844 233.792969 71.464844 233.636719 71.433594 C 233.011719 71.339844 232.605469 70.746094 232.605469 70.089844 Z M 235.480469 76.402344 C 233.449219 76.402344 232.074219 75.371094 232.074219 74.308594 C 232.074219 73.402344 232.824219 72.652344 233.699219 72.621094 L 234.886719 72.621094 C 236.605469 72.621094 238.824219 72.621094 238.824219 74.308594 C 238.824219 75.402344 237.417969 76.402344 235.480469 76.402344 Z M 235.480469 76.402344 "/>
<path style=" stroke:none;fill-rule:nonzero;fill:rgb(0%,0%,0%);fill-opacity:1;" d="M 249.597656 66.371094 C 249.597656 64.777344 249.503906 63.183594 248.816406 61.714844 C 247.910156 59.777344 246.253906 59.464844 245.441406 59.464844 C 244.222656 59.464844 242.785156 59.996094 241.941406 61.839844 C 241.316406 63.214844 241.222656 64.777344 241.222656 66.371094 C 241.222656 67.871094 241.285156 69.652344 242.128906 71.183594 C 242.972656 72.777344 244.441406 73.183594 245.410156 73.183594 C 246.472656 73.183594 248.003906 72.777344 248.878906 70.871094 C 249.503906 69.496094 249.597656 67.933594 249.597656 66.371094 Z M 245.410156 72.746094 C 244.628906 72.746094 243.441406 72.246094 243.097656 70.339844 C 242.878906 69.152344 242.878906 67.308594 242.878906 66.121094 C 242.878906 64.839844 242.878906 63.527344 243.035156 62.464844 C 243.410156 60.089844 244.910156 59.902344 245.410156 59.902344 C 246.066406 59.902344 247.378906 60.277344 247.753906 62.246094 C 247.972656 63.371094 247.972656 64.871094 247.972656 66.121094 C 247.972656 67.621094 247.972656 68.964844 247.753906 70.246094 C 247.441406 72.152344 246.316406 72.746094 245.410156 72.746094 Z M 245.410156 72.746094 "/>
<path style=" stroke:none;fill-rule:nonzero;fill:rgb(0%,0%,0%);fill-opacity:1;" d="M 260.101562 68.589844 L 260.851562 59.496094 C 260.851562 58.839844 260.320312 58.464844 259.820312 58.464844 C 259.289062 58.464844 258.757812 58.839844 258.757812 59.496094 L 259.539062 68.558594 C 259.539062 68.871094 259.570312 69.027344 259.820312 69.027344 C 260.007812 69.027344 260.070312 68.933594 260.101562 68.589844 Z M 260.851562 71.683594 C 260.851562 71.121094 260.382812 70.621094 259.820312 70.621094 C 259.226562 70.621094 258.757812 71.121094 258.757812 71.683594 C 258.757812 72.277344 259.226562 72.746094 259.820312 72.746094 C 260.382812 72.746094 260.851562 72.277344 260.851562 71.683594 Z M 260.851562 71.683594 "/>
<path style="fill:none;stroke-width:0.566929;stroke-linecap:butt;stroke-linejoin:miter;stroke:rgb(100%,0%,0%);stroke-opacity:0.5;stroke-miterlimit:10;" d="M -2.833984 135.955078 L 2.833984 130.285156 " transform="matrix(2,0,0,2,8,8)"/>
<path style="fill:none;stroke-width:0.566929;stroke-linecap:butt;stroke-linejoin:miter;stroke:rgb(100%,0%,0%);stroke-opacity:0.5;stroke-miterlimit:10;" d="M 2.833984 135.955078 L -2.833984 130.285156 " transform="matrix(2,0,0,2,8,8)"/>
<path style="fill-rule:nonzero;fill:rgb(50%,50%,0%);fill-opacity:0.1;stroke-width:0.566929;stroke-linecap:butt;stroke-linejoin:miter;stroke:rgb(100%,0%,0%);stroke-opacity:0.5;stroke-miterlimit:10;" d="M 0 164.388672 L 158.779297 164.388672 L 158.779297 86.21875 L 0 86.21875 Z M 0 164.388672 " transform="matrix(2,0,0,2,8,8)"/>
<path style="fill:none;stroke-width:0.566929;stroke-linecap:butt;stroke-linejoin:miter;stroke:rgb(100%,0%,0%);stroke-opacity:0.5;stroke-miterlimit:10;" d="M 48.195312 135.955078 L 53.863281 130.285156 " transform="matrix(2,0,0,2,8,8)"/>
<path style="fill:none;stroke-width:0.566929;stroke-linecap:butt;stroke-linejoin:miter;stroke:rgb(100%,0%,0%);stroke-opacity:0.5;stroke-miterlimit:10;" d="M 53.863281 135.955078 L 48.195312 130.285156 " transform="matrix(2,0,0,2,8,8)"/>
<path style="fill-rule:nonzero;fill:rgb(50%,50%,0%);fill-opacity:0.1;stroke-width:0.566929;stroke-linecap:butt;stroke-linejoin:miter;stroke:rgb(100%,0%,0%);stroke-opacity:0.5;stroke-miterlimit:10;" d="M 0 146.539062 L 70.335938 146.539062 L 70.335938 110.802734 L 0 110.802734 Z M 0 146.539062 " transform="matrix(2,0,0,2,8,8)"/>
<path style="fill:none;stroke-width:0.566929;stroke-linecap:butt;stroke-linejoin:miter;stroke:rgb(100%,0%,0%);stroke-opacity:0.5;stroke-miterlimit:10;" d="M 74.958984 135.955078 L 80.626953 130.285156 " transform="matrix(2,0,0,2,8,8)"/>
<path style="fill:none;stroke-width:0.566929;stroke-linecap:butt;stroke-linejoin:miter;stroke:rgb(100%,0%,0%);stroke-opacity:0.5;stroke-miterlimit:10;" d="M 80.626953 135.955078 L 74.958984 130.285156 " transform="matrix(2,0,0,2,8,8)"/>
<path style="fill-rule:nonzero;fill:rgb(50%,50%,0%);fill-opacity:0.1;stroke-width:0.566929;stroke-linecap:butt;stroke-linejoin:miter;stroke:rgb(100%,0%,0%);stroke-opacity:0.5;stroke-miterlimit:10;" d="M 70.335938 164.388672 L 132.681641 164.388672 L 132.681641 86.21875 L 70.335938 86.21875 Z M 70.335938 164.388672 " transform="matrix(2,0,0,2,8,8)"/>
<path style="fill:none;stroke-width:0.566929;stroke-linecap:butt;stroke-linejoin:miter;stroke:rgb(100%,0%,0%);stroke-opacity:0.5;stroke-miterlimit:10;" d="M 129.845703 135.955078 L 135.515625 130.285156 " transform="matrix(2,0,0,2,8,8)"/>
<path style="fill:none;stroke-width:0.566929;stroke-linecap:butt;stroke-linejoin:miter;stroke:rgb(100%,0%,0%);stroke-opacity:0.5;stroke-miterlimit:10;" d="M 135.515625 135.955078 L 129.845703 130.285156 " transform="matrix(2,0,0,2,8,8)"/>
<path style="fill-rule:nonzero;fill:rgb(50%,50%,0%);fill-opacity:0.1;stroke-width:0.566929;stroke-linecap:butt;stroke-linejoin:miter;stroke:rgb(100%,0%,0%);stroke-opacity:0.5;stroke-miterlimit:10;" d="M 132.681641 135.167969 L 158.779297 135.167969 L 158.779297 124.980469 L 132.681641 124.980469 Z M 132.681641 135.167969 " transform="matrix(2,0,0,2,8,8)"/>
<path style=" stroke:none;fill-rule:nonzero;fill:rgb(0%,0%,0%);fill-opacity:1;" d="M 285.925781 261.179688 C 285.925781 260.460938 285.957031 260.242188 287.488281 260.242188 L 287.988281 260.242188 L 287.988281 259.617188 C 287.269531 259.679688 285.800781 259.679688 285.050781 259.679688 C 284.300781 259.679688 282.800781 259.679688 282.113281 259.617188 L 282.113281 260.242188 L 282.582031 260.242188 C 284.113281 260.242188 284.144531 260.460938 284.144531 261.179688 L 284.144531 265.835938 L 278.207031 265.835938 L 278.207031 261.179688 C 278.207031 260.460938 278.238281 260.242188 279.769531 260.242188 L 280.238281 260.242188 L 280.238281 259.617188 C 279.550781 259.679688 278.082031 259.679688 277.300781 259.679688 C 276.550781 259.679688 275.050781 259.679688 274.363281 259.617188 L 274.363281 260.242188 L 274.832031 260.242188 C 276.363281 260.242188 276.425781 260.460938 276.425781 261.179688 L 276.425781 271.679688 C 276.425781 272.398438 276.363281 272.617188 274.832031 272.617188 L 274.363281 272.617188 L 274.363281 273.242188 C 275.050781 273.179688 276.550781 273.179688 277.300781 273.179688 C 278.050781 273.179688 279.550781 273.179688 280.238281 273.242188 L 280.238281 272.617188 L 279.769531 272.617188 C 278.238281 272.617188 278.207031 272.398438 278.207031 271.679688 L 278.207031 266.460938 L 284.144531 266.460938 L 284.144531 271.679688 C 284.144531 272.398438 284.113281 272.617188 282.582031 272.617188 L 282.113281 272.617188 L 282.113281 273.242188 C 282.800781 273.179688 284.269531 273.179688 285.019531 273.179688 C 285.800781 273.179688 287.269531 273.179688 287.988281 273.242188 L 287.988281 272.617188 L 287.488281 272.617188 C 285.957031 272.617188 285.925781 272.398438 285.925781 271.679688 Z M 285.925781 261.179688 "/>
<path style=" stroke:none;fill-rule:nonzero;fill:rgb(0%,0%,0%);fill-opacity:1;" d="M 292.179688 264.429688 L 289.398438 264.648438 L 289.398438 265.273438 C 290.679688 265.273438 290.867188 265.398438 290.867188 266.367188 L 290.867188 271.742188 C 290.867188 272.617188 290.648438 272.617188 289.304688 272.617188 L 289.304688 273.242188 C 289.929688 273.210938 291.023438 273.179688 291.492188 273.179688 C 292.210938 273.179688 292.898438 273.210938 293.585938 273.242188 L 293.585938 272.617188 C 292.242188 272.617188 292.179688 272.523438 292.179688 271.742188 Z M 292.242188 260.960938 C 292.242188 260.335938 291.773438 259.898438 291.210938 259.898438 C 290.585938 259.898438 290.148438 260.429688 290.148438 260.960938 C 290.148438 261.492188 290.585938 262.023438 291.210938 262.023438 C 291.773438 262.023438 292.242188 261.585938 292.242188 260.960938 Z M 292.242188 260.960938 "/>
<path style=" stroke:none;fill-rule:nonzero;fill:rgb(0%,0%,0%);fill-opacity:1;" d="M 298.621094 269.804688 C 296.871094 269.804688 296.871094 267.804688 296.871094 267.367188 C 296.871094 266.835938 296.902344 266.179688 297.183594 265.679688 C 297.339844 265.460938 297.808594 264.898438 298.621094 264.898438 C 300.339844 264.898438 300.339844 266.867188 300.339844 267.335938 C 300.339844 267.867188 300.339844 268.523438 300.027344 269.023438 C 299.871094 269.242188 299.402344 269.804688 298.621094 269.804688 Z M 296.308594 270.585938 C 296.308594 270.523438 296.308594 270.054688 296.621094 269.648438 C 297.402344 270.210938 298.246094 270.273438 298.621094 270.273438 C 300.464844 270.273438 301.839844 268.898438 301.839844 267.367188 C 301.839844 266.617188 301.527344 265.898438 301.027344 265.429688 C 301.746094 264.742188 302.464844 264.648438 302.808594 264.648438 C 302.871094 264.648438 302.964844 264.648438 303.027344 264.679688 C 302.808594 264.742188 302.683594 264.960938 302.683594 265.210938 C 302.683594 265.554688 302.964844 265.773438 303.277344 265.773438 C 303.464844 265.773438 303.839844 265.648438 303.839844 265.179688 C 303.839844 264.835938 303.621094 264.210938 302.839844 264.210938 C 302.433594 264.210938 301.558594 264.335938 300.714844 265.148438 C 299.871094 264.492188 299.058594 264.429688 298.621094 264.429688 C 296.746094 264.429688 295.371094 265.804688 295.371094 267.335938 C 295.371094 268.210938 295.808594 268.960938 296.308594 269.398438 C 296.058594 269.679688 295.683594 270.335938 295.683594 271.054688 C 295.683594 271.679688 295.964844 272.429688 296.589844 272.835938 C 295.371094 273.148438 294.746094 274.023438 294.746094 274.804688 C 294.746094 276.242188 296.714844 277.335938 299.152344 277.335938 C 301.496094 277.335938 303.558594 276.335938 303.558594 274.773438 C 303.558594 274.085938 303.308594 273.054688 302.277344 272.492188 C 301.214844 271.960938 300.058594 271.960938 298.839844 271.960938 C 298.339844 271.960938 297.496094 271.960938 297.339844 271.929688 C 296.714844 271.835938 296.308594 271.242188 296.308594 270.585938 Z M 299.183594 276.898438 C 297.152344 276.898438 295.777344 275.867188 295.777344 274.804688 C 295.777344 273.898438 296.527344 273.148438 297.402344 273.117188 L 298.589844 273.117188 C 300.308594 273.117188 302.527344 273.117188 302.527344 274.804688 C 302.527344 275.898438 301.121094 276.898438 299.183594 276.898438 Z M 299.183594 276.898438 "/>
<path style=" stroke:none;fill-rule:nonzero;fill:rgb(0%,0%,0%);fill-opacity:1;" d="M 310.023438 260.492188 C 310.023438 259.992188 310.023438 259.960938 309.554688 259.960938 C 308.304688 261.242188 306.554688 261.242188 305.929688 261.242188 L 305.929688 261.867188 C 306.335938 261.867188 307.492188 261.867188 308.523438 261.335938 L 308.523438 271.679688 C 308.523438 272.398438 308.460938 272.617188 306.679688 272.617188 L 306.054688 272.617188 L 306.054688 273.242188 C 306.742188 273.179688 308.460938 273.179688 309.273438 273.179688 C 310.054688 273.179688 311.804688 273.179688 312.492188 273.242188 L 312.492188 272.617188 L 311.867188 272.617188 C 310.054688 272.617188 310.023438 272.398438 310.023438 271.679688 Z M 310.023438 260.492188 "/>
<path style=" stroke:none;fill-rule:nonzero;fill:rgb(0%,0%,0%);fill-opacity:1;" d="M 323.808594 269.085938 L 324.558594 259.992188 C 324.558594 259.335938 324.027344 258.960938 323.527344 258.960938 C 322.996094 258.960938 322.464844 259.335938 322.464844 259.992188 L 323.246094 269.054688 C 323.246094 269.367188 323.277344 269.523438 323.527344 269.523438 C 323.714844 269.523438 323.777344 269.429688 323.808594 269.085938 Z M 324.558594 272.179688 C 324.558594 271.617188 324.089844 271.117188 323.527344 271.117188 C 322.933594 271.117188 322.464844 271.617188 322.464844 272.179688 C 322.464844 272.773438 322.933594 273.242188 323.527344 273.242188 C 324.089844 273.242188 324.558594 272.773438 324.558594 272.179688 Z M 324.558594 272.179688 "/>
</g>
</svg>
