<?xml version="1.0" encoding="UTF-8"?>
<svg xmlns="http://www.w3.org/2000/svg" xmlns:xlink="http://www.w3.org/1999/xlink" width="364.783145pt" height="308.227468pt" viewBox="0 0 364.783145 308.227468" version="1.1">
<g id="surface121">
<path style="fill:none;stroke-width:0.566929;stroke-linecap:butt;stroke-linejoin:miter;stroke:rgb(100%,0%,0%);stroke-opacity:0.5;stroke-miterlimit:10;" d="M -2.834646 2.834169 L 2.835276 -2.8338 " transform="matrix(2,0,0,2,6.169291,5.952756)"/>
<path style="fill:none;stroke-width:0.566929;stroke-linecap:butt;stroke-linejoin:miter;stroke:rgb(100%,0%,0%);stroke-opacity:0.5;stroke-miterlimit:10;" d="M 2.835276 2.834169 L -2.834646 -2.8338 " transform="matrix(2,0,0,2,6.169291,5.952756)"/>
<path style="fill-rule:nonzero;fill:rgb(50%,50%,0%);fill-opacity:0.1;stroke-width:0.566929;stroke-linecap:butt;stroke-linejoin:miter;stroke:rgb(100%,0%,0%);stroke-opacity:0.5;stroke-miterlimit:10;" d="M -0.000661294 150.886903 L 179.165354 150.886903 L 179.165354 0.000184547 L -0.000661294 0.000184547 Z M -0.000661294 150.886903 " transform="matrix(2,0,0,2,6.169291,5.952756)"/>
<path style="fill:none;stroke-width:0.566929;stroke-linecap:butt;stroke-linejoin:miter;stroke:rgb(100%,0%,0%);stroke-opacity:0.5;stroke-miterlimit:10;" d="M -2.834646 50.810731 L 2.835276 45.142763 " transform="matrix(2,0,0,2,6.169291,5.952756)"/>
<path style="fill:none;stroke-width:0.566929;stroke-linecap:butt;stroke-linejoin:miter;stroke:rgb(100%,0%,0%);stroke-opacity:0.5;stroke-miterlimit:10;" d="M 2.835276 50.810731 L -2.834646 45.142763 " transform="matrix(2,0,0,2,6.169291,5.952756)"/>
<path style="fill-rule:nonzero;fill:rgb(50%,50%,0%);fill-opacity:0.1;stroke-width:0.566929;stroke-linecap:butt;stroke-linejoin:miter;stroke:rgb(100%,0%,0%);stroke-opacity:0.5;stroke-miterlimit:10;" d="M -0.000661294 88.254091 L 179.165354 88.254091 L 179.165354 0.000184547 L -0.000661294 0.000184547 Z M -0.000661294 88.254091 " transform="matrix(2,0,0,2,6.169291,5.952756)"/>
<path style="fill:none;stroke-width:0.566929;stroke-linecap:butt;stroke-linejoin:miter;stroke:rgb(100%,0%,0%);stroke-opacity:0.5;stroke-miterlimit:10;" d="M 27.216136 50.810731 L 32.886057 45.142763 " transform="matrix(2,0,0,2,6.169291,5.952756)"/>
<path style="fill:none;stroke-width:0.566929;stroke-linecap:butt;stroke-linejoin:miter;stroke:rgb(100%,0%,0%);stroke-opacity:0.5;stroke-miterlimit:10;" d="M 32.886057 50.810731 L 27.216136 45.142763 " transform="matrix(2,0,0,2,6.169291,5.952756)"/>
<path style="fill-rule:nonzero;fill:rgb(50%,50%,0%);fill-opacity:0.1;stroke-width:0.566929;stroke-linecap:butt;stroke-linejoin:miter;stroke:rgb(100%,0%,0%);stroke-opacity:0.5;stroke-miterlimit:10;" d="M -0.000661294 85.289247 L 86.364573 85.289247 L 86.364573 14.090028 L -0.000661294 14.090028 Z M -0.000661294 85.289247 " transform="matrix(2,0,0,2,6.169291,5.952756)"/>
<path style="fill:none;stroke-width:0.566929;stroke-linecap:butt;stroke-linejoin:miter;stroke:rgb(100%,0%,0%);stroke-opacity:0.5;stroke-miterlimit:10;" d="M 118.946604 50.810731 L 124.616526 45.142763 " transform="matrix(2,0,0,2,6.169291,5.952756)"/>
<path style="fill:none;stroke-width:0.566929;stroke-linecap:butt;stroke-linejoin:miter;stroke:rgb(100%,0%,0%);stroke-opacity:0.5;stroke-miterlimit:10;" d="M 124.616526 50.810731 L 118.946604 45.142763 " transform="matrix(2,0,0,2,6.169291,5.952756)"/>
<path style="fill-rule:nonzero;fill:rgb(50%,50%,0%);fill-opacity:0.1;stroke-width:0.566929;stroke-linecap:butt;stroke-linejoin:miter;stroke:rgb(100%,0%,0%);stroke-opacity:0.5;stroke-miterlimit:10;" d="M 86.364573 88.254091 L 153.067698 88.254091 L 153.067698 0.000184547 L 86.364573 0.000184547 Z M 86.364573 88.254091 " transform="matrix(2,0,0,2,6.169291,5.952756)"/>
<path style="fill:none;stroke-width:0.566929;stroke-linecap:butt;stroke-linejoin:miter;stroke:rgb(100%,0%,0%);stroke-opacity:0.5;stroke-miterlimit:10;" d="M 150.231761 50.810731 L 155.901682 45.142763 " transform="matrix(2,0,0,2,6.169291,5.952756)"/>
<path style="fill:none;stroke-width:0.566929;stroke-linecap:butt;stroke-linejoin:miter;stroke:rgb(100%,0%,0%);stroke-opacity:0.5;stroke-miterlimit:10;" d="M 155.901682 50.810731 L 150.231761 45.142763 " transform="matrix(2,0,0,2,6.169291,5.952756)"/>
<path style="fill-rule:nonzero;fill:rgb(50%,50%,0%);fill-opacity:0.1;stroke-width:0.566929;stroke-linecap:butt;stroke-linejoin:miter;stroke:rgb(100%,0%,0%);stroke-opacity:0.5;stroke-miterlimit:10;" d="M 153.067698 50.023622 L 179.165354 50.023622 L 179.165354 39.836122 L 153.067698 39.836122 Z M 153.067698 50.023622 " transform="matrix(2,0,0,2,6.169291,5.952756)"/>
<path style=" stroke:none;fill-rule:nonzero;fill:rgb(0%,0%,0%);fill-opacity:1;" d="M 324.867188 88.84375 C 324.867188 88.125 324.898438 87.90625 326.429688 87.90625 L 326.929688 87.90625 L 326.929688 87.28125 C 326.210938 87.34375 324.742188 87.34375 323.992188 87.34375 C 323.242188 87.34375 321.742188 87.34375 321.054688 87.28125 L 321.054688 87.90625 L 321.523438 87.90625 C 323.054688 87.90625 323.085938 88.125 323.085938 88.84375 L 323.085938 93.5 L 317.148438 93.5 L 317.148438 88.84375 C 317.148438 88.125 317.179688 87.90625 318.710938 87.90625 L 319.179688 87.90625 L 319.179688 87.28125 C 318.492188 87.34375 317.023438 87.34375 316.242188 87.34375 C 315.492188 87.34375 313.992188 87.34375 313.304688 87.28125 L 313.304688 87.90625 L 313.773438 87.90625 C 315.304688 87.90625 315.367188 88.125 315.367188 88.84375 L 315.367188 99.34375 C 315.367188 100.0625 315.304688 100.28125 313.773438 100.28125 L 313.304688 100.28125 L 313.304688 100.90625 C 313.992188 100.84375 315.492188 100.84375 316.242188 100.84375 C 316.992188 100.84375 318.492188 100.84375 319.179688 100.90625 L 319.179688 100.28125 L 318.710938 100.28125 C 317.179688 100.28125 317.148438 100.0625 317.148438 99.34375 L 317.148438 94.125 L 323.085938 94.125 L 323.085938 99.34375 C 323.085938 100.0625 323.054688 100.28125 321.523438 100.28125 L 321.054688 100.28125 L 321.054688 100.90625 C 321.742188 100.84375 323.210938 100.84375 323.960938 100.84375 C 324.742188 100.84375 326.210938 100.84375 326.929688 100.90625 L 326.929688 100.28125 L 326.429688 100.28125 C 324.898438 100.28125 324.867188 100.0625 324.867188 99.34375 Z M 324.867188 88.84375 "/>
<path style=" stroke:none;fill-rule:nonzero;fill:rgb(0%,0%,0%);fill-opacity:1;" d="M 331.121094 92.09375 L 328.339844 92.3125 L 328.339844 92.9375 C 329.621094 92.9375 329.808594 93.0625 329.808594 94.03125 L 329.808594 99.40625 C 329.808594 100.28125 329.589844 100.28125 328.246094 100.28125 L 328.246094 100.90625 C 328.871094 100.875 329.964844 100.84375 330.433594 100.84375 C 331.152344 100.84375 331.839844 100.875 332.527344 100.90625 L 332.527344 100.28125 C 331.183594 100.28125 331.121094 100.1875 331.121094 99.40625 Z M 331.183594 88.625 C 331.183594 88 330.714844 87.5625 330.152344 87.5625 C 329.527344 87.5625 329.089844 88.09375 329.089844 88.625 C 329.089844 89.15625 329.527344 89.6875 330.152344 89.6875 C 330.714844 89.6875 331.183594 89.25 331.183594 88.625 Z M 331.183594 88.625 "/>
<path style=" stroke:none;fill-rule:nonzero;fill:rgb(0%,0%,0%);fill-opacity:1;" d="M 337.5625 97.46875 C 335.8125 97.46875 335.8125 95.46875 335.8125 95.03125 C 335.8125 94.5 335.84375 93.84375 336.125 93.34375 C 336.28125 93.125 336.75 92.5625 337.5625 92.5625 C 339.28125 92.5625 339.28125 94.53125 339.28125 95 C 339.28125 95.53125 339.28125 96.1875 338.96875 96.6875 C 338.8125 96.90625 338.34375 97.46875 337.5625 97.46875 Z M 335.25 98.25 C 335.25 98.1875 335.25 97.71875 335.5625 97.3125 C 336.34375 97.875 337.1875 97.9375 337.5625 97.9375 C 339.40625 97.9375 340.78125 96.5625 340.78125 95.03125 C 340.78125 94.28125 340.46875 93.5625 339.96875 93.09375 C 340.6875 92.40625 341.40625 92.3125 341.75 92.3125 C 341.8125 92.3125 341.90625 92.3125 341.96875 92.34375 C 341.75 92.40625 341.625 92.625 341.625 92.875 C 341.625 93.21875 341.90625 93.4375 342.21875 93.4375 C 342.40625 93.4375 342.78125 93.3125 342.78125 92.84375 C 342.78125 92.5 342.5625 91.875 341.78125 91.875 C 341.375 91.875 340.5 92 339.65625 92.8125 C 338.8125 92.15625 338 92.09375 337.5625 92.09375 C 335.6875 92.09375 334.3125 93.46875 334.3125 95 C 334.3125 95.875 334.75 96.625 335.25 97.0625 C 335 97.34375 334.625 98 334.625 98.71875 C 334.625 99.34375 334.90625 100.09375 335.53125 100.5 C 334.3125 100.8125 333.6875 101.6875 333.6875 102.46875 C 333.6875 103.90625 335.65625 105 338.09375 105 C 340.4375 105 342.5 104 342.5 102.4375 C 342.5 101.75 342.25 100.71875 341.21875 100.15625 C 340.15625 99.625 339 99.625 337.78125 99.625 C 337.28125 99.625 336.4375 99.625 336.28125 99.59375 C 335.65625 99.5 335.25 98.90625 335.25 98.25 Z M 338.125 104.5625 C 336.09375 104.5625 334.71875 103.53125 334.71875 102.46875 C 334.71875 101.5625 335.46875 100.8125 336.34375 100.78125 L 337.53125 100.78125 C 339.25 100.78125 341.46875 100.78125 341.46875 102.46875 C 341.46875 103.5625 340.0625 104.5625 338.125 104.5625 Z M 338.125 104.5625 "/>
<path style=" stroke:none;fill-rule:nonzero;fill:rgb(0%,0%,0%);fill-opacity:1;" d="M 352.246094 94.53125 C 352.246094 92.9375 352.152344 91.34375 351.464844 89.875 C 350.558594 87.9375 348.902344 87.625 348.089844 87.625 C 346.871094 87.625 345.433594 88.15625 344.589844 90 C 343.964844 91.375 343.871094 92.9375 343.871094 94.53125 C 343.871094 96.03125 343.933594 97.8125 344.777344 99.34375 C 345.621094 100.9375 347.089844 101.34375 348.058594 101.34375 C 349.121094 101.34375 350.652344 100.9375 351.527344 99.03125 C 352.152344 97.65625 352.246094 96.09375 352.246094 94.53125 Z M 348.058594 100.90625 C 347.277344 100.90625 346.089844 100.40625 345.746094 98.5 C 345.527344 97.3125 345.527344 95.46875 345.527344 94.28125 C 345.527344 93 345.527344 91.6875 345.683594 90.625 C 346.058594 88.25 347.558594 88.0625 348.058594 88.0625 C 348.714844 88.0625 350.027344 88.4375 350.402344 90.40625 C 350.621094 91.53125 350.621094 93.03125 350.621094 94.28125 C 350.621094 95.78125 350.621094 97.125 350.402344 98.40625 C 350.089844 100.3125 348.964844 100.90625 348.058594 100.90625 Z M 348.058594 100.90625 "/>
<path style=" stroke:none;fill-rule:nonzero;fill:rgb(0%,0%,0%);fill-opacity:1;" d="M 362.75 96.75 L 363.5 87.65625 C 363.5 87 362.96875 86.625 362.46875 86.625 C 361.9375 86.625 361.40625 87 361.40625 87.65625 L 362.1875 96.71875 C 362.1875 97.03125 362.21875 97.1875 362.46875 97.1875 C 362.65625 97.1875 362.71875 97.09375 362.75 96.75 Z M 363.5 99.84375 C 363.5 99.28125 363.03125 98.78125 362.46875 98.78125 C 361.875 98.78125 361.40625 99.28125 361.40625 99.84375 C 361.40625 100.4375 361.875 100.90625 362.46875 100.90625 C 363.03125 100.90625 363.5 100.4375 363.5 99.84375 Z M 363.5 99.84375 "/>
<path style="fill:none;stroke-width:0.566929;stroke-linecap:butt;stroke-linejoin:miter;stroke:rgb(100%,0%,0%);stroke-opacity:0.5;stroke-miterlimit:10;" d="M -2.834646 124.425966 L 2.835276 118.756044 " transform="matrix(2,0,0,2,6.169291,5.952756)"/>
<path style="fill:none;stroke-width:0.566929;stroke-linecap:butt;stroke-linejoin:miter;stroke:rgb(100%,0%,0%);stroke-opacity:0.5;stroke-miterlimit:10;" d="M 2.835276 124.425966 L -2.834646 118.756044 " transform="matrix(2,0,0,2,6.169291,5.952756)"/>
<path style="fill-rule:nonzero;fill:rgb(50%,50%,0%);fill-opacity:0.1;stroke-width:0.566929;stroke-linecap:butt;stroke-linejoin:miter;stroke:rgb(100%,0%,0%);stroke-opacity:0.5;stroke-miterlimit:10;" d="M -0.000661294 150.886903 L 155.989573 150.886903 L 155.989573 88.254091 L -0.000661294 88.254091 Z M -0.000661294 150.886903 " transform="matrix(2,0,0,2,6.169291,5.952756)"/>
<path style="fill:none;stroke-width:0.566929;stroke-linecap:butt;stroke-linejoin:miter;stroke:rgb(100%,0%,0%);stroke-opacity:0.5;stroke-miterlimit:10;" d="M 18.204417 124.425966 L 23.872386 118.756044 " transform="matrix(2,0,0,2,6.169291,5.952756)"/>
<path style="fill:none;stroke-width:0.566929;stroke-linecap:butt;stroke-linejoin:miter;stroke:rgb(100%,0%,0%);stroke-opacity:0.5;stroke-miterlimit:10;" d="M 23.872386 124.425966 L 18.204417 118.756044 " transform="matrix(2,0,0,2,6.169291,5.952756)"/>
<path style="fill-rule:nonzero;fill:rgb(50%,50%,0%);fill-opacity:0.1;stroke-width:0.566929;stroke-linecap:butt;stroke-linejoin:miter;stroke:rgb(100%,0%,0%);stroke-opacity:0.5;stroke-miterlimit:10;" d="M -0.000661294 132.011903 L 65.48762 132.011903 L 65.48762 88.254091 L -0.000661294 88.254091 Z M -0.000661294 132.011903 " transform="matrix(2,0,0,2,6.169291,5.952756)"/>
<path style="fill:none;stroke-width:0.566929;stroke-linecap:butt;stroke-linejoin:miter;stroke:rgb(100%,0%,0%);stroke-opacity:0.5;stroke-miterlimit:10;" d="M 106.755198 124.425966 L 112.42512 118.756044 " transform="matrix(2,0,0,2,6.169291,5.952756)"/>
<path style="fill:none;stroke-width:0.566929;stroke-linecap:butt;stroke-linejoin:miter;stroke:rgb(100%,0%,0%);stroke-opacity:0.5;stroke-miterlimit:10;" d="M 112.42512 124.425966 L 106.755198 118.756044 " transform="matrix(2,0,0,2,6.169291,5.952756)"/>
<path style="fill-rule:nonzero;fill:rgb(50%,50%,0%);fill-opacity:0.1;stroke-width:0.566929;stroke-linecap:butt;stroke-linejoin:miter;stroke:rgb(100%,0%,0%);stroke-opacity:0.5;stroke-miterlimit:10;" d="M 65.48762 150.886903 L 129.891917 150.886903 L 129.891917 108.017763 L 65.48762 108.017763 Z M 65.48762 150.886903 " transform="matrix(2,0,0,2,6.169291,5.952756)"/>
<path style="fill:none;stroke-width:0.566929;stroke-linecap:butt;stroke-linejoin:miter;stroke:rgb(100%,0%,0%);stroke-opacity:0.5;stroke-miterlimit:10;" d="M 127.057932 124.425966 L 132.727854 118.756044 " transform="matrix(2,0,0,2,6.169291,5.952756)"/>
<path style="fill:none;stroke-width:0.566929;stroke-linecap:butt;stroke-linejoin:miter;stroke:rgb(100%,0%,0%);stroke-opacity:0.5;stroke-miterlimit:10;" d="M 132.727854 124.425966 L 127.057932 118.756044 " transform="matrix(2,0,0,2,6.169291,5.952756)"/>
<path style="fill-rule:nonzero;fill:rgb(50%,50%,0%);fill-opacity:0.1;stroke-width:0.566929;stroke-linecap:butt;stroke-linejoin:miter;stroke:rgb(100%,0%,0%);stroke-opacity:0.5;stroke-miterlimit:10;" d="M 129.891917 123.638856 L 155.989573 123.638856 L 155.989573 113.451356 L 129.891917 113.451356 Z M 129.891917 123.638856 " transform="matrix(2,0,0,2,6.169291,5.952756)"/>
<path style=" stroke:none;fill-rule:nonzero;fill:rgb(0%,0%,0%);fill-opacity:1;" d="M 278.515625 236.074219 C 278.515625 235.355469 278.546875 235.136719 280.078125 235.136719 L 280.578125 235.136719 L 280.578125 234.511719 C 279.859375 234.574219 278.390625 234.574219 277.640625 234.574219 C 276.890625 234.574219 275.390625 234.574219 274.703125 234.511719 L 274.703125 235.136719 L 275.171875 235.136719 C 276.703125 235.136719 276.734375 235.355469 276.734375 236.074219 L 276.734375 240.730469 L 270.796875 240.730469 L 270.796875 236.074219 C 270.796875 235.355469 270.828125 235.136719 272.359375 235.136719 L 272.828125 235.136719 L 272.828125 234.511719 C 272.140625 234.574219 270.671875 234.574219 269.890625 234.574219 C 269.140625 234.574219 267.640625 234.574219 266.953125 234.511719 L 266.953125 235.136719 L 267.421875 235.136719 C 268.953125 235.136719 269.015625 235.355469 269.015625 236.074219 L 269.015625 246.574219 C 269.015625 247.292969 268.953125 247.511719 267.421875 247.511719 L 266.953125 247.511719 L 266.953125 248.136719 C 267.640625 248.074219 269.140625 248.074219 269.890625 248.074219 C 270.640625 248.074219 272.140625 248.074219 272.828125 248.136719 L 272.828125 247.511719 L 272.359375 247.511719 C 270.828125 247.511719 270.796875 247.292969 270.796875 246.574219 L 270.796875 241.355469 L 276.734375 241.355469 L 276.734375 246.574219 C 276.734375 247.292969 276.703125 247.511719 275.171875 247.511719 L 274.703125 247.511719 L 274.703125 248.136719 C 275.390625 248.074219 276.859375 248.074219 277.609375 248.074219 C 278.390625 248.074219 279.859375 248.074219 280.578125 248.136719 L 280.578125 247.511719 L 280.078125 247.511719 C 278.546875 247.511719 278.515625 247.292969 278.515625 246.574219 Z M 278.515625 236.074219 "/>
<path style=" stroke:none;fill-rule:nonzero;fill:rgb(0%,0%,0%);fill-opacity:1;" d="M 284.773438 239.324219 L 281.992188 239.542969 L 281.992188 240.167969 C 283.273438 240.167969 283.460938 240.292969 283.460938 241.261719 L 283.460938 246.636719 C 283.460938 247.511719 283.242188 247.511719 281.898438 247.511719 L 281.898438 248.136719 C 282.523438 248.105469 283.617188 248.074219 284.085938 248.074219 C 284.804688 248.074219 285.492188 248.105469 286.179688 248.136719 L 286.179688 247.511719 C 284.835938 247.511719 284.773438 247.417969 284.773438 246.636719 Z M 284.835938 235.855469 C 284.835938 235.230469 284.367188 234.792969 283.804688 234.792969 C 283.179688 234.792969 282.742188 235.324219 282.742188 235.855469 C 282.742188 236.386719 283.179688 236.917969 283.804688 236.917969 C 284.367188 236.917969 284.835938 236.480469 284.835938 235.855469 Z M 284.835938 235.855469 "/>
<path style=" stroke:none;fill-rule:nonzero;fill:rgb(0%,0%,0%);fill-opacity:1;" d="M 291.214844 244.699219 C 289.464844 244.699219 289.464844 242.699219 289.464844 242.261719 C 289.464844 241.730469 289.496094 241.074219 289.777344 240.574219 C 289.933594 240.355469 290.402344 239.792969 291.214844 239.792969 C 292.933594 239.792969 292.933594 241.761719 292.933594 242.230469 C 292.933594 242.761719 292.933594 243.417969 292.621094 243.917969 C 292.464844 244.136719 291.996094 244.699219 291.214844 244.699219 Z M 288.902344 245.480469 C 288.902344 245.417969 288.902344 244.949219 289.214844 244.542969 C 289.996094 245.105469 290.839844 245.167969 291.214844 245.167969 C 293.058594 245.167969 294.433594 243.792969 294.433594 242.261719 C 294.433594 241.511719 294.121094 240.792969 293.621094 240.324219 C 294.339844 239.636719 295.058594 239.542969 295.402344 239.542969 C 295.464844 239.542969 295.558594 239.542969 295.621094 239.574219 C 295.402344 239.636719 295.277344 239.855469 295.277344 240.105469 C 295.277344 240.449219 295.558594 240.667969 295.871094 240.667969 C 296.058594 240.667969 296.433594 240.542969 296.433594 240.074219 C 296.433594 239.730469 296.214844 239.105469 295.433594 239.105469 C 295.027344 239.105469 294.152344 239.230469 293.308594 240.042969 C 292.464844 239.386719 291.652344 239.324219 291.214844 239.324219 C 289.339844 239.324219 287.964844 240.699219 287.964844 242.230469 C 287.964844 243.105469 288.402344 243.855469 288.902344 244.292969 C 288.652344 244.574219 288.277344 245.230469 288.277344 245.949219 C 288.277344 246.574219 288.558594 247.324219 289.183594 247.730469 C 287.964844 248.042969 287.339844 248.917969 287.339844 249.699219 C 287.339844 251.136719 289.308594 252.230469 291.746094 252.230469 C 294.089844 252.230469 296.152344 251.230469 296.152344 249.667969 C 296.152344 248.980469 295.902344 247.949219 294.871094 247.386719 C 293.808594 246.855469 292.652344 246.855469 291.433594 246.855469 C 290.933594 246.855469 290.089844 246.855469 289.933594 246.824219 C 289.308594 246.730469 288.902344 246.136719 288.902344 245.480469 Z M 291.777344 251.792969 C 289.746094 251.792969 288.371094 250.761719 288.371094 249.699219 C 288.371094 248.792969 289.121094 248.042969 289.996094 248.011719 L 291.183594 248.011719 C 292.902344 248.011719 295.121094 248.011719 295.121094 249.699219 C 295.121094 250.792969 293.714844 251.792969 291.777344 251.792969 Z M 291.777344 251.792969 "/>
<path style=" stroke:none;fill-rule:nonzero;fill:rgb(0%,0%,0%);fill-opacity:1;" d="M 302.613281 235.386719 C 302.613281 234.886719 302.613281 234.855469 302.144531 234.855469 C 300.894531 236.136719 299.144531 236.136719 298.519531 236.136719 L 298.519531 236.761719 C 298.925781 236.761719 300.082031 236.761719 301.113281 236.230469 L 301.113281 246.574219 C 301.113281 247.292969 301.050781 247.511719 299.269531 247.511719 L 298.644531 247.511719 L 298.644531 248.136719 C 299.332031 248.074219 301.050781 248.074219 301.863281 248.074219 C 302.644531 248.074219 304.394531 248.074219 305.082031 248.136719 L 305.082031 247.511719 L 304.457031 247.511719 C 302.644531 247.511719 302.613281 247.292969 302.613281 246.574219 Z M 302.613281 235.386719 "/>
<path style=" stroke:none;fill-rule:nonzero;fill:rgb(0%,0%,0%);fill-opacity:1;" d="M 316.398438 243.980469 L 317.148438 234.886719 C 317.148438 234.230469 316.617188 233.855469 316.117188 233.855469 C 315.585938 233.855469 315.054688 234.230469 315.054688 234.886719 L 315.835938 243.949219 C 315.835938 244.261719 315.867188 244.417969 316.117188 244.417969 C 316.304688 244.417969 316.367188 244.324219 316.398438 243.980469 Z M 317.148438 247.074219 C 317.148438 246.511719 316.679688 246.011719 316.117188 246.011719 C 315.523438 246.011719 315.054688 246.511719 315.054688 247.074219 C 315.054688 247.667969 315.523438 248.136719 316.117188 248.136719 C 316.679688 248.136719 317.148438 247.667969 317.148438 247.074219 Z M 317.148438 247.074219 "/>
</g>
</svg>
