<?xml version="1.0" encoding="UTF-8"?>
<svg xmlns="http://www.w3.org/2000/svg" xmlns:xlink="http://www.w3.org/1999/xlink" width="221.287591pt" height="176.748031pt" viewBox="0 0 221.287591 176.748031" version="1.1">
<g id="surface113">
<path style="fill:none;stroke-width:0.566929;stroke-linecap:butt;stroke-linejoin:miter;stroke:rgb(100%,0%,0%);stroke-opacity:0.5;stroke-miterlimit:10;" d="M -2.8338 2.835276 L 2.834169 -2.834646 " transform="matrix(2,0,0,2,5.952756,6.169291)"/>
<path style="fill:none;stroke-width:0.566929;stroke-linecap:butt;stroke-linejoin:miter;stroke:rgb(100%,0%,0%);stroke-opacity:0.5;stroke-miterlimit:10;" d="M 2.834169 2.835276 L -2.8338 -2.834646 " transform="matrix(2,0,0,2,5.952756,6.169291)"/>
<path style="fill-rule:nonzero;fill:rgb(50%,50%,0%);fill-opacity:0.1;stroke-width:0.566929;stroke-linecap:butt;stroke-linejoin:miter;stroke:rgb(100%,0%,0%);stroke-opacity:0.5;stroke-miterlimit:10;" d="M 0.000184547 85.038401 L 104.582216 85.038401 L 104.582216 -0.000661294 L 0.000184547 -0.000661294 Z M 0.000184547 85.038401 " transform="matrix(2,0,0,2,5.952756,6.169291)"/>
<path style="fill:none;stroke-width:0.566929;stroke-linecap:butt;stroke-linejoin:miter;stroke:rgb(100%,0%,0%);stroke-opacity:0.5;stroke-miterlimit:10;" d="M 6.857606 2.835276 L 12.525575 -2.834646 " transform="matrix(2,0,0,2,5.952756,6.169291)"/>
<path style="fill:none;stroke-width:0.566929;stroke-linecap:butt;stroke-linejoin:miter;stroke:rgb(100%,0%,0%);stroke-opacity:0.5;stroke-miterlimit:10;" d="M 12.525575 2.835276 L 6.857606 -2.834646 " transform="matrix(2,0,0,2,5.952756,6.169291)"/>
<path style="fill-rule:nonzero;fill:rgb(50%,50%,0%);fill-opacity:0.1;stroke-width:0.566929;stroke-linecap:butt;stroke-linejoin:miter;stroke:rgb(100%,0%,0%);stroke-opacity:0.5;stroke-miterlimit:10;" d="M 4.084169 13.231761 L 15.299013 13.231761 L 15.299013 -0.000661294 L 4.084169 -0.000661294 Z M 4.084169 13.231761 " transform="matrix(2,0,0,2,5.952756,6.169291)"/>
<path style="fill:none;stroke-width:0.566929;stroke-linecap:butt;stroke-linejoin:miter;stroke:rgb(100%,0%,0%);stroke-opacity:0.5;stroke-miterlimit:10;" d="M 4.084169 11.184886 L 9.752138 5.514964 " transform="matrix(2,0,0,2,5.952756,6.169291)"/>
<path style="fill:none;stroke-width:0.566929;stroke-linecap:butt;stroke-linejoin:miter;stroke:rgb(100%,0%,0%);stroke-opacity:0.5;stroke-miterlimit:10;" d="M 9.752138 11.184886 L 4.084169 5.514964 " transform="matrix(2,0,0,2,5.952756,6.169291)"/>
<path style="fill-rule:nonzero;fill:rgb(50%,50%,0%);fill-opacity:0.1;stroke-width:0.566929;stroke-linecap:butt;stroke-linejoin:miter;stroke:rgb(100%,0%,0%);stroke-opacity:0.5;stroke-miterlimit:10;" d="M 4.084169 13.231761 L 15.299013 13.231761 L 15.299013 -0.000661294 L 4.084169 -0.000661294 Z M 4.084169 13.231761 " transform="matrix(2,0,0,2,5.952756,6.169291)"/>
<path style="fill:none;stroke-width:0.566929;stroke-linecap:butt;stroke-linejoin:miter;stroke:rgb(100%,0%,0%);stroke-opacity:0.5;stroke-miterlimit:10;" d="M 4.084169 11.184886 L 9.752138 5.514964 " transform="matrix(2,0,0,2,5.952756,6.169291)"/>
<path style="fill:none;stroke-width:0.566929;stroke-linecap:butt;stroke-linejoin:miter;stroke:rgb(100%,0%,0%);stroke-opacity:0.5;stroke-miterlimit:10;" d="M 9.752138 11.184886 L 4.084169 5.514964 " transform="matrix(2,0,0,2,5.952756,6.169291)"/>
<path style="fill-rule:nonzero;fill:rgb(50%,50%,0%);fill-opacity:0.1;stroke-width:0.566929;stroke-linecap:butt;stroke-linejoin:miter;stroke:rgb(100%,0%,0%);stroke-opacity:0.5;stroke-miterlimit:10;" d="M 6.918153 10.397776 L 12.465028 10.397776 L 12.465028 2.835276 L 6.918153 2.835276 Z M 6.918153 10.397776 " transform="matrix(2,0,0,2,5.952756,6.169291)"/>
<path style=" stroke:none;fill-rule:nonzero;fill:rgb(0%,0%,0%);fill-opacity:1;" d="M 24.664062 18.433594 C 22.914062 18.433594 22.914062 16.433594 22.914062 15.996094 C 22.914062 15.464844 22.945312 14.808594 23.226562 14.308594 C 23.382812 14.089844 23.851562 13.527344 24.664062 13.527344 C 26.382812 13.527344 26.382812 15.496094 26.382812 15.964844 C 26.382812 16.496094 26.382812 17.152344 26.070312 17.652344 C 25.914062 17.871094 25.445312 18.433594 24.664062 18.433594 Z M 22.351562 19.214844 C 22.351562 19.152344 22.351562 18.683594 22.664062 18.277344 C 23.445312 18.839844 24.289062 18.902344 24.664062 18.902344 C 26.507812 18.902344 27.882812 17.527344 27.882812 15.996094 C 27.882812 15.246094 27.570312 14.527344 27.070312 14.058594 C 27.789062 13.371094 28.507812 13.277344 28.851562 13.277344 C 28.914062 13.277344 29.007812 13.277344 29.070312 13.308594 C 28.851562 13.371094 28.726562 13.589844 28.726562 13.839844 C 28.726562 14.183594 29.007812 14.402344 29.320312 14.402344 C 29.507812 14.402344 29.882812 14.277344 29.882812 13.808594 C 29.882812 13.464844 29.664062 12.839844 28.882812 12.839844 C 28.476562 12.839844 27.601562 12.964844 26.757812 13.777344 C 25.914062 13.121094 25.101562 13.058594 24.664062 13.058594 C 22.789062 13.058594 21.414062 14.433594 21.414062 15.964844 C 21.414062 16.839844 21.851562 17.589844 22.351562 18.027344 C 22.101562 18.308594 21.726562 18.964844 21.726562 19.683594 C 21.726562 20.308594 22.007812 21.058594 22.632812 21.464844 C 21.414062 21.777344 20.789062 22.652344 20.789062 23.433594 C 20.789062 24.871094 22.757812 25.964844 25.195312 25.964844 C 27.539062 25.964844 29.601562 24.964844 29.601562 23.402344 C 29.601562 22.714844 29.351562 21.683594 28.320312 21.121094 C 27.257812 20.589844 26.101562 20.589844 24.882812 20.589844 C 24.382812 20.589844 23.539062 20.589844 23.382812 20.558594 C 22.757812 20.464844 22.351562 19.871094 22.351562 19.214844 Z M 25.226562 25.527344 C 23.195312 25.527344 21.820312 24.496094 21.820312 23.433594 C 21.820312 22.527344 22.570312 21.777344 23.445312 21.746094 L 24.632812 21.746094 C 26.351562 21.746094 28.570312 21.746094 28.570312 23.433594 C 28.570312 24.527344 27.164062 25.527344 25.226562 25.527344 Z M 25.226562 25.527344 "/>
<path style="fill:none;stroke-width:0.566929;stroke-linecap:butt;stroke-linejoin:miter;stroke:rgb(100%,0%,0%);stroke-opacity:0.5;stroke-miterlimit:10;" d="M 36.174013 2.835276 L 41.843935 -2.834646 " transform="matrix(2,0,0,2,5.952756,6.169291)"/>
<path style="fill:none;stroke-width:0.566929;stroke-linecap:butt;stroke-linejoin:miter;stroke:rgb(100%,0%,0%);stroke-opacity:0.5;stroke-miterlimit:10;" d="M 41.843935 2.835276 L 36.174013 -2.834646 " transform="matrix(2,0,0,2,5.952756,6.169291)"/>
<path style="fill-rule:nonzero;fill:rgb(50%,50%,0%);fill-opacity:0.1;stroke-width:0.566929;stroke-linecap:butt;stroke-linejoin:miter;stroke:rgb(100%,0%,0%);stroke-opacity:0.5;stroke-miterlimit:10;" d="M 31.562685 11.247386 L 46.455263 11.247386 L 46.455263 -0.000661294 L 31.562685 -0.000661294 Z M 31.562685 11.247386 " transform="matrix(2,0,0,2,5.952756,6.169291)"/>
<path style="fill:none;stroke-width:0.566929;stroke-linecap:butt;stroke-linejoin:miter;stroke:rgb(100%,0%,0%);stroke-opacity:0.5;stroke-miterlimit:10;" d="M 31.562685 11.138011 L 37.232606 5.468089 " transform="matrix(2,0,0,2,5.952756,6.169291)"/>
<path style="fill:none;stroke-width:0.566929;stroke-linecap:butt;stroke-linejoin:miter;stroke:rgb(100%,0%,0%);stroke-opacity:0.5;stroke-miterlimit:10;" d="M 37.232606 11.138011 L 31.562685 5.468089 " transform="matrix(2,0,0,2,5.952756,6.169291)"/>
<path style="fill-rule:nonzero;fill:rgb(50%,50%,0%);fill-opacity:0.1;stroke-width:0.566929;stroke-linecap:butt;stroke-linejoin:miter;stroke:rgb(100%,0%,0%);stroke-opacity:0.5;stroke-miterlimit:10;" d="M 31.562685 11.247386 L 46.455263 11.247386 L 46.455263 -0.000661294 L 31.562685 -0.000661294 Z M 31.562685 11.247386 " transform="matrix(2,0,0,2,5.952756,6.169291)"/>
<path style="fill:none;stroke-width:0.566929;stroke-linecap:butt;stroke-linejoin:miter;stroke:rgb(100%,0%,0%);stroke-opacity:0.5;stroke-miterlimit:10;" d="M 31.562685 11.138011 L 37.232606 5.468089 " transform="matrix(2,0,0,2,5.952756,6.169291)"/>
<path style="fill:none;stroke-width:0.566929;stroke-linecap:butt;stroke-linejoin:miter;stroke:rgb(100%,0%,0%);stroke-opacity:0.5;stroke-miterlimit:10;" d="M 37.232606 11.138011 L 31.562685 5.468089 " transform="matrix(2,0,0,2,5.952756,6.169291)"/>
<path style="fill-rule:nonzero;fill:rgb(50%,50%,0%);fill-opacity:0.1;stroke-width:0.566929;stroke-linecap:butt;stroke-linejoin:miter;stroke:rgb(100%,0%,0%);stroke-opacity:0.5;stroke-miterlimit:10;" d="M 34.396669 8.413401 L 43.621278 8.413401 L 43.621278 2.835276 L 34.396669 2.835276 Z M 34.396669 8.413401 " transform="matrix(2,0,0,2,5.952756,6.169291)"/>
<path style=" stroke:none;fill-rule:nonzero;fill:rgb(0%,0%,0%);fill-opacity:1;" d="M 77.402344 17.433594 C 77.402344 14.183594 79.027344 13.339844 80.089844 13.339844 C 80.277344 13.339844 81.527344 13.371094 82.214844 14.089844 C 81.402344 14.152344 81.277344 14.746094 81.277344 14.996094 C 81.277344 15.527344 81.652344 15.902344 82.183594 15.902344 C 82.714844 15.902344 83.121094 15.589844 83.121094 14.964844 C 83.121094 13.621094 81.589844 12.839844 80.058594 12.839844 C 77.558594 12.839844 75.746094 14.996094 75.746094 17.464844 C 75.746094 20.027344 77.714844 21.996094 80.027344 21.996094 C 82.683594 21.996094 83.339844 19.589844 83.339844 19.402344 C 83.339844 19.214844 83.121094 19.214844 83.058594 19.214844 C 82.902344 19.214844 82.839844 19.277344 82.808594 19.402344 C 82.246094 21.246094 80.933594 21.496094 80.214844 21.496094 C 79.152344 21.496094 77.402344 20.652344 77.402344 17.433594 Z M 77.402344 17.433594 "/>
<path style=" stroke:none;fill-rule:nonzero;fill:rgb(0%,0%,0%);fill-opacity:1;" d="M 86.257812 17.433594 C 86.257812 14.183594 87.882812 13.339844 88.945312 13.339844 C 89.132812 13.339844 90.382812 13.371094 91.070312 14.089844 C 90.257812 14.152344 90.132812 14.746094 90.132812 14.996094 C 90.132812 15.527344 90.507812 15.902344 91.039062 15.902344 C 91.570312 15.902344 91.976562 15.589844 91.976562 14.964844 C 91.976562 13.621094 90.445312 12.839844 88.914062 12.839844 C 86.414062 12.839844 84.601562 14.996094 84.601562 17.464844 C 84.601562 20.027344 86.570312 21.996094 88.882812 21.996094 C 91.539062 21.996094 92.195312 19.589844 92.195312 19.402344 C 92.195312 19.214844 91.976562 19.214844 91.914062 19.214844 C 91.757812 19.214844 91.695312 19.277344 91.664062 19.402344 C 91.101562 21.246094 89.789062 21.496094 89.070312 21.496094 C 88.007812 21.496094 86.257812 20.652344 86.257812 17.433594 Z M 86.257812 17.433594 "/>
<path style="fill:none;stroke-width:0.566929;stroke-linecap:butt;stroke-linejoin:miter;stroke:rgb(100%,0%,0%);stroke-opacity:0.5;stroke-miterlimit:10;" d="M 78.773622 2.835276 L 84.443544 -2.834646 " transform="matrix(2,0,0,2,5.952756,6.169291)"/>
<path style="fill:none;stroke-width:0.566929;stroke-linecap:butt;stroke-linejoin:miter;stroke:rgb(100%,0%,0%);stroke-opacity:0.5;stroke-miterlimit:10;" d="M 84.443544 2.835276 L 78.773622 -2.834646 " transform="matrix(2,0,0,2,5.952756,6.169291)"/>
<path style="fill-rule:nonzero;fill:rgb(50%,50%,0%);fill-opacity:0.1;stroke-width:0.566929;stroke-linecap:butt;stroke-linejoin:miter;stroke:rgb(100%,0%,0%);stroke-opacity:0.5;stroke-miterlimit:10;" d="M 71.949403 11.247386 L 91.269716 11.247386 L 91.269716 -0.000661294 L 71.949403 -0.000661294 Z M 71.949403 11.247386 " transform="matrix(2,0,0,2,5.952756,6.169291)"/>
<path style="fill:none;stroke-width:0.566929;stroke-linecap:butt;stroke-linejoin:miter;stroke:rgb(100%,0%,0%);stroke-opacity:0.5;stroke-miterlimit:10;" d="M 71.949403 11.138011 L 77.617372 5.468089 " transform="matrix(2,0,0,2,5.952756,6.169291)"/>
<path style="fill:none;stroke-width:0.566929;stroke-linecap:butt;stroke-linejoin:miter;stroke:rgb(100%,0%,0%);stroke-opacity:0.5;stroke-miterlimit:10;" d="M 77.617372 11.138011 L 71.949403 5.468089 " transform="matrix(2,0,0,2,5.952756,6.169291)"/>
<path style="fill-rule:nonzero;fill:rgb(50%,50%,0%);fill-opacity:0.1;stroke-width:0.566929;stroke-linecap:butt;stroke-linejoin:miter;stroke:rgb(100%,0%,0%);stroke-opacity:0.5;stroke-miterlimit:10;" d="M 71.949403 11.247386 L 91.269716 11.247386 L 91.269716 -0.000661294 L 71.949403 -0.000661294 Z M 71.949403 11.247386 " transform="matrix(2,0,0,2,5.952756,6.169291)"/>
<path style="fill:none;stroke-width:0.566929;stroke-linecap:butt;stroke-linejoin:miter;stroke:rgb(100%,0%,0%);stroke-opacity:0.5;stroke-miterlimit:10;" d="M 71.949403 11.138011 L 77.617372 5.468089 " transform="matrix(2,0,0,2,5.952756,6.169291)"/>
<path style="fill:none;stroke-width:0.566929;stroke-linecap:butt;stroke-linejoin:miter;stroke:rgb(100%,0%,0%);stroke-opacity:0.5;stroke-miterlimit:10;" d="M 77.617372 11.138011 L 71.949403 5.468089 " transform="matrix(2,0,0,2,5.952756,6.169291)"/>
<path style="fill-rule:nonzero;fill:rgb(50%,50%,0%);fill-opacity:0.1;stroke-width:0.566929;stroke-linecap:butt;stroke-linejoin:miter;stroke:rgb(100%,0%,0%);stroke-opacity:0.5;stroke-miterlimit:10;" d="M 74.783388 8.413401 L 88.433778 8.413401 L 88.433778 2.835276 L 74.783388 2.835276 Z M 74.783388 8.413401 " transform="matrix(2,0,0,2,5.952756,6.169291)"/>
<path style=" stroke:none;fill-rule:nonzero;fill:rgb(0%,0%,0%);fill-opacity:1;" d="M 158.175781 17.433594 C 158.175781 14.183594 159.800781 13.339844 160.863281 13.339844 C 161.050781 13.339844 162.300781 13.371094 162.988281 14.089844 C 162.175781 14.152344 162.050781 14.746094 162.050781 14.996094 C 162.050781 15.527344 162.425781 15.902344 162.957031 15.902344 C 163.488281 15.902344 163.894531 15.589844 163.894531 14.964844 C 163.894531 13.621094 162.363281 12.839844 160.832031 12.839844 C 158.332031 12.839844 156.519531 14.996094 156.519531 17.464844 C 156.519531 20.027344 158.488281 21.996094 160.800781 21.996094 C 163.457031 21.996094 164.113281 19.589844 164.113281 19.402344 C 164.113281 19.214844 163.894531 19.214844 163.832031 19.214844 C 163.675781 19.214844 163.613281 19.277344 163.582031 19.402344 C 163.019531 21.246094 161.707031 21.496094 160.988281 21.496094 C 159.925781 21.496094 158.175781 20.652344 158.175781 17.433594 Z M 158.175781 17.433594 "/>
<path style=" stroke:none;fill-rule:nonzero;fill:rgb(0%,0%,0%);fill-opacity:1;" d="M 167.03125 17.433594 C 167.03125 14.183594 168.65625 13.339844 169.71875 13.339844 C 169.90625 13.339844 171.15625 13.371094 171.84375 14.089844 C 171.03125 14.152344 170.90625 14.746094 170.90625 14.996094 C 170.90625 15.527344 171.28125 15.902344 171.8125 15.902344 C 172.34375 15.902344 172.75 15.589844 172.75 14.964844 C 172.75 13.621094 171.21875 12.839844 169.6875 12.839844 C 167.1875 12.839844 165.375 14.996094 165.375 17.464844 C 165.375 20.027344 167.34375 21.996094 169.65625 21.996094 C 172.3125 21.996094 172.96875 19.589844 172.96875 19.402344 C 172.96875 19.214844 172.75 19.214844 172.6875 19.214844 C 172.53125 19.214844 172.46875 19.277344 172.4375 19.402344 C 171.875 21.246094 170.5625 21.496094 169.84375 21.496094 C 168.78125 21.496094 167.03125 20.652344 167.03125 17.433594 Z M 167.03125 17.433594 "/>
<path style=" stroke:none;fill-rule:nonzero;fill:rgb(0%,0%,0%);fill-opacity:1;" d="M 175.882812 17.433594 C 175.882812 14.183594 177.507812 13.339844 178.570312 13.339844 C 178.757812 13.339844 180.007812 13.371094 180.695312 14.089844 C 179.882812 14.152344 179.757812 14.746094 179.757812 14.996094 C 179.757812 15.527344 180.132812 15.902344 180.664062 15.902344 C 181.195312 15.902344 181.601562 15.589844 181.601562 14.964844 C 181.601562 13.621094 180.070312 12.839844 178.539062 12.839844 C 176.039062 12.839844 174.226562 14.996094 174.226562 17.464844 C 174.226562 20.027344 176.195312 21.996094 178.507812 21.996094 C 181.164062 21.996094 181.820312 19.589844 181.820312 19.402344 C 181.820312 19.214844 181.601562 19.214844 181.539062 19.214844 C 181.382812 19.214844 181.320312 19.277344 181.289062 19.402344 C 180.726562 21.246094 179.414062 21.496094 178.695312 21.496094 C 177.632812 21.496094 175.882812 20.652344 175.882812 17.433594 Z M 175.882812 17.433594 "/>
<path style="fill:none;stroke-width:0.566929;stroke-linecap:butt;stroke-linejoin:miter;stroke:rgb(100%,0%,0%);stroke-opacity:0.5;stroke-miterlimit:10;" d="M 101.748231 2.835276 L 107.418153 -2.834646 " transform="matrix(2,0,0,2,5.952756,6.169291)"/>
<path style="fill:none;stroke-width:0.566929;stroke-linecap:butt;stroke-linejoin:miter;stroke:rgb(100%,0%,0%);stroke-opacity:0.5;stroke-miterlimit:10;" d="M 107.418153 2.835276 L 101.748231 -2.834646 " transform="matrix(2,0,0,2,5.952756,6.169291)"/>
<path style="fill:none;stroke-width:0.566929;stroke-linecap:butt;stroke-linejoin:miter;stroke:rgb(100%,0%,0%);stroke-opacity:0.5;stroke-miterlimit:10;" d="M 104.582216 28.346995 L 104.582216 -0.000661294 Z M 104.582216 28.346995 " transform="matrix(2,0,0,2,5.952756,6.169291)"/>
<path style="fill:none;stroke-width:0.566929;stroke-linecap:butt;stroke-linejoin:miter;stroke:rgb(100%,0%,0%);stroke-opacity:0.5;stroke-miterlimit:10;" d="M 6.857606 31.180979 L 12.525575 25.511057 " transform="matrix(2,0,0,2,5.952756,6.169291)"/>
<path style="fill:none;stroke-width:0.566929;stroke-linecap:butt;stroke-linejoin:miter;stroke:rgb(100%,0%,0%);stroke-opacity:0.5;stroke-miterlimit:10;" d="M 12.525575 31.180979 L 6.857606 25.511057 " transform="matrix(2,0,0,2,5.952756,6.169291)"/>
<path style="fill-rule:nonzero;fill:rgb(50%,50%,0%);fill-opacity:0.1;stroke-width:0.566929;stroke-linecap:butt;stroke-linejoin:miter;stroke:rgb(100%,0%,0%);stroke-opacity:0.5;stroke-miterlimit:10;" d="M 1.593935 41.577464 L 17.7912 41.577464 L 17.7912 28.346995 L 1.593935 28.346995 Z M 1.593935 41.577464 " transform="matrix(2,0,0,2,5.952756,6.169291)"/>
<path style="fill:none;stroke-width:0.566929;stroke-linecap:butt;stroke-linejoin:miter;stroke:rgb(100%,0%,0%);stroke-opacity:0.5;stroke-miterlimit:10;" d="M 1.593935 39.530589 L 7.261903 33.86262 " transform="matrix(2,0,0,2,5.952756,6.169291)"/>
<path style="fill:none;stroke-width:0.566929;stroke-linecap:butt;stroke-linejoin:miter;stroke:rgb(100%,0%,0%);stroke-opacity:0.5;stroke-miterlimit:10;" d="M 7.261903 39.530589 L 1.593935 33.86262 " transform="matrix(2,0,0,2,5.952756,6.169291)"/>
<path style="fill-rule:nonzero;fill:rgb(50%,50%,0%);fill-opacity:0.1;stroke-width:0.566929;stroke-linecap:butt;stroke-linejoin:miter;stroke:rgb(100%,0%,0%);stroke-opacity:0.5;stroke-miterlimit:10;" d="M 1.593935 41.577464 L 17.7912 41.577464 L 17.7912 28.346995 L 1.593935 28.346995 Z M 1.593935 41.577464 " transform="matrix(2,0,0,2,5.952756,6.169291)"/>
<path style="fill:none;stroke-width:0.566929;stroke-linecap:butt;stroke-linejoin:miter;stroke:rgb(100%,0%,0%);stroke-opacity:0.5;stroke-miterlimit:10;" d="M 1.593935 39.530589 L 7.261903 33.86262 " transform="matrix(2,0,0,2,5.952756,6.169291)"/>
<path style="fill:none;stroke-width:0.566929;stroke-linecap:butt;stroke-linejoin:miter;stroke:rgb(100%,0%,0%);stroke-opacity:0.5;stroke-miterlimit:10;" d="M 7.261903 39.530589 L 1.593935 33.86262 " transform="matrix(2,0,0,2,5.952756,6.169291)"/>
<path style="fill-rule:nonzero;fill:rgb(50%,50%,0%);fill-opacity:0.1;stroke-width:0.566929;stroke-linecap:butt;stroke-linejoin:miter;stroke:rgb(100%,0%,0%);stroke-opacity:0.5;stroke-miterlimit:10;" d="M 4.427919 38.743479 L 14.955263 38.743479 L 14.955263 31.180979 L 4.427919 31.180979 Z M 4.427919 38.743479 " transform="matrix(2,0,0,2,5.952756,6.169291)"/>
<path style=" stroke:none;fill-rule:nonzero;fill:rgb(0%,0%,0%);fill-opacity:1;" d="M 19.683594 75.125 C 17.933594 75.125 17.933594 73.125 17.933594 72.6875 C 17.933594 72.15625 17.964844 71.5 18.246094 71 C 18.402344 70.78125 18.871094 70.21875 19.683594 70.21875 C 21.402344 70.21875 21.402344 72.1875 21.402344 72.65625 C 21.402344 73.1875 21.402344 73.84375 21.089844 74.34375 C 20.933594 74.5625 20.464844 75.125 19.683594 75.125 Z M 17.371094 75.90625 C 17.371094 75.84375 17.371094 75.375 17.683594 74.96875 C 18.464844 75.53125 19.308594 75.59375 19.683594 75.59375 C 21.527344 75.59375 22.902344 74.21875 22.902344 72.6875 C 22.902344 71.9375 22.589844 71.21875 22.089844 70.75 C 22.808594 70.0625 23.527344 69.96875 23.871094 69.96875 C 23.933594 69.96875 24.027344 69.96875 24.089844 70 C 23.871094 70.0625 23.746094 70.28125 23.746094 70.53125 C 23.746094 70.875 24.027344 71.09375 24.339844 71.09375 C 24.527344 71.09375 24.902344 70.96875 24.902344 70.5 C 24.902344 70.15625 24.683594 69.53125 23.902344 69.53125 C 23.496094 69.53125 22.621094 69.65625 21.777344 70.46875 C 20.933594 69.8125 20.121094 69.75 19.683594 69.75 C 17.808594 69.75 16.433594 71.125 16.433594 72.65625 C 16.433594 73.53125 16.871094 74.28125 17.371094 74.71875 C 17.121094 75 16.746094 75.65625 16.746094 76.375 C 16.746094 77 17.027344 77.75 17.652344 78.15625 C 16.433594 78.46875 15.808594 79.34375 15.808594 80.125 C 15.808594 81.5625 17.777344 82.65625 20.214844 82.65625 C 22.558594 82.65625 24.621094 81.65625 24.621094 80.09375 C 24.621094 79.40625 24.371094 78.375 23.339844 77.8125 C 22.277344 77.28125 21.121094 77.28125 19.902344 77.28125 C 19.402344 77.28125 18.558594 77.28125 18.402344 77.25 C 17.777344 77.15625 17.371094 76.5625 17.371094 75.90625 Z M 20.246094 82.21875 C 18.214844 82.21875 16.839844 81.1875 16.839844 80.125 C 16.839844 79.21875 17.589844 78.46875 18.464844 78.4375 L 19.652344 78.4375 C 21.371094 78.4375 23.589844 78.4375 23.589844 80.125 C 23.589844 81.21875 22.183594 82.21875 20.246094 82.21875 Z M 20.246094 82.21875 "/>
<path style=" stroke:none;fill-rule:nonzero;fill:rgb(0%,0%,0%);fill-opacity:1;" d="M 29.644531 75.125 C 27.894531 75.125 27.894531 73.125 27.894531 72.6875 C 27.894531 72.15625 27.925781 71.5 28.207031 71 C 28.363281 70.78125 28.832031 70.21875 29.644531 70.21875 C 31.363281 70.21875 31.363281 72.1875 31.363281 72.65625 C 31.363281 73.1875 31.363281 73.84375 31.050781 74.34375 C 30.894531 74.5625 30.425781 75.125 29.644531 75.125 Z M 27.332031 75.90625 C 27.332031 75.84375 27.332031 75.375 27.644531 74.96875 C 28.425781 75.53125 29.269531 75.59375 29.644531 75.59375 C 31.488281 75.59375 32.863281 74.21875 32.863281 72.6875 C 32.863281 71.9375 32.550781 71.21875 32.050781 70.75 C 32.769531 70.0625 33.488281 69.96875 33.832031 69.96875 C 33.894531 69.96875 33.988281 69.96875 34.050781 70 C 33.832031 70.0625 33.707031 70.28125 33.707031 70.53125 C 33.707031 70.875 33.988281 71.09375 34.300781 71.09375 C 34.488281 71.09375 34.863281 70.96875 34.863281 70.5 C 34.863281 70.15625 34.644531 69.53125 33.863281 69.53125 C 33.457031 69.53125 32.582031 69.65625 31.738281 70.46875 C 30.894531 69.8125 30.082031 69.75 29.644531 69.75 C 27.769531 69.75 26.394531 71.125 26.394531 72.65625 C 26.394531 73.53125 26.832031 74.28125 27.332031 74.71875 C 27.082031 75 26.707031 75.65625 26.707031 76.375 C 26.707031 77 26.988281 77.75 27.613281 78.15625 C 26.394531 78.46875 25.769531 79.34375 25.769531 80.125 C 25.769531 81.5625 27.738281 82.65625 30.175781 82.65625 C 32.519531 82.65625 34.582031 81.65625 34.582031 80.09375 C 34.582031 79.40625 34.332031 78.375 33.300781 77.8125 C 32.238281 77.28125 31.082031 77.28125 29.863281 77.28125 C 29.363281 77.28125 28.519531 77.28125 28.363281 77.25 C 27.738281 77.15625 27.332031 76.5625 27.332031 75.90625 Z M 30.207031 82.21875 C 28.175781 82.21875 26.800781 81.1875 26.800781 80.125 C 26.800781 79.21875 27.550781 78.46875 28.425781 78.4375 L 29.613281 78.4375 C 31.332031 78.4375 33.550781 78.4375 33.550781 80.125 C 33.550781 81.21875 32.144531 82.21875 30.207031 82.21875 Z M 30.207031 82.21875 "/>
<path style="fill:none;stroke-width:0.566929;stroke-linecap:butt;stroke-linejoin:miter;stroke:rgb(100%,0%,0%);stroke-opacity:0.5;stroke-miterlimit:10;" d="M 36.174013 31.180979 L 41.843935 25.511057 " transform="matrix(2,0,0,2,5.952756,6.169291)"/>
<path style="fill:none;stroke-width:0.566929;stroke-linecap:butt;stroke-linejoin:miter;stroke:rgb(100%,0%,0%);stroke-opacity:0.5;stroke-miterlimit:10;" d="M 41.843935 31.180979 L 36.174013 25.511057 " transform="matrix(2,0,0,2,5.952756,6.169291)"/>
<path style="fill-rule:nonzero;fill:rgb(50%,50%,0%);fill-opacity:0.1;stroke-width:0.566929;stroke-linecap:butt;stroke-linejoin:miter;stroke:rgb(100%,0%,0%);stroke-opacity:0.5;stroke-miterlimit:10;" d="M 29.769716 42.046214 L 48.250185 42.046214 L 48.250185 28.346995 L 29.769716 28.346995 Z M 29.769716 42.046214 " transform="matrix(2,0,0,2,5.952756,6.169291)"/>
<path style="fill:none;stroke-width:0.566929;stroke-linecap:butt;stroke-linejoin:miter;stroke:rgb(100%,0%,0%);stroke-opacity:0.5;stroke-miterlimit:10;" d="M 29.769716 42.046214 L 35.437685 36.378245 " transform="matrix(2,0,0,2,5.952756,6.169291)"/>
<path style="fill:none;stroke-width:0.566929;stroke-linecap:butt;stroke-linejoin:miter;stroke:rgb(100%,0%,0%);stroke-opacity:0.5;stroke-miterlimit:10;" d="M 35.437685 42.046214 L 29.769716 36.378245 " transform="matrix(2,0,0,2,5.952756,6.169291)"/>
<path style="fill-rule:nonzero;fill:rgb(50%,50%,0%);fill-opacity:0.1;stroke-width:0.566929;stroke-linecap:butt;stroke-linejoin:miter;stroke:rgb(100%,0%,0%);stroke-opacity:0.5;stroke-miterlimit:10;" d="M 29.769716 42.046214 L 48.250185 42.046214 L 48.250185 28.346995 L 29.769716 28.346995 Z M 29.769716 42.046214 " transform="matrix(2,0,0,2,5.952756,6.169291)"/>
<path style="fill:none;stroke-width:0.566929;stroke-linecap:butt;stroke-linejoin:miter;stroke:rgb(100%,0%,0%);stroke-opacity:0.5;stroke-miterlimit:10;" d="M 29.769716 42.046214 L 35.437685 36.378245 " transform="matrix(2,0,0,2,5.952756,6.169291)"/>
<path style="fill:none;stroke-width:0.566929;stroke-linecap:butt;stroke-linejoin:miter;stroke:rgb(100%,0%,0%);stroke-opacity:0.5;stroke-miterlimit:10;" d="M 35.437685 42.046214 L 29.769716 36.378245 " transform="matrix(2,0,0,2,5.952756,6.169291)"/>
<path style="fill-rule:nonzero;fill:rgb(50%,50%,0%);fill-opacity:0.1;stroke-width:0.566929;stroke-linecap:butt;stroke-linejoin:miter;stroke:rgb(100%,0%,0%);stroke-opacity:0.5;stroke-miterlimit:10;" d="M 32.6037 39.212229 L 45.414247 39.212229 L 45.414247 31.180979 L 32.6037 31.180979 Z M 32.6037 39.212229 " transform="matrix(2,0,0,2,5.952756,6.169291)"/>
<path style=" stroke:none;fill-rule:nonzero;fill:rgb(0%,0%,0%);fill-opacity:1;" d="M 80.566406 75.625 L 82.847656 75.625 L 82.847656 75 L 80.503906 75 L 80.503906 72.6875 C 80.503906 70.90625 81.472656 69.96875 82.347656 69.96875 C 82.410156 69.96875 82.722656 69.96875 83.003906 70.125 C 82.785156 70.1875 82.410156 70.46875 82.410156 70.96875 C 82.410156 71.40625 82.722656 71.8125 83.285156 71.8125 C 83.847656 71.8125 84.160156 71.40625 84.160156 70.9375 C 84.160156 70.21875 83.441406 69.53125 82.347656 69.53125 C 81.160156 69.53125 80.285156 70.28125 80.191406 70.375 C 79.597656 69.625 78.472656 69.53125 77.941406 69.53125 C 76.066406 69.53125 73.753906 70.5625 73.753906 72.71875 L 73.753906 75 L 72.160156 75 L 72.160156 75.625 L 73.753906 75.625 L 73.753906 82.09375 C 73.753906 82.96875 73.535156 82.96875 72.191406 82.96875 L 72.191406 83.59375 C 72.847656 83.5625 73.910156 83.53125 74.410156 83.53125 C 74.910156 83.53125 75.878906 83.5625 76.628906 83.59375 L 76.628906 82.96875 C 75.285156 82.96875 75.066406 82.96875 75.066406 82.09375 L 75.066406 75.625 L 79.253906 75.625 L 79.253906 82.09375 C 79.253906 82.96875 79.035156 82.96875 77.691406 82.96875 L 77.691406 83.59375 C 78.472656 83.5625 79.410156 83.53125 79.972656 83.53125 C 80.753906 83.53125 81.691406 83.53125 82.503906 83.59375 L 82.503906 82.96875 L 82.066406 82.96875 C 80.597656 82.96875 80.566406 82.75 80.566406 82.03125 Z M 75.003906 75 L 75.003906 72.75 C 75.003906 70.8125 76.628906 69.96875 77.941406 69.96875 C 78.910156 69.96875 79.472656 70.34375 79.472656 70.34375 L 79.472656 70.375 C 79.160156 70.40625 78.753906 70.6875 78.753906 71.21875 C 78.753906 71.34375 78.753906 71.84375 79.316406 72.03125 C 79.253906 72.28125 79.253906 72.46875 79.253906 72.71875 L 79.253906 75 Z M 75.003906 75 "/>
<path style=" stroke:none;fill-rule:nonzero;fill:rgb(0%,0%,0%);fill-opacity:1;" d="M 92.1875 75.625 L 94.46875 75.625 L 94.46875 75 L 92.125 75 L 92.125 72.6875 C 92.125 70.90625 93.09375 69.96875 93.96875 69.96875 C 94.03125 69.96875 94.34375 69.96875 94.625 70.125 C 94.40625 70.1875 94.03125 70.46875 94.03125 70.96875 C 94.03125 71.40625 94.34375 71.8125 94.90625 71.8125 C 95.46875 71.8125 95.78125 71.40625 95.78125 70.9375 C 95.78125 70.21875 95.0625 69.53125 93.96875 69.53125 C 92.78125 69.53125 91.90625 70.28125 91.8125 70.375 C 91.21875 69.625 90.09375 69.53125 89.5625 69.53125 C 87.6875 69.53125 85.375 70.5625 85.375 72.71875 L 85.375 75 L 83.78125 75 L 83.78125 75.625 L 85.375 75.625 L 85.375 82.09375 C 85.375 82.96875 85.15625 82.96875 83.8125 82.96875 L 83.8125 83.59375 C 84.46875 83.5625 85.53125 83.53125 86.03125 83.53125 C 86.53125 83.53125 87.5 83.5625 88.25 83.59375 L 88.25 82.96875 C 86.90625 82.96875 86.6875 82.96875 86.6875 82.09375 L 86.6875 75.625 L 90.875 75.625 L 90.875 82.09375 C 90.875 82.96875 90.65625 82.96875 89.3125 82.96875 L 89.3125 83.59375 C 90.09375 83.5625 91.03125 83.53125 91.59375 83.53125 C 92.375 83.53125 93.3125 83.53125 94.125 83.59375 L 94.125 82.96875 L 93.6875 82.96875 C 92.21875 82.96875 92.1875 82.75 92.1875 82.03125 Z M 86.625 75 L 86.625 72.75 C 86.625 70.8125 88.25 69.96875 89.5625 69.96875 C 90.53125 69.96875 91.09375 70.34375 91.09375 70.34375 L 91.09375 70.375 C 90.78125 70.40625 90.375 70.6875 90.375 71.21875 C 90.375 71.34375 90.375 71.84375 90.9375 72.03125 C 90.875 72.28125 90.875 72.46875 90.875 72.71875 L 90.875 75 Z M 86.625 75 "/>
<path style="fill:none;stroke-width:0.566929;stroke-linecap:butt;stroke-linejoin:miter;stroke:rgb(100%,0%,0%);stroke-opacity:0.5;stroke-miterlimit:10;" d="M 78.773622 31.180979 L 84.443544 25.511057 " transform="matrix(2,0,0,2,5.952756,6.169291)"/>
<path style="fill:none;stroke-width:0.566929;stroke-linecap:butt;stroke-linejoin:miter;stroke:rgb(100%,0%,0%);stroke-opacity:0.5;stroke-miterlimit:10;" d="M 84.443544 31.180979 L 78.773622 25.511057 " transform="matrix(2,0,0,2,5.952756,6.169291)"/>
<path style="fill-rule:nonzero;fill:rgb(50%,50%,0%);fill-opacity:0.1;stroke-width:0.566929;stroke-linecap:butt;stroke-linejoin:miter;stroke:rgb(100%,0%,0%);stroke-opacity:0.5;stroke-miterlimit:10;" d="M 63.54706 41.577464 L 99.670106 41.577464 L 99.670106 28.346995 L 63.54706 28.346995 Z M 63.54706 41.577464 " transform="matrix(2,0,0,2,5.952756,6.169291)"/>
<path style="fill:none;stroke-width:0.566929;stroke-linecap:butt;stroke-linejoin:miter;stroke:rgb(100%,0%,0%);stroke-opacity:0.5;stroke-miterlimit:10;" d="M 63.54706 39.530589 L 69.216981 33.86262 " transform="matrix(2,0,0,2,5.952756,6.169291)"/>
<path style="fill:none;stroke-width:0.566929;stroke-linecap:butt;stroke-linejoin:miter;stroke:rgb(100%,0%,0%);stroke-opacity:0.5;stroke-miterlimit:10;" d="M 69.216981 39.530589 L 63.54706 33.86262 " transform="matrix(2,0,0,2,5.952756,6.169291)"/>
<path style="fill-rule:nonzero;fill:rgb(50%,50%,0%);fill-opacity:0.1;stroke-width:0.566929;stroke-linecap:butt;stroke-linejoin:miter;stroke:rgb(100%,0%,0%);stroke-opacity:0.5;stroke-miterlimit:10;" d="M 63.54706 41.577464 L 99.670106 41.577464 L 99.670106 28.346995 L 63.54706 28.346995 Z M 63.54706 41.577464 " transform="matrix(2,0,0,2,5.952756,6.169291)"/>
<path style="fill:none;stroke-width:0.566929;stroke-linecap:butt;stroke-linejoin:miter;stroke:rgb(100%,0%,0%);stroke-opacity:0.5;stroke-miterlimit:10;" d="M 63.54706 39.530589 L 69.216981 33.86262 " transform="matrix(2,0,0,2,5.952756,6.169291)"/>
<path style="fill:none;stroke-width:0.566929;stroke-linecap:butt;stroke-linejoin:miter;stroke:rgb(100%,0%,0%);stroke-opacity:0.5;stroke-miterlimit:10;" d="M 69.216981 39.530589 L 63.54706 33.86262 " transform="matrix(2,0,0,2,5.952756,6.169291)"/>
<path style="fill-rule:nonzero;fill:rgb(50%,50%,0%);fill-opacity:0.1;stroke-width:0.566929;stroke-linecap:butt;stroke-linejoin:miter;stroke:rgb(100%,0%,0%);stroke-opacity:0.5;stroke-miterlimit:10;" d="M 66.382997 38.743479 L 96.836122 38.743479 L 96.836122 31.180979 L 66.382997 31.180979 Z M 66.382997 38.743479 " transform="matrix(2,0,0,2,5.952756,6.169291)"/>
<path style=" stroke:none;fill-rule:nonzero;fill:rgb(0%,0%,0%);fill-opacity:1;" d="M 143.59375 75.125 C 141.84375 75.125 141.84375 73.125 141.84375 72.6875 C 141.84375 72.15625 141.875 71.5 142.15625 71 C 142.3125 70.78125 142.78125 70.21875 143.59375 70.21875 C 145.3125 70.21875 145.3125 72.1875 145.3125 72.65625 C 145.3125 73.1875 145.3125 73.84375 145 74.34375 C 144.84375 74.5625 144.375 75.125 143.59375 75.125 Z M 141.28125 75.90625 C 141.28125 75.84375 141.28125 75.375 141.59375 74.96875 C 142.375 75.53125 143.21875 75.59375 143.59375 75.59375 C 145.4375 75.59375 146.8125 74.21875 146.8125 72.6875 C 146.8125 71.9375 146.5 71.21875 146 70.75 C 146.71875 70.0625 147.4375 69.96875 147.78125 69.96875 C 147.84375 69.96875 147.9375 69.96875 148 70 C 147.78125 70.0625 147.65625 70.28125 147.65625 70.53125 C 147.65625 70.875 147.9375 71.09375 148.25 71.09375 C 148.4375 71.09375 148.8125 70.96875 148.8125 70.5 C 148.8125 70.15625 148.59375 69.53125 147.8125 69.53125 C 147.40625 69.53125 146.53125 69.65625 145.6875 70.46875 C 144.84375 69.8125 144.03125 69.75 143.59375 69.75 C 141.71875 69.75 140.34375 71.125 140.34375 72.65625 C 140.34375 73.53125 140.78125 74.28125 141.28125 74.71875 C 141.03125 75 140.65625 75.65625 140.65625 76.375 C 140.65625 77 140.9375 77.75 141.5625 78.15625 C 140.34375 78.46875 139.71875 79.34375 139.71875 80.125 C 139.71875 81.5625 141.6875 82.65625 144.125 82.65625 C 146.46875 82.65625 148.53125 81.65625 148.53125 80.09375 C 148.53125 79.40625 148.28125 78.375 147.25 77.8125 C 146.1875 77.28125 145.03125 77.28125 143.8125 77.28125 C 143.3125 77.28125 142.46875 77.28125 142.3125 77.25 C 141.6875 77.15625 141.28125 76.5625 141.28125 75.90625 Z M 144.15625 82.21875 C 142.125 82.21875 140.75 81.1875 140.75 80.125 C 140.75 79.21875 141.5 78.46875 142.375 78.4375 L 143.5625 78.4375 C 145.28125 78.4375 147.5 78.4375 147.5 80.125 C 147.5 81.21875 146.09375 82.21875 144.15625 82.21875 Z M 144.15625 82.21875 "/>
<path style=" stroke:none;fill-rule:nonzero;fill:rgb(0%,0%,0%);fill-opacity:1;" d="M 153.554688 75.125 C 151.804688 75.125 151.804688 73.125 151.804688 72.6875 C 151.804688 72.15625 151.835938 71.5 152.117188 71 C 152.273438 70.78125 152.742188 70.21875 153.554688 70.21875 C 155.273438 70.21875 155.273438 72.1875 155.273438 72.65625 C 155.273438 73.1875 155.273438 73.84375 154.960938 74.34375 C 154.804688 74.5625 154.335938 75.125 153.554688 75.125 Z M 151.242188 75.90625 C 151.242188 75.84375 151.242188 75.375 151.554688 74.96875 C 152.335938 75.53125 153.179688 75.59375 153.554688 75.59375 C 155.398438 75.59375 156.773438 74.21875 156.773438 72.6875 C 156.773438 71.9375 156.460938 71.21875 155.960938 70.75 C 156.679688 70.0625 157.398438 69.96875 157.742188 69.96875 C 157.804688 69.96875 157.898438 69.96875 157.960938 70 C 157.742188 70.0625 157.617188 70.28125 157.617188 70.53125 C 157.617188 70.875 157.898438 71.09375 158.210938 71.09375 C 158.398438 71.09375 158.773438 70.96875 158.773438 70.5 C 158.773438 70.15625 158.554688 69.53125 157.773438 69.53125 C 157.367188 69.53125 156.492188 69.65625 155.648438 70.46875 C 154.804688 69.8125 153.992188 69.75 153.554688 69.75 C 151.679688 69.75 150.304688 71.125 150.304688 72.65625 C 150.304688 73.53125 150.742188 74.28125 151.242188 74.71875 C 150.992188 75 150.617188 75.65625 150.617188 76.375 C 150.617188 77 150.898438 77.75 151.523438 78.15625 C 150.304688 78.46875 149.679688 79.34375 149.679688 80.125 C 149.679688 81.5625 151.648438 82.65625 154.085938 82.65625 C 156.429688 82.65625 158.492188 81.65625 158.492188 80.09375 C 158.492188 79.40625 158.242188 78.375 157.210938 77.8125 C 156.148438 77.28125 154.992188 77.28125 153.773438 77.28125 C 153.273438 77.28125 152.429688 77.28125 152.273438 77.25 C 151.648438 77.15625 151.242188 76.5625 151.242188 75.90625 Z M 154.117188 82.21875 C 152.085938 82.21875 150.710938 81.1875 150.710938 80.125 C 150.710938 79.21875 151.460938 78.46875 152.335938 78.4375 L 153.523438 78.4375 C 155.242188 78.4375 157.460938 78.4375 157.460938 80.125 C 157.460938 81.21875 156.054688 82.21875 154.117188 82.21875 Z M 154.117188 82.21875 "/>
<path style=" stroke:none;fill-rule:nonzero;fill:rgb(0%,0%,0%);fill-opacity:1;" d="M 163.515625 75.125 C 161.765625 75.125 161.765625 73.125 161.765625 72.6875 C 161.765625 72.15625 161.796875 71.5 162.078125 71 C 162.234375 70.78125 162.703125 70.21875 163.515625 70.21875 C 165.234375 70.21875 165.234375 72.1875 165.234375 72.65625 C 165.234375 73.1875 165.234375 73.84375 164.921875 74.34375 C 164.765625 74.5625 164.296875 75.125 163.515625 75.125 Z M 161.203125 75.90625 C 161.203125 75.84375 161.203125 75.375 161.515625 74.96875 C 162.296875 75.53125 163.140625 75.59375 163.515625 75.59375 C 165.359375 75.59375 166.734375 74.21875 166.734375 72.6875 C 166.734375 71.9375 166.421875 71.21875 165.921875 70.75 C 166.640625 70.0625 167.359375 69.96875 167.703125 69.96875 C 167.765625 69.96875 167.859375 69.96875 167.921875 70 C 167.703125 70.0625 167.578125 70.28125 167.578125 70.53125 C 167.578125 70.875 167.859375 71.09375 168.171875 71.09375 C 168.359375 71.09375 168.734375 70.96875 168.734375 70.5 C 168.734375 70.15625 168.515625 69.53125 167.734375 69.53125 C 167.328125 69.53125 166.453125 69.65625 165.609375 70.46875 C 164.765625 69.8125 163.953125 69.75 163.515625 69.75 C 161.640625 69.75 160.265625 71.125 160.265625 72.65625 C 160.265625 73.53125 160.703125 74.28125 161.203125 74.71875 C 160.953125 75 160.578125 75.65625 160.578125 76.375 C 160.578125 77 160.859375 77.75 161.484375 78.15625 C 160.265625 78.46875 159.640625 79.34375 159.640625 80.125 C 159.640625 81.5625 161.609375 82.65625 164.046875 82.65625 C 166.390625 82.65625 168.453125 81.65625 168.453125 80.09375 C 168.453125 79.40625 168.203125 78.375 167.171875 77.8125 C 166.109375 77.28125 164.953125 77.28125 163.734375 77.28125 C 163.234375 77.28125 162.390625 77.28125 162.234375 77.25 C 161.609375 77.15625 161.203125 76.5625 161.203125 75.90625 Z M 164.078125 82.21875 C 162.046875 82.21875 160.671875 81.1875 160.671875 80.125 C 160.671875 79.21875 161.421875 78.46875 162.296875 78.4375 L 163.484375 78.4375 C 165.203125 78.4375 167.421875 78.4375 167.421875 80.125 C 167.421875 81.21875 166.015625 82.21875 164.078125 82.21875 Z M 164.078125 82.21875 "/>
<path style=" stroke:none;fill-rule:nonzero;fill:rgb(0%,0%,0%);fill-opacity:1;" d="M 173.480469 75.125 C 171.730469 75.125 171.730469 73.125 171.730469 72.6875 C 171.730469 72.15625 171.761719 71.5 172.042969 71 C 172.199219 70.78125 172.667969 70.21875 173.480469 70.21875 C 175.199219 70.21875 175.199219 72.1875 175.199219 72.65625 C 175.199219 73.1875 175.199219 73.84375 174.886719 74.34375 C 174.730469 74.5625 174.261719 75.125 173.480469 75.125 Z M 171.167969 75.90625 C 171.167969 75.84375 171.167969 75.375 171.480469 74.96875 C 172.261719 75.53125 173.105469 75.59375 173.480469 75.59375 C 175.324219 75.59375 176.699219 74.21875 176.699219 72.6875 C 176.699219 71.9375 176.386719 71.21875 175.886719 70.75 C 176.605469 70.0625 177.324219 69.96875 177.667969 69.96875 C 177.730469 69.96875 177.824219 69.96875 177.886719 70 C 177.667969 70.0625 177.542969 70.28125 177.542969 70.53125 C 177.542969 70.875 177.824219 71.09375 178.136719 71.09375 C 178.324219 71.09375 178.699219 70.96875 178.699219 70.5 C 178.699219 70.15625 178.480469 69.53125 177.699219 69.53125 C 177.292969 69.53125 176.417969 69.65625 175.574219 70.46875 C 174.730469 69.8125 173.917969 69.75 173.480469 69.75 C 171.605469 69.75 170.230469 71.125 170.230469 72.65625 C 170.230469 73.53125 170.667969 74.28125 171.167969 74.71875 C 170.917969 75 170.542969 75.65625 170.542969 76.375 C 170.542969 77 170.824219 77.75 171.449219 78.15625 C 170.230469 78.46875 169.605469 79.34375 169.605469 80.125 C 169.605469 81.5625 171.574219 82.65625 174.011719 82.65625 C 176.355469 82.65625 178.417969 81.65625 178.417969 80.09375 C 178.417969 79.40625 178.167969 78.375 177.136719 77.8125 C 176.074219 77.28125 174.917969 77.28125 173.699219 77.28125 C 173.199219 77.28125 172.355469 77.28125 172.199219 77.25 C 171.574219 77.15625 171.167969 76.5625 171.167969 75.90625 Z M 174.042969 82.21875 C 172.011719 82.21875 170.636719 81.1875 170.636719 80.125 C 170.636719 79.21875 171.386719 78.46875 172.261719 78.4375 L 173.449219 78.4375 C 175.167969 78.4375 177.386719 78.4375 177.386719 80.125 C 177.386719 81.21875 175.980469 82.21875 174.042969 82.21875 Z M 174.042969 82.21875 "/>
<path style=" stroke:none;fill-rule:nonzero;fill:rgb(0%,0%,0%);fill-opacity:1;" d="M 183.441406 75.125 C 181.691406 75.125 181.691406 73.125 181.691406 72.6875 C 181.691406 72.15625 181.722656 71.5 182.003906 71 C 182.160156 70.78125 182.628906 70.21875 183.441406 70.21875 C 185.160156 70.21875 185.160156 72.1875 185.160156 72.65625 C 185.160156 73.1875 185.160156 73.84375 184.847656 74.34375 C 184.691406 74.5625 184.222656 75.125 183.441406 75.125 Z M 181.128906 75.90625 C 181.128906 75.84375 181.128906 75.375 181.441406 74.96875 C 182.222656 75.53125 183.066406 75.59375 183.441406 75.59375 C 185.285156 75.59375 186.660156 74.21875 186.660156 72.6875 C 186.660156 71.9375 186.347656 71.21875 185.847656 70.75 C 186.566406 70.0625 187.285156 69.96875 187.628906 69.96875 C 187.691406 69.96875 187.785156 69.96875 187.847656 70 C 187.628906 70.0625 187.503906 70.28125 187.503906 70.53125 C 187.503906 70.875 187.785156 71.09375 188.097656 71.09375 C 188.285156 71.09375 188.660156 70.96875 188.660156 70.5 C 188.660156 70.15625 188.441406 69.53125 187.660156 69.53125 C 187.253906 69.53125 186.378906 69.65625 185.535156 70.46875 C 184.691406 69.8125 183.878906 69.75 183.441406 69.75 C 181.566406 69.75 180.191406 71.125 180.191406 72.65625 C 180.191406 73.53125 180.628906 74.28125 181.128906 74.71875 C 180.878906 75 180.503906 75.65625 180.503906 76.375 C 180.503906 77 180.785156 77.75 181.410156 78.15625 C 180.191406 78.46875 179.566406 79.34375 179.566406 80.125 C 179.566406 81.5625 181.535156 82.65625 183.972656 82.65625 C 186.316406 82.65625 188.378906 81.65625 188.378906 80.09375 C 188.378906 79.40625 188.128906 78.375 187.097656 77.8125 C 186.035156 77.28125 184.878906 77.28125 183.660156 77.28125 C 183.160156 77.28125 182.316406 77.28125 182.160156 77.25 C 181.535156 77.15625 181.128906 76.5625 181.128906 75.90625 Z M 184.003906 82.21875 C 181.972656 82.21875 180.597656 81.1875 180.597656 80.125 C 180.597656 79.21875 181.347656 78.46875 182.222656 78.4375 L 183.410156 78.4375 C 185.128906 78.4375 187.347656 78.4375 187.347656 80.125 C 187.347656 81.21875 185.941406 82.21875 184.003906 82.21875 Z M 184.003906 82.21875 "/>
<path style=" stroke:none;fill-rule:nonzero;fill:rgb(0%,0%,0%);fill-opacity:1;" d="M 193.40625 75.125 C 191.65625 75.125 191.65625 73.125 191.65625 72.6875 C 191.65625 72.15625 191.6875 71.5 191.96875 71 C 192.125 70.78125 192.59375 70.21875 193.40625 70.21875 C 195.125 70.21875 195.125 72.1875 195.125 72.65625 C 195.125 73.1875 195.125 73.84375 194.8125 74.34375 C 194.65625 74.5625 194.1875 75.125 193.40625 75.125 Z M 191.09375 75.90625 C 191.09375 75.84375 191.09375 75.375 191.40625 74.96875 C 192.1875 75.53125 193.03125 75.59375 193.40625 75.59375 C 195.25 75.59375 196.625 74.21875 196.625 72.6875 C 196.625 71.9375 196.3125 71.21875 195.8125 70.75 C 196.53125 70.0625 197.25 69.96875 197.59375 69.96875 C 197.65625 69.96875 197.75 69.96875 197.8125 70 C 197.59375 70.0625 197.46875 70.28125 197.46875 70.53125 C 197.46875 70.875 197.75 71.09375 198.0625 71.09375 C 198.25 71.09375 198.625 70.96875 198.625 70.5 C 198.625 70.15625 198.40625 69.53125 197.625 69.53125 C 197.21875 69.53125 196.34375 69.65625 195.5 70.46875 C 194.65625 69.8125 193.84375 69.75 193.40625 69.75 C 191.53125 69.75 190.15625 71.125 190.15625 72.65625 C 190.15625 73.53125 190.59375 74.28125 191.09375 74.71875 C 190.84375 75 190.46875 75.65625 190.46875 76.375 C 190.46875 77 190.75 77.75 191.375 78.15625 C 190.15625 78.46875 189.53125 79.34375 189.53125 80.125 C 189.53125 81.5625 191.5 82.65625 193.9375 82.65625 C 196.28125 82.65625 198.34375 81.65625 198.34375 80.09375 C 198.34375 79.40625 198.09375 78.375 197.0625 77.8125 C 196 77.28125 194.84375 77.28125 193.625 77.28125 C 193.125 77.28125 192.28125 77.28125 192.125 77.25 C 191.5 77.15625 191.09375 76.5625 191.09375 75.90625 Z M 193.96875 82.21875 C 191.9375 82.21875 190.5625 81.1875 190.5625 80.125 C 190.5625 79.21875 191.3125 78.46875 192.1875 78.4375 L 193.375 78.4375 C 195.09375 78.4375 197.3125 78.4375 197.3125 80.125 C 197.3125 81.21875 195.90625 82.21875 193.96875 82.21875 Z M 193.96875 82.21875 "/>
<path style="fill:none;stroke-width:0.566929;stroke-linecap:butt;stroke-linejoin:miter;stroke:rgb(100%,0%,0%);stroke-opacity:0.5;stroke-miterlimit:10;" d="M 101.748231 31.180979 L 107.418153 25.511057 " transform="matrix(2,0,0,2,5.952756,6.169291)"/>
<path style="fill:none;stroke-width:0.566929;stroke-linecap:butt;stroke-linejoin:miter;stroke:rgb(100%,0%,0%);stroke-opacity:0.5;stroke-miterlimit:10;" d="M 107.418153 31.180979 L 101.748231 25.511057 " transform="matrix(2,0,0,2,5.952756,6.169291)"/>
<path style="fill:none;stroke-width:0.566929;stroke-linecap:butt;stroke-linejoin:miter;stroke:rgb(100%,0%,0%);stroke-opacity:0.5;stroke-miterlimit:10;" d="M 104.582216 56.692698 L 104.582216 28.346995 Z M 104.582216 56.692698 " transform="matrix(2,0,0,2,5.952756,6.169291)"/>
<path style="fill:none;stroke-width:0.566929;stroke-linecap:butt;stroke-linejoin:miter;stroke:rgb(100%,0%,0%);stroke-opacity:0.5;stroke-miterlimit:10;" d="M 6.857606 59.526682 L 12.525575 53.858714 " transform="matrix(2,0,0,2,5.952756,6.169291)"/>
<path style="fill:none;stroke-width:0.566929;stroke-linecap:butt;stroke-linejoin:miter;stroke:rgb(100%,0%,0%);stroke-opacity:0.5;stroke-miterlimit:10;" d="M 12.525575 59.526682 L 6.857606 53.858714 " transform="matrix(2,0,0,2,5.952756,6.169291)"/>
<path style="fill-rule:nonzero;fill:rgb(50%,50%,0%);fill-opacity:0.1;stroke-width:0.566929;stroke-linecap:butt;stroke-linejoin:miter;stroke:rgb(100%,0%,0%);stroke-opacity:0.5;stroke-miterlimit:10;" d="M 0.000184547 67.940745 L 19.382997 67.940745 L 19.382997 56.692698 L 0.000184547 56.692698 Z M 0.000184547 67.940745 " transform="matrix(2,0,0,2,5.952756,6.169291)"/>
<path style="fill:none;stroke-width:0.566929;stroke-linecap:butt;stroke-linejoin:miter;stroke:rgb(100%,0%,0%);stroke-opacity:0.5;stroke-miterlimit:10;" d="M 0.000184547 67.83137 L 5.670106 62.161448 " transform="matrix(2,0,0,2,5.952756,6.169291)"/>
<path style="fill:none;stroke-width:0.566929;stroke-linecap:butt;stroke-linejoin:miter;stroke:rgb(100%,0%,0%);stroke-opacity:0.5;stroke-miterlimit:10;" d="M 5.670106 67.83137 L 0.000184547 62.161448 " transform="matrix(2,0,0,2,5.952756,6.169291)"/>
<path style="fill-rule:nonzero;fill:rgb(50%,50%,0%);fill-opacity:0.1;stroke-width:0.566929;stroke-linecap:butt;stroke-linejoin:miter;stroke:rgb(100%,0%,0%);stroke-opacity:0.5;stroke-miterlimit:10;" d="M 0.000184547 67.940745 L 19.382997 67.940745 L 19.382997 56.692698 L 0.000184547 56.692698 Z M 0.000184547 67.940745 " transform="matrix(2,0,0,2,5.952756,6.169291)"/>
<path style="fill:none;stroke-width:0.566929;stroke-linecap:butt;stroke-linejoin:miter;stroke:rgb(100%,0%,0%);stroke-opacity:0.5;stroke-miterlimit:10;" d="M 0.000184547 67.83137 L 5.670106 62.161448 " transform="matrix(2,0,0,2,5.952756,6.169291)"/>
<path style="fill:none;stroke-width:0.566929;stroke-linecap:butt;stroke-linejoin:miter;stroke:rgb(100%,0%,0%);stroke-opacity:0.5;stroke-miterlimit:10;" d="M 5.670106 67.83137 L 0.000184547 62.161448 " transform="matrix(2,0,0,2,5.952756,6.169291)"/>
<path style="fill-rule:nonzero;fill:rgb(50%,50%,0%);fill-opacity:0.1;stroke-width:0.566929;stroke-linecap:butt;stroke-linejoin:miter;stroke:rgb(100%,0%,0%);stroke-opacity:0.5;stroke-miterlimit:10;" d="M 2.834169 65.104807 L 16.549013 65.104807 L 16.549013 59.526682 L 2.834169 59.526682 Z M 2.834169 65.104807 " transform="matrix(2,0,0,2,5.952756,6.169291)"/>
<path style=" stroke:none;fill-rule:nonzero;fill:rgb(0%,0%,0%);fill-opacity:1;" d="M 14.277344 130.128906 C 14.402344 127.160156 16.089844 126.660156 16.777344 126.660156 C 18.808594 126.660156 19.027344 129.347656 19.027344 130.128906 Z M 14.277344 130.566406 L 19.839844 130.566406 C 20.277344 130.566406 20.339844 130.566406 20.339844 130.128906 C 20.339844 128.160156 19.246094 126.222656 16.777344 126.222656 C 14.464844 126.222656 12.621094 128.285156 12.621094 130.785156 C 12.621094 133.441406 14.714844 135.378906 16.996094 135.378906 C 19.433594 135.378906 20.339844 133.160156 20.339844 132.785156 C 20.339844 132.597656 20.183594 132.535156 20.058594 132.535156 C 19.902344 132.535156 19.839844 132.660156 19.808594 132.816406 C 19.121094 134.878906 17.308594 134.878906 17.121094 134.878906 C 16.121094 134.878906 15.339844 134.285156 14.871094 133.535156 C 14.277344 132.597656 14.277344 131.285156 14.277344 130.566406 Z M 14.277344 130.566406 "/>
<path style=" stroke:none;fill-rule:nonzero;fill:rgb(0%,0%,0%);fill-opacity:1;" d="M 23.132812 130.128906 C 23.257812 127.160156 24.945312 126.660156 25.632812 126.660156 C 27.664062 126.660156 27.882812 129.347656 27.882812 130.128906 Z M 23.132812 130.566406 L 28.695312 130.566406 C 29.132812 130.566406 29.195312 130.566406 29.195312 130.128906 C 29.195312 128.160156 28.101562 126.222656 25.632812 126.222656 C 23.320312 126.222656 21.476562 128.285156 21.476562 130.785156 C 21.476562 133.441406 23.570312 135.378906 25.851562 135.378906 C 28.289062 135.378906 29.195312 133.160156 29.195312 132.785156 C 29.195312 132.597656 29.039062 132.535156 28.914062 132.535156 C 28.757812 132.535156 28.695312 132.660156 28.664062 132.816406 C 27.976562 134.878906 26.164062 134.878906 25.976562 134.878906 C 24.976562 134.878906 24.195312 134.285156 23.726562 133.535156 C 23.132812 132.597656 23.132812 131.285156 23.132812 130.566406 Z M 23.132812 130.566406 "/>
<path style=" stroke:none;fill-rule:nonzero;fill:rgb(0%,0%,0%);fill-opacity:1;" d="M 31.988281 130.128906 C 32.113281 127.160156 33.800781 126.660156 34.488281 126.660156 C 36.519531 126.660156 36.738281 129.347656 36.738281 130.128906 Z M 31.988281 130.566406 L 37.550781 130.566406 C 37.988281 130.566406 38.050781 130.566406 38.050781 130.128906 C 38.050781 128.160156 36.957031 126.222656 34.488281 126.222656 C 32.175781 126.222656 30.332031 128.285156 30.332031 130.785156 C 30.332031 133.441406 32.425781 135.378906 34.707031 135.378906 C 37.144531 135.378906 38.050781 133.160156 38.050781 132.785156 C 38.050781 132.597656 37.894531 132.535156 37.769531 132.535156 C 37.613281 132.535156 37.550781 132.660156 37.519531 132.816406 C 36.832031 134.878906 35.019531 134.878906 34.832031 134.878906 C 33.832031 134.878906 33.050781 134.285156 32.582031 133.535156 C 31.988281 132.597656 31.988281 131.285156 31.988281 130.566406 Z M 31.988281 130.566406 "/>
<path style="fill:none;stroke-width:0.566929;stroke-linecap:butt;stroke-linejoin:miter;stroke:rgb(100%,0%,0%);stroke-opacity:0.5;stroke-miterlimit:10;" d="M 36.174013 59.526682 L 41.843935 53.858714 " transform="matrix(2,0,0,2,5.952756,6.169291)"/>
<path style="fill:none;stroke-width:0.566929;stroke-linecap:butt;stroke-linejoin:miter;stroke:rgb(100%,0%,0%);stroke-opacity:0.5;stroke-miterlimit:10;" d="M 41.843935 59.526682 L 36.174013 53.858714 " transform="matrix(2,0,0,2,5.952756,6.169291)"/>
<path style="fill-rule:nonzero;fill:rgb(50%,50%,0%);fill-opacity:0.1;stroke-width:0.566929;stroke-linecap:butt;stroke-linejoin:miter;stroke:rgb(100%,0%,0%);stroke-opacity:0.5;stroke-miterlimit:10;" d="M 19.382997 70.39387 L 58.63495 70.39387 L 58.63495 56.692698 L 19.382997 56.692698 Z M 19.382997 70.39387 " transform="matrix(2,0,0,2,5.952756,6.169291)"/>
<path style="fill:none;stroke-width:0.566929;stroke-linecap:butt;stroke-linejoin:miter;stroke:rgb(100%,0%,0%);stroke-opacity:0.5;stroke-miterlimit:10;" d="M 19.382997 70.284495 L 25.052919 64.614573 " transform="matrix(2,0,0,2,5.952756,6.169291)"/>
<path style="fill:none;stroke-width:0.566929;stroke-linecap:butt;stroke-linejoin:miter;stroke:rgb(100%,0%,0%);stroke-opacity:0.5;stroke-miterlimit:10;" d="M 25.052919 70.284495 L 19.382997 64.614573 " transform="matrix(2,0,0,2,5.952756,6.169291)"/>
<path style="fill-rule:nonzero;fill:rgb(50%,50%,0%);fill-opacity:0.1;stroke-width:0.566929;stroke-linecap:butt;stroke-linejoin:miter;stroke:rgb(100%,0%,0%);stroke-opacity:0.5;stroke-miterlimit:10;" d="M 19.382997 70.39387 L 58.63495 70.39387 L 58.63495 56.692698 L 19.382997 56.692698 Z M 19.382997 70.39387 " transform="matrix(2,0,0,2,5.952756,6.169291)"/>
<path style="fill:none;stroke-width:0.566929;stroke-linecap:butt;stroke-linejoin:miter;stroke:rgb(100%,0%,0%);stroke-opacity:0.5;stroke-miterlimit:10;" d="M 19.382997 70.284495 L 25.052919 64.614573 " transform="matrix(2,0,0,2,5.952756,6.169291)"/>
<path style="fill:none;stroke-width:0.566929;stroke-linecap:butt;stroke-linejoin:miter;stroke:rgb(100%,0%,0%);stroke-opacity:0.5;stroke-miterlimit:10;" d="M 25.052919 70.284495 L 19.382997 64.614573 " transform="matrix(2,0,0,2,5.952756,6.169291)"/>
<path style="fill-rule:nonzero;fill:rgb(50%,50%,0%);fill-opacity:0.1;stroke-width:0.566929;stroke-linecap:butt;stroke-linejoin:miter;stroke:rgb(100%,0%,0%);stroke-opacity:0.5;stroke-miterlimit:10;" d="M 22.218935 67.557932 L 55.800966 67.557932 L 55.800966 59.526682 L 22.218935 59.526682 Z M 22.218935 67.557932 " transform="matrix(2,0,0,2,5.952756,6.169291)"/>
<path style=" stroke:none;fill-rule:nonzero;fill:rgb(0%,0%,0%);fill-opacity:1;" d="M 54.265625 132.535156 L 54.265625 126.222656 L 51.390625 126.441406 L 51.390625 127.066406 C 52.796875 127.066406 52.953125 127.191406 52.953125 128.191406 L 52.953125 140.066406 L 53.453125 140.066406 C 53.453125 140.035156 53.609375 139.753906 54.171875 138.816406 C 54.453125 139.285156 55.296875 140.285156 56.765625 140.285156 C 59.140625 140.285156 61.203125 138.316406 61.203125 135.753906 C 61.203125 133.222656 59.265625 131.253906 56.984375 131.253906 C 55.421875 131.253906 54.578125 132.191406 54.265625 132.535156 Z M 54.328125 137.785156 L 54.328125 133.691406 C 54.328125 133.316406 54.328125 133.285156 54.546875 132.972656 C 55.328125 131.847656 56.421875 131.691406 56.890625 131.691406 C 57.796875 131.691406 58.515625 132.222656 58.984375 132.972656 C 59.515625 133.785156 59.546875 134.910156 59.546875 135.753906 C 59.546875 136.472656 59.515625 137.660156 58.953125 138.566406 C 58.515625 139.191406 57.765625 139.847656 56.703125 139.847656 C 55.796875 139.847656 55.078125 139.378906 54.609375 138.628906 C 54.328125 138.222656 54.328125 138.160156 54.328125 137.785156 Z M 54.328125 137.785156 "/>
<path style=" stroke:none;fill-rule:nonzero;fill:rgb(0%,0%,0%);fill-opacity:1;" d="M 65.335938 132.535156 L 65.335938 126.222656 L 62.460938 126.441406 L 62.460938 127.066406 C 63.867188 127.066406 64.023438 127.191406 64.023438 128.191406 L 64.023438 140.066406 L 64.523438 140.066406 C 64.523438 140.035156 64.679688 139.753906 65.242188 138.816406 C 65.523438 139.285156 66.367188 140.285156 67.835938 140.285156 C 70.210938 140.285156 72.273438 138.316406 72.273438 135.753906 C 72.273438 133.222656 70.335938 131.253906 68.054688 131.253906 C 66.492188 131.253906 65.648438 132.191406 65.335938 132.535156 Z M 65.398438 137.785156 L 65.398438 133.691406 C 65.398438 133.316406 65.398438 133.285156 65.617188 132.972656 C 66.398438 131.847656 67.492188 131.691406 67.960938 131.691406 C 68.867188 131.691406 69.585938 132.222656 70.054688 132.972656 C 70.585938 133.785156 70.617188 134.910156 70.617188 135.753906 C 70.617188 136.472656 70.585938 137.660156 70.023438 138.566406 C 69.585938 139.191406 68.835938 139.847656 67.773438 139.847656 C 66.867188 139.847656 66.148438 139.378906 65.679688 138.628906 C 65.398438 138.222656 65.398438 138.160156 65.398438 137.785156 Z M 65.398438 137.785156 "/>
<path style=" stroke:none;fill-rule:nonzero;fill:rgb(0%,0%,0%);fill-opacity:1;" d="M 76.40625 132.535156 L 76.40625 126.222656 L 73.53125 126.441406 L 73.53125 127.066406 C 74.9375 127.066406 75.09375 127.191406 75.09375 128.191406 L 75.09375 140.066406 L 75.59375 140.066406 C 75.59375 140.035156 75.75 139.753906 76.3125 138.816406 C 76.59375 139.285156 77.4375 140.285156 78.90625 140.285156 C 81.28125 140.285156 83.34375 138.316406 83.34375 135.753906 C 83.34375 133.222656 81.40625 131.253906 79.125 131.253906 C 77.5625 131.253906 76.71875 132.191406 76.40625 132.535156 Z M 76.46875 137.785156 L 76.46875 133.691406 C 76.46875 133.316406 76.46875 133.285156 76.6875 132.972656 C 77.46875 131.847656 78.5625 131.691406 79.03125 131.691406 C 79.9375 131.691406 80.65625 132.222656 81.125 132.972656 C 81.65625 133.785156 81.6875 134.910156 81.6875 135.753906 C 81.6875 136.472656 81.65625 137.660156 81.09375 138.566406 C 80.65625 139.191406 79.90625 139.847656 78.84375 139.847656 C 77.9375 139.847656 77.21875 139.378906 76.75 138.628906 C 76.46875 138.222656 76.46875 138.160156 76.46875 137.785156 Z M 76.46875 137.785156 "/>
<path style=" stroke:none;fill-rule:nonzero;fill:rgb(0%,0%,0%);fill-opacity:1;" d="M 87.476562 132.535156 L 87.476562 126.222656 L 84.601562 126.441406 L 84.601562 127.066406 C 86.007812 127.066406 86.164062 127.191406 86.164062 128.191406 L 86.164062 140.066406 L 86.664062 140.066406 C 86.664062 140.035156 86.820312 139.753906 87.382812 138.816406 C 87.664062 139.285156 88.507812 140.285156 89.976562 140.285156 C 92.351562 140.285156 94.414062 138.316406 94.414062 135.753906 C 94.414062 133.222656 92.476562 131.253906 90.195312 131.253906 C 88.632812 131.253906 87.789062 132.191406 87.476562 132.535156 Z M 87.539062 137.785156 L 87.539062 133.691406 C 87.539062 133.316406 87.539062 133.285156 87.757812 132.972656 C 88.539062 131.847656 89.632812 131.691406 90.101562 131.691406 C 91.007812 131.691406 91.726562 132.222656 92.195312 132.972656 C 92.726562 133.785156 92.757812 134.910156 92.757812 135.753906 C 92.757812 136.472656 92.726562 137.660156 92.164062 138.566406 C 91.726562 139.191406 90.976562 139.847656 89.914062 139.847656 C 89.007812 139.847656 88.289062 139.378906 87.820312 138.628906 C 87.539062 138.222656 87.539062 138.160156 87.539062 137.785156 Z M 87.539062 137.785156 "/>
<path style=" stroke:none;fill-rule:nonzero;fill:rgb(0%,0%,0%);fill-opacity:1;" d="M 98.546875 132.535156 L 98.546875 126.222656 L 95.671875 126.441406 L 95.671875 127.066406 C 97.078125 127.066406 97.234375 127.191406 97.234375 128.191406 L 97.234375 140.066406 L 97.734375 140.066406 C 97.734375 140.035156 97.890625 139.753906 98.453125 138.816406 C 98.734375 139.285156 99.578125 140.285156 101.046875 140.285156 C 103.421875 140.285156 105.484375 138.316406 105.484375 135.753906 C 105.484375 133.222656 103.546875 131.253906 101.265625 131.253906 C 99.703125 131.253906 98.859375 132.191406 98.546875 132.535156 Z M 98.609375 137.785156 L 98.609375 133.691406 C 98.609375 133.316406 98.609375 133.285156 98.828125 132.972656 C 99.609375 131.847656 100.703125 131.691406 101.171875 131.691406 C 102.078125 131.691406 102.796875 132.222656 103.265625 132.972656 C 103.796875 133.785156 103.828125 134.910156 103.828125 135.753906 C 103.828125 136.472656 103.796875 137.660156 103.234375 138.566406 C 102.796875 139.191406 102.046875 139.847656 100.984375 139.847656 C 100.078125 139.847656 99.359375 139.378906 98.890625 138.628906 C 98.609375 138.222656 98.609375 138.160156 98.609375 137.785156 Z M 98.609375 137.785156 "/>
<path style=" stroke:none;fill-rule:nonzero;fill:rgb(0%,0%,0%);fill-opacity:1;" d="M 109.617188 132.535156 L 109.617188 126.222656 L 106.742188 126.441406 L 106.742188 127.066406 C 108.148438 127.066406 108.304688 127.191406 108.304688 128.191406 L 108.304688 140.066406 L 108.804688 140.066406 C 108.804688 140.035156 108.960938 139.753906 109.523438 138.816406 C 109.804688 139.285156 110.648438 140.285156 112.117188 140.285156 C 114.492188 140.285156 116.554688 138.316406 116.554688 135.753906 C 116.554688 133.222656 114.617188 131.253906 112.335938 131.253906 C 110.773438 131.253906 109.929688 132.191406 109.617188 132.535156 Z M 109.679688 137.785156 L 109.679688 133.691406 C 109.679688 133.316406 109.679688 133.285156 109.898438 132.972656 C 110.679688 131.847656 111.773438 131.691406 112.242188 131.691406 C 113.148438 131.691406 113.867188 132.222656 114.335938 132.972656 C 114.867188 133.785156 114.898438 134.910156 114.898438 135.753906 C 114.898438 136.472656 114.867188 137.660156 114.304688 138.566406 C 113.867188 139.191406 113.117188 139.847656 112.054688 139.847656 C 111.148438 139.847656 110.429688 139.378906 109.960938 138.628906 C 109.679688 138.222656 109.679688 138.160156 109.679688 137.785156 Z M 109.679688 137.785156 "/>
<path style="fill:none;stroke-width:0.566929;stroke-linecap:butt;stroke-linejoin:miter;stroke:rgb(100%,0%,0%);stroke-opacity:0.5;stroke-miterlimit:10;" d="M 78.773622 59.526682 L 84.443544 53.858714 " transform="matrix(2,0,0,2,5.952756,6.169291)"/>
<path style="fill:none;stroke-width:0.566929;stroke-linecap:butt;stroke-linejoin:miter;stroke:rgb(100%,0%,0%);stroke-opacity:0.5;stroke-miterlimit:10;" d="M 84.443544 59.526682 L 78.773622 53.858714 " transform="matrix(2,0,0,2,5.952756,6.169291)"/>
<path style="fill-rule:nonzero;fill:rgb(50%,50%,0%);fill-opacity:0.1;stroke-width:0.566929;stroke-linecap:butt;stroke-linejoin:miter;stroke:rgb(100%,0%,0%);stroke-opacity:0.5;stroke-miterlimit:10;" d="M 58.63495 67.940745 L 104.582216 67.940745 L 104.582216 56.692698 L 58.63495 56.692698 Z M 58.63495 67.940745 " transform="matrix(2,0,0,2,5.952756,6.169291)"/>
<path style="fill:none;stroke-width:0.566929;stroke-linecap:butt;stroke-linejoin:miter;stroke:rgb(100%,0%,0%);stroke-opacity:0.5;stroke-miterlimit:10;" d="M 58.63495 67.83137 L 64.304872 62.161448 " transform="matrix(2,0,0,2,5.952756,6.169291)"/>
<path style="fill:none;stroke-width:0.566929;stroke-linecap:butt;stroke-linejoin:miter;stroke:rgb(100%,0%,0%);stroke-opacity:0.5;stroke-miterlimit:10;" d="M 64.304872 67.83137 L 58.63495 62.161448 " transform="matrix(2,0,0,2,5.952756,6.169291)"/>
<path style="fill-rule:nonzero;fill:rgb(50%,50%,0%);fill-opacity:0.1;stroke-width:0.566929;stroke-linecap:butt;stroke-linejoin:miter;stroke:rgb(100%,0%,0%);stroke-opacity:0.5;stroke-miterlimit:10;" d="M 58.63495 67.940745 L 104.582216 67.940745 L 104.582216 56.692698 L 58.63495 56.692698 Z M 58.63495 67.940745 " transform="matrix(2,0,0,2,5.952756,6.169291)"/>
<path style="fill:none;stroke-width:0.566929;stroke-linecap:butt;stroke-linejoin:miter;stroke:rgb(100%,0%,0%);stroke-opacity:0.5;stroke-miterlimit:10;" d="M 58.63495 67.83137 L 64.304872 62.161448 " transform="matrix(2,0,0,2,5.952756,6.169291)"/>
<path style="fill:none;stroke-width:0.566929;stroke-linecap:butt;stroke-linejoin:miter;stroke:rgb(100%,0%,0%);stroke-opacity:0.5;stroke-miterlimit:10;" d="M 64.304872 67.83137 L 58.63495 62.161448 " transform="matrix(2,0,0,2,5.952756,6.169291)"/>
<path style="fill-rule:nonzero;fill:rgb(50%,50%,0%);fill-opacity:0.1;stroke-width:0.566929;stroke-linecap:butt;stroke-linejoin:miter;stroke:rgb(100%,0%,0%);stroke-opacity:0.5;stroke-miterlimit:10;" d="M 61.468935 65.104807 L 101.748231 65.104807 L 101.748231 59.526682 L 61.468935 59.526682 Z M 61.468935 65.104807 " transform="matrix(2,0,0,2,5.952756,6.169291)"/>
<path style=" stroke:none;fill-rule:nonzero;fill:rgb(0%,0%,0%);fill-opacity:1;" d="M 131.546875 130.128906 C 131.671875 127.160156 133.359375 126.660156 134.046875 126.660156 C 136.078125 126.660156 136.296875 129.347656 136.296875 130.128906 Z M 131.546875 130.566406 L 137.109375 130.566406 C 137.546875 130.566406 137.609375 130.566406 137.609375 130.128906 C 137.609375 128.160156 136.515625 126.222656 134.046875 126.222656 C 131.734375 126.222656 129.890625 128.285156 129.890625 130.785156 C 129.890625 133.441406 131.984375 135.378906 134.265625 135.378906 C 136.703125 135.378906 137.609375 133.160156 137.609375 132.785156 C 137.609375 132.597656 137.453125 132.535156 137.328125 132.535156 C 137.171875 132.535156 137.109375 132.660156 137.078125 132.816406 C 136.390625 134.878906 134.578125 134.878906 134.390625 134.878906 C 133.390625 134.878906 132.609375 134.285156 132.140625 133.535156 C 131.546875 132.597656 131.546875 131.285156 131.546875 130.566406 Z M 131.546875 130.566406 "/>
<path style=" stroke:none;fill-rule:nonzero;fill:rgb(0%,0%,0%);fill-opacity:1;" d="M 140.402344 130.128906 C 140.527344 127.160156 142.214844 126.660156 142.902344 126.660156 C 144.933594 126.660156 145.152344 129.347656 145.152344 130.128906 Z M 140.402344 130.566406 L 145.964844 130.566406 C 146.402344 130.566406 146.464844 130.566406 146.464844 130.128906 C 146.464844 128.160156 145.371094 126.222656 142.902344 126.222656 C 140.589844 126.222656 138.746094 128.285156 138.746094 130.785156 C 138.746094 133.441406 140.839844 135.378906 143.121094 135.378906 C 145.558594 135.378906 146.464844 133.160156 146.464844 132.785156 C 146.464844 132.597656 146.308594 132.535156 146.183594 132.535156 C 146.027344 132.535156 145.964844 132.660156 145.933594 132.816406 C 145.246094 134.878906 143.433594 134.878906 143.246094 134.878906 C 142.246094 134.878906 141.464844 134.285156 140.996094 133.535156 C 140.402344 132.597656 140.402344 131.285156 140.402344 130.566406 Z M 140.402344 130.566406 "/>
<path style=" stroke:none;fill-rule:nonzero;fill:rgb(0%,0%,0%);fill-opacity:1;" d="M 149.257812 130.128906 C 149.382812 127.160156 151.070312 126.660156 151.757812 126.660156 C 153.789062 126.660156 154.007812 129.347656 154.007812 130.128906 Z M 149.257812 130.566406 L 154.820312 130.566406 C 155.257812 130.566406 155.320312 130.566406 155.320312 130.128906 C 155.320312 128.160156 154.226562 126.222656 151.757812 126.222656 C 149.445312 126.222656 147.601562 128.285156 147.601562 130.785156 C 147.601562 133.441406 149.695312 135.378906 151.976562 135.378906 C 154.414062 135.378906 155.320312 133.160156 155.320312 132.785156 C 155.320312 132.597656 155.164062 132.535156 155.039062 132.535156 C 154.882812 132.535156 154.820312 132.660156 154.789062 132.816406 C 154.101562 134.878906 152.289062 134.878906 152.101562 134.878906 C 151.101562 134.878906 150.320312 134.285156 149.851562 133.535156 C 149.257812 132.597656 149.257812 131.285156 149.257812 130.566406 Z M 149.257812 130.566406 "/>
<path style=" stroke:none;fill-rule:nonzero;fill:rgb(0%,0%,0%);fill-opacity:1;" d="M 158.113281 130.128906 C 158.238281 127.160156 159.925781 126.660156 160.613281 126.660156 C 162.644531 126.660156 162.863281 129.347656 162.863281 130.128906 Z M 158.113281 130.566406 L 163.675781 130.566406 C 164.113281 130.566406 164.175781 130.566406 164.175781 130.128906 C 164.175781 128.160156 163.082031 126.222656 160.613281 126.222656 C 158.300781 126.222656 156.457031 128.285156 156.457031 130.785156 C 156.457031 133.441406 158.550781 135.378906 160.832031 135.378906 C 163.269531 135.378906 164.175781 133.160156 164.175781 132.785156 C 164.175781 132.597656 164.019531 132.535156 163.894531 132.535156 C 163.738281 132.535156 163.675781 132.660156 163.644531 132.816406 C 162.957031 134.878906 161.144531 134.878906 160.957031 134.878906 C 159.957031 134.878906 159.175781 134.285156 158.707031 133.535156 C 158.113281 132.597656 158.113281 131.285156 158.113281 130.566406 Z M 158.113281 130.566406 "/>
<path style=" stroke:none;fill-rule:nonzero;fill:rgb(0%,0%,0%);fill-opacity:1;" d="M 166.96875 130.128906 C 167.09375 127.160156 168.78125 126.660156 169.46875 126.660156 C 171.5 126.660156 171.71875 129.347656 171.71875 130.128906 Z M 166.96875 130.566406 L 172.53125 130.566406 C 172.96875 130.566406 173.03125 130.566406 173.03125 130.128906 C 173.03125 128.160156 171.9375 126.222656 169.46875 126.222656 C 167.15625 126.222656 165.3125 128.285156 165.3125 130.785156 C 165.3125 133.441406 167.40625 135.378906 169.6875 135.378906 C 172.125 135.378906 173.03125 133.160156 173.03125 132.785156 C 173.03125 132.597656 172.875 132.535156 172.75 132.535156 C 172.59375 132.535156 172.53125 132.660156 172.5 132.816406 C 171.8125 134.878906 170 134.878906 169.8125 134.878906 C 168.8125 134.878906 168.03125 134.285156 167.5625 133.535156 C 166.96875 132.597656 166.96875 131.285156 166.96875 130.566406 Z M 166.96875 130.566406 "/>
<path style=" stroke:none;fill-rule:nonzero;fill:rgb(0%,0%,0%);fill-opacity:1;" d="M 175.820312 130.128906 C 175.945312 127.160156 177.632812 126.660156 178.320312 126.660156 C 180.351562 126.660156 180.570312 129.347656 180.570312 130.128906 Z M 175.820312 130.566406 L 181.382812 130.566406 C 181.820312 130.566406 181.882812 130.566406 181.882812 130.128906 C 181.882812 128.160156 180.789062 126.222656 178.320312 126.222656 C 176.007812 126.222656 174.164062 128.285156 174.164062 130.785156 C 174.164062 133.441406 176.257812 135.378906 178.539062 135.378906 C 180.976562 135.378906 181.882812 133.160156 181.882812 132.785156 C 181.882812 132.597656 181.726562 132.535156 181.601562 132.535156 C 181.445312 132.535156 181.382812 132.660156 181.351562 132.816406 C 180.664062 134.878906 178.851562 134.878906 178.664062 134.878906 C 177.664062 134.878906 176.882812 134.285156 176.414062 133.535156 C 175.820312 132.597656 175.820312 131.285156 175.820312 130.566406 Z M 175.820312 130.566406 "/>
<path style=" stroke:none;fill-rule:nonzero;fill:rgb(0%,0%,0%);fill-opacity:1;" d="M 184.675781 130.128906 C 184.800781 127.160156 186.488281 126.660156 187.175781 126.660156 C 189.207031 126.660156 189.425781 129.347656 189.425781 130.128906 Z M 184.675781 130.566406 L 190.238281 130.566406 C 190.675781 130.566406 190.738281 130.566406 190.738281 130.128906 C 190.738281 128.160156 189.644531 126.222656 187.175781 126.222656 C 184.863281 126.222656 183.019531 128.285156 183.019531 130.785156 C 183.019531 133.441406 185.113281 135.378906 187.394531 135.378906 C 189.832031 135.378906 190.738281 133.160156 190.738281 132.785156 C 190.738281 132.597656 190.582031 132.535156 190.457031 132.535156 C 190.300781 132.535156 190.238281 132.660156 190.207031 132.816406 C 189.519531 134.878906 187.707031 134.878906 187.519531 134.878906 C 186.519531 134.878906 185.738281 134.285156 185.269531 133.535156 C 184.675781 132.597656 184.675781 131.285156 184.675781 130.566406 Z M 184.675781 130.566406 "/>
<path style=" stroke:none;fill-rule:nonzero;fill:rgb(0%,0%,0%);fill-opacity:1;" d="M 193.53125 130.128906 C 193.65625 127.160156 195.34375 126.660156 196.03125 126.660156 C 198.0625 126.660156 198.28125 129.347656 198.28125 130.128906 Z M 193.53125 130.566406 L 199.09375 130.566406 C 199.53125 130.566406 199.59375 130.566406 199.59375 130.128906 C 199.59375 128.160156 198.5 126.222656 196.03125 126.222656 C 193.71875 126.222656 191.875 128.285156 191.875 130.785156 C 191.875 133.441406 193.96875 135.378906 196.25 135.378906 C 198.6875 135.378906 199.59375 133.160156 199.59375 132.785156 C 199.59375 132.597656 199.4375 132.535156 199.3125 132.535156 C 199.15625 132.535156 199.09375 132.660156 199.0625 132.816406 C 198.375 134.878906 196.5625 134.878906 196.375 134.878906 C 195.375 134.878906 194.59375 134.285156 194.125 133.535156 C 193.53125 132.597656 193.53125 131.285156 193.53125 130.566406 Z M 193.53125 130.566406 "/>
<path style=" stroke:none;fill-rule:nonzero;fill:rgb(0%,0%,0%);fill-opacity:1;" d="M 202.386719 130.128906 C 202.511719 127.160156 204.199219 126.660156 204.886719 126.660156 C 206.917969 126.660156 207.136719 129.347656 207.136719 130.128906 Z M 202.386719 130.566406 L 207.949219 130.566406 C 208.386719 130.566406 208.449219 130.566406 208.449219 130.128906 C 208.449219 128.160156 207.355469 126.222656 204.886719 126.222656 C 202.574219 126.222656 200.730469 128.285156 200.730469 130.785156 C 200.730469 133.441406 202.824219 135.378906 205.105469 135.378906 C 207.542969 135.378906 208.449219 133.160156 208.449219 132.785156 C 208.449219 132.597656 208.292969 132.535156 208.167969 132.535156 C 208.011719 132.535156 207.949219 132.660156 207.917969 132.816406 C 207.230469 134.878906 205.417969 134.878906 205.230469 134.878906 C 204.230469 134.878906 203.449219 134.285156 202.980469 133.535156 C 202.386719 132.597656 202.386719 131.285156 202.386719 130.566406 Z M 202.386719 130.566406 "/>
<path style="fill:none;stroke-width:0.566929;stroke-linecap:butt;stroke-linejoin:miter;stroke:rgb(100%,0%,0%);stroke-opacity:0.5;stroke-miterlimit:10;" d="M 101.748231 59.526682 L 107.418153 53.858714 " transform="matrix(2,0,0,2,5.952756,6.169291)"/>
<path style="fill:none;stroke-width:0.566929;stroke-linecap:butt;stroke-linejoin:miter;stroke:rgb(100%,0%,0%);stroke-opacity:0.5;stroke-miterlimit:10;" d="M 107.418153 59.526682 L 101.748231 53.858714 " transform="matrix(2,0,0,2,5.952756,6.169291)"/>
<path style="fill:none;stroke-width:0.566929;stroke-linecap:butt;stroke-linejoin:miter;stroke:rgb(100%,0%,0%);stroke-opacity:0.5;stroke-miterlimit:10;" d="M 104.582216 85.038401 L 104.582216 56.692698 Z M 104.582216 85.038401 " transform="matrix(2,0,0,2,5.952756,6.169291)"/>
</g>
</svg>
