<?xml version="1.0" encoding="UTF-8"?>
<svg xmlns="http://www.w3.org/2000/svg" xmlns:xlink="http://www.w3.org/1999/xlink" width="246pt" height="181pt" viewBox="0 0 246 181" version="1.1">
<g id="surface245">
<path style="fill:none;stroke-width:0.566929;stroke-linecap:butt;stroke-linejoin:miter;stroke:rgb(100%,0%,0%);stroke-opacity:0.5;stroke-miterlimit:10;" d="M -2.833984 2.833984 L 2.833984 -2.833984 " transform="matrix(2,0,0,2,8,8)"/>
<path style="fill:none;stroke-width:0.566929;stroke-linecap:butt;stroke-linejoin:miter;stroke:rgb(100%,0%,0%);stroke-opacity:0.5;stroke-miterlimit:10;" d="M 2.833984 2.833984 L -2.833984 -2.833984 " transform="matrix(2,0,0,2,8,8)"/>
<path style="fill-rule:nonzero;fill:rgb(50%,50%,0%);fill-opacity:0.1;stroke-width:0.566929;stroke-linecap:butt;stroke-linejoin:miter;stroke:rgb(100%,0%,0%);stroke-opacity:0.5;stroke-miterlimit:10;" d="M 0 85.039062 L 115.011719 85.039062 L 115.011719 0 L 0 0 Z M 0 85.039062 " transform="matrix(2,0,0,2,8,8)"/>
<path style="fill:none;stroke-width:0.566929;stroke-linecap:butt;stroke-linejoin:miter;stroke:rgb(100%,0%,0%);stroke-opacity:0.5;stroke-miterlimit:10;" d="M 7.753906 2.833984 L 13.423828 -2.833984 " transform="matrix(2,0,0,2,8,8)"/>
<path style="fill:none;stroke-width:0.566929;stroke-linecap:butt;stroke-linejoin:miter;stroke:rgb(100%,0%,0%);stroke-opacity:0.5;stroke-miterlimit:10;" d="M 13.423828 2.833984 L 7.753906 -2.833984 " transform="matrix(2,0,0,2,8,8)"/>
<path style="fill-rule:nonzero;fill:rgb(50%,50%,0%);fill-opacity:0.1;stroke-width:0.566929;stroke-linecap:butt;stroke-linejoin:miter;stroke:rgb(100%,0%,0%);stroke-opacity:0.5;stroke-miterlimit:10;" d="M 4.746094 10.966797 L 16.431641 10.966797 L 16.431641 0 L 4.746094 0 Z M 4.746094 10.966797 " transform="matrix(2,0,0,2,8,8)"/>
<path style="fill:none;stroke-width:0.566929;stroke-linecap:butt;stroke-linejoin:miter;stroke:rgb(100%,0%,0%);stroke-opacity:0.5;stroke-miterlimit:10;" d="M 4.746094 10.966797 L 10.416016 5.296875 " transform="matrix(2,0,0,2,8,8)"/>
<path style="fill:none;stroke-width:0.566929;stroke-linecap:butt;stroke-linejoin:miter;stroke:rgb(100%,0%,0%);stroke-opacity:0.5;stroke-miterlimit:10;" d="M 10.416016 10.966797 L 4.746094 5.296875 " transform="matrix(2,0,0,2,8,8)"/>
<path style="fill-rule:nonzero;fill:rgb(50%,50%,0%);fill-opacity:0.1;stroke-width:0.566929;stroke-linecap:butt;stroke-linejoin:miter;stroke:rgb(100%,0%,0%);stroke-opacity:0.5;stroke-miterlimit:10;" d="M 4.746094 10.966797 L 16.431641 10.966797 L 16.431641 0 L 4.746094 0 Z M 4.746094 10.966797 " transform="matrix(2,0,0,2,8,8)"/>
<path style="fill:none;stroke-width:0.566929;stroke-linecap:butt;stroke-linejoin:miter;stroke:rgb(100%,0%,0%);stroke-opacity:0.5;stroke-miterlimit:10;" d="M 4.746094 10.966797 L 10.416016 5.296875 " transform="matrix(2,0,0,2,8,8)"/>
<path style="fill:none;stroke-width:0.566929;stroke-linecap:butt;stroke-linejoin:miter;stroke:rgb(100%,0%,0%);stroke-opacity:0.5;stroke-miterlimit:10;" d="M 10.416016 10.966797 L 4.746094 5.296875 " transform="matrix(2,0,0,2,8,8)"/>
<path style="fill-rule:nonzero;fill:rgb(50%,50%,0%);fill-opacity:0.1;stroke-width:0.566929;stroke-linecap:butt;stroke-linejoin:miter;stroke:rgb(100%,0%,0%);stroke-opacity:0.5;stroke-miterlimit:10;" d="M 7.582031 8.130859 L 13.597656 8.130859 L 13.597656 2.833984 L 7.582031 2.833984 Z M 7.582031 8.130859 " transform="matrix(2,0,0,2,8,8)"/>
<path style=" stroke:none;fill-rule:nonzero;fill:rgb(0%,0%,0%);fill-opacity:1;" d="M 29.632812 18.574219 C 30.226562 17.824219 30.976562 16.855469 31.476562 16.324219 C 32.101562 15.605469 32.914062 15.292969 33.851562 15.292969 L 33.851562 14.667969 C 33.320312 14.699219 32.726562 14.730469 32.195312 14.730469 C 31.601562 14.730469 30.539062 14.699219 30.289062 14.667969 L 30.289062 15.292969 C 30.726562 15.324219 30.882812 15.574219 30.882812 15.917969 C 30.882812 16.230469 30.664062 16.480469 30.570312 16.605469 L 29.351562 18.167969 L 27.789062 16.136719 C 27.601562 15.949219 27.601562 15.917969 27.601562 15.792969 C 27.601562 15.480469 27.914062 15.292969 28.289062 15.292969 L 28.289062 14.667969 C 27.789062 14.699219 26.476562 14.730469 26.132812 14.730469 C 25.726562 14.730469 24.789062 14.699219 24.257812 14.667969 L 24.257812 15.292969 C 25.664062 15.292969 25.664062 15.292969 26.601562 16.511719 L 28.570312 19.074219 L 26.695312 21.449219 C 25.757812 22.605469 24.570312 22.636719 24.164062 22.636719 L 24.164062 23.261719 C 24.664062 23.230469 25.289062 23.199219 25.820312 23.199219 C 26.382812 23.199219 27.226562 23.230469 27.695312 23.261719 L 27.695312 22.636719 C 27.257812 22.574219 27.132812 22.324219 27.132812 22.011719 C 27.132812 21.574219 27.695312 20.917969 28.914062 19.480469 L 30.445312 21.480469 C 30.601562 21.699219 30.851562 22.011719 30.851562 22.136719 C 30.851562 22.324219 30.664062 22.636719 30.132812 22.636719 L 30.132812 23.261719 C 30.726562 23.230469 31.851562 23.199219 32.289062 23.199219 C 32.820312 23.199219 33.601562 23.230469 34.195312 23.261719 L 34.195312 22.636719 C 33.132812 22.636719 32.757812 22.605469 32.320312 22.011719 Z M 29.632812 18.574219 "/>
<path style="fill:none;stroke-width:0.566929;stroke-linecap:butt;stroke-linejoin:miter;stroke:rgb(100%,0%,0%);stroke-opacity:0.5;stroke-miterlimit:10;" d="M 37.332031 2.833984 L 43.001953 -2.833984 " transform="matrix(2,0,0,2,8,8)"/>
<path style="fill:none;stroke-width:0.566929;stroke-linecap:butt;stroke-linejoin:miter;stroke:rgb(100%,0%,0%);stroke-opacity:0.5;stroke-miterlimit:10;" d="M 43.001953 2.833984 L 37.332031 -2.833984 " transform="matrix(2,0,0,2,8,8)"/>
<path style="fill-rule:nonzero;fill:rgb(50%,50%,0%);fill-opacity:0.1;stroke-width:0.566929;stroke-linecap:butt;stroke-linejoin:miter;stroke:rgb(100%,0%,0%);stroke-opacity:0.5;stroke-miterlimit:10;" d="M 33.832031 13.701172 L 46.501953 13.701172 L 46.501953 0 L 33.832031 0 Z M 33.832031 13.701172 " transform="matrix(2,0,0,2,8,8)"/>
<path style="fill:none;stroke-width:0.566929;stroke-linecap:butt;stroke-linejoin:miter;stroke:rgb(100%,0%,0%);stroke-opacity:0.5;stroke-miterlimit:10;" d="M 33.832031 13.701172 L 39.501953 8.03125 " transform="matrix(2,0,0,2,8,8)"/>
<path style="fill:none;stroke-width:0.566929;stroke-linecap:butt;stroke-linejoin:miter;stroke:rgb(100%,0%,0%);stroke-opacity:0.5;stroke-miterlimit:10;" d="M 39.501953 13.701172 L 33.832031 8.03125 " transform="matrix(2,0,0,2,8,8)"/>
<path style="fill-rule:nonzero;fill:rgb(50%,50%,0%);fill-opacity:0.1;stroke-width:0.566929;stroke-linecap:butt;stroke-linejoin:miter;stroke:rgb(100%,0%,0%);stroke-opacity:0.5;stroke-miterlimit:10;" d="M 33.832031 13.701172 L 46.501953 13.701172 L 46.501953 0 L 33.832031 0 Z M 33.832031 13.701172 " transform="matrix(2,0,0,2,8,8)"/>
<path style="fill:none;stroke-width:0.566929;stroke-linecap:butt;stroke-linejoin:miter;stroke:rgb(100%,0%,0%);stroke-opacity:0.5;stroke-miterlimit:10;" d="M 33.832031 13.701172 L 39.501953 8.03125 " transform="matrix(2,0,0,2,8,8)"/>
<path style="fill:none;stroke-width:0.566929;stroke-linecap:butt;stroke-linejoin:miter;stroke:rgb(100%,0%,0%);stroke-opacity:0.5;stroke-miterlimit:10;" d="M 39.501953 13.701172 L 33.832031 8.03125 " transform="matrix(2,0,0,2,8,8)"/>
<path style="fill-rule:nonzero;fill:rgb(50%,50%,0%);fill-opacity:0.1;stroke-width:0.566929;stroke-linecap:butt;stroke-linejoin:miter;stroke:rgb(100%,0%,0%);stroke-opacity:0.5;stroke-miterlimit:10;" d="M 36.666016 10.865234 L 43.666016 10.865234 L 43.666016 2.833984 L 36.666016 2.833984 Z M 36.666016 10.865234 " transform="matrix(2,0,0,2,8,8)"/>
<path style=" stroke:none;fill-rule:nonzero;fill:rgb(0%,0%,0%);fill-opacity:1;" d="M 90.738281 20.761719 L 93.019531 20.761719 L 93.019531 20.136719 L 90.675781 20.136719 L 90.675781 17.824219 C 90.675781 16.042969 91.644531 15.105469 92.519531 15.105469 C 92.582031 15.105469 92.894531 15.105469 93.175781 15.261719 C 92.957031 15.324219 92.582031 15.605469 92.582031 16.105469 C 92.582031 16.542969 92.894531 16.949219 93.457031 16.949219 C 94.019531 16.949219 94.332031 16.542969 94.332031 16.074219 C 94.332031 15.355469 93.613281 14.667969 92.519531 14.667969 C 91.332031 14.667969 90.457031 15.417969 90.363281 15.511719 C 89.769531 14.761719 88.644531 14.667969 88.113281 14.667969 C 86.238281 14.667969 83.925781 15.699219 83.925781 17.855469 L 83.925781 20.136719 L 82.332031 20.136719 L 82.332031 20.761719 L 83.925781 20.761719 L 83.925781 27.230469 C 83.925781 28.105469 83.707031 28.105469 82.363281 28.105469 L 82.363281 28.730469 C 83.019531 28.699219 84.082031 28.667969 84.582031 28.667969 C 85.082031 28.667969 86.050781 28.699219 86.800781 28.730469 L 86.800781 28.105469 C 85.457031 28.105469 85.238281 28.105469 85.238281 27.230469 L 85.238281 20.761719 L 89.425781 20.761719 L 89.425781 27.230469 C 89.425781 28.105469 89.207031 28.105469 87.863281 28.105469 L 87.863281 28.730469 C 88.644531 28.699219 89.582031 28.667969 90.144531 28.667969 C 90.925781 28.667969 91.863281 28.667969 92.675781 28.730469 L 92.675781 28.105469 L 92.238281 28.105469 C 90.769531 28.105469 90.738281 27.886719 90.738281 27.167969 Z M 85.175781 20.136719 L 85.175781 17.886719 C 85.175781 15.949219 86.800781 15.105469 88.113281 15.105469 C 89.082031 15.105469 89.644531 15.480469 89.644531 15.480469 L 89.644531 15.511719 C 89.332031 15.542969 88.925781 15.824219 88.925781 16.355469 C 88.925781 16.480469 88.925781 16.980469 89.488281 17.167969 C 89.425781 17.417969 89.425781 17.605469 89.425781 17.855469 L 89.425781 20.136719 Z M 85.175781 20.136719 "/>
<path style="fill:none;stroke-width:0.566929;stroke-linecap:butt;stroke-linejoin:miter;stroke:rgb(100%,0%,0%);stroke-opacity:0.5;stroke-miterlimit:10;" d="M 84.248047 2.833984 L 89.917969 -2.833984 " transform="matrix(2,0,0,2,8,8)"/>
<path style="fill:none;stroke-width:0.566929;stroke-linecap:butt;stroke-linejoin:miter;stroke:rgb(100%,0%,0%);stroke-opacity:0.5;stroke-miterlimit:10;" d="M 89.917969 2.833984 L 84.248047 -2.833984 " transform="matrix(2,0,0,2,8,8)"/>
<path style="fill-rule:nonzero;fill:rgb(50%,50%,0%);fill-opacity:0.1;stroke-width:0.566929;stroke-linecap:butt;stroke-linejoin:miter;stroke:rgb(100%,0%,0%);stroke-opacity:0.5;stroke-miterlimit:10;" d="M 77.392578 11.248047 L 96.775391 11.248047 L 96.775391 0 L 77.392578 0 Z M 77.392578 11.248047 " transform="matrix(2,0,0,2,8,8)"/>
<path style="fill:none;stroke-width:0.566929;stroke-linecap:butt;stroke-linejoin:miter;stroke:rgb(100%,0%,0%);stroke-opacity:0.5;stroke-miterlimit:10;" d="M 77.392578 11.138672 L 83.060547 5.46875 " transform="matrix(2,0,0,2,8,8)"/>
<path style="fill:none;stroke-width:0.566929;stroke-linecap:butt;stroke-linejoin:miter;stroke:rgb(100%,0%,0%);stroke-opacity:0.5;stroke-miterlimit:10;" d="M 83.060547 11.138672 L 77.392578 5.46875 " transform="matrix(2,0,0,2,8,8)"/>
<path style="fill-rule:nonzero;fill:rgb(50%,50%,0%);fill-opacity:0.1;stroke-width:0.566929;stroke-linecap:butt;stroke-linejoin:miter;stroke:rgb(100%,0%,0%);stroke-opacity:0.5;stroke-miterlimit:10;" d="M 77.392578 11.248047 L 96.775391 11.248047 L 96.775391 0 L 77.392578 0 Z M 77.392578 11.248047 " transform="matrix(2,0,0,2,8,8)"/>
<path style="fill:none;stroke-width:0.566929;stroke-linecap:butt;stroke-linejoin:miter;stroke:rgb(100%,0%,0%);stroke-opacity:0.5;stroke-miterlimit:10;" d="M 77.392578 11.138672 L 83.060547 5.46875 " transform="matrix(2,0,0,2,8,8)"/>
<path style="fill:none;stroke-width:0.566929;stroke-linecap:butt;stroke-linejoin:miter;stroke:rgb(100%,0%,0%);stroke-opacity:0.5;stroke-miterlimit:10;" d="M 83.060547 11.138672 L 77.392578 5.46875 " transform="matrix(2,0,0,2,8,8)"/>
<path style="fill-rule:nonzero;fill:rgb(50%,50%,0%);fill-opacity:0.1;stroke-width:0.566929;stroke-linecap:butt;stroke-linejoin:miter;stroke:rgb(100%,0%,0%);stroke-opacity:0.5;stroke-miterlimit:10;" d="M 80.226562 8.412109 L 93.941406 8.412109 L 93.941406 2.833984 L 80.226562 2.833984 Z M 80.226562 8.412109 " transform="matrix(2,0,0,2,8,8)"/>
<path style=" stroke:none;fill-rule:nonzero;fill:rgb(0%,0%,0%);fill-opacity:1;" d="M 171.109375 18.574219 C 171.234375 15.605469 172.921875 15.105469 173.609375 15.105469 C 175.640625 15.105469 175.859375 17.792969 175.859375 18.574219 Z M 171.109375 19.011719 L 176.671875 19.011719 C 177.109375 19.011719 177.171875 19.011719 177.171875 18.574219 C 177.171875 16.605469 176.078125 14.667969 173.609375 14.667969 C 171.296875 14.667969 169.453125 16.730469 169.453125 19.230469 C 169.453125 21.886719 171.546875 23.824219 173.828125 23.824219 C 176.265625 23.824219 177.171875 21.605469 177.171875 21.230469 C 177.171875 21.042969 177.015625 20.980469 176.890625 20.980469 C 176.734375 20.980469 176.671875 21.105469 176.640625 21.261719 C 175.953125 23.324219 174.140625 23.324219 173.953125 23.324219 C 172.953125 23.324219 172.171875 22.730469 171.703125 21.980469 C 171.109375 21.042969 171.109375 19.730469 171.109375 19.011719 Z M 171.109375 19.011719 "/>
<path style=" stroke:none;fill-rule:nonzero;fill:rgb(0%,0%,0%);fill-opacity:1;" d="M 179.964844 18.574219 C 180.089844 15.605469 181.777344 15.105469 182.464844 15.105469 C 184.496094 15.105469 184.714844 17.792969 184.714844 18.574219 Z M 179.964844 19.011719 L 185.527344 19.011719 C 185.964844 19.011719 186.027344 19.011719 186.027344 18.574219 C 186.027344 16.605469 184.933594 14.667969 182.464844 14.667969 C 180.152344 14.667969 178.308594 16.730469 178.308594 19.230469 C 178.308594 21.886719 180.402344 23.824219 182.683594 23.824219 C 185.121094 23.824219 186.027344 21.605469 186.027344 21.230469 C 186.027344 21.042969 185.871094 20.980469 185.746094 20.980469 C 185.589844 20.980469 185.527344 21.105469 185.496094 21.261719 C 184.808594 23.324219 182.996094 23.324219 182.808594 23.324219 C 181.808594 23.324219 181.027344 22.730469 180.558594 21.980469 C 179.964844 21.042969 179.964844 19.730469 179.964844 19.011719 Z M 179.964844 19.011719 "/>
<path style=" stroke:none;fill-rule:nonzero;fill:rgb(0%,0%,0%);fill-opacity:1;" d="M 188.820312 18.574219 C 188.945312 15.605469 190.632812 15.105469 191.320312 15.105469 C 193.351562 15.105469 193.570312 17.792969 193.570312 18.574219 Z M 188.820312 19.011719 L 194.382812 19.011719 C 194.820312 19.011719 194.882812 19.011719 194.882812 18.574219 C 194.882812 16.605469 193.789062 14.667969 191.320312 14.667969 C 189.007812 14.667969 187.164062 16.730469 187.164062 19.230469 C 187.164062 21.886719 189.257812 23.824219 191.539062 23.824219 C 193.976562 23.824219 194.882812 21.605469 194.882812 21.230469 C 194.882812 21.042969 194.726562 20.980469 194.601562 20.980469 C 194.445312 20.980469 194.382812 21.105469 194.351562 21.261719 C 193.664062 23.324219 191.851562 23.324219 191.664062 23.324219 C 190.664062 23.324219 189.882812 22.730469 189.414062 21.980469 C 188.820312 21.042969 188.820312 19.730469 188.820312 19.011719 Z M 188.820312 19.011719 "/>
<path style="fill:none;stroke-width:0.566929;stroke-linecap:butt;stroke-linejoin:miter;stroke:rgb(100%,0%,0%);stroke-opacity:0.5;stroke-miterlimit:10;" d="M 112.177734 2.833984 L 117.847656 -2.833984 " transform="matrix(2,0,0,2,8,8)"/>
<path style="fill:none;stroke-width:0.566929;stroke-linecap:butt;stroke-linejoin:miter;stroke:rgb(100%,0%,0%);stroke-opacity:0.5;stroke-miterlimit:10;" d="M 117.847656 2.833984 L 112.177734 -2.833984 " transform="matrix(2,0,0,2,8,8)"/>
<path style="fill:none;stroke-width:0.566929;stroke-linecap:butt;stroke-linejoin:miter;stroke:rgb(100%,0%,0%);stroke-opacity:0.5;stroke-miterlimit:10;" d="M 115.011719 28.345703 L 115.011719 0 Z M 115.011719 28.345703 " transform="matrix(2,0,0,2,8,8)"/>
<path style="fill:none;stroke-width:0.566929;stroke-linecap:butt;stroke-linejoin:miter;stroke:rgb(100%,0%,0%);stroke-opacity:0.5;stroke-miterlimit:10;" d="M 7.753906 31.181641 L 13.423828 25.511719 " transform="matrix(2,0,0,2,8,8)"/>
<path style="fill:none;stroke-width:0.566929;stroke-linecap:butt;stroke-linejoin:miter;stroke:rgb(100%,0%,0%);stroke-opacity:0.5;stroke-miterlimit:10;" d="M 13.423828 31.181641 L 7.753906 25.511719 " transform="matrix(2,0,0,2,8,8)"/>
<path style="fill-rule:nonzero;fill:rgb(50%,50%,0%);fill-opacity:0.1;stroke-width:0.566929;stroke-linecap:butt;stroke-linejoin:miter;stroke:rgb(100%,0%,0%);stroke-opacity:0.5;stroke-miterlimit:10;" d="M 3.111328 39.59375 L 18.068359 39.59375 L 18.068359 28.345703 L 3.111328 28.345703 Z M 3.111328 39.59375 " transform="matrix(2,0,0,2,8,8)"/>
<path style="fill:none;stroke-width:0.566929;stroke-linecap:butt;stroke-linejoin:miter;stroke:rgb(100%,0%,0%);stroke-opacity:0.5;stroke-miterlimit:10;" d="M 3.111328 39.484375 L 8.78125 33.814453 " transform="matrix(2,0,0,2,8,8)"/>
<path style="fill:none;stroke-width:0.566929;stroke-linecap:butt;stroke-linejoin:miter;stroke:rgb(100%,0%,0%);stroke-opacity:0.5;stroke-miterlimit:10;" d="M 8.78125 39.484375 L 3.111328 33.814453 " transform="matrix(2,0,0,2,8,8)"/>
<path style="fill-rule:nonzero;fill:rgb(50%,50%,0%);fill-opacity:0.1;stroke-width:0.566929;stroke-linecap:butt;stroke-linejoin:miter;stroke:rgb(100%,0%,0%);stroke-opacity:0.5;stroke-miterlimit:10;" d="M 3.111328 39.59375 L 18.068359 39.59375 L 18.068359 28.345703 L 3.111328 28.345703 Z M 3.111328 39.59375 " transform="matrix(2,0,0,2,8,8)"/>
<path style="fill:none;stroke-width:0.566929;stroke-linecap:butt;stroke-linejoin:miter;stroke:rgb(100%,0%,0%);stroke-opacity:0.5;stroke-miterlimit:10;" d="M 3.111328 39.484375 L 8.78125 33.814453 " transform="matrix(2,0,0,2,8,8)"/>
<path style="fill:none;stroke-width:0.566929;stroke-linecap:butt;stroke-linejoin:miter;stroke:rgb(100%,0%,0%);stroke-opacity:0.5;stroke-miterlimit:10;" d="M 8.78125 39.484375 L 3.111328 33.814453 " transform="matrix(2,0,0,2,8,8)"/>
<path style="fill-rule:nonzero;fill:rgb(50%,50%,0%);fill-opacity:0.1;stroke-width:0.566929;stroke-linecap:butt;stroke-linejoin:miter;stroke:rgb(100%,0%,0%);stroke-opacity:0.5;stroke-miterlimit:10;" d="M 5.945312 36.759766 L 15.232422 36.759766 L 15.232422 31.181641 L 5.945312 31.181641 Z M 5.945312 36.759766 " transform="matrix(2,0,0,2,8,8)"/>
<path style=" stroke:none;fill-rule:nonzero;fill:rgb(0%,0%,0%);fill-opacity:1;" d="M 22.546875 75.269531 C 22.671875 72.300781 24.359375 71.800781 25.046875 71.800781 C 27.078125 71.800781 27.296875 74.488281 27.296875 75.269531 Z M 22.546875 75.707031 L 28.109375 75.707031 C 28.546875 75.707031 28.609375 75.707031 28.609375 75.269531 C 28.609375 73.300781 27.515625 71.363281 25.046875 71.363281 C 22.734375 71.363281 20.890625 73.425781 20.890625 75.925781 C 20.890625 78.582031 22.984375 80.519531 25.265625 80.519531 C 27.703125 80.519531 28.609375 78.300781 28.609375 77.925781 C 28.609375 77.738281 28.453125 77.675781 28.328125 77.675781 C 28.171875 77.675781 28.109375 77.800781 28.078125 77.957031 C 27.390625 80.019531 25.578125 80.019531 25.390625 80.019531 C 24.390625 80.019531 23.609375 79.425781 23.140625 78.675781 C 22.546875 77.738281 22.546875 76.425781 22.546875 75.707031 Z M 22.546875 75.707031 "/>
<path style=" stroke:none;fill-rule:nonzero;fill:rgb(0%,0%,0%);fill-opacity:1;" d="M 31.402344 75.269531 C 31.527344 72.300781 33.214844 71.800781 33.902344 71.800781 C 35.933594 71.800781 36.152344 74.488281 36.152344 75.269531 Z M 31.402344 75.707031 L 36.964844 75.707031 C 37.402344 75.707031 37.464844 75.707031 37.464844 75.269531 C 37.464844 73.300781 36.371094 71.363281 33.902344 71.363281 C 31.589844 71.363281 29.746094 73.425781 29.746094 75.925781 C 29.746094 78.582031 31.839844 80.519531 34.121094 80.519531 C 36.558594 80.519531 37.464844 78.300781 37.464844 77.925781 C 37.464844 77.738281 37.308594 77.675781 37.183594 77.675781 C 37.027344 77.675781 36.964844 77.800781 36.933594 77.957031 C 36.246094 80.019531 34.433594 80.019531 34.246094 80.019531 C 33.246094 80.019531 32.464844 79.425781 31.996094 78.675781 C 31.402344 77.738281 31.402344 76.425781 31.402344 75.707031 Z M 31.402344 75.707031 "/>
<path style="fill:none;stroke-width:0.566929;stroke-linecap:butt;stroke-linejoin:miter;stroke:rgb(100%,0%,0%);stroke-opacity:0.5;stroke-miterlimit:10;" d="M 37.332031 31.181641 L 43.001953 25.511719 " transform="matrix(2,0,0,2,8,8)"/>
<path style="fill:none;stroke-width:0.566929;stroke-linecap:butt;stroke-linejoin:miter;stroke:rgb(100%,0%,0%);stroke-opacity:0.5;stroke-miterlimit:10;" d="M 43.001953 31.181641 L 37.332031 25.511719 " transform="matrix(2,0,0,2,8,8)"/>
<path style="fill-rule:nonzero;fill:rgb(50%,50%,0%);fill-opacity:0.1;stroke-width:0.566929;stroke-linecap:butt;stroke-linejoin:miter;stroke:rgb(100%,0%,0%);stroke-opacity:0.5;stroke-miterlimit:10;" d="M 28.261719 39.59375 L 52.072266 39.59375 L 52.072266 28.345703 L 28.261719 28.345703 Z M 28.261719 39.59375 " transform="matrix(2,0,0,2,8,8)"/>
<path style="fill:none;stroke-width:0.566929;stroke-linecap:butt;stroke-linejoin:miter;stroke:rgb(100%,0%,0%);stroke-opacity:0.5;stroke-miterlimit:10;" d="M 28.261719 39.484375 L 33.931641 33.814453 " transform="matrix(2,0,0,2,8,8)"/>
<path style="fill:none;stroke-width:0.566929;stroke-linecap:butt;stroke-linejoin:miter;stroke:rgb(100%,0%,0%);stroke-opacity:0.5;stroke-miterlimit:10;" d="M 33.931641 39.484375 L 28.261719 33.814453 " transform="matrix(2,0,0,2,8,8)"/>
<path style="fill-rule:nonzero;fill:rgb(50%,50%,0%);fill-opacity:0.1;stroke-width:0.566929;stroke-linecap:butt;stroke-linejoin:miter;stroke:rgb(100%,0%,0%);stroke-opacity:0.5;stroke-miterlimit:10;" d="M 28.261719 39.59375 L 52.072266 39.59375 L 52.072266 28.345703 L 28.261719 28.345703 Z M 28.261719 39.59375 " transform="matrix(2,0,0,2,8,8)"/>
<path style="fill:none;stroke-width:0.566929;stroke-linecap:butt;stroke-linejoin:miter;stroke:rgb(100%,0%,0%);stroke-opacity:0.5;stroke-miterlimit:10;" d="M 28.261719 39.484375 L 33.931641 33.814453 " transform="matrix(2,0,0,2,8,8)"/>
<path style="fill:none;stroke-width:0.566929;stroke-linecap:butt;stroke-linejoin:miter;stroke:rgb(100%,0%,0%);stroke-opacity:0.5;stroke-miterlimit:10;" d="M 33.931641 39.484375 L 28.261719 33.814453 " transform="matrix(2,0,0,2,8,8)"/>
<path style="fill-rule:nonzero;fill:rgb(50%,50%,0%);fill-opacity:0.1;stroke-width:0.566929;stroke-linecap:butt;stroke-linejoin:miter;stroke:rgb(100%,0%,0%);stroke-opacity:0.5;stroke-miterlimit:10;" d="M 31.095703 36.759766 L 49.238281 36.759766 L 49.238281 31.181641 L 31.095703 31.181641 Z M 31.095703 36.759766 " transform="matrix(2,0,0,2,8,8)"/>
<path style=" stroke:none;fill-rule:nonzero;fill:rgb(0%,0%,0%);fill-opacity:1;" d="M 72.847656 75.269531 C 72.972656 72.300781 74.660156 71.800781 75.347656 71.800781 C 77.378906 71.800781 77.597656 74.488281 77.597656 75.269531 Z M 72.847656 75.707031 L 78.410156 75.707031 C 78.847656 75.707031 78.910156 75.707031 78.910156 75.269531 C 78.910156 73.300781 77.816406 71.363281 75.347656 71.363281 C 73.035156 71.363281 71.191406 73.425781 71.191406 75.925781 C 71.191406 78.582031 73.285156 80.519531 75.566406 80.519531 C 78.003906 80.519531 78.910156 78.300781 78.910156 77.925781 C 78.910156 77.738281 78.753906 77.675781 78.628906 77.675781 C 78.472656 77.675781 78.410156 77.800781 78.378906 77.957031 C 77.691406 80.019531 75.878906 80.019531 75.691406 80.019531 C 74.691406 80.019531 73.910156 79.425781 73.441406 78.675781 C 72.847656 77.738281 72.847656 76.425781 72.847656 75.707031 Z M 72.847656 75.707031 "/>
<path style=" stroke:none;fill-rule:nonzero;fill:rgb(0%,0%,0%);fill-opacity:1;" d="M 81.703125 75.269531 C 81.828125 72.300781 83.515625 71.800781 84.203125 71.800781 C 86.234375 71.800781 86.453125 74.488281 86.453125 75.269531 Z M 81.703125 75.707031 L 87.265625 75.707031 C 87.703125 75.707031 87.765625 75.707031 87.765625 75.269531 C 87.765625 73.300781 86.671875 71.363281 84.203125 71.363281 C 81.890625 71.363281 80.046875 73.425781 80.046875 75.925781 C 80.046875 78.582031 82.140625 80.519531 84.421875 80.519531 C 86.859375 80.519531 87.765625 78.300781 87.765625 77.925781 C 87.765625 77.738281 87.609375 77.675781 87.484375 77.675781 C 87.328125 77.675781 87.265625 77.800781 87.234375 77.957031 C 86.546875 80.019531 84.734375 80.019531 84.546875 80.019531 C 83.546875 80.019531 82.765625 79.425781 82.296875 78.675781 C 81.703125 77.738281 81.703125 76.425781 81.703125 75.707031 Z M 81.703125 75.707031 "/>
<path style=" stroke:none;fill-rule:nonzero;fill:rgb(0%,0%,0%);fill-opacity:1;" d="M 90.558594 75.269531 C 90.683594 72.300781 92.371094 71.800781 93.058594 71.800781 C 95.089844 71.800781 95.308594 74.488281 95.308594 75.269531 Z M 90.558594 75.707031 L 96.121094 75.707031 C 96.558594 75.707031 96.621094 75.707031 96.621094 75.269531 C 96.621094 73.300781 95.527344 71.363281 93.058594 71.363281 C 90.746094 71.363281 88.902344 73.425781 88.902344 75.925781 C 88.902344 78.582031 90.996094 80.519531 93.277344 80.519531 C 95.714844 80.519531 96.621094 78.300781 96.621094 77.925781 C 96.621094 77.738281 96.464844 77.675781 96.339844 77.675781 C 96.183594 77.675781 96.121094 77.800781 96.089844 77.957031 C 95.402344 80.019531 93.589844 80.019531 93.402344 80.019531 C 92.402344 80.019531 91.621094 79.425781 91.152344 78.675781 C 90.558594 77.738281 90.558594 76.425781 90.558594 75.707031 Z M 90.558594 75.707031 "/>
<path style=" stroke:none;fill-rule:nonzero;fill:rgb(0%,0%,0%);fill-opacity:1;" d="M 99.414062 75.269531 C 99.539062 72.300781 101.226562 71.800781 101.914062 71.800781 C 103.945312 71.800781 104.164062 74.488281 104.164062 75.269531 Z M 99.414062 75.707031 L 104.976562 75.707031 C 105.414062 75.707031 105.476562 75.707031 105.476562 75.269531 C 105.476562 73.300781 104.382812 71.363281 101.914062 71.363281 C 99.601562 71.363281 97.757812 73.425781 97.757812 75.925781 C 97.757812 78.582031 99.851562 80.519531 102.132812 80.519531 C 104.570312 80.519531 105.476562 78.300781 105.476562 77.925781 C 105.476562 77.738281 105.320312 77.675781 105.195312 77.675781 C 105.039062 77.675781 104.976562 77.800781 104.945312 77.957031 C 104.257812 80.019531 102.445312 80.019531 102.257812 80.019531 C 101.257812 80.019531 100.476562 79.425781 100.007812 78.675781 C 99.414062 77.738281 99.414062 76.425781 99.414062 75.707031 Z M 99.414062 75.707031 "/>
<path style="fill:none;stroke-width:0.566929;stroke-linecap:butt;stroke-linejoin:miter;stroke:rgb(100%,0%,0%);stroke-opacity:0.5;stroke-miterlimit:10;" d="M 84.248047 31.181641 L 89.917969 25.511719 " transform="matrix(2,0,0,2,8,8)"/>
<path style="fill:none;stroke-width:0.566929;stroke-linecap:butt;stroke-linejoin:miter;stroke:rgb(100%,0%,0%);stroke-opacity:0.5;stroke-miterlimit:10;" d="M 89.917969 31.181641 L 84.248047 25.511719 " transform="matrix(2,0,0,2,8,8)"/>
<path style="fill-rule:nonzero;fill:rgb(50%,50%,0%);fill-opacity:0.1;stroke-width:0.566929;stroke-linecap:butt;stroke-linejoin:miter;stroke:rgb(100%,0%,0%);stroke-opacity:0.5;stroke-miterlimit:10;" d="M 70.78125 39.59375 L 103.384766 39.59375 L 103.384766 28.345703 L 70.78125 28.345703 Z M 70.78125 39.59375 " transform="matrix(2,0,0,2,8,8)"/>
<path style="fill:none;stroke-width:0.566929;stroke-linecap:butt;stroke-linejoin:miter;stroke:rgb(100%,0%,0%);stroke-opacity:0.5;stroke-miterlimit:10;" d="M 70.78125 39.484375 L 76.451172 33.814453 " transform="matrix(2,0,0,2,8,8)"/>
<path style="fill:none;stroke-width:0.566929;stroke-linecap:butt;stroke-linejoin:miter;stroke:rgb(100%,0%,0%);stroke-opacity:0.5;stroke-miterlimit:10;" d="M 76.451172 39.484375 L 70.78125 33.814453 " transform="matrix(2,0,0,2,8,8)"/>
<path style="fill-rule:nonzero;fill:rgb(50%,50%,0%);fill-opacity:0.1;stroke-width:0.566929;stroke-linecap:butt;stroke-linejoin:miter;stroke:rgb(100%,0%,0%);stroke-opacity:0.5;stroke-miterlimit:10;" d="M 70.78125 39.59375 L 103.384766 39.59375 L 103.384766 28.345703 L 70.78125 28.345703 Z M 70.78125 39.59375 " transform="matrix(2,0,0,2,8,8)"/>
<path style="fill:none;stroke-width:0.566929;stroke-linecap:butt;stroke-linejoin:miter;stroke:rgb(100%,0%,0%);stroke-opacity:0.5;stroke-miterlimit:10;" d="M 70.78125 39.484375 L 76.451172 33.814453 " transform="matrix(2,0,0,2,8,8)"/>
<path style="fill:none;stroke-width:0.566929;stroke-linecap:butt;stroke-linejoin:miter;stroke:rgb(100%,0%,0%);stroke-opacity:0.5;stroke-miterlimit:10;" d="M 76.451172 39.484375 L 70.78125 33.814453 " transform="matrix(2,0,0,2,8,8)"/>
<path style="fill-rule:nonzero;fill:rgb(50%,50%,0%);fill-opacity:0.1;stroke-width:0.566929;stroke-linecap:butt;stroke-linejoin:miter;stroke:rgb(100%,0%,0%);stroke-opacity:0.5;stroke-miterlimit:10;" d="M 73.617188 36.759766 L 100.550781 36.759766 L 100.550781 31.181641 L 73.617188 31.181641 Z M 73.617188 36.759766 " transform="matrix(2,0,0,2,8,8)"/>
<path style=" stroke:none;fill-rule:nonzero;fill:rgb(0%,0%,0%);fill-opacity:1;" d="M 157.890625 75.957031 C 157.890625 72.707031 159.515625 71.863281 160.578125 71.863281 C 160.765625 71.863281 162.015625 71.894531 162.703125 72.613281 C 161.890625 72.675781 161.765625 73.269531 161.765625 73.519531 C 161.765625 74.050781 162.140625 74.425781 162.671875 74.425781 C 163.203125 74.425781 163.609375 74.113281 163.609375 73.488281 C 163.609375 72.144531 162.078125 71.363281 160.546875 71.363281 C 158.046875 71.363281 156.234375 73.519531 156.234375 75.988281 C 156.234375 78.550781 158.203125 80.519531 160.515625 80.519531 C 163.171875 80.519531 163.828125 78.113281 163.828125 77.925781 C 163.828125 77.738281 163.609375 77.738281 163.546875 77.738281 C 163.390625 77.738281 163.328125 77.800781 163.296875 77.925781 C 162.734375 79.769531 161.421875 80.019531 160.703125 80.019531 C 159.640625 80.019531 157.890625 79.175781 157.890625 75.957031 Z M 157.890625 75.957031 "/>
<path style=" stroke:none;fill-rule:nonzero;fill:rgb(0%,0%,0%);fill-opacity:1;" d="M 166.746094 75.957031 C 166.746094 72.707031 168.371094 71.863281 169.433594 71.863281 C 169.621094 71.863281 170.871094 71.894531 171.558594 72.613281 C 170.746094 72.675781 170.621094 73.269531 170.621094 73.519531 C 170.621094 74.050781 170.996094 74.425781 171.527344 74.425781 C 172.058594 74.425781 172.464844 74.113281 172.464844 73.488281 C 172.464844 72.144531 170.933594 71.363281 169.402344 71.363281 C 166.902344 71.363281 165.089844 73.519531 165.089844 75.988281 C 165.089844 78.550781 167.058594 80.519531 169.371094 80.519531 C 172.027344 80.519531 172.683594 78.113281 172.683594 77.925781 C 172.683594 77.738281 172.464844 77.738281 172.402344 77.738281 C 172.246094 77.738281 172.183594 77.800781 172.152344 77.925781 C 171.589844 79.769531 170.277344 80.019531 169.558594 80.019531 C 168.496094 80.019531 166.746094 79.175781 166.746094 75.957031 Z M 166.746094 75.957031 "/>
<path style=" stroke:none;fill-rule:nonzero;fill:rgb(0%,0%,0%);fill-opacity:1;" d="M 175.597656 75.957031 C 175.597656 72.707031 177.222656 71.863281 178.285156 71.863281 C 178.472656 71.863281 179.722656 71.894531 180.410156 72.613281 C 179.597656 72.675781 179.472656 73.269531 179.472656 73.519531 C 179.472656 74.050781 179.847656 74.425781 180.378906 74.425781 C 180.910156 74.425781 181.316406 74.113281 181.316406 73.488281 C 181.316406 72.144531 179.785156 71.363281 178.253906 71.363281 C 175.753906 71.363281 173.941406 73.519531 173.941406 75.988281 C 173.941406 78.550781 175.910156 80.519531 178.222656 80.519531 C 180.878906 80.519531 181.535156 78.113281 181.535156 77.925781 C 181.535156 77.738281 181.316406 77.738281 181.253906 77.738281 C 181.097656 77.738281 181.035156 77.800781 181.003906 77.925781 C 180.441406 79.769531 179.128906 80.019531 178.410156 80.019531 C 177.347656 80.019531 175.597656 79.175781 175.597656 75.957031 Z M 175.597656 75.957031 "/>
<path style=" stroke:none;fill-rule:nonzero;fill:rgb(0%,0%,0%);fill-opacity:1;" d="M 184.453125 75.957031 C 184.453125 72.707031 186.078125 71.863281 187.140625 71.863281 C 187.328125 71.863281 188.578125 71.894531 189.265625 72.613281 C 188.453125 72.675781 188.328125 73.269531 188.328125 73.519531 C 188.328125 74.050781 188.703125 74.425781 189.234375 74.425781 C 189.765625 74.425781 190.171875 74.113281 190.171875 73.488281 C 190.171875 72.144531 188.640625 71.363281 187.109375 71.363281 C 184.609375 71.363281 182.796875 73.519531 182.796875 75.988281 C 182.796875 78.550781 184.765625 80.519531 187.078125 80.519531 C 189.734375 80.519531 190.390625 78.113281 190.390625 77.925781 C 190.390625 77.738281 190.171875 77.738281 190.109375 77.738281 C 189.953125 77.738281 189.890625 77.800781 189.859375 77.925781 C 189.296875 79.769531 187.984375 80.019531 187.265625 80.019531 C 186.203125 80.019531 184.453125 79.175781 184.453125 75.957031 Z M 184.453125 75.957031 "/>
<path style=" stroke:none;fill-rule:nonzero;fill:rgb(0%,0%,0%);fill-opacity:1;" d="M 193.308594 75.957031 C 193.308594 72.707031 194.933594 71.863281 195.996094 71.863281 C 196.183594 71.863281 197.433594 71.894531 198.121094 72.613281 C 197.308594 72.675781 197.183594 73.269531 197.183594 73.519531 C 197.183594 74.050781 197.558594 74.425781 198.089844 74.425781 C 198.621094 74.425781 199.027344 74.113281 199.027344 73.488281 C 199.027344 72.144531 197.496094 71.363281 195.964844 71.363281 C 193.464844 71.363281 191.652344 73.519531 191.652344 75.988281 C 191.652344 78.550781 193.621094 80.519531 195.933594 80.519531 C 198.589844 80.519531 199.246094 78.113281 199.246094 77.925781 C 199.246094 77.738281 199.027344 77.738281 198.964844 77.738281 C 198.808594 77.738281 198.746094 77.800781 198.714844 77.925781 C 198.152344 79.769531 196.839844 80.019531 196.121094 80.019531 C 195.058594 80.019531 193.308594 79.175781 193.308594 75.957031 Z M 193.308594 75.957031 "/>
<path style=" stroke:none;fill-rule:nonzero;fill:rgb(0%,0%,0%);fill-opacity:1;" d="M 202.164062 75.957031 C 202.164062 72.707031 203.789062 71.863281 204.851562 71.863281 C 205.039062 71.863281 206.289062 71.894531 206.976562 72.613281 C 206.164062 72.675781 206.039062 73.269531 206.039062 73.519531 C 206.039062 74.050781 206.414062 74.425781 206.945312 74.425781 C 207.476562 74.425781 207.882812 74.113281 207.882812 73.488281 C 207.882812 72.144531 206.351562 71.363281 204.820312 71.363281 C 202.320312 71.363281 200.507812 73.519531 200.507812 75.988281 C 200.507812 78.550781 202.476562 80.519531 204.789062 80.519531 C 207.445312 80.519531 208.101562 78.113281 208.101562 77.925781 C 208.101562 77.738281 207.882812 77.738281 207.820312 77.738281 C 207.664062 77.738281 207.601562 77.800781 207.570312 77.925781 C 207.007812 79.769531 205.695312 80.019531 204.976562 80.019531 C 203.914062 80.019531 202.164062 79.175781 202.164062 75.957031 Z M 202.164062 75.957031 "/>
<path style="fill:none;stroke-width:0.566929;stroke-linecap:butt;stroke-linejoin:miter;stroke:rgb(100%,0%,0%);stroke-opacity:0.5;stroke-miterlimit:10;" d="M 112.177734 31.181641 L 117.847656 25.511719 " transform="matrix(2,0,0,2,8,8)"/>
<path style="fill:none;stroke-width:0.566929;stroke-linecap:butt;stroke-linejoin:miter;stroke:rgb(100%,0%,0%);stroke-opacity:0.5;stroke-miterlimit:10;" d="M 117.847656 31.181641 L 112.177734 25.511719 " transform="matrix(2,0,0,2,8,8)"/>
<path style="fill:none;stroke-width:0.566929;stroke-linecap:butt;stroke-linejoin:miter;stroke:rgb(100%,0%,0%);stroke-opacity:0.5;stroke-miterlimit:10;" d="M 115.011719 56.693359 L 115.011719 28.345703 Z M 115.011719 56.693359 " transform="matrix(2,0,0,2,8,8)"/>
<path style="fill:none;stroke-width:0.566929;stroke-linecap:butt;stroke-linejoin:miter;stroke:rgb(100%,0%,0%);stroke-opacity:0.5;stroke-miterlimit:10;" d="M 7.753906 59.527344 L 13.423828 53.857422 " transform="matrix(2,0,0,2,8,8)"/>
<path style="fill:none;stroke-width:0.566929;stroke-linecap:butt;stroke-linejoin:miter;stroke:rgb(100%,0%,0%);stroke-opacity:0.5;stroke-miterlimit:10;" d="M 13.423828 59.527344 L 7.753906 53.857422 " transform="matrix(2,0,0,2,8,8)"/>
<path style="fill-rule:nonzero;fill:rgb(50%,50%,0%);fill-opacity:0.1;stroke-width:0.566929;stroke-linecap:butt;stroke-linejoin:miter;stroke:rgb(100%,0%,0%);stroke-opacity:0.5;stroke-miterlimit:10;" d="M 0 69.923828 L 21.179688 69.923828 L 21.179688 56.693359 L 0 56.693359 Z M 0 69.923828 " transform="matrix(2,0,0,2,8,8)"/>
<path style="fill:none;stroke-width:0.566929;stroke-linecap:butt;stroke-linejoin:miter;stroke:rgb(100%,0%,0%);stroke-opacity:0.5;stroke-miterlimit:10;" d="M 0 67.876953 L 5.669922 62.208984 " transform="matrix(2,0,0,2,8,8)"/>
<path style="fill:none;stroke-width:0.566929;stroke-linecap:butt;stroke-linejoin:miter;stroke:rgb(100%,0%,0%);stroke-opacity:0.5;stroke-miterlimit:10;" d="M 5.669922 67.876953 L 0 62.208984 " transform="matrix(2,0,0,2,8,8)"/>
<path style="fill-rule:nonzero;fill:rgb(50%,50%,0%);fill-opacity:0.1;stroke-width:0.566929;stroke-linecap:butt;stroke-linejoin:miter;stroke:rgb(100%,0%,0%);stroke-opacity:0.5;stroke-miterlimit:10;" d="M 0 69.923828 L 21.179688 69.923828 L 21.179688 56.693359 L 0 56.693359 Z M 0 69.923828 " transform="matrix(2,0,0,2,8,8)"/>
<path style="fill:none;stroke-width:0.566929;stroke-linecap:butt;stroke-linejoin:miter;stroke:rgb(100%,0%,0%);stroke-opacity:0.5;stroke-miterlimit:10;" d="M 0 67.876953 L 5.669922 62.208984 " transform="matrix(2,0,0,2,8,8)"/>
<path style="fill:none;stroke-width:0.566929;stroke-linecap:butt;stroke-linejoin:miter;stroke:rgb(100%,0%,0%);stroke-opacity:0.5;stroke-miterlimit:10;" d="M 5.669922 67.876953 L 0 62.208984 " transform="matrix(2,0,0,2,8,8)"/>
<path style="fill-rule:nonzero;fill:rgb(50%,50%,0%);fill-opacity:0.1;stroke-width:0.566929;stroke-linecap:butt;stroke-linejoin:miter;stroke:rgb(100%,0%,0%);stroke-opacity:0.5;stroke-miterlimit:10;" d="M 2.833984 67.089844 L 18.34375 67.089844 L 18.34375 59.527344 L 2.833984 59.527344 Z M 2.833984 67.089844 " transform="matrix(2,0,0,2,8,8)"/>
<path style=" stroke:none;fill-rule:nonzero;fill:rgb(0%,0%,0%);fill-opacity:1;" d="M 18.542969 133.648438 C 16.792969 133.648438 16.792969 131.648438 16.792969 131.210938 C 16.792969 130.679688 16.824219 130.023438 17.105469 129.523438 C 17.261719 129.304688 17.730469 128.742188 18.542969 128.742188 C 20.261719 128.742188 20.261719 130.710938 20.261719 131.179688 C 20.261719 131.710938 20.261719 132.367188 19.949219 132.867188 C 19.792969 133.085938 19.324219 133.648438 18.542969 133.648438 Z M 16.230469 134.429688 C 16.230469 134.367188 16.230469 133.898438 16.542969 133.492188 C 17.324219 134.054688 18.167969 134.117188 18.542969 134.117188 C 20.386719 134.117188 21.761719 132.742188 21.761719 131.210938 C 21.761719 130.460938 21.449219 129.742188 20.949219 129.273438 C 21.667969 128.585938 22.386719 128.492188 22.730469 128.492188 C 22.792969 128.492188 22.886719 128.492188 22.949219 128.523438 C 22.730469 128.585938 22.605469 128.804688 22.605469 129.054688 C 22.605469 129.398438 22.886719 129.617188 23.199219 129.617188 C 23.386719 129.617188 23.761719 129.492188 23.761719 129.023438 C 23.761719 128.679688 23.542969 128.054688 22.761719 128.054688 C 22.355469 128.054688 21.480469 128.179688 20.636719 128.992188 C 19.792969 128.335938 18.980469 128.273438 18.542969 128.273438 C 16.667969 128.273438 15.292969 129.648438 15.292969 131.179688 C 15.292969 132.054688 15.730469 132.804688 16.230469 133.242188 C 15.980469 133.523438 15.605469 134.179688 15.605469 134.898438 C 15.605469 135.523438 15.886719 136.273438 16.511719 136.679688 C 15.292969 136.992188 14.667969 137.867188 14.667969 138.648438 C 14.667969 140.085938 16.636719 141.179688 19.074219 141.179688 C 21.417969 141.179688 23.480469 140.179688 23.480469 138.617188 C 23.480469 137.929688 23.230469 136.898438 22.199219 136.335938 C 21.136719 135.804688 19.980469 135.804688 18.761719 135.804688 C 18.261719 135.804688 17.417969 135.804688 17.261719 135.773438 C 16.636719 135.679688 16.230469 135.085938 16.230469 134.429688 Z M 19.105469 140.742188 C 17.074219 140.742188 15.699219 139.710938 15.699219 138.648438 C 15.699219 137.742188 16.449219 136.992188 17.324219 136.960938 L 18.511719 136.960938 C 20.230469 136.960938 22.449219 136.960938 22.449219 138.648438 C 22.449219 139.742188 21.042969 140.742188 19.105469 140.742188 Z M 19.105469 140.742188 "/>
<path style=" stroke:none;fill-rule:nonzero;fill:rgb(0%,0%,0%);fill-opacity:1;" d="M 28.507812 133.648438 C 26.757812 133.648438 26.757812 131.648438 26.757812 131.210938 C 26.757812 130.679688 26.789062 130.023438 27.070312 129.523438 C 27.226562 129.304688 27.695312 128.742188 28.507812 128.742188 C 30.226562 128.742188 30.226562 130.710938 30.226562 131.179688 C 30.226562 131.710938 30.226562 132.367188 29.914062 132.867188 C 29.757812 133.085938 29.289062 133.648438 28.507812 133.648438 Z M 26.195312 134.429688 C 26.195312 134.367188 26.195312 133.898438 26.507812 133.492188 C 27.289062 134.054688 28.132812 134.117188 28.507812 134.117188 C 30.351562 134.117188 31.726562 132.742188 31.726562 131.210938 C 31.726562 130.460938 31.414062 129.742188 30.914062 129.273438 C 31.632812 128.585938 32.351562 128.492188 32.695312 128.492188 C 32.757812 128.492188 32.851562 128.492188 32.914062 128.523438 C 32.695312 128.585938 32.570312 128.804688 32.570312 129.054688 C 32.570312 129.398438 32.851562 129.617188 33.164062 129.617188 C 33.351562 129.617188 33.726562 129.492188 33.726562 129.023438 C 33.726562 128.679688 33.507812 128.054688 32.726562 128.054688 C 32.320312 128.054688 31.445312 128.179688 30.601562 128.992188 C 29.757812 128.335938 28.945312 128.273438 28.507812 128.273438 C 26.632812 128.273438 25.257812 129.648438 25.257812 131.179688 C 25.257812 132.054688 25.695312 132.804688 26.195312 133.242188 C 25.945312 133.523438 25.570312 134.179688 25.570312 134.898438 C 25.570312 135.523438 25.851562 136.273438 26.476562 136.679688 C 25.257812 136.992188 24.632812 137.867188 24.632812 138.648438 C 24.632812 140.085938 26.601562 141.179688 29.039062 141.179688 C 31.382812 141.179688 33.445312 140.179688 33.445312 138.617188 C 33.445312 137.929688 33.195312 136.898438 32.164062 136.335938 C 31.101562 135.804688 29.945312 135.804688 28.726562 135.804688 C 28.226562 135.804688 27.382812 135.804688 27.226562 135.773438 C 26.601562 135.679688 26.195312 135.085938 26.195312 134.429688 Z M 29.070312 140.742188 C 27.039062 140.742188 25.664062 139.710938 25.664062 138.648438 C 25.664062 137.742188 26.414062 136.992188 27.289062 136.960938 L 28.476562 136.960938 C 30.195312 136.960938 32.414062 136.960938 32.414062 138.648438 C 32.414062 139.742188 31.007812 140.742188 29.070312 140.742188 Z M 29.070312 140.742188 "/>
<path style=" stroke:none;fill-rule:nonzero;fill:rgb(0%,0%,0%);fill-opacity:1;" d="M 38.46875 133.648438 C 36.71875 133.648438 36.71875 131.648438 36.71875 131.210938 C 36.71875 130.679688 36.75 130.023438 37.03125 129.523438 C 37.1875 129.304688 37.65625 128.742188 38.46875 128.742188 C 40.1875 128.742188 40.1875 130.710938 40.1875 131.179688 C 40.1875 131.710938 40.1875 132.367188 39.875 132.867188 C 39.71875 133.085938 39.25 133.648438 38.46875 133.648438 Z M 36.15625 134.429688 C 36.15625 134.367188 36.15625 133.898438 36.46875 133.492188 C 37.25 134.054688 38.09375 134.117188 38.46875 134.117188 C 40.3125 134.117188 41.6875 132.742188 41.6875 131.210938 C 41.6875 130.460938 41.375 129.742188 40.875 129.273438 C 41.59375 128.585938 42.3125 128.492188 42.65625 128.492188 C 42.71875 128.492188 42.8125 128.492188 42.875 128.523438 C 42.65625 128.585938 42.53125 128.804688 42.53125 129.054688 C 42.53125 129.398438 42.8125 129.617188 43.125 129.617188 C 43.3125 129.617188 43.6875 129.492188 43.6875 129.023438 C 43.6875 128.679688 43.46875 128.054688 42.6875 128.054688 C 42.28125 128.054688 41.40625 128.179688 40.5625 128.992188 C 39.71875 128.335938 38.90625 128.273438 38.46875 128.273438 C 36.59375 128.273438 35.21875 129.648438 35.21875 131.179688 C 35.21875 132.054688 35.65625 132.804688 36.15625 133.242188 C 35.90625 133.523438 35.53125 134.179688 35.53125 134.898438 C 35.53125 135.523438 35.8125 136.273438 36.4375 136.679688 C 35.21875 136.992188 34.59375 137.867188 34.59375 138.648438 C 34.59375 140.085938 36.5625 141.179688 39 141.179688 C 41.34375 141.179688 43.40625 140.179688 43.40625 138.617188 C 43.40625 137.929688 43.15625 136.898438 42.125 136.335938 C 41.0625 135.804688 39.90625 135.804688 38.6875 135.804688 C 38.1875 135.804688 37.34375 135.804688 37.1875 135.773438 C 36.5625 135.679688 36.15625 135.085938 36.15625 134.429688 Z M 39.03125 140.742188 C 37 140.742188 35.625 139.710938 35.625 138.648438 C 35.625 137.742188 36.375 136.992188 37.25 136.960938 L 38.4375 136.960938 C 40.15625 136.960938 42.375 136.960938 42.375 138.648438 C 42.375 139.742188 40.96875 140.742188 39.03125 140.742188 Z M 39.03125 140.742188 "/>
<path style="fill:none;stroke-width:0.566929;stroke-linecap:butt;stroke-linejoin:miter;stroke:rgb(100%,0%,0%);stroke-opacity:0.5;stroke-miterlimit:10;" d="M 37.332031 59.527344 L 43.001953 53.857422 " transform="matrix(2,0,0,2,8,8)"/>
<path style="fill:none;stroke-width:0.566929;stroke-linecap:butt;stroke-linejoin:miter;stroke:rgb(100%,0%,0%);stroke-opacity:0.5;stroke-miterlimit:10;" d="M 43.001953 59.527344 L 37.332031 53.857422 " transform="matrix(2,0,0,2,8,8)"/>
<path style="fill-rule:nonzero;fill:rgb(50%,50%,0%);fill-opacity:0.1;stroke-width:0.566929;stroke-linecap:butt;stroke-linejoin:miter;stroke:rgb(100%,0%,0%);stroke-opacity:0.5;stroke-miterlimit:10;" d="M 21.179688 67.658203 L 59.154297 67.658203 L 59.154297 56.693359 L 21.179688 56.693359 Z M 21.179688 67.658203 " transform="matrix(2,0,0,2,8,8)"/>
<path style="fill:none;stroke-width:0.566929;stroke-linecap:butt;stroke-linejoin:miter;stroke:rgb(100%,0%,0%);stroke-opacity:0.5;stroke-miterlimit:10;" d="M 21.179688 67.658203 L 26.847656 61.990234 " transform="matrix(2,0,0,2,8,8)"/>
<path style="fill:none;stroke-width:0.566929;stroke-linecap:butt;stroke-linejoin:miter;stroke:rgb(100%,0%,0%);stroke-opacity:0.5;stroke-miterlimit:10;" d="M 26.847656 67.658203 L 21.179688 61.990234 " transform="matrix(2,0,0,2,8,8)"/>
<path style="fill-rule:nonzero;fill:rgb(50%,50%,0%);fill-opacity:0.1;stroke-width:0.566929;stroke-linecap:butt;stroke-linejoin:miter;stroke:rgb(100%,0%,0%);stroke-opacity:0.5;stroke-miterlimit:10;" d="M 21.179688 67.658203 L 59.154297 67.658203 L 59.154297 56.693359 L 21.179688 56.693359 Z M 21.179688 67.658203 " transform="matrix(2,0,0,2,8,8)"/>
<path style="fill:none;stroke-width:0.566929;stroke-linecap:butt;stroke-linejoin:miter;stroke:rgb(100%,0%,0%);stroke-opacity:0.5;stroke-miterlimit:10;" d="M 21.179688 67.658203 L 26.847656 61.990234 " transform="matrix(2,0,0,2,8,8)"/>
<path style="fill:none;stroke-width:0.566929;stroke-linecap:butt;stroke-linejoin:miter;stroke:rgb(100%,0%,0%);stroke-opacity:0.5;stroke-miterlimit:10;" d="M 26.847656 67.658203 L 21.179688 61.990234 " transform="matrix(2,0,0,2,8,8)"/>
<path style="fill-rule:nonzero;fill:rgb(50%,50%,0%);fill-opacity:0.1;stroke-width:0.566929;stroke-linecap:butt;stroke-linejoin:miter;stroke:rgb(100%,0%,0%);stroke-opacity:0.5;stroke-miterlimit:10;" d="M 24.013672 64.824219 L 56.320312 64.824219 L 56.320312 59.527344 L 24.013672 59.527344 Z M 24.013672 64.824219 " transform="matrix(2,0,0,2,8,8)"/>
<path style=" stroke:none;fill-rule:nonzero;fill:rgb(0%,0%,0%);fill-opacity:1;" d="M 62.496094 131.960938 C 63.089844 131.210938 63.839844 130.242188 64.339844 129.710938 C 64.964844 128.992188 65.777344 128.679688 66.714844 128.679688 L 66.714844 128.054688 C 66.183594 128.085938 65.589844 128.117188 65.058594 128.117188 C 64.464844 128.117188 63.402344 128.085938 63.152344 128.054688 L 63.152344 128.679688 C 63.589844 128.710938 63.746094 128.960938 63.746094 129.304688 C 63.746094 129.617188 63.527344 129.867188 63.433594 129.992188 L 62.214844 131.554688 L 60.652344 129.523438 C 60.464844 129.335938 60.464844 129.304688 60.464844 129.179688 C 60.464844 128.867188 60.777344 128.679688 61.152344 128.679688 L 61.152344 128.054688 C 60.652344 128.085938 59.339844 128.117188 58.996094 128.117188 C 58.589844 128.117188 57.652344 128.085938 57.121094 128.054688 L 57.121094 128.679688 C 58.527344 128.679688 58.527344 128.679688 59.464844 129.898438 L 61.433594 132.460938 L 59.558594 134.835938 C 58.621094 135.992188 57.433594 136.023438 57.027344 136.023438 L 57.027344 136.648438 C 57.527344 136.617188 58.152344 136.585938 58.683594 136.585938 C 59.246094 136.585938 60.089844 136.617188 60.558594 136.648438 L 60.558594 136.023438 C 60.121094 135.960938 59.996094 135.710938 59.996094 135.398438 C 59.996094 134.960938 60.558594 134.304688 61.777344 132.867188 L 63.308594 134.867188 C 63.464844 135.085938 63.714844 135.398438 63.714844 135.523438 C 63.714844 135.710938 63.527344 136.023438 62.996094 136.023438 L 62.996094 136.648438 C 63.589844 136.617188 64.714844 136.585938 65.152344 136.585938 C 65.683594 136.585938 66.464844 136.617188 67.058594 136.648438 L 67.058594 136.023438 C 65.996094 136.023438 65.621094 135.992188 65.183594 135.398438 Z M 62.496094 131.960938 "/>
<path style=" stroke:none;fill-rule:nonzero;fill:rgb(0%,0%,0%);fill-opacity:1;" d="M 73.011719 131.960938 C 73.605469 131.210938 74.355469 130.242188 74.855469 129.710938 C 75.480469 128.992188 76.292969 128.679688 77.230469 128.679688 L 77.230469 128.054688 C 76.699219 128.085938 76.105469 128.117188 75.574219 128.117188 C 74.980469 128.117188 73.917969 128.085938 73.667969 128.054688 L 73.667969 128.679688 C 74.105469 128.710938 74.261719 128.960938 74.261719 129.304688 C 74.261719 129.617188 74.042969 129.867188 73.949219 129.992188 L 72.730469 131.554688 L 71.167969 129.523438 C 70.980469 129.335938 70.980469 129.304688 70.980469 129.179688 C 70.980469 128.867188 71.292969 128.679688 71.667969 128.679688 L 71.667969 128.054688 C 71.167969 128.085938 69.855469 128.117188 69.511719 128.117188 C 69.105469 128.117188 68.167969 128.085938 67.636719 128.054688 L 67.636719 128.679688 C 69.042969 128.679688 69.042969 128.679688 69.980469 129.898438 L 71.949219 132.460938 L 70.074219 134.835938 C 69.136719 135.992188 67.949219 136.023438 67.542969 136.023438 L 67.542969 136.648438 C 68.042969 136.617188 68.667969 136.585938 69.199219 136.585938 C 69.761719 136.585938 70.605469 136.617188 71.074219 136.648438 L 71.074219 136.023438 C 70.636719 135.960938 70.511719 135.710938 70.511719 135.398438 C 70.511719 134.960938 71.074219 134.304688 72.292969 132.867188 L 73.824219 134.867188 C 73.980469 135.085938 74.230469 135.398438 74.230469 135.523438 C 74.230469 135.710938 74.042969 136.023438 73.511719 136.023438 L 73.511719 136.648438 C 74.105469 136.617188 75.230469 136.585938 75.667969 136.585938 C 76.199219 136.585938 76.980469 136.617188 77.574219 136.648438 L 77.574219 136.023438 C 76.511719 136.023438 76.136719 135.992188 75.699219 135.398438 Z M 73.011719 131.960938 "/>
<path style=" stroke:none;fill-rule:nonzero;fill:rgb(0%,0%,0%);fill-opacity:1;" d="M 83.527344 131.960938 C 84.121094 131.210938 84.871094 130.242188 85.371094 129.710938 C 85.996094 128.992188 86.808594 128.679688 87.746094 128.679688 L 87.746094 128.054688 C 87.214844 128.085938 86.621094 128.117188 86.089844 128.117188 C 85.496094 128.117188 84.433594 128.085938 84.183594 128.054688 L 84.183594 128.679688 C 84.621094 128.710938 84.777344 128.960938 84.777344 129.304688 C 84.777344 129.617188 84.558594 129.867188 84.464844 129.992188 L 83.246094 131.554688 L 81.683594 129.523438 C 81.496094 129.335938 81.496094 129.304688 81.496094 129.179688 C 81.496094 128.867188 81.808594 128.679688 82.183594 128.679688 L 82.183594 128.054688 C 81.683594 128.085938 80.371094 128.117188 80.027344 128.117188 C 79.621094 128.117188 78.683594 128.085938 78.152344 128.054688 L 78.152344 128.679688 C 79.558594 128.679688 79.558594 128.679688 80.496094 129.898438 L 82.464844 132.460938 L 80.589844 134.835938 C 79.652344 135.992188 78.464844 136.023438 78.058594 136.023438 L 78.058594 136.648438 C 78.558594 136.617188 79.183594 136.585938 79.714844 136.585938 C 80.277344 136.585938 81.121094 136.617188 81.589844 136.648438 L 81.589844 136.023438 C 81.152344 135.960938 81.027344 135.710938 81.027344 135.398438 C 81.027344 134.960938 81.589844 134.304688 82.808594 132.867188 L 84.339844 134.867188 C 84.496094 135.085938 84.746094 135.398438 84.746094 135.523438 C 84.746094 135.710938 84.558594 136.023438 84.027344 136.023438 L 84.027344 136.648438 C 84.621094 136.617188 85.746094 136.585938 86.183594 136.585938 C 86.714844 136.585938 87.496094 136.617188 88.089844 136.648438 L 88.089844 136.023438 C 87.027344 136.023438 86.652344 135.992188 86.214844 135.398438 Z M 83.527344 131.960938 "/>
<path style=" stroke:none;fill-rule:nonzero;fill:rgb(0%,0%,0%);fill-opacity:1;" d="M 94.046875 131.960938 C 94.640625 131.210938 95.390625 130.242188 95.890625 129.710938 C 96.515625 128.992188 97.328125 128.679688 98.265625 128.679688 L 98.265625 128.054688 C 97.734375 128.085938 97.140625 128.117188 96.609375 128.117188 C 96.015625 128.117188 94.953125 128.085938 94.703125 128.054688 L 94.703125 128.679688 C 95.140625 128.710938 95.296875 128.960938 95.296875 129.304688 C 95.296875 129.617188 95.078125 129.867188 94.984375 129.992188 L 93.765625 131.554688 L 92.203125 129.523438 C 92.015625 129.335938 92.015625 129.304688 92.015625 129.179688 C 92.015625 128.867188 92.328125 128.679688 92.703125 128.679688 L 92.703125 128.054688 C 92.203125 128.085938 90.890625 128.117188 90.546875 128.117188 C 90.140625 128.117188 89.203125 128.085938 88.671875 128.054688 L 88.671875 128.679688 C 90.078125 128.679688 90.078125 128.679688 91.015625 129.898438 L 92.984375 132.460938 L 91.109375 134.835938 C 90.171875 135.992188 88.984375 136.023438 88.578125 136.023438 L 88.578125 136.648438 C 89.078125 136.617188 89.703125 136.585938 90.234375 136.585938 C 90.796875 136.585938 91.640625 136.617188 92.109375 136.648438 L 92.109375 136.023438 C 91.671875 135.960938 91.546875 135.710938 91.546875 135.398438 C 91.546875 134.960938 92.109375 134.304688 93.328125 132.867188 L 94.859375 134.867188 C 95.015625 135.085938 95.265625 135.398438 95.265625 135.523438 C 95.265625 135.710938 95.078125 136.023438 94.546875 136.023438 L 94.546875 136.648438 C 95.140625 136.617188 96.265625 136.585938 96.703125 136.585938 C 97.234375 136.585938 98.015625 136.617188 98.609375 136.648438 L 98.609375 136.023438 C 97.546875 136.023438 97.171875 135.992188 96.734375 135.398438 Z M 94.046875 131.960938 "/>
<path style=" stroke:none;fill-rule:nonzero;fill:rgb(0%,0%,0%);fill-opacity:1;" d="M 104.5625 131.960938 C 105.15625 131.210938 105.90625 130.242188 106.40625 129.710938 C 107.03125 128.992188 107.84375 128.679688 108.78125 128.679688 L 108.78125 128.054688 C 108.25 128.085938 107.65625 128.117188 107.125 128.117188 C 106.53125 128.117188 105.46875 128.085938 105.21875 128.054688 L 105.21875 128.679688 C 105.65625 128.710938 105.8125 128.960938 105.8125 129.304688 C 105.8125 129.617188 105.59375 129.867188 105.5 129.992188 L 104.28125 131.554688 L 102.71875 129.523438 C 102.53125 129.335938 102.53125 129.304688 102.53125 129.179688 C 102.53125 128.867188 102.84375 128.679688 103.21875 128.679688 L 103.21875 128.054688 C 102.71875 128.085938 101.40625 128.117188 101.0625 128.117188 C 100.65625 128.117188 99.71875 128.085938 99.1875 128.054688 L 99.1875 128.679688 C 100.59375 128.679688 100.59375 128.679688 101.53125 129.898438 L 103.5 132.460938 L 101.625 134.835938 C 100.6875 135.992188 99.5 136.023438 99.09375 136.023438 L 99.09375 136.648438 C 99.59375 136.617188 100.21875 136.585938 100.75 136.585938 C 101.3125 136.585938 102.15625 136.617188 102.625 136.648438 L 102.625 136.023438 C 102.1875 135.960938 102.0625 135.710938 102.0625 135.398438 C 102.0625 134.960938 102.625 134.304688 103.84375 132.867188 L 105.375 134.867188 C 105.53125 135.085938 105.78125 135.398438 105.78125 135.523438 C 105.78125 135.710938 105.59375 136.023438 105.0625 136.023438 L 105.0625 136.648438 C 105.65625 136.617188 106.78125 136.585938 107.21875 136.585938 C 107.75 136.585938 108.53125 136.617188 109.125 136.648438 L 109.125 136.023438 C 108.0625 136.023438 107.6875 135.992188 107.25 135.398438 Z M 104.5625 131.960938 "/>
<path style=" stroke:none;fill-rule:nonzero;fill:rgb(0%,0%,0%);fill-opacity:1;" d="M 115.078125 131.960938 C 115.671875 131.210938 116.421875 130.242188 116.921875 129.710938 C 117.546875 128.992188 118.359375 128.679688 119.296875 128.679688 L 119.296875 128.054688 C 118.765625 128.085938 118.171875 128.117188 117.640625 128.117188 C 117.046875 128.117188 115.984375 128.085938 115.734375 128.054688 L 115.734375 128.679688 C 116.171875 128.710938 116.328125 128.960938 116.328125 129.304688 C 116.328125 129.617188 116.109375 129.867188 116.015625 129.992188 L 114.796875 131.554688 L 113.234375 129.523438 C 113.046875 129.335938 113.046875 129.304688 113.046875 129.179688 C 113.046875 128.867188 113.359375 128.679688 113.734375 128.679688 L 113.734375 128.054688 C 113.234375 128.085938 111.921875 128.117188 111.578125 128.117188 C 111.171875 128.117188 110.234375 128.085938 109.703125 128.054688 L 109.703125 128.679688 C 111.109375 128.679688 111.109375 128.679688 112.046875 129.898438 L 114.015625 132.460938 L 112.140625 134.835938 C 111.203125 135.992188 110.015625 136.023438 109.609375 136.023438 L 109.609375 136.648438 C 110.109375 136.617188 110.734375 136.585938 111.265625 136.585938 C 111.828125 136.585938 112.671875 136.617188 113.140625 136.648438 L 113.140625 136.023438 C 112.703125 135.960938 112.578125 135.710938 112.578125 135.398438 C 112.578125 134.960938 113.140625 134.304688 114.359375 132.867188 L 115.890625 134.867188 C 116.046875 135.085938 116.296875 135.398438 116.296875 135.523438 C 116.296875 135.710938 116.109375 136.023438 115.578125 136.023438 L 115.578125 136.648438 C 116.171875 136.617188 117.296875 136.585938 117.734375 136.585938 C 118.265625 136.585938 119.046875 136.617188 119.640625 136.648438 L 119.640625 136.023438 C 118.578125 136.023438 118.203125 135.992188 117.765625 135.398438 Z M 115.078125 131.960938 "/>
<path style="fill:none;stroke-width:0.566929;stroke-linecap:butt;stroke-linejoin:miter;stroke:rgb(100%,0%,0%);stroke-opacity:0.5;stroke-miterlimit:10;" d="M 84.248047 59.527344 L 89.917969 53.857422 " transform="matrix(2,0,0,2,8,8)"/>
<path style="fill:none;stroke-width:0.566929;stroke-linecap:butt;stroke-linejoin:miter;stroke:rgb(100%,0%,0%);stroke-opacity:0.5;stroke-miterlimit:10;" d="M 89.917969 59.527344 L 84.248047 53.857422 " transform="matrix(2,0,0,2,8,8)"/>
<path style="fill-rule:nonzero;fill:rgb(50%,50%,0%);fill-opacity:0.1;stroke-width:0.566929;stroke-linecap:butt;stroke-linejoin:miter;stroke:rgb(100%,0%,0%);stroke-opacity:0.5;stroke-miterlimit:10;" d="M 59.154297 70.392578 L 115.011719 70.392578 L 115.011719 56.693359 L 59.154297 56.693359 Z M 59.154297 70.392578 " transform="matrix(2,0,0,2,8,8)"/>
<path style="fill:none;stroke-width:0.566929;stroke-linecap:butt;stroke-linejoin:miter;stroke:rgb(100%,0%,0%);stroke-opacity:0.5;stroke-miterlimit:10;" d="M 59.154297 70.283203 L 64.824219 64.615234 " transform="matrix(2,0,0,2,8,8)"/>
<path style="fill:none;stroke-width:0.566929;stroke-linecap:butt;stroke-linejoin:miter;stroke:rgb(100%,0%,0%);stroke-opacity:0.5;stroke-miterlimit:10;" d="M 64.824219 70.283203 L 59.154297 64.615234 " transform="matrix(2,0,0,2,8,8)"/>
<path style="fill-rule:nonzero;fill:rgb(50%,50%,0%);fill-opacity:0.1;stroke-width:0.566929;stroke-linecap:butt;stroke-linejoin:miter;stroke:rgb(100%,0%,0%);stroke-opacity:0.5;stroke-miterlimit:10;" d="M 59.154297 70.392578 L 115.011719 70.392578 L 115.011719 56.693359 L 59.154297 56.693359 Z M 59.154297 70.392578 " transform="matrix(2,0,0,2,8,8)"/>
<path style="fill:none;stroke-width:0.566929;stroke-linecap:butt;stroke-linejoin:miter;stroke:rgb(100%,0%,0%);stroke-opacity:0.5;stroke-miterlimit:10;" d="M 59.154297 70.283203 L 64.824219 64.615234 " transform="matrix(2,0,0,2,8,8)"/>
<path style="fill:none;stroke-width:0.566929;stroke-linecap:butt;stroke-linejoin:miter;stroke:rgb(100%,0%,0%);stroke-opacity:0.5;stroke-miterlimit:10;" d="M 64.824219 70.283203 L 59.154297 64.615234 " transform="matrix(2,0,0,2,8,8)"/>
<path style="fill-rule:nonzero;fill:rgb(50%,50%,0%);fill-opacity:0.1;stroke-width:0.566929;stroke-linecap:butt;stroke-linejoin:miter;stroke:rgb(100%,0%,0%);stroke-opacity:0.5;stroke-miterlimit:10;" d="M 61.990234 67.558594 L 112.177734 67.558594 L 112.177734 59.527344 L 61.990234 59.527344 Z M 61.990234 67.558594 " transform="matrix(2,0,0,2,8,8)"/>
<path style=" stroke:none;fill-rule:nonzero;fill:rgb(0%,0%,0%);fill-opacity:1;" d="M 135.855469 134.367188 L 135.855469 128.054688 L 132.980469 128.273438 L 132.980469 128.898438 C 134.386719 128.898438 134.542969 129.023438 134.542969 130.023438 L 134.542969 141.898438 L 135.042969 141.898438 C 135.042969 141.867188 135.199219 141.585938 135.761719 140.648438 C 136.042969 141.117188 136.886719 142.117188 138.355469 142.117188 C 140.730469 142.117188 142.792969 140.148438 142.792969 137.585938 C 142.792969 135.054688 140.855469 133.085938 138.574219 133.085938 C 137.011719 133.085938 136.167969 134.023438 135.855469 134.367188 Z M 135.917969 139.617188 L 135.917969 135.523438 C 135.917969 135.148438 135.917969 135.117188 136.136719 134.804688 C 136.917969 133.679688 138.011719 133.523438 138.480469 133.523438 C 139.386719 133.523438 140.105469 134.054688 140.574219 134.804688 C 141.105469 135.617188 141.136719 136.742188 141.136719 137.585938 C 141.136719 138.304688 141.105469 139.492188 140.542969 140.398438 C 140.105469 141.023438 139.355469 141.679688 138.292969 141.679688 C 137.386719 141.679688 136.667969 141.210938 136.199219 140.460938 C 135.917969 140.054688 135.917969 139.992188 135.917969 139.617188 Z M 135.917969 139.617188 "/>
<path style=" stroke:none;fill-rule:nonzero;fill:rgb(0%,0%,0%);fill-opacity:1;" d="M 146.925781 134.367188 L 146.925781 128.054688 L 144.050781 128.273438 L 144.050781 128.898438 C 145.457031 128.898438 145.613281 129.023438 145.613281 130.023438 L 145.613281 141.898438 L 146.113281 141.898438 C 146.113281 141.867188 146.269531 141.585938 146.832031 140.648438 C 147.113281 141.117188 147.957031 142.117188 149.425781 142.117188 C 151.800781 142.117188 153.863281 140.148438 153.863281 137.585938 C 153.863281 135.054688 151.925781 133.085938 149.644531 133.085938 C 148.082031 133.085938 147.238281 134.023438 146.925781 134.367188 Z M 146.988281 139.617188 L 146.988281 135.523438 C 146.988281 135.148438 146.988281 135.117188 147.207031 134.804688 C 147.988281 133.679688 149.082031 133.523438 149.550781 133.523438 C 150.457031 133.523438 151.175781 134.054688 151.644531 134.804688 C 152.175781 135.617188 152.207031 136.742188 152.207031 137.585938 C 152.207031 138.304688 152.175781 139.492188 151.613281 140.398438 C 151.175781 141.023438 150.425781 141.679688 149.363281 141.679688 C 148.457031 141.679688 147.738281 141.210938 147.269531 140.460938 C 146.988281 140.054688 146.988281 139.992188 146.988281 139.617188 Z M 146.988281 139.617188 "/>
<path style=" stroke:none;fill-rule:nonzero;fill:rgb(0%,0%,0%);fill-opacity:1;" d="M 157.996094 134.367188 L 157.996094 128.054688 L 155.121094 128.273438 L 155.121094 128.898438 C 156.527344 128.898438 156.683594 129.023438 156.683594 130.023438 L 156.683594 141.898438 L 157.183594 141.898438 C 157.183594 141.867188 157.339844 141.585938 157.902344 140.648438 C 158.183594 141.117188 159.027344 142.117188 160.496094 142.117188 C 162.871094 142.117188 164.933594 140.148438 164.933594 137.585938 C 164.933594 135.054688 162.996094 133.085938 160.714844 133.085938 C 159.152344 133.085938 158.308594 134.023438 157.996094 134.367188 Z M 158.058594 139.617188 L 158.058594 135.523438 C 158.058594 135.148438 158.058594 135.117188 158.277344 134.804688 C 159.058594 133.679688 160.152344 133.523438 160.621094 133.523438 C 161.527344 133.523438 162.246094 134.054688 162.714844 134.804688 C 163.246094 135.617188 163.277344 136.742188 163.277344 137.585938 C 163.277344 138.304688 163.246094 139.492188 162.683594 140.398438 C 162.246094 141.023438 161.496094 141.679688 160.433594 141.679688 C 159.527344 141.679688 158.808594 141.210938 158.339844 140.460938 C 158.058594 140.054688 158.058594 139.992188 158.058594 139.617188 Z M 158.058594 139.617188 "/>
<path style=" stroke:none;fill-rule:nonzero;fill:rgb(0%,0%,0%);fill-opacity:1;" d="M 169.066406 134.367188 L 169.066406 128.054688 L 166.191406 128.273438 L 166.191406 128.898438 C 167.597656 128.898438 167.753906 129.023438 167.753906 130.023438 L 167.753906 141.898438 L 168.253906 141.898438 C 168.253906 141.867188 168.410156 141.585938 168.972656 140.648438 C 169.253906 141.117188 170.097656 142.117188 171.566406 142.117188 C 173.941406 142.117188 176.003906 140.148438 176.003906 137.585938 C 176.003906 135.054688 174.066406 133.085938 171.785156 133.085938 C 170.222656 133.085938 169.378906 134.023438 169.066406 134.367188 Z M 169.128906 139.617188 L 169.128906 135.523438 C 169.128906 135.148438 169.128906 135.117188 169.347656 134.804688 C 170.128906 133.679688 171.222656 133.523438 171.691406 133.523438 C 172.597656 133.523438 173.316406 134.054688 173.785156 134.804688 C 174.316406 135.617188 174.347656 136.742188 174.347656 137.585938 C 174.347656 138.304688 174.316406 139.492188 173.753906 140.398438 C 173.316406 141.023438 172.566406 141.679688 171.503906 141.679688 C 170.597656 141.679688 169.878906 141.210938 169.410156 140.460938 C 169.128906 140.054688 169.128906 139.992188 169.128906 139.617188 Z M 169.128906 139.617188 "/>
<path style=" stroke:none;fill-rule:nonzero;fill:rgb(0%,0%,0%);fill-opacity:1;" d="M 180.136719 134.367188 L 180.136719 128.054688 L 177.261719 128.273438 L 177.261719 128.898438 C 178.667969 128.898438 178.824219 129.023438 178.824219 130.023438 L 178.824219 141.898438 L 179.324219 141.898438 C 179.324219 141.867188 179.480469 141.585938 180.042969 140.648438 C 180.324219 141.117188 181.167969 142.117188 182.636719 142.117188 C 185.011719 142.117188 187.074219 140.148438 187.074219 137.585938 C 187.074219 135.054688 185.136719 133.085938 182.855469 133.085938 C 181.292969 133.085938 180.449219 134.023438 180.136719 134.367188 Z M 180.199219 139.617188 L 180.199219 135.523438 C 180.199219 135.148438 180.199219 135.117188 180.417969 134.804688 C 181.199219 133.679688 182.292969 133.523438 182.761719 133.523438 C 183.667969 133.523438 184.386719 134.054688 184.855469 134.804688 C 185.386719 135.617188 185.417969 136.742188 185.417969 137.585938 C 185.417969 138.304688 185.386719 139.492188 184.824219 140.398438 C 184.386719 141.023438 183.636719 141.679688 182.574219 141.679688 C 181.667969 141.679688 180.949219 141.210938 180.480469 140.460938 C 180.199219 140.054688 180.199219 139.992188 180.199219 139.617188 Z M 180.199219 139.617188 "/>
<path style=" stroke:none;fill-rule:nonzero;fill:rgb(0%,0%,0%);fill-opacity:1;" d="M 191.207031 134.367188 L 191.207031 128.054688 L 188.332031 128.273438 L 188.332031 128.898438 C 189.738281 128.898438 189.894531 129.023438 189.894531 130.023438 L 189.894531 141.898438 L 190.394531 141.898438 C 190.394531 141.867188 190.550781 141.585938 191.113281 140.648438 C 191.394531 141.117188 192.238281 142.117188 193.707031 142.117188 C 196.082031 142.117188 198.144531 140.148438 198.144531 137.585938 C 198.144531 135.054688 196.207031 133.085938 193.925781 133.085938 C 192.363281 133.085938 191.519531 134.023438 191.207031 134.367188 Z M 191.269531 139.617188 L 191.269531 135.523438 C 191.269531 135.148438 191.269531 135.117188 191.488281 134.804688 C 192.269531 133.679688 193.363281 133.523438 193.832031 133.523438 C 194.738281 133.523438 195.457031 134.054688 195.925781 134.804688 C 196.457031 135.617188 196.488281 136.742188 196.488281 137.585938 C 196.488281 138.304688 196.457031 139.492188 195.894531 140.398438 C 195.457031 141.023438 194.707031 141.679688 193.644531 141.679688 C 192.738281 141.679688 192.019531 141.210938 191.550781 140.460938 C 191.269531 140.054688 191.269531 139.992188 191.269531 139.617188 Z M 191.269531 139.617188 "/>
<path style=" stroke:none;fill-rule:nonzero;fill:rgb(0%,0%,0%);fill-opacity:1;" d="M 202.277344 134.367188 L 202.277344 128.054688 L 199.402344 128.273438 L 199.402344 128.898438 C 200.808594 128.898438 200.964844 129.023438 200.964844 130.023438 L 200.964844 141.898438 L 201.464844 141.898438 C 201.464844 141.867188 201.621094 141.585938 202.183594 140.648438 C 202.464844 141.117188 203.308594 142.117188 204.777344 142.117188 C 207.152344 142.117188 209.214844 140.148438 209.214844 137.585938 C 209.214844 135.054688 207.277344 133.085938 204.996094 133.085938 C 203.433594 133.085938 202.589844 134.023438 202.277344 134.367188 Z M 202.339844 139.617188 L 202.339844 135.523438 C 202.339844 135.148438 202.339844 135.117188 202.558594 134.804688 C 203.339844 133.679688 204.433594 133.523438 204.902344 133.523438 C 205.808594 133.523438 206.527344 134.054688 206.996094 134.804688 C 207.527344 135.617188 207.558594 136.742188 207.558594 137.585938 C 207.558594 138.304688 207.527344 139.492188 206.964844 140.398438 C 206.527344 141.023438 205.777344 141.679688 204.714844 141.679688 C 203.808594 141.679688 203.089844 141.210938 202.621094 140.460938 C 202.339844 140.054688 202.339844 139.992188 202.339844 139.617188 Z M 202.339844 139.617188 "/>
<path style=" stroke:none;fill-rule:nonzero;fill:rgb(0%,0%,0%);fill-opacity:1;" d="M 213.347656 134.367188 L 213.347656 128.054688 L 210.472656 128.273438 L 210.472656 128.898438 C 211.878906 128.898438 212.035156 129.023438 212.035156 130.023438 L 212.035156 141.898438 L 212.535156 141.898438 C 212.535156 141.867188 212.691406 141.585938 213.253906 140.648438 C 213.535156 141.117188 214.378906 142.117188 215.847656 142.117188 C 218.222656 142.117188 220.285156 140.148438 220.285156 137.585938 C 220.285156 135.054688 218.347656 133.085938 216.066406 133.085938 C 214.503906 133.085938 213.660156 134.023438 213.347656 134.367188 Z M 213.410156 139.617188 L 213.410156 135.523438 C 213.410156 135.148438 213.410156 135.117188 213.628906 134.804688 C 214.410156 133.679688 215.503906 133.523438 215.972656 133.523438 C 216.878906 133.523438 217.597656 134.054688 218.066406 134.804688 C 218.597656 135.617188 218.628906 136.742188 218.628906 137.585938 C 218.628906 138.304688 218.597656 139.492188 218.035156 140.398438 C 217.597656 141.023438 216.847656 141.679688 215.785156 141.679688 C 214.878906 141.679688 214.160156 141.210938 213.691406 140.460938 C 213.410156 140.054688 213.410156 139.992188 213.410156 139.617188 Z M 213.410156 139.617188 "/>
<path style=" stroke:none;fill-rule:nonzero;fill:rgb(0%,0%,0%);fill-opacity:1;" d="M 224.417969 134.367188 L 224.417969 128.054688 L 221.542969 128.273438 L 221.542969 128.898438 C 222.949219 128.898438 223.105469 129.023438 223.105469 130.023438 L 223.105469 141.898438 L 223.605469 141.898438 C 223.605469 141.867188 223.761719 141.585938 224.324219 140.648438 C 224.605469 141.117188 225.449219 142.117188 226.917969 142.117188 C 229.292969 142.117188 231.355469 140.148438 231.355469 137.585938 C 231.355469 135.054688 229.417969 133.085938 227.136719 133.085938 C 225.574219 133.085938 224.730469 134.023438 224.417969 134.367188 Z M 224.480469 139.617188 L 224.480469 135.523438 C 224.480469 135.148438 224.480469 135.117188 224.699219 134.804688 C 225.480469 133.679688 226.574219 133.523438 227.042969 133.523438 C 227.949219 133.523438 228.667969 134.054688 229.136719 134.804688 C 229.667969 135.617188 229.699219 136.742188 229.699219 137.585938 C 229.699219 138.304688 229.667969 139.492188 229.105469 140.398438 C 228.667969 141.023438 227.917969 141.679688 226.855469 141.679688 C 225.949219 141.679688 225.230469 141.210938 224.761719 140.460938 C 224.480469 140.054688 224.480469 139.992188 224.480469 139.617188 Z M 224.480469 139.617188 "/>
<path style="fill:none;stroke-width:0.566929;stroke-linecap:butt;stroke-linejoin:miter;stroke:rgb(100%,0%,0%);stroke-opacity:0.5;stroke-miterlimit:10;" d="M 112.177734 59.527344 L 117.847656 53.857422 " transform="matrix(2,0,0,2,8,8)"/>
<path style="fill:none;stroke-width:0.566929;stroke-linecap:butt;stroke-linejoin:miter;stroke:rgb(100%,0%,0%);stroke-opacity:0.5;stroke-miterlimit:10;" d="M 117.847656 59.527344 L 112.177734 53.857422 " transform="matrix(2,0,0,2,8,8)"/>
<path style="fill:none;stroke-width:0.566929;stroke-linecap:butt;stroke-linejoin:miter;stroke:rgb(100%,0%,0%);stroke-opacity:0.5;stroke-miterlimit:10;" d="M 115.011719 85.039062 L 115.011719 56.693359 Z M 115.011719 85.039062 " transform="matrix(2,0,0,2,8,8)"/>
</g>
</svg>
