<?xml version="1.0" encoding="UTF-8"?>
<svg xmlns="http://www.w3.org/2000/svg" xmlns:xlink="http://www.w3.org/1999/xlink" width="422.787631pt" height="264.587545pt" viewBox="0 0 422.787631 264.587545" version="1.1">
<g id="surface137">
<path style="fill:none;stroke-width:0.566929;stroke-linecap:butt;stroke-linejoin:miter;stroke:rgb(100%,0%,0%);stroke-opacity:0.5;stroke-miterlimit:10;" d="M -2.834646 2.834169 L 2.835276 -2.8338 " transform="matrix(2,0,0,2,6.169291,5.952756)"/>
<path style="fill:none;stroke-width:0.566929;stroke-linecap:butt;stroke-linejoin:miter;stroke:rgb(100%,0%,0%);stroke-opacity:0.5;stroke-miterlimit:10;" d="M 2.835276 2.834169 L -2.834646 -2.8338 " transform="matrix(2,0,0,2,6.169291,5.952756)"/>
<path style="fill-rule:nonzero;fill:rgb(50%,50%,0%);fill-opacity:0.1;stroke-width:0.566929;stroke-linecap:butt;stroke-linejoin:miter;stroke:rgb(100%,0%,0%);stroke-opacity:0.5;stroke-miterlimit:10;" d="M -0.000661294 129.066591 L 208.059886 129.066591 L 208.059886 0.000184547 L -0.000661294 0.000184547 Z M -0.000661294 129.066591 " transform="matrix(2,0,0,2,6.169291,5.952756)"/>
<path style="fill:none;stroke-width:0.566929;stroke-linecap:butt;stroke-linejoin:miter;stroke:rgb(100%,0%,0%);stroke-opacity:0.5;stroke-miterlimit:10;" d="M -2.834646 44.002138 L 2.835276 38.332216 " transform="matrix(2,0,0,2,6.169291,5.952756)"/>
<path style="fill:none;stroke-width:0.566929;stroke-linecap:butt;stroke-linejoin:miter;stroke:rgb(100%,0%,0%);stroke-opacity:0.5;stroke-miterlimit:10;" d="M 2.835276 44.002138 L -2.834646 38.332216 " transform="matrix(2,0,0,2,6.169291,5.952756)"/>
<path style="fill-rule:nonzero;fill:rgb(50%,50%,0%);fill-opacity:0.1;stroke-width:0.566929;stroke-linecap:butt;stroke-linejoin:miter;stroke:rgb(100%,0%,0%);stroke-opacity:0.5;stroke-miterlimit:10;" d="M -0.000661294 71.832216 L 150.059886 71.832216 L 150.059886 0.000184547 L -0.000661294 0.000184547 Z M -0.000661294 71.832216 " transform="matrix(2,0,0,2,6.169291,5.952756)"/>
<path style="fill:none;stroke-width:0.566929;stroke-linecap:butt;stroke-linejoin:miter;stroke:rgb(100%,0%,0%);stroke-opacity:0.5;stroke-miterlimit:10;" d="M 10.991526 44.002138 L 16.661448 38.332216 " transform="matrix(2,0,0,2,6.169291,5.952756)"/>
<path style="fill:none;stroke-width:0.566929;stroke-linecap:butt;stroke-linejoin:miter;stroke:rgb(100%,0%,0%);stroke-opacity:0.5;stroke-miterlimit:10;" d="M 16.661448 44.002138 L 10.991526 38.332216 " transform="matrix(2,0,0,2,6.169291,5.952756)"/>
<path style="fill-rule:nonzero;fill:rgb(50%,50%,0%);fill-opacity:0.1;stroke-width:0.566929;stroke-linecap:butt;stroke-linejoin:miter;stroke:rgb(100%,0%,0%);stroke-opacity:0.5;stroke-miterlimit:10;" d="M -0.000661294 71.832216 L 42.718089 71.832216 L 42.718089 30.69745 L -0.000661294 30.69745 Z M -0.000661294 71.832216 " transform="matrix(2,0,0,2,6.169291,5.952756)"/>
<path style="fill:none;stroke-width:0.566929;stroke-linecap:butt;stroke-linejoin:miter;stroke:rgb(100%,0%,0%);stroke-opacity:0.5;stroke-miterlimit:10;" d="M 87.718089 44.002138 L 93.388011 38.332216 " transform="matrix(2,0,0,2,6.169291,5.952756)"/>
<path style="fill:none;stroke-width:0.566929;stroke-linecap:butt;stroke-linejoin:miter;stroke:rgb(100%,0%,0%);stroke-opacity:0.5;stroke-miterlimit:10;" d="M 93.388011 44.002138 L 87.718089 38.332216 " transform="matrix(2,0,0,2,6.169291,5.952756)"/>
<path style="fill-rule:nonzero;fill:rgb(50%,50%,0%);fill-opacity:0.1;stroke-width:0.566929;stroke-linecap:butt;stroke-linejoin:miter;stroke:rgb(100%,0%,0%);stroke-opacity:0.5;stroke-miterlimit:10;" d="M 42.718089 53.490419 L 123.962229 53.490419 L 123.962229 0.000184547 L 42.718089 0.000184547 Z M 42.718089 53.490419 " transform="matrix(2,0,0,2,6.169291,5.952756)"/>
<path style="fill:none;stroke-width:0.566929;stroke-linecap:butt;stroke-linejoin:miter;stroke:rgb(100%,0%,0%);stroke-opacity:0.5;stroke-miterlimit:10;" d="M 121.128245 44.002138 L 126.798167 38.332216 " transform="matrix(2,0,0,2,6.169291,5.952756)"/>
<path style="fill:none;stroke-width:0.566929;stroke-linecap:butt;stroke-linejoin:miter;stroke:rgb(100%,0%,0%);stroke-opacity:0.5;stroke-miterlimit:10;" d="M 126.798167 44.002138 L 121.128245 38.332216 " transform="matrix(2,0,0,2,6.169291,5.952756)"/>
<path style="fill-rule:nonzero;fill:rgb(50%,50%,0%);fill-opacity:0.1;stroke-width:0.566929;stroke-linecap:butt;stroke-linejoin:miter;stroke:rgb(100%,0%,0%);stroke-opacity:0.5;stroke-miterlimit:10;" d="M 123.962229 43.213075 L 150.059886 43.213075 L 150.059886 33.025575 L 123.962229 33.025575 Z M 123.962229 43.213075 " transform="matrix(2,0,0,2,6.169291,5.952756)"/>
<path style=" stroke:none;fill-rule:nonzero;fill:rgb(0%,0%,0%);fill-opacity:1;" d="M 266.65625 75.222656 C 266.65625 74.503906 266.6875 74.285156 268.21875 74.285156 L 268.71875 74.285156 L 268.71875 73.660156 C 268 73.722656 266.53125 73.722656 265.78125 73.722656 C 265.03125 73.722656 263.53125 73.722656 262.84375 73.660156 L 262.84375 74.285156 L 263.3125 74.285156 C 264.84375 74.285156 264.875 74.503906 264.875 75.222656 L 264.875 79.878906 L 258.9375 79.878906 L 258.9375 75.222656 C 258.9375 74.503906 258.96875 74.285156 260.5 74.285156 L 260.96875 74.285156 L 260.96875 73.660156 C 260.28125 73.722656 258.8125 73.722656 258.03125 73.722656 C 257.28125 73.722656 255.78125 73.722656 255.09375 73.660156 L 255.09375 74.285156 L 255.5625 74.285156 C 257.09375 74.285156 257.15625 74.503906 257.15625 75.222656 L 257.15625 85.722656 C 257.15625 86.441406 257.09375 86.660156 255.5625 86.660156 L 255.09375 86.660156 L 255.09375 87.285156 C 255.78125 87.222656 257.28125 87.222656 258.03125 87.222656 C 258.78125 87.222656 260.28125 87.222656 260.96875 87.285156 L 260.96875 86.660156 L 260.5 86.660156 C 258.96875 86.660156 258.9375 86.441406 258.9375 85.722656 L 258.9375 80.503906 L 264.875 80.503906 L 264.875 85.722656 C 264.875 86.441406 264.84375 86.660156 263.3125 86.660156 L 262.84375 86.660156 L 262.84375 87.285156 C 263.53125 87.222656 265 87.222656 265.75 87.222656 C 266.53125 87.222656 268 87.222656 268.71875 87.285156 L 268.71875 86.660156 L 268.21875 86.660156 C 266.6875 86.660156 266.65625 86.441406 266.65625 85.722656 Z M 266.65625 75.222656 "/>
<path style=" stroke:none;fill-rule:nonzero;fill:rgb(0%,0%,0%);fill-opacity:1;" d="M 272.914062 78.472656 L 270.132812 78.691406 L 270.132812 79.316406 C 271.414062 79.316406 271.601562 79.441406 271.601562 80.410156 L 271.601562 85.785156 C 271.601562 86.660156 271.382812 86.660156 270.039062 86.660156 L 270.039062 87.285156 C 270.664062 87.253906 271.757812 87.222656 272.226562 87.222656 C 272.945312 87.222656 273.632812 87.253906 274.320312 87.285156 L 274.320312 86.660156 C 272.976562 86.660156 272.914062 86.566406 272.914062 85.785156 Z M 272.976562 75.003906 C 272.976562 74.378906 272.507812 73.941406 271.945312 73.941406 C 271.320312 73.941406 270.882812 74.472656 270.882812 75.003906 C 270.882812 75.535156 271.320312 76.066406 271.945312 76.066406 C 272.507812 76.066406 272.976562 75.628906 272.976562 75.003906 Z M 272.976562 75.003906 "/>
<path style=" stroke:none;fill-rule:nonzero;fill:rgb(0%,0%,0%);fill-opacity:1;" d="M 279.355469 83.847656 C 277.605469 83.847656 277.605469 81.847656 277.605469 81.410156 C 277.605469 80.878906 277.636719 80.222656 277.917969 79.722656 C 278.074219 79.503906 278.542969 78.941406 279.355469 78.941406 C 281.074219 78.941406 281.074219 80.910156 281.074219 81.378906 C 281.074219 81.910156 281.074219 82.566406 280.761719 83.066406 C 280.605469 83.285156 280.136719 83.847656 279.355469 83.847656 Z M 277.042969 84.628906 C 277.042969 84.566406 277.042969 84.097656 277.355469 83.691406 C 278.136719 84.253906 278.980469 84.316406 279.355469 84.316406 C 281.199219 84.316406 282.574219 82.941406 282.574219 81.410156 C 282.574219 80.660156 282.261719 79.941406 281.761719 79.472656 C 282.480469 78.785156 283.199219 78.691406 283.542969 78.691406 C 283.605469 78.691406 283.699219 78.691406 283.761719 78.722656 C 283.542969 78.785156 283.417969 79.003906 283.417969 79.253906 C 283.417969 79.597656 283.699219 79.816406 284.011719 79.816406 C 284.199219 79.816406 284.574219 79.691406 284.574219 79.222656 C 284.574219 78.878906 284.355469 78.253906 283.574219 78.253906 C 283.167969 78.253906 282.292969 78.378906 281.449219 79.191406 C 280.605469 78.535156 279.792969 78.472656 279.355469 78.472656 C 277.480469 78.472656 276.105469 79.847656 276.105469 81.378906 C 276.105469 82.253906 276.542969 83.003906 277.042969 83.441406 C 276.792969 83.722656 276.417969 84.378906 276.417969 85.097656 C 276.417969 85.722656 276.699219 86.472656 277.324219 86.878906 C 276.105469 87.191406 275.480469 88.066406 275.480469 88.847656 C 275.480469 90.285156 277.449219 91.378906 279.886719 91.378906 C 282.230469 91.378906 284.292969 90.378906 284.292969 88.816406 C 284.292969 88.128906 284.042969 87.097656 283.011719 86.535156 C 281.949219 86.003906 280.792969 86.003906 279.574219 86.003906 C 279.074219 86.003906 278.230469 86.003906 278.074219 85.972656 C 277.449219 85.878906 277.042969 85.285156 277.042969 84.628906 Z M 279.917969 90.941406 C 277.886719 90.941406 276.511719 89.910156 276.511719 88.847656 C 276.511719 87.941406 277.261719 87.191406 278.136719 87.160156 L 279.324219 87.160156 C 281.042969 87.160156 283.261719 87.160156 283.261719 88.847656 C 283.261719 89.941406 281.855469 90.941406 279.917969 90.941406 Z M 279.917969 90.941406 "/>
<path style=" stroke:none;fill-rule:nonzero;fill:rgb(0%,0%,0%);fill-opacity:1;" d="M 294.035156 80.910156 C 294.035156 79.316406 293.941406 77.722656 293.253906 76.253906 C 292.347656 74.316406 290.691406 74.003906 289.878906 74.003906 C 288.660156 74.003906 287.222656 74.535156 286.378906 76.378906 C 285.753906 77.753906 285.660156 79.316406 285.660156 80.910156 C 285.660156 82.410156 285.722656 84.191406 286.566406 85.722656 C 287.410156 87.316406 288.878906 87.722656 289.847656 87.722656 C 290.910156 87.722656 292.441406 87.316406 293.316406 85.410156 C 293.941406 84.035156 294.035156 82.472656 294.035156 80.910156 Z M 289.847656 87.285156 C 289.066406 87.285156 287.878906 86.785156 287.535156 84.878906 C 287.316406 83.691406 287.316406 81.847656 287.316406 80.660156 C 287.316406 79.378906 287.316406 78.066406 287.472656 77.003906 C 287.847656 74.628906 289.347656 74.441406 289.847656 74.441406 C 290.503906 74.441406 291.816406 74.816406 292.191406 76.785156 C 292.410156 77.910156 292.410156 79.410156 292.410156 80.660156 C 292.410156 82.160156 292.410156 83.503906 292.191406 84.785156 C 291.878906 86.691406 290.753906 87.285156 289.847656 87.285156 Z M 289.847656 87.285156 "/>
<path style=" stroke:none;fill-rule:nonzero;fill:rgb(0%,0%,0%);fill-opacity:1;" d="M 304.539062 83.128906 L 305.289062 74.035156 C 305.289062 73.378906 304.757812 73.003906 304.257812 73.003906 C 303.726562 73.003906 303.195312 73.378906 303.195312 74.035156 L 303.976562 83.097656 C 303.976562 83.410156 304.007812 83.566406 304.257812 83.566406 C 304.445312 83.566406 304.507812 83.472656 304.539062 83.128906 Z M 305.289062 86.222656 C 305.289062 85.660156 304.820312 85.160156 304.257812 85.160156 C 303.664062 85.160156 303.195312 85.660156 303.195312 86.222656 C 303.195312 86.816406 303.664062 87.285156 304.257812 87.285156 C 304.820312 87.285156 305.289062 86.816406 305.289062 86.222656 Z M 305.289062 86.222656 "/>
<path style="fill:none;stroke-width:0.566929;stroke-linecap:butt;stroke-linejoin:miter;stroke:rgb(100%,0%,0%);stroke-opacity:0.5;stroke-miterlimit:10;" d="M -2.834646 109.29706 L 2.835276 103.629091 " transform="matrix(2,0,0,2,6.169291,5.952756)"/>
<path style="fill:none;stroke-width:0.566929;stroke-linecap:butt;stroke-linejoin:miter;stroke:rgb(100%,0%,0%);stroke-opacity:0.5;stroke-miterlimit:10;" d="M 2.835276 109.29706 L -2.834646 103.629091 " transform="matrix(2,0,0,2,6.169291,5.952756)"/>
<path style="fill-rule:nonzero;fill:rgb(50%,50%,0%);fill-opacity:0.1;stroke-width:0.566929;stroke-linecap:butt;stroke-linejoin:miter;stroke:rgb(100%,0%,0%);stroke-opacity:0.5;stroke-miterlimit:10;" d="M -0.000661294 129.066591 L 208.059886 129.066591 L 208.059886 71.832216 L -0.000661294 71.832216 Z M -0.000661294 129.066591 " transform="matrix(2,0,0,2,6.169291,5.952756)"/>
<path style="fill:none;stroke-width:0.566929;stroke-linecap:butt;stroke-linejoin:miter;stroke:rgb(100%,0%,0%);stroke-opacity:0.5;stroke-miterlimit:10;" d="M 44.811839 109.29706 L 50.479807 103.629091 " transform="matrix(2,0,0,2,6.169291,5.952756)"/>
<path style="fill:none;stroke-width:0.566929;stroke-linecap:butt;stroke-linejoin:miter;stroke:rgb(100%,0%,0%);stroke-opacity:0.5;stroke-miterlimit:10;" d="M 50.479807 109.29706 L 44.811839 103.629091 " transform="matrix(2,0,0,2,6.169291,5.952756)"/>
<path style="fill-rule:nonzero;fill:rgb(50%,50%,0%);fill-opacity:0.1;stroke-width:0.566929;stroke-linecap:butt;stroke-linejoin:miter;stroke:rgb(100%,0%,0%);stroke-opacity:0.5;stroke-miterlimit:10;" d="M -0.000661294 115.582216 L 96.67512 115.582216 L 96.67512 85.888856 L -0.000661294 85.888856 Z M -0.000661294 115.582216 " transform="matrix(2,0,0,2,6.169291,5.952756)"/>
<path style="fill:none;stroke-width:0.566929;stroke-linecap:butt;stroke-linejoin:miter;stroke:rgb(100%,0%,0%);stroke-opacity:0.5;stroke-miterlimit:10;" d="M 126.259104 109.29706 L 131.927073 103.629091 " transform="matrix(2,0,0,2,6.169291,5.952756)"/>
<path style="fill:none;stroke-width:0.566929;stroke-linecap:butt;stroke-linejoin:miter;stroke:rgb(100%,0%,0%);stroke-opacity:0.5;stroke-miterlimit:10;" d="M 131.927073 109.29706 L 126.259104 103.629091 " transform="matrix(2,0,0,2,6.169291,5.952756)"/>
<path style="fill-rule:nonzero;fill:rgb(50%,50%,0%);fill-opacity:0.1;stroke-width:0.566929;stroke-linecap:butt;stroke-linejoin:miter;stroke:rgb(100%,0%,0%);stroke-opacity:0.5;stroke-miterlimit:10;" d="M 96.67512 129.066591 L 181.962229 129.066591 L 181.962229 71.832216 L 96.67512 71.832216 Z M 96.67512 129.066591 " transform="matrix(2,0,0,2,6.169291,5.952756)"/>
<path style="fill:none;stroke-width:0.566929;stroke-linecap:butt;stroke-linejoin:miter;stroke:rgb(100%,0%,0%);stroke-opacity:0.5;stroke-miterlimit:10;" d="M 179.126292 109.29706 L 184.796214 103.629091 " transform="matrix(2,0,0,2,6.169291,5.952756)"/>
<path style="fill:none;stroke-width:0.566929;stroke-linecap:butt;stroke-linejoin:miter;stroke:rgb(100%,0%,0%);stroke-opacity:0.5;stroke-miterlimit:10;" d="M 184.796214 109.29706 L 179.126292 103.629091 " transform="matrix(2,0,0,2,6.169291,5.952756)"/>
<path style="fill-rule:nonzero;fill:rgb(50%,50%,0%);fill-opacity:0.1;stroke-width:0.566929;stroke-linecap:butt;stroke-linejoin:miter;stroke:rgb(100%,0%,0%);stroke-opacity:0.5;stroke-miterlimit:10;" d="M 181.962229 108.50995 L 208.059886 108.50995 L 208.059886 98.32245 L 181.962229 98.32245 Z M 181.962229 108.50995 " transform="matrix(2,0,0,2,6.169291,5.952756)"/>
<path style=" stroke:none;fill-rule:nonzero;fill:rgb(0%,0%,0%);fill-opacity:1;" d="M 382.65625 205.816406 C 382.65625 205.097656 382.6875 204.878906 384.21875 204.878906 L 384.71875 204.878906 L 384.71875 204.253906 C 384 204.316406 382.53125 204.316406 381.78125 204.316406 C 381.03125 204.316406 379.53125 204.316406 378.84375 204.253906 L 378.84375 204.878906 L 379.3125 204.878906 C 380.84375 204.878906 380.875 205.097656 380.875 205.816406 L 380.875 210.472656 L 374.9375 210.472656 L 374.9375 205.816406 C 374.9375 205.097656 374.96875 204.878906 376.5 204.878906 L 376.96875 204.878906 L 376.96875 204.253906 C 376.28125 204.316406 374.8125 204.316406 374.03125 204.316406 C 373.28125 204.316406 371.78125 204.316406 371.09375 204.253906 L 371.09375 204.878906 L 371.5625 204.878906 C 373.09375 204.878906 373.15625 205.097656 373.15625 205.816406 L 373.15625 216.316406 C 373.15625 217.035156 373.09375 217.253906 371.5625 217.253906 L 371.09375 217.253906 L 371.09375 217.878906 C 371.78125 217.816406 373.28125 217.816406 374.03125 217.816406 C 374.78125 217.816406 376.28125 217.816406 376.96875 217.878906 L 376.96875 217.253906 L 376.5 217.253906 C 374.96875 217.253906 374.9375 217.035156 374.9375 216.316406 L 374.9375 211.097656 L 380.875 211.097656 L 380.875 216.316406 C 380.875 217.035156 380.84375 217.253906 379.3125 217.253906 L 378.84375 217.253906 L 378.84375 217.878906 C 379.53125 217.816406 381 217.816406 381.75 217.816406 C 382.53125 217.816406 384 217.816406 384.71875 217.878906 L 384.71875 217.253906 L 384.21875 217.253906 C 382.6875 217.253906 382.65625 217.035156 382.65625 216.316406 Z M 382.65625 205.816406 "/>
<path style=" stroke:none;fill-rule:nonzero;fill:rgb(0%,0%,0%);fill-opacity:1;" d="M 388.910156 209.066406 L 386.128906 209.285156 L 386.128906 209.910156 C 387.410156 209.910156 387.597656 210.035156 387.597656 211.003906 L 387.597656 216.378906 C 387.597656 217.253906 387.378906 217.253906 386.035156 217.253906 L 386.035156 217.878906 C 386.660156 217.847656 387.753906 217.816406 388.222656 217.816406 C 388.941406 217.816406 389.628906 217.847656 390.316406 217.878906 L 390.316406 217.253906 C 388.972656 217.253906 388.910156 217.160156 388.910156 216.378906 Z M 388.972656 205.597656 C 388.972656 204.972656 388.503906 204.535156 387.941406 204.535156 C 387.316406 204.535156 386.878906 205.066406 386.878906 205.597656 C 386.878906 206.128906 387.316406 206.660156 387.941406 206.660156 C 388.503906 206.660156 388.972656 206.222656 388.972656 205.597656 Z M 388.972656 205.597656 "/>
<path style=" stroke:none;fill-rule:nonzero;fill:rgb(0%,0%,0%);fill-opacity:1;" d="M 395.351562 214.441406 C 393.601562 214.441406 393.601562 212.441406 393.601562 212.003906 C 393.601562 211.472656 393.632812 210.816406 393.914062 210.316406 C 394.070312 210.097656 394.539062 209.535156 395.351562 209.535156 C 397.070312 209.535156 397.070312 211.503906 397.070312 211.972656 C 397.070312 212.503906 397.070312 213.160156 396.757812 213.660156 C 396.601562 213.878906 396.132812 214.441406 395.351562 214.441406 Z M 393.039062 215.222656 C 393.039062 215.160156 393.039062 214.691406 393.351562 214.285156 C 394.132812 214.847656 394.976562 214.910156 395.351562 214.910156 C 397.195312 214.910156 398.570312 213.535156 398.570312 212.003906 C 398.570312 211.253906 398.257812 210.535156 397.757812 210.066406 C 398.476562 209.378906 399.195312 209.285156 399.539062 209.285156 C 399.601562 209.285156 399.695312 209.285156 399.757812 209.316406 C 399.539062 209.378906 399.414062 209.597656 399.414062 209.847656 C 399.414062 210.191406 399.695312 210.410156 400.007812 210.410156 C 400.195312 210.410156 400.570312 210.285156 400.570312 209.816406 C 400.570312 209.472656 400.351562 208.847656 399.570312 208.847656 C 399.164062 208.847656 398.289062 208.972656 397.445312 209.785156 C 396.601562 209.128906 395.789062 209.066406 395.351562 209.066406 C 393.476562 209.066406 392.101562 210.441406 392.101562 211.972656 C 392.101562 212.847656 392.539062 213.597656 393.039062 214.035156 C 392.789062 214.316406 392.414062 214.972656 392.414062 215.691406 C 392.414062 216.316406 392.695312 217.066406 393.320312 217.472656 C 392.101562 217.785156 391.476562 218.660156 391.476562 219.441406 C 391.476562 220.878906 393.445312 221.972656 395.882812 221.972656 C 398.226562 221.972656 400.289062 220.972656 400.289062 219.410156 C 400.289062 218.722656 400.039062 217.691406 399.007812 217.128906 C 397.945312 216.597656 396.789062 216.597656 395.570312 216.597656 C 395.070312 216.597656 394.226562 216.597656 394.070312 216.566406 C 393.445312 216.472656 393.039062 215.878906 393.039062 215.222656 Z M 395.914062 221.535156 C 393.882812 221.535156 392.507812 220.503906 392.507812 219.441406 C 392.507812 218.535156 393.257812 217.785156 394.132812 217.753906 L 395.320312 217.753906 C 397.039062 217.753906 399.257812 217.753906 399.257812 219.441406 C 399.257812 220.535156 397.851562 221.535156 395.914062 221.535156 Z M 395.914062 221.535156 "/>
<path style=" stroke:none;fill-rule:nonzero;fill:rgb(0%,0%,0%);fill-opacity:1;" d="M 406.753906 205.128906 C 406.753906 204.628906 406.753906 204.597656 406.285156 204.597656 C 405.035156 205.878906 403.285156 205.878906 402.660156 205.878906 L 402.660156 206.503906 C 403.066406 206.503906 404.222656 206.503906 405.253906 205.972656 L 405.253906 216.316406 C 405.253906 217.035156 405.191406 217.253906 403.410156 217.253906 L 402.785156 217.253906 L 402.785156 217.878906 C 403.472656 217.816406 405.191406 217.816406 406.003906 217.816406 C 406.785156 217.816406 408.535156 217.816406 409.222656 217.878906 L 409.222656 217.253906 L 408.597656 217.253906 C 406.785156 217.253906 406.753906 217.035156 406.753906 216.316406 Z M 406.753906 205.128906 "/>
<path style=" stroke:none;fill-rule:nonzero;fill:rgb(0%,0%,0%);fill-opacity:1;" d="M 420.539062 213.722656 L 421.289062 204.628906 C 421.289062 203.972656 420.757812 203.597656 420.257812 203.597656 C 419.726562 203.597656 419.195312 203.972656 419.195312 204.628906 L 419.976562 213.691406 C 419.976562 214.003906 420.007812 214.160156 420.257812 214.160156 C 420.445312 214.160156 420.507812 214.066406 420.539062 213.722656 Z M 421.289062 216.816406 C 421.289062 216.253906 420.820312 215.753906 420.257812 215.753906 C 419.664062 215.753906 419.195312 216.253906 419.195312 216.816406 C 419.195312 217.410156 419.664062 217.878906 420.257812 217.878906 C 420.820312 217.878906 421.289062 217.410156 421.289062 216.816406 Z M 421.289062 216.816406 "/>
</g>
</svg>
