<?xml version="1.0" encoding="UTF-8"?>
<svg xmlns="http://www.w3.org/2000/svg" xmlns:xlink="http://www.w3.org/1999/xlink" width="303.521655pt" height="398.666254pt" viewBox="0 0 303.521655 398.666254" version="1.1">
<g id="surface113">
<path style="fill:none;stroke-width:0.566929;stroke-linecap:butt;stroke-linejoin:miter;stroke:rgb(100%,0%,0%);stroke-opacity:0.5;stroke-miterlimit:10;" d="M -2.834646 2.834169 L 2.835276 -2.8338 " transform="matrix(2,0,0,2,6.169291,5.952756)"/>
<path style="fill:none;stroke-width:0.566929;stroke-linecap:butt;stroke-linejoin:miter;stroke:rgb(100%,0%,0%);stroke-opacity:0.5;stroke-miterlimit:10;" d="M 2.835276 2.834169 L -2.834646 -2.8338 " transform="matrix(2,0,0,2,6.169291,5.952756)"/>
<path style="fill-rule:nonzero;fill:rgb(50%,50%,0%);fill-opacity:0.1;stroke-width:0.566929;stroke-linecap:butt;stroke-linejoin:miter;stroke:rgb(100%,0%,0%);stroke-opacity:0.5;stroke-miterlimit:10;" d="M -0.000661294 196.107606 L 148.427073 196.107606 L 148.427073 0.000184547 L -0.000661294 0.000184547 Z M -0.000661294 196.107606 " transform="matrix(2,0,0,2,6.169291,5.952756)"/>
<path style="fill:none;stroke-width:0.566929;stroke-linecap:butt;stroke-linejoin:miter;stroke:rgb(100%,0%,0%);stroke-opacity:0.5;stroke-miterlimit:10;" d="M -2.834646 59.187685 L 2.835276 53.519716 " transform="matrix(2,0,0,2,6.169291,5.952756)"/>
<path style="fill:none;stroke-width:0.566929;stroke-linecap:butt;stroke-linejoin:miter;stroke:rgb(100%,0%,0%);stroke-opacity:0.5;stroke-miterlimit:10;" d="M 2.835276 59.187685 L -2.834646 53.519716 " transform="matrix(2,0,0,2,6.169291,5.952756)"/>
<path style="fill-rule:nonzero;fill:rgb(50%,50%,0%);fill-opacity:0.1;stroke-width:0.566929;stroke-linecap:butt;stroke-linejoin:miter;stroke:rgb(100%,0%,0%);stroke-opacity:0.5;stroke-miterlimit:10;" d="M -0.000661294 94.88495 L 118.278636 94.88495 L 118.278636 0.000184547 L -0.000661294 0.000184547 Z M -0.000661294 94.88495 " transform="matrix(2,0,0,2,6.169291,5.952756)"/>
<path style="fill:none;stroke-width:0.566929;stroke-linecap:butt;stroke-linejoin:miter;stroke:rgb(100%,0%,0%);stroke-opacity:0.5;stroke-miterlimit:10;" d="M 24.567698 59.187685 L 30.235667 53.519716 " transform="matrix(2,0,0,2,6.169291,5.952756)"/>
<path style="fill:none;stroke-width:0.566929;stroke-linecap:butt;stroke-linejoin:miter;stroke:rgb(100%,0%,0%);stroke-opacity:0.5;stroke-miterlimit:10;" d="M 30.235667 59.187685 L 24.567698 53.519716 " transform="matrix(2,0,0,2,6.169291,5.952756)"/>
<path style="fill-rule:nonzero;fill:rgb(50%,50%,0%);fill-opacity:0.1;stroke-width:0.566929;stroke-linecap:butt;stroke-linejoin:miter;stroke:rgb(100%,0%,0%);stroke-opacity:0.5;stroke-miterlimit:10;" d="M -0.000661294 82.402528 L 62.227854 82.402528 L 62.227854 0.718935 L -0.000661294 0.718935 Z M -0.000661294 82.402528 " transform="matrix(2,0,0,2,6.169291,5.952756)"/>
<path style="fill:none;stroke-width:0.566929;stroke-linecap:butt;stroke-linejoin:miter;stroke:rgb(100%,0%,0%);stroke-opacity:0.5;stroke-miterlimit:10;" d="M 71.975901 59.187685 L 77.64387 53.519716 " transform="matrix(2,0,0,2,6.169291,5.952756)"/>
<path style="fill:none;stroke-width:0.566929;stroke-linecap:butt;stroke-linejoin:miter;stroke:rgb(100%,0%,0%);stroke-opacity:0.5;stroke-miterlimit:10;" d="M 77.64387 59.187685 L 71.975901 53.519716 " transform="matrix(2,0,0,2,6.169291,5.952756)"/>
<path style="fill-rule:nonzero;fill:rgb(50%,50%,0%);fill-opacity:0.1;stroke-width:0.566929;stroke-linecap:butt;stroke-linejoin:miter;stroke:rgb(100%,0%,0%);stroke-opacity:0.5;stroke-miterlimit:10;" d="M 62.227854 94.88495 L 92.180979 94.88495 L 92.180979 0.000184547 L 62.227854 0.000184547 Z M 62.227854 94.88495 " transform="matrix(2,0,0,2,6.169291,5.952756)"/>
<path style="fill:none;stroke-width:0.566929;stroke-linecap:butt;stroke-linejoin:miter;stroke:rgb(100%,0%,0%);stroke-opacity:0.5;stroke-miterlimit:10;" d="M 89.346995 59.187685 L 95.014964 53.519716 " transform="matrix(2,0,0,2,6.169291,5.952756)"/>
<path style="fill:none;stroke-width:0.566929;stroke-linecap:butt;stroke-linejoin:miter;stroke:rgb(100%,0%,0%);stroke-opacity:0.5;stroke-miterlimit:10;" d="M 95.014964 59.187685 L 89.346995 53.519716 " transform="matrix(2,0,0,2,6.169291,5.952756)"/>
<path style="fill-rule:nonzero;fill:rgb(50%,50%,0%);fill-opacity:0.1;stroke-width:0.566929;stroke-linecap:butt;stroke-linejoin:miter;stroke:rgb(100%,0%,0%);stroke-opacity:0.5;stroke-miterlimit:10;" d="M 92.180979 58.400575 L 118.278636 58.400575 L 118.278636 48.213075 L 92.180979 48.213075 Z M 92.180979 58.400575 " transform="matrix(2,0,0,2,6.169291,5.952756)"/>
<path style=" stroke:none;fill-rule:nonzero;fill:rgb(0%,0%,0%);fill-opacity:1;" d="M 203.09375 105.597656 C 203.09375 104.878906 203.125 104.660156 204.65625 104.660156 L 205.15625 104.660156 L 205.15625 104.035156 C 204.4375 104.097656 202.96875 104.097656 202.21875 104.097656 C 201.46875 104.097656 199.96875 104.097656 199.28125 104.035156 L 199.28125 104.660156 L 199.75 104.660156 C 201.28125 104.660156 201.3125 104.878906 201.3125 105.597656 L 201.3125 110.253906 L 195.375 110.253906 L 195.375 105.597656 C 195.375 104.878906 195.40625 104.660156 196.9375 104.660156 L 197.40625 104.660156 L 197.40625 104.035156 C 196.71875 104.097656 195.25 104.097656 194.46875 104.097656 C 193.71875 104.097656 192.21875 104.097656 191.53125 104.035156 L 191.53125 104.660156 L 192 104.660156 C 193.53125 104.660156 193.59375 104.878906 193.59375 105.597656 L 193.59375 116.097656 C 193.59375 116.816406 193.53125 117.035156 192 117.035156 L 191.53125 117.035156 L 191.53125 117.660156 C 192.21875 117.597656 193.71875 117.597656 194.46875 117.597656 C 195.21875 117.597656 196.71875 117.597656 197.40625 117.660156 L 197.40625 117.035156 L 196.9375 117.035156 C 195.40625 117.035156 195.375 116.816406 195.375 116.097656 L 195.375 110.878906 L 201.3125 110.878906 L 201.3125 116.097656 C 201.3125 116.816406 201.28125 117.035156 199.75 117.035156 L 199.28125 117.035156 L 199.28125 117.660156 C 199.96875 117.597656 201.4375 117.597656 202.1875 117.597656 C 202.96875 117.597656 204.4375 117.597656 205.15625 117.660156 L 205.15625 117.035156 L 204.65625 117.035156 C 203.125 117.035156 203.09375 116.816406 203.09375 116.097656 Z M 203.09375 105.597656 "/>
<path style=" stroke:none;fill-rule:nonzero;fill:rgb(0%,0%,0%);fill-opacity:1;" d="M 209.351562 108.847656 L 206.570312 109.066406 L 206.570312 109.691406 C 207.851562 109.691406 208.039062 109.816406 208.039062 110.785156 L 208.039062 116.160156 C 208.039062 117.035156 207.820312 117.035156 206.476562 117.035156 L 206.476562 117.660156 C 207.101562 117.628906 208.195312 117.597656 208.664062 117.597656 C 209.382812 117.597656 210.070312 117.628906 210.757812 117.660156 L 210.757812 117.035156 C 209.414062 117.035156 209.351562 116.941406 209.351562 116.160156 Z M 209.414062 105.378906 C 209.414062 104.753906 208.945312 104.316406 208.382812 104.316406 C 207.757812 104.316406 207.320312 104.847656 207.320312 105.378906 C 207.320312 105.910156 207.757812 106.441406 208.382812 106.441406 C 208.945312 106.441406 209.414062 106.003906 209.414062 105.378906 Z M 209.414062 105.378906 "/>
<path style=" stroke:none;fill-rule:nonzero;fill:rgb(0%,0%,0%);fill-opacity:1;" d="M 215.792969 114.222656 C 214.042969 114.222656 214.042969 112.222656 214.042969 111.785156 C 214.042969 111.253906 214.074219 110.597656 214.355469 110.097656 C 214.511719 109.878906 214.980469 109.316406 215.792969 109.316406 C 217.511719 109.316406 217.511719 111.285156 217.511719 111.753906 C 217.511719 112.285156 217.511719 112.941406 217.199219 113.441406 C 217.042969 113.660156 216.574219 114.222656 215.792969 114.222656 Z M 213.480469 115.003906 C 213.480469 114.941406 213.480469 114.472656 213.792969 114.066406 C 214.574219 114.628906 215.417969 114.691406 215.792969 114.691406 C 217.636719 114.691406 219.011719 113.316406 219.011719 111.785156 C 219.011719 111.035156 218.699219 110.316406 218.199219 109.847656 C 218.917969 109.160156 219.636719 109.066406 219.980469 109.066406 C 220.042969 109.066406 220.136719 109.066406 220.199219 109.097656 C 219.980469 109.160156 219.855469 109.378906 219.855469 109.628906 C 219.855469 109.972656 220.136719 110.191406 220.449219 110.191406 C 220.636719 110.191406 221.011719 110.066406 221.011719 109.597656 C 221.011719 109.253906 220.792969 108.628906 220.011719 108.628906 C 219.605469 108.628906 218.730469 108.753906 217.886719 109.566406 C 217.042969 108.910156 216.230469 108.847656 215.792969 108.847656 C 213.917969 108.847656 212.542969 110.222656 212.542969 111.753906 C 212.542969 112.628906 212.980469 113.378906 213.480469 113.816406 C 213.230469 114.097656 212.855469 114.753906 212.855469 115.472656 C 212.855469 116.097656 213.136719 116.847656 213.761719 117.253906 C 212.542969 117.566406 211.917969 118.441406 211.917969 119.222656 C 211.917969 120.660156 213.886719 121.753906 216.324219 121.753906 C 218.667969 121.753906 220.730469 120.753906 220.730469 119.191406 C 220.730469 118.503906 220.480469 117.472656 219.449219 116.910156 C 218.386719 116.378906 217.230469 116.378906 216.011719 116.378906 C 215.511719 116.378906 214.667969 116.378906 214.511719 116.347656 C 213.886719 116.253906 213.480469 115.660156 213.480469 115.003906 Z M 216.355469 121.316406 C 214.324219 121.316406 212.949219 120.285156 212.949219 119.222656 C 212.949219 118.316406 213.699219 117.566406 214.574219 117.535156 L 215.761719 117.535156 C 217.480469 117.535156 219.699219 117.535156 219.699219 119.222656 C 219.699219 120.316406 218.292969 121.316406 216.355469 121.316406 Z M 216.355469 121.316406 "/>
<path style=" stroke:none;fill-rule:nonzero;fill:rgb(0%,0%,0%);fill-opacity:1;" d="M 230.472656 111.285156 C 230.472656 109.691406 230.378906 108.097656 229.691406 106.628906 C 228.785156 104.691406 227.128906 104.378906 226.316406 104.378906 C 225.097656 104.378906 223.660156 104.910156 222.816406 106.753906 C 222.191406 108.128906 222.097656 109.691406 222.097656 111.285156 C 222.097656 112.785156 222.160156 114.566406 223.003906 116.097656 C 223.847656 117.691406 225.316406 118.097656 226.285156 118.097656 C 227.347656 118.097656 228.878906 117.691406 229.753906 115.785156 C 230.378906 114.410156 230.472656 112.847656 230.472656 111.285156 Z M 226.285156 117.660156 C 225.503906 117.660156 224.316406 117.160156 223.972656 115.253906 C 223.753906 114.066406 223.753906 112.222656 223.753906 111.035156 C 223.753906 109.753906 223.753906 108.441406 223.910156 107.378906 C 224.285156 105.003906 225.785156 104.816406 226.285156 104.816406 C 226.941406 104.816406 228.253906 105.191406 228.628906 107.160156 C 228.847656 108.285156 228.847656 109.785156 228.847656 111.035156 C 228.847656 112.535156 228.847656 113.878906 228.628906 115.160156 C 228.316406 117.066406 227.191406 117.660156 226.285156 117.660156 Z M 226.285156 117.660156 "/>
<path style=" stroke:none;fill-rule:nonzero;fill:rgb(0%,0%,0%);fill-opacity:1;" d="M 240.976562 113.503906 L 241.726562 104.410156 C 241.726562 103.753906 241.195312 103.378906 240.695312 103.378906 C 240.164062 103.378906 239.632812 103.753906 239.632812 104.410156 L 240.414062 113.472656 C 240.414062 113.785156 240.445312 113.941406 240.695312 113.941406 C 240.882812 113.941406 240.945312 113.847656 240.976562 113.503906 Z M 241.726562 116.597656 C 241.726562 116.035156 241.257812 115.535156 240.695312 115.535156 C 240.101562 115.535156 239.632812 116.035156 239.632812 116.597656 C 239.632812 117.191406 240.101562 117.660156 240.695312 117.660156 C 241.257812 117.660156 241.726562 117.191406 241.726562 116.597656 Z M 241.726562 116.597656 "/>
<path style="fill:none;stroke-width:0.566929;stroke-linecap:butt;stroke-linejoin:miter;stroke:rgb(100%,0%,0%);stroke-opacity:0.5;stroke-miterlimit:10;" d="M -2.834646 149.052919 L 2.835276 143.38495 " transform="matrix(2,0,0,2,6.169291,5.952756)"/>
<path style="fill:none;stroke-width:0.566929;stroke-linecap:butt;stroke-linejoin:miter;stroke:rgb(100%,0%,0%);stroke-opacity:0.5;stroke-miterlimit:10;" d="M 2.835276 149.052919 L -2.834646 143.38495 " transform="matrix(2,0,0,2,6.169291,5.952756)"/>
<path style="fill-rule:nonzero;fill:rgb(50%,50%,0%);fill-opacity:0.1;stroke-width:0.566929;stroke-linecap:butt;stroke-linejoin:miter;stroke:rgb(100%,0%,0%);stroke-opacity:0.5;stroke-miterlimit:10;" d="M -0.000661294 196.107606 L 148.427073 196.107606 L 148.427073 94.88495 L -0.000661294 94.88495 Z M -0.000661294 196.107606 " transform="matrix(2,0,0,2,6.169291,5.952756)"/>
<path style="fill:none;stroke-width:0.566929;stroke-linecap:butt;stroke-linejoin:miter;stroke:rgb(100%,0%,0%);stroke-opacity:0.5;stroke-miterlimit:10;" d="M 33.192698 149.052919 L 38.86262 143.38495 " transform="matrix(2,0,0,2,6.169291,5.952756)"/>
<path style="fill:none;stroke-width:0.566929;stroke-linecap:butt;stroke-linejoin:miter;stroke:rgb(100%,0%,0%);stroke-opacity:0.5;stroke-miterlimit:10;" d="M 38.86262 149.052919 L 33.192698 143.38495 " transform="matrix(2,0,0,2,6.169291,5.952756)"/>
<path style="fill-rule:nonzero;fill:rgb(50%,50%,0%);fill-opacity:0.1;stroke-width:0.566929;stroke-linecap:butt;stroke-linejoin:miter;stroke:rgb(100%,0%,0%);stroke-opacity:0.5;stroke-miterlimit:10;" d="M -0.000661294 196.107606 L 55.813792 196.107606 L 55.813792 94.88495 L -0.000661294 94.88495 Z M -0.000661294 196.107606 " transform="matrix(2,0,0,2,6.169291,5.952756)"/>
<path style="fill:none;stroke-width:0.566929;stroke-linecap:butt;stroke-linejoin:miter;stroke:rgb(100%,0%,0%);stroke-opacity:0.5;stroke-miterlimit:10;" d="M 108.991526 149.052919 L 114.659495 143.38495 " transform="matrix(2,0,0,2,6.169291,5.952756)"/>
<path style="fill:none;stroke-width:0.566929;stroke-linecap:butt;stroke-linejoin:miter;stroke:rgb(100%,0%,0%);stroke-opacity:0.5;stroke-miterlimit:10;" d="M 114.659495 149.052919 L 108.991526 143.38495 " transform="matrix(2,0,0,2,6.169291,5.952756)"/>
<path style="fill-rule:nonzero;fill:rgb(50%,50%,0%);fill-opacity:0.1;stroke-width:0.566929;stroke-linecap:butt;stroke-linejoin:miter;stroke:rgb(100%,0%,0%);stroke-opacity:0.5;stroke-miterlimit:10;" d="M 55.813792 176.754091 L 122.327464 176.754091 L 122.327464 127.875185 L 55.813792 127.875185 Z M 55.813792 176.754091 " transform="matrix(2,0,0,2,6.169291,5.952756)"/>
<path style="fill:none;stroke-width:0.566929;stroke-linecap:butt;stroke-linejoin:miter;stroke:rgb(100%,0%,0%);stroke-opacity:0.5;stroke-miterlimit:10;" d="M 119.493479 149.052919 L 125.163401 143.38495 " transform="matrix(2,0,0,2,6.169291,5.952756)"/>
<path style="fill:none;stroke-width:0.566929;stroke-linecap:butt;stroke-linejoin:miter;stroke:rgb(100%,0%,0%);stroke-opacity:0.5;stroke-miterlimit:10;" d="M 125.163401 149.052919 L 119.493479 143.38495 " transform="matrix(2,0,0,2,6.169291,5.952756)"/>
<path style="fill-rule:nonzero;fill:rgb(50%,50%,0%);fill-opacity:0.1;stroke-width:0.566929;stroke-linecap:butt;stroke-linejoin:miter;stroke:rgb(100%,0%,0%);stroke-opacity:0.5;stroke-miterlimit:10;" d="M 122.327464 148.26581 L 148.427073 148.26581 L 148.427073 138.07831 L 122.327464 138.07831 Z M 122.327464 148.26581 " transform="matrix(2,0,0,2,6.169291,5.952756)"/>
<path style=" stroke:none;fill-rule:nonzero;fill:rgb(0%,0%,0%);fill-opacity:1;" d="M 263.386719 285.328125 C 263.386719 284.609375 263.417969 284.390625 264.949219 284.390625 L 265.449219 284.390625 L 265.449219 283.765625 C 264.730469 283.828125 263.261719 283.828125 262.511719 283.828125 C 261.761719 283.828125 260.261719 283.828125 259.574219 283.765625 L 259.574219 284.390625 L 260.042969 284.390625 C 261.574219 284.390625 261.605469 284.609375 261.605469 285.328125 L 261.605469 289.984375 L 255.667969 289.984375 L 255.667969 285.328125 C 255.667969 284.609375 255.699219 284.390625 257.230469 284.390625 L 257.699219 284.390625 L 257.699219 283.765625 C 257.011719 283.828125 255.542969 283.828125 254.761719 283.828125 C 254.011719 283.828125 252.511719 283.828125 251.824219 283.765625 L 251.824219 284.390625 L 252.292969 284.390625 C 253.824219 284.390625 253.886719 284.609375 253.886719 285.328125 L 253.886719 295.828125 C 253.886719 296.546875 253.824219 296.765625 252.292969 296.765625 L 251.824219 296.765625 L 251.824219 297.390625 C 252.511719 297.328125 254.011719 297.328125 254.761719 297.328125 C 255.511719 297.328125 257.011719 297.328125 257.699219 297.390625 L 257.699219 296.765625 L 257.230469 296.765625 C 255.699219 296.765625 255.667969 296.546875 255.667969 295.828125 L 255.667969 290.609375 L 261.605469 290.609375 L 261.605469 295.828125 C 261.605469 296.546875 261.574219 296.765625 260.042969 296.765625 L 259.574219 296.765625 L 259.574219 297.390625 C 260.261719 297.328125 261.730469 297.328125 262.480469 297.328125 C 263.261719 297.328125 264.730469 297.328125 265.449219 297.390625 L 265.449219 296.765625 L 264.949219 296.765625 C 263.417969 296.765625 263.386719 296.546875 263.386719 295.828125 Z M 263.386719 285.328125 "/>
<path style=" stroke:none;fill-rule:nonzero;fill:rgb(0%,0%,0%);fill-opacity:1;" d="M 269.644531 288.578125 L 266.863281 288.796875 L 266.863281 289.421875 C 268.144531 289.421875 268.332031 289.546875 268.332031 290.515625 L 268.332031 295.890625 C 268.332031 296.765625 268.113281 296.765625 266.769531 296.765625 L 266.769531 297.390625 C 267.394531 297.359375 268.488281 297.328125 268.957031 297.328125 C 269.675781 297.328125 270.363281 297.359375 271.050781 297.390625 L 271.050781 296.765625 C 269.707031 296.765625 269.644531 296.671875 269.644531 295.890625 Z M 269.707031 285.109375 C 269.707031 284.484375 269.238281 284.046875 268.675781 284.046875 C 268.050781 284.046875 267.613281 284.578125 267.613281 285.109375 C 267.613281 285.640625 268.050781 286.171875 268.675781 286.171875 C 269.238281 286.171875 269.707031 285.734375 269.707031 285.109375 Z M 269.707031 285.109375 "/>
<path style=" stroke:none;fill-rule:nonzero;fill:rgb(0%,0%,0%);fill-opacity:1;" d="M 276.085938 293.953125 C 274.335938 293.953125 274.335938 291.953125 274.335938 291.515625 C 274.335938 290.984375 274.367188 290.328125 274.648438 289.828125 C 274.804688 289.609375 275.273438 289.046875 276.085938 289.046875 C 277.804688 289.046875 277.804688 291.015625 277.804688 291.484375 C 277.804688 292.015625 277.804688 292.671875 277.492188 293.171875 C 277.335938 293.390625 276.867188 293.953125 276.085938 293.953125 Z M 273.773438 294.734375 C 273.773438 294.671875 273.773438 294.203125 274.085938 293.796875 C 274.867188 294.359375 275.710938 294.421875 276.085938 294.421875 C 277.929688 294.421875 279.304688 293.046875 279.304688 291.515625 C 279.304688 290.765625 278.992188 290.046875 278.492188 289.578125 C 279.210938 288.890625 279.929688 288.796875 280.273438 288.796875 C 280.335938 288.796875 280.429688 288.796875 280.492188 288.828125 C 280.273438 288.890625 280.148438 289.109375 280.148438 289.359375 C 280.148438 289.703125 280.429688 289.921875 280.742188 289.921875 C 280.929688 289.921875 281.304688 289.796875 281.304688 289.328125 C 281.304688 288.984375 281.085938 288.359375 280.304688 288.359375 C 279.898438 288.359375 279.023438 288.484375 278.179688 289.296875 C 277.335938 288.640625 276.523438 288.578125 276.085938 288.578125 C 274.210938 288.578125 272.835938 289.953125 272.835938 291.484375 C 272.835938 292.359375 273.273438 293.109375 273.773438 293.546875 C 273.523438 293.828125 273.148438 294.484375 273.148438 295.203125 C 273.148438 295.828125 273.429688 296.578125 274.054688 296.984375 C 272.835938 297.296875 272.210938 298.171875 272.210938 298.953125 C 272.210938 300.390625 274.179688 301.484375 276.617188 301.484375 C 278.960938 301.484375 281.023438 300.484375 281.023438 298.921875 C 281.023438 298.234375 280.773438 297.203125 279.742188 296.640625 C 278.679688 296.109375 277.523438 296.109375 276.304688 296.109375 C 275.804688 296.109375 274.960938 296.109375 274.804688 296.078125 C 274.179688 295.984375 273.773438 295.390625 273.773438 294.734375 Z M 276.648438 301.046875 C 274.617188 301.046875 273.242188 300.015625 273.242188 298.953125 C 273.242188 298.046875 273.992188 297.296875 274.867188 297.265625 L 276.054688 297.265625 C 277.773438 297.265625 279.992188 297.265625 279.992188 298.953125 C 279.992188 300.046875 278.585938 301.046875 276.648438 301.046875 Z M 276.648438 301.046875 "/>
<path style=" stroke:none;fill-rule:nonzero;fill:rgb(0%,0%,0%);fill-opacity:1;" d="M 287.488281 284.640625 C 287.488281 284.140625 287.488281 284.109375 287.019531 284.109375 C 285.769531 285.390625 284.019531 285.390625 283.394531 285.390625 L 283.394531 286.015625 C 283.800781 286.015625 284.957031 286.015625 285.988281 285.484375 L 285.988281 295.828125 C 285.988281 296.546875 285.925781 296.765625 284.144531 296.765625 L 283.519531 296.765625 L 283.519531 297.390625 C 284.207031 297.328125 285.925781 297.328125 286.738281 297.328125 C 287.519531 297.328125 289.269531 297.328125 289.957031 297.390625 L 289.957031 296.765625 L 289.332031 296.765625 C 287.519531 296.765625 287.488281 296.546875 287.488281 295.828125 Z M 287.488281 284.640625 "/>
<path style=" stroke:none;fill-rule:nonzero;fill:rgb(0%,0%,0%);fill-opacity:1;" d="M 301.273438 293.234375 L 302.023438 284.140625 C 302.023438 283.484375 301.492188 283.109375 300.992188 283.109375 C 300.460938 283.109375 299.929688 283.484375 299.929688 284.140625 L 300.710938 293.203125 C 300.710938 293.515625 300.742188 293.671875 300.992188 293.671875 C 301.179688 293.671875 301.242188 293.578125 301.273438 293.234375 Z M 302.023438 296.328125 C 302.023438 295.765625 301.554688 295.265625 300.992188 295.265625 C 300.398438 295.265625 299.929688 295.765625 299.929688 296.328125 C 299.929688 296.921875 300.398438 297.390625 300.992188 297.390625 C 301.554688 297.390625 302.023438 296.921875 302.023438 296.328125 Z M 302.023438 296.328125 "/>
</g>
</svg>
