<?xml version="1.0" encoding="UTF-8"?>
<svg xmlns="http://www.w3.org/2000/svg" xmlns:xlink="http://www.w3.org/1999/xlink" width="286.737226pt" height="241.97774pt" viewBox="0 0 286.737226 241.97774" version="1.1">
<g id="surface137">
<path style="fill:none;stroke-width:0.566929;stroke-linecap:butt;stroke-linejoin:miter;stroke:rgb(100%,0%,0%);stroke-opacity:0.5;stroke-miterlimit:10;" d="M -2.834646 2.834169 L 2.835276 -2.8338 " transform="matrix(2,0,0,2,6.169291,5.952756)"/>
<path style="fill:none;stroke-width:0.566929;stroke-linecap:butt;stroke-linejoin:miter;stroke:rgb(100%,0%,0%);stroke-opacity:0.5;stroke-miterlimit:10;" d="M 2.835276 2.834169 L -2.834646 -2.8338 " transform="matrix(2,0,0,2,6.169291,5.952756)"/>
<path style="fill-rule:nonzero;fill:rgb(50%,50%,0%);fill-opacity:0.1;stroke-width:0.566929;stroke-linecap:butt;stroke-linejoin:miter;stroke:rgb(100%,0%,0%);stroke-opacity:0.5;stroke-miterlimit:10;" d="M -0.000661294 117.761903 L 140.034495 117.761903 L 140.034495 0.000184547 L -0.000661294 0.000184547 Z M -0.000661294 117.761903 " transform="matrix(2,0,0,2,6.169291,5.952756)"/>
<path style="fill:none;stroke-width:0.566929;stroke-linecap:butt;stroke-linejoin:miter;stroke:rgb(100%,0%,0%);stroke-opacity:0.5;stroke-miterlimit:10;" d="M -2.834646 17.199403 L 2.835276 11.531435 " transform="matrix(2,0,0,2,6.169291,5.952756)"/>
<path style="fill:none;stroke-width:0.566929;stroke-linecap:butt;stroke-linejoin:miter;stroke:rgb(100%,0%,0%);stroke-opacity:0.5;stroke-miterlimit:10;" d="M 2.835276 17.199403 L -2.834646 11.531435 " transform="matrix(2,0,0,2,6.169291,5.952756)"/>
<path style="fill-rule:nonzero;fill:rgb(50%,50%,0%);fill-opacity:0.1;stroke-width:0.566929;stroke-linecap:butt;stroke-linejoin:miter;stroke:rgb(100%,0%,0%);stroke-opacity:0.5;stroke-miterlimit:10;" d="M -0.000661294 54.746278 L 88.565745 54.746278 L 88.565745 0.000184547 L -0.000661294 0.000184547 Z M -0.000661294 54.746278 " transform="matrix(2,0,0,2,6.169291,5.952756)"/>
<path style="fill:none;stroke-width:0.566929;stroke-linecap:butt;stroke-linejoin:miter;stroke:rgb(100%,0%,0%);stroke-opacity:0.5;stroke-miterlimit:10;" d="M 12.052073 17.199403 L 17.721995 11.531435 " transform="matrix(2,0,0,2,6.169291,5.952756)"/>
<path style="fill:none;stroke-width:0.566929;stroke-linecap:butt;stroke-linejoin:miter;stroke:rgb(100%,0%,0%);stroke-opacity:0.5;stroke-miterlimit:10;" d="M 17.721995 17.199403 L 12.052073 11.531435 " transform="matrix(2,0,0,2,6.169291,5.952756)"/>
<path style="fill-rule:nonzero;fill:rgb(50%,50%,0%);fill-opacity:0.1;stroke-width:0.566929;stroke-linecap:butt;stroke-linejoin:miter;stroke:rgb(100%,0%,0%);stroke-opacity:0.5;stroke-miterlimit:10;" d="M -0.000661294 33.652528 L 43.442698 33.652528 L 43.442698 5.732606 L -0.000661294 5.732606 Z M -0.000661294 33.652528 " transform="matrix(2,0,0,2,6.169291,5.952756)"/>
<path style="fill:none;stroke-width:0.566929;stroke-linecap:butt;stroke-linejoin:miter;stroke:rgb(100%,0%,0%);stroke-opacity:0.5;stroke-miterlimit:10;" d="M 53.95637 17.199403 L 59.626292 11.531435 " transform="matrix(2,0,0,2,6.169291,5.952756)"/>
<path style="fill:none;stroke-width:0.566929;stroke-linecap:butt;stroke-linejoin:miter;stroke:rgb(100%,0%,0%);stroke-opacity:0.5;stroke-miterlimit:10;" d="M 59.626292 17.199403 L 53.95637 11.531435 " transform="matrix(2,0,0,2,6.169291,5.952756)"/>
<path style="fill-rule:nonzero;fill:rgb(50%,50%,0%);fill-opacity:0.1;stroke-width:0.566929;stroke-linecap:butt;stroke-linejoin:miter;stroke:rgb(100%,0%,0%);stroke-opacity:0.5;stroke-miterlimit:10;" d="M 43.442698 54.746278 L 62.468089 54.746278 L 62.468089 0.000184547 L 43.442698 0.000184547 Z M 43.442698 54.746278 " transform="matrix(2,0,0,2,6.169291,5.952756)"/>
<path style="fill:none;stroke-width:0.566929;stroke-linecap:butt;stroke-linejoin:miter;stroke:rgb(100%,0%,0%);stroke-opacity:0.5;stroke-miterlimit:10;" d="M 59.634104 17.199403 L 65.302073 11.531435 " transform="matrix(2,0,0,2,6.169291,5.952756)"/>
<path style="fill:none;stroke-width:0.566929;stroke-linecap:butt;stroke-linejoin:miter;stroke:rgb(100%,0%,0%);stroke-opacity:0.5;stroke-miterlimit:10;" d="M 65.302073 17.199403 L 59.634104 11.531435 " transform="matrix(2,0,0,2,6.169291,5.952756)"/>
<path style="fill-rule:nonzero;fill:rgb(50%,50%,0%);fill-opacity:0.1;stroke-width:0.566929;stroke-linecap:butt;stroke-linejoin:miter;stroke:rgb(100%,0%,0%);stroke-opacity:0.5;stroke-miterlimit:10;" d="M 62.468089 16.412294 L 88.565745 16.412294 L 88.565745 6.224794 L 62.468089 6.224794 Z M 62.468089 16.412294 " transform="matrix(2,0,0,2,6.169291,5.952756)"/>
<path style=" stroke:none;fill-rule:nonzero;fill:rgb(0%,0%,0%);fill-opacity:1;" d="M 143.667969 21.621094 C 143.667969 20.902344 143.699219 20.683594 145.230469 20.683594 L 145.730469 20.683594 L 145.730469 20.058594 C 145.011719 20.121094 143.542969 20.121094 142.792969 20.121094 C 142.042969 20.121094 140.542969 20.121094 139.855469 20.058594 L 139.855469 20.683594 L 140.324219 20.683594 C 141.855469 20.683594 141.886719 20.902344 141.886719 21.621094 L 141.886719 26.277344 L 135.949219 26.277344 L 135.949219 21.621094 C 135.949219 20.902344 135.980469 20.683594 137.511719 20.683594 L 137.980469 20.683594 L 137.980469 20.058594 C 137.292969 20.121094 135.824219 20.121094 135.042969 20.121094 C 134.292969 20.121094 132.792969 20.121094 132.105469 20.058594 L 132.105469 20.683594 L 132.574219 20.683594 C 134.105469 20.683594 134.167969 20.902344 134.167969 21.621094 L 134.167969 32.121094 C 134.167969 32.839844 134.105469 33.058594 132.574219 33.058594 L 132.105469 33.058594 L 132.105469 33.683594 C 132.792969 33.621094 134.292969 33.621094 135.042969 33.621094 C 135.792969 33.621094 137.292969 33.621094 137.980469 33.683594 L 137.980469 33.058594 L 137.511719 33.058594 C 135.980469 33.058594 135.949219 32.839844 135.949219 32.121094 L 135.949219 26.902344 L 141.886719 26.902344 L 141.886719 32.121094 C 141.886719 32.839844 141.855469 33.058594 140.324219 33.058594 L 139.855469 33.058594 L 139.855469 33.683594 C 140.542969 33.621094 142.011719 33.621094 142.761719 33.621094 C 143.542969 33.621094 145.011719 33.621094 145.730469 33.683594 L 145.730469 33.058594 L 145.230469 33.058594 C 143.699219 33.058594 143.667969 32.839844 143.667969 32.121094 Z M 143.667969 21.621094 "/>
<path style=" stroke:none;fill-rule:nonzero;fill:rgb(0%,0%,0%);fill-opacity:1;" d="M 149.925781 24.871094 L 147.144531 25.089844 L 147.144531 25.714844 C 148.425781 25.714844 148.613281 25.839844 148.613281 26.808594 L 148.613281 32.183594 C 148.613281 33.058594 148.394531 33.058594 147.050781 33.058594 L 147.050781 33.683594 C 147.675781 33.652344 148.769531 33.621094 149.238281 33.621094 C 149.957031 33.621094 150.644531 33.652344 151.332031 33.683594 L 151.332031 33.058594 C 149.988281 33.058594 149.925781 32.964844 149.925781 32.183594 Z M 149.988281 21.402344 C 149.988281 20.777344 149.519531 20.339844 148.957031 20.339844 C 148.332031 20.339844 147.894531 20.871094 147.894531 21.402344 C 147.894531 21.933594 148.332031 22.464844 148.957031 22.464844 C 149.519531 22.464844 149.988281 22.027344 149.988281 21.402344 Z M 149.988281 21.402344 "/>
<path style=" stroke:none;fill-rule:nonzero;fill:rgb(0%,0%,0%);fill-opacity:1;" d="M 156.367188 30.246094 C 154.617188 30.246094 154.617188 28.246094 154.617188 27.808594 C 154.617188 27.277344 154.648438 26.621094 154.929688 26.121094 C 155.085938 25.902344 155.554688 25.339844 156.367188 25.339844 C 158.085938 25.339844 158.085938 27.308594 158.085938 27.777344 C 158.085938 28.308594 158.085938 28.964844 157.773438 29.464844 C 157.617188 29.683594 157.148438 30.246094 156.367188 30.246094 Z M 154.054688 31.027344 C 154.054688 30.964844 154.054688 30.496094 154.367188 30.089844 C 155.148438 30.652344 155.992188 30.714844 156.367188 30.714844 C 158.210938 30.714844 159.585938 29.339844 159.585938 27.808594 C 159.585938 27.058594 159.273438 26.339844 158.773438 25.871094 C 159.492188 25.183594 160.210938 25.089844 160.554688 25.089844 C 160.617188 25.089844 160.710938 25.089844 160.773438 25.121094 C 160.554688 25.183594 160.429688 25.402344 160.429688 25.652344 C 160.429688 25.996094 160.710938 26.214844 161.023438 26.214844 C 161.210938 26.214844 161.585938 26.089844 161.585938 25.621094 C 161.585938 25.277344 161.367188 24.652344 160.585938 24.652344 C 160.179688 24.652344 159.304688 24.777344 158.460938 25.589844 C 157.617188 24.933594 156.804688 24.871094 156.367188 24.871094 C 154.492188 24.871094 153.117188 26.246094 153.117188 27.777344 C 153.117188 28.652344 153.554688 29.402344 154.054688 29.839844 C 153.804688 30.121094 153.429688 30.777344 153.429688 31.496094 C 153.429688 32.121094 153.710938 32.871094 154.335938 33.277344 C 153.117188 33.589844 152.492188 34.464844 152.492188 35.246094 C 152.492188 36.683594 154.460938 37.777344 156.898438 37.777344 C 159.242188 37.777344 161.304688 36.777344 161.304688 35.214844 C 161.304688 34.527344 161.054688 33.496094 160.023438 32.933594 C 158.960938 32.402344 157.804688 32.402344 156.585938 32.402344 C 156.085938 32.402344 155.242188 32.402344 155.085938 32.371094 C 154.460938 32.277344 154.054688 31.683594 154.054688 31.027344 Z M 156.929688 37.339844 C 154.898438 37.339844 153.523438 36.308594 153.523438 35.246094 C 153.523438 34.339844 154.273438 33.589844 155.148438 33.558594 L 156.335938 33.558594 C 158.054688 33.558594 160.273438 33.558594 160.273438 35.246094 C 160.273438 36.339844 158.867188 37.339844 156.929688 37.339844 Z M 156.929688 37.339844 "/>
<path style=" stroke:none;fill-rule:nonzero;fill:rgb(0%,0%,0%);fill-opacity:1;" d="M 171.046875 27.308594 C 171.046875 25.714844 170.953125 24.121094 170.265625 22.652344 C 169.359375 20.714844 167.703125 20.402344 166.890625 20.402344 C 165.671875 20.402344 164.234375 20.933594 163.390625 22.777344 C 162.765625 24.152344 162.671875 25.714844 162.671875 27.308594 C 162.671875 28.808594 162.734375 30.589844 163.578125 32.121094 C 164.421875 33.714844 165.890625 34.121094 166.859375 34.121094 C 167.921875 34.121094 169.453125 33.714844 170.328125 31.808594 C 170.953125 30.433594 171.046875 28.871094 171.046875 27.308594 Z M 166.859375 33.683594 C 166.078125 33.683594 164.890625 33.183594 164.546875 31.277344 C 164.328125 30.089844 164.328125 28.246094 164.328125 27.058594 C 164.328125 25.777344 164.328125 24.464844 164.484375 23.402344 C 164.859375 21.027344 166.359375 20.839844 166.859375 20.839844 C 167.515625 20.839844 168.828125 21.214844 169.203125 23.183594 C 169.421875 24.308594 169.421875 25.808594 169.421875 27.058594 C 169.421875 28.558594 169.421875 29.902344 169.203125 31.183594 C 168.890625 33.089844 167.765625 33.683594 166.859375 33.683594 Z M 166.859375 33.683594 "/>
<path style=" stroke:none;fill-rule:nonzero;fill:rgb(0%,0%,0%);fill-opacity:1;" d="M 181.550781 29.527344 L 182.300781 20.433594 C 182.300781 19.777344 181.769531 19.402344 181.269531 19.402344 C 180.738281 19.402344 180.207031 19.777344 180.207031 20.433594 L 180.988281 29.496094 C 180.988281 29.808594 181.019531 29.964844 181.269531 29.964844 C 181.457031 29.964844 181.519531 29.871094 181.550781 29.527344 Z M 182.300781 32.621094 C 182.300781 32.058594 181.832031 31.558594 181.269531 31.558594 C 180.675781 31.558594 180.207031 32.058594 180.207031 32.621094 C 180.207031 33.214844 180.675781 33.683594 181.269531 33.683594 C 181.832031 33.683594 182.300781 33.214844 182.300781 32.621094 Z M 182.300781 32.621094 "/>
<path style="fill:none;stroke-width:0.566929;stroke-linecap:butt;stroke-linejoin:miter;stroke:rgb(100%,0%,0%);stroke-opacity:0.5;stroke-miterlimit:10;" d="M -2.834646 88.57245 L 2.835276 82.904481 " transform="matrix(2,0,0,2,6.169291,5.952756)"/>
<path style="fill:none;stroke-width:0.566929;stroke-linecap:butt;stroke-linejoin:miter;stroke:rgb(100%,0%,0%);stroke-opacity:0.5;stroke-miterlimit:10;" d="M 2.835276 88.57245 L -2.834646 82.904481 " transform="matrix(2,0,0,2,6.169291,5.952756)"/>
<path style="fill-rule:nonzero;fill:rgb(50%,50%,0%);fill-opacity:0.1;stroke-width:0.566929;stroke-linecap:butt;stroke-linejoin:miter;stroke:rgb(100%,0%,0%);stroke-opacity:0.5;stroke-miterlimit:10;" d="M -0.000661294 117.761903 L 140.034495 117.761903 L 140.034495 54.746278 L -0.000661294 54.746278 Z M -0.000661294 117.761903 " transform="matrix(2,0,0,2,6.169291,5.952756)"/>
<path style="fill:none;stroke-width:0.566929;stroke-linecap:butt;stroke-linejoin:miter;stroke:rgb(100%,0%,0%);stroke-opacity:0.5;stroke-miterlimit:10;" d="M 36.514964 88.57245 L 42.184886 82.904481 " transform="matrix(2,0,0,2,6.169291,5.952756)"/>
<path style="fill:none;stroke-width:0.566929;stroke-linecap:butt;stroke-linejoin:miter;stroke:rgb(100%,0%,0%);stroke-opacity:0.5;stroke-miterlimit:10;" d="M 42.184886 88.57245 L 36.514964 82.904481 " transform="matrix(2,0,0,2,6.169291,5.952756)"/>
<path style="fill-rule:nonzero;fill:rgb(50%,50%,0%);fill-opacity:0.1;stroke-width:0.566929;stroke-linecap:butt;stroke-linejoin:miter;stroke:rgb(100%,0%,0%);stroke-opacity:0.5;stroke-miterlimit:10;" d="M -0.000661294 117.761903 L 67.712229 117.761903 L 67.712229 54.746278 L -0.000661294 54.746278 Z M -0.000661294 117.761903 " transform="matrix(2,0,0,2,6.169291,5.952756)"/>
<path style="fill:none;stroke-width:0.566929;stroke-linecap:butt;stroke-linejoin:miter;stroke:rgb(100%,0%,0%);stroke-opacity:0.5;stroke-miterlimit:10;" d="M 72.389964 88.57245 L 78.059886 82.904481 " transform="matrix(2,0,0,2,6.169291,5.952756)"/>
<path style="fill:none;stroke-width:0.566929;stroke-linecap:butt;stroke-linejoin:miter;stroke:rgb(100%,0%,0%);stroke-opacity:0.5;stroke-miterlimit:10;" d="M 78.059886 88.57245 L 72.389964 82.904481 " transform="matrix(2,0,0,2,6.169291,5.952756)"/>
<path style="fill-rule:nonzero;fill:rgb(50%,50%,0%);fill-opacity:0.1;stroke-width:0.566929;stroke-linecap:butt;stroke-linejoin:miter;stroke:rgb(100%,0%,0%);stroke-opacity:0.5;stroke-miterlimit:10;" d="M 67.712229 109.189638 L 113.936839 109.189638 L 113.936839 74.463075 L 67.712229 74.463075 Z M 67.712229 109.189638 " transform="matrix(2,0,0,2,6.169291,5.952756)"/>
<path style="fill:none;stroke-width:0.566929;stroke-linecap:butt;stroke-linejoin:miter;stroke:rgb(100%,0%,0%);stroke-opacity:0.5;stroke-miterlimit:10;" d="M 111.100901 88.57245 L 116.770823 82.904481 " transform="matrix(2,0,0,2,6.169291,5.952756)"/>
<path style="fill:none;stroke-width:0.566929;stroke-linecap:butt;stroke-linejoin:miter;stroke:rgb(100%,0%,0%);stroke-opacity:0.5;stroke-miterlimit:10;" d="M 116.770823 88.57245 L 111.100901 82.904481 " transform="matrix(2,0,0,2,6.169291,5.952756)"/>
<path style="fill-rule:nonzero;fill:rgb(50%,50%,0%);fill-opacity:0.1;stroke-width:0.566929;stroke-linecap:butt;stroke-linejoin:miter;stroke:rgb(100%,0%,0%);stroke-opacity:0.5;stroke-miterlimit:10;" d="M 113.936839 87.785341 L 140.034495 87.785341 L 140.034495 77.597841 L 113.936839 77.597841 Z M 113.936839 87.785341 " transform="matrix(2,0,0,2,6.169291,5.952756)"/>
<path style=" stroke:none;fill-rule:nonzero;fill:rgb(0%,0%,0%);fill-opacity:1;" d="M 246.605469 164.367188 C 246.605469 163.648438 246.636719 163.429688 248.167969 163.429688 L 248.667969 163.429688 L 248.667969 162.804688 C 247.949219 162.867188 246.480469 162.867188 245.730469 162.867188 C 244.980469 162.867188 243.480469 162.867188 242.792969 162.804688 L 242.792969 163.429688 L 243.261719 163.429688 C 244.792969 163.429688 244.824219 163.648438 244.824219 164.367188 L 244.824219 169.023438 L 238.886719 169.023438 L 238.886719 164.367188 C 238.886719 163.648438 238.917969 163.429688 240.449219 163.429688 L 240.917969 163.429688 L 240.917969 162.804688 C 240.230469 162.867188 238.761719 162.867188 237.980469 162.867188 C 237.230469 162.867188 235.730469 162.867188 235.042969 162.804688 L 235.042969 163.429688 L 235.511719 163.429688 C 237.042969 163.429688 237.105469 163.648438 237.105469 164.367188 L 237.105469 174.867188 C 237.105469 175.585938 237.042969 175.804688 235.511719 175.804688 L 235.042969 175.804688 L 235.042969 176.429688 C 235.730469 176.367188 237.230469 176.367188 237.980469 176.367188 C 238.730469 176.367188 240.230469 176.367188 240.917969 176.429688 L 240.917969 175.804688 L 240.449219 175.804688 C 238.917969 175.804688 238.886719 175.585938 238.886719 174.867188 L 238.886719 169.648438 L 244.824219 169.648438 L 244.824219 174.867188 C 244.824219 175.585938 244.792969 175.804688 243.261719 175.804688 L 242.792969 175.804688 L 242.792969 176.429688 C 243.480469 176.367188 244.949219 176.367188 245.699219 176.367188 C 246.480469 176.367188 247.949219 176.367188 248.667969 176.429688 L 248.667969 175.804688 L 248.167969 175.804688 C 246.636719 175.804688 246.605469 175.585938 246.605469 174.867188 Z M 246.605469 164.367188 "/>
<path style=" stroke:none;fill-rule:nonzero;fill:rgb(0%,0%,0%);fill-opacity:1;" d="M 252.859375 167.617188 L 250.078125 167.835938 L 250.078125 168.460938 C 251.359375 168.460938 251.546875 168.585938 251.546875 169.554688 L 251.546875 174.929688 C 251.546875 175.804688 251.328125 175.804688 249.984375 175.804688 L 249.984375 176.429688 C 250.609375 176.398438 251.703125 176.367188 252.171875 176.367188 C 252.890625 176.367188 253.578125 176.398438 254.265625 176.429688 L 254.265625 175.804688 C 252.921875 175.804688 252.859375 175.710938 252.859375 174.929688 Z M 252.921875 164.148438 C 252.921875 163.523438 252.453125 163.085938 251.890625 163.085938 C 251.265625 163.085938 250.828125 163.617188 250.828125 164.148438 C 250.828125 164.679688 251.265625 165.210938 251.890625 165.210938 C 252.453125 165.210938 252.921875 164.773438 252.921875 164.148438 Z M 252.921875 164.148438 "/>
<path style=" stroke:none;fill-rule:nonzero;fill:rgb(0%,0%,0%);fill-opacity:1;" d="M 259.300781 172.992188 C 257.550781 172.992188 257.550781 170.992188 257.550781 170.554688 C 257.550781 170.023438 257.582031 169.367188 257.863281 168.867188 C 258.019531 168.648438 258.488281 168.085938 259.300781 168.085938 C 261.019531 168.085938 261.019531 170.054688 261.019531 170.523438 C 261.019531 171.054688 261.019531 171.710938 260.707031 172.210938 C 260.550781 172.429688 260.082031 172.992188 259.300781 172.992188 Z M 256.988281 173.773438 C 256.988281 173.710938 256.988281 173.242188 257.300781 172.835938 C 258.082031 173.398438 258.925781 173.460938 259.300781 173.460938 C 261.144531 173.460938 262.519531 172.085938 262.519531 170.554688 C 262.519531 169.804688 262.207031 169.085938 261.707031 168.617188 C 262.425781 167.929688 263.144531 167.835938 263.488281 167.835938 C 263.550781 167.835938 263.644531 167.835938 263.707031 167.867188 C 263.488281 167.929688 263.363281 168.148438 263.363281 168.398438 C 263.363281 168.742188 263.644531 168.960938 263.957031 168.960938 C 264.144531 168.960938 264.519531 168.835938 264.519531 168.367188 C 264.519531 168.023438 264.300781 167.398438 263.519531 167.398438 C 263.113281 167.398438 262.238281 167.523438 261.394531 168.335938 C 260.550781 167.679688 259.738281 167.617188 259.300781 167.617188 C 257.425781 167.617188 256.050781 168.992188 256.050781 170.523438 C 256.050781 171.398438 256.488281 172.148438 256.988281 172.585938 C 256.738281 172.867188 256.363281 173.523438 256.363281 174.242188 C 256.363281 174.867188 256.644531 175.617188 257.269531 176.023438 C 256.050781 176.335938 255.425781 177.210938 255.425781 177.992188 C 255.425781 179.429688 257.394531 180.523438 259.832031 180.523438 C 262.175781 180.523438 264.238281 179.523438 264.238281 177.960938 C 264.238281 177.273438 263.988281 176.242188 262.957031 175.679688 C 261.894531 175.148438 260.738281 175.148438 259.519531 175.148438 C 259.019531 175.148438 258.175781 175.148438 258.019531 175.117188 C 257.394531 175.023438 256.988281 174.429688 256.988281 173.773438 Z M 259.863281 180.085938 C 257.832031 180.085938 256.457031 179.054688 256.457031 177.992188 C 256.457031 177.085938 257.207031 176.335938 258.082031 176.304688 L 259.269531 176.304688 C 260.988281 176.304688 263.207031 176.304688 263.207031 177.992188 C 263.207031 179.085938 261.800781 180.085938 259.863281 180.085938 Z M 259.863281 180.085938 "/>
<path style=" stroke:none;fill-rule:nonzero;fill:rgb(0%,0%,0%);fill-opacity:1;" d="M 270.703125 163.679688 C 270.703125 163.179688 270.703125 163.148438 270.234375 163.148438 C 268.984375 164.429688 267.234375 164.429688 266.609375 164.429688 L 266.609375 165.054688 C 267.015625 165.054688 268.171875 165.054688 269.203125 164.523438 L 269.203125 174.867188 C 269.203125 175.585938 269.140625 175.804688 267.359375 175.804688 L 266.734375 175.804688 L 266.734375 176.429688 C 267.421875 176.367188 269.140625 176.367188 269.953125 176.367188 C 270.734375 176.367188 272.484375 176.367188 273.171875 176.429688 L 273.171875 175.804688 L 272.546875 175.804688 C 270.734375 175.804688 270.703125 175.585938 270.703125 174.867188 Z M 270.703125 163.679688 "/>
<path style=" stroke:none;fill-rule:nonzero;fill:rgb(0%,0%,0%);fill-opacity:1;" d="M 284.488281 172.273438 L 285.238281 163.179688 C 285.238281 162.523438 284.707031 162.148438 284.207031 162.148438 C 283.675781 162.148438 283.144531 162.523438 283.144531 163.179688 L 283.925781 172.242188 C 283.925781 172.554688 283.957031 172.710938 284.207031 172.710938 C 284.394531 172.710938 284.457031 172.617188 284.488281 172.273438 Z M 285.238281 175.367188 C 285.238281 174.804688 284.769531 174.304688 284.207031 174.304688 C 283.613281 174.304688 283.144531 174.804688 283.144531 175.367188 C 283.144531 175.960938 283.613281 176.429688 284.207031 176.429688 C 284.769531 176.429688 285.238281 175.960938 285.238281 175.367188 Z M 285.238281 175.367188 "/>
</g>
</svg>
