<?xml version="1.0" encoding="UTF-8"?>
<svg xmlns="http://www.w3.org/2000/svg" xmlns:xlink="http://www.w3.org/1999/xlink" width="191.367623pt" height="176.748031pt" viewBox="0 0 191.367623 176.748031" version="1.1">
<g id="surface105">
<path style="fill:none;stroke-width:0.566929;stroke-linecap:butt;stroke-linejoin:miter;stroke:rgb(100%,0%,0%);stroke-opacity:0.5;stroke-miterlimit:10;" d="M -2.8338 2.835276 L 2.834169 -2.834646 " transform="matrix(2,0,0,2,5.952756,6.169291)"/>
<path style="fill:none;stroke-width:0.566929;stroke-linecap:butt;stroke-linejoin:miter;stroke:rgb(100%,0%,0%);stroke-opacity:0.5;stroke-miterlimit:10;" d="M 2.834169 2.835276 L -2.8338 -2.834646 " transform="matrix(2,0,0,2,5.952756,6.169291)"/>
<path style="fill-rule:nonzero;fill:rgb(50%,50%,0%);fill-opacity:0.1;stroke-width:0.566929;stroke-linecap:butt;stroke-linejoin:miter;stroke:rgb(100%,0%,0%);stroke-opacity:0.5;stroke-miterlimit:10;" d="M 0.000184547 85.038401 L 89.623231 85.038401 L 89.623231 -0.000661294 L 0.000184547 -0.000661294 Z M 0.000184547 85.038401 " transform="matrix(2,0,0,2,5.952756,6.169291)"/>
<path style="fill:none;stroke-width:0.566929;stroke-linecap:butt;stroke-linejoin:miter;stroke:rgb(100%,0%,0%);stroke-opacity:0.5;stroke-miterlimit:10;" d="M 6.857606 2.835276 L 12.525575 -2.834646 " transform="matrix(2,0,0,2,5.952756,6.169291)"/>
<path style="fill:none;stroke-width:0.566929;stroke-linecap:butt;stroke-linejoin:miter;stroke:rgb(100%,0%,0%);stroke-opacity:0.5;stroke-miterlimit:10;" d="M 12.525575 2.835276 L 6.857606 -2.834646 " transform="matrix(2,0,0,2,5.952756,6.169291)"/>
<path style="fill-rule:nonzero;fill:rgb(50%,50%,0%);fill-opacity:0.1;stroke-width:0.566929;stroke-linecap:butt;stroke-linejoin:miter;stroke:rgb(100%,0%,0%);stroke-opacity:0.5;stroke-miterlimit:10;" d="M 4.427919 11.247386 L 14.955263 11.247386 L 14.955263 -0.000661294 L 4.427919 -0.000661294 Z M 4.427919 11.247386 " transform="matrix(2,0,0,2,5.952756,6.169291)"/>
<path style="fill:none;stroke-width:0.566929;stroke-linecap:butt;stroke-linejoin:miter;stroke:rgb(100%,0%,0%);stroke-opacity:0.5;stroke-miterlimit:10;" d="M 4.427919 11.138011 L 10.095888 5.468089 " transform="matrix(2,0,0,2,5.952756,6.169291)"/>
<path style="fill:none;stroke-width:0.566929;stroke-linecap:butt;stroke-linejoin:miter;stroke:rgb(100%,0%,0%);stroke-opacity:0.5;stroke-miterlimit:10;" d="M 10.095888 11.138011 L 4.427919 5.468089 " transform="matrix(2,0,0,2,5.952756,6.169291)"/>
<path style="fill-rule:nonzero;fill:rgb(50%,50%,0%);fill-opacity:0.1;stroke-width:0.566929;stroke-linecap:butt;stroke-linejoin:miter;stroke:rgb(100%,0%,0%);stroke-opacity:0.5;stroke-miterlimit:10;" d="M 4.427919 11.247386 L 14.955263 11.247386 L 14.955263 -0.000661294 L 4.427919 -0.000661294 Z M 4.427919 11.247386 " transform="matrix(2,0,0,2,5.952756,6.169291)"/>
<path style="fill:none;stroke-width:0.566929;stroke-linecap:butt;stroke-linejoin:miter;stroke:rgb(100%,0%,0%);stroke-opacity:0.5;stroke-miterlimit:10;" d="M 4.427919 11.138011 L 10.095888 5.468089 " transform="matrix(2,0,0,2,5.952756,6.169291)"/>
<path style="fill:none;stroke-width:0.566929;stroke-linecap:butt;stroke-linejoin:miter;stroke:rgb(100%,0%,0%);stroke-opacity:0.5;stroke-miterlimit:10;" d="M 10.095888 11.138011 L 4.427919 5.468089 " transform="matrix(2,0,0,2,5.952756,6.169291)"/>
<path style="fill-rule:nonzero;fill:rgb(50%,50%,0%);fill-opacity:0.1;stroke-width:0.566929;stroke-linecap:butt;stroke-linejoin:miter;stroke:rgb(100%,0%,0%);stroke-opacity:0.5;stroke-miterlimit:10;" d="M 7.261903 8.413401 L 12.121278 8.413401 L 12.121278 2.835276 L 7.261903 2.835276 Z M 7.261903 8.413401 " transform="matrix(2,0,0,2,5.952756,6.169291)"/>
<path style=" stroke:none;fill-rule:nonzero;fill:rgb(0%,0%,0%);fill-opacity:1;" d="M 23.132812 16.746094 C 23.257812 13.777344 24.945312 13.277344 25.632812 13.277344 C 27.664062 13.277344 27.882812 15.964844 27.882812 16.746094 Z M 23.132812 17.183594 L 28.695312 17.183594 C 29.132812 17.183594 29.195312 17.183594 29.195312 16.746094 C 29.195312 14.777344 28.101562 12.839844 25.632812 12.839844 C 23.320312 12.839844 21.476562 14.902344 21.476562 17.402344 C 21.476562 20.058594 23.570312 21.996094 25.851562 21.996094 C 28.289062 21.996094 29.195312 19.777344 29.195312 19.402344 C 29.195312 19.214844 29.039062 19.152344 28.914062 19.152344 C 28.757812 19.152344 28.695312 19.277344 28.664062 19.433594 C 27.976562 21.496094 26.164062 21.496094 25.976562 21.496094 C 24.976562 21.496094 24.195312 20.902344 23.726562 20.152344 C 23.132812 19.214844 23.132812 17.902344 23.132812 17.183594 Z M 23.132812 17.183594 "/>
<path style="fill:none;stroke-width:0.566929;stroke-linecap:butt;stroke-linejoin:miter;stroke:rgb(100%,0%,0%);stroke-opacity:0.5;stroke-miterlimit:10;" d="M 28.695497 2.835276 L 34.363466 -2.834646 " transform="matrix(2,0,0,2,5.952756,6.169291)"/>
<path style="fill:none;stroke-width:0.566929;stroke-linecap:butt;stroke-linejoin:miter;stroke:rgb(100%,0%,0%);stroke-opacity:0.5;stroke-miterlimit:10;" d="M 34.363466 2.835276 L 28.695497 -2.834646 " transform="matrix(2,0,0,2,5.952756,6.169291)"/>
<path style="fill-rule:nonzero;fill:rgb(50%,50%,0%);fill-opacity:0.1;stroke-width:0.566929;stroke-linecap:butt;stroke-linejoin:miter;stroke:rgb(100%,0%,0%);stroke-opacity:0.5;stroke-miterlimit:10;" d="M 23.429872 13.231761 L 39.627138 13.231761 L 39.627138 -0.000661294 L 23.429872 -0.000661294 Z M 23.429872 13.231761 " transform="matrix(2,0,0,2,5.952756,6.169291)"/>
<path style="fill:none;stroke-width:0.566929;stroke-linecap:butt;stroke-linejoin:miter;stroke:rgb(100%,0%,0%);stroke-opacity:0.5;stroke-miterlimit:10;" d="M 23.429872 11.184886 L 29.099794 5.514964 " transform="matrix(2,0,0,2,5.952756,6.169291)"/>
<path style="fill:none;stroke-width:0.566929;stroke-linecap:butt;stroke-linejoin:miter;stroke:rgb(100%,0%,0%);stroke-opacity:0.5;stroke-miterlimit:10;" d="M 29.099794 11.184886 L 23.429872 5.514964 " transform="matrix(2,0,0,2,5.952756,6.169291)"/>
<path style="fill-rule:nonzero;fill:rgb(50%,50%,0%);fill-opacity:0.1;stroke-width:0.566929;stroke-linecap:butt;stroke-linejoin:miter;stroke:rgb(100%,0%,0%);stroke-opacity:0.5;stroke-miterlimit:10;" d="M 23.429872 13.231761 L 39.627138 13.231761 L 39.627138 -0.000661294 L 23.429872 -0.000661294 Z M 23.429872 13.231761 " transform="matrix(2,0,0,2,5.952756,6.169291)"/>
<path style="fill:none;stroke-width:0.566929;stroke-linecap:butt;stroke-linejoin:miter;stroke:rgb(100%,0%,0%);stroke-opacity:0.5;stroke-miterlimit:10;" d="M 23.429872 11.184886 L 29.099794 5.514964 " transform="matrix(2,0,0,2,5.952756,6.169291)"/>
<path style="fill:none;stroke-width:0.566929;stroke-linecap:butt;stroke-linejoin:miter;stroke:rgb(100%,0%,0%);stroke-opacity:0.5;stroke-miterlimit:10;" d="M 29.099794 11.184886 L 23.429872 5.514964 " transform="matrix(2,0,0,2,5.952756,6.169291)"/>
<path style="fill-rule:nonzero;fill:rgb(50%,50%,0%);fill-opacity:0.1;stroke-width:0.566929;stroke-linecap:butt;stroke-linejoin:miter;stroke:rgb(100%,0%,0%);stroke-opacity:0.5;stroke-miterlimit:10;" d="M 26.26581 10.397776 L 36.793153 10.397776 L 36.793153 2.835276 L 26.26581 2.835276 Z M 26.26581 10.397776 " transform="matrix(2,0,0,2,5.952756,6.169291)"/>
<path style=" stroke:none;fill-rule:nonzero;fill:rgb(0%,0%,0%);fill-opacity:1;" d="M 63.359375 18.433594 C 61.609375 18.433594 61.609375 16.433594 61.609375 15.996094 C 61.609375 15.464844 61.640625 14.808594 61.921875 14.308594 C 62.078125 14.089844 62.546875 13.527344 63.359375 13.527344 C 65.078125 13.527344 65.078125 15.496094 65.078125 15.964844 C 65.078125 16.496094 65.078125 17.152344 64.765625 17.652344 C 64.609375 17.871094 64.140625 18.433594 63.359375 18.433594 Z M 61.046875 19.214844 C 61.046875 19.152344 61.046875 18.683594 61.359375 18.277344 C 62.140625 18.839844 62.984375 18.902344 63.359375 18.902344 C 65.203125 18.902344 66.578125 17.527344 66.578125 15.996094 C 66.578125 15.246094 66.265625 14.527344 65.765625 14.058594 C 66.484375 13.371094 67.203125 13.277344 67.546875 13.277344 C 67.609375 13.277344 67.703125 13.277344 67.765625 13.308594 C 67.546875 13.371094 67.421875 13.589844 67.421875 13.839844 C 67.421875 14.183594 67.703125 14.402344 68.015625 14.402344 C 68.203125 14.402344 68.578125 14.277344 68.578125 13.808594 C 68.578125 13.464844 68.359375 12.839844 67.578125 12.839844 C 67.171875 12.839844 66.296875 12.964844 65.453125 13.777344 C 64.609375 13.121094 63.796875 13.058594 63.359375 13.058594 C 61.484375 13.058594 60.109375 14.433594 60.109375 15.964844 C 60.109375 16.839844 60.546875 17.589844 61.046875 18.027344 C 60.796875 18.308594 60.421875 18.964844 60.421875 19.683594 C 60.421875 20.308594 60.703125 21.058594 61.328125 21.464844 C 60.109375 21.777344 59.484375 22.652344 59.484375 23.433594 C 59.484375 24.871094 61.453125 25.964844 63.890625 25.964844 C 66.234375 25.964844 68.296875 24.964844 68.296875 23.402344 C 68.296875 22.714844 68.046875 21.683594 67.015625 21.121094 C 65.953125 20.589844 64.796875 20.589844 63.578125 20.589844 C 63.078125 20.589844 62.234375 20.589844 62.078125 20.558594 C 61.453125 20.464844 61.046875 19.871094 61.046875 19.214844 Z M 63.921875 25.527344 C 61.890625 25.527344 60.515625 24.496094 60.515625 23.433594 C 60.515625 22.527344 61.265625 21.777344 62.140625 21.746094 L 63.328125 21.746094 C 65.046875 21.746094 67.265625 21.746094 67.265625 23.433594 C 67.265625 24.527344 65.859375 25.527344 63.921875 25.527344 Z M 63.921875 25.527344 "/>
<path style=" stroke:none;fill-rule:nonzero;fill:rgb(0%,0%,0%);fill-opacity:1;" d="M 73.320312 18.433594 C 71.570312 18.433594 71.570312 16.433594 71.570312 15.996094 C 71.570312 15.464844 71.601562 14.808594 71.882812 14.308594 C 72.039062 14.089844 72.507812 13.527344 73.320312 13.527344 C 75.039062 13.527344 75.039062 15.496094 75.039062 15.964844 C 75.039062 16.496094 75.039062 17.152344 74.726562 17.652344 C 74.570312 17.871094 74.101562 18.433594 73.320312 18.433594 Z M 71.007812 19.214844 C 71.007812 19.152344 71.007812 18.683594 71.320312 18.277344 C 72.101562 18.839844 72.945312 18.902344 73.320312 18.902344 C 75.164062 18.902344 76.539062 17.527344 76.539062 15.996094 C 76.539062 15.246094 76.226562 14.527344 75.726562 14.058594 C 76.445312 13.371094 77.164062 13.277344 77.507812 13.277344 C 77.570312 13.277344 77.664062 13.277344 77.726562 13.308594 C 77.507812 13.371094 77.382812 13.589844 77.382812 13.839844 C 77.382812 14.183594 77.664062 14.402344 77.976562 14.402344 C 78.164062 14.402344 78.539062 14.277344 78.539062 13.808594 C 78.539062 13.464844 78.320312 12.839844 77.539062 12.839844 C 77.132812 12.839844 76.257812 12.964844 75.414062 13.777344 C 74.570312 13.121094 73.757812 13.058594 73.320312 13.058594 C 71.445312 13.058594 70.070312 14.433594 70.070312 15.964844 C 70.070312 16.839844 70.507812 17.589844 71.007812 18.027344 C 70.757812 18.308594 70.382812 18.964844 70.382812 19.683594 C 70.382812 20.308594 70.664062 21.058594 71.289062 21.464844 C 70.070312 21.777344 69.445312 22.652344 69.445312 23.433594 C 69.445312 24.871094 71.414062 25.964844 73.851562 25.964844 C 76.195312 25.964844 78.257812 24.964844 78.257812 23.402344 C 78.257812 22.714844 78.007812 21.683594 76.976562 21.121094 C 75.914062 20.589844 74.757812 20.589844 73.539062 20.589844 C 73.039062 20.589844 72.195312 20.589844 72.039062 20.558594 C 71.414062 20.464844 71.007812 19.871094 71.007812 19.214844 Z M 73.882812 25.527344 C 71.851562 25.527344 70.476562 24.496094 70.476562 23.433594 C 70.476562 22.527344 71.226562 21.777344 72.101562 21.746094 L 73.289062 21.746094 C 75.007812 21.746094 77.226562 21.746094 77.226562 23.433594 C 77.226562 24.527344 75.820312 25.527344 73.882812 25.527344 Z M 73.882812 25.527344 "/>
<path style="fill:none;stroke-width:0.566929;stroke-linecap:butt;stroke-linejoin:miter;stroke:rgb(100%,0%,0%);stroke-opacity:0.5;stroke-miterlimit:10;" d="M 63.814638 2.835276 L 69.482606 -2.834646 " transform="matrix(2,0,0,2,5.952756,6.169291)"/>
<path style="fill:none;stroke-width:0.566929;stroke-linecap:butt;stroke-linejoin:miter;stroke:rgb(100%,0%,0%);stroke-opacity:0.5;stroke-miterlimit:10;" d="M 69.482606 2.835276 L 63.814638 -2.834646 " transform="matrix(2,0,0,2,5.952756,6.169291)"/>
<path style="fill-rule:nonzero;fill:rgb(50%,50%,0%);fill-opacity:0.1;stroke-width:0.566929;stroke-linecap:butt;stroke-linejoin:miter;stroke:rgb(100%,0%,0%);stroke-opacity:0.5;stroke-miterlimit:10;" d="M 58.75995 13.700511 L 74.537294 13.700511 L 74.537294 -0.000661294 L 58.75995 -0.000661294 Z M 58.75995 13.700511 " transform="matrix(2,0,0,2,5.952756,6.169291)"/>
<path style="fill:none;stroke-width:0.566929;stroke-linecap:butt;stroke-linejoin:miter;stroke:rgb(100%,0%,0%);stroke-opacity:0.5;stroke-miterlimit:10;" d="M 58.75995 13.700511 L 64.429872 8.030589 " transform="matrix(2,0,0,2,5.952756,6.169291)"/>
<path style="fill:none;stroke-width:0.566929;stroke-linecap:butt;stroke-linejoin:miter;stroke:rgb(100%,0%,0%);stroke-opacity:0.5;stroke-miterlimit:10;" d="M 64.429872 13.700511 L 58.75995 8.030589 " transform="matrix(2,0,0,2,5.952756,6.169291)"/>
<path style="fill-rule:nonzero;fill:rgb(50%,50%,0%);fill-opacity:0.1;stroke-width:0.566929;stroke-linecap:butt;stroke-linejoin:miter;stroke:rgb(100%,0%,0%);stroke-opacity:0.5;stroke-miterlimit:10;" d="M 58.75995 13.700511 L 74.537294 13.700511 L 74.537294 -0.000661294 L 58.75995 -0.000661294 Z M 58.75995 13.700511 " transform="matrix(2,0,0,2,5.952756,6.169291)"/>
<path style="fill:none;stroke-width:0.566929;stroke-linecap:butt;stroke-linejoin:miter;stroke:rgb(100%,0%,0%);stroke-opacity:0.5;stroke-miterlimit:10;" d="M 58.75995 13.700511 L 64.429872 8.030589 " transform="matrix(2,0,0,2,5.952756,6.169291)"/>
<path style="fill:none;stroke-width:0.566929;stroke-linecap:butt;stroke-linejoin:miter;stroke:rgb(100%,0%,0%);stroke-opacity:0.5;stroke-miterlimit:10;" d="M 64.429872 13.700511 L 58.75995 8.030589 " transform="matrix(2,0,0,2,5.952756,6.169291)"/>
<path style="fill-rule:nonzero;fill:rgb(50%,50%,0%);fill-opacity:0.1;stroke-width:0.566929;stroke-linecap:butt;stroke-linejoin:miter;stroke:rgb(100%,0%,0%);stroke-opacity:0.5;stroke-miterlimit:10;" d="M 61.593935 10.866526 L 71.70331 10.866526 L 71.70331 2.835276 L 61.593935 2.835276 Z M 61.593935 10.866526 " transform="matrix(2,0,0,2,5.952756,6.169291)"/>
<path style=" stroke:none;fill-rule:nonzero;fill:rgb(0%,0%,0%);fill-opacity:1;" d="M 138.546875 18.933594 L 140.828125 18.933594 L 140.828125 18.308594 L 138.484375 18.308594 L 138.484375 15.996094 C 138.484375 14.214844 139.453125 13.277344 140.328125 13.277344 C 140.390625 13.277344 140.703125 13.277344 140.984375 13.433594 C 140.765625 13.496094 140.390625 13.777344 140.390625 14.277344 C 140.390625 14.714844 140.703125 15.121094 141.265625 15.121094 C 141.828125 15.121094 142.140625 14.714844 142.140625 14.246094 C 142.140625 13.527344 141.421875 12.839844 140.328125 12.839844 C 139.140625 12.839844 138.265625 13.589844 138.171875 13.683594 C 137.578125 12.933594 136.453125 12.839844 135.921875 12.839844 C 134.046875 12.839844 131.734375 13.871094 131.734375 16.027344 L 131.734375 18.308594 L 130.140625 18.308594 L 130.140625 18.933594 L 131.734375 18.933594 L 131.734375 25.402344 C 131.734375 26.277344 131.515625 26.277344 130.171875 26.277344 L 130.171875 26.902344 C 130.828125 26.871094 131.890625 26.839844 132.390625 26.839844 C 132.890625 26.839844 133.859375 26.871094 134.609375 26.902344 L 134.609375 26.277344 C 133.265625 26.277344 133.046875 26.277344 133.046875 25.402344 L 133.046875 18.933594 L 137.234375 18.933594 L 137.234375 25.402344 C 137.234375 26.277344 137.015625 26.277344 135.671875 26.277344 L 135.671875 26.902344 C 136.453125 26.871094 137.390625 26.839844 137.953125 26.839844 C 138.734375 26.839844 139.671875 26.839844 140.484375 26.902344 L 140.484375 26.277344 L 140.046875 26.277344 C 138.578125 26.277344 138.546875 26.058594 138.546875 25.339844 Z M 132.984375 18.308594 L 132.984375 16.058594 C 132.984375 14.121094 134.609375 13.277344 135.921875 13.277344 C 136.890625 13.277344 137.453125 13.652344 137.453125 13.652344 L 137.453125 13.683594 C 137.140625 13.714844 136.734375 13.996094 136.734375 14.527344 C 136.734375 14.652344 136.734375 15.152344 137.296875 15.339844 C 137.234375 15.589844 137.234375 15.777344 137.234375 16.027344 L 137.234375 18.308594 Z M 132.984375 18.308594 "/>
<path style=" stroke:none;fill-rule:nonzero;fill:rgb(0%,0%,0%);fill-opacity:1;" d="M 144.734375 18.308594 L 144.734375 15.996094 C 144.734375 14.246094 145.671875 13.277344 146.546875 13.277344 C 146.609375 13.277344 146.921875 13.277344 147.203125 13.433594 C 146.984375 13.496094 146.609375 13.777344 146.609375 14.277344 C 146.609375 14.714844 146.921875 15.121094 147.484375 15.121094 C 148.046875 15.121094 148.359375 14.714844 148.359375 14.246094 C 148.359375 13.496094 147.609375 12.839844 146.546875 12.839844 C 145.171875 12.839844 143.453125 13.902344 143.453125 16.027344 L 143.453125 18.308594 L 141.890625 18.308594 L 141.890625 18.933594 L 143.453125 18.933594 L 143.453125 25.402344 C 143.453125 26.277344 143.234375 26.277344 141.921875 26.277344 L 141.921875 26.902344 C 142.703125 26.871094 143.640625 26.839844 144.171875 26.839844 C 144.984375 26.839844 145.921875 26.839844 146.703125 26.902344 L 146.703125 26.277344 L 146.296875 26.277344 C 144.828125 26.277344 144.796875 26.058594 144.796875 25.339844 L 144.796875 18.933594 L 147.046875 18.933594 L 147.046875 18.308594 Z M 144.734375 18.308594 "/>
<path style="fill:none;stroke-width:0.566929;stroke-linecap:butt;stroke-linejoin:miter;stroke:rgb(100%,0%,0%);stroke-opacity:0.5;stroke-miterlimit:10;" d="M 86.787294 2.835276 L 92.457216 -2.834646 " transform="matrix(2,0,0,2,5.952756,6.169291)"/>
<path style="fill:none;stroke-width:0.566929;stroke-linecap:butt;stroke-linejoin:miter;stroke:rgb(100%,0%,0%);stroke-opacity:0.5;stroke-miterlimit:10;" d="M 92.457216 2.835276 L 86.787294 -2.834646 " transform="matrix(2,0,0,2,5.952756,6.169291)"/>
<path style="fill:none;stroke-width:0.566929;stroke-linecap:butt;stroke-linejoin:miter;stroke:rgb(100%,0%,0%);stroke-opacity:0.5;stroke-miterlimit:10;" d="M 89.623231 28.346995 L 89.623231 -0.000661294 Z M 89.623231 28.346995 " transform="matrix(2,0,0,2,5.952756,6.169291)"/>
<path style="fill:none;stroke-width:0.566929;stroke-linecap:butt;stroke-linejoin:miter;stroke:rgb(100%,0%,0%);stroke-opacity:0.5;stroke-miterlimit:10;" d="M 6.857606 31.180979 L 12.525575 25.511057 " transform="matrix(2,0,0,2,5.952756,6.169291)"/>
<path style="fill:none;stroke-width:0.566929;stroke-linecap:butt;stroke-linejoin:miter;stroke:rgb(100%,0%,0%);stroke-opacity:0.5;stroke-miterlimit:10;" d="M 12.525575 31.180979 L 6.857606 25.511057 " transform="matrix(2,0,0,2,5.952756,6.169291)"/>
<path style="fill-rule:nonzero;fill:rgb(50%,50%,0%);fill-opacity:0.1;stroke-width:0.566929;stroke-linecap:butt;stroke-linejoin:miter;stroke:rgb(100%,0%,0%);stroke-opacity:0.5;stroke-miterlimit:10;" d="M 1.593935 41.577464 L 17.7912 41.577464 L 17.7912 28.346995 L 1.593935 28.346995 Z M 1.593935 41.577464 " transform="matrix(2,0,0,2,5.952756,6.169291)"/>
<path style="fill:none;stroke-width:0.566929;stroke-linecap:butt;stroke-linejoin:miter;stroke:rgb(100%,0%,0%);stroke-opacity:0.5;stroke-miterlimit:10;" d="M 1.593935 39.530589 L 7.261903 33.86262 " transform="matrix(2,0,0,2,5.952756,6.169291)"/>
<path style="fill:none;stroke-width:0.566929;stroke-linecap:butt;stroke-linejoin:miter;stroke:rgb(100%,0%,0%);stroke-opacity:0.5;stroke-miterlimit:10;" d="M 7.261903 39.530589 L 1.593935 33.86262 " transform="matrix(2,0,0,2,5.952756,6.169291)"/>
<path style="fill-rule:nonzero;fill:rgb(50%,50%,0%);fill-opacity:0.1;stroke-width:0.566929;stroke-linecap:butt;stroke-linejoin:miter;stroke:rgb(100%,0%,0%);stroke-opacity:0.5;stroke-miterlimit:10;" d="M 1.593935 41.577464 L 17.7912 41.577464 L 17.7912 28.346995 L 1.593935 28.346995 Z M 1.593935 41.577464 " transform="matrix(2,0,0,2,5.952756,6.169291)"/>
<path style="fill:none;stroke-width:0.566929;stroke-linecap:butt;stroke-linejoin:miter;stroke:rgb(100%,0%,0%);stroke-opacity:0.5;stroke-miterlimit:10;" d="M 1.593935 39.530589 L 7.261903 33.86262 " transform="matrix(2,0,0,2,5.952756,6.169291)"/>
<path style="fill:none;stroke-width:0.566929;stroke-linecap:butt;stroke-linejoin:miter;stroke:rgb(100%,0%,0%);stroke-opacity:0.5;stroke-miterlimit:10;" d="M 7.261903 39.530589 L 1.593935 33.86262 " transform="matrix(2,0,0,2,5.952756,6.169291)"/>
<path style="fill-rule:nonzero;fill:rgb(50%,50%,0%);fill-opacity:0.1;stroke-width:0.566929;stroke-linecap:butt;stroke-linejoin:miter;stroke:rgb(100%,0%,0%);stroke-opacity:0.5;stroke-miterlimit:10;" d="M 4.427919 38.743479 L 14.955263 38.743479 L 14.955263 31.180979 L 4.427919 31.180979 Z M 4.427919 38.743479 " transform="matrix(2,0,0,2,5.952756,6.169291)"/>
<path style=" stroke:none;fill-rule:nonzero;fill:rgb(0%,0%,0%);fill-opacity:1;" d="M 19.683594 75.125 C 17.933594 75.125 17.933594 73.125 17.933594 72.6875 C 17.933594 72.15625 17.964844 71.5 18.246094 71 C 18.402344 70.78125 18.871094 70.21875 19.683594 70.21875 C 21.402344 70.21875 21.402344 72.1875 21.402344 72.65625 C 21.402344 73.1875 21.402344 73.84375 21.089844 74.34375 C 20.933594 74.5625 20.464844 75.125 19.683594 75.125 Z M 17.371094 75.90625 C 17.371094 75.84375 17.371094 75.375 17.683594 74.96875 C 18.464844 75.53125 19.308594 75.59375 19.683594 75.59375 C 21.527344 75.59375 22.902344 74.21875 22.902344 72.6875 C 22.902344 71.9375 22.589844 71.21875 22.089844 70.75 C 22.808594 70.0625 23.527344 69.96875 23.871094 69.96875 C 23.933594 69.96875 24.027344 69.96875 24.089844 70 C 23.871094 70.0625 23.746094 70.28125 23.746094 70.53125 C 23.746094 70.875 24.027344 71.09375 24.339844 71.09375 C 24.527344 71.09375 24.902344 70.96875 24.902344 70.5 C 24.902344 70.15625 24.683594 69.53125 23.902344 69.53125 C 23.496094 69.53125 22.621094 69.65625 21.777344 70.46875 C 20.933594 69.8125 20.121094 69.75 19.683594 69.75 C 17.808594 69.75 16.433594 71.125 16.433594 72.65625 C 16.433594 73.53125 16.871094 74.28125 17.371094 74.71875 C 17.121094 75 16.746094 75.65625 16.746094 76.375 C 16.746094 77 17.027344 77.75 17.652344 78.15625 C 16.433594 78.46875 15.808594 79.34375 15.808594 80.125 C 15.808594 81.5625 17.777344 82.65625 20.214844 82.65625 C 22.558594 82.65625 24.621094 81.65625 24.621094 80.09375 C 24.621094 79.40625 24.371094 78.375 23.339844 77.8125 C 22.277344 77.28125 21.121094 77.28125 19.902344 77.28125 C 19.402344 77.28125 18.558594 77.28125 18.402344 77.25 C 17.777344 77.15625 17.371094 76.5625 17.371094 75.90625 Z M 20.246094 82.21875 C 18.214844 82.21875 16.839844 81.1875 16.839844 80.125 C 16.839844 79.21875 17.589844 78.46875 18.464844 78.4375 L 19.652344 78.4375 C 21.371094 78.4375 23.589844 78.4375 23.589844 80.125 C 23.589844 81.21875 22.183594 82.21875 20.246094 82.21875 Z M 20.246094 82.21875 "/>
<path style=" stroke:none;fill-rule:nonzero;fill:rgb(0%,0%,0%);fill-opacity:1;" d="M 29.644531 75.125 C 27.894531 75.125 27.894531 73.125 27.894531 72.6875 C 27.894531 72.15625 27.925781 71.5 28.207031 71 C 28.363281 70.78125 28.832031 70.21875 29.644531 70.21875 C 31.363281 70.21875 31.363281 72.1875 31.363281 72.65625 C 31.363281 73.1875 31.363281 73.84375 31.050781 74.34375 C 30.894531 74.5625 30.425781 75.125 29.644531 75.125 Z M 27.332031 75.90625 C 27.332031 75.84375 27.332031 75.375 27.644531 74.96875 C 28.425781 75.53125 29.269531 75.59375 29.644531 75.59375 C 31.488281 75.59375 32.863281 74.21875 32.863281 72.6875 C 32.863281 71.9375 32.550781 71.21875 32.050781 70.75 C 32.769531 70.0625 33.488281 69.96875 33.832031 69.96875 C 33.894531 69.96875 33.988281 69.96875 34.050781 70 C 33.832031 70.0625 33.707031 70.28125 33.707031 70.53125 C 33.707031 70.875 33.988281 71.09375 34.300781 71.09375 C 34.488281 71.09375 34.863281 70.96875 34.863281 70.5 C 34.863281 70.15625 34.644531 69.53125 33.863281 69.53125 C 33.457031 69.53125 32.582031 69.65625 31.738281 70.46875 C 30.894531 69.8125 30.082031 69.75 29.644531 69.75 C 27.769531 69.75 26.394531 71.125 26.394531 72.65625 C 26.394531 73.53125 26.832031 74.28125 27.332031 74.71875 C 27.082031 75 26.707031 75.65625 26.707031 76.375 C 26.707031 77 26.988281 77.75 27.613281 78.15625 C 26.394531 78.46875 25.769531 79.34375 25.769531 80.125 C 25.769531 81.5625 27.738281 82.65625 30.175781 82.65625 C 32.519531 82.65625 34.582031 81.65625 34.582031 80.09375 C 34.582031 79.40625 34.332031 78.375 33.300781 77.8125 C 32.238281 77.28125 31.082031 77.28125 29.863281 77.28125 C 29.363281 77.28125 28.519531 77.28125 28.363281 77.25 C 27.738281 77.15625 27.332031 76.5625 27.332031 75.90625 Z M 30.207031 82.21875 C 28.175781 82.21875 26.800781 81.1875 26.800781 80.125 C 26.800781 79.21875 27.550781 78.46875 28.425781 78.4375 L 29.613281 78.4375 C 31.332031 78.4375 33.550781 78.4375 33.550781 80.125 C 33.550781 81.21875 32.144531 82.21875 30.207031 82.21875 Z M 30.207031 82.21875 "/>
<path style="fill:none;stroke-width:0.566929;stroke-linecap:butt;stroke-linejoin:miter;stroke:rgb(100%,0%,0%);stroke-opacity:0.5;stroke-miterlimit:10;" d="M 28.695497 31.180979 L 34.363466 25.511057 " transform="matrix(2,0,0,2,5.952756,6.169291)"/>
<path style="fill:none;stroke-width:0.566929;stroke-linecap:butt;stroke-linejoin:miter;stroke:rgb(100%,0%,0%);stroke-opacity:0.5;stroke-miterlimit:10;" d="M 34.363466 31.180979 L 28.695497 25.511057 " transform="matrix(2,0,0,2,5.952756,6.169291)"/>
<path style="fill-rule:nonzero;fill:rgb(50%,50%,0%);fill-opacity:0.1;stroke-width:0.566929;stroke-linecap:butt;stroke-linejoin:miter;stroke:rgb(100%,0%,0%);stroke-opacity:0.5;stroke-miterlimit:10;" d="M 19.623231 39.593089 L 43.433778 39.593089 L 43.433778 28.346995 L 19.623231 28.346995 Z M 19.623231 39.593089 " transform="matrix(2,0,0,2,5.952756,6.169291)"/>
<path style="fill:none;stroke-width:0.566929;stroke-linecap:butt;stroke-linejoin:miter;stroke:rgb(100%,0%,0%);stroke-opacity:0.5;stroke-miterlimit:10;" d="M 19.623231 39.483714 L 25.293153 33.815745 " transform="matrix(2,0,0,2,5.952756,6.169291)"/>
<path style="fill:none;stroke-width:0.566929;stroke-linecap:butt;stroke-linejoin:miter;stroke:rgb(100%,0%,0%);stroke-opacity:0.5;stroke-miterlimit:10;" d="M 25.293153 39.483714 L 19.623231 33.815745 " transform="matrix(2,0,0,2,5.952756,6.169291)"/>
<path style="fill-rule:nonzero;fill:rgb(50%,50%,0%);fill-opacity:0.1;stroke-width:0.566929;stroke-linecap:butt;stroke-linejoin:miter;stroke:rgb(100%,0%,0%);stroke-opacity:0.5;stroke-miterlimit:10;" d="M 19.623231 39.593089 L 43.433778 39.593089 L 43.433778 28.346995 L 19.623231 28.346995 Z M 19.623231 39.593089 " transform="matrix(2,0,0,2,5.952756,6.169291)"/>
<path style="fill:none;stroke-width:0.566929;stroke-linecap:butt;stroke-linejoin:miter;stroke:rgb(100%,0%,0%);stroke-opacity:0.5;stroke-miterlimit:10;" d="M 19.623231 39.483714 L 25.293153 33.815745 " transform="matrix(2,0,0,2,5.952756,6.169291)"/>
<path style="fill:none;stroke-width:0.566929;stroke-linecap:butt;stroke-linejoin:miter;stroke:rgb(100%,0%,0%);stroke-opacity:0.5;stroke-miterlimit:10;" d="M 25.293153 39.483714 L 19.623231 33.815745 " transform="matrix(2,0,0,2,5.952756,6.169291)"/>
<path style="fill-rule:nonzero;fill:rgb(50%,50%,0%);fill-opacity:0.1;stroke-width:0.566929;stroke-linecap:butt;stroke-linejoin:miter;stroke:rgb(100%,0%,0%);stroke-opacity:0.5;stroke-miterlimit:10;" d="M 22.459169 36.759104 L 40.599794 36.759104 L 40.599794 31.180979 L 22.459169 31.180979 Z M 22.459169 36.759104 " transform="matrix(2,0,0,2,5.952756,6.169291)"/>
<path style=" stroke:none;fill-rule:nonzero;fill:rgb(0%,0%,0%);fill-opacity:1;" d="M 53.527344 73.4375 C 53.652344 70.46875 55.339844 69.96875 56.027344 69.96875 C 58.058594 69.96875 58.277344 72.65625 58.277344 73.4375 Z M 53.527344 73.875 L 59.089844 73.875 C 59.527344 73.875 59.589844 73.875 59.589844 73.4375 C 59.589844 71.46875 58.496094 69.53125 56.027344 69.53125 C 53.714844 69.53125 51.871094 71.59375 51.871094 74.09375 C 51.871094 76.75 53.964844 78.6875 56.246094 78.6875 C 58.683594 78.6875 59.589844 76.46875 59.589844 76.09375 C 59.589844 75.90625 59.433594 75.84375 59.308594 75.84375 C 59.152344 75.84375 59.089844 75.96875 59.058594 76.125 C 58.371094 78.1875 56.558594 78.1875 56.371094 78.1875 C 55.371094 78.1875 54.589844 77.59375 54.121094 76.84375 C 53.527344 75.90625 53.527344 74.59375 53.527344 73.875 Z M 53.527344 73.875 "/>
<path style=" stroke:none;fill-rule:nonzero;fill:rgb(0%,0%,0%);fill-opacity:1;" d="M 62.378906 73.4375 C 62.503906 70.46875 64.191406 69.96875 64.878906 69.96875 C 66.910156 69.96875 67.128906 72.65625 67.128906 73.4375 Z M 62.378906 73.875 L 67.941406 73.875 C 68.378906 73.875 68.441406 73.875 68.441406 73.4375 C 68.441406 71.46875 67.347656 69.53125 64.878906 69.53125 C 62.566406 69.53125 60.722656 71.59375 60.722656 74.09375 C 60.722656 76.75 62.816406 78.6875 65.097656 78.6875 C 67.535156 78.6875 68.441406 76.46875 68.441406 76.09375 C 68.441406 75.90625 68.285156 75.84375 68.160156 75.84375 C 68.003906 75.84375 67.941406 75.96875 67.910156 76.125 C 67.222656 78.1875 65.410156 78.1875 65.222656 78.1875 C 64.222656 78.1875 63.441406 77.59375 62.972656 76.84375 C 62.378906 75.90625 62.378906 74.59375 62.378906 73.875 Z M 62.378906 73.875 "/>
<path style=" stroke:none;fill-rule:nonzero;fill:rgb(0%,0%,0%);fill-opacity:1;" d="M 71.234375 73.4375 C 71.359375 70.46875 73.046875 69.96875 73.734375 69.96875 C 75.765625 69.96875 75.984375 72.65625 75.984375 73.4375 Z M 71.234375 73.875 L 76.796875 73.875 C 77.234375 73.875 77.296875 73.875 77.296875 73.4375 C 77.296875 71.46875 76.203125 69.53125 73.734375 69.53125 C 71.421875 69.53125 69.578125 71.59375 69.578125 74.09375 C 69.578125 76.75 71.671875 78.6875 73.953125 78.6875 C 76.390625 78.6875 77.296875 76.46875 77.296875 76.09375 C 77.296875 75.90625 77.140625 75.84375 77.015625 75.84375 C 76.859375 75.84375 76.796875 75.96875 76.765625 76.125 C 76.078125 78.1875 74.265625 78.1875 74.078125 78.1875 C 73.078125 78.1875 72.296875 77.59375 71.828125 76.84375 C 71.234375 75.90625 71.234375 74.59375 71.234375 73.875 Z M 71.234375 73.875 "/>
<path style=" stroke:none;fill-rule:nonzero;fill:rgb(0%,0%,0%);fill-opacity:1;" d="M 80.089844 73.4375 C 80.214844 70.46875 81.902344 69.96875 82.589844 69.96875 C 84.621094 69.96875 84.839844 72.65625 84.839844 73.4375 Z M 80.089844 73.875 L 85.652344 73.875 C 86.089844 73.875 86.152344 73.875 86.152344 73.4375 C 86.152344 71.46875 85.058594 69.53125 82.589844 69.53125 C 80.277344 69.53125 78.433594 71.59375 78.433594 74.09375 C 78.433594 76.75 80.527344 78.6875 82.808594 78.6875 C 85.246094 78.6875 86.152344 76.46875 86.152344 76.09375 C 86.152344 75.90625 85.996094 75.84375 85.871094 75.84375 C 85.714844 75.84375 85.652344 75.96875 85.621094 76.125 C 84.933594 78.1875 83.121094 78.1875 82.933594 78.1875 C 81.933594 78.1875 81.152344 77.59375 80.683594 76.84375 C 80.089844 75.90625 80.089844 74.59375 80.089844 73.875 Z M 80.089844 73.875 "/>
<path style="fill:none;stroke-width:0.566929;stroke-linecap:butt;stroke-linejoin:miter;stroke:rgb(100%,0%,0%);stroke-opacity:0.5;stroke-miterlimit:10;" d="M 63.814638 31.180979 L 69.482606 25.511057 " transform="matrix(2,0,0,2,5.952756,6.169291)"/>
<path style="fill:none;stroke-width:0.566929;stroke-linecap:butt;stroke-linejoin:miter;stroke:rgb(100%,0%,0%);stroke-opacity:0.5;stroke-miterlimit:10;" d="M 69.482606 31.180979 L 63.814638 25.511057 " transform="matrix(2,0,0,2,5.952756,6.169291)"/>
<path style="fill-rule:nonzero;fill:rgb(50%,50%,0%);fill-opacity:0.1;stroke-width:0.566929;stroke-linecap:butt;stroke-linejoin:miter;stroke:rgb(100%,0%,0%);stroke-opacity:0.5;stroke-miterlimit:10;" d="M 50.316591 39.593089 L 82.982606 39.593089 L 82.982606 28.346995 L 50.316591 28.346995 Z M 50.316591 39.593089 " transform="matrix(2,0,0,2,5.952756,6.169291)"/>
<path style="fill:none;stroke-width:0.566929;stroke-linecap:butt;stroke-linejoin:miter;stroke:rgb(100%,0%,0%);stroke-opacity:0.5;stroke-miterlimit:10;" d="M 50.316591 39.483714 L 55.98456 33.815745 " transform="matrix(2,0,0,2,5.952756,6.169291)"/>
<path style="fill:none;stroke-width:0.566929;stroke-linecap:butt;stroke-linejoin:miter;stroke:rgb(100%,0%,0%);stroke-opacity:0.5;stroke-miterlimit:10;" d="M 55.98456 39.483714 L 50.316591 33.815745 " transform="matrix(2,0,0,2,5.952756,6.169291)"/>
<path style="fill-rule:nonzero;fill:rgb(50%,50%,0%);fill-opacity:0.1;stroke-width:0.566929;stroke-linecap:butt;stroke-linejoin:miter;stroke:rgb(100%,0%,0%);stroke-opacity:0.5;stroke-miterlimit:10;" d="M 50.316591 39.593089 L 82.982606 39.593089 L 82.982606 28.346995 L 50.316591 28.346995 Z M 50.316591 39.593089 " transform="matrix(2,0,0,2,5.952756,6.169291)"/>
<path style="fill:none;stroke-width:0.566929;stroke-linecap:butt;stroke-linejoin:miter;stroke:rgb(100%,0%,0%);stroke-opacity:0.5;stroke-miterlimit:10;" d="M 50.316591 39.483714 L 55.98456 33.815745 " transform="matrix(2,0,0,2,5.952756,6.169291)"/>
<path style="fill:none;stroke-width:0.566929;stroke-linecap:butt;stroke-linejoin:miter;stroke:rgb(100%,0%,0%);stroke-opacity:0.5;stroke-miterlimit:10;" d="M 55.98456 39.483714 L 50.316591 33.815745 " transform="matrix(2,0,0,2,5.952756,6.169291)"/>
<path style="fill-rule:nonzero;fill:rgb(50%,50%,0%);fill-opacity:0.1;stroke-width:0.566929;stroke-linecap:butt;stroke-linejoin:miter;stroke:rgb(100%,0%,0%);stroke-opacity:0.5;stroke-miterlimit:10;" d="M 53.150575 36.759104 L 80.146669 36.759104 L 80.146669 31.180979 L 53.150575 31.180979 Z M 53.150575 36.759104 " transform="matrix(2,0,0,2,5.952756,6.169291)"/>
<path style=" stroke:none;fill-rule:nonzero;fill:rgb(0%,0%,0%);fill-opacity:1;" d="M 114.910156 73.4375 C 115.035156 70.46875 116.722656 69.96875 117.410156 69.96875 C 119.441406 69.96875 119.660156 72.65625 119.660156 73.4375 Z M 114.910156 73.875 L 120.472656 73.875 C 120.910156 73.875 120.972656 73.875 120.972656 73.4375 C 120.972656 71.46875 119.878906 69.53125 117.410156 69.53125 C 115.097656 69.53125 113.253906 71.59375 113.253906 74.09375 C 113.253906 76.75 115.347656 78.6875 117.628906 78.6875 C 120.066406 78.6875 120.972656 76.46875 120.972656 76.09375 C 120.972656 75.90625 120.816406 75.84375 120.691406 75.84375 C 120.535156 75.84375 120.472656 75.96875 120.441406 76.125 C 119.753906 78.1875 117.941406 78.1875 117.753906 78.1875 C 116.753906 78.1875 115.972656 77.59375 115.503906 76.84375 C 114.910156 75.90625 114.910156 74.59375 114.910156 73.875 Z M 114.910156 73.875 "/>
<path style=" stroke:none;fill-rule:nonzero;fill:rgb(0%,0%,0%);fill-opacity:1;" d="M 123.765625 73.4375 C 123.890625 70.46875 125.578125 69.96875 126.265625 69.96875 C 128.296875 69.96875 128.515625 72.65625 128.515625 73.4375 Z M 123.765625 73.875 L 129.328125 73.875 C 129.765625 73.875 129.828125 73.875 129.828125 73.4375 C 129.828125 71.46875 128.734375 69.53125 126.265625 69.53125 C 123.953125 69.53125 122.109375 71.59375 122.109375 74.09375 C 122.109375 76.75 124.203125 78.6875 126.484375 78.6875 C 128.921875 78.6875 129.828125 76.46875 129.828125 76.09375 C 129.828125 75.90625 129.671875 75.84375 129.546875 75.84375 C 129.390625 75.84375 129.328125 75.96875 129.296875 76.125 C 128.609375 78.1875 126.796875 78.1875 126.609375 78.1875 C 125.609375 78.1875 124.828125 77.59375 124.359375 76.84375 C 123.765625 75.90625 123.765625 74.59375 123.765625 73.875 Z M 123.765625 73.875 "/>
<path style=" stroke:none;fill-rule:nonzero;fill:rgb(0%,0%,0%);fill-opacity:1;" d="M 132.621094 73.4375 C 132.746094 70.46875 134.433594 69.96875 135.121094 69.96875 C 137.152344 69.96875 137.371094 72.65625 137.371094 73.4375 Z M 132.621094 73.875 L 138.183594 73.875 C 138.621094 73.875 138.683594 73.875 138.683594 73.4375 C 138.683594 71.46875 137.589844 69.53125 135.121094 69.53125 C 132.808594 69.53125 130.964844 71.59375 130.964844 74.09375 C 130.964844 76.75 133.058594 78.6875 135.339844 78.6875 C 137.777344 78.6875 138.683594 76.46875 138.683594 76.09375 C 138.683594 75.90625 138.527344 75.84375 138.402344 75.84375 C 138.246094 75.84375 138.183594 75.96875 138.152344 76.125 C 137.464844 78.1875 135.652344 78.1875 135.464844 78.1875 C 134.464844 78.1875 133.683594 77.59375 133.214844 76.84375 C 132.621094 75.90625 132.621094 74.59375 132.621094 73.875 Z M 132.621094 73.875 "/>
<path style=" stroke:none;fill-rule:nonzero;fill:rgb(0%,0%,0%);fill-opacity:1;" d="M 141.476562 73.4375 C 141.601562 70.46875 143.289062 69.96875 143.976562 69.96875 C 146.007812 69.96875 146.226562 72.65625 146.226562 73.4375 Z M 141.476562 73.875 L 147.039062 73.875 C 147.476562 73.875 147.539062 73.875 147.539062 73.4375 C 147.539062 71.46875 146.445312 69.53125 143.976562 69.53125 C 141.664062 69.53125 139.820312 71.59375 139.820312 74.09375 C 139.820312 76.75 141.914062 78.6875 144.195312 78.6875 C 146.632812 78.6875 147.539062 76.46875 147.539062 76.09375 C 147.539062 75.90625 147.382812 75.84375 147.257812 75.84375 C 147.101562 75.84375 147.039062 75.96875 147.007812 76.125 C 146.320312 78.1875 144.507812 78.1875 144.320312 78.1875 C 143.320312 78.1875 142.539062 77.59375 142.070312 76.84375 C 141.476562 75.90625 141.476562 74.59375 141.476562 73.875 Z M 141.476562 73.875 "/>
<path style=" stroke:none;fill-rule:nonzero;fill:rgb(0%,0%,0%);fill-opacity:1;" d="M 150.328125 73.4375 C 150.453125 70.46875 152.140625 69.96875 152.828125 69.96875 C 154.859375 69.96875 155.078125 72.65625 155.078125 73.4375 Z M 150.328125 73.875 L 155.890625 73.875 C 156.328125 73.875 156.390625 73.875 156.390625 73.4375 C 156.390625 71.46875 155.296875 69.53125 152.828125 69.53125 C 150.515625 69.53125 148.671875 71.59375 148.671875 74.09375 C 148.671875 76.75 150.765625 78.6875 153.046875 78.6875 C 155.484375 78.6875 156.390625 76.46875 156.390625 76.09375 C 156.390625 75.90625 156.234375 75.84375 156.109375 75.84375 C 155.953125 75.84375 155.890625 75.96875 155.859375 76.125 C 155.171875 78.1875 153.359375 78.1875 153.171875 78.1875 C 152.171875 78.1875 151.390625 77.59375 150.921875 76.84375 C 150.328125 75.90625 150.328125 74.59375 150.328125 73.875 Z M 150.328125 73.875 "/>
<path style=" stroke:none;fill-rule:nonzero;fill:rgb(0%,0%,0%);fill-opacity:1;" d="M 159.183594 73.4375 C 159.308594 70.46875 160.996094 69.96875 161.683594 69.96875 C 163.714844 69.96875 163.933594 72.65625 163.933594 73.4375 Z M 159.183594 73.875 L 164.746094 73.875 C 165.183594 73.875 165.246094 73.875 165.246094 73.4375 C 165.246094 71.46875 164.152344 69.53125 161.683594 69.53125 C 159.371094 69.53125 157.527344 71.59375 157.527344 74.09375 C 157.527344 76.75 159.621094 78.6875 161.902344 78.6875 C 164.339844 78.6875 165.246094 76.46875 165.246094 76.09375 C 165.246094 75.90625 165.089844 75.84375 164.964844 75.84375 C 164.808594 75.84375 164.746094 75.96875 164.714844 76.125 C 164.027344 78.1875 162.214844 78.1875 162.027344 78.1875 C 161.027344 78.1875 160.246094 77.59375 159.777344 76.84375 C 159.183594 75.90625 159.183594 74.59375 159.183594 73.875 Z M 159.183594 73.875 "/>
<path style="fill:none;stroke-width:0.566929;stroke-linecap:butt;stroke-linejoin:miter;stroke:rgb(100%,0%,0%);stroke-opacity:0.5;stroke-miterlimit:10;" d="M 86.787294 31.180979 L 92.457216 25.511057 " transform="matrix(2,0,0,2,5.952756,6.169291)"/>
<path style="fill:none;stroke-width:0.566929;stroke-linecap:butt;stroke-linejoin:miter;stroke:rgb(100%,0%,0%);stroke-opacity:0.5;stroke-miterlimit:10;" d="M 92.457216 31.180979 L 86.787294 25.511057 " transform="matrix(2,0,0,2,5.952756,6.169291)"/>
<path style="fill:none;stroke-width:0.566929;stroke-linecap:butt;stroke-linejoin:miter;stroke:rgb(100%,0%,0%);stroke-opacity:0.5;stroke-miterlimit:10;" d="M 89.623231 56.692698 L 89.623231 28.346995 Z M 89.623231 56.692698 " transform="matrix(2,0,0,2,5.952756,6.169291)"/>
<path style="fill:none;stroke-width:0.566929;stroke-linecap:butt;stroke-linejoin:miter;stroke:rgb(100%,0%,0%);stroke-opacity:0.5;stroke-miterlimit:10;" d="M 6.857606 59.526682 L 12.525575 53.858714 " transform="matrix(2,0,0,2,5.952756,6.169291)"/>
<path style="fill:none;stroke-width:0.566929;stroke-linecap:butt;stroke-linejoin:miter;stroke:rgb(100%,0%,0%);stroke-opacity:0.5;stroke-miterlimit:10;" d="M 12.525575 59.526682 L 6.857606 53.858714 " transform="matrix(2,0,0,2,5.952756,6.169291)"/>
<path style="fill-rule:nonzero;fill:rgb(50%,50%,0%);fill-opacity:0.1;stroke-width:0.566929;stroke-linecap:butt;stroke-linejoin:miter;stroke:rgb(100%,0%,0%);stroke-opacity:0.5;stroke-miterlimit:10;" d="M 0.000184547 67.940745 L 19.382997 67.940745 L 19.382997 56.692698 L 0.000184547 56.692698 Z M 0.000184547 67.940745 " transform="matrix(2,0,0,2,5.952756,6.169291)"/>
<path style="fill:none;stroke-width:0.566929;stroke-linecap:butt;stroke-linejoin:miter;stroke:rgb(100%,0%,0%);stroke-opacity:0.5;stroke-miterlimit:10;" d="M 0.000184547 67.83137 L 5.670106 62.161448 " transform="matrix(2,0,0,2,5.952756,6.169291)"/>
<path style="fill:none;stroke-width:0.566929;stroke-linecap:butt;stroke-linejoin:miter;stroke:rgb(100%,0%,0%);stroke-opacity:0.5;stroke-miterlimit:10;" d="M 5.670106 67.83137 L 0.000184547 62.161448 " transform="matrix(2,0,0,2,5.952756,6.169291)"/>
<path style="fill-rule:nonzero;fill:rgb(50%,50%,0%);fill-opacity:0.1;stroke-width:0.566929;stroke-linecap:butt;stroke-linejoin:miter;stroke:rgb(100%,0%,0%);stroke-opacity:0.5;stroke-miterlimit:10;" d="M 0.000184547 67.940745 L 19.382997 67.940745 L 19.382997 56.692698 L 0.000184547 56.692698 Z M 0.000184547 67.940745 " transform="matrix(2,0,0,2,5.952756,6.169291)"/>
<path style="fill:none;stroke-width:0.566929;stroke-linecap:butt;stroke-linejoin:miter;stroke:rgb(100%,0%,0%);stroke-opacity:0.5;stroke-miterlimit:10;" d="M 0.000184547 67.83137 L 5.670106 62.161448 " transform="matrix(2,0,0,2,5.952756,6.169291)"/>
<path style="fill:none;stroke-width:0.566929;stroke-linecap:butt;stroke-linejoin:miter;stroke:rgb(100%,0%,0%);stroke-opacity:0.5;stroke-miterlimit:10;" d="M 5.670106 67.83137 L 0.000184547 62.161448 " transform="matrix(2,0,0,2,5.952756,6.169291)"/>
<path style="fill-rule:nonzero;fill:rgb(50%,50%,0%);fill-opacity:0.1;stroke-width:0.566929;stroke-linecap:butt;stroke-linejoin:miter;stroke:rgb(100%,0%,0%);stroke-opacity:0.5;stroke-miterlimit:10;" d="M 2.834169 65.104807 L 16.549013 65.104807 L 16.549013 59.526682 L 2.834169 59.526682 Z M 2.834169 65.104807 " transform="matrix(2,0,0,2,5.952756,6.169291)"/>
<path style=" stroke:none;fill-rule:nonzero;fill:rgb(0%,0%,0%);fill-opacity:1;" d="M 14.277344 130.128906 C 14.402344 127.160156 16.089844 126.660156 16.777344 126.660156 C 18.808594 126.660156 19.027344 129.347656 19.027344 130.128906 Z M 14.277344 130.566406 L 19.839844 130.566406 C 20.277344 130.566406 20.339844 130.566406 20.339844 130.128906 C 20.339844 128.160156 19.246094 126.222656 16.777344 126.222656 C 14.464844 126.222656 12.621094 128.285156 12.621094 130.785156 C 12.621094 133.441406 14.714844 135.378906 16.996094 135.378906 C 19.433594 135.378906 20.339844 133.160156 20.339844 132.785156 C 20.339844 132.597656 20.183594 132.535156 20.058594 132.535156 C 19.902344 132.535156 19.839844 132.660156 19.808594 132.816406 C 19.121094 134.878906 17.308594 134.878906 17.121094 134.878906 C 16.121094 134.878906 15.339844 134.285156 14.871094 133.535156 C 14.277344 132.597656 14.277344 131.285156 14.277344 130.566406 Z M 14.277344 130.566406 "/>
<path style=" stroke:none;fill-rule:nonzero;fill:rgb(0%,0%,0%);fill-opacity:1;" d="M 23.132812 130.128906 C 23.257812 127.160156 24.945312 126.660156 25.632812 126.660156 C 27.664062 126.660156 27.882812 129.347656 27.882812 130.128906 Z M 23.132812 130.566406 L 28.695312 130.566406 C 29.132812 130.566406 29.195312 130.566406 29.195312 130.128906 C 29.195312 128.160156 28.101562 126.222656 25.632812 126.222656 C 23.320312 126.222656 21.476562 128.285156 21.476562 130.785156 C 21.476562 133.441406 23.570312 135.378906 25.851562 135.378906 C 28.289062 135.378906 29.195312 133.160156 29.195312 132.785156 C 29.195312 132.597656 29.039062 132.535156 28.914062 132.535156 C 28.757812 132.535156 28.695312 132.660156 28.664062 132.816406 C 27.976562 134.878906 26.164062 134.878906 25.976562 134.878906 C 24.976562 134.878906 24.195312 134.285156 23.726562 133.535156 C 23.132812 132.597656 23.132812 131.285156 23.132812 130.566406 Z M 23.132812 130.566406 "/>
<path style=" stroke:none;fill-rule:nonzero;fill:rgb(0%,0%,0%);fill-opacity:1;" d="M 31.988281 130.128906 C 32.113281 127.160156 33.800781 126.660156 34.488281 126.660156 C 36.519531 126.660156 36.738281 129.347656 36.738281 130.128906 Z M 31.988281 130.566406 L 37.550781 130.566406 C 37.988281 130.566406 38.050781 130.566406 38.050781 130.128906 C 38.050781 128.160156 36.957031 126.222656 34.488281 126.222656 C 32.175781 126.222656 30.332031 128.285156 30.332031 130.785156 C 30.332031 133.441406 32.425781 135.378906 34.707031 135.378906 C 37.144531 135.378906 38.050781 133.160156 38.050781 132.785156 C 38.050781 132.597656 37.894531 132.535156 37.769531 132.535156 C 37.613281 132.535156 37.550781 132.660156 37.519531 132.816406 C 36.832031 134.878906 35.019531 134.878906 34.832031 134.878906 C 33.832031 134.878906 33.050781 134.285156 32.582031 133.535156 C 31.988281 132.597656 31.988281 131.285156 31.988281 130.566406 Z M 31.988281 130.566406 "/>
<path style="fill:none;stroke-width:0.566929;stroke-linecap:butt;stroke-linejoin:miter;stroke:rgb(100%,0%,0%);stroke-opacity:0.5;stroke-miterlimit:10;" d="M 28.695497 59.526682 L 34.363466 53.858714 " transform="matrix(2,0,0,2,5.952756,6.169291)"/>
<path style="fill:none;stroke-width:0.566929;stroke-linecap:butt;stroke-linejoin:miter;stroke:rgb(100%,0%,0%);stroke-opacity:0.5;stroke-miterlimit:10;" d="M 34.363466 59.526682 L 28.695497 53.858714 " transform="matrix(2,0,0,2,5.952756,6.169291)"/>
<path style="fill-rule:nonzero;fill:rgb(50%,50%,0%);fill-opacity:0.1;stroke-width:0.566929;stroke-linecap:butt;stroke-linejoin:miter;stroke:rgb(100%,0%,0%);stroke-opacity:0.5;stroke-miterlimit:10;" d="M 19.382997 70.39387 L 43.675966 70.39387 L 43.675966 56.692698 L 19.382997 56.692698 Z M 19.382997 70.39387 " transform="matrix(2,0,0,2,5.952756,6.169291)"/>
<path style="fill:none;stroke-width:0.566929;stroke-linecap:butt;stroke-linejoin:miter;stroke:rgb(100%,0%,0%);stroke-opacity:0.5;stroke-miterlimit:10;" d="M 19.382997 70.39387 L 25.052919 64.723948 " transform="matrix(2,0,0,2,5.952756,6.169291)"/>
<path style="fill:none;stroke-width:0.566929;stroke-linecap:butt;stroke-linejoin:miter;stroke:rgb(100%,0%,0%);stroke-opacity:0.5;stroke-miterlimit:10;" d="M 25.052919 70.39387 L 19.382997 64.723948 " transform="matrix(2,0,0,2,5.952756,6.169291)"/>
<path style="fill-rule:nonzero;fill:rgb(50%,50%,0%);fill-opacity:0.1;stroke-width:0.566929;stroke-linecap:butt;stroke-linejoin:miter;stroke:rgb(100%,0%,0%);stroke-opacity:0.5;stroke-miterlimit:10;" d="M 19.382997 70.39387 L 43.675966 70.39387 L 43.675966 56.692698 L 19.382997 56.692698 Z M 19.382997 70.39387 " transform="matrix(2,0,0,2,5.952756,6.169291)"/>
<path style="fill:none;stroke-width:0.566929;stroke-linecap:butt;stroke-linejoin:miter;stroke:rgb(100%,0%,0%);stroke-opacity:0.5;stroke-miterlimit:10;" d="M 19.382997 70.39387 L 25.052919 64.723948 " transform="matrix(2,0,0,2,5.952756,6.169291)"/>
<path style="fill:none;stroke-width:0.566929;stroke-linecap:butt;stroke-linejoin:miter;stroke:rgb(100%,0%,0%);stroke-opacity:0.5;stroke-miterlimit:10;" d="M 25.052919 70.39387 L 19.382997 64.723948 " transform="matrix(2,0,0,2,5.952756,6.169291)"/>
<path style="fill-rule:nonzero;fill:rgb(50%,50%,0%);fill-opacity:0.1;stroke-width:0.566929;stroke-linecap:butt;stroke-linejoin:miter;stroke:rgb(100%,0%,0%);stroke-opacity:0.5;stroke-miterlimit:10;" d="M 22.218935 67.557932 L 40.840028 67.557932 L 40.840028 59.526682 L 22.218935 59.526682 Z M 22.218935 67.557932 " transform="matrix(2,0,0,2,5.952756,6.169291)"/>
<path style=" stroke:none;fill-rule:nonzero;fill:rgb(0%,0%,0%);fill-opacity:1;" d="M 59.796875 132.316406 L 62.078125 132.316406 L 62.078125 131.691406 L 59.734375 131.691406 L 59.734375 129.378906 C 59.734375 127.597656 60.703125 126.660156 61.578125 126.660156 C 61.640625 126.660156 61.953125 126.660156 62.234375 126.816406 C 62.015625 126.878906 61.640625 127.160156 61.640625 127.660156 C 61.640625 128.097656 61.953125 128.503906 62.515625 128.503906 C 63.078125 128.503906 63.390625 128.097656 63.390625 127.628906 C 63.390625 126.910156 62.671875 126.222656 61.578125 126.222656 C 60.390625 126.222656 59.515625 126.972656 59.421875 127.066406 C 58.828125 126.316406 57.703125 126.222656 57.171875 126.222656 C 55.296875 126.222656 52.984375 127.253906 52.984375 129.410156 L 52.984375 131.691406 L 51.390625 131.691406 L 51.390625 132.316406 L 52.984375 132.316406 L 52.984375 138.785156 C 52.984375 139.660156 52.765625 139.660156 51.421875 139.660156 L 51.421875 140.285156 C 52.078125 140.253906 53.140625 140.222656 53.640625 140.222656 C 54.140625 140.222656 55.109375 140.253906 55.859375 140.285156 L 55.859375 139.660156 C 54.515625 139.660156 54.296875 139.660156 54.296875 138.785156 L 54.296875 132.316406 L 58.484375 132.316406 L 58.484375 138.785156 C 58.484375 139.660156 58.265625 139.660156 56.921875 139.660156 L 56.921875 140.285156 C 57.703125 140.253906 58.640625 140.222656 59.203125 140.222656 C 59.984375 140.222656 60.921875 140.222656 61.734375 140.285156 L 61.734375 139.660156 L 61.296875 139.660156 C 59.828125 139.660156 59.796875 139.441406 59.796875 138.722656 Z M 54.234375 131.691406 L 54.234375 129.441406 C 54.234375 127.503906 55.859375 126.660156 57.171875 126.660156 C 58.140625 126.660156 58.703125 127.035156 58.703125 127.035156 L 58.703125 127.066406 C 58.390625 127.097656 57.984375 127.378906 57.984375 127.910156 C 57.984375 128.035156 57.984375 128.535156 58.546875 128.722656 C 58.484375 128.972656 58.484375 129.160156 58.484375 129.410156 L 58.484375 131.691406 Z M 54.234375 131.691406 "/>
<path style=" stroke:none;fill-rule:nonzero;fill:rgb(0%,0%,0%);fill-opacity:1;" d="M 71.417969 132.316406 L 73.699219 132.316406 L 73.699219 131.691406 L 71.355469 131.691406 L 71.355469 129.378906 C 71.355469 127.597656 72.324219 126.660156 73.199219 126.660156 C 73.261719 126.660156 73.574219 126.660156 73.855469 126.816406 C 73.636719 126.878906 73.261719 127.160156 73.261719 127.660156 C 73.261719 128.097656 73.574219 128.503906 74.136719 128.503906 C 74.699219 128.503906 75.011719 128.097656 75.011719 127.628906 C 75.011719 126.910156 74.292969 126.222656 73.199219 126.222656 C 72.011719 126.222656 71.136719 126.972656 71.042969 127.066406 C 70.449219 126.316406 69.324219 126.222656 68.792969 126.222656 C 66.917969 126.222656 64.605469 127.253906 64.605469 129.410156 L 64.605469 131.691406 L 63.011719 131.691406 L 63.011719 132.316406 L 64.605469 132.316406 L 64.605469 138.785156 C 64.605469 139.660156 64.386719 139.660156 63.042969 139.660156 L 63.042969 140.285156 C 63.699219 140.253906 64.761719 140.222656 65.261719 140.222656 C 65.761719 140.222656 66.730469 140.253906 67.480469 140.285156 L 67.480469 139.660156 C 66.136719 139.660156 65.917969 139.660156 65.917969 138.785156 L 65.917969 132.316406 L 70.105469 132.316406 L 70.105469 138.785156 C 70.105469 139.660156 69.886719 139.660156 68.542969 139.660156 L 68.542969 140.285156 C 69.324219 140.253906 70.261719 140.222656 70.824219 140.222656 C 71.605469 140.222656 72.542969 140.222656 73.355469 140.285156 L 73.355469 139.660156 L 72.917969 139.660156 C 71.449219 139.660156 71.417969 139.441406 71.417969 138.722656 Z M 65.855469 131.691406 L 65.855469 129.441406 C 65.855469 127.503906 67.480469 126.660156 68.792969 126.660156 C 69.761719 126.660156 70.324219 127.035156 70.324219 127.035156 L 70.324219 127.066406 C 70.011719 127.097656 69.605469 127.378906 69.605469 127.910156 C 69.605469 128.035156 69.605469 128.535156 70.167969 128.722656 C 70.105469 128.972656 70.105469 129.160156 70.105469 129.410156 L 70.105469 131.691406 Z M 65.855469 131.691406 "/>
<path style=" stroke:none;fill-rule:nonzero;fill:rgb(0%,0%,0%);fill-opacity:1;" d="M 83.039062 132.316406 L 85.320312 132.316406 L 85.320312 131.691406 L 82.976562 131.691406 L 82.976562 129.378906 C 82.976562 127.597656 83.945312 126.660156 84.820312 126.660156 C 84.882812 126.660156 85.195312 126.660156 85.476562 126.816406 C 85.257812 126.878906 84.882812 127.160156 84.882812 127.660156 C 84.882812 128.097656 85.195312 128.503906 85.757812 128.503906 C 86.320312 128.503906 86.632812 128.097656 86.632812 127.628906 C 86.632812 126.910156 85.914062 126.222656 84.820312 126.222656 C 83.632812 126.222656 82.757812 126.972656 82.664062 127.066406 C 82.070312 126.316406 80.945312 126.222656 80.414062 126.222656 C 78.539062 126.222656 76.226562 127.253906 76.226562 129.410156 L 76.226562 131.691406 L 74.632812 131.691406 L 74.632812 132.316406 L 76.226562 132.316406 L 76.226562 138.785156 C 76.226562 139.660156 76.007812 139.660156 74.664062 139.660156 L 74.664062 140.285156 C 75.320312 140.253906 76.382812 140.222656 76.882812 140.222656 C 77.382812 140.222656 78.351562 140.253906 79.101562 140.285156 L 79.101562 139.660156 C 77.757812 139.660156 77.539062 139.660156 77.539062 138.785156 L 77.539062 132.316406 L 81.726562 132.316406 L 81.726562 138.785156 C 81.726562 139.660156 81.507812 139.660156 80.164062 139.660156 L 80.164062 140.285156 C 80.945312 140.253906 81.882812 140.222656 82.445312 140.222656 C 83.226562 140.222656 84.164062 140.222656 84.976562 140.285156 L 84.976562 139.660156 L 84.539062 139.660156 C 83.070312 139.660156 83.039062 139.441406 83.039062 138.722656 Z M 77.476562 131.691406 L 77.476562 129.441406 C 77.476562 127.503906 79.101562 126.660156 80.414062 126.660156 C 81.382812 126.660156 81.945312 127.035156 81.945312 127.035156 L 81.945312 127.066406 C 81.632812 127.097656 81.226562 127.378906 81.226562 127.910156 C 81.226562 128.035156 81.226562 128.535156 81.789062 128.722656 C 81.726562 128.972656 81.726562 129.160156 81.726562 129.410156 L 81.726562 131.691406 Z M 77.476562 131.691406 "/>
<path style="fill:none;stroke-width:0.566929;stroke-linecap:butt;stroke-linejoin:miter;stroke:rgb(100%,0%,0%);stroke-opacity:0.5;stroke-miterlimit:10;" d="M 63.814638 59.526682 L 69.482606 53.858714 " transform="matrix(2,0,0,2,5.952756,6.169291)"/>
<path style="fill:none;stroke-width:0.566929;stroke-linecap:butt;stroke-linejoin:miter;stroke:rgb(100%,0%,0%);stroke-opacity:0.5;stroke-miterlimit:10;" d="M 69.482606 59.526682 L 63.814638 53.858714 " transform="matrix(2,0,0,2,5.952756,6.169291)"/>
<path style="fill-rule:nonzero;fill:rgb(50%,50%,0%);fill-opacity:0.1;stroke-width:0.566929;stroke-linecap:butt;stroke-linejoin:miter;stroke:rgb(100%,0%,0%);stroke-opacity:0.5;stroke-miterlimit:10;" d="M 43.675966 67.940745 L 89.623231 67.940745 L 89.623231 56.692698 L 43.675966 56.692698 Z M 43.675966 67.940745 " transform="matrix(2,0,0,2,5.952756,6.169291)"/>
<path style="fill:none;stroke-width:0.566929;stroke-linecap:butt;stroke-linejoin:miter;stroke:rgb(100%,0%,0%);stroke-opacity:0.5;stroke-miterlimit:10;" d="M 43.675966 67.83137 L 49.343935 62.161448 " transform="matrix(2,0,0,2,5.952756,6.169291)"/>
<path style="fill:none;stroke-width:0.566929;stroke-linecap:butt;stroke-linejoin:miter;stroke:rgb(100%,0%,0%);stroke-opacity:0.5;stroke-miterlimit:10;" d="M 49.343935 67.83137 L 43.675966 62.161448 " transform="matrix(2,0,0,2,5.952756,6.169291)"/>
<path style="fill-rule:nonzero;fill:rgb(50%,50%,0%);fill-opacity:0.1;stroke-width:0.566929;stroke-linecap:butt;stroke-linejoin:miter;stroke:rgb(100%,0%,0%);stroke-opacity:0.5;stroke-miterlimit:10;" d="M 43.675966 67.940745 L 89.623231 67.940745 L 89.623231 56.692698 L 43.675966 56.692698 Z M 43.675966 67.940745 " transform="matrix(2,0,0,2,5.952756,6.169291)"/>
<path style="fill:none;stroke-width:0.566929;stroke-linecap:butt;stroke-linejoin:miter;stroke:rgb(100%,0%,0%);stroke-opacity:0.5;stroke-miterlimit:10;" d="M 43.675966 67.83137 L 49.343935 62.161448 " transform="matrix(2,0,0,2,5.952756,6.169291)"/>
<path style="fill:none;stroke-width:0.566929;stroke-linecap:butt;stroke-linejoin:miter;stroke:rgb(100%,0%,0%);stroke-opacity:0.5;stroke-miterlimit:10;" d="M 49.343935 67.83137 L 43.675966 62.161448 " transform="matrix(2,0,0,2,5.952756,6.169291)"/>
<path style="fill-rule:nonzero;fill:rgb(50%,50%,0%);fill-opacity:0.1;stroke-width:0.566929;stroke-linecap:butt;stroke-linejoin:miter;stroke:rgb(100%,0%,0%);stroke-opacity:0.5;stroke-miterlimit:10;" d="M 46.50995 65.104807 L 86.787294 65.104807 L 86.787294 59.526682 L 46.50995 59.526682 Z M 46.50995 65.104807 " transform="matrix(2,0,0,2,5.952756,6.169291)"/>
<path style=" stroke:none;fill-rule:nonzero;fill:rgb(0%,0%,0%);fill-opacity:1;" d="M 101.628906 130.128906 C 101.753906 127.160156 103.441406 126.660156 104.128906 126.660156 C 106.160156 126.660156 106.378906 129.347656 106.378906 130.128906 Z M 101.628906 130.566406 L 107.191406 130.566406 C 107.628906 130.566406 107.691406 130.566406 107.691406 130.128906 C 107.691406 128.160156 106.597656 126.222656 104.128906 126.222656 C 101.816406 126.222656 99.972656 128.285156 99.972656 130.785156 C 99.972656 133.441406 102.066406 135.378906 104.347656 135.378906 C 106.785156 135.378906 107.691406 133.160156 107.691406 132.785156 C 107.691406 132.597656 107.535156 132.535156 107.410156 132.535156 C 107.253906 132.535156 107.191406 132.660156 107.160156 132.816406 C 106.472656 134.878906 104.660156 134.878906 104.472656 134.878906 C 103.472656 134.878906 102.691406 134.285156 102.222656 133.535156 C 101.628906 132.597656 101.628906 131.285156 101.628906 130.566406 Z M 101.628906 130.566406 "/>
<path style=" stroke:none;fill-rule:nonzero;fill:rgb(0%,0%,0%);fill-opacity:1;" d="M 110.484375 130.128906 C 110.609375 127.160156 112.296875 126.660156 112.984375 126.660156 C 115.015625 126.660156 115.234375 129.347656 115.234375 130.128906 Z M 110.484375 130.566406 L 116.046875 130.566406 C 116.484375 130.566406 116.546875 130.566406 116.546875 130.128906 C 116.546875 128.160156 115.453125 126.222656 112.984375 126.222656 C 110.671875 126.222656 108.828125 128.285156 108.828125 130.785156 C 108.828125 133.441406 110.921875 135.378906 113.203125 135.378906 C 115.640625 135.378906 116.546875 133.160156 116.546875 132.785156 C 116.546875 132.597656 116.390625 132.535156 116.265625 132.535156 C 116.109375 132.535156 116.046875 132.660156 116.015625 132.816406 C 115.328125 134.878906 113.515625 134.878906 113.328125 134.878906 C 112.328125 134.878906 111.546875 134.285156 111.078125 133.535156 C 110.484375 132.597656 110.484375 131.285156 110.484375 130.566406 Z M 110.484375 130.566406 "/>
<path style=" stroke:none;fill-rule:nonzero;fill:rgb(0%,0%,0%);fill-opacity:1;" d="M 119.339844 130.128906 C 119.464844 127.160156 121.152344 126.660156 121.839844 126.660156 C 123.871094 126.660156 124.089844 129.347656 124.089844 130.128906 Z M 119.339844 130.566406 L 124.902344 130.566406 C 125.339844 130.566406 125.402344 130.566406 125.402344 130.128906 C 125.402344 128.160156 124.308594 126.222656 121.839844 126.222656 C 119.527344 126.222656 117.683594 128.285156 117.683594 130.785156 C 117.683594 133.441406 119.777344 135.378906 122.058594 135.378906 C 124.496094 135.378906 125.402344 133.160156 125.402344 132.785156 C 125.402344 132.597656 125.246094 132.535156 125.121094 132.535156 C 124.964844 132.535156 124.902344 132.660156 124.871094 132.816406 C 124.183594 134.878906 122.371094 134.878906 122.183594 134.878906 C 121.183594 134.878906 120.402344 134.285156 119.933594 133.535156 C 119.339844 132.597656 119.339844 131.285156 119.339844 130.566406 Z M 119.339844 130.566406 "/>
<path style=" stroke:none;fill-rule:nonzero;fill:rgb(0%,0%,0%);fill-opacity:1;" d="M 128.191406 130.128906 C 128.316406 127.160156 130.003906 126.660156 130.691406 126.660156 C 132.722656 126.660156 132.941406 129.347656 132.941406 130.128906 Z M 128.191406 130.566406 L 133.753906 130.566406 C 134.191406 130.566406 134.253906 130.566406 134.253906 130.128906 C 134.253906 128.160156 133.160156 126.222656 130.691406 126.222656 C 128.378906 126.222656 126.535156 128.285156 126.535156 130.785156 C 126.535156 133.441406 128.628906 135.378906 130.910156 135.378906 C 133.347656 135.378906 134.253906 133.160156 134.253906 132.785156 C 134.253906 132.597656 134.097656 132.535156 133.972656 132.535156 C 133.816406 132.535156 133.753906 132.660156 133.722656 132.816406 C 133.035156 134.878906 131.222656 134.878906 131.035156 134.878906 C 130.035156 134.878906 129.253906 134.285156 128.785156 133.535156 C 128.191406 132.597656 128.191406 131.285156 128.191406 130.566406 Z M 128.191406 130.566406 "/>
<path style=" stroke:none;fill-rule:nonzero;fill:rgb(0%,0%,0%);fill-opacity:1;" d="M 137.046875 130.128906 C 137.171875 127.160156 138.859375 126.660156 139.546875 126.660156 C 141.578125 126.660156 141.796875 129.347656 141.796875 130.128906 Z M 137.046875 130.566406 L 142.609375 130.566406 C 143.046875 130.566406 143.109375 130.566406 143.109375 130.128906 C 143.109375 128.160156 142.015625 126.222656 139.546875 126.222656 C 137.234375 126.222656 135.390625 128.285156 135.390625 130.785156 C 135.390625 133.441406 137.484375 135.378906 139.765625 135.378906 C 142.203125 135.378906 143.109375 133.160156 143.109375 132.785156 C 143.109375 132.597656 142.953125 132.535156 142.828125 132.535156 C 142.671875 132.535156 142.609375 132.660156 142.578125 132.816406 C 141.890625 134.878906 140.078125 134.878906 139.890625 134.878906 C 138.890625 134.878906 138.109375 134.285156 137.640625 133.535156 C 137.046875 132.597656 137.046875 131.285156 137.046875 130.566406 Z M 137.046875 130.566406 "/>
<path style=" stroke:none;fill-rule:nonzero;fill:rgb(0%,0%,0%);fill-opacity:1;" d="M 145.902344 130.128906 C 146.027344 127.160156 147.714844 126.660156 148.402344 126.660156 C 150.433594 126.660156 150.652344 129.347656 150.652344 130.128906 Z M 145.902344 130.566406 L 151.464844 130.566406 C 151.902344 130.566406 151.964844 130.566406 151.964844 130.128906 C 151.964844 128.160156 150.871094 126.222656 148.402344 126.222656 C 146.089844 126.222656 144.246094 128.285156 144.246094 130.785156 C 144.246094 133.441406 146.339844 135.378906 148.621094 135.378906 C 151.058594 135.378906 151.964844 133.160156 151.964844 132.785156 C 151.964844 132.597656 151.808594 132.535156 151.683594 132.535156 C 151.527344 132.535156 151.464844 132.660156 151.433594 132.816406 C 150.746094 134.878906 148.933594 134.878906 148.746094 134.878906 C 147.746094 134.878906 146.964844 134.285156 146.496094 133.535156 C 145.902344 132.597656 145.902344 131.285156 145.902344 130.566406 Z M 145.902344 130.566406 "/>
<path style=" stroke:none;fill-rule:nonzero;fill:rgb(0%,0%,0%);fill-opacity:1;" d="M 154.757812 130.128906 C 154.882812 127.160156 156.570312 126.660156 157.257812 126.660156 C 159.289062 126.660156 159.507812 129.347656 159.507812 130.128906 Z M 154.757812 130.566406 L 160.320312 130.566406 C 160.757812 130.566406 160.820312 130.566406 160.820312 130.128906 C 160.820312 128.160156 159.726562 126.222656 157.257812 126.222656 C 154.945312 126.222656 153.101562 128.285156 153.101562 130.785156 C 153.101562 133.441406 155.195312 135.378906 157.476562 135.378906 C 159.914062 135.378906 160.820312 133.160156 160.820312 132.785156 C 160.820312 132.597656 160.664062 132.535156 160.539062 132.535156 C 160.382812 132.535156 160.320312 132.660156 160.289062 132.816406 C 159.601562 134.878906 157.789062 134.878906 157.601562 134.878906 C 156.601562 134.878906 155.820312 134.285156 155.351562 133.535156 C 154.757812 132.597656 154.757812 131.285156 154.757812 130.566406 Z M 154.757812 130.566406 "/>
<path style=" stroke:none;fill-rule:nonzero;fill:rgb(0%,0%,0%);fill-opacity:1;" d="M 163.613281 130.128906 C 163.738281 127.160156 165.425781 126.660156 166.113281 126.660156 C 168.144531 126.660156 168.363281 129.347656 168.363281 130.128906 Z M 163.613281 130.566406 L 169.175781 130.566406 C 169.613281 130.566406 169.675781 130.566406 169.675781 130.128906 C 169.675781 128.160156 168.582031 126.222656 166.113281 126.222656 C 163.800781 126.222656 161.957031 128.285156 161.957031 130.785156 C 161.957031 133.441406 164.050781 135.378906 166.332031 135.378906 C 168.769531 135.378906 169.675781 133.160156 169.675781 132.785156 C 169.675781 132.597656 169.519531 132.535156 169.394531 132.535156 C 169.238281 132.535156 169.175781 132.660156 169.144531 132.816406 C 168.457031 134.878906 166.644531 134.878906 166.457031 134.878906 C 165.457031 134.878906 164.675781 134.285156 164.207031 133.535156 C 163.613281 132.597656 163.613281 131.285156 163.613281 130.566406 Z M 163.613281 130.566406 "/>
<path style=" stroke:none;fill-rule:nonzero;fill:rgb(0%,0%,0%);fill-opacity:1;" d="M 172.464844 130.128906 C 172.589844 127.160156 174.277344 126.660156 174.964844 126.660156 C 176.996094 126.660156 177.214844 129.347656 177.214844 130.128906 Z M 172.464844 130.566406 L 178.027344 130.566406 C 178.464844 130.566406 178.527344 130.566406 178.527344 130.128906 C 178.527344 128.160156 177.433594 126.222656 174.964844 126.222656 C 172.652344 126.222656 170.808594 128.285156 170.808594 130.785156 C 170.808594 133.441406 172.902344 135.378906 175.183594 135.378906 C 177.621094 135.378906 178.527344 133.160156 178.527344 132.785156 C 178.527344 132.597656 178.371094 132.535156 178.246094 132.535156 C 178.089844 132.535156 178.027344 132.660156 177.996094 132.816406 C 177.308594 134.878906 175.496094 134.878906 175.308594 134.878906 C 174.308594 134.878906 173.527344 134.285156 173.058594 133.535156 C 172.464844 132.597656 172.464844 131.285156 172.464844 130.566406 Z M 172.464844 130.566406 "/>
<path style="fill:none;stroke-width:0.566929;stroke-linecap:butt;stroke-linejoin:miter;stroke:rgb(100%,0%,0%);stroke-opacity:0.5;stroke-miterlimit:10;" d="M 86.787294 59.526682 L 92.457216 53.858714 " transform="matrix(2,0,0,2,5.952756,6.169291)"/>
<path style="fill:none;stroke-width:0.566929;stroke-linecap:butt;stroke-linejoin:miter;stroke:rgb(100%,0%,0%);stroke-opacity:0.5;stroke-miterlimit:10;" d="M 92.457216 59.526682 L 86.787294 53.858714 " transform="matrix(2,0,0,2,5.952756,6.169291)"/>
<path style="fill:none;stroke-width:0.566929;stroke-linecap:butt;stroke-linejoin:miter;stroke:rgb(100%,0%,0%);stroke-opacity:0.5;stroke-miterlimit:10;" d="M 89.623231 85.038401 L 89.623231 56.692698 Z M 89.623231 85.038401 " transform="matrix(2,0,0,2,5.952756,6.169291)"/>
</g>
</svg>
