<?xml version="1.0" encoding="UTF-8"?>
<svg xmlns="http://www.w3.org/2000/svg" xmlns:xlink="http://www.w3.org/1999/xlink" width="409.121069pt" height="360.033944pt" viewBox="0 0 409.121069 360.033944" version="1.1">
<g id="surface73">
<path style="fill:none;stroke-width:0.566929;stroke-linecap:butt;stroke-linejoin:miter;stroke:rgb(100%,0%,0%);stroke-opacity:0.5;stroke-miterlimit:10;" d="M -2.834646 2.834169 L 2.835276 -2.8338 " transform="matrix(2,0,0,2,6.169291,5.952756)"/>
<path style="fill:none;stroke-width:0.566929;stroke-linecap:butt;stroke-linejoin:miter;stroke:rgb(100%,0%,0%);stroke-opacity:0.5;stroke-miterlimit:10;" d="M 2.835276 2.834169 L -2.834646 -2.8338 " transform="matrix(2,0,0,2,6.169291,5.952756)"/>
<path style="fill-rule:nonzero;fill:rgb(50%,50%,0%);fill-opacity:0.1;stroke-width:0.566929;stroke-linecap:butt;stroke-linejoin:miter;stroke:rgb(100%,0%,0%);stroke-opacity:0.5;stroke-miterlimit:10;" d="M -0.000661294 176.7912 L 201.225901 176.7912 L 201.225901 0.000184547 L -0.000661294 0.000184547 Z M -0.000661294 176.7912 " transform="matrix(2,0,0,2,6.169291,5.952756)"/>
<path style="fill:none;stroke-width:0.566929;stroke-linecap:butt;stroke-linejoin:miter;stroke:rgb(100%,0%,0%);stroke-opacity:0.5;stroke-miterlimit:10;" d="M -2.834646 58.472841 L 2.835276 52.804872 " transform="matrix(2,0,0,2,6.169291,5.952756)"/>
<path style="fill:none;stroke-width:0.566929;stroke-linecap:butt;stroke-linejoin:miter;stroke:rgb(100%,0%,0%);stroke-opacity:0.5;stroke-miterlimit:10;" d="M 2.835276 58.472841 L -2.834646 52.804872 " transform="matrix(2,0,0,2,6.169291,5.952756)"/>
<path style="fill-rule:nonzero;fill:rgb(50%,50%,0%);fill-opacity:0.1;stroke-width:0.566929;stroke-linecap:butt;stroke-linejoin:miter;stroke:rgb(100%,0%,0%);stroke-opacity:0.5;stroke-miterlimit:10;" d="M -0.000661294 74.757997 L 138.823557 74.757997 L 138.823557 0.000184547 L -0.000661294 0.000184547 Z M -0.000661294 74.757997 " transform="matrix(2,0,0,2,6.169291,5.952756)"/>
<path style="fill:none;stroke-width:0.566929;stroke-linecap:butt;stroke-linejoin:miter;stroke:rgb(100%,0%,0%);stroke-opacity:0.5;stroke-miterlimit:10;" d="M 18.266917 58.472841 L 23.936839 52.804872 " transform="matrix(2,0,0,2,6.169291,5.952756)"/>
<path style="fill:none;stroke-width:0.566929;stroke-linecap:butt;stroke-linejoin:miter;stroke:rgb(100%,0%,0%);stroke-opacity:0.5;stroke-miterlimit:10;" d="M 23.936839 58.472841 L 18.266917 52.804872 " transform="matrix(2,0,0,2,6.169291,5.952756)"/>
<path style="fill-rule:nonzero;fill:rgb(50%,50%,0%);fill-opacity:0.1;stroke-width:0.566929;stroke-linecap:butt;stroke-linejoin:miter;stroke:rgb(100%,0%,0%);stroke-opacity:0.5;stroke-miterlimit:10;" d="M -0.000661294 69.279481 L 36.514964 69.279481 L 36.514964 13.70331 L -0.000661294 13.70331 Z M -0.000661294 69.279481 " transform="matrix(2,0,0,2,6.169291,5.952756)"/>
<path style="fill:none;stroke-width:0.566929;stroke-linecap:butt;stroke-linejoin:miter;stroke:rgb(100%,0%,0%);stroke-opacity:0.5;stroke-miterlimit:10;" d="M 66.528636 58.472841 L 72.198557 52.804872 " transform="matrix(2,0,0,2,6.169291,5.952756)"/>
<path style="fill:none;stroke-width:0.566929;stroke-linecap:butt;stroke-linejoin:miter;stroke:rgb(100%,0%,0%);stroke-opacity:0.5;stroke-miterlimit:10;" d="M 72.198557 58.472841 L 66.528636 52.804872 " transform="matrix(2,0,0,2,6.169291,5.952756)"/>
<path style="fill-rule:nonzero;fill:rgb(50%,50%,0%);fill-opacity:0.1;stroke-width:0.566929;stroke-linecap:butt;stroke-linejoin:miter;stroke:rgb(100%,0%,0%);stroke-opacity:0.5;stroke-miterlimit:10;" d="M 36.514964 74.757997 L 112.725901 74.757997 L 112.725901 0.000184547 L 36.514964 0.000184547 Z M 36.514964 74.757997 " transform="matrix(2,0,0,2,6.169291,5.952756)"/>
<path style="fill:none;stroke-width:0.566929;stroke-linecap:butt;stroke-linejoin:miter;stroke:rgb(100%,0%,0%);stroke-opacity:0.5;stroke-miterlimit:10;" d="M 109.891917 58.472841 L 115.561839 52.804872 " transform="matrix(2,0,0,2,6.169291,5.952756)"/>
<path style="fill:none;stroke-width:0.566929;stroke-linecap:butt;stroke-linejoin:miter;stroke:rgb(100%,0%,0%);stroke-opacity:0.5;stroke-miterlimit:10;" d="M 115.561839 58.472841 L 109.891917 52.804872 " transform="matrix(2,0,0,2,6.169291,5.952756)"/>
<path style="fill-rule:nonzero;fill:rgb(50%,50%,0%);fill-opacity:0.1;stroke-width:0.566929;stroke-linecap:butt;stroke-linejoin:miter;stroke:rgb(100%,0%,0%);stroke-opacity:0.5;stroke-miterlimit:10;" d="M 112.725901 56.959169 L 138.823557 56.959169 L 138.823557 47.498231 L 112.725901 47.498231 Z M 112.725901 56.959169 " transform="matrix(2,0,0,2,6.169291,5.952756)"/>
<path style=" stroke:none;fill-rule:nonzero;fill:rgb(0%,0%,0%);fill-opacity:1;" d="M 244.183594 104.167969 C 244.183594 103.449219 244.214844 103.230469 245.746094 103.230469 L 246.246094 103.230469 L 246.246094 102.605469 C 245.527344 102.667969 244.058594 102.667969 243.308594 102.667969 C 242.558594 102.667969 241.058594 102.667969 240.371094 102.605469 L 240.371094 103.230469 L 240.839844 103.230469 C 242.371094 103.230469 242.402344 103.449219 242.402344 104.167969 L 242.402344 108.824219 L 236.464844 108.824219 L 236.464844 104.167969 C 236.464844 103.449219 236.496094 103.230469 238.027344 103.230469 L 238.496094 103.230469 L 238.496094 102.605469 C 237.808594 102.667969 236.339844 102.667969 235.558594 102.667969 C 234.808594 102.667969 233.308594 102.667969 232.621094 102.605469 L 232.621094 103.230469 L 233.089844 103.230469 C 234.621094 103.230469 234.683594 103.449219 234.683594 104.167969 L 234.683594 114.667969 C 234.683594 115.386719 234.621094 115.605469 233.089844 115.605469 L 232.621094 115.605469 L 232.621094 116.230469 C 233.308594 116.167969 234.808594 116.167969 235.558594 116.167969 C 236.308594 116.167969 237.808594 116.167969 238.496094 116.230469 L 238.496094 115.605469 L 238.027344 115.605469 C 236.496094 115.605469 236.464844 115.386719 236.464844 114.667969 L 236.464844 109.449219 L 242.402344 109.449219 L 242.402344 114.667969 C 242.402344 115.386719 242.371094 115.605469 240.839844 115.605469 L 240.371094 115.605469 L 240.371094 116.230469 C 241.058594 116.167969 242.527344 116.167969 243.277344 116.167969 C 244.058594 116.167969 245.527344 116.167969 246.246094 116.230469 L 246.246094 115.605469 L 245.746094 115.605469 C 244.214844 115.605469 244.183594 115.386719 244.183594 114.667969 Z M 244.183594 104.167969 "/>
<path style=" stroke:none;fill-rule:nonzero;fill:rgb(0%,0%,0%);fill-opacity:1;" d="M 250.441406 107.417969 L 247.660156 107.636719 L 247.660156 108.261719 C 248.941406 108.261719 249.128906 108.386719 249.128906 109.355469 L 249.128906 114.730469 C 249.128906 115.605469 248.910156 115.605469 247.566406 115.605469 L 247.566406 116.230469 C 248.191406 116.199219 249.285156 116.167969 249.753906 116.167969 C 250.472656 116.167969 251.160156 116.199219 251.847656 116.230469 L 251.847656 115.605469 C 250.503906 115.605469 250.441406 115.511719 250.441406 114.730469 Z M 250.503906 103.949219 C 250.503906 103.324219 250.035156 102.886719 249.472656 102.886719 C 248.847656 102.886719 248.410156 103.417969 248.410156 103.949219 C 248.410156 104.480469 248.847656 105.011719 249.472656 105.011719 C 250.035156 105.011719 250.503906 104.574219 250.503906 103.949219 Z M 250.503906 103.949219 "/>
<path style=" stroke:none;fill-rule:nonzero;fill:rgb(0%,0%,0%);fill-opacity:1;" d="M 256.882812 112.792969 C 255.132812 112.792969 255.132812 110.792969 255.132812 110.355469 C 255.132812 109.824219 255.164062 109.167969 255.445312 108.667969 C 255.601562 108.449219 256.070312 107.886719 256.882812 107.886719 C 258.601562 107.886719 258.601562 109.855469 258.601562 110.324219 C 258.601562 110.855469 258.601562 111.511719 258.289062 112.011719 C 258.132812 112.230469 257.664062 112.792969 256.882812 112.792969 Z M 254.570312 113.574219 C 254.570312 113.511719 254.570312 113.042969 254.882812 112.636719 C 255.664062 113.199219 256.507812 113.261719 256.882812 113.261719 C 258.726562 113.261719 260.101562 111.886719 260.101562 110.355469 C 260.101562 109.605469 259.789062 108.886719 259.289062 108.417969 C 260.007812 107.730469 260.726562 107.636719 261.070312 107.636719 C 261.132812 107.636719 261.226562 107.636719 261.289062 107.667969 C 261.070312 107.730469 260.945312 107.949219 260.945312 108.199219 C 260.945312 108.542969 261.226562 108.761719 261.539062 108.761719 C 261.726562 108.761719 262.101562 108.636719 262.101562 108.167969 C 262.101562 107.824219 261.882812 107.199219 261.101562 107.199219 C 260.695312 107.199219 259.820312 107.324219 258.976562 108.136719 C 258.132812 107.480469 257.320312 107.417969 256.882812 107.417969 C 255.007812 107.417969 253.632812 108.792969 253.632812 110.324219 C 253.632812 111.199219 254.070312 111.949219 254.570312 112.386719 C 254.320312 112.667969 253.945312 113.324219 253.945312 114.042969 C 253.945312 114.667969 254.226562 115.417969 254.851562 115.824219 C 253.632812 116.136719 253.007812 117.011719 253.007812 117.792969 C 253.007812 119.230469 254.976562 120.324219 257.414062 120.324219 C 259.757812 120.324219 261.820312 119.324219 261.820312 117.761719 C 261.820312 117.074219 261.570312 116.042969 260.539062 115.480469 C 259.476562 114.949219 258.320312 114.949219 257.101562 114.949219 C 256.601562 114.949219 255.757812 114.949219 255.601562 114.917969 C 254.976562 114.824219 254.570312 114.230469 254.570312 113.574219 Z M 257.445312 119.886719 C 255.414062 119.886719 254.039062 118.855469 254.039062 117.792969 C 254.039062 116.886719 254.789062 116.136719 255.664062 116.105469 L 256.851562 116.105469 C 258.570312 116.105469 260.789062 116.105469 260.789062 117.792969 C 260.789062 118.886719 259.382812 119.886719 257.445312 119.886719 Z M 257.445312 119.886719 "/>
<path style=" stroke:none;fill-rule:nonzero;fill:rgb(0%,0%,0%);fill-opacity:1;" d="M 271.5625 109.855469 C 271.5625 108.261719 271.46875 106.667969 270.78125 105.199219 C 269.875 103.261719 268.21875 102.949219 267.40625 102.949219 C 266.1875 102.949219 264.75 103.480469 263.90625 105.324219 C 263.28125 106.699219 263.1875 108.261719 263.1875 109.855469 C 263.1875 111.355469 263.25 113.136719 264.09375 114.667969 C 264.9375 116.261719 266.40625 116.667969 267.375 116.667969 C 268.4375 116.667969 269.96875 116.261719 270.84375 114.355469 C 271.46875 112.980469 271.5625 111.417969 271.5625 109.855469 Z M 267.375 116.230469 C 266.59375 116.230469 265.40625 115.730469 265.0625 113.824219 C 264.84375 112.636719 264.84375 110.792969 264.84375 109.605469 C 264.84375 108.324219 264.84375 107.011719 265 105.949219 C 265.375 103.574219 266.875 103.386719 267.375 103.386719 C 268.03125 103.386719 269.34375 103.761719 269.71875 105.730469 C 269.9375 106.855469 269.9375 108.355469 269.9375 109.605469 C 269.9375 111.105469 269.9375 112.449219 269.71875 113.730469 C 269.40625 115.636719 268.28125 116.230469 267.375 116.230469 Z M 267.375 116.230469 "/>
<path style=" stroke:none;fill-rule:nonzero;fill:rgb(0%,0%,0%);fill-opacity:1;" d="M 282.066406 112.074219 L 282.816406 102.980469 C 282.816406 102.324219 282.285156 101.949219 281.785156 101.949219 C 281.253906 101.949219 280.722656 102.324219 280.722656 102.980469 L 281.503906 112.042969 C 281.503906 112.355469 281.535156 112.511719 281.785156 112.511719 C 281.972656 112.511719 282.035156 112.417969 282.066406 112.074219 Z M 282.816406 115.167969 C 282.816406 114.605469 282.347656 114.105469 281.785156 114.105469 C 281.191406 114.105469 280.722656 114.605469 280.722656 115.167969 C 280.722656 115.761719 281.191406 116.230469 281.785156 116.230469 C 282.347656 116.230469 282.816406 115.761719 282.816406 115.167969 Z M 282.816406 115.167969 "/>
<path style="fill:none;stroke-width:0.566929;stroke-linecap:butt;stroke-linejoin:miter;stroke:rgb(100%,0%,0%);stroke-opacity:0.5;stroke-miterlimit:10;" d="M -2.834646 129.742372 L 2.835276 124.07245 " transform="matrix(2,0,0,2,6.169291,5.952756)"/>
<path style="fill:none;stroke-width:0.566929;stroke-linecap:butt;stroke-linejoin:miter;stroke:rgb(100%,0%,0%);stroke-opacity:0.5;stroke-miterlimit:10;" d="M 2.835276 129.742372 L -2.834646 124.07245 " transform="matrix(2,0,0,2,6.169291,5.952756)"/>
<path style="fill-rule:nonzero;fill:rgb(50%,50%,0%);fill-opacity:0.1;stroke-width:0.566929;stroke-linecap:butt;stroke-linejoin:miter;stroke:rgb(100%,0%,0%);stroke-opacity:0.5;stroke-miterlimit:10;" d="M -0.000661294 176.7912 L 201.225901 176.7912 L 201.225901 74.757997 L -0.000661294 74.757997 Z M -0.000661294 176.7912 " transform="matrix(2,0,0,2,6.169291,5.952756)"/>
<path style="fill:none;stroke-width:0.566929;stroke-linecap:butt;stroke-linejoin:miter;stroke:rgb(100%,0%,0%);stroke-opacity:0.5;stroke-miterlimit:10;" d="M 44.075511 129.742372 L 49.745432 124.07245 " transform="matrix(2,0,0,2,6.169291,5.952756)"/>
<path style="fill:none;stroke-width:0.566929;stroke-linecap:butt;stroke-linejoin:miter;stroke:rgb(100%,0%,0%);stroke-opacity:0.5;stroke-miterlimit:10;" d="M 49.745432 129.742372 L 44.075511 124.07245 " transform="matrix(2,0,0,2,6.169291,5.952756)"/>
<path style="fill-rule:nonzero;fill:rgb(50%,50%,0%);fill-opacity:0.1;stroke-width:0.566929;stroke-linecap:butt;stroke-linejoin:miter;stroke:rgb(100%,0%,0%);stroke-opacity:0.5;stroke-miterlimit:10;" d="M -0.000661294 176.7912 L 89.339182 176.7912 L 89.339182 74.757997 L -0.000661294 74.757997 Z M -0.000661294 176.7912 " transform="matrix(2,0,0,2,6.169291,5.952756)"/>
<path style="fill:none;stroke-width:0.566929;stroke-linecap:butt;stroke-linejoin:miter;stroke:rgb(100%,0%,0%);stroke-opacity:0.5;stroke-miterlimit:10;" d="M 123.532542 129.742372 L 129.202464 124.07245 " transform="matrix(2,0,0,2,6.169291,5.952756)"/>
<path style="fill:none;stroke-width:0.566929;stroke-linecap:butt;stroke-linejoin:miter;stroke:rgb(100%,0%,0%);stroke-opacity:0.5;stroke-miterlimit:10;" d="M 129.202464 129.742372 L 123.532542 124.07245 " transform="matrix(2,0,0,2,6.169291,5.952756)"/>
<path style="fill-rule:nonzero;fill:rgb(50%,50%,0%);fill-opacity:0.1;stroke-width:0.566929;stroke-linecap:butt;stroke-linejoin:miter;stroke:rgb(100%,0%,0%);stroke-opacity:0.5;stroke-miterlimit:10;" d="M 89.339182 137.752138 L 175.128245 137.752138 L 175.128245 86.8537 L 89.339182 86.8537 Z M 89.339182 137.752138 " transform="matrix(2,0,0,2,6.169291,5.952756)"/>
<path style="fill:none;stroke-width:0.566929;stroke-linecap:butt;stroke-linejoin:miter;stroke:rgb(100%,0%,0%);stroke-opacity:0.5;stroke-miterlimit:10;" d="M 172.294261 129.742372 L 177.962229 124.07245 " transform="matrix(2,0,0,2,6.169291,5.952756)"/>
<path style="fill:none;stroke-width:0.566929;stroke-linecap:butt;stroke-linejoin:miter;stroke:rgb(100%,0%,0%);stroke-opacity:0.5;stroke-miterlimit:10;" d="M 177.962229 129.742372 L 172.294261 124.07245 " transform="matrix(2,0,0,2,6.169291,5.952756)"/>
<path style="fill-rule:nonzero;fill:rgb(50%,50%,0%);fill-opacity:0.1;stroke-width:0.566929;stroke-linecap:butt;stroke-linejoin:miter;stroke:rgb(100%,0%,0%);stroke-opacity:0.5;stroke-miterlimit:10;" d="M 175.128245 127.881044 L 201.225901 127.881044 L 201.225901 118.767763 L 175.128245 118.767763 Z M 175.128245 127.881044 " transform="matrix(2,0,0,2,6.169291,5.952756)"/>
<path style=" stroke:none;fill-rule:nonzero;fill:rgb(0%,0%,0%);fill-opacity:1;" d="M 368.988281 246.707031 C 368.988281 245.988281 369.019531 245.769531 370.550781 245.769531 L 371.050781 245.769531 L 371.050781 245.144531 C 370.332031 245.207031 368.863281 245.207031 368.113281 245.207031 C 367.363281 245.207031 365.863281 245.207031 365.175781 245.144531 L 365.175781 245.769531 L 365.644531 245.769531 C 367.175781 245.769531 367.207031 245.988281 367.207031 246.707031 L 367.207031 251.363281 L 361.269531 251.363281 L 361.269531 246.707031 C 361.269531 245.988281 361.300781 245.769531 362.832031 245.769531 L 363.300781 245.769531 L 363.300781 245.144531 C 362.613281 245.207031 361.144531 245.207031 360.363281 245.207031 C 359.613281 245.207031 358.113281 245.207031 357.425781 245.144531 L 357.425781 245.769531 L 357.894531 245.769531 C 359.425781 245.769531 359.488281 245.988281 359.488281 246.707031 L 359.488281 257.207031 C 359.488281 257.925781 359.425781 258.144531 357.894531 258.144531 L 357.425781 258.144531 L 357.425781 258.769531 C 358.113281 258.707031 359.613281 258.707031 360.363281 258.707031 C 361.113281 258.707031 362.613281 258.707031 363.300781 258.769531 L 363.300781 258.144531 L 362.832031 258.144531 C 361.300781 258.144531 361.269531 257.925781 361.269531 257.207031 L 361.269531 251.988281 L 367.207031 251.988281 L 367.207031 257.207031 C 367.207031 257.925781 367.175781 258.144531 365.644531 258.144531 L 365.175781 258.144531 L 365.175781 258.769531 C 365.863281 258.707031 367.332031 258.707031 368.082031 258.707031 C 368.863281 258.707031 370.332031 258.707031 371.050781 258.769531 L 371.050781 258.144531 L 370.550781 258.144531 C 369.019531 258.144531 368.988281 257.925781 368.988281 257.207031 Z M 368.988281 246.707031 "/>
<path style=" stroke:none;fill-rule:nonzero;fill:rgb(0%,0%,0%);fill-opacity:1;" d="M 375.246094 249.957031 L 372.464844 250.175781 L 372.464844 250.800781 C 373.746094 250.800781 373.933594 250.925781 373.933594 251.894531 L 373.933594 257.269531 C 373.933594 258.144531 373.714844 258.144531 372.371094 258.144531 L 372.371094 258.769531 C 372.996094 258.738281 374.089844 258.707031 374.558594 258.707031 C 375.277344 258.707031 375.964844 258.738281 376.652344 258.769531 L 376.652344 258.144531 C 375.308594 258.144531 375.246094 258.050781 375.246094 257.269531 Z M 375.308594 246.488281 C 375.308594 245.863281 374.839844 245.425781 374.277344 245.425781 C 373.652344 245.425781 373.214844 245.957031 373.214844 246.488281 C 373.214844 247.019531 373.652344 247.550781 374.277344 247.550781 C 374.839844 247.550781 375.308594 247.113281 375.308594 246.488281 Z M 375.308594 246.488281 "/>
<path style=" stroke:none;fill-rule:nonzero;fill:rgb(0%,0%,0%);fill-opacity:1;" d="M 381.6875 255.332031 C 379.9375 255.332031 379.9375 253.332031 379.9375 252.894531 C 379.9375 252.363281 379.96875 251.707031 380.25 251.207031 C 380.40625 250.988281 380.875 250.425781 381.6875 250.425781 C 383.40625 250.425781 383.40625 252.394531 383.40625 252.863281 C 383.40625 253.394531 383.40625 254.050781 383.09375 254.550781 C 382.9375 254.769531 382.46875 255.332031 381.6875 255.332031 Z M 379.375 256.113281 C 379.375 256.050781 379.375 255.582031 379.6875 255.175781 C 380.46875 255.738281 381.3125 255.800781 381.6875 255.800781 C 383.53125 255.800781 384.90625 254.425781 384.90625 252.894531 C 384.90625 252.144531 384.59375 251.425781 384.09375 250.957031 C 384.8125 250.269531 385.53125 250.175781 385.875 250.175781 C 385.9375 250.175781 386.03125 250.175781 386.09375 250.207031 C 385.875 250.269531 385.75 250.488281 385.75 250.738281 C 385.75 251.082031 386.03125 251.300781 386.34375 251.300781 C 386.53125 251.300781 386.90625 251.175781 386.90625 250.707031 C 386.90625 250.363281 386.6875 249.738281 385.90625 249.738281 C 385.5 249.738281 384.625 249.863281 383.78125 250.675781 C 382.9375 250.019531 382.125 249.957031 381.6875 249.957031 C 379.8125 249.957031 378.4375 251.332031 378.4375 252.863281 C 378.4375 253.738281 378.875 254.488281 379.375 254.925781 C 379.125 255.207031 378.75 255.863281 378.75 256.582031 C 378.75 257.207031 379.03125 257.957031 379.65625 258.363281 C 378.4375 258.675781 377.8125 259.550781 377.8125 260.332031 C 377.8125 261.769531 379.78125 262.863281 382.21875 262.863281 C 384.5625 262.863281 386.625 261.863281 386.625 260.300781 C 386.625 259.613281 386.375 258.582031 385.34375 258.019531 C 384.28125 257.488281 383.125 257.488281 381.90625 257.488281 C 381.40625 257.488281 380.5625 257.488281 380.40625 257.457031 C 379.78125 257.363281 379.375 256.769531 379.375 256.113281 Z M 382.25 262.425781 C 380.21875 262.425781 378.84375 261.394531 378.84375 260.332031 C 378.84375 259.425781 379.59375 258.675781 380.46875 258.644531 L 381.65625 258.644531 C 383.375 258.644531 385.59375 258.644531 385.59375 260.332031 C 385.59375 261.425781 384.1875 262.425781 382.25 262.425781 Z M 382.25 262.425781 "/>
<path style=" stroke:none;fill-rule:nonzero;fill:rgb(0%,0%,0%);fill-opacity:1;" d="M 393.085938 246.019531 C 393.085938 245.519531 393.085938 245.488281 392.617188 245.488281 C 391.367188 246.769531 389.617188 246.769531 388.992188 246.769531 L 388.992188 247.394531 C 389.398438 247.394531 390.554688 247.394531 391.585938 246.863281 L 391.585938 257.207031 C 391.585938 257.925781 391.523438 258.144531 389.742188 258.144531 L 389.117188 258.144531 L 389.117188 258.769531 C 389.804688 258.707031 391.523438 258.707031 392.335938 258.707031 C 393.117188 258.707031 394.867188 258.707031 395.554688 258.769531 L 395.554688 258.144531 L 394.929688 258.144531 C 393.117188 258.144531 393.085938 257.925781 393.085938 257.207031 Z M 393.085938 246.019531 "/>
<path style=" stroke:none;fill-rule:nonzero;fill:rgb(0%,0%,0%);fill-opacity:1;" d="M 406.871094 254.613281 L 407.621094 245.519531 C 407.621094 244.863281 407.089844 244.488281 406.589844 244.488281 C 406.058594 244.488281 405.527344 244.863281 405.527344 245.519531 L 406.308594 254.582031 C 406.308594 254.894531 406.339844 255.050781 406.589844 255.050781 C 406.777344 255.050781 406.839844 254.957031 406.871094 254.613281 Z M 407.621094 257.707031 C 407.621094 257.144531 407.152344 256.644531 406.589844 256.644531 C 405.996094 256.644531 405.527344 257.144531 405.527344 257.707031 C 405.527344 258.300781 405.996094 258.769531 406.589844 258.769531 C 407.152344 258.769531 407.621094 258.300781 407.621094 257.707031 Z M 407.621094 257.707031 "/>
</g>
</svg>
