<?xml version="1.0" encoding="UTF-8"?>
<svg xmlns="http://www.w3.org/2000/svg" xmlns:xlink="http://www.w3.org/1999/xlink" width="96.676312pt" height="22.234006pt" viewBox="0 0 96.676312 22.234006" version="1.1">
<g id="surface41">
<path style="fill:none;stroke-width:0.566929;stroke-linecap:butt;stroke-linejoin:miter;stroke:rgb(100%,0%,0%);stroke-opacity:0.5;stroke-miterlimit:10;" d="M -2.8338 2.83483 L 2.834169 -2.835092 " transform="matrix(2,0,0,2,5.952756,16.564715)"/>
<path style="fill:none;stroke-width:0.566929;stroke-linecap:butt;stroke-linejoin:miter;stroke:rgb(100%,0%,0%);stroke-opacity:0.5;stroke-miterlimit:10;" d="M 2.834169 2.83483 L -2.8338 -2.835092 " transform="matrix(2,0,0,2,5.952756,16.564715)"/>
<path style="fill-rule:nonzero;fill:rgb(50%,50%,0%);fill-opacity:0.1;stroke-width:0.566929;stroke-linecap:butt;stroke-linejoin:miter;stroke:rgb(100%,0%,0%);stroke-opacity:0.5;stroke-miterlimit:10;" d="M 0.000184547 2.047721 L 45.220888 2.047721 L 45.220888 -8.139779 L 0.000184547 -8.139779 Z M 0.000184547 2.047721 " transform="matrix(2,0,0,2,5.952756,16.564715)"/>
<path style=" stroke:none;fill-rule:nonzero;fill:rgb(0%,0%,0%);fill-opacity:1;" d="M 18.515625 3.503906 C 18.515625 2.785156 18.546875 2.566406 20.078125 2.566406 L 20.578125 2.566406 L 20.578125 1.941406 C 19.859375 2.003906 18.390625 2.003906 17.640625 2.003906 C 16.890625 2.003906 15.390625 2.003906 14.703125 1.941406 L 14.703125 2.566406 L 15.171875 2.566406 C 16.703125 2.566406 16.734375 2.785156 16.734375 3.503906 L 16.734375 8.160156 L 10.796875 8.160156 L 10.796875 3.503906 C 10.796875 2.785156 10.828125 2.566406 12.359375 2.566406 L 12.828125 2.566406 L 12.828125 1.941406 C 12.140625 2.003906 10.671875 2.003906 9.890625 2.003906 C 9.140625 2.003906 7.640625 2.003906 6.953125 1.941406 L 6.953125 2.566406 L 7.421875 2.566406 C 8.953125 2.566406 9.015625 2.785156 9.015625 3.503906 L 9.015625 14.003906 C 9.015625 14.722656 8.953125 14.941406 7.421875 14.941406 L 6.953125 14.941406 L 6.953125 15.566406 C 7.640625 15.503906 9.140625 15.503906 9.890625 15.503906 C 10.640625 15.503906 12.140625 15.503906 12.828125 15.566406 L 12.828125 14.941406 L 12.359375 14.941406 C 10.828125 14.941406 10.796875 14.722656 10.796875 14.003906 L 10.796875 8.785156 L 16.734375 8.785156 L 16.734375 14.003906 C 16.734375 14.722656 16.703125 14.941406 15.171875 14.941406 L 14.703125 14.941406 L 14.703125 15.566406 C 15.390625 15.503906 16.859375 15.503906 17.609375 15.503906 C 18.390625 15.503906 19.859375 15.503906 20.578125 15.566406 L 20.578125 14.941406 L 20.078125 14.941406 C 18.546875 14.941406 18.515625 14.722656 18.515625 14.003906 Z M 18.515625 3.503906 "/>
<path style=" stroke:none;fill-rule:nonzero;fill:rgb(0%,0%,0%);fill-opacity:1;" d="M 23.460938 10.535156 C 23.585938 7.566406 25.273438 7.066406 25.960938 7.066406 C 27.992188 7.066406 28.210938 9.753906 28.210938 10.535156 Z M 23.460938 10.972656 L 29.023438 10.972656 C 29.460938 10.972656 29.523438 10.972656 29.523438 10.535156 C 29.523438 8.566406 28.429688 6.628906 25.960938 6.628906 C 23.648438 6.628906 21.804688 8.691406 21.804688 11.191406 C 21.804688 13.847656 23.898438 15.785156 26.179688 15.785156 C 28.617188 15.785156 29.523438 13.566406 29.523438 13.191406 C 29.523438 13.003906 29.367188 12.941406 29.242188 12.941406 C 29.085938 12.941406 29.023438 13.066406 28.992188 13.222656 C 28.304688 15.285156 26.492188 15.285156 26.304688 15.285156 C 25.304688 15.285156 24.523438 14.691406 24.054688 13.941406 C 23.460938 13.003906 23.460938 11.691406 23.460938 10.972656 Z M 23.460938 10.972656 "/>
<path style=" stroke:none;fill-rule:nonzero;fill:rgb(0%,0%,0%);fill-opacity:1;" d="M 38.375 8.878906 C 38.875 7.597656 39.90625 7.597656 40.21875 7.597656 L 40.21875 6.972656 C 39.75 7.003906 39.1875 7.035156 38.71875 7.035156 C 38.375 7.035156 37.4375 7.003906 37 6.972656 L 37 7.597656 C 37.625 7.597656 37.9375 7.941406 37.9375 8.441406 C 37.9375 8.660156 37.90625 8.691406 37.8125 8.941406 L 35.78125 13.816406 L 33.59375 8.472656 C 33.5 8.253906 33.46875 8.191406 33.46875 8.097656 C 33.46875 7.597656 34.1875 7.597656 34.59375 7.597656 L 34.59375 6.972656 C 34.0625 7.003906 32.75 7.035156 32.40625 7.035156 C 31.875 7.035156 31.0625 7.003906 30.46875 6.972656 L 30.46875 7.597656 C 31.4375 7.597656 31.8125 7.597656 32.09375 8.285156 L 35.09375 15.566406 C 34.96875 15.816406 34.6875 16.472656 34.59375 16.753906 C 34.15625 17.847656 33.59375 19.222656 32.3125 19.222656 C 32.21875 19.222656 31.75 19.222656 31.375 18.847656 C 32 18.785156 32.15625 18.347656 32.15625 18.003906 C 32.15625 17.503906 31.78125 17.191406 31.3125 17.191406 C 30.90625 17.191406 30.46875 17.441406 30.46875 18.035156 C 30.46875 18.941406 31.3125 19.660156 32.3125 19.660156 C 33.5625 19.660156 34.375 18.503906 34.84375 17.378906 Z M 38.375 8.878906 "/>
<path style=" stroke:none;fill-rule:nonzero;fill:rgb(0%,0%,0%);fill-opacity:1;" d="M 50.683594 7.597656 L 53.558594 7.597656 L 53.558594 6.972656 L 50.683594 6.972656 L 50.683594 3.316406 L 50.183594 3.316406 C 50.183594 4.941406 49.589844 7.066406 47.621094 7.160156 L 47.621094 7.597656 L 49.308594 7.597656 L 49.308594 13.097656 C 49.308594 15.535156 51.183594 15.785156 51.902344 15.785156 C 53.308594 15.785156 53.871094 14.378906 53.871094 13.097656 L 53.871094 11.972656 L 53.371094 11.972656 L 53.371094 13.066406 C 53.371094 14.535156 52.777344 15.285156 52.027344 15.285156 C 50.683594 15.285156 50.683594 13.472656 50.683594 13.128906 Z M 50.683594 7.597656 "/>
<path style=" stroke:none;fill-rule:nonzero;fill:rgb(0%,0%,0%);fill-opacity:1;" d="M 57.183594 14.066406 C 57.183594 14.941406 56.964844 14.941406 55.621094 14.941406 L 55.621094 15.566406 C 56.339844 15.535156 57.339844 15.503906 57.902344 15.503906 C 58.402344 15.503906 59.433594 15.535156 60.121094 15.566406 L 60.121094 14.941406 C 58.777344 14.941406 58.558594 14.941406 58.558594 14.066406 L 58.558594 10.378906 C 58.558594 8.316406 59.996094 7.191406 61.246094 7.191406 C 62.527344 7.191406 62.746094 8.253906 62.746094 9.410156 L 62.746094 14.066406 C 62.746094 14.941406 62.527344 14.941406 61.183594 14.941406 L 61.183594 15.566406 C 61.871094 15.535156 62.902344 15.503906 63.433594 15.503906 C 63.933594 15.503906 64.996094 15.535156 65.652344 15.566406 L 65.652344 14.941406 C 64.621094 14.941406 64.121094 14.941406 64.121094 14.347656 L 64.121094 10.535156 C 64.121094 8.816406 64.121094 8.222656 63.496094 7.503906 C 63.214844 7.160156 62.558594 6.753906 61.402344 6.753906 C 59.714844 6.753906 58.839844 7.941406 58.496094 8.722656 L 58.496094 1.722656 L 55.621094 1.941406 L 55.621094 2.566406 C 57.027344 2.566406 57.183594 2.691406 57.183594 3.691406 Z M 57.183594 14.066406 "/>
<path style=" stroke:none;fill-rule:nonzero;fill:rgb(0%,0%,0%);fill-opacity:1;" d="M 68.285156 10.535156 C 68.410156 7.566406 70.097656 7.066406 70.785156 7.066406 C 72.816406 7.066406 73.035156 9.753906 73.035156 10.535156 Z M 68.285156 10.972656 L 73.847656 10.972656 C 74.285156 10.972656 74.347656 10.972656 74.347656 10.535156 C 74.347656 8.566406 73.253906 6.628906 70.785156 6.628906 C 68.472656 6.628906 66.628906 8.691406 66.628906 11.191406 C 66.628906 13.847656 68.722656 15.785156 71.003906 15.785156 C 73.441406 15.785156 74.347656 13.566406 74.347656 13.191406 C 74.347656 13.003906 74.191406 12.941406 74.066406 12.941406 C 73.910156 12.941406 73.847656 13.066406 73.816406 13.222656 C 73.128906 15.285156 71.316406 15.285156 71.128906 15.285156 C 70.128906 15.285156 69.347656 14.691406 68.878906 13.941406 C 68.285156 13.003906 68.285156 11.691406 68.285156 10.972656 Z M 68.285156 10.972656 "/>
<path style=" stroke:none;fill-rule:nonzero;fill:rgb(0%,0%,0%);fill-opacity:1;" d="M 78.265625 8.941406 L 78.265625 6.753906 L 75.484375 6.972656 L 75.484375 7.597656 C 76.890625 7.597656 77.046875 7.722656 77.046875 8.722656 L 77.046875 14.066406 C 77.046875 14.941406 76.828125 14.941406 75.484375 14.941406 L 75.484375 15.566406 C 76.265625 15.535156 77.203125 15.503906 77.765625 15.503906 C 78.546875 15.503906 79.484375 15.503906 80.296875 15.566406 L 80.296875 14.941406 L 79.859375 14.941406 C 78.390625 14.941406 78.359375 14.722656 78.359375 14.003906 L 78.359375 10.941406 C 78.359375 8.972656 79.203125 7.191406 80.703125 7.191406 C 80.828125 7.191406 80.890625 7.191406 80.921875 7.222656 C 80.859375 7.222656 80.453125 7.472656 80.453125 8.003906 C 80.453125 8.535156 80.890625 8.847656 81.328125 8.847656 C 81.671875 8.847656 82.171875 8.597656 82.171875 7.972656 C 82.171875 7.347656 81.546875 6.753906 80.703125 6.753906 C 79.234375 6.753906 78.515625 8.097656 78.265625 8.941406 Z M 78.265625 8.941406 "/>
<path style=" stroke:none;fill-rule:nonzero;fill:rgb(0%,0%,0%);fill-opacity:1;" d="M 84.945312 10.535156 C 85.070312 7.566406 86.757812 7.066406 87.445312 7.066406 C 89.476562 7.066406 89.695312 9.753906 89.695312 10.535156 Z M 84.945312 10.972656 L 90.507812 10.972656 C 90.945312 10.972656 91.007812 10.972656 91.007812 10.535156 C 91.007812 8.566406 89.914062 6.628906 87.445312 6.628906 C 85.132812 6.628906 83.289062 8.691406 83.289062 11.191406 C 83.289062 13.847656 85.382812 15.785156 87.664062 15.785156 C 90.101562 15.785156 91.007812 13.566406 91.007812 13.191406 C 91.007812 13.003906 90.851562 12.941406 90.726562 12.941406 C 90.570312 12.941406 90.507812 13.066406 90.476562 13.222656 C 89.789062 15.285156 87.976562 15.285156 87.789062 15.285156 C 86.789062 15.285156 86.007812 14.691406 85.539062 13.941406 C 84.945312 13.003906 84.945312 11.691406 84.945312 10.972656 Z M 84.945312 10.972656 "/>
<path style=" stroke:none;fill-rule:nonzero;fill:rgb(0%,0%,0%);fill-opacity:1;" d="M 94.644531 11.410156 L 95.394531 2.316406 C 95.394531 1.660156 94.863281 1.285156 94.363281 1.285156 C 93.832031 1.285156 93.300781 1.660156 93.300781 2.316406 L 94.082031 11.378906 C 94.082031 11.691406 94.113281 11.847656 94.363281 11.847656 C 94.550781 11.847656 94.613281 11.753906 94.644531 11.410156 Z M 95.394531 14.503906 C 95.394531 13.941406 94.925781 13.441406 94.363281 13.441406 C 93.769531 13.441406 93.300781 13.941406 93.300781 14.503906 C 93.300781 15.097656 93.769531 15.566406 94.363281 15.566406 C 94.925781 15.566406 95.394531 15.097656 95.394531 14.503906 Z M 95.394531 14.503906 "/>
</g>
</svg>
