<?xml version="1.0" encoding="UTF-8"?>
<svg xmlns="http://www.w3.org/2000/svg" xmlns:xlink="http://www.w3.org/1999/xlink" width="101pt" height="27pt" viewBox="0 0 101 27" version="1.1">
<g id="surface116">
<path style="fill:none;stroke-width:0.566929;stroke-linecap:butt;stroke-linejoin:miter;stroke:rgb(100%,0%,0%);stroke-opacity:0.5;stroke-miterlimit:10;" d="M -2.833984 2.833984 L 2.833984 -2.833984 " transform="matrix(2,0,0,2,8,19)"/>
<path style="fill:none;stroke-width:0.566929;stroke-linecap:butt;stroke-linejoin:miter;stroke:rgb(100%,0%,0%);stroke-opacity:0.5;stroke-miterlimit:10;" d="M 2.833984 2.833984 L -2.833984 -2.833984 " transform="matrix(2,0,0,2,8,19)"/>
<path style="fill-rule:nonzero;fill:rgb(50%,50%,0%);fill-opacity:0.1;stroke-width:0.566929;stroke-linecap:butt;stroke-linejoin:miter;stroke:rgb(100%,0%,0%);stroke-opacity:0.5;stroke-miterlimit:10;" d="M 0 2.046875 L 45.220703 2.046875 L 45.220703 -8.140625 L 0 -8.140625 Z M 0 2.046875 " transform="matrix(2,0,0,2,8,19)"/>
<path style=" stroke:none;fill-rule:nonzero;fill:rgb(0%,0%,0%);fill-opacity:1;" d="M 20.5625 5.9375 C 20.5625 5.21875 20.59375 5 22.125 5 L 22.625 5 L 22.625 4.375 C 21.90625 4.4375 20.4375 4.4375 19.6875 4.4375 C 18.9375 4.4375 17.4375 4.4375 16.75 4.375 L 16.75 5 L 17.21875 5 C 18.75 5 18.78125 5.21875 18.78125 5.9375 L 18.78125 10.59375 L 12.84375 10.59375 L 12.84375 5.9375 C 12.84375 5.21875 12.875 5 14.40625 5 L 14.875 5 L 14.875 4.375 C 14.1875 4.4375 12.71875 4.4375 11.9375 4.4375 C 11.1875 4.4375 9.6875 4.4375 9 4.375 L 9 5 L 9.46875 5 C 11 5 11.0625 5.21875 11.0625 5.9375 L 11.0625 16.4375 C 11.0625 17.15625 11 17.375 9.46875 17.375 L 9 17.375 L 9 18 C 9.6875 17.9375 11.1875 17.9375 11.9375 17.9375 C 12.6875 17.9375 14.1875 17.9375 14.875 18 L 14.875 17.375 L 14.40625 17.375 C 12.875 17.375 12.84375 17.15625 12.84375 16.4375 L 12.84375 11.21875 L 18.78125 11.21875 L 18.78125 16.4375 C 18.78125 17.15625 18.75 17.375 17.21875 17.375 L 16.75 17.375 L 16.75 18 C 17.4375 17.9375 18.90625 17.9375 19.65625 17.9375 C 20.4375 17.9375 21.90625 17.9375 22.625 18 L 22.625 17.375 L 22.125 17.375 C 20.59375 17.375 20.5625 17.15625 20.5625 16.4375 Z M 20.5625 5.9375 "/>
<path style=" stroke:none;fill-rule:nonzero;fill:rgb(0%,0%,0%);fill-opacity:1;" d="M 25.507812 12.96875 C 25.632812 10 27.320312 9.5 28.007812 9.5 C 30.039062 9.5 30.257812 12.1875 30.257812 12.96875 Z M 25.507812 13.40625 L 31.070312 13.40625 C 31.507812 13.40625 31.570312 13.40625 31.570312 12.96875 C 31.570312 11 30.476562 9.0625 28.007812 9.0625 C 25.695312 9.0625 23.851562 11.125 23.851562 13.625 C 23.851562 16.28125 25.945312 18.21875 28.226562 18.21875 C 30.664062 18.21875 31.570312 16 31.570312 15.625 C 31.570312 15.4375 31.414062 15.375 31.289062 15.375 C 31.132812 15.375 31.070312 15.5 31.039062 15.65625 C 30.351562 17.71875 28.539062 17.71875 28.351562 17.71875 C 27.351562 17.71875 26.570312 17.125 26.101562 16.375 C 25.507812 15.4375 25.507812 14.125 25.507812 13.40625 Z M 25.507812 13.40625 "/>
<path style=" stroke:none;fill-rule:nonzero;fill:rgb(0%,0%,0%);fill-opacity:1;" d="M 40.421875 11.3125 C 40.921875 10.03125 41.953125 10.03125 42.265625 10.03125 L 42.265625 9.40625 C 41.796875 9.4375 41.234375 9.46875 40.765625 9.46875 C 40.421875 9.46875 39.484375 9.4375 39.046875 9.40625 L 39.046875 10.03125 C 39.671875 10.03125 39.984375 10.375 39.984375 10.875 C 39.984375 11.09375 39.953125 11.125 39.859375 11.375 L 37.828125 16.25 L 35.640625 10.90625 C 35.546875 10.6875 35.515625 10.625 35.515625 10.53125 C 35.515625 10.03125 36.234375 10.03125 36.640625 10.03125 L 36.640625 9.40625 C 36.109375 9.4375 34.796875 9.46875 34.453125 9.46875 C 33.921875 9.46875 33.109375 9.4375 32.515625 9.40625 L 32.515625 10.03125 C 33.484375 10.03125 33.859375 10.03125 34.140625 10.71875 L 37.140625 18 C 37.015625 18.25 36.734375 18.90625 36.640625 19.1875 C 36.203125 20.28125 35.640625 21.65625 34.359375 21.65625 C 34.265625 21.65625 33.796875 21.65625 33.421875 21.28125 C 34.046875 21.21875 34.203125 20.78125 34.203125 20.4375 C 34.203125 19.9375 33.828125 19.625 33.359375 19.625 C 32.953125 19.625 32.515625 19.875 32.515625 20.46875 C 32.515625 21.375 33.359375 22.09375 34.359375 22.09375 C 35.609375 22.09375 36.421875 20.9375 36.890625 19.8125 Z M 40.421875 11.3125 "/>
<path style=" stroke:none;fill-rule:nonzero;fill:rgb(0%,0%,0%);fill-opacity:1;" d="M 52.730469 10.03125 L 55.605469 10.03125 L 55.605469 9.40625 L 52.730469 9.40625 L 52.730469 5.75 L 52.230469 5.75 C 52.230469 7.375 51.636719 9.5 49.667969 9.59375 L 49.667969 10.03125 L 51.355469 10.03125 L 51.355469 15.53125 C 51.355469 17.96875 53.230469 18.21875 53.949219 18.21875 C 55.355469 18.21875 55.917969 16.8125 55.917969 15.53125 L 55.917969 14.40625 L 55.417969 14.40625 L 55.417969 15.5 C 55.417969 16.96875 54.824219 17.71875 54.074219 17.71875 C 52.730469 17.71875 52.730469 15.90625 52.730469 15.5625 Z M 52.730469 10.03125 "/>
<path style=" stroke:none;fill-rule:nonzero;fill:rgb(0%,0%,0%);fill-opacity:1;" d="M 59.230469 16.5 C 59.230469 17.375 59.011719 17.375 57.667969 17.375 L 57.667969 18 C 58.386719 17.96875 59.386719 17.9375 59.949219 17.9375 C 60.449219 17.9375 61.480469 17.96875 62.167969 18 L 62.167969 17.375 C 60.824219 17.375 60.605469 17.375 60.605469 16.5 L 60.605469 12.8125 C 60.605469 10.75 62.042969 9.625 63.292969 9.625 C 64.574219 9.625 64.792969 10.6875 64.792969 11.84375 L 64.792969 16.5 C 64.792969 17.375 64.574219 17.375 63.230469 17.375 L 63.230469 18 C 63.917969 17.96875 64.949219 17.9375 65.480469 17.9375 C 65.980469 17.9375 67.042969 17.96875 67.699219 18 L 67.699219 17.375 C 66.667969 17.375 66.167969 17.375 66.167969 16.78125 L 66.167969 12.96875 C 66.167969 11.25 66.167969 10.65625 65.542969 9.9375 C 65.261719 9.59375 64.605469 9.1875 63.449219 9.1875 C 61.761719 9.1875 60.886719 10.375 60.542969 11.15625 L 60.542969 4.15625 L 57.667969 4.375 L 57.667969 5 C 59.074219 5 59.230469 5.125 59.230469 6.125 Z M 59.230469 16.5 "/>
<path style=" stroke:none;fill-rule:nonzero;fill:rgb(0%,0%,0%);fill-opacity:1;" d="M 70.332031 12.96875 C 70.457031 10 72.144531 9.5 72.832031 9.5 C 74.863281 9.5 75.082031 12.1875 75.082031 12.96875 Z M 70.332031 13.40625 L 75.894531 13.40625 C 76.332031 13.40625 76.394531 13.40625 76.394531 12.96875 C 76.394531 11 75.300781 9.0625 72.832031 9.0625 C 70.519531 9.0625 68.675781 11.125 68.675781 13.625 C 68.675781 16.28125 70.769531 18.21875 73.050781 18.21875 C 75.488281 18.21875 76.394531 16 76.394531 15.625 C 76.394531 15.4375 76.238281 15.375 76.113281 15.375 C 75.957031 15.375 75.894531 15.5 75.863281 15.65625 C 75.175781 17.71875 73.363281 17.71875 73.175781 17.71875 C 72.175781 17.71875 71.394531 17.125 70.925781 16.375 C 70.332031 15.4375 70.332031 14.125 70.332031 13.40625 Z M 70.332031 13.40625 "/>
<path style=" stroke:none;fill-rule:nonzero;fill:rgb(0%,0%,0%);fill-opacity:1;" d="M 80.3125 11.375 L 80.3125 9.1875 L 77.53125 9.40625 L 77.53125 10.03125 C 78.9375 10.03125 79.09375 10.15625 79.09375 11.15625 L 79.09375 16.5 C 79.09375 17.375 78.875 17.375 77.53125 17.375 L 77.53125 18 C 78.3125 17.96875 79.25 17.9375 79.8125 17.9375 C 80.59375 17.9375 81.53125 17.9375 82.34375 18 L 82.34375 17.375 L 81.90625 17.375 C 80.4375 17.375 80.40625 17.15625 80.40625 16.4375 L 80.40625 13.375 C 80.40625 11.40625 81.25 9.625 82.75 9.625 C 82.875 9.625 82.9375 9.625 82.96875 9.65625 C 82.90625 9.65625 82.5 9.90625 82.5 10.4375 C 82.5 10.96875 82.9375 11.28125 83.375 11.28125 C 83.71875 11.28125 84.21875 11.03125 84.21875 10.40625 C 84.21875 9.78125 83.59375 9.1875 82.75 9.1875 C 81.28125 9.1875 80.5625 10.53125 80.3125 11.375 Z M 80.3125 11.375 "/>
<path style=" stroke:none;fill-rule:nonzero;fill:rgb(0%,0%,0%);fill-opacity:1;" d="M 86.992188 12.96875 C 87.117188 10 88.804688 9.5 89.492188 9.5 C 91.523438 9.5 91.742188 12.1875 91.742188 12.96875 Z M 86.992188 13.40625 L 92.554688 13.40625 C 92.992188 13.40625 93.054688 13.40625 93.054688 12.96875 C 93.054688 11 91.960938 9.0625 89.492188 9.0625 C 87.179688 9.0625 85.335938 11.125 85.335938 13.625 C 85.335938 16.28125 87.429688 18.21875 89.710938 18.21875 C 92.148438 18.21875 93.054688 16 93.054688 15.625 C 93.054688 15.4375 92.898438 15.375 92.773438 15.375 C 92.617188 15.375 92.554688 15.5 92.523438 15.65625 C 91.835938 17.71875 90.023438 17.71875 89.835938 17.71875 C 88.835938 17.71875 88.054688 17.125 87.585938 16.375 C 86.992188 15.4375 86.992188 14.125 86.992188 13.40625 Z M 86.992188 13.40625 "/>
<path style=" stroke:none;fill-rule:nonzero;fill:rgb(0%,0%,0%);fill-opacity:1;" d="M 96.691406 13.84375 L 97.441406 4.75 C 97.441406 4.09375 96.910156 3.71875 96.410156 3.71875 C 95.878906 3.71875 95.347656 4.09375 95.347656 4.75 L 96.128906 13.8125 C 96.128906 14.125 96.160156 14.28125 96.410156 14.28125 C 96.597656 14.28125 96.660156 14.1875 96.691406 13.84375 Z M 97.441406 16.9375 C 97.441406 16.375 96.972656 15.875 96.410156 15.875 C 95.816406 15.875 95.347656 16.375 95.347656 16.9375 C 95.347656 17.53125 95.816406 18 96.410156 18 C 96.972656 18 97.441406 17.53125 97.441406 16.9375 Z M 97.441406 16.9375 "/>
</g>
</svg>
