<?xml version="1.0" encoding="UTF-8"?>
<svg xmlns="http://www.w3.org/2000/svg" xmlns:xlink="http://www.w3.org/1999/xlink" width="58.396906pt" height="56.583399pt" viewBox="0 0 58.396906 56.583399" version="1.1">
<g id="surface65">
<path style="fill:none;stroke-width:0.566929;stroke-linecap:butt;stroke-linejoin:miter;stroke:rgb(100%,0%,0%);stroke-opacity:0.5;stroke-miterlimit:10;" d="M -2.834646 2.834169 L 2.835276 -2.8338 " transform="matrix(2,0,0,2,6.169291,5.952756)"/>
<path style="fill:none;stroke-width:0.566929;stroke-linecap:butt;stroke-linejoin:miter;stroke:rgb(100%,0%,0%);stroke-opacity:0.5;stroke-miterlimit:10;" d="M 2.835276 2.834169 L -2.834646 -2.8338 " transform="matrix(2,0,0,2,6.169291,5.952756)"/>
<path style="fill-rule:nonzero;fill:rgb(50%,50%,0%);fill-opacity:0.1;stroke-width:0.566929;stroke-linecap:butt;stroke-linejoin:miter;stroke:rgb(100%,0%,0%);stroke-opacity:0.5;stroke-miterlimit:10;" d="M -0.000661294 23.289247 L 25.971995 23.289247 L 25.971995 0.000184547 L -0.000661294 0.000184547 Z M -0.000661294 23.289247 " transform="matrix(2,0,0,2,6.169291,5.952756)"/>
<path style="fill:none;stroke-width:0.566929;stroke-linecap:butt;stroke-linejoin:miter;stroke:rgb(100%,0%,0%);stroke-opacity:0.5;stroke-miterlimit:10;" d="M -2.834646 10.756044 L 2.835276 5.088075 " transform="matrix(2,0,0,2,6.169291,5.952756)"/>
<path style="fill:none;stroke-width:0.566929;stroke-linecap:butt;stroke-linejoin:miter;stroke:rgb(100%,0%,0%);stroke-opacity:0.5;stroke-miterlimit:10;" d="M 2.835276 10.756044 L -2.834646 5.088075 " transform="matrix(2,0,0,2,6.169291,5.952756)"/>
<path style="fill-rule:nonzero;fill:rgb(50%,50%,0%);fill-opacity:0.1;stroke-width:0.566929;stroke-linecap:butt;stroke-linejoin:miter;stroke:rgb(100%,0%,0%);stroke-opacity:0.5;stroke-miterlimit:10;" d="M -0.000661294 9.027528 L 25.971995 9.027528 L 25.971995 0.000184547 L -0.000661294 0.000184547 Z M -0.000661294 9.027528 " transform="matrix(2,0,0,2,6.169291,5.952756)"/>
<path style=" stroke:none;fill-rule:nonzero;fill:rgb(0%,0%,0%);fill-opacity:1;" d="M 11.042969 17.359375 C 9.292969 17.359375 9.292969 15.359375 9.292969 14.921875 C 9.292969 14.390625 9.324219 13.734375 9.605469 13.234375 C 9.761719 13.015625 10.230469 12.453125 11.042969 12.453125 C 12.761719 12.453125 12.761719 14.421875 12.761719 14.890625 C 12.761719 15.421875 12.761719 16.078125 12.449219 16.578125 C 12.292969 16.796875 11.824219 17.359375 11.042969 17.359375 Z M 8.730469 18.140625 C 8.730469 18.078125 8.730469 17.609375 9.042969 17.203125 C 9.824219 17.765625 10.667969 17.828125 11.042969 17.828125 C 12.886719 17.828125 14.261719 16.453125 14.261719 14.921875 C 14.261719 14.171875 13.949219 13.453125 13.449219 12.984375 C 14.167969 12.296875 14.886719 12.203125 15.230469 12.203125 C 15.292969 12.203125 15.386719 12.203125 15.449219 12.234375 C 15.230469 12.296875 15.105469 12.515625 15.105469 12.765625 C 15.105469 13.109375 15.386719 13.328125 15.699219 13.328125 C 15.886719 13.328125 16.261719 13.203125 16.261719 12.734375 C 16.261719 12.390625 16.042969 11.765625 15.261719 11.765625 C 14.855469 11.765625 13.980469 11.890625 13.136719 12.703125 C 12.292969 12.046875 11.480469 11.984375 11.042969 11.984375 C 9.167969 11.984375 7.792969 13.359375 7.792969 14.890625 C 7.792969 15.765625 8.230469 16.515625 8.730469 16.953125 C 8.480469 17.234375 8.105469 17.890625 8.105469 18.609375 C 8.105469 19.234375 8.386719 19.984375 9.011719 20.390625 C 7.792969 20.703125 7.167969 21.578125 7.167969 22.359375 C 7.167969 23.796875 9.136719 24.890625 11.574219 24.890625 C 13.917969 24.890625 15.980469 23.890625 15.980469 22.328125 C 15.980469 21.640625 15.730469 20.609375 14.699219 20.046875 C 13.636719 19.515625 12.480469 19.515625 11.261719 19.515625 C 10.761719 19.515625 9.917969 19.515625 9.761719 19.484375 C 9.136719 19.390625 8.730469 18.796875 8.730469 18.140625 Z M 11.605469 24.453125 C 9.574219 24.453125 8.199219 23.421875 8.199219 22.359375 C 8.199219 21.453125 8.949219 20.703125 9.824219 20.671875 L 11.011719 20.671875 C 12.730469 20.671875 14.949219 20.671875 14.949219 22.359375 C 14.949219 23.453125 13.542969 24.453125 11.605469 24.453125 Z M 11.605469 24.453125 "/>
<path style=" stroke:none;fill-rule:nonzero;fill:rgb(0%,0%,0%);fill-opacity:1;" d="M 18.789062 15.765625 C 18.914062 12.796875 20.601562 12.296875 21.289062 12.296875 C 23.320312 12.296875 23.539062 14.984375 23.539062 15.765625 Z M 18.789062 16.203125 L 24.351562 16.203125 C 24.789062 16.203125 24.851562 16.203125 24.851562 15.765625 C 24.851562 13.796875 23.757812 11.859375 21.289062 11.859375 C 18.976562 11.859375 17.132812 13.921875 17.132812 16.421875 C 17.132812 19.078125 19.226562 21.015625 21.507812 21.015625 C 23.945312 21.015625 24.851562 18.796875 24.851562 18.421875 C 24.851562 18.234375 24.695312 18.171875 24.570312 18.171875 C 24.414062 18.171875 24.351562 18.296875 24.320312 18.453125 C 23.632812 20.515625 21.820312 20.515625 21.632812 20.515625 C 20.632812 20.515625 19.851562 19.921875 19.382812 19.171875 C 18.789062 18.234375 18.789062 16.921875 18.789062 16.203125 Z M 18.789062 16.203125 "/>
<path style=" stroke:none;fill-rule:nonzero;fill:rgb(0%,0%,0%);fill-opacity:1;" d="M 29.863281 17.359375 C 28.113281 17.359375 28.113281 15.359375 28.113281 14.921875 C 28.113281 14.390625 28.144531 13.734375 28.425781 13.234375 C 28.582031 13.015625 29.050781 12.453125 29.863281 12.453125 C 31.582031 12.453125 31.582031 14.421875 31.582031 14.890625 C 31.582031 15.421875 31.582031 16.078125 31.269531 16.578125 C 31.113281 16.796875 30.644531 17.359375 29.863281 17.359375 Z M 27.550781 18.140625 C 27.550781 18.078125 27.550781 17.609375 27.863281 17.203125 C 28.644531 17.765625 29.488281 17.828125 29.863281 17.828125 C 31.707031 17.828125 33.082031 16.453125 33.082031 14.921875 C 33.082031 14.171875 32.769531 13.453125 32.269531 12.984375 C 32.988281 12.296875 33.707031 12.203125 34.050781 12.203125 C 34.113281 12.203125 34.207031 12.203125 34.269531 12.234375 C 34.050781 12.296875 33.925781 12.515625 33.925781 12.765625 C 33.925781 13.109375 34.207031 13.328125 34.519531 13.328125 C 34.707031 13.328125 35.082031 13.203125 35.082031 12.734375 C 35.082031 12.390625 34.863281 11.765625 34.082031 11.765625 C 33.675781 11.765625 32.800781 11.890625 31.957031 12.703125 C 31.113281 12.046875 30.300781 11.984375 29.863281 11.984375 C 27.988281 11.984375 26.613281 13.359375 26.613281 14.890625 C 26.613281 15.765625 27.050781 16.515625 27.550781 16.953125 C 27.300781 17.234375 26.925781 17.890625 26.925781 18.609375 C 26.925781 19.234375 27.207031 19.984375 27.832031 20.390625 C 26.613281 20.703125 25.988281 21.578125 25.988281 22.359375 C 25.988281 23.796875 27.957031 24.890625 30.394531 24.890625 C 32.738281 24.890625 34.800781 23.890625 34.800781 22.328125 C 34.800781 21.640625 34.550781 20.609375 33.519531 20.046875 C 32.457031 19.515625 31.300781 19.515625 30.082031 19.515625 C 29.582031 19.515625 28.738281 19.515625 28.582031 19.484375 C 27.957031 19.390625 27.550781 18.796875 27.550781 18.140625 Z M 30.425781 24.453125 C 28.394531 24.453125 27.019531 23.421875 27.019531 22.359375 C 27.019531 21.453125 27.769531 20.703125 28.644531 20.671875 L 29.832031 20.671875 C 31.550781 20.671875 33.769531 20.671875 33.769531 22.359375 C 33.769531 23.453125 32.363281 24.453125 30.425781 24.453125 Z M 30.425781 24.453125 "/>
<path style=" stroke:none;fill-rule:nonzero;fill:rgb(0%,0%,0%);fill-opacity:1;" d="M 37.574219 19.296875 C 37.574219 20.171875 37.355469 20.171875 36.011719 20.171875 L 36.011719 20.796875 C 36.730469 20.765625 37.730469 20.734375 38.292969 20.734375 C 38.792969 20.734375 39.824219 20.765625 40.511719 20.796875 L 40.511719 20.171875 C 39.167969 20.171875 38.949219 20.171875 38.949219 19.296875 L 38.949219 15.609375 C 38.949219 13.546875 40.386719 12.421875 41.636719 12.421875 C 42.917969 12.421875 43.136719 13.484375 43.136719 14.640625 L 43.136719 19.296875 C 43.136719 20.171875 42.917969 20.171875 41.574219 20.171875 L 41.574219 20.796875 C 42.261719 20.765625 43.292969 20.734375 43.824219 20.734375 C 44.324219 20.734375 45.386719 20.765625 46.042969 20.796875 L 46.042969 20.171875 C 45.011719 20.171875 44.511719 20.171875 44.511719 19.578125 L 44.511719 15.765625 C 44.511719 14.046875 44.511719 13.453125 43.886719 12.734375 C 43.605469 12.390625 42.949219 11.984375 41.792969 11.984375 C 40.105469 11.984375 39.230469 13.171875 38.886719 13.953125 L 38.886719 6.953125 L 36.011719 7.171875 L 36.011719 7.796875 C 37.417969 7.796875 37.574219 7.921875 37.574219 8.921875 Z M 37.574219 19.296875 "/>
<path style=" stroke:none;fill-rule:nonzero;fill:rgb(0%,0%,0%);fill-opacity:1;" d="M 48.644531 19.296875 C 48.644531 20.171875 48.425781 20.171875 47.082031 20.171875 L 47.082031 20.796875 C 47.800781 20.765625 48.800781 20.734375 49.363281 20.734375 C 49.863281 20.734375 50.894531 20.765625 51.582031 20.796875 L 51.582031 20.171875 C 50.238281 20.171875 50.019531 20.171875 50.019531 19.296875 L 50.019531 15.609375 C 50.019531 13.546875 51.457031 12.421875 52.707031 12.421875 C 53.988281 12.421875 54.207031 13.484375 54.207031 14.640625 L 54.207031 19.296875 C 54.207031 20.171875 53.988281 20.171875 52.644531 20.171875 L 52.644531 20.796875 C 53.332031 20.765625 54.363281 20.734375 54.894531 20.734375 C 55.394531 20.734375 56.457031 20.765625 57.113281 20.796875 L 57.113281 20.171875 C 56.082031 20.171875 55.582031 20.171875 55.582031 19.578125 L 55.582031 15.765625 C 55.582031 14.046875 55.582031 13.453125 54.957031 12.734375 C 54.675781 12.390625 54.019531 11.984375 52.863281 11.984375 C 51.175781 11.984375 50.300781 13.171875 49.957031 13.953125 L 49.957031 6.953125 L 47.082031 7.171875 L 47.082031 7.796875 C 48.488281 7.796875 48.644531 7.921875 48.644531 8.921875 Z M 48.644531 19.296875 "/>
<path style="fill:none;stroke-width:0.566929;stroke-linecap:butt;stroke-linejoin:miter;stroke:rgb(100%,0%,0%);stroke-opacity:0.5;stroke-miterlimit:10;" d="M -2.834646 19.783388 L 2.835276 14.113466 " transform="matrix(2,0,0,2,6.169291,5.952756)"/>
<path style="fill:none;stroke-width:0.566929;stroke-linecap:butt;stroke-linejoin:miter;stroke:rgb(100%,0%,0%);stroke-opacity:0.5;stroke-miterlimit:10;" d="M 2.835276 19.783388 L -2.834646 14.113466 " transform="matrix(2,0,0,2,6.169291,5.952756)"/>
<path style="fill-rule:nonzero;fill:rgb(50%,50%,0%);fill-opacity:0.1;stroke-width:0.566929;stroke-linecap:butt;stroke-linejoin:miter;stroke:rgb(100%,0%,0%);stroke-opacity:0.5;stroke-miterlimit:10;" d="M -0.000661294 17.011903 L 21.067698 17.011903 L 21.067698 9.027528 L -0.000661294 9.027528 Z M -0.000661294 17.011903 " transform="matrix(2,0,0,2,6.169291,5.952756)"/>
<path style=" stroke:none;fill-rule:nonzero;fill:rgb(0%,0%,0%);fill-opacity:1;" d="M 12.636719 34.164062 C 13.230469 33.414062 13.980469 32.445312 14.480469 31.914062 C 15.105469 31.195312 15.917969 30.882812 16.855469 30.882812 L 16.855469 30.257812 C 16.324219 30.289062 15.730469 30.320312 15.199219 30.320312 C 14.605469 30.320312 13.542969 30.289062 13.292969 30.257812 L 13.292969 30.882812 C 13.730469 30.914062 13.886719 31.164062 13.886719 31.507812 C 13.886719 31.820312 13.667969 32.070312 13.574219 32.195312 L 12.355469 33.757812 L 10.792969 31.726562 C 10.605469 31.539062 10.605469 31.507812 10.605469 31.382812 C 10.605469 31.070312 10.917969 30.882812 11.292969 30.882812 L 11.292969 30.257812 C 10.792969 30.289062 9.480469 30.320312 9.136719 30.320312 C 8.730469 30.320312 7.792969 30.289062 7.261719 30.257812 L 7.261719 30.882812 C 8.667969 30.882812 8.667969 30.882812 9.605469 32.101562 L 11.574219 34.664062 L 9.699219 37.039062 C 8.761719 38.195312 7.574219 38.226562 7.167969 38.226562 L 7.167969 38.851562 C 7.667969 38.820312 8.292969 38.789062 8.824219 38.789062 C 9.386719 38.789062 10.230469 38.820312 10.699219 38.851562 L 10.699219 38.226562 C 10.261719 38.164062 10.136719 37.914062 10.136719 37.601562 C 10.136719 37.164062 10.699219 36.507812 11.917969 35.070312 L 13.449219 37.070312 C 13.605469 37.289062 13.855469 37.601562 13.855469 37.726562 C 13.855469 37.914062 13.667969 38.226562 13.136719 38.226562 L 13.136719 38.851562 C 13.730469 38.820312 14.855469 38.789062 15.292969 38.789062 C 15.824219 38.789062 16.605469 38.820312 17.199219 38.851562 L 17.199219 38.226562 C 16.136719 38.226562 15.761719 38.195312 15.324219 37.601562 Z M 12.636719 34.164062 "/>
<path style=" stroke:none;fill-rule:nonzero;fill:rgb(0%,0%,0%);fill-opacity:1;" d="M 23.15625 34.164062 C 23.75 33.414062 24.5 32.445312 25 31.914062 C 25.625 31.195312 26.4375 30.882812 27.375 30.882812 L 27.375 30.257812 C 26.84375 30.289062 26.25 30.320312 25.71875 30.320312 C 25.125 30.320312 24.0625 30.289062 23.8125 30.257812 L 23.8125 30.882812 C 24.25 30.914062 24.40625 31.164062 24.40625 31.507812 C 24.40625 31.820312 24.1875 32.070312 24.09375 32.195312 L 22.875 33.757812 L 21.3125 31.726562 C 21.125 31.539062 21.125 31.507812 21.125 31.382812 C 21.125 31.070312 21.4375 30.882812 21.8125 30.882812 L 21.8125 30.257812 C 21.3125 30.289062 20 30.320312 19.65625 30.320312 C 19.25 30.320312 18.3125 30.289062 17.78125 30.257812 L 17.78125 30.882812 C 19.1875 30.882812 19.1875 30.882812 20.125 32.101562 L 22.09375 34.664062 L 20.21875 37.039062 C 19.28125 38.195312 18.09375 38.226562 17.6875 38.226562 L 17.6875 38.851562 C 18.1875 38.820312 18.8125 38.789062 19.34375 38.789062 C 19.90625 38.789062 20.75 38.820312 21.21875 38.851562 L 21.21875 38.226562 C 20.78125 38.164062 20.65625 37.914062 20.65625 37.601562 C 20.65625 37.164062 21.21875 36.507812 22.4375 35.070312 L 23.96875 37.070312 C 24.125 37.289062 24.375 37.601562 24.375 37.726562 C 24.375 37.914062 24.1875 38.226562 23.65625 38.226562 L 23.65625 38.851562 C 24.25 38.820312 25.375 38.789062 25.8125 38.789062 C 26.34375 38.789062 27.125 38.820312 27.71875 38.851562 L 27.71875 38.226562 C 26.65625 38.226562 26.28125 38.195312 25.84375 37.601562 Z M 23.15625 34.164062 "/>
<path style=" stroke:none;fill-rule:nonzero;fill:rgb(0%,0%,0%);fill-opacity:1;" d="M 35.515625 37.757812 L 35.515625 39.070312 L 38.453125 38.851562 L 38.453125 38.226562 C 37.078125 38.226562 36.890625 38.101562 36.890625 37.101562 L 36.890625 25.007812 L 34.046875 25.226562 L 34.046875 25.851562 C 35.421875 25.851562 35.578125 25.976562 35.578125 26.976562 L 35.578125 31.289062 C 35.015625 30.570312 34.140625 30.039062 33.078125 30.039062 C 30.734375 30.039062 28.640625 32.007812 28.640625 34.570312 C 28.640625 37.101562 30.578125 39.070312 32.859375 39.070312 C 34.140625 39.070312 35.015625 38.382812 35.515625 37.757812 Z M 35.515625 32.414062 L 35.515625 36.507812 C 35.515625 36.851562 35.515625 36.882812 35.296875 37.226562 C 34.703125 38.195312 33.828125 38.632812 32.953125 38.632812 C 32.046875 38.632812 31.328125 38.101562 30.859375 37.351562 C 30.359375 36.539062 30.296875 35.414062 30.296875 34.570312 C 30.296875 33.851562 30.328125 32.664062 30.890625 31.757812 C 31.328125 31.132812 32.078125 30.476562 33.171875 30.476562 C 33.859375 30.476562 34.703125 30.789062 35.296875 31.664062 C 35.515625 32.007812 35.515625 32.039062 35.515625 32.414062 Z M 35.515625 32.414062 "/>
<path style=" stroke:none;fill-rule:nonzero;fill:rgb(0%,0%,0%);fill-opacity:1;" d="M 41.242188 33.820312 C 41.367188 30.851562 43.054688 30.351562 43.742188 30.351562 C 45.773438 30.351562 45.992188 33.039062 45.992188 33.820312 Z M 41.242188 34.257812 L 46.804688 34.257812 C 47.242188 34.257812 47.304688 34.257812 47.304688 33.820312 C 47.304688 31.851562 46.210938 29.914062 43.742188 29.914062 C 41.429688 29.914062 39.585938 31.976562 39.585938 34.476562 C 39.585938 37.132812 41.679688 39.070312 43.960938 39.070312 C 46.398438 39.070312 47.304688 36.851562 47.304688 36.476562 C 47.304688 36.289062 47.148438 36.226562 47.023438 36.226562 C 46.867188 36.226562 46.804688 36.351562 46.773438 36.507812 C 46.085938 38.570312 44.273438 38.570312 44.085938 38.570312 C 43.085938 38.570312 42.304688 37.976562 41.835938 37.226562 C 41.242188 36.289062 41.242188 34.976562 41.242188 34.257812 Z M 41.242188 34.257812 "/>
<path style="fill:none;stroke-width:0.566929;stroke-linecap:butt;stroke-linejoin:miter;stroke:rgb(100%,0%,0%);stroke-opacity:0.5;stroke-miterlimit:10;" d="M -2.834646 25.314638 L 2.835276 19.646669 " transform="matrix(2,0,0,2,6.169291,5.952756)"/>
<path style="fill:none;stroke-width:0.566929;stroke-linecap:butt;stroke-linejoin:miter;stroke:rgb(100%,0%,0%);stroke-opacity:0.5;stroke-miterlimit:10;" d="M 2.835276 25.314638 L -2.834646 19.646669 " transform="matrix(2,0,0,2,6.169291,5.952756)"/>
<path style="fill-rule:nonzero;fill:rgb(50%,50%,0%);fill-opacity:0.1;stroke-width:0.566929;stroke-linecap:butt;stroke-linejoin:miter;stroke:rgb(100%,0%,0%);stroke-opacity:0.5;stroke-miterlimit:10;" d="M -0.000661294 23.289247 L 25.030589 23.289247 L 25.030589 17.011903 L -0.000661294 17.011903 Z M -0.000661294 23.289247 " transform="matrix(2,0,0,2,6.169291,5.952756)"/>
<path style=" stroke:none;fill-rule:nonzero;fill:rgb(0%,0%,0%);fill-opacity:1;" d="M 12.636719 45.226562 C 13.230469 44.476562 13.980469 43.507812 14.480469 42.976562 C 15.105469 42.257812 15.917969 41.945312 16.855469 41.945312 L 16.855469 41.320312 C 16.324219 41.351562 15.730469 41.382812 15.199219 41.382812 C 14.605469 41.382812 13.542969 41.351562 13.292969 41.320312 L 13.292969 41.945312 C 13.730469 41.976562 13.886719 42.226562 13.886719 42.570312 C 13.886719 42.882812 13.667969 43.132812 13.574219 43.257812 L 12.355469 44.820312 L 10.792969 42.789062 C 10.605469 42.601562 10.605469 42.570312 10.605469 42.445312 C 10.605469 42.132812 10.917969 41.945312 11.292969 41.945312 L 11.292969 41.320312 C 10.792969 41.351562 9.480469 41.382812 9.136719 41.382812 C 8.730469 41.382812 7.792969 41.351562 7.261719 41.320312 L 7.261719 41.945312 C 8.667969 41.945312 8.667969 41.945312 9.605469 43.164062 L 11.574219 45.726562 L 9.699219 48.101562 C 8.761719 49.257812 7.574219 49.289062 7.167969 49.289062 L 7.167969 49.914062 C 7.667969 49.882812 8.292969 49.851562 8.824219 49.851562 C 9.386719 49.851562 10.230469 49.882812 10.699219 49.914062 L 10.699219 49.289062 C 10.261719 49.226562 10.136719 48.976562 10.136719 48.664062 C 10.136719 48.226562 10.699219 47.570312 11.917969 46.132812 L 13.449219 48.132812 C 13.605469 48.351562 13.855469 48.664062 13.855469 48.789062 C 13.855469 48.976562 13.667969 49.289062 13.136719 49.289062 L 13.136719 49.914062 C 13.730469 49.882812 14.855469 49.851562 15.292969 49.851562 C 15.824219 49.851562 16.605469 49.882812 17.199219 49.914062 L 17.199219 49.289062 C 16.136719 49.289062 15.761719 49.257812 15.324219 48.664062 Z M 12.636719 45.226562 "/>
<path style=" stroke:none;fill-rule:nonzero;fill:rgb(0%,0%,0%);fill-opacity:1;" d="M 25.71875 43.226562 C 26.21875 41.945312 27.25 41.945312 27.5625 41.945312 L 27.5625 41.320312 C 27.09375 41.351562 26.53125 41.382812 26.0625 41.382812 C 25.71875 41.382812 24.78125 41.351562 24.34375 41.320312 L 24.34375 41.945312 C 24.96875 41.945312 25.28125 42.289062 25.28125 42.789062 C 25.28125 43.007812 25.25 43.039062 25.15625 43.289062 L 23.125 48.164062 L 20.9375 42.820312 C 20.84375 42.601562 20.8125 42.539062 20.8125 42.445312 C 20.8125 41.945312 21.53125 41.945312 21.9375 41.945312 L 21.9375 41.320312 C 21.40625 41.351562 20.09375 41.382812 19.75 41.382812 C 19.21875 41.382812 18.40625 41.351562 17.8125 41.320312 L 17.8125 41.945312 C 18.78125 41.945312 19.15625 41.945312 19.4375 42.632812 L 22.4375 49.914062 C 22.3125 50.164062 22.03125 50.820312 21.9375 51.101562 C 21.5 52.195312 20.9375 53.570312 19.65625 53.570312 C 19.5625 53.570312 19.09375 53.570312 18.71875 53.195312 C 19.34375 53.132812 19.5 52.695312 19.5 52.351562 C 19.5 51.851562 19.125 51.539062 18.65625 51.539062 C 18.25 51.539062 17.8125 51.789062 17.8125 52.382812 C 17.8125 53.289062 18.65625 54.007812 19.65625 54.007812 C 20.90625 54.007812 21.71875 52.851562 22.1875 51.726562 Z M 25.71875 43.226562 "/>
<path style=" stroke:none;fill-rule:nonzero;fill:rgb(0%,0%,0%);fill-opacity:1;" d="M 29.613281 44.882812 C 29.738281 41.914062 31.425781 41.414062 32.113281 41.414062 C 34.144531 41.414062 34.363281 44.101562 34.363281 44.882812 Z M 29.613281 45.320312 L 35.175781 45.320312 C 35.613281 45.320312 35.675781 45.320312 35.675781 44.882812 C 35.675781 42.914062 34.582031 40.976562 32.113281 40.976562 C 29.800781 40.976562 27.957031 43.039062 27.957031 45.539062 C 27.957031 48.195312 30.050781 50.132812 32.332031 50.132812 C 34.769531 50.132812 35.675781 47.914062 35.675781 47.539062 C 35.675781 47.351562 35.519531 47.289062 35.394531 47.289062 C 35.238281 47.289062 35.175781 47.414062 35.144531 47.570312 C 34.457031 49.632812 32.644531 49.632812 32.457031 49.632812 C 31.457031 49.632812 30.675781 49.039062 30.207031 48.289062 C 29.613281 47.351562 29.613281 46.039062 29.613281 45.320312 Z M 29.613281 45.320312 "/>
<path style=" stroke:none;fill-rule:nonzero;fill:rgb(0%,0%,0%);fill-opacity:1;" d="M 38.46875 44.882812 C 38.59375 41.914062 40.28125 41.414062 40.96875 41.414062 C 43 41.414062 43.21875 44.101562 43.21875 44.882812 Z M 38.46875 45.320312 L 44.03125 45.320312 C 44.46875 45.320312 44.53125 45.320312 44.53125 44.882812 C 44.53125 42.914062 43.4375 40.976562 40.96875 40.976562 C 38.65625 40.976562 36.8125 43.039062 36.8125 45.539062 C 36.8125 48.195312 38.90625 50.132812 41.1875 50.132812 C 43.625 50.132812 44.53125 47.914062 44.53125 47.539062 C 44.53125 47.351562 44.375 47.289062 44.25 47.289062 C 44.09375 47.289062 44.03125 47.414062 44 47.570312 C 43.3125 49.632812 41.5 49.632812 41.3125 49.632812 C 40.3125 49.632812 39.53125 49.039062 39.0625 48.289062 C 38.46875 47.351562 38.46875 46.039062 38.46875 45.320312 Z M 38.46875 45.320312 "/>
<path style=" stroke:none;fill-rule:nonzero;fill:rgb(0%,0%,0%);fill-opacity:1;" d="M 53.386719 43.226562 C 53.886719 41.945312 54.917969 41.945312 55.230469 41.945312 L 55.230469 41.320312 C 54.761719 41.351562 54.199219 41.382812 53.730469 41.382812 C 53.386719 41.382812 52.449219 41.351562 52.011719 41.320312 L 52.011719 41.945312 C 52.636719 41.945312 52.949219 42.289062 52.949219 42.789062 C 52.949219 43.007812 52.917969 43.039062 52.824219 43.289062 L 50.792969 48.164062 L 48.605469 42.820312 C 48.511719 42.601562 48.480469 42.539062 48.480469 42.445312 C 48.480469 41.945312 49.199219 41.945312 49.605469 41.945312 L 49.605469 41.320312 C 49.074219 41.351562 47.761719 41.382812 47.417969 41.382812 C 46.886719 41.382812 46.074219 41.351562 45.480469 41.320312 L 45.480469 41.945312 C 46.449219 41.945312 46.824219 41.945312 47.105469 42.632812 L 50.105469 49.914062 C 49.980469 50.164062 49.699219 50.820312 49.605469 51.101562 C 49.167969 52.195312 48.605469 53.570312 47.324219 53.570312 C 47.230469 53.570312 46.761719 53.570312 46.386719 53.195312 C 47.011719 53.132812 47.167969 52.695312 47.167969 52.351562 C 47.167969 51.851562 46.792969 51.539062 46.324219 51.539062 C 45.917969 51.539062 45.480469 51.789062 45.480469 52.382812 C 45.480469 53.289062 46.324219 54.007812 47.324219 54.007812 C 48.574219 54.007812 49.386719 52.851562 49.855469 51.726562 Z M 53.386719 43.226562 "/>
</g>
</svg>
