<?xml version="1.0" encoding="UTF-8"?>
<svg xmlns="http://www.w3.org/2000/svg" xmlns:xlink="http://www.w3.org/1999/xlink" width="62pt" height="61pt" viewBox="0 0 62 61" version="1.1">
<g id="surface161">
<path style="fill:none;stroke-width:0.566929;stroke-linecap:butt;stroke-linejoin:miter;stroke:rgb(100%,0%,0%);stroke-opacity:0.5;stroke-miterlimit:10;" d="M -2.833984 2.833984 L 2.833984 -2.833984 " transform="matrix(2,0,0,2,8,8)"/>
<path style="fill:none;stroke-width:0.566929;stroke-linecap:butt;stroke-linejoin:miter;stroke:rgb(100%,0%,0%);stroke-opacity:0.5;stroke-miterlimit:10;" d="M 2.833984 2.833984 L -2.833984 -2.833984 " transform="matrix(2,0,0,2,8,8)"/>
<path style="fill-rule:nonzero;fill:rgb(50%,50%,0%);fill-opacity:0.1;stroke-width:0.566929;stroke-linecap:butt;stroke-linejoin:miter;stroke:rgb(100%,0%,0%);stroke-opacity:0.5;stroke-miterlimit:10;" d="M 0 23.289062 L 25.972656 23.289062 L 25.972656 0 L 0 0 Z M 0 23.289062 " transform="matrix(2,0,0,2,8,8)"/>
<path style="fill:none;stroke-width:0.566929;stroke-linecap:butt;stroke-linejoin:miter;stroke:rgb(100%,0%,0%);stroke-opacity:0.5;stroke-miterlimit:10;" d="M -2.833984 10.755859 L 2.833984 5.087891 " transform="matrix(2,0,0,2,8,8)"/>
<path style="fill:none;stroke-width:0.566929;stroke-linecap:butt;stroke-linejoin:miter;stroke:rgb(100%,0%,0%);stroke-opacity:0.5;stroke-miterlimit:10;" d="M 2.833984 10.755859 L -2.833984 5.087891 " transform="matrix(2,0,0,2,8,8)"/>
<path style="fill-rule:nonzero;fill:rgb(50%,50%,0%);fill-opacity:0.1;stroke-width:0.566929;stroke-linecap:butt;stroke-linejoin:miter;stroke:rgb(100%,0%,0%);stroke-opacity:0.5;stroke-miterlimit:10;" d="M 0 9.027344 L 25.972656 9.027344 L 25.972656 0 L 0 0 Z M 0 9.027344 " transform="matrix(2,0,0,2,8,8)"/>
<path style=" stroke:none;fill-rule:nonzero;fill:rgb(0%,0%,0%);fill-opacity:1;" d="M 12.875 19.40625 C 11.125 19.40625 11.125 17.40625 11.125 16.96875 C 11.125 16.4375 11.15625 15.78125 11.4375 15.28125 C 11.59375 15.0625 12.0625 14.5 12.875 14.5 C 14.59375 14.5 14.59375 16.46875 14.59375 16.9375 C 14.59375 17.46875 14.59375 18.125 14.28125 18.625 C 14.125 18.84375 13.65625 19.40625 12.875 19.40625 Z M 10.5625 20.1875 C 10.5625 20.125 10.5625 19.65625 10.875 19.25 C 11.65625 19.8125 12.5 19.875 12.875 19.875 C 14.71875 19.875 16.09375 18.5 16.09375 16.96875 C 16.09375 16.21875 15.78125 15.5 15.28125 15.03125 C 16 14.34375 16.71875 14.25 17.0625 14.25 C 17.125 14.25 17.21875 14.25 17.28125 14.28125 C 17.0625 14.34375 16.9375 14.5625 16.9375 14.8125 C 16.9375 15.15625 17.21875 15.375 17.53125 15.375 C 17.71875 15.375 18.09375 15.25 18.09375 14.78125 C 18.09375 14.4375 17.875 13.8125 17.09375 13.8125 C 16.6875 13.8125 15.8125 13.9375 14.96875 14.75 C 14.125 14.09375 13.3125 14.03125 12.875 14.03125 C 11 14.03125 9.625 15.40625 9.625 16.9375 C 9.625 17.8125 10.0625 18.5625 10.5625 19 C 10.3125 19.28125 9.9375 19.9375 9.9375 20.65625 C 9.9375 21.28125 10.21875 22.03125 10.84375 22.4375 C 9.625 22.75 9 23.625 9 24.40625 C 9 25.84375 10.96875 26.9375 13.40625 26.9375 C 15.75 26.9375 17.8125 25.9375 17.8125 24.375 C 17.8125 23.6875 17.5625 22.65625 16.53125 22.09375 C 15.46875 21.5625 14.3125 21.5625 13.09375 21.5625 C 12.59375 21.5625 11.75 21.5625 11.59375 21.53125 C 10.96875 21.4375 10.5625 20.84375 10.5625 20.1875 Z M 13.4375 26.5 C 11.40625 26.5 10.03125 25.46875 10.03125 24.40625 C 10.03125 23.5 10.78125 22.75 11.65625 22.71875 L 12.84375 22.71875 C 14.5625 22.71875 16.78125 22.71875 16.78125 24.40625 C 16.78125 25.5 15.375 26.5 13.4375 26.5 Z M 13.4375 26.5 "/>
<path style=" stroke:none;fill-rule:nonzero;fill:rgb(0%,0%,0%);fill-opacity:1;" d="M 20.617188 17.8125 C 20.742188 14.84375 22.429688 14.34375 23.117188 14.34375 C 25.148438 14.34375 25.367188 17.03125 25.367188 17.8125 Z M 20.617188 18.25 L 26.179688 18.25 C 26.617188 18.25 26.679688 18.25 26.679688 17.8125 C 26.679688 15.84375 25.585938 13.90625 23.117188 13.90625 C 20.804688 13.90625 18.960938 15.96875 18.960938 18.46875 C 18.960938 21.125 21.054688 23.0625 23.335938 23.0625 C 25.773438 23.0625 26.679688 20.84375 26.679688 20.46875 C 26.679688 20.28125 26.523438 20.21875 26.398438 20.21875 C 26.242188 20.21875 26.179688 20.34375 26.148438 20.5 C 25.460938 22.5625 23.648438 22.5625 23.460938 22.5625 C 22.460938 22.5625 21.679688 21.96875 21.210938 21.21875 C 20.617188 20.28125 20.617188 18.96875 20.617188 18.25 Z M 20.617188 18.25 "/>
<path style=" stroke:none;fill-rule:nonzero;fill:rgb(0%,0%,0%);fill-opacity:1;" d="M 31.691406 19.40625 C 29.941406 19.40625 29.941406 17.40625 29.941406 16.96875 C 29.941406 16.4375 29.972656 15.78125 30.253906 15.28125 C 30.410156 15.0625 30.878906 14.5 31.691406 14.5 C 33.410156 14.5 33.410156 16.46875 33.410156 16.9375 C 33.410156 17.46875 33.410156 18.125 33.097656 18.625 C 32.941406 18.84375 32.472656 19.40625 31.691406 19.40625 Z M 29.378906 20.1875 C 29.378906 20.125 29.378906 19.65625 29.691406 19.25 C 30.472656 19.8125 31.316406 19.875 31.691406 19.875 C 33.535156 19.875 34.910156 18.5 34.910156 16.96875 C 34.910156 16.21875 34.597656 15.5 34.097656 15.03125 C 34.816406 14.34375 35.535156 14.25 35.878906 14.25 C 35.941406 14.25 36.035156 14.25 36.097656 14.28125 C 35.878906 14.34375 35.753906 14.5625 35.753906 14.8125 C 35.753906 15.15625 36.035156 15.375 36.347656 15.375 C 36.535156 15.375 36.910156 15.25 36.910156 14.78125 C 36.910156 14.4375 36.691406 13.8125 35.910156 13.8125 C 35.503906 13.8125 34.628906 13.9375 33.785156 14.75 C 32.941406 14.09375 32.128906 14.03125 31.691406 14.03125 C 29.816406 14.03125 28.441406 15.40625 28.441406 16.9375 C 28.441406 17.8125 28.878906 18.5625 29.378906 19 C 29.128906 19.28125 28.753906 19.9375 28.753906 20.65625 C 28.753906 21.28125 29.035156 22.03125 29.660156 22.4375 C 28.441406 22.75 27.816406 23.625 27.816406 24.40625 C 27.816406 25.84375 29.785156 26.9375 32.222656 26.9375 C 34.566406 26.9375 36.628906 25.9375 36.628906 24.375 C 36.628906 23.6875 36.378906 22.65625 35.347656 22.09375 C 34.285156 21.5625 33.128906 21.5625 31.910156 21.5625 C 31.410156 21.5625 30.566406 21.5625 30.410156 21.53125 C 29.785156 21.4375 29.378906 20.84375 29.378906 20.1875 Z M 32.253906 26.5 C 30.222656 26.5 28.847656 25.46875 28.847656 24.40625 C 28.847656 23.5 29.597656 22.75 30.472656 22.71875 L 31.660156 22.71875 C 33.378906 22.71875 35.597656 22.71875 35.597656 24.40625 C 35.597656 25.5 34.191406 26.5 32.253906 26.5 Z M 32.253906 26.5 "/>
<path style=" stroke:none;fill-rule:nonzero;fill:rgb(0%,0%,0%);fill-opacity:1;" d="M 39.40625 21.34375 C 39.40625 22.21875 39.1875 22.21875 37.84375 22.21875 L 37.84375 22.84375 C 38.5625 22.8125 39.5625 22.78125 40.125 22.78125 C 40.625 22.78125 41.65625 22.8125 42.34375 22.84375 L 42.34375 22.21875 C 41 22.21875 40.78125 22.21875 40.78125 21.34375 L 40.78125 17.65625 C 40.78125 15.59375 42.21875 14.46875 43.46875 14.46875 C 44.75 14.46875 44.96875 15.53125 44.96875 16.6875 L 44.96875 21.34375 C 44.96875 22.21875 44.75 22.21875 43.40625 22.21875 L 43.40625 22.84375 C 44.09375 22.8125 45.125 22.78125 45.65625 22.78125 C 46.15625 22.78125 47.21875 22.8125 47.875 22.84375 L 47.875 22.21875 C 46.84375 22.21875 46.34375 22.21875 46.34375 21.625 L 46.34375 17.8125 C 46.34375 16.09375 46.34375 15.5 45.71875 14.78125 C 45.4375 14.4375 44.78125 14.03125 43.625 14.03125 C 41.9375 14.03125 41.0625 15.21875 40.71875 16 L 40.71875 9 L 37.84375 9.21875 L 37.84375 9.84375 C 39.25 9.84375 39.40625 9.96875 39.40625 10.96875 Z M 39.40625 21.34375 "/>
<path style=" stroke:none;fill-rule:nonzero;fill:rgb(0%,0%,0%);fill-opacity:1;" d="M 50.476562 21.34375 C 50.476562 22.21875 50.257812 22.21875 48.914062 22.21875 L 48.914062 22.84375 C 49.632812 22.8125 50.632812 22.78125 51.195312 22.78125 C 51.695312 22.78125 52.726562 22.8125 53.414062 22.84375 L 53.414062 22.21875 C 52.070312 22.21875 51.851562 22.21875 51.851562 21.34375 L 51.851562 17.65625 C 51.851562 15.59375 53.289062 14.46875 54.539062 14.46875 C 55.820312 14.46875 56.039062 15.53125 56.039062 16.6875 L 56.039062 21.34375 C 56.039062 22.21875 55.820312 22.21875 54.476562 22.21875 L 54.476562 22.84375 C 55.164062 22.8125 56.195312 22.78125 56.726562 22.78125 C 57.226562 22.78125 58.289062 22.8125 58.945312 22.84375 L 58.945312 22.21875 C 57.914062 22.21875 57.414062 22.21875 57.414062 21.625 L 57.414062 17.8125 C 57.414062 16.09375 57.414062 15.5 56.789062 14.78125 C 56.507812 14.4375 55.851562 14.03125 54.695312 14.03125 C 53.007812 14.03125 52.132812 15.21875 51.789062 16 L 51.789062 9 L 48.914062 9.21875 L 48.914062 9.84375 C 50.320312 9.84375 50.476562 9.96875 50.476562 10.96875 Z M 50.476562 21.34375 "/>
<path style="fill:none;stroke-width:0.566929;stroke-linecap:butt;stroke-linejoin:miter;stroke:rgb(100%,0%,0%);stroke-opacity:0.5;stroke-miterlimit:10;" d="M -2.833984 19.783203 L 2.833984 14.113281 " transform="matrix(2,0,0,2,8,8)"/>
<path style="fill:none;stroke-width:0.566929;stroke-linecap:butt;stroke-linejoin:miter;stroke:rgb(100%,0%,0%);stroke-opacity:0.5;stroke-miterlimit:10;" d="M 2.833984 19.783203 L -2.833984 14.113281 " transform="matrix(2,0,0,2,8,8)"/>
<path style="fill-rule:nonzero;fill:rgb(50%,50%,0%);fill-opacity:0.1;stroke-width:0.566929;stroke-linecap:butt;stroke-linejoin:miter;stroke:rgb(100%,0%,0%);stroke-opacity:0.5;stroke-miterlimit:10;" d="M 0 17.011719 L 21.066406 17.011719 L 21.066406 9.027344 L 0 9.027344 Z M 0 17.011719 " transform="matrix(2,0,0,2,8,8)"/>
<path style=" stroke:none;fill-rule:nonzero;fill:rgb(0%,0%,0%);fill-opacity:1;" d="M 14.46875 36.210938 C 15.0625 35.460938 15.8125 34.492188 16.3125 33.960938 C 16.9375 33.242188 17.75 32.929688 18.6875 32.929688 L 18.6875 32.304688 C 18.15625 32.335938 17.5625 32.367188 17.03125 32.367188 C 16.4375 32.367188 15.375 32.335938 15.125 32.304688 L 15.125 32.929688 C 15.5625 32.960938 15.71875 33.210938 15.71875 33.554688 C 15.71875 33.867188 15.5 34.117188 15.40625 34.242188 L 14.1875 35.804688 L 12.625 33.773438 C 12.4375 33.585938 12.4375 33.554688 12.4375 33.429688 C 12.4375 33.117188 12.75 32.929688 13.125 32.929688 L 13.125 32.304688 C 12.625 32.335938 11.3125 32.367188 10.96875 32.367188 C 10.5625 32.367188 9.625 32.335938 9.09375 32.304688 L 9.09375 32.929688 C 10.5 32.929688 10.5 32.929688 11.4375 34.148438 L 13.40625 36.710938 L 11.53125 39.085938 C 10.59375 40.242188 9.40625 40.273438 9 40.273438 L 9 40.898438 C 9.5 40.867188 10.125 40.835938 10.65625 40.835938 C 11.21875 40.835938 12.0625 40.867188 12.53125 40.898438 L 12.53125 40.273438 C 12.09375 40.210938 11.96875 39.960938 11.96875 39.648438 C 11.96875 39.210938 12.53125 38.554688 13.75 37.117188 L 15.28125 39.117188 C 15.4375 39.335938 15.6875 39.648438 15.6875 39.773438 C 15.6875 39.960938 15.5 40.273438 14.96875 40.273438 L 14.96875 40.898438 C 15.5625 40.867188 16.6875 40.835938 17.125 40.835938 C 17.65625 40.835938 18.4375 40.867188 19.03125 40.898438 L 19.03125 40.273438 C 17.96875 40.273438 17.59375 40.242188 17.15625 39.648438 Z M 14.46875 36.210938 "/>
<path style=" stroke:none;fill-rule:nonzero;fill:rgb(0%,0%,0%);fill-opacity:1;" d="M 24.984375 36.210938 C 25.578125 35.460938 26.328125 34.492188 26.828125 33.960938 C 27.453125 33.242188 28.265625 32.929688 29.203125 32.929688 L 29.203125 32.304688 C 28.671875 32.335938 28.078125 32.367188 27.546875 32.367188 C 26.953125 32.367188 25.890625 32.335938 25.640625 32.304688 L 25.640625 32.929688 C 26.078125 32.960938 26.234375 33.210938 26.234375 33.554688 C 26.234375 33.867188 26.015625 34.117188 25.921875 34.242188 L 24.703125 35.804688 L 23.140625 33.773438 C 22.953125 33.585938 22.953125 33.554688 22.953125 33.429688 C 22.953125 33.117188 23.265625 32.929688 23.640625 32.929688 L 23.640625 32.304688 C 23.140625 32.335938 21.828125 32.367188 21.484375 32.367188 C 21.078125 32.367188 20.140625 32.335938 19.609375 32.304688 L 19.609375 32.929688 C 21.015625 32.929688 21.015625 32.929688 21.953125 34.148438 L 23.921875 36.710938 L 22.046875 39.085938 C 21.109375 40.242188 19.921875 40.273438 19.515625 40.273438 L 19.515625 40.898438 C 20.015625 40.867188 20.640625 40.835938 21.171875 40.835938 C 21.734375 40.835938 22.578125 40.867188 23.046875 40.898438 L 23.046875 40.273438 C 22.609375 40.210938 22.484375 39.960938 22.484375 39.648438 C 22.484375 39.210938 23.046875 38.554688 24.265625 37.117188 L 25.796875 39.117188 C 25.953125 39.335938 26.203125 39.648438 26.203125 39.773438 C 26.203125 39.960938 26.015625 40.273438 25.484375 40.273438 L 25.484375 40.898438 C 26.078125 40.867188 27.203125 40.835938 27.640625 40.835938 C 28.171875 40.835938 28.953125 40.867188 29.546875 40.898438 L 29.546875 40.273438 C 28.484375 40.273438 28.109375 40.242188 27.671875 39.648438 Z M 24.984375 36.210938 "/>
<path style=" stroke:none;fill-rule:nonzero;fill:rgb(0%,0%,0%);fill-opacity:1;" d="M 37.34375 39.804688 L 37.34375 41.117188 L 40.28125 40.898438 L 40.28125 40.273438 C 38.90625 40.273438 38.71875 40.148438 38.71875 39.148438 L 38.71875 27.054688 L 35.875 27.273438 L 35.875 27.898438 C 37.25 27.898438 37.40625 28.023438 37.40625 29.023438 L 37.40625 33.335938 C 36.84375 32.617188 35.96875 32.085938 34.90625 32.085938 C 32.5625 32.085938 30.46875 34.054688 30.46875 36.617188 C 30.46875 39.148438 32.40625 41.117188 34.6875 41.117188 C 35.96875 41.117188 36.84375 40.429688 37.34375 39.804688 Z M 37.34375 34.460938 L 37.34375 38.554688 C 37.34375 38.898438 37.34375 38.929688 37.125 39.273438 C 36.53125 40.242188 35.65625 40.679688 34.78125 40.679688 C 33.875 40.679688 33.15625 40.148438 32.6875 39.398438 C 32.1875 38.585938 32.125 37.460938 32.125 36.617188 C 32.125 35.898438 32.15625 34.710938 32.71875 33.804688 C 33.15625 33.179688 33.90625 32.523438 35 32.523438 C 35.6875 32.523438 36.53125 32.835938 37.125 33.710938 C 37.34375 34.054688 37.34375 34.085938 37.34375 34.460938 Z M 37.34375 34.460938 "/>
<path style=" stroke:none;fill-rule:nonzero;fill:rgb(0%,0%,0%);fill-opacity:1;" d="M 43.070312 35.867188 C 43.195312 32.898438 44.882812 32.398438 45.570312 32.398438 C 47.601562 32.398438 47.820312 35.085938 47.820312 35.867188 Z M 43.070312 36.304688 L 48.632812 36.304688 C 49.070312 36.304688 49.132812 36.304688 49.132812 35.867188 C 49.132812 33.898438 48.039062 31.960938 45.570312 31.960938 C 43.257812 31.960938 41.414062 34.023438 41.414062 36.523438 C 41.414062 39.179688 43.507812 41.117188 45.789062 41.117188 C 48.226562 41.117188 49.132812 38.898438 49.132812 38.523438 C 49.132812 38.335938 48.976562 38.273438 48.851562 38.273438 C 48.695312 38.273438 48.632812 38.398438 48.601562 38.554688 C 47.914062 40.617188 46.101562 40.617188 45.914062 40.617188 C 44.914062 40.617188 44.132812 40.023438 43.664062 39.273438 C 43.070312 38.335938 43.070312 37.023438 43.070312 36.304688 Z M 43.070312 36.304688 "/>
<path style="fill:none;stroke-width:0.566929;stroke-linecap:butt;stroke-linejoin:miter;stroke:rgb(100%,0%,0%);stroke-opacity:0.5;stroke-miterlimit:10;" d="M -2.833984 25.314453 L 2.833984 19.646484 " transform="matrix(2,0,0,2,8,8)"/>
<path style="fill:none;stroke-width:0.566929;stroke-linecap:butt;stroke-linejoin:miter;stroke:rgb(100%,0%,0%);stroke-opacity:0.5;stroke-miterlimit:10;" d="M 2.833984 25.314453 L -2.833984 19.646484 " transform="matrix(2,0,0,2,8,8)"/>
<path style="fill-rule:nonzero;fill:rgb(50%,50%,0%);fill-opacity:0.1;stroke-width:0.566929;stroke-linecap:butt;stroke-linejoin:miter;stroke:rgb(100%,0%,0%);stroke-opacity:0.5;stroke-miterlimit:10;" d="M 0 23.289062 L 25.029297 23.289062 L 25.029297 17.011719 L 0 17.011719 Z M 0 23.289062 " transform="matrix(2,0,0,2,8,8)"/>
<path style=" stroke:none;fill-rule:nonzero;fill:rgb(0%,0%,0%);fill-opacity:1;" d="M 14.46875 47.273438 C 15.0625 46.523438 15.8125 45.554688 16.3125 45.023438 C 16.9375 44.304688 17.75 43.992188 18.6875 43.992188 L 18.6875 43.367188 C 18.15625 43.398438 17.5625 43.429688 17.03125 43.429688 C 16.4375 43.429688 15.375 43.398438 15.125 43.367188 L 15.125 43.992188 C 15.5625 44.023438 15.71875 44.273438 15.71875 44.617188 C 15.71875 44.929688 15.5 45.179688 15.40625 45.304688 L 14.1875 46.867188 L 12.625 44.835938 C 12.4375 44.648438 12.4375 44.617188 12.4375 44.492188 C 12.4375 44.179688 12.75 43.992188 13.125 43.992188 L 13.125 43.367188 C 12.625 43.398438 11.3125 43.429688 10.96875 43.429688 C 10.5625 43.429688 9.625 43.398438 9.09375 43.367188 L 9.09375 43.992188 C 10.5 43.992188 10.5 43.992188 11.4375 45.210938 L 13.40625 47.773438 L 11.53125 50.148438 C 10.59375 51.304688 9.40625 51.335938 9 51.335938 L 9 51.960938 C 9.5 51.929688 10.125 51.898438 10.65625 51.898438 C 11.21875 51.898438 12.0625 51.929688 12.53125 51.960938 L 12.53125 51.335938 C 12.09375 51.273438 11.96875 51.023438 11.96875 50.710938 C 11.96875 50.273438 12.53125 49.617188 13.75 48.179688 L 15.28125 50.179688 C 15.4375 50.398438 15.6875 50.710938 15.6875 50.835938 C 15.6875 51.023438 15.5 51.335938 14.96875 51.335938 L 14.96875 51.960938 C 15.5625 51.929688 16.6875 51.898438 17.125 51.898438 C 17.65625 51.898438 18.4375 51.929688 19.03125 51.960938 L 19.03125 51.335938 C 17.96875 51.335938 17.59375 51.304688 17.15625 50.710938 Z M 14.46875 47.273438 "/>
<path style=" stroke:none;fill-rule:nonzero;fill:rgb(0%,0%,0%);fill-opacity:1;" d="M 27.546875 45.273438 C 28.046875 43.992188 29.078125 43.992188 29.390625 43.992188 L 29.390625 43.367188 C 28.921875 43.398438 28.359375 43.429688 27.890625 43.429688 C 27.546875 43.429688 26.609375 43.398438 26.171875 43.367188 L 26.171875 43.992188 C 26.796875 43.992188 27.109375 44.335938 27.109375 44.835938 C 27.109375 45.054688 27.078125 45.085938 26.984375 45.335938 L 24.953125 50.210938 L 22.765625 44.867188 C 22.671875 44.648438 22.640625 44.585938 22.640625 44.492188 C 22.640625 43.992188 23.359375 43.992188 23.765625 43.992188 L 23.765625 43.367188 C 23.234375 43.398438 21.921875 43.429688 21.578125 43.429688 C 21.046875 43.429688 20.234375 43.398438 19.640625 43.367188 L 19.640625 43.992188 C 20.609375 43.992188 20.984375 43.992188 21.265625 44.679688 L 24.265625 51.960938 C 24.140625 52.210938 23.859375 52.867188 23.765625 53.148438 C 23.328125 54.242188 22.765625 55.617188 21.484375 55.617188 C 21.390625 55.617188 20.921875 55.617188 20.546875 55.242188 C 21.171875 55.179688 21.328125 54.742188 21.328125 54.398438 C 21.328125 53.898438 20.953125 53.585938 20.484375 53.585938 C 20.078125 53.585938 19.640625 53.835938 19.640625 54.429688 C 19.640625 55.335938 20.484375 56.054688 21.484375 56.054688 C 22.734375 56.054688 23.546875 54.898438 24.015625 53.773438 Z M 27.546875 45.273438 "/>
<path style=" stroke:none;fill-rule:nonzero;fill:rgb(0%,0%,0%);fill-opacity:1;" d="M 31.445312 46.929688 C 31.570312 43.960938 33.257812 43.460938 33.945312 43.460938 C 35.976562 43.460938 36.195312 46.148438 36.195312 46.929688 Z M 31.445312 47.367188 L 37.007812 47.367188 C 37.445312 47.367188 37.507812 47.367188 37.507812 46.929688 C 37.507812 44.960938 36.414062 43.023438 33.945312 43.023438 C 31.632812 43.023438 29.789062 45.085938 29.789062 47.585938 C 29.789062 50.242188 31.882812 52.179688 34.164062 52.179688 C 36.601562 52.179688 37.507812 49.960938 37.507812 49.585938 C 37.507812 49.398438 37.351562 49.335938 37.226562 49.335938 C 37.070312 49.335938 37.007812 49.460938 36.976562 49.617188 C 36.289062 51.679688 34.476562 51.679688 34.289062 51.679688 C 33.289062 51.679688 32.507812 51.085938 32.039062 50.335938 C 31.445312 49.398438 31.445312 48.085938 31.445312 47.367188 Z M 31.445312 47.367188 "/>
<path style=" stroke:none;fill-rule:nonzero;fill:rgb(0%,0%,0%);fill-opacity:1;" d="M 40.296875 46.929688 C 40.421875 43.960938 42.109375 43.460938 42.796875 43.460938 C 44.828125 43.460938 45.046875 46.148438 45.046875 46.929688 Z M 40.296875 47.367188 L 45.859375 47.367188 C 46.296875 47.367188 46.359375 47.367188 46.359375 46.929688 C 46.359375 44.960938 45.265625 43.023438 42.796875 43.023438 C 40.484375 43.023438 38.640625 45.085938 38.640625 47.585938 C 38.640625 50.242188 40.734375 52.179688 43.015625 52.179688 C 45.453125 52.179688 46.359375 49.960938 46.359375 49.585938 C 46.359375 49.398438 46.203125 49.335938 46.078125 49.335938 C 45.921875 49.335938 45.859375 49.460938 45.828125 49.617188 C 45.140625 51.679688 43.328125 51.679688 43.140625 51.679688 C 42.140625 51.679688 41.359375 51.085938 40.890625 50.335938 C 40.296875 49.398438 40.296875 48.085938 40.296875 47.367188 Z M 40.296875 47.367188 "/>
<path style=" stroke:none;fill-rule:nonzero;fill:rgb(0%,0%,0%);fill-opacity:1;" d="M 55.214844 45.273438 C 55.714844 43.992188 56.746094 43.992188 57.058594 43.992188 L 57.058594 43.367188 C 56.589844 43.398438 56.027344 43.429688 55.558594 43.429688 C 55.214844 43.429688 54.277344 43.398438 53.839844 43.367188 L 53.839844 43.992188 C 54.464844 43.992188 54.777344 44.335938 54.777344 44.835938 C 54.777344 45.054688 54.746094 45.085938 54.652344 45.335938 L 52.621094 50.210938 L 50.433594 44.867188 C 50.339844 44.648438 50.308594 44.585938 50.308594 44.492188 C 50.308594 43.992188 51.027344 43.992188 51.433594 43.992188 L 51.433594 43.367188 C 50.902344 43.398438 49.589844 43.429688 49.246094 43.429688 C 48.714844 43.429688 47.902344 43.398438 47.308594 43.367188 L 47.308594 43.992188 C 48.277344 43.992188 48.652344 43.992188 48.933594 44.679688 L 51.933594 51.960938 C 51.808594 52.210938 51.527344 52.867188 51.433594 53.148438 C 50.996094 54.242188 50.433594 55.617188 49.152344 55.617188 C 49.058594 55.617188 48.589844 55.617188 48.214844 55.242188 C 48.839844 55.179688 48.996094 54.742188 48.996094 54.398438 C 48.996094 53.898438 48.621094 53.585938 48.152344 53.585938 C 47.746094 53.585938 47.308594 53.835938 47.308594 54.429688 C 47.308594 55.335938 48.152344 56.054688 49.152344 56.054688 C 50.402344 56.054688 51.214844 54.898438 51.683594 53.773438 Z M 55.214844 45.273438 "/>
</g>
</svg>
