<?xml version="1.0" encoding="UTF-8"?>
<svg xmlns="http://www.w3.org/2000/svg" xmlns:xlink="http://www.w3.org/1999/xlink" width="113.952756pt" height="125.007874pt" viewBox="0 0 113.952756 125.007874" version="1.1">
<g id="surface73">
<path style="fill:none;stroke-width:0.566929;stroke-linecap:butt;stroke-linejoin:miter;stroke:rgb(100%,0%,0%);stroke-opacity:0.5;stroke-miterlimit:10;" d="M -2.833892 2.834169 L 2.834077 -2.8338 " transform="matrix(2,0,0,2,56.976378,5.952756)"/>
<path style="fill:none;stroke-width:0.566929;stroke-linecap:butt;stroke-linejoin:miter;stroke:rgb(100%,0%,0%);stroke-opacity:0.5;stroke-miterlimit:10;" d="M 2.834077 2.834169 L -2.833892 -2.8338 " transform="matrix(2,0,0,2,56.976378,5.952756)"/>
<path style="fill-rule:nonzero;fill:rgb(50%,50%,0%);fill-opacity:0.1;stroke-width:0.566929;stroke-linecap:butt;stroke-linejoin:miter;stroke:rgb(100%,0%,0%);stroke-opacity:0.5;stroke-miterlimit:10;" d="M -28.345611 56.693544 L 28.345795 56.693544 L 28.345795 0.000184547 L -28.345611 0.000184547 Z M -28.345611 56.693544 " transform="matrix(2,0,0,2,56.976378,5.952756)"/>
<path style="fill:none;stroke-width:0.566929;stroke-linecap:butt;stroke-linejoin:miter;stroke:rgb(100%,0%,0%);stroke-opacity:0.5;stroke-miterlimit:10;" d="M -2.833892 31.181825 L 2.834077 25.511903 " transform="matrix(2,0,0,2,56.976378,5.952756)"/>
<path style="fill:none;stroke-width:0.566929;stroke-linecap:butt;stroke-linejoin:miter;stroke:rgb(100%,0%,0%);stroke-opacity:0.5;stroke-miterlimit:10;" d="M 2.834077 31.181825 L -2.833892 25.511903 " transform="matrix(2,0,0,2,56.976378,5.952756)"/>
<path style="fill:none;stroke-width:0.566929;stroke-linecap:butt;stroke-linejoin:miter;stroke:rgb(100%,0%,0%);stroke-opacity:0.5;stroke-miterlimit:10;" d="M 0.000092267 56.693544 L 0.000092267 0.000184547 Z M 0.000092267 56.693544 " transform="matrix(2,0,0,2,56.976378,5.952756)"/>
<path style="fill:none;stroke-width:0.566929;stroke-linecap:butt;stroke-linejoin:miter;stroke:rgb(100%,0%,0%);stroke-opacity:0.5;stroke-miterlimit:10;" d="M -2.833892 59.527528 L 2.834077 53.857606 " transform="matrix(2,0,0,2,56.976378,5.952756)"/>
<path style="fill:none;stroke-width:0.566929;stroke-linecap:butt;stroke-linejoin:miter;stroke:rgb(100%,0%,0%);stroke-opacity:0.5;stroke-miterlimit:10;" d="M 2.834077 59.527528 L -2.833892 53.857606 " transform="matrix(2,0,0,2,56.976378,5.952756)"/>
<path style="fill:none;stroke-width:0.566929;stroke-linecap:butt;stroke-linejoin:miter;stroke:rgb(100%,0%,0%);stroke-opacity:0.5;stroke-miterlimit:10;" d="M -28.345611 56.693544 L 28.345795 56.693544 Z M -28.345611 56.693544 " transform="matrix(2,0,0,2,56.976378,5.952756)"/>
</g>
</svg>
