<?xml version="1.0" encoding="UTF-8"?>
<svg xmlns="http://www.w3.org/2000/svg" xmlns:xlink="http://www.w3.org/1999/xlink" width="170.07874pt" height="85.03937pt" viewBox="0 0 170.07874 85.03937" version="1.1">
<g id="surface37">
<path style="fill:none;stroke-width:0.566929;stroke-linecap:butt;stroke-linejoin:miter;stroke:rgb(100%,0%,0%);stroke-opacity:0.5;stroke-miterlimit:10;" d="M -2.835338 2.835184 L 2.834584 -2.834738 " transform="matrix(2,0,0,2,28.346457,56.692913)"/>
<path style="fill:none;stroke-width:0.566929;stroke-linecap:butt;stroke-linejoin:miter;stroke:rgb(100%,0%,0%);stroke-opacity:0.5;stroke-miterlimit:10;" d="M 2.834584 2.835184 L -2.835338 -2.834738 " transform="matrix(2,0,0,2,28.346457,56.692913)"/>
<path style="fill-rule:nonzero;fill:rgb(50%,50%,0%);fill-opacity:0.1;stroke-width:0.566929;stroke-linecap:butt;stroke-linejoin:miter;stroke:rgb(100%,0%,0%);stroke-opacity:0.5;stroke-miterlimit:10;" d="M -14.173228 14.173075 L 70.865834 14.173075 L 70.865834 -28.346457 L -14.173228 -28.346457 Z M -14.173228 14.173075 " transform="matrix(2,0,0,2,28.346457,56.692913)"/>
<path style="fill:none;stroke-width:0.566929;stroke-linecap:butt;stroke-linejoin:miter;stroke:rgb(100%,0%,0%);stroke-opacity:0.5;stroke-miterlimit:10;" d="M -2.835338 2.835184 L 2.834584 -2.834738 " transform="matrix(2,0,0,2,28.346457,56.692913)"/>
<path style="fill:none;stroke-width:0.566929;stroke-linecap:butt;stroke-linejoin:miter;stroke:rgb(100%,0%,0%);stroke-opacity:0.5;stroke-miterlimit:10;" d="M 2.834584 2.835184 L -2.835338 -2.834738 " transform="matrix(2,0,0,2,28.346457,56.692913)"/>
<path style="fill-rule:nonzero;fill:rgb(50%,50%,0%);fill-opacity:0.1;stroke-width:0.566929;stroke-linecap:butt;stroke-linejoin:miter;stroke:rgb(100%,0%,0%);stroke-opacity:0.5;stroke-miterlimit:10;" d="M 0.000599779 2.835184 L 62.361928 2.835184 L 62.361928 -11.338644 L 0.000599779 -11.338644 Z M 0.000599779 2.835184 " transform="matrix(2,0,0,2,28.346457,56.692913)"/>
<path style="fill:none;stroke-width:0.566929;stroke-linecap:butt;stroke-linejoin:miter;stroke:rgb(100%,0%,0%);stroke-opacity:0.5;stroke-miterlimit:10;" d="M -2.835338 2.835184 L 2.834584 -2.834738 " transform="matrix(2,0,0,2,28.346457,56.692913)"/>
<path style="fill:none;stroke-width:0.566929;stroke-linecap:butt;stroke-linejoin:miter;stroke:rgb(100%,0%,0%);stroke-opacity:0.5;stroke-miterlimit:10;" d="M 2.834584 2.835184 L -2.835338 -2.834738 " transform="matrix(2,0,0,2,28.346457,56.692913)"/>
<path style="fill-rule:nonzero;fill:rgb(50%,50%,0%);fill-opacity:0.1;stroke-width:0.566929;stroke-linecap:butt;stroke-linejoin:miter;stroke:rgb(100%,0%,0%);stroke-opacity:0.5;stroke-miterlimit:10;" d="M -14.173228 -0.000753568 L 70.865834 -0.000753568 L 70.865834 -8.50466 L -14.173228 -8.50466 Z M -14.173228 -0.000753568 " transform="matrix(2,0,0,2,28.346457,56.692913)"/>
<path style="fill:none;stroke-width:0.566929;stroke-linecap:butt;stroke-linejoin:miter;stroke:rgb(100%,0%,0%);stroke-opacity:0.5;stroke-miterlimit:10;" d="M -2.835338 2.835184 L 2.834584 -2.834738 " transform="matrix(2,0,0,2,28.346457,56.692913)"/>
<path style="fill:none;stroke-width:0.566929;stroke-linecap:butt;stroke-linejoin:miter;stroke:rgb(100%,0%,0%);stroke-opacity:0.5;stroke-miterlimit:10;" d="M 2.834584 2.835184 L -2.835338 -2.834738 " transform="matrix(2,0,0,2,28.346457,56.692913)"/>
<path style="fill-rule:nonzero;fill:rgb(50%,50%,0%);fill-opacity:0.1;stroke-width:0.566929;stroke-linecap:butt;stroke-linejoin:miter;stroke:rgb(100%,0%,0%);stroke-opacity:0.5;stroke-miterlimit:10;" d="M -14.173228 14.173075 L 14.172475 14.173075 L 14.172475 -28.346457 L -14.173228 -28.346457 Z M -14.173228 14.173075 " transform="matrix(2,0,0,2,28.346457,56.692913)"/>
<path style="fill:none;stroke-width:0.566929;stroke-linecap:butt;stroke-linejoin:miter;stroke:rgb(100%,0%,0%);stroke-opacity:0.5;stroke-miterlimit:10;" d="M -2.835338 2.835184 L 2.834584 -2.834738 " transform="matrix(2,0,0,2,28.346457,56.692913)"/>
<path style="fill:none;stroke-width:0.566929;stroke-linecap:butt;stroke-linejoin:miter;stroke:rgb(100%,0%,0%);stroke-opacity:0.5;stroke-miterlimit:10;" d="M 2.834584 2.835184 L -2.835338 -2.834738 " transform="matrix(2,0,0,2,28.346457,56.692913)"/>
<path style="fill-rule:nonzero;fill:rgb(50%,50%,0%);fill-opacity:0.1;stroke-width:0.566929;stroke-linecap:butt;stroke-linejoin:miter;stroke:rgb(100%,0%,0%);stroke-opacity:0.5;stroke-miterlimit:10;" d="M 0.000599779 -0.000753568 L 5.668569 -0.000753568 L 5.668569 -5.668722 L 0.000599779 -5.668722 Z M 0.000599779 -0.000753568 " transform="matrix(2,0,0,2,28.346457,56.692913)"/>
<path style=" stroke:none;fill-rule:nonzero;fill:rgb(0%,0%,0%);fill-opacity:1;" d="M 28.347656 56.691406 L 39.683594 56.691406 L 39.683594 45.355469 L 28.347656 45.355469 Z M 28.347656 56.691406 "/>
</g>
</svg>
