<?xml version="1.0" encoding="UTF-8"?>
<svg xmlns="http://www.w3.org/2000/svg" xmlns:xlink="http://www.w3.org/1999/xlink" width="79.422893pt" height="69.213583pt" viewBox="0 0 79.422893 69.213583" version="1.1">
<g id="surface45">
<path style="fill:none;stroke-width:0.566929;stroke-linecap:butt;stroke-linejoin:miter;stroke:rgb(100%,0%,0%);stroke-opacity:0.5;stroke-miterlimit:10;" d="M -2.834646 2.835276 L 2.835276 -2.834646 " transform="matrix(2,0,0,2,5.669291,5.669291)"/>
<path style="fill:none;stroke-width:0.566929;stroke-linecap:butt;stroke-linejoin:miter;stroke:rgb(100%,0%,0%);stroke-opacity:0.5;stroke-miterlimit:10;" d="M 2.835276 2.835276 L -2.834646 -2.834646 " transform="matrix(2,0,0,2,5.669291,5.669291)"/>
<path style="fill-rule:nonzero;fill:rgb(50%,50%,0%);fill-opacity:0.1;stroke-width:0.566929;stroke-linecap:butt;stroke-linejoin:miter;stroke:rgb(100%,0%,0%);stroke-opacity:0.5;stroke-miterlimit:10;" d="M -0.000661294 28.936839 L 36.876292 28.936839 L 36.876292 -0.000661294 L -0.000661294 -0.000661294 Z M -0.000661294 28.936839 " transform="matrix(2,0,0,2,5.669291,5.669291)"/>
<path style="fill:none;stroke-width:0.566929;stroke-linecap:butt;stroke-linejoin:miter;stroke:rgb(100%,0%,0%);stroke-opacity:0.5;stroke-miterlimit:10;" d="M -2.834646 2.835276 L 2.835276 -2.834646 " transform="matrix(2,0,0,2,5.669291,5.669291)"/>
<path style="fill:none;stroke-width:0.566929;stroke-linecap:butt;stroke-linejoin:miter;stroke:rgb(100%,0%,0%);stroke-opacity:0.5;stroke-miterlimit:10;" d="M 2.835276 2.835276 L -2.834646 -2.834646 " transform="matrix(2,0,0,2,5.669291,5.669291)"/>
<path style="fill-rule:nonzero;fill:rgb(50%,50%,0%);fill-opacity:0.1;stroke-width:0.566929;stroke-linecap:butt;stroke-linejoin:miter;stroke:rgb(100%,0%,0%);stroke-opacity:0.5;stroke-miterlimit:10;" d="M -0.000661294 28.936839 L 20.212229 28.936839 L 20.212229 -0.000661294 L -0.000661294 -0.000661294 Z M -0.000661294 28.936839 " transform="matrix(2,0,0,2,5.669291,5.669291)"/>
<path style="fill:none;stroke-width:0.566929;stroke-linecap:butt;stroke-linejoin:miter;stroke:rgb(100%,0%,0%);stroke-opacity:0.5;stroke-miterlimit:10;" d="M -2.834646 9.475901 L 2.835276 3.805979 " transform="matrix(2,0,0,2,5.669291,5.669291)"/>
<path style="fill:none;stroke-width:0.566929;stroke-linecap:butt;stroke-linejoin:miter;stroke:rgb(100%,0%,0%);stroke-opacity:0.5;stroke-miterlimit:10;" d="M 2.835276 9.475901 L -2.834646 3.805979 " transform="matrix(2,0,0,2,5.669291,5.669291)"/>
<path style="fill-rule:nonzero;fill:rgb(50%,50%,0%);fill-opacity:0.1;stroke-width:0.566929;stroke-linecap:butt;stroke-linejoin:miter;stroke:rgb(100%,0%,0%);stroke-opacity:0.5;stroke-miterlimit:10;" d="M -0.000661294 6.639964 L 19.821604 6.639964 L 19.821604 -0.000661294 L -0.000661294 -0.000661294 Z M -0.000661294 6.639964 " transform="matrix(2,0,0,2,5.669291,5.669291)"/>
<path style=" stroke:none;fill-rule:nonzero;fill:rgb(0%,0%,0%);fill-opacity:1;" d="M 11.136719 14.261719 C 11.730469 13.511719 12.480469 12.542969 12.980469 12.011719 C 13.605469 11.292969 14.417969 10.980469 15.355469 10.980469 L 15.355469 10.355469 C 14.824219 10.386719 14.230469 10.417969 13.699219 10.417969 C 13.105469 10.417969 12.042969 10.386719 11.792969 10.355469 L 11.792969 10.980469 C 12.230469 11.011719 12.386719 11.261719 12.386719 11.605469 C 12.386719 11.917969 12.167969 12.167969 12.074219 12.292969 L 10.855469 13.855469 L 9.292969 11.824219 C 9.105469 11.636719 9.105469 11.605469 9.105469 11.480469 C 9.105469 11.167969 9.417969 10.980469 9.792969 10.980469 L 9.792969 10.355469 C 9.292969 10.386719 7.980469 10.417969 7.636719 10.417969 C 7.230469 10.417969 6.292969 10.386719 5.761719 10.355469 L 5.761719 10.980469 C 7.167969 10.980469 7.167969 10.980469 8.105469 12.199219 L 10.074219 14.761719 L 8.199219 17.136719 C 7.261719 18.292969 6.074219 18.324219 5.667969 18.324219 L 5.667969 18.949219 C 6.167969 18.917969 6.792969 18.886719 7.324219 18.886719 C 7.886719 18.886719 8.730469 18.917969 9.199219 18.949219 L 9.199219 18.324219 C 8.761719 18.261719 8.636719 18.011719 8.636719 17.699219 C 8.636719 17.261719 9.199219 16.605469 10.417969 15.167969 L 11.949219 17.167969 C 12.105469 17.386719 12.355469 17.699219 12.355469 17.824219 C 12.355469 18.011719 12.167969 18.324219 11.636719 18.324219 L 11.636719 18.949219 C 12.230469 18.917969 13.355469 18.886719 13.792969 18.886719 C 14.324219 18.886719 15.105469 18.917969 15.699219 18.949219 L 15.699219 18.324219 C 14.636719 18.324219 14.261719 18.292969 13.824219 17.699219 Z M 11.136719 14.261719 "/>
<path style=" stroke:none;fill-rule:nonzero;fill:rgb(0%,0%,0%);fill-opacity:1;" d="M 21.65625 14.261719 C 22.25 13.511719 23 12.542969 23.5 12.011719 C 24.125 11.292969 24.9375 10.980469 25.875 10.980469 L 25.875 10.355469 C 25.34375 10.386719 24.75 10.417969 24.21875 10.417969 C 23.625 10.417969 22.5625 10.386719 22.3125 10.355469 L 22.3125 10.980469 C 22.75 11.011719 22.90625 11.261719 22.90625 11.605469 C 22.90625 11.917969 22.6875 12.167969 22.59375 12.292969 L 21.375 13.855469 L 19.8125 11.824219 C 19.625 11.636719 19.625 11.605469 19.625 11.480469 C 19.625 11.167969 19.9375 10.980469 20.3125 10.980469 L 20.3125 10.355469 C 19.8125 10.386719 18.5 10.417969 18.15625 10.417969 C 17.75 10.417969 16.8125 10.386719 16.28125 10.355469 L 16.28125 10.980469 C 17.6875 10.980469 17.6875 10.980469 18.625 12.199219 L 20.59375 14.761719 L 18.71875 17.136719 C 17.78125 18.292969 16.59375 18.324219 16.1875 18.324219 L 16.1875 18.949219 C 16.6875 18.917969 17.3125 18.886719 17.84375 18.886719 C 18.40625 18.886719 19.25 18.917969 19.71875 18.949219 L 19.71875 18.324219 C 19.28125 18.261719 19.15625 18.011719 19.15625 17.699219 C 19.15625 17.261719 19.71875 16.605469 20.9375 15.167969 L 22.46875 17.167969 C 22.625 17.386719 22.875 17.699219 22.875 17.824219 C 22.875 18.011719 22.6875 18.324219 22.15625 18.324219 L 22.15625 18.949219 C 22.75 18.917969 23.875 18.886719 24.3125 18.886719 C 24.84375 18.886719 25.625 18.917969 26.21875 18.949219 L 26.21875 18.324219 C 25.15625 18.324219 24.78125 18.292969 24.34375 17.699219 Z M 21.65625 14.261719 "/>
<path style=" stroke:none;fill-rule:nonzero;fill:rgb(0%,0%,0%);fill-opacity:1;" d="M 32.171875 14.261719 C 32.765625 13.511719 33.515625 12.542969 34.015625 12.011719 C 34.640625 11.292969 35.453125 10.980469 36.390625 10.980469 L 36.390625 10.355469 C 35.859375 10.386719 35.265625 10.417969 34.734375 10.417969 C 34.140625 10.417969 33.078125 10.386719 32.828125 10.355469 L 32.828125 10.980469 C 33.265625 11.011719 33.421875 11.261719 33.421875 11.605469 C 33.421875 11.917969 33.203125 12.167969 33.109375 12.292969 L 31.890625 13.855469 L 30.328125 11.824219 C 30.140625 11.636719 30.140625 11.605469 30.140625 11.480469 C 30.140625 11.167969 30.453125 10.980469 30.828125 10.980469 L 30.828125 10.355469 C 30.328125 10.386719 29.015625 10.417969 28.671875 10.417969 C 28.265625 10.417969 27.328125 10.386719 26.796875 10.355469 L 26.796875 10.980469 C 28.203125 10.980469 28.203125 10.980469 29.140625 12.199219 L 31.109375 14.761719 L 29.234375 17.136719 C 28.296875 18.292969 27.109375 18.324219 26.703125 18.324219 L 26.703125 18.949219 C 27.203125 18.917969 27.828125 18.886719 28.359375 18.886719 C 28.921875 18.886719 29.765625 18.917969 30.234375 18.949219 L 30.234375 18.324219 C 29.796875 18.261719 29.671875 18.011719 29.671875 17.699219 C 29.671875 17.261719 30.234375 16.605469 31.453125 15.167969 L 32.984375 17.167969 C 33.140625 17.386719 33.390625 17.699219 33.390625 17.824219 C 33.390625 18.011719 33.203125 18.324219 32.671875 18.324219 L 32.671875 18.949219 C 33.265625 18.917969 34.390625 18.886719 34.828125 18.886719 C 35.359375 18.886719 36.140625 18.917969 36.734375 18.949219 L 36.734375 18.324219 C 35.671875 18.324219 35.296875 18.292969 34.859375 17.699219 Z M 32.171875 14.261719 "/>
<path style=" stroke:none;fill-rule:nonzero;fill:rgb(0%,0%,0%);fill-opacity:1;" d="M 42.84375 6.199219 C 42.84375 5.699219 42.84375 5.667969 42.375 5.667969 C 41.125 6.949219 39.375 6.949219 38.75 6.949219 L 38.75 7.574219 C 39.15625 7.574219 40.3125 7.574219 41.34375 7.042969 L 41.34375 17.386719 C 41.34375 18.105469 41.28125 18.324219 39.5 18.324219 L 38.875 18.324219 L 38.875 18.949219 C 39.5625 18.886719 41.28125 18.886719 42.09375 18.886719 C 42.875 18.886719 44.625 18.886719 45.3125 18.949219 L 45.3125 18.324219 L 44.6875 18.324219 C 42.875 18.324219 42.84375 18.105469 42.84375 17.386719 Z M 42.84375 6.199219 "/>
<path style="fill:none;stroke-width:0.566929;stroke-linecap:butt;stroke-linejoin:miter;stroke:rgb(100%,0%,0%);stroke-opacity:0.5;stroke-miterlimit:10;" d="M -2.834646 16.116526 L 2.835276 10.446604 " transform="matrix(2,0,0,2,5.669291,5.669291)"/>
<path style="fill:none;stroke-width:0.566929;stroke-linecap:butt;stroke-linejoin:miter;stroke:rgb(100%,0%,0%);stroke-opacity:0.5;stroke-miterlimit:10;" d="M 2.835276 16.116526 L -2.834646 10.446604 " transform="matrix(2,0,0,2,5.669291,5.669291)"/>
<path style="fill-rule:nonzero;fill:rgb(50%,50%,0%);fill-opacity:0.1;stroke-width:0.566929;stroke-linecap:butt;stroke-linejoin:miter;stroke:rgb(100%,0%,0%);stroke-opacity:0.5;stroke-miterlimit:10;" d="M -0.000661294 15.327464 L 19.132151 15.327464 L 19.132151 6.639964 L -0.000661294 6.639964 Z M -0.000661294 15.327464 " transform="matrix(2,0,0,2,5.669291,5.669291)"/>
<path style=" stroke:none;fill-rule:nonzero;fill:rgb(0%,0%,0%);fill-opacity:1;" d="M 9.542969 28.792969 C 7.792969 28.792969 7.792969 26.792969 7.792969 26.355469 C 7.792969 25.824219 7.824219 25.167969 8.105469 24.667969 C 8.261719 24.449219 8.730469 23.886719 9.542969 23.886719 C 11.261719 23.886719 11.261719 25.855469 11.261719 26.324219 C 11.261719 26.855469 11.261719 27.511719 10.949219 28.011719 C 10.792969 28.230469 10.324219 28.792969 9.542969 28.792969 Z M 7.230469 29.574219 C 7.230469 29.511719 7.230469 29.042969 7.542969 28.636719 C 8.324219 29.199219 9.167969 29.261719 9.542969 29.261719 C 11.386719 29.261719 12.761719 27.886719 12.761719 26.355469 C 12.761719 25.605469 12.449219 24.886719 11.949219 24.417969 C 12.667969 23.730469 13.386719 23.636719 13.730469 23.636719 C 13.792969 23.636719 13.886719 23.636719 13.949219 23.667969 C 13.730469 23.730469 13.605469 23.949219 13.605469 24.199219 C 13.605469 24.542969 13.886719 24.761719 14.199219 24.761719 C 14.386719 24.761719 14.761719 24.636719 14.761719 24.167969 C 14.761719 23.824219 14.542969 23.199219 13.761719 23.199219 C 13.355469 23.199219 12.480469 23.324219 11.636719 24.136719 C 10.792969 23.480469 9.980469 23.417969 9.542969 23.417969 C 7.667969 23.417969 6.292969 24.792969 6.292969 26.324219 C 6.292969 27.199219 6.730469 27.949219 7.230469 28.386719 C 6.980469 28.667969 6.605469 29.324219 6.605469 30.042969 C 6.605469 30.667969 6.886719 31.417969 7.511719 31.824219 C 6.292969 32.136719 5.667969 33.011719 5.667969 33.792969 C 5.667969 35.230469 7.636719 36.324219 10.074219 36.324219 C 12.417969 36.324219 14.480469 35.324219 14.480469 33.761719 C 14.480469 33.074219 14.230469 32.042969 13.199219 31.480469 C 12.136719 30.949219 10.980469 30.949219 9.761719 30.949219 C 9.261719 30.949219 8.417969 30.949219 8.261719 30.917969 C 7.636719 30.824219 7.230469 30.230469 7.230469 29.574219 Z M 10.105469 35.886719 C 8.074219 35.886719 6.699219 34.855469 6.699219 33.792969 C 6.699219 32.886719 7.449219 32.136719 8.324219 32.105469 L 9.511719 32.105469 C 11.230469 32.105469 13.449219 32.105469 13.449219 33.792969 C 13.449219 34.886719 12.042969 35.886719 10.105469 35.886719 Z M 10.105469 35.886719 "/>
<path style=" stroke:none;fill-rule:nonzero;fill:rgb(0%,0%,0%);fill-opacity:1;" d="M 19.507812 28.792969 C 17.757812 28.792969 17.757812 26.792969 17.757812 26.355469 C 17.757812 25.824219 17.789062 25.167969 18.070312 24.667969 C 18.226562 24.449219 18.695312 23.886719 19.507812 23.886719 C 21.226562 23.886719 21.226562 25.855469 21.226562 26.324219 C 21.226562 26.855469 21.226562 27.511719 20.914062 28.011719 C 20.757812 28.230469 20.289062 28.792969 19.507812 28.792969 Z M 17.195312 29.574219 C 17.195312 29.511719 17.195312 29.042969 17.507812 28.636719 C 18.289062 29.199219 19.132812 29.261719 19.507812 29.261719 C 21.351562 29.261719 22.726562 27.886719 22.726562 26.355469 C 22.726562 25.605469 22.414062 24.886719 21.914062 24.417969 C 22.632812 23.730469 23.351562 23.636719 23.695312 23.636719 C 23.757812 23.636719 23.851562 23.636719 23.914062 23.667969 C 23.695312 23.730469 23.570312 23.949219 23.570312 24.199219 C 23.570312 24.542969 23.851562 24.761719 24.164062 24.761719 C 24.351562 24.761719 24.726562 24.636719 24.726562 24.167969 C 24.726562 23.824219 24.507812 23.199219 23.726562 23.199219 C 23.320312 23.199219 22.445312 23.324219 21.601562 24.136719 C 20.757812 23.480469 19.945312 23.417969 19.507812 23.417969 C 17.632812 23.417969 16.257812 24.792969 16.257812 26.324219 C 16.257812 27.199219 16.695312 27.949219 17.195312 28.386719 C 16.945312 28.667969 16.570312 29.324219 16.570312 30.042969 C 16.570312 30.667969 16.851562 31.417969 17.476562 31.824219 C 16.257812 32.136719 15.632812 33.011719 15.632812 33.792969 C 15.632812 35.230469 17.601562 36.324219 20.039062 36.324219 C 22.382812 36.324219 24.445312 35.324219 24.445312 33.761719 C 24.445312 33.074219 24.195312 32.042969 23.164062 31.480469 C 22.101562 30.949219 20.945312 30.949219 19.726562 30.949219 C 19.226562 30.949219 18.382812 30.949219 18.226562 30.917969 C 17.601562 30.824219 17.195312 30.230469 17.195312 29.574219 Z M 20.070312 35.886719 C 18.039062 35.886719 16.664062 34.855469 16.664062 33.792969 C 16.664062 32.886719 17.414062 32.136719 18.289062 32.105469 L 19.476562 32.105469 C 21.195312 32.105469 23.414062 32.105469 23.414062 33.792969 C 23.414062 34.886719 22.007812 35.886719 20.070312 35.886719 Z M 20.070312 35.886719 "/>
<path style=" stroke:none;fill-rule:nonzero;fill:rgb(0%,0%,0%);fill-opacity:1;" d="M 29.46875 28.792969 C 27.71875 28.792969 27.71875 26.792969 27.71875 26.355469 C 27.71875 25.824219 27.75 25.167969 28.03125 24.667969 C 28.1875 24.449219 28.65625 23.886719 29.46875 23.886719 C 31.1875 23.886719 31.1875 25.855469 31.1875 26.324219 C 31.1875 26.855469 31.1875 27.511719 30.875 28.011719 C 30.71875 28.230469 30.25 28.792969 29.46875 28.792969 Z M 27.15625 29.574219 C 27.15625 29.511719 27.15625 29.042969 27.46875 28.636719 C 28.25 29.199219 29.09375 29.261719 29.46875 29.261719 C 31.3125 29.261719 32.6875 27.886719 32.6875 26.355469 C 32.6875 25.605469 32.375 24.886719 31.875 24.417969 C 32.59375 23.730469 33.3125 23.636719 33.65625 23.636719 C 33.71875 23.636719 33.8125 23.636719 33.875 23.667969 C 33.65625 23.730469 33.53125 23.949219 33.53125 24.199219 C 33.53125 24.542969 33.8125 24.761719 34.125 24.761719 C 34.3125 24.761719 34.6875 24.636719 34.6875 24.167969 C 34.6875 23.824219 34.46875 23.199219 33.6875 23.199219 C 33.28125 23.199219 32.40625 23.324219 31.5625 24.136719 C 30.71875 23.480469 29.90625 23.417969 29.46875 23.417969 C 27.59375 23.417969 26.21875 24.792969 26.21875 26.324219 C 26.21875 27.199219 26.65625 27.949219 27.15625 28.386719 C 26.90625 28.667969 26.53125 29.324219 26.53125 30.042969 C 26.53125 30.667969 26.8125 31.417969 27.4375 31.824219 C 26.21875 32.136719 25.59375 33.011719 25.59375 33.792969 C 25.59375 35.230469 27.5625 36.324219 30 36.324219 C 32.34375 36.324219 34.40625 35.324219 34.40625 33.761719 C 34.40625 33.074219 34.15625 32.042969 33.125 31.480469 C 32.0625 30.949219 30.90625 30.949219 29.6875 30.949219 C 29.1875 30.949219 28.34375 30.949219 28.1875 30.917969 C 27.5625 30.824219 27.15625 30.230469 27.15625 29.574219 Z M 30.03125 35.886719 C 28 35.886719 26.625 34.855469 26.625 33.792969 C 26.625 32.886719 27.375 32.136719 28.25 32.105469 L 29.4375 32.105469 C 31.15625 32.105469 33.375 32.105469 33.375 33.792969 C 33.375 34.886719 31.96875 35.886719 30.03125 35.886719 Z M 30.03125 35.886719 "/>
<path style=" stroke:none;fill-rule:nonzero;fill:rgb(0%,0%,0%);fill-opacity:1;" d="M 37.527344 30.699219 L 39.652344 28.636719 C 42.746094 25.886719 43.933594 24.824219 43.933594 22.824219 C 43.933594 20.542969 42.152344 18.949219 39.714844 18.949219 C 37.464844 18.949219 35.996094 20.792969 35.996094 22.574219 C 35.996094 23.667969 36.996094 23.667969 37.058594 23.667969 C 37.402344 23.667969 38.089844 23.449219 38.089844 22.605469 C 38.089844 22.105469 37.714844 21.574219 37.027344 21.574219 C 36.871094 21.574219 36.839844 21.574219 36.777344 21.605469 C 37.214844 20.292969 38.308594 19.574219 39.464844 19.574219 C 41.277344 19.574219 42.121094 21.199219 42.121094 22.824219 C 42.121094 24.417969 41.152344 25.980469 40.027344 27.230469 L 36.214844 31.480469 C 35.996094 31.699219 35.996094 31.761719 35.996094 32.230469 L 43.402344 32.230469 L 43.933594 28.761719 L 43.464844 28.761719 C 43.339844 29.355469 43.214844 30.230469 42.996094 30.542969 C 42.871094 30.699219 41.558594 30.699219 41.121094 30.699219 Z M 37.527344 30.699219 "/>
<path style="fill:none;stroke-width:0.566929;stroke-linecap:butt;stroke-linejoin:miter;stroke:rgb(100%,0%,0%);stroke-opacity:0.5;stroke-miterlimit:10;" d="M -2.834646 24.804026 L 2.835276 19.134104 " transform="matrix(2,0,0,2,5.669291,5.669291)"/>
<path style="fill:none;stroke-width:0.566929;stroke-linecap:butt;stroke-linejoin:miter;stroke:rgb(100%,0%,0%);stroke-opacity:0.5;stroke-miterlimit:10;" d="M 2.835276 24.804026 L -2.834646 19.134104 " transform="matrix(2,0,0,2,5.669291,5.669291)"/>
<path style="fill-rule:nonzero;fill:rgb(50%,50%,0%);fill-opacity:0.1;stroke-width:0.566929;stroke-linecap:butt;stroke-linejoin:miter;stroke:rgb(100%,0%,0%);stroke-opacity:0.5;stroke-miterlimit:10;" d="M -0.000661294 22.186839 L 20.212229 22.186839 L 20.212229 15.327464 L -0.000661294 15.327464 Z M -0.000661294 22.186839 " transform="matrix(2,0,0,2,5.669291,5.669291)"/>
<path style=" stroke:none;fill-rule:nonzero;fill:rgb(0%,0%,0%);fill-opacity:1;" d="M 11.136719 44.917969 C 11.730469 44.167969 12.480469 43.199219 12.980469 42.667969 C 13.605469 41.949219 14.417969 41.636719 15.355469 41.636719 L 15.355469 41.011719 C 14.824219 41.042969 14.230469 41.074219 13.699219 41.074219 C 13.105469 41.074219 12.042969 41.042969 11.792969 41.011719 L 11.792969 41.636719 C 12.230469 41.667969 12.386719 41.917969 12.386719 42.261719 C 12.386719 42.574219 12.167969 42.824219 12.074219 42.949219 L 10.855469 44.511719 L 9.292969 42.480469 C 9.105469 42.292969 9.105469 42.261719 9.105469 42.136719 C 9.105469 41.824219 9.417969 41.636719 9.792969 41.636719 L 9.792969 41.011719 C 9.292969 41.042969 7.980469 41.074219 7.636719 41.074219 C 7.230469 41.074219 6.292969 41.042969 5.761719 41.011719 L 5.761719 41.636719 C 7.167969 41.636719 7.167969 41.636719 8.105469 42.855469 L 10.074219 45.417969 L 8.199219 47.792969 C 7.261719 48.949219 6.074219 48.980469 5.667969 48.980469 L 5.667969 49.605469 C 6.167969 49.574219 6.792969 49.542969 7.324219 49.542969 C 7.886719 49.542969 8.730469 49.574219 9.199219 49.605469 L 9.199219 48.980469 C 8.761719 48.917969 8.636719 48.667969 8.636719 48.355469 C 8.636719 47.917969 9.199219 47.261719 10.417969 45.824219 L 11.949219 47.824219 C 12.105469 48.042969 12.355469 48.355469 12.355469 48.480469 C 12.355469 48.667969 12.167969 48.980469 11.636719 48.980469 L 11.636719 49.605469 C 12.230469 49.574219 13.355469 49.542969 13.792969 49.542969 C 14.324219 49.542969 15.105469 49.574219 15.699219 49.605469 L 15.699219 48.980469 C 14.636719 48.980469 14.261719 48.949219 13.824219 48.355469 Z M 11.136719 44.917969 "/>
<path style=" stroke:none;fill-rule:nonzero;fill:rgb(0%,0%,0%);fill-opacity:1;" d="M 21.65625 44.917969 C 22.25 44.167969 23 43.199219 23.5 42.667969 C 24.125 41.949219 24.9375 41.636719 25.875 41.636719 L 25.875 41.011719 C 25.34375 41.042969 24.75 41.074219 24.21875 41.074219 C 23.625 41.074219 22.5625 41.042969 22.3125 41.011719 L 22.3125 41.636719 C 22.75 41.667969 22.90625 41.917969 22.90625 42.261719 C 22.90625 42.574219 22.6875 42.824219 22.59375 42.949219 L 21.375 44.511719 L 19.8125 42.480469 C 19.625 42.292969 19.625 42.261719 19.625 42.136719 C 19.625 41.824219 19.9375 41.636719 20.3125 41.636719 L 20.3125 41.011719 C 19.8125 41.042969 18.5 41.074219 18.15625 41.074219 C 17.75 41.074219 16.8125 41.042969 16.28125 41.011719 L 16.28125 41.636719 C 17.6875 41.636719 17.6875 41.636719 18.625 42.855469 L 20.59375 45.417969 L 18.71875 47.792969 C 17.78125 48.949219 16.59375 48.980469 16.1875 48.980469 L 16.1875 49.605469 C 16.6875 49.574219 17.3125 49.542969 17.84375 49.542969 C 18.40625 49.542969 19.25 49.574219 19.71875 49.605469 L 19.71875 48.980469 C 19.28125 48.917969 19.15625 48.667969 19.15625 48.355469 C 19.15625 47.917969 19.71875 47.261719 20.9375 45.824219 L 22.46875 47.824219 C 22.625 48.042969 22.875 48.355469 22.875 48.480469 C 22.875 48.667969 22.6875 48.980469 22.15625 48.980469 L 22.15625 49.605469 C 22.75 49.574219 23.875 49.542969 24.3125 49.542969 C 24.84375 49.542969 25.625 49.574219 26.21875 49.605469 L 26.21875 48.980469 C 25.15625 48.980469 24.78125 48.949219 24.34375 48.355469 Z M 21.65625 44.917969 "/>
<path style=" stroke:none;fill-rule:nonzero;fill:rgb(0%,0%,0%);fill-opacity:1;" d="M 32.171875 44.917969 C 32.765625 44.167969 33.515625 43.199219 34.015625 42.667969 C 34.640625 41.949219 35.453125 41.636719 36.390625 41.636719 L 36.390625 41.011719 C 35.859375 41.042969 35.265625 41.074219 34.734375 41.074219 C 34.140625 41.074219 33.078125 41.042969 32.828125 41.011719 L 32.828125 41.636719 C 33.265625 41.667969 33.421875 41.917969 33.421875 42.261719 C 33.421875 42.574219 33.203125 42.824219 33.109375 42.949219 L 31.890625 44.511719 L 30.328125 42.480469 C 30.140625 42.292969 30.140625 42.261719 30.140625 42.136719 C 30.140625 41.824219 30.453125 41.636719 30.828125 41.636719 L 30.828125 41.011719 C 30.328125 41.042969 29.015625 41.074219 28.671875 41.074219 C 28.265625 41.074219 27.328125 41.042969 26.796875 41.011719 L 26.796875 41.636719 C 28.203125 41.636719 28.203125 41.636719 29.140625 42.855469 L 31.109375 45.417969 L 29.234375 47.792969 C 28.296875 48.949219 27.109375 48.980469 26.703125 48.980469 L 26.703125 49.605469 C 27.203125 49.574219 27.828125 49.542969 28.359375 49.542969 C 28.921875 49.542969 29.765625 49.574219 30.234375 49.605469 L 30.234375 48.980469 C 29.796875 48.917969 29.671875 48.667969 29.671875 48.355469 C 29.671875 47.917969 30.234375 47.261719 31.453125 45.824219 L 32.984375 47.824219 C 33.140625 48.042969 33.390625 48.355469 33.390625 48.480469 C 33.390625 48.667969 33.203125 48.980469 32.671875 48.980469 L 32.671875 49.605469 C 33.265625 49.574219 34.390625 49.542969 34.828125 49.542969 C 35.359375 49.542969 36.140625 49.574219 36.734375 49.605469 L 36.734375 48.980469 C 35.671875 48.980469 35.296875 48.949219 34.859375 48.355469 Z M 32.171875 44.917969 "/>
<path style=" stroke:none;fill-rule:nonzero;fill:rgb(0%,0%,0%);fill-opacity:1;" d="M 42.75 42.574219 C 44.375 42.042969 45.53125 40.667969 45.53125 39.074219 C 45.53125 37.449219 43.78125 36.324219 41.875 36.324219 C 39.875 36.324219 38.34375 37.511719 38.34375 39.042969 C 38.34375 39.699219 38.78125 40.074219 39.375 40.074219 C 39.96875 40.074219 40.375 39.636719 40.375 39.042969 C 40.375 38.074219 39.4375 38.074219 39.15625 38.074219 C 39.75 37.074219 41.0625 36.824219 41.78125 36.824219 C 42.625 36.824219 43.71875 37.261719 43.71875 39.042969 C 43.71875 39.292969 43.65625 40.449219 43.15625 41.324219 C 42.5625 42.292969 41.875 42.355469 41.375 42.355469 C 41.21875 42.386719 40.75 42.417969 40.59375 42.417969 C 40.4375 42.449219 40.3125 42.480469 40.3125 42.667969 C 40.3125 42.886719 40.4375 42.886719 40.78125 42.886719 L 41.65625 42.886719 C 43.28125 42.886719 44.03125 44.230469 44.03125 46.199219 C 44.03125 48.917969 42.65625 49.480469 41.78125 49.480469 C 40.90625 49.480469 39.40625 49.136719 38.71875 47.980469 C 39.40625 48.074219 40.03125 47.636719 40.03125 46.886719 C 40.03125 46.167969 39.5 45.761719 38.9375 45.761719 C 38.4375 45.761719 37.8125 46.042969 37.8125 46.917969 C 37.8125 48.730469 39.65625 50.042969 41.84375 50.042969 C 44.28125 50.042969 46.09375 48.230469 46.09375 46.199219 C 46.09375 44.574219 44.8125 43.011719 42.75 42.574219 Z M 42.75 42.574219 "/>
<path style="fill:none;stroke-width:0.566929;stroke-linecap:butt;stroke-linejoin:miter;stroke:rgb(100%,0%,0%);stroke-opacity:0.5;stroke-miterlimit:10;" d="M -2.834646 31.772776 L 2.835276 26.102854 " transform="matrix(2,0,0,2,5.669291,5.669291)"/>
<path style="fill:none;stroke-width:0.566929;stroke-linecap:butt;stroke-linejoin:miter;stroke:rgb(100%,0%,0%);stroke-opacity:0.5;stroke-miterlimit:10;" d="M 2.835276 31.772776 L -2.834646 26.102854 " transform="matrix(2,0,0,2,5.669291,5.669291)"/>
<path style="fill-rule:nonzero;fill:rgb(50%,50%,0%);fill-opacity:0.1;stroke-width:0.566929;stroke-linecap:butt;stroke-linejoin:miter;stroke:rgb(100%,0%,0%);stroke-opacity:0.5;stroke-miterlimit:10;" d="M -0.000661294 28.936839 L 15.079417 28.936839 L 15.079417 22.186839 L -0.000661294 22.186839 Z M -0.000661294 28.936839 " transform="matrix(2,0,0,2,5.669291,5.669291)"/>
<path style=" stroke:none;fill-rule:nonzero;fill:rgb(0%,0%,0%);fill-opacity:1;" d="M 11.136719 58.855469 C 11.730469 58.105469 12.480469 57.136719 12.980469 56.605469 C 13.605469 55.886719 14.417969 55.574219 15.355469 55.574219 L 15.355469 54.949219 C 14.824219 54.980469 14.230469 55.011719 13.699219 55.011719 C 13.105469 55.011719 12.042969 54.980469 11.792969 54.949219 L 11.792969 55.574219 C 12.230469 55.605469 12.386719 55.855469 12.386719 56.199219 C 12.386719 56.511719 12.167969 56.761719 12.074219 56.886719 L 10.855469 58.449219 L 9.292969 56.417969 C 9.105469 56.230469 9.105469 56.199219 9.105469 56.074219 C 9.105469 55.761719 9.417969 55.574219 9.792969 55.574219 L 9.792969 54.949219 C 9.292969 54.980469 7.980469 55.011719 7.636719 55.011719 C 7.230469 55.011719 6.292969 54.980469 5.761719 54.949219 L 5.761719 55.574219 C 7.167969 55.574219 7.167969 55.574219 8.105469 56.792969 L 10.074219 59.355469 L 8.199219 61.730469 C 7.261719 62.886719 6.074219 62.917969 5.667969 62.917969 L 5.667969 63.542969 C 6.167969 63.511719 6.792969 63.480469 7.324219 63.480469 C 7.886719 63.480469 8.730469 63.511719 9.199219 63.542969 L 9.199219 62.917969 C 8.761719 62.855469 8.636719 62.605469 8.636719 62.292969 C 8.636719 61.855469 9.199219 61.199219 10.417969 59.761719 L 11.949219 61.761719 C 12.105469 61.980469 12.355469 62.292969 12.355469 62.417969 C 12.355469 62.605469 12.167969 62.917969 11.636719 62.917969 L 11.636719 63.542969 C 12.230469 63.511719 13.355469 63.480469 13.792969 63.480469 C 14.324219 63.480469 15.105469 63.511719 15.699219 63.542969 L 15.699219 62.917969 C 14.636719 62.917969 14.261719 62.886719 13.824219 62.292969 Z M 11.136719 58.855469 "/>
<path style=" stroke:none;fill-rule:nonzero;fill:rgb(0%,0%,0%);fill-opacity:1;" d="M 21.65625 58.855469 C 22.25 58.105469 23 57.136719 23.5 56.605469 C 24.125 55.886719 24.9375 55.574219 25.875 55.574219 L 25.875 54.949219 C 25.34375 54.980469 24.75 55.011719 24.21875 55.011719 C 23.625 55.011719 22.5625 54.980469 22.3125 54.949219 L 22.3125 55.574219 C 22.75 55.605469 22.90625 55.855469 22.90625 56.199219 C 22.90625 56.511719 22.6875 56.761719 22.59375 56.886719 L 21.375 58.449219 L 19.8125 56.417969 C 19.625 56.230469 19.625 56.199219 19.625 56.074219 C 19.625 55.761719 19.9375 55.574219 20.3125 55.574219 L 20.3125 54.949219 C 19.8125 54.980469 18.5 55.011719 18.15625 55.011719 C 17.75 55.011719 16.8125 54.980469 16.28125 54.949219 L 16.28125 55.574219 C 17.6875 55.574219 17.6875 55.574219 18.625 56.792969 L 20.59375 59.355469 L 18.71875 61.730469 C 17.78125 62.886719 16.59375 62.917969 16.1875 62.917969 L 16.1875 63.542969 C 16.6875 63.511719 17.3125 63.480469 17.84375 63.480469 C 18.40625 63.480469 19.25 63.511719 19.71875 63.542969 L 19.71875 62.917969 C 19.28125 62.855469 19.15625 62.605469 19.15625 62.292969 C 19.15625 61.855469 19.71875 61.199219 20.9375 59.761719 L 22.46875 61.761719 C 22.625 61.980469 22.875 62.292969 22.875 62.417969 C 22.875 62.605469 22.6875 62.917969 22.15625 62.917969 L 22.15625 63.542969 C 22.75 63.511719 23.875 63.480469 24.3125 63.480469 C 24.84375 63.480469 25.625 63.511719 26.21875 63.542969 L 26.21875 62.917969 C 25.15625 62.917969 24.78125 62.886719 24.34375 62.292969 Z M 21.65625 58.855469 "/>
<path style=" stroke:none;fill-rule:nonzero;fill:rgb(0%,0%,0%);fill-opacity:1;" d="M 32.328125 60.261719 L 32.328125 61.980469 C 32.328125 62.699219 32.265625 62.917969 30.796875 62.917969 L 30.390625 62.917969 L 30.390625 63.542969 C 31.203125 63.480469 32.234375 63.480469 33.078125 63.480469 C 33.921875 63.480469 34.953125 63.480469 35.796875 63.542969 L 35.796875 62.917969 L 35.359375 62.917969 C 33.890625 62.917969 33.859375 62.699219 33.859375 61.980469 L 33.859375 60.261719 L 35.828125 60.261719 L 35.828125 59.636719 L 33.859375 59.636719 L 33.859375 50.574219 C 33.859375 50.167969 33.859375 50.042969 33.515625 50.042969 C 33.359375 50.042969 33.296875 50.042969 33.140625 50.292969 L 27.015625 59.636719 L 27.015625 60.261719 Z M 32.421875 59.636719 L 27.578125 59.636719 L 32.421875 52.199219 Z M 32.421875 59.636719 "/>
<path style="fill:none;stroke-width:0.566929;stroke-linecap:butt;stroke-linejoin:miter;stroke:rgb(100%,0%,0%);stroke-opacity:0.5;stroke-miterlimit:10;" d="M 17.378245 2.835276 L 23.046214 -2.834646 " transform="matrix(2,0,0,2,5.669291,5.669291)"/>
<path style="fill:none;stroke-width:0.566929;stroke-linecap:butt;stroke-linejoin:miter;stroke:rgb(100%,0%,0%);stroke-opacity:0.5;stroke-miterlimit:10;" d="M 23.046214 2.835276 L 17.378245 -2.834646 " transform="matrix(2,0,0,2,5.669291,5.669291)"/>
<path style="fill-rule:nonzero;fill:rgb(50%,50%,0%);fill-opacity:0.1;stroke-width:0.566929;stroke-linecap:butt;stroke-linejoin:miter;stroke:rgb(100%,0%,0%);stroke-opacity:0.5;stroke-miterlimit:10;" d="M 20.212229 21.030589 L 36.876292 21.030589 L 36.876292 -0.000661294 L 20.212229 -0.000661294 Z M 20.212229 21.030589 " transform="matrix(2,0,0,2,5.669291,5.669291)"/>
<path style="fill:none;stroke-width:0.566929;stroke-linecap:butt;stroke-linejoin:miter;stroke:rgb(100%,0%,0%);stroke-opacity:0.5;stroke-miterlimit:10;" d="M 17.378245 9.475901 L 23.046214 3.805979 " transform="matrix(2,0,0,2,5.669291,5.669291)"/>
<path style="fill:none;stroke-width:0.566929;stroke-linecap:butt;stroke-linejoin:miter;stroke:rgb(100%,0%,0%);stroke-opacity:0.5;stroke-miterlimit:10;" d="M 23.046214 9.475901 L 17.378245 3.805979 " transform="matrix(2,0,0,2,5.669291,5.669291)"/>
<path style="fill-rule:nonzero;fill:rgb(50%,50%,0%);fill-opacity:0.1;stroke-width:0.566929;stroke-linecap:butt;stroke-linejoin:miter;stroke:rgb(100%,0%,0%);stroke-opacity:0.5;stroke-miterlimit:10;" d="M 20.212229 6.858714 L 33.846995 6.858714 L 33.846995 -0.000661294 L 20.212229 -0.000661294 Z M 20.212229 6.858714 " transform="matrix(2,0,0,2,5.669291,5.669291)"/>
<path style=" stroke:none;fill-rule:nonzero;fill:rgb(0%,0%,0%);fill-opacity:1;" d="M 50.1875 6.199219 C 50.1875 5.699219 50.1875 5.667969 49.71875 5.667969 C 48.46875 6.949219 46.71875 6.949219 46.09375 6.949219 L 46.09375 7.574219 C 46.5 7.574219 47.65625 7.574219 48.6875 7.042969 L 48.6875 17.386719 C 48.6875 18.105469 48.625 18.324219 46.84375 18.324219 L 46.21875 18.324219 L 46.21875 18.949219 C 46.90625 18.886719 48.625 18.886719 49.4375 18.886719 C 50.21875 18.886719 51.96875 18.886719 52.65625 18.949219 L 52.65625 18.324219 L 52.03125 18.324219 C 50.21875 18.324219 50.1875 18.105469 50.1875 17.386719 Z M 50.1875 6.199219 "/>
<path style=" stroke:none;fill-rule:nonzero;fill:rgb(0%,0%,0%);fill-opacity:1;" d="M 56.804688 17.417969 L 58.929688 15.355469 C 62.023438 12.605469 63.210938 11.542969 63.210938 9.542969 C 63.210938 7.261719 61.429688 5.667969 58.992188 5.667969 C 56.742188 5.667969 55.273438 7.511719 55.273438 9.292969 C 55.273438 10.386719 56.273438 10.386719 56.335938 10.386719 C 56.679688 10.386719 57.367188 10.167969 57.367188 9.324219 C 57.367188 8.824219 56.992188 8.292969 56.304688 8.292969 C 56.148438 8.292969 56.117188 8.292969 56.054688 8.324219 C 56.492188 7.011719 57.585938 6.292969 58.742188 6.292969 C 60.554688 6.292969 61.398438 7.917969 61.398438 9.542969 C 61.398438 11.136719 60.429688 12.699219 59.304688 13.949219 L 55.492188 18.199219 C 55.273438 18.417969 55.273438 18.480469 55.273438 18.949219 L 62.679688 18.949219 L 63.210938 15.480469 L 62.742188 15.480469 C 62.617188 16.074219 62.492188 16.949219 62.273438 17.261719 C 62.148438 17.417969 60.835938 17.417969 60.398438 17.417969 Z M 56.804688 17.417969 "/>
<path style=" stroke:none;fill-rule:nonzero;fill:rgb(0%,0%,0%);fill-opacity:1;" d="M 70.019531 11.917969 C 71.644531 11.386719 72.800781 10.011719 72.800781 8.417969 C 72.800781 6.792969 71.050781 5.667969 69.144531 5.667969 C 67.144531 5.667969 65.613281 6.855469 65.613281 8.386719 C 65.613281 9.042969 66.050781 9.417969 66.644531 9.417969 C 67.238281 9.417969 67.644531 8.980469 67.644531 8.386719 C 67.644531 7.417969 66.707031 7.417969 66.425781 7.417969 C 67.019531 6.417969 68.332031 6.167969 69.050781 6.167969 C 69.894531 6.167969 70.988281 6.605469 70.988281 8.386719 C 70.988281 8.636719 70.925781 9.792969 70.425781 10.667969 C 69.832031 11.636719 69.144531 11.699219 68.644531 11.699219 C 68.488281 11.730469 68.019531 11.761719 67.863281 11.761719 C 67.707031 11.792969 67.582031 11.824219 67.582031 12.011719 C 67.582031 12.230469 67.707031 12.230469 68.050781 12.230469 L 68.925781 12.230469 C 70.550781 12.230469 71.300781 13.574219 71.300781 15.542969 C 71.300781 18.261719 69.925781 18.824219 69.050781 18.824219 C 68.175781 18.824219 66.675781 18.480469 65.988281 17.324219 C 66.675781 17.417969 67.300781 16.980469 67.300781 16.230469 C 67.300781 15.511719 66.769531 15.105469 66.207031 15.105469 C 65.707031 15.105469 65.082031 15.386719 65.082031 16.261719 C 65.082031 18.074219 66.925781 19.386719 69.113281 19.386719 C 71.550781 19.386719 73.363281 17.574219 73.363281 15.542969 C 73.363281 13.917969 72.082031 12.355469 70.019531 11.917969 Z M 70.019531 11.917969 "/>
<path style="fill:none;stroke-width:0.566929;stroke-linecap:butt;stroke-linejoin:miter;stroke:rgb(100%,0%,0%);stroke-opacity:0.5;stroke-miterlimit:10;" d="M 17.378245 16.725901 L 23.046214 11.055979 " transform="matrix(2,0,0,2,5.669291,5.669291)"/>
<path style="fill:none;stroke-width:0.566929;stroke-linecap:butt;stroke-linejoin:miter;stroke:rgb(100%,0%,0%);stroke-opacity:0.5;stroke-miterlimit:10;" d="M 23.046214 16.725901 L 17.378245 11.055979 " transform="matrix(2,0,0,2,5.669291,5.669291)"/>
<path style="fill-rule:nonzero;fill:rgb(50%,50%,0%);fill-opacity:0.1;stroke-width:0.566929;stroke-linecap:butt;stroke-linejoin:miter;stroke:rgb(100%,0%,0%);stroke-opacity:0.5;stroke-miterlimit:10;" d="M 20.212229 13.999339 L 36.471995 13.999339 L 36.471995 6.858714 L 20.212229 6.858714 Z M 20.212229 13.999339 " transform="matrix(2,0,0,2,5.669291,5.669291)"/>
<path style=" stroke:none;fill-rule:nonzero;fill:rgb(0%,0%,0%);fill-opacity:1;" d="M 51.5625 28.761719 C 52.15625 28.011719 52.90625 27.042969 53.40625 26.511719 C 54.03125 25.792969 54.84375 25.480469 55.78125 25.480469 L 55.78125 24.855469 C 55.25 24.886719 54.65625 24.917969 54.125 24.917969 C 53.53125 24.917969 52.46875 24.886719 52.21875 24.855469 L 52.21875 25.480469 C 52.65625 25.511719 52.8125 25.761719 52.8125 26.105469 C 52.8125 26.417969 52.59375 26.667969 52.5 26.792969 L 51.28125 28.355469 L 49.71875 26.324219 C 49.53125 26.136719 49.53125 26.105469 49.53125 25.980469 C 49.53125 25.667969 49.84375 25.480469 50.21875 25.480469 L 50.21875 24.855469 C 49.71875 24.886719 48.40625 24.917969 48.0625 24.917969 C 47.65625 24.917969 46.71875 24.886719 46.1875 24.855469 L 46.1875 25.480469 C 47.59375 25.480469 47.59375 25.480469 48.53125 26.699219 L 50.5 29.261719 L 48.625 31.636719 C 47.6875 32.792969 46.5 32.824219 46.09375 32.824219 L 46.09375 33.449219 C 46.59375 33.417969 47.21875 33.386719 47.75 33.386719 C 48.3125 33.386719 49.15625 33.417969 49.625 33.449219 L 49.625 32.824219 C 49.1875 32.761719 49.0625 32.511719 49.0625 32.199219 C 49.0625 31.761719 49.625 31.105469 50.84375 29.667969 L 52.375 31.667969 C 52.53125 31.886719 52.78125 32.199219 52.78125 32.324219 C 52.78125 32.511719 52.59375 32.824219 52.0625 32.824219 L 52.0625 33.449219 C 52.65625 33.417969 53.78125 33.386719 54.21875 33.386719 C 54.75 33.386719 55.53125 33.417969 56.125 33.449219 L 56.125 32.824219 C 55.0625 32.824219 54.6875 32.792969 54.25 32.199219 Z M 51.5625 28.761719 "/>
<path style=" stroke:none;fill-rule:nonzero;fill:rgb(0%,0%,0%);fill-opacity:1;" d="M 59.859375 24.855469 L 59.859375 22.542969 C 59.859375 20.792969 60.796875 19.824219 61.671875 19.824219 C 61.734375 19.824219 62.046875 19.824219 62.328125 19.980469 C 62.109375 20.042969 61.734375 20.324219 61.734375 20.824219 C 61.734375 21.261719 62.046875 21.667969 62.609375 21.667969 C 63.171875 21.667969 63.484375 21.261719 63.484375 20.792969 C 63.484375 20.042969 62.734375 19.386719 61.671875 19.386719 C 60.296875 19.386719 58.578125 20.449219 58.578125 22.574219 L 58.578125 24.855469 L 57.015625 24.855469 L 57.015625 25.480469 L 58.578125 25.480469 L 58.578125 31.949219 C 58.578125 32.824219 58.359375 32.824219 57.046875 32.824219 L 57.046875 33.449219 C 57.828125 33.417969 58.765625 33.386719 59.296875 33.386719 C 60.109375 33.386719 61.046875 33.386719 61.828125 33.449219 L 61.828125 32.824219 L 61.421875 32.824219 C 59.953125 32.824219 59.921875 32.605469 59.921875 31.886719 L 59.921875 25.480469 L 62.171875 25.480469 L 62.171875 24.855469 Z M 59.859375 24.855469 "/>
<path style=" stroke:none;fill-rule:nonzero;fill:rgb(0%,0%,0%);fill-opacity:1;" d="M 70.011719 32.355469 L 70.011719 33.667969 L 72.949219 33.449219 L 72.949219 32.824219 C 71.574219 32.824219 71.386719 32.699219 71.386719 31.699219 L 71.386719 19.605469 L 68.542969 19.824219 L 68.542969 20.449219 C 69.917969 20.449219 70.074219 20.574219 70.074219 21.574219 L 70.074219 25.886719 C 69.511719 25.167969 68.636719 24.636719 67.574219 24.636719 C 65.230469 24.636719 63.136719 26.605469 63.136719 29.167969 C 63.136719 31.699219 65.074219 33.667969 67.355469 33.667969 C 68.636719 33.667969 69.511719 32.980469 70.011719 32.355469 Z M 70.011719 27.011719 L 70.011719 31.105469 C 70.011719 31.449219 70.011719 31.480469 69.792969 31.824219 C 69.199219 32.792969 68.324219 33.230469 67.449219 33.230469 C 66.542969 33.230469 65.824219 32.699219 65.355469 31.949219 C 64.855469 31.136719 64.792969 30.011719 64.792969 29.167969 C 64.792969 28.449219 64.824219 27.261719 65.386719 26.355469 C 65.824219 25.730469 66.574219 25.074219 67.667969 25.074219 C 68.355469 25.074219 69.199219 25.386719 69.792969 26.261719 C 70.011719 26.605469 70.011719 26.636719 70.011719 27.011719 Z M 70.011719 27.011719 "/>
<path style=" stroke:none;fill-rule:nonzero;fill:rgb(0%,0%,0%);fill-opacity:1;" d="M 77.050781 19.605469 L 74.175781 19.824219 L 74.175781 20.449219 C 75.582031 20.449219 75.738281 20.574219 75.738281 21.574219 L 75.738281 31.949219 C 75.738281 32.824219 75.519531 32.824219 74.175781 32.824219 L 74.175781 33.449219 C 74.832031 33.417969 75.894531 33.386719 76.394531 33.386719 C 76.894531 33.386719 77.863281 33.417969 78.613281 33.449219 L 78.613281 32.824219 C 77.269531 32.824219 77.050781 32.824219 77.050781 31.949219 Z M 77.050781 19.605469 "/>
<path style="fill:none;stroke-width:0.566929;stroke-linecap:butt;stroke-linejoin:miter;stroke:rgb(100%,0%,0%);stroke-opacity:0.5;stroke-miterlimit:10;" d="M 17.378245 23.757151 L 23.046214 18.087229 " transform="matrix(2,0,0,2,5.669291,5.669291)"/>
<path style="fill:none;stroke-width:0.566929;stroke-linecap:butt;stroke-linejoin:miter;stroke:rgb(100%,0%,0%);stroke-opacity:0.5;stroke-miterlimit:10;" d="M 23.046214 23.757151 L 17.378245 18.087229 " transform="matrix(2,0,0,2,5.669291,5.669291)"/>
<path style="fill-rule:nonzero;fill:rgb(50%,50%,0%);fill-opacity:0.1;stroke-width:0.566929;stroke-linecap:butt;stroke-linejoin:miter;stroke:rgb(100%,0%,0%);stroke-opacity:0.5;stroke-miterlimit:10;" d="M 20.212229 21.030589 L 36.876292 21.030589 L 36.876292 13.999339 L 20.212229 13.999339 Z M 20.212229 21.030589 " transform="matrix(2,0,0,2,5.669291,5.669291)"/>
<path style=" stroke:none;fill-rule:nonzero;fill:rgb(0%,0%,0%);fill-opacity:1;" d="M 49.59375 43.636719 C 50.03125 43.730469 51.65625 44.042969 51.65625 45.480469 C 51.65625 46.480469 50.96875 47.292969 49.40625 47.292969 C 47.71875 47.292969 47 46.167969 46.625 44.449219 C 46.5625 44.199219 46.5625 44.136719 46.34375 44.136719 C 46.09375 44.136719 46.09375 44.261719 46.09375 44.605469 L 46.09375 47.261719 C 46.09375 47.605469 46.09375 47.730469 46.3125 47.730469 C 46.40625 47.730469 46.4375 47.699219 46.8125 47.324219 C 46.84375 47.292969 46.84375 47.261719 47.21875 46.886719 C 48.09375 47.699219 49 47.730469 49.40625 47.730469 C 51.6875 47.730469 52.625 46.386719 52.625 44.949219 C 52.625 43.917969 52.03125 43.292969 51.78125 43.074219 C 51.125 42.417969 50.34375 42.261719 49.5 42.105469 C 48.375 41.886719 47.0625 41.636719 47.0625 40.480469 C 47.0625 39.761719 47.5625 38.949219 49.28125 38.949219 C 51.46875 38.949219 51.59375 40.761719 51.625 41.355469 C 51.625 41.542969 51.8125 41.542969 51.84375 41.542969 C 52.125 41.542969 52.125 41.449219 52.125 41.074219 L 52.125 39.042969 C 52.125 38.730469 52.125 38.574219 51.90625 38.574219 C 51.8125 38.574219 51.75 38.574219 51.5 38.824219 C 51.4375 38.886719 51.25 39.074219 51.15625 39.136719 C 50.40625 38.574219 49.59375 38.574219 49.28125 38.574219 C 46.84375 38.574219 46.09375 39.917969 46.09375 41.042969 C 46.09375 41.730469 46.40625 42.292969 46.9375 42.730469 C 47.59375 43.230469 48.15625 43.355469 49.59375 43.636719 Z M 49.59375 43.636719 "/>
<path style=" stroke:none;fill-rule:nonzero;fill:rgb(0%,0%,0%);fill-opacity:1;" d="M 60.859375 46.417969 L 60.859375 47.730469 L 63.796875 47.511719 L 63.796875 46.886719 C 62.421875 46.886719 62.234375 46.761719 62.234375 45.761719 L 62.234375 33.667969 L 59.390625 33.886719 L 59.390625 34.511719 C 60.765625 34.511719 60.921875 34.636719 60.921875 35.636719 L 60.921875 39.949219 C 60.359375 39.230469 59.484375 38.699219 58.421875 38.699219 C 56.078125 38.699219 53.984375 40.667969 53.984375 43.230469 C 53.984375 45.761719 55.921875 47.730469 58.203125 47.730469 C 59.484375 47.730469 60.359375 47.042969 60.859375 46.417969 Z M 60.859375 41.074219 L 60.859375 45.167969 C 60.859375 45.511719 60.859375 45.542969 60.640625 45.886719 C 60.046875 46.855469 59.171875 47.292969 58.296875 47.292969 C 57.390625 47.292969 56.671875 46.761719 56.203125 46.011719 C 55.703125 45.199219 55.640625 44.074219 55.640625 43.230469 C 55.640625 42.511719 55.671875 41.324219 56.234375 40.417969 C 56.671875 39.792969 57.421875 39.136719 58.515625 39.136719 C 59.203125 39.136719 60.046875 39.449219 60.640625 40.324219 C 60.859375 40.667969 60.859375 40.699219 60.859375 41.074219 Z M 60.859375 41.074219 "/>
<path style=" stroke:none;fill-rule:nonzero;fill:rgb(0%,0%,0%);fill-opacity:1;" d="M 70.992188 46.011719 C 71.085938 46.792969 71.617188 47.636719 72.554688 47.636719 C 72.992188 47.636719 74.210938 47.355469 74.210938 45.730469 L 74.210938 44.605469 L 73.710938 44.605469 L 73.710938 45.730469 C 73.710938 46.886719 73.210938 47.011719 72.992188 47.011719 C 72.335938 47.011719 72.242188 46.105469 72.242188 46.011719 L 72.242188 42.042969 C 72.242188 41.199219 72.242188 40.417969 71.523438 39.667969 C 70.742188 38.886719 69.742188 38.574219 68.804688 38.574219 C 67.148438 38.574219 65.773438 39.511719 65.773438 40.824219 C 65.773438 41.417969 66.179688 41.761719 66.710938 41.761719 C 67.273438 41.761719 67.617188 41.355469 67.617188 40.855469 C 67.617188 40.605469 67.523438 39.949219 66.585938 39.949219 C 67.148438 39.230469 68.117188 39.011719 68.742188 39.011719 C 69.742188 39.011719 70.867188 39.792969 70.867188 41.574219 L 70.867188 42.292969 C 69.835938 42.355469 68.460938 42.417969 67.210938 43.011719 C 65.710938 43.699219 65.210938 44.730469 65.210938 45.605469 C 65.210938 47.230469 67.148438 47.730469 68.398438 47.730469 C 69.710938 47.730469 70.617188 46.917969 70.992188 46.011719 Z M 70.867188 42.730469 L 70.867188 44.730469 C 70.867188 46.605469 69.429688 47.292969 68.523438 47.292969 C 67.554688 47.292969 66.742188 46.605469 66.742188 45.605469 C 66.742188 44.511719 67.585938 42.855469 70.867188 42.730469 Z M 70.867188 42.730469 "/>
<path style=" stroke:none;fill-rule:nonzero;fill:rgb(0%,0%,0%);fill-opacity:1;" d="M 77.859375 33.667969 L 74.984375 33.886719 L 74.984375 34.511719 C 76.390625 34.511719 76.546875 34.636719 76.546875 35.636719 L 76.546875 46.011719 C 76.546875 46.886719 76.328125 46.886719 74.984375 46.886719 L 74.984375 47.511719 C 75.640625 47.480469 76.703125 47.449219 77.203125 47.449219 C 77.703125 47.449219 78.671875 47.480469 79.421875 47.511719 L 79.421875 46.886719 C 78.078125 46.886719 77.859375 46.886719 77.859375 46.011719 Z M 77.859375 33.667969 "/>
</g>
</svg>
