<?xml version="1.0" encoding="UTF-8"?>
<svg xmlns="http://www.w3.org/2000/svg" xmlns:xlink="http://www.w3.org/1999/xlink" width="208.121171pt" height="175.748031pt" viewBox="0 0 208.121171 175.748031" version="1.1">
<g id="surface61">
<path style="fill:none;stroke-width:0.566929;stroke-linecap:butt;stroke-linejoin:miter;stroke:rgb(100%,0%,0%);stroke-opacity:0.5;stroke-miterlimit:10;" d="M -2.834646 2.835276 L 2.835276 -2.834646 " transform="matrix(2,0,0,2,5.669291,5.669291)"/>
<path style="fill:none;stroke-width:0.566929;stroke-linecap:butt;stroke-linejoin:miter;stroke:rgb(100%,0%,0%);stroke-opacity:0.5;stroke-miterlimit:10;" d="M 2.835276 2.835276 L -2.834646 -2.834646 " transform="matrix(2,0,0,2,5.669291,5.669291)"/>
<path style="fill-rule:nonzero;fill:rgb(50%,50%,0%);fill-opacity:0.1;stroke-width:0.566929;stroke-linecap:butt;stroke-linejoin:miter;stroke:rgb(100%,0%,0%);stroke-opacity:0.5;stroke-miterlimit:10;" d="M -0.000661294 85.038401 L 98.391917 85.038401 L 98.391917 -0.000661294 L -0.000661294 -0.000661294 Z M -0.000661294 85.038401 " transform="matrix(2,0,0,2,5.669291,5.669291)"/>
<path style="fill:none;stroke-width:0.566929;stroke-linecap:butt;stroke-linejoin:miter;stroke:rgb(100%,0%,0%);stroke-opacity:0.5;stroke-miterlimit:10;" d="M 6.356761 2.835276 L 12.026682 -2.834646 " transform="matrix(2,0,0,2,5.669291,5.669291)"/>
<path style="fill:none;stroke-width:0.566929;stroke-linecap:butt;stroke-linejoin:miter;stroke:rgb(100%,0%,0%);stroke-opacity:0.5;stroke-miterlimit:10;" d="M 12.026682 2.835276 L 6.356761 -2.834646 " transform="matrix(2,0,0,2,5.669291,5.669291)"/>
<path style="fill-rule:nonzero;fill:rgb(50%,50%,0%);fill-opacity:0.1;stroke-width:0.566929;stroke-linecap:butt;stroke-linejoin:miter;stroke:rgb(100%,0%,0%);stroke-opacity:0.5;stroke-miterlimit:10;" d="M 4.739573 12.700511 L 13.64387 12.700511 L 13.64387 -0.000661294 L 4.739573 -0.000661294 Z M 4.739573 12.700511 " transform="matrix(2,0,0,2,5.669291,5.669291)"/>
<path style="fill:none;stroke-width:0.566929;stroke-linecap:butt;stroke-linejoin:miter;stroke:rgb(100%,0%,0%);stroke-opacity:0.5;stroke-miterlimit:10;" d="M 4.739573 12.700511 L 10.409495 7.030589 " transform="matrix(2,0,0,2,5.669291,5.669291)"/>
<path style="fill:none;stroke-width:0.566929;stroke-linecap:butt;stroke-linejoin:miter;stroke:rgb(100%,0%,0%);stroke-opacity:0.5;stroke-miterlimit:10;" d="M 10.409495 12.700511 L 4.739573 7.030589 " transform="matrix(2,0,0,2,5.669291,5.669291)"/>
<path style="fill-rule:nonzero;fill:rgb(50%,50%,0%);fill-opacity:0.1;stroke-width:0.566929;stroke-linecap:butt;stroke-linejoin:miter;stroke:rgb(100%,0%,0%);stroke-opacity:0.5;stroke-miterlimit:10;" d="M 4.739573 12.700511 L 13.64387 12.700511 L 13.64387 -0.000661294 L 4.739573 -0.000661294 Z M 4.739573 12.700511 " transform="matrix(2,0,0,2,5.669291,5.669291)"/>
<path style="fill:none;stroke-width:0.566929;stroke-linecap:butt;stroke-linejoin:miter;stroke:rgb(100%,0%,0%);stroke-opacity:0.5;stroke-miterlimit:10;" d="M 4.739573 12.700511 L 10.409495 7.030589 " transform="matrix(2,0,0,2,5.669291,5.669291)"/>
<path style="fill:none;stroke-width:0.566929;stroke-linecap:butt;stroke-linejoin:miter;stroke:rgb(100%,0%,0%);stroke-opacity:0.5;stroke-miterlimit:10;" d="M 10.409495 12.700511 L 4.739573 7.030589 " transform="matrix(2,0,0,2,5.669291,5.669291)"/>
<path style="fill-rule:nonzero;fill:rgb(50%,50%,0%);fill-opacity:0.1;stroke-width:0.566929;stroke-linecap:butt;stroke-linejoin:miter;stroke:rgb(100%,0%,0%);stroke-opacity:0.5;stroke-miterlimit:10;" d="M 7.573557 9.866526 L 10.807932 9.866526 L 10.807932 2.835276 L 7.573557 2.835276 Z M 7.573557 9.866526 " transform="matrix(2,0,0,2,5.669291,5.669291)"/>
<path style=" stroke:none;fill-rule:nonzero;fill:rgb(0%,0%,0%);fill-opacity:1;" d="M 23.660156 16.808594 L 23.660156 14.496094 C 23.660156 12.746094 24.597656 11.777344 25.472656 11.777344 C 25.535156 11.777344 25.847656 11.777344 26.128906 11.933594 C 25.910156 11.996094 25.535156 12.277344 25.535156 12.777344 C 25.535156 13.214844 25.847656 13.621094 26.410156 13.621094 C 26.972656 13.621094 27.285156 13.214844 27.285156 12.746094 C 27.285156 11.996094 26.535156 11.339844 25.472656 11.339844 C 24.097656 11.339844 22.378906 12.402344 22.378906 14.527344 L 22.378906 16.808594 L 20.816406 16.808594 L 20.816406 17.433594 L 22.378906 17.433594 L 22.378906 23.902344 C 22.378906 24.777344 22.160156 24.777344 20.847656 24.777344 L 20.847656 25.402344 C 21.628906 25.371094 22.566406 25.339844 23.097656 25.339844 C 23.910156 25.339844 24.847656 25.339844 25.628906 25.402344 L 25.628906 24.777344 L 25.222656 24.777344 C 23.753906 24.777344 23.722656 24.558594 23.722656 23.839844 L 23.722656 17.433594 L 25.972656 17.433594 L 25.972656 16.808594 Z M 23.660156 16.808594 "/>
<path style="fill:none;stroke-width:0.566929;stroke-linecap:butt;stroke-linejoin:miter;stroke:rgb(100%,0%,0%);stroke-opacity:0.5;stroke-miterlimit:10;" d="M 33.110667 2.835276 L 38.778636 -2.834646 " transform="matrix(2,0,0,2,5.669291,5.669291)"/>
<path style="fill:none;stroke-width:0.566929;stroke-linecap:butt;stroke-linejoin:miter;stroke:rgb(100%,0%,0%);stroke-opacity:0.5;stroke-miterlimit:10;" d="M 38.778636 2.835276 L 33.110667 -2.834646 " transform="matrix(2,0,0,2,5.669291,5.669291)"/>
<path style="fill-rule:nonzero;fill:rgb(50%,50%,0%);fill-opacity:0.1;stroke-width:0.566929;stroke-linecap:butt;stroke-linejoin:miter;stroke:rgb(100%,0%,0%);stroke-opacity:0.5;stroke-miterlimit:10;" d="M 28.346995 12.231761 L 43.544261 12.231761 L 43.544261 -0.000661294 L 28.346995 -0.000661294 Z M 28.346995 12.231761 " transform="matrix(2,0,0,2,5.669291,5.669291)"/>
<path style="fill:none;stroke-width:0.566929;stroke-linecap:butt;stroke-linejoin:miter;stroke:rgb(100%,0%,0%);stroke-opacity:0.5;stroke-miterlimit:10;" d="M 28.346995 10.184886 L 34.014964 4.514964 " transform="matrix(2,0,0,2,5.669291,5.669291)"/>
<path style="fill:none;stroke-width:0.566929;stroke-linecap:butt;stroke-linejoin:miter;stroke:rgb(100%,0%,0%);stroke-opacity:0.5;stroke-miterlimit:10;" d="M 34.014964 10.184886 L 28.346995 4.514964 " transform="matrix(2,0,0,2,5.669291,5.669291)"/>
<path style="fill-rule:nonzero;fill:rgb(50%,50%,0%);fill-opacity:0.1;stroke-width:0.566929;stroke-linecap:butt;stroke-linejoin:miter;stroke:rgb(100%,0%,0%);stroke-opacity:0.5;stroke-miterlimit:10;" d="M 28.346995 12.231761 L 43.544261 12.231761 L 43.544261 -0.000661294 L 28.346995 -0.000661294 Z M 28.346995 12.231761 " transform="matrix(2,0,0,2,5.669291,5.669291)"/>
<path style="fill:none;stroke-width:0.566929;stroke-linecap:butt;stroke-linejoin:miter;stroke:rgb(100%,0%,0%);stroke-opacity:0.5;stroke-miterlimit:10;" d="M 28.346995 10.184886 L 34.014964 4.514964 " transform="matrix(2,0,0,2,5.669291,5.669291)"/>
<path style="fill:none;stroke-width:0.566929;stroke-linecap:butt;stroke-linejoin:miter;stroke:rgb(100%,0%,0%);stroke-opacity:0.5;stroke-miterlimit:10;" d="M 34.014964 10.184886 L 28.346995 4.514964 " transform="matrix(2,0,0,2,5.669291,5.669291)"/>
<path style="fill-rule:nonzero;fill:rgb(50%,50%,0%);fill-opacity:0.1;stroke-width:0.566929;stroke-linecap:butt;stroke-linejoin:miter;stroke:rgb(100%,0%,0%);stroke-opacity:0.5;stroke-miterlimit:10;" d="M 31.180979 9.397776 L 40.708323 9.397776 L 40.708323 2.835276 L 31.180979 2.835276 Z M 31.180979 9.397776 " transform="matrix(2,0,0,2,5.669291,5.669291)"/>
<path style=" stroke:none;fill-rule:nonzero;fill:rgb(0%,0%,0%);fill-opacity:1;" d="M 71.90625 16.933594 C 70.15625 16.933594 70.15625 14.933594 70.15625 14.496094 C 70.15625 13.964844 70.1875 13.308594 70.46875 12.808594 C 70.625 12.589844 71.09375 12.027344 71.90625 12.027344 C 73.625 12.027344 73.625 13.996094 73.625 14.464844 C 73.625 14.996094 73.625 15.652344 73.3125 16.152344 C 73.15625 16.371094 72.6875 16.933594 71.90625 16.933594 Z M 69.59375 17.714844 C 69.59375 17.652344 69.59375 17.183594 69.90625 16.777344 C 70.6875 17.339844 71.53125 17.402344 71.90625 17.402344 C 73.75 17.402344 75.125 16.027344 75.125 14.496094 C 75.125 13.746094 74.8125 13.027344 74.3125 12.558594 C 75.03125 11.871094 75.75 11.777344 76.09375 11.777344 C 76.15625 11.777344 76.25 11.777344 76.3125 11.808594 C 76.09375 11.871094 75.96875 12.089844 75.96875 12.339844 C 75.96875 12.683594 76.25 12.902344 76.5625 12.902344 C 76.75 12.902344 77.125 12.777344 77.125 12.308594 C 77.125 11.964844 76.90625 11.339844 76.125 11.339844 C 75.71875 11.339844 74.84375 11.464844 74 12.277344 C 73.15625 11.621094 72.34375 11.558594 71.90625 11.558594 C 70.03125 11.558594 68.65625 12.933594 68.65625 14.464844 C 68.65625 15.339844 69.09375 16.089844 69.59375 16.527344 C 69.34375 16.808594 68.96875 17.464844 68.96875 18.183594 C 68.96875 18.808594 69.25 19.558594 69.875 19.964844 C 68.65625 20.277344 68.03125 21.152344 68.03125 21.933594 C 68.03125 23.371094 70 24.464844 72.4375 24.464844 C 74.78125 24.464844 76.84375 23.464844 76.84375 21.902344 C 76.84375 21.214844 76.59375 20.183594 75.5625 19.621094 C 74.5 19.089844 73.34375 19.089844 72.125 19.089844 C 71.625 19.089844 70.78125 19.089844 70.625 19.058594 C 70 18.964844 69.59375 18.371094 69.59375 17.714844 Z M 72.46875 24.027344 C 70.4375 24.027344 69.0625 22.996094 69.0625 21.933594 C 69.0625 21.027344 69.8125 20.277344 70.6875 20.246094 L 71.875 20.246094 C 73.59375 20.246094 75.8125 20.246094 75.8125 21.933594 C 75.8125 23.027344 74.40625 24.027344 72.46875 24.027344 Z M 72.46875 24.027344 "/>
<path style=" stroke:none;fill-rule:nonzero;fill:rgb(0%,0%,0%);fill-opacity:1;" d="M 81.867188 16.933594 C 80.117188 16.933594 80.117188 14.933594 80.117188 14.496094 C 80.117188 13.964844 80.148438 13.308594 80.429688 12.808594 C 80.585938 12.589844 81.054688 12.027344 81.867188 12.027344 C 83.585938 12.027344 83.585938 13.996094 83.585938 14.464844 C 83.585938 14.996094 83.585938 15.652344 83.273438 16.152344 C 83.117188 16.371094 82.648438 16.933594 81.867188 16.933594 Z M 79.554688 17.714844 C 79.554688 17.652344 79.554688 17.183594 79.867188 16.777344 C 80.648438 17.339844 81.492188 17.402344 81.867188 17.402344 C 83.710938 17.402344 85.085938 16.027344 85.085938 14.496094 C 85.085938 13.746094 84.773438 13.027344 84.273438 12.558594 C 84.992188 11.871094 85.710938 11.777344 86.054688 11.777344 C 86.117188 11.777344 86.210938 11.777344 86.273438 11.808594 C 86.054688 11.871094 85.929688 12.089844 85.929688 12.339844 C 85.929688 12.683594 86.210938 12.902344 86.523438 12.902344 C 86.710938 12.902344 87.085938 12.777344 87.085938 12.308594 C 87.085938 11.964844 86.867188 11.339844 86.085938 11.339844 C 85.679688 11.339844 84.804688 11.464844 83.960938 12.277344 C 83.117188 11.621094 82.304688 11.558594 81.867188 11.558594 C 79.992188 11.558594 78.617188 12.933594 78.617188 14.464844 C 78.617188 15.339844 79.054688 16.089844 79.554688 16.527344 C 79.304688 16.808594 78.929688 17.464844 78.929688 18.183594 C 78.929688 18.808594 79.210938 19.558594 79.835938 19.964844 C 78.617188 20.277344 77.992188 21.152344 77.992188 21.933594 C 77.992188 23.371094 79.960938 24.464844 82.398438 24.464844 C 84.742188 24.464844 86.804688 23.464844 86.804688 21.902344 C 86.804688 21.214844 86.554688 20.183594 85.523438 19.621094 C 84.460938 19.089844 83.304688 19.089844 82.085938 19.089844 C 81.585938 19.089844 80.742188 19.089844 80.585938 19.058594 C 79.960938 18.964844 79.554688 18.371094 79.554688 17.714844 Z M 82.429688 24.027344 C 80.398438 24.027344 79.023438 22.996094 79.023438 21.933594 C 79.023438 21.027344 79.773438 20.277344 80.648438 20.246094 L 81.835938 20.246094 C 83.554688 20.246094 85.773438 20.246094 85.773438 21.933594 C 85.773438 23.027344 84.367188 24.027344 82.429688 24.027344 Z M 82.429688 24.027344 "/>
<path style="fill:none;stroke-width:0.566929;stroke-linecap:butt;stroke-linejoin:miter;stroke:rgb(100%,0%,0%);stroke-opacity:0.5;stroke-miterlimit:10;" d="M 73.114573 2.835276 L 78.782542 -2.834646 " transform="matrix(2,0,0,2,5.669291,5.669291)"/>
<path style="fill:none;stroke-width:0.566929;stroke-linecap:butt;stroke-linejoin:miter;stroke:rgb(100%,0%,0%);stroke-opacity:0.5;stroke-miterlimit:10;" d="M 78.782542 2.835276 L 73.114573 -2.834646 " transform="matrix(2,0,0,2,5.669291,5.669291)"/>
<path style="fill-rule:nonzero;fill:rgb(50%,50%,0%);fill-opacity:0.1;stroke-width:0.566929;stroke-linecap:butt;stroke-linejoin:miter;stroke:rgb(100%,0%,0%);stroke-opacity:0.5;stroke-miterlimit:10;" d="M 68.559886 12.700511 L 83.337229 12.700511 L 83.337229 -0.000661294 L 68.559886 -0.000661294 Z M 68.559886 12.700511 " transform="matrix(2,0,0,2,5.669291,5.669291)"/>
<path style="fill:none;stroke-width:0.566929;stroke-linecap:butt;stroke-linejoin:miter;stroke:rgb(100%,0%,0%);stroke-opacity:0.5;stroke-miterlimit:10;" d="M 68.559886 12.700511 L 74.229807 7.030589 " transform="matrix(2,0,0,2,5.669291,5.669291)"/>
<path style="fill:none;stroke-width:0.566929;stroke-linecap:butt;stroke-linejoin:miter;stroke:rgb(100%,0%,0%);stroke-opacity:0.5;stroke-miterlimit:10;" d="M 74.229807 12.700511 L 68.559886 7.030589 " transform="matrix(2,0,0,2,5.669291,5.669291)"/>
<path style="fill-rule:nonzero;fill:rgb(50%,50%,0%);fill-opacity:0.1;stroke-width:0.566929;stroke-linecap:butt;stroke-linejoin:miter;stroke:rgb(100%,0%,0%);stroke-opacity:0.5;stroke-miterlimit:10;" d="M 68.559886 12.700511 L 83.337229 12.700511 L 83.337229 -0.000661294 L 68.559886 -0.000661294 Z M 68.559886 12.700511 " transform="matrix(2,0,0,2,5.669291,5.669291)"/>
<path style="fill:none;stroke-width:0.566929;stroke-linecap:butt;stroke-linejoin:miter;stroke:rgb(100%,0%,0%);stroke-opacity:0.5;stroke-miterlimit:10;" d="M 68.559886 12.700511 L 74.229807 7.030589 " transform="matrix(2,0,0,2,5.669291,5.669291)"/>
<path style="fill:none;stroke-width:0.566929;stroke-linecap:butt;stroke-linejoin:miter;stroke:rgb(100%,0%,0%);stroke-opacity:0.5;stroke-miterlimit:10;" d="M 74.229807 12.700511 L 68.559886 7.030589 " transform="matrix(2,0,0,2,5.669291,5.669291)"/>
<path style="fill-rule:nonzero;fill:rgb(50%,50%,0%);fill-opacity:0.1;stroke-width:0.566929;stroke-linecap:butt;stroke-linejoin:miter;stroke:rgb(100%,0%,0%);stroke-opacity:0.5;stroke-miterlimit:10;" d="M 71.39387 9.866526 L 80.503245 9.866526 L 80.503245 2.835276 L 71.39387 2.835276 Z M 71.39387 9.866526 " transform="matrix(2,0,0,2,5.669291,5.669291)"/>
<path style=" stroke:none;fill-rule:nonzero;fill:rgb(0%,0%,0%);fill-opacity:1;" d="M 156.863281 17.433594 L 159.144531 17.433594 L 159.144531 16.808594 L 156.800781 16.808594 L 156.800781 14.496094 C 156.800781 12.714844 157.769531 11.777344 158.644531 11.777344 C 158.707031 11.777344 159.019531 11.777344 159.300781 11.933594 C 159.082031 11.996094 158.707031 12.277344 158.707031 12.777344 C 158.707031 13.214844 159.019531 13.621094 159.582031 13.621094 C 160.144531 13.621094 160.457031 13.214844 160.457031 12.746094 C 160.457031 12.027344 159.738281 11.339844 158.644531 11.339844 C 157.457031 11.339844 156.582031 12.089844 156.488281 12.183594 C 155.894531 11.433594 154.769531 11.339844 154.238281 11.339844 C 152.363281 11.339844 150.050781 12.371094 150.050781 14.527344 L 150.050781 16.808594 L 148.457031 16.808594 L 148.457031 17.433594 L 150.050781 17.433594 L 150.050781 23.902344 C 150.050781 24.777344 149.832031 24.777344 148.488281 24.777344 L 148.488281 25.402344 C 149.144531 25.371094 150.207031 25.339844 150.707031 25.339844 C 151.207031 25.339844 152.175781 25.371094 152.925781 25.402344 L 152.925781 24.777344 C 151.582031 24.777344 151.363281 24.777344 151.363281 23.902344 L 151.363281 17.433594 L 155.550781 17.433594 L 155.550781 23.902344 C 155.550781 24.777344 155.332031 24.777344 153.988281 24.777344 L 153.988281 25.402344 C 154.769531 25.371094 155.707031 25.339844 156.269531 25.339844 C 157.050781 25.339844 157.988281 25.339844 158.800781 25.402344 L 158.800781 24.777344 L 158.363281 24.777344 C 156.894531 24.777344 156.863281 24.558594 156.863281 23.839844 Z M 151.300781 16.808594 L 151.300781 14.558594 C 151.300781 12.621094 152.925781 11.777344 154.238281 11.777344 C 155.207031 11.777344 155.769531 12.152344 155.769531 12.152344 L 155.769531 12.183594 C 155.457031 12.214844 155.050781 12.496094 155.050781 13.027344 C 155.050781 13.152344 155.050781 13.652344 155.613281 13.839844 C 155.550781 14.089844 155.550781 14.277344 155.550781 14.527344 L 155.550781 16.808594 Z M 151.300781 16.808594 "/>
<path style=" stroke:none;fill-rule:nonzero;fill:rgb(0%,0%,0%);fill-opacity:1;" d="M 163.050781 16.808594 L 163.050781 14.496094 C 163.050781 12.746094 163.988281 11.777344 164.863281 11.777344 C 164.925781 11.777344 165.238281 11.777344 165.519531 11.933594 C 165.300781 11.996094 164.925781 12.277344 164.925781 12.777344 C 164.925781 13.214844 165.238281 13.621094 165.800781 13.621094 C 166.363281 13.621094 166.675781 13.214844 166.675781 12.746094 C 166.675781 11.996094 165.925781 11.339844 164.863281 11.339844 C 163.488281 11.339844 161.769531 12.402344 161.769531 14.527344 L 161.769531 16.808594 L 160.207031 16.808594 L 160.207031 17.433594 L 161.769531 17.433594 L 161.769531 23.902344 C 161.769531 24.777344 161.550781 24.777344 160.238281 24.777344 L 160.238281 25.402344 C 161.019531 25.371094 161.957031 25.339844 162.488281 25.339844 C 163.300781 25.339844 164.238281 25.339844 165.019531 25.402344 L 165.019531 24.777344 L 164.613281 24.777344 C 163.144531 24.777344 163.113281 24.558594 163.113281 23.839844 L 163.113281 17.433594 L 165.363281 17.433594 L 165.363281 16.808594 Z M 163.050781 16.808594 "/>
<path style="fill:none;stroke-width:0.566929;stroke-linecap:butt;stroke-linejoin:miter;stroke:rgb(100%,0%,0%);stroke-opacity:0.5;stroke-miterlimit:10;" d="M 95.555979 2.835276 L 101.225901 -2.834646 " transform="matrix(2,0,0,2,5.669291,5.669291)"/>
<path style="fill:none;stroke-width:0.566929;stroke-linecap:butt;stroke-linejoin:miter;stroke:rgb(100%,0%,0%);stroke-opacity:0.5;stroke-miterlimit:10;" d="M 101.225901 2.835276 L 95.555979 -2.834646 " transform="matrix(2,0,0,2,5.669291,5.669291)"/>
<path style="fill:none;stroke-width:0.566929;stroke-linecap:butt;stroke-linejoin:miter;stroke:rgb(100%,0%,0%);stroke-opacity:0.5;stroke-miterlimit:10;" d="M 98.391917 28.346995 L 98.391917 -0.000661294 Z M 98.391917 28.346995 " transform="matrix(2,0,0,2,5.669291,5.669291)"/>
<path style="fill:none;stroke-width:0.566929;stroke-linecap:butt;stroke-linejoin:miter;stroke:rgb(100%,0%,0%);stroke-opacity:0.5;stroke-miterlimit:10;" d="M 6.356761 31.180979 L 12.026682 25.511057 " transform="matrix(2,0,0,2,5.669291,5.669291)"/>
<path style="fill:none;stroke-width:0.566929;stroke-linecap:butt;stroke-linejoin:miter;stroke:rgb(100%,0%,0%);stroke-opacity:0.5;stroke-miterlimit:10;" d="M 12.026682 31.180979 L 6.356761 25.511057 " transform="matrix(2,0,0,2,5.669291,5.669291)"/>
<path style="fill-rule:nonzero;fill:rgb(50%,50%,0%);fill-opacity:0.1;stroke-width:0.566929;stroke-linecap:butt;stroke-linejoin:miter;stroke:rgb(100%,0%,0%);stroke-opacity:0.5;stroke-miterlimit:10;" d="M 3.356761 41.046214 L 15.026682 41.046214 L 15.026682 28.346995 L 3.356761 28.346995 Z M 3.356761 41.046214 " transform="matrix(2,0,0,2,5.669291,5.669291)"/>
<path style="fill:none;stroke-width:0.566929;stroke-linecap:butt;stroke-linejoin:miter;stroke:rgb(100%,0%,0%);stroke-opacity:0.5;stroke-miterlimit:10;" d="M 3.356761 41.046214 L 9.026682 35.378245 " transform="matrix(2,0,0,2,5.669291,5.669291)"/>
<path style="fill:none;stroke-width:0.566929;stroke-linecap:butt;stroke-linejoin:miter;stroke:rgb(100%,0%,0%);stroke-opacity:0.5;stroke-miterlimit:10;" d="M 9.026682 41.046214 L 3.356761 35.378245 " transform="matrix(2,0,0,2,5.669291,5.669291)"/>
<path style="fill-rule:nonzero;fill:rgb(50%,50%,0%);fill-opacity:0.1;stroke-width:0.566929;stroke-linecap:butt;stroke-linejoin:miter;stroke:rgb(100%,0%,0%);stroke-opacity:0.5;stroke-miterlimit:10;" d="M 3.356761 41.046214 L 15.026682 41.046214 L 15.026682 28.346995 L 3.356761 28.346995 Z M 3.356761 41.046214 " transform="matrix(2,0,0,2,5.669291,5.669291)"/>
<path style="fill:none;stroke-width:0.566929;stroke-linecap:butt;stroke-linejoin:miter;stroke:rgb(100%,0%,0%);stroke-opacity:0.5;stroke-miterlimit:10;" d="M 3.356761 41.046214 L 9.026682 35.378245 " transform="matrix(2,0,0,2,5.669291,5.669291)"/>
<path style="fill:none;stroke-width:0.566929;stroke-linecap:butt;stroke-linejoin:miter;stroke:rgb(100%,0%,0%);stroke-opacity:0.5;stroke-miterlimit:10;" d="M 9.026682 41.046214 L 3.356761 35.378245 " transform="matrix(2,0,0,2,5.669291,5.669291)"/>
<path style="fill-rule:nonzero;fill:rgb(50%,50%,0%);fill-opacity:0.1;stroke-width:0.566929;stroke-linecap:butt;stroke-linejoin:miter;stroke:rgb(100%,0%,0%);stroke-opacity:0.5;stroke-miterlimit:10;" d="M 6.190745 38.212229 L 12.190745 38.212229 L 12.190745 31.180979 L 6.190745 31.180979 Z M 6.190745 38.212229 " transform="matrix(2,0,0,2,5.669291,5.669291)"/>
<path style=" stroke:none;fill-rule:nonzero;fill:rgb(0%,0%,0%);fill-opacity:1;" d="M 26.457031 74.125 L 28.738281 74.125 L 28.738281 73.5 L 26.394531 73.5 L 26.394531 71.1875 C 26.394531 69.40625 27.363281 68.46875 28.238281 68.46875 C 28.300781 68.46875 28.613281 68.46875 28.894531 68.625 C 28.675781 68.6875 28.300781 68.96875 28.300781 69.46875 C 28.300781 69.90625 28.613281 70.3125 29.175781 70.3125 C 29.738281 70.3125 30.050781 69.90625 30.050781 69.4375 C 30.050781 68.71875 29.332031 68.03125 28.238281 68.03125 C 27.050781 68.03125 26.175781 68.78125 26.082031 68.875 C 25.488281 68.125 24.363281 68.03125 23.832031 68.03125 C 21.957031 68.03125 19.644531 69.0625 19.644531 71.21875 L 19.644531 73.5 L 18.050781 73.5 L 18.050781 74.125 L 19.644531 74.125 L 19.644531 80.59375 C 19.644531 81.46875 19.425781 81.46875 18.082031 81.46875 L 18.082031 82.09375 C 18.738281 82.0625 19.800781 82.03125 20.300781 82.03125 C 20.800781 82.03125 21.769531 82.0625 22.519531 82.09375 L 22.519531 81.46875 C 21.175781 81.46875 20.957031 81.46875 20.957031 80.59375 L 20.957031 74.125 L 25.144531 74.125 L 25.144531 80.59375 C 25.144531 81.46875 24.925781 81.46875 23.582031 81.46875 L 23.582031 82.09375 C 24.363281 82.0625 25.300781 82.03125 25.863281 82.03125 C 26.644531 82.03125 27.582031 82.03125 28.394531 82.09375 L 28.394531 81.46875 L 27.957031 81.46875 C 26.488281 81.46875 26.457031 81.25 26.457031 80.53125 Z M 20.894531 73.5 L 20.894531 71.25 C 20.894531 69.3125 22.519531 68.46875 23.832031 68.46875 C 24.800781 68.46875 25.363281 68.84375 25.363281 68.84375 L 25.363281 68.875 C 25.050781 68.90625 24.644531 69.1875 24.644531 69.71875 C 24.644531 69.84375 24.644531 70.34375 25.207031 70.53125 C 25.144531 70.78125 25.144531 70.96875 25.144531 71.21875 L 25.144531 73.5 Z M 20.894531 73.5 "/>
<path style="fill:none;stroke-width:0.566929;stroke-linecap:butt;stroke-linejoin:miter;stroke:rgb(100%,0%,0%);stroke-opacity:0.5;stroke-miterlimit:10;" d="M 33.110667 31.180979 L 38.778636 25.511057 " transform="matrix(2,0,0,2,5.669291,5.669291)"/>
<path style="fill:none;stroke-width:0.566929;stroke-linecap:butt;stroke-linejoin:miter;stroke:rgb(100%,0%,0%);stroke-opacity:0.5;stroke-miterlimit:10;" d="M 38.778636 31.180979 L 33.110667 25.511057 " transform="matrix(2,0,0,2,5.669291,5.669291)"/>
<path style="fill-rule:nonzero;fill:rgb(50%,50%,0%);fill-opacity:0.1;stroke-width:0.566929;stroke-linecap:butt;stroke-linejoin:miter;stroke:rgb(100%,0%,0%);stroke-opacity:0.5;stroke-miterlimit:10;" d="M 27.204417 41.046214 L 44.684886 41.046214 L 44.684886 28.346995 L 27.204417 28.346995 Z M 27.204417 41.046214 " transform="matrix(2,0,0,2,5.669291,5.669291)"/>
<path style="fill:none;stroke-width:0.566929;stroke-linecap:butt;stroke-linejoin:miter;stroke:rgb(100%,0%,0%);stroke-opacity:0.5;stroke-miterlimit:10;" d="M 27.204417 41.046214 L 32.874339 35.378245 " transform="matrix(2,0,0,2,5.669291,5.669291)"/>
<path style="fill:none;stroke-width:0.566929;stroke-linecap:butt;stroke-linejoin:miter;stroke:rgb(100%,0%,0%);stroke-opacity:0.5;stroke-miterlimit:10;" d="M 32.874339 41.046214 L 27.204417 35.378245 " transform="matrix(2,0,0,2,5.669291,5.669291)"/>
<path style="fill-rule:nonzero;fill:rgb(50%,50%,0%);fill-opacity:0.1;stroke-width:0.566929;stroke-linecap:butt;stroke-linejoin:miter;stroke:rgb(100%,0%,0%);stroke-opacity:0.5;stroke-miterlimit:10;" d="M 27.204417 41.046214 L 44.684886 41.046214 L 44.684886 28.346995 L 27.204417 28.346995 Z M 27.204417 41.046214 " transform="matrix(2,0,0,2,5.669291,5.669291)"/>
<path style="fill:none;stroke-width:0.566929;stroke-linecap:butt;stroke-linejoin:miter;stroke:rgb(100%,0%,0%);stroke-opacity:0.5;stroke-miterlimit:10;" d="M 27.204417 41.046214 L 32.874339 35.378245 " transform="matrix(2,0,0,2,5.669291,5.669291)"/>
<path style="fill:none;stroke-width:0.566929;stroke-linecap:butt;stroke-linejoin:miter;stroke:rgb(100%,0%,0%);stroke-opacity:0.5;stroke-miterlimit:10;" d="M 32.874339 41.046214 L 27.204417 35.378245 " transform="matrix(2,0,0,2,5.669291,5.669291)"/>
<path style="fill-rule:nonzero;fill:rgb(50%,50%,0%);fill-opacity:0.1;stroke-width:0.566929;stroke-linecap:butt;stroke-linejoin:miter;stroke:rgb(100%,0%,0%);stroke-opacity:0.5;stroke-miterlimit:10;" d="M 30.038401 38.212229 L 41.850901 38.212229 L 41.850901 31.180979 L 30.038401 31.180979 Z M 30.038401 38.212229 " transform="matrix(2,0,0,2,5.669291,5.669291)"/>
<path style=" stroke:none;fill-rule:nonzero;fill:rgb(0%,0%,0%);fill-opacity:1;" d="M 74.152344 74.125 L 76.433594 74.125 L 76.433594 73.5 L 74.089844 73.5 L 74.089844 71.1875 C 74.089844 69.40625 75.058594 68.46875 75.933594 68.46875 C 75.996094 68.46875 76.308594 68.46875 76.589844 68.625 C 76.371094 68.6875 75.996094 68.96875 75.996094 69.46875 C 75.996094 69.90625 76.308594 70.3125 76.871094 70.3125 C 77.433594 70.3125 77.746094 69.90625 77.746094 69.4375 C 77.746094 68.71875 77.027344 68.03125 75.933594 68.03125 C 74.746094 68.03125 73.871094 68.78125 73.777344 68.875 C 73.183594 68.125 72.058594 68.03125 71.527344 68.03125 C 69.652344 68.03125 67.339844 69.0625 67.339844 71.21875 L 67.339844 73.5 L 65.746094 73.5 L 65.746094 74.125 L 67.339844 74.125 L 67.339844 80.59375 C 67.339844 81.46875 67.121094 81.46875 65.777344 81.46875 L 65.777344 82.09375 C 66.433594 82.0625 67.496094 82.03125 67.996094 82.03125 C 68.496094 82.03125 69.464844 82.0625 70.214844 82.09375 L 70.214844 81.46875 C 68.871094 81.46875 68.652344 81.46875 68.652344 80.59375 L 68.652344 74.125 L 72.839844 74.125 L 72.839844 80.59375 C 72.839844 81.46875 72.621094 81.46875 71.277344 81.46875 L 71.277344 82.09375 C 72.058594 82.0625 72.996094 82.03125 73.558594 82.03125 C 74.339844 82.03125 75.277344 82.03125 76.089844 82.09375 L 76.089844 81.46875 L 75.652344 81.46875 C 74.183594 81.46875 74.152344 81.25 74.152344 80.53125 Z M 68.589844 73.5 L 68.589844 71.25 C 68.589844 69.3125 70.214844 68.46875 71.527344 68.46875 C 72.496094 68.46875 73.058594 68.84375 73.058594 68.84375 L 73.058594 68.875 C 72.746094 68.90625 72.339844 69.1875 72.339844 69.71875 C 72.339844 69.84375 72.339844 70.34375 72.902344 70.53125 C 72.839844 70.78125 72.839844 70.96875 72.839844 71.21875 L 72.839844 73.5 Z M 68.589844 73.5 "/>
<path style=" stroke:none;fill-rule:nonzero;fill:rgb(0%,0%,0%);fill-opacity:1;" d="M 85.777344 74.125 L 88.058594 74.125 L 88.058594 73.5 L 85.714844 73.5 L 85.714844 71.1875 C 85.714844 69.40625 86.683594 68.46875 87.558594 68.46875 C 87.621094 68.46875 87.933594 68.46875 88.214844 68.625 C 87.996094 68.6875 87.621094 68.96875 87.621094 69.46875 C 87.621094 69.90625 87.933594 70.3125 88.496094 70.3125 C 89.058594 70.3125 89.371094 69.90625 89.371094 69.4375 C 89.371094 68.71875 88.652344 68.03125 87.558594 68.03125 C 86.371094 68.03125 85.496094 68.78125 85.402344 68.875 C 84.808594 68.125 83.683594 68.03125 83.152344 68.03125 C 81.277344 68.03125 78.964844 69.0625 78.964844 71.21875 L 78.964844 73.5 L 77.371094 73.5 L 77.371094 74.125 L 78.964844 74.125 L 78.964844 80.59375 C 78.964844 81.46875 78.746094 81.46875 77.402344 81.46875 L 77.402344 82.09375 C 78.058594 82.0625 79.121094 82.03125 79.621094 82.03125 C 80.121094 82.03125 81.089844 82.0625 81.839844 82.09375 L 81.839844 81.46875 C 80.496094 81.46875 80.277344 81.46875 80.277344 80.59375 L 80.277344 74.125 L 84.464844 74.125 L 84.464844 80.59375 C 84.464844 81.46875 84.246094 81.46875 82.902344 81.46875 L 82.902344 82.09375 C 83.683594 82.0625 84.621094 82.03125 85.183594 82.03125 C 85.964844 82.03125 86.902344 82.03125 87.714844 82.09375 L 87.714844 81.46875 L 87.277344 81.46875 C 85.808594 81.46875 85.777344 81.25 85.777344 80.53125 Z M 80.214844 73.5 L 80.214844 71.25 C 80.214844 69.3125 81.839844 68.46875 83.152344 68.46875 C 84.121094 68.46875 84.683594 68.84375 84.683594 68.84375 L 84.683594 68.875 C 84.371094 68.90625 83.964844 69.1875 83.964844 69.71875 C 83.964844 69.84375 83.964844 70.34375 84.527344 70.53125 C 84.464844 70.78125 84.464844 70.96875 84.464844 71.21875 L 84.464844 73.5 Z M 80.214844 73.5 "/>
<path style="fill:none;stroke-width:0.566929;stroke-linecap:butt;stroke-linejoin:miter;stroke:rgb(100%,0%,0%);stroke-opacity:0.5;stroke-miterlimit:10;" d="M 73.114573 31.180979 L 78.782542 25.511057 " transform="matrix(2,0,0,2,5.669291,5.669291)"/>
<path style="fill:none;stroke-width:0.566929;stroke-linecap:butt;stroke-linejoin:miter;stroke:rgb(100%,0%,0%);stroke-opacity:0.5;stroke-miterlimit:10;" d="M 78.782542 31.180979 L 73.114573 25.511057 " transform="matrix(2,0,0,2,5.669291,5.669291)"/>
<path style="fill-rule:nonzero;fill:rgb(50%,50%,0%);fill-opacity:0.1;stroke-width:0.566929;stroke-linecap:butt;stroke-linejoin:miter;stroke:rgb(100%,0%,0%);stroke-opacity:0.5;stroke-miterlimit:10;" d="M 57.460276 38.311839 L 94.436839 38.311839 L 94.436839 28.346995 L 57.460276 28.346995 Z M 57.460276 38.311839 " transform="matrix(2,0,0,2,5.669291,5.669291)"/>
<path style="fill:none;stroke-width:0.566929;stroke-linecap:butt;stroke-linejoin:miter;stroke:rgb(100%,0%,0%);stroke-opacity:0.5;stroke-miterlimit:10;" d="M 57.460276 38.311839 L 63.130198 32.64387 " transform="matrix(2,0,0,2,5.669291,5.669291)"/>
<path style="fill:none;stroke-width:0.566929;stroke-linecap:butt;stroke-linejoin:miter;stroke:rgb(100%,0%,0%);stroke-opacity:0.5;stroke-miterlimit:10;" d="M 63.130198 38.311839 L 57.460276 32.64387 " transform="matrix(2,0,0,2,5.669291,5.669291)"/>
<path style="fill-rule:nonzero;fill:rgb(50%,50%,0%);fill-opacity:0.1;stroke-width:0.566929;stroke-linecap:butt;stroke-linejoin:miter;stroke:rgb(100%,0%,0%);stroke-opacity:0.5;stroke-miterlimit:10;" d="M 57.460276 38.311839 L 94.436839 38.311839 L 94.436839 28.346995 L 57.460276 28.346995 Z M 57.460276 38.311839 " transform="matrix(2,0,0,2,5.669291,5.669291)"/>
<path style="fill:none;stroke-width:0.566929;stroke-linecap:butt;stroke-linejoin:miter;stroke:rgb(100%,0%,0%);stroke-opacity:0.5;stroke-miterlimit:10;" d="M 57.460276 38.311839 L 63.130198 32.64387 " transform="matrix(2,0,0,2,5.669291,5.669291)"/>
<path style="fill:none;stroke-width:0.566929;stroke-linecap:butt;stroke-linejoin:miter;stroke:rgb(100%,0%,0%);stroke-opacity:0.5;stroke-miterlimit:10;" d="M 63.130198 38.311839 L 57.460276 32.64387 " transform="matrix(2,0,0,2,5.669291,5.669291)"/>
<path style="fill-rule:nonzero;fill:rgb(50%,50%,0%);fill-opacity:0.1;stroke-width:0.566929;stroke-linecap:butt;stroke-linejoin:miter;stroke:rgb(100%,0%,0%);stroke-opacity:0.5;stroke-miterlimit:10;" d="M 60.294261 35.477854 L 91.602854 35.477854 L 91.602854 31.180979 L 60.294261 31.180979 Z M 60.294261 35.477854 " transform="matrix(2,0,0,2,5.669291,5.669291)"/>
<path style=" stroke:none;fill-rule:nonzero;fill:rgb(0%,0%,0%);fill-opacity:1;" d="M 131.726562 71.9375 C 132.320312 71.1875 133.070312 70.21875 133.570312 69.6875 C 134.195312 68.96875 135.007812 68.65625 135.945312 68.65625 L 135.945312 68.03125 C 135.414062 68.0625 134.820312 68.09375 134.289062 68.09375 C 133.695312 68.09375 132.632812 68.0625 132.382812 68.03125 L 132.382812 68.65625 C 132.820312 68.6875 132.976562 68.9375 132.976562 69.28125 C 132.976562 69.59375 132.757812 69.84375 132.664062 69.96875 L 131.445312 71.53125 L 129.882812 69.5 C 129.695312 69.3125 129.695312 69.28125 129.695312 69.15625 C 129.695312 68.84375 130.007812 68.65625 130.382812 68.65625 L 130.382812 68.03125 C 129.882812 68.0625 128.570312 68.09375 128.226562 68.09375 C 127.820312 68.09375 126.882812 68.0625 126.351562 68.03125 L 126.351562 68.65625 C 127.757812 68.65625 127.757812 68.65625 128.695312 69.875 L 130.664062 72.4375 L 128.789062 74.8125 C 127.851562 75.96875 126.664062 76 126.257812 76 L 126.257812 76.625 C 126.757812 76.59375 127.382812 76.5625 127.914062 76.5625 C 128.476562 76.5625 129.320312 76.59375 129.789062 76.625 L 129.789062 76 C 129.351562 75.9375 129.226562 75.6875 129.226562 75.375 C 129.226562 74.9375 129.789062 74.28125 131.007812 72.84375 L 132.539062 74.84375 C 132.695312 75.0625 132.945312 75.375 132.945312 75.5 C 132.945312 75.6875 132.757812 76 132.226562 76 L 132.226562 76.625 C 132.820312 76.59375 133.945312 76.5625 134.382812 76.5625 C 134.914062 76.5625 135.695312 76.59375 136.289062 76.625 L 136.289062 76 C 135.226562 76 134.851562 75.96875 134.414062 75.375 Z M 131.726562 71.9375 "/>
<path style=" stroke:none;fill-rule:nonzero;fill:rgb(0%,0%,0%);fill-opacity:1;" d="M 142.246094 71.9375 C 142.839844 71.1875 143.589844 70.21875 144.089844 69.6875 C 144.714844 68.96875 145.527344 68.65625 146.464844 68.65625 L 146.464844 68.03125 C 145.933594 68.0625 145.339844 68.09375 144.808594 68.09375 C 144.214844 68.09375 143.152344 68.0625 142.902344 68.03125 L 142.902344 68.65625 C 143.339844 68.6875 143.496094 68.9375 143.496094 69.28125 C 143.496094 69.59375 143.277344 69.84375 143.183594 69.96875 L 141.964844 71.53125 L 140.402344 69.5 C 140.214844 69.3125 140.214844 69.28125 140.214844 69.15625 C 140.214844 68.84375 140.527344 68.65625 140.902344 68.65625 L 140.902344 68.03125 C 140.402344 68.0625 139.089844 68.09375 138.746094 68.09375 C 138.339844 68.09375 137.402344 68.0625 136.871094 68.03125 L 136.871094 68.65625 C 138.277344 68.65625 138.277344 68.65625 139.214844 69.875 L 141.183594 72.4375 L 139.308594 74.8125 C 138.371094 75.96875 137.183594 76 136.777344 76 L 136.777344 76.625 C 137.277344 76.59375 137.902344 76.5625 138.433594 76.5625 C 138.996094 76.5625 139.839844 76.59375 140.308594 76.625 L 140.308594 76 C 139.871094 75.9375 139.746094 75.6875 139.746094 75.375 C 139.746094 74.9375 140.308594 74.28125 141.527344 72.84375 L 143.058594 74.84375 C 143.214844 75.0625 143.464844 75.375 143.464844 75.5 C 143.464844 75.6875 143.277344 76 142.746094 76 L 142.746094 76.625 C 143.339844 76.59375 144.464844 76.5625 144.902344 76.5625 C 145.433594 76.5625 146.214844 76.59375 146.808594 76.625 L 146.808594 76 C 145.746094 76 145.371094 75.96875 144.933594 75.375 Z M 142.246094 71.9375 "/>
<path style=" stroke:none;fill-rule:nonzero;fill:rgb(0%,0%,0%);fill-opacity:1;" d="M 152.761719 71.9375 C 153.355469 71.1875 154.105469 70.21875 154.605469 69.6875 C 155.230469 68.96875 156.042969 68.65625 156.980469 68.65625 L 156.980469 68.03125 C 156.449219 68.0625 155.855469 68.09375 155.324219 68.09375 C 154.730469 68.09375 153.667969 68.0625 153.417969 68.03125 L 153.417969 68.65625 C 153.855469 68.6875 154.011719 68.9375 154.011719 69.28125 C 154.011719 69.59375 153.792969 69.84375 153.699219 69.96875 L 152.480469 71.53125 L 150.917969 69.5 C 150.730469 69.3125 150.730469 69.28125 150.730469 69.15625 C 150.730469 68.84375 151.042969 68.65625 151.417969 68.65625 L 151.417969 68.03125 C 150.917969 68.0625 149.605469 68.09375 149.261719 68.09375 C 148.855469 68.09375 147.917969 68.0625 147.386719 68.03125 L 147.386719 68.65625 C 148.792969 68.65625 148.792969 68.65625 149.730469 69.875 L 151.699219 72.4375 L 149.824219 74.8125 C 148.886719 75.96875 147.699219 76 147.292969 76 L 147.292969 76.625 C 147.792969 76.59375 148.417969 76.5625 148.949219 76.5625 C 149.511719 76.5625 150.355469 76.59375 150.824219 76.625 L 150.824219 76 C 150.386719 75.9375 150.261719 75.6875 150.261719 75.375 C 150.261719 74.9375 150.824219 74.28125 152.042969 72.84375 L 153.574219 74.84375 C 153.730469 75.0625 153.980469 75.375 153.980469 75.5 C 153.980469 75.6875 153.792969 76 153.261719 76 L 153.261719 76.625 C 153.855469 76.59375 154.980469 76.5625 155.417969 76.5625 C 155.949219 76.5625 156.730469 76.59375 157.324219 76.625 L 157.324219 76 C 156.261719 76 155.886719 75.96875 155.449219 75.375 Z M 152.761719 71.9375 "/>
<path style=" stroke:none;fill-rule:nonzero;fill:rgb(0%,0%,0%);fill-opacity:1;" d="M 163.277344 71.9375 C 163.871094 71.1875 164.621094 70.21875 165.121094 69.6875 C 165.746094 68.96875 166.558594 68.65625 167.496094 68.65625 L 167.496094 68.03125 C 166.964844 68.0625 166.371094 68.09375 165.839844 68.09375 C 165.246094 68.09375 164.183594 68.0625 163.933594 68.03125 L 163.933594 68.65625 C 164.371094 68.6875 164.527344 68.9375 164.527344 69.28125 C 164.527344 69.59375 164.308594 69.84375 164.214844 69.96875 L 162.996094 71.53125 L 161.433594 69.5 C 161.246094 69.3125 161.246094 69.28125 161.246094 69.15625 C 161.246094 68.84375 161.558594 68.65625 161.933594 68.65625 L 161.933594 68.03125 C 161.433594 68.0625 160.121094 68.09375 159.777344 68.09375 C 159.371094 68.09375 158.433594 68.0625 157.902344 68.03125 L 157.902344 68.65625 C 159.308594 68.65625 159.308594 68.65625 160.246094 69.875 L 162.214844 72.4375 L 160.339844 74.8125 C 159.402344 75.96875 158.214844 76 157.808594 76 L 157.808594 76.625 C 158.308594 76.59375 158.933594 76.5625 159.464844 76.5625 C 160.027344 76.5625 160.871094 76.59375 161.339844 76.625 L 161.339844 76 C 160.902344 75.9375 160.777344 75.6875 160.777344 75.375 C 160.777344 74.9375 161.339844 74.28125 162.558594 72.84375 L 164.089844 74.84375 C 164.246094 75.0625 164.496094 75.375 164.496094 75.5 C 164.496094 75.6875 164.308594 76 163.777344 76 L 163.777344 76.625 C 164.371094 76.59375 165.496094 76.5625 165.933594 76.5625 C 166.464844 76.5625 167.246094 76.59375 167.839844 76.625 L 167.839844 76 C 166.777344 76 166.402344 75.96875 165.964844 75.375 Z M 163.277344 71.9375 "/>
<path style=" stroke:none;fill-rule:nonzero;fill:rgb(0%,0%,0%);fill-opacity:1;" d="M 173.792969 71.9375 C 174.386719 71.1875 175.136719 70.21875 175.636719 69.6875 C 176.261719 68.96875 177.074219 68.65625 178.011719 68.65625 L 178.011719 68.03125 C 177.480469 68.0625 176.886719 68.09375 176.355469 68.09375 C 175.761719 68.09375 174.699219 68.0625 174.449219 68.03125 L 174.449219 68.65625 C 174.886719 68.6875 175.042969 68.9375 175.042969 69.28125 C 175.042969 69.59375 174.824219 69.84375 174.730469 69.96875 L 173.511719 71.53125 L 171.949219 69.5 C 171.761719 69.3125 171.761719 69.28125 171.761719 69.15625 C 171.761719 68.84375 172.074219 68.65625 172.449219 68.65625 L 172.449219 68.03125 C 171.949219 68.0625 170.636719 68.09375 170.292969 68.09375 C 169.886719 68.09375 168.949219 68.0625 168.417969 68.03125 L 168.417969 68.65625 C 169.824219 68.65625 169.824219 68.65625 170.761719 69.875 L 172.730469 72.4375 L 170.855469 74.8125 C 169.917969 75.96875 168.730469 76 168.324219 76 L 168.324219 76.625 C 168.824219 76.59375 169.449219 76.5625 169.980469 76.5625 C 170.542969 76.5625 171.386719 76.59375 171.855469 76.625 L 171.855469 76 C 171.417969 75.9375 171.292969 75.6875 171.292969 75.375 C 171.292969 74.9375 171.855469 74.28125 173.074219 72.84375 L 174.605469 74.84375 C 174.761719 75.0625 175.011719 75.375 175.011719 75.5 C 175.011719 75.6875 174.824219 76 174.292969 76 L 174.292969 76.625 C 174.886719 76.59375 176.011719 76.5625 176.449219 76.5625 C 176.980469 76.5625 177.761719 76.59375 178.355469 76.625 L 178.355469 76 C 177.292969 76 176.917969 75.96875 176.480469 75.375 Z M 173.792969 71.9375 "/>
<path style=" stroke:none;fill-rule:nonzero;fill:rgb(0%,0%,0%);fill-opacity:1;" d="M 184.3125 71.9375 C 184.90625 71.1875 185.65625 70.21875 186.15625 69.6875 C 186.78125 68.96875 187.59375 68.65625 188.53125 68.65625 L 188.53125 68.03125 C 188 68.0625 187.40625 68.09375 186.875 68.09375 C 186.28125 68.09375 185.21875 68.0625 184.96875 68.03125 L 184.96875 68.65625 C 185.40625 68.6875 185.5625 68.9375 185.5625 69.28125 C 185.5625 69.59375 185.34375 69.84375 185.25 69.96875 L 184.03125 71.53125 L 182.46875 69.5 C 182.28125 69.3125 182.28125 69.28125 182.28125 69.15625 C 182.28125 68.84375 182.59375 68.65625 182.96875 68.65625 L 182.96875 68.03125 C 182.46875 68.0625 181.15625 68.09375 180.8125 68.09375 C 180.40625 68.09375 179.46875 68.0625 178.9375 68.03125 L 178.9375 68.65625 C 180.34375 68.65625 180.34375 68.65625 181.28125 69.875 L 183.25 72.4375 L 181.375 74.8125 C 180.4375 75.96875 179.25 76 178.84375 76 L 178.84375 76.625 C 179.34375 76.59375 179.96875 76.5625 180.5 76.5625 C 181.0625 76.5625 181.90625 76.59375 182.375 76.625 L 182.375 76 C 181.9375 75.9375 181.8125 75.6875 181.8125 75.375 C 181.8125 74.9375 182.375 74.28125 183.59375 72.84375 L 185.125 74.84375 C 185.28125 75.0625 185.53125 75.375 185.53125 75.5 C 185.53125 75.6875 185.34375 76 184.8125 76 L 184.8125 76.625 C 185.40625 76.59375 186.53125 76.5625 186.96875 76.5625 C 187.5 76.5625 188.28125 76.59375 188.875 76.625 L 188.875 76 C 187.8125 76 187.4375 75.96875 187 75.375 Z M 184.3125 71.9375 "/>
<path style="fill:none;stroke-width:0.566929;stroke-linecap:butt;stroke-linejoin:miter;stroke:rgb(100%,0%,0%);stroke-opacity:0.5;stroke-miterlimit:10;" d="M 95.555979 31.180979 L 101.225901 25.511057 " transform="matrix(2,0,0,2,5.669291,5.669291)"/>
<path style="fill:none;stroke-width:0.566929;stroke-linecap:butt;stroke-linejoin:miter;stroke:rgb(100%,0%,0%);stroke-opacity:0.5;stroke-miterlimit:10;" d="M 101.225901 31.180979 L 95.555979 25.511057 " transform="matrix(2,0,0,2,5.669291,5.669291)"/>
<path style="fill:none;stroke-width:0.566929;stroke-linecap:butt;stroke-linejoin:miter;stroke:rgb(100%,0%,0%);stroke-opacity:0.5;stroke-miterlimit:10;" d="M 98.391917 56.692698 L 98.391917 28.346995 Z M 98.391917 56.692698 " transform="matrix(2,0,0,2,5.669291,5.669291)"/>
<path style="fill:none;stroke-width:0.566929;stroke-linecap:butt;stroke-linejoin:miter;stroke:rgb(100%,0%,0%);stroke-opacity:0.5;stroke-miterlimit:10;" d="M 6.356761 59.526682 L 12.026682 53.858714 " transform="matrix(2,0,0,2,5.669291,5.669291)"/>
<path style="fill:none;stroke-width:0.566929;stroke-linecap:butt;stroke-linejoin:miter;stroke:rgb(100%,0%,0%);stroke-opacity:0.5;stroke-miterlimit:10;" d="M 12.026682 59.526682 L 6.356761 53.858714 " transform="matrix(2,0,0,2,5.669291,5.669291)"/>
<path style="fill-rule:nonzero;fill:rgb(50%,50%,0%);fill-opacity:0.1;stroke-width:0.566929;stroke-linecap:butt;stroke-linejoin:miter;stroke:rgb(100%,0%,0%);stroke-opacity:0.5;stroke-miterlimit:10;" d="M -0.000661294 66.940745 L 18.384104 66.940745 L 18.384104 56.692698 L -0.000661294 56.692698 Z M -0.000661294 66.940745 " transform="matrix(2,0,0,2,5.669291,5.669291)"/>
<path style="fill:none;stroke-width:0.566929;stroke-linecap:butt;stroke-linejoin:miter;stroke:rgb(100%,0%,0%);stroke-opacity:0.5;stroke-miterlimit:10;" d="M -0.000661294 66.83137 L 5.669261 61.161448 " transform="matrix(2,0,0,2,5.669291,5.669291)"/>
<path style="fill:none;stroke-width:0.566929;stroke-linecap:butt;stroke-linejoin:miter;stroke:rgb(100%,0%,0%);stroke-opacity:0.5;stroke-miterlimit:10;" d="M 5.669261 66.83137 L -0.000661294 61.161448 " transform="matrix(2,0,0,2,5.669291,5.669291)"/>
<path style="fill-rule:nonzero;fill:rgb(50%,50%,0%);fill-opacity:0.1;stroke-width:0.566929;stroke-linecap:butt;stroke-linejoin:miter;stroke:rgb(100%,0%,0%);stroke-opacity:0.5;stroke-miterlimit:10;" d="M -0.000661294 66.940745 L 18.384104 66.940745 L 18.384104 56.692698 L -0.000661294 56.692698 Z M -0.000661294 66.940745 " transform="matrix(2,0,0,2,5.669291,5.669291)"/>
<path style="fill:none;stroke-width:0.566929;stroke-linecap:butt;stroke-linejoin:miter;stroke:rgb(100%,0%,0%);stroke-opacity:0.5;stroke-miterlimit:10;" d="M -0.000661294 66.83137 L 5.669261 61.161448 " transform="matrix(2,0,0,2,5.669291,5.669291)"/>
<path style="fill:none;stroke-width:0.566929;stroke-linecap:butt;stroke-linejoin:miter;stroke:rgb(100%,0%,0%);stroke-opacity:0.5;stroke-miterlimit:10;" d="M 5.669261 66.83137 L -0.000661294 61.161448 " transform="matrix(2,0,0,2,5.669291,5.669291)"/>
<path style="fill-rule:nonzero;fill:rgb(50%,50%,0%);fill-opacity:0.1;stroke-width:0.566929;stroke-linecap:butt;stroke-linejoin:miter;stroke:rgb(100%,0%,0%);stroke-opacity:0.5;stroke-miterlimit:10;" d="M 2.835276 64.104807 L 15.548167 64.104807 L 15.548167 59.526682 L 2.835276 59.526682 Z M 2.835276 64.104807 " transform="matrix(2,0,0,2,5.669291,5.669291)"/>
<path style=" stroke:none;fill-rule:nonzero;fill:rgb(0%,0%,0%);fill-opacity:1;" d="M 12.996094 128.628906 C 13.121094 125.660156 14.808594 125.160156 15.496094 125.160156 C 17.527344 125.160156 17.746094 127.847656 17.746094 128.628906 Z M 12.996094 129.066406 L 18.558594 129.066406 C 18.996094 129.066406 19.058594 129.066406 19.058594 128.628906 C 19.058594 126.660156 17.964844 124.722656 15.496094 124.722656 C 13.183594 124.722656 11.339844 126.785156 11.339844 129.285156 C 11.339844 131.941406 13.433594 133.878906 15.714844 133.878906 C 18.152344 133.878906 19.058594 131.660156 19.058594 131.285156 C 19.058594 131.097656 18.902344 131.035156 18.777344 131.035156 C 18.621094 131.035156 18.558594 131.160156 18.527344 131.316406 C 17.839844 133.378906 16.027344 133.378906 15.839844 133.378906 C 14.839844 133.378906 14.058594 132.785156 13.589844 132.035156 C 12.996094 131.097656 12.996094 129.785156 12.996094 129.066406 Z M 12.996094 129.066406 "/>
<path style=" stroke:none;fill-rule:nonzero;fill:rgb(0%,0%,0%);fill-opacity:1;" d="M 21.847656 128.628906 C 21.972656 125.660156 23.660156 125.160156 24.347656 125.160156 C 26.378906 125.160156 26.597656 127.847656 26.597656 128.628906 Z M 21.847656 129.066406 L 27.410156 129.066406 C 27.847656 129.066406 27.910156 129.066406 27.910156 128.628906 C 27.910156 126.660156 26.816406 124.722656 24.347656 124.722656 C 22.035156 124.722656 20.191406 126.785156 20.191406 129.285156 C 20.191406 131.941406 22.285156 133.878906 24.566406 133.878906 C 27.003906 133.878906 27.910156 131.660156 27.910156 131.285156 C 27.910156 131.097656 27.753906 131.035156 27.628906 131.035156 C 27.472656 131.035156 27.410156 131.160156 27.378906 131.316406 C 26.691406 133.378906 24.878906 133.378906 24.691406 133.378906 C 23.691406 133.378906 22.910156 132.785156 22.441406 132.035156 C 21.847656 131.097656 21.847656 129.785156 21.847656 129.066406 Z M 21.847656 129.066406 "/>
<path style=" stroke:none;fill-rule:nonzero;fill:rgb(0%,0%,0%);fill-opacity:1;" d="M 30.703125 128.628906 C 30.828125 125.660156 32.515625 125.160156 33.203125 125.160156 C 35.234375 125.160156 35.453125 127.847656 35.453125 128.628906 Z M 30.703125 129.066406 L 36.265625 129.066406 C 36.703125 129.066406 36.765625 129.066406 36.765625 128.628906 C 36.765625 126.660156 35.671875 124.722656 33.203125 124.722656 C 30.890625 124.722656 29.046875 126.785156 29.046875 129.285156 C 29.046875 131.941406 31.140625 133.878906 33.421875 133.878906 C 35.859375 133.878906 36.765625 131.660156 36.765625 131.285156 C 36.765625 131.097656 36.609375 131.035156 36.484375 131.035156 C 36.328125 131.035156 36.265625 131.160156 36.234375 131.316406 C 35.546875 133.378906 33.734375 133.378906 33.546875 133.378906 C 32.546875 133.378906 31.765625 132.785156 31.296875 132.035156 C 30.703125 131.097656 30.703125 129.785156 30.703125 129.066406 Z M 30.703125 129.066406 "/>
<path style="fill:none;stroke-width:0.566929;stroke-linecap:butt;stroke-linejoin:miter;stroke:rgb(100%,0%,0%);stroke-opacity:0.5;stroke-miterlimit:10;" d="M 33.110667 59.526682 L 38.778636 53.858714 " transform="matrix(2,0,0,2,5.669291,5.669291)"/>
<path style="fill:none;stroke-width:0.566929;stroke-linecap:butt;stroke-linejoin:miter;stroke:rgb(100%,0%,0%);stroke-opacity:0.5;stroke-miterlimit:10;" d="M 38.778636 59.526682 L 33.110667 53.858714 " transform="matrix(2,0,0,2,5.669291,5.669291)"/>
<path style="fill-rule:nonzero;fill:rgb(50%,50%,0%);fill-opacity:0.1;stroke-width:0.566929;stroke-linecap:butt;stroke-linejoin:miter;stroke:rgb(100%,0%,0%);stroke-opacity:0.5;stroke-miterlimit:10;" d="M 18.384104 68.92512 L 53.505198 68.92512 L 53.505198 56.692698 L 18.384104 56.692698 Z M 18.384104 68.92512 " transform="matrix(2,0,0,2,5.669291,5.669291)"/>
<path style="fill:none;stroke-width:0.566929;stroke-linecap:butt;stroke-linejoin:miter;stroke:rgb(100%,0%,0%);stroke-opacity:0.5;stroke-miterlimit:10;" d="M 18.384104 66.878245 L 24.052073 61.208323 " transform="matrix(2,0,0,2,5.669291,5.669291)"/>
<path style="fill:none;stroke-width:0.566929;stroke-linecap:butt;stroke-linejoin:miter;stroke:rgb(100%,0%,0%);stroke-opacity:0.5;stroke-miterlimit:10;" d="M 24.052073 66.878245 L 18.384104 61.208323 " transform="matrix(2,0,0,2,5.669291,5.669291)"/>
<path style="fill-rule:nonzero;fill:rgb(50%,50%,0%);fill-opacity:0.1;stroke-width:0.566929;stroke-linecap:butt;stroke-linejoin:miter;stroke:rgb(100%,0%,0%);stroke-opacity:0.5;stroke-miterlimit:10;" d="M 18.384104 68.92512 L 53.505198 68.92512 L 53.505198 56.692698 L 18.384104 56.692698 Z M 18.384104 68.92512 " transform="matrix(2,0,0,2,5.669291,5.669291)"/>
<path style="fill:none;stroke-width:0.566929;stroke-linecap:butt;stroke-linejoin:miter;stroke:rgb(100%,0%,0%);stroke-opacity:0.5;stroke-miterlimit:10;" d="M 18.384104 66.878245 L 24.052073 61.208323 " transform="matrix(2,0,0,2,5.669291,5.669291)"/>
<path style="fill:none;stroke-width:0.566929;stroke-linecap:butt;stroke-linejoin:miter;stroke:rgb(100%,0%,0%);stroke-opacity:0.5;stroke-miterlimit:10;" d="M 24.052073 66.878245 L 18.384104 61.208323 " transform="matrix(2,0,0,2,5.669291,5.669291)"/>
<path style="fill-rule:nonzero;fill:rgb(50%,50%,0%);fill-opacity:0.1;stroke-width:0.566929;stroke-linecap:butt;stroke-linejoin:miter;stroke:rgb(100%,0%,0%);stroke-opacity:0.5;stroke-miterlimit:10;" d="M 21.218089 66.089182 L 50.671214 66.089182 L 50.671214 59.526682 L 21.218089 59.526682 Z M 21.218089 66.089182 " transform="matrix(2,0,0,2,5.669291,5.669291)"/>
<path style=" stroke:none;fill-rule:nonzero;fill:rgb(0%,0%,0%);fill-opacity:1;" d="M 51.980469 130.316406 C 50.230469 130.316406 50.230469 128.316406 50.230469 127.878906 C 50.230469 127.347656 50.261719 126.691406 50.542969 126.191406 C 50.699219 125.972656 51.167969 125.410156 51.980469 125.410156 C 53.699219 125.410156 53.699219 127.378906 53.699219 127.847656 C 53.699219 128.378906 53.699219 129.035156 53.386719 129.535156 C 53.230469 129.753906 52.761719 130.316406 51.980469 130.316406 Z M 49.667969 131.097656 C 49.667969 131.035156 49.667969 130.566406 49.980469 130.160156 C 50.761719 130.722656 51.605469 130.785156 51.980469 130.785156 C 53.824219 130.785156 55.199219 129.410156 55.199219 127.878906 C 55.199219 127.128906 54.886719 126.410156 54.386719 125.941406 C 55.105469 125.253906 55.824219 125.160156 56.167969 125.160156 C 56.230469 125.160156 56.324219 125.160156 56.386719 125.191406 C 56.167969 125.253906 56.042969 125.472656 56.042969 125.722656 C 56.042969 126.066406 56.324219 126.285156 56.636719 126.285156 C 56.824219 126.285156 57.199219 126.160156 57.199219 125.691406 C 57.199219 125.347656 56.980469 124.722656 56.199219 124.722656 C 55.792969 124.722656 54.917969 124.847656 54.074219 125.660156 C 53.230469 125.003906 52.417969 124.941406 51.980469 124.941406 C 50.105469 124.941406 48.730469 126.316406 48.730469 127.847656 C 48.730469 128.722656 49.167969 129.472656 49.667969 129.910156 C 49.417969 130.191406 49.042969 130.847656 49.042969 131.566406 C 49.042969 132.191406 49.324219 132.941406 49.949219 133.347656 C 48.730469 133.660156 48.105469 134.535156 48.105469 135.316406 C 48.105469 136.753906 50.074219 137.847656 52.511719 137.847656 C 54.855469 137.847656 56.917969 136.847656 56.917969 135.285156 C 56.917969 134.597656 56.667969 133.566406 55.636719 133.003906 C 54.574219 132.472656 53.417969 132.472656 52.199219 132.472656 C 51.699219 132.472656 50.855469 132.472656 50.699219 132.441406 C 50.074219 132.347656 49.667969 131.753906 49.667969 131.097656 Z M 52.542969 137.410156 C 50.511719 137.410156 49.136719 136.378906 49.136719 135.316406 C 49.136719 134.410156 49.886719 133.660156 50.761719 133.628906 L 51.949219 133.628906 C 53.667969 133.628906 55.886719 133.628906 55.886719 135.316406 C 55.886719 136.410156 54.480469 137.410156 52.542969 137.410156 Z M 52.542969 137.410156 "/>
<path style=" stroke:none;fill-rule:nonzero;fill:rgb(0%,0%,0%);fill-opacity:1;" d="M 61.941406 130.316406 C 60.191406 130.316406 60.191406 128.316406 60.191406 127.878906 C 60.191406 127.347656 60.222656 126.691406 60.503906 126.191406 C 60.660156 125.972656 61.128906 125.410156 61.941406 125.410156 C 63.660156 125.410156 63.660156 127.378906 63.660156 127.847656 C 63.660156 128.378906 63.660156 129.035156 63.347656 129.535156 C 63.191406 129.753906 62.722656 130.316406 61.941406 130.316406 Z M 59.628906 131.097656 C 59.628906 131.035156 59.628906 130.566406 59.941406 130.160156 C 60.722656 130.722656 61.566406 130.785156 61.941406 130.785156 C 63.785156 130.785156 65.160156 129.410156 65.160156 127.878906 C 65.160156 127.128906 64.847656 126.410156 64.347656 125.941406 C 65.066406 125.253906 65.785156 125.160156 66.128906 125.160156 C 66.191406 125.160156 66.285156 125.160156 66.347656 125.191406 C 66.128906 125.253906 66.003906 125.472656 66.003906 125.722656 C 66.003906 126.066406 66.285156 126.285156 66.597656 126.285156 C 66.785156 126.285156 67.160156 126.160156 67.160156 125.691406 C 67.160156 125.347656 66.941406 124.722656 66.160156 124.722656 C 65.753906 124.722656 64.878906 124.847656 64.035156 125.660156 C 63.191406 125.003906 62.378906 124.941406 61.941406 124.941406 C 60.066406 124.941406 58.691406 126.316406 58.691406 127.847656 C 58.691406 128.722656 59.128906 129.472656 59.628906 129.910156 C 59.378906 130.191406 59.003906 130.847656 59.003906 131.566406 C 59.003906 132.191406 59.285156 132.941406 59.910156 133.347656 C 58.691406 133.660156 58.066406 134.535156 58.066406 135.316406 C 58.066406 136.753906 60.035156 137.847656 62.472656 137.847656 C 64.816406 137.847656 66.878906 136.847656 66.878906 135.285156 C 66.878906 134.597656 66.628906 133.566406 65.597656 133.003906 C 64.535156 132.472656 63.378906 132.472656 62.160156 132.472656 C 61.660156 132.472656 60.816406 132.472656 60.660156 132.441406 C 60.035156 132.347656 59.628906 131.753906 59.628906 131.097656 Z M 62.503906 137.410156 C 60.472656 137.410156 59.097656 136.378906 59.097656 135.316406 C 59.097656 134.410156 59.847656 133.660156 60.722656 133.628906 L 61.910156 133.628906 C 63.628906 133.628906 65.847656 133.628906 65.847656 135.316406 C 65.847656 136.410156 64.441406 137.410156 62.503906 137.410156 Z M 62.503906 137.410156 "/>
<path style=" stroke:none;fill-rule:nonzero;fill:rgb(0%,0%,0%);fill-opacity:1;" d="M 71.90625 130.316406 C 70.15625 130.316406 70.15625 128.316406 70.15625 127.878906 C 70.15625 127.347656 70.1875 126.691406 70.46875 126.191406 C 70.625 125.972656 71.09375 125.410156 71.90625 125.410156 C 73.625 125.410156 73.625 127.378906 73.625 127.847656 C 73.625 128.378906 73.625 129.035156 73.3125 129.535156 C 73.15625 129.753906 72.6875 130.316406 71.90625 130.316406 Z M 69.59375 131.097656 C 69.59375 131.035156 69.59375 130.566406 69.90625 130.160156 C 70.6875 130.722656 71.53125 130.785156 71.90625 130.785156 C 73.75 130.785156 75.125 129.410156 75.125 127.878906 C 75.125 127.128906 74.8125 126.410156 74.3125 125.941406 C 75.03125 125.253906 75.75 125.160156 76.09375 125.160156 C 76.15625 125.160156 76.25 125.160156 76.3125 125.191406 C 76.09375 125.253906 75.96875 125.472656 75.96875 125.722656 C 75.96875 126.066406 76.25 126.285156 76.5625 126.285156 C 76.75 126.285156 77.125 126.160156 77.125 125.691406 C 77.125 125.347656 76.90625 124.722656 76.125 124.722656 C 75.71875 124.722656 74.84375 124.847656 74 125.660156 C 73.15625 125.003906 72.34375 124.941406 71.90625 124.941406 C 70.03125 124.941406 68.65625 126.316406 68.65625 127.847656 C 68.65625 128.722656 69.09375 129.472656 69.59375 129.910156 C 69.34375 130.191406 68.96875 130.847656 68.96875 131.566406 C 68.96875 132.191406 69.25 132.941406 69.875 133.347656 C 68.65625 133.660156 68.03125 134.535156 68.03125 135.316406 C 68.03125 136.753906 70 137.847656 72.4375 137.847656 C 74.78125 137.847656 76.84375 136.847656 76.84375 135.285156 C 76.84375 134.597656 76.59375 133.566406 75.5625 133.003906 C 74.5 132.472656 73.34375 132.472656 72.125 132.472656 C 71.625 132.472656 70.78125 132.472656 70.625 132.441406 C 70 132.347656 69.59375 131.753906 69.59375 131.097656 Z M 72.46875 137.410156 C 70.4375 137.410156 69.0625 136.378906 69.0625 135.316406 C 69.0625 134.410156 69.8125 133.660156 70.6875 133.628906 L 71.875 133.628906 C 73.59375 133.628906 75.8125 133.628906 75.8125 135.316406 C 75.8125 136.410156 74.40625 137.410156 72.46875 137.410156 Z M 72.46875 137.410156 "/>
<path style=" stroke:none;fill-rule:nonzero;fill:rgb(0%,0%,0%);fill-opacity:1;" d="M 81.867188 130.316406 C 80.117188 130.316406 80.117188 128.316406 80.117188 127.878906 C 80.117188 127.347656 80.148438 126.691406 80.429688 126.191406 C 80.585938 125.972656 81.054688 125.410156 81.867188 125.410156 C 83.585938 125.410156 83.585938 127.378906 83.585938 127.847656 C 83.585938 128.378906 83.585938 129.035156 83.273438 129.535156 C 83.117188 129.753906 82.648438 130.316406 81.867188 130.316406 Z M 79.554688 131.097656 C 79.554688 131.035156 79.554688 130.566406 79.867188 130.160156 C 80.648438 130.722656 81.492188 130.785156 81.867188 130.785156 C 83.710938 130.785156 85.085938 129.410156 85.085938 127.878906 C 85.085938 127.128906 84.773438 126.410156 84.273438 125.941406 C 84.992188 125.253906 85.710938 125.160156 86.054688 125.160156 C 86.117188 125.160156 86.210938 125.160156 86.273438 125.191406 C 86.054688 125.253906 85.929688 125.472656 85.929688 125.722656 C 85.929688 126.066406 86.210938 126.285156 86.523438 126.285156 C 86.710938 126.285156 87.085938 126.160156 87.085938 125.691406 C 87.085938 125.347656 86.867188 124.722656 86.085938 124.722656 C 85.679688 124.722656 84.804688 124.847656 83.960938 125.660156 C 83.117188 125.003906 82.304688 124.941406 81.867188 124.941406 C 79.992188 124.941406 78.617188 126.316406 78.617188 127.847656 C 78.617188 128.722656 79.054688 129.472656 79.554688 129.910156 C 79.304688 130.191406 78.929688 130.847656 78.929688 131.566406 C 78.929688 132.191406 79.210938 132.941406 79.835938 133.347656 C 78.617188 133.660156 77.992188 134.535156 77.992188 135.316406 C 77.992188 136.753906 79.960938 137.847656 82.398438 137.847656 C 84.742188 137.847656 86.804688 136.847656 86.804688 135.285156 C 86.804688 134.597656 86.554688 133.566406 85.523438 133.003906 C 84.460938 132.472656 83.304688 132.472656 82.085938 132.472656 C 81.585938 132.472656 80.742188 132.472656 80.585938 132.441406 C 79.960938 132.347656 79.554688 131.753906 79.554688 131.097656 Z M 82.429688 137.410156 C 80.398438 137.410156 79.023438 136.378906 79.023438 135.316406 C 79.023438 134.410156 79.773438 133.660156 80.648438 133.628906 L 81.835938 133.628906 C 83.554688 133.628906 85.773438 133.628906 85.773438 135.316406 C 85.773438 136.410156 84.367188 137.410156 82.429688 137.410156 Z M 82.429688 137.410156 "/>
<path style=" stroke:none;fill-rule:nonzero;fill:rgb(0%,0%,0%);fill-opacity:1;" d="M 91.832031 130.316406 C 90.082031 130.316406 90.082031 128.316406 90.082031 127.878906 C 90.082031 127.347656 90.113281 126.691406 90.394531 126.191406 C 90.550781 125.972656 91.019531 125.410156 91.832031 125.410156 C 93.550781 125.410156 93.550781 127.378906 93.550781 127.847656 C 93.550781 128.378906 93.550781 129.035156 93.238281 129.535156 C 93.082031 129.753906 92.613281 130.316406 91.832031 130.316406 Z M 89.519531 131.097656 C 89.519531 131.035156 89.519531 130.566406 89.832031 130.160156 C 90.613281 130.722656 91.457031 130.785156 91.832031 130.785156 C 93.675781 130.785156 95.050781 129.410156 95.050781 127.878906 C 95.050781 127.128906 94.738281 126.410156 94.238281 125.941406 C 94.957031 125.253906 95.675781 125.160156 96.019531 125.160156 C 96.082031 125.160156 96.175781 125.160156 96.238281 125.191406 C 96.019531 125.253906 95.894531 125.472656 95.894531 125.722656 C 95.894531 126.066406 96.175781 126.285156 96.488281 126.285156 C 96.675781 126.285156 97.050781 126.160156 97.050781 125.691406 C 97.050781 125.347656 96.832031 124.722656 96.050781 124.722656 C 95.644531 124.722656 94.769531 124.847656 93.925781 125.660156 C 93.082031 125.003906 92.269531 124.941406 91.832031 124.941406 C 89.957031 124.941406 88.582031 126.316406 88.582031 127.847656 C 88.582031 128.722656 89.019531 129.472656 89.519531 129.910156 C 89.269531 130.191406 88.894531 130.847656 88.894531 131.566406 C 88.894531 132.191406 89.175781 132.941406 89.800781 133.347656 C 88.582031 133.660156 87.957031 134.535156 87.957031 135.316406 C 87.957031 136.753906 89.925781 137.847656 92.363281 137.847656 C 94.707031 137.847656 96.769531 136.847656 96.769531 135.285156 C 96.769531 134.597656 96.519531 133.566406 95.488281 133.003906 C 94.425781 132.472656 93.269531 132.472656 92.050781 132.472656 C 91.550781 132.472656 90.707031 132.472656 90.550781 132.441406 C 89.925781 132.347656 89.519531 131.753906 89.519531 131.097656 Z M 92.394531 137.410156 C 90.363281 137.410156 88.988281 136.378906 88.988281 135.316406 C 88.988281 134.410156 89.738281 133.660156 90.613281 133.628906 L 91.800781 133.628906 C 93.519531 133.628906 95.738281 133.628906 95.738281 135.316406 C 95.738281 136.410156 94.332031 137.410156 92.394531 137.410156 Z M 92.394531 137.410156 "/>
<path style=" stroke:none;fill-rule:nonzero;fill:rgb(0%,0%,0%);fill-opacity:1;" d="M 101.792969 130.316406 C 100.042969 130.316406 100.042969 128.316406 100.042969 127.878906 C 100.042969 127.347656 100.074219 126.691406 100.355469 126.191406 C 100.511719 125.972656 100.980469 125.410156 101.792969 125.410156 C 103.511719 125.410156 103.511719 127.378906 103.511719 127.847656 C 103.511719 128.378906 103.511719 129.035156 103.199219 129.535156 C 103.042969 129.753906 102.574219 130.316406 101.792969 130.316406 Z M 99.480469 131.097656 C 99.480469 131.035156 99.480469 130.566406 99.792969 130.160156 C 100.574219 130.722656 101.417969 130.785156 101.792969 130.785156 C 103.636719 130.785156 105.011719 129.410156 105.011719 127.878906 C 105.011719 127.128906 104.699219 126.410156 104.199219 125.941406 C 104.917969 125.253906 105.636719 125.160156 105.980469 125.160156 C 106.042969 125.160156 106.136719 125.160156 106.199219 125.191406 C 105.980469 125.253906 105.855469 125.472656 105.855469 125.722656 C 105.855469 126.066406 106.136719 126.285156 106.449219 126.285156 C 106.636719 126.285156 107.011719 126.160156 107.011719 125.691406 C 107.011719 125.347656 106.792969 124.722656 106.011719 124.722656 C 105.605469 124.722656 104.730469 124.847656 103.886719 125.660156 C 103.042969 125.003906 102.230469 124.941406 101.792969 124.941406 C 99.917969 124.941406 98.542969 126.316406 98.542969 127.847656 C 98.542969 128.722656 98.980469 129.472656 99.480469 129.910156 C 99.230469 130.191406 98.855469 130.847656 98.855469 131.566406 C 98.855469 132.191406 99.136719 132.941406 99.761719 133.347656 C 98.542969 133.660156 97.917969 134.535156 97.917969 135.316406 C 97.917969 136.753906 99.886719 137.847656 102.324219 137.847656 C 104.667969 137.847656 106.730469 136.847656 106.730469 135.285156 C 106.730469 134.597656 106.480469 133.566406 105.449219 133.003906 C 104.386719 132.472656 103.230469 132.472656 102.011719 132.472656 C 101.511719 132.472656 100.667969 132.472656 100.511719 132.441406 C 99.886719 132.347656 99.480469 131.753906 99.480469 131.097656 Z M 102.355469 137.410156 C 100.324219 137.410156 98.949219 136.378906 98.949219 135.316406 C 98.949219 134.410156 99.699219 133.660156 100.574219 133.628906 L 101.761719 133.628906 C 103.480469 133.628906 105.699219 133.628906 105.699219 135.316406 C 105.699219 136.410156 104.292969 137.410156 102.355469 137.410156 Z M 102.355469 137.410156 "/>
<path style="fill:none;stroke-width:0.566929;stroke-linecap:butt;stroke-linejoin:miter;stroke:rgb(100%,0%,0%);stroke-opacity:0.5;stroke-miterlimit:10;" d="M 73.114573 59.526682 L 78.782542 53.858714 " transform="matrix(2,0,0,2,5.669291,5.669291)"/>
<path style="fill:none;stroke-width:0.566929;stroke-linecap:butt;stroke-linejoin:miter;stroke:rgb(100%,0%,0%);stroke-opacity:0.5;stroke-miterlimit:10;" d="M 78.782542 59.526682 L 73.114573 53.858714 " transform="matrix(2,0,0,2,5.669291,5.669291)"/>
<path style="fill-rule:nonzero;fill:rgb(50%,50%,0%);fill-opacity:0.1;stroke-width:0.566929;stroke-linecap:butt;stroke-linejoin:miter;stroke:rgb(100%,0%,0%);stroke-opacity:0.5;stroke-miterlimit:10;" d="M 53.505198 66.940745 L 98.391917 66.940745 L 98.391917 56.692698 L 53.505198 56.692698 Z M 53.505198 66.940745 " transform="matrix(2,0,0,2,5.669291,5.669291)"/>
<path style="fill:none;stroke-width:0.566929;stroke-linecap:butt;stroke-linejoin:miter;stroke:rgb(100%,0%,0%);stroke-opacity:0.5;stroke-miterlimit:10;" d="M 53.505198 66.83137 L 59.17512 61.161448 " transform="matrix(2,0,0,2,5.669291,5.669291)"/>
<path style="fill:none;stroke-width:0.566929;stroke-linecap:butt;stroke-linejoin:miter;stroke:rgb(100%,0%,0%);stroke-opacity:0.5;stroke-miterlimit:10;" d="M 59.17512 66.83137 L 53.505198 61.161448 " transform="matrix(2,0,0,2,5.669291,5.669291)"/>
<path style="fill-rule:nonzero;fill:rgb(50%,50%,0%);fill-opacity:0.1;stroke-width:0.566929;stroke-linecap:butt;stroke-linejoin:miter;stroke:rgb(100%,0%,0%);stroke-opacity:0.5;stroke-miterlimit:10;" d="M 53.505198 66.940745 L 98.391917 66.940745 L 98.391917 56.692698 L 53.505198 56.692698 Z M 53.505198 66.940745 " transform="matrix(2,0,0,2,5.669291,5.669291)"/>
<path style="fill:none;stroke-width:0.566929;stroke-linecap:butt;stroke-linejoin:miter;stroke:rgb(100%,0%,0%);stroke-opacity:0.5;stroke-miterlimit:10;" d="M 53.505198 66.83137 L 59.17512 61.161448 " transform="matrix(2,0,0,2,5.669291,5.669291)"/>
<path style="fill:none;stroke-width:0.566929;stroke-linecap:butt;stroke-linejoin:miter;stroke:rgb(100%,0%,0%);stroke-opacity:0.5;stroke-miterlimit:10;" d="M 59.17512 66.83137 L 53.505198 61.161448 " transform="matrix(2,0,0,2,5.669291,5.669291)"/>
<path style="fill-rule:nonzero;fill:rgb(50%,50%,0%);fill-opacity:0.1;stroke-width:0.566929;stroke-linecap:butt;stroke-linejoin:miter;stroke:rgb(100%,0%,0%);stroke-opacity:0.5;stroke-miterlimit:10;" d="M 56.341136 64.104807 L 95.555979 64.104807 L 95.555979 59.526682 L 56.341136 59.526682 Z M 56.341136 64.104807 " transform="matrix(2,0,0,2,5.669291,5.669291)"/>
<path style=" stroke:none;fill-rule:nonzero;fill:rgb(0%,0%,0%);fill-opacity:1;" d="M 120.007812 129.316406 C 120.007812 126.066406 121.632812 125.222656 122.695312 125.222656 C 122.882812 125.222656 124.132812 125.253906 124.820312 125.972656 C 124.007812 126.035156 123.882812 126.628906 123.882812 126.878906 C 123.882812 127.410156 124.257812 127.785156 124.789062 127.785156 C 125.320312 127.785156 125.726562 127.472656 125.726562 126.847656 C 125.726562 125.503906 124.195312 124.722656 122.664062 124.722656 C 120.164062 124.722656 118.351562 126.878906 118.351562 129.347656 C 118.351562 131.910156 120.320312 133.878906 122.632812 133.878906 C 125.289062 133.878906 125.945312 131.472656 125.945312 131.285156 C 125.945312 131.097656 125.726562 131.097656 125.664062 131.097656 C 125.507812 131.097656 125.445312 131.160156 125.414062 131.285156 C 124.851562 133.128906 123.539062 133.378906 122.820312 133.378906 C 121.757812 133.378906 120.007812 132.535156 120.007812 129.316406 Z M 120.007812 129.316406 "/>
<path style=" stroke:none;fill-rule:nonzero;fill:rgb(0%,0%,0%);fill-opacity:1;" d="M 128.863281 129.316406 C 128.863281 126.066406 130.488281 125.222656 131.550781 125.222656 C 131.738281 125.222656 132.988281 125.253906 133.675781 125.972656 C 132.863281 126.035156 132.738281 126.628906 132.738281 126.878906 C 132.738281 127.410156 133.113281 127.785156 133.644531 127.785156 C 134.175781 127.785156 134.582031 127.472656 134.582031 126.847656 C 134.582031 125.503906 133.050781 124.722656 131.519531 124.722656 C 129.019531 124.722656 127.207031 126.878906 127.207031 129.347656 C 127.207031 131.910156 129.175781 133.878906 131.488281 133.878906 C 134.144531 133.878906 134.800781 131.472656 134.800781 131.285156 C 134.800781 131.097656 134.582031 131.097656 134.519531 131.097656 C 134.363281 131.097656 134.300781 131.160156 134.269531 131.285156 C 133.707031 133.128906 132.394531 133.378906 131.675781 133.378906 C 130.613281 133.378906 128.863281 132.535156 128.863281 129.316406 Z M 128.863281 129.316406 "/>
<path style=" stroke:none;fill-rule:nonzero;fill:rgb(0%,0%,0%);fill-opacity:1;" d="M 137.714844 129.316406 C 137.714844 126.066406 139.339844 125.222656 140.402344 125.222656 C 140.589844 125.222656 141.839844 125.253906 142.527344 125.972656 C 141.714844 126.035156 141.589844 126.628906 141.589844 126.878906 C 141.589844 127.410156 141.964844 127.785156 142.496094 127.785156 C 143.027344 127.785156 143.433594 127.472656 143.433594 126.847656 C 143.433594 125.503906 141.902344 124.722656 140.371094 124.722656 C 137.871094 124.722656 136.058594 126.878906 136.058594 129.347656 C 136.058594 131.910156 138.027344 133.878906 140.339844 133.878906 C 142.996094 133.878906 143.652344 131.472656 143.652344 131.285156 C 143.652344 131.097656 143.433594 131.097656 143.371094 131.097656 C 143.214844 131.097656 143.152344 131.160156 143.121094 131.285156 C 142.558594 133.128906 141.246094 133.378906 140.527344 133.378906 C 139.464844 133.378906 137.714844 132.535156 137.714844 129.316406 Z M 137.714844 129.316406 "/>
<path style=" stroke:none;fill-rule:nonzero;fill:rgb(0%,0%,0%);fill-opacity:1;" d="M 146.570312 129.316406 C 146.570312 126.066406 148.195312 125.222656 149.257812 125.222656 C 149.445312 125.222656 150.695312 125.253906 151.382812 125.972656 C 150.570312 126.035156 150.445312 126.628906 150.445312 126.878906 C 150.445312 127.410156 150.820312 127.785156 151.351562 127.785156 C 151.882812 127.785156 152.289062 127.472656 152.289062 126.847656 C 152.289062 125.503906 150.757812 124.722656 149.226562 124.722656 C 146.726562 124.722656 144.914062 126.878906 144.914062 129.347656 C 144.914062 131.910156 146.882812 133.878906 149.195312 133.878906 C 151.851562 133.878906 152.507812 131.472656 152.507812 131.285156 C 152.507812 131.097656 152.289062 131.097656 152.226562 131.097656 C 152.070312 131.097656 152.007812 131.160156 151.976562 131.285156 C 151.414062 133.128906 150.101562 133.378906 149.382812 133.378906 C 148.320312 133.378906 146.570312 132.535156 146.570312 129.316406 Z M 146.570312 129.316406 "/>
<path style=" stroke:none;fill-rule:nonzero;fill:rgb(0%,0%,0%);fill-opacity:1;" d="M 155.425781 129.316406 C 155.425781 126.066406 157.050781 125.222656 158.113281 125.222656 C 158.300781 125.222656 159.550781 125.253906 160.238281 125.972656 C 159.425781 126.035156 159.300781 126.628906 159.300781 126.878906 C 159.300781 127.410156 159.675781 127.785156 160.207031 127.785156 C 160.738281 127.785156 161.144531 127.472656 161.144531 126.847656 C 161.144531 125.503906 159.613281 124.722656 158.082031 124.722656 C 155.582031 124.722656 153.769531 126.878906 153.769531 129.347656 C 153.769531 131.910156 155.738281 133.878906 158.050781 133.878906 C 160.707031 133.878906 161.363281 131.472656 161.363281 131.285156 C 161.363281 131.097656 161.144531 131.097656 161.082031 131.097656 C 160.925781 131.097656 160.863281 131.160156 160.832031 131.285156 C 160.269531 133.128906 158.957031 133.378906 158.238281 133.378906 C 157.175781 133.378906 155.425781 132.535156 155.425781 129.316406 Z M 155.425781 129.316406 "/>
<path style=" stroke:none;fill-rule:nonzero;fill:rgb(0%,0%,0%);fill-opacity:1;" d="M 164.28125 129.316406 C 164.28125 126.066406 165.90625 125.222656 166.96875 125.222656 C 167.15625 125.222656 168.40625 125.253906 169.09375 125.972656 C 168.28125 126.035156 168.15625 126.628906 168.15625 126.878906 C 168.15625 127.410156 168.53125 127.785156 169.0625 127.785156 C 169.59375 127.785156 170 127.472656 170 126.847656 C 170 125.503906 168.46875 124.722656 166.9375 124.722656 C 164.4375 124.722656 162.625 126.878906 162.625 129.347656 C 162.625 131.910156 164.59375 133.878906 166.90625 133.878906 C 169.5625 133.878906 170.21875 131.472656 170.21875 131.285156 C 170.21875 131.097656 170 131.097656 169.9375 131.097656 C 169.78125 131.097656 169.71875 131.160156 169.6875 131.285156 C 169.125 133.128906 167.8125 133.378906 167.09375 133.378906 C 166.03125 133.378906 164.28125 132.535156 164.28125 129.316406 Z M 164.28125 129.316406 "/>
<path style=" stroke:none;fill-rule:nonzero;fill:rgb(0%,0%,0%);fill-opacity:1;" d="M 173.136719 129.316406 C 173.136719 126.066406 174.761719 125.222656 175.824219 125.222656 C 176.011719 125.222656 177.261719 125.253906 177.949219 125.972656 C 177.136719 126.035156 177.011719 126.628906 177.011719 126.878906 C 177.011719 127.410156 177.386719 127.785156 177.917969 127.785156 C 178.449219 127.785156 178.855469 127.472656 178.855469 126.847656 C 178.855469 125.503906 177.324219 124.722656 175.792969 124.722656 C 173.292969 124.722656 171.480469 126.878906 171.480469 129.347656 C 171.480469 131.910156 173.449219 133.878906 175.761719 133.878906 C 178.417969 133.878906 179.074219 131.472656 179.074219 131.285156 C 179.074219 131.097656 178.855469 131.097656 178.792969 131.097656 C 178.636719 131.097656 178.574219 131.160156 178.542969 131.285156 C 177.980469 133.128906 176.667969 133.378906 175.949219 133.378906 C 174.886719 133.378906 173.136719 132.535156 173.136719 129.316406 Z M 173.136719 129.316406 "/>
<path style=" stroke:none;fill-rule:nonzero;fill:rgb(0%,0%,0%);fill-opacity:1;" d="M 181.992188 129.316406 C 181.992188 126.066406 183.617188 125.222656 184.679688 125.222656 C 184.867188 125.222656 186.117188 125.253906 186.804688 125.972656 C 185.992188 126.035156 185.867188 126.628906 185.867188 126.878906 C 185.867188 127.410156 186.242188 127.785156 186.773438 127.785156 C 187.304688 127.785156 187.710938 127.472656 187.710938 126.847656 C 187.710938 125.503906 186.179688 124.722656 184.648438 124.722656 C 182.148438 124.722656 180.335938 126.878906 180.335938 129.347656 C 180.335938 131.910156 182.304688 133.878906 184.617188 133.878906 C 187.273438 133.878906 187.929688 131.472656 187.929688 131.285156 C 187.929688 131.097656 187.710938 131.097656 187.648438 131.097656 C 187.492188 131.097656 187.429688 131.160156 187.398438 131.285156 C 186.835938 133.128906 185.523438 133.378906 184.804688 133.378906 C 183.742188 133.378906 181.992188 132.535156 181.992188 129.316406 Z M 181.992188 129.316406 "/>
<path style=" stroke:none;fill-rule:nonzero;fill:rgb(0%,0%,0%);fill-opacity:1;" d="M 190.84375 129.316406 C 190.84375 126.066406 192.46875 125.222656 193.53125 125.222656 C 193.71875 125.222656 194.96875 125.253906 195.65625 125.972656 C 194.84375 126.035156 194.71875 126.628906 194.71875 126.878906 C 194.71875 127.410156 195.09375 127.785156 195.625 127.785156 C 196.15625 127.785156 196.5625 127.472656 196.5625 126.847656 C 196.5625 125.503906 195.03125 124.722656 193.5 124.722656 C 191 124.722656 189.1875 126.878906 189.1875 129.347656 C 189.1875 131.910156 191.15625 133.878906 193.46875 133.878906 C 196.125 133.878906 196.78125 131.472656 196.78125 131.285156 C 196.78125 131.097656 196.5625 131.097656 196.5 131.097656 C 196.34375 131.097656 196.28125 131.160156 196.25 131.285156 C 195.6875 133.128906 194.375 133.378906 193.65625 133.378906 C 192.59375 133.378906 190.84375 132.535156 190.84375 129.316406 Z M 190.84375 129.316406 "/>
<path style="fill:none;stroke-width:0.566929;stroke-linecap:butt;stroke-linejoin:miter;stroke:rgb(100%,0%,0%);stroke-opacity:0.5;stroke-miterlimit:10;" d="M 95.555979 59.526682 L 101.225901 53.858714 " transform="matrix(2,0,0,2,5.669291,5.669291)"/>
<path style="fill:none;stroke-width:0.566929;stroke-linecap:butt;stroke-linejoin:miter;stroke:rgb(100%,0%,0%);stroke-opacity:0.5;stroke-miterlimit:10;" d="M 101.225901 59.526682 L 95.555979 53.858714 " transform="matrix(2,0,0,2,5.669291,5.669291)"/>
<path style="fill:none;stroke-width:0.566929;stroke-linecap:butt;stroke-linejoin:miter;stroke:rgb(100%,0%,0%);stroke-opacity:0.5;stroke-miterlimit:10;" d="M 98.391917 85.038401 L 98.391917 56.692698 Z M 98.391917 85.038401 " transform="matrix(2,0,0,2,5.669291,5.669291)"/>
</g>
</svg>
