<?xml version="1.0" encoding="UTF-8"?>
<svg xmlns="http://www.w3.org/2000/svg" xmlns:xlink="http://www.w3.org/1999/xlink" width="218.840915pt" height="176.748031pt" viewBox="0 0 218.840915 176.748031" version="1.1">
<g id="surface69">
<path style="fill:none;stroke-width:0.566929;stroke-linecap:butt;stroke-linejoin:miter;stroke:rgb(100%,0%,0%);stroke-opacity:0.5;stroke-miterlimit:10;" d="M -2.8338 2.835276 L 2.834169 -2.834646 " transform="matrix(2,0,0,2,5.952756,6.169291)"/>
<path style="fill:none;stroke-width:0.566929;stroke-linecap:butt;stroke-linejoin:miter;stroke:rgb(100%,0%,0%);stroke-opacity:0.5;stroke-miterlimit:10;" d="M 2.834169 2.835276 L -2.8338 -2.834646 " transform="matrix(2,0,0,2,5.952756,6.169291)"/>
<path style="fill-rule:nonzero;fill:rgb(50%,50%,0%);fill-opacity:0.1;stroke-width:0.566929;stroke-linecap:butt;stroke-linejoin:miter;stroke:rgb(100%,0%,0%);stroke-opacity:0.5;stroke-miterlimit:10;" d="M 0.000184547 85.038401 L 103.35956 85.038401 L 103.35956 -0.000661294 L 0.000184547 -0.000661294 Z M 0.000184547 85.038401 " transform="matrix(2,0,0,2,5.952756,6.169291)"/>
<path style="fill:none;stroke-width:0.566929;stroke-linecap:butt;stroke-linejoin:miter;stroke:rgb(100%,0%,0%);stroke-opacity:0.5;stroke-miterlimit:10;" d="M 6.826356 2.835276 L 12.494325 -2.834646 " transform="matrix(2,0,0,2,5.952756,6.169291)"/>
<path style="fill:none;stroke-width:0.566929;stroke-linecap:butt;stroke-linejoin:miter;stroke:rgb(100%,0%,0%);stroke-opacity:0.5;stroke-miterlimit:10;" d="M 12.494325 2.835276 L 6.826356 -2.834646 " transform="matrix(2,0,0,2,5.952756,6.169291)"/>
<path style="fill-rule:nonzero;fill:rgb(50%,50%,0%);fill-opacity:0.1;stroke-width:0.566929;stroke-linecap:butt;stroke-linejoin:miter;stroke:rgb(100%,0%,0%);stroke-opacity:0.5;stroke-miterlimit:10;" d="M 3.818544 10.966136 L 15.502138 10.966136 L 15.502138 -0.000661294 L 3.818544 -0.000661294 Z M 3.818544 10.966136 " transform="matrix(2,0,0,2,5.952756,6.169291)"/>
<path style="fill:none;stroke-width:0.566929;stroke-linecap:butt;stroke-linejoin:miter;stroke:rgb(100%,0%,0%);stroke-opacity:0.5;stroke-miterlimit:10;" d="M 3.818544 10.966136 L 9.486513 5.296214 " transform="matrix(2,0,0,2,5.952756,6.169291)"/>
<path style="fill:none;stroke-width:0.566929;stroke-linecap:butt;stroke-linejoin:miter;stroke:rgb(100%,0%,0%);stroke-opacity:0.5;stroke-miterlimit:10;" d="M 9.486513 10.966136 L 3.818544 5.296214 " transform="matrix(2,0,0,2,5.952756,6.169291)"/>
<path style="fill-rule:nonzero;fill:rgb(50%,50%,0%);fill-opacity:0.1;stroke-width:0.566929;stroke-linecap:butt;stroke-linejoin:miter;stroke:rgb(100%,0%,0%);stroke-opacity:0.5;stroke-miterlimit:10;" d="M 3.818544 10.966136 L 15.502138 10.966136 L 15.502138 -0.000661294 L 3.818544 -0.000661294 Z M 3.818544 10.966136 " transform="matrix(2,0,0,2,5.952756,6.169291)"/>
<path style="fill:none;stroke-width:0.566929;stroke-linecap:butt;stroke-linejoin:miter;stroke:rgb(100%,0%,0%);stroke-opacity:0.5;stroke-miterlimit:10;" d="M 3.818544 10.966136 L 9.486513 5.296214 " transform="matrix(2,0,0,2,5.952756,6.169291)"/>
<path style="fill:none;stroke-width:0.566929;stroke-linecap:butt;stroke-linejoin:miter;stroke:rgb(100%,0%,0%);stroke-opacity:0.5;stroke-miterlimit:10;" d="M 9.486513 10.966136 L 3.818544 5.296214 " transform="matrix(2,0,0,2,5.952756,6.169291)"/>
<path style="fill-rule:nonzero;fill:rgb(50%,50%,0%);fill-opacity:0.1;stroke-width:0.566929;stroke-linecap:butt;stroke-linejoin:miter;stroke:rgb(100%,0%,0%);stroke-opacity:0.5;stroke-miterlimit:10;" d="M 6.652528 8.132151 L 12.668153 8.132151 L 12.668153 2.835276 L 6.652528 2.835276 Z M 6.652528 8.132151 " transform="matrix(2,0,0,2,5.952756,6.169291)"/>
<path style=" stroke:none;fill-rule:nonzero;fill:rgb(0%,0%,0%);fill-opacity:1;" d="M 25.726562 16.746094 C 26.320312 15.996094 27.070312 15.027344 27.570312 14.496094 C 28.195312 13.777344 29.007812 13.464844 29.945312 13.464844 L 29.945312 12.839844 C 29.414062 12.871094 28.820312 12.902344 28.289062 12.902344 C 27.695312 12.902344 26.632812 12.871094 26.382812 12.839844 L 26.382812 13.464844 C 26.820312 13.496094 26.976562 13.746094 26.976562 14.089844 C 26.976562 14.402344 26.757812 14.652344 26.664062 14.777344 L 25.445312 16.339844 L 23.882812 14.308594 C 23.695312 14.121094 23.695312 14.089844 23.695312 13.964844 C 23.695312 13.652344 24.007812 13.464844 24.382812 13.464844 L 24.382812 12.839844 C 23.882812 12.871094 22.570312 12.902344 22.226562 12.902344 C 21.820312 12.902344 20.882812 12.871094 20.351562 12.839844 L 20.351562 13.464844 C 21.757812 13.464844 21.757812 13.464844 22.695312 14.683594 L 24.664062 17.246094 L 22.789062 19.621094 C 21.851562 20.777344 20.664062 20.808594 20.257812 20.808594 L 20.257812 21.433594 C 20.757812 21.402344 21.382812 21.371094 21.914062 21.371094 C 22.476562 21.371094 23.320312 21.402344 23.789062 21.433594 L 23.789062 20.808594 C 23.351562 20.746094 23.226562 20.496094 23.226562 20.183594 C 23.226562 19.746094 23.789062 19.089844 25.007812 17.652344 L 26.539062 19.652344 C 26.695312 19.871094 26.945312 20.183594 26.945312 20.308594 C 26.945312 20.496094 26.757812 20.808594 26.226562 20.808594 L 26.226562 21.433594 C 26.820312 21.402344 27.945312 21.371094 28.382812 21.371094 C 28.914062 21.371094 29.695312 21.402344 30.289062 21.433594 L 30.289062 20.808594 C 29.226562 20.808594 28.851562 20.777344 28.414062 20.183594 Z M 25.726562 16.746094 "/>
<path style="fill:none;stroke-width:0.566929;stroke-linecap:butt;stroke-linejoin:miter;stroke:rgb(100%,0%,0%);stroke-opacity:0.5;stroke-miterlimit:10;" d="M 30.576356 2.835276 L 36.246278 -2.834646 " transform="matrix(2,0,0,2,5.952756,6.169291)"/>
<path style="fill:none;stroke-width:0.566929;stroke-linecap:butt;stroke-linejoin:miter;stroke:rgb(100%,0%,0%);stroke-opacity:0.5;stroke-miterlimit:10;" d="M 36.246278 2.835276 L 30.576356 -2.834646 " transform="matrix(2,0,0,2,5.952756,6.169291)"/>
<path style="fill-rule:nonzero;fill:rgb(50%,50%,0%);fill-opacity:0.1;stroke-width:0.566929;stroke-linecap:butt;stroke-linejoin:miter;stroke:rgb(100%,0%,0%);stroke-opacity:0.5;stroke-miterlimit:10;" d="M 24.855653 13.700511 L 41.966981 13.700511 L 41.966981 -0.000661294 L 24.855653 -0.000661294 Z M 24.855653 13.700511 " transform="matrix(2,0,0,2,5.952756,6.169291)"/>
<path style="fill:none;stroke-width:0.566929;stroke-linecap:butt;stroke-linejoin:miter;stroke:rgb(100%,0%,0%);stroke-opacity:0.5;stroke-miterlimit:10;" d="M 24.855653 13.591136 L 30.525575 7.921214 " transform="matrix(2,0,0,2,5.952756,6.169291)"/>
<path style="fill:none;stroke-width:0.566929;stroke-linecap:butt;stroke-linejoin:miter;stroke:rgb(100%,0%,0%);stroke-opacity:0.5;stroke-miterlimit:10;" d="M 30.525575 13.591136 L 24.855653 7.921214 " transform="matrix(2,0,0,2,5.952756,6.169291)"/>
<path style="fill-rule:nonzero;fill:rgb(50%,50%,0%);fill-opacity:0.1;stroke-width:0.566929;stroke-linecap:butt;stroke-linejoin:miter;stroke:rgb(100%,0%,0%);stroke-opacity:0.5;stroke-miterlimit:10;" d="M 24.855653 13.700511 L 41.966981 13.700511 L 41.966981 -0.000661294 L 24.855653 -0.000661294 Z M 24.855653 13.700511 " transform="matrix(2,0,0,2,5.952756,6.169291)"/>
<path style="fill:none;stroke-width:0.566929;stroke-linecap:butt;stroke-linejoin:miter;stroke:rgb(100%,0%,0%);stroke-opacity:0.5;stroke-miterlimit:10;" d="M 24.855653 13.591136 L 30.525575 7.921214 " transform="matrix(2,0,0,2,5.952756,6.169291)"/>
<path style="fill:none;stroke-width:0.566929;stroke-linecap:butt;stroke-linejoin:miter;stroke:rgb(100%,0%,0%);stroke-opacity:0.5;stroke-miterlimit:10;" d="M 30.525575 13.591136 L 24.855653 7.921214 " transform="matrix(2,0,0,2,5.952756,6.169291)"/>
<path style="fill-rule:nonzero;fill:rgb(50%,50%,0%);fill-opacity:0.1;stroke-width:0.566929;stroke-linecap:butt;stroke-linejoin:miter;stroke:rgb(100%,0%,0%);stroke-opacity:0.5;stroke-miterlimit:10;" d="M 27.691591 10.866526 L 39.132997 10.866526 L 39.132997 2.835276 L 27.691591 2.835276 Z M 27.691591 10.866526 " transform="matrix(2,0,0,2,5.952756,6.169291)"/>
<path style=" stroke:none;fill-rule:nonzero;fill:rgb(0%,0%,0%);fill-opacity:1;" d="M 65.210938 19.152344 L 65.210938 12.839844 L 62.335938 13.058594 L 62.335938 13.683594 C 63.742188 13.683594 63.898438 13.808594 63.898438 14.808594 L 63.898438 26.683594 L 64.398438 26.683594 C 64.398438 26.652344 64.554688 26.371094 65.117188 25.433594 C 65.398438 25.902344 66.242188 26.902344 67.710938 26.902344 C 70.085938 26.902344 72.148438 24.933594 72.148438 22.371094 C 72.148438 19.839844 70.210938 17.871094 67.929688 17.871094 C 66.367188 17.871094 65.523438 18.808594 65.210938 19.152344 Z M 65.273438 24.402344 L 65.273438 20.308594 C 65.273438 19.933594 65.273438 19.902344 65.492188 19.589844 C 66.273438 18.464844 67.367188 18.308594 67.835938 18.308594 C 68.742188 18.308594 69.460938 18.839844 69.929688 19.589844 C 70.460938 20.402344 70.492188 21.527344 70.492188 22.371094 C 70.492188 23.089844 70.460938 24.277344 69.898438 25.183594 C 69.460938 25.808594 68.710938 26.464844 67.648438 26.464844 C 66.742188 26.464844 66.023438 25.996094 65.554688 25.246094 C 65.273438 24.839844 65.273438 24.777344 65.273438 24.402344 Z M 65.273438 24.402344 "/>
<path style=" stroke:none;fill-rule:nonzero;fill:rgb(0%,0%,0%);fill-opacity:1;" d="M 76.28125 19.152344 L 76.28125 12.839844 L 73.40625 13.058594 L 73.40625 13.683594 C 74.8125 13.683594 74.96875 13.808594 74.96875 14.808594 L 74.96875 26.683594 L 75.46875 26.683594 C 75.46875 26.652344 75.625 26.371094 76.1875 25.433594 C 76.46875 25.902344 77.3125 26.902344 78.78125 26.902344 C 81.15625 26.902344 83.21875 24.933594 83.21875 22.371094 C 83.21875 19.839844 81.28125 17.871094 79 17.871094 C 77.4375 17.871094 76.59375 18.808594 76.28125 19.152344 Z M 76.34375 24.402344 L 76.34375 20.308594 C 76.34375 19.933594 76.34375 19.902344 76.5625 19.589844 C 77.34375 18.464844 78.4375 18.308594 78.90625 18.308594 C 79.8125 18.308594 80.53125 18.839844 81 19.589844 C 81.53125 20.402344 81.5625 21.527344 81.5625 22.371094 C 81.5625 23.089844 81.53125 24.277344 80.96875 25.183594 C 80.53125 25.808594 79.78125 26.464844 78.71875 26.464844 C 77.8125 26.464844 77.09375 25.996094 76.625 25.246094 C 76.34375 24.839844 76.34375 24.777344 76.34375 24.402344 Z M 76.34375 24.402344 "/>
<path style="fill:none;stroke-width:0.566929;stroke-linecap:butt;stroke-linejoin:miter;stroke:rgb(100%,0%,0%);stroke-opacity:0.5;stroke-miterlimit:10;" d="M 72.595888 2.835276 L 78.26581 -2.834646 " transform="matrix(2,0,0,2,5.952756,6.169291)"/>
<path style="fill:none;stroke-width:0.566929;stroke-linecap:butt;stroke-linejoin:miter;stroke:rgb(100%,0%,0%);stroke-opacity:0.5;stroke-miterlimit:10;" d="M 78.26581 2.835276 L 72.595888 -2.834646 " transform="matrix(2,0,0,2,5.952756,6.169291)"/>
<path style="fill-rule:nonzero;fill:rgb(50%,50%,0%);fill-opacity:0.1;stroke-width:0.566929;stroke-linecap:butt;stroke-linejoin:miter;stroke:rgb(100%,0%,0%);stroke-opacity:0.5;stroke-miterlimit:10;" d="M 64.841981 13.231761 L 86.019716 13.231761 L 86.019716 -0.000661294 L 64.841981 -0.000661294 Z M 64.841981 13.231761 " transform="matrix(2,0,0,2,5.952756,6.169291)"/>
<path style="fill:none;stroke-width:0.566929;stroke-linecap:butt;stroke-linejoin:miter;stroke:rgb(100%,0%,0%);stroke-opacity:0.5;stroke-miterlimit:10;" d="M 64.841981 11.184886 L 70.50995 5.514964 " transform="matrix(2,0,0,2,5.952756,6.169291)"/>
<path style="fill:none;stroke-width:0.566929;stroke-linecap:butt;stroke-linejoin:miter;stroke:rgb(100%,0%,0%);stroke-opacity:0.5;stroke-miterlimit:10;" d="M 70.50995 11.184886 L 64.841981 5.514964 " transform="matrix(2,0,0,2,5.952756,6.169291)"/>
<path style="fill-rule:nonzero;fill:rgb(50%,50%,0%);fill-opacity:0.1;stroke-width:0.566929;stroke-linecap:butt;stroke-linejoin:miter;stroke:rgb(100%,0%,0%);stroke-opacity:0.5;stroke-miterlimit:10;" d="M 64.841981 13.231761 L 86.019716 13.231761 L 86.019716 -0.000661294 L 64.841981 -0.000661294 Z M 64.841981 13.231761 " transform="matrix(2,0,0,2,5.952756,6.169291)"/>
<path style="fill:none;stroke-width:0.566929;stroke-linecap:butt;stroke-linejoin:miter;stroke:rgb(100%,0%,0%);stroke-opacity:0.5;stroke-miterlimit:10;" d="M 64.841981 11.184886 L 70.50995 5.514964 " transform="matrix(2,0,0,2,5.952756,6.169291)"/>
<path style="fill:none;stroke-width:0.566929;stroke-linecap:butt;stroke-linejoin:miter;stroke:rgb(100%,0%,0%);stroke-opacity:0.5;stroke-miterlimit:10;" d="M 70.50995 11.184886 L 64.841981 5.514964 " transform="matrix(2,0,0,2,5.952756,6.169291)"/>
<path style="fill-rule:nonzero;fill:rgb(50%,50%,0%);fill-opacity:0.1;stroke-width:0.566929;stroke-linecap:butt;stroke-linejoin:miter;stroke:rgb(100%,0%,0%);stroke-opacity:0.5;stroke-miterlimit:10;" d="M 67.675966 10.397776 L 83.185731 10.397776 L 83.185731 2.835276 L 67.675966 2.835276 Z M 67.675966 10.397776 " transform="matrix(2,0,0,2,5.952756,6.169291)"/>
<path style=" stroke:none;fill-rule:nonzero;fill:rgb(0%,0%,0%);fill-opacity:1;" d="M 146.179688 18.433594 C 144.429688 18.433594 144.429688 16.433594 144.429688 15.996094 C 144.429688 15.464844 144.460938 14.808594 144.742188 14.308594 C 144.898438 14.089844 145.367188 13.527344 146.179688 13.527344 C 147.898438 13.527344 147.898438 15.496094 147.898438 15.964844 C 147.898438 16.496094 147.898438 17.152344 147.585938 17.652344 C 147.429688 17.871094 146.960938 18.433594 146.179688 18.433594 Z M 143.867188 19.214844 C 143.867188 19.152344 143.867188 18.683594 144.179688 18.277344 C 144.960938 18.839844 145.804688 18.902344 146.179688 18.902344 C 148.023438 18.902344 149.398438 17.527344 149.398438 15.996094 C 149.398438 15.246094 149.085938 14.527344 148.585938 14.058594 C 149.304688 13.371094 150.023438 13.277344 150.367188 13.277344 C 150.429688 13.277344 150.523438 13.277344 150.585938 13.308594 C 150.367188 13.371094 150.242188 13.589844 150.242188 13.839844 C 150.242188 14.183594 150.523438 14.402344 150.835938 14.402344 C 151.023438 14.402344 151.398438 14.277344 151.398438 13.808594 C 151.398438 13.464844 151.179688 12.839844 150.398438 12.839844 C 149.992188 12.839844 149.117188 12.964844 148.273438 13.777344 C 147.429688 13.121094 146.617188 13.058594 146.179688 13.058594 C 144.304688 13.058594 142.929688 14.433594 142.929688 15.964844 C 142.929688 16.839844 143.367188 17.589844 143.867188 18.027344 C 143.617188 18.308594 143.242188 18.964844 143.242188 19.683594 C 143.242188 20.308594 143.523438 21.058594 144.148438 21.464844 C 142.929688 21.777344 142.304688 22.652344 142.304688 23.433594 C 142.304688 24.871094 144.273438 25.964844 146.710938 25.964844 C 149.054688 25.964844 151.117188 24.964844 151.117188 23.402344 C 151.117188 22.714844 150.867188 21.683594 149.835938 21.121094 C 148.773438 20.589844 147.617188 20.589844 146.398438 20.589844 C 145.898438 20.589844 145.054688 20.589844 144.898438 20.558594 C 144.273438 20.464844 143.867188 19.871094 143.867188 19.214844 Z M 146.742188 25.527344 C 144.710938 25.527344 143.335938 24.496094 143.335938 23.433594 C 143.335938 22.527344 144.085938 21.777344 144.960938 21.746094 L 146.148438 21.746094 C 147.867188 21.746094 150.085938 21.746094 150.085938 23.433594 C 150.085938 24.527344 148.679688 25.527344 146.742188 25.527344 Z M 146.742188 25.527344 "/>
<path style=" stroke:none;fill-rule:nonzero;fill:rgb(0%,0%,0%);fill-opacity:1;" d="M 156.140625 18.433594 C 154.390625 18.433594 154.390625 16.433594 154.390625 15.996094 C 154.390625 15.464844 154.421875 14.808594 154.703125 14.308594 C 154.859375 14.089844 155.328125 13.527344 156.140625 13.527344 C 157.859375 13.527344 157.859375 15.496094 157.859375 15.964844 C 157.859375 16.496094 157.859375 17.152344 157.546875 17.652344 C 157.390625 17.871094 156.921875 18.433594 156.140625 18.433594 Z M 153.828125 19.214844 C 153.828125 19.152344 153.828125 18.683594 154.140625 18.277344 C 154.921875 18.839844 155.765625 18.902344 156.140625 18.902344 C 157.984375 18.902344 159.359375 17.527344 159.359375 15.996094 C 159.359375 15.246094 159.046875 14.527344 158.546875 14.058594 C 159.265625 13.371094 159.984375 13.277344 160.328125 13.277344 C 160.390625 13.277344 160.484375 13.277344 160.546875 13.308594 C 160.328125 13.371094 160.203125 13.589844 160.203125 13.839844 C 160.203125 14.183594 160.484375 14.402344 160.796875 14.402344 C 160.984375 14.402344 161.359375 14.277344 161.359375 13.808594 C 161.359375 13.464844 161.140625 12.839844 160.359375 12.839844 C 159.953125 12.839844 159.078125 12.964844 158.234375 13.777344 C 157.390625 13.121094 156.578125 13.058594 156.140625 13.058594 C 154.265625 13.058594 152.890625 14.433594 152.890625 15.964844 C 152.890625 16.839844 153.328125 17.589844 153.828125 18.027344 C 153.578125 18.308594 153.203125 18.964844 153.203125 19.683594 C 153.203125 20.308594 153.484375 21.058594 154.109375 21.464844 C 152.890625 21.777344 152.265625 22.652344 152.265625 23.433594 C 152.265625 24.871094 154.234375 25.964844 156.671875 25.964844 C 159.015625 25.964844 161.078125 24.964844 161.078125 23.402344 C 161.078125 22.714844 160.828125 21.683594 159.796875 21.121094 C 158.734375 20.589844 157.578125 20.589844 156.359375 20.589844 C 155.859375 20.589844 155.015625 20.589844 154.859375 20.558594 C 154.234375 20.464844 153.828125 19.871094 153.828125 19.214844 Z M 156.703125 25.527344 C 154.671875 25.527344 153.296875 24.496094 153.296875 23.433594 C 153.296875 22.527344 154.046875 21.777344 154.921875 21.746094 L 156.109375 21.746094 C 157.828125 21.746094 160.046875 21.746094 160.046875 23.433594 C 160.046875 24.527344 158.640625 25.527344 156.703125 25.527344 Z M 156.703125 25.527344 "/>
<path style=" stroke:none;fill-rule:nonzero;fill:rgb(0%,0%,0%);fill-opacity:1;" d="M 166.105469 18.433594 C 164.355469 18.433594 164.355469 16.433594 164.355469 15.996094 C 164.355469 15.464844 164.386719 14.808594 164.667969 14.308594 C 164.824219 14.089844 165.292969 13.527344 166.105469 13.527344 C 167.824219 13.527344 167.824219 15.496094 167.824219 15.964844 C 167.824219 16.496094 167.824219 17.152344 167.511719 17.652344 C 167.355469 17.871094 166.886719 18.433594 166.105469 18.433594 Z M 163.792969 19.214844 C 163.792969 19.152344 163.792969 18.683594 164.105469 18.277344 C 164.886719 18.839844 165.730469 18.902344 166.105469 18.902344 C 167.949219 18.902344 169.324219 17.527344 169.324219 15.996094 C 169.324219 15.246094 169.011719 14.527344 168.511719 14.058594 C 169.230469 13.371094 169.949219 13.277344 170.292969 13.277344 C 170.355469 13.277344 170.449219 13.277344 170.511719 13.308594 C 170.292969 13.371094 170.167969 13.589844 170.167969 13.839844 C 170.167969 14.183594 170.449219 14.402344 170.761719 14.402344 C 170.949219 14.402344 171.324219 14.277344 171.324219 13.808594 C 171.324219 13.464844 171.105469 12.839844 170.324219 12.839844 C 169.917969 12.839844 169.042969 12.964844 168.199219 13.777344 C 167.355469 13.121094 166.542969 13.058594 166.105469 13.058594 C 164.230469 13.058594 162.855469 14.433594 162.855469 15.964844 C 162.855469 16.839844 163.292969 17.589844 163.792969 18.027344 C 163.542969 18.308594 163.167969 18.964844 163.167969 19.683594 C 163.167969 20.308594 163.449219 21.058594 164.074219 21.464844 C 162.855469 21.777344 162.230469 22.652344 162.230469 23.433594 C 162.230469 24.871094 164.199219 25.964844 166.636719 25.964844 C 168.980469 25.964844 171.042969 24.964844 171.042969 23.402344 C 171.042969 22.714844 170.792969 21.683594 169.761719 21.121094 C 168.699219 20.589844 167.542969 20.589844 166.324219 20.589844 C 165.824219 20.589844 164.980469 20.589844 164.824219 20.558594 C 164.199219 20.464844 163.792969 19.871094 163.792969 19.214844 Z M 166.667969 25.527344 C 164.636719 25.527344 163.261719 24.496094 163.261719 23.433594 C 163.261719 22.527344 164.011719 21.777344 164.886719 21.746094 L 166.074219 21.746094 C 167.792969 21.746094 170.011719 21.746094 170.011719 23.433594 C 170.011719 24.527344 168.605469 25.527344 166.667969 25.527344 Z M 166.667969 25.527344 "/>
<path style="fill:none;stroke-width:0.566929;stroke-linecap:butt;stroke-linejoin:miter;stroke:rgb(100%,0%,0%);stroke-opacity:0.5;stroke-miterlimit:10;" d="M 100.525575 2.835276 L 106.193544 -2.834646 " transform="matrix(2,0,0,2,5.952756,6.169291)"/>
<path style="fill:none;stroke-width:0.566929;stroke-linecap:butt;stroke-linejoin:miter;stroke:rgb(100%,0%,0%);stroke-opacity:0.5;stroke-miterlimit:10;" d="M 106.193544 2.835276 L 100.525575 -2.834646 " transform="matrix(2,0,0,2,5.952756,6.169291)"/>
<path style="fill:none;stroke-width:0.566929;stroke-linecap:butt;stroke-linejoin:miter;stroke:rgb(100%,0%,0%);stroke-opacity:0.5;stroke-miterlimit:10;" d="M 103.35956 28.346995 L 103.35956 -0.000661294 Z M 103.35956 28.346995 " transform="matrix(2,0,0,2,5.952756,6.169291)"/>
<path style="fill:none;stroke-width:0.566929;stroke-linecap:butt;stroke-linejoin:miter;stroke:rgb(100%,0%,0%);stroke-opacity:0.5;stroke-miterlimit:10;" d="M 6.826356 31.180979 L 12.494325 25.511057 " transform="matrix(2,0,0,2,5.952756,6.169291)"/>
<path style="fill:none;stroke-width:0.566929;stroke-linecap:butt;stroke-linejoin:miter;stroke:rgb(100%,0%,0%);stroke-opacity:0.5;stroke-miterlimit:10;" d="M 12.494325 31.180979 L 6.826356 25.511057 " transform="matrix(2,0,0,2,5.952756,6.169291)"/>
<path style="fill-rule:nonzero;fill:rgb(50%,50%,0%);fill-opacity:0.1;stroke-width:0.566929;stroke-linecap:butt;stroke-linejoin:miter;stroke:rgb(100%,0%,0%);stroke-opacity:0.5;stroke-miterlimit:10;" d="M 2.213075 39.593089 L 17.107606 39.593089 L 17.107606 28.346995 L 2.213075 28.346995 Z M 2.213075 39.593089 " transform="matrix(2,0,0,2,5.952756,6.169291)"/>
<path style="fill:none;stroke-width:0.566929;stroke-linecap:butt;stroke-linejoin:miter;stroke:rgb(100%,0%,0%);stroke-opacity:0.5;stroke-miterlimit:10;" d="M 2.213075 39.483714 L 7.882997 33.815745 " transform="matrix(2,0,0,2,5.952756,6.169291)"/>
<path style="fill:none;stroke-width:0.566929;stroke-linecap:butt;stroke-linejoin:miter;stroke:rgb(100%,0%,0%);stroke-opacity:0.5;stroke-miterlimit:10;" d="M 7.882997 39.483714 L 2.213075 33.815745 " transform="matrix(2,0,0,2,5.952756,6.169291)"/>
<path style="fill-rule:nonzero;fill:rgb(50%,50%,0%);fill-opacity:0.1;stroke-width:0.566929;stroke-linecap:butt;stroke-linejoin:miter;stroke:rgb(100%,0%,0%);stroke-opacity:0.5;stroke-miterlimit:10;" d="M 2.213075 39.593089 L 17.107606 39.593089 L 17.107606 28.346995 L 2.213075 28.346995 Z M 2.213075 39.593089 " transform="matrix(2,0,0,2,5.952756,6.169291)"/>
<path style="fill:none;stroke-width:0.566929;stroke-linecap:butt;stroke-linejoin:miter;stroke:rgb(100%,0%,0%);stroke-opacity:0.5;stroke-miterlimit:10;" d="M 2.213075 39.483714 L 7.882997 33.815745 " transform="matrix(2,0,0,2,5.952756,6.169291)"/>
<path style="fill:none;stroke-width:0.566929;stroke-linecap:butt;stroke-linejoin:miter;stroke:rgb(100%,0%,0%);stroke-opacity:0.5;stroke-miterlimit:10;" d="M 7.882997 39.483714 L 2.213075 33.815745 " transform="matrix(2,0,0,2,5.952756,6.169291)"/>
<path style="fill-rule:nonzero;fill:rgb(50%,50%,0%);fill-opacity:0.1;stroke-width:0.566929;stroke-linecap:butt;stroke-linejoin:miter;stroke:rgb(100%,0%,0%);stroke-opacity:0.5;stroke-miterlimit:10;" d="M 5.049013 36.759104 L 14.271669 36.759104 L 14.271669 31.180979 L 5.049013 31.180979 Z M 5.049013 36.759104 " transform="matrix(2,0,0,2,5.952756,6.169291)"/>
<path style=" stroke:none;fill-rule:nonzero;fill:rgb(0%,0%,0%);fill-opacity:1;" d="M 18.707031 74.125 C 18.707031 70.875 20.332031 70.03125 21.394531 70.03125 C 21.582031 70.03125 22.832031 70.0625 23.519531 70.78125 C 22.707031 70.84375 22.582031 71.4375 22.582031 71.6875 C 22.582031 72.21875 22.957031 72.59375 23.488281 72.59375 C 24.019531 72.59375 24.425781 72.28125 24.425781 71.65625 C 24.425781 70.3125 22.894531 69.53125 21.363281 69.53125 C 18.863281 69.53125 17.050781 71.6875 17.050781 74.15625 C 17.050781 76.71875 19.019531 78.6875 21.332031 78.6875 C 23.988281 78.6875 24.644531 76.28125 24.644531 76.09375 C 24.644531 75.90625 24.425781 75.90625 24.363281 75.90625 C 24.207031 75.90625 24.144531 75.96875 24.113281 76.09375 C 23.550781 77.9375 22.238281 78.1875 21.519531 78.1875 C 20.457031 78.1875 18.707031 77.34375 18.707031 74.125 Z M 18.707031 74.125 "/>
<path style=" stroke:none;fill-rule:nonzero;fill:rgb(0%,0%,0%);fill-opacity:1;" d="M 27.558594 74.125 C 27.558594 70.875 29.183594 70.03125 30.246094 70.03125 C 30.433594 70.03125 31.683594 70.0625 32.371094 70.78125 C 31.558594 70.84375 31.433594 71.4375 31.433594 71.6875 C 31.433594 72.21875 31.808594 72.59375 32.339844 72.59375 C 32.871094 72.59375 33.277344 72.28125 33.277344 71.65625 C 33.277344 70.3125 31.746094 69.53125 30.214844 69.53125 C 27.714844 69.53125 25.902344 71.6875 25.902344 74.15625 C 25.902344 76.71875 27.871094 78.6875 30.183594 78.6875 C 32.839844 78.6875 33.496094 76.28125 33.496094 76.09375 C 33.496094 75.90625 33.277344 75.90625 33.214844 75.90625 C 33.058594 75.90625 32.996094 75.96875 32.964844 76.09375 C 32.402344 77.9375 31.089844 78.1875 30.371094 78.1875 C 29.308594 78.1875 27.558594 77.34375 27.558594 74.125 Z M 27.558594 74.125 "/>
<path style="fill:none;stroke-width:0.566929;stroke-linecap:butt;stroke-linejoin:miter;stroke:rgb(100%,0%,0%);stroke-opacity:0.5;stroke-miterlimit:10;" d="M 30.576356 31.180979 L 36.246278 25.511057 " transform="matrix(2,0,0,2,5.952756,6.169291)"/>
<path style="fill:none;stroke-width:0.566929;stroke-linecap:butt;stroke-linejoin:miter;stroke:rgb(100%,0%,0%);stroke-opacity:0.5;stroke-miterlimit:10;" d="M 36.246278 31.180979 L 30.576356 25.511057 " transform="matrix(2,0,0,2,5.952756,6.169291)"/>
<path style="fill-rule:nonzero;fill:rgb(50%,50%,0%);fill-opacity:0.1;stroke-width:0.566929;stroke-linecap:butt;stroke-linejoin:miter;stroke:rgb(100%,0%,0%);stroke-opacity:0.5;stroke-miterlimit:10;" d="M 19.320497 42.046214 L 47.502138 42.046214 L 47.502138 28.346995 L 19.320497 28.346995 Z M 19.320497 42.046214 " transform="matrix(2,0,0,2,5.952756,6.169291)"/>
<path style="fill:none;stroke-width:0.566929;stroke-linecap:butt;stroke-linejoin:miter;stroke:rgb(100%,0%,0%);stroke-opacity:0.5;stroke-miterlimit:10;" d="M 19.320497 41.936839 L 24.990419 36.26887 " transform="matrix(2,0,0,2,5.952756,6.169291)"/>
<path style="fill:none;stroke-width:0.566929;stroke-linecap:butt;stroke-linejoin:miter;stroke:rgb(100%,0%,0%);stroke-opacity:0.5;stroke-miterlimit:10;" d="M 24.990419 41.936839 L 19.320497 36.26887 " transform="matrix(2,0,0,2,5.952756,6.169291)"/>
<path style="fill-rule:nonzero;fill:rgb(50%,50%,0%);fill-opacity:0.1;stroke-width:0.566929;stroke-linecap:butt;stroke-linejoin:miter;stroke:rgb(100%,0%,0%);stroke-opacity:0.5;stroke-miterlimit:10;" d="M 19.320497 42.046214 L 47.502138 42.046214 L 47.502138 28.346995 L 19.320497 28.346995 Z M 19.320497 42.046214 " transform="matrix(2,0,0,2,5.952756,6.169291)"/>
<path style="fill:none;stroke-width:0.566929;stroke-linecap:butt;stroke-linejoin:miter;stroke:rgb(100%,0%,0%);stroke-opacity:0.5;stroke-miterlimit:10;" d="M 19.320497 41.936839 L 24.990419 36.26887 " transform="matrix(2,0,0,2,5.952756,6.169291)"/>
<path style="fill:none;stroke-width:0.566929;stroke-linecap:butt;stroke-linejoin:miter;stroke:rgb(100%,0%,0%);stroke-opacity:0.5;stroke-miterlimit:10;" d="M 24.990419 41.936839 L 19.320497 36.26887 " transform="matrix(2,0,0,2,5.952756,6.169291)"/>
<path style="fill-rule:nonzero;fill:rgb(50%,50%,0%);fill-opacity:0.1;stroke-width:0.566929;stroke-linecap:butt;stroke-linejoin:miter;stroke:rgb(100%,0%,0%);stroke-opacity:0.5;stroke-miterlimit:10;" d="M 22.156435 39.212229 L 44.668153 39.212229 L 44.668153 31.180979 L 22.156435 31.180979 Z M 22.156435 39.212229 " transform="matrix(2,0,0,2,5.952756,6.169291)"/>
<path style=" stroke:none;fill-rule:nonzero;fill:rgb(0%,0%,0%);fill-opacity:1;" d="M 54.140625 75.84375 L 54.140625 69.53125 L 51.265625 69.75 L 51.265625 70.375 C 52.671875 70.375 52.828125 70.5 52.828125 71.5 L 52.828125 83.375 L 53.328125 83.375 C 53.328125 83.34375 53.484375 83.0625 54.046875 82.125 C 54.328125 82.59375 55.171875 83.59375 56.640625 83.59375 C 59.015625 83.59375 61.078125 81.625 61.078125 79.0625 C 61.078125 76.53125 59.140625 74.5625 56.859375 74.5625 C 55.296875 74.5625 54.453125 75.5 54.140625 75.84375 Z M 54.203125 81.09375 L 54.203125 77 C 54.203125 76.625 54.203125 76.59375 54.421875 76.28125 C 55.203125 75.15625 56.296875 75 56.765625 75 C 57.671875 75 58.390625 75.53125 58.859375 76.28125 C 59.390625 77.09375 59.421875 78.21875 59.421875 79.0625 C 59.421875 79.78125 59.390625 80.96875 58.828125 81.875 C 58.390625 82.5 57.640625 83.15625 56.578125 83.15625 C 55.671875 83.15625 54.953125 82.6875 54.484375 81.9375 C 54.203125 81.53125 54.203125 81.46875 54.203125 81.09375 Z M 54.203125 81.09375 "/>
<path style=" stroke:none;fill-rule:nonzero;fill:rgb(0%,0%,0%);fill-opacity:1;" d="M 65.210938 75.84375 L 65.210938 69.53125 L 62.335938 69.75 L 62.335938 70.375 C 63.742188 70.375 63.898438 70.5 63.898438 71.5 L 63.898438 83.375 L 64.398438 83.375 C 64.398438 83.34375 64.554688 83.0625 65.117188 82.125 C 65.398438 82.59375 66.242188 83.59375 67.710938 83.59375 C 70.085938 83.59375 72.148438 81.625 72.148438 79.0625 C 72.148438 76.53125 70.210938 74.5625 67.929688 74.5625 C 66.367188 74.5625 65.523438 75.5 65.210938 75.84375 Z M 65.273438 81.09375 L 65.273438 77 C 65.273438 76.625 65.273438 76.59375 65.492188 76.28125 C 66.273438 75.15625 67.367188 75 67.835938 75 C 68.742188 75 69.460938 75.53125 69.929688 76.28125 C 70.460938 77.09375 70.492188 78.21875 70.492188 79.0625 C 70.492188 79.78125 70.460938 80.96875 69.898438 81.875 C 69.460938 82.5 68.710938 83.15625 67.648438 83.15625 C 66.742188 83.15625 66.023438 82.6875 65.554688 81.9375 C 65.273438 81.53125 65.273438 81.46875 65.273438 81.09375 Z M 65.273438 81.09375 "/>
<path style=" stroke:none;fill-rule:nonzero;fill:rgb(0%,0%,0%);fill-opacity:1;" d="M 76.28125 75.84375 L 76.28125 69.53125 L 73.40625 69.75 L 73.40625 70.375 C 74.8125 70.375 74.96875 70.5 74.96875 71.5 L 74.96875 83.375 L 75.46875 83.375 C 75.46875 83.34375 75.625 83.0625 76.1875 82.125 C 76.46875 82.59375 77.3125 83.59375 78.78125 83.59375 C 81.15625 83.59375 83.21875 81.625 83.21875 79.0625 C 83.21875 76.53125 81.28125 74.5625 79 74.5625 C 77.4375 74.5625 76.59375 75.5 76.28125 75.84375 Z M 76.34375 81.09375 L 76.34375 77 C 76.34375 76.625 76.34375 76.59375 76.5625 76.28125 C 77.34375 75.15625 78.4375 75 78.90625 75 C 79.8125 75 80.53125 75.53125 81 76.28125 C 81.53125 77.09375 81.5625 78.21875 81.5625 79.0625 C 81.5625 79.78125 81.53125 80.96875 80.96875 81.875 C 80.53125 82.5 79.78125 83.15625 78.71875 83.15625 C 77.8125 83.15625 77.09375 82.6875 76.625 81.9375 C 76.34375 81.53125 76.34375 81.46875 76.34375 81.09375 Z M 76.34375 81.09375 "/>
<path style=" stroke:none;fill-rule:nonzero;fill:rgb(0%,0%,0%);fill-opacity:1;" d="M 87.351562 75.84375 L 87.351562 69.53125 L 84.476562 69.75 L 84.476562 70.375 C 85.882812 70.375 86.039062 70.5 86.039062 71.5 L 86.039062 83.375 L 86.539062 83.375 C 86.539062 83.34375 86.695312 83.0625 87.257812 82.125 C 87.539062 82.59375 88.382812 83.59375 89.851562 83.59375 C 92.226562 83.59375 94.289062 81.625 94.289062 79.0625 C 94.289062 76.53125 92.351562 74.5625 90.070312 74.5625 C 88.507812 74.5625 87.664062 75.5 87.351562 75.84375 Z M 87.414062 81.09375 L 87.414062 77 C 87.414062 76.625 87.414062 76.59375 87.632812 76.28125 C 88.414062 75.15625 89.507812 75 89.976562 75 C 90.882812 75 91.601562 75.53125 92.070312 76.28125 C 92.601562 77.09375 92.632812 78.21875 92.632812 79.0625 C 92.632812 79.78125 92.601562 80.96875 92.039062 81.875 C 91.601562 82.5 90.851562 83.15625 89.789062 83.15625 C 88.882812 83.15625 88.164062 82.6875 87.695312 81.9375 C 87.414062 81.53125 87.414062 81.46875 87.414062 81.09375 Z M 87.414062 81.09375 "/>
<path style="fill:none;stroke-width:0.566929;stroke-linecap:butt;stroke-linejoin:miter;stroke:rgb(100%,0%,0%);stroke-opacity:0.5;stroke-miterlimit:10;" d="M 72.595888 31.180979 L 78.26581 25.511057 " transform="matrix(2,0,0,2,5.952756,6.169291)"/>
<path style="fill:none;stroke-width:0.566929;stroke-linecap:butt;stroke-linejoin:miter;stroke:rgb(100%,0%,0%);stroke-opacity:0.5;stroke-miterlimit:10;" d="M 78.26581 31.180979 L 72.595888 25.511057 " transform="matrix(2,0,0,2,5.952756,6.169291)"/>
<path style="fill-rule:nonzero;fill:rgb(50%,50%,0%);fill-opacity:0.1;stroke-width:0.566929;stroke-linecap:butt;stroke-linejoin:miter;stroke:rgb(100%,0%,0%);stroke-opacity:0.5;stroke-miterlimit:10;" d="M 59.097841 39.593089 L 91.763856 39.593089 L 91.763856 28.346995 L 59.097841 28.346995 Z M 59.097841 39.593089 " transform="matrix(2,0,0,2,5.952756,6.169291)"/>
<path style="fill:none;stroke-width:0.566929;stroke-linecap:butt;stroke-linejoin:miter;stroke:rgb(100%,0%,0%);stroke-opacity:0.5;stroke-miterlimit:10;" d="M 59.097841 39.483714 L 64.767763 33.815745 " transform="matrix(2,0,0,2,5.952756,6.169291)"/>
<path style="fill:none;stroke-width:0.566929;stroke-linecap:butt;stroke-linejoin:miter;stroke:rgb(100%,0%,0%);stroke-opacity:0.5;stroke-miterlimit:10;" d="M 64.767763 39.483714 L 59.097841 33.815745 " transform="matrix(2,0,0,2,5.952756,6.169291)"/>
<path style="fill-rule:nonzero;fill:rgb(50%,50%,0%);fill-opacity:0.1;stroke-width:0.566929;stroke-linecap:butt;stroke-linejoin:miter;stroke:rgb(100%,0%,0%);stroke-opacity:0.5;stroke-miterlimit:10;" d="M 59.097841 39.593089 L 91.763856 39.593089 L 91.763856 28.346995 L 59.097841 28.346995 Z M 59.097841 39.593089 " transform="matrix(2,0,0,2,5.952756,6.169291)"/>
<path style="fill:none;stroke-width:0.566929;stroke-linecap:butt;stroke-linejoin:miter;stroke:rgb(100%,0%,0%);stroke-opacity:0.5;stroke-miterlimit:10;" d="M 59.097841 39.483714 L 64.767763 33.815745 " transform="matrix(2,0,0,2,5.952756,6.169291)"/>
<path style="fill:none;stroke-width:0.566929;stroke-linecap:butt;stroke-linejoin:miter;stroke:rgb(100%,0%,0%);stroke-opacity:0.5;stroke-miterlimit:10;" d="M 64.767763 39.483714 L 59.097841 33.815745 " transform="matrix(2,0,0,2,5.952756,6.169291)"/>
<path style="fill-rule:nonzero;fill:rgb(50%,50%,0%);fill-opacity:0.1;stroke-width:0.566929;stroke-linecap:butt;stroke-linejoin:miter;stroke:rgb(100%,0%,0%);stroke-opacity:0.5;stroke-miterlimit:10;" d="M 61.931825 36.759104 L 88.929872 36.759104 L 88.929872 31.180979 L 61.931825 31.180979 Z M 61.931825 36.759104 " transform="matrix(2,0,0,2,5.952756,6.169291)"/>
<path style=" stroke:none;fill-rule:nonzero;fill:rgb(0%,0%,0%);fill-opacity:1;" d="M 132.472656 73.4375 C 132.597656 70.46875 134.285156 69.96875 134.972656 69.96875 C 137.003906 69.96875 137.222656 72.65625 137.222656 73.4375 Z M 132.472656 73.875 L 138.035156 73.875 C 138.472656 73.875 138.535156 73.875 138.535156 73.4375 C 138.535156 71.46875 137.441406 69.53125 134.972656 69.53125 C 132.660156 69.53125 130.816406 71.59375 130.816406 74.09375 C 130.816406 76.75 132.910156 78.6875 135.191406 78.6875 C 137.628906 78.6875 138.535156 76.46875 138.535156 76.09375 C 138.535156 75.90625 138.378906 75.84375 138.253906 75.84375 C 138.097656 75.84375 138.035156 75.96875 138.003906 76.125 C 137.316406 78.1875 135.503906 78.1875 135.316406 78.1875 C 134.316406 78.1875 133.535156 77.59375 133.066406 76.84375 C 132.472656 75.90625 132.472656 74.59375 132.472656 73.875 Z M 132.472656 73.875 "/>
<path style=" stroke:none;fill-rule:nonzero;fill:rgb(0%,0%,0%);fill-opacity:1;" d="M 141.328125 73.4375 C 141.453125 70.46875 143.140625 69.96875 143.828125 69.96875 C 145.859375 69.96875 146.078125 72.65625 146.078125 73.4375 Z M 141.328125 73.875 L 146.890625 73.875 C 147.328125 73.875 147.390625 73.875 147.390625 73.4375 C 147.390625 71.46875 146.296875 69.53125 143.828125 69.53125 C 141.515625 69.53125 139.671875 71.59375 139.671875 74.09375 C 139.671875 76.75 141.765625 78.6875 144.046875 78.6875 C 146.484375 78.6875 147.390625 76.46875 147.390625 76.09375 C 147.390625 75.90625 147.234375 75.84375 147.109375 75.84375 C 146.953125 75.84375 146.890625 75.96875 146.859375 76.125 C 146.171875 78.1875 144.359375 78.1875 144.171875 78.1875 C 143.171875 78.1875 142.390625 77.59375 141.921875 76.84375 C 141.328125 75.90625 141.328125 74.59375 141.328125 73.875 Z M 141.328125 73.875 "/>
<path style=" stroke:none;fill-rule:nonzero;fill:rgb(0%,0%,0%);fill-opacity:1;" d="M 150.183594 73.4375 C 150.308594 70.46875 151.996094 69.96875 152.683594 69.96875 C 154.714844 69.96875 154.933594 72.65625 154.933594 73.4375 Z M 150.183594 73.875 L 155.746094 73.875 C 156.183594 73.875 156.246094 73.875 156.246094 73.4375 C 156.246094 71.46875 155.152344 69.53125 152.683594 69.53125 C 150.371094 69.53125 148.527344 71.59375 148.527344 74.09375 C 148.527344 76.75 150.621094 78.6875 152.902344 78.6875 C 155.339844 78.6875 156.246094 76.46875 156.246094 76.09375 C 156.246094 75.90625 156.089844 75.84375 155.964844 75.84375 C 155.808594 75.84375 155.746094 75.96875 155.714844 76.125 C 155.027344 78.1875 153.214844 78.1875 153.027344 78.1875 C 152.027344 78.1875 151.246094 77.59375 150.777344 76.84375 C 150.183594 75.90625 150.183594 74.59375 150.183594 73.875 Z M 150.183594 73.875 "/>
<path style=" stroke:none;fill-rule:nonzero;fill:rgb(0%,0%,0%);fill-opacity:1;" d="M 159.039062 73.4375 C 159.164062 70.46875 160.851562 69.96875 161.539062 69.96875 C 163.570312 69.96875 163.789062 72.65625 163.789062 73.4375 Z M 159.039062 73.875 L 164.601562 73.875 C 165.039062 73.875 165.101562 73.875 165.101562 73.4375 C 165.101562 71.46875 164.007812 69.53125 161.539062 69.53125 C 159.226562 69.53125 157.382812 71.59375 157.382812 74.09375 C 157.382812 76.75 159.476562 78.6875 161.757812 78.6875 C 164.195312 78.6875 165.101562 76.46875 165.101562 76.09375 C 165.101562 75.90625 164.945312 75.84375 164.820312 75.84375 C 164.664062 75.84375 164.601562 75.96875 164.570312 76.125 C 163.882812 78.1875 162.070312 78.1875 161.882812 78.1875 C 160.882812 78.1875 160.101562 77.59375 159.632812 76.84375 C 159.039062 75.90625 159.039062 74.59375 159.039062 73.875 Z M 159.039062 73.875 "/>
<path style=" stroke:none;fill-rule:nonzero;fill:rgb(0%,0%,0%);fill-opacity:1;" d="M 167.894531 73.4375 C 168.019531 70.46875 169.707031 69.96875 170.394531 69.96875 C 172.425781 69.96875 172.644531 72.65625 172.644531 73.4375 Z M 167.894531 73.875 L 173.457031 73.875 C 173.894531 73.875 173.957031 73.875 173.957031 73.4375 C 173.957031 71.46875 172.863281 69.53125 170.394531 69.53125 C 168.082031 69.53125 166.238281 71.59375 166.238281 74.09375 C 166.238281 76.75 168.332031 78.6875 170.613281 78.6875 C 173.050781 78.6875 173.957031 76.46875 173.957031 76.09375 C 173.957031 75.90625 173.800781 75.84375 173.675781 75.84375 C 173.519531 75.84375 173.457031 75.96875 173.425781 76.125 C 172.738281 78.1875 170.925781 78.1875 170.738281 78.1875 C 169.738281 78.1875 168.957031 77.59375 168.488281 76.84375 C 167.894531 75.90625 167.894531 74.59375 167.894531 73.875 Z M 167.894531 73.875 "/>
<path style=" stroke:none;fill-rule:nonzero;fill:rgb(0%,0%,0%);fill-opacity:1;" d="M 176.75 73.4375 C 176.875 70.46875 178.5625 69.96875 179.25 69.96875 C 181.28125 69.96875 181.5 72.65625 181.5 73.4375 Z M 176.75 73.875 L 182.3125 73.875 C 182.75 73.875 182.8125 73.875 182.8125 73.4375 C 182.8125 71.46875 181.71875 69.53125 179.25 69.53125 C 176.9375 69.53125 175.09375 71.59375 175.09375 74.09375 C 175.09375 76.75 177.1875 78.6875 179.46875 78.6875 C 181.90625 78.6875 182.8125 76.46875 182.8125 76.09375 C 182.8125 75.90625 182.65625 75.84375 182.53125 75.84375 C 182.375 75.84375 182.3125 75.96875 182.28125 76.125 C 181.59375 78.1875 179.78125 78.1875 179.59375 78.1875 C 178.59375 78.1875 177.8125 77.59375 177.34375 76.84375 C 176.75 75.90625 176.75 74.59375 176.75 73.875 Z M 176.75 73.875 "/>
<path style="fill:none;stroke-width:0.566929;stroke-linecap:butt;stroke-linejoin:miter;stroke:rgb(100%,0%,0%);stroke-opacity:0.5;stroke-miterlimit:10;" d="M 100.525575 31.180979 L 106.193544 25.511057 " transform="matrix(2,0,0,2,5.952756,6.169291)"/>
<path style="fill:none;stroke-width:0.566929;stroke-linecap:butt;stroke-linejoin:miter;stroke:rgb(100%,0%,0%);stroke-opacity:0.5;stroke-miterlimit:10;" d="M 106.193544 31.180979 L 100.525575 25.511057 " transform="matrix(2,0,0,2,5.952756,6.169291)"/>
<path style="fill:none;stroke-width:0.566929;stroke-linecap:butt;stroke-linejoin:miter;stroke:rgb(100%,0%,0%);stroke-opacity:0.5;stroke-miterlimit:10;" d="M 103.35956 56.692698 L 103.35956 28.346995 Z M 103.35956 56.692698 " transform="matrix(2,0,0,2,5.952756,6.169291)"/>
<path style="fill:none;stroke-width:0.566929;stroke-linecap:butt;stroke-linejoin:miter;stroke:rgb(100%,0%,0%);stroke-opacity:0.5;stroke-miterlimit:10;" d="M 6.826356 59.526682 L 12.494325 53.858714 " transform="matrix(2,0,0,2,5.952756,6.169291)"/>
<path style="fill:none;stroke-width:0.566929;stroke-linecap:butt;stroke-linejoin:miter;stroke:rgb(100%,0%,0%);stroke-opacity:0.5;stroke-miterlimit:10;" d="M 12.494325 59.526682 L 6.826356 53.858714 " transform="matrix(2,0,0,2,5.952756,6.169291)"/>
<path style="fill-rule:nonzero;fill:rgb(50%,50%,0%);fill-opacity:0.1;stroke-width:0.566929;stroke-linecap:butt;stroke-linejoin:miter;stroke:rgb(100%,0%,0%);stroke-opacity:0.5;stroke-miterlimit:10;" d="M 0.000184547 67.940745 L 19.320497 67.940745 L 19.320497 56.692698 L 0.000184547 56.692698 Z M 0.000184547 67.940745 " transform="matrix(2,0,0,2,5.952756,6.169291)"/>
<path style="fill:none;stroke-width:0.566929;stroke-linecap:butt;stroke-linejoin:miter;stroke:rgb(100%,0%,0%);stroke-opacity:0.5;stroke-miterlimit:10;" d="M 0.000184547 67.83137 L 5.670106 62.161448 " transform="matrix(2,0,0,2,5.952756,6.169291)"/>
<path style="fill:none;stroke-width:0.566929;stroke-linecap:butt;stroke-linejoin:miter;stroke:rgb(100%,0%,0%);stroke-opacity:0.5;stroke-miterlimit:10;" d="M 5.670106 67.83137 L 0.000184547 62.161448 " transform="matrix(2,0,0,2,5.952756,6.169291)"/>
<path style="fill-rule:nonzero;fill:rgb(50%,50%,0%);fill-opacity:0.1;stroke-width:0.566929;stroke-linecap:butt;stroke-linejoin:miter;stroke:rgb(100%,0%,0%);stroke-opacity:0.5;stroke-miterlimit:10;" d="M 0.000184547 67.940745 L 19.320497 67.940745 L 19.320497 56.692698 L 0.000184547 56.692698 Z M 0.000184547 67.940745 " transform="matrix(2,0,0,2,5.952756,6.169291)"/>
<path style="fill:none;stroke-width:0.566929;stroke-linecap:butt;stroke-linejoin:miter;stroke:rgb(100%,0%,0%);stroke-opacity:0.5;stroke-miterlimit:10;" d="M 0.000184547 67.83137 L 5.670106 62.161448 " transform="matrix(2,0,0,2,5.952756,6.169291)"/>
<path style="fill:none;stroke-width:0.566929;stroke-linecap:butt;stroke-linejoin:miter;stroke:rgb(100%,0%,0%);stroke-opacity:0.5;stroke-miterlimit:10;" d="M 5.670106 67.83137 L 0.000184547 62.161448 " transform="matrix(2,0,0,2,5.952756,6.169291)"/>
<path style="fill-rule:nonzero;fill:rgb(50%,50%,0%);fill-opacity:0.1;stroke-width:0.566929;stroke-linecap:butt;stroke-linejoin:miter;stroke:rgb(100%,0%,0%);stroke-opacity:0.5;stroke-miterlimit:10;" d="M 2.834169 65.104807 L 16.486513 65.104807 L 16.486513 59.526682 L 2.834169 59.526682 Z M 2.834169 65.104807 " transform="matrix(2,0,0,2,5.952756,6.169291)"/>
<path style=" stroke:none;fill-rule:nonzero;fill:rgb(0%,0%,0%);fill-opacity:1;" d="M 14.277344 130.816406 C 14.277344 127.566406 15.902344 126.722656 16.964844 126.722656 C 17.152344 126.722656 18.402344 126.753906 19.089844 127.472656 C 18.277344 127.535156 18.152344 128.128906 18.152344 128.378906 C 18.152344 128.910156 18.527344 129.285156 19.058594 129.285156 C 19.589844 129.285156 19.996094 128.972656 19.996094 128.347656 C 19.996094 127.003906 18.464844 126.222656 16.933594 126.222656 C 14.433594 126.222656 12.621094 128.378906 12.621094 130.847656 C 12.621094 133.410156 14.589844 135.378906 16.902344 135.378906 C 19.558594 135.378906 20.214844 132.972656 20.214844 132.785156 C 20.214844 132.597656 19.996094 132.597656 19.933594 132.597656 C 19.777344 132.597656 19.714844 132.660156 19.683594 132.785156 C 19.121094 134.628906 17.808594 134.878906 17.089844 134.878906 C 16.027344 134.878906 14.277344 134.035156 14.277344 130.816406 Z M 14.277344 130.816406 "/>
<path style=" stroke:none;fill-rule:nonzero;fill:rgb(0%,0%,0%);fill-opacity:1;" d="M 23.132812 130.816406 C 23.132812 127.566406 24.757812 126.722656 25.820312 126.722656 C 26.007812 126.722656 27.257812 126.753906 27.945312 127.472656 C 27.132812 127.535156 27.007812 128.128906 27.007812 128.378906 C 27.007812 128.910156 27.382812 129.285156 27.914062 129.285156 C 28.445312 129.285156 28.851562 128.972656 28.851562 128.347656 C 28.851562 127.003906 27.320312 126.222656 25.789062 126.222656 C 23.289062 126.222656 21.476562 128.378906 21.476562 130.847656 C 21.476562 133.410156 23.445312 135.378906 25.757812 135.378906 C 28.414062 135.378906 29.070312 132.972656 29.070312 132.785156 C 29.070312 132.597656 28.851562 132.597656 28.789062 132.597656 C 28.632812 132.597656 28.570312 132.660156 28.539062 132.785156 C 27.976562 134.628906 26.664062 134.878906 25.945312 134.878906 C 24.882812 134.878906 23.132812 134.035156 23.132812 130.816406 Z M 23.132812 130.816406 "/>
<path style=" stroke:none;fill-rule:nonzero;fill:rgb(0%,0%,0%);fill-opacity:1;" d="M 31.988281 130.816406 C 31.988281 127.566406 33.613281 126.722656 34.675781 126.722656 C 34.863281 126.722656 36.113281 126.753906 36.800781 127.472656 C 35.988281 127.535156 35.863281 128.128906 35.863281 128.378906 C 35.863281 128.910156 36.238281 129.285156 36.769531 129.285156 C 37.300781 129.285156 37.707031 128.972656 37.707031 128.347656 C 37.707031 127.003906 36.175781 126.222656 34.644531 126.222656 C 32.144531 126.222656 30.332031 128.378906 30.332031 130.847656 C 30.332031 133.410156 32.300781 135.378906 34.613281 135.378906 C 37.269531 135.378906 37.925781 132.972656 37.925781 132.785156 C 37.925781 132.597656 37.707031 132.597656 37.644531 132.597656 C 37.488281 132.597656 37.425781 132.660156 37.394531 132.785156 C 36.832031 134.628906 35.519531 134.878906 34.800781 134.878906 C 33.738281 134.878906 31.988281 134.035156 31.988281 130.816406 Z M 31.988281 130.816406 "/>
<path style="fill:none;stroke-width:0.566929;stroke-linecap:butt;stroke-linejoin:miter;stroke:rgb(100%,0%,0%);stroke-opacity:0.5;stroke-miterlimit:10;" d="M 30.576356 59.526682 L 36.246278 53.858714 " transform="matrix(2,0,0,2,5.952756,6.169291)"/>
<path style="fill:none;stroke-width:0.566929;stroke-linecap:butt;stroke-linejoin:miter;stroke:rgb(100%,0%,0%);stroke-opacity:0.5;stroke-miterlimit:10;" d="M 36.246278 59.526682 L 30.576356 53.858714 " transform="matrix(2,0,0,2,5.952756,6.169291)"/>
<path style="fill-rule:nonzero;fill:rgb(50%,50%,0%);fill-opacity:0.1;stroke-width:0.566929;stroke-linecap:butt;stroke-linejoin:miter;stroke:rgb(100%,0%,0%);stroke-opacity:0.5;stroke-miterlimit:10;" d="M 21.26581 70.39387 L 45.556825 70.39387 L 45.556825 56.692698 L 21.26581 56.692698 Z M 21.26581 70.39387 " transform="matrix(2,0,0,2,5.952756,6.169291)"/>
<path style="fill:none;stroke-width:0.566929;stroke-linecap:butt;stroke-linejoin:miter;stroke:rgb(100%,0%,0%);stroke-opacity:0.5;stroke-miterlimit:10;" d="M 21.26581 70.39387 L 26.935731 64.723948 " transform="matrix(2,0,0,2,5.952756,6.169291)"/>
<path style="fill:none;stroke-width:0.566929;stroke-linecap:butt;stroke-linejoin:miter;stroke:rgb(100%,0%,0%);stroke-opacity:0.5;stroke-miterlimit:10;" d="M 26.935731 70.39387 L 21.26581 64.723948 " transform="matrix(2,0,0,2,5.952756,6.169291)"/>
<path style="fill-rule:nonzero;fill:rgb(50%,50%,0%);fill-opacity:0.1;stroke-width:0.566929;stroke-linecap:butt;stroke-linejoin:miter;stroke:rgb(100%,0%,0%);stroke-opacity:0.5;stroke-miterlimit:10;" d="M 21.26581 70.39387 L 45.556825 70.39387 L 45.556825 56.692698 L 21.26581 56.692698 Z M 21.26581 70.39387 " transform="matrix(2,0,0,2,5.952756,6.169291)"/>
<path style="fill:none;stroke-width:0.566929;stroke-linecap:butt;stroke-linejoin:miter;stroke:rgb(100%,0%,0%);stroke-opacity:0.5;stroke-miterlimit:10;" d="M 21.26581 70.39387 L 26.935731 64.723948 " transform="matrix(2,0,0,2,5.952756,6.169291)"/>
<path style="fill:none;stroke-width:0.566929;stroke-linecap:butt;stroke-linejoin:miter;stroke:rgb(100%,0%,0%);stroke-opacity:0.5;stroke-miterlimit:10;" d="M 26.935731 70.39387 L 21.26581 64.723948 " transform="matrix(2,0,0,2,5.952756,6.169291)"/>
<path style="fill-rule:nonzero;fill:rgb(50%,50%,0%);fill-opacity:0.1;stroke-width:0.566929;stroke-linecap:butt;stroke-linejoin:miter;stroke:rgb(100%,0%,0%);stroke-opacity:0.5;stroke-miterlimit:10;" d="M 24.099794 67.557932 L 42.722841 67.557932 L 42.722841 59.526682 L 24.099794 59.526682 Z M 24.099794 67.557932 " transform="matrix(2,0,0,2,5.952756,6.169291)"/>
<path style=" stroke:none;fill-rule:nonzero;fill:rgb(0%,0%,0%);fill-opacity:1;" d="M 63.558594 132.316406 L 65.839844 132.316406 L 65.839844 131.691406 L 63.496094 131.691406 L 63.496094 129.378906 C 63.496094 127.597656 64.464844 126.660156 65.339844 126.660156 C 65.402344 126.660156 65.714844 126.660156 65.996094 126.816406 C 65.777344 126.878906 65.402344 127.160156 65.402344 127.660156 C 65.402344 128.097656 65.714844 128.503906 66.277344 128.503906 C 66.839844 128.503906 67.152344 128.097656 67.152344 127.628906 C 67.152344 126.910156 66.433594 126.222656 65.339844 126.222656 C 64.152344 126.222656 63.277344 126.972656 63.183594 127.066406 C 62.589844 126.316406 61.464844 126.222656 60.933594 126.222656 C 59.058594 126.222656 56.746094 127.253906 56.746094 129.410156 L 56.746094 131.691406 L 55.152344 131.691406 L 55.152344 132.316406 L 56.746094 132.316406 L 56.746094 138.785156 C 56.746094 139.660156 56.527344 139.660156 55.183594 139.660156 L 55.183594 140.285156 C 55.839844 140.253906 56.902344 140.222656 57.402344 140.222656 C 57.902344 140.222656 58.871094 140.253906 59.621094 140.285156 L 59.621094 139.660156 C 58.277344 139.660156 58.058594 139.660156 58.058594 138.785156 L 58.058594 132.316406 L 62.246094 132.316406 L 62.246094 138.785156 C 62.246094 139.660156 62.027344 139.660156 60.683594 139.660156 L 60.683594 140.285156 C 61.464844 140.253906 62.402344 140.222656 62.964844 140.222656 C 63.746094 140.222656 64.683594 140.222656 65.496094 140.285156 L 65.496094 139.660156 L 65.058594 139.660156 C 63.589844 139.660156 63.558594 139.441406 63.558594 138.722656 Z M 57.996094 131.691406 L 57.996094 129.441406 C 57.996094 127.503906 59.621094 126.660156 60.933594 126.660156 C 61.902344 126.660156 62.464844 127.035156 62.464844 127.035156 L 62.464844 127.066406 C 62.152344 127.097656 61.746094 127.378906 61.746094 127.910156 C 61.746094 128.035156 61.746094 128.535156 62.308594 128.722656 C 62.246094 128.972656 62.246094 129.160156 62.246094 129.410156 L 62.246094 131.691406 Z M 57.996094 131.691406 "/>
<path style=" stroke:none;fill-rule:nonzero;fill:rgb(0%,0%,0%);fill-opacity:1;" d="M 75.183594 132.316406 L 77.464844 132.316406 L 77.464844 131.691406 L 75.121094 131.691406 L 75.121094 129.378906 C 75.121094 127.597656 76.089844 126.660156 76.964844 126.660156 C 77.027344 126.660156 77.339844 126.660156 77.621094 126.816406 C 77.402344 126.878906 77.027344 127.160156 77.027344 127.660156 C 77.027344 128.097656 77.339844 128.503906 77.902344 128.503906 C 78.464844 128.503906 78.777344 128.097656 78.777344 127.628906 C 78.777344 126.910156 78.058594 126.222656 76.964844 126.222656 C 75.777344 126.222656 74.902344 126.972656 74.808594 127.066406 C 74.214844 126.316406 73.089844 126.222656 72.558594 126.222656 C 70.683594 126.222656 68.371094 127.253906 68.371094 129.410156 L 68.371094 131.691406 L 66.777344 131.691406 L 66.777344 132.316406 L 68.371094 132.316406 L 68.371094 138.785156 C 68.371094 139.660156 68.152344 139.660156 66.808594 139.660156 L 66.808594 140.285156 C 67.464844 140.253906 68.527344 140.222656 69.027344 140.222656 C 69.527344 140.222656 70.496094 140.253906 71.246094 140.285156 L 71.246094 139.660156 C 69.902344 139.660156 69.683594 139.660156 69.683594 138.785156 L 69.683594 132.316406 L 73.871094 132.316406 L 73.871094 138.785156 C 73.871094 139.660156 73.652344 139.660156 72.308594 139.660156 L 72.308594 140.285156 C 73.089844 140.253906 74.027344 140.222656 74.589844 140.222656 C 75.371094 140.222656 76.308594 140.222656 77.121094 140.285156 L 77.121094 139.660156 L 76.683594 139.660156 C 75.214844 139.660156 75.183594 139.441406 75.183594 138.722656 Z M 69.621094 131.691406 L 69.621094 129.441406 C 69.621094 127.503906 71.246094 126.660156 72.558594 126.660156 C 73.527344 126.660156 74.089844 127.035156 74.089844 127.035156 L 74.089844 127.066406 C 73.777344 127.097656 73.371094 127.378906 73.371094 127.910156 C 73.371094 128.035156 73.371094 128.535156 73.933594 128.722656 C 73.871094 128.972656 73.871094 129.160156 73.871094 129.410156 L 73.871094 131.691406 Z M 69.621094 131.691406 "/>
<path style=" stroke:none;fill-rule:nonzero;fill:rgb(0%,0%,0%);fill-opacity:1;" d="M 86.804688 132.316406 L 89.085938 132.316406 L 89.085938 131.691406 L 86.742188 131.691406 L 86.742188 129.378906 C 86.742188 127.597656 87.710938 126.660156 88.585938 126.660156 C 88.648438 126.660156 88.960938 126.660156 89.242188 126.816406 C 89.023438 126.878906 88.648438 127.160156 88.648438 127.660156 C 88.648438 128.097656 88.960938 128.503906 89.523438 128.503906 C 90.085938 128.503906 90.398438 128.097656 90.398438 127.628906 C 90.398438 126.910156 89.679688 126.222656 88.585938 126.222656 C 87.398438 126.222656 86.523438 126.972656 86.429688 127.066406 C 85.835938 126.316406 84.710938 126.222656 84.179688 126.222656 C 82.304688 126.222656 79.992188 127.253906 79.992188 129.410156 L 79.992188 131.691406 L 78.398438 131.691406 L 78.398438 132.316406 L 79.992188 132.316406 L 79.992188 138.785156 C 79.992188 139.660156 79.773438 139.660156 78.429688 139.660156 L 78.429688 140.285156 C 79.085938 140.253906 80.148438 140.222656 80.648438 140.222656 C 81.148438 140.222656 82.117188 140.253906 82.867188 140.285156 L 82.867188 139.660156 C 81.523438 139.660156 81.304688 139.660156 81.304688 138.785156 L 81.304688 132.316406 L 85.492188 132.316406 L 85.492188 138.785156 C 85.492188 139.660156 85.273438 139.660156 83.929688 139.660156 L 83.929688 140.285156 C 84.710938 140.253906 85.648438 140.222656 86.210938 140.222656 C 86.992188 140.222656 87.929688 140.222656 88.742188 140.285156 L 88.742188 139.660156 L 88.304688 139.660156 C 86.835938 139.660156 86.804688 139.441406 86.804688 138.722656 Z M 81.242188 131.691406 L 81.242188 129.441406 C 81.242188 127.503906 82.867188 126.660156 84.179688 126.660156 C 85.148438 126.660156 85.710938 127.035156 85.710938 127.035156 L 85.710938 127.066406 C 85.398438 127.097656 84.992188 127.378906 84.992188 127.910156 C 84.992188 128.035156 84.992188 128.535156 85.554688 128.722656 C 85.492188 128.972656 85.492188 129.160156 85.492188 129.410156 L 85.492188 131.691406 Z M 81.242188 131.691406 "/>
<path style="fill:none;stroke-width:0.566929;stroke-linecap:butt;stroke-linejoin:miter;stroke:rgb(100%,0%,0%);stroke-opacity:0.5;stroke-miterlimit:10;" d="M 72.595888 59.526682 L 78.26581 53.858714 " transform="matrix(2,0,0,2,5.952756,6.169291)"/>
<path style="fill:none;stroke-width:0.566929;stroke-linecap:butt;stroke-linejoin:miter;stroke:rgb(100%,0%,0%);stroke-opacity:0.5;stroke-miterlimit:10;" d="M 78.26581 59.526682 L 72.595888 53.858714 " transform="matrix(2,0,0,2,5.952756,6.169291)"/>
<path style="fill-rule:nonzero;fill:rgb(50%,50%,0%);fill-opacity:0.1;stroke-width:0.566929;stroke-linecap:butt;stroke-linejoin:miter;stroke:rgb(100%,0%,0%);stroke-opacity:0.5;stroke-miterlimit:10;" d="M 47.502138 70.39387 L 103.35956 70.39387 L 103.35956 56.692698 L 47.502138 56.692698 Z M 47.502138 70.39387 " transform="matrix(2,0,0,2,5.952756,6.169291)"/>
<path style="fill:none;stroke-width:0.566929;stroke-linecap:butt;stroke-linejoin:miter;stroke:rgb(100%,0%,0%);stroke-opacity:0.5;stroke-miterlimit:10;" d="M 47.502138 70.284495 L 53.17206 64.614573 " transform="matrix(2,0,0,2,5.952756,6.169291)"/>
<path style="fill:none;stroke-width:0.566929;stroke-linecap:butt;stroke-linejoin:miter;stroke:rgb(100%,0%,0%);stroke-opacity:0.5;stroke-miterlimit:10;" d="M 53.17206 70.284495 L 47.502138 64.614573 " transform="matrix(2,0,0,2,5.952756,6.169291)"/>
<path style="fill-rule:nonzero;fill:rgb(50%,50%,0%);fill-opacity:0.1;stroke-width:0.566929;stroke-linecap:butt;stroke-linejoin:miter;stroke:rgb(100%,0%,0%);stroke-opacity:0.5;stroke-miterlimit:10;" d="M 47.502138 70.39387 L 103.35956 70.39387 L 103.35956 56.692698 L 47.502138 56.692698 Z M 47.502138 70.39387 " transform="matrix(2,0,0,2,5.952756,6.169291)"/>
<path style="fill:none;stroke-width:0.566929;stroke-linecap:butt;stroke-linejoin:miter;stroke:rgb(100%,0%,0%);stroke-opacity:0.5;stroke-miterlimit:10;" d="M 47.502138 70.284495 L 53.17206 64.614573 " transform="matrix(2,0,0,2,5.952756,6.169291)"/>
<path style="fill:none;stroke-width:0.566929;stroke-linecap:butt;stroke-linejoin:miter;stroke:rgb(100%,0%,0%);stroke-opacity:0.5;stroke-miterlimit:10;" d="M 53.17206 70.284495 L 47.502138 64.614573 " transform="matrix(2,0,0,2,5.952756,6.169291)"/>
<path style="fill-rule:nonzero;fill:rgb(50%,50%,0%);fill-opacity:0.1;stroke-width:0.566929;stroke-linecap:butt;stroke-linejoin:miter;stroke:rgb(100%,0%,0%);stroke-opacity:0.5;stroke-miterlimit:10;" d="M 50.336122 67.557932 L 100.525575 67.557932 L 100.525575 59.526682 L 50.336122 59.526682 Z M 50.336122 67.557932 " transform="matrix(2,0,0,2,5.952756,6.169291)"/>
<path style=" stroke:none;fill-rule:nonzero;fill:rgb(0%,0%,0%);fill-opacity:1;" d="M 110.5 132.535156 L 110.5 126.222656 L 107.625 126.441406 L 107.625 127.066406 C 109.03125 127.066406 109.1875 127.191406 109.1875 128.191406 L 109.1875 140.066406 L 109.6875 140.066406 C 109.6875 140.035156 109.84375 139.753906 110.40625 138.816406 C 110.6875 139.285156 111.53125 140.285156 113 140.285156 C 115.375 140.285156 117.4375 138.316406 117.4375 135.753906 C 117.4375 133.222656 115.5 131.253906 113.21875 131.253906 C 111.65625 131.253906 110.8125 132.191406 110.5 132.535156 Z M 110.5625 137.785156 L 110.5625 133.691406 C 110.5625 133.316406 110.5625 133.285156 110.78125 132.972656 C 111.5625 131.847656 112.65625 131.691406 113.125 131.691406 C 114.03125 131.691406 114.75 132.222656 115.21875 132.972656 C 115.75 133.785156 115.78125 134.910156 115.78125 135.753906 C 115.78125 136.472656 115.75 137.660156 115.1875 138.566406 C 114.75 139.191406 114 139.847656 112.9375 139.847656 C 112.03125 139.847656 111.3125 139.378906 110.84375 138.628906 C 110.5625 138.222656 110.5625 138.160156 110.5625 137.785156 Z M 110.5625 137.785156 "/>
<path style=" stroke:none;fill-rule:nonzero;fill:rgb(0%,0%,0%);fill-opacity:1;" d="M 121.570312 132.535156 L 121.570312 126.222656 L 118.695312 126.441406 L 118.695312 127.066406 C 120.101562 127.066406 120.257812 127.191406 120.257812 128.191406 L 120.257812 140.066406 L 120.757812 140.066406 C 120.757812 140.035156 120.914062 139.753906 121.476562 138.816406 C 121.757812 139.285156 122.601562 140.285156 124.070312 140.285156 C 126.445312 140.285156 128.507812 138.316406 128.507812 135.753906 C 128.507812 133.222656 126.570312 131.253906 124.289062 131.253906 C 122.726562 131.253906 121.882812 132.191406 121.570312 132.535156 Z M 121.632812 137.785156 L 121.632812 133.691406 C 121.632812 133.316406 121.632812 133.285156 121.851562 132.972656 C 122.632812 131.847656 123.726562 131.691406 124.195312 131.691406 C 125.101562 131.691406 125.820312 132.222656 126.289062 132.972656 C 126.820312 133.785156 126.851562 134.910156 126.851562 135.753906 C 126.851562 136.472656 126.820312 137.660156 126.257812 138.566406 C 125.820312 139.191406 125.070312 139.847656 124.007812 139.847656 C 123.101562 139.847656 122.382812 139.378906 121.914062 138.628906 C 121.632812 138.222656 121.632812 138.160156 121.632812 137.785156 Z M 121.632812 137.785156 "/>
<path style=" stroke:none;fill-rule:nonzero;fill:rgb(0%,0%,0%);fill-opacity:1;" d="M 132.640625 132.535156 L 132.640625 126.222656 L 129.765625 126.441406 L 129.765625 127.066406 C 131.171875 127.066406 131.328125 127.191406 131.328125 128.191406 L 131.328125 140.066406 L 131.828125 140.066406 C 131.828125 140.035156 131.984375 139.753906 132.546875 138.816406 C 132.828125 139.285156 133.671875 140.285156 135.140625 140.285156 C 137.515625 140.285156 139.578125 138.316406 139.578125 135.753906 C 139.578125 133.222656 137.640625 131.253906 135.359375 131.253906 C 133.796875 131.253906 132.953125 132.191406 132.640625 132.535156 Z M 132.703125 137.785156 L 132.703125 133.691406 C 132.703125 133.316406 132.703125 133.285156 132.921875 132.972656 C 133.703125 131.847656 134.796875 131.691406 135.265625 131.691406 C 136.171875 131.691406 136.890625 132.222656 137.359375 132.972656 C 137.890625 133.785156 137.921875 134.910156 137.921875 135.753906 C 137.921875 136.472656 137.890625 137.660156 137.328125 138.566406 C 136.890625 139.191406 136.140625 139.847656 135.078125 139.847656 C 134.171875 139.847656 133.453125 139.378906 132.984375 138.628906 C 132.703125 138.222656 132.703125 138.160156 132.703125 137.785156 Z M 132.703125 137.785156 "/>
<path style=" stroke:none;fill-rule:nonzero;fill:rgb(0%,0%,0%);fill-opacity:1;" d="M 143.710938 132.535156 L 143.710938 126.222656 L 140.835938 126.441406 L 140.835938 127.066406 C 142.242188 127.066406 142.398438 127.191406 142.398438 128.191406 L 142.398438 140.066406 L 142.898438 140.066406 C 142.898438 140.035156 143.054688 139.753906 143.617188 138.816406 C 143.898438 139.285156 144.742188 140.285156 146.210938 140.285156 C 148.585938 140.285156 150.648438 138.316406 150.648438 135.753906 C 150.648438 133.222656 148.710938 131.253906 146.429688 131.253906 C 144.867188 131.253906 144.023438 132.191406 143.710938 132.535156 Z M 143.773438 137.785156 L 143.773438 133.691406 C 143.773438 133.316406 143.773438 133.285156 143.992188 132.972656 C 144.773438 131.847656 145.867188 131.691406 146.335938 131.691406 C 147.242188 131.691406 147.960938 132.222656 148.429688 132.972656 C 148.960938 133.785156 148.992188 134.910156 148.992188 135.753906 C 148.992188 136.472656 148.960938 137.660156 148.398438 138.566406 C 147.960938 139.191406 147.210938 139.847656 146.148438 139.847656 C 145.242188 139.847656 144.523438 139.378906 144.054688 138.628906 C 143.773438 138.222656 143.773438 138.160156 143.773438 137.785156 Z M 143.773438 137.785156 "/>
<path style=" stroke:none;fill-rule:nonzero;fill:rgb(0%,0%,0%);fill-opacity:1;" d="M 154.78125 132.535156 L 154.78125 126.222656 L 151.90625 126.441406 L 151.90625 127.066406 C 153.3125 127.066406 153.46875 127.191406 153.46875 128.191406 L 153.46875 140.066406 L 153.96875 140.066406 C 153.96875 140.035156 154.125 139.753906 154.6875 138.816406 C 154.96875 139.285156 155.8125 140.285156 157.28125 140.285156 C 159.65625 140.285156 161.71875 138.316406 161.71875 135.753906 C 161.71875 133.222656 159.78125 131.253906 157.5 131.253906 C 155.9375 131.253906 155.09375 132.191406 154.78125 132.535156 Z M 154.84375 137.785156 L 154.84375 133.691406 C 154.84375 133.316406 154.84375 133.285156 155.0625 132.972656 C 155.84375 131.847656 156.9375 131.691406 157.40625 131.691406 C 158.3125 131.691406 159.03125 132.222656 159.5 132.972656 C 160.03125 133.785156 160.0625 134.910156 160.0625 135.753906 C 160.0625 136.472656 160.03125 137.660156 159.46875 138.566406 C 159.03125 139.191406 158.28125 139.847656 157.21875 139.847656 C 156.3125 139.847656 155.59375 139.378906 155.125 138.628906 C 154.84375 138.222656 154.84375 138.160156 154.84375 137.785156 Z M 154.84375 137.785156 "/>
<path style=" stroke:none;fill-rule:nonzero;fill:rgb(0%,0%,0%);fill-opacity:1;" d="M 165.851562 132.535156 L 165.851562 126.222656 L 162.976562 126.441406 L 162.976562 127.066406 C 164.382812 127.066406 164.539062 127.191406 164.539062 128.191406 L 164.539062 140.066406 L 165.039062 140.066406 C 165.039062 140.035156 165.195312 139.753906 165.757812 138.816406 C 166.039062 139.285156 166.882812 140.285156 168.351562 140.285156 C 170.726562 140.285156 172.789062 138.316406 172.789062 135.753906 C 172.789062 133.222656 170.851562 131.253906 168.570312 131.253906 C 167.007812 131.253906 166.164062 132.191406 165.851562 132.535156 Z M 165.914062 137.785156 L 165.914062 133.691406 C 165.914062 133.316406 165.914062 133.285156 166.132812 132.972656 C 166.914062 131.847656 168.007812 131.691406 168.476562 131.691406 C 169.382812 131.691406 170.101562 132.222656 170.570312 132.972656 C 171.101562 133.785156 171.132812 134.910156 171.132812 135.753906 C 171.132812 136.472656 171.101562 137.660156 170.539062 138.566406 C 170.101562 139.191406 169.351562 139.847656 168.289062 139.847656 C 167.382812 139.847656 166.664062 139.378906 166.195312 138.628906 C 165.914062 138.222656 165.914062 138.160156 165.914062 137.785156 Z M 165.914062 137.785156 "/>
<path style=" stroke:none;fill-rule:nonzero;fill:rgb(0%,0%,0%);fill-opacity:1;" d="M 176.925781 132.535156 L 176.925781 126.222656 L 174.050781 126.441406 L 174.050781 127.066406 C 175.457031 127.066406 175.613281 127.191406 175.613281 128.191406 L 175.613281 140.066406 L 176.113281 140.066406 C 176.113281 140.035156 176.269531 139.753906 176.832031 138.816406 C 177.113281 139.285156 177.957031 140.285156 179.425781 140.285156 C 181.800781 140.285156 183.863281 138.316406 183.863281 135.753906 C 183.863281 133.222656 181.925781 131.253906 179.644531 131.253906 C 178.082031 131.253906 177.238281 132.191406 176.925781 132.535156 Z M 176.988281 137.785156 L 176.988281 133.691406 C 176.988281 133.316406 176.988281 133.285156 177.207031 132.972656 C 177.988281 131.847656 179.082031 131.691406 179.550781 131.691406 C 180.457031 131.691406 181.175781 132.222656 181.644531 132.972656 C 182.175781 133.785156 182.207031 134.910156 182.207031 135.753906 C 182.207031 136.472656 182.175781 137.660156 181.613281 138.566406 C 181.175781 139.191406 180.425781 139.847656 179.363281 139.847656 C 178.457031 139.847656 177.738281 139.378906 177.269531 138.628906 C 176.988281 138.222656 176.988281 138.160156 176.988281 137.785156 Z M 176.988281 137.785156 "/>
<path style=" stroke:none;fill-rule:nonzero;fill:rgb(0%,0%,0%);fill-opacity:1;" d="M 187.996094 132.535156 L 187.996094 126.222656 L 185.121094 126.441406 L 185.121094 127.066406 C 186.527344 127.066406 186.683594 127.191406 186.683594 128.191406 L 186.683594 140.066406 L 187.183594 140.066406 C 187.183594 140.035156 187.339844 139.753906 187.902344 138.816406 C 188.183594 139.285156 189.027344 140.285156 190.496094 140.285156 C 192.871094 140.285156 194.933594 138.316406 194.933594 135.753906 C 194.933594 133.222656 192.996094 131.253906 190.714844 131.253906 C 189.152344 131.253906 188.308594 132.191406 187.996094 132.535156 Z M 188.058594 137.785156 L 188.058594 133.691406 C 188.058594 133.316406 188.058594 133.285156 188.277344 132.972656 C 189.058594 131.847656 190.152344 131.691406 190.621094 131.691406 C 191.527344 131.691406 192.246094 132.222656 192.714844 132.972656 C 193.246094 133.785156 193.277344 134.910156 193.277344 135.753906 C 193.277344 136.472656 193.246094 137.660156 192.683594 138.566406 C 192.246094 139.191406 191.496094 139.847656 190.433594 139.847656 C 189.527344 139.847656 188.808594 139.378906 188.339844 138.628906 C 188.058594 138.222656 188.058594 138.160156 188.058594 137.785156 Z M 188.058594 137.785156 "/>
<path style=" stroke:none;fill-rule:nonzero;fill:rgb(0%,0%,0%);fill-opacity:1;" d="M 199.066406 132.535156 L 199.066406 126.222656 L 196.191406 126.441406 L 196.191406 127.066406 C 197.597656 127.066406 197.753906 127.191406 197.753906 128.191406 L 197.753906 140.066406 L 198.253906 140.066406 C 198.253906 140.035156 198.410156 139.753906 198.972656 138.816406 C 199.253906 139.285156 200.097656 140.285156 201.566406 140.285156 C 203.941406 140.285156 206.003906 138.316406 206.003906 135.753906 C 206.003906 133.222656 204.066406 131.253906 201.785156 131.253906 C 200.222656 131.253906 199.378906 132.191406 199.066406 132.535156 Z M 199.128906 137.785156 L 199.128906 133.691406 C 199.128906 133.316406 199.128906 133.285156 199.347656 132.972656 C 200.128906 131.847656 201.222656 131.691406 201.691406 131.691406 C 202.597656 131.691406 203.316406 132.222656 203.785156 132.972656 C 204.316406 133.785156 204.347656 134.910156 204.347656 135.753906 C 204.347656 136.472656 204.316406 137.660156 203.753906 138.566406 C 203.316406 139.191406 202.566406 139.847656 201.503906 139.847656 C 200.597656 139.847656 199.878906 139.378906 199.410156 138.628906 C 199.128906 138.222656 199.128906 138.160156 199.128906 137.785156 Z M 199.128906 137.785156 "/>
<path style="fill:none;stroke-width:0.566929;stroke-linecap:butt;stroke-linejoin:miter;stroke:rgb(100%,0%,0%);stroke-opacity:0.5;stroke-miterlimit:10;" d="M 100.525575 59.526682 L 106.193544 53.858714 " transform="matrix(2,0,0,2,5.952756,6.169291)"/>
<path style="fill:none;stroke-width:0.566929;stroke-linecap:butt;stroke-linejoin:miter;stroke:rgb(100%,0%,0%);stroke-opacity:0.5;stroke-miterlimit:10;" d="M 106.193544 59.526682 L 100.525575 53.858714 " transform="matrix(2,0,0,2,5.952756,6.169291)"/>
<path style="fill:none;stroke-width:0.566929;stroke-linecap:butt;stroke-linejoin:miter;stroke:rgb(100%,0%,0%);stroke-opacity:0.5;stroke-miterlimit:10;" d="M 103.35956 85.038401 L 103.35956 56.692698 Z M 103.35956 85.038401 " transform="matrix(2,0,0,2,5.952756,6.169291)"/>
</g>
</svg>
