<?xml version="1.0" encoding="UTF-8"?>
<svg xmlns="http://www.w3.org/2000/svg" xmlns:xlink="http://www.w3.org/1999/xlink" width="191.922459pt" height="176.748031pt" viewBox="0 0 191.922459 176.748031" version="1.1">
<g id="surface69">
<path style="fill:none;stroke-width:0.566929;stroke-linecap:butt;stroke-linejoin:miter;stroke:rgb(100%,0%,0%);stroke-opacity:0.5;stroke-miterlimit:10;" d="M -2.8338 2.835276 L 2.834169 -2.834646 " transform="matrix(2,0,0,2,5.952756,6.169291)"/>
<path style="fill:none;stroke-width:0.566929;stroke-linecap:butt;stroke-linejoin:miter;stroke:rgb(100%,0%,0%);stroke-opacity:0.5;stroke-miterlimit:10;" d="M 2.834169 2.835276 L -2.8338 -2.834646 " transform="matrix(2,0,0,2,5.952756,6.169291)"/>
<path style="fill-rule:nonzero;fill:rgb(50%,50%,0%);fill-opacity:0.1;stroke-width:0.566929;stroke-linecap:butt;stroke-linejoin:miter;stroke:rgb(100%,0%,0%);stroke-opacity:0.5;stroke-miterlimit:10;" d="M 0.000184547 85.038401 L 89.900575 85.038401 L 89.900575 -0.000661294 L 0.000184547 -0.000661294 Z M 0.000184547 85.038401 " transform="matrix(2,0,0,2,5.952756,6.169291)"/>
<path style="fill:none;stroke-width:0.566929;stroke-linecap:butt;stroke-linejoin:miter;stroke:rgb(100%,0%,0%);stroke-opacity:0.5;stroke-miterlimit:10;" d="M 6.826356 2.835276 L 12.494325 -2.834646 " transform="matrix(2,0,0,2,5.952756,6.169291)"/>
<path style="fill:none;stroke-width:0.566929;stroke-linecap:butt;stroke-linejoin:miter;stroke:rgb(100%,0%,0%);stroke-opacity:0.5;stroke-miterlimit:10;" d="M 12.494325 2.835276 L 6.826356 -2.834646 " transform="matrix(2,0,0,2,5.952756,6.169291)"/>
<path style="fill-rule:nonzero;fill:rgb(50%,50%,0%);fill-opacity:0.1;stroke-width:0.566929;stroke-linecap:butt;stroke-linejoin:miter;stroke:rgb(100%,0%,0%);stroke-opacity:0.5;stroke-miterlimit:10;" d="M 4.052919 13.231761 L 15.267763 13.231761 L 15.267763 -0.000661294 L 4.052919 -0.000661294 Z M 4.052919 13.231761 " transform="matrix(2,0,0,2,5.952756,6.169291)"/>
<path style="fill:none;stroke-width:0.566929;stroke-linecap:butt;stroke-linejoin:miter;stroke:rgb(100%,0%,0%);stroke-opacity:0.5;stroke-miterlimit:10;" d="M 4.052919 11.184886 L 9.720888 5.514964 " transform="matrix(2,0,0,2,5.952756,6.169291)"/>
<path style="fill:none;stroke-width:0.566929;stroke-linecap:butt;stroke-linejoin:miter;stroke:rgb(100%,0%,0%);stroke-opacity:0.5;stroke-miterlimit:10;" d="M 9.720888 11.184886 L 4.052919 5.514964 " transform="matrix(2,0,0,2,5.952756,6.169291)"/>
<path style="fill-rule:nonzero;fill:rgb(50%,50%,0%);fill-opacity:0.1;stroke-width:0.566929;stroke-linecap:butt;stroke-linejoin:miter;stroke:rgb(100%,0%,0%);stroke-opacity:0.5;stroke-miterlimit:10;" d="M 4.052919 13.231761 L 15.267763 13.231761 L 15.267763 -0.000661294 L 4.052919 -0.000661294 Z M 4.052919 13.231761 " transform="matrix(2,0,0,2,5.952756,6.169291)"/>
<path style="fill:none;stroke-width:0.566929;stroke-linecap:butt;stroke-linejoin:miter;stroke:rgb(100%,0%,0%);stroke-opacity:0.5;stroke-miterlimit:10;" d="M 4.052919 11.184886 L 9.720888 5.514964 " transform="matrix(2,0,0,2,5.952756,6.169291)"/>
<path style="fill:none;stroke-width:0.566929;stroke-linecap:butt;stroke-linejoin:miter;stroke:rgb(100%,0%,0%);stroke-opacity:0.5;stroke-miterlimit:10;" d="M 9.720888 11.184886 L 4.052919 5.514964 " transform="matrix(2,0,0,2,5.952756,6.169291)"/>
<path style="fill-rule:nonzero;fill:rgb(50%,50%,0%);fill-opacity:0.1;stroke-width:0.566929;stroke-linecap:butt;stroke-linejoin:miter;stroke:rgb(100%,0%,0%);stroke-opacity:0.5;stroke-miterlimit:10;" d="M 6.886903 10.397776 L 12.433778 10.397776 L 12.433778 2.835276 L 6.886903 2.835276 Z M 6.886903 10.397776 " transform="matrix(2,0,0,2,5.952756,6.169291)"/>
<path style=" stroke:none;fill-rule:nonzero;fill:rgb(0%,0%,0%);fill-opacity:1;" d="M 24.601562 18.433594 C 22.851562 18.433594 22.851562 16.433594 22.851562 15.996094 C 22.851562 15.464844 22.882812 14.808594 23.164062 14.308594 C 23.320312 14.089844 23.789062 13.527344 24.601562 13.527344 C 26.320312 13.527344 26.320312 15.496094 26.320312 15.964844 C 26.320312 16.496094 26.320312 17.152344 26.007812 17.652344 C 25.851562 17.871094 25.382812 18.433594 24.601562 18.433594 Z M 22.289062 19.214844 C 22.289062 19.152344 22.289062 18.683594 22.601562 18.277344 C 23.382812 18.839844 24.226562 18.902344 24.601562 18.902344 C 26.445312 18.902344 27.820312 17.527344 27.820312 15.996094 C 27.820312 15.246094 27.507812 14.527344 27.007812 14.058594 C 27.726562 13.371094 28.445312 13.277344 28.789062 13.277344 C 28.851562 13.277344 28.945312 13.277344 29.007812 13.308594 C 28.789062 13.371094 28.664062 13.589844 28.664062 13.839844 C 28.664062 14.183594 28.945312 14.402344 29.257812 14.402344 C 29.445312 14.402344 29.820312 14.277344 29.820312 13.808594 C 29.820312 13.464844 29.601562 12.839844 28.820312 12.839844 C 28.414062 12.839844 27.539062 12.964844 26.695312 13.777344 C 25.851562 13.121094 25.039062 13.058594 24.601562 13.058594 C 22.726562 13.058594 21.351562 14.433594 21.351562 15.964844 C 21.351562 16.839844 21.789062 17.589844 22.289062 18.027344 C 22.039062 18.308594 21.664062 18.964844 21.664062 19.683594 C 21.664062 20.308594 21.945312 21.058594 22.570312 21.464844 C 21.351562 21.777344 20.726562 22.652344 20.726562 23.433594 C 20.726562 24.871094 22.695312 25.964844 25.132812 25.964844 C 27.476562 25.964844 29.539062 24.964844 29.539062 23.402344 C 29.539062 22.714844 29.289062 21.683594 28.257812 21.121094 C 27.195312 20.589844 26.039062 20.589844 24.820312 20.589844 C 24.320312 20.589844 23.476562 20.589844 23.320312 20.558594 C 22.695312 20.464844 22.289062 19.871094 22.289062 19.214844 Z M 25.164062 25.527344 C 23.132812 25.527344 21.757812 24.496094 21.757812 23.433594 C 21.757812 22.527344 22.507812 21.777344 23.382812 21.746094 L 24.570312 21.746094 C 26.289062 21.746094 28.507812 21.746094 28.507812 23.433594 C 28.507812 24.527344 27.101562 25.527344 25.164062 25.527344 Z M 25.164062 25.527344 "/>
<path style="fill:none;stroke-width:0.566929;stroke-linecap:butt;stroke-linejoin:miter;stroke:rgb(100%,0%,0%);stroke-opacity:0.5;stroke-miterlimit:10;" d="M 32.787294 2.835276 L 38.457216 -2.834646 " transform="matrix(2,0,0,2,5.952756,6.169291)"/>
<path style="fill:none;stroke-width:0.566929;stroke-linecap:butt;stroke-linejoin:miter;stroke:rgb(100%,0%,0%);stroke-opacity:0.5;stroke-miterlimit:10;" d="M 38.457216 2.835276 L 32.787294 -2.834646 " transform="matrix(2,0,0,2,5.952756,6.169291)"/>
<path style="fill-rule:nonzero;fill:rgb(50%,50%,0%);fill-opacity:0.1;stroke-width:0.566929;stroke-linecap:butt;stroke-linejoin:miter;stroke:rgb(100%,0%,0%);stroke-opacity:0.5;stroke-miterlimit:10;" d="M 27.066591 13.700511 L 44.177919 13.700511 L 44.177919 -0.000661294 L 27.066591 -0.000661294 Z M 27.066591 13.700511 " transform="matrix(2,0,0,2,5.952756,6.169291)"/>
<path style="fill:none;stroke-width:0.566929;stroke-linecap:butt;stroke-linejoin:miter;stroke:rgb(100%,0%,0%);stroke-opacity:0.5;stroke-miterlimit:10;" d="M 27.066591 13.591136 L 32.736513 7.921214 " transform="matrix(2,0,0,2,5.952756,6.169291)"/>
<path style="fill:none;stroke-width:0.566929;stroke-linecap:butt;stroke-linejoin:miter;stroke:rgb(100%,0%,0%);stroke-opacity:0.5;stroke-miterlimit:10;" d="M 32.736513 13.591136 L 27.066591 7.921214 " transform="matrix(2,0,0,2,5.952756,6.169291)"/>
<path style="fill-rule:nonzero;fill:rgb(50%,50%,0%);fill-opacity:0.1;stroke-width:0.566929;stroke-linecap:butt;stroke-linejoin:miter;stroke:rgb(100%,0%,0%);stroke-opacity:0.5;stroke-miterlimit:10;" d="M 27.066591 13.700511 L 44.177919 13.700511 L 44.177919 -0.000661294 L 27.066591 -0.000661294 Z M 27.066591 13.700511 " transform="matrix(2,0,0,2,5.952756,6.169291)"/>
<path style="fill:none;stroke-width:0.566929;stroke-linecap:butt;stroke-linejoin:miter;stroke:rgb(100%,0%,0%);stroke-opacity:0.5;stroke-miterlimit:10;" d="M 27.066591 13.591136 L 32.736513 7.921214 " transform="matrix(2,0,0,2,5.952756,6.169291)"/>
<path style="fill:none;stroke-width:0.566929;stroke-linecap:butt;stroke-linejoin:miter;stroke:rgb(100%,0%,0%);stroke-opacity:0.5;stroke-miterlimit:10;" d="M 32.736513 13.591136 L 27.066591 7.921214 " transform="matrix(2,0,0,2,5.952756,6.169291)"/>
<path style="fill-rule:nonzero;fill:rgb(50%,50%,0%);fill-opacity:0.1;stroke-width:0.566929;stroke-linecap:butt;stroke-linejoin:miter;stroke:rgb(100%,0%,0%);stroke-opacity:0.5;stroke-miterlimit:10;" d="M 29.902528 10.866526 L 41.343935 10.866526 L 41.343935 2.835276 L 29.902528 2.835276 Z M 29.902528 10.866526 " transform="matrix(2,0,0,2,5.952756,6.169291)"/>
<path style=" stroke:none;fill-rule:nonzero;fill:rgb(0%,0%,0%);fill-opacity:1;" d="M 69.632812 19.152344 L 69.632812 12.839844 L 66.757812 13.058594 L 66.757812 13.683594 C 68.164062 13.683594 68.320312 13.808594 68.320312 14.808594 L 68.320312 26.683594 L 68.820312 26.683594 C 68.820312 26.652344 68.976562 26.371094 69.539062 25.433594 C 69.820312 25.902344 70.664062 26.902344 72.132812 26.902344 C 74.507812 26.902344 76.570312 24.933594 76.570312 22.371094 C 76.570312 19.839844 74.632812 17.871094 72.351562 17.871094 C 70.789062 17.871094 69.945312 18.808594 69.632812 19.152344 Z M 69.695312 24.402344 L 69.695312 20.308594 C 69.695312 19.933594 69.695312 19.902344 69.914062 19.589844 C 70.695312 18.464844 71.789062 18.308594 72.257812 18.308594 C 73.164062 18.308594 73.882812 18.839844 74.351562 19.589844 C 74.882812 20.402344 74.914062 21.527344 74.914062 22.371094 C 74.914062 23.089844 74.882812 24.277344 74.320312 25.183594 C 73.882812 25.808594 73.132812 26.464844 72.070312 26.464844 C 71.164062 26.464844 70.445312 25.996094 69.976562 25.246094 C 69.695312 24.839844 69.695312 24.777344 69.695312 24.402344 Z M 69.695312 24.402344 "/>
<path style=" stroke:none;fill-rule:nonzero;fill:rgb(0%,0%,0%);fill-opacity:1;" d="M 80.703125 19.152344 L 80.703125 12.839844 L 77.828125 13.058594 L 77.828125 13.683594 C 79.234375 13.683594 79.390625 13.808594 79.390625 14.808594 L 79.390625 26.683594 L 79.890625 26.683594 C 79.890625 26.652344 80.046875 26.371094 80.609375 25.433594 C 80.890625 25.902344 81.734375 26.902344 83.203125 26.902344 C 85.578125 26.902344 87.640625 24.933594 87.640625 22.371094 C 87.640625 19.839844 85.703125 17.871094 83.421875 17.871094 C 81.859375 17.871094 81.015625 18.808594 80.703125 19.152344 Z M 80.765625 24.402344 L 80.765625 20.308594 C 80.765625 19.933594 80.765625 19.902344 80.984375 19.589844 C 81.765625 18.464844 82.859375 18.308594 83.328125 18.308594 C 84.234375 18.308594 84.953125 18.839844 85.421875 19.589844 C 85.953125 20.402344 85.984375 21.527344 85.984375 22.371094 C 85.984375 23.089844 85.953125 24.277344 85.390625 25.183594 C 84.953125 25.808594 84.203125 26.464844 83.140625 26.464844 C 82.234375 26.464844 81.515625 25.996094 81.046875 25.246094 C 80.765625 24.839844 80.765625 24.777344 80.765625 24.402344 Z M 80.765625 24.402344 "/>
<path style="fill:none;stroke-width:0.566929;stroke-linecap:butt;stroke-linejoin:miter;stroke:rgb(100%,0%,0%);stroke-opacity:0.5;stroke-miterlimit:10;" d="M 68.07831 2.835276 L 73.746278 -2.834646 " transform="matrix(2,0,0,2,5.952756,6.169291)"/>
<path style="fill:none;stroke-width:0.566929;stroke-linecap:butt;stroke-linejoin:miter;stroke:rgb(100%,0%,0%);stroke-opacity:0.5;stroke-miterlimit:10;" d="M 73.746278 2.835276 L 68.07831 -2.834646 " transform="matrix(2,0,0,2,5.952756,6.169291)"/>
<path style="fill-rule:nonzero;fill:rgb(50%,50%,0%);fill-opacity:0.1;stroke-width:0.566929;stroke-linecap:butt;stroke-linejoin:miter;stroke:rgb(100%,0%,0%);stroke-opacity:0.5;stroke-miterlimit:10;" d="M 60.32245 13.231761 L 81.502138 13.231761 L 81.502138 -0.000661294 L 60.32245 -0.000661294 Z M 60.32245 13.231761 " transform="matrix(2,0,0,2,5.952756,6.169291)"/>
<path style="fill:none;stroke-width:0.566929;stroke-linecap:butt;stroke-linejoin:miter;stroke:rgb(100%,0%,0%);stroke-opacity:0.5;stroke-miterlimit:10;" d="M 60.32245 11.184886 L 65.992372 5.514964 " transform="matrix(2,0,0,2,5.952756,6.169291)"/>
<path style="fill:none;stroke-width:0.566929;stroke-linecap:butt;stroke-linejoin:miter;stroke:rgb(100%,0%,0%);stroke-opacity:0.5;stroke-miterlimit:10;" d="M 65.992372 11.184886 L 60.32245 5.514964 " transform="matrix(2,0,0,2,5.952756,6.169291)"/>
<path style="fill-rule:nonzero;fill:rgb(50%,50%,0%);fill-opacity:0.1;stroke-width:0.566929;stroke-linecap:butt;stroke-linejoin:miter;stroke:rgb(100%,0%,0%);stroke-opacity:0.5;stroke-miterlimit:10;" d="M 60.32245 13.231761 L 81.502138 13.231761 L 81.502138 -0.000661294 L 60.32245 -0.000661294 Z M 60.32245 13.231761 " transform="matrix(2,0,0,2,5.952756,6.169291)"/>
<path style="fill:none;stroke-width:0.566929;stroke-linecap:butt;stroke-linejoin:miter;stroke:rgb(100%,0%,0%);stroke-opacity:0.5;stroke-miterlimit:10;" d="M 60.32245 11.184886 L 65.992372 5.514964 " transform="matrix(2,0,0,2,5.952756,6.169291)"/>
<path style="fill:none;stroke-width:0.566929;stroke-linecap:butt;stroke-linejoin:miter;stroke:rgb(100%,0%,0%);stroke-opacity:0.5;stroke-miterlimit:10;" d="M 65.992372 11.184886 L 60.32245 5.514964 " transform="matrix(2,0,0,2,5.952756,6.169291)"/>
<path style="fill-rule:nonzero;fill:rgb(50%,50%,0%);fill-opacity:0.1;stroke-width:0.566929;stroke-linecap:butt;stroke-linejoin:miter;stroke:rgb(100%,0%,0%);stroke-opacity:0.5;stroke-miterlimit:10;" d="M 63.156435 10.397776 L 78.6662 10.397776 L 78.6662 2.835276 L 63.156435 2.835276 Z M 63.156435 10.397776 " transform="matrix(2,0,0,2,5.952756,6.169291)"/>
<path style=" stroke:none;fill-rule:nonzero;fill:rgb(0%,0%,0%);fill-opacity:1;" d="M 137.140625 18.433594 C 135.390625 18.433594 135.390625 16.433594 135.390625 15.996094 C 135.390625 15.464844 135.421875 14.808594 135.703125 14.308594 C 135.859375 14.089844 136.328125 13.527344 137.140625 13.527344 C 138.859375 13.527344 138.859375 15.496094 138.859375 15.964844 C 138.859375 16.496094 138.859375 17.152344 138.546875 17.652344 C 138.390625 17.871094 137.921875 18.433594 137.140625 18.433594 Z M 134.828125 19.214844 C 134.828125 19.152344 134.828125 18.683594 135.140625 18.277344 C 135.921875 18.839844 136.765625 18.902344 137.140625 18.902344 C 138.984375 18.902344 140.359375 17.527344 140.359375 15.996094 C 140.359375 15.246094 140.046875 14.527344 139.546875 14.058594 C 140.265625 13.371094 140.984375 13.277344 141.328125 13.277344 C 141.390625 13.277344 141.484375 13.277344 141.546875 13.308594 C 141.328125 13.371094 141.203125 13.589844 141.203125 13.839844 C 141.203125 14.183594 141.484375 14.402344 141.796875 14.402344 C 141.984375 14.402344 142.359375 14.277344 142.359375 13.808594 C 142.359375 13.464844 142.140625 12.839844 141.359375 12.839844 C 140.953125 12.839844 140.078125 12.964844 139.234375 13.777344 C 138.390625 13.121094 137.578125 13.058594 137.140625 13.058594 C 135.265625 13.058594 133.890625 14.433594 133.890625 15.964844 C 133.890625 16.839844 134.328125 17.589844 134.828125 18.027344 C 134.578125 18.308594 134.203125 18.964844 134.203125 19.683594 C 134.203125 20.308594 134.484375 21.058594 135.109375 21.464844 C 133.890625 21.777344 133.265625 22.652344 133.265625 23.433594 C 133.265625 24.871094 135.234375 25.964844 137.671875 25.964844 C 140.015625 25.964844 142.078125 24.964844 142.078125 23.402344 C 142.078125 22.714844 141.828125 21.683594 140.796875 21.121094 C 139.734375 20.589844 138.578125 20.589844 137.359375 20.589844 C 136.859375 20.589844 136.015625 20.589844 135.859375 20.558594 C 135.234375 20.464844 134.828125 19.871094 134.828125 19.214844 Z M 137.703125 25.527344 C 135.671875 25.527344 134.296875 24.496094 134.296875 23.433594 C 134.296875 22.527344 135.046875 21.777344 135.921875 21.746094 L 137.109375 21.746094 C 138.828125 21.746094 141.046875 21.746094 141.046875 23.433594 C 141.046875 24.527344 139.640625 25.527344 137.703125 25.527344 Z M 137.703125 25.527344 "/>
<path style=" stroke:none;fill-rule:nonzero;fill:rgb(0%,0%,0%);fill-opacity:1;" d="M 147.105469 18.433594 C 145.355469 18.433594 145.355469 16.433594 145.355469 15.996094 C 145.355469 15.464844 145.386719 14.808594 145.667969 14.308594 C 145.824219 14.089844 146.292969 13.527344 147.105469 13.527344 C 148.824219 13.527344 148.824219 15.496094 148.824219 15.964844 C 148.824219 16.496094 148.824219 17.152344 148.511719 17.652344 C 148.355469 17.871094 147.886719 18.433594 147.105469 18.433594 Z M 144.792969 19.214844 C 144.792969 19.152344 144.792969 18.683594 145.105469 18.277344 C 145.886719 18.839844 146.730469 18.902344 147.105469 18.902344 C 148.949219 18.902344 150.324219 17.527344 150.324219 15.996094 C 150.324219 15.246094 150.011719 14.527344 149.511719 14.058594 C 150.230469 13.371094 150.949219 13.277344 151.292969 13.277344 C 151.355469 13.277344 151.449219 13.277344 151.511719 13.308594 C 151.292969 13.371094 151.167969 13.589844 151.167969 13.839844 C 151.167969 14.183594 151.449219 14.402344 151.761719 14.402344 C 151.949219 14.402344 152.324219 14.277344 152.324219 13.808594 C 152.324219 13.464844 152.105469 12.839844 151.324219 12.839844 C 150.917969 12.839844 150.042969 12.964844 149.199219 13.777344 C 148.355469 13.121094 147.542969 13.058594 147.105469 13.058594 C 145.230469 13.058594 143.855469 14.433594 143.855469 15.964844 C 143.855469 16.839844 144.292969 17.589844 144.792969 18.027344 C 144.542969 18.308594 144.167969 18.964844 144.167969 19.683594 C 144.167969 20.308594 144.449219 21.058594 145.074219 21.464844 C 143.855469 21.777344 143.230469 22.652344 143.230469 23.433594 C 143.230469 24.871094 145.199219 25.964844 147.636719 25.964844 C 149.980469 25.964844 152.042969 24.964844 152.042969 23.402344 C 152.042969 22.714844 151.792969 21.683594 150.761719 21.121094 C 149.699219 20.589844 148.542969 20.589844 147.324219 20.589844 C 146.824219 20.589844 145.980469 20.589844 145.824219 20.558594 C 145.199219 20.464844 144.792969 19.871094 144.792969 19.214844 Z M 147.667969 25.527344 C 145.636719 25.527344 144.261719 24.496094 144.261719 23.433594 C 144.261719 22.527344 145.011719 21.777344 145.886719 21.746094 L 147.074219 21.746094 C 148.792969 21.746094 151.011719 21.746094 151.011719 23.433594 C 151.011719 24.527344 149.605469 25.527344 147.667969 25.527344 Z M 147.667969 25.527344 "/>
<path style=" stroke:none;fill-rule:nonzero;fill:rgb(0%,0%,0%);fill-opacity:1;" d="M 157.066406 18.433594 C 155.316406 18.433594 155.316406 16.433594 155.316406 15.996094 C 155.316406 15.464844 155.347656 14.808594 155.628906 14.308594 C 155.785156 14.089844 156.253906 13.527344 157.066406 13.527344 C 158.785156 13.527344 158.785156 15.496094 158.785156 15.964844 C 158.785156 16.496094 158.785156 17.152344 158.472656 17.652344 C 158.316406 17.871094 157.847656 18.433594 157.066406 18.433594 Z M 154.753906 19.214844 C 154.753906 19.152344 154.753906 18.683594 155.066406 18.277344 C 155.847656 18.839844 156.691406 18.902344 157.066406 18.902344 C 158.910156 18.902344 160.285156 17.527344 160.285156 15.996094 C 160.285156 15.246094 159.972656 14.527344 159.472656 14.058594 C 160.191406 13.371094 160.910156 13.277344 161.253906 13.277344 C 161.316406 13.277344 161.410156 13.277344 161.472656 13.308594 C 161.253906 13.371094 161.128906 13.589844 161.128906 13.839844 C 161.128906 14.183594 161.410156 14.402344 161.722656 14.402344 C 161.910156 14.402344 162.285156 14.277344 162.285156 13.808594 C 162.285156 13.464844 162.066406 12.839844 161.285156 12.839844 C 160.878906 12.839844 160.003906 12.964844 159.160156 13.777344 C 158.316406 13.121094 157.503906 13.058594 157.066406 13.058594 C 155.191406 13.058594 153.816406 14.433594 153.816406 15.964844 C 153.816406 16.839844 154.253906 17.589844 154.753906 18.027344 C 154.503906 18.308594 154.128906 18.964844 154.128906 19.683594 C 154.128906 20.308594 154.410156 21.058594 155.035156 21.464844 C 153.816406 21.777344 153.191406 22.652344 153.191406 23.433594 C 153.191406 24.871094 155.160156 25.964844 157.597656 25.964844 C 159.941406 25.964844 162.003906 24.964844 162.003906 23.402344 C 162.003906 22.714844 161.753906 21.683594 160.722656 21.121094 C 159.660156 20.589844 158.503906 20.589844 157.285156 20.589844 C 156.785156 20.589844 155.941406 20.589844 155.785156 20.558594 C 155.160156 20.464844 154.753906 19.871094 154.753906 19.214844 Z M 157.628906 25.527344 C 155.597656 25.527344 154.222656 24.496094 154.222656 23.433594 C 154.222656 22.527344 154.972656 21.777344 155.847656 21.746094 L 157.035156 21.746094 C 158.753906 21.746094 160.972656 21.746094 160.972656 23.433594 C 160.972656 24.527344 159.566406 25.527344 157.628906 25.527344 Z M 157.628906 25.527344 "/>
<path style="fill:none;stroke-width:0.566929;stroke-linecap:butt;stroke-linejoin:miter;stroke:rgb(100%,0%,0%);stroke-opacity:0.5;stroke-miterlimit:10;" d="M 87.064638 2.835276 L 92.73456 -2.834646 " transform="matrix(2,0,0,2,5.952756,6.169291)"/>
<path style="fill:none;stroke-width:0.566929;stroke-linecap:butt;stroke-linejoin:miter;stroke:rgb(100%,0%,0%);stroke-opacity:0.5;stroke-miterlimit:10;" d="M 92.73456 2.835276 L 87.064638 -2.834646 " transform="matrix(2,0,0,2,5.952756,6.169291)"/>
<path style="fill:none;stroke-width:0.566929;stroke-linecap:butt;stroke-linejoin:miter;stroke:rgb(100%,0%,0%);stroke-opacity:0.5;stroke-miterlimit:10;" d="M 89.900575 28.346995 L 89.900575 -0.000661294 Z M 89.900575 28.346995 " transform="matrix(2,0,0,2,5.952756,6.169291)"/>
<path style="fill:none;stroke-width:0.566929;stroke-linecap:butt;stroke-linejoin:miter;stroke:rgb(100%,0%,0%);stroke-opacity:0.5;stroke-miterlimit:10;" d="M 6.826356 31.180979 L 12.494325 25.511057 " transform="matrix(2,0,0,2,5.952756,6.169291)"/>
<path style="fill:none;stroke-width:0.566929;stroke-linecap:butt;stroke-linejoin:miter;stroke:rgb(100%,0%,0%);stroke-opacity:0.5;stroke-miterlimit:10;" d="M 12.494325 31.180979 L 6.826356 25.511057 " transform="matrix(2,0,0,2,5.952756,6.169291)"/>
<path style="fill-rule:nonzero;fill:rgb(50%,50%,0%);fill-opacity:0.1;stroke-width:0.566929;stroke-linecap:butt;stroke-linejoin:miter;stroke:rgb(100%,0%,0%);stroke-opacity:0.5;stroke-miterlimit:10;" d="M 2.213075 39.593089 L 17.107606 39.593089 L 17.107606 28.346995 L 2.213075 28.346995 Z M 2.213075 39.593089 " transform="matrix(2,0,0,2,5.952756,6.169291)"/>
<path style="fill:none;stroke-width:0.566929;stroke-linecap:butt;stroke-linejoin:miter;stroke:rgb(100%,0%,0%);stroke-opacity:0.5;stroke-miterlimit:10;" d="M 2.213075 39.483714 L 7.882997 33.815745 " transform="matrix(2,0,0,2,5.952756,6.169291)"/>
<path style="fill:none;stroke-width:0.566929;stroke-linecap:butt;stroke-linejoin:miter;stroke:rgb(100%,0%,0%);stroke-opacity:0.5;stroke-miterlimit:10;" d="M 7.882997 39.483714 L 2.213075 33.815745 " transform="matrix(2,0,0,2,5.952756,6.169291)"/>
<path style="fill-rule:nonzero;fill:rgb(50%,50%,0%);fill-opacity:0.1;stroke-width:0.566929;stroke-linecap:butt;stroke-linejoin:miter;stroke:rgb(100%,0%,0%);stroke-opacity:0.5;stroke-miterlimit:10;" d="M 2.213075 39.593089 L 17.107606 39.593089 L 17.107606 28.346995 L 2.213075 28.346995 Z M 2.213075 39.593089 " transform="matrix(2,0,0,2,5.952756,6.169291)"/>
<path style="fill:none;stroke-width:0.566929;stroke-linecap:butt;stroke-linejoin:miter;stroke:rgb(100%,0%,0%);stroke-opacity:0.5;stroke-miterlimit:10;" d="M 2.213075 39.483714 L 7.882997 33.815745 " transform="matrix(2,0,0,2,5.952756,6.169291)"/>
<path style="fill:none;stroke-width:0.566929;stroke-linecap:butt;stroke-linejoin:miter;stroke:rgb(100%,0%,0%);stroke-opacity:0.5;stroke-miterlimit:10;" d="M 7.882997 39.483714 L 2.213075 33.815745 " transform="matrix(2,0,0,2,5.952756,6.169291)"/>
<path style="fill-rule:nonzero;fill:rgb(50%,50%,0%);fill-opacity:0.1;stroke-width:0.566929;stroke-linecap:butt;stroke-linejoin:miter;stroke:rgb(100%,0%,0%);stroke-opacity:0.5;stroke-miterlimit:10;" d="M 5.049013 36.759104 L 14.271669 36.759104 L 14.271669 31.180979 L 5.049013 31.180979 Z M 5.049013 36.759104 " transform="matrix(2,0,0,2,5.952756,6.169291)"/>
<path style=" stroke:none;fill-rule:nonzero;fill:rgb(0%,0%,0%);fill-opacity:1;" d="M 18.707031 74.125 C 18.707031 70.875 20.332031 70.03125 21.394531 70.03125 C 21.582031 70.03125 22.832031 70.0625 23.519531 70.78125 C 22.707031 70.84375 22.582031 71.4375 22.582031 71.6875 C 22.582031 72.21875 22.957031 72.59375 23.488281 72.59375 C 24.019531 72.59375 24.425781 72.28125 24.425781 71.65625 C 24.425781 70.3125 22.894531 69.53125 21.363281 69.53125 C 18.863281 69.53125 17.050781 71.6875 17.050781 74.15625 C 17.050781 76.71875 19.019531 78.6875 21.332031 78.6875 C 23.988281 78.6875 24.644531 76.28125 24.644531 76.09375 C 24.644531 75.90625 24.425781 75.90625 24.363281 75.90625 C 24.207031 75.90625 24.144531 75.96875 24.113281 76.09375 C 23.550781 77.9375 22.238281 78.1875 21.519531 78.1875 C 20.457031 78.1875 18.707031 77.34375 18.707031 74.125 Z M 18.707031 74.125 "/>
<path style=" stroke:none;fill-rule:nonzero;fill:rgb(0%,0%,0%);fill-opacity:1;" d="M 27.558594 74.125 C 27.558594 70.875 29.183594 70.03125 30.246094 70.03125 C 30.433594 70.03125 31.683594 70.0625 32.371094 70.78125 C 31.558594 70.84375 31.433594 71.4375 31.433594 71.6875 C 31.433594 72.21875 31.808594 72.59375 32.339844 72.59375 C 32.871094 72.59375 33.277344 72.28125 33.277344 71.65625 C 33.277344 70.3125 31.746094 69.53125 30.214844 69.53125 C 27.714844 69.53125 25.902344 71.6875 25.902344 74.15625 C 25.902344 76.71875 27.871094 78.6875 30.183594 78.6875 C 32.839844 78.6875 33.496094 76.28125 33.496094 76.09375 C 33.496094 75.90625 33.277344 75.90625 33.214844 75.90625 C 33.058594 75.90625 32.996094 75.96875 32.964844 76.09375 C 32.402344 77.9375 31.089844 78.1875 30.371094 78.1875 C 29.308594 78.1875 27.558594 77.34375 27.558594 74.125 Z M 27.558594 74.125 "/>
<path style="fill:none;stroke-width:0.566929;stroke-linecap:butt;stroke-linejoin:miter;stroke:rgb(100%,0%,0%);stroke-opacity:0.5;stroke-miterlimit:10;" d="M 32.787294 31.180979 L 38.457216 25.511057 " transform="matrix(2,0,0,2,5.952756,6.169291)"/>
<path style="fill:none;stroke-width:0.566929;stroke-linecap:butt;stroke-linejoin:miter;stroke:rgb(100%,0%,0%);stroke-opacity:0.5;stroke-miterlimit:10;" d="M 38.457216 31.180979 L 32.787294 25.511057 " transform="matrix(2,0,0,2,5.952756,6.169291)"/>
<path style="fill-rule:nonzero;fill:rgb(50%,50%,0%);fill-opacity:0.1;stroke-width:0.566929;stroke-linecap:butt;stroke-linejoin:miter;stroke:rgb(100%,0%,0%);stroke-opacity:0.5;stroke-miterlimit:10;" d="M 21.531435 42.046214 L 49.713075 42.046214 L 49.713075 28.346995 L 21.531435 28.346995 Z M 21.531435 42.046214 " transform="matrix(2,0,0,2,5.952756,6.169291)"/>
<path style="fill:none;stroke-width:0.566929;stroke-linecap:butt;stroke-linejoin:miter;stroke:rgb(100%,0%,0%);stroke-opacity:0.5;stroke-miterlimit:10;" d="M 21.531435 41.936839 L 27.201356 36.26887 " transform="matrix(2,0,0,2,5.952756,6.169291)"/>
<path style="fill:none;stroke-width:0.566929;stroke-linecap:butt;stroke-linejoin:miter;stroke:rgb(100%,0%,0%);stroke-opacity:0.5;stroke-miterlimit:10;" d="M 27.201356 41.936839 L 21.531435 36.26887 " transform="matrix(2,0,0,2,5.952756,6.169291)"/>
<path style="fill-rule:nonzero;fill:rgb(50%,50%,0%);fill-opacity:0.1;stroke-width:0.566929;stroke-linecap:butt;stroke-linejoin:miter;stroke:rgb(100%,0%,0%);stroke-opacity:0.5;stroke-miterlimit:10;" d="M 21.531435 42.046214 L 49.713075 42.046214 L 49.713075 28.346995 L 21.531435 28.346995 Z M 21.531435 42.046214 " transform="matrix(2,0,0,2,5.952756,6.169291)"/>
<path style="fill:none;stroke-width:0.566929;stroke-linecap:butt;stroke-linejoin:miter;stroke:rgb(100%,0%,0%);stroke-opacity:0.5;stroke-miterlimit:10;" d="M 21.531435 41.936839 L 27.201356 36.26887 " transform="matrix(2,0,0,2,5.952756,6.169291)"/>
<path style="fill:none;stroke-width:0.566929;stroke-linecap:butt;stroke-linejoin:miter;stroke:rgb(100%,0%,0%);stroke-opacity:0.5;stroke-miterlimit:10;" d="M 27.201356 41.936839 L 21.531435 36.26887 " transform="matrix(2,0,0,2,5.952756,6.169291)"/>
<path style="fill-rule:nonzero;fill:rgb(50%,50%,0%);fill-opacity:0.1;stroke-width:0.566929;stroke-linecap:butt;stroke-linejoin:miter;stroke:rgb(100%,0%,0%);stroke-opacity:0.5;stroke-miterlimit:10;" d="M 24.367372 39.212229 L 46.879091 39.212229 L 46.879091 31.180979 L 24.367372 31.180979 Z M 24.367372 39.212229 " transform="matrix(2,0,0,2,5.952756,6.169291)"/>
<path style=" stroke:none;fill-rule:nonzero;fill:rgb(0%,0%,0%);fill-opacity:1;" d="M 58.5625 75.84375 L 58.5625 69.53125 L 55.6875 69.75 L 55.6875 70.375 C 57.09375 70.375 57.25 70.5 57.25 71.5 L 57.25 83.375 L 57.75 83.375 C 57.75 83.34375 57.90625 83.0625 58.46875 82.125 C 58.75 82.59375 59.59375 83.59375 61.0625 83.59375 C 63.4375 83.59375 65.5 81.625 65.5 79.0625 C 65.5 76.53125 63.5625 74.5625 61.28125 74.5625 C 59.71875 74.5625 58.875 75.5 58.5625 75.84375 Z M 58.625 81.09375 L 58.625 77 C 58.625 76.625 58.625 76.59375 58.84375 76.28125 C 59.625 75.15625 60.71875 75 61.1875 75 C 62.09375 75 62.8125 75.53125 63.28125 76.28125 C 63.8125 77.09375 63.84375 78.21875 63.84375 79.0625 C 63.84375 79.78125 63.8125 80.96875 63.25 81.875 C 62.8125 82.5 62.0625 83.15625 61 83.15625 C 60.09375 83.15625 59.375 82.6875 58.90625 81.9375 C 58.625 81.53125 58.625 81.46875 58.625 81.09375 Z M 58.625 81.09375 "/>
<path style=" stroke:none;fill-rule:nonzero;fill:rgb(0%,0%,0%);fill-opacity:1;" d="M 69.632812 75.84375 L 69.632812 69.53125 L 66.757812 69.75 L 66.757812 70.375 C 68.164062 70.375 68.320312 70.5 68.320312 71.5 L 68.320312 83.375 L 68.820312 83.375 C 68.820312 83.34375 68.976562 83.0625 69.539062 82.125 C 69.820312 82.59375 70.664062 83.59375 72.132812 83.59375 C 74.507812 83.59375 76.570312 81.625 76.570312 79.0625 C 76.570312 76.53125 74.632812 74.5625 72.351562 74.5625 C 70.789062 74.5625 69.945312 75.5 69.632812 75.84375 Z M 69.695312 81.09375 L 69.695312 77 C 69.695312 76.625 69.695312 76.59375 69.914062 76.28125 C 70.695312 75.15625 71.789062 75 72.257812 75 C 73.164062 75 73.882812 75.53125 74.351562 76.28125 C 74.882812 77.09375 74.914062 78.21875 74.914062 79.0625 C 74.914062 79.78125 74.882812 80.96875 74.320312 81.875 C 73.882812 82.5 73.132812 83.15625 72.070312 83.15625 C 71.164062 83.15625 70.445312 82.6875 69.976562 81.9375 C 69.695312 81.53125 69.695312 81.46875 69.695312 81.09375 Z M 69.695312 81.09375 "/>
<path style=" stroke:none;fill-rule:nonzero;fill:rgb(0%,0%,0%);fill-opacity:1;" d="M 80.703125 75.84375 L 80.703125 69.53125 L 77.828125 69.75 L 77.828125 70.375 C 79.234375 70.375 79.390625 70.5 79.390625 71.5 L 79.390625 83.375 L 79.890625 83.375 C 79.890625 83.34375 80.046875 83.0625 80.609375 82.125 C 80.890625 82.59375 81.734375 83.59375 83.203125 83.59375 C 85.578125 83.59375 87.640625 81.625 87.640625 79.0625 C 87.640625 76.53125 85.703125 74.5625 83.421875 74.5625 C 81.859375 74.5625 81.015625 75.5 80.703125 75.84375 Z M 80.765625 81.09375 L 80.765625 77 C 80.765625 76.625 80.765625 76.59375 80.984375 76.28125 C 81.765625 75.15625 82.859375 75 83.328125 75 C 84.234375 75 84.953125 75.53125 85.421875 76.28125 C 85.953125 77.09375 85.984375 78.21875 85.984375 79.0625 C 85.984375 79.78125 85.953125 80.96875 85.390625 81.875 C 84.953125 82.5 84.203125 83.15625 83.140625 83.15625 C 82.234375 83.15625 81.515625 82.6875 81.046875 81.9375 C 80.765625 81.53125 80.765625 81.46875 80.765625 81.09375 Z M 80.765625 81.09375 "/>
<path style=" stroke:none;fill-rule:nonzero;fill:rgb(0%,0%,0%);fill-opacity:1;" d="M 91.773438 75.84375 L 91.773438 69.53125 L 88.898438 69.75 L 88.898438 70.375 C 90.304688 70.375 90.460938 70.5 90.460938 71.5 L 90.460938 83.375 L 90.960938 83.375 C 90.960938 83.34375 91.117188 83.0625 91.679688 82.125 C 91.960938 82.59375 92.804688 83.59375 94.273438 83.59375 C 96.648438 83.59375 98.710938 81.625 98.710938 79.0625 C 98.710938 76.53125 96.773438 74.5625 94.492188 74.5625 C 92.929688 74.5625 92.085938 75.5 91.773438 75.84375 Z M 91.835938 81.09375 L 91.835938 77 C 91.835938 76.625 91.835938 76.59375 92.054688 76.28125 C 92.835938 75.15625 93.929688 75 94.398438 75 C 95.304688 75 96.023438 75.53125 96.492188 76.28125 C 97.023438 77.09375 97.054688 78.21875 97.054688 79.0625 C 97.054688 79.78125 97.023438 80.96875 96.460938 81.875 C 96.023438 82.5 95.273438 83.15625 94.210938 83.15625 C 93.304688 83.15625 92.585938 82.6875 92.117188 81.9375 C 91.835938 81.53125 91.835938 81.46875 91.835938 81.09375 Z M 91.835938 81.09375 "/>
<path style="fill:none;stroke-width:0.566929;stroke-linecap:butt;stroke-linejoin:miter;stroke:rgb(100%,0%,0%);stroke-opacity:0.5;stroke-miterlimit:10;" d="M 68.07831 31.180979 L 73.746278 25.511057 " transform="matrix(2,0,0,2,5.952756,6.169291)"/>
<path style="fill:none;stroke-width:0.566929;stroke-linecap:butt;stroke-linejoin:miter;stroke:rgb(100%,0%,0%);stroke-opacity:0.5;stroke-miterlimit:10;" d="M 73.746278 31.180979 L 68.07831 25.511057 " transform="matrix(2,0,0,2,5.952756,6.169291)"/>
<path style="fill-rule:nonzero;fill:rgb(50%,50%,0%);fill-opacity:0.1;stroke-width:0.566929;stroke-linecap:butt;stroke-linejoin:miter;stroke:rgb(100%,0%,0%);stroke-opacity:0.5;stroke-miterlimit:10;" d="M 51.924013 39.311839 L 89.900575 39.311839 L 89.900575 28.346995 L 51.924013 28.346995 Z M 51.924013 39.311839 " transform="matrix(2,0,0,2,5.952756,6.169291)"/>
<path style="fill:none;stroke-width:0.566929;stroke-linecap:butt;stroke-linejoin:miter;stroke:rgb(100%,0%,0%);stroke-opacity:0.5;stroke-miterlimit:10;" d="M 51.924013 39.311839 L 57.593935 33.64387 " transform="matrix(2,0,0,2,5.952756,6.169291)"/>
<path style="fill:none;stroke-width:0.566929;stroke-linecap:butt;stroke-linejoin:miter;stroke:rgb(100%,0%,0%);stroke-opacity:0.5;stroke-miterlimit:10;" d="M 57.593935 39.311839 L 51.924013 33.64387 " transform="matrix(2,0,0,2,5.952756,6.169291)"/>
<path style="fill-rule:nonzero;fill:rgb(50%,50%,0%);fill-opacity:0.1;stroke-width:0.566929;stroke-linecap:butt;stroke-linejoin:miter;stroke:rgb(100%,0%,0%);stroke-opacity:0.5;stroke-miterlimit:10;" d="M 51.924013 39.311839 L 89.900575 39.311839 L 89.900575 28.346995 L 51.924013 28.346995 Z M 51.924013 39.311839 " transform="matrix(2,0,0,2,5.952756,6.169291)"/>
<path style="fill:none;stroke-width:0.566929;stroke-linecap:butt;stroke-linejoin:miter;stroke:rgb(100%,0%,0%);stroke-opacity:0.5;stroke-miterlimit:10;" d="M 51.924013 39.311839 L 57.593935 33.64387 " transform="matrix(2,0,0,2,5.952756,6.169291)"/>
<path style="fill:none;stroke-width:0.566929;stroke-linecap:butt;stroke-linejoin:miter;stroke:rgb(100%,0%,0%);stroke-opacity:0.5;stroke-miterlimit:10;" d="M 57.593935 39.311839 L 51.924013 33.64387 " transform="matrix(2,0,0,2,5.952756,6.169291)"/>
<path style="fill-rule:nonzero;fill:rgb(50%,50%,0%);fill-opacity:0.1;stroke-width:0.566929;stroke-linecap:butt;stroke-linejoin:miter;stroke:rgb(100%,0%,0%);stroke-opacity:0.5;stroke-miterlimit:10;" d="M 54.757997 36.477854 L 87.064638 36.477854 L 87.064638 31.180979 L 54.757997 31.180979 Z M 54.757997 36.477854 " transform="matrix(2,0,0,2,5.952756,6.169291)"/>
<path style=" stroke:none;fill-rule:nonzero;fill:rgb(0%,0%,0%);fill-opacity:1;" d="M 121.9375 73.4375 C 122.53125 72.6875 123.28125 71.71875 123.78125 71.1875 C 124.40625 70.46875 125.21875 70.15625 126.15625 70.15625 L 126.15625 69.53125 C 125.625 69.5625 125.03125 69.59375 124.5 69.59375 C 123.90625 69.59375 122.84375 69.5625 122.59375 69.53125 L 122.59375 70.15625 C 123.03125 70.1875 123.1875 70.4375 123.1875 70.78125 C 123.1875 71.09375 122.96875 71.34375 122.875 71.46875 L 121.65625 73.03125 L 120.09375 71 C 119.90625 70.8125 119.90625 70.78125 119.90625 70.65625 C 119.90625 70.34375 120.21875 70.15625 120.59375 70.15625 L 120.59375 69.53125 C 120.09375 69.5625 118.78125 69.59375 118.4375 69.59375 C 118.03125 69.59375 117.09375 69.5625 116.5625 69.53125 L 116.5625 70.15625 C 117.96875 70.15625 117.96875 70.15625 118.90625 71.375 L 120.875 73.9375 L 119 76.3125 C 118.0625 77.46875 116.875 77.5 116.46875 77.5 L 116.46875 78.125 C 116.96875 78.09375 117.59375 78.0625 118.125 78.0625 C 118.6875 78.0625 119.53125 78.09375 120 78.125 L 120 77.5 C 119.5625 77.4375 119.4375 77.1875 119.4375 76.875 C 119.4375 76.4375 120 75.78125 121.21875 74.34375 L 122.75 76.34375 C 122.90625 76.5625 123.15625 76.875 123.15625 77 C 123.15625 77.1875 122.96875 77.5 122.4375 77.5 L 122.4375 78.125 C 123.03125 78.09375 124.15625 78.0625 124.59375 78.0625 C 125.125 78.0625 125.90625 78.09375 126.5 78.125 L 126.5 77.5 C 125.4375 77.5 125.0625 77.46875 124.625 76.875 Z M 121.9375 73.4375 "/>
<path style=" stroke:none;fill-rule:nonzero;fill:rgb(0%,0%,0%);fill-opacity:1;" d="M 132.457031 73.4375 C 133.050781 72.6875 133.800781 71.71875 134.300781 71.1875 C 134.925781 70.46875 135.738281 70.15625 136.675781 70.15625 L 136.675781 69.53125 C 136.144531 69.5625 135.550781 69.59375 135.019531 69.59375 C 134.425781 69.59375 133.363281 69.5625 133.113281 69.53125 L 133.113281 70.15625 C 133.550781 70.1875 133.707031 70.4375 133.707031 70.78125 C 133.707031 71.09375 133.488281 71.34375 133.394531 71.46875 L 132.175781 73.03125 L 130.613281 71 C 130.425781 70.8125 130.425781 70.78125 130.425781 70.65625 C 130.425781 70.34375 130.738281 70.15625 131.113281 70.15625 L 131.113281 69.53125 C 130.613281 69.5625 129.300781 69.59375 128.957031 69.59375 C 128.550781 69.59375 127.613281 69.5625 127.082031 69.53125 L 127.082031 70.15625 C 128.488281 70.15625 128.488281 70.15625 129.425781 71.375 L 131.394531 73.9375 L 129.519531 76.3125 C 128.582031 77.46875 127.394531 77.5 126.988281 77.5 L 126.988281 78.125 C 127.488281 78.09375 128.113281 78.0625 128.644531 78.0625 C 129.207031 78.0625 130.050781 78.09375 130.519531 78.125 L 130.519531 77.5 C 130.082031 77.4375 129.957031 77.1875 129.957031 76.875 C 129.957031 76.4375 130.519531 75.78125 131.738281 74.34375 L 133.269531 76.34375 C 133.425781 76.5625 133.675781 76.875 133.675781 77 C 133.675781 77.1875 133.488281 77.5 132.957031 77.5 L 132.957031 78.125 C 133.550781 78.09375 134.675781 78.0625 135.113281 78.0625 C 135.644531 78.0625 136.425781 78.09375 137.019531 78.125 L 137.019531 77.5 C 135.957031 77.5 135.582031 77.46875 135.144531 76.875 Z M 132.457031 73.4375 "/>
<path style=" stroke:none;fill-rule:nonzero;fill:rgb(0%,0%,0%);fill-opacity:1;" d="M 142.972656 73.4375 C 143.566406 72.6875 144.316406 71.71875 144.816406 71.1875 C 145.441406 70.46875 146.253906 70.15625 147.191406 70.15625 L 147.191406 69.53125 C 146.660156 69.5625 146.066406 69.59375 145.535156 69.59375 C 144.941406 69.59375 143.878906 69.5625 143.628906 69.53125 L 143.628906 70.15625 C 144.066406 70.1875 144.222656 70.4375 144.222656 70.78125 C 144.222656 71.09375 144.003906 71.34375 143.910156 71.46875 L 142.691406 73.03125 L 141.128906 71 C 140.941406 70.8125 140.941406 70.78125 140.941406 70.65625 C 140.941406 70.34375 141.253906 70.15625 141.628906 70.15625 L 141.628906 69.53125 C 141.128906 69.5625 139.816406 69.59375 139.472656 69.59375 C 139.066406 69.59375 138.128906 69.5625 137.597656 69.53125 L 137.597656 70.15625 C 139.003906 70.15625 139.003906 70.15625 139.941406 71.375 L 141.910156 73.9375 L 140.035156 76.3125 C 139.097656 77.46875 137.910156 77.5 137.503906 77.5 L 137.503906 78.125 C 138.003906 78.09375 138.628906 78.0625 139.160156 78.0625 C 139.722656 78.0625 140.566406 78.09375 141.035156 78.125 L 141.035156 77.5 C 140.597656 77.4375 140.472656 77.1875 140.472656 76.875 C 140.472656 76.4375 141.035156 75.78125 142.253906 74.34375 L 143.785156 76.34375 C 143.941406 76.5625 144.191406 76.875 144.191406 77 C 144.191406 77.1875 144.003906 77.5 143.472656 77.5 L 143.472656 78.125 C 144.066406 78.09375 145.191406 78.0625 145.628906 78.0625 C 146.160156 78.0625 146.941406 78.09375 147.535156 78.125 L 147.535156 77.5 C 146.472656 77.5 146.097656 77.46875 145.660156 76.875 Z M 142.972656 73.4375 "/>
<path style=" stroke:none;fill-rule:nonzero;fill:rgb(0%,0%,0%);fill-opacity:1;" d="M 153.488281 73.4375 C 154.082031 72.6875 154.832031 71.71875 155.332031 71.1875 C 155.957031 70.46875 156.769531 70.15625 157.707031 70.15625 L 157.707031 69.53125 C 157.175781 69.5625 156.582031 69.59375 156.050781 69.59375 C 155.457031 69.59375 154.394531 69.5625 154.144531 69.53125 L 154.144531 70.15625 C 154.582031 70.1875 154.738281 70.4375 154.738281 70.78125 C 154.738281 71.09375 154.519531 71.34375 154.425781 71.46875 L 153.207031 73.03125 L 151.644531 71 C 151.457031 70.8125 151.457031 70.78125 151.457031 70.65625 C 151.457031 70.34375 151.769531 70.15625 152.144531 70.15625 L 152.144531 69.53125 C 151.644531 69.5625 150.332031 69.59375 149.988281 69.59375 C 149.582031 69.59375 148.644531 69.5625 148.113281 69.53125 L 148.113281 70.15625 C 149.519531 70.15625 149.519531 70.15625 150.457031 71.375 L 152.425781 73.9375 L 150.550781 76.3125 C 149.613281 77.46875 148.425781 77.5 148.019531 77.5 L 148.019531 78.125 C 148.519531 78.09375 149.144531 78.0625 149.675781 78.0625 C 150.238281 78.0625 151.082031 78.09375 151.550781 78.125 L 151.550781 77.5 C 151.113281 77.4375 150.988281 77.1875 150.988281 76.875 C 150.988281 76.4375 151.550781 75.78125 152.769531 74.34375 L 154.300781 76.34375 C 154.457031 76.5625 154.707031 76.875 154.707031 77 C 154.707031 77.1875 154.519531 77.5 153.988281 77.5 L 153.988281 78.125 C 154.582031 78.09375 155.707031 78.0625 156.144531 78.0625 C 156.675781 78.0625 157.457031 78.09375 158.050781 78.125 L 158.050781 77.5 C 156.988281 77.5 156.613281 77.46875 156.175781 76.875 Z M 153.488281 73.4375 "/>
<path style=" stroke:none;fill-rule:nonzero;fill:rgb(0%,0%,0%);fill-opacity:1;" d="M 164.003906 73.4375 C 164.597656 72.6875 165.347656 71.71875 165.847656 71.1875 C 166.472656 70.46875 167.285156 70.15625 168.222656 70.15625 L 168.222656 69.53125 C 167.691406 69.5625 167.097656 69.59375 166.566406 69.59375 C 165.972656 69.59375 164.910156 69.5625 164.660156 69.53125 L 164.660156 70.15625 C 165.097656 70.1875 165.253906 70.4375 165.253906 70.78125 C 165.253906 71.09375 165.035156 71.34375 164.941406 71.46875 L 163.722656 73.03125 L 162.160156 71 C 161.972656 70.8125 161.972656 70.78125 161.972656 70.65625 C 161.972656 70.34375 162.285156 70.15625 162.660156 70.15625 L 162.660156 69.53125 C 162.160156 69.5625 160.847656 69.59375 160.503906 69.59375 C 160.097656 69.59375 159.160156 69.5625 158.628906 69.53125 L 158.628906 70.15625 C 160.035156 70.15625 160.035156 70.15625 160.972656 71.375 L 162.941406 73.9375 L 161.066406 76.3125 C 160.128906 77.46875 158.941406 77.5 158.535156 77.5 L 158.535156 78.125 C 159.035156 78.09375 159.660156 78.0625 160.191406 78.0625 C 160.753906 78.0625 161.597656 78.09375 162.066406 78.125 L 162.066406 77.5 C 161.628906 77.4375 161.503906 77.1875 161.503906 76.875 C 161.503906 76.4375 162.066406 75.78125 163.285156 74.34375 L 164.816406 76.34375 C 164.972656 76.5625 165.222656 76.875 165.222656 77 C 165.222656 77.1875 165.035156 77.5 164.503906 77.5 L 164.503906 78.125 C 165.097656 78.09375 166.222656 78.0625 166.660156 78.0625 C 167.191406 78.0625 167.972656 78.09375 168.566406 78.125 L 168.566406 77.5 C 167.503906 77.5 167.128906 77.46875 166.691406 76.875 Z M 164.003906 73.4375 "/>
<path style=" stroke:none;fill-rule:nonzero;fill:rgb(0%,0%,0%);fill-opacity:1;" d="M 174.519531 73.4375 C 175.113281 72.6875 175.863281 71.71875 176.363281 71.1875 C 176.988281 70.46875 177.800781 70.15625 178.738281 70.15625 L 178.738281 69.53125 C 178.207031 69.5625 177.613281 69.59375 177.082031 69.59375 C 176.488281 69.59375 175.425781 69.5625 175.175781 69.53125 L 175.175781 70.15625 C 175.613281 70.1875 175.769531 70.4375 175.769531 70.78125 C 175.769531 71.09375 175.550781 71.34375 175.457031 71.46875 L 174.238281 73.03125 L 172.675781 71 C 172.488281 70.8125 172.488281 70.78125 172.488281 70.65625 C 172.488281 70.34375 172.800781 70.15625 173.175781 70.15625 L 173.175781 69.53125 C 172.675781 69.5625 171.363281 69.59375 171.019531 69.59375 C 170.613281 69.59375 169.675781 69.5625 169.144531 69.53125 L 169.144531 70.15625 C 170.550781 70.15625 170.550781 70.15625 171.488281 71.375 L 173.457031 73.9375 L 171.582031 76.3125 C 170.644531 77.46875 169.457031 77.5 169.050781 77.5 L 169.050781 78.125 C 169.550781 78.09375 170.175781 78.0625 170.707031 78.0625 C 171.269531 78.0625 172.113281 78.09375 172.582031 78.125 L 172.582031 77.5 C 172.144531 77.4375 172.019531 77.1875 172.019531 76.875 C 172.019531 76.4375 172.582031 75.78125 173.800781 74.34375 L 175.332031 76.34375 C 175.488281 76.5625 175.738281 76.875 175.738281 77 C 175.738281 77.1875 175.550781 77.5 175.019531 77.5 L 175.019531 78.125 C 175.613281 78.09375 176.738281 78.0625 177.175781 78.0625 C 177.707031 78.0625 178.488281 78.09375 179.082031 78.125 L 179.082031 77.5 C 178.019531 77.5 177.644531 77.46875 177.207031 76.875 Z M 174.519531 73.4375 "/>
<path style="fill:none;stroke-width:0.566929;stroke-linecap:butt;stroke-linejoin:miter;stroke:rgb(100%,0%,0%);stroke-opacity:0.5;stroke-miterlimit:10;" d="M 87.064638 31.180979 L 92.73456 25.511057 " transform="matrix(2,0,0,2,5.952756,6.169291)"/>
<path style="fill:none;stroke-width:0.566929;stroke-linecap:butt;stroke-linejoin:miter;stroke:rgb(100%,0%,0%);stroke-opacity:0.5;stroke-miterlimit:10;" d="M 92.73456 31.180979 L 87.064638 25.511057 " transform="matrix(2,0,0,2,5.952756,6.169291)"/>
<path style="fill:none;stroke-width:0.566929;stroke-linecap:butt;stroke-linejoin:miter;stroke:rgb(100%,0%,0%);stroke-opacity:0.5;stroke-miterlimit:10;" d="M 89.900575 56.692698 L 89.900575 28.346995 Z M 89.900575 56.692698 " transform="matrix(2,0,0,2,5.952756,6.169291)"/>
<path style="fill:none;stroke-width:0.566929;stroke-linecap:butt;stroke-linejoin:miter;stroke:rgb(100%,0%,0%);stroke-opacity:0.5;stroke-miterlimit:10;" d="M 6.826356 59.526682 L 12.494325 53.858714 " transform="matrix(2,0,0,2,5.952756,6.169291)"/>
<path style="fill:none;stroke-width:0.566929;stroke-linecap:butt;stroke-linejoin:miter;stroke:rgb(100%,0%,0%);stroke-opacity:0.5;stroke-miterlimit:10;" d="M 12.494325 59.526682 L 6.826356 53.858714 " transform="matrix(2,0,0,2,5.952756,6.169291)"/>
<path style="fill-rule:nonzero;fill:rgb(50%,50%,0%);fill-opacity:0.1;stroke-width:0.566929;stroke-linecap:butt;stroke-linejoin:miter;stroke:rgb(100%,0%,0%);stroke-opacity:0.5;stroke-miterlimit:10;" d="M 0.000184547 67.940745 L 19.320497 67.940745 L 19.320497 56.692698 L 0.000184547 56.692698 Z M 0.000184547 67.940745 " transform="matrix(2,0,0,2,5.952756,6.169291)"/>
<path style="fill:none;stroke-width:0.566929;stroke-linecap:butt;stroke-linejoin:miter;stroke:rgb(100%,0%,0%);stroke-opacity:0.5;stroke-miterlimit:10;" d="M 0.000184547 67.83137 L 5.670106 62.161448 " transform="matrix(2,0,0,2,5.952756,6.169291)"/>
<path style="fill:none;stroke-width:0.566929;stroke-linecap:butt;stroke-linejoin:miter;stroke:rgb(100%,0%,0%);stroke-opacity:0.5;stroke-miterlimit:10;" d="M 5.670106 67.83137 L 0.000184547 62.161448 " transform="matrix(2,0,0,2,5.952756,6.169291)"/>
<path style="fill-rule:nonzero;fill:rgb(50%,50%,0%);fill-opacity:0.1;stroke-width:0.566929;stroke-linecap:butt;stroke-linejoin:miter;stroke:rgb(100%,0%,0%);stroke-opacity:0.5;stroke-miterlimit:10;" d="M 0.000184547 67.940745 L 19.320497 67.940745 L 19.320497 56.692698 L 0.000184547 56.692698 Z M 0.000184547 67.940745 " transform="matrix(2,0,0,2,5.952756,6.169291)"/>
<path style="fill:none;stroke-width:0.566929;stroke-linecap:butt;stroke-linejoin:miter;stroke:rgb(100%,0%,0%);stroke-opacity:0.5;stroke-miterlimit:10;" d="M 0.000184547 67.83137 L 5.670106 62.161448 " transform="matrix(2,0,0,2,5.952756,6.169291)"/>
<path style="fill:none;stroke-width:0.566929;stroke-linecap:butt;stroke-linejoin:miter;stroke:rgb(100%,0%,0%);stroke-opacity:0.5;stroke-miterlimit:10;" d="M 5.670106 67.83137 L 0.000184547 62.161448 " transform="matrix(2,0,0,2,5.952756,6.169291)"/>
<path style="fill-rule:nonzero;fill:rgb(50%,50%,0%);fill-opacity:0.1;stroke-width:0.566929;stroke-linecap:butt;stroke-linejoin:miter;stroke:rgb(100%,0%,0%);stroke-opacity:0.5;stroke-miterlimit:10;" d="M 2.834169 65.104807 L 16.486513 65.104807 L 16.486513 59.526682 L 2.834169 59.526682 Z M 2.834169 65.104807 " transform="matrix(2,0,0,2,5.952756,6.169291)"/>
<path style=" stroke:none;fill-rule:nonzero;fill:rgb(0%,0%,0%);fill-opacity:1;" d="M 14.277344 130.816406 C 14.277344 127.566406 15.902344 126.722656 16.964844 126.722656 C 17.152344 126.722656 18.402344 126.753906 19.089844 127.472656 C 18.277344 127.535156 18.152344 128.128906 18.152344 128.378906 C 18.152344 128.910156 18.527344 129.285156 19.058594 129.285156 C 19.589844 129.285156 19.996094 128.972656 19.996094 128.347656 C 19.996094 127.003906 18.464844 126.222656 16.933594 126.222656 C 14.433594 126.222656 12.621094 128.378906 12.621094 130.847656 C 12.621094 133.410156 14.589844 135.378906 16.902344 135.378906 C 19.558594 135.378906 20.214844 132.972656 20.214844 132.785156 C 20.214844 132.597656 19.996094 132.597656 19.933594 132.597656 C 19.777344 132.597656 19.714844 132.660156 19.683594 132.785156 C 19.121094 134.628906 17.808594 134.878906 17.089844 134.878906 C 16.027344 134.878906 14.277344 134.035156 14.277344 130.816406 Z M 14.277344 130.816406 "/>
<path style=" stroke:none;fill-rule:nonzero;fill:rgb(0%,0%,0%);fill-opacity:1;" d="M 23.132812 130.816406 C 23.132812 127.566406 24.757812 126.722656 25.820312 126.722656 C 26.007812 126.722656 27.257812 126.753906 27.945312 127.472656 C 27.132812 127.535156 27.007812 128.128906 27.007812 128.378906 C 27.007812 128.910156 27.382812 129.285156 27.914062 129.285156 C 28.445312 129.285156 28.851562 128.972656 28.851562 128.347656 C 28.851562 127.003906 27.320312 126.222656 25.789062 126.222656 C 23.289062 126.222656 21.476562 128.378906 21.476562 130.847656 C 21.476562 133.410156 23.445312 135.378906 25.757812 135.378906 C 28.414062 135.378906 29.070312 132.972656 29.070312 132.785156 C 29.070312 132.597656 28.851562 132.597656 28.789062 132.597656 C 28.632812 132.597656 28.570312 132.660156 28.539062 132.785156 C 27.976562 134.628906 26.664062 134.878906 25.945312 134.878906 C 24.882812 134.878906 23.132812 134.035156 23.132812 130.816406 Z M 23.132812 130.816406 "/>
<path style=" stroke:none;fill-rule:nonzero;fill:rgb(0%,0%,0%);fill-opacity:1;" d="M 31.988281 130.816406 C 31.988281 127.566406 33.613281 126.722656 34.675781 126.722656 C 34.863281 126.722656 36.113281 126.753906 36.800781 127.472656 C 35.988281 127.535156 35.863281 128.128906 35.863281 128.378906 C 35.863281 128.910156 36.238281 129.285156 36.769531 129.285156 C 37.300781 129.285156 37.707031 128.972656 37.707031 128.347656 C 37.707031 127.003906 36.175781 126.222656 34.644531 126.222656 C 32.144531 126.222656 30.332031 128.378906 30.332031 130.847656 C 30.332031 133.410156 32.300781 135.378906 34.613281 135.378906 C 37.269531 135.378906 37.925781 132.972656 37.925781 132.785156 C 37.925781 132.597656 37.707031 132.597656 37.644531 132.597656 C 37.488281 132.597656 37.425781 132.660156 37.394531 132.785156 C 36.832031 134.628906 35.519531 134.878906 34.800781 134.878906 C 33.738281 134.878906 31.988281 134.035156 31.988281 130.816406 Z M 31.988281 130.816406 "/>
<path style="fill:none;stroke-width:0.566929;stroke-linecap:butt;stroke-linejoin:miter;stroke:rgb(100%,0%,0%);stroke-opacity:0.5;stroke-miterlimit:10;" d="M 32.787294 59.526682 L 38.457216 53.858714 " transform="matrix(2,0,0,2,5.952756,6.169291)"/>
<path style="fill:none;stroke-width:0.566929;stroke-linecap:butt;stroke-linejoin:miter;stroke:rgb(100%,0%,0%);stroke-opacity:0.5;stroke-miterlimit:10;" d="M 38.457216 59.526682 L 32.787294 53.858714 " transform="matrix(2,0,0,2,5.952756,6.169291)"/>
<path style="fill-rule:nonzero;fill:rgb(50%,50%,0%);fill-opacity:0.1;stroke-width:0.566929;stroke-linecap:butt;stroke-linejoin:miter;stroke:rgb(100%,0%,0%);stroke-opacity:0.5;stroke-miterlimit:10;" d="M 19.320497 67.940745 L 51.924013 67.940745 L 51.924013 56.692698 L 19.320497 56.692698 Z M 19.320497 67.940745 " transform="matrix(2,0,0,2,5.952756,6.169291)"/>
<path style="fill:none;stroke-width:0.566929;stroke-linecap:butt;stroke-linejoin:miter;stroke:rgb(100%,0%,0%);stroke-opacity:0.5;stroke-miterlimit:10;" d="M 19.320497 67.83137 L 24.990419 62.161448 " transform="matrix(2,0,0,2,5.952756,6.169291)"/>
<path style="fill:none;stroke-width:0.566929;stroke-linecap:butt;stroke-linejoin:miter;stroke:rgb(100%,0%,0%);stroke-opacity:0.5;stroke-miterlimit:10;" d="M 24.990419 67.83137 L 19.320497 62.161448 " transform="matrix(2,0,0,2,5.952756,6.169291)"/>
<path style="fill-rule:nonzero;fill:rgb(50%,50%,0%);fill-opacity:0.1;stroke-width:0.566929;stroke-linecap:butt;stroke-linejoin:miter;stroke:rgb(100%,0%,0%);stroke-opacity:0.5;stroke-miterlimit:10;" d="M 19.320497 67.940745 L 51.924013 67.940745 L 51.924013 56.692698 L 19.320497 56.692698 Z M 19.320497 67.940745 " transform="matrix(2,0,0,2,5.952756,6.169291)"/>
<path style="fill:none;stroke-width:0.566929;stroke-linecap:butt;stroke-linejoin:miter;stroke:rgb(100%,0%,0%);stroke-opacity:0.5;stroke-miterlimit:10;" d="M 19.320497 67.83137 L 24.990419 62.161448 " transform="matrix(2,0,0,2,5.952756,6.169291)"/>
<path style="fill:none;stroke-width:0.566929;stroke-linecap:butt;stroke-linejoin:miter;stroke:rgb(100%,0%,0%);stroke-opacity:0.5;stroke-miterlimit:10;" d="M 24.990419 67.83137 L 19.320497 62.161448 " transform="matrix(2,0,0,2,5.952756,6.169291)"/>
<path style="fill-rule:nonzero;fill:rgb(50%,50%,0%);fill-opacity:0.1;stroke-width:0.566929;stroke-linecap:butt;stroke-linejoin:miter;stroke:rgb(100%,0%,0%);stroke-opacity:0.5;stroke-miterlimit:10;" d="M 22.156435 65.104807 L 49.090028 65.104807 L 49.090028 59.526682 L 22.156435 59.526682 Z M 22.156435 65.104807 " transform="matrix(2,0,0,2,5.952756,6.169291)"/>
<path style=" stroke:none;fill-rule:nonzero;fill:rgb(0%,0%,0%);fill-opacity:1;" d="M 52.921875 130.816406 C 52.921875 127.566406 54.546875 126.722656 55.609375 126.722656 C 55.796875 126.722656 57.046875 126.753906 57.734375 127.472656 C 56.921875 127.535156 56.796875 128.128906 56.796875 128.378906 C 56.796875 128.910156 57.171875 129.285156 57.703125 129.285156 C 58.234375 129.285156 58.640625 128.972656 58.640625 128.347656 C 58.640625 127.003906 57.109375 126.222656 55.578125 126.222656 C 53.078125 126.222656 51.265625 128.378906 51.265625 130.847656 C 51.265625 133.410156 53.234375 135.378906 55.546875 135.378906 C 58.203125 135.378906 58.859375 132.972656 58.859375 132.785156 C 58.859375 132.597656 58.640625 132.597656 58.578125 132.597656 C 58.421875 132.597656 58.359375 132.660156 58.328125 132.785156 C 57.765625 134.628906 56.453125 134.878906 55.734375 134.878906 C 54.671875 134.878906 52.921875 134.035156 52.921875 130.816406 Z M 52.921875 130.816406 "/>
<path style=" stroke:none;fill-rule:nonzero;fill:rgb(0%,0%,0%);fill-opacity:1;" d="M 61.773438 130.816406 C 61.773438 127.566406 63.398438 126.722656 64.460938 126.722656 C 64.648438 126.722656 65.898438 126.753906 66.585938 127.472656 C 65.773438 127.535156 65.648438 128.128906 65.648438 128.378906 C 65.648438 128.910156 66.023438 129.285156 66.554688 129.285156 C 67.085938 129.285156 67.492188 128.972656 67.492188 128.347656 C 67.492188 127.003906 65.960938 126.222656 64.429688 126.222656 C 61.929688 126.222656 60.117188 128.378906 60.117188 130.847656 C 60.117188 133.410156 62.085938 135.378906 64.398438 135.378906 C 67.054688 135.378906 67.710938 132.972656 67.710938 132.785156 C 67.710938 132.597656 67.492188 132.597656 67.429688 132.597656 C 67.273438 132.597656 67.210938 132.660156 67.179688 132.785156 C 66.617188 134.628906 65.304688 134.878906 64.585938 134.878906 C 63.523438 134.878906 61.773438 134.035156 61.773438 130.816406 Z M 61.773438 130.816406 "/>
<path style=" stroke:none;fill-rule:nonzero;fill:rgb(0%,0%,0%);fill-opacity:1;" d="M 70.628906 130.816406 C 70.628906 127.566406 72.253906 126.722656 73.316406 126.722656 C 73.503906 126.722656 74.753906 126.753906 75.441406 127.472656 C 74.628906 127.535156 74.503906 128.128906 74.503906 128.378906 C 74.503906 128.910156 74.878906 129.285156 75.410156 129.285156 C 75.941406 129.285156 76.347656 128.972656 76.347656 128.347656 C 76.347656 127.003906 74.816406 126.222656 73.285156 126.222656 C 70.785156 126.222656 68.972656 128.378906 68.972656 130.847656 C 68.972656 133.410156 70.941406 135.378906 73.253906 135.378906 C 75.910156 135.378906 76.566406 132.972656 76.566406 132.785156 C 76.566406 132.597656 76.347656 132.597656 76.285156 132.597656 C 76.128906 132.597656 76.066406 132.660156 76.035156 132.785156 C 75.472656 134.628906 74.160156 134.878906 73.441406 134.878906 C 72.378906 134.878906 70.628906 134.035156 70.628906 130.816406 Z M 70.628906 130.816406 "/>
<path style=" stroke:none;fill-rule:nonzero;fill:rgb(0%,0%,0%);fill-opacity:1;" d="M 79.484375 130.816406 C 79.484375 127.566406 81.109375 126.722656 82.171875 126.722656 C 82.359375 126.722656 83.609375 126.753906 84.296875 127.472656 C 83.484375 127.535156 83.359375 128.128906 83.359375 128.378906 C 83.359375 128.910156 83.734375 129.285156 84.265625 129.285156 C 84.796875 129.285156 85.203125 128.972656 85.203125 128.347656 C 85.203125 127.003906 83.671875 126.222656 82.140625 126.222656 C 79.640625 126.222656 77.828125 128.378906 77.828125 130.847656 C 77.828125 133.410156 79.796875 135.378906 82.109375 135.378906 C 84.765625 135.378906 85.421875 132.972656 85.421875 132.785156 C 85.421875 132.597656 85.203125 132.597656 85.140625 132.597656 C 84.984375 132.597656 84.921875 132.660156 84.890625 132.785156 C 84.328125 134.628906 83.015625 134.878906 82.296875 134.878906 C 81.234375 134.878906 79.484375 134.035156 79.484375 130.816406 Z M 79.484375 130.816406 "/>
<path style=" stroke:none;fill-rule:nonzero;fill:rgb(0%,0%,0%);fill-opacity:1;" d="M 88.339844 130.816406 C 88.339844 127.566406 89.964844 126.722656 91.027344 126.722656 C 91.214844 126.722656 92.464844 126.753906 93.152344 127.472656 C 92.339844 127.535156 92.214844 128.128906 92.214844 128.378906 C 92.214844 128.910156 92.589844 129.285156 93.121094 129.285156 C 93.652344 129.285156 94.058594 128.972656 94.058594 128.347656 C 94.058594 127.003906 92.527344 126.222656 90.996094 126.222656 C 88.496094 126.222656 86.683594 128.378906 86.683594 130.847656 C 86.683594 133.410156 88.652344 135.378906 90.964844 135.378906 C 93.621094 135.378906 94.277344 132.972656 94.277344 132.785156 C 94.277344 132.597656 94.058594 132.597656 93.996094 132.597656 C 93.839844 132.597656 93.777344 132.660156 93.746094 132.785156 C 93.183594 134.628906 91.871094 134.878906 91.152344 134.878906 C 90.089844 134.878906 88.339844 134.035156 88.339844 130.816406 Z M 88.339844 130.816406 "/>
<path style=" stroke:none;fill-rule:nonzero;fill:rgb(0%,0%,0%);fill-opacity:1;" d="M 97.195312 130.816406 C 97.195312 127.566406 98.820312 126.722656 99.882812 126.722656 C 100.070312 126.722656 101.320312 126.753906 102.007812 127.472656 C 101.195312 127.535156 101.070312 128.128906 101.070312 128.378906 C 101.070312 128.910156 101.445312 129.285156 101.976562 129.285156 C 102.507812 129.285156 102.914062 128.972656 102.914062 128.347656 C 102.914062 127.003906 101.382812 126.222656 99.851562 126.222656 C 97.351562 126.222656 95.539062 128.378906 95.539062 130.847656 C 95.539062 133.410156 97.507812 135.378906 99.820312 135.378906 C 102.476562 135.378906 103.132812 132.972656 103.132812 132.785156 C 103.132812 132.597656 102.914062 132.597656 102.851562 132.597656 C 102.695312 132.597656 102.632812 132.660156 102.601562 132.785156 C 102.039062 134.628906 100.726562 134.878906 100.007812 134.878906 C 98.945312 134.878906 97.195312 134.035156 97.195312 130.816406 Z M 97.195312 130.816406 "/>
<path style="fill:none;stroke-width:0.566929;stroke-linecap:butt;stroke-linejoin:miter;stroke:rgb(100%,0%,0%);stroke-opacity:0.5;stroke-miterlimit:10;" d="M 68.07831 59.526682 L 73.746278 53.858714 " transform="matrix(2,0,0,2,5.952756,6.169291)"/>
<path style="fill:none;stroke-width:0.566929;stroke-linecap:butt;stroke-linejoin:miter;stroke:rgb(100%,0%,0%);stroke-opacity:0.5;stroke-miterlimit:10;" d="M 73.746278 59.526682 L 68.07831 53.858714 " transform="matrix(2,0,0,2,5.952756,6.169291)"/>
<path style="fill-rule:nonzero;fill:rgb(50%,50%,0%);fill-opacity:0.1;stroke-width:0.566929;stroke-linecap:butt;stroke-linejoin:miter;stroke:rgb(100%,0%,0%);stroke-opacity:0.5;stroke-miterlimit:10;" d="M 54.306825 70.39387 L 87.517763 70.39387 L 87.517763 56.692698 L 54.306825 56.692698 Z M 54.306825 70.39387 " transform="matrix(2,0,0,2,5.952756,6.169291)"/>
<path style="fill:none;stroke-width:0.566929;stroke-linecap:butt;stroke-linejoin:miter;stroke:rgb(100%,0%,0%);stroke-opacity:0.5;stroke-miterlimit:10;" d="M 54.306825 70.39387 L 59.976747 64.723948 " transform="matrix(2,0,0,2,5.952756,6.169291)"/>
<path style="fill:none;stroke-width:0.566929;stroke-linecap:butt;stroke-linejoin:miter;stroke:rgb(100%,0%,0%);stroke-opacity:0.5;stroke-miterlimit:10;" d="M 59.976747 70.39387 L 54.306825 64.723948 " transform="matrix(2,0,0,2,5.952756,6.169291)"/>
<path style="fill-rule:nonzero;fill:rgb(50%,50%,0%);fill-opacity:0.1;stroke-width:0.566929;stroke-linecap:butt;stroke-linejoin:miter;stroke:rgb(100%,0%,0%);stroke-opacity:0.5;stroke-miterlimit:10;" d="M 54.306825 70.39387 L 87.517763 70.39387 L 87.517763 56.692698 L 54.306825 56.692698 Z M 54.306825 70.39387 " transform="matrix(2,0,0,2,5.952756,6.169291)"/>
<path style="fill:none;stroke-width:0.566929;stroke-linecap:butt;stroke-linejoin:miter;stroke:rgb(100%,0%,0%);stroke-opacity:0.5;stroke-miterlimit:10;" d="M 54.306825 70.39387 L 59.976747 64.723948 " transform="matrix(2,0,0,2,5.952756,6.169291)"/>
<path style="fill:none;stroke-width:0.566929;stroke-linecap:butt;stroke-linejoin:miter;stroke:rgb(100%,0%,0%);stroke-opacity:0.5;stroke-miterlimit:10;" d="M 59.976747 70.39387 L 54.306825 64.723948 " transform="matrix(2,0,0,2,5.952756,6.169291)"/>
<path style="fill-rule:nonzero;fill:rgb(50%,50%,0%);fill-opacity:0.1;stroke-width:0.566929;stroke-linecap:butt;stroke-linejoin:miter;stroke:rgb(100%,0%,0%);stroke-opacity:0.5;stroke-miterlimit:10;" d="M 57.14081 67.557932 L 84.683778 67.557932 L 84.683778 59.526682 L 57.14081 59.526682 Z M 57.14081 67.557932 " transform="matrix(2,0,0,2,5.952756,6.169291)"/>
<path style=" stroke:none;fill-rule:nonzero;fill:rgb(0%,0%,0%);fill-opacity:1;" d="M 129.640625 132.316406 L 131.921875 132.316406 L 131.921875 131.691406 L 129.578125 131.691406 L 129.578125 129.378906 C 129.578125 127.597656 130.546875 126.660156 131.421875 126.660156 C 131.484375 126.660156 131.796875 126.660156 132.078125 126.816406 C 131.859375 126.878906 131.484375 127.160156 131.484375 127.660156 C 131.484375 128.097656 131.796875 128.503906 132.359375 128.503906 C 132.921875 128.503906 133.234375 128.097656 133.234375 127.628906 C 133.234375 126.910156 132.515625 126.222656 131.421875 126.222656 C 130.234375 126.222656 129.359375 126.972656 129.265625 127.066406 C 128.671875 126.316406 127.546875 126.222656 127.015625 126.222656 C 125.140625 126.222656 122.828125 127.253906 122.828125 129.410156 L 122.828125 131.691406 L 121.234375 131.691406 L 121.234375 132.316406 L 122.828125 132.316406 L 122.828125 138.785156 C 122.828125 139.660156 122.609375 139.660156 121.265625 139.660156 L 121.265625 140.285156 C 121.921875 140.253906 122.984375 140.222656 123.484375 140.222656 C 123.984375 140.222656 124.953125 140.253906 125.703125 140.285156 L 125.703125 139.660156 C 124.359375 139.660156 124.140625 139.660156 124.140625 138.785156 L 124.140625 132.316406 L 128.328125 132.316406 L 128.328125 138.785156 C 128.328125 139.660156 128.109375 139.660156 126.765625 139.660156 L 126.765625 140.285156 C 127.546875 140.253906 128.484375 140.222656 129.046875 140.222656 C 129.828125 140.222656 130.765625 140.222656 131.578125 140.285156 L 131.578125 139.660156 L 131.140625 139.660156 C 129.671875 139.660156 129.640625 139.441406 129.640625 138.722656 Z M 124.078125 131.691406 L 124.078125 129.441406 C 124.078125 127.503906 125.703125 126.660156 127.015625 126.660156 C 127.984375 126.660156 128.546875 127.035156 128.546875 127.035156 L 128.546875 127.066406 C 128.234375 127.097656 127.828125 127.378906 127.828125 127.910156 C 127.828125 128.035156 127.828125 128.535156 128.390625 128.722656 C 128.328125 128.972656 128.328125 129.160156 128.328125 129.410156 L 128.328125 131.691406 Z M 124.078125 131.691406 "/>
<path style=" stroke:none;fill-rule:nonzero;fill:rgb(0%,0%,0%);fill-opacity:1;" d="M 141.265625 132.316406 L 143.546875 132.316406 L 143.546875 131.691406 L 141.203125 131.691406 L 141.203125 129.378906 C 141.203125 127.597656 142.171875 126.660156 143.046875 126.660156 C 143.109375 126.660156 143.421875 126.660156 143.703125 126.816406 C 143.484375 126.878906 143.109375 127.160156 143.109375 127.660156 C 143.109375 128.097656 143.421875 128.503906 143.984375 128.503906 C 144.546875 128.503906 144.859375 128.097656 144.859375 127.628906 C 144.859375 126.910156 144.140625 126.222656 143.046875 126.222656 C 141.859375 126.222656 140.984375 126.972656 140.890625 127.066406 C 140.296875 126.316406 139.171875 126.222656 138.640625 126.222656 C 136.765625 126.222656 134.453125 127.253906 134.453125 129.410156 L 134.453125 131.691406 L 132.859375 131.691406 L 132.859375 132.316406 L 134.453125 132.316406 L 134.453125 138.785156 C 134.453125 139.660156 134.234375 139.660156 132.890625 139.660156 L 132.890625 140.285156 C 133.546875 140.253906 134.609375 140.222656 135.109375 140.222656 C 135.609375 140.222656 136.578125 140.253906 137.328125 140.285156 L 137.328125 139.660156 C 135.984375 139.660156 135.765625 139.660156 135.765625 138.785156 L 135.765625 132.316406 L 139.953125 132.316406 L 139.953125 138.785156 C 139.953125 139.660156 139.734375 139.660156 138.390625 139.660156 L 138.390625 140.285156 C 139.171875 140.253906 140.109375 140.222656 140.671875 140.222656 C 141.453125 140.222656 142.390625 140.222656 143.203125 140.285156 L 143.203125 139.660156 L 142.765625 139.660156 C 141.296875 139.660156 141.265625 139.441406 141.265625 138.722656 Z M 135.703125 131.691406 L 135.703125 129.441406 C 135.703125 127.503906 137.328125 126.660156 138.640625 126.660156 C 139.609375 126.660156 140.171875 127.035156 140.171875 127.035156 L 140.171875 127.066406 C 139.859375 127.097656 139.453125 127.378906 139.453125 127.910156 C 139.453125 128.035156 139.453125 128.535156 140.015625 128.722656 C 139.953125 128.972656 139.953125 129.160156 139.953125 129.410156 L 139.953125 131.691406 Z M 135.703125 131.691406 "/>
<path style=" stroke:none;fill-rule:nonzero;fill:rgb(0%,0%,0%);fill-opacity:1;" d="M 152.886719 132.316406 L 155.167969 132.316406 L 155.167969 131.691406 L 152.824219 131.691406 L 152.824219 129.378906 C 152.824219 127.597656 153.792969 126.660156 154.667969 126.660156 C 154.730469 126.660156 155.042969 126.660156 155.324219 126.816406 C 155.105469 126.878906 154.730469 127.160156 154.730469 127.660156 C 154.730469 128.097656 155.042969 128.503906 155.605469 128.503906 C 156.167969 128.503906 156.480469 128.097656 156.480469 127.628906 C 156.480469 126.910156 155.761719 126.222656 154.667969 126.222656 C 153.480469 126.222656 152.605469 126.972656 152.511719 127.066406 C 151.917969 126.316406 150.792969 126.222656 150.261719 126.222656 C 148.386719 126.222656 146.074219 127.253906 146.074219 129.410156 L 146.074219 131.691406 L 144.480469 131.691406 L 144.480469 132.316406 L 146.074219 132.316406 L 146.074219 138.785156 C 146.074219 139.660156 145.855469 139.660156 144.511719 139.660156 L 144.511719 140.285156 C 145.167969 140.253906 146.230469 140.222656 146.730469 140.222656 C 147.230469 140.222656 148.199219 140.253906 148.949219 140.285156 L 148.949219 139.660156 C 147.605469 139.660156 147.386719 139.660156 147.386719 138.785156 L 147.386719 132.316406 L 151.574219 132.316406 L 151.574219 138.785156 C 151.574219 139.660156 151.355469 139.660156 150.011719 139.660156 L 150.011719 140.285156 C 150.792969 140.253906 151.730469 140.222656 152.292969 140.222656 C 153.074219 140.222656 154.011719 140.222656 154.824219 140.285156 L 154.824219 139.660156 L 154.386719 139.660156 C 152.917969 139.660156 152.886719 139.441406 152.886719 138.722656 Z M 147.324219 131.691406 L 147.324219 129.441406 C 147.324219 127.503906 148.949219 126.660156 150.261719 126.660156 C 151.230469 126.660156 151.792969 127.035156 151.792969 127.035156 L 151.792969 127.066406 C 151.480469 127.097656 151.074219 127.378906 151.074219 127.910156 C 151.074219 128.035156 151.074219 128.535156 151.636719 128.722656 C 151.574219 128.972656 151.574219 129.160156 151.574219 129.410156 L 151.574219 131.691406 Z M 147.324219 131.691406 "/>
<path style=" stroke:none;fill-rule:nonzero;fill:rgb(0%,0%,0%);fill-opacity:1;" d="M 164.507812 132.316406 L 166.789062 132.316406 L 166.789062 131.691406 L 164.445312 131.691406 L 164.445312 129.378906 C 164.445312 127.597656 165.414062 126.660156 166.289062 126.660156 C 166.351562 126.660156 166.664062 126.660156 166.945312 126.816406 C 166.726562 126.878906 166.351562 127.160156 166.351562 127.660156 C 166.351562 128.097656 166.664062 128.503906 167.226562 128.503906 C 167.789062 128.503906 168.101562 128.097656 168.101562 127.628906 C 168.101562 126.910156 167.382812 126.222656 166.289062 126.222656 C 165.101562 126.222656 164.226562 126.972656 164.132812 127.066406 C 163.539062 126.316406 162.414062 126.222656 161.882812 126.222656 C 160.007812 126.222656 157.695312 127.253906 157.695312 129.410156 L 157.695312 131.691406 L 156.101562 131.691406 L 156.101562 132.316406 L 157.695312 132.316406 L 157.695312 138.785156 C 157.695312 139.660156 157.476562 139.660156 156.132812 139.660156 L 156.132812 140.285156 C 156.789062 140.253906 157.851562 140.222656 158.351562 140.222656 C 158.851562 140.222656 159.820312 140.253906 160.570312 140.285156 L 160.570312 139.660156 C 159.226562 139.660156 159.007812 139.660156 159.007812 138.785156 L 159.007812 132.316406 L 163.195312 132.316406 L 163.195312 138.785156 C 163.195312 139.660156 162.976562 139.660156 161.632812 139.660156 L 161.632812 140.285156 C 162.414062 140.253906 163.351562 140.222656 163.914062 140.222656 C 164.695312 140.222656 165.632812 140.222656 166.445312 140.285156 L 166.445312 139.660156 L 166.007812 139.660156 C 164.539062 139.660156 164.507812 139.441406 164.507812 138.722656 Z M 158.945312 131.691406 L 158.945312 129.441406 C 158.945312 127.503906 160.570312 126.660156 161.882812 126.660156 C 162.851562 126.660156 163.414062 127.035156 163.414062 127.035156 L 163.414062 127.066406 C 163.101562 127.097656 162.695312 127.378906 162.695312 127.910156 C 162.695312 128.035156 162.695312 128.535156 163.257812 128.722656 C 163.195312 128.972656 163.195312 129.160156 163.195312 129.410156 L 163.195312 131.691406 Z M 158.945312 131.691406 "/>
<path style=" stroke:none;fill-rule:nonzero;fill:rgb(0%,0%,0%);fill-opacity:1;" d="M 170.695312 131.691406 L 170.695312 129.378906 C 170.695312 127.628906 171.632812 126.660156 172.507812 126.660156 C 172.570312 126.660156 172.882812 126.660156 173.164062 126.816406 C 172.945312 126.878906 172.570312 127.160156 172.570312 127.660156 C 172.570312 128.097656 172.882812 128.503906 173.445312 128.503906 C 174.007812 128.503906 174.320312 128.097656 174.320312 127.628906 C 174.320312 126.878906 173.570312 126.222656 172.507812 126.222656 C 171.132812 126.222656 169.414062 127.285156 169.414062 129.410156 L 169.414062 131.691406 L 167.851562 131.691406 L 167.851562 132.316406 L 169.414062 132.316406 L 169.414062 138.785156 C 169.414062 139.660156 169.195312 139.660156 167.882812 139.660156 L 167.882812 140.285156 C 168.664062 140.253906 169.601562 140.222656 170.132812 140.222656 C 170.945312 140.222656 171.882812 140.222656 172.664062 140.285156 L 172.664062 139.660156 L 172.257812 139.660156 C 170.789062 139.660156 170.757812 139.441406 170.757812 138.722656 L 170.757812 132.316406 L 173.007812 132.316406 L 173.007812 131.691406 Z M 170.695312 131.691406 "/>
<path style="fill:none;stroke-width:0.566929;stroke-linecap:butt;stroke-linejoin:miter;stroke:rgb(100%,0%,0%);stroke-opacity:0.5;stroke-miterlimit:10;" d="M 87.064638 59.526682 L 92.73456 53.858714 " transform="matrix(2,0,0,2,5.952756,6.169291)"/>
<path style="fill:none;stroke-width:0.566929;stroke-linecap:butt;stroke-linejoin:miter;stroke:rgb(100%,0%,0%);stroke-opacity:0.5;stroke-miterlimit:10;" d="M 92.73456 59.526682 L 87.064638 53.858714 " transform="matrix(2,0,0,2,5.952756,6.169291)"/>
<path style="fill:none;stroke-width:0.566929;stroke-linecap:butt;stroke-linejoin:miter;stroke:rgb(100%,0%,0%);stroke-opacity:0.5;stroke-miterlimit:10;" d="M 89.900575 85.038401 L 89.900575 56.692698 Z M 89.900575 85.038401 " transform="matrix(2,0,0,2,5.952756,6.169291)"/>
</g>
</svg>
