<?xml version="1.0" encoding="UTF-8"?>
<svg xmlns="http://www.w3.org/2000/svg" xmlns:xlink="http://www.w3.org/1999/xlink" width="94.109383pt" height="19.950541pt" viewBox="0 0 94.109383 19.950541" version="1.1">
<g id="surface13">
<path style="fill:none;stroke-width:0.566929;stroke-linecap:butt;stroke-linejoin:miter;stroke:rgb(100%,0%,0%);stroke-opacity:0.5;stroke-miterlimit:10;" d="M -2.834646 2.833984 L 2.835276 -2.833984 " transform="matrix(2,0,0,2,5.669291,14.28125)"/>
<path style="fill:none;stroke-width:0.566929;stroke-linecap:butt;stroke-linejoin:miter;stroke:rgb(100%,0%,0%);stroke-opacity:0.5;stroke-miterlimit:10;" d="M 2.835276 2.833984 L -2.834646 -2.833984 " transform="matrix(2,0,0,2,5.669291,14.28125)"/>
<path style="fill-rule:nonzero;fill:rgb(50%,50%,0%);fill-opacity:0.1;stroke-width:0.566929;stroke-linecap:butt;stroke-linejoin:miter;stroke:rgb(100%,0%,0%);stroke-opacity:0.5;stroke-miterlimit:10;" d="M -0.000661294 2.046875 L 44.220042 2.046875 L 44.220042 -7.140625 L -0.000661294 -7.140625 Z M -0.000661294 2.046875 " transform="matrix(2,0,0,2,5.669291,14.28125)"/>
<path style=" stroke:none;fill-rule:nonzero;fill:rgb(0%,0%,0%);fill-opacity:1;" d="M 17.230469 2.21875 C 17.230469 1.5 17.261719 1.28125 18.792969 1.28125 L 19.292969 1.28125 L 19.292969 0.65625 C 18.574219 0.71875 17.105469 0.71875 16.355469 0.71875 C 15.605469 0.71875 14.105469 0.71875 13.417969 0.65625 L 13.417969 1.28125 L 13.886719 1.28125 C 15.417969 1.28125 15.449219 1.5 15.449219 2.21875 L 15.449219 6.875 L 9.511719 6.875 L 9.511719 2.21875 C 9.511719 1.5 9.542969 1.28125 11.074219 1.28125 L 11.542969 1.28125 L 11.542969 0.65625 C 10.855469 0.71875 9.386719 0.71875 8.605469 0.71875 C 7.855469 0.71875 6.355469 0.71875 5.667969 0.65625 L 5.667969 1.28125 L 6.136719 1.28125 C 7.667969 1.28125 7.730469 1.5 7.730469 2.21875 L 7.730469 12.71875 C 7.730469 13.4375 7.667969 13.65625 6.136719 13.65625 L 5.667969 13.65625 L 5.667969 14.28125 C 6.355469 14.21875 7.855469 14.21875 8.605469 14.21875 C 9.355469 14.21875 10.855469 14.21875 11.542969 14.28125 L 11.542969 13.65625 L 11.074219 13.65625 C 9.542969 13.65625 9.511719 13.4375 9.511719 12.71875 L 9.511719 7.5 L 15.449219 7.5 L 15.449219 12.71875 C 15.449219 13.4375 15.417969 13.65625 13.886719 13.65625 L 13.417969 13.65625 L 13.417969 14.28125 C 14.105469 14.21875 15.574219 14.21875 16.324219 14.21875 C 17.105469 14.21875 18.574219 14.21875 19.292969 14.28125 L 19.292969 13.65625 L 18.792969 13.65625 C 17.261719 13.65625 17.230469 13.4375 17.230469 12.71875 Z M 17.230469 2.21875 "/>
<path style=" stroke:none;fill-rule:nonzero;fill:rgb(0%,0%,0%);fill-opacity:1;" d="M 22.175781 9.25 C 22.300781 6.28125 23.988281 5.78125 24.675781 5.78125 C 26.707031 5.78125 26.925781 8.46875 26.925781 9.25 Z M 22.175781 9.6875 L 27.738281 9.6875 C 28.175781 9.6875 28.238281 9.6875 28.238281 9.25 C 28.238281 7.28125 27.144531 5.34375 24.675781 5.34375 C 22.363281 5.34375 20.519531 7.40625 20.519531 9.90625 C 20.519531 12.5625 22.613281 14.5 24.894531 14.5 C 27.332031 14.5 28.238281 12.28125 28.238281 11.90625 C 28.238281 11.71875 28.082031 11.65625 27.957031 11.65625 C 27.800781 11.65625 27.738281 11.78125 27.707031 11.9375 C 27.019531 14 25.207031 14 25.019531 14 C 24.019531 14 23.238281 13.40625 22.769531 12.65625 C 22.175781 11.71875 22.175781 10.40625 22.175781 9.6875 Z M 22.175781 9.6875 "/>
<path style=" stroke:none;fill-rule:nonzero;fill:rgb(0%,0%,0%);fill-opacity:1;" d="M 37.09375 7.59375 C 37.59375 6.3125 38.625 6.3125 38.9375 6.3125 L 38.9375 5.6875 C 38.46875 5.71875 37.90625 5.75 37.4375 5.75 C 37.09375 5.75 36.15625 5.71875 35.71875 5.6875 L 35.71875 6.3125 C 36.34375 6.3125 36.65625 6.65625 36.65625 7.15625 C 36.65625 7.375 36.625 7.40625 36.53125 7.65625 L 34.5 12.53125 L 32.3125 7.1875 C 32.21875 6.96875 32.1875 6.90625 32.1875 6.8125 C 32.1875 6.3125 32.90625 6.3125 33.3125 6.3125 L 33.3125 5.6875 C 32.78125 5.71875 31.46875 5.75 31.125 5.75 C 30.59375 5.75 29.78125 5.71875 29.1875 5.6875 L 29.1875 6.3125 C 30.15625 6.3125 30.53125 6.3125 30.8125 7 L 33.8125 14.28125 C 33.6875 14.53125 33.40625 15.1875 33.3125 15.46875 C 32.875 16.5625 32.3125 17.9375 31.03125 17.9375 C 30.9375 17.9375 30.46875 17.9375 30.09375 17.5625 C 30.71875 17.5 30.875 17.0625 30.875 16.71875 C 30.875 16.21875 30.5 15.90625 30.03125 15.90625 C 29.625 15.90625 29.1875 16.15625 29.1875 16.75 C 29.1875 17.65625 30.03125 18.375 31.03125 18.375 C 32.28125 18.375 33.09375 17.21875 33.5625 16.09375 Z M 37.09375 7.59375 "/>
<path style=" stroke:none;fill-rule:nonzero;fill:rgb(0%,0%,0%);fill-opacity:1;" d="M 49.402344 6.3125 L 52.277344 6.3125 L 52.277344 5.6875 L 49.402344 5.6875 L 49.402344 2.03125 L 48.902344 2.03125 C 48.902344 3.65625 48.308594 5.78125 46.339844 5.875 L 46.339844 6.3125 L 48.027344 6.3125 L 48.027344 11.8125 C 48.027344 14.25 49.902344 14.5 50.621094 14.5 C 52.027344 14.5 52.589844 13.09375 52.589844 11.8125 L 52.589844 10.6875 L 52.089844 10.6875 L 52.089844 11.78125 C 52.089844 13.25 51.496094 14 50.746094 14 C 49.402344 14 49.402344 12.1875 49.402344 11.84375 Z M 49.402344 6.3125 "/>
<path style=" stroke:none;fill-rule:nonzero;fill:rgb(0%,0%,0%);fill-opacity:1;" d="M 55.898438 12.78125 C 55.898438 13.65625 55.679688 13.65625 54.335938 13.65625 L 54.335938 14.28125 C 55.054688 14.25 56.054688 14.21875 56.617188 14.21875 C 57.117188 14.21875 58.148438 14.25 58.835938 14.28125 L 58.835938 13.65625 C 57.492188 13.65625 57.273438 13.65625 57.273438 12.78125 L 57.273438 9.09375 C 57.273438 7.03125 58.710938 5.90625 59.960938 5.90625 C 61.242188 5.90625 61.460938 6.96875 61.460938 8.125 L 61.460938 12.78125 C 61.460938 13.65625 61.242188 13.65625 59.898438 13.65625 L 59.898438 14.28125 C 60.585938 14.25 61.617188 14.21875 62.148438 14.21875 C 62.648438 14.21875 63.710938 14.25 64.367188 14.28125 L 64.367188 13.65625 C 63.335938 13.65625 62.835938 13.65625 62.835938 13.0625 L 62.835938 9.25 C 62.835938 7.53125 62.835938 6.9375 62.210938 6.21875 C 61.929688 5.875 61.273438 5.46875 60.117188 5.46875 C 58.429688 5.46875 57.554688 6.65625 57.210938 7.4375 L 57.210938 0.4375 L 54.335938 0.65625 L 54.335938 1.28125 C 55.742188 1.28125 55.898438 1.40625 55.898438 2.40625 Z M 55.898438 12.78125 "/>
<path style=" stroke:none;fill-rule:nonzero;fill:rgb(0%,0%,0%);fill-opacity:1;" d="M 67 9.25 C 67.125 6.28125 68.8125 5.78125 69.5 5.78125 C 71.53125 5.78125 71.75 8.46875 71.75 9.25 Z M 67 9.6875 L 72.5625 9.6875 C 73 9.6875 73.0625 9.6875 73.0625 9.25 C 73.0625 7.28125 71.96875 5.34375 69.5 5.34375 C 67.1875 5.34375 65.34375 7.40625 65.34375 9.90625 C 65.34375 12.5625 67.4375 14.5 69.71875 14.5 C 72.15625 14.5 73.0625 12.28125 73.0625 11.90625 C 73.0625 11.71875 72.90625 11.65625 72.78125 11.65625 C 72.625 11.65625 72.5625 11.78125 72.53125 11.9375 C 71.84375 14 70.03125 14 69.84375 14 C 68.84375 14 68.0625 13.40625 67.59375 12.65625 C 67 11.71875 67 10.40625 67 9.6875 Z M 67 9.6875 "/>
<path style=" stroke:none;fill-rule:nonzero;fill:rgb(0%,0%,0%);fill-opacity:1;" d="M 76.980469 7.65625 L 76.980469 5.46875 L 74.199219 5.6875 L 74.199219 6.3125 C 75.605469 6.3125 75.761719 6.4375 75.761719 7.4375 L 75.761719 12.78125 C 75.761719 13.65625 75.542969 13.65625 74.199219 13.65625 L 74.199219 14.28125 C 74.980469 14.25 75.917969 14.21875 76.480469 14.21875 C 77.261719 14.21875 78.199219 14.21875 79.011719 14.28125 L 79.011719 13.65625 L 78.574219 13.65625 C 77.105469 13.65625 77.074219 13.4375 77.074219 12.71875 L 77.074219 9.65625 C 77.074219 7.6875 77.917969 5.90625 79.417969 5.90625 C 79.542969 5.90625 79.605469 5.90625 79.636719 5.9375 C 79.574219 5.9375 79.167969 6.1875 79.167969 6.71875 C 79.167969 7.25 79.605469 7.5625 80.042969 7.5625 C 80.386719 7.5625 80.886719 7.3125 80.886719 6.6875 C 80.886719 6.0625 80.261719 5.46875 79.417969 5.46875 C 77.949219 5.46875 77.230469 6.8125 76.980469 7.65625 Z M 76.980469 7.65625 "/>
<path style=" stroke:none;fill-rule:nonzero;fill:rgb(0%,0%,0%);fill-opacity:1;" d="M 83.660156 9.25 C 83.785156 6.28125 85.472656 5.78125 86.160156 5.78125 C 88.191406 5.78125 88.410156 8.46875 88.410156 9.25 Z M 83.660156 9.6875 L 89.222656 9.6875 C 89.660156 9.6875 89.722656 9.6875 89.722656 9.25 C 89.722656 7.28125 88.628906 5.34375 86.160156 5.34375 C 83.847656 5.34375 82.003906 7.40625 82.003906 9.90625 C 82.003906 12.5625 84.097656 14.5 86.378906 14.5 C 88.816406 14.5 89.722656 12.28125 89.722656 11.90625 C 89.722656 11.71875 89.566406 11.65625 89.441406 11.65625 C 89.285156 11.65625 89.222656 11.78125 89.191406 11.9375 C 88.503906 14 86.691406 14 86.503906 14 C 85.503906 14 84.722656 13.40625 84.253906 12.65625 C 83.660156 11.71875 83.660156 10.40625 83.660156 9.6875 Z M 83.660156 9.6875 "/>
<path style=" stroke:none;fill-rule:nonzero;fill:rgb(0%,0%,0%);fill-opacity:1;" d="M 93.359375 10.125 L 94.109375 1.03125 C 94.109375 0.375 93.578125 0 93.078125 0 C 92.546875 0 92.015625 0.375 92.015625 1.03125 L 92.796875 10.09375 C 92.796875 10.40625 92.828125 10.5625 93.078125 10.5625 C 93.265625 10.5625 93.328125 10.46875 93.359375 10.125 Z M 94.109375 13.21875 C 94.109375 12.65625 93.640625 12.15625 93.078125 12.15625 C 92.484375 12.15625 92.015625 12.65625 92.015625 13.21875 C 92.015625 13.8125 92.484375 14.28125 93.078125 14.28125 C 93.640625 14.28125 94.109375 13.8125 94.109375 13.21875 Z M 94.109375 13.21875 "/>
</g>
</svg>
