<?xml version="1.0" encoding="UTF-8"?>
<svg xmlns="http://www.w3.org/2000/svg" xmlns:xlink="http://www.w3.org/1999/xlink" width="58.396906pt" height="54.247048pt" viewBox="0 0 58.396906 54.247048" version="1.1">
<g id="surface29">
<path style="fill:none;stroke-width:0.566929;stroke-linecap:butt;stroke-linejoin:miter;stroke:rgb(100%,0%,0%);stroke-opacity:0.5;stroke-miterlimit:10;" d="M -2.834646 2.834169 L 2.835276 -2.8338 " transform="matrix(2,0,0,2,6.169291,5.952756)"/>
<path style="fill:none;stroke-width:0.566929;stroke-linecap:butt;stroke-linejoin:miter;stroke:rgb(100%,0%,0%);stroke-opacity:0.5;stroke-miterlimit:10;" d="M 2.835276 2.834169 L -2.834646 -2.8338 " transform="matrix(2,0,0,2,6.169291,5.952756)"/>
<path style="fill-rule:nonzero;fill:rgb(50%,50%,0%);fill-opacity:0.1;stroke-width:0.566929;stroke-linecap:butt;stroke-linejoin:miter;stroke:rgb(100%,0%,0%);stroke-opacity:0.5;stroke-miterlimit:10;" d="M -0.000661294 21.312685 L 25.971995 21.312685 L 25.971995 0.000184547 L -0.000661294 0.000184547 Z M -0.000661294 21.312685 " transform="matrix(2,0,0,2,6.169291,5.952756)"/>
<path style="fill:none;stroke-width:0.566929;stroke-linecap:butt;stroke-linejoin:miter;stroke:rgb(100%,0%,0%);stroke-opacity:0.5;stroke-miterlimit:10;" d="M -2.834646 10.756044 L 2.835276 5.088075 " transform="matrix(2,0,0,2,6.169291,5.952756)"/>
<path style="fill:none;stroke-width:0.566929;stroke-linecap:butt;stroke-linejoin:miter;stroke:rgb(100%,0%,0%);stroke-opacity:0.5;stroke-miterlimit:10;" d="M 2.835276 10.756044 L -2.834646 5.088075 " transform="matrix(2,0,0,2,6.169291,5.952756)"/>
<path style="fill-rule:nonzero;fill:rgb(50%,50%,0%);fill-opacity:0.1;stroke-width:0.566929;stroke-linecap:butt;stroke-linejoin:miter;stroke:rgb(100%,0%,0%);stroke-opacity:0.5;stroke-miterlimit:10;" d="M -0.000661294 7.92206 L 25.971995 7.92206 L 25.971995 0.000184547 L -0.000661294 0.000184547 Z M -0.000661294 7.92206 " transform="matrix(2,0,0,2,6.169291,5.952756)"/>
<path style=" stroke:none;fill-rule:nonzero;fill:rgb(0%,0%,0%);fill-opacity:1;" d="M 11.042969 17.359375 C 9.292969 17.359375 9.292969 15.359375 9.292969 14.921875 C 9.292969 14.390625 9.324219 13.734375 9.605469 13.234375 C 9.761719 13.015625 10.230469 12.453125 11.042969 12.453125 C 12.761719 12.453125 12.761719 14.421875 12.761719 14.890625 C 12.761719 15.421875 12.761719 16.078125 12.449219 16.578125 C 12.292969 16.796875 11.824219 17.359375 11.042969 17.359375 Z M 8.730469 18.140625 C 8.730469 18.078125 8.730469 17.609375 9.042969 17.203125 C 9.824219 17.765625 10.667969 17.828125 11.042969 17.828125 C 12.886719 17.828125 14.261719 16.453125 14.261719 14.921875 C 14.261719 14.171875 13.949219 13.453125 13.449219 12.984375 C 14.167969 12.296875 14.886719 12.203125 15.230469 12.203125 C 15.292969 12.203125 15.386719 12.203125 15.449219 12.234375 C 15.230469 12.296875 15.105469 12.515625 15.105469 12.765625 C 15.105469 13.109375 15.386719 13.328125 15.699219 13.328125 C 15.886719 13.328125 16.261719 13.203125 16.261719 12.734375 C 16.261719 12.390625 16.042969 11.765625 15.261719 11.765625 C 14.855469 11.765625 13.980469 11.890625 13.136719 12.703125 C 12.292969 12.046875 11.480469 11.984375 11.042969 11.984375 C 9.167969 11.984375 7.792969 13.359375 7.792969 14.890625 C 7.792969 15.765625 8.230469 16.515625 8.730469 16.953125 C 8.480469 17.234375 8.105469 17.890625 8.105469 18.609375 C 8.105469 19.234375 8.386719 19.984375 9.011719 20.390625 C 7.792969 20.703125 7.167969 21.578125 7.167969 22.359375 C 7.167969 23.796875 9.136719 24.890625 11.574219 24.890625 C 13.917969 24.890625 15.980469 23.890625 15.980469 22.328125 C 15.980469 21.640625 15.730469 20.609375 14.699219 20.046875 C 13.636719 19.515625 12.480469 19.515625 11.261719 19.515625 C 10.761719 19.515625 9.917969 19.515625 9.761719 19.484375 C 9.136719 19.390625 8.730469 18.796875 8.730469 18.140625 Z M 11.605469 24.453125 C 9.574219 24.453125 8.199219 23.421875 8.199219 22.359375 C 8.199219 21.453125 8.949219 20.703125 9.824219 20.671875 L 11.011719 20.671875 C 12.730469 20.671875 14.949219 20.671875 14.949219 22.359375 C 14.949219 23.453125 13.542969 24.453125 11.605469 24.453125 Z M 11.605469 24.453125 "/>
<path style=" stroke:none;fill-rule:nonzero;fill:rgb(0%,0%,0%);fill-opacity:1;" d="M 18.789062 15.765625 C 18.914062 12.796875 20.601562 12.296875 21.289062 12.296875 C 23.320312 12.296875 23.539062 14.984375 23.539062 15.765625 Z M 18.789062 16.203125 L 24.351562 16.203125 C 24.789062 16.203125 24.851562 16.203125 24.851562 15.765625 C 24.851562 13.796875 23.757812 11.859375 21.289062 11.859375 C 18.976562 11.859375 17.132812 13.921875 17.132812 16.421875 C 17.132812 19.078125 19.226562 21.015625 21.507812 21.015625 C 23.945312 21.015625 24.851562 18.796875 24.851562 18.421875 C 24.851562 18.234375 24.695312 18.171875 24.570312 18.171875 C 24.414062 18.171875 24.351562 18.296875 24.320312 18.453125 C 23.632812 20.515625 21.820312 20.515625 21.632812 20.515625 C 20.632812 20.515625 19.851562 19.921875 19.382812 19.171875 C 18.789062 18.234375 18.789062 16.921875 18.789062 16.203125 Z M 18.789062 16.203125 "/>
<path style=" stroke:none;fill-rule:nonzero;fill:rgb(0%,0%,0%);fill-opacity:1;" d="M 29.863281 17.359375 C 28.113281 17.359375 28.113281 15.359375 28.113281 14.921875 C 28.113281 14.390625 28.144531 13.734375 28.425781 13.234375 C 28.582031 13.015625 29.050781 12.453125 29.863281 12.453125 C 31.582031 12.453125 31.582031 14.421875 31.582031 14.890625 C 31.582031 15.421875 31.582031 16.078125 31.269531 16.578125 C 31.113281 16.796875 30.644531 17.359375 29.863281 17.359375 Z M 27.550781 18.140625 C 27.550781 18.078125 27.550781 17.609375 27.863281 17.203125 C 28.644531 17.765625 29.488281 17.828125 29.863281 17.828125 C 31.707031 17.828125 33.082031 16.453125 33.082031 14.921875 C 33.082031 14.171875 32.769531 13.453125 32.269531 12.984375 C 32.988281 12.296875 33.707031 12.203125 34.050781 12.203125 C 34.113281 12.203125 34.207031 12.203125 34.269531 12.234375 C 34.050781 12.296875 33.925781 12.515625 33.925781 12.765625 C 33.925781 13.109375 34.207031 13.328125 34.519531 13.328125 C 34.707031 13.328125 35.082031 13.203125 35.082031 12.734375 C 35.082031 12.390625 34.863281 11.765625 34.082031 11.765625 C 33.675781 11.765625 32.800781 11.890625 31.957031 12.703125 C 31.113281 12.046875 30.300781 11.984375 29.863281 11.984375 C 27.988281 11.984375 26.613281 13.359375 26.613281 14.890625 C 26.613281 15.765625 27.050781 16.515625 27.550781 16.953125 C 27.300781 17.234375 26.925781 17.890625 26.925781 18.609375 C 26.925781 19.234375 27.207031 19.984375 27.832031 20.390625 C 26.613281 20.703125 25.988281 21.578125 25.988281 22.359375 C 25.988281 23.796875 27.957031 24.890625 30.394531 24.890625 C 32.738281 24.890625 34.800781 23.890625 34.800781 22.328125 C 34.800781 21.640625 34.550781 20.609375 33.519531 20.046875 C 32.457031 19.515625 31.300781 19.515625 30.082031 19.515625 C 29.582031 19.515625 28.738281 19.515625 28.582031 19.484375 C 27.957031 19.390625 27.550781 18.796875 27.550781 18.140625 Z M 30.425781 24.453125 C 28.394531 24.453125 27.019531 23.421875 27.019531 22.359375 C 27.019531 21.453125 27.769531 20.703125 28.644531 20.671875 L 29.832031 20.671875 C 31.550781 20.671875 33.769531 20.671875 33.769531 22.359375 C 33.769531 23.453125 32.363281 24.453125 30.425781 24.453125 Z M 30.425781 24.453125 "/>
<path style=" stroke:none;fill-rule:nonzero;fill:rgb(0%,0%,0%);fill-opacity:1;" d="M 37.574219 19.296875 C 37.574219 20.171875 37.355469 20.171875 36.011719 20.171875 L 36.011719 20.796875 C 36.730469 20.765625 37.730469 20.734375 38.292969 20.734375 C 38.792969 20.734375 39.824219 20.765625 40.511719 20.796875 L 40.511719 20.171875 C 39.167969 20.171875 38.949219 20.171875 38.949219 19.296875 L 38.949219 15.609375 C 38.949219 13.546875 40.386719 12.421875 41.636719 12.421875 C 42.917969 12.421875 43.136719 13.484375 43.136719 14.640625 L 43.136719 19.296875 C 43.136719 20.171875 42.917969 20.171875 41.574219 20.171875 L 41.574219 20.796875 C 42.261719 20.765625 43.292969 20.734375 43.824219 20.734375 C 44.324219 20.734375 45.386719 20.765625 46.042969 20.796875 L 46.042969 20.171875 C 45.011719 20.171875 44.511719 20.171875 44.511719 19.578125 L 44.511719 15.765625 C 44.511719 14.046875 44.511719 13.453125 43.886719 12.734375 C 43.605469 12.390625 42.949219 11.984375 41.792969 11.984375 C 40.105469 11.984375 39.230469 13.171875 38.886719 13.953125 L 38.886719 6.953125 L 36.011719 7.171875 L 36.011719 7.796875 C 37.417969 7.796875 37.574219 7.921875 37.574219 8.921875 Z M 37.574219 19.296875 "/>
<path style=" stroke:none;fill-rule:nonzero;fill:rgb(0%,0%,0%);fill-opacity:1;" d="M 48.644531 19.296875 C 48.644531 20.171875 48.425781 20.171875 47.082031 20.171875 L 47.082031 20.796875 C 47.800781 20.765625 48.800781 20.734375 49.363281 20.734375 C 49.863281 20.734375 50.894531 20.765625 51.582031 20.796875 L 51.582031 20.171875 C 50.238281 20.171875 50.019531 20.171875 50.019531 19.296875 L 50.019531 15.609375 C 50.019531 13.546875 51.457031 12.421875 52.707031 12.421875 C 53.988281 12.421875 54.207031 13.484375 54.207031 14.640625 L 54.207031 19.296875 C 54.207031 20.171875 53.988281 20.171875 52.644531 20.171875 L 52.644531 20.796875 C 53.332031 20.765625 54.363281 20.734375 54.894531 20.734375 C 55.394531 20.734375 56.457031 20.765625 57.113281 20.796875 L 57.113281 20.171875 C 56.082031 20.171875 55.582031 20.171875 55.582031 19.578125 L 55.582031 15.765625 C 55.582031 14.046875 55.582031 13.453125 54.957031 12.734375 C 54.675781 12.390625 54.019531 11.984375 52.863281 11.984375 C 51.175781 11.984375 50.300781 13.171875 49.957031 13.953125 L 49.957031 6.953125 L 47.082031 7.171875 L 47.082031 7.796875 C 48.488281 7.796875 48.644531 7.921875 48.644531 8.921875 Z M 48.644531 19.296875 "/>
<path style="fill:none;stroke-width:0.566929;stroke-linecap:butt;stroke-linejoin:miter;stroke:rgb(100%,0%,0%);stroke-opacity:0.5;stroke-miterlimit:10;" d="M -2.834646 18.677919 L 2.835276 13.00995 " transform="matrix(2,0,0,2,6.169291,5.952756)"/>
<path style="fill:none;stroke-width:0.566929;stroke-linecap:butt;stroke-linejoin:miter;stroke:rgb(100%,0%,0%);stroke-opacity:0.5;stroke-miterlimit:10;" d="M 2.835276 18.677919 L -2.834646 13.00995 " transform="matrix(2,0,0,2,6.169291,5.952756)"/>
<path style="fill-rule:nonzero;fill:rgb(50%,50%,0%);fill-opacity:0.1;stroke-width:0.566929;stroke-linecap:butt;stroke-linejoin:miter;stroke:rgb(100%,0%,0%);stroke-opacity:0.5;stroke-miterlimit:10;" d="M -0.000661294 15.843935 L 21.067698 15.843935 L 21.067698 7.92206 L -0.000661294 7.92206 Z M -0.000661294 15.843935 " transform="matrix(2,0,0,2,6.169291,5.952756)"/>
<path style=" stroke:none;fill-rule:nonzero;fill:rgb(0%,0%,0%);fill-opacity:1;" d="M 12.636719 31.953125 C 13.230469 31.203125 13.980469 30.234375 14.480469 29.703125 C 15.105469 28.984375 15.917969 28.671875 16.855469 28.671875 L 16.855469 28.046875 C 16.324219 28.078125 15.730469 28.109375 15.199219 28.109375 C 14.605469 28.109375 13.542969 28.078125 13.292969 28.046875 L 13.292969 28.671875 C 13.730469 28.703125 13.886719 28.953125 13.886719 29.296875 C 13.886719 29.609375 13.667969 29.859375 13.574219 29.984375 L 12.355469 31.546875 L 10.792969 29.515625 C 10.605469 29.328125 10.605469 29.296875 10.605469 29.171875 C 10.605469 28.859375 10.917969 28.671875 11.292969 28.671875 L 11.292969 28.046875 C 10.792969 28.078125 9.480469 28.109375 9.136719 28.109375 C 8.730469 28.109375 7.792969 28.078125 7.261719 28.046875 L 7.261719 28.671875 C 8.667969 28.671875 8.667969 28.671875 9.605469 29.890625 L 11.574219 32.453125 L 9.699219 34.828125 C 8.761719 35.984375 7.574219 36.015625 7.167969 36.015625 L 7.167969 36.640625 C 7.667969 36.609375 8.292969 36.578125 8.824219 36.578125 C 9.386719 36.578125 10.230469 36.609375 10.699219 36.640625 L 10.699219 36.015625 C 10.261719 35.953125 10.136719 35.703125 10.136719 35.390625 C 10.136719 34.953125 10.699219 34.296875 11.917969 32.859375 L 13.449219 34.859375 C 13.605469 35.078125 13.855469 35.390625 13.855469 35.515625 C 13.855469 35.703125 13.667969 36.015625 13.136719 36.015625 L 13.136719 36.640625 C 13.730469 36.609375 14.855469 36.578125 15.292969 36.578125 C 15.824219 36.578125 16.605469 36.609375 17.199219 36.640625 L 17.199219 36.015625 C 16.136719 36.015625 15.761719 35.984375 15.324219 35.390625 Z M 12.636719 31.953125 "/>
<path style=" stroke:none;fill-rule:nonzero;fill:rgb(0%,0%,0%);fill-opacity:1;" d="M 23.15625 31.953125 C 23.75 31.203125 24.5 30.234375 25 29.703125 C 25.625 28.984375 26.4375 28.671875 27.375 28.671875 L 27.375 28.046875 C 26.84375 28.078125 26.25 28.109375 25.71875 28.109375 C 25.125 28.109375 24.0625 28.078125 23.8125 28.046875 L 23.8125 28.671875 C 24.25 28.703125 24.40625 28.953125 24.40625 29.296875 C 24.40625 29.609375 24.1875 29.859375 24.09375 29.984375 L 22.875 31.546875 L 21.3125 29.515625 C 21.125 29.328125 21.125 29.296875 21.125 29.171875 C 21.125 28.859375 21.4375 28.671875 21.8125 28.671875 L 21.8125 28.046875 C 21.3125 28.078125 20 28.109375 19.65625 28.109375 C 19.25 28.109375 18.3125 28.078125 17.78125 28.046875 L 17.78125 28.671875 C 19.1875 28.671875 19.1875 28.671875 20.125 29.890625 L 22.09375 32.453125 L 20.21875 34.828125 C 19.28125 35.984375 18.09375 36.015625 17.6875 36.015625 L 17.6875 36.640625 C 18.1875 36.609375 18.8125 36.578125 19.34375 36.578125 C 19.90625 36.578125 20.75 36.609375 21.21875 36.640625 L 21.21875 36.015625 C 20.78125 35.953125 20.65625 35.703125 20.65625 35.390625 C 20.65625 34.953125 21.21875 34.296875 22.4375 32.859375 L 23.96875 34.859375 C 24.125 35.078125 24.375 35.390625 24.375 35.515625 C 24.375 35.703125 24.1875 36.015625 23.65625 36.015625 L 23.65625 36.640625 C 24.25 36.609375 25.375 36.578125 25.8125 36.578125 C 26.34375 36.578125 27.125 36.609375 27.71875 36.640625 L 27.71875 36.015625 C 26.65625 36.015625 26.28125 35.984375 25.84375 35.390625 Z M 23.15625 31.953125 "/>
<path style=" stroke:none;fill-rule:nonzero;fill:rgb(0%,0%,0%);fill-opacity:1;" d="M 35.515625 35.546875 L 35.515625 36.859375 L 38.453125 36.640625 L 38.453125 36.015625 C 37.078125 36.015625 36.890625 35.890625 36.890625 34.890625 L 36.890625 22.796875 L 34.046875 23.015625 L 34.046875 23.640625 C 35.421875 23.640625 35.578125 23.765625 35.578125 24.765625 L 35.578125 29.078125 C 35.015625 28.359375 34.140625 27.828125 33.078125 27.828125 C 30.734375 27.828125 28.640625 29.796875 28.640625 32.359375 C 28.640625 34.890625 30.578125 36.859375 32.859375 36.859375 C 34.140625 36.859375 35.015625 36.171875 35.515625 35.546875 Z M 35.515625 30.203125 L 35.515625 34.296875 C 35.515625 34.640625 35.515625 34.671875 35.296875 35.015625 C 34.703125 35.984375 33.828125 36.421875 32.953125 36.421875 C 32.046875 36.421875 31.328125 35.890625 30.859375 35.140625 C 30.359375 34.328125 30.296875 33.203125 30.296875 32.359375 C 30.296875 31.640625 30.328125 30.453125 30.890625 29.546875 C 31.328125 28.921875 32.078125 28.265625 33.171875 28.265625 C 33.859375 28.265625 34.703125 28.578125 35.296875 29.453125 C 35.515625 29.796875 35.515625 29.828125 35.515625 30.203125 Z M 35.515625 30.203125 "/>
<path style=" stroke:none;fill-rule:nonzero;fill:rgb(0%,0%,0%);fill-opacity:1;" d="M 41.242188 31.609375 C 41.367188 28.640625 43.054688 28.140625 43.742188 28.140625 C 45.773438 28.140625 45.992188 30.828125 45.992188 31.609375 Z M 41.242188 32.046875 L 46.804688 32.046875 C 47.242188 32.046875 47.304688 32.046875 47.304688 31.609375 C 47.304688 29.640625 46.210938 27.703125 43.742188 27.703125 C 41.429688 27.703125 39.585938 29.765625 39.585938 32.265625 C 39.585938 34.921875 41.679688 36.859375 43.960938 36.859375 C 46.398438 36.859375 47.304688 34.640625 47.304688 34.265625 C 47.304688 34.078125 47.148438 34.015625 47.023438 34.015625 C 46.867188 34.015625 46.804688 34.140625 46.773438 34.296875 C 46.085938 36.359375 44.273438 36.359375 44.085938 36.359375 C 43.085938 36.359375 42.304688 35.765625 41.835938 35.015625 C 41.242188 34.078125 41.242188 32.765625 41.242188 32.046875 Z M 41.242188 32.046875 "/>
<path style="fill:none;stroke-width:0.566929;stroke-linecap:butt;stroke-linejoin:miter;stroke:rgb(100%,0%,0%);stroke-opacity:0.5;stroke-miterlimit:10;" d="M -2.834646 24.146669 L 2.835276 18.4787 " transform="matrix(2,0,0,2,6.169291,5.952756)"/>
<path style="fill:none;stroke-width:0.566929;stroke-linecap:butt;stroke-linejoin:miter;stroke:rgb(100%,0%,0%);stroke-opacity:0.5;stroke-miterlimit:10;" d="M 2.835276 24.146669 L -2.834646 18.4787 " transform="matrix(2,0,0,2,6.169291,5.952756)"/>
<path style="fill-rule:nonzero;fill:rgb(50%,50%,0%);fill-opacity:0.1;stroke-width:0.566929;stroke-linecap:butt;stroke-linejoin:miter;stroke:rgb(100%,0%,0%);stroke-opacity:0.5;stroke-miterlimit:10;" d="M -0.000661294 21.312685 L 25.030589 21.312685 L 25.030589 15.843935 L -0.000661294 15.843935 Z M -0.000661294 21.312685 " transform="matrix(2,0,0,2,6.169291,5.952756)"/>
<path style=" stroke:none;fill-rule:nonzero;fill:rgb(0%,0%,0%);fill-opacity:1;" d="M 12.636719 42.890625 C 13.230469 42.140625 13.980469 41.171875 14.480469 40.640625 C 15.105469 39.921875 15.917969 39.609375 16.855469 39.609375 L 16.855469 38.984375 C 16.324219 39.015625 15.730469 39.046875 15.199219 39.046875 C 14.605469 39.046875 13.542969 39.015625 13.292969 38.984375 L 13.292969 39.609375 C 13.730469 39.640625 13.886719 39.890625 13.886719 40.234375 C 13.886719 40.546875 13.667969 40.796875 13.574219 40.921875 L 12.355469 42.484375 L 10.792969 40.453125 C 10.605469 40.265625 10.605469 40.234375 10.605469 40.109375 C 10.605469 39.796875 10.917969 39.609375 11.292969 39.609375 L 11.292969 38.984375 C 10.792969 39.015625 9.480469 39.046875 9.136719 39.046875 C 8.730469 39.046875 7.792969 39.015625 7.261719 38.984375 L 7.261719 39.609375 C 8.667969 39.609375 8.667969 39.609375 9.605469 40.828125 L 11.574219 43.390625 L 9.699219 45.765625 C 8.761719 46.921875 7.574219 46.953125 7.167969 46.953125 L 7.167969 47.578125 C 7.667969 47.546875 8.292969 47.515625 8.824219 47.515625 C 9.386719 47.515625 10.230469 47.546875 10.699219 47.578125 L 10.699219 46.953125 C 10.261719 46.890625 10.136719 46.640625 10.136719 46.328125 C 10.136719 45.890625 10.699219 45.234375 11.917969 43.796875 L 13.449219 45.796875 C 13.605469 46.015625 13.855469 46.328125 13.855469 46.453125 C 13.855469 46.640625 13.667969 46.953125 13.136719 46.953125 L 13.136719 47.578125 C 13.730469 47.546875 14.855469 47.515625 15.292969 47.515625 C 15.824219 47.515625 16.605469 47.546875 17.199219 47.578125 L 17.199219 46.953125 C 16.136719 46.953125 15.761719 46.921875 15.324219 46.328125 Z M 12.636719 42.890625 "/>
<path style=" stroke:none;fill-rule:nonzero;fill:rgb(0%,0%,0%);fill-opacity:1;" d="M 25.71875 40.890625 C 26.21875 39.609375 27.25 39.609375 27.5625 39.609375 L 27.5625 38.984375 C 27.09375 39.015625 26.53125 39.046875 26.0625 39.046875 C 25.71875 39.046875 24.78125 39.015625 24.34375 38.984375 L 24.34375 39.609375 C 24.96875 39.609375 25.28125 39.953125 25.28125 40.453125 C 25.28125 40.671875 25.25 40.703125 25.15625 40.953125 L 23.125 45.828125 L 20.9375 40.484375 C 20.84375 40.265625 20.8125 40.203125 20.8125 40.109375 C 20.8125 39.609375 21.53125 39.609375 21.9375 39.609375 L 21.9375 38.984375 C 21.40625 39.015625 20.09375 39.046875 19.75 39.046875 C 19.21875 39.046875 18.40625 39.015625 17.8125 38.984375 L 17.8125 39.609375 C 18.78125 39.609375 19.15625 39.609375 19.4375 40.296875 L 22.4375 47.578125 C 22.3125 47.828125 22.03125 48.484375 21.9375 48.765625 C 21.5 49.859375 20.9375 51.234375 19.65625 51.234375 C 19.5625 51.234375 19.09375 51.234375 18.71875 50.859375 C 19.34375 50.796875 19.5 50.359375 19.5 50.015625 C 19.5 49.515625 19.125 49.203125 18.65625 49.203125 C 18.25 49.203125 17.8125 49.453125 17.8125 50.046875 C 17.8125 50.953125 18.65625 51.671875 19.65625 51.671875 C 20.90625 51.671875 21.71875 50.515625 22.1875 49.390625 Z M 25.71875 40.890625 "/>
<path style=" stroke:none;fill-rule:nonzero;fill:rgb(0%,0%,0%);fill-opacity:1;" d="M 29.613281 42.546875 C 29.738281 39.578125 31.425781 39.078125 32.113281 39.078125 C 34.144531 39.078125 34.363281 41.765625 34.363281 42.546875 Z M 29.613281 42.984375 L 35.175781 42.984375 C 35.613281 42.984375 35.675781 42.984375 35.675781 42.546875 C 35.675781 40.578125 34.582031 38.640625 32.113281 38.640625 C 29.800781 38.640625 27.957031 40.703125 27.957031 43.203125 C 27.957031 45.859375 30.050781 47.796875 32.332031 47.796875 C 34.769531 47.796875 35.675781 45.578125 35.675781 45.203125 C 35.675781 45.015625 35.519531 44.953125 35.394531 44.953125 C 35.238281 44.953125 35.175781 45.078125 35.144531 45.234375 C 34.457031 47.296875 32.644531 47.296875 32.457031 47.296875 C 31.457031 47.296875 30.675781 46.703125 30.207031 45.953125 C 29.613281 45.015625 29.613281 43.703125 29.613281 42.984375 Z M 29.613281 42.984375 "/>
<path style=" stroke:none;fill-rule:nonzero;fill:rgb(0%,0%,0%);fill-opacity:1;" d="M 38.46875 42.546875 C 38.59375 39.578125 40.28125 39.078125 40.96875 39.078125 C 43 39.078125 43.21875 41.765625 43.21875 42.546875 Z M 38.46875 42.984375 L 44.03125 42.984375 C 44.46875 42.984375 44.53125 42.984375 44.53125 42.546875 C 44.53125 40.578125 43.4375 38.640625 40.96875 38.640625 C 38.65625 38.640625 36.8125 40.703125 36.8125 43.203125 C 36.8125 45.859375 38.90625 47.796875 41.1875 47.796875 C 43.625 47.796875 44.53125 45.578125 44.53125 45.203125 C 44.53125 45.015625 44.375 44.953125 44.25 44.953125 C 44.09375 44.953125 44.03125 45.078125 44 45.234375 C 43.3125 47.296875 41.5 47.296875 41.3125 47.296875 C 40.3125 47.296875 39.53125 46.703125 39.0625 45.953125 C 38.46875 45.015625 38.46875 43.703125 38.46875 42.984375 Z M 38.46875 42.984375 "/>
<path style=" stroke:none;fill-rule:nonzero;fill:rgb(0%,0%,0%);fill-opacity:1;" d="M 53.386719 40.890625 C 53.886719 39.609375 54.917969 39.609375 55.230469 39.609375 L 55.230469 38.984375 C 54.761719 39.015625 54.199219 39.046875 53.730469 39.046875 C 53.386719 39.046875 52.449219 39.015625 52.011719 38.984375 L 52.011719 39.609375 C 52.636719 39.609375 52.949219 39.953125 52.949219 40.453125 C 52.949219 40.671875 52.917969 40.703125 52.824219 40.953125 L 50.792969 45.828125 L 48.605469 40.484375 C 48.511719 40.265625 48.480469 40.203125 48.480469 40.109375 C 48.480469 39.609375 49.199219 39.609375 49.605469 39.609375 L 49.605469 38.984375 C 49.074219 39.015625 47.761719 39.046875 47.417969 39.046875 C 46.886719 39.046875 46.074219 39.015625 45.480469 38.984375 L 45.480469 39.609375 C 46.449219 39.609375 46.824219 39.609375 47.105469 40.296875 L 50.105469 47.578125 C 49.980469 47.828125 49.699219 48.484375 49.605469 48.765625 C 49.167969 49.859375 48.605469 51.234375 47.324219 51.234375 C 47.230469 51.234375 46.761719 51.234375 46.386719 50.859375 C 47.011719 50.796875 47.167969 50.359375 47.167969 50.015625 C 47.167969 49.515625 46.792969 49.203125 46.324219 49.203125 C 45.917969 49.203125 45.480469 49.453125 45.480469 50.046875 C 45.480469 50.953125 46.324219 51.671875 47.324219 51.671875 C 48.574219 51.671875 49.386719 50.515625 49.855469 49.390625 Z M 53.386719 40.890625 "/>
</g>
</svg>
