<?xml version="1.0" encoding="UTF-8"?>
<svg xmlns="http://www.w3.org/2000/svg" xmlns:xlink="http://www.w3.org/1999/xlink" width="279.325348pt" height="317.45879pt" viewBox="0 0 279.325348 317.45879" version="1.1">
<g id="surface61">
<path style="fill:none;stroke-width:0.566929;stroke-linecap:butt;stroke-linejoin:miter;stroke:rgb(100%,0%,0%);stroke-opacity:0.5;stroke-miterlimit:10;" d="M -2.834646 2.835276 L 2.835276 -2.834646 " transform="matrix(2,0,0,2,5.669291,5.669291)"/>
<path style="fill:none;stroke-width:0.566929;stroke-linecap:butt;stroke-linejoin:miter;stroke:rgb(100%,0%,0%);stroke-opacity:0.5;stroke-miterlimit:10;" d="M 2.835276 2.835276 L -2.834646 -2.834646 " transform="matrix(2,0,0,2,5.669291,5.669291)"/>
<path style="fill-rule:nonzero;fill:rgb(50%,50%,0%);fill-opacity:0.1;stroke-width:0.566929;stroke-linecap:butt;stroke-linejoin:miter;stroke:rgb(100%,0%,0%);stroke-opacity:0.5;stroke-miterlimit:10;" d="M -0.000661294 155.89387 L 136.827464 155.89387 L 136.827464 -0.000661294 L -0.000661294 -0.000661294 Z M -0.000661294 155.89387 " transform="matrix(2,0,0,2,5.669291,5.669291)"/>
<path style="fill:none;stroke-width:0.566929;stroke-linecap:butt;stroke-linejoin:miter;stroke:rgb(100%,0%,0%);stroke-opacity:0.5;stroke-miterlimit:10;" d="M 16.856761 27.653636 L 22.526682 21.983714 " transform="matrix(2,0,0,2,5.669291,5.669291)"/>
<path style="fill:none;stroke-width:0.566929;stroke-linecap:butt;stroke-linejoin:miter;stroke:rgb(100%,0%,0%);stroke-opacity:0.5;stroke-miterlimit:10;" d="M 22.526682 27.653636 L 16.856761 21.983714 " transform="matrix(2,0,0,2,5.669291,5.669291)"/>
<path style="fill-rule:nonzero;fill:rgb(50%,50%,0%);fill-opacity:0.1;stroke-width:0.566929;stroke-linecap:butt;stroke-linejoin:miter;stroke:rgb(100%,0%,0%);stroke-opacity:0.5;stroke-miterlimit:10;" d="M 4.485667 47.67512 L 31.233714 47.67512 L 31.233714 -0.000661294 L 4.485667 -0.000661294 Z M 4.485667 47.67512 " transform="matrix(2,0,0,2,5.669291,5.669291)"/>
<path style="fill:none;stroke-width:0.566929;stroke-linecap:butt;stroke-linejoin:miter;stroke:rgb(100%,0%,0%);stroke-opacity:0.5;stroke-miterlimit:10;" d="M 60.423167 27.653636 L 66.091136 21.983714 " transform="matrix(2,0,0,2,5.669291,5.669291)"/>
<path style="fill:none;stroke-width:0.566929;stroke-linecap:butt;stroke-linejoin:miter;stroke:rgb(100%,0%,0%);stroke-opacity:0.5;stroke-miterlimit:10;" d="M 66.091136 27.653636 L 60.423167 21.983714 " transform="matrix(2,0,0,2,5.669291,5.669291)"/>
<path style="fill-rule:nonzero;fill:rgb(50%,50%,0%);fill-opacity:0.1;stroke-width:0.566929;stroke-linecap:butt;stroke-linejoin:miter;stroke:rgb(100%,0%,0%);stroke-opacity:0.5;stroke-miterlimit:10;" d="M 39.813792 39.671214 L 75.804026 39.671214 L 75.804026 7.554026 L 39.813792 7.554026 Z M 39.813792 39.671214 " transform="matrix(2,0,0,2,5.669291,5.669291)"/>
<path style="fill:none;stroke-width:0.566929;stroke-linecap:butt;stroke-linejoin:miter;stroke:rgb(100%,0%,0%);stroke-opacity:0.5;stroke-miterlimit:10;" d="M 112.813792 27.653636 L 118.481761 21.983714 " transform="matrix(2,0,0,2,5.669291,5.669291)"/>
<path style="fill:none;stroke-width:0.566929;stroke-linecap:butt;stroke-linejoin:miter;stroke:rgb(100%,0%,0%);stroke-opacity:0.5;stroke-miterlimit:10;" d="M 118.481761 27.653636 L 112.813792 21.983714 " transform="matrix(2,0,0,2,5.669291,5.669291)"/>
<path style="fill-rule:nonzero;fill:rgb(50%,50%,0%);fill-opacity:0.1;stroke-width:0.566929;stroke-linecap:butt;stroke-linejoin:miter;stroke:rgb(100%,0%,0%);stroke-opacity:0.5;stroke-miterlimit:10;" d="M 89.386057 43.718089 L 132.763011 43.718089 L 132.763011 8.341136 L 89.386057 8.341136 Z M 89.386057 43.718089 " transform="matrix(2,0,0,2,5.669291,5.669291)"/>
<path style="fill:none;stroke-width:0.566929;stroke-linecap:butt;stroke-linejoin:miter;stroke:rgb(100%,0%,0%);stroke-opacity:0.5;stroke-miterlimit:10;" d="M 16.856761 76.809886 L 22.526682 71.141917 " transform="matrix(2,0,0,2,5.669291,5.669291)"/>
<path style="fill:none;stroke-width:0.566929;stroke-linecap:butt;stroke-linejoin:miter;stroke:rgb(100%,0%,0%);stroke-opacity:0.5;stroke-miterlimit:10;" d="M 22.526682 76.809886 L 16.856761 71.141917 " transform="matrix(2,0,0,2,5.669291,5.669291)"/>
<path style="fill-rule:nonzero;fill:rgb(50%,50%,0%);fill-opacity:0.1;stroke-width:0.566929;stroke-linecap:butt;stroke-linejoin:miter;stroke:rgb(100%,0%,0%);stroke-opacity:0.5;stroke-miterlimit:10;" d="M -0.000661294 96.784495 L 31.042307 96.784495 L 31.042307 61.915354 L -0.000661294 61.915354 Z M -0.000661294 96.784495 " transform="matrix(2,0,0,2,5.669291,5.669291)"/>
<path style="fill:none;stroke-width:0.566929;stroke-linecap:butt;stroke-linejoin:miter;stroke:rgb(100%,0%,0%);stroke-opacity:0.5;stroke-miterlimit:10;" d="M 60.423167 76.809886 L 66.091136 71.141917 " transform="matrix(2,0,0,2,5.669291,5.669291)"/>
<path style="fill:none;stroke-width:0.566929;stroke-linecap:butt;stroke-linejoin:miter;stroke:rgb(100%,0%,0%);stroke-opacity:0.5;stroke-miterlimit:10;" d="M 66.091136 76.809886 L 60.423167 71.141917 " transform="matrix(2,0,0,2,5.669291,5.669291)"/>
<path style="fill-rule:nonzero;fill:rgb(50%,50%,0%);fill-opacity:0.1;stroke-width:0.566929;stroke-linecap:butt;stroke-linejoin:miter;stroke:rgb(100%,0%,0%);stroke-opacity:0.5;stroke-miterlimit:10;" d="M 39.214182 101.930979 L 89.386057 101.930979 L 89.386057 47.67512 L 39.214182 47.67512 Z M 39.214182 101.930979 " transform="matrix(2,0,0,2,5.669291,5.669291)"/>
<path style="fill:none;stroke-width:0.566929;stroke-linecap:butt;stroke-linejoin:miter;stroke:rgb(100%,0%,0%);stroke-opacity:0.5;stroke-miterlimit:10;" d="M 112.813792 76.809886 L 118.481761 71.141917 " transform="matrix(2,0,0,2,5.669291,5.669291)"/>
<path style="fill:none;stroke-width:0.566929;stroke-linecap:butt;stroke-linejoin:miter;stroke:rgb(100%,0%,0%);stroke-opacity:0.5;stroke-miterlimit:10;" d="M 118.481761 76.809886 L 112.813792 71.141917 " transform="matrix(2,0,0,2,5.669291,5.669291)"/>
<path style="fill-rule:nonzero;fill:rgb(50%,50%,0%);fill-opacity:0.1;stroke-width:0.566929;stroke-linecap:butt;stroke-linejoin:miter;stroke:rgb(100%,0%,0%);stroke-opacity:0.5;stroke-miterlimit:10;" d="M 89.595042 96.194651 L 136.827464 96.194651 L 136.827464 61.272776 L 89.595042 61.272776 Z M 89.595042 96.194651 " transform="matrix(2,0,0,2,5.669291,5.669291)"/>
<path style="fill:none;stroke-width:0.566929;stroke-linecap:butt;stroke-linejoin:miter;stroke:rgb(100%,0%,0%);stroke-opacity:0.5;stroke-miterlimit:10;" d="M 16.856761 131.139964 L 22.526682 125.470042 " transform="matrix(2,0,0,2,5.669291,5.669291)"/>
<path style="fill:none;stroke-width:0.566929;stroke-linecap:butt;stroke-linejoin:miter;stroke:rgb(100%,0%,0%);stroke-opacity:0.5;stroke-miterlimit:10;" d="M 22.526682 131.139964 L 16.856761 125.470042 " transform="matrix(2,0,0,2,5.669291,5.669291)"/>
<path style="fill-rule:nonzero;fill:rgb(50%,50%,0%);fill-opacity:0.1;stroke-width:0.566929;stroke-linecap:butt;stroke-linejoin:miter;stroke:rgb(100%,0%,0%);stroke-opacity:0.5;stroke-miterlimit:10;" d="M 4.177073 136.259104 L 39.214182 136.259104 L 39.214182 111.929026 L 4.177073 111.929026 Z M 4.177073 136.259104 " transform="matrix(2,0,0,2,5.669291,5.669291)"/>
<path style="fill:none;stroke-width:0.566929;stroke-linecap:butt;stroke-linejoin:miter;stroke:rgb(100%,0%,0%);stroke-opacity:0.5;stroke-miterlimit:10;" d="M 60.423167 131.139964 L 66.091136 125.470042 " transform="matrix(2,0,0,2,5.669291,5.669291)"/>
<path style="fill:none;stroke-width:0.566929;stroke-linecap:butt;stroke-linejoin:miter;stroke:rgb(100%,0%,0%);stroke-opacity:0.5;stroke-miterlimit:10;" d="M 66.091136 131.139964 L 60.423167 125.470042 " transform="matrix(2,0,0,2,5.669291,5.669291)"/>
<path style="fill-rule:nonzero;fill:rgb(50%,50%,0%);fill-opacity:0.1;stroke-width:0.566929;stroke-linecap:butt;stroke-linejoin:miter;stroke:rgb(100%,0%,0%);stroke-opacity:0.5;stroke-miterlimit:10;" d="M 46.770823 155.89387 L 88.55012 155.89387 L 88.55012 101.930979 L 46.770823 101.930979 Z M 46.770823 155.89387 " transform="matrix(2,0,0,2,5.669291,5.669291)"/>
<path style="fill:none;stroke-width:0.566929;stroke-linecap:butt;stroke-linejoin:miter;stroke:rgb(100%,0%,0%);stroke-opacity:0.5;stroke-miterlimit:10;" d="M 112.813792 131.139964 L 118.481761 125.470042 " transform="matrix(2,0,0,2,5.669291,5.669291)"/>
<path style="fill:none;stroke-width:0.566929;stroke-linecap:butt;stroke-linejoin:miter;stroke:rgb(100%,0%,0%);stroke-opacity:0.5;stroke-miterlimit:10;" d="M 118.481761 131.139964 L 112.813792 125.470042 " transform="matrix(2,0,0,2,5.669291,5.669291)"/>
<path style="fill-rule:nonzero;fill:rgb(50%,50%,0%);fill-opacity:0.1;stroke-width:0.566929;stroke-linecap:butt;stroke-linejoin:miter;stroke:rgb(100%,0%,0%);stroke-opacity:0.5;stroke-miterlimit:10;" d="M 97.536448 152.229807 L 121.636057 152.229807 L 121.636057 116.729807 L 97.536448 116.729807 Z M 97.536448 152.229807 " transform="matrix(2,0,0,2,5.669291,5.669291)"/>
</g>
</svg>
