<?xml version="1.0" encoding="UTF-8"?>
<svg xmlns="http://www.w3.org/2000/svg" xmlns:xlink="http://www.w3.org/1999/xlink" width="84.422893pt" height="73.182333pt" viewBox="0 0 84.422893 73.182333" version="1.1">
<g id="surface45">
<path style="fill:none;stroke-width:0.566929;stroke-linecap:butt;stroke-linejoin:miter;stroke:rgb(100%,0%,0%);stroke-opacity:0.5;stroke-miterlimit:10;" d="M -2.834646 2.835276 L 2.835276 -2.834646 " transform="matrix(2,0,0,2,6.169291,6.169291)"/>
<path style="fill:none;stroke-width:0.566929;stroke-linecap:butt;stroke-linejoin:miter;stroke:rgb(100%,0%,0%);stroke-opacity:0.5;stroke-miterlimit:10;" d="M 2.835276 2.835276 L -2.834646 -2.834646 " transform="matrix(2,0,0,2,6.169291,6.169291)"/>
<path style="fill-rule:nonzero;fill:rgb(50%,50%,0%);fill-opacity:0.1;stroke-width:0.566929;stroke-linecap:butt;stroke-linejoin:miter;stroke:rgb(100%,0%,0%);stroke-opacity:0.5;stroke-miterlimit:10;" d="M -0.000661294 30.671214 L 38.876292 30.671214 L 38.876292 -0.000661294 L -0.000661294 -0.000661294 Z M -0.000661294 30.671214 " transform="matrix(2,0,0,2,6.169291,6.169291)"/>
<path style="fill:none;stroke-width:0.566929;stroke-linecap:butt;stroke-linejoin:miter;stroke:rgb(100%,0%,0%);stroke-opacity:0.5;stroke-miterlimit:10;" d="M -2.834646 2.835276 L 2.835276 -2.834646 " transform="matrix(2,0,0,2,6.169291,6.169291)"/>
<path style="fill:none;stroke-width:0.566929;stroke-linecap:butt;stroke-linejoin:miter;stroke:rgb(100%,0%,0%);stroke-opacity:0.5;stroke-miterlimit:10;" d="M 2.835276 2.835276 L -2.834646 -2.834646 " transform="matrix(2,0,0,2,6.169291,6.169291)"/>
<path style="fill-rule:nonzero;fill:rgb(50%,50%,0%);fill-opacity:0.1;stroke-width:0.566929;stroke-linecap:butt;stroke-linejoin:miter;stroke:rgb(100%,0%,0%);stroke-opacity:0.5;stroke-miterlimit:10;" d="M -0.000661294 30.671214 L 21.212229 30.671214 L 21.212229 -0.000661294 L -0.000661294 -0.000661294 Z M -0.000661294 30.671214 " transform="matrix(2,0,0,2,6.169291,6.169291)"/>
<path style="fill:none;stroke-width:0.566929;stroke-linecap:butt;stroke-linejoin:miter;stroke:rgb(100%,0%,0%);stroke-opacity:0.5;stroke-miterlimit:10;" d="M -2.834646 10.475901 L 2.835276 4.805979 " transform="matrix(2,0,0,2,6.169291,6.169291)"/>
<path style="fill:none;stroke-width:0.566929;stroke-linecap:butt;stroke-linejoin:miter;stroke:rgb(100%,0%,0%);stroke-opacity:0.5;stroke-miterlimit:10;" d="M 2.835276 10.475901 L -2.834646 4.805979 " transform="matrix(2,0,0,2,6.169291,6.169291)"/>
<path style="fill-rule:nonzero;fill:rgb(50%,50%,0%);fill-opacity:0.1;stroke-width:0.566929;stroke-linecap:butt;stroke-linejoin:miter;stroke:rgb(100%,0%,0%);stroke-opacity:0.5;stroke-miterlimit:10;" d="M -0.000661294 7.639964 L 20.821604 7.639964 L 20.821604 -0.000661294 L -0.000661294 -0.000661294 Z M -0.000661294 7.639964 " transform="matrix(2,0,0,2,6.169291,6.169291)"/>
<path style=" stroke:none;fill-rule:nonzero;fill:rgb(0%,0%,0%);fill-opacity:1;" d="M 12.636719 15.761719 C 13.230469 15.011719 13.980469 14.042969 14.480469 13.511719 C 15.105469 12.792969 15.917969 12.480469 16.855469 12.480469 L 16.855469 11.855469 C 16.324219 11.886719 15.730469 11.917969 15.199219 11.917969 C 14.605469 11.917969 13.542969 11.886719 13.292969 11.855469 L 13.292969 12.480469 C 13.730469 12.511719 13.886719 12.761719 13.886719 13.105469 C 13.886719 13.417969 13.667969 13.667969 13.574219 13.792969 L 12.355469 15.355469 L 10.792969 13.324219 C 10.605469 13.136719 10.605469 13.105469 10.605469 12.980469 C 10.605469 12.667969 10.917969 12.480469 11.292969 12.480469 L 11.292969 11.855469 C 10.792969 11.886719 9.480469 11.917969 9.136719 11.917969 C 8.730469 11.917969 7.792969 11.886719 7.261719 11.855469 L 7.261719 12.480469 C 8.667969 12.480469 8.667969 12.480469 9.605469 13.699219 L 11.574219 16.261719 L 9.699219 18.636719 C 8.761719 19.792969 7.574219 19.824219 7.167969 19.824219 L 7.167969 20.449219 C 7.667969 20.417969 8.292969 20.386719 8.824219 20.386719 C 9.386719 20.386719 10.230469 20.417969 10.699219 20.449219 L 10.699219 19.824219 C 10.261719 19.761719 10.136719 19.511719 10.136719 19.199219 C 10.136719 18.761719 10.699219 18.105469 11.917969 16.667969 L 13.449219 18.667969 C 13.605469 18.886719 13.855469 19.199219 13.855469 19.324219 C 13.855469 19.511719 13.667969 19.824219 13.136719 19.824219 L 13.136719 20.449219 C 13.730469 20.417969 14.855469 20.386719 15.292969 20.386719 C 15.824219 20.386719 16.605469 20.417969 17.199219 20.449219 L 17.199219 19.824219 C 16.136719 19.824219 15.761719 19.792969 15.324219 19.199219 Z M 12.636719 15.761719 "/>
<path style=" stroke:none;fill-rule:nonzero;fill:rgb(0%,0%,0%);fill-opacity:1;" d="M 23.15625 15.761719 C 23.75 15.011719 24.5 14.042969 25 13.511719 C 25.625 12.792969 26.4375 12.480469 27.375 12.480469 L 27.375 11.855469 C 26.84375 11.886719 26.25 11.917969 25.71875 11.917969 C 25.125 11.917969 24.0625 11.886719 23.8125 11.855469 L 23.8125 12.480469 C 24.25 12.511719 24.40625 12.761719 24.40625 13.105469 C 24.40625 13.417969 24.1875 13.667969 24.09375 13.792969 L 22.875 15.355469 L 21.3125 13.324219 C 21.125 13.136719 21.125 13.105469 21.125 12.980469 C 21.125 12.667969 21.4375 12.480469 21.8125 12.480469 L 21.8125 11.855469 C 21.3125 11.886719 20 11.917969 19.65625 11.917969 C 19.25 11.917969 18.3125 11.886719 17.78125 11.855469 L 17.78125 12.480469 C 19.1875 12.480469 19.1875 12.480469 20.125 13.699219 L 22.09375 16.261719 L 20.21875 18.636719 C 19.28125 19.792969 18.09375 19.824219 17.6875 19.824219 L 17.6875 20.449219 C 18.1875 20.417969 18.8125 20.386719 19.34375 20.386719 C 19.90625 20.386719 20.75 20.417969 21.21875 20.449219 L 21.21875 19.824219 C 20.78125 19.761719 20.65625 19.511719 20.65625 19.199219 C 20.65625 18.761719 21.21875 18.105469 22.4375 16.667969 L 23.96875 18.667969 C 24.125 18.886719 24.375 19.199219 24.375 19.324219 C 24.375 19.511719 24.1875 19.824219 23.65625 19.824219 L 23.65625 20.449219 C 24.25 20.417969 25.375 20.386719 25.8125 20.386719 C 26.34375 20.386719 27.125 20.417969 27.71875 20.449219 L 27.71875 19.824219 C 26.65625 19.824219 26.28125 19.792969 25.84375 19.199219 Z M 23.15625 15.761719 "/>
<path style=" stroke:none;fill-rule:nonzero;fill:rgb(0%,0%,0%);fill-opacity:1;" d="M 33.671875 15.761719 C 34.265625 15.011719 35.015625 14.042969 35.515625 13.511719 C 36.140625 12.792969 36.953125 12.480469 37.890625 12.480469 L 37.890625 11.855469 C 37.359375 11.886719 36.765625 11.917969 36.234375 11.917969 C 35.640625 11.917969 34.578125 11.886719 34.328125 11.855469 L 34.328125 12.480469 C 34.765625 12.511719 34.921875 12.761719 34.921875 13.105469 C 34.921875 13.417969 34.703125 13.667969 34.609375 13.792969 L 33.390625 15.355469 L 31.828125 13.324219 C 31.640625 13.136719 31.640625 13.105469 31.640625 12.980469 C 31.640625 12.667969 31.953125 12.480469 32.328125 12.480469 L 32.328125 11.855469 C 31.828125 11.886719 30.515625 11.917969 30.171875 11.917969 C 29.765625 11.917969 28.828125 11.886719 28.296875 11.855469 L 28.296875 12.480469 C 29.703125 12.480469 29.703125 12.480469 30.640625 13.699219 L 32.609375 16.261719 L 30.734375 18.636719 C 29.796875 19.792969 28.609375 19.824219 28.203125 19.824219 L 28.203125 20.449219 C 28.703125 20.417969 29.328125 20.386719 29.859375 20.386719 C 30.421875 20.386719 31.265625 20.417969 31.734375 20.449219 L 31.734375 19.824219 C 31.296875 19.761719 31.171875 19.511719 31.171875 19.199219 C 31.171875 18.761719 31.734375 18.105469 32.953125 16.667969 L 34.484375 18.667969 C 34.640625 18.886719 34.890625 19.199219 34.890625 19.324219 C 34.890625 19.511719 34.703125 19.824219 34.171875 19.824219 L 34.171875 20.449219 C 34.765625 20.417969 35.890625 20.386719 36.328125 20.386719 C 36.859375 20.386719 37.640625 20.417969 38.234375 20.449219 L 38.234375 19.824219 C 37.171875 19.824219 36.796875 19.792969 36.359375 19.199219 Z M 33.671875 15.761719 "/>
<path style=" stroke:none;fill-rule:nonzero;fill:rgb(0%,0%,0%);fill-opacity:1;" d="M 44.34375 7.699219 C 44.34375 7.199219 44.34375 7.167969 43.875 7.167969 C 42.625 8.449219 40.875 8.449219 40.25 8.449219 L 40.25 9.074219 C 40.65625 9.074219 41.8125 9.074219 42.84375 8.542969 L 42.84375 18.886719 C 42.84375 19.605469 42.78125 19.824219 41 19.824219 L 40.375 19.824219 L 40.375 20.449219 C 41.0625 20.386719 42.78125 20.386719 43.59375 20.386719 C 44.375 20.386719 46.125 20.386719 46.8125 20.449219 L 46.8125 19.824219 L 46.1875 19.824219 C 44.375 19.824219 44.34375 19.605469 44.34375 18.886719 Z M 44.34375 7.699219 "/>
<path style="fill:none;stroke-width:0.566929;stroke-linecap:butt;stroke-linejoin:miter;stroke:rgb(100%,0%,0%);stroke-opacity:0.5;stroke-miterlimit:10;" d="M -2.834646 18.116526 L 2.835276 12.446604 " transform="matrix(2,0,0,2,6.169291,6.169291)"/>
<path style="fill:none;stroke-width:0.566929;stroke-linecap:butt;stroke-linejoin:miter;stroke:rgb(100%,0%,0%);stroke-opacity:0.5;stroke-miterlimit:10;" d="M 2.835276 18.116526 L -2.834646 12.446604 " transform="matrix(2,0,0,2,6.169291,6.169291)"/>
<path style="fill-rule:nonzero;fill:rgb(50%,50%,0%);fill-opacity:0.1;stroke-width:0.566929;stroke-linecap:butt;stroke-linejoin:miter;stroke:rgb(100%,0%,0%);stroke-opacity:0.5;stroke-miterlimit:10;" d="M -0.000661294 15.280589 L 20.132151 15.280589 L 20.132151 7.639964 L -0.000661294 7.639964 Z M -0.000661294 15.280589 " transform="matrix(2,0,0,2,6.169291,6.169291)"/>
<path style=" stroke:none;fill-rule:nonzero;fill:rgb(0%,0%,0%);fill-opacity:1;" d="M 11.042969 32.292969 C 9.292969 32.292969 9.292969 30.292969 9.292969 29.855469 C 9.292969 29.324219 9.324219 28.667969 9.605469 28.167969 C 9.761719 27.949219 10.230469 27.386719 11.042969 27.386719 C 12.761719 27.386719 12.761719 29.355469 12.761719 29.824219 C 12.761719 30.355469 12.761719 31.011719 12.449219 31.511719 C 12.292969 31.730469 11.824219 32.292969 11.042969 32.292969 Z M 8.730469 33.074219 C 8.730469 33.011719 8.730469 32.542969 9.042969 32.136719 C 9.824219 32.699219 10.667969 32.761719 11.042969 32.761719 C 12.886719 32.761719 14.261719 31.386719 14.261719 29.855469 C 14.261719 29.105469 13.949219 28.386719 13.449219 27.917969 C 14.167969 27.230469 14.886719 27.136719 15.230469 27.136719 C 15.292969 27.136719 15.386719 27.136719 15.449219 27.167969 C 15.230469 27.230469 15.105469 27.449219 15.105469 27.699219 C 15.105469 28.042969 15.386719 28.261719 15.699219 28.261719 C 15.886719 28.261719 16.261719 28.136719 16.261719 27.667969 C 16.261719 27.324219 16.042969 26.699219 15.261719 26.699219 C 14.855469 26.699219 13.980469 26.824219 13.136719 27.636719 C 12.292969 26.980469 11.480469 26.917969 11.042969 26.917969 C 9.167969 26.917969 7.792969 28.292969 7.792969 29.824219 C 7.792969 30.699219 8.230469 31.449219 8.730469 31.886719 C 8.480469 32.167969 8.105469 32.824219 8.105469 33.542969 C 8.105469 34.167969 8.386719 34.917969 9.011719 35.324219 C 7.792969 35.636719 7.167969 36.511719 7.167969 37.292969 C 7.167969 38.730469 9.136719 39.824219 11.574219 39.824219 C 13.917969 39.824219 15.980469 38.824219 15.980469 37.261719 C 15.980469 36.574219 15.730469 35.542969 14.699219 34.980469 C 13.636719 34.449219 12.480469 34.449219 11.261719 34.449219 C 10.761719 34.449219 9.917969 34.449219 9.761719 34.417969 C 9.136719 34.324219 8.730469 33.730469 8.730469 33.074219 Z M 11.605469 39.386719 C 9.574219 39.386719 8.199219 38.355469 8.199219 37.292969 C 8.199219 36.386719 8.949219 35.636719 9.824219 35.605469 L 11.011719 35.605469 C 12.730469 35.605469 14.949219 35.605469 14.949219 37.292969 C 14.949219 38.386719 13.542969 39.386719 11.605469 39.386719 Z M 11.605469 39.386719 "/>
<path style=" stroke:none;fill-rule:nonzero;fill:rgb(0%,0%,0%);fill-opacity:1;" d="M 21.007812 32.292969 C 19.257812 32.292969 19.257812 30.292969 19.257812 29.855469 C 19.257812 29.324219 19.289062 28.667969 19.570312 28.167969 C 19.726562 27.949219 20.195312 27.386719 21.007812 27.386719 C 22.726562 27.386719 22.726562 29.355469 22.726562 29.824219 C 22.726562 30.355469 22.726562 31.011719 22.414062 31.511719 C 22.257812 31.730469 21.789062 32.292969 21.007812 32.292969 Z M 18.695312 33.074219 C 18.695312 33.011719 18.695312 32.542969 19.007812 32.136719 C 19.789062 32.699219 20.632812 32.761719 21.007812 32.761719 C 22.851562 32.761719 24.226562 31.386719 24.226562 29.855469 C 24.226562 29.105469 23.914062 28.386719 23.414062 27.917969 C 24.132812 27.230469 24.851562 27.136719 25.195312 27.136719 C 25.257812 27.136719 25.351562 27.136719 25.414062 27.167969 C 25.195312 27.230469 25.070312 27.449219 25.070312 27.699219 C 25.070312 28.042969 25.351562 28.261719 25.664062 28.261719 C 25.851562 28.261719 26.226562 28.136719 26.226562 27.667969 C 26.226562 27.324219 26.007812 26.699219 25.226562 26.699219 C 24.820312 26.699219 23.945312 26.824219 23.101562 27.636719 C 22.257812 26.980469 21.445312 26.917969 21.007812 26.917969 C 19.132812 26.917969 17.757812 28.292969 17.757812 29.824219 C 17.757812 30.699219 18.195312 31.449219 18.695312 31.886719 C 18.445312 32.167969 18.070312 32.824219 18.070312 33.542969 C 18.070312 34.167969 18.351562 34.917969 18.976562 35.324219 C 17.757812 35.636719 17.132812 36.511719 17.132812 37.292969 C 17.132812 38.730469 19.101562 39.824219 21.539062 39.824219 C 23.882812 39.824219 25.945312 38.824219 25.945312 37.261719 C 25.945312 36.574219 25.695312 35.542969 24.664062 34.980469 C 23.601562 34.449219 22.445312 34.449219 21.226562 34.449219 C 20.726562 34.449219 19.882812 34.449219 19.726562 34.417969 C 19.101562 34.324219 18.695312 33.730469 18.695312 33.074219 Z M 21.570312 39.386719 C 19.539062 39.386719 18.164062 38.355469 18.164062 37.292969 C 18.164062 36.386719 18.914062 35.636719 19.789062 35.605469 L 20.976562 35.605469 C 22.695312 35.605469 24.914062 35.605469 24.914062 37.292969 C 24.914062 38.386719 23.507812 39.386719 21.570312 39.386719 Z M 21.570312 39.386719 "/>
<path style=" stroke:none;fill-rule:nonzero;fill:rgb(0%,0%,0%);fill-opacity:1;" d="M 30.96875 32.292969 C 29.21875 32.292969 29.21875 30.292969 29.21875 29.855469 C 29.21875 29.324219 29.25 28.667969 29.53125 28.167969 C 29.6875 27.949219 30.15625 27.386719 30.96875 27.386719 C 32.6875 27.386719 32.6875 29.355469 32.6875 29.824219 C 32.6875 30.355469 32.6875 31.011719 32.375 31.511719 C 32.21875 31.730469 31.75 32.292969 30.96875 32.292969 Z M 28.65625 33.074219 C 28.65625 33.011719 28.65625 32.542969 28.96875 32.136719 C 29.75 32.699219 30.59375 32.761719 30.96875 32.761719 C 32.8125 32.761719 34.1875 31.386719 34.1875 29.855469 C 34.1875 29.105469 33.875 28.386719 33.375 27.917969 C 34.09375 27.230469 34.8125 27.136719 35.15625 27.136719 C 35.21875 27.136719 35.3125 27.136719 35.375 27.167969 C 35.15625 27.230469 35.03125 27.449219 35.03125 27.699219 C 35.03125 28.042969 35.3125 28.261719 35.625 28.261719 C 35.8125 28.261719 36.1875 28.136719 36.1875 27.667969 C 36.1875 27.324219 35.96875 26.699219 35.1875 26.699219 C 34.78125 26.699219 33.90625 26.824219 33.0625 27.636719 C 32.21875 26.980469 31.40625 26.917969 30.96875 26.917969 C 29.09375 26.917969 27.71875 28.292969 27.71875 29.824219 C 27.71875 30.699219 28.15625 31.449219 28.65625 31.886719 C 28.40625 32.167969 28.03125 32.824219 28.03125 33.542969 C 28.03125 34.167969 28.3125 34.917969 28.9375 35.324219 C 27.71875 35.636719 27.09375 36.511719 27.09375 37.292969 C 27.09375 38.730469 29.0625 39.824219 31.5 39.824219 C 33.84375 39.824219 35.90625 38.824219 35.90625 37.261719 C 35.90625 36.574219 35.65625 35.542969 34.625 34.980469 C 33.5625 34.449219 32.40625 34.449219 31.1875 34.449219 C 30.6875 34.449219 29.84375 34.449219 29.6875 34.417969 C 29.0625 34.324219 28.65625 33.730469 28.65625 33.074219 Z M 31.53125 39.386719 C 29.5 39.386719 28.125 38.355469 28.125 37.292969 C 28.125 36.386719 28.875 35.636719 29.75 35.605469 L 30.9375 35.605469 C 32.65625 35.605469 34.875 35.605469 34.875 37.292969 C 34.875 38.386719 33.46875 39.386719 31.53125 39.386719 Z M 31.53125 39.386719 "/>
<path style=" stroke:none;fill-rule:nonzero;fill:rgb(0%,0%,0%);fill-opacity:1;" d="M 39.027344 34.199219 L 41.152344 32.136719 C 44.246094 29.386719 45.433594 28.324219 45.433594 26.324219 C 45.433594 24.042969 43.652344 22.449219 41.214844 22.449219 C 38.964844 22.449219 37.496094 24.292969 37.496094 26.074219 C 37.496094 27.167969 38.496094 27.167969 38.558594 27.167969 C 38.902344 27.167969 39.589844 26.949219 39.589844 26.105469 C 39.589844 25.605469 39.214844 25.074219 38.527344 25.074219 C 38.371094 25.074219 38.339844 25.074219 38.277344 25.105469 C 38.714844 23.792969 39.808594 23.074219 40.964844 23.074219 C 42.777344 23.074219 43.621094 24.699219 43.621094 26.324219 C 43.621094 27.917969 42.652344 29.480469 41.527344 30.730469 L 37.714844 34.980469 C 37.496094 35.199219 37.496094 35.261719 37.496094 35.730469 L 44.902344 35.730469 L 45.433594 32.261719 L 44.964844 32.261719 C 44.839844 32.855469 44.714844 33.730469 44.496094 34.042969 C 44.371094 34.199219 43.058594 34.199219 42.621094 34.199219 Z M 39.027344 34.199219 "/>
<path style="fill:none;stroke-width:0.566929;stroke-linecap:butt;stroke-linejoin:miter;stroke:rgb(100%,0%,0%);stroke-opacity:0.5;stroke-miterlimit:10;" d="M -2.834646 25.757151 L 2.835276 20.087229 " transform="matrix(2,0,0,2,6.169291,6.169291)"/>
<path style="fill:none;stroke-width:0.566929;stroke-linecap:butt;stroke-linejoin:miter;stroke:rgb(100%,0%,0%);stroke-opacity:0.5;stroke-miterlimit:10;" d="M 2.835276 25.757151 L -2.834646 20.087229 " transform="matrix(2,0,0,2,6.169291,6.169291)"/>
<path style="fill-rule:nonzero;fill:rgb(50%,50%,0%);fill-opacity:0.1;stroke-width:0.566929;stroke-linecap:butt;stroke-linejoin:miter;stroke:rgb(100%,0%,0%);stroke-opacity:0.5;stroke-miterlimit:10;" d="M -0.000661294 22.921214 L 21.212229 22.921214 L 21.212229 15.280589 L -0.000661294 15.280589 Z M -0.000661294 22.921214 " transform="matrix(2,0,0,2,6.169291,6.169291)"/>
<path style=" stroke:none;fill-rule:nonzero;fill:rgb(0%,0%,0%);fill-opacity:1;" d="M 12.636719 46.324219 C 13.230469 45.574219 13.980469 44.605469 14.480469 44.074219 C 15.105469 43.355469 15.917969 43.042969 16.855469 43.042969 L 16.855469 42.417969 C 16.324219 42.449219 15.730469 42.480469 15.199219 42.480469 C 14.605469 42.480469 13.542969 42.449219 13.292969 42.417969 L 13.292969 43.042969 C 13.730469 43.074219 13.886719 43.324219 13.886719 43.667969 C 13.886719 43.980469 13.667969 44.230469 13.574219 44.355469 L 12.355469 45.917969 L 10.792969 43.886719 C 10.605469 43.699219 10.605469 43.667969 10.605469 43.542969 C 10.605469 43.230469 10.917969 43.042969 11.292969 43.042969 L 11.292969 42.417969 C 10.792969 42.449219 9.480469 42.480469 9.136719 42.480469 C 8.730469 42.480469 7.792969 42.449219 7.261719 42.417969 L 7.261719 43.042969 C 8.667969 43.042969 8.667969 43.042969 9.605469 44.261719 L 11.574219 46.824219 L 9.699219 49.199219 C 8.761719 50.355469 7.574219 50.386719 7.167969 50.386719 L 7.167969 51.011719 C 7.667969 50.980469 8.292969 50.949219 8.824219 50.949219 C 9.386719 50.949219 10.230469 50.980469 10.699219 51.011719 L 10.699219 50.386719 C 10.261719 50.324219 10.136719 50.074219 10.136719 49.761719 C 10.136719 49.324219 10.699219 48.667969 11.917969 47.230469 L 13.449219 49.230469 C 13.605469 49.449219 13.855469 49.761719 13.855469 49.886719 C 13.855469 50.074219 13.667969 50.386719 13.136719 50.386719 L 13.136719 51.011719 C 13.730469 50.980469 14.855469 50.949219 15.292969 50.949219 C 15.824219 50.949219 16.605469 50.980469 17.199219 51.011719 L 17.199219 50.386719 C 16.136719 50.386719 15.761719 50.355469 15.324219 49.761719 Z M 12.636719 46.324219 "/>
<path style=" stroke:none;fill-rule:nonzero;fill:rgb(0%,0%,0%);fill-opacity:1;" d="M 23.15625 46.324219 C 23.75 45.574219 24.5 44.605469 25 44.074219 C 25.625 43.355469 26.4375 43.042969 27.375 43.042969 L 27.375 42.417969 C 26.84375 42.449219 26.25 42.480469 25.71875 42.480469 C 25.125 42.480469 24.0625 42.449219 23.8125 42.417969 L 23.8125 43.042969 C 24.25 43.074219 24.40625 43.324219 24.40625 43.667969 C 24.40625 43.980469 24.1875 44.230469 24.09375 44.355469 L 22.875 45.917969 L 21.3125 43.886719 C 21.125 43.699219 21.125 43.667969 21.125 43.542969 C 21.125 43.230469 21.4375 43.042969 21.8125 43.042969 L 21.8125 42.417969 C 21.3125 42.449219 20 42.480469 19.65625 42.480469 C 19.25 42.480469 18.3125 42.449219 17.78125 42.417969 L 17.78125 43.042969 C 19.1875 43.042969 19.1875 43.042969 20.125 44.261719 L 22.09375 46.824219 L 20.21875 49.199219 C 19.28125 50.355469 18.09375 50.386719 17.6875 50.386719 L 17.6875 51.011719 C 18.1875 50.980469 18.8125 50.949219 19.34375 50.949219 C 19.90625 50.949219 20.75 50.980469 21.21875 51.011719 L 21.21875 50.386719 C 20.78125 50.324219 20.65625 50.074219 20.65625 49.761719 C 20.65625 49.324219 21.21875 48.667969 22.4375 47.230469 L 23.96875 49.230469 C 24.125 49.449219 24.375 49.761719 24.375 49.886719 C 24.375 50.074219 24.1875 50.386719 23.65625 50.386719 L 23.65625 51.011719 C 24.25 50.980469 25.375 50.949219 25.8125 50.949219 C 26.34375 50.949219 27.125 50.980469 27.71875 51.011719 L 27.71875 50.386719 C 26.65625 50.386719 26.28125 50.355469 25.84375 49.761719 Z M 23.15625 46.324219 "/>
<path style=" stroke:none;fill-rule:nonzero;fill:rgb(0%,0%,0%);fill-opacity:1;" d="M 33.671875 46.324219 C 34.265625 45.574219 35.015625 44.605469 35.515625 44.074219 C 36.140625 43.355469 36.953125 43.042969 37.890625 43.042969 L 37.890625 42.417969 C 37.359375 42.449219 36.765625 42.480469 36.234375 42.480469 C 35.640625 42.480469 34.578125 42.449219 34.328125 42.417969 L 34.328125 43.042969 C 34.765625 43.074219 34.921875 43.324219 34.921875 43.667969 C 34.921875 43.980469 34.703125 44.230469 34.609375 44.355469 L 33.390625 45.917969 L 31.828125 43.886719 C 31.640625 43.699219 31.640625 43.667969 31.640625 43.542969 C 31.640625 43.230469 31.953125 43.042969 32.328125 43.042969 L 32.328125 42.417969 C 31.828125 42.449219 30.515625 42.480469 30.171875 42.480469 C 29.765625 42.480469 28.828125 42.449219 28.296875 42.417969 L 28.296875 43.042969 C 29.703125 43.042969 29.703125 43.042969 30.640625 44.261719 L 32.609375 46.824219 L 30.734375 49.199219 C 29.796875 50.355469 28.609375 50.386719 28.203125 50.386719 L 28.203125 51.011719 C 28.703125 50.980469 29.328125 50.949219 29.859375 50.949219 C 30.421875 50.949219 31.265625 50.980469 31.734375 51.011719 L 31.734375 50.386719 C 31.296875 50.324219 31.171875 50.074219 31.171875 49.761719 C 31.171875 49.324219 31.734375 48.667969 32.953125 47.230469 L 34.484375 49.230469 C 34.640625 49.449219 34.890625 49.761719 34.890625 49.886719 C 34.890625 50.074219 34.703125 50.386719 34.171875 50.386719 L 34.171875 51.011719 C 34.765625 50.980469 35.890625 50.949219 36.328125 50.949219 C 36.859375 50.949219 37.640625 50.980469 38.234375 51.011719 L 38.234375 50.386719 C 37.171875 50.386719 36.796875 50.355469 36.359375 49.761719 Z M 33.671875 46.324219 "/>
<path style=" stroke:none;fill-rule:nonzero;fill:rgb(0%,0%,0%);fill-opacity:1;" d="M 44.25 43.980469 C 45.875 43.449219 47.03125 42.074219 47.03125 40.480469 C 47.03125 38.855469 45.28125 37.730469 43.375 37.730469 C 41.375 37.730469 39.84375 38.917969 39.84375 40.449219 C 39.84375 41.105469 40.28125 41.480469 40.875 41.480469 C 41.46875 41.480469 41.875 41.042969 41.875 40.449219 C 41.875 39.480469 40.9375 39.480469 40.65625 39.480469 C 41.25 38.480469 42.5625 38.230469 43.28125 38.230469 C 44.125 38.230469 45.21875 38.667969 45.21875 40.449219 C 45.21875 40.699219 45.15625 41.855469 44.65625 42.730469 C 44.0625 43.699219 43.375 43.761719 42.875 43.761719 C 42.71875 43.792969 42.25 43.824219 42.09375 43.824219 C 41.9375 43.855469 41.8125 43.886719 41.8125 44.074219 C 41.8125 44.292969 41.9375 44.292969 42.28125 44.292969 L 43.15625 44.292969 C 44.78125 44.292969 45.53125 45.636719 45.53125 47.605469 C 45.53125 50.324219 44.15625 50.886719 43.28125 50.886719 C 42.40625 50.886719 40.90625 50.542969 40.21875 49.386719 C 40.90625 49.480469 41.53125 49.042969 41.53125 48.292969 C 41.53125 47.574219 41 47.167969 40.4375 47.167969 C 39.9375 47.167969 39.3125 47.449219 39.3125 48.324219 C 39.3125 50.136719 41.15625 51.449219 43.34375 51.449219 C 45.78125 51.449219 47.59375 49.636719 47.59375 47.605469 C 47.59375 45.980469 46.3125 44.417969 44.25 43.980469 Z M 44.25 43.980469 "/>
<path style="fill:none;stroke-width:0.566929;stroke-linecap:butt;stroke-linejoin:miter;stroke:rgb(100%,0%,0%);stroke-opacity:0.5;stroke-miterlimit:10;" d="M -2.834646 33.507151 L 2.835276 27.837229 " transform="matrix(2,0,0,2,6.169291,6.169291)"/>
<path style="fill:none;stroke-width:0.566929;stroke-linecap:butt;stroke-linejoin:miter;stroke:rgb(100%,0%,0%);stroke-opacity:0.5;stroke-miterlimit:10;" d="M 2.835276 33.507151 L -2.834646 27.837229 " transform="matrix(2,0,0,2,6.169291,6.169291)"/>
<path style="fill-rule:nonzero;fill:rgb(50%,50%,0%);fill-opacity:0.1;stroke-width:0.566929;stroke-linecap:butt;stroke-linejoin:miter;stroke:rgb(100%,0%,0%);stroke-opacity:0.5;stroke-miterlimit:10;" d="M -0.000661294 30.671214 L 16.079417 30.671214 L 16.079417 22.921214 L -0.000661294 22.921214 Z M -0.000661294 30.671214 " transform="matrix(2,0,0,2,6.169291,6.169291)"/>
<path style=" stroke:none;fill-rule:nonzero;fill:rgb(0%,0%,0%);fill-opacity:1;" d="M 12.636719 61.824219 C 13.230469 61.074219 13.980469 60.105469 14.480469 59.574219 C 15.105469 58.855469 15.917969 58.542969 16.855469 58.542969 L 16.855469 57.917969 C 16.324219 57.949219 15.730469 57.980469 15.199219 57.980469 C 14.605469 57.980469 13.542969 57.949219 13.292969 57.917969 L 13.292969 58.542969 C 13.730469 58.574219 13.886719 58.824219 13.886719 59.167969 C 13.886719 59.480469 13.667969 59.730469 13.574219 59.855469 L 12.355469 61.417969 L 10.792969 59.386719 C 10.605469 59.199219 10.605469 59.167969 10.605469 59.042969 C 10.605469 58.730469 10.917969 58.542969 11.292969 58.542969 L 11.292969 57.917969 C 10.792969 57.949219 9.480469 57.980469 9.136719 57.980469 C 8.730469 57.980469 7.792969 57.949219 7.261719 57.917969 L 7.261719 58.542969 C 8.667969 58.542969 8.667969 58.542969 9.605469 59.761719 L 11.574219 62.324219 L 9.699219 64.699219 C 8.761719 65.855469 7.574219 65.886719 7.167969 65.886719 L 7.167969 66.511719 C 7.667969 66.480469 8.292969 66.449219 8.824219 66.449219 C 9.386719 66.449219 10.230469 66.480469 10.699219 66.511719 L 10.699219 65.886719 C 10.261719 65.824219 10.136719 65.574219 10.136719 65.261719 C 10.136719 64.824219 10.699219 64.167969 11.917969 62.730469 L 13.449219 64.730469 C 13.605469 64.949219 13.855469 65.261719 13.855469 65.386719 C 13.855469 65.574219 13.667969 65.886719 13.136719 65.886719 L 13.136719 66.511719 C 13.730469 66.480469 14.855469 66.449219 15.292969 66.449219 C 15.824219 66.449219 16.605469 66.480469 17.199219 66.511719 L 17.199219 65.886719 C 16.136719 65.886719 15.761719 65.855469 15.324219 65.261719 Z M 12.636719 61.824219 "/>
<path style=" stroke:none;fill-rule:nonzero;fill:rgb(0%,0%,0%);fill-opacity:1;" d="M 23.15625 61.824219 C 23.75 61.074219 24.5 60.105469 25 59.574219 C 25.625 58.855469 26.4375 58.542969 27.375 58.542969 L 27.375 57.917969 C 26.84375 57.949219 26.25 57.980469 25.71875 57.980469 C 25.125 57.980469 24.0625 57.949219 23.8125 57.917969 L 23.8125 58.542969 C 24.25 58.574219 24.40625 58.824219 24.40625 59.167969 C 24.40625 59.480469 24.1875 59.730469 24.09375 59.855469 L 22.875 61.417969 L 21.3125 59.386719 C 21.125 59.199219 21.125 59.167969 21.125 59.042969 C 21.125 58.730469 21.4375 58.542969 21.8125 58.542969 L 21.8125 57.917969 C 21.3125 57.949219 20 57.980469 19.65625 57.980469 C 19.25 57.980469 18.3125 57.949219 17.78125 57.917969 L 17.78125 58.542969 C 19.1875 58.542969 19.1875 58.542969 20.125 59.761719 L 22.09375 62.324219 L 20.21875 64.699219 C 19.28125 65.855469 18.09375 65.886719 17.6875 65.886719 L 17.6875 66.511719 C 18.1875 66.480469 18.8125 66.449219 19.34375 66.449219 C 19.90625 66.449219 20.75 66.480469 21.21875 66.511719 L 21.21875 65.886719 C 20.78125 65.824219 20.65625 65.574219 20.65625 65.261719 C 20.65625 64.824219 21.21875 64.167969 22.4375 62.730469 L 23.96875 64.730469 C 24.125 64.949219 24.375 65.261719 24.375 65.386719 C 24.375 65.574219 24.1875 65.886719 23.65625 65.886719 L 23.65625 66.511719 C 24.25 66.480469 25.375 66.449219 25.8125 66.449219 C 26.34375 66.449219 27.125 66.480469 27.71875 66.511719 L 27.71875 65.886719 C 26.65625 65.886719 26.28125 65.855469 25.84375 65.261719 Z M 23.15625 61.824219 "/>
<path style=" stroke:none;fill-rule:nonzero;fill:rgb(0%,0%,0%);fill-opacity:1;" d="M 33.828125 63.230469 L 33.828125 64.949219 C 33.828125 65.667969 33.765625 65.886719 32.296875 65.886719 L 31.890625 65.886719 L 31.890625 66.511719 C 32.703125 66.449219 33.734375 66.449219 34.578125 66.449219 C 35.421875 66.449219 36.453125 66.449219 37.296875 66.511719 L 37.296875 65.886719 L 36.859375 65.886719 C 35.390625 65.886719 35.359375 65.667969 35.359375 64.949219 L 35.359375 63.230469 L 37.328125 63.230469 L 37.328125 62.605469 L 35.359375 62.605469 L 35.359375 53.542969 C 35.359375 53.136719 35.359375 53.011719 35.015625 53.011719 C 34.859375 53.011719 34.796875 53.011719 34.640625 53.261719 L 28.515625 62.605469 L 28.515625 63.230469 Z M 33.921875 62.605469 L 29.078125 62.605469 L 33.921875 55.167969 Z M 33.921875 62.605469 "/>
<path style="fill:none;stroke-width:0.566929;stroke-linecap:butt;stroke-linejoin:miter;stroke:rgb(100%,0%,0%);stroke-opacity:0.5;stroke-miterlimit:10;" d="M 18.378245 2.835276 L 24.046214 -2.834646 " transform="matrix(2,0,0,2,6.169291,6.169291)"/>
<path style="fill:none;stroke-width:0.566929;stroke-linecap:butt;stroke-linejoin:miter;stroke:rgb(100%,0%,0%);stroke-opacity:0.5;stroke-miterlimit:10;" d="M 24.046214 2.835276 L 18.378245 -2.834646 " transform="matrix(2,0,0,2,6.169291,6.169291)"/>
<path style="fill-rule:nonzero;fill:rgb(50%,50%,0%);fill-opacity:0.1;stroke-width:0.566929;stroke-linecap:butt;stroke-linejoin:miter;stroke:rgb(100%,0%,0%);stroke-opacity:0.5;stroke-miterlimit:10;" d="M 21.212229 23.593089 L 38.876292 23.593089 L 38.876292 -0.000661294 L 21.212229 -0.000661294 Z M 21.212229 23.593089 " transform="matrix(2,0,0,2,6.169291,6.169291)"/>
<path style="fill:none;stroke-width:0.566929;stroke-linecap:butt;stroke-linejoin:miter;stroke:rgb(100%,0%,0%);stroke-opacity:0.5;stroke-miterlimit:10;" d="M 18.378245 10.475901 L 24.046214 4.805979 " transform="matrix(2,0,0,2,6.169291,6.169291)"/>
<path style="fill:none;stroke-width:0.566929;stroke-linecap:butt;stroke-linejoin:miter;stroke:rgb(100%,0%,0%);stroke-opacity:0.5;stroke-miterlimit:10;" d="M 24.046214 10.475901 L 18.378245 4.805979 " transform="matrix(2,0,0,2,6.169291,6.169291)"/>
<path style="fill-rule:nonzero;fill:rgb(50%,50%,0%);fill-opacity:0.1;stroke-width:0.566929;stroke-linecap:butt;stroke-linejoin:miter;stroke:rgb(100%,0%,0%);stroke-opacity:0.5;stroke-miterlimit:10;" d="M 21.212229 7.639964 L 35.846995 7.639964 L 35.846995 -0.000661294 L 21.212229 -0.000661294 Z M 21.212229 7.639964 " transform="matrix(2,0,0,2,6.169291,6.169291)"/>
<path style=" stroke:none;fill-rule:nonzero;fill:rgb(0%,0%,0%);fill-opacity:1;" d="M 53.6875 7.699219 C 53.6875 7.199219 53.6875 7.167969 53.21875 7.167969 C 51.96875 8.449219 50.21875 8.449219 49.59375 8.449219 L 49.59375 9.074219 C 50 9.074219 51.15625 9.074219 52.1875 8.542969 L 52.1875 18.886719 C 52.1875 19.605469 52.125 19.824219 50.34375 19.824219 L 49.71875 19.824219 L 49.71875 20.449219 C 50.40625 20.386719 52.125 20.386719 52.9375 20.386719 C 53.71875 20.386719 55.46875 20.386719 56.15625 20.449219 L 56.15625 19.824219 L 55.53125 19.824219 C 53.71875 19.824219 53.6875 19.605469 53.6875 18.886719 Z M 53.6875 7.699219 "/>
<path style=" stroke:none;fill-rule:nonzero;fill:rgb(0%,0%,0%);fill-opacity:1;" d="M 60.304688 18.917969 L 62.429688 16.855469 C 65.523438 14.105469 66.710938 13.042969 66.710938 11.042969 C 66.710938 8.761719 64.929688 7.167969 62.492188 7.167969 C 60.242188 7.167969 58.773438 9.011719 58.773438 10.792969 C 58.773438 11.886719 59.773438 11.886719 59.835938 11.886719 C 60.179688 11.886719 60.867188 11.667969 60.867188 10.824219 C 60.867188 10.324219 60.492188 9.792969 59.804688 9.792969 C 59.648438 9.792969 59.617188 9.792969 59.554688 9.824219 C 59.992188 8.511719 61.085938 7.792969 62.242188 7.792969 C 64.054688 7.792969 64.898438 9.417969 64.898438 11.042969 C 64.898438 12.636719 63.929688 14.199219 62.804688 15.449219 L 58.992188 19.699219 C 58.773438 19.917969 58.773438 19.980469 58.773438 20.449219 L 66.179688 20.449219 L 66.710938 16.980469 L 66.242188 16.980469 C 66.117188 17.574219 65.992188 18.449219 65.773438 18.761719 C 65.648438 18.917969 64.335938 18.917969 63.898438 18.917969 Z M 60.304688 18.917969 "/>
<path style=" stroke:none;fill-rule:nonzero;fill:rgb(0%,0%,0%);fill-opacity:1;" d="M 73.519531 13.417969 C 75.144531 12.886719 76.300781 11.511719 76.300781 9.917969 C 76.300781 8.292969 74.550781 7.167969 72.644531 7.167969 C 70.644531 7.167969 69.113281 8.355469 69.113281 9.886719 C 69.113281 10.542969 69.550781 10.917969 70.144531 10.917969 C 70.738281 10.917969 71.144531 10.480469 71.144531 9.886719 C 71.144531 8.917969 70.207031 8.917969 69.925781 8.917969 C 70.519531 7.917969 71.832031 7.667969 72.550781 7.667969 C 73.394531 7.667969 74.488281 8.105469 74.488281 9.886719 C 74.488281 10.136719 74.425781 11.292969 73.925781 12.167969 C 73.332031 13.136719 72.644531 13.199219 72.144531 13.199219 C 71.988281 13.230469 71.519531 13.261719 71.363281 13.261719 C 71.207031 13.292969 71.082031 13.324219 71.082031 13.511719 C 71.082031 13.730469 71.207031 13.730469 71.550781 13.730469 L 72.425781 13.730469 C 74.050781 13.730469 74.800781 15.074219 74.800781 17.042969 C 74.800781 19.761719 73.425781 20.324219 72.550781 20.324219 C 71.675781 20.324219 70.175781 19.980469 69.488281 18.824219 C 70.175781 18.917969 70.800781 18.480469 70.800781 17.730469 C 70.800781 17.011719 70.269531 16.605469 69.707031 16.605469 C 69.207031 16.605469 68.582031 16.886719 68.582031 17.761719 C 68.582031 19.574219 70.425781 20.886719 72.613281 20.886719 C 75.050781 20.886719 76.863281 19.074219 76.863281 17.042969 C 76.863281 15.417969 75.582031 13.855469 73.519531 13.417969 Z M 73.519531 13.417969 "/>
<path style="fill:none;stroke-width:0.566929;stroke-linecap:butt;stroke-linejoin:miter;stroke:rgb(100%,0%,0%);stroke-opacity:0.5;stroke-miterlimit:10;" d="M 18.378245 18.507151 L 24.046214 12.837229 " transform="matrix(2,0,0,2,6.169291,6.169291)"/>
<path style="fill:none;stroke-width:0.566929;stroke-linecap:butt;stroke-linejoin:miter;stroke:rgb(100%,0%,0%);stroke-opacity:0.5;stroke-miterlimit:10;" d="M 24.046214 18.507151 L 18.378245 12.837229 " transform="matrix(2,0,0,2,6.169291,6.169291)"/>
<path style="fill-rule:nonzero;fill:rgb(50%,50%,0%);fill-opacity:0.1;stroke-width:0.566929;stroke-linecap:butt;stroke-linejoin:miter;stroke:rgb(100%,0%,0%);stroke-opacity:0.5;stroke-miterlimit:10;" d="M 21.212229 15.671214 L 38.471995 15.671214 L 38.471995 7.639964 L 21.212229 7.639964 Z M 21.212229 15.671214 " transform="matrix(2,0,0,2,6.169291,6.169291)"/>
<path style=" stroke:none;fill-rule:nonzero;fill:rgb(0%,0%,0%);fill-opacity:1;" d="M 55.0625 31.824219 C 55.65625 31.074219 56.40625 30.105469 56.90625 29.574219 C 57.53125 28.855469 58.34375 28.542969 59.28125 28.542969 L 59.28125 27.917969 C 58.75 27.949219 58.15625 27.980469 57.625 27.980469 C 57.03125 27.980469 55.96875 27.949219 55.71875 27.917969 L 55.71875 28.542969 C 56.15625 28.574219 56.3125 28.824219 56.3125 29.167969 C 56.3125 29.480469 56.09375 29.730469 56 29.855469 L 54.78125 31.417969 L 53.21875 29.386719 C 53.03125 29.199219 53.03125 29.167969 53.03125 29.042969 C 53.03125 28.730469 53.34375 28.542969 53.71875 28.542969 L 53.71875 27.917969 C 53.21875 27.949219 51.90625 27.980469 51.5625 27.980469 C 51.15625 27.980469 50.21875 27.949219 49.6875 27.917969 L 49.6875 28.542969 C 51.09375 28.542969 51.09375 28.542969 52.03125 29.761719 L 54 32.324219 L 52.125 34.699219 C 51.1875 35.855469 50 35.886719 49.59375 35.886719 L 49.59375 36.511719 C 50.09375 36.480469 50.71875 36.449219 51.25 36.449219 C 51.8125 36.449219 52.65625 36.480469 53.125 36.511719 L 53.125 35.886719 C 52.6875 35.824219 52.5625 35.574219 52.5625 35.261719 C 52.5625 34.824219 53.125 34.167969 54.34375 32.730469 L 55.875 34.730469 C 56.03125 34.949219 56.28125 35.261719 56.28125 35.386719 C 56.28125 35.574219 56.09375 35.886719 55.5625 35.886719 L 55.5625 36.511719 C 56.15625 36.480469 57.28125 36.449219 57.71875 36.449219 C 58.25 36.449219 59.03125 36.480469 59.625 36.511719 L 59.625 35.886719 C 58.5625 35.886719 58.1875 35.855469 57.75 35.261719 Z M 55.0625 31.824219 "/>
<path style=" stroke:none;fill-rule:nonzero;fill:rgb(0%,0%,0%);fill-opacity:1;" d="M 63.359375 27.917969 L 63.359375 25.605469 C 63.359375 23.855469 64.296875 22.886719 65.171875 22.886719 C 65.234375 22.886719 65.546875 22.886719 65.828125 23.042969 C 65.609375 23.105469 65.234375 23.386719 65.234375 23.886719 C 65.234375 24.324219 65.546875 24.730469 66.109375 24.730469 C 66.671875 24.730469 66.984375 24.324219 66.984375 23.855469 C 66.984375 23.105469 66.234375 22.449219 65.171875 22.449219 C 63.796875 22.449219 62.078125 23.511719 62.078125 25.636719 L 62.078125 27.917969 L 60.515625 27.917969 L 60.515625 28.542969 L 62.078125 28.542969 L 62.078125 35.011719 C 62.078125 35.886719 61.859375 35.886719 60.546875 35.886719 L 60.546875 36.511719 C 61.328125 36.480469 62.265625 36.449219 62.796875 36.449219 C 63.609375 36.449219 64.546875 36.449219 65.328125 36.511719 L 65.328125 35.886719 L 64.921875 35.886719 C 63.453125 35.886719 63.421875 35.667969 63.421875 34.949219 L 63.421875 28.542969 L 65.671875 28.542969 L 65.671875 27.917969 Z M 63.359375 27.917969 "/>
<path style=" stroke:none;fill-rule:nonzero;fill:rgb(0%,0%,0%);fill-opacity:1;" d="M 73.511719 35.417969 L 73.511719 36.730469 L 76.449219 36.511719 L 76.449219 35.886719 C 75.074219 35.886719 74.886719 35.761719 74.886719 34.761719 L 74.886719 22.667969 L 72.042969 22.886719 L 72.042969 23.511719 C 73.417969 23.511719 73.574219 23.636719 73.574219 24.636719 L 73.574219 28.949219 C 73.011719 28.230469 72.136719 27.699219 71.074219 27.699219 C 68.730469 27.699219 66.636719 29.667969 66.636719 32.230469 C 66.636719 34.761719 68.574219 36.730469 70.855469 36.730469 C 72.136719 36.730469 73.011719 36.042969 73.511719 35.417969 Z M 73.511719 30.074219 L 73.511719 34.167969 C 73.511719 34.511719 73.511719 34.542969 73.292969 34.886719 C 72.699219 35.855469 71.824219 36.292969 70.949219 36.292969 C 70.042969 36.292969 69.324219 35.761719 68.855469 35.011719 C 68.355469 34.199219 68.292969 33.074219 68.292969 32.230469 C 68.292969 31.511719 68.324219 30.324219 68.886719 29.417969 C 69.324219 28.792969 70.074219 28.136719 71.167969 28.136719 C 71.855469 28.136719 72.699219 28.449219 73.292969 29.324219 C 73.511719 29.667969 73.511719 29.699219 73.511719 30.074219 Z M 73.511719 30.074219 "/>
<path style=" stroke:none;fill-rule:nonzero;fill:rgb(0%,0%,0%);fill-opacity:1;" d="M 80.550781 22.667969 L 77.675781 22.886719 L 77.675781 23.511719 C 79.082031 23.511719 79.238281 23.636719 79.238281 24.636719 L 79.238281 35.011719 C 79.238281 35.886719 79.019531 35.886719 77.675781 35.886719 L 77.675781 36.511719 C 78.332031 36.480469 79.394531 36.449219 79.894531 36.449219 C 80.394531 36.449219 81.363281 36.480469 82.113281 36.511719 L 82.113281 35.886719 C 80.769531 35.886719 80.550781 35.886719 80.550781 35.011719 Z M 80.550781 22.667969 "/>
<path style="fill:none;stroke-width:0.566929;stroke-linecap:butt;stroke-linejoin:miter;stroke:rgb(100%,0%,0%);stroke-opacity:0.5;stroke-miterlimit:10;" d="M 18.378245 26.429026 L 24.046214 20.759104 " transform="matrix(2,0,0,2,6.169291,6.169291)"/>
<path style="fill:none;stroke-width:0.566929;stroke-linecap:butt;stroke-linejoin:miter;stroke:rgb(100%,0%,0%);stroke-opacity:0.5;stroke-miterlimit:10;" d="M 24.046214 26.429026 L 18.378245 20.759104 " transform="matrix(2,0,0,2,6.169291,6.169291)"/>
<path style="fill-rule:nonzero;fill:rgb(50%,50%,0%);fill-opacity:0.1;stroke-width:0.566929;stroke-linecap:butt;stroke-linejoin:miter;stroke:rgb(100%,0%,0%);stroke-opacity:0.5;stroke-miterlimit:10;" d="M 21.212229 23.593089 L 38.876292 23.593089 L 38.876292 15.671214 L 21.212229 15.671214 Z M 21.212229 23.593089 " transform="matrix(2,0,0,2,6.169291,6.169291)"/>
<path style=" stroke:none;fill-rule:nonzero;fill:rgb(0%,0%,0%);fill-opacity:1;" d="M 53.09375 48.480469 C 53.53125 48.574219 55.15625 48.886719 55.15625 50.324219 C 55.15625 51.324219 54.46875 52.136719 52.90625 52.136719 C 51.21875 52.136719 50.5 51.011719 50.125 49.292969 C 50.0625 49.042969 50.0625 48.980469 49.84375 48.980469 C 49.59375 48.980469 49.59375 49.105469 49.59375 49.449219 L 49.59375 52.105469 C 49.59375 52.449219 49.59375 52.574219 49.8125 52.574219 C 49.90625 52.574219 49.9375 52.542969 50.3125 52.167969 C 50.34375 52.136719 50.34375 52.105469 50.71875 51.730469 C 51.59375 52.542969 52.5 52.574219 52.90625 52.574219 C 55.1875 52.574219 56.125 51.230469 56.125 49.792969 C 56.125 48.761719 55.53125 48.136719 55.28125 47.917969 C 54.625 47.261719 53.84375 47.105469 53 46.949219 C 51.875 46.730469 50.5625 46.480469 50.5625 45.324219 C 50.5625 44.605469 51.0625 43.792969 52.78125 43.792969 C 54.96875 43.792969 55.09375 45.605469 55.125 46.199219 C 55.125 46.386719 55.3125 46.386719 55.34375 46.386719 C 55.625 46.386719 55.625 46.292969 55.625 45.917969 L 55.625 43.886719 C 55.625 43.574219 55.625 43.417969 55.40625 43.417969 C 55.3125 43.417969 55.25 43.417969 55 43.667969 C 54.9375 43.730469 54.75 43.917969 54.65625 43.980469 C 53.90625 43.417969 53.09375 43.417969 52.78125 43.417969 C 50.34375 43.417969 49.59375 44.761719 49.59375 45.886719 C 49.59375 46.574219 49.90625 47.136719 50.4375 47.574219 C 51.09375 48.074219 51.65625 48.199219 53.09375 48.480469 Z M 53.09375 48.480469 "/>
<path style=" stroke:none;fill-rule:nonzero;fill:rgb(0%,0%,0%);fill-opacity:1;" d="M 64.359375 51.261719 L 64.359375 52.574219 L 67.296875 52.355469 L 67.296875 51.730469 C 65.921875 51.730469 65.734375 51.605469 65.734375 50.605469 L 65.734375 38.511719 L 62.890625 38.730469 L 62.890625 39.355469 C 64.265625 39.355469 64.421875 39.480469 64.421875 40.480469 L 64.421875 44.792969 C 63.859375 44.074219 62.984375 43.542969 61.921875 43.542969 C 59.578125 43.542969 57.484375 45.511719 57.484375 48.074219 C 57.484375 50.605469 59.421875 52.574219 61.703125 52.574219 C 62.984375 52.574219 63.859375 51.886719 64.359375 51.261719 Z M 64.359375 45.917969 L 64.359375 50.011719 C 64.359375 50.355469 64.359375 50.386719 64.140625 50.730469 C 63.546875 51.699219 62.671875 52.136719 61.796875 52.136719 C 60.890625 52.136719 60.171875 51.605469 59.703125 50.855469 C 59.203125 50.042969 59.140625 48.917969 59.140625 48.074219 C 59.140625 47.355469 59.171875 46.167969 59.734375 45.261719 C 60.171875 44.636719 60.921875 43.980469 62.015625 43.980469 C 62.703125 43.980469 63.546875 44.292969 64.140625 45.167969 C 64.359375 45.511719 64.359375 45.542969 64.359375 45.917969 Z M 64.359375 45.917969 "/>
<path style=" stroke:none;fill-rule:nonzero;fill:rgb(0%,0%,0%);fill-opacity:1;" d="M 74.492188 50.855469 C 74.585938 51.636719 75.117188 52.480469 76.054688 52.480469 C 76.492188 52.480469 77.710938 52.199219 77.710938 50.574219 L 77.710938 49.449219 L 77.210938 49.449219 L 77.210938 50.574219 C 77.210938 51.730469 76.710938 51.855469 76.492188 51.855469 C 75.835938 51.855469 75.742188 50.949219 75.742188 50.855469 L 75.742188 46.886719 C 75.742188 46.042969 75.742188 45.261719 75.023438 44.511719 C 74.242188 43.730469 73.242188 43.417969 72.304688 43.417969 C 70.648438 43.417969 69.273438 44.355469 69.273438 45.667969 C 69.273438 46.261719 69.679688 46.605469 70.210938 46.605469 C 70.773438 46.605469 71.117188 46.199219 71.117188 45.699219 C 71.117188 45.449219 71.023438 44.792969 70.085938 44.792969 C 70.648438 44.074219 71.617188 43.855469 72.242188 43.855469 C 73.242188 43.855469 74.367188 44.636719 74.367188 46.417969 L 74.367188 47.136719 C 73.335938 47.199219 71.960938 47.261719 70.710938 47.855469 C 69.210938 48.542969 68.710938 49.574219 68.710938 50.449219 C 68.710938 52.074219 70.648438 52.574219 71.898438 52.574219 C 73.210938 52.574219 74.117188 51.761719 74.492188 50.855469 Z M 74.367188 47.574219 L 74.367188 49.574219 C 74.367188 51.449219 72.929688 52.136719 72.023438 52.136719 C 71.054688 52.136719 70.242188 51.449219 70.242188 50.449219 C 70.242188 49.355469 71.085938 47.699219 74.367188 47.574219 Z M 74.367188 47.574219 "/>
<path style=" stroke:none;fill-rule:nonzero;fill:rgb(0%,0%,0%);fill-opacity:1;" d="M 81.359375 38.511719 L 78.484375 38.730469 L 78.484375 39.355469 C 79.890625 39.355469 80.046875 39.480469 80.046875 40.480469 L 80.046875 50.855469 C 80.046875 51.730469 79.828125 51.730469 78.484375 51.730469 L 78.484375 52.355469 C 79.140625 52.324219 80.203125 52.292969 80.703125 52.292969 C 81.203125 52.292969 82.171875 52.324219 82.921875 52.355469 L 82.921875 51.730469 C 81.578125 51.730469 81.359375 51.730469 81.359375 50.855469 Z M 81.359375 38.511719 "/>
</g>
</svg>
