<?xml version="1.0" encoding="UTF-8"?>
<svg xmlns="http://www.w3.org/2000/svg" xmlns:xlink="http://www.w3.org/1999/xlink" width="205.196033pt" height="176.748031pt" viewBox="0 0 205.196033 176.748031" version="1.1">
<g id="surface69">
<path style="fill:none;stroke-width:0.566929;stroke-linecap:butt;stroke-linejoin:miter;stroke:rgb(100%,0%,0%);stroke-opacity:0.5;stroke-miterlimit:10;" d="M -2.8338 2.835276 L 2.834169 -2.834646 " transform="matrix(2,0,0,2,5.952756,6.169291)"/>
<path style="fill:none;stroke-width:0.566929;stroke-linecap:butt;stroke-linejoin:miter;stroke:rgb(100%,0%,0%);stroke-opacity:0.5;stroke-miterlimit:10;" d="M 2.834169 2.835276 L -2.8338 -2.834646 " transform="matrix(2,0,0,2,5.952756,6.169291)"/>
<path style="fill-rule:nonzero;fill:rgb(50%,50%,0%);fill-opacity:0.1;stroke-width:0.566929;stroke-linecap:butt;stroke-linejoin:miter;stroke:rgb(100%,0%,0%);stroke-opacity:0.5;stroke-miterlimit:10;" d="M 0.000184547 85.038401 L 96.537294 85.038401 L 96.537294 -0.000661294 L 0.000184547 -0.000661294 Z M 0.000184547 85.038401 " transform="matrix(2,0,0,2,5.952756,6.169291)"/>
<path style="fill:none;stroke-width:0.566929;stroke-linecap:butt;stroke-linejoin:miter;stroke:rgb(100%,0%,0%);stroke-opacity:0.5;stroke-miterlimit:10;" d="M 7.754091 2.835276 L 13.424013 -2.834646 " transform="matrix(2,0,0,2,5.952756,6.169291)"/>
<path style="fill:none;stroke-width:0.566929;stroke-linecap:butt;stroke-linejoin:miter;stroke:rgb(100%,0%,0%);stroke-opacity:0.5;stroke-miterlimit:10;" d="M 13.424013 2.835276 L 7.754091 -2.834646 " transform="matrix(2,0,0,2,5.952756,6.169291)"/>
<path style="fill-rule:nonzero;fill:rgb(50%,50%,0%);fill-opacity:0.1;stroke-width:0.566929;stroke-linecap:butt;stroke-linejoin:miter;stroke:rgb(100%,0%,0%);stroke-opacity:0.5;stroke-miterlimit:10;" d="M 4.800966 13.700511 L 16.377138 13.700511 L 16.377138 -0.000661294 L 4.800966 -0.000661294 Z M 4.800966 13.700511 " transform="matrix(2,0,0,2,5.952756,6.169291)"/>
<path style="fill:none;stroke-width:0.566929;stroke-linecap:butt;stroke-linejoin:miter;stroke:rgb(100%,0%,0%);stroke-opacity:0.5;stroke-miterlimit:10;" d="M 4.800966 13.591136 L 10.470888 7.921214 " transform="matrix(2,0,0,2,5.952756,6.169291)"/>
<path style="fill:none;stroke-width:0.566929;stroke-linecap:butt;stroke-linejoin:miter;stroke:rgb(100%,0%,0%);stroke-opacity:0.5;stroke-miterlimit:10;" d="M 10.470888 13.591136 L 4.800966 7.921214 " transform="matrix(2,0,0,2,5.952756,6.169291)"/>
<path style="fill-rule:nonzero;fill:rgb(50%,50%,0%);fill-opacity:0.1;stroke-width:0.566929;stroke-linecap:butt;stroke-linejoin:miter;stroke:rgb(100%,0%,0%);stroke-opacity:0.5;stroke-miterlimit:10;" d="M 4.800966 13.700511 L 16.377138 13.700511 L 16.377138 -0.000661294 L 4.800966 -0.000661294 Z M 4.800966 13.700511 " transform="matrix(2,0,0,2,5.952756,6.169291)"/>
<path style="fill:none;stroke-width:0.566929;stroke-linecap:butt;stroke-linejoin:miter;stroke:rgb(100%,0%,0%);stroke-opacity:0.5;stroke-miterlimit:10;" d="M 4.800966 13.591136 L 10.470888 7.921214 " transform="matrix(2,0,0,2,5.952756,6.169291)"/>
<path style="fill:none;stroke-width:0.566929;stroke-linecap:butt;stroke-linejoin:miter;stroke:rgb(100%,0%,0%);stroke-opacity:0.5;stroke-miterlimit:10;" d="M 10.470888 13.591136 L 4.800966 7.921214 " transform="matrix(2,0,0,2,5.952756,6.169291)"/>
<path style="fill-rule:nonzero;fill:rgb(50%,50%,0%);fill-opacity:0.1;stroke-width:0.566929;stroke-linecap:butt;stroke-linejoin:miter;stroke:rgb(100%,0%,0%);stroke-opacity:0.5;stroke-miterlimit:10;" d="M 7.636903 10.866526 L 13.543153 10.866526 L 13.543153 2.835276 L 7.636903 2.835276 Z M 7.636903 10.866526 " transform="matrix(2,0,0,2,5.952756,6.169291)"/>
<path style=" stroke:none;fill-rule:nonzero;fill:rgb(0%,0%,0%);fill-opacity:1;" d="M 25.101562 19.152344 L 25.101562 12.839844 L 22.226562 13.058594 L 22.226562 13.683594 C 23.632812 13.683594 23.789062 13.808594 23.789062 14.808594 L 23.789062 26.683594 L 24.289062 26.683594 C 24.289062 26.652344 24.445312 26.371094 25.007812 25.433594 C 25.289062 25.902344 26.132812 26.902344 27.601562 26.902344 C 29.976562 26.902344 32.039062 24.933594 32.039062 22.371094 C 32.039062 19.839844 30.101562 17.871094 27.820312 17.871094 C 26.257812 17.871094 25.414062 18.808594 25.101562 19.152344 Z M 25.164062 24.402344 L 25.164062 20.308594 C 25.164062 19.933594 25.164062 19.902344 25.382812 19.589844 C 26.164062 18.464844 27.257812 18.308594 27.726562 18.308594 C 28.632812 18.308594 29.351562 18.839844 29.820312 19.589844 C 30.351562 20.402344 30.382812 21.527344 30.382812 22.371094 C 30.382812 23.089844 30.351562 24.277344 29.789062 25.183594 C 29.351562 25.808594 28.601562 26.464844 27.539062 26.464844 C 26.632812 26.464844 25.914062 25.996094 25.445312 25.246094 C 25.164062 24.839844 25.164062 24.777344 25.164062 24.402344 Z M 25.164062 24.402344 "/>
<path style="fill:none;stroke-width:0.566929;stroke-linecap:butt;stroke-linejoin:miter;stroke:rgb(100%,0%,0%);stroke-opacity:0.5;stroke-miterlimit:10;" d="M 30.490419 2.835276 L 36.158388 -2.834646 " transform="matrix(2,0,0,2,5.952756,6.169291)"/>
<path style="fill:none;stroke-width:0.566929;stroke-linecap:butt;stroke-linejoin:miter;stroke:rgb(100%,0%,0%);stroke-opacity:0.5;stroke-miterlimit:10;" d="M 36.158388 2.835276 L 30.490419 -2.834646 " transform="matrix(2,0,0,2,5.952756,6.169291)"/>
<path style="fill-rule:nonzero;fill:rgb(50%,50%,0%);fill-opacity:0.1;stroke-width:0.566929;stroke-linecap:butt;stroke-linejoin:miter;stroke:rgb(100%,0%,0%);stroke-opacity:0.5;stroke-miterlimit:10;" d="M 26.990419 13.700511 L 39.658388 13.700511 L 39.658388 -0.000661294 L 26.990419 -0.000661294 Z M 26.990419 13.700511 " transform="matrix(2,0,0,2,5.952756,6.169291)"/>
<path style="fill:none;stroke-width:0.566929;stroke-linecap:butt;stroke-linejoin:miter;stroke:rgb(100%,0%,0%);stroke-opacity:0.5;stroke-miterlimit:10;" d="M 26.990419 13.700511 L 32.658388 8.030589 " transform="matrix(2,0,0,2,5.952756,6.169291)"/>
<path style="fill:none;stroke-width:0.566929;stroke-linecap:butt;stroke-linejoin:miter;stroke:rgb(100%,0%,0%);stroke-opacity:0.5;stroke-miterlimit:10;" d="M 32.658388 13.700511 L 26.990419 8.030589 " transform="matrix(2,0,0,2,5.952756,6.169291)"/>
<path style="fill-rule:nonzero;fill:rgb(50%,50%,0%);fill-opacity:0.1;stroke-width:0.566929;stroke-linecap:butt;stroke-linejoin:miter;stroke:rgb(100%,0%,0%);stroke-opacity:0.5;stroke-miterlimit:10;" d="M 26.990419 13.700511 L 39.658388 13.700511 L 39.658388 -0.000661294 L 26.990419 -0.000661294 Z M 26.990419 13.700511 " transform="matrix(2,0,0,2,5.952756,6.169291)"/>
<path style="fill:none;stroke-width:0.566929;stroke-linecap:butt;stroke-linejoin:miter;stroke:rgb(100%,0%,0%);stroke-opacity:0.5;stroke-miterlimit:10;" d="M 26.990419 13.700511 L 32.658388 8.030589 " transform="matrix(2,0,0,2,5.952756,6.169291)"/>
<path style="fill:none;stroke-width:0.566929;stroke-linecap:butt;stroke-linejoin:miter;stroke:rgb(100%,0%,0%);stroke-opacity:0.5;stroke-miterlimit:10;" d="M 32.658388 13.700511 L 26.990419 8.030589 " transform="matrix(2,0,0,2,5.952756,6.169291)"/>
<path style="fill-rule:nonzero;fill:rgb(50%,50%,0%);fill-opacity:0.1;stroke-width:0.566929;stroke-linecap:butt;stroke-linejoin:miter;stroke:rgb(100%,0%,0%);stroke-opacity:0.5;stroke-miterlimit:10;" d="M 29.824403 10.866526 L 36.824403 10.866526 L 36.824403 2.835276 L 29.824403 2.835276 Z M 29.824403 10.866526 " transform="matrix(2,0,0,2,5.952756,6.169291)"/>
<path style=" stroke:none;fill-rule:nonzero;fill:rgb(0%,0%,0%);fill-opacity:1;" d="M 75.007812 18.933594 L 77.289062 18.933594 L 77.289062 18.308594 L 74.945312 18.308594 L 74.945312 15.996094 C 74.945312 14.214844 75.914062 13.277344 76.789062 13.277344 C 76.851562 13.277344 77.164062 13.277344 77.445312 13.433594 C 77.226562 13.496094 76.851562 13.777344 76.851562 14.277344 C 76.851562 14.714844 77.164062 15.121094 77.726562 15.121094 C 78.289062 15.121094 78.601562 14.714844 78.601562 14.246094 C 78.601562 13.527344 77.882812 12.839844 76.789062 12.839844 C 75.601562 12.839844 74.726562 13.589844 74.632812 13.683594 C 74.039062 12.933594 72.914062 12.839844 72.382812 12.839844 C 70.507812 12.839844 68.195312 13.871094 68.195312 16.027344 L 68.195312 18.308594 L 66.601562 18.308594 L 66.601562 18.933594 L 68.195312 18.933594 L 68.195312 25.402344 C 68.195312 26.277344 67.976562 26.277344 66.632812 26.277344 L 66.632812 26.902344 C 67.289062 26.871094 68.351562 26.839844 68.851562 26.839844 C 69.351562 26.839844 70.320312 26.871094 71.070312 26.902344 L 71.070312 26.277344 C 69.726562 26.277344 69.507812 26.277344 69.507812 25.402344 L 69.507812 18.933594 L 73.695312 18.933594 L 73.695312 25.402344 C 73.695312 26.277344 73.476562 26.277344 72.132812 26.277344 L 72.132812 26.902344 C 72.914062 26.871094 73.851562 26.839844 74.414062 26.839844 C 75.195312 26.839844 76.132812 26.839844 76.945312 26.902344 L 76.945312 26.277344 L 76.507812 26.277344 C 75.039062 26.277344 75.007812 26.058594 75.007812 25.339844 Z M 69.445312 18.308594 L 69.445312 16.058594 C 69.445312 14.121094 71.070312 13.277344 72.382812 13.277344 C 73.351562 13.277344 73.914062 13.652344 73.914062 13.652344 L 73.914062 13.683594 C 73.601562 13.714844 73.195312 13.996094 73.195312 14.527344 C 73.195312 14.652344 73.195312 15.152344 73.757812 15.339844 C 73.695312 15.589844 73.695312 15.777344 73.695312 16.027344 L 73.695312 18.308594 Z M 69.445312 18.308594 "/>
<path style="fill:none;stroke-width:0.566929;stroke-linecap:butt;stroke-linejoin:miter;stroke:rgb(100%,0%,0%);stroke-opacity:0.5;stroke-miterlimit:10;" d="M 68.168153 2.835276 L 73.838075 -2.834646 " transform="matrix(2,0,0,2,5.952756,6.169291)"/>
<path style="fill:none;stroke-width:0.566929;stroke-linecap:butt;stroke-linejoin:miter;stroke:rgb(100%,0%,0%);stroke-opacity:0.5;stroke-miterlimit:10;" d="M 73.838075 2.835276 L 68.168153 -2.834646 " transform="matrix(2,0,0,2,5.952756,6.169291)"/>
<path style="fill-rule:nonzero;fill:rgb(50%,50%,0%);fill-opacity:0.1;stroke-width:0.566929;stroke-linecap:butt;stroke-linejoin:miter;stroke:rgb(100%,0%,0%);stroke-opacity:0.5;stroke-miterlimit:10;" d="M 59.679872 13.700511 L 82.326356 13.700511 L 82.326356 -0.000661294 L 59.679872 -0.000661294 Z M 59.679872 13.700511 " transform="matrix(2,0,0,2,5.952756,6.169291)"/>
<path style="fill:none;stroke-width:0.566929;stroke-linecap:butt;stroke-linejoin:miter;stroke:rgb(100%,0%,0%);stroke-opacity:0.5;stroke-miterlimit:10;" d="M 59.679872 13.591136 L 65.349794 7.921214 " transform="matrix(2,0,0,2,5.952756,6.169291)"/>
<path style="fill:none;stroke-width:0.566929;stroke-linecap:butt;stroke-linejoin:miter;stroke:rgb(100%,0%,0%);stroke-opacity:0.5;stroke-miterlimit:10;" d="M 65.349794 13.591136 L 59.679872 7.921214 " transform="matrix(2,0,0,2,5.952756,6.169291)"/>
<path style="fill-rule:nonzero;fill:rgb(50%,50%,0%);fill-opacity:0.1;stroke-width:0.566929;stroke-linecap:butt;stroke-linejoin:miter;stroke:rgb(100%,0%,0%);stroke-opacity:0.5;stroke-miterlimit:10;" d="M 59.679872 13.700511 L 82.326356 13.700511 L 82.326356 -0.000661294 L 59.679872 -0.000661294 Z M 59.679872 13.700511 " transform="matrix(2,0,0,2,5.952756,6.169291)"/>
<path style="fill:none;stroke-width:0.566929;stroke-linecap:butt;stroke-linejoin:miter;stroke:rgb(100%,0%,0%);stroke-opacity:0.5;stroke-miterlimit:10;" d="M 59.679872 13.591136 L 65.349794 7.921214 " transform="matrix(2,0,0,2,5.952756,6.169291)"/>
<path style="fill:none;stroke-width:0.566929;stroke-linecap:butt;stroke-linejoin:miter;stroke:rgb(100%,0%,0%);stroke-opacity:0.5;stroke-miterlimit:10;" d="M 65.349794 13.591136 L 59.679872 7.921214 " transform="matrix(2,0,0,2,5.952756,6.169291)"/>
<path style="fill-rule:nonzero;fill:rgb(50%,50%,0%);fill-opacity:0.1;stroke-width:0.566929;stroke-linecap:butt;stroke-linejoin:miter;stroke:rgb(100%,0%,0%);stroke-opacity:0.5;stroke-miterlimit:10;" d="M 62.51581 10.866526 L 79.492372 10.866526 L 79.492372 2.835276 L 62.51581 2.835276 Z M 62.51581 10.866526 " transform="matrix(2,0,0,2,5.952756,6.169291)"/>
<path style=" stroke:none;fill-rule:nonzero;fill:rgb(0%,0%,0%);fill-opacity:1;" d="M 134.859375 19.152344 L 134.859375 12.839844 L 131.984375 13.058594 L 131.984375 13.683594 C 133.390625 13.683594 133.546875 13.808594 133.546875 14.808594 L 133.546875 26.683594 L 134.046875 26.683594 C 134.046875 26.652344 134.203125 26.371094 134.765625 25.433594 C 135.046875 25.902344 135.890625 26.902344 137.359375 26.902344 C 139.734375 26.902344 141.796875 24.933594 141.796875 22.371094 C 141.796875 19.839844 139.859375 17.871094 137.578125 17.871094 C 136.015625 17.871094 135.171875 18.808594 134.859375 19.152344 Z M 134.921875 24.402344 L 134.921875 20.308594 C 134.921875 19.933594 134.921875 19.902344 135.140625 19.589844 C 135.921875 18.464844 137.015625 18.308594 137.484375 18.308594 C 138.390625 18.308594 139.109375 18.839844 139.578125 19.589844 C 140.109375 20.402344 140.140625 21.527344 140.140625 22.371094 C 140.140625 23.089844 140.109375 24.277344 139.546875 25.183594 C 139.109375 25.808594 138.359375 26.464844 137.296875 26.464844 C 136.390625 26.464844 135.671875 25.996094 135.203125 25.246094 C 134.921875 24.839844 134.921875 24.777344 134.921875 24.402344 Z M 134.921875 24.402344 "/>
<path style=" stroke:none;fill-rule:nonzero;fill:rgb(0%,0%,0%);fill-opacity:1;" d="M 145.929688 19.152344 L 145.929688 12.839844 L 143.054688 13.058594 L 143.054688 13.683594 C 144.460938 13.683594 144.617188 13.808594 144.617188 14.808594 L 144.617188 26.683594 L 145.117188 26.683594 C 145.117188 26.652344 145.273438 26.371094 145.835938 25.433594 C 146.117188 25.902344 146.960938 26.902344 148.429688 26.902344 C 150.804688 26.902344 152.867188 24.933594 152.867188 22.371094 C 152.867188 19.839844 150.929688 17.871094 148.648438 17.871094 C 147.085938 17.871094 146.242188 18.808594 145.929688 19.152344 Z M 145.992188 24.402344 L 145.992188 20.308594 C 145.992188 19.933594 145.992188 19.902344 146.210938 19.589844 C 146.992188 18.464844 148.085938 18.308594 148.554688 18.308594 C 149.460938 18.308594 150.179688 18.839844 150.648438 19.589844 C 151.179688 20.402344 151.210938 21.527344 151.210938 22.371094 C 151.210938 23.089844 151.179688 24.277344 150.617188 25.183594 C 150.179688 25.808594 149.429688 26.464844 148.367188 26.464844 C 147.460938 26.464844 146.742188 25.996094 146.273438 25.246094 C 145.992188 24.839844 145.992188 24.777344 145.992188 24.402344 Z M 145.992188 24.402344 "/>
<path style=" stroke:none;fill-rule:nonzero;fill:rgb(0%,0%,0%);fill-opacity:1;" d="M 157 19.152344 L 157 12.839844 L 154.125 13.058594 L 154.125 13.683594 C 155.53125 13.683594 155.6875 13.808594 155.6875 14.808594 L 155.6875 26.683594 L 156.1875 26.683594 C 156.1875 26.652344 156.34375 26.371094 156.90625 25.433594 C 157.1875 25.902344 158.03125 26.902344 159.5 26.902344 C 161.875 26.902344 163.9375 24.933594 163.9375 22.371094 C 163.9375 19.839844 162 17.871094 159.71875 17.871094 C 158.15625 17.871094 157.3125 18.808594 157 19.152344 Z M 157.0625 24.402344 L 157.0625 20.308594 C 157.0625 19.933594 157.0625 19.902344 157.28125 19.589844 C 158.0625 18.464844 159.15625 18.308594 159.625 18.308594 C 160.53125 18.308594 161.25 18.839844 161.71875 19.589844 C 162.25 20.402344 162.28125 21.527344 162.28125 22.371094 C 162.28125 23.089844 162.25 24.277344 161.6875 25.183594 C 161.25 25.808594 160.5 26.464844 159.4375 26.464844 C 158.53125 26.464844 157.8125 25.996094 157.34375 25.246094 C 157.0625 24.839844 157.0625 24.777344 157.0625 24.402344 Z M 157.0625 24.402344 "/>
<path style="fill:none;stroke-width:0.566929;stroke-linecap:butt;stroke-linejoin:miter;stroke:rgb(100%,0%,0%);stroke-opacity:0.5;stroke-miterlimit:10;" d="M 93.70331 2.835276 L 99.371278 -2.834646 " transform="matrix(2,0,0,2,5.952756,6.169291)"/>
<path style="fill:none;stroke-width:0.566929;stroke-linecap:butt;stroke-linejoin:miter;stroke:rgb(100%,0%,0%);stroke-opacity:0.5;stroke-miterlimit:10;" d="M 99.371278 2.835276 L 93.70331 -2.834646 " transform="matrix(2,0,0,2,5.952756,6.169291)"/>
<path style="fill:none;stroke-width:0.566929;stroke-linecap:butt;stroke-linejoin:miter;stroke:rgb(100%,0%,0%);stroke-opacity:0.5;stroke-miterlimit:10;" d="M 96.537294 28.346995 L 96.537294 -0.000661294 Z M 96.537294 28.346995 " transform="matrix(2,0,0,2,5.952756,6.169291)"/>
<path style="fill:none;stroke-width:0.566929;stroke-linecap:butt;stroke-linejoin:miter;stroke:rgb(100%,0%,0%);stroke-opacity:0.5;stroke-miterlimit:10;" d="M 7.754091 31.180979 L 13.424013 25.511057 " transform="matrix(2,0,0,2,5.952756,6.169291)"/>
<path style="fill:none;stroke-width:0.566929;stroke-linecap:butt;stroke-linejoin:miter;stroke:rgb(100%,0%,0%);stroke-opacity:0.5;stroke-miterlimit:10;" d="M 13.424013 31.180979 L 7.754091 25.511057 " transform="matrix(2,0,0,2,5.952756,6.169291)"/>
<path style="fill-rule:nonzero;fill:rgb(50%,50%,0%);fill-opacity:0.1;stroke-width:0.566929;stroke-linecap:butt;stroke-linejoin:miter;stroke:rgb(100%,0%,0%);stroke-opacity:0.5;stroke-miterlimit:10;" d="M 2.117372 39.311839 L 19.060731 39.311839 L 19.060731 28.346995 L 2.117372 28.346995 Z M 2.117372 39.311839 " transform="matrix(2,0,0,2,5.952756,6.169291)"/>
<path style="fill:none;stroke-width:0.566929;stroke-linecap:butt;stroke-linejoin:miter;stroke:rgb(100%,0%,0%);stroke-opacity:0.5;stroke-miterlimit:10;" d="M 2.117372 39.311839 L 7.787294 33.64387 " transform="matrix(2,0,0,2,5.952756,6.169291)"/>
<path style="fill:none;stroke-width:0.566929;stroke-linecap:butt;stroke-linejoin:miter;stroke:rgb(100%,0%,0%);stroke-opacity:0.5;stroke-miterlimit:10;" d="M 7.787294 39.311839 L 2.117372 33.64387 " transform="matrix(2,0,0,2,5.952756,6.169291)"/>
<path style="fill-rule:nonzero;fill:rgb(50%,50%,0%);fill-opacity:0.1;stroke-width:0.566929;stroke-linecap:butt;stroke-linejoin:miter;stroke:rgb(100%,0%,0%);stroke-opacity:0.5;stroke-miterlimit:10;" d="M 2.117372 39.311839 L 19.060731 39.311839 L 19.060731 28.346995 L 2.117372 28.346995 Z M 2.117372 39.311839 " transform="matrix(2,0,0,2,5.952756,6.169291)"/>
<path style="fill:none;stroke-width:0.566929;stroke-linecap:butt;stroke-linejoin:miter;stroke:rgb(100%,0%,0%);stroke-opacity:0.5;stroke-miterlimit:10;" d="M 2.117372 39.311839 L 7.787294 33.64387 " transform="matrix(2,0,0,2,5.952756,6.169291)"/>
<path style="fill:none;stroke-width:0.566929;stroke-linecap:butt;stroke-linejoin:miter;stroke:rgb(100%,0%,0%);stroke-opacity:0.5;stroke-miterlimit:10;" d="M 7.787294 39.311839 L 2.117372 33.64387 " transform="matrix(2,0,0,2,5.952756,6.169291)"/>
<path style="fill-rule:nonzero;fill:rgb(50%,50%,0%);fill-opacity:0.1;stroke-width:0.566929;stroke-linecap:butt;stroke-linejoin:miter;stroke:rgb(100%,0%,0%);stroke-opacity:0.5;stroke-miterlimit:10;" d="M 4.95331 36.477854 L 16.226747 36.477854 L 16.226747 31.180979 L 4.95331 31.180979 Z M 4.95331 36.477854 " transform="matrix(2,0,0,2,5.952756,6.169291)"/>
<path style=" stroke:none;fill-rule:nonzero;fill:rgb(0%,0%,0%);fill-opacity:1;" d="M 22.328125 73.4375 C 22.921875 72.6875 23.671875 71.71875 24.171875 71.1875 C 24.796875 70.46875 25.609375 70.15625 26.546875 70.15625 L 26.546875 69.53125 C 26.015625 69.5625 25.421875 69.59375 24.890625 69.59375 C 24.296875 69.59375 23.234375 69.5625 22.984375 69.53125 L 22.984375 70.15625 C 23.421875 70.1875 23.578125 70.4375 23.578125 70.78125 C 23.578125 71.09375 23.359375 71.34375 23.265625 71.46875 L 22.046875 73.03125 L 20.484375 71 C 20.296875 70.8125 20.296875 70.78125 20.296875 70.65625 C 20.296875 70.34375 20.609375 70.15625 20.984375 70.15625 L 20.984375 69.53125 C 20.484375 69.5625 19.171875 69.59375 18.828125 69.59375 C 18.421875 69.59375 17.484375 69.5625 16.953125 69.53125 L 16.953125 70.15625 C 18.359375 70.15625 18.359375 70.15625 19.296875 71.375 L 21.265625 73.9375 L 19.390625 76.3125 C 18.453125 77.46875 17.265625 77.5 16.859375 77.5 L 16.859375 78.125 C 17.359375 78.09375 17.984375 78.0625 18.515625 78.0625 C 19.078125 78.0625 19.921875 78.09375 20.390625 78.125 L 20.390625 77.5 C 19.953125 77.4375 19.828125 77.1875 19.828125 76.875 C 19.828125 76.4375 20.390625 75.78125 21.609375 74.34375 L 23.140625 76.34375 C 23.296875 76.5625 23.546875 76.875 23.546875 77 C 23.546875 77.1875 23.359375 77.5 22.828125 77.5 L 22.828125 78.125 C 23.421875 78.09375 24.546875 78.0625 24.984375 78.0625 C 25.515625 78.0625 26.296875 78.09375 26.890625 78.125 L 26.890625 77.5 C 25.828125 77.5 25.453125 77.46875 25.015625 76.875 Z M 22.328125 73.4375 "/>
<path style=" stroke:none;fill-rule:nonzero;fill:rgb(0%,0%,0%);fill-opacity:1;" d="M 32.84375 73.4375 C 33.4375 72.6875 34.1875 71.71875 34.6875 71.1875 C 35.3125 70.46875 36.125 70.15625 37.0625 70.15625 L 37.0625 69.53125 C 36.53125 69.5625 35.9375 69.59375 35.40625 69.59375 C 34.8125 69.59375 33.75 69.5625 33.5 69.53125 L 33.5 70.15625 C 33.9375 70.1875 34.09375 70.4375 34.09375 70.78125 C 34.09375 71.09375 33.875 71.34375 33.78125 71.46875 L 32.5625 73.03125 L 31 71 C 30.8125 70.8125 30.8125 70.78125 30.8125 70.65625 C 30.8125 70.34375 31.125 70.15625 31.5 70.15625 L 31.5 69.53125 C 31 69.5625 29.6875 69.59375 29.34375 69.59375 C 28.9375 69.59375 28 69.5625 27.46875 69.53125 L 27.46875 70.15625 C 28.875 70.15625 28.875 70.15625 29.8125 71.375 L 31.78125 73.9375 L 29.90625 76.3125 C 28.96875 77.46875 27.78125 77.5 27.375 77.5 L 27.375 78.125 C 27.875 78.09375 28.5 78.0625 29.03125 78.0625 C 29.59375 78.0625 30.4375 78.09375 30.90625 78.125 L 30.90625 77.5 C 30.46875 77.4375 30.34375 77.1875 30.34375 76.875 C 30.34375 76.4375 30.90625 75.78125 32.125 74.34375 L 33.65625 76.34375 C 33.8125 76.5625 34.0625 76.875 34.0625 77 C 34.0625 77.1875 33.875 77.5 33.34375 77.5 L 33.34375 78.125 C 33.9375 78.09375 35.0625 78.0625 35.5 78.0625 C 36.03125 78.0625 36.8125 78.09375 37.40625 78.125 L 37.40625 77.5 C 36.34375 77.5 35.96875 77.46875 35.53125 76.875 Z M 32.84375 73.4375 "/>
<path style="fill:none;stroke-width:0.566929;stroke-linecap:butt;stroke-linejoin:miter;stroke:rgb(100%,0%,0%);stroke-opacity:0.5;stroke-miterlimit:10;" d="M 30.490419 31.180979 L 36.158388 25.511057 " transform="matrix(2,0,0,2,5.952756,6.169291)"/>
<path style="fill:none;stroke-width:0.566929;stroke-linecap:butt;stroke-linejoin:miter;stroke:rgb(100%,0%,0%);stroke-opacity:0.5;stroke-miterlimit:10;" d="M 36.158388 31.180979 L 30.490419 25.511057 " transform="matrix(2,0,0,2,5.952756,6.169291)"/>
<path style="fill-rule:nonzero;fill:rgb(50%,50%,0%);fill-opacity:0.1;stroke-width:0.566929;stroke-linecap:butt;stroke-linejoin:miter;stroke:rgb(100%,0%,0%);stroke-opacity:0.5;stroke-miterlimit:10;" d="M 24.084169 42.046214 L 42.564638 42.046214 L 42.564638 28.346995 L 24.084169 28.346995 Z M 24.084169 42.046214 " transform="matrix(2,0,0,2,5.952756,6.169291)"/>
<path style="fill:none;stroke-width:0.566929;stroke-linecap:butt;stroke-linejoin:miter;stroke:rgb(100%,0%,0%);stroke-opacity:0.5;stroke-miterlimit:10;" d="M 24.084169 42.046214 L 29.754091 36.378245 " transform="matrix(2,0,0,2,5.952756,6.169291)"/>
<path style="fill:none;stroke-width:0.566929;stroke-linecap:butt;stroke-linejoin:miter;stroke:rgb(100%,0%,0%);stroke-opacity:0.5;stroke-miterlimit:10;" d="M 29.754091 42.046214 L 24.084169 36.378245 " transform="matrix(2,0,0,2,5.952756,6.169291)"/>
<path style="fill-rule:nonzero;fill:rgb(50%,50%,0%);fill-opacity:0.1;stroke-width:0.566929;stroke-linecap:butt;stroke-linejoin:miter;stroke:rgb(100%,0%,0%);stroke-opacity:0.5;stroke-miterlimit:10;" d="M 24.084169 42.046214 L 42.564638 42.046214 L 42.564638 28.346995 L 24.084169 28.346995 Z M 24.084169 42.046214 " transform="matrix(2,0,0,2,5.952756,6.169291)"/>
<path style="fill:none;stroke-width:0.566929;stroke-linecap:butt;stroke-linejoin:miter;stroke:rgb(100%,0%,0%);stroke-opacity:0.5;stroke-miterlimit:10;" d="M 24.084169 42.046214 L 29.754091 36.378245 " transform="matrix(2,0,0,2,5.952756,6.169291)"/>
<path style="fill:none;stroke-width:0.566929;stroke-linecap:butt;stroke-linejoin:miter;stroke:rgb(100%,0%,0%);stroke-opacity:0.5;stroke-miterlimit:10;" d="M 29.754091 42.046214 L 24.084169 36.378245 " transform="matrix(2,0,0,2,5.952756,6.169291)"/>
<path style="fill-rule:nonzero;fill:rgb(50%,50%,0%);fill-opacity:0.1;stroke-width:0.566929;stroke-linecap:butt;stroke-linejoin:miter;stroke:rgb(100%,0%,0%);stroke-opacity:0.5;stroke-miterlimit:10;" d="M 26.918153 39.212229 L 39.730653 39.212229 L 39.730653 31.180979 L 26.918153 31.180979 Z M 26.918153 39.212229 " transform="matrix(2,0,0,2,5.952756,6.169291)"/>
<path style=" stroke:none;fill-rule:nonzero;fill:rgb(0%,0%,0%);fill-opacity:1;" d="M 69.195312 75.625 L 71.476562 75.625 L 71.476562 75 L 69.132812 75 L 69.132812 72.6875 C 69.132812 70.90625 70.101562 69.96875 70.976562 69.96875 C 71.039062 69.96875 71.351562 69.96875 71.632812 70.125 C 71.414062 70.1875 71.039062 70.46875 71.039062 70.96875 C 71.039062 71.40625 71.351562 71.8125 71.914062 71.8125 C 72.476562 71.8125 72.789062 71.40625 72.789062 70.9375 C 72.789062 70.21875 72.070312 69.53125 70.976562 69.53125 C 69.789062 69.53125 68.914062 70.28125 68.820312 70.375 C 68.226562 69.625 67.101562 69.53125 66.570312 69.53125 C 64.695312 69.53125 62.382812 70.5625 62.382812 72.71875 L 62.382812 75 L 60.789062 75 L 60.789062 75.625 L 62.382812 75.625 L 62.382812 82.09375 C 62.382812 82.96875 62.164062 82.96875 60.820312 82.96875 L 60.820312 83.59375 C 61.476562 83.5625 62.539062 83.53125 63.039062 83.53125 C 63.539062 83.53125 64.507812 83.5625 65.257812 83.59375 L 65.257812 82.96875 C 63.914062 82.96875 63.695312 82.96875 63.695312 82.09375 L 63.695312 75.625 L 67.882812 75.625 L 67.882812 82.09375 C 67.882812 82.96875 67.664062 82.96875 66.320312 82.96875 L 66.320312 83.59375 C 67.101562 83.5625 68.039062 83.53125 68.601562 83.53125 C 69.382812 83.53125 70.320312 83.53125 71.132812 83.59375 L 71.132812 82.96875 L 70.695312 82.96875 C 69.226562 82.96875 69.195312 82.75 69.195312 82.03125 Z M 63.632812 75 L 63.632812 72.75 C 63.632812 70.8125 65.257812 69.96875 66.570312 69.96875 C 67.539062 69.96875 68.101562 70.34375 68.101562 70.34375 L 68.101562 70.375 C 67.789062 70.40625 67.382812 70.6875 67.382812 71.21875 C 67.382812 71.34375 67.382812 71.84375 67.945312 72.03125 C 67.882812 72.28125 67.882812 72.46875 67.882812 72.71875 L 67.882812 75 Z M 63.632812 75 "/>
<path style=" stroke:none;fill-rule:nonzero;fill:rgb(0%,0%,0%);fill-opacity:1;" d="M 80.820312 75.625 L 83.101562 75.625 L 83.101562 75 L 80.757812 75 L 80.757812 72.6875 C 80.757812 70.90625 81.726562 69.96875 82.601562 69.96875 C 82.664062 69.96875 82.976562 69.96875 83.257812 70.125 C 83.039062 70.1875 82.664062 70.46875 82.664062 70.96875 C 82.664062 71.40625 82.976562 71.8125 83.539062 71.8125 C 84.101562 71.8125 84.414062 71.40625 84.414062 70.9375 C 84.414062 70.21875 83.695312 69.53125 82.601562 69.53125 C 81.414062 69.53125 80.539062 70.28125 80.445312 70.375 C 79.851562 69.625 78.726562 69.53125 78.195312 69.53125 C 76.320312 69.53125 74.007812 70.5625 74.007812 72.71875 L 74.007812 75 L 72.414062 75 L 72.414062 75.625 L 74.007812 75.625 L 74.007812 82.09375 C 74.007812 82.96875 73.789062 82.96875 72.445312 82.96875 L 72.445312 83.59375 C 73.101562 83.5625 74.164062 83.53125 74.664062 83.53125 C 75.164062 83.53125 76.132812 83.5625 76.882812 83.59375 L 76.882812 82.96875 C 75.539062 82.96875 75.320312 82.96875 75.320312 82.09375 L 75.320312 75.625 L 79.507812 75.625 L 79.507812 82.09375 C 79.507812 82.96875 79.289062 82.96875 77.945312 82.96875 L 77.945312 83.59375 C 78.726562 83.5625 79.664062 83.53125 80.226562 83.53125 C 81.007812 83.53125 81.945312 83.53125 82.757812 83.59375 L 82.757812 82.96875 L 82.320312 82.96875 C 80.851562 82.96875 80.820312 82.75 80.820312 82.03125 Z M 75.257812 75 L 75.257812 72.75 C 75.257812 70.8125 76.882812 69.96875 78.195312 69.96875 C 79.164062 69.96875 79.726562 70.34375 79.726562 70.34375 L 79.726562 70.375 C 79.414062 70.40625 79.007812 70.6875 79.007812 71.21875 C 79.007812 71.34375 79.007812 71.84375 79.570312 72.03125 C 79.507812 72.28125 79.507812 72.46875 79.507812 72.71875 L 79.507812 75 Z M 75.257812 75 "/>
<path style="fill:none;stroke-width:0.566929;stroke-linecap:butt;stroke-linejoin:miter;stroke:rgb(100%,0%,0%);stroke-opacity:0.5;stroke-miterlimit:10;" d="M 68.168153 31.180979 L 73.838075 25.511057 " transform="matrix(2,0,0,2,5.952756,6.169291)"/>
<path style="fill:none;stroke-width:0.566929;stroke-linecap:butt;stroke-linejoin:miter;stroke:rgb(100%,0%,0%);stroke-opacity:0.5;stroke-miterlimit:10;" d="M 73.838075 31.180979 L 68.168153 25.511057 " transform="matrix(2,0,0,2,5.952756,6.169291)"/>
<path style="fill-rule:nonzero;fill:rgb(50%,50%,0%);fill-opacity:0.1;stroke-width:0.566929;stroke-linecap:butt;stroke-linejoin:miter;stroke:rgb(100%,0%,0%);stroke-opacity:0.5;stroke-miterlimit:10;" d="M 52.01581 39.311839 L 89.992372 39.311839 L 89.992372 28.346995 L 52.01581 28.346995 Z M 52.01581 39.311839 " transform="matrix(2,0,0,2,5.952756,6.169291)"/>
<path style="fill:none;stroke-width:0.566929;stroke-linecap:butt;stroke-linejoin:miter;stroke:rgb(100%,0%,0%);stroke-opacity:0.5;stroke-miterlimit:10;" d="M 52.01581 39.311839 L 57.685731 33.64387 " transform="matrix(2,0,0,2,5.952756,6.169291)"/>
<path style="fill:none;stroke-width:0.566929;stroke-linecap:butt;stroke-linejoin:miter;stroke:rgb(100%,0%,0%);stroke-opacity:0.5;stroke-miterlimit:10;" d="M 57.685731 39.311839 L 52.01581 33.64387 " transform="matrix(2,0,0,2,5.952756,6.169291)"/>
<path style="fill-rule:nonzero;fill:rgb(50%,50%,0%);fill-opacity:0.1;stroke-width:0.566929;stroke-linecap:butt;stroke-linejoin:miter;stroke:rgb(100%,0%,0%);stroke-opacity:0.5;stroke-miterlimit:10;" d="M 52.01581 39.311839 L 89.992372 39.311839 L 89.992372 28.346995 L 52.01581 28.346995 Z M 52.01581 39.311839 " transform="matrix(2,0,0,2,5.952756,6.169291)"/>
<path style="fill:none;stroke-width:0.566929;stroke-linecap:butt;stroke-linejoin:miter;stroke:rgb(100%,0%,0%);stroke-opacity:0.5;stroke-miterlimit:10;" d="M 52.01581 39.311839 L 57.685731 33.64387 " transform="matrix(2,0,0,2,5.952756,6.169291)"/>
<path style="fill:none;stroke-width:0.566929;stroke-linecap:butt;stroke-linejoin:miter;stroke:rgb(100%,0%,0%);stroke-opacity:0.5;stroke-miterlimit:10;" d="M 57.685731 39.311839 L 52.01581 33.64387 " transform="matrix(2,0,0,2,5.952756,6.169291)"/>
<path style="fill-rule:nonzero;fill:rgb(50%,50%,0%);fill-opacity:0.1;stroke-width:0.566929;stroke-linecap:butt;stroke-linejoin:miter;stroke:rgb(100%,0%,0%);stroke-opacity:0.5;stroke-miterlimit:10;" d="M 54.849794 36.477854 L 87.156435 36.477854 L 87.156435 31.180979 L 54.849794 31.180979 Z M 54.849794 36.477854 " transform="matrix(2,0,0,2,5.952756,6.169291)"/>
<path style=" stroke:none;fill-rule:nonzero;fill:rgb(0%,0%,0%);fill-opacity:1;" d="M 122.121094 73.4375 C 122.714844 72.6875 123.464844 71.71875 123.964844 71.1875 C 124.589844 70.46875 125.402344 70.15625 126.339844 70.15625 L 126.339844 69.53125 C 125.808594 69.5625 125.214844 69.59375 124.683594 69.59375 C 124.089844 69.59375 123.027344 69.5625 122.777344 69.53125 L 122.777344 70.15625 C 123.214844 70.1875 123.371094 70.4375 123.371094 70.78125 C 123.371094 71.09375 123.152344 71.34375 123.058594 71.46875 L 121.839844 73.03125 L 120.277344 71 C 120.089844 70.8125 120.089844 70.78125 120.089844 70.65625 C 120.089844 70.34375 120.402344 70.15625 120.777344 70.15625 L 120.777344 69.53125 C 120.277344 69.5625 118.964844 69.59375 118.621094 69.59375 C 118.214844 69.59375 117.277344 69.5625 116.746094 69.53125 L 116.746094 70.15625 C 118.152344 70.15625 118.152344 70.15625 119.089844 71.375 L 121.058594 73.9375 L 119.183594 76.3125 C 118.246094 77.46875 117.058594 77.5 116.652344 77.5 L 116.652344 78.125 C 117.152344 78.09375 117.777344 78.0625 118.308594 78.0625 C 118.871094 78.0625 119.714844 78.09375 120.183594 78.125 L 120.183594 77.5 C 119.746094 77.4375 119.621094 77.1875 119.621094 76.875 C 119.621094 76.4375 120.183594 75.78125 121.402344 74.34375 L 122.933594 76.34375 C 123.089844 76.5625 123.339844 76.875 123.339844 77 C 123.339844 77.1875 123.152344 77.5 122.621094 77.5 L 122.621094 78.125 C 123.214844 78.09375 124.339844 78.0625 124.777344 78.0625 C 125.308594 78.0625 126.089844 78.09375 126.683594 78.125 L 126.683594 77.5 C 125.621094 77.5 125.246094 77.46875 124.808594 76.875 Z M 122.121094 73.4375 "/>
<path style=" stroke:none;fill-rule:nonzero;fill:rgb(0%,0%,0%);fill-opacity:1;" d="M 132.636719 73.4375 C 133.230469 72.6875 133.980469 71.71875 134.480469 71.1875 C 135.105469 70.46875 135.917969 70.15625 136.855469 70.15625 L 136.855469 69.53125 C 136.324219 69.5625 135.730469 69.59375 135.199219 69.59375 C 134.605469 69.59375 133.542969 69.5625 133.292969 69.53125 L 133.292969 70.15625 C 133.730469 70.1875 133.886719 70.4375 133.886719 70.78125 C 133.886719 71.09375 133.667969 71.34375 133.574219 71.46875 L 132.355469 73.03125 L 130.792969 71 C 130.605469 70.8125 130.605469 70.78125 130.605469 70.65625 C 130.605469 70.34375 130.917969 70.15625 131.292969 70.15625 L 131.292969 69.53125 C 130.792969 69.5625 129.480469 69.59375 129.136719 69.59375 C 128.730469 69.59375 127.792969 69.5625 127.261719 69.53125 L 127.261719 70.15625 C 128.667969 70.15625 128.667969 70.15625 129.605469 71.375 L 131.574219 73.9375 L 129.699219 76.3125 C 128.761719 77.46875 127.574219 77.5 127.167969 77.5 L 127.167969 78.125 C 127.667969 78.09375 128.292969 78.0625 128.824219 78.0625 C 129.386719 78.0625 130.230469 78.09375 130.699219 78.125 L 130.699219 77.5 C 130.261719 77.4375 130.136719 77.1875 130.136719 76.875 C 130.136719 76.4375 130.699219 75.78125 131.917969 74.34375 L 133.449219 76.34375 C 133.605469 76.5625 133.855469 76.875 133.855469 77 C 133.855469 77.1875 133.667969 77.5 133.136719 77.5 L 133.136719 78.125 C 133.730469 78.09375 134.855469 78.0625 135.292969 78.0625 C 135.824219 78.0625 136.605469 78.09375 137.199219 78.125 L 137.199219 77.5 C 136.136719 77.5 135.761719 77.46875 135.324219 76.875 Z M 132.636719 73.4375 "/>
<path style=" stroke:none;fill-rule:nonzero;fill:rgb(0%,0%,0%);fill-opacity:1;" d="M 143.15625 73.4375 C 143.75 72.6875 144.5 71.71875 145 71.1875 C 145.625 70.46875 146.4375 70.15625 147.375 70.15625 L 147.375 69.53125 C 146.84375 69.5625 146.25 69.59375 145.71875 69.59375 C 145.125 69.59375 144.0625 69.5625 143.8125 69.53125 L 143.8125 70.15625 C 144.25 70.1875 144.40625 70.4375 144.40625 70.78125 C 144.40625 71.09375 144.1875 71.34375 144.09375 71.46875 L 142.875 73.03125 L 141.3125 71 C 141.125 70.8125 141.125 70.78125 141.125 70.65625 C 141.125 70.34375 141.4375 70.15625 141.8125 70.15625 L 141.8125 69.53125 C 141.3125 69.5625 140 69.59375 139.65625 69.59375 C 139.25 69.59375 138.3125 69.5625 137.78125 69.53125 L 137.78125 70.15625 C 139.1875 70.15625 139.1875 70.15625 140.125 71.375 L 142.09375 73.9375 L 140.21875 76.3125 C 139.28125 77.46875 138.09375 77.5 137.6875 77.5 L 137.6875 78.125 C 138.1875 78.09375 138.8125 78.0625 139.34375 78.0625 C 139.90625 78.0625 140.75 78.09375 141.21875 78.125 L 141.21875 77.5 C 140.78125 77.4375 140.65625 77.1875 140.65625 76.875 C 140.65625 76.4375 141.21875 75.78125 142.4375 74.34375 L 143.96875 76.34375 C 144.125 76.5625 144.375 76.875 144.375 77 C 144.375 77.1875 144.1875 77.5 143.65625 77.5 L 143.65625 78.125 C 144.25 78.09375 145.375 78.0625 145.8125 78.0625 C 146.34375 78.0625 147.125 78.09375 147.71875 78.125 L 147.71875 77.5 C 146.65625 77.5 146.28125 77.46875 145.84375 76.875 Z M 143.15625 73.4375 "/>
<path style=" stroke:none;fill-rule:nonzero;fill:rgb(0%,0%,0%);fill-opacity:1;" d="M 153.671875 73.4375 C 154.265625 72.6875 155.015625 71.71875 155.515625 71.1875 C 156.140625 70.46875 156.953125 70.15625 157.890625 70.15625 L 157.890625 69.53125 C 157.359375 69.5625 156.765625 69.59375 156.234375 69.59375 C 155.640625 69.59375 154.578125 69.5625 154.328125 69.53125 L 154.328125 70.15625 C 154.765625 70.1875 154.921875 70.4375 154.921875 70.78125 C 154.921875 71.09375 154.703125 71.34375 154.609375 71.46875 L 153.390625 73.03125 L 151.828125 71 C 151.640625 70.8125 151.640625 70.78125 151.640625 70.65625 C 151.640625 70.34375 151.953125 70.15625 152.328125 70.15625 L 152.328125 69.53125 C 151.828125 69.5625 150.515625 69.59375 150.171875 69.59375 C 149.765625 69.59375 148.828125 69.5625 148.296875 69.53125 L 148.296875 70.15625 C 149.703125 70.15625 149.703125 70.15625 150.640625 71.375 L 152.609375 73.9375 L 150.734375 76.3125 C 149.796875 77.46875 148.609375 77.5 148.203125 77.5 L 148.203125 78.125 C 148.703125 78.09375 149.328125 78.0625 149.859375 78.0625 C 150.421875 78.0625 151.265625 78.09375 151.734375 78.125 L 151.734375 77.5 C 151.296875 77.4375 151.171875 77.1875 151.171875 76.875 C 151.171875 76.4375 151.734375 75.78125 152.953125 74.34375 L 154.484375 76.34375 C 154.640625 76.5625 154.890625 76.875 154.890625 77 C 154.890625 77.1875 154.703125 77.5 154.171875 77.5 L 154.171875 78.125 C 154.765625 78.09375 155.890625 78.0625 156.328125 78.0625 C 156.859375 78.0625 157.640625 78.09375 158.234375 78.125 L 158.234375 77.5 C 157.171875 77.5 156.796875 77.46875 156.359375 76.875 Z M 153.671875 73.4375 "/>
<path style=" stroke:none;fill-rule:nonzero;fill:rgb(0%,0%,0%);fill-opacity:1;" d="M 164.1875 73.4375 C 164.78125 72.6875 165.53125 71.71875 166.03125 71.1875 C 166.65625 70.46875 167.46875 70.15625 168.40625 70.15625 L 168.40625 69.53125 C 167.875 69.5625 167.28125 69.59375 166.75 69.59375 C 166.15625 69.59375 165.09375 69.5625 164.84375 69.53125 L 164.84375 70.15625 C 165.28125 70.1875 165.4375 70.4375 165.4375 70.78125 C 165.4375 71.09375 165.21875 71.34375 165.125 71.46875 L 163.90625 73.03125 L 162.34375 71 C 162.15625 70.8125 162.15625 70.78125 162.15625 70.65625 C 162.15625 70.34375 162.46875 70.15625 162.84375 70.15625 L 162.84375 69.53125 C 162.34375 69.5625 161.03125 69.59375 160.6875 69.59375 C 160.28125 69.59375 159.34375 69.5625 158.8125 69.53125 L 158.8125 70.15625 C 160.21875 70.15625 160.21875 70.15625 161.15625 71.375 L 163.125 73.9375 L 161.25 76.3125 C 160.3125 77.46875 159.125 77.5 158.71875 77.5 L 158.71875 78.125 C 159.21875 78.09375 159.84375 78.0625 160.375 78.0625 C 160.9375 78.0625 161.78125 78.09375 162.25 78.125 L 162.25 77.5 C 161.8125 77.4375 161.6875 77.1875 161.6875 76.875 C 161.6875 76.4375 162.25 75.78125 163.46875 74.34375 L 165 76.34375 C 165.15625 76.5625 165.40625 76.875 165.40625 77 C 165.40625 77.1875 165.21875 77.5 164.6875 77.5 L 164.6875 78.125 C 165.28125 78.09375 166.40625 78.0625 166.84375 78.0625 C 167.375 78.0625 168.15625 78.09375 168.75 78.125 L 168.75 77.5 C 167.6875 77.5 167.3125 77.46875 166.875 76.875 Z M 164.1875 73.4375 "/>
<path style=" stroke:none;fill-rule:nonzero;fill:rgb(0%,0%,0%);fill-opacity:1;" d="M 174.703125 73.4375 C 175.296875 72.6875 176.046875 71.71875 176.546875 71.1875 C 177.171875 70.46875 177.984375 70.15625 178.921875 70.15625 L 178.921875 69.53125 C 178.390625 69.5625 177.796875 69.59375 177.265625 69.59375 C 176.671875 69.59375 175.609375 69.5625 175.359375 69.53125 L 175.359375 70.15625 C 175.796875 70.1875 175.953125 70.4375 175.953125 70.78125 C 175.953125 71.09375 175.734375 71.34375 175.640625 71.46875 L 174.421875 73.03125 L 172.859375 71 C 172.671875 70.8125 172.671875 70.78125 172.671875 70.65625 C 172.671875 70.34375 172.984375 70.15625 173.359375 70.15625 L 173.359375 69.53125 C 172.859375 69.5625 171.546875 69.59375 171.203125 69.59375 C 170.796875 69.59375 169.859375 69.5625 169.328125 69.53125 L 169.328125 70.15625 C 170.734375 70.15625 170.734375 70.15625 171.671875 71.375 L 173.640625 73.9375 L 171.765625 76.3125 C 170.828125 77.46875 169.640625 77.5 169.234375 77.5 L 169.234375 78.125 C 169.734375 78.09375 170.359375 78.0625 170.890625 78.0625 C 171.453125 78.0625 172.296875 78.09375 172.765625 78.125 L 172.765625 77.5 C 172.328125 77.4375 172.203125 77.1875 172.203125 76.875 C 172.203125 76.4375 172.765625 75.78125 173.984375 74.34375 L 175.515625 76.34375 C 175.671875 76.5625 175.921875 76.875 175.921875 77 C 175.921875 77.1875 175.734375 77.5 175.203125 77.5 L 175.203125 78.125 C 175.796875 78.09375 176.921875 78.0625 177.359375 78.0625 C 177.890625 78.0625 178.671875 78.09375 179.265625 78.125 L 179.265625 77.5 C 178.203125 77.5 177.828125 77.46875 177.390625 76.875 Z M 174.703125 73.4375 "/>
<path style="fill:none;stroke-width:0.566929;stroke-linecap:butt;stroke-linejoin:miter;stroke:rgb(100%,0%,0%);stroke-opacity:0.5;stroke-miterlimit:10;" d="M 93.70331 31.180979 L 99.371278 25.511057 " transform="matrix(2,0,0,2,5.952756,6.169291)"/>
<path style="fill:none;stroke-width:0.566929;stroke-linecap:butt;stroke-linejoin:miter;stroke:rgb(100%,0%,0%);stroke-opacity:0.5;stroke-miterlimit:10;" d="M 99.371278 31.180979 L 93.70331 25.511057 " transform="matrix(2,0,0,2,5.952756,6.169291)"/>
<path style="fill:none;stroke-width:0.566929;stroke-linecap:butt;stroke-linejoin:miter;stroke:rgb(100%,0%,0%);stroke-opacity:0.5;stroke-miterlimit:10;" d="M 96.537294 56.692698 L 96.537294 28.346995 Z M 96.537294 56.692698 " transform="matrix(2,0,0,2,5.952756,6.169291)"/>
<path style="fill:none;stroke-width:0.566929;stroke-linecap:butt;stroke-linejoin:miter;stroke:rgb(100%,0%,0%);stroke-opacity:0.5;stroke-miterlimit:10;" d="M 7.754091 59.526682 L 13.424013 53.858714 " transform="matrix(2,0,0,2,5.952756,6.169291)"/>
<path style="fill:none;stroke-width:0.566929;stroke-linecap:butt;stroke-linejoin:miter;stroke:rgb(100%,0%,0%);stroke-opacity:0.5;stroke-miterlimit:10;" d="M 13.424013 59.526682 L 7.754091 53.858714 " transform="matrix(2,0,0,2,5.952756,6.169291)"/>
<path style="fill-rule:nonzero;fill:rgb(50%,50%,0%);fill-opacity:0.1;stroke-width:0.566929;stroke-linecap:butt;stroke-linejoin:miter;stroke:rgb(100%,0%,0%);stroke-opacity:0.5;stroke-miterlimit:10;" d="M 0.000184547 69.92512 L 21.177919 69.92512 L 21.177919 56.692698 L 0.000184547 56.692698 Z M 0.000184547 69.92512 " transform="matrix(2,0,0,2,5.952756,6.169291)"/>
<path style="fill:none;stroke-width:0.566929;stroke-linecap:butt;stroke-linejoin:miter;stroke:rgb(100%,0%,0%);stroke-opacity:0.5;stroke-miterlimit:10;" d="M 0.000184547 67.878245 L 5.670106 62.208323 " transform="matrix(2,0,0,2,5.952756,6.169291)"/>
<path style="fill:none;stroke-width:0.566929;stroke-linecap:butt;stroke-linejoin:miter;stroke:rgb(100%,0%,0%);stroke-opacity:0.5;stroke-miterlimit:10;" d="M 5.670106 67.878245 L 0.000184547 62.208323 " transform="matrix(2,0,0,2,5.952756,6.169291)"/>
<path style="fill-rule:nonzero;fill:rgb(50%,50%,0%);fill-opacity:0.1;stroke-width:0.566929;stroke-linecap:butt;stroke-linejoin:miter;stroke:rgb(100%,0%,0%);stroke-opacity:0.5;stroke-miterlimit:10;" d="M 0.000184547 69.92512 L 21.177919 69.92512 L 21.177919 56.692698 L 0.000184547 56.692698 Z M 0.000184547 69.92512 " transform="matrix(2,0,0,2,5.952756,6.169291)"/>
<path style="fill:none;stroke-width:0.566929;stroke-linecap:butt;stroke-linejoin:miter;stroke:rgb(100%,0%,0%);stroke-opacity:0.5;stroke-miterlimit:10;" d="M 0.000184547 67.878245 L 5.670106 62.208323 " transform="matrix(2,0,0,2,5.952756,6.169291)"/>
<path style="fill:none;stroke-width:0.566929;stroke-linecap:butt;stroke-linejoin:miter;stroke:rgb(100%,0%,0%);stroke-opacity:0.5;stroke-miterlimit:10;" d="M 5.670106 67.878245 L 0.000184547 62.208323 " transform="matrix(2,0,0,2,5.952756,6.169291)"/>
<path style="fill-rule:nonzero;fill:rgb(50%,50%,0%);fill-opacity:0.1;stroke-width:0.566929;stroke-linecap:butt;stroke-linejoin:miter;stroke:rgb(100%,0%,0%);stroke-opacity:0.5;stroke-miterlimit:10;" d="M 2.834169 67.089182 L 18.343935 67.089182 L 18.343935 59.526682 L 2.834169 59.526682 Z M 2.834169 67.089182 " transform="matrix(2,0,0,2,5.952756,6.169291)"/>
<path style=" stroke:none;fill-rule:nonzero;fill:rgb(0%,0%,0%);fill-opacity:1;" d="M 16.496094 131.816406 C 14.746094 131.816406 14.746094 129.816406 14.746094 129.378906 C 14.746094 128.847656 14.777344 128.191406 15.058594 127.691406 C 15.214844 127.472656 15.683594 126.910156 16.496094 126.910156 C 18.214844 126.910156 18.214844 128.878906 18.214844 129.347656 C 18.214844 129.878906 18.214844 130.535156 17.902344 131.035156 C 17.746094 131.253906 17.277344 131.816406 16.496094 131.816406 Z M 14.183594 132.597656 C 14.183594 132.535156 14.183594 132.066406 14.496094 131.660156 C 15.277344 132.222656 16.121094 132.285156 16.496094 132.285156 C 18.339844 132.285156 19.714844 130.910156 19.714844 129.378906 C 19.714844 128.628906 19.402344 127.910156 18.902344 127.441406 C 19.621094 126.753906 20.339844 126.660156 20.683594 126.660156 C 20.746094 126.660156 20.839844 126.660156 20.902344 126.691406 C 20.683594 126.753906 20.558594 126.972656 20.558594 127.222656 C 20.558594 127.566406 20.839844 127.785156 21.152344 127.785156 C 21.339844 127.785156 21.714844 127.660156 21.714844 127.191406 C 21.714844 126.847656 21.496094 126.222656 20.714844 126.222656 C 20.308594 126.222656 19.433594 126.347656 18.589844 127.160156 C 17.746094 126.503906 16.933594 126.441406 16.496094 126.441406 C 14.621094 126.441406 13.246094 127.816406 13.246094 129.347656 C 13.246094 130.222656 13.683594 130.972656 14.183594 131.410156 C 13.933594 131.691406 13.558594 132.347656 13.558594 133.066406 C 13.558594 133.691406 13.839844 134.441406 14.464844 134.847656 C 13.246094 135.160156 12.621094 136.035156 12.621094 136.816406 C 12.621094 138.253906 14.589844 139.347656 17.027344 139.347656 C 19.371094 139.347656 21.433594 138.347656 21.433594 136.785156 C 21.433594 136.097656 21.183594 135.066406 20.152344 134.503906 C 19.089844 133.972656 17.933594 133.972656 16.714844 133.972656 C 16.214844 133.972656 15.371094 133.972656 15.214844 133.941406 C 14.589844 133.847656 14.183594 133.253906 14.183594 132.597656 Z M 17.058594 138.910156 C 15.027344 138.910156 13.652344 137.878906 13.652344 136.816406 C 13.652344 135.910156 14.402344 135.160156 15.277344 135.128906 L 16.464844 135.128906 C 18.183594 135.128906 20.402344 135.128906 20.402344 136.816406 C 20.402344 137.910156 18.996094 138.910156 17.058594 138.910156 Z M 17.058594 138.910156 "/>
<path style=" stroke:none;fill-rule:nonzero;fill:rgb(0%,0%,0%);fill-opacity:1;" d="M 26.460938 131.816406 C 24.710938 131.816406 24.710938 129.816406 24.710938 129.378906 C 24.710938 128.847656 24.742188 128.191406 25.023438 127.691406 C 25.179688 127.472656 25.648438 126.910156 26.460938 126.910156 C 28.179688 126.910156 28.179688 128.878906 28.179688 129.347656 C 28.179688 129.878906 28.179688 130.535156 27.867188 131.035156 C 27.710938 131.253906 27.242188 131.816406 26.460938 131.816406 Z M 24.148438 132.597656 C 24.148438 132.535156 24.148438 132.066406 24.460938 131.660156 C 25.242188 132.222656 26.085938 132.285156 26.460938 132.285156 C 28.304688 132.285156 29.679688 130.910156 29.679688 129.378906 C 29.679688 128.628906 29.367188 127.910156 28.867188 127.441406 C 29.585938 126.753906 30.304688 126.660156 30.648438 126.660156 C 30.710938 126.660156 30.804688 126.660156 30.867188 126.691406 C 30.648438 126.753906 30.523438 126.972656 30.523438 127.222656 C 30.523438 127.566406 30.804688 127.785156 31.117188 127.785156 C 31.304688 127.785156 31.679688 127.660156 31.679688 127.191406 C 31.679688 126.847656 31.460938 126.222656 30.679688 126.222656 C 30.273438 126.222656 29.398438 126.347656 28.554688 127.160156 C 27.710938 126.503906 26.898438 126.441406 26.460938 126.441406 C 24.585938 126.441406 23.210938 127.816406 23.210938 129.347656 C 23.210938 130.222656 23.648438 130.972656 24.148438 131.410156 C 23.898438 131.691406 23.523438 132.347656 23.523438 133.066406 C 23.523438 133.691406 23.804688 134.441406 24.429688 134.847656 C 23.210938 135.160156 22.585938 136.035156 22.585938 136.816406 C 22.585938 138.253906 24.554688 139.347656 26.992188 139.347656 C 29.335938 139.347656 31.398438 138.347656 31.398438 136.785156 C 31.398438 136.097656 31.148438 135.066406 30.117188 134.503906 C 29.054688 133.972656 27.898438 133.972656 26.679688 133.972656 C 26.179688 133.972656 25.335938 133.972656 25.179688 133.941406 C 24.554688 133.847656 24.148438 133.253906 24.148438 132.597656 Z M 27.023438 138.910156 C 24.992188 138.910156 23.617188 137.878906 23.617188 136.816406 C 23.617188 135.910156 24.367188 135.160156 25.242188 135.128906 L 26.429688 135.128906 C 28.148438 135.128906 30.367188 135.128906 30.367188 136.816406 C 30.367188 137.910156 28.960938 138.910156 27.023438 138.910156 Z M 27.023438 138.910156 "/>
<path style=" stroke:none;fill-rule:nonzero;fill:rgb(0%,0%,0%);fill-opacity:1;" d="M 36.421875 131.816406 C 34.671875 131.816406 34.671875 129.816406 34.671875 129.378906 C 34.671875 128.847656 34.703125 128.191406 34.984375 127.691406 C 35.140625 127.472656 35.609375 126.910156 36.421875 126.910156 C 38.140625 126.910156 38.140625 128.878906 38.140625 129.347656 C 38.140625 129.878906 38.140625 130.535156 37.828125 131.035156 C 37.671875 131.253906 37.203125 131.816406 36.421875 131.816406 Z M 34.109375 132.597656 C 34.109375 132.535156 34.109375 132.066406 34.421875 131.660156 C 35.203125 132.222656 36.046875 132.285156 36.421875 132.285156 C 38.265625 132.285156 39.640625 130.910156 39.640625 129.378906 C 39.640625 128.628906 39.328125 127.910156 38.828125 127.441406 C 39.546875 126.753906 40.265625 126.660156 40.609375 126.660156 C 40.671875 126.660156 40.765625 126.660156 40.828125 126.691406 C 40.609375 126.753906 40.484375 126.972656 40.484375 127.222656 C 40.484375 127.566406 40.765625 127.785156 41.078125 127.785156 C 41.265625 127.785156 41.640625 127.660156 41.640625 127.191406 C 41.640625 126.847656 41.421875 126.222656 40.640625 126.222656 C 40.234375 126.222656 39.359375 126.347656 38.515625 127.160156 C 37.671875 126.503906 36.859375 126.441406 36.421875 126.441406 C 34.546875 126.441406 33.171875 127.816406 33.171875 129.347656 C 33.171875 130.222656 33.609375 130.972656 34.109375 131.410156 C 33.859375 131.691406 33.484375 132.347656 33.484375 133.066406 C 33.484375 133.691406 33.765625 134.441406 34.390625 134.847656 C 33.171875 135.160156 32.546875 136.035156 32.546875 136.816406 C 32.546875 138.253906 34.515625 139.347656 36.953125 139.347656 C 39.296875 139.347656 41.359375 138.347656 41.359375 136.785156 C 41.359375 136.097656 41.109375 135.066406 40.078125 134.503906 C 39.015625 133.972656 37.859375 133.972656 36.640625 133.972656 C 36.140625 133.972656 35.296875 133.972656 35.140625 133.941406 C 34.515625 133.847656 34.109375 133.253906 34.109375 132.597656 Z M 36.984375 138.910156 C 34.953125 138.910156 33.578125 137.878906 33.578125 136.816406 C 33.578125 135.910156 34.328125 135.160156 35.203125 135.128906 L 36.390625 135.128906 C 38.109375 135.128906 40.328125 135.128906 40.328125 136.816406 C 40.328125 137.910156 38.921875 138.910156 36.984375 138.910156 Z M 36.984375 138.910156 "/>
<path style="fill:none;stroke-width:0.566929;stroke-linecap:butt;stroke-linejoin:miter;stroke:rgb(100%,0%,0%);stroke-opacity:0.5;stroke-miterlimit:10;" d="M 30.490419 59.526682 L 36.158388 53.858714 " transform="matrix(2,0,0,2,5.952756,6.169291)"/>
<path style="fill:none;stroke-width:0.566929;stroke-linecap:butt;stroke-linejoin:miter;stroke:rgb(100%,0%,0%);stroke-opacity:0.5;stroke-miterlimit:10;" d="M 36.158388 59.526682 L 30.490419 53.858714 " transform="matrix(2,0,0,2,5.952756,6.169291)"/>
<path style="fill-rule:nonzero;fill:rgb(50%,50%,0%);fill-opacity:0.1;stroke-width:0.566929;stroke-linecap:butt;stroke-linejoin:miter;stroke:rgb(100%,0%,0%);stroke-opacity:0.5;stroke-miterlimit:10;" d="M 21.177919 70.39387 L 45.470888 70.39387 L 45.470888 56.692698 L 21.177919 56.692698 Z M 21.177919 70.39387 " transform="matrix(2,0,0,2,5.952756,6.169291)"/>
<path style="fill:none;stroke-width:0.566929;stroke-linecap:butt;stroke-linejoin:miter;stroke:rgb(100%,0%,0%);stroke-opacity:0.5;stroke-miterlimit:10;" d="M 21.177919 70.39387 L 26.847841 64.723948 " transform="matrix(2,0,0,2,5.952756,6.169291)"/>
<path style="fill:none;stroke-width:0.566929;stroke-linecap:butt;stroke-linejoin:miter;stroke:rgb(100%,0%,0%);stroke-opacity:0.5;stroke-miterlimit:10;" d="M 26.847841 70.39387 L 21.177919 64.723948 " transform="matrix(2,0,0,2,5.952756,6.169291)"/>
<path style="fill-rule:nonzero;fill:rgb(50%,50%,0%);fill-opacity:0.1;stroke-width:0.566929;stroke-linecap:butt;stroke-linejoin:miter;stroke:rgb(100%,0%,0%);stroke-opacity:0.5;stroke-miterlimit:10;" d="M 21.177919 70.39387 L 45.470888 70.39387 L 45.470888 56.692698 L 21.177919 56.692698 Z M 21.177919 70.39387 " transform="matrix(2,0,0,2,5.952756,6.169291)"/>
<path style="fill:none;stroke-width:0.566929;stroke-linecap:butt;stroke-linejoin:miter;stroke:rgb(100%,0%,0%);stroke-opacity:0.5;stroke-miterlimit:10;" d="M 21.177919 70.39387 L 26.847841 64.723948 " transform="matrix(2,0,0,2,5.952756,6.169291)"/>
<path style="fill:none;stroke-width:0.566929;stroke-linecap:butt;stroke-linejoin:miter;stroke:rgb(100%,0%,0%);stroke-opacity:0.5;stroke-miterlimit:10;" d="M 26.847841 70.39387 L 21.177919 64.723948 " transform="matrix(2,0,0,2,5.952756,6.169291)"/>
<path style="fill-rule:nonzero;fill:rgb(50%,50%,0%);fill-opacity:0.1;stroke-width:0.566929;stroke-linecap:butt;stroke-linejoin:miter;stroke:rgb(100%,0%,0%);stroke-opacity:0.5;stroke-miterlimit:10;" d="M 24.013856 67.557932 L 42.63495 67.557932 L 42.63495 59.526682 L 24.013856 59.526682 Z M 24.013856 67.557932 " transform="matrix(2,0,0,2,5.952756,6.169291)"/>
<path style=" stroke:none;fill-rule:nonzero;fill:rgb(0%,0%,0%);fill-opacity:1;" d="M 63.386719 132.316406 L 65.667969 132.316406 L 65.667969 131.691406 L 63.324219 131.691406 L 63.324219 129.378906 C 63.324219 127.597656 64.292969 126.660156 65.167969 126.660156 C 65.230469 126.660156 65.542969 126.660156 65.824219 126.816406 C 65.605469 126.878906 65.230469 127.160156 65.230469 127.660156 C 65.230469 128.097656 65.542969 128.503906 66.105469 128.503906 C 66.667969 128.503906 66.980469 128.097656 66.980469 127.628906 C 66.980469 126.910156 66.261719 126.222656 65.167969 126.222656 C 63.980469 126.222656 63.105469 126.972656 63.011719 127.066406 C 62.417969 126.316406 61.292969 126.222656 60.761719 126.222656 C 58.886719 126.222656 56.574219 127.253906 56.574219 129.410156 L 56.574219 131.691406 L 54.980469 131.691406 L 54.980469 132.316406 L 56.574219 132.316406 L 56.574219 138.785156 C 56.574219 139.660156 56.355469 139.660156 55.011719 139.660156 L 55.011719 140.285156 C 55.667969 140.253906 56.730469 140.222656 57.230469 140.222656 C 57.730469 140.222656 58.699219 140.253906 59.449219 140.285156 L 59.449219 139.660156 C 58.105469 139.660156 57.886719 139.660156 57.886719 138.785156 L 57.886719 132.316406 L 62.074219 132.316406 L 62.074219 138.785156 C 62.074219 139.660156 61.855469 139.660156 60.511719 139.660156 L 60.511719 140.285156 C 61.292969 140.253906 62.230469 140.222656 62.792969 140.222656 C 63.574219 140.222656 64.511719 140.222656 65.324219 140.285156 L 65.324219 139.660156 L 64.886719 139.660156 C 63.417969 139.660156 63.386719 139.441406 63.386719 138.722656 Z M 57.824219 131.691406 L 57.824219 129.441406 C 57.824219 127.503906 59.449219 126.660156 60.761719 126.660156 C 61.730469 126.660156 62.292969 127.035156 62.292969 127.035156 L 62.292969 127.066406 C 61.980469 127.097656 61.574219 127.378906 61.574219 127.910156 C 61.574219 128.035156 61.574219 128.535156 62.136719 128.722656 C 62.074219 128.972656 62.074219 129.160156 62.074219 129.410156 L 62.074219 131.691406 Z M 57.824219 131.691406 "/>
<path style=" stroke:none;fill-rule:nonzero;fill:rgb(0%,0%,0%);fill-opacity:1;" d="M 75.007812 132.316406 L 77.289062 132.316406 L 77.289062 131.691406 L 74.945312 131.691406 L 74.945312 129.378906 C 74.945312 127.597656 75.914062 126.660156 76.789062 126.660156 C 76.851562 126.660156 77.164062 126.660156 77.445312 126.816406 C 77.226562 126.878906 76.851562 127.160156 76.851562 127.660156 C 76.851562 128.097656 77.164062 128.503906 77.726562 128.503906 C 78.289062 128.503906 78.601562 128.097656 78.601562 127.628906 C 78.601562 126.910156 77.882812 126.222656 76.789062 126.222656 C 75.601562 126.222656 74.726562 126.972656 74.632812 127.066406 C 74.039062 126.316406 72.914062 126.222656 72.382812 126.222656 C 70.507812 126.222656 68.195312 127.253906 68.195312 129.410156 L 68.195312 131.691406 L 66.601562 131.691406 L 66.601562 132.316406 L 68.195312 132.316406 L 68.195312 138.785156 C 68.195312 139.660156 67.976562 139.660156 66.632812 139.660156 L 66.632812 140.285156 C 67.289062 140.253906 68.351562 140.222656 68.851562 140.222656 C 69.351562 140.222656 70.320312 140.253906 71.070312 140.285156 L 71.070312 139.660156 C 69.726562 139.660156 69.507812 139.660156 69.507812 138.785156 L 69.507812 132.316406 L 73.695312 132.316406 L 73.695312 138.785156 C 73.695312 139.660156 73.476562 139.660156 72.132812 139.660156 L 72.132812 140.285156 C 72.914062 140.253906 73.851562 140.222656 74.414062 140.222656 C 75.195312 140.222656 76.132812 140.222656 76.945312 140.285156 L 76.945312 139.660156 L 76.507812 139.660156 C 75.039062 139.660156 75.007812 139.441406 75.007812 138.722656 Z M 69.445312 131.691406 L 69.445312 129.441406 C 69.445312 127.503906 71.070312 126.660156 72.382812 126.660156 C 73.351562 126.660156 73.914062 127.035156 73.914062 127.035156 L 73.914062 127.066406 C 73.601562 127.097656 73.195312 127.378906 73.195312 127.910156 C 73.195312 128.035156 73.195312 128.535156 73.757812 128.722656 C 73.695312 128.972656 73.695312 129.160156 73.695312 129.410156 L 73.695312 131.691406 Z M 69.445312 131.691406 "/>
<path style=" stroke:none;fill-rule:nonzero;fill:rgb(0%,0%,0%);fill-opacity:1;" d="M 86.628906 132.316406 L 88.910156 132.316406 L 88.910156 131.691406 L 86.566406 131.691406 L 86.566406 129.378906 C 86.566406 127.597656 87.535156 126.660156 88.410156 126.660156 C 88.472656 126.660156 88.785156 126.660156 89.066406 126.816406 C 88.847656 126.878906 88.472656 127.160156 88.472656 127.660156 C 88.472656 128.097656 88.785156 128.503906 89.347656 128.503906 C 89.910156 128.503906 90.222656 128.097656 90.222656 127.628906 C 90.222656 126.910156 89.503906 126.222656 88.410156 126.222656 C 87.222656 126.222656 86.347656 126.972656 86.253906 127.066406 C 85.660156 126.316406 84.535156 126.222656 84.003906 126.222656 C 82.128906 126.222656 79.816406 127.253906 79.816406 129.410156 L 79.816406 131.691406 L 78.222656 131.691406 L 78.222656 132.316406 L 79.816406 132.316406 L 79.816406 138.785156 C 79.816406 139.660156 79.597656 139.660156 78.253906 139.660156 L 78.253906 140.285156 C 78.910156 140.253906 79.972656 140.222656 80.472656 140.222656 C 80.972656 140.222656 81.941406 140.253906 82.691406 140.285156 L 82.691406 139.660156 C 81.347656 139.660156 81.128906 139.660156 81.128906 138.785156 L 81.128906 132.316406 L 85.316406 132.316406 L 85.316406 138.785156 C 85.316406 139.660156 85.097656 139.660156 83.753906 139.660156 L 83.753906 140.285156 C 84.535156 140.253906 85.472656 140.222656 86.035156 140.222656 C 86.816406 140.222656 87.753906 140.222656 88.566406 140.285156 L 88.566406 139.660156 L 88.128906 139.660156 C 86.660156 139.660156 86.628906 139.441406 86.628906 138.722656 Z M 81.066406 131.691406 L 81.066406 129.441406 C 81.066406 127.503906 82.691406 126.660156 84.003906 126.660156 C 84.972656 126.660156 85.535156 127.035156 85.535156 127.035156 L 85.535156 127.066406 C 85.222656 127.097656 84.816406 127.378906 84.816406 127.910156 C 84.816406 128.035156 84.816406 128.535156 85.378906 128.722656 C 85.316406 128.972656 85.316406 129.160156 85.316406 129.410156 L 85.316406 131.691406 Z M 81.066406 131.691406 "/>
<path style="fill:none;stroke-width:0.566929;stroke-linecap:butt;stroke-linejoin:miter;stroke:rgb(100%,0%,0%);stroke-opacity:0.5;stroke-miterlimit:10;" d="M 68.168153 59.526682 L 73.838075 53.858714 " transform="matrix(2,0,0,2,5.952756,6.169291)"/>
<path style="fill:none;stroke-width:0.566929;stroke-linecap:butt;stroke-linejoin:miter;stroke:rgb(100%,0%,0%);stroke-opacity:0.5;stroke-miterlimit:10;" d="M 73.838075 59.526682 L 68.168153 53.858714 " transform="matrix(2,0,0,2,5.952756,6.169291)"/>
<path style="fill-rule:nonzero;fill:rgb(50%,50%,0%);fill-opacity:0.1;stroke-width:0.566929;stroke-linecap:butt;stroke-linejoin:miter;stroke:rgb(100%,0%,0%);stroke-opacity:0.5;stroke-miterlimit:10;" d="M 45.470888 69.92512 L 96.537294 69.92512 L 96.537294 56.692698 L 45.470888 56.692698 Z M 45.470888 69.92512 " transform="matrix(2,0,0,2,5.952756,6.169291)"/>
<path style="fill:none;stroke-width:0.566929;stroke-linecap:butt;stroke-linejoin:miter;stroke:rgb(100%,0%,0%);stroke-opacity:0.5;stroke-miterlimit:10;" d="M 45.470888 67.878245 L 51.138856 62.208323 " transform="matrix(2,0,0,2,5.952756,6.169291)"/>
<path style="fill:none;stroke-width:0.566929;stroke-linecap:butt;stroke-linejoin:miter;stroke:rgb(100%,0%,0%);stroke-opacity:0.5;stroke-miterlimit:10;" d="M 51.138856 67.878245 L 45.470888 62.208323 " transform="matrix(2,0,0,2,5.952756,6.169291)"/>
<path style="fill-rule:nonzero;fill:rgb(50%,50%,0%);fill-opacity:0.1;stroke-width:0.566929;stroke-linecap:butt;stroke-linejoin:miter;stroke:rgb(100%,0%,0%);stroke-opacity:0.5;stroke-miterlimit:10;" d="M 45.470888 69.92512 L 96.537294 69.92512 L 96.537294 56.692698 L 45.470888 56.692698 Z M 45.470888 69.92512 " transform="matrix(2,0,0,2,5.952756,6.169291)"/>
<path style="fill:none;stroke-width:0.566929;stroke-linecap:butt;stroke-linejoin:miter;stroke:rgb(100%,0%,0%);stroke-opacity:0.5;stroke-miterlimit:10;" d="M 45.470888 67.878245 L 51.138856 62.208323 " transform="matrix(2,0,0,2,5.952756,6.169291)"/>
<path style="fill:none;stroke-width:0.566929;stroke-linecap:butt;stroke-linejoin:miter;stroke:rgb(100%,0%,0%);stroke-opacity:0.5;stroke-miterlimit:10;" d="M 51.138856 67.878245 L 45.470888 62.208323 " transform="matrix(2,0,0,2,5.952756,6.169291)"/>
<path style="fill-rule:nonzero;fill:rgb(50%,50%,0%);fill-opacity:0.1;stroke-width:0.566929;stroke-linecap:butt;stroke-linejoin:miter;stroke:rgb(100%,0%,0%);stroke-opacity:0.5;stroke-miterlimit:10;" d="M 48.304872 67.089182 L 93.70331 67.089182 L 93.70331 59.526682 L 48.304872 59.526682 Z M 48.304872 67.089182 " transform="matrix(2,0,0,2,5.952756,6.169291)"/>
<path style=" stroke:none;fill-rule:nonzero;fill:rgb(0%,0%,0%);fill-opacity:1;" d="M 107.4375 131.816406 C 105.6875 131.816406 105.6875 129.816406 105.6875 129.378906 C 105.6875 128.847656 105.71875 128.191406 106 127.691406 C 106.15625 127.472656 106.625 126.910156 107.4375 126.910156 C 109.15625 126.910156 109.15625 128.878906 109.15625 129.347656 C 109.15625 129.878906 109.15625 130.535156 108.84375 131.035156 C 108.6875 131.253906 108.21875 131.816406 107.4375 131.816406 Z M 105.125 132.597656 C 105.125 132.535156 105.125 132.066406 105.4375 131.660156 C 106.21875 132.222656 107.0625 132.285156 107.4375 132.285156 C 109.28125 132.285156 110.65625 130.910156 110.65625 129.378906 C 110.65625 128.628906 110.34375 127.910156 109.84375 127.441406 C 110.5625 126.753906 111.28125 126.660156 111.625 126.660156 C 111.6875 126.660156 111.78125 126.660156 111.84375 126.691406 C 111.625 126.753906 111.5 126.972656 111.5 127.222656 C 111.5 127.566406 111.78125 127.785156 112.09375 127.785156 C 112.28125 127.785156 112.65625 127.660156 112.65625 127.191406 C 112.65625 126.847656 112.4375 126.222656 111.65625 126.222656 C 111.25 126.222656 110.375 126.347656 109.53125 127.160156 C 108.6875 126.503906 107.875 126.441406 107.4375 126.441406 C 105.5625 126.441406 104.1875 127.816406 104.1875 129.347656 C 104.1875 130.222656 104.625 130.972656 105.125 131.410156 C 104.875 131.691406 104.5 132.347656 104.5 133.066406 C 104.5 133.691406 104.78125 134.441406 105.40625 134.847656 C 104.1875 135.160156 103.5625 136.035156 103.5625 136.816406 C 103.5625 138.253906 105.53125 139.347656 107.96875 139.347656 C 110.3125 139.347656 112.375 138.347656 112.375 136.785156 C 112.375 136.097656 112.125 135.066406 111.09375 134.503906 C 110.03125 133.972656 108.875 133.972656 107.65625 133.972656 C 107.15625 133.972656 106.3125 133.972656 106.15625 133.941406 C 105.53125 133.847656 105.125 133.253906 105.125 132.597656 Z M 108 138.910156 C 105.96875 138.910156 104.59375 137.878906 104.59375 136.816406 C 104.59375 135.910156 105.34375 135.160156 106.21875 135.128906 L 107.40625 135.128906 C 109.125 135.128906 111.34375 135.128906 111.34375 136.816406 C 111.34375 137.910156 109.9375 138.910156 108 138.910156 Z M 108 138.910156 "/>
<path style=" stroke:none;fill-rule:nonzero;fill:rgb(0%,0%,0%);fill-opacity:1;" d="M 117.402344 131.816406 C 115.652344 131.816406 115.652344 129.816406 115.652344 129.378906 C 115.652344 128.847656 115.683594 128.191406 115.964844 127.691406 C 116.121094 127.472656 116.589844 126.910156 117.402344 126.910156 C 119.121094 126.910156 119.121094 128.878906 119.121094 129.347656 C 119.121094 129.878906 119.121094 130.535156 118.808594 131.035156 C 118.652344 131.253906 118.183594 131.816406 117.402344 131.816406 Z M 115.089844 132.597656 C 115.089844 132.535156 115.089844 132.066406 115.402344 131.660156 C 116.183594 132.222656 117.027344 132.285156 117.402344 132.285156 C 119.246094 132.285156 120.621094 130.910156 120.621094 129.378906 C 120.621094 128.628906 120.308594 127.910156 119.808594 127.441406 C 120.527344 126.753906 121.246094 126.660156 121.589844 126.660156 C 121.652344 126.660156 121.746094 126.660156 121.808594 126.691406 C 121.589844 126.753906 121.464844 126.972656 121.464844 127.222656 C 121.464844 127.566406 121.746094 127.785156 122.058594 127.785156 C 122.246094 127.785156 122.621094 127.660156 122.621094 127.191406 C 122.621094 126.847656 122.402344 126.222656 121.621094 126.222656 C 121.214844 126.222656 120.339844 126.347656 119.496094 127.160156 C 118.652344 126.503906 117.839844 126.441406 117.402344 126.441406 C 115.527344 126.441406 114.152344 127.816406 114.152344 129.347656 C 114.152344 130.222656 114.589844 130.972656 115.089844 131.410156 C 114.839844 131.691406 114.464844 132.347656 114.464844 133.066406 C 114.464844 133.691406 114.746094 134.441406 115.371094 134.847656 C 114.152344 135.160156 113.527344 136.035156 113.527344 136.816406 C 113.527344 138.253906 115.496094 139.347656 117.933594 139.347656 C 120.277344 139.347656 122.339844 138.347656 122.339844 136.785156 C 122.339844 136.097656 122.089844 135.066406 121.058594 134.503906 C 119.996094 133.972656 118.839844 133.972656 117.621094 133.972656 C 117.121094 133.972656 116.277344 133.972656 116.121094 133.941406 C 115.496094 133.847656 115.089844 133.253906 115.089844 132.597656 Z M 117.964844 138.910156 C 115.933594 138.910156 114.558594 137.878906 114.558594 136.816406 C 114.558594 135.910156 115.308594 135.160156 116.183594 135.128906 L 117.371094 135.128906 C 119.089844 135.128906 121.308594 135.128906 121.308594 136.816406 C 121.308594 137.910156 119.902344 138.910156 117.964844 138.910156 Z M 117.964844 138.910156 "/>
<path style=" stroke:none;fill-rule:nonzero;fill:rgb(0%,0%,0%);fill-opacity:1;" d="M 127.363281 131.816406 C 125.613281 131.816406 125.613281 129.816406 125.613281 129.378906 C 125.613281 128.847656 125.644531 128.191406 125.925781 127.691406 C 126.082031 127.472656 126.550781 126.910156 127.363281 126.910156 C 129.082031 126.910156 129.082031 128.878906 129.082031 129.347656 C 129.082031 129.878906 129.082031 130.535156 128.769531 131.035156 C 128.613281 131.253906 128.144531 131.816406 127.363281 131.816406 Z M 125.050781 132.597656 C 125.050781 132.535156 125.050781 132.066406 125.363281 131.660156 C 126.144531 132.222656 126.988281 132.285156 127.363281 132.285156 C 129.207031 132.285156 130.582031 130.910156 130.582031 129.378906 C 130.582031 128.628906 130.269531 127.910156 129.769531 127.441406 C 130.488281 126.753906 131.207031 126.660156 131.550781 126.660156 C 131.613281 126.660156 131.707031 126.660156 131.769531 126.691406 C 131.550781 126.753906 131.425781 126.972656 131.425781 127.222656 C 131.425781 127.566406 131.707031 127.785156 132.019531 127.785156 C 132.207031 127.785156 132.582031 127.660156 132.582031 127.191406 C 132.582031 126.847656 132.363281 126.222656 131.582031 126.222656 C 131.175781 126.222656 130.300781 126.347656 129.457031 127.160156 C 128.613281 126.503906 127.800781 126.441406 127.363281 126.441406 C 125.488281 126.441406 124.113281 127.816406 124.113281 129.347656 C 124.113281 130.222656 124.550781 130.972656 125.050781 131.410156 C 124.800781 131.691406 124.425781 132.347656 124.425781 133.066406 C 124.425781 133.691406 124.707031 134.441406 125.332031 134.847656 C 124.113281 135.160156 123.488281 136.035156 123.488281 136.816406 C 123.488281 138.253906 125.457031 139.347656 127.894531 139.347656 C 130.238281 139.347656 132.300781 138.347656 132.300781 136.785156 C 132.300781 136.097656 132.050781 135.066406 131.019531 134.503906 C 129.957031 133.972656 128.800781 133.972656 127.582031 133.972656 C 127.082031 133.972656 126.238281 133.972656 126.082031 133.941406 C 125.457031 133.847656 125.050781 133.253906 125.050781 132.597656 Z M 127.925781 138.910156 C 125.894531 138.910156 124.519531 137.878906 124.519531 136.816406 C 124.519531 135.910156 125.269531 135.160156 126.144531 135.128906 L 127.332031 135.128906 C 129.050781 135.128906 131.269531 135.128906 131.269531 136.816406 C 131.269531 137.910156 129.863281 138.910156 127.925781 138.910156 Z M 127.925781 138.910156 "/>
<path style=" stroke:none;fill-rule:nonzero;fill:rgb(0%,0%,0%);fill-opacity:1;" d="M 137.324219 131.816406 C 135.574219 131.816406 135.574219 129.816406 135.574219 129.378906 C 135.574219 128.847656 135.605469 128.191406 135.886719 127.691406 C 136.042969 127.472656 136.511719 126.910156 137.324219 126.910156 C 139.042969 126.910156 139.042969 128.878906 139.042969 129.347656 C 139.042969 129.878906 139.042969 130.535156 138.730469 131.035156 C 138.574219 131.253906 138.105469 131.816406 137.324219 131.816406 Z M 135.011719 132.597656 C 135.011719 132.535156 135.011719 132.066406 135.324219 131.660156 C 136.105469 132.222656 136.949219 132.285156 137.324219 132.285156 C 139.167969 132.285156 140.542969 130.910156 140.542969 129.378906 C 140.542969 128.628906 140.230469 127.910156 139.730469 127.441406 C 140.449219 126.753906 141.167969 126.660156 141.511719 126.660156 C 141.574219 126.660156 141.667969 126.660156 141.730469 126.691406 C 141.511719 126.753906 141.386719 126.972656 141.386719 127.222656 C 141.386719 127.566406 141.667969 127.785156 141.980469 127.785156 C 142.167969 127.785156 142.542969 127.660156 142.542969 127.191406 C 142.542969 126.847656 142.324219 126.222656 141.542969 126.222656 C 141.136719 126.222656 140.261719 126.347656 139.417969 127.160156 C 138.574219 126.503906 137.761719 126.441406 137.324219 126.441406 C 135.449219 126.441406 134.074219 127.816406 134.074219 129.347656 C 134.074219 130.222656 134.511719 130.972656 135.011719 131.410156 C 134.761719 131.691406 134.386719 132.347656 134.386719 133.066406 C 134.386719 133.691406 134.667969 134.441406 135.292969 134.847656 C 134.074219 135.160156 133.449219 136.035156 133.449219 136.816406 C 133.449219 138.253906 135.417969 139.347656 137.855469 139.347656 C 140.199219 139.347656 142.261719 138.347656 142.261719 136.785156 C 142.261719 136.097656 142.011719 135.066406 140.980469 134.503906 C 139.917969 133.972656 138.761719 133.972656 137.542969 133.972656 C 137.042969 133.972656 136.199219 133.972656 136.042969 133.941406 C 135.417969 133.847656 135.011719 133.253906 135.011719 132.597656 Z M 137.886719 138.910156 C 135.855469 138.910156 134.480469 137.878906 134.480469 136.816406 C 134.480469 135.910156 135.230469 135.160156 136.105469 135.128906 L 137.292969 135.128906 C 139.011719 135.128906 141.230469 135.128906 141.230469 136.816406 C 141.230469 137.910156 139.824219 138.910156 137.886719 138.910156 Z M 137.886719 138.910156 "/>
<path style=" stroke:none;fill-rule:nonzero;fill:rgb(0%,0%,0%);fill-opacity:1;" d="M 147.289062 131.816406 C 145.539062 131.816406 145.539062 129.816406 145.539062 129.378906 C 145.539062 128.847656 145.570312 128.191406 145.851562 127.691406 C 146.007812 127.472656 146.476562 126.910156 147.289062 126.910156 C 149.007812 126.910156 149.007812 128.878906 149.007812 129.347656 C 149.007812 129.878906 149.007812 130.535156 148.695312 131.035156 C 148.539062 131.253906 148.070312 131.816406 147.289062 131.816406 Z M 144.976562 132.597656 C 144.976562 132.535156 144.976562 132.066406 145.289062 131.660156 C 146.070312 132.222656 146.914062 132.285156 147.289062 132.285156 C 149.132812 132.285156 150.507812 130.910156 150.507812 129.378906 C 150.507812 128.628906 150.195312 127.910156 149.695312 127.441406 C 150.414062 126.753906 151.132812 126.660156 151.476562 126.660156 C 151.539062 126.660156 151.632812 126.660156 151.695312 126.691406 C 151.476562 126.753906 151.351562 126.972656 151.351562 127.222656 C 151.351562 127.566406 151.632812 127.785156 151.945312 127.785156 C 152.132812 127.785156 152.507812 127.660156 152.507812 127.191406 C 152.507812 126.847656 152.289062 126.222656 151.507812 126.222656 C 151.101562 126.222656 150.226562 126.347656 149.382812 127.160156 C 148.539062 126.503906 147.726562 126.441406 147.289062 126.441406 C 145.414062 126.441406 144.039062 127.816406 144.039062 129.347656 C 144.039062 130.222656 144.476562 130.972656 144.976562 131.410156 C 144.726562 131.691406 144.351562 132.347656 144.351562 133.066406 C 144.351562 133.691406 144.632812 134.441406 145.257812 134.847656 C 144.039062 135.160156 143.414062 136.035156 143.414062 136.816406 C 143.414062 138.253906 145.382812 139.347656 147.820312 139.347656 C 150.164062 139.347656 152.226562 138.347656 152.226562 136.785156 C 152.226562 136.097656 151.976562 135.066406 150.945312 134.503906 C 149.882812 133.972656 148.726562 133.972656 147.507812 133.972656 C 147.007812 133.972656 146.164062 133.972656 146.007812 133.941406 C 145.382812 133.847656 144.976562 133.253906 144.976562 132.597656 Z M 147.851562 138.910156 C 145.820312 138.910156 144.445312 137.878906 144.445312 136.816406 C 144.445312 135.910156 145.195312 135.160156 146.070312 135.128906 L 147.257812 135.128906 C 148.976562 135.128906 151.195312 135.128906 151.195312 136.816406 C 151.195312 137.910156 149.789062 138.910156 147.851562 138.910156 Z M 147.851562 138.910156 "/>
<path style=" stroke:none;fill-rule:nonzero;fill:rgb(0%,0%,0%);fill-opacity:1;" d="M 157.25 131.816406 C 155.5 131.816406 155.5 129.816406 155.5 129.378906 C 155.5 128.847656 155.53125 128.191406 155.8125 127.691406 C 155.96875 127.472656 156.4375 126.910156 157.25 126.910156 C 158.96875 126.910156 158.96875 128.878906 158.96875 129.347656 C 158.96875 129.878906 158.96875 130.535156 158.65625 131.035156 C 158.5 131.253906 158.03125 131.816406 157.25 131.816406 Z M 154.9375 132.597656 C 154.9375 132.535156 154.9375 132.066406 155.25 131.660156 C 156.03125 132.222656 156.875 132.285156 157.25 132.285156 C 159.09375 132.285156 160.46875 130.910156 160.46875 129.378906 C 160.46875 128.628906 160.15625 127.910156 159.65625 127.441406 C 160.375 126.753906 161.09375 126.660156 161.4375 126.660156 C 161.5 126.660156 161.59375 126.660156 161.65625 126.691406 C 161.4375 126.753906 161.3125 126.972656 161.3125 127.222656 C 161.3125 127.566406 161.59375 127.785156 161.90625 127.785156 C 162.09375 127.785156 162.46875 127.660156 162.46875 127.191406 C 162.46875 126.847656 162.25 126.222656 161.46875 126.222656 C 161.0625 126.222656 160.1875 126.347656 159.34375 127.160156 C 158.5 126.503906 157.6875 126.441406 157.25 126.441406 C 155.375 126.441406 154 127.816406 154 129.347656 C 154 130.222656 154.4375 130.972656 154.9375 131.410156 C 154.6875 131.691406 154.3125 132.347656 154.3125 133.066406 C 154.3125 133.691406 154.59375 134.441406 155.21875 134.847656 C 154 135.160156 153.375 136.035156 153.375 136.816406 C 153.375 138.253906 155.34375 139.347656 157.78125 139.347656 C 160.125 139.347656 162.1875 138.347656 162.1875 136.785156 C 162.1875 136.097656 161.9375 135.066406 160.90625 134.503906 C 159.84375 133.972656 158.6875 133.972656 157.46875 133.972656 C 156.96875 133.972656 156.125 133.972656 155.96875 133.941406 C 155.34375 133.847656 154.9375 133.253906 154.9375 132.597656 Z M 157.8125 138.910156 C 155.78125 138.910156 154.40625 137.878906 154.40625 136.816406 C 154.40625 135.910156 155.15625 135.160156 156.03125 135.128906 L 157.21875 135.128906 C 158.9375 135.128906 161.15625 135.128906 161.15625 136.816406 C 161.15625 137.910156 159.75 138.910156 157.8125 138.910156 Z M 157.8125 138.910156 "/>
<path style=" stroke:none;fill-rule:nonzero;fill:rgb(0%,0%,0%);fill-opacity:1;" d="M 167.214844 131.816406 C 165.464844 131.816406 165.464844 129.816406 165.464844 129.378906 C 165.464844 128.847656 165.496094 128.191406 165.777344 127.691406 C 165.933594 127.472656 166.402344 126.910156 167.214844 126.910156 C 168.933594 126.910156 168.933594 128.878906 168.933594 129.347656 C 168.933594 129.878906 168.933594 130.535156 168.621094 131.035156 C 168.464844 131.253906 167.996094 131.816406 167.214844 131.816406 Z M 164.902344 132.597656 C 164.902344 132.535156 164.902344 132.066406 165.214844 131.660156 C 165.996094 132.222656 166.839844 132.285156 167.214844 132.285156 C 169.058594 132.285156 170.433594 130.910156 170.433594 129.378906 C 170.433594 128.628906 170.121094 127.910156 169.621094 127.441406 C 170.339844 126.753906 171.058594 126.660156 171.402344 126.660156 C 171.464844 126.660156 171.558594 126.660156 171.621094 126.691406 C 171.402344 126.753906 171.277344 126.972656 171.277344 127.222656 C 171.277344 127.566406 171.558594 127.785156 171.871094 127.785156 C 172.058594 127.785156 172.433594 127.660156 172.433594 127.191406 C 172.433594 126.847656 172.214844 126.222656 171.433594 126.222656 C 171.027344 126.222656 170.152344 126.347656 169.308594 127.160156 C 168.464844 126.503906 167.652344 126.441406 167.214844 126.441406 C 165.339844 126.441406 163.964844 127.816406 163.964844 129.347656 C 163.964844 130.222656 164.402344 130.972656 164.902344 131.410156 C 164.652344 131.691406 164.277344 132.347656 164.277344 133.066406 C 164.277344 133.691406 164.558594 134.441406 165.183594 134.847656 C 163.964844 135.160156 163.339844 136.035156 163.339844 136.816406 C 163.339844 138.253906 165.308594 139.347656 167.746094 139.347656 C 170.089844 139.347656 172.152344 138.347656 172.152344 136.785156 C 172.152344 136.097656 171.902344 135.066406 170.871094 134.503906 C 169.808594 133.972656 168.652344 133.972656 167.433594 133.972656 C 166.933594 133.972656 166.089844 133.972656 165.933594 133.941406 C 165.308594 133.847656 164.902344 133.253906 164.902344 132.597656 Z M 167.777344 138.910156 C 165.746094 138.910156 164.371094 137.878906 164.371094 136.816406 C 164.371094 135.910156 165.121094 135.160156 165.996094 135.128906 L 167.183594 135.128906 C 168.902344 135.128906 171.121094 135.128906 171.121094 136.816406 C 171.121094 137.910156 169.714844 138.910156 167.777344 138.910156 Z M 167.777344 138.910156 "/>
<path style=" stroke:none;fill-rule:nonzero;fill:rgb(0%,0%,0%);fill-opacity:1;" d="M 177.175781 131.816406 C 175.425781 131.816406 175.425781 129.816406 175.425781 129.378906 C 175.425781 128.847656 175.457031 128.191406 175.738281 127.691406 C 175.894531 127.472656 176.363281 126.910156 177.175781 126.910156 C 178.894531 126.910156 178.894531 128.878906 178.894531 129.347656 C 178.894531 129.878906 178.894531 130.535156 178.582031 131.035156 C 178.425781 131.253906 177.957031 131.816406 177.175781 131.816406 Z M 174.863281 132.597656 C 174.863281 132.535156 174.863281 132.066406 175.175781 131.660156 C 175.957031 132.222656 176.800781 132.285156 177.175781 132.285156 C 179.019531 132.285156 180.394531 130.910156 180.394531 129.378906 C 180.394531 128.628906 180.082031 127.910156 179.582031 127.441406 C 180.300781 126.753906 181.019531 126.660156 181.363281 126.660156 C 181.425781 126.660156 181.519531 126.660156 181.582031 126.691406 C 181.363281 126.753906 181.238281 126.972656 181.238281 127.222656 C 181.238281 127.566406 181.519531 127.785156 181.832031 127.785156 C 182.019531 127.785156 182.394531 127.660156 182.394531 127.191406 C 182.394531 126.847656 182.175781 126.222656 181.394531 126.222656 C 180.988281 126.222656 180.113281 126.347656 179.269531 127.160156 C 178.425781 126.503906 177.613281 126.441406 177.175781 126.441406 C 175.300781 126.441406 173.925781 127.816406 173.925781 129.347656 C 173.925781 130.222656 174.363281 130.972656 174.863281 131.410156 C 174.613281 131.691406 174.238281 132.347656 174.238281 133.066406 C 174.238281 133.691406 174.519531 134.441406 175.144531 134.847656 C 173.925781 135.160156 173.300781 136.035156 173.300781 136.816406 C 173.300781 138.253906 175.269531 139.347656 177.707031 139.347656 C 180.050781 139.347656 182.113281 138.347656 182.113281 136.785156 C 182.113281 136.097656 181.863281 135.066406 180.832031 134.503906 C 179.769531 133.972656 178.613281 133.972656 177.394531 133.972656 C 176.894531 133.972656 176.050781 133.972656 175.894531 133.941406 C 175.269531 133.847656 174.863281 133.253906 174.863281 132.597656 Z M 177.738281 138.910156 C 175.707031 138.910156 174.332031 137.878906 174.332031 136.816406 C 174.332031 135.910156 175.082031 135.160156 175.957031 135.128906 L 177.144531 135.128906 C 178.863281 135.128906 181.082031 135.128906 181.082031 136.816406 C 181.082031 137.910156 179.675781 138.910156 177.738281 138.910156 Z M 177.738281 138.910156 "/>
<path style=" stroke:none;fill-rule:nonzero;fill:rgb(0%,0%,0%);fill-opacity:1;" d="M 187.140625 131.816406 C 185.390625 131.816406 185.390625 129.816406 185.390625 129.378906 C 185.390625 128.847656 185.421875 128.191406 185.703125 127.691406 C 185.859375 127.472656 186.328125 126.910156 187.140625 126.910156 C 188.859375 126.910156 188.859375 128.878906 188.859375 129.347656 C 188.859375 129.878906 188.859375 130.535156 188.546875 131.035156 C 188.390625 131.253906 187.921875 131.816406 187.140625 131.816406 Z M 184.828125 132.597656 C 184.828125 132.535156 184.828125 132.066406 185.140625 131.660156 C 185.921875 132.222656 186.765625 132.285156 187.140625 132.285156 C 188.984375 132.285156 190.359375 130.910156 190.359375 129.378906 C 190.359375 128.628906 190.046875 127.910156 189.546875 127.441406 C 190.265625 126.753906 190.984375 126.660156 191.328125 126.660156 C 191.390625 126.660156 191.484375 126.660156 191.546875 126.691406 C 191.328125 126.753906 191.203125 126.972656 191.203125 127.222656 C 191.203125 127.566406 191.484375 127.785156 191.796875 127.785156 C 191.984375 127.785156 192.359375 127.660156 192.359375 127.191406 C 192.359375 126.847656 192.140625 126.222656 191.359375 126.222656 C 190.953125 126.222656 190.078125 126.347656 189.234375 127.160156 C 188.390625 126.503906 187.578125 126.441406 187.140625 126.441406 C 185.265625 126.441406 183.890625 127.816406 183.890625 129.347656 C 183.890625 130.222656 184.328125 130.972656 184.828125 131.410156 C 184.578125 131.691406 184.203125 132.347656 184.203125 133.066406 C 184.203125 133.691406 184.484375 134.441406 185.109375 134.847656 C 183.890625 135.160156 183.265625 136.035156 183.265625 136.816406 C 183.265625 138.253906 185.234375 139.347656 187.671875 139.347656 C 190.015625 139.347656 192.078125 138.347656 192.078125 136.785156 C 192.078125 136.097656 191.828125 135.066406 190.796875 134.503906 C 189.734375 133.972656 188.578125 133.972656 187.359375 133.972656 C 186.859375 133.972656 186.015625 133.972656 185.859375 133.941406 C 185.234375 133.847656 184.828125 133.253906 184.828125 132.597656 Z M 187.703125 138.910156 C 185.671875 138.910156 184.296875 137.878906 184.296875 136.816406 C 184.296875 135.910156 185.046875 135.160156 185.921875 135.128906 L 187.109375 135.128906 C 188.828125 135.128906 191.046875 135.128906 191.046875 136.816406 C 191.046875 137.910156 189.640625 138.910156 187.703125 138.910156 Z M 187.703125 138.910156 "/>
<path style="fill:none;stroke-width:0.566929;stroke-linecap:butt;stroke-linejoin:miter;stroke:rgb(100%,0%,0%);stroke-opacity:0.5;stroke-miterlimit:10;" d="M 93.70331 59.526682 L 99.371278 53.858714 " transform="matrix(2,0,0,2,5.952756,6.169291)"/>
<path style="fill:none;stroke-width:0.566929;stroke-linecap:butt;stroke-linejoin:miter;stroke:rgb(100%,0%,0%);stroke-opacity:0.5;stroke-miterlimit:10;" d="M 99.371278 59.526682 L 93.70331 53.858714 " transform="matrix(2,0,0,2,5.952756,6.169291)"/>
<path style="fill:none;stroke-width:0.566929;stroke-linecap:butt;stroke-linejoin:miter;stroke:rgb(100%,0%,0%);stroke-opacity:0.5;stroke-miterlimit:10;" d="M 96.537294 85.038401 L 96.537294 56.692698 Z M 96.537294 85.038401 " transform="matrix(2,0,0,2,5.952756,6.169291)"/>
</g>
</svg>
