<?xml version="1.0" encoding="UTF-8"?>
<svg xmlns="http://www.w3.org/2000/svg" xmlns:xlink="http://www.w3.org/1999/xlink" width="348.209562pt" height="402.865803pt" viewBox="0 0 348.209562 402.865803" version="1.1">
<g id="surface77">
<path style="fill:none;stroke-width:0.566929;stroke-linecap:butt;stroke-linejoin:miter;stroke:rgb(100%,0%,0%);stroke-opacity:0.5;stroke-miterlimit:10;" d="M -2.834646 2.834169 L 2.835276 -2.8338 " transform="matrix(2,0,0,2,6.169291,5.952756)"/>
<path style="fill:none;stroke-width:0.566929;stroke-linecap:butt;stroke-linejoin:miter;stroke:rgb(100%,0%,0%);stroke-opacity:0.5;stroke-miterlimit:10;" d="M 2.835276 2.834169 L -2.834646 -2.8338 " transform="matrix(2,0,0,2,6.169291,5.952756)"/>
<path style="fill-rule:nonzero;fill:rgb(50%,50%,0%);fill-opacity:0.1;stroke-width:0.566929;stroke-linecap:butt;stroke-linejoin:miter;stroke:rgb(100%,0%,0%);stroke-opacity:0.5;stroke-miterlimit:10;" d="M -0.000661294 198.207216 L 170.878245 198.207216 L 170.878245 0.000184547 L -0.000661294 0.000184547 Z M -0.000661294 198.207216 " transform="matrix(2,0,0,2,6.169291,5.952756)"/>
<path style="fill:none;stroke-width:0.566929;stroke-linecap:butt;stroke-linejoin:miter;stroke:rgb(100%,0%,0%);stroke-opacity:0.5;stroke-miterlimit:10;" d="M -2.834646 58.64081 L 2.835276 52.970888 " transform="matrix(2,0,0,2,6.169291,5.952756)"/>
<path style="fill:none;stroke-width:0.566929;stroke-linecap:butt;stroke-linejoin:miter;stroke:rgb(100%,0%,0%);stroke-opacity:0.5;stroke-miterlimit:10;" d="M 2.835276 58.64081 L -2.834646 52.970888 " transform="matrix(2,0,0,2,6.169291,5.952756)"/>
<path style="fill-rule:nonzero;fill:rgb(50%,50%,0%);fill-opacity:0.1;stroke-width:0.566929;stroke-linecap:butt;stroke-linejoin:miter;stroke:rgb(100%,0%,0%);stroke-opacity:0.5;stroke-miterlimit:10;" d="M -0.000661294 111.75995 L 170.878245 111.75995 L 170.878245 0.000184547 L -0.000661294 0.000184547 Z M -0.000661294 111.75995 " transform="matrix(2,0,0,2,6.169291,5.952756)"/>
<path style="fill:none;stroke-width:0.566929;stroke-linecap:butt;stroke-linejoin:miter;stroke:rgb(100%,0%,0%);stroke-opacity:0.5;stroke-miterlimit:10;" d="M 40.110667 58.64081 L 45.780589 52.970888 " transform="matrix(2,0,0,2,6.169291,5.952756)"/>
<path style="fill:none;stroke-width:0.566929;stroke-linecap:butt;stroke-linejoin:miter;stroke:rgb(100%,0%,0%);stroke-opacity:0.5;stroke-miterlimit:10;" d="M 45.780589 58.64081 L 40.110667 52.970888 " transform="matrix(2,0,0,2,6.169291,5.952756)"/>
<path style="fill-rule:nonzero;fill:rgb(50%,50%,0%);fill-opacity:0.1;stroke-width:0.566929;stroke-linecap:butt;stroke-linejoin:miter;stroke:rgb(100%,0%,0%);stroke-opacity:0.5;stroke-miterlimit:10;" d="M -0.000661294 82.943544 L 85.536448 82.943544 L 85.536448 19.070497 L -0.000661294 19.070497 Z M -0.000661294 82.943544 " transform="matrix(2,0,0,2,6.169291,5.952756)"/>
<path style="fill:none;stroke-width:0.566929;stroke-linecap:butt;stroke-linejoin:miter;stroke:rgb(100%,0%,0%);stroke-opacity:0.5;stroke-miterlimit:10;" d="M 127.079417 58.64081 L 132.747386 52.970888 " transform="matrix(2,0,0,2,6.169291,5.952756)"/>
<path style="fill:none;stroke-width:0.566929;stroke-linecap:butt;stroke-linejoin:miter;stroke:rgb(100%,0%,0%);stroke-opacity:0.5;stroke-miterlimit:10;" d="M 132.747386 58.64081 L 127.079417 52.970888 " transform="matrix(2,0,0,2,6.169291,5.952756)"/>
<path style="fill-rule:nonzero;fill:rgb(50%,50%,0%);fill-opacity:0.1;stroke-width:0.566929;stroke-linecap:butt;stroke-linejoin:miter;stroke:rgb(100%,0%,0%);stroke-opacity:0.5;stroke-miterlimit:10;" d="M 85.536448 111.75995 L 144.780589 111.75995 L 144.780589 0.000184547 L 85.536448 0.000184547 Z M 85.536448 111.75995 " transform="matrix(2,0,0,2,6.169291,5.952756)"/>
<path style="fill:none;stroke-width:0.566929;stroke-linecap:butt;stroke-linejoin:miter;stroke:rgb(100%,0%,0%);stroke-opacity:0.5;stroke-miterlimit:10;" d="M 141.946604 58.64081 L 147.614573 52.970888 " transform="matrix(2,0,0,2,6.169291,5.952756)"/>
<path style="fill:none;stroke-width:0.566929;stroke-linecap:butt;stroke-linejoin:miter;stroke:rgb(100%,0%,0%);stroke-opacity:0.5;stroke-miterlimit:10;" d="M 147.614573 58.64081 L 141.946604 52.970888 " transform="matrix(2,0,0,2,6.169291,5.952756)"/>
<path style="fill-rule:nonzero;fill:rgb(50%,50%,0%);fill-opacity:0.1;stroke-width:0.566929;stroke-linecap:butt;stroke-linejoin:miter;stroke:rgb(100%,0%,0%);stroke-opacity:0.5;stroke-miterlimit:10;" d="M 144.780589 56.861513 L 170.878245 56.861513 L 170.878245 47.664247 L 144.780589 47.664247 Z M 144.780589 56.861513 " transform="matrix(2,0,0,2,6.169291,5.952756)"/>
<path style=" stroke:none;fill-rule:nonzero;fill:rgb(0%,0%,0%);fill-opacity:1;" d="M 308.292969 104.5 C 308.292969 103.78125 308.324219 103.5625 309.855469 103.5625 L 310.355469 103.5625 L 310.355469 102.9375 C 309.636719 103 308.167969 103 307.417969 103 C 306.667969 103 305.167969 103 304.480469 102.9375 L 304.480469 103.5625 L 304.949219 103.5625 C 306.480469 103.5625 306.511719 103.78125 306.511719 104.5 L 306.511719 109.15625 L 300.574219 109.15625 L 300.574219 104.5 C 300.574219 103.78125 300.605469 103.5625 302.136719 103.5625 L 302.605469 103.5625 L 302.605469 102.9375 C 301.917969 103 300.449219 103 299.667969 103 C 298.917969 103 297.417969 103 296.730469 102.9375 L 296.730469 103.5625 L 297.199219 103.5625 C 298.730469 103.5625 298.792969 103.78125 298.792969 104.5 L 298.792969 115 C 298.792969 115.71875 298.730469 115.9375 297.199219 115.9375 L 296.730469 115.9375 L 296.730469 116.5625 C 297.417969 116.5 298.917969 116.5 299.667969 116.5 C 300.417969 116.5 301.917969 116.5 302.605469 116.5625 L 302.605469 115.9375 L 302.136719 115.9375 C 300.605469 115.9375 300.574219 115.71875 300.574219 115 L 300.574219 109.78125 L 306.511719 109.78125 L 306.511719 115 C 306.511719 115.71875 306.480469 115.9375 304.949219 115.9375 L 304.480469 115.9375 L 304.480469 116.5625 C 305.167969 116.5 306.636719 116.5 307.386719 116.5 C 308.167969 116.5 309.636719 116.5 310.355469 116.5625 L 310.355469 115.9375 L 309.855469 115.9375 C 308.324219 115.9375 308.292969 115.71875 308.292969 115 Z M 308.292969 104.5 "/>
<path style=" stroke:none;fill-rule:nonzero;fill:rgb(0%,0%,0%);fill-opacity:1;" d="M 314.550781 107.75 L 311.769531 107.96875 L 311.769531 108.59375 C 313.050781 108.59375 313.238281 108.71875 313.238281 109.6875 L 313.238281 115.0625 C 313.238281 115.9375 313.019531 115.9375 311.675781 115.9375 L 311.675781 116.5625 C 312.300781 116.53125 313.394531 116.5 313.863281 116.5 C 314.582031 116.5 315.269531 116.53125 315.957031 116.5625 L 315.957031 115.9375 C 314.613281 115.9375 314.550781 115.84375 314.550781 115.0625 Z M 314.613281 104.28125 C 314.613281 103.65625 314.144531 103.21875 313.582031 103.21875 C 312.957031 103.21875 312.519531 103.75 312.519531 104.28125 C 312.519531 104.8125 312.957031 105.34375 313.582031 105.34375 C 314.144531 105.34375 314.613281 104.90625 314.613281 104.28125 Z M 314.613281 104.28125 "/>
<path style=" stroke:none;fill-rule:nonzero;fill:rgb(0%,0%,0%);fill-opacity:1;" d="M 320.992188 113.125 C 319.242188 113.125 319.242188 111.125 319.242188 110.6875 C 319.242188 110.15625 319.273438 109.5 319.554688 109 C 319.710938 108.78125 320.179688 108.21875 320.992188 108.21875 C 322.710938 108.21875 322.710938 110.1875 322.710938 110.65625 C 322.710938 111.1875 322.710938 111.84375 322.398438 112.34375 C 322.242188 112.5625 321.773438 113.125 320.992188 113.125 Z M 318.679688 113.90625 C 318.679688 113.84375 318.679688 113.375 318.992188 112.96875 C 319.773438 113.53125 320.617188 113.59375 320.992188 113.59375 C 322.835938 113.59375 324.210938 112.21875 324.210938 110.6875 C 324.210938 109.9375 323.898438 109.21875 323.398438 108.75 C 324.117188 108.0625 324.835938 107.96875 325.179688 107.96875 C 325.242188 107.96875 325.335938 107.96875 325.398438 108 C 325.179688 108.0625 325.054688 108.28125 325.054688 108.53125 C 325.054688 108.875 325.335938 109.09375 325.648438 109.09375 C 325.835938 109.09375 326.210938 108.96875 326.210938 108.5 C 326.210938 108.15625 325.992188 107.53125 325.210938 107.53125 C 324.804688 107.53125 323.929688 107.65625 323.085938 108.46875 C 322.242188 107.8125 321.429688 107.75 320.992188 107.75 C 319.117188 107.75 317.742188 109.125 317.742188 110.65625 C 317.742188 111.53125 318.179688 112.28125 318.679688 112.71875 C 318.429688 113 318.054688 113.65625 318.054688 114.375 C 318.054688 115 318.335938 115.75 318.960938 116.15625 C 317.742188 116.46875 317.117188 117.34375 317.117188 118.125 C 317.117188 119.5625 319.085938 120.65625 321.523438 120.65625 C 323.867188 120.65625 325.929688 119.65625 325.929688 118.09375 C 325.929688 117.40625 325.679688 116.375 324.648438 115.8125 C 323.585938 115.28125 322.429688 115.28125 321.210938 115.28125 C 320.710938 115.28125 319.867188 115.28125 319.710938 115.25 C 319.085938 115.15625 318.679688 114.5625 318.679688 113.90625 Z M 321.554688 120.21875 C 319.523438 120.21875 318.148438 119.1875 318.148438 118.125 C 318.148438 117.21875 318.898438 116.46875 319.773438 116.4375 L 320.960938 116.4375 C 322.679688 116.4375 324.898438 116.4375 324.898438 118.125 C 324.898438 119.21875 323.492188 120.21875 321.554688 120.21875 Z M 321.554688 120.21875 "/>
<path style=" stroke:none;fill-rule:nonzero;fill:rgb(0%,0%,0%);fill-opacity:1;" d="M 335.671875 110.1875 C 335.671875 108.59375 335.578125 107 334.890625 105.53125 C 333.984375 103.59375 332.328125 103.28125 331.515625 103.28125 C 330.296875 103.28125 328.859375 103.8125 328.015625 105.65625 C 327.390625 107.03125 327.296875 108.59375 327.296875 110.1875 C 327.296875 111.6875 327.359375 113.46875 328.203125 115 C 329.046875 116.59375 330.515625 117 331.484375 117 C 332.546875 117 334.078125 116.59375 334.953125 114.6875 C 335.578125 113.3125 335.671875 111.75 335.671875 110.1875 Z M 331.484375 116.5625 C 330.703125 116.5625 329.515625 116.0625 329.171875 114.15625 C 328.953125 112.96875 328.953125 111.125 328.953125 109.9375 C 328.953125 108.65625 328.953125 107.34375 329.109375 106.28125 C 329.484375 103.90625 330.984375 103.71875 331.484375 103.71875 C 332.140625 103.71875 333.453125 104.09375 333.828125 106.0625 C 334.046875 107.1875 334.046875 108.6875 334.046875 109.9375 C 334.046875 111.4375 334.046875 112.78125 333.828125 114.0625 C 333.515625 115.96875 332.390625 116.5625 331.484375 116.5625 Z M 331.484375 116.5625 "/>
<path style=" stroke:none;fill-rule:nonzero;fill:rgb(0%,0%,0%);fill-opacity:1;" d="M 346.175781 112.40625 L 346.925781 103.3125 C 346.925781 102.65625 346.394531 102.28125 345.894531 102.28125 C 345.363281 102.28125 344.832031 102.65625 344.832031 103.3125 L 345.613281 112.375 C 345.613281 112.6875 345.644531 112.84375 345.894531 112.84375 C 346.082031 112.84375 346.144531 112.75 346.175781 112.40625 Z M 346.925781 115.5 C 346.925781 114.9375 346.457031 114.4375 345.894531 114.4375 C 345.300781 114.4375 344.832031 114.9375 344.832031 115.5 C 344.832031 116.09375 345.300781 116.5625 345.894531 116.5625 C 346.457031 116.5625 346.925781 116.09375 346.925781 115.5 Z M 346.925781 115.5 "/>
<path style="fill:none;stroke-width:0.566929;stroke-linecap:butt;stroke-linejoin:miter;stroke:rgb(100%,0%,0%);stroke-opacity:0.5;stroke-miterlimit:10;" d="M -2.834646 154.736513 L 2.835276 149.066591 " transform="matrix(2,0,0,2,6.169291,5.952756)"/>
<path style="fill:none;stroke-width:0.566929;stroke-linecap:butt;stroke-linejoin:miter;stroke:rgb(100%,0%,0%);stroke-opacity:0.5;stroke-miterlimit:10;" d="M 2.835276 154.736513 L -2.834646 149.066591 " transform="matrix(2,0,0,2,6.169291,5.952756)"/>
<path style="fill-rule:nonzero;fill:rgb(50%,50%,0%);fill-opacity:0.1;stroke-width:0.566929;stroke-linecap:butt;stroke-linejoin:miter;stroke:rgb(100%,0%,0%);stroke-opacity:0.5;stroke-miterlimit:10;" d="M -0.000661294 198.207216 L 117.997386 198.207216 L 117.997386 111.75995 L -0.000661294 111.75995 Z M -0.000661294 198.207216 " transform="matrix(2,0,0,2,6.169291,5.952756)"/>
<path style="fill:none;stroke-width:0.566929;stroke-linecap:butt;stroke-linejoin:miter;stroke:rgb(100%,0%,0%);stroke-opacity:0.5;stroke-miterlimit:10;" d="M 7.45637 154.736513 L 13.124339 149.066591 " transform="matrix(2,0,0,2,6.169291,5.952756)"/>
<path style="fill:none;stroke-width:0.566929;stroke-linecap:butt;stroke-linejoin:miter;stroke:rgb(100%,0%,0%);stroke-opacity:0.5;stroke-miterlimit:10;" d="M 13.124339 154.736513 L 7.45637 149.066591 " transform="matrix(2,0,0,2,6.169291,5.952756)"/>
<path style="fill-rule:nonzero;fill:rgb(50%,50%,0%);fill-opacity:0.1;stroke-width:0.566929;stroke-linecap:butt;stroke-linejoin:miter;stroke:rgb(100%,0%,0%);stroke-opacity:0.5;stroke-miterlimit:10;" d="M -0.000661294 168.25995 L 51.14387 168.25995 L 51.14387 111.75995 L -0.000661294 111.75995 Z M -0.000661294 168.25995 " transform="matrix(2,0,0,2,6.169291,5.952756)"/>
<path style="fill:none;stroke-width:0.566929;stroke-linecap:butt;stroke-linejoin:miter;stroke:rgb(100%,0%,0%);stroke-opacity:0.5;stroke-miterlimit:10;" d="M 70.874339 154.736513 L 76.544261 149.066591 " transform="matrix(2,0,0,2,6.169291,5.952756)"/>
<path style="fill:none;stroke-width:0.566929;stroke-linecap:butt;stroke-linejoin:miter;stroke:rgb(100%,0%,0%);stroke-opacity:0.5;stroke-miterlimit:10;" d="M 76.544261 154.736513 L 70.874339 149.066591 " transform="matrix(2,0,0,2,6.169291,5.952756)"/>
<path style="fill-rule:nonzero;fill:rgb(50%,50%,0%);fill-opacity:0.1;stroke-width:0.566929;stroke-linecap:butt;stroke-linejoin:miter;stroke:rgb(100%,0%,0%);stroke-opacity:0.5;stroke-miterlimit:10;" d="M 51.14387 198.207216 L 91.899729 198.207216 L 91.899729 131.138856 L 51.14387 131.138856 Z M 51.14387 198.207216 " transform="matrix(2,0,0,2,6.169291,5.952756)"/>
<path style="fill:none;stroke-width:0.566929;stroke-linecap:butt;stroke-linejoin:miter;stroke:rgb(100%,0%,0%);stroke-opacity:0.5;stroke-miterlimit:10;" d="M 89.065745 154.736513 L 94.735667 149.066591 " transform="matrix(2,0,0,2,6.169291,5.952756)"/>
<path style="fill:none;stroke-width:0.566929;stroke-linecap:butt;stroke-linejoin:miter;stroke:rgb(100%,0%,0%);stroke-opacity:0.5;stroke-miterlimit:10;" d="M 94.735667 154.736513 L 89.065745 149.066591 " transform="matrix(2,0,0,2,6.169291,5.952756)"/>
<path style="fill-rule:nonzero;fill:rgb(50%,50%,0%);fill-opacity:0.1;stroke-width:0.566929;stroke-linecap:butt;stroke-linejoin:miter;stroke:rgb(100%,0%,0%);stroke-opacity:0.5;stroke-miterlimit:10;" d="M 91.899729 152.963075 L 117.997386 152.963075 L 117.997386 143.761903 L 91.899729 143.761903 Z M 91.899729 152.963075 " transform="matrix(2,0,0,2,6.169291,5.952756)"/>
<path style=" stroke:none;fill-rule:nonzero;fill:rgb(0%,0%,0%);fill-opacity:1;" d="M 202.53125 296.695312 C 202.53125 295.976562 202.5625 295.757812 204.09375 295.757812 L 204.59375 295.757812 L 204.59375 295.132812 C 203.875 295.195312 202.40625 295.195312 201.65625 295.195312 C 200.90625 295.195312 199.40625 295.195312 198.71875 295.132812 L 198.71875 295.757812 L 199.1875 295.757812 C 200.71875 295.757812 200.75 295.976562 200.75 296.695312 L 200.75 301.351562 L 194.8125 301.351562 L 194.8125 296.695312 C 194.8125 295.976562 194.84375 295.757812 196.375 295.757812 L 196.84375 295.757812 L 196.84375 295.132812 C 196.15625 295.195312 194.6875 295.195312 193.90625 295.195312 C 193.15625 295.195312 191.65625 295.195312 190.96875 295.132812 L 190.96875 295.757812 L 191.4375 295.757812 C 192.96875 295.757812 193.03125 295.976562 193.03125 296.695312 L 193.03125 307.195312 C 193.03125 307.914062 192.96875 308.132812 191.4375 308.132812 L 190.96875 308.132812 L 190.96875 308.757812 C 191.65625 308.695312 193.15625 308.695312 193.90625 308.695312 C 194.65625 308.695312 196.15625 308.695312 196.84375 308.757812 L 196.84375 308.132812 L 196.375 308.132812 C 194.84375 308.132812 194.8125 307.914062 194.8125 307.195312 L 194.8125 301.976562 L 200.75 301.976562 L 200.75 307.195312 C 200.75 307.914062 200.71875 308.132812 199.1875 308.132812 L 198.71875 308.132812 L 198.71875 308.757812 C 199.40625 308.695312 200.875 308.695312 201.625 308.695312 C 202.40625 308.695312 203.875 308.695312 204.59375 308.757812 L 204.59375 308.132812 L 204.09375 308.132812 C 202.5625 308.132812 202.53125 307.914062 202.53125 307.195312 Z M 202.53125 296.695312 "/>
<path style=" stroke:none;fill-rule:nonzero;fill:rgb(0%,0%,0%);fill-opacity:1;" d="M 208.789062 299.945312 L 206.007812 300.164062 L 206.007812 300.789062 C 207.289062 300.789062 207.476562 300.914062 207.476562 301.882812 L 207.476562 307.257812 C 207.476562 308.132812 207.257812 308.132812 205.914062 308.132812 L 205.914062 308.757812 C 206.539062 308.726562 207.632812 308.695312 208.101562 308.695312 C 208.820312 308.695312 209.507812 308.726562 210.195312 308.757812 L 210.195312 308.132812 C 208.851562 308.132812 208.789062 308.039062 208.789062 307.257812 Z M 208.851562 296.476562 C 208.851562 295.851562 208.382812 295.414062 207.820312 295.414062 C 207.195312 295.414062 206.757812 295.945312 206.757812 296.476562 C 206.757812 297.007812 207.195312 297.539062 207.820312 297.539062 C 208.382812 297.539062 208.851562 297.101562 208.851562 296.476562 Z M 208.851562 296.476562 "/>
<path style=" stroke:none;fill-rule:nonzero;fill:rgb(0%,0%,0%);fill-opacity:1;" d="M 215.230469 305.320312 C 213.480469 305.320312 213.480469 303.320312 213.480469 302.882812 C 213.480469 302.351562 213.511719 301.695312 213.792969 301.195312 C 213.949219 300.976562 214.417969 300.414062 215.230469 300.414062 C 216.949219 300.414062 216.949219 302.382812 216.949219 302.851562 C 216.949219 303.382812 216.949219 304.039062 216.636719 304.539062 C 216.480469 304.757812 216.011719 305.320312 215.230469 305.320312 Z M 212.917969 306.101562 C 212.917969 306.039062 212.917969 305.570312 213.230469 305.164062 C 214.011719 305.726562 214.855469 305.789062 215.230469 305.789062 C 217.074219 305.789062 218.449219 304.414062 218.449219 302.882812 C 218.449219 302.132812 218.136719 301.414062 217.636719 300.945312 C 218.355469 300.257812 219.074219 300.164062 219.417969 300.164062 C 219.480469 300.164062 219.574219 300.164062 219.636719 300.195312 C 219.417969 300.257812 219.292969 300.476562 219.292969 300.726562 C 219.292969 301.070312 219.574219 301.289062 219.886719 301.289062 C 220.074219 301.289062 220.449219 301.164062 220.449219 300.695312 C 220.449219 300.351562 220.230469 299.726562 219.449219 299.726562 C 219.042969 299.726562 218.167969 299.851562 217.324219 300.664062 C 216.480469 300.007812 215.667969 299.945312 215.230469 299.945312 C 213.355469 299.945312 211.980469 301.320312 211.980469 302.851562 C 211.980469 303.726562 212.417969 304.476562 212.917969 304.914062 C 212.667969 305.195312 212.292969 305.851562 212.292969 306.570312 C 212.292969 307.195312 212.574219 307.945312 213.199219 308.351562 C 211.980469 308.664062 211.355469 309.539062 211.355469 310.320312 C 211.355469 311.757812 213.324219 312.851562 215.761719 312.851562 C 218.105469 312.851562 220.167969 311.851562 220.167969 310.289062 C 220.167969 309.601562 219.917969 308.570312 218.886719 308.007812 C 217.824219 307.476562 216.667969 307.476562 215.449219 307.476562 C 214.949219 307.476562 214.105469 307.476562 213.949219 307.445312 C 213.324219 307.351562 212.917969 306.757812 212.917969 306.101562 Z M 215.792969 312.414062 C 213.761719 312.414062 212.386719 311.382812 212.386719 310.320312 C 212.386719 309.414062 213.136719 308.664062 214.011719 308.632812 L 215.199219 308.632812 C 216.917969 308.632812 219.136719 308.632812 219.136719 310.320312 C 219.136719 311.414062 217.730469 312.414062 215.792969 312.414062 Z M 215.792969 312.414062 "/>
<path style=" stroke:none;fill-rule:nonzero;fill:rgb(0%,0%,0%);fill-opacity:1;" d="M 226.628906 296.007812 C 226.628906 295.507812 226.628906 295.476562 226.160156 295.476562 C 224.910156 296.757812 223.160156 296.757812 222.535156 296.757812 L 222.535156 297.382812 C 222.941406 297.382812 224.097656 297.382812 225.128906 296.851562 L 225.128906 307.195312 C 225.128906 307.914062 225.066406 308.132812 223.285156 308.132812 L 222.660156 308.132812 L 222.660156 308.757812 C 223.347656 308.695312 225.066406 308.695312 225.878906 308.695312 C 226.660156 308.695312 228.410156 308.695312 229.097656 308.757812 L 229.097656 308.132812 L 228.472656 308.132812 C 226.660156 308.132812 226.628906 307.914062 226.628906 307.195312 Z M 226.628906 296.007812 "/>
<path style=" stroke:none;fill-rule:nonzero;fill:rgb(0%,0%,0%);fill-opacity:1;" d="M 240.414062 304.601562 L 241.164062 295.507812 C 241.164062 294.851562 240.632812 294.476562 240.132812 294.476562 C 239.601562 294.476562 239.070312 294.851562 239.070312 295.507812 L 239.851562 304.570312 C 239.851562 304.882812 239.882812 305.039062 240.132812 305.039062 C 240.320312 305.039062 240.382812 304.945312 240.414062 304.601562 Z M 241.164062 307.695312 C 241.164062 307.132812 240.695312 306.632812 240.132812 306.632812 C 239.539062 306.632812 239.070312 307.132812 239.070312 307.695312 C 239.070312 308.289062 239.539062 308.757812 240.132812 308.757812 C 240.695312 308.757812 241.164062 308.289062 241.164062 307.695312 Z M 241.164062 307.695312 "/>
</g>
</svg>
