<?xml version="1.0" encoding="UTF-8"?>
<svg xmlns="http://www.w3.org/2000/svg" xmlns:xlink="http://www.w3.org/1999/xlink" width="214.904635pt" height="176.748031pt" viewBox="0 0 214.904635 176.748031" version="1.1">
<g id="surface69">
<path style="fill:none;stroke-width:0.566929;stroke-linecap:butt;stroke-linejoin:miter;stroke:rgb(100%,0%,0%);stroke-opacity:0.5;stroke-miterlimit:10;" d="M -2.8338 2.835276 L 2.834169 -2.834646 " transform="matrix(2,0,0,2,5.952756,6.169291)"/>
<path style="fill:none;stroke-width:0.566929;stroke-linecap:butt;stroke-linejoin:miter;stroke:rgb(100%,0%,0%);stroke-opacity:0.5;stroke-miterlimit:10;" d="M 2.834169 2.835276 L -2.8338 -2.834646 " transform="matrix(2,0,0,2,5.952756,6.169291)"/>
<path style="fill-rule:nonzero;fill:rgb(50%,50%,0%);fill-opacity:0.1;stroke-width:0.566929;stroke-linecap:butt;stroke-linejoin:miter;stroke:rgb(100%,0%,0%);stroke-opacity:0.5;stroke-miterlimit:10;" d="M 0.000184547 85.038401 L 101.39081 85.038401 L 101.39081 -0.000661294 L 0.000184547 -0.000661294 Z M 0.000184547 85.038401 " transform="matrix(2,0,0,2,5.952756,6.169291)"/>
<path style="fill:none;stroke-width:0.566929;stroke-linecap:butt;stroke-linejoin:miter;stroke:rgb(100%,0%,0%);stroke-opacity:0.5;stroke-miterlimit:10;" d="M 6.857606 2.835276 L 12.525575 -2.834646 " transform="matrix(2,0,0,2,5.952756,6.169291)"/>
<path style="fill:none;stroke-width:0.566929;stroke-linecap:butt;stroke-linejoin:miter;stroke:rgb(100%,0%,0%);stroke-opacity:0.5;stroke-miterlimit:10;" d="M 12.525575 2.835276 L 6.857606 -2.834646 " transform="matrix(2,0,0,2,5.952756,6.169291)"/>
<path style="fill-rule:nonzero;fill:rgb(50%,50%,0%);fill-opacity:0.1;stroke-width:0.566929;stroke-linecap:butt;stroke-linejoin:miter;stroke:rgb(100%,0%,0%);stroke-opacity:0.5;stroke-miterlimit:10;" d="M 4.740419 13.700511 L 14.642763 13.700511 L 14.642763 -0.000661294 L 4.740419 -0.000661294 Z M 4.740419 13.700511 " transform="matrix(2,0,0,2,5.952756,6.169291)"/>
<path style="fill:none;stroke-width:0.566929;stroke-linecap:butt;stroke-linejoin:miter;stroke:rgb(100%,0%,0%);stroke-opacity:0.5;stroke-miterlimit:10;" d="M 4.740419 13.700511 L 10.408388 8.030589 " transform="matrix(2,0,0,2,5.952756,6.169291)"/>
<path style="fill:none;stroke-width:0.566929;stroke-linecap:butt;stroke-linejoin:miter;stroke:rgb(100%,0%,0%);stroke-opacity:0.5;stroke-miterlimit:10;" d="M 10.408388 13.700511 L 4.740419 8.030589 " transform="matrix(2,0,0,2,5.952756,6.169291)"/>
<path style="fill-rule:nonzero;fill:rgb(50%,50%,0%);fill-opacity:0.1;stroke-width:0.566929;stroke-linecap:butt;stroke-linejoin:miter;stroke:rgb(100%,0%,0%);stroke-opacity:0.5;stroke-miterlimit:10;" d="M 4.740419 13.700511 L 14.642763 13.700511 L 14.642763 -0.000661294 L 4.740419 -0.000661294 Z M 4.740419 13.700511 " transform="matrix(2,0,0,2,5.952756,6.169291)"/>
<path style="fill:none;stroke-width:0.566929;stroke-linecap:butt;stroke-linejoin:miter;stroke:rgb(100%,0%,0%);stroke-opacity:0.5;stroke-miterlimit:10;" d="M 4.740419 13.700511 L 10.408388 8.030589 " transform="matrix(2,0,0,2,5.952756,6.169291)"/>
<path style="fill:none;stroke-width:0.566929;stroke-linecap:butt;stroke-linejoin:miter;stroke:rgb(100%,0%,0%);stroke-opacity:0.5;stroke-miterlimit:10;" d="M 10.408388 13.700511 L 4.740419 8.030589 " transform="matrix(2,0,0,2,5.952756,6.169291)"/>
<path style="fill-rule:nonzero;fill:rgb(50%,50%,0%);fill-opacity:0.1;stroke-width:0.566929;stroke-linecap:butt;stroke-linejoin:miter;stroke:rgb(100%,0%,0%);stroke-opacity:0.5;stroke-miterlimit:10;" d="M 7.574403 10.866526 L 11.808778 10.866526 L 11.808778 2.835276 L 7.574403 2.835276 Z M 7.574403 10.866526 " transform="matrix(2,0,0,2,5.952756,6.169291)"/>
<path style=" stroke:none;fill-rule:nonzero;fill:rgb(0%,0%,0%);fill-opacity:1;" d="M 24.945312 18.308594 L 24.945312 15.996094 C 24.945312 14.246094 25.882812 13.277344 26.757812 13.277344 C 26.820312 13.277344 27.132812 13.277344 27.414062 13.433594 C 27.195312 13.496094 26.820312 13.777344 26.820312 14.277344 C 26.820312 14.714844 27.132812 15.121094 27.695312 15.121094 C 28.257812 15.121094 28.570312 14.714844 28.570312 14.246094 C 28.570312 13.496094 27.820312 12.839844 26.757812 12.839844 C 25.382812 12.839844 23.664062 13.902344 23.664062 16.027344 L 23.664062 18.308594 L 22.101562 18.308594 L 22.101562 18.933594 L 23.664062 18.933594 L 23.664062 25.402344 C 23.664062 26.277344 23.445312 26.277344 22.132812 26.277344 L 22.132812 26.902344 C 22.914062 26.871094 23.851562 26.839844 24.382812 26.839844 C 25.195312 26.839844 26.132812 26.839844 26.914062 26.902344 L 26.914062 26.277344 L 26.507812 26.277344 C 25.039062 26.277344 25.007812 26.058594 25.007812 25.339844 L 25.007812 18.933594 L 27.257812 18.933594 L 27.257812 18.308594 Z M 24.945312 18.308594 "/>
<path style="fill:none;stroke-width:0.566929;stroke-linecap:butt;stroke-linejoin:miter;stroke:rgb(100%,0%,0%);stroke-opacity:0.5;stroke-miterlimit:10;" d="M 34.60956 2.835276 L 40.279481 -2.834646 " transform="matrix(2,0,0,2,5.952756,6.169291)"/>
<path style="fill:none;stroke-width:0.566929;stroke-linecap:butt;stroke-linejoin:miter;stroke:rgb(100%,0%,0%);stroke-opacity:0.5;stroke-miterlimit:10;" d="M 40.279481 2.835276 L 34.60956 -2.834646 " transform="matrix(2,0,0,2,5.952756,6.169291)"/>
<path style="fill-rule:nonzero;fill:rgb(50%,50%,0%);fill-opacity:0.1;stroke-width:0.566929;stroke-linecap:butt;stroke-linejoin:miter;stroke:rgb(100%,0%,0%);stroke-opacity:0.5;stroke-miterlimit:10;" d="M 29.345888 13.231761 L 45.543153 13.231761 L 45.543153 -0.000661294 L 29.345888 -0.000661294 Z M 29.345888 13.231761 " transform="matrix(2,0,0,2,5.952756,6.169291)"/>
<path style="fill:none;stroke-width:0.566929;stroke-linecap:butt;stroke-linejoin:miter;stroke:rgb(100%,0%,0%);stroke-opacity:0.5;stroke-miterlimit:10;" d="M 29.345888 11.184886 L 35.01581 5.514964 " transform="matrix(2,0,0,2,5.952756,6.169291)"/>
<path style="fill:none;stroke-width:0.566929;stroke-linecap:butt;stroke-linejoin:miter;stroke:rgb(100%,0%,0%);stroke-opacity:0.5;stroke-miterlimit:10;" d="M 35.01581 11.184886 L 29.345888 5.514964 " transform="matrix(2,0,0,2,5.952756,6.169291)"/>
<path style="fill-rule:nonzero;fill:rgb(50%,50%,0%);fill-opacity:0.1;stroke-width:0.566929;stroke-linecap:butt;stroke-linejoin:miter;stroke:rgb(100%,0%,0%);stroke-opacity:0.5;stroke-miterlimit:10;" d="M 29.345888 13.231761 L 45.543153 13.231761 L 45.543153 -0.000661294 L 29.345888 -0.000661294 Z M 29.345888 13.231761 " transform="matrix(2,0,0,2,5.952756,6.169291)"/>
<path style="fill:none;stroke-width:0.566929;stroke-linecap:butt;stroke-linejoin:miter;stroke:rgb(100%,0%,0%);stroke-opacity:0.5;stroke-miterlimit:10;" d="M 29.345888 11.184886 L 35.01581 5.514964 " transform="matrix(2,0,0,2,5.952756,6.169291)"/>
<path style="fill:none;stroke-width:0.566929;stroke-linecap:butt;stroke-linejoin:miter;stroke:rgb(100%,0%,0%);stroke-opacity:0.5;stroke-miterlimit:10;" d="M 35.01581 11.184886 L 29.345888 5.514964 " transform="matrix(2,0,0,2,5.952756,6.169291)"/>
<path style="fill-rule:nonzero;fill:rgb(50%,50%,0%);fill-opacity:0.1;stroke-width:0.566929;stroke-linecap:butt;stroke-linejoin:miter;stroke:rgb(100%,0%,0%);stroke-opacity:0.5;stroke-miterlimit:10;" d="M 32.179872 10.397776 L 42.709169 10.397776 L 42.709169 2.835276 L 32.179872 2.835276 Z M 32.179872 10.397776 " transform="matrix(2,0,0,2,5.952756,6.169291)"/>
<path style=" stroke:none;fill-rule:nonzero;fill:rgb(0%,0%,0%);fill-opacity:1;" d="M 75.1875 18.433594 C 73.4375 18.433594 73.4375 16.433594 73.4375 15.996094 C 73.4375 15.464844 73.46875 14.808594 73.75 14.308594 C 73.90625 14.089844 74.375 13.527344 75.1875 13.527344 C 76.90625 13.527344 76.90625 15.496094 76.90625 15.964844 C 76.90625 16.496094 76.90625 17.152344 76.59375 17.652344 C 76.4375 17.871094 75.96875 18.433594 75.1875 18.433594 Z M 72.875 19.214844 C 72.875 19.152344 72.875 18.683594 73.1875 18.277344 C 73.96875 18.839844 74.8125 18.902344 75.1875 18.902344 C 77.03125 18.902344 78.40625 17.527344 78.40625 15.996094 C 78.40625 15.246094 78.09375 14.527344 77.59375 14.058594 C 78.3125 13.371094 79.03125 13.277344 79.375 13.277344 C 79.4375 13.277344 79.53125 13.277344 79.59375 13.308594 C 79.375 13.371094 79.25 13.589844 79.25 13.839844 C 79.25 14.183594 79.53125 14.402344 79.84375 14.402344 C 80.03125 14.402344 80.40625 14.277344 80.40625 13.808594 C 80.40625 13.464844 80.1875 12.839844 79.40625 12.839844 C 79 12.839844 78.125 12.964844 77.28125 13.777344 C 76.4375 13.121094 75.625 13.058594 75.1875 13.058594 C 73.3125 13.058594 71.9375 14.433594 71.9375 15.964844 C 71.9375 16.839844 72.375 17.589844 72.875 18.027344 C 72.625 18.308594 72.25 18.964844 72.25 19.683594 C 72.25 20.308594 72.53125 21.058594 73.15625 21.464844 C 71.9375 21.777344 71.3125 22.652344 71.3125 23.433594 C 71.3125 24.871094 73.28125 25.964844 75.71875 25.964844 C 78.0625 25.964844 80.125 24.964844 80.125 23.402344 C 80.125 22.714844 79.875 21.683594 78.84375 21.121094 C 77.78125 20.589844 76.625 20.589844 75.40625 20.589844 C 74.90625 20.589844 74.0625 20.589844 73.90625 20.558594 C 73.28125 20.464844 72.875 19.871094 72.875 19.214844 Z M 75.75 25.527344 C 73.71875 25.527344 72.34375 24.496094 72.34375 23.433594 C 72.34375 22.527344 73.09375 21.777344 73.96875 21.746094 L 75.15625 21.746094 C 76.875 21.746094 79.09375 21.746094 79.09375 23.433594 C 79.09375 24.527344 77.6875 25.527344 75.75 25.527344 Z M 75.75 25.527344 "/>
<path style=" stroke:none;fill-rule:nonzero;fill:rgb(0%,0%,0%);fill-opacity:1;" d="M 85.152344 18.433594 C 83.402344 18.433594 83.402344 16.433594 83.402344 15.996094 C 83.402344 15.464844 83.433594 14.808594 83.714844 14.308594 C 83.871094 14.089844 84.339844 13.527344 85.152344 13.527344 C 86.871094 13.527344 86.871094 15.496094 86.871094 15.964844 C 86.871094 16.496094 86.871094 17.152344 86.558594 17.652344 C 86.402344 17.871094 85.933594 18.433594 85.152344 18.433594 Z M 82.839844 19.214844 C 82.839844 19.152344 82.839844 18.683594 83.152344 18.277344 C 83.933594 18.839844 84.777344 18.902344 85.152344 18.902344 C 86.996094 18.902344 88.371094 17.527344 88.371094 15.996094 C 88.371094 15.246094 88.058594 14.527344 87.558594 14.058594 C 88.277344 13.371094 88.996094 13.277344 89.339844 13.277344 C 89.402344 13.277344 89.496094 13.277344 89.558594 13.308594 C 89.339844 13.371094 89.214844 13.589844 89.214844 13.839844 C 89.214844 14.183594 89.496094 14.402344 89.808594 14.402344 C 89.996094 14.402344 90.371094 14.277344 90.371094 13.808594 C 90.371094 13.464844 90.152344 12.839844 89.371094 12.839844 C 88.964844 12.839844 88.089844 12.964844 87.246094 13.777344 C 86.402344 13.121094 85.589844 13.058594 85.152344 13.058594 C 83.277344 13.058594 81.902344 14.433594 81.902344 15.964844 C 81.902344 16.839844 82.339844 17.589844 82.839844 18.027344 C 82.589844 18.308594 82.214844 18.964844 82.214844 19.683594 C 82.214844 20.308594 82.496094 21.058594 83.121094 21.464844 C 81.902344 21.777344 81.277344 22.652344 81.277344 23.433594 C 81.277344 24.871094 83.246094 25.964844 85.683594 25.964844 C 88.027344 25.964844 90.089844 24.964844 90.089844 23.402344 C 90.089844 22.714844 89.839844 21.683594 88.808594 21.121094 C 87.746094 20.589844 86.589844 20.589844 85.371094 20.589844 C 84.871094 20.589844 84.027344 20.589844 83.871094 20.558594 C 83.246094 20.464844 82.839844 19.871094 82.839844 19.214844 Z M 85.714844 25.527344 C 83.683594 25.527344 82.308594 24.496094 82.308594 23.433594 C 82.308594 22.527344 83.058594 21.777344 83.933594 21.746094 L 85.121094 21.746094 C 86.839844 21.746094 89.058594 21.746094 89.058594 23.433594 C 89.058594 24.527344 87.652344 25.527344 85.714844 25.527344 Z M 85.714844 25.527344 "/>
<path style="fill:none;stroke-width:0.566929;stroke-linecap:butt;stroke-linejoin:miter;stroke:rgb(100%,0%,0%);stroke-opacity:0.5;stroke-miterlimit:10;" d="M 75.613466 2.835276 L 81.283388 -2.834646 " transform="matrix(2,0,0,2,5.952756,6.169291)"/>
<path style="fill:none;stroke-width:0.566929;stroke-linecap:butt;stroke-linejoin:miter;stroke:rgb(100%,0%,0%);stroke-opacity:0.5;stroke-miterlimit:10;" d="M 81.283388 2.835276 L 75.613466 -2.834646 " transform="matrix(2,0,0,2,5.952756,6.169291)"/>
<path style="fill-rule:nonzero;fill:rgb(50%,50%,0%);fill-opacity:0.1;stroke-width:0.566929;stroke-linecap:butt;stroke-linejoin:miter;stroke:rgb(100%,0%,0%);stroke-opacity:0.5;stroke-miterlimit:10;" d="M 70.560731 13.700511 L 86.338075 13.700511 L 86.338075 -0.000661294 L 70.560731 -0.000661294 Z M 70.560731 13.700511 " transform="matrix(2,0,0,2,5.952756,6.169291)"/>
<path style="fill:none;stroke-width:0.566929;stroke-linecap:butt;stroke-linejoin:miter;stroke:rgb(100%,0%,0%);stroke-opacity:0.5;stroke-miterlimit:10;" d="M 70.560731 13.700511 L 76.2287 8.030589 " transform="matrix(2,0,0,2,5.952756,6.169291)"/>
<path style="fill:none;stroke-width:0.566929;stroke-linecap:butt;stroke-linejoin:miter;stroke:rgb(100%,0%,0%);stroke-opacity:0.5;stroke-miterlimit:10;" d="M 76.2287 13.700511 L 70.560731 8.030589 " transform="matrix(2,0,0,2,5.952756,6.169291)"/>
<path style="fill-rule:nonzero;fill:rgb(50%,50%,0%);fill-opacity:0.1;stroke-width:0.566929;stroke-linecap:butt;stroke-linejoin:miter;stroke:rgb(100%,0%,0%);stroke-opacity:0.5;stroke-miterlimit:10;" d="M 70.560731 13.700511 L 86.338075 13.700511 L 86.338075 -0.000661294 L 70.560731 -0.000661294 Z M 70.560731 13.700511 " transform="matrix(2,0,0,2,5.952756,6.169291)"/>
<path style="fill:none;stroke-width:0.566929;stroke-linecap:butt;stroke-linejoin:miter;stroke:rgb(100%,0%,0%);stroke-opacity:0.5;stroke-miterlimit:10;" d="M 70.560731 13.700511 L 76.2287 8.030589 " transform="matrix(2,0,0,2,5.952756,6.169291)"/>
<path style="fill:none;stroke-width:0.566929;stroke-linecap:butt;stroke-linejoin:miter;stroke:rgb(100%,0%,0%);stroke-opacity:0.5;stroke-miterlimit:10;" d="M 76.2287 13.700511 L 70.560731 8.030589 " transform="matrix(2,0,0,2,5.952756,6.169291)"/>
<path style="fill-rule:nonzero;fill:rgb(50%,50%,0%);fill-opacity:0.1;stroke-width:0.566929;stroke-linecap:butt;stroke-linejoin:miter;stroke:rgb(100%,0%,0%);stroke-opacity:0.5;stroke-miterlimit:10;" d="M 73.394716 10.866526 L 83.502138 10.866526 L 83.502138 2.835276 L 73.394716 2.835276 Z M 73.394716 10.866526 " transform="matrix(2,0,0,2,5.952756,6.169291)"/>
<path style=" stroke:none;fill-rule:nonzero;fill:rgb(0%,0%,0%);fill-opacity:1;" d="M 162.148438 18.933594 L 164.429688 18.933594 L 164.429688 18.308594 L 162.085938 18.308594 L 162.085938 15.996094 C 162.085938 14.214844 163.054688 13.277344 163.929688 13.277344 C 163.992188 13.277344 164.304688 13.277344 164.585938 13.433594 C 164.367188 13.496094 163.992188 13.777344 163.992188 14.277344 C 163.992188 14.714844 164.304688 15.121094 164.867188 15.121094 C 165.429688 15.121094 165.742188 14.714844 165.742188 14.246094 C 165.742188 13.527344 165.023438 12.839844 163.929688 12.839844 C 162.742188 12.839844 161.867188 13.589844 161.773438 13.683594 C 161.179688 12.933594 160.054688 12.839844 159.523438 12.839844 C 157.648438 12.839844 155.335938 13.871094 155.335938 16.027344 L 155.335938 18.308594 L 153.742188 18.308594 L 153.742188 18.933594 L 155.335938 18.933594 L 155.335938 25.402344 C 155.335938 26.277344 155.117188 26.277344 153.773438 26.277344 L 153.773438 26.902344 C 154.429688 26.871094 155.492188 26.839844 155.992188 26.839844 C 156.492188 26.839844 157.460938 26.871094 158.210938 26.902344 L 158.210938 26.277344 C 156.867188 26.277344 156.648438 26.277344 156.648438 25.402344 L 156.648438 18.933594 L 160.835938 18.933594 L 160.835938 25.402344 C 160.835938 26.277344 160.617188 26.277344 159.273438 26.277344 L 159.273438 26.902344 C 160.054688 26.871094 160.992188 26.839844 161.554688 26.839844 C 162.335938 26.839844 163.273438 26.839844 164.085938 26.902344 L 164.085938 26.277344 L 163.648438 26.277344 C 162.179688 26.277344 162.148438 26.058594 162.148438 25.339844 Z M 156.585938 18.308594 L 156.585938 16.058594 C 156.585938 14.121094 158.210938 13.277344 159.523438 13.277344 C 160.492188 13.277344 161.054688 13.652344 161.054688 13.652344 L 161.054688 13.683594 C 160.742188 13.714844 160.335938 13.996094 160.335938 14.527344 C 160.335938 14.652344 160.335938 15.152344 160.898438 15.339844 C 160.835938 15.589844 160.835938 15.777344 160.835938 16.027344 L 160.835938 18.308594 Z M 156.585938 18.308594 "/>
<path style=" stroke:none;fill-rule:nonzero;fill:rgb(0%,0%,0%);fill-opacity:1;" d="M 168.332031 18.308594 L 168.332031 15.996094 C 168.332031 14.246094 169.269531 13.277344 170.144531 13.277344 C 170.207031 13.277344 170.519531 13.277344 170.800781 13.433594 C 170.582031 13.496094 170.207031 13.777344 170.207031 14.277344 C 170.207031 14.714844 170.519531 15.121094 171.082031 15.121094 C 171.644531 15.121094 171.957031 14.714844 171.957031 14.246094 C 171.957031 13.496094 171.207031 12.839844 170.144531 12.839844 C 168.769531 12.839844 167.050781 13.902344 167.050781 16.027344 L 167.050781 18.308594 L 165.488281 18.308594 L 165.488281 18.933594 L 167.050781 18.933594 L 167.050781 25.402344 C 167.050781 26.277344 166.832031 26.277344 165.519531 26.277344 L 165.519531 26.902344 C 166.300781 26.871094 167.238281 26.839844 167.769531 26.839844 C 168.582031 26.839844 169.519531 26.839844 170.300781 26.902344 L 170.300781 26.277344 L 169.894531 26.277344 C 168.425781 26.277344 168.394531 26.058594 168.394531 25.339844 L 168.394531 18.933594 L 170.644531 18.933594 L 170.644531 18.308594 Z M 168.332031 18.308594 "/>
<path style="fill:none;stroke-width:0.566929;stroke-linecap:butt;stroke-linejoin:miter;stroke:rgb(100%,0%,0%);stroke-opacity:0.5;stroke-miterlimit:10;" d="M 98.556825 2.835276 L 104.226747 -2.834646 " transform="matrix(2,0,0,2,5.952756,6.169291)"/>
<path style="fill:none;stroke-width:0.566929;stroke-linecap:butt;stroke-linejoin:miter;stroke:rgb(100%,0%,0%);stroke-opacity:0.5;stroke-miterlimit:10;" d="M 104.226747 2.835276 L 98.556825 -2.834646 " transform="matrix(2,0,0,2,5.952756,6.169291)"/>
<path style="fill:none;stroke-width:0.566929;stroke-linecap:butt;stroke-linejoin:miter;stroke:rgb(100%,0%,0%);stroke-opacity:0.5;stroke-miterlimit:10;" d="M 101.39081 28.346995 L 101.39081 -0.000661294 Z M 101.39081 28.346995 " transform="matrix(2,0,0,2,5.952756,6.169291)"/>
<path style="fill:none;stroke-width:0.566929;stroke-linecap:butt;stroke-linejoin:miter;stroke:rgb(100%,0%,0%);stroke-opacity:0.5;stroke-miterlimit:10;" d="M 6.857606 31.180979 L 12.525575 25.511057 " transform="matrix(2,0,0,2,5.952756,6.169291)"/>
<path style="fill:none;stroke-width:0.566929;stroke-linecap:butt;stroke-linejoin:miter;stroke:rgb(100%,0%,0%);stroke-opacity:0.5;stroke-miterlimit:10;" d="M 12.525575 31.180979 L 6.857606 25.511057 " transform="matrix(2,0,0,2,5.952756,6.169291)"/>
<path style="fill-rule:nonzero;fill:rgb(50%,50%,0%);fill-opacity:0.1;stroke-width:0.566929;stroke-linecap:butt;stroke-linejoin:miter;stroke:rgb(100%,0%,0%);stroke-opacity:0.5;stroke-miterlimit:10;" d="M 3.357606 42.046214 L 16.025575 42.046214 L 16.025575 28.346995 L 3.357606 28.346995 Z M 3.357606 42.046214 " transform="matrix(2,0,0,2,5.952756,6.169291)"/>
<path style="fill:none;stroke-width:0.566929;stroke-linecap:butt;stroke-linejoin:miter;stroke:rgb(100%,0%,0%);stroke-opacity:0.5;stroke-miterlimit:10;" d="M 3.357606 42.046214 L 9.025575 36.378245 " transform="matrix(2,0,0,2,5.952756,6.169291)"/>
<path style="fill:none;stroke-width:0.566929;stroke-linecap:butt;stroke-linejoin:miter;stroke:rgb(100%,0%,0%);stroke-opacity:0.5;stroke-miterlimit:10;" d="M 9.025575 42.046214 L 3.357606 36.378245 " transform="matrix(2,0,0,2,5.952756,6.169291)"/>
<path style="fill-rule:nonzero;fill:rgb(50%,50%,0%);fill-opacity:0.1;stroke-width:0.566929;stroke-linecap:butt;stroke-linejoin:miter;stroke:rgb(100%,0%,0%);stroke-opacity:0.5;stroke-miterlimit:10;" d="M 3.357606 42.046214 L 16.025575 42.046214 L 16.025575 28.346995 L 3.357606 28.346995 Z M 3.357606 42.046214 " transform="matrix(2,0,0,2,5.952756,6.169291)"/>
<path style="fill:none;stroke-width:0.566929;stroke-linecap:butt;stroke-linejoin:miter;stroke:rgb(100%,0%,0%);stroke-opacity:0.5;stroke-miterlimit:10;" d="M 3.357606 42.046214 L 9.025575 36.378245 " transform="matrix(2,0,0,2,5.952756,6.169291)"/>
<path style="fill:none;stroke-width:0.566929;stroke-linecap:butt;stroke-linejoin:miter;stroke:rgb(100%,0%,0%);stroke-opacity:0.5;stroke-miterlimit:10;" d="M 9.025575 42.046214 L 3.357606 36.378245 " transform="matrix(2,0,0,2,5.952756,6.169291)"/>
<path style="fill-rule:nonzero;fill:rgb(50%,50%,0%);fill-opacity:0.1;stroke-width:0.566929;stroke-linecap:butt;stroke-linejoin:miter;stroke:rgb(100%,0%,0%);stroke-opacity:0.5;stroke-miterlimit:10;" d="M 6.191591 39.212229 L 13.191591 39.212229 L 13.191591 31.180979 L 6.191591 31.180979 Z M 6.191591 39.212229 " transform="matrix(2,0,0,2,5.952756,6.169291)"/>
<path style=" stroke:none;fill-rule:nonzero;fill:rgb(0%,0%,0%);fill-opacity:1;" d="M 27.742188 75.625 L 30.023438 75.625 L 30.023438 75 L 27.679688 75 L 27.679688 72.6875 C 27.679688 70.90625 28.648438 69.96875 29.523438 69.96875 C 29.585938 69.96875 29.898438 69.96875 30.179688 70.125 C 29.960938 70.1875 29.585938 70.46875 29.585938 70.96875 C 29.585938 71.40625 29.898438 71.8125 30.460938 71.8125 C 31.023438 71.8125 31.335938 71.40625 31.335938 70.9375 C 31.335938 70.21875 30.617188 69.53125 29.523438 69.53125 C 28.335938 69.53125 27.460938 70.28125 27.367188 70.375 C 26.773438 69.625 25.648438 69.53125 25.117188 69.53125 C 23.242188 69.53125 20.929688 70.5625 20.929688 72.71875 L 20.929688 75 L 19.335938 75 L 19.335938 75.625 L 20.929688 75.625 L 20.929688 82.09375 C 20.929688 82.96875 20.710938 82.96875 19.367188 82.96875 L 19.367188 83.59375 C 20.023438 83.5625 21.085938 83.53125 21.585938 83.53125 C 22.085938 83.53125 23.054688 83.5625 23.804688 83.59375 L 23.804688 82.96875 C 22.460938 82.96875 22.242188 82.96875 22.242188 82.09375 L 22.242188 75.625 L 26.429688 75.625 L 26.429688 82.09375 C 26.429688 82.96875 26.210938 82.96875 24.867188 82.96875 L 24.867188 83.59375 C 25.648438 83.5625 26.585938 83.53125 27.148438 83.53125 C 27.929688 83.53125 28.867188 83.53125 29.679688 83.59375 L 29.679688 82.96875 L 29.242188 82.96875 C 27.773438 82.96875 27.742188 82.75 27.742188 82.03125 Z M 22.179688 75 L 22.179688 72.75 C 22.179688 70.8125 23.804688 69.96875 25.117188 69.96875 C 26.085938 69.96875 26.648438 70.34375 26.648438 70.34375 L 26.648438 70.375 C 26.335938 70.40625 25.929688 70.6875 25.929688 71.21875 C 25.929688 71.34375 25.929688 71.84375 26.492188 72.03125 C 26.429688 72.28125 26.429688 72.46875 26.429688 72.71875 L 26.429688 75 Z M 22.179688 75 "/>
<path style="fill:none;stroke-width:0.566929;stroke-linecap:butt;stroke-linejoin:miter;stroke:rgb(100%,0%,0%);stroke-opacity:0.5;stroke-miterlimit:10;" d="M 34.60956 31.180979 L 40.279481 25.511057 " transform="matrix(2,0,0,2,5.952756,6.169291)"/>
<path style="fill:none;stroke-width:0.566929;stroke-linecap:butt;stroke-linejoin:miter;stroke:rgb(100%,0%,0%);stroke-opacity:0.5;stroke-miterlimit:10;" d="M 40.279481 31.180979 L 34.60956 25.511057 " transform="matrix(2,0,0,2,5.952756,6.169291)"/>
<path style="fill-rule:nonzero;fill:rgb(50%,50%,0%);fill-opacity:0.1;stroke-width:0.566929;stroke-linecap:butt;stroke-linejoin:miter;stroke:rgb(100%,0%,0%);stroke-opacity:0.5;stroke-miterlimit:10;" d="M 28.205263 42.046214 L 46.685731 42.046214 L 46.685731 28.346995 L 28.205263 28.346995 Z M 28.205263 42.046214 " transform="matrix(2,0,0,2,5.952756,6.169291)"/>
<path style="fill:none;stroke-width:0.566929;stroke-linecap:butt;stroke-linejoin:miter;stroke:rgb(100%,0%,0%);stroke-opacity:0.5;stroke-miterlimit:10;" d="M 28.205263 42.046214 L 33.873231 36.378245 " transform="matrix(2,0,0,2,5.952756,6.169291)"/>
<path style="fill:none;stroke-width:0.566929;stroke-linecap:butt;stroke-linejoin:miter;stroke:rgb(100%,0%,0%);stroke-opacity:0.5;stroke-miterlimit:10;" d="M 33.873231 42.046214 L 28.205263 36.378245 " transform="matrix(2,0,0,2,5.952756,6.169291)"/>
<path style="fill-rule:nonzero;fill:rgb(50%,50%,0%);fill-opacity:0.1;stroke-width:0.566929;stroke-linecap:butt;stroke-linejoin:miter;stroke:rgb(100%,0%,0%);stroke-opacity:0.5;stroke-miterlimit:10;" d="M 28.205263 42.046214 L 46.685731 42.046214 L 46.685731 28.346995 L 28.205263 28.346995 Z M 28.205263 42.046214 " transform="matrix(2,0,0,2,5.952756,6.169291)"/>
<path style="fill:none;stroke-width:0.566929;stroke-linecap:butt;stroke-linejoin:miter;stroke:rgb(100%,0%,0%);stroke-opacity:0.5;stroke-miterlimit:10;" d="M 28.205263 42.046214 L 33.873231 36.378245 " transform="matrix(2,0,0,2,5.952756,6.169291)"/>
<path style="fill:none;stroke-width:0.566929;stroke-linecap:butt;stroke-linejoin:miter;stroke:rgb(100%,0%,0%);stroke-opacity:0.5;stroke-miterlimit:10;" d="M 33.873231 42.046214 L 28.205263 36.378245 " transform="matrix(2,0,0,2,5.952756,6.169291)"/>
<path style="fill-rule:nonzero;fill:rgb(50%,50%,0%);fill-opacity:0.1;stroke-width:0.566929;stroke-linecap:butt;stroke-linejoin:miter;stroke:rgb(100%,0%,0%);stroke-opacity:0.5;stroke-miterlimit:10;" d="M 31.039247 39.212229 L 43.849794 39.212229 L 43.849794 31.180979 L 31.039247 31.180979 Z M 31.039247 39.212229 " transform="matrix(2,0,0,2,5.952756,6.169291)"/>
<path style=" stroke:none;fill-rule:nonzero;fill:rgb(0%,0%,0%);fill-opacity:1;" d="M 77.4375 75.625 L 79.71875 75.625 L 79.71875 75 L 77.375 75 L 77.375 72.6875 C 77.375 70.90625 78.34375 69.96875 79.21875 69.96875 C 79.28125 69.96875 79.59375 69.96875 79.875 70.125 C 79.65625 70.1875 79.28125 70.46875 79.28125 70.96875 C 79.28125 71.40625 79.59375 71.8125 80.15625 71.8125 C 80.71875 71.8125 81.03125 71.40625 81.03125 70.9375 C 81.03125 70.21875 80.3125 69.53125 79.21875 69.53125 C 78.03125 69.53125 77.15625 70.28125 77.0625 70.375 C 76.46875 69.625 75.34375 69.53125 74.8125 69.53125 C 72.9375 69.53125 70.625 70.5625 70.625 72.71875 L 70.625 75 L 69.03125 75 L 69.03125 75.625 L 70.625 75.625 L 70.625 82.09375 C 70.625 82.96875 70.40625 82.96875 69.0625 82.96875 L 69.0625 83.59375 C 69.71875 83.5625 70.78125 83.53125 71.28125 83.53125 C 71.78125 83.53125 72.75 83.5625 73.5 83.59375 L 73.5 82.96875 C 72.15625 82.96875 71.9375 82.96875 71.9375 82.09375 L 71.9375 75.625 L 76.125 75.625 L 76.125 82.09375 C 76.125 82.96875 75.90625 82.96875 74.5625 82.96875 L 74.5625 83.59375 C 75.34375 83.5625 76.28125 83.53125 76.84375 83.53125 C 77.625 83.53125 78.5625 83.53125 79.375 83.59375 L 79.375 82.96875 L 78.9375 82.96875 C 77.46875 82.96875 77.4375 82.75 77.4375 82.03125 Z M 71.875 75 L 71.875 72.75 C 71.875 70.8125 73.5 69.96875 74.8125 69.96875 C 75.78125 69.96875 76.34375 70.34375 76.34375 70.34375 L 76.34375 70.375 C 76.03125 70.40625 75.625 70.6875 75.625 71.21875 C 75.625 71.34375 75.625 71.84375 76.1875 72.03125 C 76.125 72.28125 76.125 72.46875 76.125 72.71875 L 76.125 75 Z M 71.875 75 "/>
<path style=" stroke:none;fill-rule:nonzero;fill:rgb(0%,0%,0%);fill-opacity:1;" d="M 89.058594 75.625 L 91.339844 75.625 L 91.339844 75 L 88.996094 75 L 88.996094 72.6875 C 88.996094 70.90625 89.964844 69.96875 90.839844 69.96875 C 90.902344 69.96875 91.214844 69.96875 91.496094 70.125 C 91.277344 70.1875 90.902344 70.46875 90.902344 70.96875 C 90.902344 71.40625 91.214844 71.8125 91.777344 71.8125 C 92.339844 71.8125 92.652344 71.40625 92.652344 70.9375 C 92.652344 70.21875 91.933594 69.53125 90.839844 69.53125 C 89.652344 69.53125 88.777344 70.28125 88.683594 70.375 C 88.089844 69.625 86.964844 69.53125 86.433594 69.53125 C 84.558594 69.53125 82.246094 70.5625 82.246094 72.71875 L 82.246094 75 L 80.652344 75 L 80.652344 75.625 L 82.246094 75.625 L 82.246094 82.09375 C 82.246094 82.96875 82.027344 82.96875 80.683594 82.96875 L 80.683594 83.59375 C 81.339844 83.5625 82.402344 83.53125 82.902344 83.53125 C 83.402344 83.53125 84.371094 83.5625 85.121094 83.59375 L 85.121094 82.96875 C 83.777344 82.96875 83.558594 82.96875 83.558594 82.09375 L 83.558594 75.625 L 87.746094 75.625 L 87.746094 82.09375 C 87.746094 82.96875 87.527344 82.96875 86.183594 82.96875 L 86.183594 83.59375 C 86.964844 83.5625 87.902344 83.53125 88.464844 83.53125 C 89.246094 83.53125 90.183594 83.53125 90.996094 83.59375 L 90.996094 82.96875 L 90.558594 82.96875 C 89.089844 82.96875 89.058594 82.75 89.058594 82.03125 Z M 83.496094 75 L 83.496094 72.75 C 83.496094 70.8125 85.121094 69.96875 86.433594 69.96875 C 87.402344 69.96875 87.964844 70.34375 87.964844 70.34375 L 87.964844 70.375 C 87.652344 70.40625 87.246094 70.6875 87.246094 71.21875 C 87.246094 71.34375 87.246094 71.84375 87.808594 72.03125 C 87.746094 72.28125 87.746094 72.46875 87.746094 72.71875 L 87.746094 75 Z M 83.496094 75 "/>
<path style="fill:none;stroke-width:0.566929;stroke-linecap:butt;stroke-linejoin:miter;stroke:rgb(100%,0%,0%);stroke-opacity:0.5;stroke-miterlimit:10;" d="M 75.613466 31.180979 L 81.283388 25.511057 " transform="matrix(2,0,0,2,5.952756,6.169291)"/>
<path style="fill:none;stroke-width:0.566929;stroke-linecap:butt;stroke-linejoin:miter;stroke:rgb(100%,0%,0%);stroke-opacity:0.5;stroke-miterlimit:10;" d="M 81.283388 31.180979 L 75.613466 25.511057 " transform="matrix(2,0,0,2,5.952756,6.169291)"/>
<path style="fill-rule:nonzero;fill:rgb(50%,50%,0%);fill-opacity:0.1;stroke-width:0.566929;stroke-linecap:butt;stroke-linejoin:miter;stroke:rgb(100%,0%,0%);stroke-opacity:0.5;stroke-miterlimit:10;" d="M 59.461122 39.311839 L 97.437685 39.311839 L 97.437685 28.346995 L 59.461122 28.346995 Z M 59.461122 39.311839 " transform="matrix(2,0,0,2,5.952756,6.169291)"/>
<path style="fill:none;stroke-width:0.566929;stroke-linecap:butt;stroke-linejoin:miter;stroke:rgb(100%,0%,0%);stroke-opacity:0.5;stroke-miterlimit:10;" d="M 59.461122 39.311839 L 65.129091 33.64387 " transform="matrix(2,0,0,2,5.952756,6.169291)"/>
<path style="fill:none;stroke-width:0.566929;stroke-linecap:butt;stroke-linejoin:miter;stroke:rgb(100%,0%,0%);stroke-opacity:0.5;stroke-miterlimit:10;" d="M 65.129091 39.311839 L 59.461122 33.64387 " transform="matrix(2,0,0,2,5.952756,6.169291)"/>
<path style="fill-rule:nonzero;fill:rgb(50%,50%,0%);fill-opacity:0.1;stroke-width:0.566929;stroke-linecap:butt;stroke-linejoin:miter;stroke:rgb(100%,0%,0%);stroke-opacity:0.5;stroke-miterlimit:10;" d="M 59.461122 39.311839 L 97.437685 39.311839 L 97.437685 28.346995 L 59.461122 28.346995 Z M 59.461122 39.311839 " transform="matrix(2,0,0,2,5.952756,6.169291)"/>
<path style="fill:none;stroke-width:0.566929;stroke-linecap:butt;stroke-linejoin:miter;stroke:rgb(100%,0%,0%);stroke-opacity:0.5;stroke-miterlimit:10;" d="M 59.461122 39.311839 L 65.129091 33.64387 " transform="matrix(2,0,0,2,5.952756,6.169291)"/>
<path style="fill:none;stroke-width:0.566929;stroke-linecap:butt;stroke-linejoin:miter;stroke:rgb(100%,0%,0%);stroke-opacity:0.5;stroke-miterlimit:10;" d="M 65.129091 39.311839 L 59.461122 33.64387 " transform="matrix(2,0,0,2,5.952756,6.169291)"/>
<path style="fill-rule:nonzero;fill:rgb(50%,50%,0%);fill-opacity:0.1;stroke-width:0.566929;stroke-linecap:butt;stroke-linejoin:miter;stroke:rgb(100%,0%,0%);stroke-opacity:0.5;stroke-miterlimit:10;" d="M 62.295106 36.477854 L 94.601747 36.477854 L 94.601747 31.180979 L 62.295106 31.180979 Z M 62.295106 36.477854 " transform="matrix(2,0,0,2,5.952756,6.169291)"/>
<path style=" stroke:none;fill-rule:nonzero;fill:rgb(0%,0%,0%);fill-opacity:1;" d="M 137.011719 73.4375 C 137.605469 72.6875 138.355469 71.71875 138.855469 71.1875 C 139.480469 70.46875 140.292969 70.15625 141.230469 70.15625 L 141.230469 69.53125 C 140.699219 69.5625 140.105469 69.59375 139.574219 69.59375 C 138.980469 69.59375 137.917969 69.5625 137.667969 69.53125 L 137.667969 70.15625 C 138.105469 70.1875 138.261719 70.4375 138.261719 70.78125 C 138.261719 71.09375 138.042969 71.34375 137.949219 71.46875 L 136.730469 73.03125 L 135.167969 71 C 134.980469 70.8125 134.980469 70.78125 134.980469 70.65625 C 134.980469 70.34375 135.292969 70.15625 135.667969 70.15625 L 135.667969 69.53125 C 135.167969 69.5625 133.855469 69.59375 133.511719 69.59375 C 133.105469 69.59375 132.167969 69.5625 131.636719 69.53125 L 131.636719 70.15625 C 133.042969 70.15625 133.042969 70.15625 133.980469 71.375 L 135.949219 73.9375 L 134.074219 76.3125 C 133.136719 77.46875 131.949219 77.5 131.542969 77.5 L 131.542969 78.125 C 132.042969 78.09375 132.667969 78.0625 133.199219 78.0625 C 133.761719 78.0625 134.605469 78.09375 135.074219 78.125 L 135.074219 77.5 C 134.636719 77.4375 134.511719 77.1875 134.511719 76.875 C 134.511719 76.4375 135.074219 75.78125 136.292969 74.34375 L 137.824219 76.34375 C 137.980469 76.5625 138.230469 76.875 138.230469 77 C 138.230469 77.1875 138.042969 77.5 137.511719 77.5 L 137.511719 78.125 C 138.105469 78.09375 139.230469 78.0625 139.667969 78.0625 C 140.199219 78.0625 140.980469 78.09375 141.574219 78.125 L 141.574219 77.5 C 140.511719 77.5 140.136719 77.46875 139.699219 76.875 Z M 137.011719 73.4375 "/>
<path style=" stroke:none;fill-rule:nonzero;fill:rgb(0%,0%,0%);fill-opacity:1;" d="M 147.527344 73.4375 C 148.121094 72.6875 148.871094 71.71875 149.371094 71.1875 C 149.996094 70.46875 150.808594 70.15625 151.746094 70.15625 L 151.746094 69.53125 C 151.214844 69.5625 150.621094 69.59375 150.089844 69.59375 C 149.496094 69.59375 148.433594 69.5625 148.183594 69.53125 L 148.183594 70.15625 C 148.621094 70.1875 148.777344 70.4375 148.777344 70.78125 C 148.777344 71.09375 148.558594 71.34375 148.464844 71.46875 L 147.246094 73.03125 L 145.683594 71 C 145.496094 70.8125 145.496094 70.78125 145.496094 70.65625 C 145.496094 70.34375 145.808594 70.15625 146.183594 70.15625 L 146.183594 69.53125 C 145.683594 69.5625 144.371094 69.59375 144.027344 69.59375 C 143.621094 69.59375 142.683594 69.5625 142.152344 69.53125 L 142.152344 70.15625 C 143.558594 70.15625 143.558594 70.15625 144.496094 71.375 L 146.464844 73.9375 L 144.589844 76.3125 C 143.652344 77.46875 142.464844 77.5 142.058594 77.5 L 142.058594 78.125 C 142.558594 78.09375 143.183594 78.0625 143.714844 78.0625 C 144.277344 78.0625 145.121094 78.09375 145.589844 78.125 L 145.589844 77.5 C 145.152344 77.4375 145.027344 77.1875 145.027344 76.875 C 145.027344 76.4375 145.589844 75.78125 146.808594 74.34375 L 148.339844 76.34375 C 148.496094 76.5625 148.746094 76.875 148.746094 77 C 148.746094 77.1875 148.558594 77.5 148.027344 77.5 L 148.027344 78.125 C 148.621094 78.09375 149.746094 78.0625 150.183594 78.0625 C 150.714844 78.0625 151.496094 78.09375 152.089844 78.125 L 152.089844 77.5 C 151.027344 77.5 150.652344 77.46875 150.214844 76.875 Z M 147.527344 73.4375 "/>
<path style=" stroke:none;fill-rule:nonzero;fill:rgb(0%,0%,0%);fill-opacity:1;" d="M 158.046875 73.4375 C 158.640625 72.6875 159.390625 71.71875 159.890625 71.1875 C 160.515625 70.46875 161.328125 70.15625 162.265625 70.15625 L 162.265625 69.53125 C 161.734375 69.5625 161.140625 69.59375 160.609375 69.59375 C 160.015625 69.59375 158.953125 69.5625 158.703125 69.53125 L 158.703125 70.15625 C 159.140625 70.1875 159.296875 70.4375 159.296875 70.78125 C 159.296875 71.09375 159.078125 71.34375 158.984375 71.46875 L 157.765625 73.03125 L 156.203125 71 C 156.015625 70.8125 156.015625 70.78125 156.015625 70.65625 C 156.015625 70.34375 156.328125 70.15625 156.703125 70.15625 L 156.703125 69.53125 C 156.203125 69.5625 154.890625 69.59375 154.546875 69.59375 C 154.140625 69.59375 153.203125 69.5625 152.671875 69.53125 L 152.671875 70.15625 C 154.078125 70.15625 154.078125 70.15625 155.015625 71.375 L 156.984375 73.9375 L 155.109375 76.3125 C 154.171875 77.46875 152.984375 77.5 152.578125 77.5 L 152.578125 78.125 C 153.078125 78.09375 153.703125 78.0625 154.234375 78.0625 C 154.796875 78.0625 155.640625 78.09375 156.109375 78.125 L 156.109375 77.5 C 155.671875 77.4375 155.546875 77.1875 155.546875 76.875 C 155.546875 76.4375 156.109375 75.78125 157.328125 74.34375 L 158.859375 76.34375 C 159.015625 76.5625 159.265625 76.875 159.265625 77 C 159.265625 77.1875 159.078125 77.5 158.546875 77.5 L 158.546875 78.125 C 159.140625 78.09375 160.265625 78.0625 160.703125 78.0625 C 161.234375 78.0625 162.015625 78.09375 162.609375 78.125 L 162.609375 77.5 C 161.546875 77.5 161.171875 77.46875 160.734375 76.875 Z M 158.046875 73.4375 "/>
<path style=" stroke:none;fill-rule:nonzero;fill:rgb(0%,0%,0%);fill-opacity:1;" d="M 168.5625 73.4375 C 169.15625 72.6875 169.90625 71.71875 170.40625 71.1875 C 171.03125 70.46875 171.84375 70.15625 172.78125 70.15625 L 172.78125 69.53125 C 172.25 69.5625 171.65625 69.59375 171.125 69.59375 C 170.53125 69.59375 169.46875 69.5625 169.21875 69.53125 L 169.21875 70.15625 C 169.65625 70.1875 169.8125 70.4375 169.8125 70.78125 C 169.8125 71.09375 169.59375 71.34375 169.5 71.46875 L 168.28125 73.03125 L 166.71875 71 C 166.53125 70.8125 166.53125 70.78125 166.53125 70.65625 C 166.53125 70.34375 166.84375 70.15625 167.21875 70.15625 L 167.21875 69.53125 C 166.71875 69.5625 165.40625 69.59375 165.0625 69.59375 C 164.65625 69.59375 163.71875 69.5625 163.1875 69.53125 L 163.1875 70.15625 C 164.59375 70.15625 164.59375 70.15625 165.53125 71.375 L 167.5 73.9375 L 165.625 76.3125 C 164.6875 77.46875 163.5 77.5 163.09375 77.5 L 163.09375 78.125 C 163.59375 78.09375 164.21875 78.0625 164.75 78.0625 C 165.3125 78.0625 166.15625 78.09375 166.625 78.125 L 166.625 77.5 C 166.1875 77.4375 166.0625 77.1875 166.0625 76.875 C 166.0625 76.4375 166.625 75.78125 167.84375 74.34375 L 169.375 76.34375 C 169.53125 76.5625 169.78125 76.875 169.78125 77 C 169.78125 77.1875 169.59375 77.5 169.0625 77.5 L 169.0625 78.125 C 169.65625 78.09375 170.78125 78.0625 171.21875 78.0625 C 171.75 78.0625 172.53125 78.09375 173.125 78.125 L 173.125 77.5 C 172.0625 77.5 171.6875 77.46875 171.25 76.875 Z M 168.5625 73.4375 "/>
<path style=" stroke:none;fill-rule:nonzero;fill:rgb(0%,0%,0%);fill-opacity:1;" d="M 179.078125 73.4375 C 179.671875 72.6875 180.421875 71.71875 180.921875 71.1875 C 181.546875 70.46875 182.359375 70.15625 183.296875 70.15625 L 183.296875 69.53125 C 182.765625 69.5625 182.171875 69.59375 181.640625 69.59375 C 181.046875 69.59375 179.984375 69.5625 179.734375 69.53125 L 179.734375 70.15625 C 180.171875 70.1875 180.328125 70.4375 180.328125 70.78125 C 180.328125 71.09375 180.109375 71.34375 180.015625 71.46875 L 178.796875 73.03125 L 177.234375 71 C 177.046875 70.8125 177.046875 70.78125 177.046875 70.65625 C 177.046875 70.34375 177.359375 70.15625 177.734375 70.15625 L 177.734375 69.53125 C 177.234375 69.5625 175.921875 69.59375 175.578125 69.59375 C 175.171875 69.59375 174.234375 69.5625 173.703125 69.53125 L 173.703125 70.15625 C 175.109375 70.15625 175.109375 70.15625 176.046875 71.375 L 178.015625 73.9375 L 176.140625 76.3125 C 175.203125 77.46875 174.015625 77.5 173.609375 77.5 L 173.609375 78.125 C 174.109375 78.09375 174.734375 78.0625 175.265625 78.0625 C 175.828125 78.0625 176.671875 78.09375 177.140625 78.125 L 177.140625 77.5 C 176.703125 77.4375 176.578125 77.1875 176.578125 76.875 C 176.578125 76.4375 177.140625 75.78125 178.359375 74.34375 L 179.890625 76.34375 C 180.046875 76.5625 180.296875 76.875 180.296875 77 C 180.296875 77.1875 180.109375 77.5 179.578125 77.5 L 179.578125 78.125 C 180.171875 78.09375 181.296875 78.0625 181.734375 78.0625 C 182.265625 78.0625 183.046875 78.09375 183.640625 78.125 L 183.640625 77.5 C 182.578125 77.5 182.203125 77.46875 181.765625 76.875 Z M 179.078125 73.4375 "/>
<path style=" stroke:none;fill-rule:nonzero;fill:rgb(0%,0%,0%);fill-opacity:1;" d="M 189.59375 73.4375 C 190.1875 72.6875 190.9375 71.71875 191.4375 71.1875 C 192.0625 70.46875 192.875 70.15625 193.8125 70.15625 L 193.8125 69.53125 C 193.28125 69.5625 192.6875 69.59375 192.15625 69.59375 C 191.5625 69.59375 190.5 69.5625 190.25 69.53125 L 190.25 70.15625 C 190.6875 70.1875 190.84375 70.4375 190.84375 70.78125 C 190.84375 71.09375 190.625 71.34375 190.53125 71.46875 L 189.3125 73.03125 L 187.75 71 C 187.5625 70.8125 187.5625 70.78125 187.5625 70.65625 C 187.5625 70.34375 187.875 70.15625 188.25 70.15625 L 188.25 69.53125 C 187.75 69.5625 186.4375 69.59375 186.09375 69.59375 C 185.6875 69.59375 184.75 69.5625 184.21875 69.53125 L 184.21875 70.15625 C 185.625 70.15625 185.625 70.15625 186.5625 71.375 L 188.53125 73.9375 L 186.65625 76.3125 C 185.71875 77.46875 184.53125 77.5 184.125 77.5 L 184.125 78.125 C 184.625 78.09375 185.25 78.0625 185.78125 78.0625 C 186.34375 78.0625 187.1875 78.09375 187.65625 78.125 L 187.65625 77.5 C 187.21875 77.4375 187.09375 77.1875 187.09375 76.875 C 187.09375 76.4375 187.65625 75.78125 188.875 74.34375 L 190.40625 76.34375 C 190.5625 76.5625 190.8125 76.875 190.8125 77 C 190.8125 77.1875 190.625 77.5 190.09375 77.5 L 190.09375 78.125 C 190.6875 78.09375 191.8125 78.0625 192.25 78.0625 C 192.78125 78.0625 193.5625 78.09375 194.15625 78.125 L 194.15625 77.5 C 193.09375 77.5 192.71875 77.46875 192.28125 76.875 Z M 189.59375 73.4375 "/>
<path style="fill:none;stroke-width:0.566929;stroke-linecap:butt;stroke-linejoin:miter;stroke:rgb(100%,0%,0%);stroke-opacity:0.5;stroke-miterlimit:10;" d="M 98.556825 31.180979 L 104.226747 25.511057 " transform="matrix(2,0,0,2,5.952756,6.169291)"/>
<path style="fill:none;stroke-width:0.566929;stroke-linecap:butt;stroke-linejoin:miter;stroke:rgb(100%,0%,0%);stroke-opacity:0.5;stroke-miterlimit:10;" d="M 104.226747 31.180979 L 98.556825 25.511057 " transform="matrix(2,0,0,2,5.952756,6.169291)"/>
<path style="fill:none;stroke-width:0.566929;stroke-linecap:butt;stroke-linejoin:miter;stroke:rgb(100%,0%,0%);stroke-opacity:0.5;stroke-miterlimit:10;" d="M 101.39081 56.692698 L 101.39081 28.346995 Z M 101.39081 56.692698 " transform="matrix(2,0,0,2,5.952756,6.169291)"/>
<path style="fill:none;stroke-width:0.566929;stroke-linecap:butt;stroke-linejoin:miter;stroke:rgb(100%,0%,0%);stroke-opacity:0.5;stroke-miterlimit:10;" d="M 6.857606 59.526682 L 12.525575 53.858714 " transform="matrix(2,0,0,2,5.952756,6.169291)"/>
<path style="fill:none;stroke-width:0.566929;stroke-linecap:butt;stroke-linejoin:miter;stroke:rgb(100%,0%,0%);stroke-opacity:0.5;stroke-miterlimit:10;" d="M 12.525575 59.526682 L 6.857606 53.858714 " transform="matrix(2,0,0,2,5.952756,6.169291)"/>
<path style="fill-rule:nonzero;fill:rgb(50%,50%,0%);fill-opacity:0.1;stroke-width:0.566929;stroke-linecap:butt;stroke-linejoin:miter;stroke:rgb(100%,0%,0%);stroke-opacity:0.5;stroke-miterlimit:10;" d="M 0.000184547 67.940745 L 19.382997 67.940745 L 19.382997 56.692698 L 0.000184547 56.692698 Z M 0.000184547 67.940745 " transform="matrix(2,0,0,2,5.952756,6.169291)"/>
<path style="fill:none;stroke-width:0.566929;stroke-linecap:butt;stroke-linejoin:miter;stroke:rgb(100%,0%,0%);stroke-opacity:0.5;stroke-miterlimit:10;" d="M 0.000184547 67.83137 L 5.670106 62.161448 " transform="matrix(2,0,0,2,5.952756,6.169291)"/>
<path style="fill:none;stroke-width:0.566929;stroke-linecap:butt;stroke-linejoin:miter;stroke:rgb(100%,0%,0%);stroke-opacity:0.5;stroke-miterlimit:10;" d="M 5.670106 67.83137 L 0.000184547 62.161448 " transform="matrix(2,0,0,2,5.952756,6.169291)"/>
<path style="fill-rule:nonzero;fill:rgb(50%,50%,0%);fill-opacity:0.1;stroke-width:0.566929;stroke-linecap:butt;stroke-linejoin:miter;stroke:rgb(100%,0%,0%);stroke-opacity:0.5;stroke-miterlimit:10;" d="M 0.000184547 67.940745 L 19.382997 67.940745 L 19.382997 56.692698 L 0.000184547 56.692698 Z M 0.000184547 67.940745 " transform="matrix(2,0,0,2,5.952756,6.169291)"/>
<path style="fill:none;stroke-width:0.566929;stroke-linecap:butt;stroke-linejoin:miter;stroke:rgb(100%,0%,0%);stroke-opacity:0.5;stroke-miterlimit:10;" d="M 0.000184547 67.83137 L 5.670106 62.161448 " transform="matrix(2,0,0,2,5.952756,6.169291)"/>
<path style="fill:none;stroke-width:0.566929;stroke-linecap:butt;stroke-linejoin:miter;stroke:rgb(100%,0%,0%);stroke-opacity:0.5;stroke-miterlimit:10;" d="M 5.670106 67.83137 L 0.000184547 62.161448 " transform="matrix(2,0,0,2,5.952756,6.169291)"/>
<path style="fill-rule:nonzero;fill:rgb(50%,50%,0%);fill-opacity:0.1;stroke-width:0.566929;stroke-linecap:butt;stroke-linejoin:miter;stroke:rgb(100%,0%,0%);stroke-opacity:0.5;stroke-miterlimit:10;" d="M 2.834169 65.104807 L 16.549013 65.104807 L 16.549013 59.526682 L 2.834169 59.526682 Z M 2.834169 65.104807 " transform="matrix(2,0,0,2,5.952756,6.169291)"/>
<path style=" stroke:none;fill-rule:nonzero;fill:rgb(0%,0%,0%);fill-opacity:1;" d="M 14.277344 130.128906 C 14.402344 127.160156 16.089844 126.660156 16.777344 126.660156 C 18.808594 126.660156 19.027344 129.347656 19.027344 130.128906 Z M 14.277344 130.566406 L 19.839844 130.566406 C 20.277344 130.566406 20.339844 130.566406 20.339844 130.128906 C 20.339844 128.160156 19.246094 126.222656 16.777344 126.222656 C 14.464844 126.222656 12.621094 128.285156 12.621094 130.785156 C 12.621094 133.441406 14.714844 135.378906 16.996094 135.378906 C 19.433594 135.378906 20.339844 133.160156 20.339844 132.785156 C 20.339844 132.597656 20.183594 132.535156 20.058594 132.535156 C 19.902344 132.535156 19.839844 132.660156 19.808594 132.816406 C 19.121094 134.878906 17.308594 134.878906 17.121094 134.878906 C 16.121094 134.878906 15.339844 134.285156 14.871094 133.535156 C 14.277344 132.597656 14.277344 131.285156 14.277344 130.566406 Z M 14.277344 130.566406 "/>
<path style=" stroke:none;fill-rule:nonzero;fill:rgb(0%,0%,0%);fill-opacity:1;" d="M 23.132812 130.128906 C 23.257812 127.160156 24.945312 126.660156 25.632812 126.660156 C 27.664062 126.660156 27.882812 129.347656 27.882812 130.128906 Z M 23.132812 130.566406 L 28.695312 130.566406 C 29.132812 130.566406 29.195312 130.566406 29.195312 130.128906 C 29.195312 128.160156 28.101562 126.222656 25.632812 126.222656 C 23.320312 126.222656 21.476562 128.285156 21.476562 130.785156 C 21.476562 133.441406 23.570312 135.378906 25.851562 135.378906 C 28.289062 135.378906 29.195312 133.160156 29.195312 132.785156 C 29.195312 132.597656 29.039062 132.535156 28.914062 132.535156 C 28.757812 132.535156 28.695312 132.660156 28.664062 132.816406 C 27.976562 134.878906 26.164062 134.878906 25.976562 134.878906 C 24.976562 134.878906 24.195312 134.285156 23.726562 133.535156 C 23.132812 132.597656 23.132812 131.285156 23.132812 130.566406 Z M 23.132812 130.566406 "/>
<path style=" stroke:none;fill-rule:nonzero;fill:rgb(0%,0%,0%);fill-opacity:1;" d="M 31.988281 130.128906 C 32.113281 127.160156 33.800781 126.660156 34.488281 126.660156 C 36.519531 126.660156 36.738281 129.347656 36.738281 130.128906 Z M 31.988281 130.566406 L 37.550781 130.566406 C 37.988281 130.566406 38.050781 130.566406 38.050781 130.128906 C 38.050781 128.160156 36.957031 126.222656 34.488281 126.222656 C 32.175781 126.222656 30.332031 128.285156 30.332031 130.785156 C 30.332031 133.441406 32.425781 135.378906 34.707031 135.378906 C 37.144531 135.378906 38.050781 133.160156 38.050781 132.785156 C 38.050781 132.597656 37.894531 132.535156 37.769531 132.535156 C 37.613281 132.535156 37.550781 132.660156 37.519531 132.816406 C 36.832031 134.878906 35.019531 134.878906 34.832031 134.878906 C 33.832031 134.878906 33.050781 134.285156 32.582031 133.535156 C 31.988281 132.597656 31.988281 131.285156 31.988281 130.566406 Z M 31.988281 130.566406 "/>
<path style="fill:none;stroke-width:0.566929;stroke-linecap:butt;stroke-linejoin:miter;stroke:rgb(100%,0%,0%);stroke-opacity:0.5;stroke-miterlimit:10;" d="M 34.60956 59.526682 L 40.279481 53.858714 " transform="matrix(2,0,0,2,5.952756,6.169291)"/>
<path style="fill:none;stroke-width:0.566929;stroke-linecap:butt;stroke-linejoin:miter;stroke:rgb(100%,0%,0%);stroke-opacity:0.5;stroke-miterlimit:10;" d="M 40.279481 59.526682 L 34.60956 53.858714 " transform="matrix(2,0,0,2,5.952756,6.169291)"/>
<path style="fill-rule:nonzero;fill:rgb(50%,50%,0%);fill-opacity:0.1;stroke-width:0.566929;stroke-linecap:butt;stroke-linejoin:miter;stroke:rgb(100%,0%,0%);stroke-opacity:0.5;stroke-miterlimit:10;" d="M 19.382997 69.92512 L 55.506044 69.92512 L 55.506044 56.692698 L 19.382997 56.692698 Z M 19.382997 69.92512 " transform="matrix(2,0,0,2,5.952756,6.169291)"/>
<path style="fill:none;stroke-width:0.566929;stroke-linecap:butt;stroke-linejoin:miter;stroke:rgb(100%,0%,0%);stroke-opacity:0.5;stroke-miterlimit:10;" d="M 19.382997 67.878245 L 25.052919 62.208323 " transform="matrix(2,0,0,2,5.952756,6.169291)"/>
<path style="fill:none;stroke-width:0.566929;stroke-linecap:butt;stroke-linejoin:miter;stroke:rgb(100%,0%,0%);stroke-opacity:0.5;stroke-miterlimit:10;" d="M 25.052919 67.878245 L 19.382997 62.208323 " transform="matrix(2,0,0,2,5.952756,6.169291)"/>
<path style="fill-rule:nonzero;fill:rgb(50%,50%,0%);fill-opacity:0.1;stroke-width:0.566929;stroke-linecap:butt;stroke-linejoin:miter;stroke:rgb(100%,0%,0%);stroke-opacity:0.5;stroke-miterlimit:10;" d="M 19.382997 69.92512 L 55.506044 69.92512 L 55.506044 56.692698 L 19.382997 56.692698 Z M 19.382997 69.92512 " transform="matrix(2,0,0,2,5.952756,6.169291)"/>
<path style="fill:none;stroke-width:0.566929;stroke-linecap:butt;stroke-linejoin:miter;stroke:rgb(100%,0%,0%);stroke-opacity:0.5;stroke-miterlimit:10;" d="M 19.382997 67.878245 L 25.052919 62.208323 " transform="matrix(2,0,0,2,5.952756,6.169291)"/>
<path style="fill:none;stroke-width:0.566929;stroke-linecap:butt;stroke-linejoin:miter;stroke:rgb(100%,0%,0%);stroke-opacity:0.5;stroke-miterlimit:10;" d="M 25.052919 67.878245 L 19.382997 62.208323 " transform="matrix(2,0,0,2,5.952756,6.169291)"/>
<path style="fill-rule:nonzero;fill:rgb(50%,50%,0%);fill-opacity:0.1;stroke-width:0.566929;stroke-linecap:butt;stroke-linejoin:miter;stroke:rgb(100%,0%,0%);stroke-opacity:0.5;stroke-miterlimit:10;" d="M 22.218935 67.089182 L 52.67206 67.089182 L 52.67206 59.526682 L 22.218935 59.526682 Z M 22.218935 67.089182 " transform="matrix(2,0,0,2,5.952756,6.169291)"/>
<path style=" stroke:none;fill-rule:nonzero;fill:rgb(0%,0%,0%);fill-opacity:1;" d="M 55.265625 131.816406 C 53.515625 131.816406 53.515625 129.816406 53.515625 129.378906 C 53.515625 128.847656 53.546875 128.191406 53.828125 127.691406 C 53.984375 127.472656 54.453125 126.910156 55.265625 126.910156 C 56.984375 126.910156 56.984375 128.878906 56.984375 129.347656 C 56.984375 129.878906 56.984375 130.535156 56.671875 131.035156 C 56.515625 131.253906 56.046875 131.816406 55.265625 131.816406 Z M 52.953125 132.597656 C 52.953125 132.535156 52.953125 132.066406 53.265625 131.660156 C 54.046875 132.222656 54.890625 132.285156 55.265625 132.285156 C 57.109375 132.285156 58.484375 130.910156 58.484375 129.378906 C 58.484375 128.628906 58.171875 127.910156 57.671875 127.441406 C 58.390625 126.753906 59.109375 126.660156 59.453125 126.660156 C 59.515625 126.660156 59.609375 126.660156 59.671875 126.691406 C 59.453125 126.753906 59.328125 126.972656 59.328125 127.222656 C 59.328125 127.566406 59.609375 127.785156 59.921875 127.785156 C 60.109375 127.785156 60.484375 127.660156 60.484375 127.191406 C 60.484375 126.847656 60.265625 126.222656 59.484375 126.222656 C 59.078125 126.222656 58.203125 126.347656 57.359375 127.160156 C 56.515625 126.503906 55.703125 126.441406 55.265625 126.441406 C 53.390625 126.441406 52.015625 127.816406 52.015625 129.347656 C 52.015625 130.222656 52.453125 130.972656 52.953125 131.410156 C 52.703125 131.691406 52.328125 132.347656 52.328125 133.066406 C 52.328125 133.691406 52.609375 134.441406 53.234375 134.847656 C 52.015625 135.160156 51.390625 136.035156 51.390625 136.816406 C 51.390625 138.253906 53.359375 139.347656 55.796875 139.347656 C 58.140625 139.347656 60.203125 138.347656 60.203125 136.785156 C 60.203125 136.097656 59.953125 135.066406 58.921875 134.503906 C 57.859375 133.972656 56.703125 133.972656 55.484375 133.972656 C 54.984375 133.972656 54.140625 133.972656 53.984375 133.941406 C 53.359375 133.847656 52.953125 133.253906 52.953125 132.597656 Z M 55.828125 138.910156 C 53.796875 138.910156 52.421875 137.878906 52.421875 136.816406 C 52.421875 135.910156 53.171875 135.160156 54.046875 135.128906 L 55.234375 135.128906 C 56.953125 135.128906 59.171875 135.128906 59.171875 136.816406 C 59.171875 137.910156 57.765625 138.910156 55.828125 138.910156 Z M 55.828125 138.910156 "/>
<path style=" stroke:none;fill-rule:nonzero;fill:rgb(0%,0%,0%);fill-opacity:1;" d="M 65.226562 131.816406 C 63.476562 131.816406 63.476562 129.816406 63.476562 129.378906 C 63.476562 128.847656 63.507812 128.191406 63.789062 127.691406 C 63.945312 127.472656 64.414062 126.910156 65.226562 126.910156 C 66.945312 126.910156 66.945312 128.878906 66.945312 129.347656 C 66.945312 129.878906 66.945312 130.535156 66.632812 131.035156 C 66.476562 131.253906 66.007812 131.816406 65.226562 131.816406 Z M 62.914062 132.597656 C 62.914062 132.535156 62.914062 132.066406 63.226562 131.660156 C 64.007812 132.222656 64.851562 132.285156 65.226562 132.285156 C 67.070312 132.285156 68.445312 130.910156 68.445312 129.378906 C 68.445312 128.628906 68.132812 127.910156 67.632812 127.441406 C 68.351562 126.753906 69.070312 126.660156 69.414062 126.660156 C 69.476562 126.660156 69.570312 126.660156 69.632812 126.691406 C 69.414062 126.753906 69.289062 126.972656 69.289062 127.222656 C 69.289062 127.566406 69.570312 127.785156 69.882812 127.785156 C 70.070312 127.785156 70.445312 127.660156 70.445312 127.191406 C 70.445312 126.847656 70.226562 126.222656 69.445312 126.222656 C 69.039062 126.222656 68.164062 126.347656 67.320312 127.160156 C 66.476562 126.503906 65.664062 126.441406 65.226562 126.441406 C 63.351562 126.441406 61.976562 127.816406 61.976562 129.347656 C 61.976562 130.222656 62.414062 130.972656 62.914062 131.410156 C 62.664062 131.691406 62.289062 132.347656 62.289062 133.066406 C 62.289062 133.691406 62.570312 134.441406 63.195312 134.847656 C 61.976562 135.160156 61.351562 136.035156 61.351562 136.816406 C 61.351562 138.253906 63.320312 139.347656 65.757812 139.347656 C 68.101562 139.347656 70.164062 138.347656 70.164062 136.785156 C 70.164062 136.097656 69.914062 135.066406 68.882812 134.503906 C 67.820312 133.972656 66.664062 133.972656 65.445312 133.972656 C 64.945312 133.972656 64.101562 133.972656 63.945312 133.941406 C 63.320312 133.847656 62.914062 133.253906 62.914062 132.597656 Z M 65.789062 138.910156 C 63.757812 138.910156 62.382812 137.878906 62.382812 136.816406 C 62.382812 135.910156 63.132812 135.160156 64.007812 135.128906 L 65.195312 135.128906 C 66.914062 135.128906 69.132812 135.128906 69.132812 136.816406 C 69.132812 137.910156 67.726562 138.910156 65.789062 138.910156 Z M 65.789062 138.910156 "/>
<path style=" stroke:none;fill-rule:nonzero;fill:rgb(0%,0%,0%);fill-opacity:1;" d="M 75.1875 131.816406 C 73.4375 131.816406 73.4375 129.816406 73.4375 129.378906 C 73.4375 128.847656 73.46875 128.191406 73.75 127.691406 C 73.90625 127.472656 74.375 126.910156 75.1875 126.910156 C 76.90625 126.910156 76.90625 128.878906 76.90625 129.347656 C 76.90625 129.878906 76.90625 130.535156 76.59375 131.035156 C 76.4375 131.253906 75.96875 131.816406 75.1875 131.816406 Z M 72.875 132.597656 C 72.875 132.535156 72.875 132.066406 73.1875 131.660156 C 73.96875 132.222656 74.8125 132.285156 75.1875 132.285156 C 77.03125 132.285156 78.40625 130.910156 78.40625 129.378906 C 78.40625 128.628906 78.09375 127.910156 77.59375 127.441406 C 78.3125 126.753906 79.03125 126.660156 79.375 126.660156 C 79.4375 126.660156 79.53125 126.660156 79.59375 126.691406 C 79.375 126.753906 79.25 126.972656 79.25 127.222656 C 79.25 127.566406 79.53125 127.785156 79.84375 127.785156 C 80.03125 127.785156 80.40625 127.660156 80.40625 127.191406 C 80.40625 126.847656 80.1875 126.222656 79.40625 126.222656 C 79 126.222656 78.125 126.347656 77.28125 127.160156 C 76.4375 126.503906 75.625 126.441406 75.1875 126.441406 C 73.3125 126.441406 71.9375 127.816406 71.9375 129.347656 C 71.9375 130.222656 72.375 130.972656 72.875 131.410156 C 72.625 131.691406 72.25 132.347656 72.25 133.066406 C 72.25 133.691406 72.53125 134.441406 73.15625 134.847656 C 71.9375 135.160156 71.3125 136.035156 71.3125 136.816406 C 71.3125 138.253906 73.28125 139.347656 75.71875 139.347656 C 78.0625 139.347656 80.125 138.347656 80.125 136.785156 C 80.125 136.097656 79.875 135.066406 78.84375 134.503906 C 77.78125 133.972656 76.625 133.972656 75.40625 133.972656 C 74.90625 133.972656 74.0625 133.972656 73.90625 133.941406 C 73.28125 133.847656 72.875 133.253906 72.875 132.597656 Z M 75.75 138.910156 C 73.71875 138.910156 72.34375 137.878906 72.34375 136.816406 C 72.34375 135.910156 73.09375 135.160156 73.96875 135.128906 L 75.15625 135.128906 C 76.875 135.128906 79.09375 135.128906 79.09375 136.816406 C 79.09375 137.910156 77.6875 138.910156 75.75 138.910156 Z M 75.75 138.910156 "/>
<path style=" stroke:none;fill-rule:nonzero;fill:rgb(0%,0%,0%);fill-opacity:1;" d="M 85.152344 131.816406 C 83.402344 131.816406 83.402344 129.816406 83.402344 129.378906 C 83.402344 128.847656 83.433594 128.191406 83.714844 127.691406 C 83.871094 127.472656 84.339844 126.910156 85.152344 126.910156 C 86.871094 126.910156 86.871094 128.878906 86.871094 129.347656 C 86.871094 129.878906 86.871094 130.535156 86.558594 131.035156 C 86.402344 131.253906 85.933594 131.816406 85.152344 131.816406 Z M 82.839844 132.597656 C 82.839844 132.535156 82.839844 132.066406 83.152344 131.660156 C 83.933594 132.222656 84.777344 132.285156 85.152344 132.285156 C 86.996094 132.285156 88.371094 130.910156 88.371094 129.378906 C 88.371094 128.628906 88.058594 127.910156 87.558594 127.441406 C 88.277344 126.753906 88.996094 126.660156 89.339844 126.660156 C 89.402344 126.660156 89.496094 126.660156 89.558594 126.691406 C 89.339844 126.753906 89.214844 126.972656 89.214844 127.222656 C 89.214844 127.566406 89.496094 127.785156 89.808594 127.785156 C 89.996094 127.785156 90.371094 127.660156 90.371094 127.191406 C 90.371094 126.847656 90.152344 126.222656 89.371094 126.222656 C 88.964844 126.222656 88.089844 126.347656 87.246094 127.160156 C 86.402344 126.503906 85.589844 126.441406 85.152344 126.441406 C 83.277344 126.441406 81.902344 127.816406 81.902344 129.347656 C 81.902344 130.222656 82.339844 130.972656 82.839844 131.410156 C 82.589844 131.691406 82.214844 132.347656 82.214844 133.066406 C 82.214844 133.691406 82.496094 134.441406 83.121094 134.847656 C 81.902344 135.160156 81.277344 136.035156 81.277344 136.816406 C 81.277344 138.253906 83.246094 139.347656 85.683594 139.347656 C 88.027344 139.347656 90.089844 138.347656 90.089844 136.785156 C 90.089844 136.097656 89.839844 135.066406 88.808594 134.503906 C 87.746094 133.972656 86.589844 133.972656 85.371094 133.972656 C 84.871094 133.972656 84.027344 133.972656 83.871094 133.941406 C 83.246094 133.847656 82.839844 133.253906 82.839844 132.597656 Z M 85.714844 138.910156 C 83.683594 138.910156 82.308594 137.878906 82.308594 136.816406 C 82.308594 135.910156 83.058594 135.160156 83.933594 135.128906 L 85.121094 135.128906 C 86.839844 135.128906 89.058594 135.128906 89.058594 136.816406 C 89.058594 137.910156 87.652344 138.910156 85.714844 138.910156 Z M 85.714844 138.910156 "/>
<path style=" stroke:none;fill-rule:nonzero;fill:rgb(0%,0%,0%);fill-opacity:1;" d="M 95.113281 131.816406 C 93.363281 131.816406 93.363281 129.816406 93.363281 129.378906 C 93.363281 128.847656 93.394531 128.191406 93.675781 127.691406 C 93.832031 127.472656 94.300781 126.910156 95.113281 126.910156 C 96.832031 126.910156 96.832031 128.878906 96.832031 129.347656 C 96.832031 129.878906 96.832031 130.535156 96.519531 131.035156 C 96.363281 131.253906 95.894531 131.816406 95.113281 131.816406 Z M 92.800781 132.597656 C 92.800781 132.535156 92.800781 132.066406 93.113281 131.660156 C 93.894531 132.222656 94.738281 132.285156 95.113281 132.285156 C 96.957031 132.285156 98.332031 130.910156 98.332031 129.378906 C 98.332031 128.628906 98.019531 127.910156 97.519531 127.441406 C 98.238281 126.753906 98.957031 126.660156 99.300781 126.660156 C 99.363281 126.660156 99.457031 126.660156 99.519531 126.691406 C 99.300781 126.753906 99.175781 126.972656 99.175781 127.222656 C 99.175781 127.566406 99.457031 127.785156 99.769531 127.785156 C 99.957031 127.785156 100.332031 127.660156 100.332031 127.191406 C 100.332031 126.847656 100.113281 126.222656 99.332031 126.222656 C 98.925781 126.222656 98.050781 126.347656 97.207031 127.160156 C 96.363281 126.503906 95.550781 126.441406 95.113281 126.441406 C 93.238281 126.441406 91.863281 127.816406 91.863281 129.347656 C 91.863281 130.222656 92.300781 130.972656 92.800781 131.410156 C 92.550781 131.691406 92.175781 132.347656 92.175781 133.066406 C 92.175781 133.691406 92.457031 134.441406 93.082031 134.847656 C 91.863281 135.160156 91.238281 136.035156 91.238281 136.816406 C 91.238281 138.253906 93.207031 139.347656 95.644531 139.347656 C 97.988281 139.347656 100.050781 138.347656 100.050781 136.785156 C 100.050781 136.097656 99.800781 135.066406 98.769531 134.503906 C 97.707031 133.972656 96.550781 133.972656 95.332031 133.972656 C 94.832031 133.972656 93.988281 133.972656 93.832031 133.941406 C 93.207031 133.847656 92.800781 133.253906 92.800781 132.597656 Z M 95.675781 138.910156 C 93.644531 138.910156 92.269531 137.878906 92.269531 136.816406 C 92.269531 135.910156 93.019531 135.160156 93.894531 135.128906 L 95.082031 135.128906 C 96.800781 135.128906 99.019531 135.128906 99.019531 136.816406 C 99.019531 137.910156 97.613281 138.910156 95.675781 138.910156 Z M 95.675781 138.910156 "/>
<path style=" stroke:none;fill-rule:nonzero;fill:rgb(0%,0%,0%);fill-opacity:1;" d="M 105.078125 131.816406 C 103.328125 131.816406 103.328125 129.816406 103.328125 129.378906 C 103.328125 128.847656 103.359375 128.191406 103.640625 127.691406 C 103.796875 127.472656 104.265625 126.910156 105.078125 126.910156 C 106.796875 126.910156 106.796875 128.878906 106.796875 129.347656 C 106.796875 129.878906 106.796875 130.535156 106.484375 131.035156 C 106.328125 131.253906 105.859375 131.816406 105.078125 131.816406 Z M 102.765625 132.597656 C 102.765625 132.535156 102.765625 132.066406 103.078125 131.660156 C 103.859375 132.222656 104.703125 132.285156 105.078125 132.285156 C 106.921875 132.285156 108.296875 130.910156 108.296875 129.378906 C 108.296875 128.628906 107.984375 127.910156 107.484375 127.441406 C 108.203125 126.753906 108.921875 126.660156 109.265625 126.660156 C 109.328125 126.660156 109.421875 126.660156 109.484375 126.691406 C 109.265625 126.753906 109.140625 126.972656 109.140625 127.222656 C 109.140625 127.566406 109.421875 127.785156 109.734375 127.785156 C 109.921875 127.785156 110.296875 127.660156 110.296875 127.191406 C 110.296875 126.847656 110.078125 126.222656 109.296875 126.222656 C 108.890625 126.222656 108.015625 126.347656 107.171875 127.160156 C 106.328125 126.503906 105.515625 126.441406 105.078125 126.441406 C 103.203125 126.441406 101.828125 127.816406 101.828125 129.347656 C 101.828125 130.222656 102.265625 130.972656 102.765625 131.410156 C 102.515625 131.691406 102.140625 132.347656 102.140625 133.066406 C 102.140625 133.691406 102.421875 134.441406 103.046875 134.847656 C 101.828125 135.160156 101.203125 136.035156 101.203125 136.816406 C 101.203125 138.253906 103.171875 139.347656 105.609375 139.347656 C 107.953125 139.347656 110.015625 138.347656 110.015625 136.785156 C 110.015625 136.097656 109.765625 135.066406 108.734375 134.503906 C 107.671875 133.972656 106.515625 133.972656 105.296875 133.972656 C 104.796875 133.972656 103.953125 133.972656 103.796875 133.941406 C 103.171875 133.847656 102.765625 133.253906 102.765625 132.597656 Z M 105.640625 138.910156 C 103.609375 138.910156 102.234375 137.878906 102.234375 136.816406 C 102.234375 135.910156 102.984375 135.160156 103.859375 135.128906 L 105.046875 135.128906 C 106.765625 135.128906 108.984375 135.128906 108.984375 136.816406 C 108.984375 137.910156 107.578125 138.910156 105.640625 138.910156 Z M 105.640625 138.910156 "/>
<path style="fill:none;stroke-width:0.566929;stroke-linecap:butt;stroke-linejoin:miter;stroke:rgb(100%,0%,0%);stroke-opacity:0.5;stroke-miterlimit:10;" d="M 75.613466 59.526682 L 81.283388 53.858714 " transform="matrix(2,0,0,2,5.952756,6.169291)"/>
<path style="fill:none;stroke-width:0.566929;stroke-linecap:butt;stroke-linejoin:miter;stroke:rgb(100%,0%,0%);stroke-opacity:0.5;stroke-miterlimit:10;" d="M 81.283388 59.526682 L 75.613466 53.858714 " transform="matrix(2,0,0,2,5.952756,6.169291)"/>
<path style="fill-rule:nonzero;fill:rgb(50%,50%,0%);fill-opacity:0.1;stroke-width:0.566929;stroke-linecap:butt;stroke-linejoin:miter;stroke:rgb(100%,0%,0%);stroke-opacity:0.5;stroke-miterlimit:10;" d="M 55.506044 67.940745 L 101.39081 67.940745 L 101.39081 56.692698 L 55.506044 56.692698 Z M 55.506044 67.940745 " transform="matrix(2,0,0,2,5.952756,6.169291)"/>
<path style="fill:none;stroke-width:0.566929;stroke-linecap:butt;stroke-linejoin:miter;stroke:rgb(100%,0%,0%);stroke-opacity:0.5;stroke-miterlimit:10;" d="M 55.506044 67.83137 L 61.175966 62.161448 " transform="matrix(2,0,0,2,5.952756,6.169291)"/>
<path style="fill:none;stroke-width:0.566929;stroke-linecap:butt;stroke-linejoin:miter;stroke:rgb(100%,0%,0%);stroke-opacity:0.5;stroke-miterlimit:10;" d="M 61.175966 67.83137 L 55.506044 62.161448 " transform="matrix(2,0,0,2,5.952756,6.169291)"/>
<path style="fill-rule:nonzero;fill:rgb(50%,50%,0%);fill-opacity:0.1;stroke-width:0.566929;stroke-linecap:butt;stroke-linejoin:miter;stroke:rgb(100%,0%,0%);stroke-opacity:0.5;stroke-miterlimit:10;" d="M 55.506044 67.940745 L 101.39081 67.940745 L 101.39081 56.692698 L 55.506044 56.692698 Z M 55.506044 67.940745 " transform="matrix(2,0,0,2,5.952756,6.169291)"/>
<path style="fill:none;stroke-width:0.566929;stroke-linecap:butt;stroke-linejoin:miter;stroke:rgb(100%,0%,0%);stroke-opacity:0.5;stroke-miterlimit:10;" d="M 55.506044 67.83137 L 61.175966 62.161448 " transform="matrix(2,0,0,2,5.952756,6.169291)"/>
<path style="fill:none;stroke-width:0.566929;stroke-linecap:butt;stroke-linejoin:miter;stroke:rgb(100%,0%,0%);stroke-opacity:0.5;stroke-miterlimit:10;" d="M 61.175966 67.83137 L 55.506044 62.161448 " transform="matrix(2,0,0,2,5.952756,6.169291)"/>
<path style="fill-rule:nonzero;fill:rgb(50%,50%,0%);fill-opacity:0.1;stroke-width:0.566929;stroke-linecap:butt;stroke-linejoin:miter;stroke:rgb(100%,0%,0%);stroke-opacity:0.5;stroke-miterlimit:10;" d="M 58.340028 65.104807 L 98.556825 65.104807 L 98.556825 59.526682 L 58.340028 59.526682 Z M 58.340028 65.104807 " transform="matrix(2,0,0,2,5.952756,6.169291)"/>
<path style=" stroke:none;fill-rule:nonzero;fill:rgb(0%,0%,0%);fill-opacity:1;" d="M 125.289062 130.816406 C 125.289062 127.566406 126.914062 126.722656 127.976562 126.722656 C 128.164062 126.722656 129.414062 126.753906 130.101562 127.472656 C 129.289062 127.535156 129.164062 128.128906 129.164062 128.378906 C 129.164062 128.910156 129.539062 129.285156 130.070312 129.285156 C 130.601562 129.285156 131.007812 128.972656 131.007812 128.347656 C 131.007812 127.003906 129.476562 126.222656 127.945312 126.222656 C 125.445312 126.222656 123.632812 128.378906 123.632812 130.847656 C 123.632812 133.410156 125.601562 135.378906 127.914062 135.378906 C 130.570312 135.378906 131.226562 132.972656 131.226562 132.785156 C 131.226562 132.597656 131.007812 132.597656 130.945312 132.597656 C 130.789062 132.597656 130.726562 132.660156 130.695312 132.785156 C 130.132812 134.628906 128.820312 134.878906 128.101562 134.878906 C 127.039062 134.878906 125.289062 134.035156 125.289062 130.816406 Z M 125.289062 130.816406 "/>
<path style=" stroke:none;fill-rule:nonzero;fill:rgb(0%,0%,0%);fill-opacity:1;" d="M 134.144531 130.816406 C 134.144531 127.566406 135.769531 126.722656 136.832031 126.722656 C 137.019531 126.722656 138.269531 126.753906 138.957031 127.472656 C 138.144531 127.535156 138.019531 128.128906 138.019531 128.378906 C 138.019531 128.910156 138.394531 129.285156 138.925781 129.285156 C 139.457031 129.285156 139.863281 128.972656 139.863281 128.347656 C 139.863281 127.003906 138.332031 126.222656 136.800781 126.222656 C 134.300781 126.222656 132.488281 128.378906 132.488281 130.847656 C 132.488281 133.410156 134.457031 135.378906 136.769531 135.378906 C 139.425781 135.378906 140.082031 132.972656 140.082031 132.785156 C 140.082031 132.597656 139.863281 132.597656 139.800781 132.597656 C 139.644531 132.597656 139.582031 132.660156 139.550781 132.785156 C 138.988281 134.628906 137.675781 134.878906 136.957031 134.878906 C 135.894531 134.878906 134.144531 134.035156 134.144531 130.816406 Z M 134.144531 130.816406 "/>
<path style=" stroke:none;fill-rule:nonzero;fill:rgb(0%,0%,0%);fill-opacity:1;" d="M 143 130.816406 C 143 127.566406 144.625 126.722656 145.6875 126.722656 C 145.875 126.722656 147.125 126.753906 147.8125 127.472656 C 147 127.535156 146.875 128.128906 146.875 128.378906 C 146.875 128.910156 147.25 129.285156 147.78125 129.285156 C 148.3125 129.285156 148.71875 128.972656 148.71875 128.347656 C 148.71875 127.003906 147.1875 126.222656 145.65625 126.222656 C 143.15625 126.222656 141.34375 128.378906 141.34375 130.847656 C 141.34375 133.410156 143.3125 135.378906 145.625 135.378906 C 148.28125 135.378906 148.9375 132.972656 148.9375 132.785156 C 148.9375 132.597656 148.71875 132.597656 148.65625 132.597656 C 148.5 132.597656 148.4375 132.660156 148.40625 132.785156 C 147.84375 134.628906 146.53125 134.878906 145.8125 134.878906 C 144.75 134.878906 143 134.035156 143 130.816406 Z M 143 130.816406 "/>
<path style=" stroke:none;fill-rule:nonzero;fill:rgb(0%,0%,0%);fill-opacity:1;" d="M 151.855469 130.816406 C 151.855469 127.566406 153.480469 126.722656 154.542969 126.722656 C 154.730469 126.722656 155.980469 126.753906 156.667969 127.472656 C 155.855469 127.535156 155.730469 128.128906 155.730469 128.378906 C 155.730469 128.910156 156.105469 129.285156 156.636719 129.285156 C 157.167969 129.285156 157.574219 128.972656 157.574219 128.347656 C 157.574219 127.003906 156.042969 126.222656 154.511719 126.222656 C 152.011719 126.222656 150.199219 128.378906 150.199219 130.847656 C 150.199219 133.410156 152.167969 135.378906 154.480469 135.378906 C 157.136719 135.378906 157.792969 132.972656 157.792969 132.785156 C 157.792969 132.597656 157.574219 132.597656 157.511719 132.597656 C 157.355469 132.597656 157.292969 132.660156 157.261719 132.785156 C 156.699219 134.628906 155.386719 134.878906 154.667969 134.878906 C 153.605469 134.878906 151.855469 134.035156 151.855469 130.816406 Z M 151.855469 130.816406 "/>
<path style=" stroke:none;fill-rule:nonzero;fill:rgb(0%,0%,0%);fill-opacity:1;" d="M 160.710938 130.816406 C 160.710938 127.566406 162.335938 126.722656 163.398438 126.722656 C 163.585938 126.722656 164.835938 126.753906 165.523438 127.472656 C 164.710938 127.535156 164.585938 128.128906 164.585938 128.378906 C 164.585938 128.910156 164.960938 129.285156 165.492188 129.285156 C 166.023438 129.285156 166.429688 128.972656 166.429688 128.347656 C 166.429688 127.003906 164.898438 126.222656 163.367188 126.222656 C 160.867188 126.222656 159.054688 128.378906 159.054688 130.847656 C 159.054688 133.410156 161.023438 135.378906 163.335938 135.378906 C 165.992188 135.378906 166.648438 132.972656 166.648438 132.785156 C 166.648438 132.597656 166.429688 132.597656 166.367188 132.597656 C 166.210938 132.597656 166.148438 132.660156 166.117188 132.785156 C 165.554688 134.628906 164.242188 134.878906 163.523438 134.878906 C 162.460938 134.878906 160.710938 134.035156 160.710938 130.816406 Z M 160.710938 130.816406 "/>
<path style=" stroke:none;fill-rule:nonzero;fill:rgb(0%,0%,0%);fill-opacity:1;" d="M 169.5625 130.816406 C 169.5625 127.566406 171.1875 126.722656 172.25 126.722656 C 172.4375 126.722656 173.6875 126.753906 174.375 127.472656 C 173.5625 127.535156 173.4375 128.128906 173.4375 128.378906 C 173.4375 128.910156 173.8125 129.285156 174.34375 129.285156 C 174.875 129.285156 175.28125 128.972656 175.28125 128.347656 C 175.28125 127.003906 173.75 126.222656 172.21875 126.222656 C 169.71875 126.222656 167.90625 128.378906 167.90625 130.847656 C 167.90625 133.410156 169.875 135.378906 172.1875 135.378906 C 174.84375 135.378906 175.5 132.972656 175.5 132.785156 C 175.5 132.597656 175.28125 132.597656 175.21875 132.597656 C 175.0625 132.597656 175 132.660156 174.96875 132.785156 C 174.40625 134.628906 173.09375 134.878906 172.375 134.878906 C 171.3125 134.878906 169.5625 134.035156 169.5625 130.816406 Z M 169.5625 130.816406 "/>
<path style=" stroke:none;fill-rule:nonzero;fill:rgb(0%,0%,0%);fill-opacity:1;" d="M 178.417969 130.816406 C 178.417969 127.566406 180.042969 126.722656 181.105469 126.722656 C 181.292969 126.722656 182.542969 126.753906 183.230469 127.472656 C 182.417969 127.535156 182.292969 128.128906 182.292969 128.378906 C 182.292969 128.910156 182.667969 129.285156 183.199219 129.285156 C 183.730469 129.285156 184.136719 128.972656 184.136719 128.347656 C 184.136719 127.003906 182.605469 126.222656 181.074219 126.222656 C 178.574219 126.222656 176.761719 128.378906 176.761719 130.847656 C 176.761719 133.410156 178.730469 135.378906 181.042969 135.378906 C 183.699219 135.378906 184.355469 132.972656 184.355469 132.785156 C 184.355469 132.597656 184.136719 132.597656 184.074219 132.597656 C 183.917969 132.597656 183.855469 132.660156 183.824219 132.785156 C 183.261719 134.628906 181.949219 134.878906 181.230469 134.878906 C 180.167969 134.878906 178.417969 134.035156 178.417969 130.816406 Z M 178.417969 130.816406 "/>
<path style=" stroke:none;fill-rule:nonzero;fill:rgb(0%,0%,0%);fill-opacity:1;" d="M 187.273438 130.816406 C 187.273438 127.566406 188.898438 126.722656 189.960938 126.722656 C 190.148438 126.722656 191.398438 126.753906 192.085938 127.472656 C 191.273438 127.535156 191.148438 128.128906 191.148438 128.378906 C 191.148438 128.910156 191.523438 129.285156 192.054688 129.285156 C 192.585938 129.285156 192.992188 128.972656 192.992188 128.347656 C 192.992188 127.003906 191.460938 126.222656 189.929688 126.222656 C 187.429688 126.222656 185.617188 128.378906 185.617188 130.847656 C 185.617188 133.410156 187.585938 135.378906 189.898438 135.378906 C 192.554688 135.378906 193.210938 132.972656 193.210938 132.785156 C 193.210938 132.597656 192.992188 132.597656 192.929688 132.597656 C 192.773438 132.597656 192.710938 132.660156 192.679688 132.785156 C 192.117188 134.628906 190.804688 134.878906 190.085938 134.878906 C 189.023438 134.878906 187.273438 134.035156 187.273438 130.816406 Z M 187.273438 130.816406 "/>
<path style=" stroke:none;fill-rule:nonzero;fill:rgb(0%,0%,0%);fill-opacity:1;" d="M 196.128906 130.816406 C 196.128906 127.566406 197.753906 126.722656 198.816406 126.722656 C 199.003906 126.722656 200.253906 126.753906 200.941406 127.472656 C 200.128906 127.535156 200.003906 128.128906 200.003906 128.378906 C 200.003906 128.910156 200.378906 129.285156 200.910156 129.285156 C 201.441406 129.285156 201.847656 128.972656 201.847656 128.347656 C 201.847656 127.003906 200.316406 126.222656 198.785156 126.222656 C 196.285156 126.222656 194.472656 128.378906 194.472656 130.847656 C 194.472656 133.410156 196.441406 135.378906 198.753906 135.378906 C 201.410156 135.378906 202.066406 132.972656 202.066406 132.785156 C 202.066406 132.597656 201.847656 132.597656 201.785156 132.597656 C 201.628906 132.597656 201.566406 132.660156 201.535156 132.785156 C 200.972656 134.628906 199.660156 134.878906 198.941406 134.878906 C 197.878906 134.878906 196.128906 134.035156 196.128906 130.816406 Z M 196.128906 130.816406 "/>
<path style="fill:none;stroke-width:0.566929;stroke-linecap:butt;stroke-linejoin:miter;stroke:rgb(100%,0%,0%);stroke-opacity:0.5;stroke-miterlimit:10;" d="M 98.556825 59.526682 L 104.226747 53.858714 " transform="matrix(2,0,0,2,5.952756,6.169291)"/>
<path style="fill:none;stroke-width:0.566929;stroke-linecap:butt;stroke-linejoin:miter;stroke:rgb(100%,0%,0%);stroke-opacity:0.5;stroke-miterlimit:10;" d="M 104.226747 59.526682 L 98.556825 53.858714 " transform="matrix(2,0,0,2,5.952756,6.169291)"/>
<path style="fill:none;stroke-width:0.566929;stroke-linecap:butt;stroke-linejoin:miter;stroke:rgb(100%,0%,0%);stroke-opacity:0.5;stroke-miterlimit:10;" d="M 101.39081 85.038401 L 101.39081 56.692698 Z M 101.39081 85.038401 " transform="matrix(2,0,0,2,5.952756,6.169291)"/>
</g>
</svg>
