<?xml version="1.0" encoding="UTF-8"?>
<svg xmlns="http://www.w3.org/2000/svg" xmlns:xlink="http://www.w3.org/1999/xlink" width="390.243412pt" height="248.444912pt" viewBox="0 0 390.243412 248.444912" version="1.1">
<g id="surface77">
<path style="fill:none;stroke-width:0.566929;stroke-linecap:butt;stroke-linejoin:miter;stroke:rgb(100%,0%,0%);stroke-opacity:0.5;stroke-miterlimit:10;" d="M -2.834646 2.835276 L 2.835276 -2.834646 " transform="matrix(2,0,0,2,5.669291,5.669291)"/>
<path style="fill:none;stroke-width:0.566929;stroke-linecap:butt;stroke-linejoin:miter;stroke:rgb(100%,0%,0%);stroke-opacity:0.5;stroke-miterlimit:10;" d="M 2.835276 2.835276 L -2.834646 -2.834646 " transform="matrix(2,0,0,2,5.669291,5.669291)"/>
<path style="fill-rule:nonzero;fill:rgb(50%,50%,0%);fill-opacity:0.1;stroke-width:0.566929;stroke-linecap:butt;stroke-linejoin:miter;stroke:rgb(100%,0%,0%);stroke-opacity:0.5;stroke-miterlimit:10;" d="M -0.000661294 121.388011 L 192.286448 121.388011 L 192.286448 -0.000661294 L -0.000661294 -0.000661294 Z M -0.000661294 121.388011 " transform="matrix(2,0,0,2,5.669291,5.669291)"/>
<path style="fill:none;stroke-width:0.566929;stroke-linecap:butt;stroke-linejoin:miter;stroke:rgb(100%,0%,0%);stroke-opacity:0.5;stroke-miterlimit:10;" d="M -2.834646 37.460276 L 2.835276 31.790354 " transform="matrix(2,0,0,2,5.669291,5.669291)"/>
<path style="fill:none;stroke-width:0.566929;stroke-linecap:butt;stroke-linejoin:miter;stroke:rgb(100%,0%,0%);stroke-opacity:0.5;stroke-miterlimit:10;" d="M 2.835276 37.460276 L -2.834646 31.790354 " transform="matrix(2,0,0,2,5.669291,5.669291)"/>
<path style="fill-rule:nonzero;fill:rgb(50%,50%,0%);fill-opacity:0.1;stroke-width:0.566929;stroke-linecap:butt;stroke-linejoin:miter;stroke:rgb(100%,0%,0%);stroke-opacity:0.5;stroke-miterlimit:10;" d="M -0.000661294 56.888011 L 192.286448 56.888011 L 192.286448 -0.000661294 L -0.000661294 -0.000661294 Z M -0.000661294 56.888011 " transform="matrix(2,0,0,2,5.669291,5.669291)"/>
<path style="fill:none;stroke-width:0.566929;stroke-linecap:butt;stroke-linejoin:miter;stroke:rgb(100%,0%,0%);stroke-opacity:0.5;stroke-miterlimit:10;" d="M 47.249339 37.460276 L 52.919261 31.790354 " transform="matrix(2,0,0,2,5.669291,5.669291)"/>
<path style="fill:none;stroke-width:0.566929;stroke-linecap:butt;stroke-linejoin:miter;stroke:rgb(100%,0%,0%);stroke-opacity:0.5;stroke-miterlimit:10;" d="M 52.919261 37.460276 L 47.249339 31.790354 " transform="matrix(2,0,0,2,5.669291,5.669291)"/>
<path style="fill-rule:nonzero;fill:rgb(50%,50%,0%);fill-opacity:0.1;stroke-width:0.566929;stroke-linecap:butt;stroke-linejoin:miter;stroke:rgb(100%,0%,0%);stroke-opacity:0.5;stroke-miterlimit:10;" d="M -0.000661294 56.888011 L 65.501292 56.888011 L 65.501292 16.511057 L -0.000661294 16.511057 Z M -0.000661294 56.888011 " transform="matrix(2,0,0,2,5.669291,5.669291)"/>
<path style="fill:none;stroke-width:0.566929;stroke-linecap:butt;stroke-linejoin:miter;stroke:rgb(100%,0%,0%);stroke-opacity:0.5;stroke-miterlimit:10;" d="M 117.704417 37.460276 L 123.374339 31.790354 " transform="matrix(2,0,0,2,5.669291,5.669291)"/>
<path style="fill:none;stroke-width:0.566929;stroke-linecap:butt;stroke-linejoin:miter;stroke:rgb(100%,0%,0%);stroke-opacity:0.5;stroke-miterlimit:10;" d="M 123.374339 37.460276 L 117.704417 31.790354 " transform="matrix(2,0,0,2,5.669291,5.669291)"/>
<path style="fill-rule:nonzero;fill:rgb(50%,50%,0%);fill-opacity:0.1;stroke-width:0.566929;stroke-linecap:butt;stroke-linejoin:miter;stroke:rgb(100%,0%,0%);stroke-opacity:0.5;stroke-miterlimit:10;" d="M 65.501292 52.470042 L 167.188792 52.470042 L 167.188792 -0.000661294 L 65.501292 -0.000661294 Z M 65.501292 52.470042 " transform="matrix(2,0,0,2,5.669291,5.669291)"/>
<path style="fill:none;stroke-width:0.566929;stroke-linecap:butt;stroke-linejoin:miter;stroke:rgb(100%,0%,0%);stroke-opacity:0.5;stroke-miterlimit:10;" d="M 164.354807 37.460276 L 170.024729 31.790354 " transform="matrix(2,0,0,2,5.669291,5.669291)"/>
<path style="fill:none;stroke-width:0.566929;stroke-linecap:butt;stroke-linejoin:miter;stroke:rgb(100%,0%,0%);stroke-opacity:0.5;stroke-miterlimit:10;" d="M 170.024729 37.460276 L 164.354807 31.790354 " transform="matrix(2,0,0,2,5.669291,5.669291)"/>
<path style="fill-rule:nonzero;fill:rgb(50%,50%,0%);fill-opacity:0.1;stroke-width:0.566929;stroke-linecap:butt;stroke-linejoin:miter;stroke:rgb(100%,0%,0%);stroke-opacity:0.5;stroke-miterlimit:10;" d="M 167.188792 36.673167 L 192.286448 36.673167 L 192.286448 27.485667 L 167.188792 27.485667 Z M 167.188792 36.673167 " transform="matrix(2,0,0,2,5.669291,5.669291)"/>
<path style=" stroke:none;fill-rule:nonzero;fill:rgb(0%,0%,0%);fill-opacity:1;" d="M 351.609375 62.859375 C 351.609375 62.140625 351.640625 61.921875 353.171875 61.921875 L 353.671875 61.921875 L 353.671875 61.296875 C 352.953125 61.359375 351.484375 61.359375 350.734375 61.359375 C 349.984375 61.359375 348.484375 61.359375 347.796875 61.296875 L 347.796875 61.921875 L 348.265625 61.921875 C 349.796875 61.921875 349.828125 62.140625 349.828125 62.859375 L 349.828125 67.515625 L 343.890625 67.515625 L 343.890625 62.859375 C 343.890625 62.140625 343.921875 61.921875 345.453125 61.921875 L 345.921875 61.921875 L 345.921875 61.296875 C 345.234375 61.359375 343.765625 61.359375 342.984375 61.359375 C 342.234375 61.359375 340.734375 61.359375 340.046875 61.296875 L 340.046875 61.921875 L 340.515625 61.921875 C 342.046875 61.921875 342.109375 62.140625 342.109375 62.859375 L 342.109375 73.359375 C 342.109375 74.078125 342.046875 74.296875 340.515625 74.296875 L 340.046875 74.296875 L 340.046875 74.921875 C 340.734375 74.859375 342.234375 74.859375 342.984375 74.859375 C 343.734375 74.859375 345.234375 74.859375 345.921875 74.921875 L 345.921875 74.296875 L 345.453125 74.296875 C 343.921875 74.296875 343.890625 74.078125 343.890625 73.359375 L 343.890625 68.140625 L 349.828125 68.140625 L 349.828125 73.359375 C 349.828125 74.078125 349.796875 74.296875 348.265625 74.296875 L 347.796875 74.296875 L 347.796875 74.921875 C 348.484375 74.859375 349.953125 74.859375 350.703125 74.859375 C 351.484375 74.859375 352.953125 74.859375 353.671875 74.921875 L 353.671875 74.296875 L 353.171875 74.296875 C 351.640625 74.296875 351.609375 74.078125 351.609375 73.359375 Z M 351.609375 62.859375 "/>
<path style=" stroke:none;fill-rule:nonzero;fill:rgb(0%,0%,0%);fill-opacity:1;" d="M 357.867188 66.109375 L 355.085938 66.328125 L 355.085938 66.953125 C 356.367188 66.953125 356.554688 67.078125 356.554688 68.046875 L 356.554688 73.421875 C 356.554688 74.296875 356.335938 74.296875 354.992188 74.296875 L 354.992188 74.921875 C 355.617188 74.890625 356.710938 74.859375 357.179688 74.859375 C 357.898438 74.859375 358.585938 74.890625 359.273438 74.921875 L 359.273438 74.296875 C 357.929688 74.296875 357.867188 74.203125 357.867188 73.421875 Z M 357.929688 62.640625 C 357.929688 62.015625 357.460938 61.578125 356.898438 61.578125 C 356.273438 61.578125 355.835938 62.109375 355.835938 62.640625 C 355.835938 63.171875 356.273438 63.703125 356.898438 63.703125 C 357.460938 63.703125 357.929688 63.265625 357.929688 62.640625 Z M 357.929688 62.640625 "/>
<path style=" stroke:none;fill-rule:nonzero;fill:rgb(0%,0%,0%);fill-opacity:1;" d="M 364.308594 71.484375 C 362.558594 71.484375 362.558594 69.484375 362.558594 69.046875 C 362.558594 68.515625 362.589844 67.859375 362.871094 67.359375 C 363.027344 67.140625 363.496094 66.578125 364.308594 66.578125 C 366.027344 66.578125 366.027344 68.546875 366.027344 69.015625 C 366.027344 69.546875 366.027344 70.203125 365.714844 70.703125 C 365.558594 70.921875 365.089844 71.484375 364.308594 71.484375 Z M 361.996094 72.265625 C 361.996094 72.203125 361.996094 71.734375 362.308594 71.328125 C 363.089844 71.890625 363.933594 71.953125 364.308594 71.953125 C 366.152344 71.953125 367.527344 70.578125 367.527344 69.046875 C 367.527344 68.296875 367.214844 67.578125 366.714844 67.109375 C 367.433594 66.421875 368.152344 66.328125 368.496094 66.328125 C 368.558594 66.328125 368.652344 66.328125 368.714844 66.359375 C 368.496094 66.421875 368.371094 66.640625 368.371094 66.890625 C 368.371094 67.234375 368.652344 67.453125 368.964844 67.453125 C 369.152344 67.453125 369.527344 67.328125 369.527344 66.859375 C 369.527344 66.515625 369.308594 65.890625 368.527344 65.890625 C 368.121094 65.890625 367.246094 66.015625 366.402344 66.828125 C 365.558594 66.171875 364.746094 66.109375 364.308594 66.109375 C 362.433594 66.109375 361.058594 67.484375 361.058594 69.015625 C 361.058594 69.890625 361.496094 70.640625 361.996094 71.078125 C 361.746094 71.359375 361.371094 72.015625 361.371094 72.734375 C 361.371094 73.359375 361.652344 74.109375 362.277344 74.515625 C 361.058594 74.828125 360.433594 75.703125 360.433594 76.484375 C 360.433594 77.921875 362.402344 79.015625 364.839844 79.015625 C 367.183594 79.015625 369.246094 78.015625 369.246094 76.453125 C 369.246094 75.765625 368.996094 74.734375 367.964844 74.171875 C 366.902344 73.640625 365.746094 73.640625 364.527344 73.640625 C 364.027344 73.640625 363.183594 73.640625 363.027344 73.609375 C 362.402344 73.515625 361.996094 72.921875 361.996094 72.265625 Z M 364.871094 78.578125 C 362.839844 78.578125 361.464844 77.546875 361.464844 76.484375 C 361.464844 75.578125 362.214844 74.828125 363.089844 74.796875 L 364.277344 74.796875 C 365.996094 74.796875 368.214844 74.796875 368.214844 76.484375 C 368.214844 77.578125 366.808594 78.578125 364.871094 78.578125 Z M 364.871094 78.578125 "/>
<path style=" stroke:none;fill-rule:nonzero;fill:rgb(0%,0%,0%);fill-opacity:1;" d="M 378.988281 68.546875 C 378.988281 66.953125 378.894531 65.359375 378.207031 63.890625 C 377.300781 61.953125 375.644531 61.640625 374.832031 61.640625 C 373.613281 61.640625 372.175781 62.171875 371.332031 64.015625 C 370.707031 65.390625 370.613281 66.953125 370.613281 68.546875 C 370.613281 70.046875 370.675781 71.828125 371.519531 73.359375 C 372.363281 74.953125 373.832031 75.359375 374.800781 75.359375 C 375.863281 75.359375 377.394531 74.953125 378.269531 73.046875 C 378.894531 71.671875 378.988281 70.109375 378.988281 68.546875 Z M 374.800781 74.921875 C 374.019531 74.921875 372.832031 74.421875 372.488281 72.515625 C 372.269531 71.328125 372.269531 69.484375 372.269531 68.296875 C 372.269531 67.015625 372.269531 65.703125 372.425781 64.640625 C 372.800781 62.265625 374.300781 62.078125 374.800781 62.078125 C 375.457031 62.078125 376.769531 62.453125 377.144531 64.421875 C 377.363281 65.546875 377.363281 67.046875 377.363281 68.296875 C 377.363281 69.796875 377.363281 71.140625 377.144531 72.421875 C 376.832031 74.328125 375.707031 74.921875 374.800781 74.921875 Z M 374.800781 74.921875 "/>
<path style=" stroke:none;fill-rule:nonzero;fill:rgb(0%,0%,0%);fill-opacity:1;" d="M 389.492188 70.765625 L 390.242188 61.671875 C 390.242188 61.015625 389.710938 60.640625 389.210938 60.640625 C 388.679688 60.640625 388.148438 61.015625 388.148438 61.671875 L 388.929688 70.734375 C 388.929688 71.046875 388.960938 71.203125 389.210938 71.203125 C 389.398438 71.203125 389.460938 71.109375 389.492188 70.765625 Z M 390.242188 73.859375 C 390.242188 73.296875 389.773438 72.796875 389.210938 72.796875 C 388.617188 72.796875 388.148438 73.296875 388.148438 73.859375 C 388.148438 74.453125 388.617188 74.921875 389.210938 74.921875 C 389.773438 74.921875 390.242188 74.453125 390.242188 73.859375 Z M 390.242188 73.859375 "/>
<path style="fill:none;stroke-width:0.566929;stroke-linecap:butt;stroke-linejoin:miter;stroke:rgb(100%,0%,0%);stroke-opacity:0.5;stroke-miterlimit:10;" d="M -2.834646 112.989573 L 2.835276 107.319651 " transform="matrix(2,0,0,2,5.669291,5.669291)"/>
<path style="fill:none;stroke-width:0.566929;stroke-linecap:butt;stroke-linejoin:miter;stroke:rgb(100%,0%,0%);stroke-opacity:0.5;stroke-miterlimit:10;" d="M 2.835276 112.989573 L -2.834646 107.319651 " transform="matrix(2,0,0,2,5.669291,5.669291)"/>
<path style="fill-rule:nonzero;fill:rgb(50%,50%,0%);fill-opacity:0.1;stroke-width:0.566929;stroke-linecap:butt;stroke-linejoin:miter;stroke:rgb(100%,0%,0%);stroke-opacity:0.5;stroke-miterlimit:10;" d="M -0.000661294 121.388011 L 154.200511 121.388011 L 154.200511 56.888011 L -0.000661294 56.888011 Z M -0.000661294 121.388011 " transform="matrix(2,0,0,2,5.669291,5.669291)"/>
<path style="fill:none;stroke-width:0.566929;stroke-linecap:butt;stroke-linejoin:miter;stroke:rgb(100%,0%,0%);stroke-opacity:0.5;stroke-miterlimit:10;" d="M 19.165354 112.989573 L 24.833323 107.319651 " transform="matrix(2,0,0,2,5.669291,5.669291)"/>
<path style="fill:none;stroke-width:0.566929;stroke-linecap:butt;stroke-linejoin:miter;stroke:rgb(100%,0%,0%);stroke-opacity:0.5;stroke-miterlimit:10;" d="M 24.833323 112.989573 L 19.165354 107.319651 " transform="matrix(2,0,0,2,5.669291,5.669291)"/>
<path style="fill-rule:nonzero;fill:rgb(50%,50%,0%);fill-opacity:0.1;stroke-width:0.566929;stroke-linecap:butt;stroke-linejoin:miter;stroke:rgb(100%,0%,0%);stroke-opacity:0.5;stroke-miterlimit:10;" d="M -0.000661294 119.927073 L 53.585276 119.927073 L 53.585276 81.628245 L -0.000661294 81.628245 Z M -0.000661294 119.927073 " transform="matrix(2,0,0,2,5.669291,5.669291)"/>
<path style="fill:none;stroke-width:0.566929;stroke-linecap:butt;stroke-linejoin:miter;stroke:rgb(100%,0%,0%);stroke-opacity:0.5;stroke-miterlimit:10;" d="M 84.548167 112.989573 L 90.218089 107.319651 " transform="matrix(2,0,0,2,5.669291,5.669291)"/>
<path style="fill:none;stroke-width:0.566929;stroke-linecap:butt;stroke-linejoin:miter;stroke:rgb(100%,0%,0%);stroke-opacity:0.5;stroke-miterlimit:10;" d="M 90.218089 112.989573 L 84.548167 107.319651 " transform="matrix(2,0,0,2,5.669291,5.669291)"/>
<path style="fill-rule:nonzero;fill:rgb(50%,50%,0%);fill-opacity:0.1;stroke-width:0.566929;stroke-linecap:butt;stroke-linejoin:miter;stroke:rgb(100%,0%,0%);stroke-opacity:0.5;stroke-miterlimit:10;" d="M 53.585276 121.388011 L 129.102854 121.388011 L 129.102854 56.888011 L 53.585276 56.888011 Z M 53.585276 121.388011 " transform="matrix(2,0,0,2,5.669291,5.669291)"/>
<path style="fill:none;stroke-width:0.566929;stroke-linecap:butt;stroke-linejoin:miter;stroke:rgb(100%,0%,0%);stroke-opacity:0.5;stroke-miterlimit:10;" d="M 126.26887 112.989573 L 131.938792 107.319651 " transform="matrix(2,0,0,2,5.669291,5.669291)"/>
<path style="fill:none;stroke-width:0.566929;stroke-linecap:butt;stroke-linejoin:miter;stroke:rgb(100%,0%,0%);stroke-opacity:0.5;stroke-miterlimit:10;" d="M 131.938792 112.989573 L 126.26887 107.319651 " transform="matrix(2,0,0,2,5.669291,5.669291)"/>
<path style="fill-rule:nonzero;fill:rgb(50%,50%,0%);fill-opacity:0.1;stroke-width:0.566929;stroke-linecap:butt;stroke-linejoin:miter;stroke:rgb(100%,0%,0%);stroke-opacity:0.5;stroke-miterlimit:10;" d="M 129.102854 112.200511 L 154.200511 112.200511 L 154.200511 103.013011 L 129.102854 103.013011 Z M 129.102854 112.200511 " transform="matrix(2,0,0,2,5.669291,5.669291)"/>
<path style=" stroke:none;fill-rule:nonzero;fill:rgb(0%,0%,0%);fill-opacity:1;" d="M 275.4375 213.914062 C 275.4375 213.195312 275.46875 212.976562 277 212.976562 L 277.5 212.976562 L 277.5 212.351562 C 276.78125 212.414062 275.3125 212.414062 274.5625 212.414062 C 273.8125 212.414062 272.3125 212.414062 271.625 212.351562 L 271.625 212.976562 L 272.09375 212.976562 C 273.625 212.976562 273.65625 213.195312 273.65625 213.914062 L 273.65625 218.570312 L 267.71875 218.570312 L 267.71875 213.914062 C 267.71875 213.195312 267.75 212.976562 269.28125 212.976562 L 269.75 212.976562 L 269.75 212.351562 C 269.0625 212.414062 267.59375 212.414062 266.8125 212.414062 C 266.0625 212.414062 264.5625 212.414062 263.875 212.351562 L 263.875 212.976562 L 264.34375 212.976562 C 265.875 212.976562 265.9375 213.195312 265.9375 213.914062 L 265.9375 224.414062 C 265.9375 225.132812 265.875 225.351562 264.34375 225.351562 L 263.875 225.351562 L 263.875 225.976562 C 264.5625 225.914062 266.0625 225.914062 266.8125 225.914062 C 267.5625 225.914062 269.0625 225.914062 269.75 225.976562 L 269.75 225.351562 L 269.28125 225.351562 C 267.75 225.351562 267.71875 225.132812 267.71875 224.414062 L 267.71875 219.195312 L 273.65625 219.195312 L 273.65625 224.414062 C 273.65625 225.132812 273.625 225.351562 272.09375 225.351562 L 271.625 225.351562 L 271.625 225.976562 C 272.3125 225.914062 273.78125 225.914062 274.53125 225.914062 C 275.3125 225.914062 276.78125 225.914062 277.5 225.976562 L 277.5 225.351562 L 277 225.351562 C 275.46875 225.351562 275.4375 225.132812 275.4375 224.414062 Z M 275.4375 213.914062 "/>
<path style=" stroke:none;fill-rule:nonzero;fill:rgb(0%,0%,0%);fill-opacity:1;" d="M 281.695312 217.164062 L 278.914062 217.382812 L 278.914062 218.007812 C 280.195312 218.007812 280.382812 218.132812 280.382812 219.101562 L 280.382812 224.476562 C 280.382812 225.351562 280.164062 225.351562 278.820312 225.351562 L 278.820312 225.976562 C 279.445312 225.945312 280.539062 225.914062 281.007812 225.914062 C 281.726562 225.914062 282.414062 225.945312 283.101562 225.976562 L 283.101562 225.351562 C 281.757812 225.351562 281.695312 225.257812 281.695312 224.476562 Z M 281.757812 213.695312 C 281.757812 213.070312 281.289062 212.632812 280.726562 212.632812 C 280.101562 212.632812 279.664062 213.164062 279.664062 213.695312 C 279.664062 214.226562 280.101562 214.757812 280.726562 214.757812 C 281.289062 214.757812 281.757812 214.320312 281.757812 213.695312 Z M 281.757812 213.695312 "/>
<path style=" stroke:none;fill-rule:nonzero;fill:rgb(0%,0%,0%);fill-opacity:1;" d="M 288.136719 222.539062 C 286.386719 222.539062 286.386719 220.539062 286.386719 220.101562 C 286.386719 219.570312 286.417969 218.914062 286.699219 218.414062 C 286.855469 218.195312 287.324219 217.632812 288.136719 217.632812 C 289.855469 217.632812 289.855469 219.601562 289.855469 220.070312 C 289.855469 220.601562 289.855469 221.257812 289.542969 221.757812 C 289.386719 221.976562 288.917969 222.539062 288.136719 222.539062 Z M 285.824219 223.320312 C 285.824219 223.257812 285.824219 222.789062 286.136719 222.382812 C 286.917969 222.945312 287.761719 223.007812 288.136719 223.007812 C 289.980469 223.007812 291.355469 221.632812 291.355469 220.101562 C 291.355469 219.351562 291.042969 218.632812 290.542969 218.164062 C 291.261719 217.476562 291.980469 217.382812 292.324219 217.382812 C 292.386719 217.382812 292.480469 217.382812 292.542969 217.414062 C 292.324219 217.476562 292.199219 217.695312 292.199219 217.945312 C 292.199219 218.289062 292.480469 218.507812 292.792969 218.507812 C 292.980469 218.507812 293.355469 218.382812 293.355469 217.914062 C 293.355469 217.570312 293.136719 216.945312 292.355469 216.945312 C 291.949219 216.945312 291.074219 217.070312 290.230469 217.882812 C 289.386719 217.226562 288.574219 217.164062 288.136719 217.164062 C 286.261719 217.164062 284.886719 218.539062 284.886719 220.070312 C 284.886719 220.945312 285.324219 221.695312 285.824219 222.132812 C 285.574219 222.414062 285.199219 223.070312 285.199219 223.789062 C 285.199219 224.414062 285.480469 225.164062 286.105469 225.570312 C 284.886719 225.882812 284.261719 226.757812 284.261719 227.539062 C 284.261719 228.976562 286.230469 230.070312 288.667969 230.070312 C 291.011719 230.070312 293.074219 229.070312 293.074219 227.507812 C 293.074219 226.820312 292.824219 225.789062 291.792969 225.226562 C 290.730469 224.695312 289.574219 224.695312 288.355469 224.695312 C 287.855469 224.695312 287.011719 224.695312 286.855469 224.664062 C 286.230469 224.570312 285.824219 223.976562 285.824219 223.320312 Z M 288.699219 229.632812 C 286.667969 229.632812 285.292969 228.601562 285.292969 227.539062 C 285.292969 226.632812 286.042969 225.882812 286.917969 225.851562 L 288.105469 225.851562 C 289.824219 225.851562 292.042969 225.851562 292.042969 227.539062 C 292.042969 228.632812 290.636719 229.632812 288.699219 229.632812 Z M 288.699219 229.632812 "/>
<path style=" stroke:none;fill-rule:nonzero;fill:rgb(0%,0%,0%);fill-opacity:1;" d="M 299.535156 213.226562 C 299.535156 212.726562 299.535156 212.695312 299.066406 212.695312 C 297.816406 213.976562 296.066406 213.976562 295.441406 213.976562 L 295.441406 214.601562 C 295.847656 214.601562 297.003906 214.601562 298.035156 214.070312 L 298.035156 224.414062 C 298.035156 225.132812 297.972656 225.351562 296.191406 225.351562 L 295.566406 225.351562 L 295.566406 225.976562 C 296.253906 225.914062 297.972656 225.914062 298.785156 225.914062 C 299.566406 225.914062 301.316406 225.914062 302.003906 225.976562 L 302.003906 225.351562 L 301.378906 225.351562 C 299.566406 225.351562 299.535156 225.132812 299.535156 224.414062 Z M 299.535156 213.226562 "/>
<path style=" stroke:none;fill-rule:nonzero;fill:rgb(0%,0%,0%);fill-opacity:1;" d="M 313.320312 221.820312 L 314.070312 212.726562 C 314.070312 212.070312 313.539062 211.695312 313.039062 211.695312 C 312.507812 211.695312 311.976562 212.070312 311.976562 212.726562 L 312.757812 221.789062 C 312.757812 222.101562 312.789062 222.257812 313.039062 222.257812 C 313.226562 222.257812 313.289062 222.164062 313.320312 221.820312 Z M 314.070312 224.914062 C 314.070312 224.351562 313.601562 223.851562 313.039062 223.851562 C 312.445312 223.851562 311.976562 224.351562 311.976562 224.914062 C 311.976562 225.507812 312.445312 225.976562 313.039062 225.976562 C 313.601562 225.976562 314.070312 225.507812 314.070312 224.914062 Z M 314.070312 224.914062 "/>
</g>
</svg>
