<?xml version="1.0" encoding="UTF-8"?>
<svg xmlns="http://www.w3.org/2000/svg" xmlns:xlink="http://www.w3.org/1999/xlink" width="365.041333pt" height="399.782835pt" viewBox="0 0 365.041333 399.782835" version="1.1">
<g id="surface77">
<path style="fill:none;stroke-width:0.566929;stroke-linecap:butt;stroke-linejoin:miter;stroke:rgb(100%,0%,0%);stroke-opacity:0.5;stroke-miterlimit:10;" d="M -2.834646 2.834169 L 2.835276 -2.8338 " transform="matrix(2,0,0,2,6.169291,5.952756)"/>
<path style="fill:none;stroke-width:0.566929;stroke-linecap:butt;stroke-linejoin:miter;stroke:rgb(100%,0%,0%);stroke-opacity:0.5;stroke-miterlimit:10;" d="M 2.835276 2.834169 L -2.834646 -2.8338 " transform="matrix(2,0,0,2,6.169291,5.952756)"/>
<path style="fill-rule:nonzero;fill:rgb(50%,50%,0%);fill-opacity:0.1;stroke-width:0.566929;stroke-linecap:butt;stroke-linejoin:miter;stroke:rgb(100%,0%,0%);stroke-opacity:0.5;stroke-miterlimit:10;" d="M -0.000661294 196.664247 L 179.294261 196.664247 L 179.294261 0.000184547 L -0.000661294 0.000184547 Z M -0.000661294 196.664247 " transform="matrix(2,0,0,2,6.169291,5.952756)"/>
<path style="fill:none;stroke-width:0.566929;stroke-linecap:butt;stroke-linejoin:miter;stroke:rgb(100%,0%,0%);stroke-opacity:0.5;stroke-miterlimit:10;" d="M -2.834646 54.1662 L 2.835276 48.496278 " transform="matrix(2,0,0,2,6.169291,5.952756)"/>
<path style="fill:none;stroke-width:0.566929;stroke-linecap:butt;stroke-linejoin:miter;stroke:rgb(100%,0%,0%);stroke-opacity:0.5;stroke-miterlimit:10;" d="M 2.835276 54.1662 L -2.834646 48.496278 " transform="matrix(2,0,0,2,6.169291,5.952756)"/>
<path style="fill-rule:nonzero;fill:rgb(50%,50%,0%);fill-opacity:0.1;stroke-width:0.566929;stroke-linecap:butt;stroke-linejoin:miter;stroke:rgb(100%,0%,0%);stroke-opacity:0.5;stroke-miterlimit:10;" d="M -0.000661294 101.720888 L 179.294261 101.720888 L 179.294261 0.000184547 L -0.000661294 0.000184547 Z M -0.000661294 101.720888 " transform="matrix(2,0,0,2,6.169291,5.952756)"/>
<path style="fill:none;stroke-width:0.566929;stroke-linecap:butt;stroke-linejoin:miter;stroke:rgb(100%,0%,0%);stroke-opacity:0.5;stroke-miterlimit:10;" d="M 48.313792 54.1662 L 53.983714 48.496278 " transform="matrix(2,0,0,2,6.169291,5.952756)"/>
<path style="fill:none;stroke-width:0.566929;stroke-linecap:butt;stroke-linejoin:miter;stroke:rgb(100%,0%,0%);stroke-opacity:0.5;stroke-miterlimit:10;" d="M 53.983714 54.1662 L 48.313792 48.496278 " transform="matrix(2,0,0,2,6.169291,5.952756)"/>
<path style="fill-rule:nonzero;fill:rgb(50%,50%,0%);fill-opacity:0.1;stroke-width:0.566929;stroke-linecap:butt;stroke-linejoin:miter;stroke:rgb(100%,0%,0%);stroke-opacity:0.5;stroke-miterlimit:10;" d="M -0.000661294 101.720888 L 66.899729 101.720888 L 66.899729 0.000184547 L -0.000661294 0.000184547 Z M -0.000661294 101.720888 " transform="matrix(2,0,0,2,6.169291,5.952756)"/>
<path style="fill:none;stroke-width:0.566929;stroke-linecap:butt;stroke-linejoin:miter;stroke:rgb(100%,0%,0%);stroke-opacity:0.5;stroke-miterlimit:10;" d="M 95.532542 54.1662 L 101.200511 48.496278 " transform="matrix(2,0,0,2,6.169291,5.952756)"/>
<path style="fill:none;stroke-width:0.566929;stroke-linecap:butt;stroke-linejoin:miter;stroke:rgb(100%,0%,0%);stroke-opacity:0.5;stroke-miterlimit:10;" d="M 101.200511 54.1662 L 95.532542 48.496278 " transform="matrix(2,0,0,2,6.169291,5.952756)"/>
<path style="fill-rule:nonzero;fill:rgb(50%,50%,0%);fill-opacity:0.1;stroke-width:0.566929;stroke-linecap:butt;stroke-linejoin:miter;stroke:rgb(100%,0%,0%);stroke-opacity:0.5;stroke-miterlimit:10;" d="M 66.899729 101.615419 L 153.196604 101.615419 L 153.196604 1.586122 L 66.899729 1.586122 Z M 66.899729 101.615419 " transform="matrix(2,0,0,2,6.169291,5.952756)"/>
<path style="fill:none;stroke-width:0.566929;stroke-linecap:butt;stroke-linejoin:miter;stroke:rgb(100%,0%,0%);stroke-opacity:0.5;stroke-miterlimit:10;" d="M 150.36262 54.1662 L 156.030589 48.496278 " transform="matrix(2,0,0,2,6.169291,5.952756)"/>
<path style="fill:none;stroke-width:0.566929;stroke-linecap:butt;stroke-linejoin:miter;stroke:rgb(100%,0%,0%);stroke-opacity:0.5;stroke-miterlimit:10;" d="M 156.030589 54.1662 L 150.36262 48.496278 " transform="matrix(2,0,0,2,6.169291,5.952756)"/>
<path style="fill-rule:nonzero;fill:rgb(50%,50%,0%);fill-opacity:0.1;stroke-width:0.566929;stroke-linecap:butt;stroke-linejoin:miter;stroke:rgb(100%,0%,0%);stroke-opacity:0.5;stroke-miterlimit:10;" d="M 153.196604 53.379091 L 179.294261 53.379091 L 179.294261 43.191591 L 153.196604 43.191591 Z M 153.196604 53.379091 " transform="matrix(2,0,0,2,6.169291,5.952756)"/>
<path style=" stroke:none;fill-rule:nonzero;fill:rgb(0%,0%,0%);fill-opacity:1;" d="M 325.125 95.554688 C 325.125 94.835938 325.15625 94.617188 326.6875 94.617188 L 327.1875 94.617188 L 327.1875 93.992188 C 326.46875 94.054688 325 94.054688 324.25 94.054688 C 323.5 94.054688 322 94.054688 321.3125 93.992188 L 321.3125 94.617188 L 321.78125 94.617188 C 323.3125 94.617188 323.34375 94.835938 323.34375 95.554688 L 323.34375 100.210938 L 317.40625 100.210938 L 317.40625 95.554688 C 317.40625 94.835938 317.4375 94.617188 318.96875 94.617188 L 319.4375 94.617188 L 319.4375 93.992188 C 318.75 94.054688 317.28125 94.054688 316.5 94.054688 C 315.75 94.054688 314.25 94.054688 313.5625 93.992188 L 313.5625 94.617188 L 314.03125 94.617188 C 315.5625 94.617188 315.625 94.835938 315.625 95.554688 L 315.625 106.054688 C 315.625 106.773438 315.5625 106.992188 314.03125 106.992188 L 313.5625 106.992188 L 313.5625 107.617188 C 314.25 107.554688 315.75 107.554688 316.5 107.554688 C 317.25 107.554688 318.75 107.554688 319.4375 107.617188 L 319.4375 106.992188 L 318.96875 106.992188 C 317.4375 106.992188 317.40625 106.773438 317.40625 106.054688 L 317.40625 100.835938 L 323.34375 100.835938 L 323.34375 106.054688 C 323.34375 106.773438 323.3125 106.992188 321.78125 106.992188 L 321.3125 106.992188 L 321.3125 107.617188 C 322 107.554688 323.46875 107.554688 324.21875 107.554688 C 325 107.554688 326.46875 107.554688 327.1875 107.617188 L 327.1875 106.992188 L 326.6875 106.992188 C 325.15625 106.992188 325.125 106.773438 325.125 106.054688 Z M 325.125 95.554688 "/>
<path style=" stroke:none;fill-rule:nonzero;fill:rgb(0%,0%,0%);fill-opacity:1;" d="M 331.382812 98.804688 L 328.601562 99.023438 L 328.601562 99.648438 C 329.882812 99.648438 330.070312 99.773438 330.070312 100.742188 L 330.070312 106.117188 C 330.070312 106.992188 329.851562 106.992188 328.507812 106.992188 L 328.507812 107.617188 C 329.132812 107.585938 330.226562 107.554688 330.695312 107.554688 C 331.414062 107.554688 332.101562 107.585938 332.789062 107.617188 L 332.789062 106.992188 C 331.445312 106.992188 331.382812 106.898438 331.382812 106.117188 Z M 331.445312 95.335938 C 331.445312 94.710938 330.976562 94.273438 330.414062 94.273438 C 329.789062 94.273438 329.351562 94.804688 329.351562 95.335938 C 329.351562 95.867188 329.789062 96.398438 330.414062 96.398438 C 330.976562 96.398438 331.445312 95.960938 331.445312 95.335938 Z M 331.445312 95.335938 "/>
<path style=" stroke:none;fill-rule:nonzero;fill:rgb(0%,0%,0%);fill-opacity:1;" d="M 337.824219 104.179688 C 336.074219 104.179688 336.074219 102.179688 336.074219 101.742188 C 336.074219 101.210938 336.105469 100.554688 336.386719 100.054688 C 336.542969 99.835938 337.011719 99.273438 337.824219 99.273438 C 339.542969 99.273438 339.542969 101.242188 339.542969 101.710938 C 339.542969 102.242188 339.542969 102.898438 339.230469 103.398438 C 339.074219 103.617188 338.605469 104.179688 337.824219 104.179688 Z M 335.511719 104.960938 C 335.511719 104.898438 335.511719 104.429688 335.824219 104.023438 C 336.605469 104.585938 337.449219 104.648438 337.824219 104.648438 C 339.667969 104.648438 341.042969 103.273438 341.042969 101.742188 C 341.042969 100.992188 340.730469 100.273438 340.230469 99.804688 C 340.949219 99.117188 341.667969 99.023438 342.011719 99.023438 C 342.074219 99.023438 342.167969 99.023438 342.230469 99.054688 C 342.011719 99.117188 341.886719 99.335938 341.886719 99.585938 C 341.886719 99.929688 342.167969 100.148438 342.480469 100.148438 C 342.667969 100.148438 343.042969 100.023438 343.042969 99.554688 C 343.042969 99.210938 342.824219 98.585938 342.042969 98.585938 C 341.636719 98.585938 340.761719 98.710938 339.917969 99.523438 C 339.074219 98.867188 338.261719 98.804688 337.824219 98.804688 C 335.949219 98.804688 334.574219 100.179688 334.574219 101.710938 C 334.574219 102.585938 335.011719 103.335938 335.511719 103.773438 C 335.261719 104.054688 334.886719 104.710938 334.886719 105.429688 C 334.886719 106.054688 335.167969 106.804688 335.792969 107.210938 C 334.574219 107.523438 333.949219 108.398438 333.949219 109.179688 C 333.949219 110.617188 335.917969 111.710938 338.355469 111.710938 C 340.699219 111.710938 342.761719 110.710938 342.761719 109.148438 C 342.761719 108.460938 342.511719 107.429688 341.480469 106.867188 C 340.417969 106.335938 339.261719 106.335938 338.042969 106.335938 C 337.542969 106.335938 336.699219 106.335938 336.542969 106.304688 C 335.917969 106.210938 335.511719 105.617188 335.511719 104.960938 Z M 338.386719 111.273438 C 336.355469 111.273438 334.980469 110.242188 334.980469 109.179688 C 334.980469 108.273438 335.730469 107.523438 336.605469 107.492188 L 337.792969 107.492188 C 339.511719 107.492188 341.730469 107.492188 341.730469 109.179688 C 341.730469 110.273438 340.324219 111.273438 338.386719 111.273438 Z M 338.386719 111.273438 "/>
<path style=" stroke:none;fill-rule:nonzero;fill:rgb(0%,0%,0%);fill-opacity:1;" d="M 352.503906 101.242188 C 352.503906 99.648438 352.410156 98.054688 351.722656 96.585938 C 350.816406 94.648438 349.160156 94.335938 348.347656 94.335938 C 347.128906 94.335938 345.691406 94.867188 344.847656 96.710938 C 344.222656 98.085938 344.128906 99.648438 344.128906 101.242188 C 344.128906 102.742188 344.191406 104.523438 345.035156 106.054688 C 345.878906 107.648438 347.347656 108.054688 348.316406 108.054688 C 349.378906 108.054688 350.910156 107.648438 351.785156 105.742188 C 352.410156 104.367188 352.503906 102.804688 352.503906 101.242188 Z M 348.316406 107.617188 C 347.535156 107.617188 346.347656 107.117188 346.003906 105.210938 C 345.785156 104.023438 345.785156 102.179688 345.785156 100.992188 C 345.785156 99.710938 345.785156 98.398438 345.941406 97.335938 C 346.316406 94.960938 347.816406 94.773438 348.316406 94.773438 C 348.972656 94.773438 350.285156 95.148438 350.660156 97.117188 C 350.878906 98.242188 350.878906 99.742188 350.878906 100.992188 C 350.878906 102.492188 350.878906 103.835938 350.660156 105.117188 C 350.347656 107.023438 349.222656 107.617188 348.316406 107.617188 Z M 348.316406 107.617188 "/>
<path style=" stroke:none;fill-rule:nonzero;fill:rgb(0%,0%,0%);fill-opacity:1;" d="M 363.007812 103.460938 L 363.757812 94.367188 C 363.757812 93.710938 363.226562 93.335938 362.726562 93.335938 C 362.195312 93.335938 361.664062 93.710938 361.664062 94.367188 L 362.445312 103.429688 C 362.445312 103.742188 362.476562 103.898438 362.726562 103.898438 C 362.914062 103.898438 362.976562 103.804688 363.007812 103.460938 Z M 363.757812 106.554688 C 363.757812 105.992188 363.289062 105.492188 362.726562 105.492188 C 362.132812 105.492188 361.664062 105.992188 361.664062 106.554688 C 361.664062 107.148438 362.132812 107.617188 362.726562 107.617188 C 363.289062 107.617188 363.757812 107.148438 363.757812 106.554688 Z M 363.757812 106.554688 "/>
<path style="fill:none;stroke-width:0.566929;stroke-linecap:butt;stroke-linejoin:miter;stroke:rgb(100%,0%,0%);stroke-opacity:0.5;stroke-miterlimit:10;" d="M -2.834646 152.357606 L 2.835276 146.687685 " transform="matrix(2,0,0,2,6.169291,5.952756)"/>
<path style="fill:none;stroke-width:0.566929;stroke-linecap:butt;stroke-linejoin:miter;stroke:rgb(100%,0%,0%);stroke-opacity:0.5;stroke-miterlimit:10;" d="M 2.835276 152.357606 L -2.834646 146.687685 " transform="matrix(2,0,0,2,6.169291,5.952756)"/>
<path style="fill-rule:nonzero;fill:rgb(50%,50%,0%);fill-opacity:0.1;stroke-width:0.566929;stroke-linecap:butt;stroke-linejoin:miter;stroke:rgb(100%,0%,0%);stroke-opacity:0.5;stroke-miterlimit:10;" d="M -0.000661294 196.664247 L 115.005198 196.664247 L 115.005198 101.720888 L -0.000661294 101.720888 Z M -0.000661294 196.664247 " transform="matrix(2,0,0,2,6.169291,5.952756)"/>
<path style="fill:none;stroke-width:0.566929;stroke-linecap:butt;stroke-linejoin:miter;stroke:rgb(100%,0%,0%);stroke-opacity:0.5;stroke-miterlimit:10;" d="M 20.807932 152.357606 L 26.477854 146.687685 " transform="matrix(2,0,0,2,6.169291,5.952756)"/>
<path style="fill:none;stroke-width:0.566929;stroke-linecap:butt;stroke-linejoin:miter;stroke:rgb(100%,0%,0%);stroke-opacity:0.5;stroke-miterlimit:10;" d="M 26.477854 152.357606 L 20.807932 146.687685 " transform="matrix(2,0,0,2,6.169291,5.952756)"/>
<path style="fill-rule:nonzero;fill:rgb(50%,50%,0%);fill-opacity:0.1;stroke-width:0.566929;stroke-linecap:butt;stroke-linejoin:miter;stroke:rgb(100%,0%,0%);stroke-opacity:0.5;stroke-miterlimit:10;" d="M -0.000661294 191.679872 L 43.593089 191.679872 L 43.593089 101.720888 L -0.000661294 101.720888 Z M -0.000661294 191.679872 " transform="matrix(2,0,0,2,6.169291,5.952756)"/>
<path style="fill:none;stroke-width:0.566929;stroke-linecap:butt;stroke-linejoin:miter;stroke:rgb(100%,0%,0%);stroke-opacity:0.5;stroke-miterlimit:10;" d="M 72.985667 152.357606 L 78.653636 146.687685 " transform="matrix(2,0,0,2,6.169291,5.952756)"/>
<path style="fill:none;stroke-width:0.566929;stroke-linecap:butt;stroke-linejoin:miter;stroke:rgb(100%,0%,0%);stroke-opacity:0.5;stroke-miterlimit:10;" d="M 78.653636 152.357606 L 72.985667 146.687685 " transform="matrix(2,0,0,2,6.169291,5.952756)"/>
<path style="fill-rule:nonzero;fill:rgb(50%,50%,0%);fill-opacity:0.1;stroke-width:0.566929;stroke-linecap:butt;stroke-linejoin:miter;stroke:rgb(100%,0%,0%);stroke-opacity:0.5;stroke-miterlimit:10;" d="M 43.593089 196.664247 L 88.907542 196.664247 L 88.907542 103.281435 L 43.593089 103.281435 Z M 43.593089 196.664247 " transform="matrix(2,0,0,2,6.169291,5.952756)"/>
<path style="fill:none;stroke-width:0.566929;stroke-linecap:butt;stroke-linejoin:miter;stroke:rgb(100%,0%,0%);stroke-opacity:0.5;stroke-miterlimit:10;" d="M 86.071604 152.357606 L 91.741526 146.687685 " transform="matrix(2,0,0,2,6.169291,5.952756)"/>
<path style="fill:none;stroke-width:0.566929;stroke-linecap:butt;stroke-linejoin:miter;stroke:rgb(100%,0%,0%);stroke-opacity:0.5;stroke-miterlimit:10;" d="M 91.741526 152.357606 L 86.071604 146.687685 " transform="matrix(2,0,0,2,6.169291,5.952756)"/>
<path style="fill-rule:nonzero;fill:rgb(50%,50%,0%);fill-opacity:0.1;stroke-width:0.566929;stroke-linecap:butt;stroke-linejoin:miter;stroke:rgb(100%,0%,0%);stroke-opacity:0.5;stroke-miterlimit:10;" d="M 88.907542 151.570497 L 115.005198 151.570497 L 115.005198 141.382997 L 88.907542 141.382997 Z M 88.907542 151.570497 " transform="matrix(2,0,0,2,6.169291,5.952756)"/>
<path style=" stroke:none;fill-rule:nonzero;fill:rgb(0%,0%,0%);fill-opacity:1;" d="M 196.546875 291.9375 C 196.546875 291.21875 196.578125 291 198.109375 291 L 198.609375 291 L 198.609375 290.375 C 197.890625 290.4375 196.421875 290.4375 195.671875 290.4375 C 194.921875 290.4375 193.421875 290.4375 192.734375 290.375 L 192.734375 291 L 193.203125 291 C 194.734375 291 194.765625 291.21875 194.765625 291.9375 L 194.765625 296.59375 L 188.828125 296.59375 L 188.828125 291.9375 C 188.828125 291.21875 188.859375 291 190.390625 291 L 190.859375 291 L 190.859375 290.375 C 190.171875 290.4375 188.703125 290.4375 187.921875 290.4375 C 187.171875 290.4375 185.671875 290.4375 184.984375 290.375 L 184.984375 291 L 185.453125 291 C 186.984375 291 187.046875 291.21875 187.046875 291.9375 L 187.046875 302.4375 C 187.046875 303.15625 186.984375 303.375 185.453125 303.375 L 184.984375 303.375 L 184.984375 304 C 185.671875 303.9375 187.171875 303.9375 187.921875 303.9375 C 188.671875 303.9375 190.171875 303.9375 190.859375 304 L 190.859375 303.375 L 190.390625 303.375 C 188.859375 303.375 188.828125 303.15625 188.828125 302.4375 L 188.828125 297.21875 L 194.765625 297.21875 L 194.765625 302.4375 C 194.765625 303.15625 194.734375 303.375 193.203125 303.375 L 192.734375 303.375 L 192.734375 304 C 193.421875 303.9375 194.890625 303.9375 195.640625 303.9375 C 196.421875 303.9375 197.890625 303.9375 198.609375 304 L 198.609375 303.375 L 198.109375 303.375 C 196.578125 303.375 196.546875 303.15625 196.546875 302.4375 Z M 196.546875 291.9375 "/>
<path style=" stroke:none;fill-rule:nonzero;fill:rgb(0%,0%,0%);fill-opacity:1;" d="M 202.800781 295.1875 L 200.019531 295.40625 L 200.019531 296.03125 C 201.300781 296.03125 201.488281 296.15625 201.488281 297.125 L 201.488281 302.5 C 201.488281 303.375 201.269531 303.375 199.925781 303.375 L 199.925781 304 C 200.550781 303.96875 201.644531 303.9375 202.113281 303.9375 C 202.832031 303.9375 203.519531 303.96875 204.207031 304 L 204.207031 303.375 C 202.863281 303.375 202.800781 303.28125 202.800781 302.5 Z M 202.863281 291.71875 C 202.863281 291.09375 202.394531 290.65625 201.832031 290.65625 C 201.207031 290.65625 200.769531 291.1875 200.769531 291.71875 C 200.769531 292.25 201.207031 292.78125 201.832031 292.78125 C 202.394531 292.78125 202.863281 292.34375 202.863281 291.71875 Z M 202.863281 291.71875 "/>
<path style=" stroke:none;fill-rule:nonzero;fill:rgb(0%,0%,0%);fill-opacity:1;" d="M 209.242188 300.5625 C 207.492188 300.5625 207.492188 298.5625 207.492188 298.125 C 207.492188 297.59375 207.523438 296.9375 207.804688 296.4375 C 207.960938 296.21875 208.429688 295.65625 209.242188 295.65625 C 210.960938 295.65625 210.960938 297.625 210.960938 298.09375 C 210.960938 298.625 210.960938 299.28125 210.648438 299.78125 C 210.492188 300 210.023438 300.5625 209.242188 300.5625 Z M 206.929688 301.34375 C 206.929688 301.28125 206.929688 300.8125 207.242188 300.40625 C 208.023438 300.96875 208.867188 301.03125 209.242188 301.03125 C 211.085938 301.03125 212.460938 299.65625 212.460938 298.125 C 212.460938 297.375 212.148438 296.65625 211.648438 296.1875 C 212.367188 295.5 213.085938 295.40625 213.429688 295.40625 C 213.492188 295.40625 213.585938 295.40625 213.648438 295.4375 C 213.429688 295.5 213.304688 295.71875 213.304688 295.96875 C 213.304688 296.3125 213.585938 296.53125 213.898438 296.53125 C 214.085938 296.53125 214.460938 296.40625 214.460938 295.9375 C 214.460938 295.59375 214.242188 294.96875 213.460938 294.96875 C 213.054688 294.96875 212.179688 295.09375 211.335938 295.90625 C 210.492188 295.25 209.679688 295.1875 209.242188 295.1875 C 207.367188 295.1875 205.992188 296.5625 205.992188 298.09375 C 205.992188 298.96875 206.429688 299.71875 206.929688 300.15625 C 206.679688 300.4375 206.304688 301.09375 206.304688 301.8125 C 206.304688 302.4375 206.585938 303.1875 207.210938 303.59375 C 205.992188 303.90625 205.367188 304.78125 205.367188 305.5625 C 205.367188 307 207.335938 308.09375 209.773438 308.09375 C 212.117188 308.09375 214.179688 307.09375 214.179688 305.53125 C 214.179688 304.84375 213.929688 303.8125 212.898438 303.25 C 211.835938 302.71875 210.679688 302.71875 209.460938 302.71875 C 208.960938 302.71875 208.117188 302.71875 207.960938 302.6875 C 207.335938 302.59375 206.929688 302 206.929688 301.34375 Z M 209.804688 307.65625 C 207.773438 307.65625 206.398438 306.625 206.398438 305.5625 C 206.398438 304.65625 207.148438 303.90625 208.023438 303.875 L 209.210938 303.875 C 210.929688 303.875 213.148438 303.875 213.148438 305.5625 C 213.148438 306.65625 211.742188 307.65625 209.804688 307.65625 Z M 209.804688 307.65625 "/>
<path style=" stroke:none;fill-rule:nonzero;fill:rgb(0%,0%,0%);fill-opacity:1;" d="M 220.644531 291.25 C 220.644531 290.75 220.644531 290.71875 220.175781 290.71875 C 218.925781 292 217.175781 292 216.550781 292 L 216.550781 292.625 C 216.957031 292.625 218.113281 292.625 219.144531 292.09375 L 219.144531 302.4375 C 219.144531 303.15625 219.082031 303.375 217.300781 303.375 L 216.675781 303.375 L 216.675781 304 C 217.363281 303.9375 219.082031 303.9375 219.894531 303.9375 C 220.675781 303.9375 222.425781 303.9375 223.113281 304 L 223.113281 303.375 L 222.488281 303.375 C 220.675781 303.375 220.644531 303.15625 220.644531 302.4375 Z M 220.644531 291.25 "/>
<path style=" stroke:none;fill-rule:nonzero;fill:rgb(0%,0%,0%);fill-opacity:1;" d="M 234.429688 299.84375 L 235.179688 290.75 C 235.179688 290.09375 234.648438 289.71875 234.148438 289.71875 C 233.617188 289.71875 233.085938 290.09375 233.085938 290.75 L 233.867188 299.8125 C 233.867188 300.125 233.898438 300.28125 234.148438 300.28125 C 234.335938 300.28125 234.398438 300.1875 234.429688 299.84375 Z M 235.179688 302.9375 C 235.179688 302.375 234.710938 301.875 234.148438 301.875 C 233.554688 301.875 233.085938 302.375 233.085938 302.9375 C 233.085938 303.53125 233.554688 304 234.148438 304 C 234.710938 304 235.179688 303.53125 235.179688 302.9375 Z M 235.179688 302.9375 "/>
</g>
</svg>
