<?xml version="1.0" encoding="UTF-8"?>
<svg xmlns="http://www.w3.org/2000/svg" xmlns:xlink="http://www.w3.org/1999/xlink" width="444.654962pt" height="339.107516pt" viewBox="0 0 444.654962 339.107516" version="1.1">
<g id="surface77">
<path style="fill:none;stroke-width:0.566929;stroke-linecap:butt;stroke-linejoin:miter;stroke:rgb(100%,0%,0%);stroke-opacity:0.5;stroke-miterlimit:10;" d="M -2.834646 2.834169 L 2.835276 -2.8338 " transform="matrix(2,0,0,2,6.169291,5.952756)"/>
<path style="fill:none;stroke-width:0.566929;stroke-linecap:butt;stroke-linejoin:miter;stroke:rgb(100%,0%,0%);stroke-opacity:0.5;stroke-miterlimit:10;" d="M 2.835276 2.834169 L -2.834646 -2.8338 " transform="matrix(2,0,0,2,6.169291,5.952756)"/>
<path style="fill-rule:nonzero;fill:rgb(50%,50%,0%);fill-opacity:0.1;stroke-width:0.566929;stroke-linecap:butt;stroke-linejoin:miter;stroke:rgb(100%,0%,0%);stroke-opacity:0.5;stroke-miterlimit:10;" d="M -0.000661294 166.32831 L 218.993479 166.32831 L 218.993479 0.000184547 L -0.000661294 0.000184547 Z M -0.000661294 166.32831 " transform="matrix(2,0,0,2,6.169291,5.952756)"/>
<path style="fill:none;stroke-width:0.566929;stroke-linecap:butt;stroke-linejoin:miter;stroke:rgb(100%,0%,0%);stroke-opacity:0.5;stroke-miterlimit:10;" d="M -2.834646 23.400575 L 2.835276 17.732606 " transform="matrix(2,0,0,2,6.169291,5.952756)"/>
<path style="fill:none;stroke-width:0.566929;stroke-linecap:butt;stroke-linejoin:miter;stroke:rgb(100%,0%,0%);stroke-opacity:0.5;stroke-miterlimit:10;" d="M 2.835276 23.400575 L -2.834646 17.732606 " transform="matrix(2,0,0,2,6.169291,5.952756)"/>
<path style="fill-rule:nonzero;fill:rgb(50%,50%,0%);fill-opacity:0.1;stroke-width:0.566929;stroke-linecap:butt;stroke-linejoin:miter;stroke:rgb(100%,0%,0%);stroke-opacity:0.5;stroke-miterlimit:10;" d="M -0.000661294 68.314638 L 157.802073 68.314638 L 157.802073 0.000184547 L -0.000661294 0.000184547 Z M -0.000661294 68.314638 " transform="matrix(2,0,0,2,6.169291,5.952756)"/>
<path style="fill:none;stroke-width:0.566929;stroke-linecap:butt;stroke-linejoin:miter;stroke:rgb(100%,0%,0%);stroke-opacity:0.5;stroke-miterlimit:10;" d="M 38.95637 23.400575 L 44.626292 17.732606 " transform="matrix(2,0,0,2,6.169291,5.952756)"/>
<path style="fill:none;stroke-width:0.566929;stroke-linecap:butt;stroke-linejoin:miter;stroke:rgb(100%,0%,0%);stroke-opacity:0.5;stroke-miterlimit:10;" d="M 44.626292 23.400575 L 38.95637 17.732606 " transform="matrix(2,0,0,2,6.169291,5.952756)"/>
<path style="fill-rule:nonzero;fill:rgb(50%,50%,0%);fill-opacity:0.1;stroke-width:0.566929;stroke-linecap:butt;stroke-linejoin:miter;stroke:rgb(100%,0%,0%);stroke-opacity:0.5;stroke-miterlimit:10;" d="M -0.000661294 41.744325 L 71.077464 41.744325 L 71.077464 0.000184547 L -0.000661294 0.000184547 Z M -0.000661294 41.744325 " transform="matrix(2,0,0,2,6.169291,5.952756)"/>
<path style="fill:none;stroke-width:0.566929;stroke-linecap:butt;stroke-linejoin:miter;stroke:rgb(100%,0%,0%);stroke-opacity:0.5;stroke-miterlimit:10;" d="M 96.198557 23.400575 L 101.868479 17.732606 " transform="matrix(2,0,0,2,6.169291,5.952756)"/>
<path style="fill:none;stroke-width:0.566929;stroke-linecap:butt;stroke-linejoin:miter;stroke:rgb(100%,0%,0%);stroke-opacity:0.5;stroke-miterlimit:10;" d="M 101.868479 23.400575 L 96.198557 17.732606 " transform="matrix(2,0,0,2,6.169291,5.952756)"/>
<path style="fill-rule:nonzero;fill:rgb(50%,50%,0%);fill-opacity:0.1;stroke-width:0.566929;stroke-linecap:butt;stroke-linejoin:miter;stroke:rgb(100%,0%,0%);stroke-opacity:0.5;stroke-miterlimit:10;" d="M 71.077464 68.314638 L 131.702464 68.314638 L 131.702464 9.123231 L 71.077464 9.123231 Z M 71.077464 68.314638 " transform="matrix(2,0,0,2,6.169291,5.952756)"/>
<path style="fill:none;stroke-width:0.566929;stroke-linecap:butt;stroke-linejoin:miter;stroke:rgb(100%,0%,0%);stroke-opacity:0.5;stroke-miterlimit:10;" d="M 128.868479 23.400575 L 134.538401 17.732606 " transform="matrix(2,0,0,2,6.169291,5.952756)"/>
<path style="fill:none;stroke-width:0.566929;stroke-linecap:butt;stroke-linejoin:miter;stroke:rgb(100%,0%,0%);stroke-opacity:0.5;stroke-miterlimit:10;" d="M 134.538401 23.400575 L 128.868479 17.732606 " transform="matrix(2,0,0,2,6.169291,5.952756)"/>
<path style="fill-rule:nonzero;fill:rgb(50%,50%,0%);fill-opacity:0.1;stroke-width:0.566929;stroke-linecap:butt;stroke-linejoin:miter;stroke:rgb(100%,0%,0%);stroke-opacity:0.5;stroke-miterlimit:10;" d="M 131.702464 22.613466 L 157.802073 22.613466 L 157.802073 12.425966 L 131.702464 12.425966 Z M 131.702464 22.613466 " transform="matrix(2,0,0,2,6.169291,5.952756)"/>
<path style=" stroke:none;fill-rule:nonzero;fill:rgb(0%,0%,0%);fill-opacity:1;" d="M 282.136719 34.023438 C 282.136719 33.304688 282.167969 33.085938 283.699219 33.085938 L 284.199219 33.085938 L 284.199219 32.460938 C 283.480469 32.523438 282.011719 32.523438 281.261719 32.523438 C 280.511719 32.523438 279.011719 32.523438 278.324219 32.460938 L 278.324219 33.085938 L 278.792969 33.085938 C 280.324219 33.085938 280.355469 33.304688 280.355469 34.023438 L 280.355469 38.679688 L 274.417969 38.679688 L 274.417969 34.023438 C 274.417969 33.304688 274.449219 33.085938 275.980469 33.085938 L 276.449219 33.085938 L 276.449219 32.460938 C 275.761719 32.523438 274.292969 32.523438 273.511719 32.523438 C 272.761719 32.523438 271.261719 32.523438 270.574219 32.460938 L 270.574219 33.085938 L 271.042969 33.085938 C 272.574219 33.085938 272.636719 33.304688 272.636719 34.023438 L 272.636719 44.523438 C 272.636719 45.242188 272.574219 45.460938 271.042969 45.460938 L 270.574219 45.460938 L 270.574219 46.085938 C 271.261719 46.023438 272.761719 46.023438 273.511719 46.023438 C 274.261719 46.023438 275.761719 46.023438 276.449219 46.085938 L 276.449219 45.460938 L 275.980469 45.460938 C 274.449219 45.460938 274.417969 45.242188 274.417969 44.523438 L 274.417969 39.304688 L 280.355469 39.304688 L 280.355469 44.523438 C 280.355469 45.242188 280.324219 45.460938 278.792969 45.460938 L 278.324219 45.460938 L 278.324219 46.085938 C 279.011719 46.023438 280.480469 46.023438 281.230469 46.023438 C 282.011719 46.023438 283.480469 46.023438 284.199219 46.085938 L 284.199219 45.460938 L 283.699219 45.460938 C 282.167969 45.460938 282.136719 45.242188 282.136719 44.523438 Z M 282.136719 34.023438 "/>
<path style=" stroke:none;fill-rule:nonzero;fill:rgb(0%,0%,0%);fill-opacity:1;" d="M 288.394531 37.273438 L 285.613281 37.492188 L 285.613281 38.117188 C 286.894531 38.117188 287.082031 38.242188 287.082031 39.210938 L 287.082031 44.585938 C 287.082031 45.460938 286.863281 45.460938 285.519531 45.460938 L 285.519531 46.085938 C 286.144531 46.054688 287.238281 46.023438 287.707031 46.023438 C 288.425781 46.023438 289.113281 46.054688 289.800781 46.085938 L 289.800781 45.460938 C 288.457031 45.460938 288.394531 45.367188 288.394531 44.585938 Z M 288.457031 33.804688 C 288.457031 33.179688 287.988281 32.742188 287.425781 32.742188 C 286.800781 32.742188 286.363281 33.273438 286.363281 33.804688 C 286.363281 34.335938 286.800781 34.867188 287.425781 34.867188 C 287.988281 34.867188 288.457031 34.429688 288.457031 33.804688 Z M 288.457031 33.804688 "/>
<path style=" stroke:none;fill-rule:nonzero;fill:rgb(0%,0%,0%);fill-opacity:1;" d="M 294.835938 42.648438 C 293.085938 42.648438 293.085938 40.648438 293.085938 40.210938 C 293.085938 39.679688 293.117188 39.023438 293.398438 38.523438 C 293.554688 38.304688 294.023438 37.742188 294.835938 37.742188 C 296.554688 37.742188 296.554688 39.710938 296.554688 40.179688 C 296.554688 40.710938 296.554688 41.367188 296.242188 41.867188 C 296.085938 42.085938 295.617188 42.648438 294.835938 42.648438 Z M 292.523438 43.429688 C 292.523438 43.367188 292.523438 42.898438 292.835938 42.492188 C 293.617188 43.054688 294.460938 43.117188 294.835938 43.117188 C 296.679688 43.117188 298.054688 41.742188 298.054688 40.210938 C 298.054688 39.460938 297.742188 38.742188 297.242188 38.273438 C 297.960938 37.585938 298.679688 37.492188 299.023438 37.492188 C 299.085938 37.492188 299.179688 37.492188 299.242188 37.523438 C 299.023438 37.585938 298.898438 37.804688 298.898438 38.054688 C 298.898438 38.398438 299.179688 38.617188 299.492188 38.617188 C 299.679688 38.617188 300.054688 38.492188 300.054688 38.023438 C 300.054688 37.679688 299.835938 37.054688 299.054688 37.054688 C 298.648438 37.054688 297.773438 37.179688 296.929688 37.992188 C 296.085938 37.335938 295.273438 37.273438 294.835938 37.273438 C 292.960938 37.273438 291.585938 38.648438 291.585938 40.179688 C 291.585938 41.054688 292.023438 41.804688 292.523438 42.242188 C 292.273438 42.523438 291.898438 43.179688 291.898438 43.898438 C 291.898438 44.523438 292.179688 45.273438 292.804688 45.679688 C 291.585938 45.992188 290.960938 46.867188 290.960938 47.648438 C 290.960938 49.085938 292.929688 50.179688 295.367188 50.179688 C 297.710938 50.179688 299.773438 49.179688 299.773438 47.617188 C 299.773438 46.929688 299.523438 45.898438 298.492188 45.335938 C 297.429688 44.804688 296.273438 44.804688 295.054688 44.804688 C 294.554688 44.804688 293.710938 44.804688 293.554688 44.773438 C 292.929688 44.679688 292.523438 44.085938 292.523438 43.429688 Z M 295.398438 49.742188 C 293.367188 49.742188 291.992188 48.710938 291.992188 47.648438 C 291.992188 46.742188 292.742188 45.992188 293.617188 45.960938 L 294.804688 45.960938 C 296.523438 45.960938 298.742188 45.960938 298.742188 47.648438 C 298.742188 48.742188 297.335938 49.742188 295.398438 49.742188 Z M 295.398438 49.742188 "/>
<path style=" stroke:none;fill-rule:nonzero;fill:rgb(0%,0%,0%);fill-opacity:1;" d="M 309.519531 39.710938 C 309.519531 38.117188 309.425781 36.523438 308.738281 35.054688 C 307.832031 33.117188 306.175781 32.804688 305.363281 32.804688 C 304.144531 32.804688 302.707031 33.335938 301.863281 35.179688 C 301.238281 36.554688 301.144531 38.117188 301.144531 39.710938 C 301.144531 41.210938 301.207031 42.992188 302.050781 44.523438 C 302.894531 46.117188 304.363281 46.523438 305.332031 46.523438 C 306.394531 46.523438 307.925781 46.117188 308.800781 44.210938 C 309.425781 42.835938 309.519531 41.273438 309.519531 39.710938 Z M 305.332031 46.085938 C 304.550781 46.085938 303.363281 45.585938 303.019531 43.679688 C 302.800781 42.492188 302.800781 40.648438 302.800781 39.460938 C 302.800781 38.179688 302.800781 36.867188 302.957031 35.804688 C 303.332031 33.429688 304.832031 33.242188 305.332031 33.242188 C 305.988281 33.242188 307.300781 33.617188 307.675781 35.585938 C 307.894531 36.710938 307.894531 38.210938 307.894531 39.460938 C 307.894531 40.960938 307.894531 42.304688 307.675781 43.585938 C 307.363281 45.492188 306.238281 46.085938 305.332031 46.085938 Z M 305.332031 46.085938 "/>
<path style=" stroke:none;fill-rule:nonzero;fill:rgb(0%,0%,0%);fill-opacity:1;" d="M 320.023438 41.929688 L 320.773438 32.835938 C 320.773438 32.179688 320.242188 31.804688 319.742188 31.804688 C 319.210938 31.804688 318.679688 32.179688 318.679688 32.835938 L 319.460938 41.898438 C 319.460938 42.210938 319.492188 42.367188 319.742188 42.367188 C 319.929688 42.367188 319.992188 42.273438 320.023438 41.929688 Z M 320.773438 45.023438 C 320.773438 44.460938 320.304688 43.960938 319.742188 43.960938 C 319.148438 43.960938 318.679688 44.460938 318.679688 45.023438 C 318.679688 45.617188 319.148438 46.085938 319.742188 46.085938 C 320.304688 46.085938 320.773438 45.617188 320.773438 45.023438 Z M 320.773438 45.023438 "/>
<path style="fill:none;stroke-width:0.566929;stroke-linecap:butt;stroke-linejoin:miter;stroke:rgb(100%,0%,0%);stroke-opacity:0.5;stroke-miterlimit:10;" d="M -2.834646 123.738466 L 2.835276 118.068544 " transform="matrix(2,0,0,2,6.169291,5.952756)"/>
<path style="fill:none;stroke-width:0.566929;stroke-linecap:butt;stroke-linejoin:miter;stroke:rgb(100%,0%,0%);stroke-opacity:0.5;stroke-miterlimit:10;" d="M 2.835276 123.738466 L -2.834646 118.068544 " transform="matrix(2,0,0,2,6.169291,5.952756)"/>
<path style="fill-rule:nonzero;fill:rgb(50%,50%,0%);fill-opacity:0.1;stroke-width:0.566929;stroke-linecap:butt;stroke-linejoin:miter;stroke:rgb(100%,0%,0%);stroke-opacity:0.5;stroke-miterlimit:10;" d="M -0.000661294 166.32831 L 218.993479 166.32831 L 218.993479 68.314638 L -0.000661294 68.314638 Z M -0.000661294 166.32831 " transform="matrix(2,0,0,2,6.169291,5.952756)"/>
<path style="fill:none;stroke-width:0.566929;stroke-linecap:butt;stroke-linejoin:miter;stroke:rgb(100%,0%,0%);stroke-opacity:0.5;stroke-miterlimit:10;" d="M 43.718089 123.738466 L 49.388011 118.068544 " transform="matrix(2,0,0,2,6.169291,5.952756)"/>
<path style="fill:none;stroke-width:0.566929;stroke-linecap:butt;stroke-linejoin:miter;stroke:rgb(100%,0%,0%);stroke-opacity:0.5;stroke-miterlimit:10;" d="M 49.388011 123.738466 L 43.718089 118.068544 " transform="matrix(2,0,0,2,6.169291,5.952756)"/>
<path style="fill-rule:nonzero;fill:rgb(50%,50%,0%);fill-opacity:0.1;stroke-width:0.566929;stroke-linecap:butt;stroke-linejoin:miter;stroke:rgb(100%,0%,0%);stroke-opacity:0.5;stroke-miterlimit:10;" d="M -0.000661294 166.32831 L 99.899729 166.32831 L 99.899729 73.381044 L -0.000661294 73.381044 Z M -0.000661294 166.32831 " transform="matrix(2,0,0,2,6.169291,5.952756)"/>
<path style="fill:none;stroke-width:0.566929;stroke-linecap:butt;stroke-linejoin:miter;stroke:rgb(100%,0%,0%);stroke-opacity:0.5;stroke-miterlimit:10;" d="M 148.096995 123.738466 L 153.766917 118.068544 " transform="matrix(2,0,0,2,6.169291,5.952756)"/>
<path style="fill:none;stroke-width:0.566929;stroke-linecap:butt;stroke-linejoin:miter;stroke:rgb(100%,0%,0%);stroke-opacity:0.5;stroke-miterlimit:10;" d="M 153.766917 123.738466 L 148.096995 118.068544 " transform="matrix(2,0,0,2,6.169291,5.952756)"/>
<path style="fill-rule:nonzero;fill:rgb(50%,50%,0%);fill-opacity:0.1;stroke-width:0.566929;stroke-linecap:butt;stroke-linejoin:miter;stroke:rgb(100%,0%,0%);stroke-opacity:0.5;stroke-miterlimit:10;" d="M 99.899729 143.336122 L 192.895823 143.336122 L 192.895823 68.314638 L 99.899729 68.314638 Z M 99.899729 143.336122 " transform="matrix(2,0,0,2,6.169291,5.952756)"/>
<path style="fill:none;stroke-width:0.566929;stroke-linecap:butt;stroke-linejoin:miter;stroke:rgb(100%,0%,0%);stroke-opacity:0.5;stroke-miterlimit:10;" d="M 190.059886 123.738466 L 195.729807 118.068544 " transform="matrix(2,0,0,2,6.169291,5.952756)"/>
<path style="fill:none;stroke-width:0.566929;stroke-linecap:butt;stroke-linejoin:miter;stroke:rgb(100%,0%,0%);stroke-opacity:0.5;stroke-miterlimit:10;" d="M 195.729807 123.738466 L 190.059886 118.068544 " transform="matrix(2,0,0,2,6.169291,5.952756)"/>
<path style="fill-rule:nonzero;fill:rgb(50%,50%,0%);fill-opacity:0.1;stroke-width:0.566929;stroke-linecap:butt;stroke-linejoin:miter;stroke:rgb(100%,0%,0%);stroke-opacity:0.5;stroke-miterlimit:10;" d="M 192.895823 122.949403 L 218.993479 122.949403 L 218.993479 112.761903 L 192.895823 112.761903 Z M 192.895823 122.949403 " transform="matrix(2,0,0,2,6.169291,5.952756)"/>
<path style=" stroke:none;fill-rule:nonzero;fill:rgb(0%,0%,0%);fill-opacity:1;" d="M 404.523438 234.695312 C 404.523438 233.976562 404.554688 233.757812 406.085938 233.757812 L 406.585938 233.757812 L 406.585938 233.132812 C 405.867188 233.195312 404.398438 233.195312 403.648438 233.195312 C 402.898438 233.195312 401.398438 233.195312 400.710938 233.132812 L 400.710938 233.757812 L 401.179688 233.757812 C 402.710938 233.757812 402.742188 233.976562 402.742188 234.695312 L 402.742188 239.351562 L 396.804688 239.351562 L 396.804688 234.695312 C 396.804688 233.976562 396.835938 233.757812 398.367188 233.757812 L 398.835938 233.757812 L 398.835938 233.132812 C 398.148438 233.195312 396.679688 233.195312 395.898438 233.195312 C 395.148438 233.195312 393.648438 233.195312 392.960938 233.132812 L 392.960938 233.757812 L 393.429688 233.757812 C 394.960938 233.757812 395.023438 233.976562 395.023438 234.695312 L 395.023438 245.195312 C 395.023438 245.914062 394.960938 246.132812 393.429688 246.132812 L 392.960938 246.132812 L 392.960938 246.757812 C 393.648438 246.695312 395.148438 246.695312 395.898438 246.695312 C 396.648438 246.695312 398.148438 246.695312 398.835938 246.757812 L 398.835938 246.132812 L 398.367188 246.132812 C 396.835938 246.132812 396.804688 245.914062 396.804688 245.195312 L 396.804688 239.976562 L 402.742188 239.976562 L 402.742188 245.195312 C 402.742188 245.914062 402.710938 246.132812 401.179688 246.132812 L 400.710938 246.132812 L 400.710938 246.757812 C 401.398438 246.695312 402.867188 246.695312 403.617188 246.695312 C 404.398438 246.695312 405.867188 246.695312 406.585938 246.757812 L 406.585938 246.132812 L 406.085938 246.132812 C 404.554688 246.132812 404.523438 245.914062 404.523438 245.195312 Z M 404.523438 234.695312 "/>
<path style=" stroke:none;fill-rule:nonzero;fill:rgb(0%,0%,0%);fill-opacity:1;" d="M 410.777344 237.945312 L 407.996094 238.164062 L 407.996094 238.789062 C 409.277344 238.789062 409.464844 238.914062 409.464844 239.882812 L 409.464844 245.257812 C 409.464844 246.132812 409.246094 246.132812 407.902344 246.132812 L 407.902344 246.757812 C 408.527344 246.726562 409.621094 246.695312 410.089844 246.695312 C 410.808594 246.695312 411.496094 246.726562 412.183594 246.757812 L 412.183594 246.132812 C 410.839844 246.132812 410.777344 246.039062 410.777344 245.257812 Z M 410.839844 234.476562 C 410.839844 233.851562 410.371094 233.414062 409.808594 233.414062 C 409.183594 233.414062 408.746094 233.945312 408.746094 234.476562 C 408.746094 235.007812 409.183594 235.539062 409.808594 235.539062 C 410.371094 235.539062 410.839844 235.101562 410.839844 234.476562 Z M 410.839844 234.476562 "/>
<path style=" stroke:none;fill-rule:nonzero;fill:rgb(0%,0%,0%);fill-opacity:1;" d="M 417.21875 243.320312 C 415.46875 243.320312 415.46875 241.320312 415.46875 240.882812 C 415.46875 240.351562 415.5 239.695312 415.78125 239.195312 C 415.9375 238.976562 416.40625 238.414062 417.21875 238.414062 C 418.9375 238.414062 418.9375 240.382812 418.9375 240.851562 C 418.9375 241.382812 418.9375 242.039062 418.625 242.539062 C 418.46875 242.757812 418 243.320312 417.21875 243.320312 Z M 414.90625 244.101562 C 414.90625 244.039062 414.90625 243.570312 415.21875 243.164062 C 416 243.726562 416.84375 243.789062 417.21875 243.789062 C 419.0625 243.789062 420.4375 242.414062 420.4375 240.882812 C 420.4375 240.132812 420.125 239.414062 419.625 238.945312 C 420.34375 238.257812 421.0625 238.164062 421.40625 238.164062 C 421.46875 238.164062 421.5625 238.164062 421.625 238.195312 C 421.40625 238.257812 421.28125 238.476562 421.28125 238.726562 C 421.28125 239.070312 421.5625 239.289062 421.875 239.289062 C 422.0625 239.289062 422.4375 239.164062 422.4375 238.695312 C 422.4375 238.351562 422.21875 237.726562 421.4375 237.726562 C 421.03125 237.726562 420.15625 237.851562 419.3125 238.664062 C 418.46875 238.007812 417.65625 237.945312 417.21875 237.945312 C 415.34375 237.945312 413.96875 239.320312 413.96875 240.851562 C 413.96875 241.726562 414.40625 242.476562 414.90625 242.914062 C 414.65625 243.195312 414.28125 243.851562 414.28125 244.570312 C 414.28125 245.195312 414.5625 245.945312 415.1875 246.351562 C 413.96875 246.664062 413.34375 247.539062 413.34375 248.320312 C 413.34375 249.757812 415.3125 250.851562 417.75 250.851562 C 420.09375 250.851562 422.15625 249.851562 422.15625 248.289062 C 422.15625 247.601562 421.90625 246.570312 420.875 246.007812 C 419.8125 245.476562 418.65625 245.476562 417.4375 245.476562 C 416.9375 245.476562 416.09375 245.476562 415.9375 245.445312 C 415.3125 245.351562 414.90625 244.757812 414.90625 244.101562 Z M 417.78125 250.414062 C 415.75 250.414062 414.375 249.382812 414.375 248.320312 C 414.375 247.414062 415.125 246.664062 416 246.632812 L 417.1875 246.632812 C 418.90625 246.632812 421.125 246.632812 421.125 248.320312 C 421.125 249.414062 419.71875 250.414062 417.78125 250.414062 Z M 417.78125 250.414062 "/>
<path style=" stroke:none;fill-rule:nonzero;fill:rgb(0%,0%,0%);fill-opacity:1;" d="M 428.621094 234.007812 C 428.621094 233.507812 428.621094 233.476562 428.152344 233.476562 C 426.902344 234.757812 425.152344 234.757812 424.527344 234.757812 L 424.527344 235.382812 C 424.933594 235.382812 426.089844 235.382812 427.121094 234.851562 L 427.121094 245.195312 C 427.121094 245.914062 427.058594 246.132812 425.277344 246.132812 L 424.652344 246.132812 L 424.652344 246.757812 C 425.339844 246.695312 427.058594 246.695312 427.871094 246.695312 C 428.652344 246.695312 430.402344 246.695312 431.089844 246.757812 L 431.089844 246.132812 L 430.464844 246.132812 C 428.652344 246.132812 428.621094 245.914062 428.621094 245.195312 Z M 428.621094 234.007812 "/>
<path style=" stroke:none;fill-rule:nonzero;fill:rgb(0%,0%,0%);fill-opacity:1;" d="M 442.40625 242.601562 L 443.15625 233.507812 C 443.15625 232.851562 442.625 232.476562 442.125 232.476562 C 441.59375 232.476562 441.0625 232.851562 441.0625 233.507812 L 441.84375 242.570312 C 441.84375 242.882812 441.875 243.039062 442.125 243.039062 C 442.3125 243.039062 442.375 242.945312 442.40625 242.601562 Z M 443.15625 245.695312 C 443.15625 245.132812 442.6875 244.632812 442.125 244.632812 C 441.53125 244.632812 441.0625 245.132812 441.0625 245.695312 C 441.0625 246.289062 441.53125 246.757812 442.125 246.757812 C 442.6875 246.757812 443.15625 246.289062 443.15625 245.695312 Z M 443.15625 245.695312 "/>
</g>
</svg>
