<?xml version="1.0" encoding="UTF-8"?>
<svg xmlns="http://www.w3.org/2000/svg" xmlns:xlink="http://www.w3.org/1999/xlink" width="393.026876pt" height="249.228376pt" viewBox="0 0 393.026876 249.228376" version="1.1">
<g id="surface77">
<path style="fill:none;stroke-width:0.566929;stroke-linecap:butt;stroke-linejoin:miter;stroke:rgb(100%,0%,0%);stroke-opacity:0.5;stroke-miterlimit:10;" d="M -2.834646 2.834169 L 2.835276 -2.8338 " transform="matrix(2,0,0,2,6.169291,5.952756)"/>
<path style="fill:none;stroke-width:0.566929;stroke-linecap:butt;stroke-linejoin:miter;stroke:rgb(100%,0%,0%);stroke-opacity:0.5;stroke-miterlimit:10;" d="M 2.835276 2.834169 L -2.834646 -2.8338 " transform="matrix(2,0,0,2,6.169291,5.952756)"/>
<path style="fill-rule:nonzero;fill:rgb(50%,50%,0%);fill-opacity:0.1;stroke-width:0.566929;stroke-linecap:butt;stroke-linejoin:miter;stroke:rgb(100%,0%,0%);stroke-opacity:0.5;stroke-miterlimit:10;" d="M -0.000661294 121.386903 L 193.286448 121.386903 L 193.286448 0.000184547 L -0.000661294 0.000184547 Z M -0.000661294 121.386903 " transform="matrix(2,0,0,2,6.169291,5.952756)"/>
<path style="fill:none;stroke-width:0.566929;stroke-linecap:butt;stroke-linejoin:miter;stroke:rgb(100%,0%,0%);stroke-opacity:0.5;stroke-miterlimit:10;" d="M -2.834646 37.461122 L 2.835276 31.7912 " transform="matrix(2,0,0,2,6.169291,5.952756)"/>
<path style="fill:none;stroke-width:0.566929;stroke-linecap:butt;stroke-linejoin:miter;stroke:rgb(100%,0%,0%);stroke-opacity:0.5;stroke-miterlimit:10;" d="M 2.835276 37.461122 L -2.834646 31.7912 " transform="matrix(2,0,0,2,6.169291,5.952756)"/>
<path style="fill-rule:nonzero;fill:rgb(50%,50%,0%);fill-opacity:0.1;stroke-width:0.566929;stroke-linecap:butt;stroke-linejoin:miter;stroke:rgb(100%,0%,0%);stroke-opacity:0.5;stroke-miterlimit:10;" d="M -0.000661294 56.888856 L 193.286448 56.888856 L 193.286448 0.000184547 L -0.000661294 0.000184547 Z M -0.000661294 56.888856 " transform="matrix(2,0,0,2,6.169291,5.952756)"/>
<path style="fill:none;stroke-width:0.566929;stroke-linecap:butt;stroke-linejoin:miter;stroke:rgb(100%,0%,0%);stroke-opacity:0.5;stroke-miterlimit:10;" d="M 47.249339 37.461122 L 52.919261 31.7912 " transform="matrix(2,0,0,2,6.169291,5.952756)"/>
<path style="fill:none;stroke-width:0.566929;stroke-linecap:butt;stroke-linejoin:miter;stroke:rgb(100%,0%,0%);stroke-opacity:0.5;stroke-miterlimit:10;" d="M 52.919261 37.461122 L 47.249339 31.7912 " transform="matrix(2,0,0,2,6.169291,5.952756)"/>
<path style="fill-rule:nonzero;fill:rgb(50%,50%,0%);fill-opacity:0.1;stroke-width:0.566929;stroke-linecap:butt;stroke-linejoin:miter;stroke:rgb(100%,0%,0%);stroke-opacity:0.5;stroke-miterlimit:10;" d="M -0.000661294 56.888856 L 65.501292 56.888856 L 65.501292 16.511903 L -0.000661294 16.511903 Z M -0.000661294 56.888856 " transform="matrix(2,0,0,2,6.169291,5.952756)"/>
<path style="fill:none;stroke-width:0.566929;stroke-linecap:butt;stroke-linejoin:miter;stroke:rgb(100%,0%,0%);stroke-opacity:0.5;stroke-miterlimit:10;" d="M 117.704417 37.461122 L 123.374339 31.7912 " transform="matrix(2,0,0,2,6.169291,5.952756)"/>
<path style="fill:none;stroke-width:0.566929;stroke-linecap:butt;stroke-linejoin:miter;stroke:rgb(100%,0%,0%);stroke-opacity:0.5;stroke-miterlimit:10;" d="M 123.374339 37.461122 L 117.704417 31.7912 " transform="matrix(2,0,0,2,6.169291,5.952756)"/>
<path style="fill-rule:nonzero;fill:rgb(50%,50%,0%);fill-opacity:0.1;stroke-width:0.566929;stroke-linecap:butt;stroke-linejoin:miter;stroke:rgb(100%,0%,0%);stroke-opacity:0.5;stroke-miterlimit:10;" d="M 65.501292 52.470888 L 167.188792 52.470888 L 167.188792 0.000184547 L 65.501292 0.000184547 Z M 65.501292 52.470888 " transform="matrix(2,0,0,2,6.169291,5.952756)"/>
<path style="fill:none;stroke-width:0.566929;stroke-linecap:butt;stroke-linejoin:miter;stroke:rgb(100%,0%,0%);stroke-opacity:0.5;stroke-miterlimit:10;" d="M 164.354807 37.461122 L 170.024729 31.7912 " transform="matrix(2,0,0,2,6.169291,5.952756)"/>
<path style="fill:none;stroke-width:0.566929;stroke-linecap:butt;stroke-linejoin:miter;stroke:rgb(100%,0%,0%);stroke-opacity:0.5;stroke-miterlimit:10;" d="M 170.024729 37.461122 L 164.354807 31.7912 " transform="matrix(2,0,0,2,6.169291,5.952756)"/>
<path style="fill-rule:nonzero;fill:rgb(50%,50%,0%);fill-opacity:0.1;stroke-width:0.566929;stroke-linecap:butt;stroke-linejoin:miter;stroke:rgb(100%,0%,0%);stroke-opacity:0.5;stroke-miterlimit:10;" d="M 167.188792 36.67206 L 193.286448 36.67206 L 193.286448 26.48456 L 167.188792 26.48456 Z M 167.188792 36.67206 " transform="matrix(2,0,0,2,6.169291,5.952756)"/>
<path style=" stroke:none;fill-rule:nonzero;fill:rgb(0%,0%,0%);fill-opacity:1;" d="M 353.109375 62.140625 C 353.109375 61.421875 353.140625 61.203125 354.671875 61.203125 L 355.171875 61.203125 L 355.171875 60.578125 C 354.453125 60.640625 352.984375 60.640625 352.234375 60.640625 C 351.484375 60.640625 349.984375 60.640625 349.296875 60.578125 L 349.296875 61.203125 L 349.765625 61.203125 C 351.296875 61.203125 351.328125 61.421875 351.328125 62.140625 L 351.328125 66.796875 L 345.390625 66.796875 L 345.390625 62.140625 C 345.390625 61.421875 345.421875 61.203125 346.953125 61.203125 L 347.421875 61.203125 L 347.421875 60.578125 C 346.734375 60.640625 345.265625 60.640625 344.484375 60.640625 C 343.734375 60.640625 342.234375 60.640625 341.546875 60.578125 L 341.546875 61.203125 L 342.015625 61.203125 C 343.546875 61.203125 343.609375 61.421875 343.609375 62.140625 L 343.609375 72.640625 C 343.609375 73.359375 343.546875 73.578125 342.015625 73.578125 L 341.546875 73.578125 L 341.546875 74.203125 C 342.234375 74.140625 343.734375 74.140625 344.484375 74.140625 C 345.234375 74.140625 346.734375 74.140625 347.421875 74.203125 L 347.421875 73.578125 L 346.953125 73.578125 C 345.421875 73.578125 345.390625 73.359375 345.390625 72.640625 L 345.390625 67.421875 L 351.328125 67.421875 L 351.328125 72.640625 C 351.328125 73.359375 351.296875 73.578125 349.765625 73.578125 L 349.296875 73.578125 L 349.296875 74.203125 C 349.984375 74.140625 351.453125 74.140625 352.203125 74.140625 C 352.984375 74.140625 354.453125 74.140625 355.171875 74.203125 L 355.171875 73.578125 L 354.671875 73.578125 C 353.140625 73.578125 353.109375 73.359375 353.109375 72.640625 Z M 353.109375 62.140625 "/>
<path style=" stroke:none;fill-rule:nonzero;fill:rgb(0%,0%,0%);fill-opacity:1;" d="M 359.367188 65.390625 L 356.585938 65.609375 L 356.585938 66.234375 C 357.867188 66.234375 358.054688 66.359375 358.054688 67.328125 L 358.054688 72.703125 C 358.054688 73.578125 357.835938 73.578125 356.492188 73.578125 L 356.492188 74.203125 C 357.117188 74.171875 358.210938 74.140625 358.679688 74.140625 C 359.398438 74.140625 360.085938 74.171875 360.773438 74.203125 L 360.773438 73.578125 C 359.429688 73.578125 359.367188 73.484375 359.367188 72.703125 Z M 359.429688 61.921875 C 359.429688 61.296875 358.960938 60.859375 358.398438 60.859375 C 357.773438 60.859375 357.335938 61.390625 357.335938 61.921875 C 357.335938 62.453125 357.773438 62.984375 358.398438 62.984375 C 358.960938 62.984375 359.429688 62.546875 359.429688 61.921875 Z M 359.429688 61.921875 "/>
<path style=" stroke:none;fill-rule:nonzero;fill:rgb(0%,0%,0%);fill-opacity:1;" d="M 365.808594 70.765625 C 364.058594 70.765625 364.058594 68.765625 364.058594 68.328125 C 364.058594 67.796875 364.089844 67.140625 364.371094 66.640625 C 364.527344 66.421875 364.996094 65.859375 365.808594 65.859375 C 367.527344 65.859375 367.527344 67.828125 367.527344 68.296875 C 367.527344 68.828125 367.527344 69.484375 367.214844 69.984375 C 367.058594 70.203125 366.589844 70.765625 365.808594 70.765625 Z M 363.496094 71.546875 C 363.496094 71.484375 363.496094 71.015625 363.808594 70.609375 C 364.589844 71.171875 365.433594 71.234375 365.808594 71.234375 C 367.652344 71.234375 369.027344 69.859375 369.027344 68.328125 C 369.027344 67.578125 368.714844 66.859375 368.214844 66.390625 C 368.933594 65.703125 369.652344 65.609375 369.996094 65.609375 C 370.058594 65.609375 370.152344 65.609375 370.214844 65.640625 C 369.996094 65.703125 369.871094 65.921875 369.871094 66.171875 C 369.871094 66.515625 370.152344 66.734375 370.464844 66.734375 C 370.652344 66.734375 371.027344 66.609375 371.027344 66.140625 C 371.027344 65.796875 370.808594 65.171875 370.027344 65.171875 C 369.621094 65.171875 368.746094 65.296875 367.902344 66.109375 C 367.058594 65.453125 366.246094 65.390625 365.808594 65.390625 C 363.933594 65.390625 362.558594 66.765625 362.558594 68.296875 C 362.558594 69.171875 362.996094 69.921875 363.496094 70.359375 C 363.246094 70.640625 362.871094 71.296875 362.871094 72.015625 C 362.871094 72.640625 363.152344 73.390625 363.777344 73.796875 C 362.558594 74.109375 361.933594 74.984375 361.933594 75.765625 C 361.933594 77.203125 363.902344 78.296875 366.339844 78.296875 C 368.683594 78.296875 370.746094 77.296875 370.746094 75.734375 C 370.746094 75.046875 370.496094 74.015625 369.464844 73.453125 C 368.402344 72.921875 367.246094 72.921875 366.027344 72.921875 C 365.527344 72.921875 364.683594 72.921875 364.527344 72.890625 C 363.902344 72.796875 363.496094 72.203125 363.496094 71.546875 Z M 366.371094 77.859375 C 364.339844 77.859375 362.964844 76.828125 362.964844 75.765625 C 362.964844 74.859375 363.714844 74.109375 364.589844 74.078125 L 365.777344 74.078125 C 367.496094 74.078125 369.714844 74.078125 369.714844 75.765625 C 369.714844 76.859375 368.308594 77.859375 366.371094 77.859375 Z M 366.371094 77.859375 "/>
<path style=" stroke:none;fill-rule:nonzero;fill:rgb(0%,0%,0%);fill-opacity:1;" d="M 380.488281 67.828125 C 380.488281 66.234375 380.394531 64.640625 379.707031 63.171875 C 378.800781 61.234375 377.144531 60.921875 376.332031 60.921875 C 375.113281 60.921875 373.675781 61.453125 372.832031 63.296875 C 372.207031 64.671875 372.113281 66.234375 372.113281 67.828125 C 372.113281 69.328125 372.175781 71.109375 373.019531 72.640625 C 373.863281 74.234375 375.332031 74.640625 376.300781 74.640625 C 377.363281 74.640625 378.894531 74.234375 379.769531 72.328125 C 380.394531 70.953125 380.488281 69.390625 380.488281 67.828125 Z M 376.300781 74.203125 C 375.519531 74.203125 374.332031 73.703125 373.988281 71.796875 C 373.769531 70.609375 373.769531 68.765625 373.769531 67.578125 C 373.769531 66.296875 373.769531 64.984375 373.925781 63.921875 C 374.300781 61.546875 375.800781 61.359375 376.300781 61.359375 C 376.957031 61.359375 378.269531 61.734375 378.644531 63.703125 C 378.863281 64.828125 378.863281 66.328125 378.863281 67.578125 C 378.863281 69.078125 378.863281 70.421875 378.644531 71.703125 C 378.332031 73.609375 377.207031 74.203125 376.300781 74.203125 Z M 376.300781 74.203125 "/>
<path style=" stroke:none;fill-rule:nonzero;fill:rgb(0%,0%,0%);fill-opacity:1;" d="M 390.992188 70.046875 L 391.742188 60.953125 C 391.742188 60.296875 391.210938 59.921875 390.710938 59.921875 C 390.179688 59.921875 389.648438 60.296875 389.648438 60.953125 L 390.429688 70.015625 C 390.429688 70.328125 390.460938 70.484375 390.710938 70.484375 C 390.898438 70.484375 390.960938 70.390625 390.992188 70.046875 Z M 391.742188 73.140625 C 391.742188 72.578125 391.273438 72.078125 390.710938 72.078125 C 390.117188 72.078125 389.648438 72.578125 389.648438 73.140625 C 389.648438 73.734375 390.117188 74.203125 390.710938 74.203125 C 391.273438 74.203125 391.742188 73.734375 391.742188 73.140625 Z M 391.742188 73.140625 "/>
<path style="fill:none;stroke-width:0.566929;stroke-linecap:butt;stroke-linejoin:miter;stroke:rgb(100%,0%,0%);stroke-opacity:0.5;stroke-miterlimit:10;" d="M -2.834646 112.988466 L 2.835276 107.318544 " transform="matrix(2,0,0,2,6.169291,5.952756)"/>
<path style="fill:none;stroke-width:0.566929;stroke-linecap:butt;stroke-linejoin:miter;stroke:rgb(100%,0%,0%);stroke-opacity:0.5;stroke-miterlimit:10;" d="M 2.835276 112.988466 L -2.834646 107.318544 " transform="matrix(2,0,0,2,6.169291,5.952756)"/>
<path style="fill-rule:nonzero;fill:rgb(50%,50%,0%);fill-opacity:0.1;stroke-width:0.566929;stroke-linecap:butt;stroke-linejoin:miter;stroke:rgb(100%,0%,0%);stroke-opacity:0.5;stroke-miterlimit:10;" d="M -0.000661294 121.386903 L 155.200511 121.386903 L 155.200511 56.888856 L -0.000661294 56.888856 Z M -0.000661294 121.386903 " transform="matrix(2,0,0,2,6.169291,5.952756)"/>
<path style="fill:none;stroke-width:0.566929;stroke-linecap:butt;stroke-linejoin:miter;stroke:rgb(100%,0%,0%);stroke-opacity:0.5;stroke-miterlimit:10;" d="M 19.165354 112.988466 L 24.833323 107.318544 " transform="matrix(2,0,0,2,6.169291,5.952756)"/>
<path style="fill:none;stroke-width:0.566929;stroke-linecap:butt;stroke-linejoin:miter;stroke:rgb(100%,0%,0%);stroke-opacity:0.5;stroke-miterlimit:10;" d="M 24.833323 112.988466 L 19.165354 107.318544 " transform="matrix(2,0,0,2,6.169291,5.952756)"/>
<path style="fill-rule:nonzero;fill:rgb(50%,50%,0%);fill-opacity:0.1;stroke-width:0.566929;stroke-linecap:butt;stroke-linejoin:miter;stroke:rgb(100%,0%,0%);stroke-opacity:0.5;stroke-miterlimit:10;" d="M -0.000661294 119.927919 L 53.585276 119.927919 L 53.585276 81.627138 L -0.000661294 81.627138 Z M -0.000661294 119.927919 " transform="matrix(2,0,0,2,6.169291,5.952756)"/>
<path style="fill:none;stroke-width:0.566929;stroke-linecap:butt;stroke-linejoin:miter;stroke:rgb(100%,0%,0%);stroke-opacity:0.5;stroke-miterlimit:10;" d="M 84.548167 112.988466 L 90.218089 107.318544 " transform="matrix(2,0,0,2,6.169291,5.952756)"/>
<path style="fill:none;stroke-width:0.566929;stroke-linecap:butt;stroke-linejoin:miter;stroke:rgb(100%,0%,0%);stroke-opacity:0.5;stroke-miterlimit:10;" d="M 90.218089 112.988466 L 84.548167 107.318544 " transform="matrix(2,0,0,2,6.169291,5.952756)"/>
<path style="fill-rule:nonzero;fill:rgb(50%,50%,0%);fill-opacity:0.1;stroke-width:0.566929;stroke-linecap:butt;stroke-linejoin:miter;stroke:rgb(100%,0%,0%);stroke-opacity:0.5;stroke-miterlimit:10;" d="M 53.585276 121.386903 L 129.102854 121.386903 L 129.102854 56.888856 L 53.585276 56.888856 Z M 53.585276 121.386903 " transform="matrix(2,0,0,2,6.169291,5.952756)"/>
<path style="fill:none;stroke-width:0.566929;stroke-linecap:butt;stroke-linejoin:miter;stroke:rgb(100%,0%,0%);stroke-opacity:0.5;stroke-miterlimit:10;" d="M 126.26887 112.988466 L 131.938792 107.318544 " transform="matrix(2,0,0,2,6.169291,5.952756)"/>
<path style="fill:none;stroke-width:0.566929;stroke-linecap:butt;stroke-linejoin:miter;stroke:rgb(100%,0%,0%);stroke-opacity:0.5;stroke-miterlimit:10;" d="M 131.938792 112.988466 L 126.26887 107.318544 " transform="matrix(2,0,0,2,6.169291,5.952756)"/>
<path style="fill-rule:nonzero;fill:rgb(50%,50%,0%);fill-opacity:0.1;stroke-width:0.566929;stroke-linecap:butt;stroke-linejoin:miter;stroke:rgb(100%,0%,0%);stroke-opacity:0.5;stroke-miterlimit:10;" d="M 129.102854 112.201356 L 155.200511 112.201356 L 155.200511 102.013856 L 129.102854 102.013856 Z M 129.102854 112.201356 " transform="matrix(2,0,0,2,6.169291,5.952756)"/>
<path style=" stroke:none;fill-rule:nonzero;fill:rgb(0%,0%,0%);fill-opacity:1;" d="M 276.9375 213.199219 C 276.9375 212.480469 276.96875 212.261719 278.5 212.261719 L 279 212.261719 L 279 211.636719 C 278.28125 211.699219 276.8125 211.699219 276.0625 211.699219 C 275.3125 211.699219 273.8125 211.699219 273.125 211.636719 L 273.125 212.261719 L 273.59375 212.261719 C 275.125 212.261719 275.15625 212.480469 275.15625 213.199219 L 275.15625 217.855469 L 269.21875 217.855469 L 269.21875 213.199219 C 269.21875 212.480469 269.25 212.261719 270.78125 212.261719 L 271.25 212.261719 L 271.25 211.636719 C 270.5625 211.699219 269.09375 211.699219 268.3125 211.699219 C 267.5625 211.699219 266.0625 211.699219 265.375 211.636719 L 265.375 212.261719 L 265.84375 212.261719 C 267.375 212.261719 267.4375 212.480469 267.4375 213.199219 L 267.4375 223.699219 C 267.4375 224.417969 267.375 224.636719 265.84375 224.636719 L 265.375 224.636719 L 265.375 225.261719 C 266.0625 225.199219 267.5625 225.199219 268.3125 225.199219 C 269.0625 225.199219 270.5625 225.199219 271.25 225.261719 L 271.25 224.636719 L 270.78125 224.636719 C 269.25 224.636719 269.21875 224.417969 269.21875 223.699219 L 269.21875 218.480469 L 275.15625 218.480469 L 275.15625 223.699219 C 275.15625 224.417969 275.125 224.636719 273.59375 224.636719 L 273.125 224.636719 L 273.125 225.261719 C 273.8125 225.199219 275.28125 225.199219 276.03125 225.199219 C 276.8125 225.199219 278.28125 225.199219 279 225.261719 L 279 224.636719 L 278.5 224.636719 C 276.96875 224.636719 276.9375 224.417969 276.9375 223.699219 Z M 276.9375 213.199219 "/>
<path style=" stroke:none;fill-rule:nonzero;fill:rgb(0%,0%,0%);fill-opacity:1;" d="M 283.195312 216.449219 L 280.414062 216.667969 L 280.414062 217.292969 C 281.695312 217.292969 281.882812 217.417969 281.882812 218.386719 L 281.882812 223.761719 C 281.882812 224.636719 281.664062 224.636719 280.320312 224.636719 L 280.320312 225.261719 C 280.945312 225.230469 282.039062 225.199219 282.507812 225.199219 C 283.226562 225.199219 283.914062 225.230469 284.601562 225.261719 L 284.601562 224.636719 C 283.257812 224.636719 283.195312 224.542969 283.195312 223.761719 Z M 283.257812 212.980469 C 283.257812 212.355469 282.789062 211.917969 282.226562 211.917969 C 281.601562 211.917969 281.164062 212.449219 281.164062 212.980469 C 281.164062 213.511719 281.601562 214.042969 282.226562 214.042969 C 282.789062 214.042969 283.257812 213.605469 283.257812 212.980469 Z M 283.257812 212.980469 "/>
<path style=" stroke:none;fill-rule:nonzero;fill:rgb(0%,0%,0%);fill-opacity:1;" d="M 289.636719 221.824219 C 287.886719 221.824219 287.886719 219.824219 287.886719 219.386719 C 287.886719 218.855469 287.917969 218.199219 288.199219 217.699219 C 288.355469 217.480469 288.824219 216.917969 289.636719 216.917969 C 291.355469 216.917969 291.355469 218.886719 291.355469 219.355469 C 291.355469 219.886719 291.355469 220.542969 291.042969 221.042969 C 290.886719 221.261719 290.417969 221.824219 289.636719 221.824219 Z M 287.324219 222.605469 C 287.324219 222.542969 287.324219 222.074219 287.636719 221.667969 C 288.417969 222.230469 289.261719 222.292969 289.636719 222.292969 C 291.480469 222.292969 292.855469 220.917969 292.855469 219.386719 C 292.855469 218.636719 292.542969 217.917969 292.042969 217.449219 C 292.761719 216.761719 293.480469 216.667969 293.824219 216.667969 C 293.886719 216.667969 293.980469 216.667969 294.042969 216.699219 C 293.824219 216.761719 293.699219 216.980469 293.699219 217.230469 C 293.699219 217.574219 293.980469 217.792969 294.292969 217.792969 C 294.480469 217.792969 294.855469 217.667969 294.855469 217.199219 C 294.855469 216.855469 294.636719 216.230469 293.855469 216.230469 C 293.449219 216.230469 292.574219 216.355469 291.730469 217.167969 C 290.886719 216.511719 290.074219 216.449219 289.636719 216.449219 C 287.761719 216.449219 286.386719 217.824219 286.386719 219.355469 C 286.386719 220.230469 286.824219 220.980469 287.324219 221.417969 C 287.074219 221.699219 286.699219 222.355469 286.699219 223.074219 C 286.699219 223.699219 286.980469 224.449219 287.605469 224.855469 C 286.386719 225.167969 285.761719 226.042969 285.761719 226.824219 C 285.761719 228.261719 287.730469 229.355469 290.167969 229.355469 C 292.511719 229.355469 294.574219 228.355469 294.574219 226.792969 C 294.574219 226.105469 294.324219 225.074219 293.292969 224.511719 C 292.230469 223.980469 291.074219 223.980469 289.855469 223.980469 C 289.355469 223.980469 288.511719 223.980469 288.355469 223.949219 C 287.730469 223.855469 287.324219 223.261719 287.324219 222.605469 Z M 290.199219 228.917969 C 288.167969 228.917969 286.792969 227.886719 286.792969 226.824219 C 286.792969 225.917969 287.542969 225.167969 288.417969 225.136719 L 289.605469 225.136719 C 291.324219 225.136719 293.542969 225.136719 293.542969 226.824219 C 293.542969 227.917969 292.136719 228.917969 290.199219 228.917969 Z M 290.199219 228.917969 "/>
<path style=" stroke:none;fill-rule:nonzero;fill:rgb(0%,0%,0%);fill-opacity:1;" d="M 301.035156 212.511719 C 301.035156 212.011719 301.035156 211.980469 300.566406 211.980469 C 299.316406 213.261719 297.566406 213.261719 296.941406 213.261719 L 296.941406 213.886719 C 297.347656 213.886719 298.503906 213.886719 299.535156 213.355469 L 299.535156 223.699219 C 299.535156 224.417969 299.472656 224.636719 297.691406 224.636719 L 297.066406 224.636719 L 297.066406 225.261719 C 297.753906 225.199219 299.472656 225.199219 300.285156 225.199219 C 301.066406 225.199219 302.816406 225.199219 303.503906 225.261719 L 303.503906 224.636719 L 302.878906 224.636719 C 301.066406 224.636719 301.035156 224.417969 301.035156 223.699219 Z M 301.035156 212.511719 "/>
<path style=" stroke:none;fill-rule:nonzero;fill:rgb(0%,0%,0%);fill-opacity:1;" d="M 314.820312 221.105469 L 315.570312 212.011719 C 315.570312 211.355469 315.039062 210.980469 314.539062 210.980469 C 314.007812 210.980469 313.476562 211.355469 313.476562 212.011719 L 314.257812 221.074219 C 314.257812 221.386719 314.289062 221.542969 314.539062 221.542969 C 314.726562 221.542969 314.789062 221.449219 314.820312 221.105469 Z M 315.570312 224.199219 C 315.570312 223.636719 315.101562 223.136719 314.539062 223.136719 C 313.945312 223.136719 313.476562 223.636719 313.476562 224.199219 C 313.476562 224.792969 313.945312 225.261719 314.539062 225.261719 C 315.101562 225.261719 315.570312 224.792969 315.570312 224.199219 Z M 315.570312 224.199219 "/>
</g>
</svg>
