<?xml version="1.0" encoding="UTF-8"?>
<svg xmlns="http://www.w3.org/2000/svg" xmlns:xlink="http://www.w3.org/1999/xlink" width="218.353156pt" height="176.748031pt" viewBox="0 0 218.353156 176.748031" version="1.1">
<g id="surface69">
<path style="fill:none;stroke-width:0.566929;stroke-linecap:butt;stroke-linejoin:miter;stroke:rgb(100%,0%,0%);stroke-opacity:0.5;stroke-miterlimit:10;" d="M -2.8338 2.835276 L 2.834169 -2.834646 " transform="matrix(2,0,0,2,5.952756,6.169291)"/>
<path style="fill:none;stroke-width:0.566929;stroke-linecap:butt;stroke-linejoin:miter;stroke:rgb(100%,0%,0%);stroke-opacity:0.5;stroke-miterlimit:10;" d="M 2.834169 2.835276 L -2.8338 -2.834646 " transform="matrix(2,0,0,2,5.952756,6.169291)"/>
<path style="fill-rule:nonzero;fill:rgb(50%,50%,0%);fill-opacity:0.1;stroke-width:0.566929;stroke-linecap:butt;stroke-linejoin:miter;stroke:rgb(100%,0%,0%);stroke-opacity:0.5;stroke-miterlimit:10;" d="M 0.000184547 85.038401 L 103.115419 85.038401 L 103.115419 -0.000661293 L 0.000184547 -0.000661293 Z M 0.000184547 85.038401 " transform="matrix(2,0,0,2,5.952756,6.169291)"/>
<path style="fill:none;stroke-width:0.566929;stroke-linecap:butt;stroke-linejoin:miter;stroke:rgb(100%,0%,0%);stroke-opacity:0.5;stroke-miterlimit:10;" d="M 6.857606 2.835276 L 12.525575 -2.834646 " transform="matrix(2,0,0,2,5.952756,6.169291)"/>
<path style="fill:none;stroke-width:0.566929;stroke-linecap:butt;stroke-linejoin:miter;stroke:rgb(100%,0%,0%);stroke-opacity:0.5;stroke-miterlimit:10;" d="M 12.525575 2.835276 L 6.857606 -2.834646 " transform="matrix(2,0,0,2,5.952756,6.169291)"/>
<path style="fill-rule:nonzero;fill:rgb(50%,50%,0%);fill-opacity:0.1;stroke-width:0.566929;stroke-linecap:butt;stroke-linejoin:miter;stroke:rgb(100%,0%,0%);stroke-opacity:0.5;stroke-miterlimit:10;" d="M 4.740419 13.700511 L 14.642763 13.700511 L 14.642763 -0.000661293 L 4.740419 -0.000661293 Z M 4.740419 13.700511 " transform="matrix(2,0,0,2,5.952756,6.169291)"/>
<path style="fill:none;stroke-width:0.566929;stroke-linecap:butt;stroke-linejoin:miter;stroke:rgb(100%,0%,0%);stroke-opacity:0.5;stroke-miterlimit:10;" d="M 4.740419 13.700511 L 10.408388 8.030589 " transform="matrix(2,0,0,2,5.952756,6.169291)"/>
<path style="fill:none;stroke-width:0.566929;stroke-linecap:butt;stroke-linejoin:miter;stroke:rgb(100%,0%,0%);stroke-opacity:0.5;stroke-miterlimit:10;" d="M 10.408388 13.700511 L 4.740419 8.030589 " transform="matrix(2,0,0,2,5.952756,6.169291)"/>
<path style="fill-rule:nonzero;fill:rgb(50%,50%,0%);fill-opacity:0.1;stroke-width:0.566929;stroke-linecap:butt;stroke-linejoin:miter;stroke:rgb(100%,0%,0%);stroke-opacity:0.5;stroke-miterlimit:10;" d="M 4.740419 13.700511 L 14.642763 13.700511 L 14.642763 -0.000661293 L 4.740419 -0.000661293 Z M 4.740419 13.700511 " transform="matrix(2,0,0,2,5.952756,6.169291)"/>
<path style="fill:none;stroke-width:0.566929;stroke-linecap:butt;stroke-linejoin:miter;stroke:rgb(100%,0%,0%);stroke-opacity:0.5;stroke-miterlimit:10;" d="M 4.740419 13.700511 L 10.408388 8.030589 " transform="matrix(2,0,0,2,5.952756,6.169291)"/>
<path style="fill:none;stroke-width:0.566929;stroke-linecap:butt;stroke-linejoin:miter;stroke:rgb(100%,0%,0%);stroke-opacity:0.5;stroke-miterlimit:10;" d="M 10.408388 13.700511 L 4.740419 8.030589 " transform="matrix(2,0,0,2,5.952756,6.169291)"/>
<path style="fill-rule:nonzero;fill:rgb(50%,50%,0%);fill-opacity:0.1;stroke-width:0.566929;stroke-linecap:butt;stroke-linejoin:miter;stroke:rgb(100%,0%,0%);stroke-opacity:0.5;stroke-miterlimit:10;" d="M 7.574403 10.866526 L 11.808778 10.866526 L 11.808778 2.835276 L 7.574403 2.835276 Z M 7.574403 10.866526 " transform="matrix(2,0,0,2,5.952756,6.169291)"/>
<path style=" stroke:none;fill-rule:nonzero;fill:rgb(0%,0%,0%);fill-opacity:1;" d="M 24.945312 18.308594 L 24.945312 15.996094 C 24.945312 14.246094 25.882812 13.277344 26.757812 13.277344 C 26.820312 13.277344 27.132812 13.277344 27.414062 13.433594 C 27.195312 13.496094 26.820312 13.777344 26.820312 14.277344 C 26.820312 14.714844 27.132812 15.121094 27.695312 15.121094 C 28.257812 15.121094 28.570312 14.714844 28.570312 14.246094 C 28.570312 13.496094 27.820312 12.839844 26.757812 12.839844 C 25.382812 12.839844 23.664062 13.902344 23.664062 16.027344 L 23.664062 18.308594 L 22.101562 18.308594 L 22.101562 18.933594 L 23.664062 18.933594 L 23.664062 25.402344 C 23.664062 26.277344 23.445312 26.277344 22.132812 26.277344 L 22.132812 26.902344 C 22.914062 26.871094 23.851562 26.839844 24.382812 26.839844 C 25.195312 26.839844 26.132812 26.839844 26.914062 26.902344 L 26.914062 26.277344 L 26.507812 26.277344 C 25.039062 26.277344 25.007812 26.058594 25.007812 25.339844 L 25.007812 18.933594 L 27.257812 18.933594 L 27.257812 18.308594 Z M 24.945312 18.308594 "/>
<path style="fill:none;stroke-width:0.566929;stroke-linecap:butt;stroke-linejoin:miter;stroke:rgb(100%,0%,0%);stroke-opacity:0.5;stroke-miterlimit:10;" d="M 32.881044 2.835276 L 38.550966 -2.834646 " transform="matrix(2,0,0,2,5.952756,6.169291)"/>
<path style="fill:none;stroke-width:0.566929;stroke-linecap:butt;stroke-linejoin:miter;stroke:rgb(100%,0%,0%);stroke-opacity:0.5;stroke-miterlimit:10;" d="M 38.550966 2.835276 L 32.881044 -2.834646 " transform="matrix(2,0,0,2,5.952756,6.169291)"/>
<path style="fill-rule:nonzero;fill:rgb(50%,50%,0%);fill-opacity:0.1;stroke-width:0.566929;stroke-linecap:butt;stroke-linejoin:miter;stroke:rgb(100%,0%,0%);stroke-opacity:0.5;stroke-miterlimit:10;" d="M 27.244325 10.966136 L 44.187685 10.966136 L 44.187685 -0.000661293 L 27.244325 -0.000661293 Z M 27.244325 10.966136 " transform="matrix(2,0,0,2,5.952756,6.169291)"/>
<path style="fill:none;stroke-width:0.566929;stroke-linecap:butt;stroke-linejoin:miter;stroke:rgb(100%,0%,0%);stroke-opacity:0.5;stroke-miterlimit:10;" d="M 27.244325 10.966136 L 32.914247 5.296214 " transform="matrix(2,0,0,2,5.952756,6.169291)"/>
<path style="fill:none;stroke-width:0.566929;stroke-linecap:butt;stroke-linejoin:miter;stroke:rgb(100%,0%,0%);stroke-opacity:0.5;stroke-miterlimit:10;" d="M 32.914247 10.966136 L 27.244325 5.296214 " transform="matrix(2,0,0,2,5.952756,6.169291)"/>
<path style="fill-rule:nonzero;fill:rgb(50%,50%,0%);fill-opacity:0.1;stroke-width:0.566929;stroke-linecap:butt;stroke-linejoin:miter;stroke:rgb(100%,0%,0%);stroke-opacity:0.5;stroke-miterlimit:10;" d="M 27.244325 10.966136 L 44.187685 10.966136 L 44.187685 -0.000661293 L 27.244325 -0.000661293 Z M 27.244325 10.966136 " transform="matrix(2,0,0,2,5.952756,6.169291)"/>
<path style="fill:none;stroke-width:0.566929;stroke-linecap:butt;stroke-linejoin:miter;stroke:rgb(100%,0%,0%);stroke-opacity:0.5;stroke-miterlimit:10;" d="M 27.244325 10.966136 L 32.914247 5.296214 " transform="matrix(2,0,0,2,5.952756,6.169291)"/>
<path style="fill:none;stroke-width:0.566929;stroke-linecap:butt;stroke-linejoin:miter;stroke:rgb(100%,0%,0%);stroke-opacity:0.5;stroke-miterlimit:10;" d="M 32.914247 10.966136 L 27.244325 5.296214 " transform="matrix(2,0,0,2,5.952756,6.169291)"/>
<path style="fill-rule:nonzero;fill:rgb(50%,50%,0%);fill-opacity:0.1;stroke-width:0.566929;stroke-linecap:butt;stroke-linejoin:miter;stroke:rgb(100%,0%,0%);stroke-opacity:0.5;stroke-miterlimit:10;" d="M 30.07831 8.132151 L 41.3537 8.132151 L 41.3537 2.835276 L 30.07831 2.835276 Z M 30.07831 8.132151 " transform="matrix(2,0,0,2,5.952756,6.169291)"/>
<path style=" stroke:none;fill-rule:nonzero;fill:rgb(0%,0%,0%);fill-opacity:1;" d="M 72.578125 16.746094 C 73.171875 15.996094 73.921875 15.027344 74.421875 14.496094 C 75.046875 13.777344 75.859375 13.464844 76.796875 13.464844 L 76.796875 12.839844 C 76.265625 12.871094 75.671875 12.902344 75.140625 12.902344 C 74.546875 12.902344 73.484375 12.871094 73.234375 12.839844 L 73.234375 13.464844 C 73.671875 13.496094 73.828125 13.746094 73.828125 14.089844 C 73.828125 14.402344 73.609375 14.652344 73.515625 14.777344 L 72.296875 16.339844 L 70.734375 14.308594 C 70.546875 14.121094 70.546875 14.089844 70.546875 13.964844 C 70.546875 13.652344 70.859375 13.464844 71.234375 13.464844 L 71.234375 12.839844 C 70.734375 12.871094 69.421875 12.902344 69.078125 12.902344 C 68.671875 12.902344 67.734375 12.871094 67.203125 12.839844 L 67.203125 13.464844 C 68.609375 13.464844 68.609375 13.464844 69.546875 14.683594 L 71.515625 17.246094 L 69.640625 19.621094 C 68.703125 20.777344 67.515625 20.808594 67.109375 20.808594 L 67.109375 21.433594 C 67.609375 21.402344 68.234375 21.371094 68.765625 21.371094 C 69.328125 21.371094 70.171875 21.402344 70.640625 21.433594 L 70.640625 20.808594 C 70.203125 20.746094 70.078125 20.496094 70.078125 20.183594 C 70.078125 19.746094 70.640625 19.089844 71.859375 17.652344 L 73.390625 19.652344 C 73.546875 19.871094 73.796875 20.183594 73.796875 20.308594 C 73.796875 20.496094 73.609375 20.808594 73.078125 20.808594 L 73.078125 21.433594 C 73.671875 21.402344 74.796875 21.371094 75.234375 21.371094 C 75.765625 21.371094 76.546875 21.402344 77.140625 21.433594 L 77.140625 20.808594 C 76.078125 20.808594 75.703125 20.777344 75.265625 20.183594 Z M 72.578125 16.746094 "/>
<path style=" stroke:none;fill-rule:nonzero;fill:rgb(0%,0%,0%);fill-opacity:1;" d="M 83.097656 16.746094 C 83.691406 15.996094 84.441406 15.027344 84.941406 14.496094 C 85.566406 13.777344 86.378906 13.464844 87.316406 13.464844 L 87.316406 12.839844 C 86.785156 12.871094 86.191406 12.902344 85.660156 12.902344 C 85.066406 12.902344 84.003906 12.871094 83.753906 12.839844 L 83.753906 13.464844 C 84.191406 13.496094 84.347656 13.746094 84.347656 14.089844 C 84.347656 14.402344 84.128906 14.652344 84.035156 14.777344 L 82.816406 16.339844 L 81.253906 14.308594 C 81.066406 14.121094 81.066406 14.089844 81.066406 13.964844 C 81.066406 13.652344 81.378906 13.464844 81.753906 13.464844 L 81.753906 12.839844 C 81.253906 12.871094 79.941406 12.902344 79.597656 12.902344 C 79.191406 12.902344 78.253906 12.871094 77.722656 12.839844 L 77.722656 13.464844 C 79.128906 13.464844 79.128906 13.464844 80.066406 14.683594 L 82.035156 17.246094 L 80.160156 19.621094 C 79.222656 20.777344 78.035156 20.808594 77.628906 20.808594 L 77.628906 21.433594 C 78.128906 21.402344 78.753906 21.371094 79.285156 21.371094 C 79.847656 21.371094 80.691406 21.402344 81.160156 21.433594 L 81.160156 20.808594 C 80.722656 20.746094 80.597656 20.496094 80.597656 20.183594 C 80.597656 19.746094 81.160156 19.089844 82.378906 17.652344 L 83.910156 19.652344 C 84.066406 19.871094 84.316406 20.183594 84.316406 20.308594 C 84.316406 20.496094 84.128906 20.808594 83.597656 20.808594 L 83.597656 21.433594 C 84.191406 21.402344 85.316406 21.371094 85.753906 21.371094 C 86.285156 21.371094 87.066406 21.402344 87.660156 21.433594 L 87.660156 20.808594 C 86.597656 20.808594 86.222656 20.777344 85.785156 20.183594 Z M 83.097656 16.746094 "/>
<path style="fill:none;stroke-width:0.566929;stroke-linecap:butt;stroke-linejoin:miter;stroke:rgb(100%,0%,0%);stroke-opacity:0.5;stroke-miterlimit:10;" d="M 74.748231 2.835276 L 80.4162 -2.834646 " transform="matrix(2,0,0,2,5.952756,6.169291)"/>
<path style="fill:none;stroke-width:0.566929;stroke-linecap:butt;stroke-linejoin:miter;stroke:rgb(100%,0%,0%);stroke-opacity:0.5;stroke-miterlimit:10;" d="M 80.4162 2.835276 L 74.748231 -2.834646 " transform="matrix(2,0,0,2,5.952756,6.169291)"/>
<path style="fill-rule:nonzero;fill:rgb(50%,50%,0%);fill-opacity:0.1;stroke-width:0.566929;stroke-linecap:butt;stroke-linejoin:miter;stroke:rgb(100%,0%,0%);stroke-opacity:0.5;stroke-miterlimit:10;" d="M 67.92206 11.196604 L 87.242372 11.196604 L 87.242372 -0.000661293 L 67.92206 -0.000661293 Z M 67.92206 11.196604 " transform="matrix(2,0,0,2,5.952756,6.169291)"/>
<path style="fill:none;stroke-width:0.566929;stroke-linecap:butt;stroke-linejoin:miter;stroke:rgb(100%,0%,0%);stroke-opacity:0.5;stroke-miterlimit:10;" d="M 67.92206 11.138011 L 73.591981 5.468089 " transform="matrix(2,0,0,2,5.952756,6.169291)"/>
<path style="fill:none;stroke-width:0.566929;stroke-linecap:butt;stroke-linejoin:miter;stroke:rgb(100%,0%,0%);stroke-opacity:0.5;stroke-miterlimit:10;" d="M 73.591981 11.138011 L 67.92206 5.468089 " transform="matrix(2,0,0,2,5.952756,6.169291)"/>
<path style="fill-rule:nonzero;fill:rgb(50%,50%,0%);fill-opacity:0.1;stroke-width:0.566929;stroke-linecap:butt;stroke-linejoin:miter;stroke:rgb(100%,0%,0%);stroke-opacity:0.5;stroke-miterlimit:10;" d="M 67.92206 11.196604 L 87.242372 11.196604 L 87.242372 -0.000661293 L 67.92206 -0.000661293 Z M 67.92206 11.196604 " transform="matrix(2,0,0,2,5.952756,6.169291)"/>
<path style="fill:none;stroke-width:0.566929;stroke-linecap:butt;stroke-linejoin:miter;stroke:rgb(100%,0%,0%);stroke-opacity:0.5;stroke-miterlimit:10;" d="M 67.92206 11.138011 L 73.591981 5.468089 " transform="matrix(2,0,0,2,5.952756,6.169291)"/>
<path style="fill:none;stroke-width:0.566929;stroke-linecap:butt;stroke-linejoin:miter;stroke:rgb(100%,0%,0%);stroke-opacity:0.5;stroke-miterlimit:10;" d="M 73.591981 11.138011 L 67.92206 5.468089 " transform="matrix(2,0,0,2,5.952756,6.169291)"/>
<path style="fill-rule:nonzero;fill:rgb(50%,50%,0%);fill-opacity:0.1;stroke-width:0.566929;stroke-linecap:butt;stroke-linejoin:miter;stroke:rgb(100%,0%,0%);stroke-opacity:0.5;stroke-miterlimit:10;" d="M 70.756044 8.360667 L 84.408388 8.360667 L 84.408388 2.835276 L 70.756044 2.835276 Z M 70.756044 8.360667 " transform="matrix(2,0,0,2,5.952756,6.169291)"/>
<path style=" stroke:none;fill-rule:nonzero;fill:rgb(0%,0%,0%);fill-opacity:1;" d="M 150.121094 17.433594 C 150.121094 14.183594 151.746094 13.339844 152.808594 13.339844 C 152.996094 13.339844 154.246094 13.371094 154.933594 14.089844 C 154.121094 14.152344 153.996094 14.746094 153.996094 14.996094 C 153.996094 15.527344 154.371094 15.902344 154.902344 15.902344 C 155.433594 15.902344 155.839844 15.589844 155.839844 14.964844 C 155.839844 13.621094 154.308594 12.839844 152.777344 12.839844 C 150.277344 12.839844 148.464844 14.996094 148.464844 17.464844 C 148.464844 20.027344 150.433594 21.996094 152.746094 21.996094 C 155.402344 21.996094 156.058594 19.589844 156.058594 19.402344 C 156.058594 19.214844 155.839844 19.214844 155.777344 19.214844 C 155.621094 19.214844 155.558594 19.277344 155.527344 19.402344 C 154.964844 21.246094 153.652344 21.496094 152.933594 21.496094 C 151.871094 21.496094 150.121094 20.652344 150.121094 17.433594 Z M 150.121094 17.433594 "/>
<path style=" stroke:none;fill-rule:nonzero;fill:rgb(0%,0%,0%);fill-opacity:1;" d="M 158.976562 17.433594 C 158.976562 14.183594 160.601562 13.339844 161.664062 13.339844 C 161.851562 13.339844 163.101562 13.371094 163.789062 14.089844 C 162.976562 14.152344 162.851562 14.746094 162.851562 14.996094 C 162.851562 15.527344 163.226562 15.902344 163.757812 15.902344 C 164.289062 15.902344 164.695312 15.589844 164.695312 14.964844 C 164.695312 13.621094 163.164062 12.839844 161.632812 12.839844 C 159.132812 12.839844 157.320312 14.996094 157.320312 17.464844 C 157.320312 20.027344 159.289062 21.996094 161.601562 21.996094 C 164.257812 21.996094 164.914062 19.589844 164.914062 19.402344 C 164.914062 19.214844 164.695312 19.214844 164.632812 19.214844 C 164.476562 19.214844 164.414062 19.277344 164.382812 19.402344 C 163.820312 21.246094 162.507812 21.496094 161.789062 21.496094 C 160.726562 21.496094 158.976562 20.652344 158.976562 17.433594 Z M 158.976562 17.433594 "/>
<path style=" stroke:none;fill-rule:nonzero;fill:rgb(0%,0%,0%);fill-opacity:1;" d="M 167.832031 17.433594 C 167.832031 14.183594 169.457031 13.339844 170.519531 13.339844 C 170.707031 13.339844 171.957031 13.371094 172.644531 14.089844 C 171.832031 14.152344 171.707031 14.746094 171.707031 14.996094 C 171.707031 15.527344 172.082031 15.902344 172.613281 15.902344 C 173.144531 15.902344 173.550781 15.589844 173.550781 14.964844 C 173.550781 13.621094 172.019531 12.839844 170.488281 12.839844 C 167.988281 12.839844 166.175781 14.996094 166.175781 17.464844 C 166.175781 20.027344 168.144531 21.996094 170.457031 21.996094 C 173.113281 21.996094 173.769531 19.589844 173.769531 19.402344 C 173.769531 19.214844 173.550781 19.214844 173.488281 19.214844 C 173.332031 19.214844 173.269531 19.277344 173.238281 19.402344 C 172.675781 21.246094 171.363281 21.496094 170.644531 21.496094 C 169.582031 21.496094 167.832031 20.652344 167.832031 17.433594 Z M 167.832031 17.433594 "/>
<path style="fill:none;stroke-width:0.566929;stroke-linecap:butt;stroke-linejoin:miter;stroke:rgb(100%,0%,0%);stroke-opacity:0.5;stroke-miterlimit:10;" d="M 100.281435 2.835276 L 105.949403 -2.834646 " transform="matrix(2,0,0,2,5.952756,6.169291)"/>
<path style="fill:none;stroke-width:0.566929;stroke-linecap:butt;stroke-linejoin:miter;stroke:rgb(100%,0%,0%);stroke-opacity:0.5;stroke-miterlimit:10;" d="M 105.949403 2.835276 L 100.281435 -2.834646 " transform="matrix(2,0,0,2,5.952756,6.169291)"/>
<path style="fill:none;stroke-width:0.566929;stroke-linecap:butt;stroke-linejoin:miter;stroke:rgb(100%,0%,0%);stroke-opacity:0.5;stroke-miterlimit:10;" d="M 103.115419 28.346995 L 103.115419 -0.000661293 Z M 103.115419 28.346995 " transform="matrix(2,0,0,2,5.952756,6.169291)"/>
<path style="fill:none;stroke-width:0.566929;stroke-linecap:butt;stroke-linejoin:miter;stroke:rgb(100%,0%,0%);stroke-opacity:0.5;stroke-miterlimit:10;" d="M 6.857606 31.180979 L 12.525575 25.511057 " transform="matrix(2,0,0,2,5.952756,6.169291)"/>
<path style="fill:none;stroke-width:0.566929;stroke-linecap:butt;stroke-linejoin:miter;stroke:rgb(100%,0%,0%);stroke-opacity:0.5;stroke-miterlimit:10;" d="M 12.525575 31.180979 L 6.857606 25.511057 " transform="matrix(2,0,0,2,5.952756,6.169291)"/>
<path style="fill-rule:nonzero;fill:rgb(50%,50%,0%);fill-opacity:0.1;stroke-width:0.566929;stroke-linecap:butt;stroke-linejoin:miter;stroke:rgb(100%,0%,0%);stroke-opacity:0.5;stroke-miterlimit:10;" d="M 3.357606 42.046214 L 16.025575 42.046214 L 16.025575 28.346995 L 3.357606 28.346995 Z M 3.357606 42.046214 " transform="matrix(2,0,0,2,5.952756,6.169291)"/>
<path style="fill:none;stroke-width:0.566929;stroke-linecap:butt;stroke-linejoin:miter;stroke:rgb(100%,0%,0%);stroke-opacity:0.5;stroke-miterlimit:10;" d="M 3.357606 42.046214 L 9.025575 36.378245 " transform="matrix(2,0,0,2,5.952756,6.169291)"/>
<path style="fill:none;stroke-width:0.566929;stroke-linecap:butt;stroke-linejoin:miter;stroke:rgb(100%,0%,0%);stroke-opacity:0.5;stroke-miterlimit:10;" d="M 9.025575 42.046214 L 3.357606 36.378245 " transform="matrix(2,0,0,2,5.952756,6.169291)"/>
<path style="fill-rule:nonzero;fill:rgb(50%,50%,0%);fill-opacity:0.1;stroke-width:0.566929;stroke-linecap:butt;stroke-linejoin:miter;stroke:rgb(100%,0%,0%);stroke-opacity:0.5;stroke-miterlimit:10;" d="M 3.357606 42.046214 L 16.025575 42.046214 L 16.025575 28.346995 L 3.357606 28.346995 Z M 3.357606 42.046214 " transform="matrix(2,0,0,2,5.952756,6.169291)"/>
<path style="fill:none;stroke-width:0.566929;stroke-linecap:butt;stroke-linejoin:miter;stroke:rgb(100%,0%,0%);stroke-opacity:0.5;stroke-miterlimit:10;" d="M 3.357606 42.046214 L 9.025575 36.378245 " transform="matrix(2,0,0,2,5.952756,6.169291)"/>
<path style="fill:none;stroke-width:0.566929;stroke-linecap:butt;stroke-linejoin:miter;stroke:rgb(100%,0%,0%);stroke-opacity:0.5;stroke-miterlimit:10;" d="M 9.025575 42.046214 L 3.357606 36.378245 " transform="matrix(2,0,0,2,5.952756,6.169291)"/>
<path style="fill-rule:nonzero;fill:rgb(50%,50%,0%);fill-opacity:0.1;stroke-width:0.566929;stroke-linecap:butt;stroke-linejoin:miter;stroke:rgb(100%,0%,0%);stroke-opacity:0.5;stroke-miterlimit:10;" d="M 6.191591 39.212229 L 13.191591 39.212229 L 13.191591 31.180979 L 6.191591 31.180979 Z M 6.191591 39.212229 " transform="matrix(2,0,0,2,5.952756,6.169291)"/>
<path style=" stroke:none;fill-rule:nonzero;fill:rgb(0%,0%,0%);fill-opacity:1;" d="M 27.742188 75.625 L 30.023438 75.625 L 30.023438 75 L 27.679688 75 L 27.679688 72.6875 C 27.679688 70.90625 28.648438 69.96875 29.523438 69.96875 C 29.585938 69.96875 29.898438 69.96875 30.179688 70.125 C 29.960938 70.1875 29.585938 70.46875 29.585938 70.96875 C 29.585938 71.40625 29.898438 71.8125 30.460938 71.8125 C 31.023438 71.8125 31.335938 71.40625 31.335938 70.9375 C 31.335938 70.21875 30.617188 69.53125 29.523438 69.53125 C 28.335938 69.53125 27.460938 70.28125 27.367188 70.375 C 26.773438 69.625 25.648438 69.53125 25.117188 69.53125 C 23.242188 69.53125 20.929688 70.5625 20.929688 72.71875 L 20.929688 75 L 19.335938 75 L 19.335938 75.625 L 20.929688 75.625 L 20.929688 82.09375 C 20.929688 82.96875 20.710938 82.96875 19.367188 82.96875 L 19.367188 83.59375 C 20.023438 83.5625 21.085938 83.53125 21.585938 83.53125 C 22.085938 83.53125 23.054688 83.5625 23.804688 83.59375 L 23.804688 82.96875 C 22.460938 82.96875 22.242188 82.96875 22.242188 82.09375 L 22.242188 75.625 L 26.429688 75.625 L 26.429688 82.09375 C 26.429688 82.96875 26.210938 82.96875 24.867188 82.96875 L 24.867188 83.59375 C 25.648438 83.5625 26.585938 83.53125 27.148438 83.53125 C 27.929688 83.53125 28.867188 83.53125 29.679688 83.59375 L 29.679688 82.96875 L 29.242188 82.96875 C 27.773438 82.96875 27.742188 82.75 27.742188 82.03125 Z M 22.179688 75 L 22.179688 72.75 C 22.179688 70.8125 23.804688 69.96875 25.117188 69.96875 C 26.085938 69.96875 26.648438 70.34375 26.648438 70.34375 L 26.648438 70.375 C 26.335938 70.40625 25.929688 70.6875 25.929688 71.21875 C 25.929688 71.34375 25.929688 71.84375 26.492188 72.03125 C 26.429688 72.28125 26.429688 72.46875 26.429688 72.71875 L 26.429688 75 Z M 22.179688 75 "/>
<path style="fill:none;stroke-width:0.566929;stroke-linecap:butt;stroke-linejoin:miter;stroke:rgb(100%,0%,0%);stroke-opacity:0.5;stroke-miterlimit:10;" d="M 32.881044 31.180979 L 38.550966 25.511057 " transform="matrix(2,0,0,2,5.952756,6.169291)"/>
<path style="fill:none;stroke-width:0.566929;stroke-linecap:butt;stroke-linejoin:miter;stroke:rgb(100%,0%,0%);stroke-opacity:0.5;stroke-miterlimit:10;" d="M 38.550966 31.180979 L 32.881044 25.511057 " transform="matrix(2,0,0,2,5.952756,6.169291)"/>
<path style="fill-rule:nonzero;fill:rgb(50%,50%,0%);fill-opacity:0.1;stroke-width:0.566929;stroke-linecap:butt;stroke-linejoin:miter;stroke:rgb(100%,0%,0%);stroke-opacity:0.5;stroke-miterlimit:10;" d="M 21.625185 41.993479 L 49.806825 41.993479 L 49.806825 28.346995 L 21.625185 28.346995 Z M 21.625185 41.993479 " transform="matrix(2,0,0,2,5.952756,6.169291)"/>
<path style="fill:none;stroke-width:0.566929;stroke-linecap:butt;stroke-linejoin:miter;stroke:rgb(100%,0%,0%);stroke-opacity:0.5;stroke-miterlimit:10;" d="M 21.625185 41.936839 L 27.295106 36.26887 " transform="matrix(2,0,0,2,5.952756,6.169291)"/>
<path style="fill:none;stroke-width:0.566929;stroke-linecap:butt;stroke-linejoin:miter;stroke:rgb(100%,0%,0%);stroke-opacity:0.5;stroke-miterlimit:10;" d="M 27.295106 41.936839 L 21.625185 36.26887 " transform="matrix(2,0,0,2,5.952756,6.169291)"/>
<path style="fill-rule:nonzero;fill:rgb(50%,50%,0%);fill-opacity:0.1;stroke-width:0.566929;stroke-linecap:butt;stroke-linejoin:miter;stroke:rgb(100%,0%,0%);stroke-opacity:0.5;stroke-miterlimit:10;" d="M 21.625185 41.993479 L 49.806825 41.993479 L 49.806825 28.346995 L 21.625185 28.346995 Z M 21.625185 41.993479 " transform="matrix(2,0,0,2,5.952756,6.169291)"/>
<path style="fill:none;stroke-width:0.566929;stroke-linecap:butt;stroke-linejoin:miter;stroke:rgb(100%,0%,0%);stroke-opacity:0.5;stroke-miterlimit:10;" d="M 21.625185 41.936839 L 27.295106 36.26887 " transform="matrix(2,0,0,2,5.952756,6.169291)"/>
<path style="fill:none;stroke-width:0.566929;stroke-linecap:butt;stroke-linejoin:miter;stroke:rgb(100%,0%,0%);stroke-opacity:0.5;stroke-miterlimit:10;" d="M 27.295106 41.936839 L 21.625185 36.26887 " transform="matrix(2,0,0,2,5.952756,6.169291)"/>
<path style="fill-rule:nonzero;fill:rgb(50%,50%,0%);fill-opacity:0.1;stroke-width:0.566929;stroke-linecap:butt;stroke-linejoin:miter;stroke:rgb(100%,0%,0%);stroke-opacity:0.5;stroke-miterlimit:10;" d="M 24.461122 39.159495 L 46.972841 39.159495 L 46.972841 31.180979 L 24.461122 31.180979 Z M 24.461122 39.159495 " transform="matrix(2,0,0,2,5.952756,6.169291)"/>
<path style=" stroke:none;fill-rule:nonzero;fill:rgb(0%,0%,0%);fill-opacity:1;" d="M 58.75 75.84375 L 58.75 69.53125 L 55.875 69.75 L 55.875 70.375 C 57.28125 70.375 57.4375 70.5 57.4375 71.5 L 57.4375 83.375 L 57.9375 83.375 C 57.9375 83.34375 58.09375 83.0625 58.65625 82.125 C 58.9375 82.59375 59.78125 83.59375 61.25 83.59375 C 63.625 83.59375 65.6875 81.625 65.6875 79.0625 C 65.6875 76.53125 63.75 74.5625 61.46875 74.5625 C 59.90625 74.5625 59.0625 75.5 58.75 75.84375 Z M 58.8125 81.09375 L 58.8125 77 C 58.8125 76.625 58.8125 76.59375 59.03125 76.28125 C 59.8125 75.15625 60.90625 75 61.375 75 C 62.28125 75 63 75.53125 63.46875 76.28125 C 64 77.09375 64.03125 78.21875 64.03125 79.0625 C 64.03125 79.78125 64 80.96875 63.4375 81.875 C 63 82.5 62.25 83.15625 61.1875 83.15625 C 60.28125 83.15625 59.5625 82.6875 59.09375 81.9375 C 58.8125 81.53125 58.8125 81.46875 58.8125 81.09375 Z M 58.8125 81.09375 "/>
<path style=" stroke:none;fill-rule:nonzero;fill:rgb(0%,0%,0%);fill-opacity:1;" d="M 69.820312 75.84375 L 69.820312 69.53125 L 66.945312 69.75 L 66.945312 70.375 C 68.351562 70.375 68.507812 70.5 68.507812 71.5 L 68.507812 83.375 L 69.007812 83.375 C 69.007812 83.34375 69.164062 83.0625 69.726562 82.125 C 70.007812 82.59375 70.851562 83.59375 72.320312 83.59375 C 74.695312 83.59375 76.757812 81.625 76.757812 79.0625 C 76.757812 76.53125 74.820312 74.5625 72.539062 74.5625 C 70.976562 74.5625 70.132812 75.5 69.820312 75.84375 Z M 69.882812 81.09375 L 69.882812 77 C 69.882812 76.625 69.882812 76.59375 70.101562 76.28125 C 70.882812 75.15625 71.976562 75 72.445312 75 C 73.351562 75 74.070312 75.53125 74.539062 76.28125 C 75.070312 77.09375 75.101562 78.21875 75.101562 79.0625 C 75.101562 79.78125 75.070312 80.96875 74.507812 81.875 C 74.070312 82.5 73.320312 83.15625 72.257812 83.15625 C 71.351562 83.15625 70.632812 82.6875 70.164062 81.9375 C 69.882812 81.53125 69.882812 81.46875 69.882812 81.09375 Z M 69.882812 81.09375 "/>
<path style=" stroke:none;fill-rule:nonzero;fill:rgb(0%,0%,0%);fill-opacity:1;" d="M 80.890625 75.84375 L 80.890625 69.53125 L 78.015625 69.75 L 78.015625 70.375 C 79.421875 70.375 79.578125 70.5 79.578125 71.5 L 79.578125 83.375 L 80.078125 83.375 C 80.078125 83.34375 80.234375 83.0625 80.796875 82.125 C 81.078125 82.59375 81.921875 83.59375 83.390625 83.59375 C 85.765625 83.59375 87.828125 81.625 87.828125 79.0625 C 87.828125 76.53125 85.890625 74.5625 83.609375 74.5625 C 82.046875 74.5625 81.203125 75.5 80.890625 75.84375 Z M 80.953125 81.09375 L 80.953125 77 C 80.953125 76.625 80.953125 76.59375 81.171875 76.28125 C 81.953125 75.15625 83.046875 75 83.515625 75 C 84.421875 75 85.140625 75.53125 85.609375 76.28125 C 86.140625 77.09375 86.171875 78.21875 86.171875 79.0625 C 86.171875 79.78125 86.140625 80.96875 85.578125 81.875 C 85.140625 82.5 84.390625 83.15625 83.328125 83.15625 C 82.421875 83.15625 81.703125 82.6875 81.234375 81.9375 C 80.953125 81.53125 80.953125 81.46875 80.953125 81.09375 Z M 80.953125 81.09375 "/>
<path style=" stroke:none;fill-rule:nonzero;fill:rgb(0%,0%,0%);fill-opacity:1;" d="M 91.960938 75.84375 L 91.960938 69.53125 L 89.085938 69.75 L 89.085938 70.375 C 90.492188 70.375 90.648438 70.5 90.648438 71.5 L 90.648438 83.375 L 91.148438 83.375 C 91.148438 83.34375 91.304688 83.0625 91.867188 82.125 C 92.148438 82.59375 92.992188 83.59375 94.460938 83.59375 C 96.835938 83.59375 98.898438 81.625 98.898438 79.0625 C 98.898438 76.53125 96.960938 74.5625 94.679688 74.5625 C 93.117188 74.5625 92.273438 75.5 91.960938 75.84375 Z M 92.023438 81.09375 L 92.023438 77 C 92.023438 76.625 92.023438 76.59375 92.242188 76.28125 C 93.023438 75.15625 94.117188 75 94.585938 75 C 95.492188 75 96.210938 75.53125 96.679688 76.28125 C 97.210938 77.09375 97.242188 78.21875 97.242188 79.0625 C 97.242188 79.78125 97.210938 80.96875 96.648438 81.875 C 96.210938 82.5 95.460938 83.15625 94.398438 83.15625 C 93.492188 83.15625 92.773438 82.6875 92.304688 81.9375 C 92.023438 81.53125 92.023438 81.46875 92.023438 81.09375 Z M 92.023438 81.09375 "/>
<path style="fill:none;stroke-width:0.566929;stroke-linecap:butt;stroke-linejoin:miter;stroke:rgb(100%,0%,0%);stroke-opacity:0.5;stroke-miterlimit:10;" d="M 74.748231 31.180979 L 80.4162 25.511057 " transform="matrix(2,0,0,2,5.952756,6.169291)"/>
<path style="fill:none;stroke-width:0.566929;stroke-linecap:butt;stroke-linejoin:miter;stroke:rgb(100%,0%,0%);stroke-opacity:0.5;stroke-miterlimit:10;" d="M 80.4162 31.180979 L 74.748231 25.511057 " transform="matrix(2,0,0,2,5.952756,6.169291)"/>
<path style="fill-rule:nonzero;fill:rgb(50%,50%,0%);fill-opacity:0.1;stroke-width:0.566929;stroke-linecap:butt;stroke-linejoin:miter;stroke:rgb(100%,0%,0%);stroke-opacity:0.5;stroke-miterlimit:10;" d="M 59.521669 40.604807 L 95.642763 40.604807 L 95.642763 28.346995 L 59.521669 28.346995 Z M 59.521669 40.604807 " transform="matrix(2,0,0,2,5.952756,6.169291)"/>
<path style="fill:none;stroke-width:0.566929;stroke-linecap:butt;stroke-linejoin:miter;stroke:rgb(100%,0%,0%);stroke-opacity:0.5;stroke-miterlimit:10;" d="M 59.521669 39.530589 L 65.189638 33.86262 " transform="matrix(2,0,0,2,5.952756,6.169291)"/>
<path style="fill:none;stroke-width:0.566929;stroke-linecap:butt;stroke-linejoin:miter;stroke:rgb(100%,0%,0%);stroke-opacity:0.5;stroke-miterlimit:10;" d="M 65.189638 39.530589 L 59.521669 33.86262 " transform="matrix(2,0,0,2,5.952756,6.169291)"/>
<path style="fill-rule:nonzero;fill:rgb(50%,50%,0%);fill-opacity:0.1;stroke-width:0.566929;stroke-linecap:butt;stroke-linejoin:miter;stroke:rgb(100%,0%,0%);stroke-opacity:0.5;stroke-miterlimit:10;" d="M 59.521669 40.604807 L 95.642763 40.604807 L 95.642763 28.346995 L 59.521669 28.346995 Z M 59.521669 40.604807 " transform="matrix(2,0,0,2,5.952756,6.169291)"/>
<path style="fill:none;stroke-width:0.566929;stroke-linecap:butt;stroke-linejoin:miter;stroke:rgb(100%,0%,0%);stroke-opacity:0.5;stroke-miterlimit:10;" d="M 59.521669 39.530589 L 65.189638 33.86262 " transform="matrix(2,0,0,2,5.952756,6.169291)"/>
<path style="fill:none;stroke-width:0.566929;stroke-linecap:butt;stroke-linejoin:miter;stroke:rgb(100%,0%,0%);stroke-opacity:0.5;stroke-miterlimit:10;" d="M 65.189638 39.530589 L 59.521669 33.86262 " transform="matrix(2,0,0,2,5.952756,6.169291)"/>
<path style="fill-rule:nonzero;fill:rgb(50%,50%,0%);fill-opacity:0.1;stroke-width:0.566929;stroke-linecap:butt;stroke-linejoin:miter;stroke:rgb(100%,0%,0%);stroke-opacity:0.5;stroke-miterlimit:10;" d="M 62.355653 37.76887 L 92.808778 37.76887 L 92.808778 31.180979 L 62.355653 31.180979 Z M 62.355653 37.76887 " transform="matrix(2,0,0,2,5.952756,6.169291)"/>
<path style=" stroke:none;fill-rule:nonzero;fill:rgb(0%,0%,0%);fill-opacity:1;" d="M 135.539062 75.125 C 133.789062 75.125 133.789062 73.125 133.789062 72.6875 C 133.789062 72.15625 133.820312 71.5 134.101562 71 C 134.257812 70.78125 134.726562 70.21875 135.539062 70.21875 C 137.257812 70.21875 137.257812 72.1875 137.257812 72.65625 C 137.257812 73.1875 137.257812 73.84375 136.945312 74.34375 C 136.789062 74.5625 136.320312 75.125 135.539062 75.125 Z M 133.226562 75.90625 C 133.226562 75.84375 133.226562 75.375 133.539062 74.96875 C 134.320312 75.53125 135.164062 75.59375 135.539062 75.59375 C 137.382812 75.59375 138.757812 74.21875 138.757812 72.6875 C 138.757812 71.9375 138.445312 71.21875 137.945312 70.75 C 138.664062 70.0625 139.382812 69.96875 139.726562 69.96875 C 139.789062 69.96875 139.882812 69.96875 139.945312 70 C 139.726562 70.0625 139.601562 70.28125 139.601562 70.53125 C 139.601562 70.875 139.882812 71.09375 140.195312 71.09375 C 140.382812 71.09375 140.757812 70.96875 140.757812 70.5 C 140.757812 70.15625 140.539062 69.53125 139.757812 69.53125 C 139.351562 69.53125 138.476562 69.65625 137.632812 70.46875 C 136.789062 69.8125 135.976562 69.75 135.539062 69.75 C 133.664062 69.75 132.289062 71.125 132.289062 72.65625 C 132.289062 73.53125 132.726562 74.28125 133.226562 74.71875 C 132.976562 75 132.601562 75.65625 132.601562 76.375 C 132.601562 77 132.882812 77.75 133.507812 78.15625 C 132.289062 78.46875 131.664062 79.34375 131.664062 80.125 C 131.664062 81.5625 133.632812 82.65625 136.070312 82.65625 C 138.414062 82.65625 140.476562 81.65625 140.476562 80.09375 C 140.476562 79.40625 140.226562 78.375 139.195312 77.8125 C 138.132812 77.28125 136.976562 77.28125 135.757812 77.28125 C 135.257812 77.28125 134.414062 77.28125 134.257812 77.25 C 133.632812 77.15625 133.226562 76.5625 133.226562 75.90625 Z M 136.101562 82.21875 C 134.070312 82.21875 132.695312 81.1875 132.695312 80.125 C 132.695312 79.21875 133.445312 78.46875 134.320312 78.4375 L 135.507812 78.4375 C 137.226562 78.4375 139.445312 78.4375 139.445312 80.125 C 139.445312 81.21875 138.039062 82.21875 136.101562 82.21875 Z M 136.101562 82.21875 "/>
<path style=" stroke:none;fill-rule:nonzero;fill:rgb(0%,0%,0%);fill-opacity:1;" d="M 145.5 75.125 C 143.75 75.125 143.75 73.125 143.75 72.6875 C 143.75 72.15625 143.78125 71.5 144.0625 71 C 144.21875 70.78125 144.6875 70.21875 145.5 70.21875 C 147.21875 70.21875 147.21875 72.1875 147.21875 72.65625 C 147.21875 73.1875 147.21875 73.84375 146.90625 74.34375 C 146.75 74.5625 146.28125 75.125 145.5 75.125 Z M 143.1875 75.90625 C 143.1875 75.84375 143.1875 75.375 143.5 74.96875 C 144.28125 75.53125 145.125 75.59375 145.5 75.59375 C 147.34375 75.59375 148.71875 74.21875 148.71875 72.6875 C 148.71875 71.9375 148.40625 71.21875 147.90625 70.75 C 148.625 70.0625 149.34375 69.96875 149.6875 69.96875 C 149.75 69.96875 149.84375 69.96875 149.90625 70 C 149.6875 70.0625 149.5625 70.28125 149.5625 70.53125 C 149.5625 70.875 149.84375 71.09375 150.15625 71.09375 C 150.34375 71.09375 150.71875 70.96875 150.71875 70.5 C 150.71875 70.15625 150.5 69.53125 149.71875 69.53125 C 149.3125 69.53125 148.4375 69.65625 147.59375 70.46875 C 146.75 69.8125 145.9375 69.75 145.5 69.75 C 143.625 69.75 142.25 71.125 142.25 72.65625 C 142.25 73.53125 142.6875 74.28125 143.1875 74.71875 C 142.9375 75 142.5625 75.65625 142.5625 76.375 C 142.5625 77 142.84375 77.75 143.46875 78.15625 C 142.25 78.46875 141.625 79.34375 141.625 80.125 C 141.625 81.5625 143.59375 82.65625 146.03125 82.65625 C 148.375 82.65625 150.4375 81.65625 150.4375 80.09375 C 150.4375 79.40625 150.1875 78.375 149.15625 77.8125 C 148.09375 77.28125 146.9375 77.28125 145.71875 77.28125 C 145.21875 77.28125 144.375 77.28125 144.21875 77.25 C 143.59375 77.15625 143.1875 76.5625 143.1875 75.90625 Z M 146.0625 82.21875 C 144.03125 82.21875 142.65625 81.1875 142.65625 80.125 C 142.65625 79.21875 143.40625 78.46875 144.28125 78.4375 L 145.46875 78.4375 C 147.1875 78.4375 149.40625 78.4375 149.40625 80.125 C 149.40625 81.21875 148 82.21875 146.0625 82.21875 Z M 146.0625 82.21875 "/>
<path style=" stroke:none;fill-rule:nonzero;fill:rgb(0%,0%,0%);fill-opacity:1;" d="M 155.464844 75.125 C 153.714844 75.125 153.714844 73.125 153.714844 72.6875 C 153.714844 72.15625 153.746094 71.5 154.027344 71 C 154.183594 70.78125 154.652344 70.21875 155.464844 70.21875 C 157.183594 70.21875 157.183594 72.1875 157.183594 72.65625 C 157.183594 73.1875 157.183594 73.84375 156.871094 74.34375 C 156.714844 74.5625 156.246094 75.125 155.464844 75.125 Z M 153.152344 75.90625 C 153.152344 75.84375 153.152344 75.375 153.464844 74.96875 C 154.246094 75.53125 155.089844 75.59375 155.464844 75.59375 C 157.308594 75.59375 158.683594 74.21875 158.683594 72.6875 C 158.683594 71.9375 158.371094 71.21875 157.871094 70.75 C 158.589844 70.0625 159.308594 69.96875 159.652344 69.96875 C 159.714844 69.96875 159.808594 69.96875 159.871094 70 C 159.652344 70.0625 159.527344 70.28125 159.527344 70.53125 C 159.527344 70.875 159.808594 71.09375 160.121094 71.09375 C 160.308594 71.09375 160.683594 70.96875 160.683594 70.5 C 160.683594 70.15625 160.464844 69.53125 159.683594 69.53125 C 159.277344 69.53125 158.402344 69.65625 157.558594 70.46875 C 156.714844 69.8125 155.902344 69.75 155.464844 69.75 C 153.589844 69.75 152.214844 71.125 152.214844 72.65625 C 152.214844 73.53125 152.652344 74.28125 153.152344 74.71875 C 152.902344 75 152.527344 75.65625 152.527344 76.375 C 152.527344 77 152.808594 77.75 153.433594 78.15625 C 152.214844 78.46875 151.589844 79.34375 151.589844 80.125 C 151.589844 81.5625 153.558594 82.65625 155.996094 82.65625 C 158.339844 82.65625 160.402344 81.65625 160.402344 80.09375 C 160.402344 79.40625 160.152344 78.375 159.121094 77.8125 C 158.058594 77.28125 156.902344 77.28125 155.683594 77.28125 C 155.183594 77.28125 154.339844 77.28125 154.183594 77.25 C 153.558594 77.15625 153.152344 76.5625 153.152344 75.90625 Z M 156.027344 82.21875 C 153.996094 82.21875 152.621094 81.1875 152.621094 80.125 C 152.621094 79.21875 153.371094 78.46875 154.246094 78.4375 L 155.433594 78.4375 C 157.152344 78.4375 159.371094 78.4375 159.371094 80.125 C 159.371094 81.21875 157.964844 82.21875 156.027344 82.21875 Z M 156.027344 82.21875 "/>
<path style=" stroke:none;fill-rule:nonzero;fill:rgb(0%,0%,0%);fill-opacity:1;" d="M 165.425781 75.125 C 163.675781 75.125 163.675781 73.125 163.675781 72.6875 C 163.675781 72.15625 163.707031 71.5 163.988281 71 C 164.144531 70.78125 164.613281 70.21875 165.425781 70.21875 C 167.144531 70.21875 167.144531 72.1875 167.144531 72.65625 C 167.144531 73.1875 167.144531 73.84375 166.832031 74.34375 C 166.675781 74.5625 166.207031 75.125 165.425781 75.125 Z M 163.113281 75.90625 C 163.113281 75.84375 163.113281 75.375 163.425781 74.96875 C 164.207031 75.53125 165.050781 75.59375 165.425781 75.59375 C 167.269531 75.59375 168.644531 74.21875 168.644531 72.6875 C 168.644531 71.9375 168.332031 71.21875 167.832031 70.75 C 168.550781 70.0625 169.269531 69.96875 169.613281 69.96875 C 169.675781 69.96875 169.769531 69.96875 169.832031 70 C 169.613281 70.0625 169.488281 70.28125 169.488281 70.53125 C 169.488281 70.875 169.769531 71.09375 170.082031 71.09375 C 170.269531 71.09375 170.644531 70.96875 170.644531 70.5 C 170.644531 70.15625 170.425781 69.53125 169.644531 69.53125 C 169.238281 69.53125 168.363281 69.65625 167.519531 70.46875 C 166.675781 69.8125 165.863281 69.75 165.425781 69.75 C 163.550781 69.75 162.175781 71.125 162.175781 72.65625 C 162.175781 73.53125 162.613281 74.28125 163.113281 74.71875 C 162.863281 75 162.488281 75.65625 162.488281 76.375 C 162.488281 77 162.769531 77.75 163.394531 78.15625 C 162.175781 78.46875 161.550781 79.34375 161.550781 80.125 C 161.550781 81.5625 163.519531 82.65625 165.957031 82.65625 C 168.300781 82.65625 170.363281 81.65625 170.363281 80.09375 C 170.363281 79.40625 170.113281 78.375 169.082031 77.8125 C 168.019531 77.28125 166.863281 77.28125 165.644531 77.28125 C 165.144531 77.28125 164.300781 77.28125 164.144531 77.25 C 163.519531 77.15625 163.113281 76.5625 163.113281 75.90625 Z M 165.988281 82.21875 C 163.957031 82.21875 162.582031 81.1875 162.582031 80.125 C 162.582031 79.21875 163.332031 78.46875 164.207031 78.4375 L 165.394531 78.4375 C 167.113281 78.4375 169.332031 78.4375 169.332031 80.125 C 169.332031 81.21875 167.925781 82.21875 165.988281 82.21875 Z M 165.988281 82.21875 "/>
<path style=" stroke:none;fill-rule:nonzero;fill:rgb(0%,0%,0%);fill-opacity:1;" d="M 175.390625 75.125 C 173.640625 75.125 173.640625 73.125 173.640625 72.6875 C 173.640625 72.15625 173.671875 71.5 173.953125 71 C 174.109375 70.78125 174.578125 70.21875 175.390625 70.21875 C 177.109375 70.21875 177.109375 72.1875 177.109375 72.65625 C 177.109375 73.1875 177.109375 73.84375 176.796875 74.34375 C 176.640625 74.5625 176.171875 75.125 175.390625 75.125 Z M 173.078125 75.90625 C 173.078125 75.84375 173.078125 75.375 173.390625 74.96875 C 174.171875 75.53125 175.015625 75.59375 175.390625 75.59375 C 177.234375 75.59375 178.609375 74.21875 178.609375 72.6875 C 178.609375 71.9375 178.296875 71.21875 177.796875 70.75 C 178.515625 70.0625 179.234375 69.96875 179.578125 69.96875 C 179.640625 69.96875 179.734375 69.96875 179.796875 70 C 179.578125 70.0625 179.453125 70.28125 179.453125 70.53125 C 179.453125 70.875 179.734375 71.09375 180.046875 71.09375 C 180.234375 71.09375 180.609375 70.96875 180.609375 70.5 C 180.609375 70.15625 180.390625 69.53125 179.609375 69.53125 C 179.203125 69.53125 178.328125 69.65625 177.484375 70.46875 C 176.640625 69.8125 175.828125 69.75 175.390625 69.75 C 173.515625 69.75 172.140625 71.125 172.140625 72.65625 C 172.140625 73.53125 172.578125 74.28125 173.078125 74.71875 C 172.828125 75 172.453125 75.65625 172.453125 76.375 C 172.453125 77 172.734375 77.75 173.359375 78.15625 C 172.140625 78.46875 171.515625 79.34375 171.515625 80.125 C 171.515625 81.5625 173.484375 82.65625 175.921875 82.65625 C 178.265625 82.65625 180.328125 81.65625 180.328125 80.09375 C 180.328125 79.40625 180.078125 78.375 179.046875 77.8125 C 177.984375 77.28125 176.828125 77.28125 175.609375 77.28125 C 175.109375 77.28125 174.265625 77.28125 174.109375 77.25 C 173.484375 77.15625 173.078125 76.5625 173.078125 75.90625 Z M 175.953125 82.21875 C 173.921875 82.21875 172.546875 81.1875 172.546875 80.125 C 172.546875 79.21875 173.296875 78.46875 174.171875 78.4375 L 175.359375 78.4375 C 177.078125 78.4375 179.296875 78.4375 179.296875 80.125 C 179.296875 81.21875 177.890625 82.21875 175.953125 82.21875 Z M 175.953125 82.21875 "/>
<path style=" stroke:none;fill-rule:nonzero;fill:rgb(0%,0%,0%);fill-opacity:1;" d="M 185.351562 75.125 C 183.601562 75.125 183.601562 73.125 183.601562 72.6875 C 183.601562 72.15625 183.632812 71.5 183.914062 71 C 184.070312 70.78125 184.539062 70.21875 185.351562 70.21875 C 187.070312 70.21875 187.070312 72.1875 187.070312 72.65625 C 187.070312 73.1875 187.070312 73.84375 186.757812 74.34375 C 186.601562 74.5625 186.132812 75.125 185.351562 75.125 Z M 183.039062 75.90625 C 183.039062 75.84375 183.039062 75.375 183.351562 74.96875 C 184.132812 75.53125 184.976562 75.59375 185.351562 75.59375 C 187.195312 75.59375 188.570312 74.21875 188.570312 72.6875 C 188.570312 71.9375 188.257812 71.21875 187.757812 70.75 C 188.476562 70.0625 189.195312 69.96875 189.539062 69.96875 C 189.601562 69.96875 189.695312 69.96875 189.757812 70 C 189.539062 70.0625 189.414062 70.28125 189.414062 70.53125 C 189.414062 70.875 189.695312 71.09375 190.007812 71.09375 C 190.195312 71.09375 190.570312 70.96875 190.570312 70.5 C 190.570312 70.15625 190.351562 69.53125 189.570312 69.53125 C 189.164062 69.53125 188.289062 69.65625 187.445312 70.46875 C 186.601562 69.8125 185.789062 69.75 185.351562 69.75 C 183.476562 69.75 182.101562 71.125 182.101562 72.65625 C 182.101562 73.53125 182.539062 74.28125 183.039062 74.71875 C 182.789062 75 182.414062 75.65625 182.414062 76.375 C 182.414062 77 182.695312 77.75 183.320312 78.15625 C 182.101562 78.46875 181.476562 79.34375 181.476562 80.125 C 181.476562 81.5625 183.445312 82.65625 185.882812 82.65625 C 188.226562 82.65625 190.289062 81.65625 190.289062 80.09375 C 190.289062 79.40625 190.039062 78.375 189.007812 77.8125 C 187.945312 77.28125 186.789062 77.28125 185.570312 77.28125 C 185.070312 77.28125 184.226562 77.28125 184.070312 77.25 C 183.445312 77.15625 183.039062 76.5625 183.039062 75.90625 Z M 185.914062 82.21875 C 183.882812 82.21875 182.507812 81.1875 182.507812 80.125 C 182.507812 79.21875 183.257812 78.46875 184.132812 78.4375 L 185.320312 78.4375 C 187.039062 78.4375 189.257812 78.4375 189.257812 80.125 C 189.257812 81.21875 187.851562 82.21875 185.914062 82.21875 Z M 185.914062 82.21875 "/>
<path style="fill:none;stroke-width:0.566929;stroke-linecap:butt;stroke-linejoin:miter;stroke:rgb(100%,0%,0%);stroke-opacity:0.5;stroke-miterlimit:10;" d="M 100.281435 31.180979 L 105.949403 25.511057 " transform="matrix(2,0,0,2,5.952756,6.169291)"/>
<path style="fill:none;stroke-width:0.566929;stroke-linecap:butt;stroke-linejoin:miter;stroke:rgb(100%,0%,0%);stroke-opacity:0.5;stroke-miterlimit:10;" d="M 105.949403 31.180979 L 100.281435 25.511057 " transform="matrix(2,0,0,2,5.952756,6.169291)"/>
<path style="fill:none;stroke-width:0.566929;stroke-linecap:butt;stroke-linejoin:miter;stroke:rgb(100%,0%,0%);stroke-opacity:0.5;stroke-miterlimit:10;" d="M 103.115419 56.692698 L 103.115419 28.346995 Z M 103.115419 56.692698 " transform="matrix(2,0,0,2,5.952756,6.169291)"/>
<path style="fill:none;stroke-width:0.566929;stroke-linecap:butt;stroke-linejoin:miter;stroke:rgb(100%,0%,0%);stroke-opacity:0.5;stroke-miterlimit:10;" d="M 6.857606 59.526682 L 12.525575 53.858714 " transform="matrix(2,0,0,2,5.952756,6.169291)"/>
<path style="fill:none;stroke-width:0.566929;stroke-linecap:butt;stroke-linejoin:miter;stroke:rgb(100%,0%,0%);stroke-opacity:0.5;stroke-miterlimit:10;" d="M 12.525575 59.526682 L 6.857606 53.858714 " transform="matrix(2,0,0,2,5.952756,6.169291)"/>
<path style="fill-rule:nonzero;fill:rgb(50%,50%,0%);fill-opacity:0.1;stroke-width:0.566929;stroke-linecap:butt;stroke-linejoin:miter;stroke:rgb(100%,0%,0%);stroke-opacity:0.5;stroke-miterlimit:10;" d="M 0.000184547 67.888011 L 19.382997 67.888011 L 19.382997 56.692698 L 0.000184547 56.692698 Z M 0.000184547 67.888011 " transform="matrix(2,0,0,2,5.952756,6.169291)"/>
<path style="fill:none;stroke-width:0.566929;stroke-linecap:butt;stroke-linejoin:miter;stroke:rgb(100%,0%,0%);stroke-opacity:0.5;stroke-miterlimit:10;" d="M 0.000184547 67.83137 L 5.670106 62.161448 " transform="matrix(2,0,0,2,5.952756,6.169291)"/>
<path style="fill:none;stroke-width:0.566929;stroke-linecap:butt;stroke-linejoin:miter;stroke:rgb(100%,0%,0%);stroke-opacity:0.5;stroke-miterlimit:10;" d="M 5.670106 67.83137 L 0.000184547 62.161448 " transform="matrix(2,0,0,2,5.952756,6.169291)"/>
<path style="fill-rule:nonzero;fill:rgb(50%,50%,0%);fill-opacity:0.1;stroke-width:0.566929;stroke-linecap:butt;stroke-linejoin:miter;stroke:rgb(100%,0%,0%);stroke-opacity:0.5;stroke-miterlimit:10;" d="M 0.000184547 67.888011 L 19.382997 67.888011 L 19.382997 56.692698 L 0.000184547 56.692698 Z M 0.000184547 67.888011 " transform="matrix(2,0,0,2,5.952756,6.169291)"/>
<path style="fill:none;stroke-width:0.566929;stroke-linecap:butt;stroke-linejoin:miter;stroke:rgb(100%,0%,0%);stroke-opacity:0.5;stroke-miterlimit:10;" d="M 0.000184547 67.83137 L 5.670106 62.161448 " transform="matrix(2,0,0,2,5.952756,6.169291)"/>
<path style="fill:none;stroke-width:0.566929;stroke-linecap:butt;stroke-linejoin:miter;stroke:rgb(100%,0%,0%);stroke-opacity:0.5;stroke-miterlimit:10;" d="M 5.670106 67.83137 L 0.000184547 62.161448 " transform="matrix(2,0,0,2,5.952756,6.169291)"/>
<path style="fill-rule:nonzero;fill:rgb(50%,50%,0%);fill-opacity:0.1;stroke-width:0.566929;stroke-linecap:butt;stroke-linejoin:miter;stroke:rgb(100%,0%,0%);stroke-opacity:0.5;stroke-miterlimit:10;" d="M 2.834169 65.054026 L 16.549013 65.054026 L 16.549013 59.526682 L 2.834169 59.526682 Z M 2.834169 65.054026 " transform="matrix(2,0,0,2,5.952756,6.169291)"/>
<path style=" stroke:none;fill-rule:nonzero;fill:rgb(0%,0%,0%);fill-opacity:1;" d="M 14.277344 130.128906 C 14.402344 127.160156 16.089844 126.660156 16.777344 126.660156 C 18.808594 126.660156 19.027344 129.347656 19.027344 130.128906 Z M 14.277344 130.566406 L 19.839844 130.566406 C 20.277344 130.566406 20.339844 130.566406 20.339844 130.128906 C 20.339844 128.160156 19.246094 126.222656 16.777344 126.222656 C 14.464844 126.222656 12.621094 128.285156 12.621094 130.785156 C 12.621094 133.441406 14.714844 135.378906 16.996094 135.378906 C 19.433594 135.378906 20.339844 133.160156 20.339844 132.785156 C 20.339844 132.597656 20.183594 132.535156 20.058594 132.535156 C 19.902344 132.535156 19.839844 132.660156 19.808594 132.816406 C 19.121094 134.878906 17.308594 134.878906 17.121094 134.878906 C 16.121094 134.878906 15.339844 134.285156 14.871094 133.535156 C 14.277344 132.597656 14.277344 131.285156 14.277344 130.566406 Z M 14.277344 130.566406 "/>
<path style=" stroke:none;fill-rule:nonzero;fill:rgb(0%,0%,0%);fill-opacity:1;" d="M 23.132812 130.128906 C 23.257812 127.160156 24.945312 126.660156 25.632812 126.660156 C 27.664062 126.660156 27.882812 129.347656 27.882812 130.128906 Z M 23.132812 130.566406 L 28.695312 130.566406 C 29.132812 130.566406 29.195312 130.566406 29.195312 130.128906 C 29.195312 128.160156 28.101562 126.222656 25.632812 126.222656 C 23.320312 126.222656 21.476562 128.285156 21.476562 130.785156 C 21.476562 133.441406 23.570312 135.378906 25.851562 135.378906 C 28.289062 135.378906 29.195312 133.160156 29.195312 132.785156 C 29.195312 132.597656 29.039062 132.535156 28.914062 132.535156 C 28.757812 132.535156 28.695312 132.660156 28.664062 132.816406 C 27.976562 134.878906 26.164062 134.878906 25.976562 134.878906 C 24.976562 134.878906 24.195312 134.285156 23.726562 133.535156 C 23.132812 132.597656 23.132812 131.285156 23.132812 130.566406 Z M 23.132812 130.566406 "/>
<path style=" stroke:none;fill-rule:nonzero;fill:rgb(0%,0%,0%);fill-opacity:1;" d="M 31.988281 130.128906 C 32.113281 127.160156 33.800781 126.660156 34.488281 126.660156 C 36.519531 126.660156 36.738281 129.347656 36.738281 130.128906 Z M 31.988281 130.566406 L 37.550781 130.566406 C 37.988281 130.566406 38.050781 130.566406 38.050781 130.128906 C 38.050781 128.160156 36.957031 126.222656 34.488281 126.222656 C 32.175781 126.222656 30.332031 128.285156 30.332031 130.785156 C 30.332031 133.441406 32.425781 135.378906 34.707031 135.378906 C 37.144531 135.378906 38.050781 133.160156 38.050781 132.785156 C 38.050781 132.597656 37.894531 132.535156 37.769531 132.535156 C 37.613281 132.535156 37.550781 132.660156 37.519531 132.816406 C 36.832031 134.878906 35.019531 134.878906 34.832031 134.878906 C 33.832031 134.878906 33.050781 134.285156 32.582031 133.535156 C 31.988281 132.597656 31.988281 131.285156 31.988281 130.566406 Z M 31.988281 130.566406 "/>
<path style="fill:none;stroke-width:0.566929;stroke-linecap:butt;stroke-linejoin:miter;stroke:rgb(100%,0%,0%);stroke-opacity:0.5;stroke-miterlimit:10;" d="M 32.881044 59.526682 L 38.550966 53.858714 " transform="matrix(2,0,0,2,5.952756,6.169291)"/>
<path style="fill:none;stroke-width:0.566929;stroke-linecap:butt;stroke-linejoin:miter;stroke:rgb(100%,0%,0%);stroke-opacity:0.5;stroke-miterlimit:10;" d="M 38.550966 59.526682 L 32.881044 53.858714 " transform="matrix(2,0,0,2,5.952756,6.169291)"/>
<path style="fill-rule:nonzero;fill:rgb(50%,50%,0%);fill-opacity:0.1;stroke-width:0.566929;stroke-linecap:butt;stroke-linejoin:miter;stroke:rgb(100%,0%,0%);stroke-opacity:0.5;stroke-miterlimit:10;" d="M 19.382997 67.888011 L 52.049013 67.888011 L 52.049013 56.692698 L 19.382997 56.692698 Z M 19.382997 67.888011 " transform="matrix(2,0,0,2,5.952756,6.169291)"/>
<path style="fill:none;stroke-width:0.566929;stroke-linecap:butt;stroke-linejoin:miter;stroke:rgb(100%,0%,0%);stroke-opacity:0.5;stroke-miterlimit:10;" d="M 19.382997 67.83137 L 25.052919 62.161448 " transform="matrix(2,0,0,2,5.952756,6.169291)"/>
<path style="fill:none;stroke-width:0.566929;stroke-linecap:butt;stroke-linejoin:miter;stroke:rgb(100%,0%,0%);stroke-opacity:0.5;stroke-miterlimit:10;" d="M 25.052919 67.83137 L 19.382997 62.161448 " transform="matrix(2,0,0,2,5.952756,6.169291)"/>
<path style="fill-rule:nonzero;fill:rgb(50%,50%,0%);fill-opacity:0.1;stroke-width:0.566929;stroke-linecap:butt;stroke-linejoin:miter;stroke:rgb(100%,0%,0%);stroke-opacity:0.5;stroke-miterlimit:10;" d="M 19.382997 67.888011 L 52.049013 67.888011 L 52.049013 56.692698 L 19.382997 56.692698 Z M 19.382997 67.888011 " transform="matrix(2,0,0,2,5.952756,6.169291)"/>
<path style="fill:none;stroke-width:0.566929;stroke-linecap:butt;stroke-linejoin:miter;stroke:rgb(100%,0%,0%);stroke-opacity:0.5;stroke-miterlimit:10;" d="M 19.382997 67.83137 L 25.052919 62.161448 " transform="matrix(2,0,0,2,5.952756,6.169291)"/>
<path style="fill:none;stroke-width:0.566929;stroke-linecap:butt;stroke-linejoin:miter;stroke:rgb(100%,0%,0%);stroke-opacity:0.5;stroke-miterlimit:10;" d="M 25.052919 67.83137 L 19.382997 62.161448 " transform="matrix(2,0,0,2,5.952756,6.169291)"/>
<path style="fill-rule:nonzero;fill:rgb(50%,50%,0%);fill-opacity:0.1;stroke-width:0.566929;stroke-linecap:butt;stroke-linejoin:miter;stroke:rgb(100%,0%,0%);stroke-opacity:0.5;stroke-miterlimit:10;" d="M 22.218935 65.054026 L 49.215028 65.054026 L 49.215028 59.526682 L 22.218935 59.526682 Z M 22.218935 65.054026 " transform="matrix(2,0,0,2,5.952756,6.169291)"/>
<path style=" stroke:none;fill-rule:nonzero;fill:rgb(0%,0%,0%);fill-opacity:1;" d="M 53.046875 130.128906 C 53.171875 127.160156 54.859375 126.660156 55.546875 126.660156 C 57.578125 126.660156 57.796875 129.347656 57.796875 130.128906 Z M 53.046875 130.566406 L 58.609375 130.566406 C 59.046875 130.566406 59.109375 130.566406 59.109375 130.128906 C 59.109375 128.160156 58.015625 126.222656 55.546875 126.222656 C 53.234375 126.222656 51.390625 128.285156 51.390625 130.785156 C 51.390625 133.441406 53.484375 135.378906 55.765625 135.378906 C 58.203125 135.378906 59.109375 133.160156 59.109375 132.785156 C 59.109375 132.597656 58.953125 132.535156 58.828125 132.535156 C 58.671875 132.535156 58.609375 132.660156 58.578125 132.816406 C 57.890625 134.878906 56.078125 134.878906 55.890625 134.878906 C 54.890625 134.878906 54.109375 134.285156 53.640625 133.535156 C 53.046875 132.597656 53.046875 131.285156 53.046875 130.566406 Z M 53.046875 130.566406 "/>
<path style=" stroke:none;fill-rule:nonzero;fill:rgb(0%,0%,0%);fill-opacity:1;" d="M 61.898438 130.128906 C 62.023438 127.160156 63.710938 126.660156 64.398438 126.660156 C 66.429688 126.660156 66.648438 129.347656 66.648438 130.128906 Z M 61.898438 130.566406 L 67.460938 130.566406 C 67.898438 130.566406 67.960938 130.566406 67.960938 130.128906 C 67.960938 128.160156 66.867188 126.222656 64.398438 126.222656 C 62.085938 126.222656 60.242188 128.285156 60.242188 130.785156 C 60.242188 133.441406 62.335938 135.378906 64.617188 135.378906 C 67.054688 135.378906 67.960938 133.160156 67.960938 132.785156 C 67.960938 132.597656 67.804688 132.535156 67.679688 132.535156 C 67.523438 132.535156 67.460938 132.660156 67.429688 132.816406 C 66.742188 134.878906 64.929688 134.878906 64.742188 134.878906 C 63.742188 134.878906 62.960938 134.285156 62.492188 133.535156 C 61.898438 132.597656 61.898438 131.285156 61.898438 130.566406 Z M 61.898438 130.566406 "/>
<path style=" stroke:none;fill-rule:nonzero;fill:rgb(0%,0%,0%);fill-opacity:1;" d="M 70.753906 130.128906 C 70.878906 127.160156 72.566406 126.660156 73.253906 126.660156 C 75.285156 126.660156 75.503906 129.347656 75.503906 130.128906 Z M 70.753906 130.566406 L 76.316406 130.566406 C 76.753906 130.566406 76.816406 130.566406 76.816406 130.128906 C 76.816406 128.160156 75.722656 126.222656 73.253906 126.222656 C 70.941406 126.222656 69.097656 128.285156 69.097656 130.785156 C 69.097656 133.441406 71.191406 135.378906 73.472656 135.378906 C 75.910156 135.378906 76.816406 133.160156 76.816406 132.785156 C 76.816406 132.597656 76.660156 132.535156 76.535156 132.535156 C 76.378906 132.535156 76.316406 132.660156 76.285156 132.816406 C 75.597656 134.878906 73.785156 134.878906 73.597656 134.878906 C 72.597656 134.878906 71.816406 134.285156 71.347656 133.535156 C 70.753906 132.597656 70.753906 131.285156 70.753906 130.566406 Z M 70.753906 130.566406 "/>
<path style=" stroke:none;fill-rule:nonzero;fill:rgb(0%,0%,0%);fill-opacity:1;" d="M 79.609375 130.128906 C 79.734375 127.160156 81.421875 126.660156 82.109375 126.660156 C 84.140625 126.660156 84.359375 129.347656 84.359375 130.128906 Z M 79.609375 130.566406 L 85.171875 130.566406 C 85.609375 130.566406 85.671875 130.566406 85.671875 130.128906 C 85.671875 128.160156 84.578125 126.222656 82.109375 126.222656 C 79.796875 126.222656 77.953125 128.285156 77.953125 130.785156 C 77.953125 133.441406 80.046875 135.378906 82.328125 135.378906 C 84.765625 135.378906 85.671875 133.160156 85.671875 132.785156 C 85.671875 132.597656 85.515625 132.535156 85.390625 132.535156 C 85.234375 132.535156 85.171875 132.660156 85.140625 132.816406 C 84.453125 134.878906 82.640625 134.878906 82.453125 134.878906 C 81.453125 134.878906 80.671875 134.285156 80.203125 133.535156 C 79.609375 132.597656 79.609375 131.285156 79.609375 130.566406 Z M 79.609375 130.566406 "/>
<path style=" stroke:none;fill-rule:nonzero;fill:rgb(0%,0%,0%);fill-opacity:1;" d="M 88.464844 130.128906 C 88.589844 127.160156 90.277344 126.660156 90.964844 126.660156 C 92.996094 126.660156 93.214844 129.347656 93.214844 130.128906 Z M 88.464844 130.566406 L 94.027344 130.566406 C 94.464844 130.566406 94.527344 130.566406 94.527344 130.128906 C 94.527344 128.160156 93.433594 126.222656 90.964844 126.222656 C 88.652344 126.222656 86.808594 128.285156 86.808594 130.785156 C 86.808594 133.441406 88.902344 135.378906 91.183594 135.378906 C 93.621094 135.378906 94.527344 133.160156 94.527344 132.785156 C 94.527344 132.597656 94.371094 132.535156 94.246094 132.535156 C 94.089844 132.535156 94.027344 132.660156 93.996094 132.816406 C 93.308594 134.878906 91.496094 134.878906 91.308594 134.878906 C 90.308594 134.878906 89.527344 134.285156 89.058594 133.535156 C 88.464844 132.597656 88.464844 131.285156 88.464844 130.566406 Z M 88.464844 130.566406 "/>
<path style=" stroke:none;fill-rule:nonzero;fill:rgb(0%,0%,0%);fill-opacity:1;" d="M 97.320312 130.128906 C 97.445312 127.160156 99.132812 126.660156 99.820312 126.660156 C 101.851562 126.660156 102.070312 129.347656 102.070312 130.128906 Z M 97.320312 130.566406 L 102.882812 130.566406 C 103.320312 130.566406 103.382812 130.566406 103.382812 130.128906 C 103.382812 128.160156 102.289062 126.222656 99.820312 126.222656 C 97.507812 126.222656 95.664062 128.285156 95.664062 130.785156 C 95.664062 133.441406 97.757812 135.378906 100.039062 135.378906 C 102.476562 135.378906 103.382812 133.160156 103.382812 132.785156 C 103.382812 132.597656 103.226562 132.535156 103.101562 132.535156 C 102.945312 132.535156 102.882812 132.660156 102.851562 132.816406 C 102.164062 134.878906 100.351562 134.878906 100.164062 134.878906 C 99.164062 134.878906 98.382812 134.285156 97.914062 133.535156 C 97.320312 132.597656 97.320312 131.285156 97.320312 130.566406 Z M 97.320312 130.566406 "/>
<path style="fill:none;stroke-width:0.566929;stroke-linecap:butt;stroke-linejoin:miter;stroke:rgb(100%,0%,0%);stroke-opacity:0.5;stroke-miterlimit:10;" d="M 74.748231 59.526682 L 80.4162 53.858714 " transform="matrix(2,0,0,2,5.952756,6.169291)"/>
<path style="fill:none;stroke-width:0.566929;stroke-linecap:butt;stroke-linejoin:miter;stroke:rgb(100%,0%,0%);stroke-opacity:0.5;stroke-miterlimit:10;" d="M 80.4162 59.526682 L 74.748231 53.858714 " transform="matrix(2,0,0,2,5.952756,6.169291)"/>
<path style="fill-rule:nonzero;fill:rgb(50%,50%,0%);fill-opacity:0.1;stroke-width:0.566929;stroke-linecap:butt;stroke-linejoin:miter;stroke:rgb(100%,0%,0%);stroke-opacity:0.5;stroke-miterlimit:10;" d="M 52.049013 69.005198 L 103.115419 69.005198 L 103.115419 56.692698 L 52.049013 56.692698 Z M 52.049013 69.005198 " transform="matrix(2,0,0,2,5.952756,6.169291)"/>
<path style="fill:none;stroke-width:0.566929;stroke-linecap:butt;stroke-linejoin:miter;stroke:rgb(100%,0%,0%);stroke-opacity:0.5;stroke-miterlimit:10;" d="M 52.049013 67.878245 L 57.718935 62.208323 " transform="matrix(2,0,0,2,5.952756,6.169291)"/>
<path style="fill:none;stroke-width:0.566929;stroke-linecap:butt;stroke-linejoin:miter;stroke:rgb(100%,0%,0%);stroke-opacity:0.5;stroke-miterlimit:10;" d="M 57.718935 67.878245 L 52.049013 62.208323 " transform="matrix(2,0,0,2,5.952756,6.169291)"/>
<path style="fill-rule:nonzero;fill:rgb(50%,50%,0%);fill-opacity:0.1;stroke-width:0.566929;stroke-linecap:butt;stroke-linejoin:miter;stroke:rgb(100%,0%,0%);stroke-opacity:0.5;stroke-miterlimit:10;" d="M 52.049013 69.005198 L 103.115419 69.005198 L 103.115419 56.692698 L 52.049013 56.692698 Z M 52.049013 69.005198 " transform="matrix(2,0,0,2,5.952756,6.169291)"/>
<path style="fill:none;stroke-width:0.566929;stroke-linecap:butt;stroke-linejoin:miter;stroke:rgb(100%,0%,0%);stroke-opacity:0.5;stroke-miterlimit:10;" d="M 52.049013 67.878245 L 57.718935 62.208323 " transform="matrix(2,0,0,2,5.952756,6.169291)"/>
<path style="fill:none;stroke-width:0.566929;stroke-linecap:butt;stroke-linejoin:miter;stroke:rgb(100%,0%,0%);stroke-opacity:0.5;stroke-miterlimit:10;" d="M 57.718935 67.878245 L 52.049013 62.208323 " transform="matrix(2,0,0,2,5.952756,6.169291)"/>
<path style="fill-rule:nonzero;fill:rgb(50%,50%,0%);fill-opacity:0.1;stroke-width:0.566929;stroke-linecap:butt;stroke-linejoin:miter;stroke:rgb(100%,0%,0%);stroke-opacity:0.5;stroke-miterlimit:10;" d="M 54.882997 66.169261 L 100.281435 66.169261 L 100.281435 59.526682 L 54.882997 59.526682 Z M 54.882997 66.169261 " transform="matrix(2,0,0,2,5.952756,6.169291)"/>
<path style=" stroke:none;fill-rule:nonzero;fill:rgb(0%,0%,0%);fill-opacity:1;" d="M 120.59375 131.816406 C 118.84375 131.816406 118.84375 129.816406 118.84375 129.378906 C 118.84375 128.847656 118.875 128.191406 119.15625 127.691406 C 119.3125 127.472656 119.78125 126.910156 120.59375 126.910156 C 122.3125 126.910156 122.3125 128.878906 122.3125 129.347656 C 122.3125 129.878906 122.3125 130.535156 122 131.035156 C 121.84375 131.253906 121.375 131.816406 120.59375 131.816406 Z M 118.28125 132.597656 C 118.28125 132.535156 118.28125 132.066406 118.59375 131.660156 C 119.375 132.222656 120.21875 132.285156 120.59375 132.285156 C 122.4375 132.285156 123.8125 130.910156 123.8125 129.378906 C 123.8125 128.628906 123.5 127.910156 123 127.441406 C 123.71875 126.753906 124.4375 126.660156 124.78125 126.660156 C 124.84375 126.660156 124.9375 126.660156 125 126.691406 C 124.78125 126.753906 124.65625 126.972656 124.65625 127.222656 C 124.65625 127.566406 124.9375 127.785156 125.25 127.785156 C 125.4375 127.785156 125.8125 127.660156 125.8125 127.191406 C 125.8125 126.847656 125.59375 126.222656 124.8125 126.222656 C 124.40625 126.222656 123.53125 126.347656 122.6875 127.160156 C 121.84375 126.503906 121.03125 126.441406 120.59375 126.441406 C 118.71875 126.441406 117.34375 127.816406 117.34375 129.347656 C 117.34375 130.222656 117.78125 130.972656 118.28125 131.410156 C 118.03125 131.691406 117.65625 132.347656 117.65625 133.066406 C 117.65625 133.691406 117.9375 134.441406 118.5625 134.847656 C 117.34375 135.160156 116.71875 136.035156 116.71875 136.816406 C 116.71875 138.253906 118.6875 139.347656 121.125 139.347656 C 123.46875 139.347656 125.53125 138.347656 125.53125 136.785156 C 125.53125 136.097656 125.28125 135.066406 124.25 134.503906 C 123.1875 133.972656 122.03125 133.972656 120.8125 133.972656 C 120.3125 133.972656 119.46875 133.972656 119.3125 133.941406 C 118.6875 133.847656 118.28125 133.253906 118.28125 132.597656 Z M 121.15625 138.910156 C 119.125 138.910156 117.75 137.878906 117.75 136.816406 C 117.75 135.910156 118.5 135.160156 119.375 135.128906 L 120.5625 135.128906 C 122.28125 135.128906 124.5 135.128906 124.5 136.816406 C 124.5 137.910156 123.09375 138.910156 121.15625 138.910156 Z M 121.15625 138.910156 "/>
<path style=" stroke:none;fill-rule:nonzero;fill:rgb(0%,0%,0%);fill-opacity:1;" d="M 130.558594 131.816406 C 128.808594 131.816406 128.808594 129.816406 128.808594 129.378906 C 128.808594 128.847656 128.839844 128.191406 129.121094 127.691406 C 129.277344 127.472656 129.746094 126.910156 130.558594 126.910156 C 132.277344 126.910156 132.277344 128.878906 132.277344 129.347656 C 132.277344 129.878906 132.277344 130.535156 131.964844 131.035156 C 131.808594 131.253906 131.339844 131.816406 130.558594 131.816406 Z M 128.246094 132.597656 C 128.246094 132.535156 128.246094 132.066406 128.558594 131.660156 C 129.339844 132.222656 130.183594 132.285156 130.558594 132.285156 C 132.402344 132.285156 133.777344 130.910156 133.777344 129.378906 C 133.777344 128.628906 133.464844 127.910156 132.964844 127.441406 C 133.683594 126.753906 134.402344 126.660156 134.746094 126.660156 C 134.808594 126.660156 134.902344 126.660156 134.964844 126.691406 C 134.746094 126.753906 134.621094 126.972656 134.621094 127.222656 C 134.621094 127.566406 134.902344 127.785156 135.214844 127.785156 C 135.402344 127.785156 135.777344 127.660156 135.777344 127.191406 C 135.777344 126.847656 135.558594 126.222656 134.777344 126.222656 C 134.371094 126.222656 133.496094 126.347656 132.652344 127.160156 C 131.808594 126.503906 130.996094 126.441406 130.558594 126.441406 C 128.683594 126.441406 127.308594 127.816406 127.308594 129.347656 C 127.308594 130.222656 127.746094 130.972656 128.246094 131.410156 C 127.996094 131.691406 127.621094 132.347656 127.621094 133.066406 C 127.621094 133.691406 127.902344 134.441406 128.527344 134.847656 C 127.308594 135.160156 126.683594 136.035156 126.683594 136.816406 C 126.683594 138.253906 128.652344 139.347656 131.089844 139.347656 C 133.433594 139.347656 135.496094 138.347656 135.496094 136.785156 C 135.496094 136.097656 135.246094 135.066406 134.214844 134.503906 C 133.152344 133.972656 131.996094 133.972656 130.777344 133.972656 C 130.277344 133.972656 129.433594 133.972656 129.277344 133.941406 C 128.652344 133.847656 128.246094 133.253906 128.246094 132.597656 Z M 131.121094 138.910156 C 129.089844 138.910156 127.714844 137.878906 127.714844 136.816406 C 127.714844 135.910156 128.464844 135.160156 129.339844 135.128906 L 130.527344 135.128906 C 132.246094 135.128906 134.464844 135.128906 134.464844 136.816406 C 134.464844 137.910156 133.058594 138.910156 131.121094 138.910156 Z M 131.121094 138.910156 "/>
<path style=" stroke:none;fill-rule:nonzero;fill:rgb(0%,0%,0%);fill-opacity:1;" d="M 140.519531 131.816406 C 138.769531 131.816406 138.769531 129.816406 138.769531 129.378906 C 138.769531 128.847656 138.800781 128.191406 139.082031 127.691406 C 139.238281 127.472656 139.707031 126.910156 140.519531 126.910156 C 142.238281 126.910156 142.238281 128.878906 142.238281 129.347656 C 142.238281 129.878906 142.238281 130.535156 141.925781 131.035156 C 141.769531 131.253906 141.300781 131.816406 140.519531 131.816406 Z M 138.207031 132.597656 C 138.207031 132.535156 138.207031 132.066406 138.519531 131.660156 C 139.300781 132.222656 140.144531 132.285156 140.519531 132.285156 C 142.363281 132.285156 143.738281 130.910156 143.738281 129.378906 C 143.738281 128.628906 143.425781 127.910156 142.925781 127.441406 C 143.644531 126.753906 144.363281 126.660156 144.707031 126.660156 C 144.769531 126.660156 144.863281 126.660156 144.925781 126.691406 C 144.707031 126.753906 144.582031 126.972656 144.582031 127.222656 C 144.582031 127.566406 144.863281 127.785156 145.175781 127.785156 C 145.363281 127.785156 145.738281 127.660156 145.738281 127.191406 C 145.738281 126.847656 145.519531 126.222656 144.738281 126.222656 C 144.332031 126.222656 143.457031 126.347656 142.613281 127.160156 C 141.769531 126.503906 140.957031 126.441406 140.519531 126.441406 C 138.644531 126.441406 137.269531 127.816406 137.269531 129.347656 C 137.269531 130.222656 137.707031 130.972656 138.207031 131.410156 C 137.957031 131.691406 137.582031 132.347656 137.582031 133.066406 C 137.582031 133.691406 137.863281 134.441406 138.488281 134.847656 C 137.269531 135.160156 136.644531 136.035156 136.644531 136.816406 C 136.644531 138.253906 138.613281 139.347656 141.050781 139.347656 C 143.394531 139.347656 145.457031 138.347656 145.457031 136.785156 C 145.457031 136.097656 145.207031 135.066406 144.175781 134.503906 C 143.113281 133.972656 141.957031 133.972656 140.738281 133.972656 C 140.238281 133.972656 139.394531 133.972656 139.238281 133.941406 C 138.613281 133.847656 138.207031 133.253906 138.207031 132.597656 Z M 141.082031 138.910156 C 139.050781 138.910156 137.675781 137.878906 137.675781 136.816406 C 137.675781 135.910156 138.425781 135.160156 139.300781 135.128906 L 140.488281 135.128906 C 142.207031 135.128906 144.425781 135.128906 144.425781 136.816406 C 144.425781 137.910156 143.019531 138.910156 141.082031 138.910156 Z M 141.082031 138.910156 "/>
<path style=" stroke:none;fill-rule:nonzero;fill:rgb(0%,0%,0%);fill-opacity:1;" d="M 150.484375 131.816406 C 148.734375 131.816406 148.734375 129.816406 148.734375 129.378906 C 148.734375 128.847656 148.765625 128.191406 149.046875 127.691406 C 149.203125 127.472656 149.671875 126.910156 150.484375 126.910156 C 152.203125 126.910156 152.203125 128.878906 152.203125 129.347656 C 152.203125 129.878906 152.203125 130.535156 151.890625 131.035156 C 151.734375 131.253906 151.265625 131.816406 150.484375 131.816406 Z M 148.171875 132.597656 C 148.171875 132.535156 148.171875 132.066406 148.484375 131.660156 C 149.265625 132.222656 150.109375 132.285156 150.484375 132.285156 C 152.328125 132.285156 153.703125 130.910156 153.703125 129.378906 C 153.703125 128.628906 153.390625 127.910156 152.890625 127.441406 C 153.609375 126.753906 154.328125 126.660156 154.671875 126.660156 C 154.734375 126.660156 154.828125 126.660156 154.890625 126.691406 C 154.671875 126.753906 154.546875 126.972656 154.546875 127.222656 C 154.546875 127.566406 154.828125 127.785156 155.140625 127.785156 C 155.328125 127.785156 155.703125 127.660156 155.703125 127.191406 C 155.703125 126.847656 155.484375 126.222656 154.703125 126.222656 C 154.296875 126.222656 153.421875 126.347656 152.578125 127.160156 C 151.734375 126.503906 150.921875 126.441406 150.484375 126.441406 C 148.609375 126.441406 147.234375 127.816406 147.234375 129.347656 C 147.234375 130.222656 147.671875 130.972656 148.171875 131.410156 C 147.921875 131.691406 147.546875 132.347656 147.546875 133.066406 C 147.546875 133.691406 147.828125 134.441406 148.453125 134.847656 C 147.234375 135.160156 146.609375 136.035156 146.609375 136.816406 C 146.609375 138.253906 148.578125 139.347656 151.015625 139.347656 C 153.359375 139.347656 155.421875 138.347656 155.421875 136.785156 C 155.421875 136.097656 155.171875 135.066406 154.140625 134.503906 C 153.078125 133.972656 151.921875 133.972656 150.703125 133.972656 C 150.203125 133.972656 149.359375 133.972656 149.203125 133.941406 C 148.578125 133.847656 148.171875 133.253906 148.171875 132.597656 Z M 151.046875 138.910156 C 149.015625 138.910156 147.640625 137.878906 147.640625 136.816406 C 147.640625 135.910156 148.390625 135.160156 149.265625 135.128906 L 150.453125 135.128906 C 152.171875 135.128906 154.390625 135.128906 154.390625 136.816406 C 154.390625 137.910156 152.984375 138.910156 151.046875 138.910156 Z M 151.046875 138.910156 "/>
<path style=" stroke:none;fill-rule:nonzero;fill:rgb(0%,0%,0%);fill-opacity:1;" d="M 160.445312 131.816406 C 158.695312 131.816406 158.695312 129.816406 158.695312 129.378906 C 158.695312 128.847656 158.726562 128.191406 159.007812 127.691406 C 159.164062 127.472656 159.632812 126.910156 160.445312 126.910156 C 162.164062 126.910156 162.164062 128.878906 162.164062 129.347656 C 162.164062 129.878906 162.164062 130.535156 161.851562 131.035156 C 161.695312 131.253906 161.226562 131.816406 160.445312 131.816406 Z M 158.132812 132.597656 C 158.132812 132.535156 158.132812 132.066406 158.445312 131.660156 C 159.226562 132.222656 160.070312 132.285156 160.445312 132.285156 C 162.289062 132.285156 163.664062 130.910156 163.664062 129.378906 C 163.664062 128.628906 163.351562 127.910156 162.851562 127.441406 C 163.570312 126.753906 164.289062 126.660156 164.632812 126.660156 C 164.695312 126.660156 164.789062 126.660156 164.851562 126.691406 C 164.632812 126.753906 164.507812 126.972656 164.507812 127.222656 C 164.507812 127.566406 164.789062 127.785156 165.101562 127.785156 C 165.289062 127.785156 165.664062 127.660156 165.664062 127.191406 C 165.664062 126.847656 165.445312 126.222656 164.664062 126.222656 C 164.257812 126.222656 163.382812 126.347656 162.539062 127.160156 C 161.695312 126.503906 160.882812 126.441406 160.445312 126.441406 C 158.570312 126.441406 157.195312 127.816406 157.195312 129.347656 C 157.195312 130.222656 157.632812 130.972656 158.132812 131.410156 C 157.882812 131.691406 157.507812 132.347656 157.507812 133.066406 C 157.507812 133.691406 157.789062 134.441406 158.414062 134.847656 C 157.195312 135.160156 156.570312 136.035156 156.570312 136.816406 C 156.570312 138.253906 158.539062 139.347656 160.976562 139.347656 C 163.320312 139.347656 165.382812 138.347656 165.382812 136.785156 C 165.382812 136.097656 165.132812 135.066406 164.101562 134.503906 C 163.039062 133.972656 161.882812 133.972656 160.664062 133.972656 C 160.164062 133.972656 159.320312 133.972656 159.164062 133.941406 C 158.539062 133.847656 158.132812 133.253906 158.132812 132.597656 Z M 161.007812 138.910156 C 158.976562 138.910156 157.601562 137.878906 157.601562 136.816406 C 157.601562 135.910156 158.351562 135.160156 159.226562 135.128906 L 160.414062 135.128906 C 162.132812 135.128906 164.351562 135.128906 164.351562 136.816406 C 164.351562 137.910156 162.945312 138.910156 161.007812 138.910156 Z M 161.007812 138.910156 "/>
<path style=" stroke:none;fill-rule:nonzero;fill:rgb(0%,0%,0%);fill-opacity:1;" d="M 170.40625 131.816406 C 168.65625 131.816406 168.65625 129.816406 168.65625 129.378906 C 168.65625 128.847656 168.6875 128.191406 168.96875 127.691406 C 169.125 127.472656 169.59375 126.910156 170.40625 126.910156 C 172.125 126.910156 172.125 128.878906 172.125 129.347656 C 172.125 129.878906 172.125 130.535156 171.8125 131.035156 C 171.65625 131.253906 171.1875 131.816406 170.40625 131.816406 Z M 168.09375 132.597656 C 168.09375 132.535156 168.09375 132.066406 168.40625 131.660156 C 169.1875 132.222656 170.03125 132.285156 170.40625 132.285156 C 172.25 132.285156 173.625 130.910156 173.625 129.378906 C 173.625 128.628906 173.3125 127.910156 172.8125 127.441406 C 173.53125 126.753906 174.25 126.660156 174.59375 126.660156 C 174.65625 126.660156 174.75 126.660156 174.8125 126.691406 C 174.59375 126.753906 174.46875 126.972656 174.46875 127.222656 C 174.46875 127.566406 174.75 127.785156 175.0625 127.785156 C 175.25 127.785156 175.625 127.660156 175.625 127.191406 C 175.625 126.847656 175.40625 126.222656 174.625 126.222656 C 174.21875 126.222656 173.34375 126.347656 172.5 127.160156 C 171.65625 126.503906 170.84375 126.441406 170.40625 126.441406 C 168.53125 126.441406 167.15625 127.816406 167.15625 129.347656 C 167.15625 130.222656 167.59375 130.972656 168.09375 131.410156 C 167.84375 131.691406 167.46875 132.347656 167.46875 133.066406 C 167.46875 133.691406 167.75 134.441406 168.375 134.847656 C 167.15625 135.160156 166.53125 136.035156 166.53125 136.816406 C 166.53125 138.253906 168.5 139.347656 170.9375 139.347656 C 173.28125 139.347656 175.34375 138.347656 175.34375 136.785156 C 175.34375 136.097656 175.09375 135.066406 174.0625 134.503906 C 173 133.972656 171.84375 133.972656 170.625 133.972656 C 170.125 133.972656 169.28125 133.972656 169.125 133.941406 C 168.5 133.847656 168.09375 133.253906 168.09375 132.597656 Z M 170.96875 138.910156 C 168.9375 138.910156 167.5625 137.878906 167.5625 136.816406 C 167.5625 135.910156 168.3125 135.160156 169.1875 135.128906 L 170.375 135.128906 C 172.09375 135.128906 174.3125 135.128906 174.3125 136.816406 C 174.3125 137.910156 172.90625 138.910156 170.96875 138.910156 Z M 170.96875 138.910156 "/>
<path style=" stroke:none;fill-rule:nonzero;fill:rgb(0%,0%,0%);fill-opacity:1;" d="M 180.371094 131.816406 C 178.621094 131.816406 178.621094 129.816406 178.621094 129.378906 C 178.621094 128.847656 178.652344 128.191406 178.933594 127.691406 C 179.089844 127.472656 179.558594 126.910156 180.371094 126.910156 C 182.089844 126.910156 182.089844 128.878906 182.089844 129.347656 C 182.089844 129.878906 182.089844 130.535156 181.777344 131.035156 C 181.621094 131.253906 181.152344 131.816406 180.371094 131.816406 Z M 178.058594 132.597656 C 178.058594 132.535156 178.058594 132.066406 178.371094 131.660156 C 179.152344 132.222656 179.996094 132.285156 180.371094 132.285156 C 182.214844 132.285156 183.589844 130.910156 183.589844 129.378906 C 183.589844 128.628906 183.277344 127.910156 182.777344 127.441406 C 183.496094 126.753906 184.214844 126.660156 184.558594 126.660156 C 184.621094 126.660156 184.714844 126.660156 184.777344 126.691406 C 184.558594 126.753906 184.433594 126.972656 184.433594 127.222656 C 184.433594 127.566406 184.714844 127.785156 185.027344 127.785156 C 185.214844 127.785156 185.589844 127.660156 185.589844 127.191406 C 185.589844 126.847656 185.371094 126.222656 184.589844 126.222656 C 184.183594 126.222656 183.308594 126.347656 182.464844 127.160156 C 181.621094 126.503906 180.808594 126.441406 180.371094 126.441406 C 178.496094 126.441406 177.121094 127.816406 177.121094 129.347656 C 177.121094 130.222656 177.558594 130.972656 178.058594 131.410156 C 177.808594 131.691406 177.433594 132.347656 177.433594 133.066406 C 177.433594 133.691406 177.714844 134.441406 178.339844 134.847656 C 177.121094 135.160156 176.496094 136.035156 176.496094 136.816406 C 176.496094 138.253906 178.464844 139.347656 180.902344 139.347656 C 183.246094 139.347656 185.308594 138.347656 185.308594 136.785156 C 185.308594 136.097656 185.058594 135.066406 184.027344 134.503906 C 182.964844 133.972656 181.808594 133.972656 180.589844 133.972656 C 180.089844 133.972656 179.246094 133.972656 179.089844 133.941406 C 178.464844 133.847656 178.058594 133.253906 178.058594 132.597656 Z M 180.933594 138.910156 C 178.902344 138.910156 177.527344 137.878906 177.527344 136.816406 C 177.527344 135.910156 178.277344 135.160156 179.152344 135.128906 L 180.339844 135.128906 C 182.058594 135.128906 184.277344 135.128906 184.277344 136.816406 C 184.277344 137.910156 182.871094 138.910156 180.933594 138.910156 Z M 180.933594 138.910156 "/>
<path style=" stroke:none;fill-rule:nonzero;fill:rgb(0%,0%,0%);fill-opacity:1;" d="M 190.332031 131.816406 C 188.582031 131.816406 188.582031 129.816406 188.582031 129.378906 C 188.582031 128.847656 188.613281 128.191406 188.894531 127.691406 C 189.050781 127.472656 189.519531 126.910156 190.332031 126.910156 C 192.050781 126.910156 192.050781 128.878906 192.050781 129.347656 C 192.050781 129.878906 192.050781 130.535156 191.738281 131.035156 C 191.582031 131.253906 191.113281 131.816406 190.332031 131.816406 Z M 188.019531 132.597656 C 188.019531 132.535156 188.019531 132.066406 188.332031 131.660156 C 189.113281 132.222656 189.957031 132.285156 190.332031 132.285156 C 192.175781 132.285156 193.550781 130.910156 193.550781 129.378906 C 193.550781 128.628906 193.238281 127.910156 192.738281 127.441406 C 193.457031 126.753906 194.175781 126.660156 194.519531 126.660156 C 194.582031 126.660156 194.675781 126.660156 194.738281 126.691406 C 194.519531 126.753906 194.394531 126.972656 194.394531 127.222656 C 194.394531 127.566406 194.675781 127.785156 194.988281 127.785156 C 195.175781 127.785156 195.550781 127.660156 195.550781 127.191406 C 195.550781 126.847656 195.332031 126.222656 194.550781 126.222656 C 194.144531 126.222656 193.269531 126.347656 192.425781 127.160156 C 191.582031 126.503906 190.769531 126.441406 190.332031 126.441406 C 188.457031 126.441406 187.082031 127.816406 187.082031 129.347656 C 187.082031 130.222656 187.519531 130.972656 188.019531 131.410156 C 187.769531 131.691406 187.394531 132.347656 187.394531 133.066406 C 187.394531 133.691406 187.675781 134.441406 188.300781 134.847656 C 187.082031 135.160156 186.457031 136.035156 186.457031 136.816406 C 186.457031 138.253906 188.425781 139.347656 190.863281 139.347656 C 193.207031 139.347656 195.269531 138.347656 195.269531 136.785156 C 195.269531 136.097656 195.019531 135.066406 193.988281 134.503906 C 192.925781 133.972656 191.769531 133.972656 190.550781 133.972656 C 190.050781 133.972656 189.207031 133.972656 189.050781 133.941406 C 188.425781 133.847656 188.019531 133.253906 188.019531 132.597656 Z M 190.894531 138.910156 C 188.863281 138.910156 187.488281 137.878906 187.488281 136.816406 C 187.488281 135.910156 188.238281 135.160156 189.113281 135.128906 L 190.300781 135.128906 C 192.019531 135.128906 194.238281 135.128906 194.238281 136.816406 C 194.238281 137.910156 192.832031 138.910156 190.894531 138.910156 Z M 190.894531 138.910156 "/>
<path style=" stroke:none;fill-rule:nonzero;fill:rgb(0%,0%,0%);fill-opacity:1;" d="M 200.296875 131.816406 C 198.546875 131.816406 198.546875 129.816406 198.546875 129.378906 C 198.546875 128.847656 198.578125 128.191406 198.859375 127.691406 C 199.015625 127.472656 199.484375 126.910156 200.296875 126.910156 C 202.015625 126.910156 202.015625 128.878906 202.015625 129.347656 C 202.015625 129.878906 202.015625 130.535156 201.703125 131.035156 C 201.546875 131.253906 201.078125 131.816406 200.296875 131.816406 Z M 197.984375 132.597656 C 197.984375 132.535156 197.984375 132.066406 198.296875 131.660156 C 199.078125 132.222656 199.921875 132.285156 200.296875 132.285156 C 202.140625 132.285156 203.515625 130.910156 203.515625 129.378906 C 203.515625 128.628906 203.203125 127.910156 202.703125 127.441406 C 203.421875 126.753906 204.140625 126.660156 204.484375 126.660156 C 204.546875 126.660156 204.640625 126.660156 204.703125 126.691406 C 204.484375 126.753906 204.359375 126.972656 204.359375 127.222656 C 204.359375 127.566406 204.640625 127.785156 204.953125 127.785156 C 205.140625 127.785156 205.515625 127.660156 205.515625 127.191406 C 205.515625 126.847656 205.296875 126.222656 204.515625 126.222656 C 204.109375 126.222656 203.234375 126.347656 202.390625 127.160156 C 201.546875 126.503906 200.734375 126.441406 200.296875 126.441406 C 198.421875 126.441406 197.046875 127.816406 197.046875 129.347656 C 197.046875 130.222656 197.484375 130.972656 197.984375 131.410156 C 197.734375 131.691406 197.359375 132.347656 197.359375 133.066406 C 197.359375 133.691406 197.640625 134.441406 198.265625 134.847656 C 197.046875 135.160156 196.421875 136.035156 196.421875 136.816406 C 196.421875 138.253906 198.390625 139.347656 200.828125 139.347656 C 203.171875 139.347656 205.234375 138.347656 205.234375 136.785156 C 205.234375 136.097656 204.984375 135.066406 203.953125 134.503906 C 202.890625 133.972656 201.734375 133.972656 200.515625 133.972656 C 200.015625 133.972656 199.171875 133.972656 199.015625 133.941406 C 198.390625 133.847656 197.984375 133.253906 197.984375 132.597656 Z M 200.859375 138.910156 C 198.828125 138.910156 197.453125 137.878906 197.453125 136.816406 C 197.453125 135.910156 198.203125 135.160156 199.078125 135.128906 L 200.265625 135.128906 C 201.984375 135.128906 204.203125 135.128906 204.203125 136.816406 C 204.203125 137.910156 202.796875 138.910156 200.859375 138.910156 Z M 200.859375 138.910156 "/>
<path style="fill:none;stroke-width:0.566929;stroke-linecap:butt;stroke-linejoin:miter;stroke:rgb(100%,0%,0%);stroke-opacity:0.5;stroke-miterlimit:10;" d="M 100.281435 59.526682 L 105.949403 53.858714 " transform="matrix(2,0,0,2,5.952756,6.169291)"/>
<path style="fill:none;stroke-width:0.566929;stroke-linecap:butt;stroke-linejoin:miter;stroke:rgb(100%,0%,0%);stroke-opacity:0.5;stroke-miterlimit:10;" d="M 105.949403 59.526682 L 100.281435 53.858714 " transform="matrix(2,0,0,2,5.952756,6.169291)"/>
<path style="fill:none;stroke-width:0.566929;stroke-linecap:butt;stroke-linejoin:miter;stroke:rgb(100%,0%,0%);stroke-opacity:0.5;stroke-miterlimit:10;" d="M 103.115419 85.038401 L 103.115419 56.692698 Z M 103.115419 85.038401 " transform="matrix(2,0,0,2,5.952756,6.169291)"/>
</g>
</svg>
