<?xml version="1.0" encoding="UTF-8"?>
<svg xmlns="http://www.w3.org/2000/svg" xmlns:xlink="http://www.w3.org/1999/xlink" width="55.613441pt" height="52.276083pt" viewBox="0 0 55.613441 52.276083" version="1.1">
<g id="surface21">
<path style="fill:none;stroke-width:0.566929;stroke-linecap:butt;stroke-linejoin:miter;stroke:rgb(100%,0%,0%);stroke-opacity:0.5;stroke-miterlimit:10;" d="M -2.834646 2.835276 L 2.835276 -2.834646 " transform="matrix(2,0,0,2,5.669291,5.669291)"/>
<path style="fill:none;stroke-width:0.566929;stroke-linecap:butt;stroke-linejoin:miter;stroke:rgb(100%,0%,0%);stroke-opacity:0.5;stroke-miterlimit:10;" d="M 2.835276 2.835276 L -2.834646 -2.834646 " transform="matrix(2,0,0,2,5.669291,5.669291)"/>
<path style="fill-rule:nonzero;fill:rgb(50%,50%,0%);fill-opacity:0.1;stroke-width:0.566929;stroke-linecap:butt;stroke-linejoin:miter;stroke:rgb(100%,0%,0%);stroke-opacity:0.5;stroke-miterlimit:10;" d="M -0.000661294 22.514964 L 24.971995 22.514964 L 24.971995 -0.000661294 L -0.000661294 -0.000661294 Z M -0.000661294 22.514964 " transform="matrix(2,0,0,2,5.669291,5.669291)"/>
<path style="fill:none;stroke-width:0.566929;stroke-linecap:butt;stroke-linejoin:miter;stroke:rgb(100%,0%,0%);stroke-opacity:0.5;stroke-miterlimit:10;" d="M -2.834646 9.757151 L 2.835276 4.087229 " transform="matrix(2,0,0,2,5.669291,5.669291)"/>
<path style="fill:none;stroke-width:0.566929;stroke-linecap:butt;stroke-linejoin:miter;stroke:rgb(100%,0%,0%);stroke-opacity:0.5;stroke-miterlimit:10;" d="M 2.835276 9.757151 L -2.834646 4.087229 " transform="matrix(2,0,0,2,5.669291,5.669291)"/>
<path style="fill-rule:nonzero;fill:rgb(50%,50%,0%);fill-opacity:0.1;stroke-width:0.566929;stroke-linecap:butt;stroke-linejoin:miter;stroke:rgb(100%,0%,0%);stroke-opacity:0.5;stroke-miterlimit:10;" d="M -0.000661294 8.968089 L 24.971995 8.968089 L 24.971995 -0.000661294 L -0.000661294 -0.000661294 Z M -0.000661294 8.968089 " transform="matrix(2,0,0,2,5.669291,5.669291)"/>
<path style=" stroke:none;fill-rule:nonzero;fill:rgb(0%,0%,0%);fill-opacity:1;" d="M 9.542969 16.074219 C 7.792969 16.074219 7.792969 14.074219 7.792969 13.636719 C 7.792969 13.105469 7.824219 12.449219 8.105469 11.949219 C 8.261719 11.730469 8.730469 11.167969 9.542969 11.167969 C 11.261719 11.167969 11.261719 13.136719 11.261719 13.605469 C 11.261719 14.136719 11.261719 14.792969 10.949219 15.292969 C 10.792969 15.511719 10.324219 16.074219 9.542969 16.074219 Z M 7.230469 16.855469 C 7.230469 16.792969 7.230469 16.324219 7.542969 15.917969 C 8.324219 16.480469 9.167969 16.542969 9.542969 16.542969 C 11.386719 16.542969 12.761719 15.167969 12.761719 13.636719 C 12.761719 12.886719 12.449219 12.167969 11.949219 11.699219 C 12.667969 11.011719 13.386719 10.917969 13.730469 10.917969 C 13.792969 10.917969 13.886719 10.917969 13.949219 10.949219 C 13.730469 11.011719 13.605469 11.230469 13.605469 11.480469 C 13.605469 11.824219 13.886719 12.042969 14.199219 12.042969 C 14.386719 12.042969 14.761719 11.917969 14.761719 11.449219 C 14.761719 11.105469 14.542969 10.480469 13.761719 10.480469 C 13.355469 10.480469 12.480469 10.605469 11.636719 11.417969 C 10.792969 10.761719 9.980469 10.699219 9.542969 10.699219 C 7.667969 10.699219 6.292969 12.074219 6.292969 13.605469 C 6.292969 14.480469 6.730469 15.230469 7.230469 15.667969 C 6.980469 15.949219 6.605469 16.605469 6.605469 17.324219 C 6.605469 17.949219 6.886719 18.699219 7.511719 19.105469 C 6.292969 19.417969 5.667969 20.292969 5.667969 21.074219 C 5.667969 22.511719 7.636719 23.605469 10.074219 23.605469 C 12.417969 23.605469 14.480469 22.605469 14.480469 21.042969 C 14.480469 20.355469 14.230469 19.324219 13.199219 18.761719 C 12.136719 18.230469 10.980469 18.230469 9.761719 18.230469 C 9.261719 18.230469 8.417969 18.230469 8.261719 18.199219 C 7.636719 18.105469 7.230469 17.511719 7.230469 16.855469 Z M 10.105469 23.167969 C 8.074219 23.167969 6.699219 22.136719 6.699219 21.074219 C 6.699219 20.167969 7.449219 19.417969 8.324219 19.386719 L 9.511719 19.386719 C 11.230469 19.386719 13.449219 19.386719 13.449219 21.074219 C 13.449219 22.167969 12.042969 23.167969 10.105469 23.167969 Z M 10.105469 23.167969 "/>
<path style=" stroke:none;fill-rule:nonzero;fill:rgb(0%,0%,0%);fill-opacity:1;" d="M 17.289062 14.480469 C 17.414062 11.511719 19.101562 11.011719 19.789062 11.011719 C 21.820312 11.011719 22.039062 13.699219 22.039062 14.480469 Z M 17.289062 14.917969 L 22.851562 14.917969 C 23.289062 14.917969 23.351562 14.917969 23.351562 14.480469 C 23.351562 12.511719 22.257812 10.574219 19.789062 10.574219 C 17.476562 10.574219 15.632812 12.636719 15.632812 15.136719 C 15.632812 17.792969 17.726562 19.730469 20.007812 19.730469 C 22.445312 19.730469 23.351562 17.511719 23.351562 17.136719 C 23.351562 16.949219 23.195312 16.886719 23.070312 16.886719 C 22.914062 16.886719 22.851562 17.011719 22.820312 17.167969 C 22.132812 19.230469 20.320312 19.230469 20.132812 19.230469 C 19.132812 19.230469 18.351562 18.636719 17.882812 17.886719 C 17.289062 16.949219 17.289062 15.636719 17.289062 14.917969 Z M 17.289062 14.917969 "/>
<path style=" stroke:none;fill-rule:nonzero;fill:rgb(0%,0%,0%);fill-opacity:1;" d="M 28.363281 16.074219 C 26.613281 16.074219 26.613281 14.074219 26.613281 13.636719 C 26.613281 13.105469 26.644531 12.449219 26.925781 11.949219 C 27.082031 11.730469 27.550781 11.167969 28.363281 11.167969 C 30.082031 11.167969 30.082031 13.136719 30.082031 13.605469 C 30.082031 14.136719 30.082031 14.792969 29.769531 15.292969 C 29.613281 15.511719 29.144531 16.074219 28.363281 16.074219 Z M 26.050781 16.855469 C 26.050781 16.792969 26.050781 16.324219 26.363281 15.917969 C 27.144531 16.480469 27.988281 16.542969 28.363281 16.542969 C 30.207031 16.542969 31.582031 15.167969 31.582031 13.636719 C 31.582031 12.886719 31.269531 12.167969 30.769531 11.699219 C 31.488281 11.011719 32.207031 10.917969 32.550781 10.917969 C 32.613281 10.917969 32.707031 10.917969 32.769531 10.949219 C 32.550781 11.011719 32.425781 11.230469 32.425781 11.480469 C 32.425781 11.824219 32.707031 12.042969 33.019531 12.042969 C 33.207031 12.042969 33.582031 11.917969 33.582031 11.449219 C 33.582031 11.105469 33.363281 10.480469 32.582031 10.480469 C 32.175781 10.480469 31.300781 10.605469 30.457031 11.417969 C 29.613281 10.761719 28.800781 10.699219 28.363281 10.699219 C 26.488281 10.699219 25.113281 12.074219 25.113281 13.605469 C 25.113281 14.480469 25.550781 15.230469 26.050781 15.667969 C 25.800781 15.949219 25.425781 16.605469 25.425781 17.324219 C 25.425781 17.949219 25.707031 18.699219 26.332031 19.105469 C 25.113281 19.417969 24.488281 20.292969 24.488281 21.074219 C 24.488281 22.511719 26.457031 23.605469 28.894531 23.605469 C 31.238281 23.605469 33.300781 22.605469 33.300781 21.042969 C 33.300781 20.355469 33.050781 19.324219 32.019531 18.761719 C 30.957031 18.230469 29.800781 18.230469 28.582031 18.230469 C 28.082031 18.230469 27.238281 18.230469 27.082031 18.199219 C 26.457031 18.105469 26.050781 17.511719 26.050781 16.855469 Z M 28.925781 23.167969 C 26.894531 23.167969 25.519531 22.136719 25.519531 21.074219 C 25.519531 20.167969 26.269531 19.417969 27.144531 19.386719 L 28.332031 19.386719 C 30.050781 19.386719 32.269531 19.386719 32.269531 21.074219 C 32.269531 22.167969 30.863281 23.167969 28.925781 23.167969 Z M 28.925781 23.167969 "/>
<path style=" stroke:none;fill-rule:nonzero;fill:rgb(0%,0%,0%);fill-opacity:1;" d="M 36.074219 18.011719 C 36.074219 18.886719 35.855469 18.886719 34.511719 18.886719 L 34.511719 19.511719 C 35.230469 19.480469 36.230469 19.449219 36.792969 19.449219 C 37.292969 19.449219 38.324219 19.480469 39.011719 19.511719 L 39.011719 18.886719 C 37.667969 18.886719 37.449219 18.886719 37.449219 18.011719 L 37.449219 14.324219 C 37.449219 12.261719 38.886719 11.136719 40.136719 11.136719 C 41.417969 11.136719 41.636719 12.199219 41.636719 13.355469 L 41.636719 18.011719 C 41.636719 18.886719 41.417969 18.886719 40.074219 18.886719 L 40.074219 19.511719 C 40.761719 19.480469 41.792969 19.449219 42.324219 19.449219 C 42.824219 19.449219 43.886719 19.480469 44.542969 19.511719 L 44.542969 18.886719 C 43.511719 18.886719 43.011719 18.886719 43.011719 18.292969 L 43.011719 14.480469 C 43.011719 12.761719 43.011719 12.167969 42.386719 11.449219 C 42.105469 11.105469 41.449219 10.699219 40.292969 10.699219 C 38.605469 10.699219 37.730469 11.886719 37.386719 12.667969 L 37.386719 5.667969 L 34.511719 5.886719 L 34.511719 6.511719 C 35.917969 6.511719 36.074219 6.636719 36.074219 7.636719 Z M 36.074219 18.011719 "/>
<path style=" stroke:none;fill-rule:nonzero;fill:rgb(0%,0%,0%);fill-opacity:1;" d="M 47.144531 18.011719 C 47.144531 18.886719 46.925781 18.886719 45.582031 18.886719 L 45.582031 19.511719 C 46.300781 19.480469 47.300781 19.449219 47.863281 19.449219 C 48.363281 19.449219 49.394531 19.480469 50.082031 19.511719 L 50.082031 18.886719 C 48.738281 18.886719 48.519531 18.886719 48.519531 18.011719 L 48.519531 14.324219 C 48.519531 12.261719 49.957031 11.136719 51.207031 11.136719 C 52.488281 11.136719 52.707031 12.199219 52.707031 13.355469 L 52.707031 18.011719 C 52.707031 18.886719 52.488281 18.886719 51.144531 18.886719 L 51.144531 19.511719 C 51.832031 19.480469 52.863281 19.449219 53.394531 19.449219 C 53.894531 19.449219 54.957031 19.480469 55.613281 19.511719 L 55.613281 18.886719 C 54.582031 18.886719 54.082031 18.886719 54.082031 18.292969 L 54.082031 14.480469 C 54.082031 12.761719 54.082031 12.167969 53.457031 11.449219 C 53.175781 11.105469 52.519531 10.699219 51.363281 10.699219 C 49.675781 10.699219 48.800781 11.886719 48.457031 12.667969 L 48.457031 5.667969 L 45.582031 5.886719 L 45.582031 6.511719 C 46.988281 6.511719 47.144531 6.636719 47.144531 7.636719 Z M 47.144531 18.011719 "/>
<path style="fill:none;stroke-width:0.566929;stroke-linecap:butt;stroke-linejoin:miter;stroke:rgb(100%,0%,0%);stroke-opacity:0.5;stroke-miterlimit:10;" d="M -2.834646 18.725901 L 2.835276 13.055979 " transform="matrix(2,0,0,2,5.669291,5.669291)"/>
<path style="fill:none;stroke-width:0.566929;stroke-linecap:butt;stroke-linejoin:miter;stroke:rgb(100%,0%,0%);stroke-opacity:0.5;stroke-miterlimit:10;" d="M 2.835276 18.725901 L -2.834646 13.055979 " transform="matrix(2,0,0,2,5.669291,5.669291)"/>
<path style="fill-rule:nonzero;fill:rgb(50%,50%,0%);fill-opacity:0.1;stroke-width:0.566929;stroke-linecap:butt;stroke-linejoin:miter;stroke:rgb(100%,0%,0%);stroke-opacity:0.5;stroke-miterlimit:10;" d="M -0.000661294 15.999339 L 20.067698 15.999339 L 20.067698 8.968089 L -0.000661294 8.968089 Z M -0.000661294 15.999339 " transform="matrix(2,0,0,2,5.669291,5.669291)"/>
<path style=" stroke:none;fill-rule:nonzero;fill:rgb(0%,0%,0%);fill-opacity:1;" d="M 11.136719 32.761719 C 11.730469 32.011719 12.480469 31.042969 12.980469 30.511719 C 13.605469 29.792969 14.417969 29.480469 15.355469 29.480469 L 15.355469 28.855469 C 14.824219 28.886719 14.230469 28.917969 13.699219 28.917969 C 13.105469 28.917969 12.042969 28.886719 11.792969 28.855469 L 11.792969 29.480469 C 12.230469 29.511719 12.386719 29.761719 12.386719 30.105469 C 12.386719 30.417969 12.167969 30.667969 12.074219 30.792969 L 10.855469 32.355469 L 9.292969 30.324219 C 9.105469 30.136719 9.105469 30.105469 9.105469 29.980469 C 9.105469 29.667969 9.417969 29.480469 9.792969 29.480469 L 9.792969 28.855469 C 9.292969 28.886719 7.980469 28.917969 7.636719 28.917969 C 7.230469 28.917969 6.292969 28.886719 5.761719 28.855469 L 5.761719 29.480469 C 7.167969 29.480469 7.167969 29.480469 8.105469 30.699219 L 10.074219 33.261719 L 8.199219 35.636719 C 7.261719 36.792969 6.074219 36.824219 5.667969 36.824219 L 5.667969 37.449219 C 6.167969 37.417969 6.792969 37.386719 7.324219 37.386719 C 7.886719 37.386719 8.730469 37.417969 9.199219 37.449219 L 9.199219 36.824219 C 8.761719 36.761719 8.636719 36.511719 8.636719 36.199219 C 8.636719 35.761719 9.199219 35.105469 10.417969 33.667969 L 11.949219 35.667969 C 12.105469 35.886719 12.355469 36.199219 12.355469 36.324219 C 12.355469 36.511719 12.167969 36.824219 11.636719 36.824219 L 11.636719 37.449219 C 12.230469 37.417969 13.355469 37.386719 13.792969 37.386719 C 14.324219 37.386719 15.105469 37.417969 15.699219 37.449219 L 15.699219 36.824219 C 14.636719 36.824219 14.261719 36.792969 13.824219 36.199219 Z M 11.136719 32.761719 "/>
<path style=" stroke:none;fill-rule:nonzero;fill:rgb(0%,0%,0%);fill-opacity:1;" d="M 21.65625 32.761719 C 22.25 32.011719 23 31.042969 23.5 30.511719 C 24.125 29.792969 24.9375 29.480469 25.875 29.480469 L 25.875 28.855469 C 25.34375 28.886719 24.75 28.917969 24.21875 28.917969 C 23.625 28.917969 22.5625 28.886719 22.3125 28.855469 L 22.3125 29.480469 C 22.75 29.511719 22.90625 29.761719 22.90625 30.105469 C 22.90625 30.417969 22.6875 30.667969 22.59375 30.792969 L 21.375 32.355469 L 19.8125 30.324219 C 19.625 30.136719 19.625 30.105469 19.625 29.980469 C 19.625 29.667969 19.9375 29.480469 20.3125 29.480469 L 20.3125 28.855469 C 19.8125 28.886719 18.5 28.917969 18.15625 28.917969 C 17.75 28.917969 16.8125 28.886719 16.28125 28.855469 L 16.28125 29.480469 C 17.6875 29.480469 17.6875 29.480469 18.625 30.699219 L 20.59375 33.261719 L 18.71875 35.636719 C 17.78125 36.792969 16.59375 36.824219 16.1875 36.824219 L 16.1875 37.449219 C 16.6875 37.417969 17.3125 37.386719 17.84375 37.386719 C 18.40625 37.386719 19.25 37.417969 19.71875 37.449219 L 19.71875 36.824219 C 19.28125 36.761719 19.15625 36.511719 19.15625 36.199219 C 19.15625 35.761719 19.71875 35.105469 20.9375 33.667969 L 22.46875 35.667969 C 22.625 35.886719 22.875 36.199219 22.875 36.324219 C 22.875 36.511719 22.6875 36.824219 22.15625 36.824219 L 22.15625 37.449219 C 22.75 37.417969 23.875 37.386719 24.3125 37.386719 C 24.84375 37.386719 25.625 37.417969 26.21875 37.449219 L 26.21875 36.824219 C 25.15625 36.824219 24.78125 36.792969 24.34375 36.199219 Z M 21.65625 32.761719 "/>
<path style=" stroke:none;fill-rule:nonzero;fill:rgb(0%,0%,0%);fill-opacity:1;" d="M 34.015625 36.355469 L 34.015625 37.667969 L 36.953125 37.449219 L 36.953125 36.824219 C 35.578125 36.824219 35.390625 36.699219 35.390625 35.699219 L 35.390625 23.605469 L 32.546875 23.824219 L 32.546875 24.449219 C 33.921875 24.449219 34.078125 24.574219 34.078125 25.574219 L 34.078125 29.886719 C 33.515625 29.167969 32.640625 28.636719 31.578125 28.636719 C 29.234375 28.636719 27.140625 30.605469 27.140625 33.167969 C 27.140625 35.699219 29.078125 37.667969 31.359375 37.667969 C 32.640625 37.667969 33.515625 36.980469 34.015625 36.355469 Z M 34.015625 31.011719 L 34.015625 35.105469 C 34.015625 35.449219 34.015625 35.480469 33.796875 35.824219 C 33.203125 36.792969 32.328125 37.230469 31.453125 37.230469 C 30.546875 37.230469 29.828125 36.699219 29.359375 35.949219 C 28.859375 35.136719 28.796875 34.011719 28.796875 33.167969 C 28.796875 32.449219 28.828125 31.261719 29.390625 30.355469 C 29.828125 29.730469 30.578125 29.074219 31.671875 29.074219 C 32.359375 29.074219 33.203125 29.386719 33.796875 30.261719 C 34.015625 30.605469 34.015625 30.636719 34.015625 31.011719 Z M 34.015625 31.011719 "/>
<path style=" stroke:none;fill-rule:nonzero;fill:rgb(0%,0%,0%);fill-opacity:1;" d="M 39.742188 32.417969 C 39.867188 29.449219 41.554688 28.949219 42.242188 28.949219 C 44.273438 28.949219 44.492188 31.636719 44.492188 32.417969 Z M 39.742188 32.855469 L 45.304688 32.855469 C 45.742188 32.855469 45.804688 32.855469 45.804688 32.417969 C 45.804688 30.449219 44.710938 28.511719 42.242188 28.511719 C 39.929688 28.511719 38.085938 30.574219 38.085938 33.074219 C 38.085938 35.730469 40.179688 37.667969 42.460938 37.667969 C 44.898438 37.667969 45.804688 35.449219 45.804688 35.074219 C 45.804688 34.886719 45.648438 34.824219 45.523438 34.824219 C 45.367188 34.824219 45.304688 34.949219 45.273438 35.105469 C 44.585938 37.167969 42.773438 37.167969 42.585938 37.167969 C 41.585938 37.167969 40.804688 36.574219 40.335938 35.824219 C 39.742188 34.886719 39.742188 33.574219 39.742188 32.855469 Z M 39.742188 32.855469 "/>
<path style="fill:none;stroke-width:0.566929;stroke-linecap:butt;stroke-linejoin:miter;stroke:rgb(100%,0%,0%);stroke-opacity:0.5;stroke-miterlimit:10;" d="M -2.834646 23.304026 L 2.835276 17.634104 " transform="matrix(2,0,0,2,5.669291,5.669291)"/>
<path style="fill:none;stroke-width:0.566929;stroke-linecap:butt;stroke-linejoin:miter;stroke:rgb(100%,0%,0%);stroke-opacity:0.5;stroke-miterlimit:10;" d="M 2.835276 23.304026 L -2.834646 17.634104 " transform="matrix(2,0,0,2,5.669291,5.669291)"/>
<path style="fill-rule:nonzero;fill:rgb(50%,50%,0%);fill-opacity:0.1;stroke-width:0.566929;stroke-linecap:butt;stroke-linejoin:miter;stroke:rgb(100%,0%,0%);stroke-opacity:0.5;stroke-miterlimit:10;" d="M -0.000661294 22.514964 L 24.030589 22.514964 L 24.030589 15.999339 L -0.000661294 15.999339 Z M -0.000661294 22.514964 " transform="matrix(2,0,0,2,5.669291,5.669291)"/>
<path style=" stroke:none;fill-rule:nonzero;fill:rgb(0%,0%,0%);fill-opacity:1;" d="M 11.136719 41.917969 C 11.730469 41.167969 12.480469 40.199219 12.980469 39.667969 C 13.605469 38.949219 14.417969 38.636719 15.355469 38.636719 L 15.355469 38.011719 C 14.824219 38.042969 14.230469 38.074219 13.699219 38.074219 C 13.105469 38.074219 12.042969 38.042969 11.792969 38.011719 L 11.792969 38.636719 C 12.230469 38.667969 12.386719 38.917969 12.386719 39.261719 C 12.386719 39.574219 12.167969 39.824219 12.074219 39.949219 L 10.855469 41.511719 L 9.292969 39.480469 C 9.105469 39.292969 9.105469 39.261719 9.105469 39.136719 C 9.105469 38.824219 9.417969 38.636719 9.792969 38.636719 L 9.792969 38.011719 C 9.292969 38.042969 7.980469 38.074219 7.636719 38.074219 C 7.230469 38.074219 6.292969 38.042969 5.761719 38.011719 L 5.761719 38.636719 C 7.167969 38.636719 7.167969 38.636719 8.105469 39.855469 L 10.074219 42.417969 L 8.199219 44.792969 C 7.261719 45.949219 6.074219 45.980469 5.667969 45.980469 L 5.667969 46.605469 C 6.167969 46.574219 6.792969 46.542969 7.324219 46.542969 C 7.886719 46.542969 8.730469 46.574219 9.199219 46.605469 L 9.199219 45.980469 C 8.761719 45.917969 8.636719 45.667969 8.636719 45.355469 C 8.636719 44.917969 9.199219 44.261719 10.417969 42.824219 L 11.949219 44.824219 C 12.105469 45.042969 12.355469 45.355469 12.355469 45.480469 C 12.355469 45.667969 12.167969 45.980469 11.636719 45.980469 L 11.636719 46.605469 C 12.230469 46.574219 13.355469 46.542969 13.792969 46.542969 C 14.324219 46.542969 15.105469 46.574219 15.699219 46.605469 L 15.699219 45.980469 C 14.636719 45.980469 14.261719 45.949219 13.824219 45.355469 Z M 11.136719 41.917969 "/>
<path style=" stroke:none;fill-rule:nonzero;fill:rgb(0%,0%,0%);fill-opacity:1;" d="M 24.21875 39.917969 C 24.71875 38.636719 25.75 38.636719 26.0625 38.636719 L 26.0625 38.011719 C 25.59375 38.042969 25.03125 38.074219 24.5625 38.074219 C 24.21875 38.074219 23.28125 38.042969 22.84375 38.011719 L 22.84375 38.636719 C 23.46875 38.636719 23.78125 38.980469 23.78125 39.480469 C 23.78125 39.699219 23.75 39.730469 23.65625 39.980469 L 21.625 44.855469 L 19.4375 39.511719 C 19.34375 39.292969 19.3125 39.230469 19.3125 39.136719 C 19.3125 38.636719 20.03125 38.636719 20.4375 38.636719 L 20.4375 38.011719 C 19.90625 38.042969 18.59375 38.074219 18.25 38.074219 C 17.71875 38.074219 16.90625 38.042969 16.3125 38.011719 L 16.3125 38.636719 C 17.28125 38.636719 17.65625 38.636719 17.9375 39.324219 L 20.9375 46.605469 C 20.8125 46.855469 20.53125 47.511719 20.4375 47.792969 C 20 48.886719 19.4375 50.261719 18.15625 50.261719 C 18.0625 50.261719 17.59375 50.261719 17.21875 49.886719 C 17.84375 49.824219 18 49.386719 18 49.042969 C 18 48.542969 17.625 48.230469 17.15625 48.230469 C 16.75 48.230469 16.3125 48.480469 16.3125 49.074219 C 16.3125 49.980469 17.15625 50.699219 18.15625 50.699219 C 19.40625 50.699219 20.21875 49.542969 20.6875 48.417969 Z M 24.21875 39.917969 "/>
<path style=" stroke:none;fill-rule:nonzero;fill:rgb(0%,0%,0%);fill-opacity:1;" d="M 28.113281 41.574219 C 28.238281 38.605469 29.925781 38.105469 30.613281 38.105469 C 32.644531 38.105469 32.863281 40.792969 32.863281 41.574219 Z M 28.113281 42.011719 L 33.675781 42.011719 C 34.113281 42.011719 34.175781 42.011719 34.175781 41.574219 C 34.175781 39.605469 33.082031 37.667969 30.613281 37.667969 C 28.300781 37.667969 26.457031 39.730469 26.457031 42.230469 C 26.457031 44.886719 28.550781 46.824219 30.832031 46.824219 C 33.269531 46.824219 34.175781 44.605469 34.175781 44.230469 C 34.175781 44.042969 34.019531 43.980469 33.894531 43.980469 C 33.738281 43.980469 33.675781 44.105469 33.644531 44.261719 C 32.957031 46.324219 31.144531 46.324219 30.957031 46.324219 C 29.957031 46.324219 29.175781 45.730469 28.707031 44.980469 C 28.113281 44.042969 28.113281 42.730469 28.113281 42.011719 Z M 28.113281 42.011719 "/>
<path style=" stroke:none;fill-rule:nonzero;fill:rgb(0%,0%,0%);fill-opacity:1;" d="M 36.96875 41.574219 C 37.09375 38.605469 38.78125 38.105469 39.46875 38.105469 C 41.5 38.105469 41.71875 40.792969 41.71875 41.574219 Z M 36.96875 42.011719 L 42.53125 42.011719 C 42.96875 42.011719 43.03125 42.011719 43.03125 41.574219 C 43.03125 39.605469 41.9375 37.667969 39.46875 37.667969 C 37.15625 37.667969 35.3125 39.730469 35.3125 42.230469 C 35.3125 44.886719 37.40625 46.824219 39.6875 46.824219 C 42.125 46.824219 43.03125 44.605469 43.03125 44.230469 C 43.03125 44.042969 42.875 43.980469 42.75 43.980469 C 42.59375 43.980469 42.53125 44.105469 42.5 44.261719 C 41.8125 46.324219 40 46.324219 39.8125 46.324219 C 38.8125 46.324219 38.03125 45.730469 37.5625 44.980469 C 36.96875 44.042969 36.96875 42.730469 36.96875 42.011719 Z M 36.96875 42.011719 "/>
<path style=" stroke:none;fill-rule:nonzero;fill:rgb(0%,0%,0%);fill-opacity:1;" d="M 51.886719 39.917969 C 52.386719 38.636719 53.417969 38.636719 53.730469 38.636719 L 53.730469 38.011719 C 53.261719 38.042969 52.699219 38.074219 52.230469 38.074219 C 51.886719 38.074219 50.949219 38.042969 50.511719 38.011719 L 50.511719 38.636719 C 51.136719 38.636719 51.449219 38.980469 51.449219 39.480469 C 51.449219 39.699219 51.417969 39.730469 51.324219 39.980469 L 49.292969 44.855469 L 47.105469 39.511719 C 47.011719 39.292969 46.980469 39.230469 46.980469 39.136719 C 46.980469 38.636719 47.699219 38.636719 48.105469 38.636719 L 48.105469 38.011719 C 47.574219 38.042969 46.261719 38.074219 45.917969 38.074219 C 45.386719 38.074219 44.574219 38.042969 43.980469 38.011719 L 43.980469 38.636719 C 44.949219 38.636719 45.324219 38.636719 45.605469 39.324219 L 48.605469 46.605469 C 48.480469 46.855469 48.199219 47.511719 48.105469 47.792969 C 47.667969 48.886719 47.105469 50.261719 45.824219 50.261719 C 45.730469 50.261719 45.261719 50.261719 44.886719 49.886719 C 45.511719 49.824219 45.667969 49.386719 45.667969 49.042969 C 45.667969 48.542969 45.292969 48.230469 44.824219 48.230469 C 44.417969 48.230469 43.980469 48.480469 43.980469 49.074219 C 43.980469 49.980469 44.824219 50.699219 45.824219 50.699219 C 47.074219 50.699219 47.886719 49.542969 48.355469 48.417969 Z M 51.886719 39.917969 "/>
</g>
</svg>
