<?xml version="1.0" encoding="UTF-8"?>
<svg xmlns="http://www.w3.org/2000/svg" xmlns:xlink="http://www.w3.org/1999/xlink" width="412.287345pt" height="375.127682pt" viewBox="0 0 412.287345 375.127682" version="1.1">
<g id="surface77">
<path style="fill:none;stroke-width:0.566929;stroke-linecap:butt;stroke-linejoin:miter;stroke:rgb(100%,0%,0%);stroke-opacity:0.5;stroke-miterlimit:10;" d="M -2.834646 2.834169 L 2.835276 -2.8338 " transform="matrix(2,0,0,2,6.169291,5.952756)"/>
<path style="fill:none;stroke-width:0.566929;stroke-linecap:butt;stroke-linejoin:miter;stroke:rgb(100%,0%,0%);stroke-opacity:0.5;stroke-miterlimit:10;" d="M 2.835276 2.834169 L -2.834646 -2.8338 " transform="matrix(2,0,0,2,6.169291,5.952756)"/>
<path style="fill-rule:nonzero;fill:rgb(50%,50%,0%);fill-opacity:0.1;stroke-width:0.566929;stroke-linecap:butt;stroke-linejoin:miter;stroke:rgb(100%,0%,0%);stroke-opacity:0.5;stroke-miterlimit:10;" d="M -0.000661294 184.338075 L 202.917307 184.338075 L 202.917307 0.000184547 L -0.000661294 0.000184547 Z M -0.000661294 184.338075 " transform="matrix(2,0,0,2,6.169291,5.952756)"/>
<path style="fill:none;stroke-width:0.566929;stroke-linecap:butt;stroke-linejoin:miter;stroke:rgb(100%,0%,0%);stroke-opacity:0.5;stroke-miterlimit:10;" d="M -2.834646 58.412294 L 2.835276 52.742372 " transform="matrix(2,0,0,2,6.169291,5.952756)"/>
<path style="fill:none;stroke-width:0.566929;stroke-linecap:butt;stroke-linejoin:miter;stroke:rgb(100%,0%,0%);stroke-opacity:0.5;stroke-miterlimit:10;" d="M 2.835276 58.412294 L -2.834646 52.742372 " transform="matrix(2,0,0,2,6.169291,5.952756)"/>
<path style="fill-rule:nonzero;fill:rgb(50%,50%,0%);fill-opacity:0.1;stroke-width:0.566929;stroke-linecap:butt;stroke-linejoin:miter;stroke:rgb(100%,0%,0%);stroke-opacity:0.5;stroke-miterlimit:10;" d="M -0.000661294 105.425966 L 202.917307 105.425966 L 202.917307 0.000184547 L -0.000661294 0.000184547 Z M -0.000661294 105.425966 " transform="matrix(2,0,0,2,6.169291,5.952756)"/>
<path style="fill:none;stroke-width:0.566929;stroke-linecap:butt;stroke-linejoin:miter;stroke:rgb(100%,0%,0%);stroke-opacity:0.5;stroke-miterlimit:10;" d="M 46.057932 58.412294 L 51.727854 52.742372 " transform="matrix(2,0,0,2,6.169291,5.952756)"/>
<path style="fill:none;stroke-width:0.566929;stroke-linecap:butt;stroke-linejoin:miter;stroke:rgb(100%,0%,0%);stroke-opacity:0.5;stroke-miterlimit:10;" d="M 51.727854 58.412294 L 46.057932 52.742372 " transform="matrix(2,0,0,2,6.169291,5.952756)"/>
<path style="fill-rule:nonzero;fill:rgb(50%,50%,0%);fill-opacity:0.1;stroke-width:0.566929;stroke-linecap:butt;stroke-linejoin:miter;stroke:rgb(100%,0%,0%);stroke-opacity:0.5;stroke-miterlimit:10;" d="M -0.000661294 105.425966 L 101.604807 105.425966 L 101.604807 0.000184547 L -0.000661294 0.000184547 Z M -0.000661294 105.425966 " transform="matrix(2,0,0,2,6.169291,5.952756)"/>
<path style="fill:none;stroke-width:0.566929;stroke-linecap:butt;stroke-linejoin:miter;stroke:rgb(100%,0%,0%);stroke-opacity:0.5;stroke-miterlimit:10;" d="M 152.231761 58.412294 L 157.901682 52.742372 " transform="matrix(2,0,0,2,6.169291,5.952756)"/>
<path style="fill:none;stroke-width:0.566929;stroke-linecap:butt;stroke-linejoin:miter;stroke:rgb(100%,0%,0%);stroke-opacity:0.5;stroke-miterlimit:10;" d="M 157.901682 58.412294 L 152.231761 52.742372 " transform="matrix(2,0,0,2,6.169291,5.952756)"/>
<path style="fill-rule:nonzero;fill:rgb(50%,50%,0%);fill-opacity:0.1;stroke-width:0.566929;stroke-linecap:butt;stroke-linejoin:miter;stroke:rgb(100%,0%,0%);stroke-opacity:0.5;stroke-miterlimit:10;" d="M 101.604807 92.006044 L 176.819651 92.006044 L 176.819651 34.941591 L 101.604807 34.941591 Z M 101.604807 92.006044 " transform="matrix(2,0,0,2,6.169291,5.952756)"/>
<path style="fill:none;stroke-width:0.566929;stroke-linecap:butt;stroke-linejoin:miter;stroke:rgb(100%,0%,0%);stroke-opacity:0.5;stroke-miterlimit:10;" d="M 173.985667 58.412294 L 179.653636 52.742372 " transform="matrix(2,0,0,2,6.169291,5.952756)"/>
<path style="fill:none;stroke-width:0.566929;stroke-linecap:butt;stroke-linejoin:miter;stroke:rgb(100%,0%,0%);stroke-opacity:0.5;stroke-miterlimit:10;" d="M 179.653636 58.412294 L 173.985667 52.742372 " transform="matrix(2,0,0,2,6.169291,5.952756)"/>
<path style="fill-rule:nonzero;fill:rgb(50%,50%,0%);fill-opacity:0.1;stroke-width:0.566929;stroke-linecap:butt;stroke-linejoin:miter;stroke:rgb(100%,0%,0%);stroke-opacity:0.5;stroke-miterlimit:10;" d="M 176.819651 57.625185 L 202.917307 57.625185 L 202.917307 47.437685 L 176.819651 47.437685 Z M 176.819651 57.625185 " transform="matrix(2,0,0,2,6.169291,5.952756)"/>
<path style=" stroke:none;fill-rule:nonzero;fill:rgb(0%,0%,0%);fill-opacity:1;" d="M 372.371094 104.046875 C 372.371094 103.328125 372.402344 103.109375 373.933594 103.109375 L 374.433594 103.109375 L 374.433594 102.484375 C 373.714844 102.546875 372.246094 102.546875 371.496094 102.546875 C 370.746094 102.546875 369.246094 102.546875 368.558594 102.484375 L 368.558594 103.109375 L 369.027344 103.109375 C 370.558594 103.109375 370.589844 103.328125 370.589844 104.046875 L 370.589844 108.703125 L 364.652344 108.703125 L 364.652344 104.046875 C 364.652344 103.328125 364.683594 103.109375 366.214844 103.109375 L 366.683594 103.109375 L 366.683594 102.484375 C 365.996094 102.546875 364.527344 102.546875 363.746094 102.546875 C 362.996094 102.546875 361.496094 102.546875 360.808594 102.484375 L 360.808594 103.109375 L 361.277344 103.109375 C 362.808594 103.109375 362.871094 103.328125 362.871094 104.046875 L 362.871094 114.546875 C 362.871094 115.265625 362.808594 115.484375 361.277344 115.484375 L 360.808594 115.484375 L 360.808594 116.109375 C 361.496094 116.046875 362.996094 116.046875 363.746094 116.046875 C 364.496094 116.046875 365.996094 116.046875 366.683594 116.109375 L 366.683594 115.484375 L 366.214844 115.484375 C 364.683594 115.484375 364.652344 115.265625 364.652344 114.546875 L 364.652344 109.328125 L 370.589844 109.328125 L 370.589844 114.546875 C 370.589844 115.265625 370.558594 115.484375 369.027344 115.484375 L 368.558594 115.484375 L 368.558594 116.109375 C 369.246094 116.046875 370.714844 116.046875 371.464844 116.046875 C 372.246094 116.046875 373.714844 116.046875 374.433594 116.109375 L 374.433594 115.484375 L 373.933594 115.484375 C 372.402344 115.484375 372.371094 115.265625 372.371094 114.546875 Z M 372.371094 104.046875 "/>
<path style=" stroke:none;fill-rule:nonzero;fill:rgb(0%,0%,0%);fill-opacity:1;" d="M 378.628906 107.296875 L 375.847656 107.515625 L 375.847656 108.140625 C 377.128906 108.140625 377.316406 108.265625 377.316406 109.234375 L 377.316406 114.609375 C 377.316406 115.484375 377.097656 115.484375 375.753906 115.484375 L 375.753906 116.109375 C 376.378906 116.078125 377.472656 116.046875 377.941406 116.046875 C 378.660156 116.046875 379.347656 116.078125 380.035156 116.109375 L 380.035156 115.484375 C 378.691406 115.484375 378.628906 115.390625 378.628906 114.609375 Z M 378.691406 103.828125 C 378.691406 103.203125 378.222656 102.765625 377.660156 102.765625 C 377.035156 102.765625 376.597656 103.296875 376.597656 103.828125 C 376.597656 104.359375 377.035156 104.890625 377.660156 104.890625 C 378.222656 104.890625 378.691406 104.453125 378.691406 103.828125 Z M 378.691406 103.828125 "/>
<path style=" stroke:none;fill-rule:nonzero;fill:rgb(0%,0%,0%);fill-opacity:1;" d="M 385.070312 112.671875 C 383.320312 112.671875 383.320312 110.671875 383.320312 110.234375 C 383.320312 109.703125 383.351562 109.046875 383.632812 108.546875 C 383.789062 108.328125 384.257812 107.765625 385.070312 107.765625 C 386.789062 107.765625 386.789062 109.734375 386.789062 110.203125 C 386.789062 110.734375 386.789062 111.390625 386.476562 111.890625 C 386.320312 112.109375 385.851562 112.671875 385.070312 112.671875 Z M 382.757812 113.453125 C 382.757812 113.390625 382.757812 112.921875 383.070312 112.515625 C 383.851562 113.078125 384.695312 113.140625 385.070312 113.140625 C 386.914062 113.140625 388.289062 111.765625 388.289062 110.234375 C 388.289062 109.484375 387.976562 108.765625 387.476562 108.296875 C 388.195312 107.609375 388.914062 107.515625 389.257812 107.515625 C 389.320312 107.515625 389.414062 107.515625 389.476562 107.546875 C 389.257812 107.609375 389.132812 107.828125 389.132812 108.078125 C 389.132812 108.421875 389.414062 108.640625 389.726562 108.640625 C 389.914062 108.640625 390.289062 108.515625 390.289062 108.046875 C 390.289062 107.703125 390.070312 107.078125 389.289062 107.078125 C 388.882812 107.078125 388.007812 107.203125 387.164062 108.015625 C 386.320312 107.359375 385.507812 107.296875 385.070312 107.296875 C 383.195312 107.296875 381.820312 108.671875 381.820312 110.203125 C 381.820312 111.078125 382.257812 111.828125 382.757812 112.265625 C 382.507812 112.546875 382.132812 113.203125 382.132812 113.921875 C 382.132812 114.546875 382.414062 115.296875 383.039062 115.703125 C 381.820312 116.015625 381.195312 116.890625 381.195312 117.671875 C 381.195312 119.109375 383.164062 120.203125 385.601562 120.203125 C 387.945312 120.203125 390.007812 119.203125 390.007812 117.640625 C 390.007812 116.953125 389.757812 115.921875 388.726562 115.359375 C 387.664062 114.828125 386.507812 114.828125 385.289062 114.828125 C 384.789062 114.828125 383.945312 114.828125 383.789062 114.796875 C 383.164062 114.703125 382.757812 114.109375 382.757812 113.453125 Z M 385.632812 119.765625 C 383.601562 119.765625 382.226562 118.734375 382.226562 117.671875 C 382.226562 116.765625 382.976562 116.015625 383.851562 115.984375 L 385.039062 115.984375 C 386.757812 115.984375 388.976562 115.984375 388.976562 117.671875 C 388.976562 118.765625 387.570312 119.765625 385.632812 119.765625 Z M 385.632812 119.765625 "/>
<path style=" stroke:none;fill-rule:nonzero;fill:rgb(0%,0%,0%);fill-opacity:1;" d="M 399.75 109.734375 C 399.75 108.140625 399.65625 106.546875 398.96875 105.078125 C 398.0625 103.140625 396.40625 102.828125 395.59375 102.828125 C 394.375 102.828125 392.9375 103.359375 392.09375 105.203125 C 391.46875 106.578125 391.375 108.140625 391.375 109.734375 C 391.375 111.234375 391.4375 113.015625 392.28125 114.546875 C 393.125 116.140625 394.59375 116.546875 395.5625 116.546875 C 396.625 116.546875 398.15625 116.140625 399.03125 114.234375 C 399.65625 112.859375 399.75 111.296875 399.75 109.734375 Z M 395.5625 116.109375 C 394.78125 116.109375 393.59375 115.609375 393.25 113.703125 C 393.03125 112.515625 393.03125 110.671875 393.03125 109.484375 C 393.03125 108.203125 393.03125 106.890625 393.1875 105.828125 C 393.5625 103.453125 395.0625 103.265625 395.5625 103.265625 C 396.21875 103.265625 397.53125 103.640625 397.90625 105.609375 C 398.125 106.734375 398.125 108.234375 398.125 109.484375 C 398.125 110.984375 398.125 112.328125 397.90625 113.609375 C 397.59375 115.515625 396.46875 116.109375 395.5625 116.109375 Z M 395.5625 116.109375 "/>
<path style=" stroke:none;fill-rule:nonzero;fill:rgb(0%,0%,0%);fill-opacity:1;" d="M 410.253906 111.953125 L 411.003906 102.859375 C 411.003906 102.203125 410.472656 101.828125 409.972656 101.828125 C 409.441406 101.828125 408.910156 102.203125 408.910156 102.859375 L 409.691406 111.921875 C 409.691406 112.234375 409.722656 112.390625 409.972656 112.390625 C 410.160156 112.390625 410.222656 112.296875 410.253906 111.953125 Z M 411.003906 115.046875 C 411.003906 114.484375 410.535156 113.984375 409.972656 113.984375 C 409.378906 113.984375 408.910156 114.484375 408.910156 115.046875 C 408.910156 115.640625 409.378906 116.109375 409.972656 116.109375 C 410.535156 116.109375 411.003906 115.640625 411.003906 115.046875 Z M 411.003906 115.046875 "/>
<path style="fill:none;stroke-width:0.566929;stroke-linecap:butt;stroke-linejoin:miter;stroke:rgb(100%,0%,0%);stroke-opacity:0.5;stroke-miterlimit:10;" d="M -2.834646 161.875185 L 2.835276 156.207216 " transform="matrix(2,0,0,2,6.169291,5.952756)"/>
<path style="fill:none;stroke-width:0.566929;stroke-linecap:butt;stroke-linejoin:miter;stroke:rgb(100%,0%,0%);stroke-opacity:0.5;stroke-miterlimit:10;" d="M 2.835276 161.875185 L -2.834646 156.207216 " transform="matrix(2,0,0,2,6.169291,5.952756)"/>
<path style="fill-rule:nonzero;fill:rgb(50%,50%,0%);fill-opacity:0.1;stroke-width:0.566929;stroke-linecap:butt;stroke-linejoin:miter;stroke:rgb(100%,0%,0%);stroke-opacity:0.5;stroke-miterlimit:10;" d="M -0.000661294 184.338075 L 138.628245 184.338075 L 138.628245 105.425966 L -0.000661294 105.425966 Z M -0.000661294 184.338075 " transform="matrix(2,0,0,2,6.169291,5.952756)"/>
<path style="fill:none;stroke-width:0.566929;stroke-linecap:butt;stroke-linejoin:miter;stroke:rgb(100%,0%,0%);stroke-opacity:0.5;stroke-miterlimit:10;" d="M 47.218089 161.875185 L 52.886057 156.207216 " transform="matrix(2,0,0,2,6.169291,5.952756)"/>
<path style="fill:none;stroke-width:0.566929;stroke-linecap:butt;stroke-linejoin:miter;stroke:rgb(100%,0%,0%);stroke-opacity:0.5;stroke-miterlimit:10;" d="M 52.886057 161.875185 L 47.218089 156.207216 " transform="matrix(2,0,0,2,6.169291,5.952756)"/>
<path style="fill-rule:nonzero;fill:rgb(50%,50%,0%);fill-opacity:0.1;stroke-width:0.566929;stroke-linecap:butt;stroke-linejoin:miter;stroke:rgb(100%,0%,0%);stroke-opacity:0.5;stroke-miterlimit:10;" d="M -0.000661294 184.338075 L 76.680979 184.338075 L 76.680979 119.972841 L -0.000661294 119.972841 Z M -0.000661294 184.338075 " transform="matrix(2,0,0,2,6.169291,5.952756)"/>
<path style="fill:none;stroke-width:0.566929;stroke-linecap:butt;stroke-linejoin:miter;stroke:rgb(100%,0%,0%);stroke-opacity:0.5;stroke-miterlimit:10;" d="M 99.815745 161.875185 L 105.483714 156.207216 " transform="matrix(2,0,0,2,6.169291,5.952756)"/>
<path style="fill:none;stroke-width:0.566929;stroke-linecap:butt;stroke-linejoin:miter;stroke:rgb(100%,0%,0%);stroke-opacity:0.5;stroke-miterlimit:10;" d="M 105.483714 161.875185 L 99.815745 156.207216 " transform="matrix(2,0,0,2,6.169291,5.952756)"/>
<path style="fill-rule:nonzero;fill:rgb(50%,50%,0%);fill-opacity:0.1;stroke-width:0.566929;stroke-linecap:butt;stroke-linejoin:miter;stroke:rgb(100%,0%,0%);stroke-opacity:0.5;stroke-miterlimit:10;" d="M 76.680979 182.191591 L 112.528636 182.191591 L 112.528636 105.425966 L 76.680979 105.425966 Z M 76.680979 182.191591 " transform="matrix(2,0,0,2,6.169291,5.952756)"/>
<path style="fill:none;stroke-width:0.566929;stroke-linecap:butt;stroke-linejoin:miter;stroke:rgb(100%,0%,0%);stroke-opacity:0.5;stroke-miterlimit:10;" d="M 109.694651 161.875185 L 115.364573 156.207216 " transform="matrix(2,0,0,2,6.169291,5.952756)"/>
<path style="fill:none;stroke-width:0.566929;stroke-linecap:butt;stroke-linejoin:miter;stroke:rgb(100%,0%,0%);stroke-opacity:0.5;stroke-miterlimit:10;" d="M 115.364573 161.875185 L 109.694651 156.207216 " transform="matrix(2,0,0,2,6.169291,5.952756)"/>
<path style="fill-rule:nonzero;fill:rgb(50%,50%,0%);fill-opacity:0.1;stroke-width:0.566929;stroke-linecap:butt;stroke-linejoin:miter;stroke:rgb(100%,0%,0%);stroke-opacity:0.5;stroke-miterlimit:10;" d="M 112.528636 161.088075 L 138.628245 161.088075 L 138.628245 150.900575 L 112.528636 150.900575 Z M 112.528636 161.088075 " transform="matrix(2,0,0,2,6.169291,5.952756)"/>
<path style=" stroke:none;fill-rule:nonzero;fill:rgb(0%,0%,0%);fill-opacity:1;" d="M 243.789062 310.972656 C 243.789062 310.253906 243.820312 310.035156 245.351562 310.035156 L 245.851562 310.035156 L 245.851562 309.410156 C 245.132812 309.472656 243.664062 309.472656 242.914062 309.472656 C 242.164062 309.472656 240.664062 309.472656 239.976562 309.410156 L 239.976562 310.035156 L 240.445312 310.035156 C 241.976562 310.035156 242.007812 310.253906 242.007812 310.972656 L 242.007812 315.628906 L 236.070312 315.628906 L 236.070312 310.972656 C 236.070312 310.253906 236.101562 310.035156 237.632812 310.035156 L 238.101562 310.035156 L 238.101562 309.410156 C 237.414062 309.472656 235.945312 309.472656 235.164062 309.472656 C 234.414062 309.472656 232.914062 309.472656 232.226562 309.410156 L 232.226562 310.035156 L 232.695312 310.035156 C 234.226562 310.035156 234.289062 310.253906 234.289062 310.972656 L 234.289062 321.472656 C 234.289062 322.191406 234.226562 322.410156 232.695312 322.410156 L 232.226562 322.410156 L 232.226562 323.035156 C 232.914062 322.972656 234.414062 322.972656 235.164062 322.972656 C 235.914062 322.972656 237.414062 322.972656 238.101562 323.035156 L 238.101562 322.410156 L 237.632812 322.410156 C 236.101562 322.410156 236.070312 322.191406 236.070312 321.472656 L 236.070312 316.253906 L 242.007812 316.253906 L 242.007812 321.472656 C 242.007812 322.191406 241.976562 322.410156 240.445312 322.410156 L 239.976562 322.410156 L 239.976562 323.035156 C 240.664062 322.972656 242.132812 322.972656 242.882812 322.972656 C 243.664062 322.972656 245.132812 322.972656 245.851562 323.035156 L 245.851562 322.410156 L 245.351562 322.410156 C 243.820312 322.410156 243.789062 322.191406 243.789062 321.472656 Z M 243.789062 310.972656 "/>
<path style=" stroke:none;fill-rule:nonzero;fill:rgb(0%,0%,0%);fill-opacity:1;" d="M 250.046875 314.222656 L 247.265625 314.441406 L 247.265625 315.066406 C 248.546875 315.066406 248.734375 315.191406 248.734375 316.160156 L 248.734375 321.535156 C 248.734375 322.410156 248.515625 322.410156 247.171875 322.410156 L 247.171875 323.035156 C 247.796875 323.003906 248.890625 322.972656 249.359375 322.972656 C 250.078125 322.972656 250.765625 323.003906 251.453125 323.035156 L 251.453125 322.410156 C 250.109375 322.410156 250.046875 322.316406 250.046875 321.535156 Z M 250.109375 310.753906 C 250.109375 310.128906 249.640625 309.691406 249.078125 309.691406 C 248.453125 309.691406 248.015625 310.222656 248.015625 310.753906 C 248.015625 311.285156 248.453125 311.816406 249.078125 311.816406 C 249.640625 311.816406 250.109375 311.378906 250.109375 310.753906 Z M 250.109375 310.753906 "/>
<path style=" stroke:none;fill-rule:nonzero;fill:rgb(0%,0%,0%);fill-opacity:1;" d="M 256.488281 319.597656 C 254.738281 319.597656 254.738281 317.597656 254.738281 317.160156 C 254.738281 316.628906 254.769531 315.972656 255.050781 315.472656 C 255.207031 315.253906 255.675781 314.691406 256.488281 314.691406 C 258.207031 314.691406 258.207031 316.660156 258.207031 317.128906 C 258.207031 317.660156 258.207031 318.316406 257.894531 318.816406 C 257.738281 319.035156 257.269531 319.597656 256.488281 319.597656 Z M 254.175781 320.378906 C 254.175781 320.316406 254.175781 319.847656 254.488281 319.441406 C 255.269531 320.003906 256.113281 320.066406 256.488281 320.066406 C 258.332031 320.066406 259.707031 318.691406 259.707031 317.160156 C 259.707031 316.410156 259.394531 315.691406 258.894531 315.222656 C 259.613281 314.535156 260.332031 314.441406 260.675781 314.441406 C 260.738281 314.441406 260.832031 314.441406 260.894531 314.472656 C 260.675781 314.535156 260.550781 314.753906 260.550781 315.003906 C 260.550781 315.347656 260.832031 315.566406 261.144531 315.566406 C 261.332031 315.566406 261.707031 315.441406 261.707031 314.972656 C 261.707031 314.628906 261.488281 314.003906 260.707031 314.003906 C 260.300781 314.003906 259.425781 314.128906 258.582031 314.941406 C 257.738281 314.285156 256.925781 314.222656 256.488281 314.222656 C 254.613281 314.222656 253.238281 315.597656 253.238281 317.128906 C 253.238281 318.003906 253.675781 318.753906 254.175781 319.191406 C 253.925781 319.472656 253.550781 320.128906 253.550781 320.847656 C 253.550781 321.472656 253.832031 322.222656 254.457031 322.628906 C 253.238281 322.941406 252.613281 323.816406 252.613281 324.597656 C 252.613281 326.035156 254.582031 327.128906 257.019531 327.128906 C 259.363281 327.128906 261.425781 326.128906 261.425781 324.566406 C 261.425781 323.878906 261.175781 322.847656 260.144531 322.285156 C 259.082031 321.753906 257.925781 321.753906 256.707031 321.753906 C 256.207031 321.753906 255.363281 321.753906 255.207031 321.722656 C 254.582031 321.628906 254.175781 321.035156 254.175781 320.378906 Z M 257.050781 326.691406 C 255.019531 326.691406 253.644531 325.660156 253.644531 324.597656 C 253.644531 323.691406 254.394531 322.941406 255.269531 322.910156 L 256.457031 322.910156 C 258.175781 322.910156 260.394531 322.910156 260.394531 324.597656 C 260.394531 325.691406 258.988281 326.691406 257.050781 326.691406 Z M 257.050781 326.691406 "/>
<path style=" stroke:none;fill-rule:nonzero;fill:rgb(0%,0%,0%);fill-opacity:1;" d="M 267.890625 310.285156 C 267.890625 309.785156 267.890625 309.753906 267.421875 309.753906 C 266.171875 311.035156 264.421875 311.035156 263.796875 311.035156 L 263.796875 311.660156 C 264.203125 311.660156 265.359375 311.660156 266.390625 311.128906 L 266.390625 321.472656 C 266.390625 322.191406 266.328125 322.410156 264.546875 322.410156 L 263.921875 322.410156 L 263.921875 323.035156 C 264.609375 322.972656 266.328125 322.972656 267.140625 322.972656 C 267.921875 322.972656 269.671875 322.972656 270.359375 323.035156 L 270.359375 322.410156 L 269.734375 322.410156 C 267.921875 322.410156 267.890625 322.191406 267.890625 321.472656 Z M 267.890625 310.285156 "/>
<path style=" stroke:none;fill-rule:nonzero;fill:rgb(0%,0%,0%);fill-opacity:1;" d="M 281.675781 318.878906 L 282.425781 309.785156 C 282.425781 309.128906 281.894531 308.753906 281.394531 308.753906 C 280.863281 308.753906 280.332031 309.128906 280.332031 309.785156 L 281.113281 318.847656 C 281.113281 319.160156 281.144531 319.316406 281.394531 319.316406 C 281.582031 319.316406 281.644531 319.222656 281.675781 318.878906 Z M 282.425781 321.972656 C 282.425781 321.410156 281.957031 320.910156 281.394531 320.910156 C 280.800781 320.910156 280.332031 321.410156 280.332031 321.972656 C 280.332031 322.566406 280.800781 323.035156 281.394531 323.035156 C 281.957031 323.035156 282.425781 322.566406 282.425781 321.972656 Z M 282.425781 321.972656 "/>
</g>
</svg>
