<?xml version="1.0" encoding="UTF-8"?>
<svg xmlns="http://www.w3.org/2000/svg" xmlns:xlink="http://www.w3.org/1999/xlink" width="143.807827pt" height="19.513041pt" viewBox="0 0 143.807827 19.513041" version="1.1">
<g id="surface21">
<path style="fill:none;stroke-width:0.566929;stroke-linecap:butt;stroke-linejoin:miter;stroke:rgb(100%,0%,0%);stroke-opacity:0.5;stroke-miterlimit:10;" d="M -2.834646 2.833984 L 2.835276 -2.833984 " transform="matrix(2,0,0,2,5.669291,13.84375)"/>
<path style="fill:none;stroke-width:0.566929;stroke-linecap:butt;stroke-linejoin:miter;stroke:rgb(100%,0%,0%);stroke-opacity:0.5;stroke-miterlimit:10;" d="M 2.835276 2.833984 L -2.834646 -2.833984 " transform="matrix(2,0,0,2,5.669291,13.84375)"/>
<path style="fill-rule:nonzero;fill:rgb(50%,50%,0%);fill-opacity:0.1;stroke-width:0.566929;stroke-linecap:butt;stroke-linejoin:miter;stroke:rgb(100%,0%,0%);stroke-opacity:0.5;stroke-miterlimit:10;" d="M -0.000661294 2.046875 L 69.069651 2.046875 L 69.069651 -6.921875 L -0.000661294 -6.921875 Z M -0.000661294 2.046875 " transform="matrix(2,0,0,2,5.669291,13.84375)"/>
<path style="fill:none;stroke-width:0.566929;stroke-linecap:butt;stroke-linejoin:miter;stroke:rgb(100%,0%,0%);stroke-opacity:0.5;stroke-miterlimit:10;" d="M -2.834646 2.833984 L 2.835276 -2.833984 " transform="matrix(2,0,0,2,5.669291,13.84375)"/>
<path style="fill:none;stroke-width:0.566929;stroke-linecap:butt;stroke-linejoin:miter;stroke:rgb(100%,0%,0%);stroke-opacity:0.5;stroke-miterlimit:10;" d="M 2.835276 2.833984 L -2.834646 -2.833984 " transform="matrix(2,0,0,2,5.669291,13.84375)"/>
<path style="fill-rule:nonzero;fill:rgb(50%,50%,0%);fill-opacity:0.1;stroke-width:0.566929;stroke-linecap:butt;stroke-linejoin:miter;stroke:rgb(100%,0%,0%);stroke-opacity:0.5;stroke-miterlimit:10;" d="M -0.000661294 2.046875 L 24.971995 2.046875 L 24.971995 -6.921875 L -0.000661294 -6.921875 Z M -0.000661294 2.046875 " transform="matrix(2,0,0,2,5.669291,13.84375)"/>
<path style=" stroke:none;fill-rule:nonzero;fill:rgb(0%,0%,0%);fill-opacity:1;" d="M 9.542969 10.40625 C 7.792969 10.40625 7.792969 8.40625 7.792969 7.96875 C 7.792969 7.4375 7.824219 6.78125 8.105469 6.28125 C 8.261719 6.0625 8.730469 5.5 9.542969 5.5 C 11.261719 5.5 11.261719 7.46875 11.261719 7.9375 C 11.261719 8.46875 11.261719 9.125 10.949219 9.625 C 10.792969 9.84375 10.324219 10.40625 9.542969 10.40625 Z M 7.230469 11.1875 C 7.230469 11.125 7.230469 10.65625 7.542969 10.25 C 8.324219 10.8125 9.167969 10.875 9.542969 10.875 C 11.386719 10.875 12.761719 9.5 12.761719 7.96875 C 12.761719 7.21875 12.449219 6.5 11.949219 6.03125 C 12.667969 5.34375 13.386719 5.25 13.730469 5.25 C 13.792969 5.25 13.886719 5.25 13.949219 5.28125 C 13.730469 5.34375 13.605469 5.5625 13.605469 5.8125 C 13.605469 6.15625 13.886719 6.375 14.199219 6.375 C 14.386719 6.375 14.761719 6.25 14.761719 5.78125 C 14.761719 5.4375 14.542969 4.8125 13.761719 4.8125 C 13.355469 4.8125 12.480469 4.9375 11.636719 5.75 C 10.792969 5.09375 9.980469 5.03125 9.542969 5.03125 C 7.667969 5.03125 6.292969 6.40625 6.292969 7.9375 C 6.292969 8.8125 6.730469 9.5625 7.230469 10 C 6.980469 10.28125 6.605469 10.9375 6.605469 11.65625 C 6.605469 12.28125 6.886719 13.03125 7.511719 13.4375 C 6.292969 13.75 5.667969 14.625 5.667969 15.40625 C 5.667969 16.84375 7.636719 17.9375 10.074219 17.9375 C 12.417969 17.9375 14.480469 16.9375 14.480469 15.375 C 14.480469 14.6875 14.230469 13.65625 13.199219 13.09375 C 12.136719 12.5625 10.980469 12.5625 9.761719 12.5625 C 9.261719 12.5625 8.417969 12.5625 8.261719 12.53125 C 7.636719 12.4375 7.230469 11.84375 7.230469 11.1875 Z M 10.105469 17.5 C 8.074219 17.5 6.699219 16.46875 6.699219 15.40625 C 6.699219 14.5 7.449219 13.75 8.324219 13.71875 L 9.511719 13.71875 C 11.230469 13.71875 13.449219 13.71875 13.449219 15.40625 C 13.449219 16.5 12.042969 17.5 10.105469 17.5 Z M 10.105469 17.5 "/>
<path style=" stroke:none;fill-rule:nonzero;fill:rgb(0%,0%,0%);fill-opacity:1;" d="M 17.289062 8.8125 C 17.414062 5.84375 19.101562 5.34375 19.789062 5.34375 C 21.820312 5.34375 22.039062 8.03125 22.039062 8.8125 Z M 17.289062 9.25 L 22.851562 9.25 C 23.289062 9.25 23.351562 9.25 23.351562 8.8125 C 23.351562 6.84375 22.257812 4.90625 19.789062 4.90625 C 17.476562 4.90625 15.632812 6.96875 15.632812 9.46875 C 15.632812 12.125 17.726562 14.0625 20.007812 14.0625 C 22.445312 14.0625 23.351562 11.84375 23.351562 11.46875 C 23.351562 11.28125 23.195312 11.21875 23.070312 11.21875 C 22.914062 11.21875 22.851562 11.34375 22.820312 11.5 C 22.132812 13.5625 20.320312 13.5625 20.132812 13.5625 C 19.132812 13.5625 18.351562 12.96875 17.882812 12.21875 C 17.289062 11.28125 17.289062 9.96875 17.289062 9.25 Z M 17.289062 9.25 "/>
<path style=" stroke:none;fill-rule:nonzero;fill:rgb(0%,0%,0%);fill-opacity:1;" d="M 28.363281 10.40625 C 26.613281 10.40625 26.613281 8.40625 26.613281 7.96875 C 26.613281 7.4375 26.644531 6.78125 26.925781 6.28125 C 27.082031 6.0625 27.550781 5.5 28.363281 5.5 C 30.082031 5.5 30.082031 7.46875 30.082031 7.9375 C 30.082031 8.46875 30.082031 9.125 29.769531 9.625 C 29.613281 9.84375 29.144531 10.40625 28.363281 10.40625 Z M 26.050781 11.1875 C 26.050781 11.125 26.050781 10.65625 26.363281 10.25 C 27.144531 10.8125 27.988281 10.875 28.363281 10.875 C 30.207031 10.875 31.582031 9.5 31.582031 7.96875 C 31.582031 7.21875 31.269531 6.5 30.769531 6.03125 C 31.488281 5.34375 32.207031 5.25 32.550781 5.25 C 32.613281 5.25 32.707031 5.25 32.769531 5.28125 C 32.550781 5.34375 32.425781 5.5625 32.425781 5.8125 C 32.425781 6.15625 32.707031 6.375 33.019531 6.375 C 33.207031 6.375 33.582031 6.25 33.582031 5.78125 C 33.582031 5.4375 33.363281 4.8125 32.582031 4.8125 C 32.175781 4.8125 31.300781 4.9375 30.457031 5.75 C 29.613281 5.09375 28.800781 5.03125 28.363281 5.03125 C 26.488281 5.03125 25.113281 6.40625 25.113281 7.9375 C 25.113281 8.8125 25.550781 9.5625 26.050781 10 C 25.800781 10.28125 25.425781 10.9375 25.425781 11.65625 C 25.425781 12.28125 25.707031 13.03125 26.332031 13.4375 C 25.113281 13.75 24.488281 14.625 24.488281 15.40625 C 24.488281 16.84375 26.457031 17.9375 28.894531 17.9375 C 31.238281 17.9375 33.300781 16.9375 33.300781 15.375 C 33.300781 14.6875 33.050781 13.65625 32.019531 13.09375 C 30.957031 12.5625 29.800781 12.5625 28.582031 12.5625 C 28.082031 12.5625 27.238281 12.5625 27.082031 12.53125 C 26.457031 12.4375 26.050781 11.84375 26.050781 11.1875 Z M 28.925781 17.5 C 26.894531 17.5 25.519531 16.46875 25.519531 15.40625 C 25.519531 14.5 26.269531 13.75 27.144531 13.71875 L 28.332031 13.71875 C 30.050781 13.71875 32.269531 13.71875 32.269531 15.40625 C 32.269531 16.5 30.863281 17.5 28.925781 17.5 Z M 28.925781 17.5 "/>
<path style=" stroke:none;fill-rule:nonzero;fill:rgb(0%,0%,0%);fill-opacity:1;" d="M 36.074219 12.34375 C 36.074219 13.21875 35.855469 13.21875 34.511719 13.21875 L 34.511719 13.84375 C 35.230469 13.8125 36.230469 13.78125 36.792969 13.78125 C 37.292969 13.78125 38.324219 13.8125 39.011719 13.84375 L 39.011719 13.21875 C 37.667969 13.21875 37.449219 13.21875 37.449219 12.34375 L 37.449219 8.65625 C 37.449219 6.59375 38.886719 5.46875 40.136719 5.46875 C 41.417969 5.46875 41.636719 6.53125 41.636719 7.6875 L 41.636719 12.34375 C 41.636719 13.21875 41.417969 13.21875 40.074219 13.21875 L 40.074219 13.84375 C 40.761719 13.8125 41.792969 13.78125 42.324219 13.78125 C 42.824219 13.78125 43.886719 13.8125 44.542969 13.84375 L 44.542969 13.21875 C 43.511719 13.21875 43.011719 13.21875 43.011719 12.625 L 43.011719 8.8125 C 43.011719 7.09375 43.011719 6.5 42.386719 5.78125 C 42.105469 5.4375 41.449219 5.03125 40.292969 5.03125 C 38.605469 5.03125 37.730469 6.21875 37.386719 7 L 37.386719 0 L 34.511719 0.21875 L 34.511719 0.84375 C 35.917969 0.84375 36.074219 0.96875 36.074219 1.96875 Z M 36.074219 12.34375 "/>
<path style=" stroke:none;fill-rule:nonzero;fill:rgb(0%,0%,0%);fill-opacity:1;" d="M 47.144531 12.34375 C 47.144531 13.21875 46.925781 13.21875 45.582031 13.21875 L 45.582031 13.84375 C 46.300781 13.8125 47.300781 13.78125 47.863281 13.78125 C 48.363281 13.78125 49.394531 13.8125 50.082031 13.84375 L 50.082031 13.21875 C 48.738281 13.21875 48.519531 13.21875 48.519531 12.34375 L 48.519531 8.65625 C 48.519531 6.59375 49.957031 5.46875 51.207031 5.46875 C 52.488281 5.46875 52.707031 6.53125 52.707031 7.6875 L 52.707031 12.34375 C 52.707031 13.21875 52.488281 13.21875 51.144531 13.21875 L 51.144531 13.84375 C 51.832031 13.8125 52.863281 13.78125 53.394531 13.78125 C 53.894531 13.78125 54.957031 13.8125 55.613281 13.84375 L 55.613281 13.21875 C 54.582031 13.21875 54.082031 13.21875 54.082031 12.625 L 54.082031 8.8125 C 54.082031 7.09375 54.082031 6.5 53.457031 5.78125 C 53.175781 5.4375 52.519531 5.03125 51.363281 5.03125 C 49.675781 5.03125 48.800781 6.21875 48.457031 7 L 48.457031 0 L 45.582031 0.21875 L 45.582031 0.84375 C 46.988281 0.84375 47.144531 0.96875 47.144531 1.96875 Z M 47.144531 12.34375 "/>
<path style="fill:none;stroke-width:0.566929;stroke-linecap:butt;stroke-linejoin:miter;stroke:rgb(100%,0%,0%);stroke-opacity:0.5;stroke-miterlimit:10;" d="M 22.138011 2.833984 L 27.805979 -2.833984 " transform="matrix(2,0,0,2,5.669291,13.84375)"/>
<path style="fill:none;stroke-width:0.566929;stroke-linecap:butt;stroke-linejoin:miter;stroke:rgb(100%,0%,0%);stroke-opacity:0.5;stroke-miterlimit:10;" d="M 27.805979 2.833984 L 22.138011 -2.833984 " transform="matrix(2,0,0,2,5.669291,13.84375)"/>
<path style="fill-rule:nonzero;fill:rgb(50%,50%,0%);fill-opacity:0.1;stroke-width:0.566929;stroke-linecap:butt;stroke-linejoin:miter;stroke:rgb(100%,0%,0%);stroke-opacity:0.5;stroke-miterlimit:10;" d="M 24.971995 0.109375 L 45.040354 0.109375 L 45.040354 -6.921875 L 24.971995 -6.921875 Z M 24.971995 0.109375 " transform="matrix(2,0,0,2,5.669291,13.84375)"/>
<path style=" stroke:none;fill-rule:nonzero;fill:rgb(0%,0%,0%);fill-opacity:1;" d="M 61.082031 9.15625 C 61.675781 8.40625 62.425781 7.4375 62.925781 6.90625 C 63.550781 6.1875 64.363281 5.875 65.300781 5.875 L 65.300781 5.25 C 64.769531 5.28125 64.175781 5.3125 63.644531 5.3125 C 63.050781 5.3125 61.988281 5.28125 61.738281 5.25 L 61.738281 5.875 C 62.175781 5.90625 62.332031 6.15625 62.332031 6.5 C 62.332031 6.8125 62.113281 7.0625 62.019531 7.1875 L 60.800781 8.75 L 59.238281 6.71875 C 59.050781 6.53125 59.050781 6.5 59.050781 6.375 C 59.050781 6.0625 59.363281 5.875 59.738281 5.875 L 59.738281 5.25 C 59.238281 5.28125 57.925781 5.3125 57.582031 5.3125 C 57.175781 5.3125 56.238281 5.28125 55.707031 5.25 L 55.707031 5.875 C 57.113281 5.875 57.113281 5.875 58.050781 7.09375 L 60.019531 9.65625 L 58.144531 12.03125 C 57.207031 13.1875 56.019531 13.21875 55.613281 13.21875 L 55.613281 13.84375 C 56.113281 13.8125 56.738281 13.78125 57.269531 13.78125 C 57.832031 13.78125 58.675781 13.8125 59.144531 13.84375 L 59.144531 13.21875 C 58.707031 13.15625 58.582031 12.90625 58.582031 12.59375 C 58.582031 12.15625 59.144531 11.5 60.363281 10.0625 L 61.894531 12.0625 C 62.050781 12.28125 62.300781 12.59375 62.300781 12.71875 C 62.300781 12.90625 62.113281 13.21875 61.582031 13.21875 L 61.582031 13.84375 C 62.175781 13.8125 63.300781 13.78125 63.738281 13.78125 C 64.269531 13.78125 65.050781 13.8125 65.644531 13.84375 L 65.644531 13.21875 C 64.582031 13.21875 64.207031 13.1875 63.769531 12.59375 Z M 61.082031 9.15625 "/>
<path style=" stroke:none;fill-rule:nonzero;fill:rgb(0%,0%,0%);fill-opacity:1;" d="M 71.597656 9.15625 C 72.191406 8.40625 72.941406 7.4375 73.441406 6.90625 C 74.066406 6.1875 74.878906 5.875 75.816406 5.875 L 75.816406 5.25 C 75.285156 5.28125 74.691406 5.3125 74.160156 5.3125 C 73.566406 5.3125 72.503906 5.28125 72.253906 5.25 L 72.253906 5.875 C 72.691406 5.90625 72.847656 6.15625 72.847656 6.5 C 72.847656 6.8125 72.628906 7.0625 72.535156 7.1875 L 71.316406 8.75 L 69.753906 6.71875 C 69.566406 6.53125 69.566406 6.5 69.566406 6.375 C 69.566406 6.0625 69.878906 5.875 70.253906 5.875 L 70.253906 5.25 C 69.753906 5.28125 68.441406 5.3125 68.097656 5.3125 C 67.691406 5.3125 66.753906 5.28125 66.222656 5.25 L 66.222656 5.875 C 67.628906 5.875 67.628906 5.875 68.566406 7.09375 L 70.535156 9.65625 L 68.660156 12.03125 C 67.722656 13.1875 66.535156 13.21875 66.128906 13.21875 L 66.128906 13.84375 C 66.628906 13.8125 67.253906 13.78125 67.785156 13.78125 C 68.347656 13.78125 69.191406 13.8125 69.660156 13.84375 L 69.660156 13.21875 C 69.222656 13.15625 69.097656 12.90625 69.097656 12.59375 C 69.097656 12.15625 69.660156 11.5 70.878906 10.0625 L 72.410156 12.0625 C 72.566406 12.28125 72.816406 12.59375 72.816406 12.71875 C 72.816406 12.90625 72.628906 13.21875 72.097656 13.21875 L 72.097656 13.84375 C 72.691406 13.8125 73.816406 13.78125 74.253906 13.78125 C 74.785156 13.78125 75.566406 13.8125 76.160156 13.84375 L 76.160156 13.21875 C 75.097656 13.21875 74.722656 13.1875 74.285156 12.59375 Z M 71.597656 9.15625 "/>
<path style=" stroke:none;fill-rule:nonzero;fill:rgb(0%,0%,0%);fill-opacity:1;" d="M 83.957031 12.75 L 83.957031 14.0625 L 86.894531 13.84375 L 86.894531 13.21875 C 85.519531 13.21875 85.332031 13.09375 85.332031 12.09375 L 85.332031 0 L 82.488281 0.21875 L 82.488281 0.84375 C 83.863281 0.84375 84.019531 0.96875 84.019531 1.96875 L 84.019531 6.28125 C 83.457031 5.5625 82.582031 5.03125 81.519531 5.03125 C 79.175781 5.03125 77.082031 7 77.082031 9.5625 C 77.082031 12.09375 79.019531 14.0625 81.300781 14.0625 C 82.582031 14.0625 83.457031 13.375 83.957031 12.75 Z M 83.957031 7.40625 L 83.957031 11.5 C 83.957031 11.84375 83.957031 11.875 83.738281 12.21875 C 83.144531 13.1875 82.269531 13.625 81.394531 13.625 C 80.488281 13.625 79.769531 13.09375 79.300781 12.34375 C 78.800781 11.53125 78.738281 10.40625 78.738281 9.5625 C 78.738281 8.84375 78.769531 7.65625 79.332031 6.75 C 79.769531 6.125 80.519531 5.46875 81.613281 5.46875 C 82.300781 5.46875 83.144531 5.78125 83.738281 6.65625 C 83.957031 7 83.957031 7.03125 83.957031 7.40625 Z M 83.957031 7.40625 "/>
<path style=" stroke:none;fill-rule:nonzero;fill:rgb(0%,0%,0%);fill-opacity:1;" d="M 89.6875 8.8125 C 89.8125 5.84375 91.5 5.34375 92.1875 5.34375 C 94.21875 5.34375 94.4375 8.03125 94.4375 8.8125 Z M 89.6875 9.25 L 95.25 9.25 C 95.6875 9.25 95.75 9.25 95.75 8.8125 C 95.75 6.84375 94.65625 4.90625 92.1875 4.90625 C 89.875 4.90625 88.03125 6.96875 88.03125 9.46875 C 88.03125 12.125 90.125 14.0625 92.40625 14.0625 C 94.84375 14.0625 95.75 11.84375 95.75 11.46875 C 95.75 11.28125 95.59375 11.21875 95.46875 11.21875 C 95.3125 11.21875 95.25 11.34375 95.21875 11.5 C 94.53125 13.5625 92.71875 13.5625 92.53125 13.5625 C 91.53125 13.5625 90.75 12.96875 90.28125 12.21875 C 89.6875 11.28125 89.6875 9.96875 89.6875 9.25 Z M 89.6875 9.25 "/>
<path style="fill:none;stroke-width:0.566929;stroke-linecap:butt;stroke-linejoin:miter;stroke:rgb(100%,0%,0%);stroke-opacity:0.5;stroke-miterlimit:10;" d="M 42.204417 2.833984 L 47.874339 -2.833984 " transform="matrix(2,0,0,2,5.669291,13.84375)"/>
<path style="fill:none;stroke-width:0.566929;stroke-linecap:butt;stroke-linejoin:miter;stroke:rgb(100%,0%,0%);stroke-opacity:0.5;stroke-miterlimit:10;" d="M 47.874339 2.833984 L 42.204417 -2.833984 " transform="matrix(2,0,0,2,5.669291,13.84375)"/>
<path style="fill-rule:nonzero;fill:rgb(50%,50%,0%);fill-opacity:0.1;stroke-width:0.566929;stroke-linecap:butt;stroke-linejoin:miter;stroke:rgb(100%,0%,0%);stroke-opacity:0.5;stroke-miterlimit:10;" d="M 45.040354 2.046875 L 69.069651 2.046875 L 69.069651 -4.46875 L 45.040354 -4.46875 Z M 45.040354 2.046875 " transform="matrix(2,0,0,2,5.669291,13.84375)"/>
<path style=" stroke:none;fill-rule:nonzero;fill:rgb(0%,0%,0%);fill-opacity:1;" d="M 101.21875 9.15625 C 101.8125 8.40625 102.5625 7.4375 103.0625 6.90625 C 103.6875 6.1875 104.5 5.875 105.4375 5.875 L 105.4375 5.25 C 104.90625 5.28125 104.3125 5.3125 103.78125 5.3125 C 103.1875 5.3125 102.125 5.28125 101.875 5.25 L 101.875 5.875 C 102.3125 5.90625 102.46875 6.15625 102.46875 6.5 C 102.46875 6.8125 102.25 7.0625 102.15625 7.1875 L 100.9375 8.75 L 99.375 6.71875 C 99.1875 6.53125 99.1875 6.5 99.1875 6.375 C 99.1875 6.0625 99.5 5.875 99.875 5.875 L 99.875 5.25 C 99.375 5.28125 98.0625 5.3125 97.71875 5.3125 C 97.3125 5.3125 96.375 5.28125 95.84375 5.25 L 95.84375 5.875 C 97.25 5.875 97.25 5.875 98.1875 7.09375 L 100.15625 9.65625 L 98.28125 12.03125 C 97.34375 13.1875 96.15625 13.21875 95.75 13.21875 L 95.75 13.84375 C 96.25 13.8125 96.875 13.78125 97.40625 13.78125 C 97.96875 13.78125 98.8125 13.8125 99.28125 13.84375 L 99.28125 13.21875 C 98.84375 13.15625 98.71875 12.90625 98.71875 12.59375 C 98.71875 12.15625 99.28125 11.5 100.5 10.0625 L 102.03125 12.0625 C 102.1875 12.28125 102.4375 12.59375 102.4375 12.71875 C 102.4375 12.90625 102.25 13.21875 101.71875 13.21875 L 101.71875 13.84375 C 102.3125 13.8125 103.4375 13.78125 103.875 13.78125 C 104.40625 13.78125 105.1875 13.8125 105.78125 13.84375 L 105.78125 13.21875 C 104.71875 13.21875 104.34375 13.1875 103.90625 12.59375 Z M 101.21875 9.15625 "/>
<path style=" stroke:none;fill-rule:nonzero;fill:rgb(0%,0%,0%);fill-opacity:1;" d="M 114.296875 7.15625 C 114.796875 5.875 115.828125 5.875 116.140625 5.875 L 116.140625 5.25 C 115.671875 5.28125 115.109375 5.3125 114.640625 5.3125 C 114.296875 5.3125 113.359375 5.28125 112.921875 5.25 L 112.921875 5.875 C 113.546875 5.875 113.859375 6.21875 113.859375 6.71875 C 113.859375 6.9375 113.828125 6.96875 113.734375 7.21875 L 111.703125 12.09375 L 109.515625 6.75 C 109.421875 6.53125 109.390625 6.46875 109.390625 6.375 C 109.390625 5.875 110.109375 5.875 110.515625 5.875 L 110.515625 5.25 C 109.984375 5.28125 108.671875 5.3125 108.328125 5.3125 C 107.796875 5.3125 106.984375 5.28125 106.390625 5.25 L 106.390625 5.875 C 107.359375 5.875 107.734375 5.875 108.015625 6.5625 L 111.015625 13.84375 C 110.890625 14.09375 110.609375 14.75 110.515625 15.03125 C 110.078125 16.125 109.515625 17.5 108.234375 17.5 C 108.140625 17.5 107.671875 17.5 107.296875 17.125 C 107.921875 17.0625 108.078125 16.625 108.078125 16.28125 C 108.078125 15.78125 107.703125 15.46875 107.234375 15.46875 C 106.828125 15.46875 106.390625 15.71875 106.390625 16.3125 C 106.390625 17.21875 107.234375 17.9375 108.234375 17.9375 C 109.484375 17.9375 110.296875 16.78125 110.765625 15.65625 Z M 114.296875 7.15625 "/>
<path style=" stroke:none;fill-rule:nonzero;fill:rgb(0%,0%,0%);fill-opacity:1;" d="M 118.191406 8.8125 C 118.316406 5.84375 120.003906 5.34375 120.691406 5.34375 C 122.722656 5.34375 122.941406 8.03125 122.941406 8.8125 Z M 118.191406 9.25 L 123.753906 9.25 C 124.191406 9.25 124.253906 9.25 124.253906 8.8125 C 124.253906 6.84375 123.160156 4.90625 120.691406 4.90625 C 118.378906 4.90625 116.535156 6.96875 116.535156 9.46875 C 116.535156 12.125 118.628906 14.0625 120.910156 14.0625 C 123.347656 14.0625 124.253906 11.84375 124.253906 11.46875 C 124.253906 11.28125 124.097656 11.21875 123.972656 11.21875 C 123.816406 11.21875 123.753906 11.34375 123.722656 11.5 C 123.035156 13.5625 121.222656 13.5625 121.035156 13.5625 C 120.035156 13.5625 119.253906 12.96875 118.785156 12.21875 C 118.191406 11.28125 118.191406 9.96875 118.191406 9.25 Z M 118.191406 9.25 "/>
<path style=" stroke:none;fill-rule:nonzero;fill:rgb(0%,0%,0%);fill-opacity:1;" d="M 127.046875 8.8125 C 127.171875 5.84375 128.859375 5.34375 129.546875 5.34375 C 131.578125 5.34375 131.796875 8.03125 131.796875 8.8125 Z M 127.046875 9.25 L 132.609375 9.25 C 133.046875 9.25 133.109375 9.25 133.109375 8.8125 C 133.109375 6.84375 132.015625 4.90625 129.546875 4.90625 C 127.234375 4.90625 125.390625 6.96875 125.390625 9.46875 C 125.390625 12.125 127.484375 14.0625 129.765625 14.0625 C 132.203125 14.0625 133.109375 11.84375 133.109375 11.46875 C 133.109375 11.28125 132.953125 11.21875 132.828125 11.21875 C 132.671875 11.21875 132.609375 11.34375 132.578125 11.5 C 131.890625 13.5625 130.078125 13.5625 129.890625 13.5625 C 128.890625 13.5625 128.109375 12.96875 127.640625 12.21875 C 127.046875 11.28125 127.046875 9.96875 127.046875 9.25 Z M 127.046875 9.25 "/>
<path style=" stroke:none;fill-rule:nonzero;fill:rgb(0%,0%,0%);fill-opacity:1;" d="M 141.964844 7.15625 C 142.464844 5.875 143.496094 5.875 143.808594 5.875 L 143.808594 5.25 C 143.339844 5.28125 142.777344 5.3125 142.308594 5.3125 C 141.964844 5.3125 141.027344 5.28125 140.589844 5.25 L 140.589844 5.875 C 141.214844 5.875 141.527344 6.21875 141.527344 6.71875 C 141.527344 6.9375 141.496094 6.96875 141.402344 7.21875 L 139.371094 12.09375 L 137.183594 6.75 C 137.089844 6.53125 137.058594 6.46875 137.058594 6.375 C 137.058594 5.875 137.777344 5.875 138.183594 5.875 L 138.183594 5.25 C 137.652344 5.28125 136.339844 5.3125 135.996094 5.3125 C 135.464844 5.3125 134.652344 5.28125 134.058594 5.25 L 134.058594 5.875 C 135.027344 5.875 135.402344 5.875 135.683594 6.5625 L 138.683594 13.84375 C 138.558594 14.09375 138.277344 14.75 138.183594 15.03125 C 137.746094 16.125 137.183594 17.5 135.902344 17.5 C 135.808594 17.5 135.339844 17.5 134.964844 17.125 C 135.589844 17.0625 135.746094 16.625 135.746094 16.28125 C 135.746094 15.78125 135.371094 15.46875 134.902344 15.46875 C 134.496094 15.46875 134.058594 15.71875 134.058594 16.3125 C 134.058594 17.21875 134.902344 17.9375 135.902344 17.9375 C 137.152344 17.9375 137.964844 16.78125 138.433594 15.65625 Z M 141.964844 7.15625 "/>
</g>
</svg>
