<?xml version="1.0" encoding="UTF-8"?>
<svg xmlns="http://www.w3.org/2000/svg" xmlns:xlink="http://www.w3.org/1999/xlink" width="279.892277pt" height="318.025719pt" viewBox="0 0 279.892277 318.025719" version="1.1">
<g id="surface61">
<path style="fill:none;stroke-width:0.566929;stroke-linecap:butt;stroke-linejoin:miter;stroke:rgb(100%,0%,0%);stroke-opacity:0.5;stroke-miterlimit:10;" d="M -2.8338 2.834169 L 2.834169 -2.8338 " transform="matrix(2,0,0,2,5.952756,5.952756)"/>
<path style="fill:none;stroke-width:0.566929;stroke-linecap:butt;stroke-linejoin:miter;stroke:rgb(100%,0%,0%);stroke-opacity:0.5;stroke-miterlimit:10;" d="M 2.834169 2.834169 L -2.8338 -2.8338 " transform="matrix(2,0,0,2,5.952756,5.952756)"/>
<path style="fill-rule:nonzero;fill:rgb(50%,50%,0%);fill-opacity:0.1;stroke-width:0.566929;stroke-linecap:butt;stroke-linejoin:miter;stroke:rgb(100%,0%,0%);stroke-opacity:0.5;stroke-miterlimit:10;" d="M 0.000184547 155.894716 L 136.82831 155.894716 L 136.82831 0.000184547 L 0.000184547 0.000184547 Z M 0.000184547 155.894716 " transform="matrix(2,0,0,2,5.952756,5.952756)"/>
<path style="fill:none;stroke-width:0.566929;stroke-linecap:butt;stroke-linejoin:miter;stroke:rgb(100%,0%,0%);stroke-opacity:0.5;stroke-miterlimit:10;" d="M 16.857606 27.652528 L 22.527528 21.98456 " transform="matrix(2,0,0,2,5.952756,5.952756)"/>
<path style="fill:none;stroke-width:0.566929;stroke-linecap:butt;stroke-linejoin:miter;stroke:rgb(100%,0%,0%);stroke-opacity:0.5;stroke-miterlimit:10;" d="M 22.527528 27.652528 L 16.857606 21.98456 " transform="matrix(2,0,0,2,5.952756,5.952756)"/>
<path style="fill-rule:nonzero;fill:rgb(50%,50%,0%);fill-opacity:0.1;stroke-width:0.566929;stroke-linecap:butt;stroke-linejoin:miter;stroke:rgb(100%,0%,0%);stroke-opacity:0.5;stroke-miterlimit:10;" d="M 4.48456 47.675966 L 31.232606 47.675966 L 31.232606 0.000184547 L 4.48456 0.000184547 Z M 4.48456 47.675966 " transform="matrix(2,0,0,2,5.952756,5.952756)"/>
<path style="fill:none;stroke-width:0.566929;stroke-linecap:butt;stroke-linejoin:miter;stroke:rgb(100%,0%,0%);stroke-opacity:0.5;stroke-miterlimit:10;" d="M 60.42206 27.652528 L 66.091981 21.98456 " transform="matrix(2,0,0,2,5.952756,5.952756)"/>
<path style="fill:none;stroke-width:0.566929;stroke-linecap:butt;stroke-linejoin:miter;stroke:rgb(100%,0%,0%);stroke-opacity:0.5;stroke-miterlimit:10;" d="M 66.091981 27.652528 L 60.42206 21.98456 " transform="matrix(2,0,0,2,5.952756,5.952756)"/>
<path style="fill-rule:nonzero;fill:rgb(50%,50%,0%);fill-opacity:0.1;stroke-width:0.566929;stroke-linecap:butt;stroke-linejoin:miter;stroke:rgb(100%,0%,0%);stroke-opacity:0.5;stroke-miterlimit:10;" d="M 39.814638 39.670106 L 75.804872 39.670106 L 75.804872 7.554872 L 39.814638 7.554872 Z M 39.814638 39.670106 " transform="matrix(2,0,0,2,5.952756,5.952756)"/>
<path style="fill:none;stroke-width:0.566929;stroke-linecap:butt;stroke-linejoin:miter;stroke:rgb(100%,0%,0%);stroke-opacity:0.5;stroke-miterlimit:10;" d="M 112.812685 27.652528 L 118.482606 21.98456 " transform="matrix(2,0,0,2,5.952756,5.952756)"/>
<path style="fill:none;stroke-width:0.566929;stroke-linecap:butt;stroke-linejoin:miter;stroke:rgb(100%,0%,0%);stroke-opacity:0.5;stroke-miterlimit:10;" d="M 118.482606 27.652528 L 112.812685 21.98456 " transform="matrix(2,0,0,2,5.952756,5.952756)"/>
<path style="fill-rule:nonzero;fill:rgb(50%,50%,0%);fill-opacity:0.1;stroke-width:0.566929;stroke-linecap:butt;stroke-linejoin:miter;stroke:rgb(100%,0%,0%);stroke-opacity:0.5;stroke-miterlimit:10;" d="M 89.38495 43.716981 L 132.761903 43.716981 L 132.761903 8.341981 L 89.38495 8.341981 Z M 89.38495 43.716981 " transform="matrix(2,0,0,2,5.952756,5.952756)"/>
<path style="fill:none;stroke-width:0.566929;stroke-linecap:butt;stroke-linejoin:miter;stroke:rgb(100%,0%,0%);stroke-opacity:0.5;stroke-miterlimit:10;" d="M 16.857606 76.810731 L 22.527528 71.14081 " transform="matrix(2,0,0,2,5.952756,5.952756)"/>
<path style="fill:none;stroke-width:0.566929;stroke-linecap:butt;stroke-linejoin:miter;stroke:rgb(100%,0%,0%);stroke-opacity:0.5;stroke-miterlimit:10;" d="M 22.527528 76.810731 L 16.857606 71.14081 " transform="matrix(2,0,0,2,5.952756,5.952756)"/>
<path style="fill-rule:nonzero;fill:rgb(50%,50%,0%);fill-opacity:0.1;stroke-width:0.566929;stroke-linecap:butt;stroke-linejoin:miter;stroke:rgb(100%,0%,0%);stroke-opacity:0.5;stroke-miterlimit:10;" d="M 0.000184547 96.785341 L 31.043153 96.785341 L 31.043153 61.914247 L 0.000184547 61.914247 Z M 0.000184547 96.785341 " transform="matrix(2,0,0,2,5.952756,5.952756)"/>
<path style="fill:none;stroke-width:0.566929;stroke-linecap:butt;stroke-linejoin:miter;stroke:rgb(100%,0%,0%);stroke-opacity:0.5;stroke-miterlimit:10;" d="M 60.42206 76.810731 L 66.091981 71.14081 " transform="matrix(2,0,0,2,5.952756,5.952756)"/>
<path style="fill:none;stroke-width:0.566929;stroke-linecap:butt;stroke-linejoin:miter;stroke:rgb(100%,0%,0%);stroke-opacity:0.5;stroke-miterlimit:10;" d="M 66.091981 76.810731 L 60.42206 71.14081 " transform="matrix(2,0,0,2,5.952756,5.952756)"/>
<path style="fill-rule:nonzero;fill:rgb(50%,50%,0%);fill-opacity:0.1;stroke-width:0.566929;stroke-linecap:butt;stroke-linejoin:miter;stroke:rgb(100%,0%,0%);stroke-opacity:0.5;stroke-miterlimit:10;" d="M 39.215028 101.931825 L 89.38495 101.931825 L 89.38495 47.675966 L 39.215028 47.675966 Z M 39.215028 101.931825 " transform="matrix(2,0,0,2,5.952756,5.952756)"/>
<path style="fill:none;stroke-width:0.566929;stroke-linecap:butt;stroke-linejoin:miter;stroke:rgb(100%,0%,0%);stroke-opacity:0.5;stroke-miterlimit:10;" d="M 112.812685 76.810731 L 118.482606 71.14081 " transform="matrix(2,0,0,2,5.952756,5.952756)"/>
<path style="fill:none;stroke-width:0.566929;stroke-linecap:butt;stroke-linejoin:miter;stroke:rgb(100%,0%,0%);stroke-opacity:0.5;stroke-miterlimit:10;" d="M 118.482606 76.810731 L 112.812685 71.14081 " transform="matrix(2,0,0,2,5.952756,5.952756)"/>
<path style="fill-rule:nonzero;fill:rgb(50%,50%,0%);fill-opacity:0.1;stroke-width:0.566929;stroke-linecap:butt;stroke-linejoin:miter;stroke:rgb(100%,0%,0%);stroke-opacity:0.5;stroke-miterlimit:10;" d="M 89.595888 96.195497 L 136.82831 96.195497 L 136.82831 61.273622 L 89.595888 61.273622 Z M 89.595888 96.195497 " transform="matrix(2,0,0,2,5.952756,5.952756)"/>
<path style="fill:none;stroke-width:0.566929;stroke-linecap:butt;stroke-linejoin:miter;stroke:rgb(100%,0%,0%);stroke-opacity:0.5;stroke-miterlimit:10;" d="M 16.857606 131.14081 L 22.527528 125.470888 " transform="matrix(2,0,0,2,5.952756,5.952756)"/>
<path style="fill:none;stroke-width:0.566929;stroke-linecap:butt;stroke-linejoin:miter;stroke:rgb(100%,0%,0%);stroke-opacity:0.5;stroke-miterlimit:10;" d="M 22.527528 131.14081 L 16.857606 125.470888 " transform="matrix(2,0,0,2,5.952756,5.952756)"/>
<path style="fill-rule:nonzero;fill:rgb(50%,50%,0%);fill-opacity:0.1;stroke-width:0.566929;stroke-linecap:butt;stroke-linejoin:miter;stroke:rgb(100%,0%,0%);stroke-opacity:0.5;stroke-miterlimit:10;" d="M 4.177919 136.257997 L 39.215028 136.257997 L 39.215028 111.929872 L 4.177919 111.929872 Z M 4.177919 136.257997 " transform="matrix(2,0,0,2,5.952756,5.952756)"/>
<path style="fill:none;stroke-width:0.566929;stroke-linecap:butt;stroke-linejoin:miter;stroke:rgb(100%,0%,0%);stroke-opacity:0.5;stroke-miterlimit:10;" d="M 60.42206 131.14081 L 66.091981 125.470888 " transform="matrix(2,0,0,2,5.952756,5.952756)"/>
<path style="fill:none;stroke-width:0.566929;stroke-linecap:butt;stroke-linejoin:miter;stroke:rgb(100%,0%,0%);stroke-opacity:0.5;stroke-miterlimit:10;" d="M 66.091981 131.14081 L 60.42206 125.470888 " transform="matrix(2,0,0,2,5.952756,5.952756)"/>
<path style="fill-rule:nonzero;fill:rgb(50%,50%,0%);fill-opacity:0.1;stroke-width:0.566929;stroke-linecap:butt;stroke-linejoin:miter;stroke:rgb(100%,0%,0%);stroke-opacity:0.5;stroke-miterlimit:10;" d="M 46.771669 155.894716 L 88.549013 155.894716 L 88.549013 101.931825 L 46.771669 101.931825 Z M 46.771669 155.894716 " transform="matrix(2,0,0,2,5.952756,5.952756)"/>
<path style="fill:none;stroke-width:0.566929;stroke-linecap:butt;stroke-linejoin:miter;stroke:rgb(100%,0%,0%);stroke-opacity:0.5;stroke-miterlimit:10;" d="M 112.812685 131.14081 L 118.482606 125.470888 " transform="matrix(2,0,0,2,5.952756,5.952756)"/>
<path style="fill:none;stroke-width:0.566929;stroke-linecap:butt;stroke-linejoin:miter;stroke:rgb(100%,0%,0%);stroke-opacity:0.5;stroke-miterlimit:10;" d="M 118.482606 131.14081 L 112.812685 125.470888 " transform="matrix(2,0,0,2,5.952756,5.952756)"/>
<path style="fill-rule:nonzero;fill:rgb(50%,50%,0%);fill-opacity:0.1;stroke-width:0.566929;stroke-linecap:butt;stroke-linejoin:miter;stroke:rgb(100%,0%,0%);stroke-opacity:0.5;stroke-miterlimit:10;" d="M 97.535341 152.230653 L 121.63495 152.230653 L 121.63495 116.7287 L 97.535341 116.7287 Z M 97.535341 152.230653 " transform="matrix(2,0,0,2,5.952756,5.952756)"/>
</g>
</svg>
